G04 #@! TF.GenerationSoftware,KiCad,Pcbnew,(5.1.4)-1*
G04 #@! TF.CreationDate,2019-12-09T12:31:40+11:00*
G04 #@! TF.ProjectId,dingo-hat,64696e67-6f2d-4686-9174-2e6b69636164,rev?*
G04 #@! TF.SameCoordinates,PX7f50c60PY7d37aa0*
G04 #@! TF.FileFunction,Paste,Top*
G04 #@! TF.FilePolarity,Positive*
%FSLAX46Y46*%
G04 Gerber Fmt 4.6, Leading zero omitted, Abs format (unit mm)*
G04 Created by KiCad (PCBNEW (5.1.4)-1) date 2019-12-09 12:31:40*
%MOMM*%
%LPD*%
G04 APERTURE LIST*
%ADD10R,0.800000X0.500000*%
%ADD11R,0.800000X0.400000*%
%ADD12R,0.500000X0.800000*%
%ADD13R,0.400000X0.800000*%
%ADD14C,0.100000*%
%ADD15C,0.950000*%
%ADD16R,1.200000X0.900000*%
%ADD17R,0.900000X0.800000*%
%ADD18R,0.650000X0.300000*%
%ADD19R,1.550000X2.480000*%
%ADD20R,1.100000X1.100000*%
%ADD21C,1.425000*%
%ADD22R,0.400000X1.100000*%
%ADD23R,0.800000X2.200000*%
%ADD24R,3.700000X2.710000*%
%ADD25R,2.400000X1.650000*%
%ADD26R,0.300000X0.800000*%
%ADD27R,1.060000X0.650000*%
%ADD28R,2.000000X3.500000*%
%ADD29R,3.200000X1.600000*%
G04 APERTURE END LIST*
D10*
X61800000Y20300000D03*
D11*
X61800000Y21100000D03*
D10*
X61800000Y22700000D03*
D11*
X61800000Y21900000D03*
D10*
X60000000Y20300000D03*
D11*
X60000000Y21900000D03*
X60000000Y21100000D03*
D10*
X60000000Y22700000D03*
D12*
X45800000Y16800000D03*
D13*
X45000000Y16800000D03*
D12*
X43400000Y16800000D03*
D13*
X44200000Y16800000D03*
D12*
X45800000Y15000000D03*
D13*
X44200000Y15000000D03*
X45000000Y15000000D03*
D12*
X43400000Y15000000D03*
D14*
G36*
X10520779Y48957856D02*
G01*
X10543834Y48954437D01*
X10566443Y48948773D01*
X10588387Y48940921D01*
X10609457Y48930956D01*
X10629448Y48918974D01*
X10648168Y48905090D01*
X10665438Y48889438D01*
X10681090Y48872168D01*
X10694974Y48853448D01*
X10706956Y48833457D01*
X10716921Y48812387D01*
X10724773Y48790443D01*
X10730437Y48767834D01*
X10733856Y48744779D01*
X10735000Y48721500D01*
X10735000Y48146500D01*
X10733856Y48123221D01*
X10730437Y48100166D01*
X10724773Y48077557D01*
X10716921Y48055613D01*
X10706956Y48034543D01*
X10694974Y48014552D01*
X10681090Y47995832D01*
X10665438Y47978562D01*
X10648168Y47962910D01*
X10629448Y47949026D01*
X10609457Y47937044D01*
X10588387Y47927079D01*
X10566443Y47919227D01*
X10543834Y47913563D01*
X10520779Y47910144D01*
X10497500Y47909000D01*
X10022500Y47909000D01*
X9999221Y47910144D01*
X9976166Y47913563D01*
X9953557Y47919227D01*
X9931613Y47927079D01*
X9910543Y47937044D01*
X9890552Y47949026D01*
X9871832Y47962910D01*
X9854562Y47978562D01*
X9838910Y47995832D01*
X9825026Y48014552D01*
X9813044Y48034543D01*
X9803079Y48055613D01*
X9795227Y48077557D01*
X9789563Y48100166D01*
X9786144Y48123221D01*
X9785000Y48146500D01*
X9785000Y48721500D01*
X9786144Y48744779D01*
X9789563Y48767834D01*
X9795227Y48790443D01*
X9803079Y48812387D01*
X9813044Y48833457D01*
X9825026Y48853448D01*
X9838910Y48872168D01*
X9854562Y48889438D01*
X9871832Y48905090D01*
X9890552Y48918974D01*
X9910543Y48930956D01*
X9931613Y48940921D01*
X9953557Y48948773D01*
X9976166Y48954437D01*
X9999221Y48957856D01*
X10022500Y48959000D01*
X10497500Y48959000D01*
X10520779Y48957856D01*
X10520779Y48957856D01*
G37*
D15*
X10260000Y48434000D03*
D14*
G36*
X10520779Y47207856D02*
G01*
X10543834Y47204437D01*
X10566443Y47198773D01*
X10588387Y47190921D01*
X10609457Y47180956D01*
X10629448Y47168974D01*
X10648168Y47155090D01*
X10665438Y47139438D01*
X10681090Y47122168D01*
X10694974Y47103448D01*
X10706956Y47083457D01*
X10716921Y47062387D01*
X10724773Y47040443D01*
X10730437Y47017834D01*
X10733856Y46994779D01*
X10735000Y46971500D01*
X10735000Y46396500D01*
X10733856Y46373221D01*
X10730437Y46350166D01*
X10724773Y46327557D01*
X10716921Y46305613D01*
X10706956Y46284543D01*
X10694974Y46264552D01*
X10681090Y46245832D01*
X10665438Y46228562D01*
X10648168Y46212910D01*
X10629448Y46199026D01*
X10609457Y46187044D01*
X10588387Y46177079D01*
X10566443Y46169227D01*
X10543834Y46163563D01*
X10520779Y46160144D01*
X10497500Y46159000D01*
X10022500Y46159000D01*
X9999221Y46160144D01*
X9976166Y46163563D01*
X9953557Y46169227D01*
X9931613Y46177079D01*
X9910543Y46187044D01*
X9890552Y46199026D01*
X9871832Y46212910D01*
X9854562Y46228562D01*
X9838910Y46245832D01*
X9825026Y46264552D01*
X9813044Y46284543D01*
X9803079Y46305613D01*
X9795227Y46327557D01*
X9789563Y46350166D01*
X9786144Y46373221D01*
X9785000Y46396500D01*
X9785000Y46971500D01*
X9786144Y46994779D01*
X9789563Y47017834D01*
X9795227Y47040443D01*
X9803079Y47062387D01*
X9813044Y47083457D01*
X9825026Y47103448D01*
X9838910Y47122168D01*
X9854562Y47139438D01*
X9871832Y47155090D01*
X9890552Y47168974D01*
X9910543Y47180956D01*
X9931613Y47190921D01*
X9953557Y47198773D01*
X9976166Y47204437D01*
X9999221Y47207856D01*
X10022500Y47209000D01*
X10497500Y47209000D01*
X10520779Y47207856D01*
X10520779Y47207856D01*
G37*
D15*
X10260000Y46684000D03*
D14*
G36*
X15092779Y47207856D02*
G01*
X15115834Y47204437D01*
X15138443Y47198773D01*
X15160387Y47190921D01*
X15181457Y47180956D01*
X15201448Y47168974D01*
X15220168Y47155090D01*
X15237438Y47139438D01*
X15253090Y47122168D01*
X15266974Y47103448D01*
X15278956Y47083457D01*
X15288921Y47062387D01*
X15296773Y47040443D01*
X15302437Y47017834D01*
X15305856Y46994779D01*
X15307000Y46971500D01*
X15307000Y46396500D01*
X15305856Y46373221D01*
X15302437Y46350166D01*
X15296773Y46327557D01*
X15288921Y46305613D01*
X15278956Y46284543D01*
X15266974Y46264552D01*
X15253090Y46245832D01*
X15237438Y46228562D01*
X15220168Y46212910D01*
X15201448Y46199026D01*
X15181457Y46187044D01*
X15160387Y46177079D01*
X15138443Y46169227D01*
X15115834Y46163563D01*
X15092779Y46160144D01*
X15069500Y46159000D01*
X14594500Y46159000D01*
X14571221Y46160144D01*
X14548166Y46163563D01*
X14525557Y46169227D01*
X14503613Y46177079D01*
X14482543Y46187044D01*
X14462552Y46199026D01*
X14443832Y46212910D01*
X14426562Y46228562D01*
X14410910Y46245832D01*
X14397026Y46264552D01*
X14385044Y46284543D01*
X14375079Y46305613D01*
X14367227Y46327557D01*
X14361563Y46350166D01*
X14358144Y46373221D01*
X14357000Y46396500D01*
X14357000Y46971500D01*
X14358144Y46994779D01*
X14361563Y47017834D01*
X14367227Y47040443D01*
X14375079Y47062387D01*
X14385044Y47083457D01*
X14397026Y47103448D01*
X14410910Y47122168D01*
X14426562Y47139438D01*
X14443832Y47155090D01*
X14462552Y47168974D01*
X14482543Y47180956D01*
X14503613Y47190921D01*
X14525557Y47198773D01*
X14548166Y47204437D01*
X14571221Y47207856D01*
X14594500Y47209000D01*
X15069500Y47209000D01*
X15092779Y47207856D01*
X15092779Y47207856D01*
G37*
D15*
X14832000Y46684000D03*
D14*
G36*
X15092779Y48957856D02*
G01*
X15115834Y48954437D01*
X15138443Y48948773D01*
X15160387Y48940921D01*
X15181457Y48930956D01*
X15201448Y48918974D01*
X15220168Y48905090D01*
X15237438Y48889438D01*
X15253090Y48872168D01*
X15266974Y48853448D01*
X15278956Y48833457D01*
X15288921Y48812387D01*
X15296773Y48790443D01*
X15302437Y48767834D01*
X15305856Y48744779D01*
X15307000Y48721500D01*
X15307000Y48146500D01*
X15305856Y48123221D01*
X15302437Y48100166D01*
X15296773Y48077557D01*
X15288921Y48055613D01*
X15278956Y48034543D01*
X15266974Y48014552D01*
X15253090Y47995832D01*
X15237438Y47978562D01*
X15220168Y47962910D01*
X15201448Y47949026D01*
X15181457Y47937044D01*
X15160387Y47927079D01*
X15138443Y47919227D01*
X15115834Y47913563D01*
X15092779Y47910144D01*
X15069500Y47909000D01*
X14594500Y47909000D01*
X14571221Y47910144D01*
X14548166Y47913563D01*
X14525557Y47919227D01*
X14503613Y47927079D01*
X14482543Y47937044D01*
X14462552Y47949026D01*
X14443832Y47962910D01*
X14426562Y47978562D01*
X14410910Y47995832D01*
X14397026Y48014552D01*
X14385044Y48034543D01*
X14375079Y48055613D01*
X14367227Y48077557D01*
X14361563Y48100166D01*
X14358144Y48123221D01*
X14357000Y48146500D01*
X14357000Y48721500D01*
X14358144Y48744779D01*
X14361563Y48767834D01*
X14367227Y48790443D01*
X14375079Y48812387D01*
X14385044Y48833457D01*
X14397026Y48853448D01*
X14410910Y48872168D01*
X14426562Y48889438D01*
X14443832Y48905090D01*
X14462552Y48918974D01*
X14482543Y48930956D01*
X14503613Y48940921D01*
X14525557Y48948773D01*
X14548166Y48954437D01*
X14571221Y48957856D01*
X14594500Y48959000D01*
X15069500Y48959000D01*
X15092779Y48957856D01*
X15092779Y48957856D01*
G37*
D15*
X14832000Y48434000D03*
D14*
G36*
X8996779Y47207856D02*
G01*
X9019834Y47204437D01*
X9042443Y47198773D01*
X9064387Y47190921D01*
X9085457Y47180956D01*
X9105448Y47168974D01*
X9124168Y47155090D01*
X9141438Y47139438D01*
X9157090Y47122168D01*
X9170974Y47103448D01*
X9182956Y47083457D01*
X9192921Y47062387D01*
X9200773Y47040443D01*
X9206437Y47017834D01*
X9209856Y46994779D01*
X9211000Y46971500D01*
X9211000Y46396500D01*
X9209856Y46373221D01*
X9206437Y46350166D01*
X9200773Y46327557D01*
X9192921Y46305613D01*
X9182956Y46284543D01*
X9170974Y46264552D01*
X9157090Y46245832D01*
X9141438Y46228562D01*
X9124168Y46212910D01*
X9105448Y46199026D01*
X9085457Y46187044D01*
X9064387Y46177079D01*
X9042443Y46169227D01*
X9019834Y46163563D01*
X8996779Y46160144D01*
X8973500Y46159000D01*
X8498500Y46159000D01*
X8475221Y46160144D01*
X8452166Y46163563D01*
X8429557Y46169227D01*
X8407613Y46177079D01*
X8386543Y46187044D01*
X8366552Y46199026D01*
X8347832Y46212910D01*
X8330562Y46228562D01*
X8314910Y46245832D01*
X8301026Y46264552D01*
X8289044Y46284543D01*
X8279079Y46305613D01*
X8271227Y46327557D01*
X8265563Y46350166D01*
X8262144Y46373221D01*
X8261000Y46396500D01*
X8261000Y46971500D01*
X8262144Y46994779D01*
X8265563Y47017834D01*
X8271227Y47040443D01*
X8279079Y47062387D01*
X8289044Y47083457D01*
X8301026Y47103448D01*
X8314910Y47122168D01*
X8330562Y47139438D01*
X8347832Y47155090D01*
X8366552Y47168974D01*
X8386543Y47180956D01*
X8407613Y47190921D01*
X8429557Y47198773D01*
X8452166Y47204437D01*
X8475221Y47207856D01*
X8498500Y47209000D01*
X8973500Y47209000D01*
X8996779Y47207856D01*
X8996779Y47207856D01*
G37*
D15*
X8736000Y46684000D03*
D14*
G36*
X8996779Y48957856D02*
G01*
X9019834Y48954437D01*
X9042443Y48948773D01*
X9064387Y48940921D01*
X9085457Y48930956D01*
X9105448Y48918974D01*
X9124168Y48905090D01*
X9141438Y48889438D01*
X9157090Y48872168D01*
X9170974Y48853448D01*
X9182956Y48833457D01*
X9192921Y48812387D01*
X9200773Y48790443D01*
X9206437Y48767834D01*
X9209856Y48744779D01*
X9211000Y48721500D01*
X9211000Y48146500D01*
X9209856Y48123221D01*
X9206437Y48100166D01*
X9200773Y48077557D01*
X9192921Y48055613D01*
X9182956Y48034543D01*
X9170974Y48014552D01*
X9157090Y47995832D01*
X9141438Y47978562D01*
X9124168Y47962910D01*
X9105448Y47949026D01*
X9085457Y47937044D01*
X9064387Y47927079D01*
X9042443Y47919227D01*
X9019834Y47913563D01*
X8996779Y47910144D01*
X8973500Y47909000D01*
X8498500Y47909000D01*
X8475221Y47910144D01*
X8452166Y47913563D01*
X8429557Y47919227D01*
X8407613Y47927079D01*
X8386543Y47937044D01*
X8366552Y47949026D01*
X8347832Y47962910D01*
X8330562Y47978562D01*
X8314910Y47995832D01*
X8301026Y48014552D01*
X8289044Y48034543D01*
X8279079Y48055613D01*
X8271227Y48077557D01*
X8265563Y48100166D01*
X8262144Y48123221D01*
X8261000Y48146500D01*
X8261000Y48721500D01*
X8262144Y48744779D01*
X8265563Y48767834D01*
X8271227Y48790443D01*
X8279079Y48812387D01*
X8289044Y48833457D01*
X8301026Y48853448D01*
X8314910Y48872168D01*
X8330562Y48889438D01*
X8347832Y48905090D01*
X8366552Y48918974D01*
X8386543Y48930956D01*
X8407613Y48940921D01*
X8429557Y48948773D01*
X8452166Y48954437D01*
X8475221Y48957856D01*
X8498500Y48959000D01*
X8973500Y48959000D01*
X8996779Y48957856D01*
X8996779Y48957856D01*
G37*
D15*
X8736000Y48434000D03*
D14*
G36*
X18140779Y47207856D02*
G01*
X18163834Y47204437D01*
X18186443Y47198773D01*
X18208387Y47190921D01*
X18229457Y47180956D01*
X18249448Y47168974D01*
X18268168Y47155090D01*
X18285438Y47139438D01*
X18301090Y47122168D01*
X18314974Y47103448D01*
X18326956Y47083457D01*
X18336921Y47062387D01*
X18344773Y47040443D01*
X18350437Y47017834D01*
X18353856Y46994779D01*
X18355000Y46971500D01*
X18355000Y46396500D01*
X18353856Y46373221D01*
X18350437Y46350166D01*
X18344773Y46327557D01*
X18336921Y46305613D01*
X18326956Y46284543D01*
X18314974Y46264552D01*
X18301090Y46245832D01*
X18285438Y46228562D01*
X18268168Y46212910D01*
X18249448Y46199026D01*
X18229457Y46187044D01*
X18208387Y46177079D01*
X18186443Y46169227D01*
X18163834Y46163563D01*
X18140779Y46160144D01*
X18117500Y46159000D01*
X17642500Y46159000D01*
X17619221Y46160144D01*
X17596166Y46163563D01*
X17573557Y46169227D01*
X17551613Y46177079D01*
X17530543Y46187044D01*
X17510552Y46199026D01*
X17491832Y46212910D01*
X17474562Y46228562D01*
X17458910Y46245832D01*
X17445026Y46264552D01*
X17433044Y46284543D01*
X17423079Y46305613D01*
X17415227Y46327557D01*
X17409563Y46350166D01*
X17406144Y46373221D01*
X17405000Y46396500D01*
X17405000Y46971500D01*
X17406144Y46994779D01*
X17409563Y47017834D01*
X17415227Y47040443D01*
X17423079Y47062387D01*
X17433044Y47083457D01*
X17445026Y47103448D01*
X17458910Y47122168D01*
X17474562Y47139438D01*
X17491832Y47155090D01*
X17510552Y47168974D01*
X17530543Y47180956D01*
X17551613Y47190921D01*
X17573557Y47198773D01*
X17596166Y47204437D01*
X17619221Y47207856D01*
X17642500Y47209000D01*
X18117500Y47209000D01*
X18140779Y47207856D01*
X18140779Y47207856D01*
G37*
D15*
X17880000Y46684000D03*
D14*
G36*
X18140779Y48957856D02*
G01*
X18163834Y48954437D01*
X18186443Y48948773D01*
X18208387Y48940921D01*
X18229457Y48930956D01*
X18249448Y48918974D01*
X18268168Y48905090D01*
X18285438Y48889438D01*
X18301090Y48872168D01*
X18314974Y48853448D01*
X18326956Y48833457D01*
X18336921Y48812387D01*
X18344773Y48790443D01*
X18350437Y48767834D01*
X18353856Y48744779D01*
X18355000Y48721500D01*
X18355000Y48146500D01*
X18353856Y48123221D01*
X18350437Y48100166D01*
X18344773Y48077557D01*
X18336921Y48055613D01*
X18326956Y48034543D01*
X18314974Y48014552D01*
X18301090Y47995832D01*
X18285438Y47978562D01*
X18268168Y47962910D01*
X18249448Y47949026D01*
X18229457Y47937044D01*
X18208387Y47927079D01*
X18186443Y47919227D01*
X18163834Y47913563D01*
X18140779Y47910144D01*
X18117500Y47909000D01*
X17642500Y47909000D01*
X17619221Y47910144D01*
X17596166Y47913563D01*
X17573557Y47919227D01*
X17551613Y47927079D01*
X17530543Y47937044D01*
X17510552Y47949026D01*
X17491832Y47962910D01*
X17474562Y47978562D01*
X17458910Y47995832D01*
X17445026Y48014552D01*
X17433044Y48034543D01*
X17423079Y48055613D01*
X17415227Y48077557D01*
X17409563Y48100166D01*
X17406144Y48123221D01*
X17405000Y48146500D01*
X17405000Y48721500D01*
X17406144Y48744779D01*
X17409563Y48767834D01*
X17415227Y48790443D01*
X17423079Y48812387D01*
X17433044Y48833457D01*
X17445026Y48853448D01*
X17458910Y48872168D01*
X17474562Y48889438D01*
X17491832Y48905090D01*
X17510552Y48918974D01*
X17530543Y48930956D01*
X17551613Y48940921D01*
X17573557Y48948773D01*
X17596166Y48954437D01*
X17619221Y48957856D01*
X17642500Y48959000D01*
X18117500Y48959000D01*
X18140779Y48957856D01*
X18140779Y48957856D01*
G37*
D15*
X17880000Y48434000D03*
D14*
G36*
X13568779Y47207856D02*
G01*
X13591834Y47204437D01*
X13614443Y47198773D01*
X13636387Y47190921D01*
X13657457Y47180956D01*
X13677448Y47168974D01*
X13696168Y47155090D01*
X13713438Y47139438D01*
X13729090Y47122168D01*
X13742974Y47103448D01*
X13754956Y47083457D01*
X13764921Y47062387D01*
X13772773Y47040443D01*
X13778437Y47017834D01*
X13781856Y46994779D01*
X13783000Y46971500D01*
X13783000Y46396500D01*
X13781856Y46373221D01*
X13778437Y46350166D01*
X13772773Y46327557D01*
X13764921Y46305613D01*
X13754956Y46284543D01*
X13742974Y46264552D01*
X13729090Y46245832D01*
X13713438Y46228562D01*
X13696168Y46212910D01*
X13677448Y46199026D01*
X13657457Y46187044D01*
X13636387Y46177079D01*
X13614443Y46169227D01*
X13591834Y46163563D01*
X13568779Y46160144D01*
X13545500Y46159000D01*
X13070500Y46159000D01*
X13047221Y46160144D01*
X13024166Y46163563D01*
X13001557Y46169227D01*
X12979613Y46177079D01*
X12958543Y46187044D01*
X12938552Y46199026D01*
X12919832Y46212910D01*
X12902562Y46228562D01*
X12886910Y46245832D01*
X12873026Y46264552D01*
X12861044Y46284543D01*
X12851079Y46305613D01*
X12843227Y46327557D01*
X12837563Y46350166D01*
X12834144Y46373221D01*
X12833000Y46396500D01*
X12833000Y46971500D01*
X12834144Y46994779D01*
X12837563Y47017834D01*
X12843227Y47040443D01*
X12851079Y47062387D01*
X12861044Y47083457D01*
X12873026Y47103448D01*
X12886910Y47122168D01*
X12902562Y47139438D01*
X12919832Y47155090D01*
X12938552Y47168974D01*
X12958543Y47180956D01*
X12979613Y47190921D01*
X13001557Y47198773D01*
X13024166Y47204437D01*
X13047221Y47207856D01*
X13070500Y47209000D01*
X13545500Y47209000D01*
X13568779Y47207856D01*
X13568779Y47207856D01*
G37*
D15*
X13308000Y46684000D03*
D14*
G36*
X13568779Y48957856D02*
G01*
X13591834Y48954437D01*
X13614443Y48948773D01*
X13636387Y48940921D01*
X13657457Y48930956D01*
X13677448Y48918974D01*
X13696168Y48905090D01*
X13713438Y48889438D01*
X13729090Y48872168D01*
X13742974Y48853448D01*
X13754956Y48833457D01*
X13764921Y48812387D01*
X13772773Y48790443D01*
X13778437Y48767834D01*
X13781856Y48744779D01*
X13783000Y48721500D01*
X13783000Y48146500D01*
X13781856Y48123221D01*
X13778437Y48100166D01*
X13772773Y48077557D01*
X13764921Y48055613D01*
X13754956Y48034543D01*
X13742974Y48014552D01*
X13729090Y47995832D01*
X13713438Y47978562D01*
X13696168Y47962910D01*
X13677448Y47949026D01*
X13657457Y47937044D01*
X13636387Y47927079D01*
X13614443Y47919227D01*
X13591834Y47913563D01*
X13568779Y47910144D01*
X13545500Y47909000D01*
X13070500Y47909000D01*
X13047221Y47910144D01*
X13024166Y47913563D01*
X13001557Y47919227D01*
X12979613Y47927079D01*
X12958543Y47937044D01*
X12938552Y47949026D01*
X12919832Y47962910D01*
X12902562Y47978562D01*
X12886910Y47995832D01*
X12873026Y48014552D01*
X12861044Y48034543D01*
X12851079Y48055613D01*
X12843227Y48077557D01*
X12837563Y48100166D01*
X12834144Y48123221D01*
X12833000Y48146500D01*
X12833000Y48721500D01*
X12834144Y48744779D01*
X12837563Y48767834D01*
X12843227Y48790443D01*
X12851079Y48812387D01*
X12861044Y48833457D01*
X12873026Y48853448D01*
X12886910Y48872168D01*
X12902562Y48889438D01*
X12919832Y48905090D01*
X12938552Y48918974D01*
X12958543Y48930956D01*
X12979613Y48940921D01*
X13001557Y48948773D01*
X13024166Y48954437D01*
X13047221Y48957856D01*
X13070500Y48959000D01*
X13545500Y48959000D01*
X13568779Y48957856D01*
X13568779Y48957856D01*
G37*
D15*
X13308000Y48434000D03*
D14*
G36*
X16616779Y48957856D02*
G01*
X16639834Y48954437D01*
X16662443Y48948773D01*
X16684387Y48940921D01*
X16705457Y48930956D01*
X16725448Y48918974D01*
X16744168Y48905090D01*
X16761438Y48889438D01*
X16777090Y48872168D01*
X16790974Y48853448D01*
X16802956Y48833457D01*
X16812921Y48812387D01*
X16820773Y48790443D01*
X16826437Y48767834D01*
X16829856Y48744779D01*
X16831000Y48721500D01*
X16831000Y48146500D01*
X16829856Y48123221D01*
X16826437Y48100166D01*
X16820773Y48077557D01*
X16812921Y48055613D01*
X16802956Y48034543D01*
X16790974Y48014552D01*
X16777090Y47995832D01*
X16761438Y47978562D01*
X16744168Y47962910D01*
X16725448Y47949026D01*
X16705457Y47937044D01*
X16684387Y47927079D01*
X16662443Y47919227D01*
X16639834Y47913563D01*
X16616779Y47910144D01*
X16593500Y47909000D01*
X16118500Y47909000D01*
X16095221Y47910144D01*
X16072166Y47913563D01*
X16049557Y47919227D01*
X16027613Y47927079D01*
X16006543Y47937044D01*
X15986552Y47949026D01*
X15967832Y47962910D01*
X15950562Y47978562D01*
X15934910Y47995832D01*
X15921026Y48014552D01*
X15909044Y48034543D01*
X15899079Y48055613D01*
X15891227Y48077557D01*
X15885563Y48100166D01*
X15882144Y48123221D01*
X15881000Y48146500D01*
X15881000Y48721500D01*
X15882144Y48744779D01*
X15885563Y48767834D01*
X15891227Y48790443D01*
X15899079Y48812387D01*
X15909044Y48833457D01*
X15921026Y48853448D01*
X15934910Y48872168D01*
X15950562Y48889438D01*
X15967832Y48905090D01*
X15986552Y48918974D01*
X16006543Y48930956D01*
X16027613Y48940921D01*
X16049557Y48948773D01*
X16072166Y48954437D01*
X16095221Y48957856D01*
X16118500Y48959000D01*
X16593500Y48959000D01*
X16616779Y48957856D01*
X16616779Y48957856D01*
G37*
D15*
X16356000Y48434000D03*
D14*
G36*
X16616779Y47207856D02*
G01*
X16639834Y47204437D01*
X16662443Y47198773D01*
X16684387Y47190921D01*
X16705457Y47180956D01*
X16725448Y47168974D01*
X16744168Y47155090D01*
X16761438Y47139438D01*
X16777090Y47122168D01*
X16790974Y47103448D01*
X16802956Y47083457D01*
X16812921Y47062387D01*
X16820773Y47040443D01*
X16826437Y47017834D01*
X16829856Y46994779D01*
X16831000Y46971500D01*
X16831000Y46396500D01*
X16829856Y46373221D01*
X16826437Y46350166D01*
X16820773Y46327557D01*
X16812921Y46305613D01*
X16802956Y46284543D01*
X16790974Y46264552D01*
X16777090Y46245832D01*
X16761438Y46228562D01*
X16744168Y46212910D01*
X16725448Y46199026D01*
X16705457Y46187044D01*
X16684387Y46177079D01*
X16662443Y46169227D01*
X16639834Y46163563D01*
X16616779Y46160144D01*
X16593500Y46159000D01*
X16118500Y46159000D01*
X16095221Y46160144D01*
X16072166Y46163563D01*
X16049557Y46169227D01*
X16027613Y46177079D01*
X16006543Y46187044D01*
X15986552Y46199026D01*
X15967832Y46212910D01*
X15950562Y46228562D01*
X15934910Y46245832D01*
X15921026Y46264552D01*
X15909044Y46284543D01*
X15899079Y46305613D01*
X15891227Y46327557D01*
X15885563Y46350166D01*
X15882144Y46373221D01*
X15881000Y46396500D01*
X15881000Y46971500D01*
X15882144Y46994779D01*
X15885563Y47017834D01*
X15891227Y47040443D01*
X15899079Y47062387D01*
X15909044Y47083457D01*
X15921026Y47103448D01*
X15934910Y47122168D01*
X15950562Y47139438D01*
X15967832Y47155090D01*
X15986552Y47168974D01*
X16006543Y47180956D01*
X16027613Y47190921D01*
X16049557Y47198773D01*
X16072166Y47204437D01*
X16095221Y47207856D01*
X16118500Y47209000D01*
X16593500Y47209000D01*
X16616779Y47207856D01*
X16616779Y47207856D01*
G37*
D15*
X16356000Y46684000D03*
D16*
X18758000Y26244000D03*
X16558000Y26244000D03*
X3790000Y21250000D03*
X1590000Y21250000D03*
X7870000Y21250000D03*
X5670000Y21250000D03*
D17*
X18785000Y27834000D03*
X18785000Y29734000D03*
X16785000Y28784000D03*
D18*
X21920100Y27519000D03*
X21920100Y28019000D03*
X21920100Y29019000D03*
X21920100Y29519000D03*
X25020100Y29519000D03*
X25020100Y29019000D03*
X25020100Y28519000D03*
X25020100Y28019000D03*
D19*
X23470100Y28519000D03*
D18*
X21920100Y28519000D03*
X25020100Y27519000D03*
D20*
X51332000Y43622000D03*
X54132000Y43622000D03*
D14*
G36*
X49405779Y9403856D02*
G01*
X49428834Y9400437D01*
X49451443Y9394773D01*
X49473387Y9386921D01*
X49494457Y9376956D01*
X49514448Y9364974D01*
X49533168Y9351090D01*
X49550438Y9335438D01*
X49566090Y9318168D01*
X49579974Y9299448D01*
X49591956Y9279457D01*
X49601921Y9258387D01*
X49609773Y9236443D01*
X49615437Y9213834D01*
X49618856Y9190779D01*
X49620000Y9167500D01*
X49620000Y8692500D01*
X49618856Y8669221D01*
X49615437Y8646166D01*
X49609773Y8623557D01*
X49601921Y8601613D01*
X49591956Y8580543D01*
X49579974Y8560552D01*
X49566090Y8541832D01*
X49550438Y8524562D01*
X49533168Y8508910D01*
X49514448Y8495026D01*
X49494457Y8483044D01*
X49473387Y8473079D01*
X49451443Y8465227D01*
X49428834Y8459563D01*
X49405779Y8456144D01*
X49382500Y8455000D01*
X48807500Y8455000D01*
X48784221Y8456144D01*
X48761166Y8459563D01*
X48738557Y8465227D01*
X48716613Y8473079D01*
X48695543Y8483044D01*
X48675552Y8495026D01*
X48656832Y8508910D01*
X48639562Y8524562D01*
X48623910Y8541832D01*
X48610026Y8560552D01*
X48598044Y8580543D01*
X48588079Y8601613D01*
X48580227Y8623557D01*
X48574563Y8646166D01*
X48571144Y8669221D01*
X48570000Y8692500D01*
X48570000Y9167500D01*
X48571144Y9190779D01*
X48574563Y9213834D01*
X48580227Y9236443D01*
X48588079Y9258387D01*
X48598044Y9279457D01*
X48610026Y9299448D01*
X48623910Y9318168D01*
X48639562Y9335438D01*
X48656832Y9351090D01*
X48675552Y9364974D01*
X48695543Y9376956D01*
X48716613Y9386921D01*
X48738557Y9394773D01*
X48761166Y9400437D01*
X48784221Y9403856D01*
X48807500Y9405000D01*
X49382500Y9405000D01*
X49405779Y9403856D01*
X49405779Y9403856D01*
G37*
D15*
X49095000Y8930000D03*
D14*
G36*
X51155779Y9403856D02*
G01*
X51178834Y9400437D01*
X51201443Y9394773D01*
X51223387Y9386921D01*
X51244457Y9376956D01*
X51264448Y9364974D01*
X51283168Y9351090D01*
X51300438Y9335438D01*
X51316090Y9318168D01*
X51329974Y9299448D01*
X51341956Y9279457D01*
X51351921Y9258387D01*
X51359773Y9236443D01*
X51365437Y9213834D01*
X51368856Y9190779D01*
X51370000Y9167500D01*
X51370000Y8692500D01*
X51368856Y8669221D01*
X51365437Y8646166D01*
X51359773Y8623557D01*
X51351921Y8601613D01*
X51341956Y8580543D01*
X51329974Y8560552D01*
X51316090Y8541832D01*
X51300438Y8524562D01*
X51283168Y8508910D01*
X51264448Y8495026D01*
X51244457Y8483044D01*
X51223387Y8473079D01*
X51201443Y8465227D01*
X51178834Y8459563D01*
X51155779Y8456144D01*
X51132500Y8455000D01*
X50557500Y8455000D01*
X50534221Y8456144D01*
X50511166Y8459563D01*
X50488557Y8465227D01*
X50466613Y8473079D01*
X50445543Y8483044D01*
X50425552Y8495026D01*
X50406832Y8508910D01*
X50389562Y8524562D01*
X50373910Y8541832D01*
X50360026Y8560552D01*
X50348044Y8580543D01*
X50338079Y8601613D01*
X50330227Y8623557D01*
X50324563Y8646166D01*
X50321144Y8669221D01*
X50320000Y8692500D01*
X50320000Y9167500D01*
X50321144Y9190779D01*
X50324563Y9213834D01*
X50330227Y9236443D01*
X50338079Y9258387D01*
X50348044Y9279457D01*
X50360026Y9299448D01*
X50373910Y9318168D01*
X50389562Y9335438D01*
X50406832Y9351090D01*
X50425552Y9364974D01*
X50445543Y9376956D01*
X50466613Y9386921D01*
X50488557Y9394773D01*
X50511166Y9400437D01*
X50534221Y9403856D01*
X50557500Y9405000D01*
X51132500Y9405000D01*
X51155779Y9403856D01*
X51155779Y9403856D01*
G37*
D15*
X50845000Y8930000D03*
D14*
G36*
X15495779Y36873856D02*
G01*
X15518834Y36870437D01*
X15541443Y36864773D01*
X15563387Y36856921D01*
X15584457Y36846956D01*
X15604448Y36834974D01*
X15623168Y36821090D01*
X15640438Y36805438D01*
X15656090Y36788168D01*
X15669974Y36769448D01*
X15681956Y36749457D01*
X15691921Y36728387D01*
X15699773Y36706443D01*
X15705437Y36683834D01*
X15708856Y36660779D01*
X15710000Y36637500D01*
X15710000Y36162500D01*
X15708856Y36139221D01*
X15705437Y36116166D01*
X15699773Y36093557D01*
X15691921Y36071613D01*
X15681956Y36050543D01*
X15669974Y36030552D01*
X15656090Y36011832D01*
X15640438Y35994562D01*
X15623168Y35978910D01*
X15604448Y35965026D01*
X15584457Y35953044D01*
X15563387Y35943079D01*
X15541443Y35935227D01*
X15518834Y35929563D01*
X15495779Y35926144D01*
X15472500Y35925000D01*
X14897500Y35925000D01*
X14874221Y35926144D01*
X14851166Y35929563D01*
X14828557Y35935227D01*
X14806613Y35943079D01*
X14785543Y35953044D01*
X14765552Y35965026D01*
X14746832Y35978910D01*
X14729562Y35994562D01*
X14713910Y36011832D01*
X14700026Y36030552D01*
X14688044Y36050543D01*
X14678079Y36071613D01*
X14670227Y36093557D01*
X14664563Y36116166D01*
X14661144Y36139221D01*
X14660000Y36162500D01*
X14660000Y36637500D01*
X14661144Y36660779D01*
X14664563Y36683834D01*
X14670227Y36706443D01*
X14678079Y36728387D01*
X14688044Y36749457D01*
X14700026Y36769448D01*
X14713910Y36788168D01*
X14729562Y36805438D01*
X14746832Y36821090D01*
X14765552Y36834974D01*
X14785543Y36846956D01*
X14806613Y36856921D01*
X14828557Y36864773D01*
X14851166Y36870437D01*
X14874221Y36873856D01*
X14897500Y36875000D01*
X15472500Y36875000D01*
X15495779Y36873856D01*
X15495779Y36873856D01*
G37*
D15*
X15185000Y36400000D03*
D14*
G36*
X17245779Y36873856D02*
G01*
X17268834Y36870437D01*
X17291443Y36864773D01*
X17313387Y36856921D01*
X17334457Y36846956D01*
X17354448Y36834974D01*
X17373168Y36821090D01*
X17390438Y36805438D01*
X17406090Y36788168D01*
X17419974Y36769448D01*
X17431956Y36749457D01*
X17441921Y36728387D01*
X17449773Y36706443D01*
X17455437Y36683834D01*
X17458856Y36660779D01*
X17460000Y36637500D01*
X17460000Y36162500D01*
X17458856Y36139221D01*
X17455437Y36116166D01*
X17449773Y36093557D01*
X17441921Y36071613D01*
X17431956Y36050543D01*
X17419974Y36030552D01*
X17406090Y36011832D01*
X17390438Y35994562D01*
X17373168Y35978910D01*
X17354448Y35965026D01*
X17334457Y35953044D01*
X17313387Y35943079D01*
X17291443Y35935227D01*
X17268834Y35929563D01*
X17245779Y35926144D01*
X17222500Y35925000D01*
X16647500Y35925000D01*
X16624221Y35926144D01*
X16601166Y35929563D01*
X16578557Y35935227D01*
X16556613Y35943079D01*
X16535543Y35953044D01*
X16515552Y35965026D01*
X16496832Y35978910D01*
X16479562Y35994562D01*
X16463910Y36011832D01*
X16450026Y36030552D01*
X16438044Y36050543D01*
X16428079Y36071613D01*
X16420227Y36093557D01*
X16414563Y36116166D01*
X16411144Y36139221D01*
X16410000Y36162500D01*
X16410000Y36637500D01*
X16411144Y36660779D01*
X16414563Y36683834D01*
X16420227Y36706443D01*
X16428079Y36728387D01*
X16438044Y36749457D01*
X16450026Y36769448D01*
X16463910Y36788168D01*
X16479562Y36805438D01*
X16496832Y36821090D01*
X16515552Y36834974D01*
X16535543Y36846956D01*
X16556613Y36856921D01*
X16578557Y36864773D01*
X16601166Y36870437D01*
X16624221Y36873856D01*
X16647500Y36875000D01*
X17222500Y36875000D01*
X17245779Y36873856D01*
X17245779Y36873856D01*
G37*
D15*
X16935000Y36400000D03*
D14*
G36*
X54436779Y23648856D02*
G01*
X54459834Y23645437D01*
X54482443Y23639773D01*
X54504387Y23631921D01*
X54525457Y23621956D01*
X54545448Y23609974D01*
X54564168Y23596090D01*
X54581438Y23580438D01*
X54597090Y23563168D01*
X54610974Y23544448D01*
X54622956Y23524457D01*
X54632921Y23503387D01*
X54640773Y23481443D01*
X54646437Y23458834D01*
X54649856Y23435779D01*
X54651000Y23412500D01*
X54651000Y22837500D01*
X54649856Y22814221D01*
X54646437Y22791166D01*
X54640773Y22768557D01*
X54632921Y22746613D01*
X54622956Y22725543D01*
X54610974Y22705552D01*
X54597090Y22686832D01*
X54581438Y22669562D01*
X54564168Y22653910D01*
X54545448Y22640026D01*
X54525457Y22628044D01*
X54504387Y22618079D01*
X54482443Y22610227D01*
X54459834Y22604563D01*
X54436779Y22601144D01*
X54413500Y22600000D01*
X53938500Y22600000D01*
X53915221Y22601144D01*
X53892166Y22604563D01*
X53869557Y22610227D01*
X53847613Y22618079D01*
X53826543Y22628044D01*
X53806552Y22640026D01*
X53787832Y22653910D01*
X53770562Y22669562D01*
X53754910Y22686832D01*
X53741026Y22705552D01*
X53729044Y22725543D01*
X53719079Y22746613D01*
X53711227Y22768557D01*
X53705563Y22791166D01*
X53702144Y22814221D01*
X53701000Y22837500D01*
X53701000Y23412500D01*
X53702144Y23435779D01*
X53705563Y23458834D01*
X53711227Y23481443D01*
X53719079Y23503387D01*
X53729044Y23524457D01*
X53741026Y23544448D01*
X53754910Y23563168D01*
X53770562Y23580438D01*
X53787832Y23596090D01*
X53806552Y23609974D01*
X53826543Y23621956D01*
X53847613Y23631921D01*
X53869557Y23639773D01*
X53892166Y23645437D01*
X53915221Y23648856D01*
X53938500Y23650000D01*
X54413500Y23650000D01*
X54436779Y23648856D01*
X54436779Y23648856D01*
G37*
D15*
X54176000Y23125000D03*
D14*
G36*
X54436779Y25398856D02*
G01*
X54459834Y25395437D01*
X54482443Y25389773D01*
X54504387Y25381921D01*
X54525457Y25371956D01*
X54545448Y25359974D01*
X54564168Y25346090D01*
X54581438Y25330438D01*
X54597090Y25313168D01*
X54610974Y25294448D01*
X54622956Y25274457D01*
X54632921Y25253387D01*
X54640773Y25231443D01*
X54646437Y25208834D01*
X54649856Y25185779D01*
X54651000Y25162500D01*
X54651000Y24587500D01*
X54649856Y24564221D01*
X54646437Y24541166D01*
X54640773Y24518557D01*
X54632921Y24496613D01*
X54622956Y24475543D01*
X54610974Y24455552D01*
X54597090Y24436832D01*
X54581438Y24419562D01*
X54564168Y24403910D01*
X54545448Y24390026D01*
X54525457Y24378044D01*
X54504387Y24368079D01*
X54482443Y24360227D01*
X54459834Y24354563D01*
X54436779Y24351144D01*
X54413500Y24350000D01*
X53938500Y24350000D01*
X53915221Y24351144D01*
X53892166Y24354563D01*
X53869557Y24360227D01*
X53847613Y24368079D01*
X53826543Y24378044D01*
X53806552Y24390026D01*
X53787832Y24403910D01*
X53770562Y24419562D01*
X53754910Y24436832D01*
X53741026Y24455552D01*
X53729044Y24475543D01*
X53719079Y24496613D01*
X53711227Y24518557D01*
X53705563Y24541166D01*
X53702144Y24564221D01*
X53701000Y24587500D01*
X53701000Y25162500D01*
X53702144Y25185779D01*
X53705563Y25208834D01*
X53711227Y25231443D01*
X53719079Y25253387D01*
X53729044Y25274457D01*
X53741026Y25294448D01*
X53754910Y25313168D01*
X53770562Y25330438D01*
X53787832Y25346090D01*
X53806552Y25359974D01*
X53826543Y25371956D01*
X53847613Y25381921D01*
X53869557Y25389773D01*
X53892166Y25395437D01*
X53915221Y25398856D01*
X53938500Y25400000D01*
X54413500Y25400000D01*
X54436779Y25398856D01*
X54436779Y25398856D01*
G37*
D15*
X54176000Y24875000D03*
D14*
G36*
X52912779Y25398856D02*
G01*
X52935834Y25395437D01*
X52958443Y25389773D01*
X52980387Y25381921D01*
X53001457Y25371956D01*
X53021448Y25359974D01*
X53040168Y25346090D01*
X53057438Y25330438D01*
X53073090Y25313168D01*
X53086974Y25294448D01*
X53098956Y25274457D01*
X53108921Y25253387D01*
X53116773Y25231443D01*
X53122437Y25208834D01*
X53125856Y25185779D01*
X53127000Y25162500D01*
X53127000Y24587500D01*
X53125856Y24564221D01*
X53122437Y24541166D01*
X53116773Y24518557D01*
X53108921Y24496613D01*
X53098956Y24475543D01*
X53086974Y24455552D01*
X53073090Y24436832D01*
X53057438Y24419562D01*
X53040168Y24403910D01*
X53021448Y24390026D01*
X53001457Y24378044D01*
X52980387Y24368079D01*
X52958443Y24360227D01*
X52935834Y24354563D01*
X52912779Y24351144D01*
X52889500Y24350000D01*
X52414500Y24350000D01*
X52391221Y24351144D01*
X52368166Y24354563D01*
X52345557Y24360227D01*
X52323613Y24368079D01*
X52302543Y24378044D01*
X52282552Y24390026D01*
X52263832Y24403910D01*
X52246562Y24419562D01*
X52230910Y24436832D01*
X52217026Y24455552D01*
X52205044Y24475543D01*
X52195079Y24496613D01*
X52187227Y24518557D01*
X52181563Y24541166D01*
X52178144Y24564221D01*
X52177000Y24587500D01*
X52177000Y25162500D01*
X52178144Y25185779D01*
X52181563Y25208834D01*
X52187227Y25231443D01*
X52195079Y25253387D01*
X52205044Y25274457D01*
X52217026Y25294448D01*
X52230910Y25313168D01*
X52246562Y25330438D01*
X52263832Y25346090D01*
X52282552Y25359974D01*
X52302543Y25371956D01*
X52323613Y25381921D01*
X52345557Y25389773D01*
X52368166Y25395437D01*
X52391221Y25398856D01*
X52414500Y25400000D01*
X52889500Y25400000D01*
X52912779Y25398856D01*
X52912779Y25398856D01*
G37*
D15*
X52652000Y24875000D03*
D14*
G36*
X52912779Y23648856D02*
G01*
X52935834Y23645437D01*
X52958443Y23639773D01*
X52980387Y23631921D01*
X53001457Y23621956D01*
X53021448Y23609974D01*
X53040168Y23596090D01*
X53057438Y23580438D01*
X53073090Y23563168D01*
X53086974Y23544448D01*
X53098956Y23524457D01*
X53108921Y23503387D01*
X53116773Y23481443D01*
X53122437Y23458834D01*
X53125856Y23435779D01*
X53127000Y23412500D01*
X53127000Y22837500D01*
X53125856Y22814221D01*
X53122437Y22791166D01*
X53116773Y22768557D01*
X53108921Y22746613D01*
X53098956Y22725543D01*
X53086974Y22705552D01*
X53073090Y22686832D01*
X53057438Y22669562D01*
X53040168Y22653910D01*
X53021448Y22640026D01*
X53001457Y22628044D01*
X52980387Y22618079D01*
X52958443Y22610227D01*
X52935834Y22604563D01*
X52912779Y22601144D01*
X52889500Y22600000D01*
X52414500Y22600000D01*
X52391221Y22601144D01*
X52368166Y22604563D01*
X52345557Y22610227D01*
X52323613Y22618079D01*
X52302543Y22628044D01*
X52282552Y22640026D01*
X52263832Y22653910D01*
X52246562Y22669562D01*
X52230910Y22686832D01*
X52217026Y22705552D01*
X52205044Y22725543D01*
X52195079Y22746613D01*
X52187227Y22768557D01*
X52181563Y22791166D01*
X52178144Y22814221D01*
X52177000Y22837500D01*
X52177000Y23412500D01*
X52178144Y23435779D01*
X52181563Y23458834D01*
X52187227Y23481443D01*
X52195079Y23503387D01*
X52205044Y23524457D01*
X52217026Y23544448D01*
X52230910Y23563168D01*
X52246562Y23580438D01*
X52263832Y23596090D01*
X52282552Y23609974D01*
X52302543Y23621956D01*
X52323613Y23631921D01*
X52345557Y23639773D01*
X52368166Y23645437D01*
X52391221Y23648856D01*
X52414500Y23650000D01*
X52889500Y23650000D01*
X52912779Y23648856D01*
X52912779Y23648856D01*
G37*
D15*
X52652000Y23125000D03*
D14*
G36*
X51388779Y25398856D02*
G01*
X51411834Y25395437D01*
X51434443Y25389773D01*
X51456387Y25381921D01*
X51477457Y25371956D01*
X51497448Y25359974D01*
X51516168Y25346090D01*
X51533438Y25330438D01*
X51549090Y25313168D01*
X51562974Y25294448D01*
X51574956Y25274457D01*
X51584921Y25253387D01*
X51592773Y25231443D01*
X51598437Y25208834D01*
X51601856Y25185779D01*
X51603000Y25162500D01*
X51603000Y24587500D01*
X51601856Y24564221D01*
X51598437Y24541166D01*
X51592773Y24518557D01*
X51584921Y24496613D01*
X51574956Y24475543D01*
X51562974Y24455552D01*
X51549090Y24436832D01*
X51533438Y24419562D01*
X51516168Y24403910D01*
X51497448Y24390026D01*
X51477457Y24378044D01*
X51456387Y24368079D01*
X51434443Y24360227D01*
X51411834Y24354563D01*
X51388779Y24351144D01*
X51365500Y24350000D01*
X50890500Y24350000D01*
X50867221Y24351144D01*
X50844166Y24354563D01*
X50821557Y24360227D01*
X50799613Y24368079D01*
X50778543Y24378044D01*
X50758552Y24390026D01*
X50739832Y24403910D01*
X50722562Y24419562D01*
X50706910Y24436832D01*
X50693026Y24455552D01*
X50681044Y24475543D01*
X50671079Y24496613D01*
X50663227Y24518557D01*
X50657563Y24541166D01*
X50654144Y24564221D01*
X50653000Y24587500D01*
X50653000Y25162500D01*
X50654144Y25185779D01*
X50657563Y25208834D01*
X50663227Y25231443D01*
X50671079Y25253387D01*
X50681044Y25274457D01*
X50693026Y25294448D01*
X50706910Y25313168D01*
X50722562Y25330438D01*
X50739832Y25346090D01*
X50758552Y25359974D01*
X50778543Y25371956D01*
X50799613Y25381921D01*
X50821557Y25389773D01*
X50844166Y25395437D01*
X50867221Y25398856D01*
X50890500Y25400000D01*
X51365500Y25400000D01*
X51388779Y25398856D01*
X51388779Y25398856D01*
G37*
D15*
X51128000Y24875000D03*
D14*
G36*
X51388779Y23648856D02*
G01*
X51411834Y23645437D01*
X51434443Y23639773D01*
X51456387Y23631921D01*
X51477457Y23621956D01*
X51497448Y23609974D01*
X51516168Y23596090D01*
X51533438Y23580438D01*
X51549090Y23563168D01*
X51562974Y23544448D01*
X51574956Y23524457D01*
X51584921Y23503387D01*
X51592773Y23481443D01*
X51598437Y23458834D01*
X51601856Y23435779D01*
X51603000Y23412500D01*
X51603000Y22837500D01*
X51601856Y22814221D01*
X51598437Y22791166D01*
X51592773Y22768557D01*
X51584921Y22746613D01*
X51574956Y22725543D01*
X51562974Y22705552D01*
X51549090Y22686832D01*
X51533438Y22669562D01*
X51516168Y22653910D01*
X51497448Y22640026D01*
X51477457Y22628044D01*
X51456387Y22618079D01*
X51434443Y22610227D01*
X51411834Y22604563D01*
X51388779Y22601144D01*
X51365500Y22600000D01*
X50890500Y22600000D01*
X50867221Y22601144D01*
X50844166Y22604563D01*
X50821557Y22610227D01*
X50799613Y22618079D01*
X50778543Y22628044D01*
X50758552Y22640026D01*
X50739832Y22653910D01*
X50722562Y22669562D01*
X50706910Y22686832D01*
X50693026Y22705552D01*
X50681044Y22725543D01*
X50671079Y22746613D01*
X50663227Y22768557D01*
X50657563Y22791166D01*
X50654144Y22814221D01*
X50653000Y22837500D01*
X50653000Y23412500D01*
X50654144Y23435779D01*
X50657563Y23458834D01*
X50663227Y23481443D01*
X50671079Y23503387D01*
X50681044Y23524457D01*
X50693026Y23544448D01*
X50706910Y23563168D01*
X50722562Y23580438D01*
X50739832Y23596090D01*
X50758552Y23609974D01*
X50778543Y23621956D01*
X50799613Y23631921D01*
X50821557Y23639773D01*
X50844166Y23645437D01*
X50867221Y23648856D01*
X50890500Y23650000D01*
X51365500Y23650000D01*
X51388779Y23648856D01*
X51388779Y23648856D01*
G37*
D15*
X51128000Y23125000D03*
D14*
G36*
X46602779Y25937856D02*
G01*
X46625834Y25934437D01*
X46648443Y25928773D01*
X46670387Y25920921D01*
X46691457Y25910956D01*
X46711448Y25898974D01*
X46730168Y25885090D01*
X46747438Y25869438D01*
X46763090Y25852168D01*
X46776974Y25833448D01*
X46788956Y25813457D01*
X46798921Y25792387D01*
X46806773Y25770443D01*
X46812437Y25747834D01*
X46815856Y25724779D01*
X46817000Y25701500D01*
X46817000Y25126500D01*
X46815856Y25103221D01*
X46812437Y25080166D01*
X46806773Y25057557D01*
X46798921Y25035613D01*
X46788956Y25014543D01*
X46776974Y24994552D01*
X46763090Y24975832D01*
X46747438Y24958562D01*
X46730168Y24942910D01*
X46711448Y24929026D01*
X46691457Y24917044D01*
X46670387Y24907079D01*
X46648443Y24899227D01*
X46625834Y24893563D01*
X46602779Y24890144D01*
X46579500Y24889000D01*
X46104500Y24889000D01*
X46081221Y24890144D01*
X46058166Y24893563D01*
X46035557Y24899227D01*
X46013613Y24907079D01*
X45992543Y24917044D01*
X45972552Y24929026D01*
X45953832Y24942910D01*
X45936562Y24958562D01*
X45920910Y24975832D01*
X45907026Y24994552D01*
X45895044Y25014543D01*
X45885079Y25035613D01*
X45877227Y25057557D01*
X45871563Y25080166D01*
X45868144Y25103221D01*
X45867000Y25126500D01*
X45867000Y25701500D01*
X45868144Y25724779D01*
X45871563Y25747834D01*
X45877227Y25770443D01*
X45885079Y25792387D01*
X45895044Y25813457D01*
X45907026Y25833448D01*
X45920910Y25852168D01*
X45936562Y25869438D01*
X45953832Y25885090D01*
X45972552Y25898974D01*
X45992543Y25910956D01*
X46013613Y25920921D01*
X46035557Y25928773D01*
X46058166Y25934437D01*
X46081221Y25937856D01*
X46104500Y25939000D01*
X46579500Y25939000D01*
X46602779Y25937856D01*
X46602779Y25937856D01*
G37*
D15*
X46342000Y25414000D03*
D14*
G36*
X46602779Y24187856D02*
G01*
X46625834Y24184437D01*
X46648443Y24178773D01*
X46670387Y24170921D01*
X46691457Y24160956D01*
X46711448Y24148974D01*
X46730168Y24135090D01*
X46747438Y24119438D01*
X46763090Y24102168D01*
X46776974Y24083448D01*
X46788956Y24063457D01*
X46798921Y24042387D01*
X46806773Y24020443D01*
X46812437Y23997834D01*
X46815856Y23974779D01*
X46817000Y23951500D01*
X46817000Y23376500D01*
X46815856Y23353221D01*
X46812437Y23330166D01*
X46806773Y23307557D01*
X46798921Y23285613D01*
X46788956Y23264543D01*
X46776974Y23244552D01*
X46763090Y23225832D01*
X46747438Y23208562D01*
X46730168Y23192910D01*
X46711448Y23179026D01*
X46691457Y23167044D01*
X46670387Y23157079D01*
X46648443Y23149227D01*
X46625834Y23143563D01*
X46602779Y23140144D01*
X46579500Y23139000D01*
X46104500Y23139000D01*
X46081221Y23140144D01*
X46058166Y23143563D01*
X46035557Y23149227D01*
X46013613Y23157079D01*
X45992543Y23167044D01*
X45972552Y23179026D01*
X45953832Y23192910D01*
X45936562Y23208562D01*
X45920910Y23225832D01*
X45907026Y23244552D01*
X45895044Y23264543D01*
X45885079Y23285613D01*
X45877227Y23307557D01*
X45871563Y23330166D01*
X45868144Y23353221D01*
X45867000Y23376500D01*
X45867000Y23951500D01*
X45868144Y23974779D01*
X45871563Y23997834D01*
X45877227Y24020443D01*
X45885079Y24042387D01*
X45895044Y24063457D01*
X45907026Y24083448D01*
X45920910Y24102168D01*
X45936562Y24119438D01*
X45953832Y24135090D01*
X45972552Y24148974D01*
X45992543Y24160956D01*
X46013613Y24170921D01*
X46035557Y24178773D01*
X46058166Y24184437D01*
X46081221Y24187856D01*
X46104500Y24189000D01*
X46579500Y24189000D01*
X46602779Y24187856D01*
X46602779Y24187856D01*
G37*
D15*
X46342000Y23664000D03*
D14*
G36*
X12044779Y48957856D02*
G01*
X12067834Y48954437D01*
X12090443Y48948773D01*
X12112387Y48940921D01*
X12133457Y48930956D01*
X12153448Y48918974D01*
X12172168Y48905090D01*
X12189438Y48889438D01*
X12205090Y48872168D01*
X12218974Y48853448D01*
X12230956Y48833457D01*
X12240921Y48812387D01*
X12248773Y48790443D01*
X12254437Y48767834D01*
X12257856Y48744779D01*
X12259000Y48721500D01*
X12259000Y48146500D01*
X12257856Y48123221D01*
X12254437Y48100166D01*
X12248773Y48077557D01*
X12240921Y48055613D01*
X12230956Y48034543D01*
X12218974Y48014552D01*
X12205090Y47995832D01*
X12189438Y47978562D01*
X12172168Y47962910D01*
X12153448Y47949026D01*
X12133457Y47937044D01*
X12112387Y47927079D01*
X12090443Y47919227D01*
X12067834Y47913563D01*
X12044779Y47910144D01*
X12021500Y47909000D01*
X11546500Y47909000D01*
X11523221Y47910144D01*
X11500166Y47913563D01*
X11477557Y47919227D01*
X11455613Y47927079D01*
X11434543Y47937044D01*
X11414552Y47949026D01*
X11395832Y47962910D01*
X11378562Y47978562D01*
X11362910Y47995832D01*
X11349026Y48014552D01*
X11337044Y48034543D01*
X11327079Y48055613D01*
X11319227Y48077557D01*
X11313563Y48100166D01*
X11310144Y48123221D01*
X11309000Y48146500D01*
X11309000Y48721500D01*
X11310144Y48744779D01*
X11313563Y48767834D01*
X11319227Y48790443D01*
X11327079Y48812387D01*
X11337044Y48833457D01*
X11349026Y48853448D01*
X11362910Y48872168D01*
X11378562Y48889438D01*
X11395832Y48905090D01*
X11414552Y48918974D01*
X11434543Y48930956D01*
X11455613Y48940921D01*
X11477557Y48948773D01*
X11500166Y48954437D01*
X11523221Y48957856D01*
X11546500Y48959000D01*
X12021500Y48959000D01*
X12044779Y48957856D01*
X12044779Y48957856D01*
G37*
D15*
X11784000Y48434000D03*
D14*
G36*
X12044779Y47207856D02*
G01*
X12067834Y47204437D01*
X12090443Y47198773D01*
X12112387Y47190921D01*
X12133457Y47180956D01*
X12153448Y47168974D01*
X12172168Y47155090D01*
X12189438Y47139438D01*
X12205090Y47122168D01*
X12218974Y47103448D01*
X12230956Y47083457D01*
X12240921Y47062387D01*
X12248773Y47040443D01*
X12254437Y47017834D01*
X12257856Y46994779D01*
X12259000Y46971500D01*
X12259000Y46396500D01*
X12257856Y46373221D01*
X12254437Y46350166D01*
X12248773Y46327557D01*
X12240921Y46305613D01*
X12230956Y46284543D01*
X12218974Y46264552D01*
X12205090Y46245832D01*
X12189438Y46228562D01*
X12172168Y46212910D01*
X12153448Y46199026D01*
X12133457Y46187044D01*
X12112387Y46177079D01*
X12090443Y46169227D01*
X12067834Y46163563D01*
X12044779Y46160144D01*
X12021500Y46159000D01*
X11546500Y46159000D01*
X11523221Y46160144D01*
X11500166Y46163563D01*
X11477557Y46169227D01*
X11455613Y46177079D01*
X11434543Y46187044D01*
X11414552Y46199026D01*
X11395832Y46212910D01*
X11378562Y46228562D01*
X11362910Y46245832D01*
X11349026Y46264552D01*
X11337044Y46284543D01*
X11327079Y46305613D01*
X11319227Y46327557D01*
X11313563Y46350166D01*
X11310144Y46373221D01*
X11309000Y46396500D01*
X11309000Y46971500D01*
X11310144Y46994779D01*
X11313563Y47017834D01*
X11319227Y47040443D01*
X11327079Y47062387D01*
X11337044Y47083457D01*
X11349026Y47103448D01*
X11362910Y47122168D01*
X11378562Y47139438D01*
X11395832Y47155090D01*
X11414552Y47168974D01*
X11434543Y47180956D01*
X11455613Y47190921D01*
X11477557Y47198773D01*
X11500166Y47204437D01*
X11523221Y47207856D01*
X11546500Y47209000D01*
X12021500Y47209000D01*
X12044779Y47207856D01*
X12044779Y47207856D01*
G37*
D15*
X11784000Y46684000D03*
D14*
G36*
X16890779Y33758856D02*
G01*
X16913834Y33755437D01*
X16936443Y33749773D01*
X16958387Y33741921D01*
X16979457Y33731956D01*
X16999448Y33719974D01*
X17018168Y33706090D01*
X17035438Y33690438D01*
X17051090Y33673168D01*
X17064974Y33654448D01*
X17076956Y33634457D01*
X17086921Y33613387D01*
X17094773Y33591443D01*
X17100437Y33568834D01*
X17103856Y33545779D01*
X17105000Y33522500D01*
X17105000Y32947500D01*
X17103856Y32924221D01*
X17100437Y32901166D01*
X17094773Y32878557D01*
X17086921Y32856613D01*
X17076956Y32835543D01*
X17064974Y32815552D01*
X17051090Y32796832D01*
X17035438Y32779562D01*
X17018168Y32763910D01*
X16999448Y32750026D01*
X16979457Y32738044D01*
X16958387Y32728079D01*
X16936443Y32720227D01*
X16913834Y32714563D01*
X16890779Y32711144D01*
X16867500Y32710000D01*
X16392500Y32710000D01*
X16369221Y32711144D01*
X16346166Y32714563D01*
X16323557Y32720227D01*
X16301613Y32728079D01*
X16280543Y32738044D01*
X16260552Y32750026D01*
X16241832Y32763910D01*
X16224562Y32779562D01*
X16208910Y32796832D01*
X16195026Y32815552D01*
X16183044Y32835543D01*
X16173079Y32856613D01*
X16165227Y32878557D01*
X16159563Y32901166D01*
X16156144Y32924221D01*
X16155000Y32947500D01*
X16155000Y33522500D01*
X16156144Y33545779D01*
X16159563Y33568834D01*
X16165227Y33591443D01*
X16173079Y33613387D01*
X16183044Y33634457D01*
X16195026Y33654448D01*
X16208910Y33673168D01*
X16224562Y33690438D01*
X16241832Y33706090D01*
X16260552Y33719974D01*
X16280543Y33731956D01*
X16301613Y33741921D01*
X16323557Y33749773D01*
X16346166Y33755437D01*
X16369221Y33758856D01*
X16392500Y33760000D01*
X16867500Y33760000D01*
X16890779Y33758856D01*
X16890779Y33758856D01*
G37*
D15*
X16630000Y33235000D03*
D14*
G36*
X16890779Y32008856D02*
G01*
X16913834Y32005437D01*
X16936443Y31999773D01*
X16958387Y31991921D01*
X16979457Y31981956D01*
X16999448Y31969974D01*
X17018168Y31956090D01*
X17035438Y31940438D01*
X17051090Y31923168D01*
X17064974Y31904448D01*
X17076956Y31884457D01*
X17086921Y31863387D01*
X17094773Y31841443D01*
X17100437Y31818834D01*
X17103856Y31795779D01*
X17105000Y31772500D01*
X17105000Y31197500D01*
X17103856Y31174221D01*
X17100437Y31151166D01*
X17094773Y31128557D01*
X17086921Y31106613D01*
X17076956Y31085543D01*
X17064974Y31065552D01*
X17051090Y31046832D01*
X17035438Y31029562D01*
X17018168Y31013910D01*
X16999448Y31000026D01*
X16979457Y30988044D01*
X16958387Y30978079D01*
X16936443Y30970227D01*
X16913834Y30964563D01*
X16890779Y30961144D01*
X16867500Y30960000D01*
X16392500Y30960000D01*
X16369221Y30961144D01*
X16346166Y30964563D01*
X16323557Y30970227D01*
X16301613Y30978079D01*
X16280543Y30988044D01*
X16260552Y31000026D01*
X16241832Y31013910D01*
X16224562Y31029562D01*
X16208910Y31046832D01*
X16195026Y31065552D01*
X16183044Y31085543D01*
X16173079Y31106613D01*
X16165227Y31128557D01*
X16159563Y31151166D01*
X16156144Y31174221D01*
X16155000Y31197500D01*
X16155000Y31772500D01*
X16156144Y31795779D01*
X16159563Y31818834D01*
X16165227Y31841443D01*
X16173079Y31863387D01*
X16183044Y31884457D01*
X16195026Y31904448D01*
X16208910Y31923168D01*
X16224562Y31940438D01*
X16241832Y31956090D01*
X16260552Y31969974D01*
X16280543Y31981956D01*
X16301613Y31991921D01*
X16323557Y31999773D01*
X16346166Y32005437D01*
X16369221Y32008856D01*
X16392500Y32010000D01*
X16867500Y32010000D01*
X16890779Y32008856D01*
X16890779Y32008856D01*
G37*
D15*
X16630000Y31485000D03*
D14*
G36*
X21405779Y33113856D02*
G01*
X21428834Y33110437D01*
X21451443Y33104773D01*
X21473387Y33096921D01*
X21494457Y33086956D01*
X21514448Y33074974D01*
X21533168Y33061090D01*
X21550438Y33045438D01*
X21566090Y33028168D01*
X21579974Y33009448D01*
X21591956Y32989457D01*
X21601921Y32968387D01*
X21609773Y32946443D01*
X21615437Y32923834D01*
X21618856Y32900779D01*
X21620000Y32877500D01*
X21620000Y32402500D01*
X21618856Y32379221D01*
X21615437Y32356166D01*
X21609773Y32333557D01*
X21601921Y32311613D01*
X21591956Y32290543D01*
X21579974Y32270552D01*
X21566090Y32251832D01*
X21550438Y32234562D01*
X21533168Y32218910D01*
X21514448Y32205026D01*
X21494457Y32193044D01*
X21473387Y32183079D01*
X21451443Y32175227D01*
X21428834Y32169563D01*
X21405779Y32166144D01*
X21382500Y32165000D01*
X20807500Y32165000D01*
X20784221Y32166144D01*
X20761166Y32169563D01*
X20738557Y32175227D01*
X20716613Y32183079D01*
X20695543Y32193044D01*
X20675552Y32205026D01*
X20656832Y32218910D01*
X20639562Y32234562D01*
X20623910Y32251832D01*
X20610026Y32270552D01*
X20598044Y32290543D01*
X20588079Y32311613D01*
X20580227Y32333557D01*
X20574563Y32356166D01*
X20571144Y32379221D01*
X20570000Y32402500D01*
X20570000Y32877500D01*
X20571144Y32900779D01*
X20574563Y32923834D01*
X20580227Y32946443D01*
X20588079Y32968387D01*
X20598044Y32989457D01*
X20610026Y33009448D01*
X20623910Y33028168D01*
X20639562Y33045438D01*
X20656832Y33061090D01*
X20675552Y33074974D01*
X20695543Y33086956D01*
X20716613Y33096921D01*
X20738557Y33104773D01*
X20761166Y33110437D01*
X20784221Y33113856D01*
X20807500Y33115000D01*
X21382500Y33115000D01*
X21405779Y33113856D01*
X21405779Y33113856D01*
G37*
D15*
X21095000Y32640000D03*
D14*
G36*
X19655779Y33113856D02*
G01*
X19678834Y33110437D01*
X19701443Y33104773D01*
X19723387Y33096921D01*
X19744457Y33086956D01*
X19764448Y33074974D01*
X19783168Y33061090D01*
X19800438Y33045438D01*
X19816090Y33028168D01*
X19829974Y33009448D01*
X19841956Y32989457D01*
X19851921Y32968387D01*
X19859773Y32946443D01*
X19865437Y32923834D01*
X19868856Y32900779D01*
X19870000Y32877500D01*
X19870000Y32402500D01*
X19868856Y32379221D01*
X19865437Y32356166D01*
X19859773Y32333557D01*
X19851921Y32311613D01*
X19841956Y32290543D01*
X19829974Y32270552D01*
X19816090Y32251832D01*
X19800438Y32234562D01*
X19783168Y32218910D01*
X19764448Y32205026D01*
X19744457Y32193044D01*
X19723387Y32183079D01*
X19701443Y32175227D01*
X19678834Y32169563D01*
X19655779Y32166144D01*
X19632500Y32165000D01*
X19057500Y32165000D01*
X19034221Y32166144D01*
X19011166Y32169563D01*
X18988557Y32175227D01*
X18966613Y32183079D01*
X18945543Y32193044D01*
X18925552Y32205026D01*
X18906832Y32218910D01*
X18889562Y32234562D01*
X18873910Y32251832D01*
X18860026Y32270552D01*
X18848044Y32290543D01*
X18838079Y32311613D01*
X18830227Y32333557D01*
X18824563Y32356166D01*
X18821144Y32379221D01*
X18820000Y32402500D01*
X18820000Y32877500D01*
X18821144Y32900779D01*
X18824563Y32923834D01*
X18830227Y32946443D01*
X18838079Y32968387D01*
X18848044Y32989457D01*
X18860026Y33009448D01*
X18873910Y33028168D01*
X18889562Y33045438D01*
X18906832Y33061090D01*
X18925552Y33074974D01*
X18945543Y33086956D01*
X18966613Y33096921D01*
X18988557Y33104773D01*
X19011166Y33110437D01*
X19034221Y33113856D01*
X19057500Y33115000D01*
X19632500Y33115000D01*
X19655779Y33113856D01*
X19655779Y33113856D01*
G37*
D15*
X19345000Y32640000D03*
D14*
G36*
X64168779Y17616856D02*
G01*
X64191834Y17613437D01*
X64214443Y17607773D01*
X64236387Y17599921D01*
X64257457Y17589956D01*
X64277448Y17577974D01*
X64296168Y17564090D01*
X64313438Y17548438D01*
X64329090Y17531168D01*
X64342974Y17512448D01*
X64354956Y17492457D01*
X64364921Y17471387D01*
X64372773Y17449443D01*
X64378437Y17426834D01*
X64381856Y17403779D01*
X64383000Y17380500D01*
X64383000Y16805500D01*
X64381856Y16782221D01*
X64378437Y16759166D01*
X64372773Y16736557D01*
X64364921Y16714613D01*
X64354956Y16693543D01*
X64342974Y16673552D01*
X64329090Y16654832D01*
X64313438Y16637562D01*
X64296168Y16621910D01*
X64277448Y16608026D01*
X64257457Y16596044D01*
X64236387Y16586079D01*
X64214443Y16578227D01*
X64191834Y16572563D01*
X64168779Y16569144D01*
X64145500Y16568000D01*
X63670500Y16568000D01*
X63647221Y16569144D01*
X63624166Y16572563D01*
X63601557Y16578227D01*
X63579613Y16586079D01*
X63558543Y16596044D01*
X63538552Y16608026D01*
X63519832Y16621910D01*
X63502562Y16637562D01*
X63486910Y16654832D01*
X63473026Y16673552D01*
X63461044Y16693543D01*
X63451079Y16714613D01*
X63443227Y16736557D01*
X63437563Y16759166D01*
X63434144Y16782221D01*
X63433000Y16805500D01*
X63433000Y17380500D01*
X63434144Y17403779D01*
X63437563Y17426834D01*
X63443227Y17449443D01*
X63451079Y17471387D01*
X63461044Y17492457D01*
X63473026Y17512448D01*
X63486910Y17531168D01*
X63502562Y17548438D01*
X63519832Y17564090D01*
X63538552Y17577974D01*
X63558543Y17589956D01*
X63579613Y17599921D01*
X63601557Y17607773D01*
X63624166Y17613437D01*
X63647221Y17616856D01*
X63670500Y17618000D01*
X64145500Y17618000D01*
X64168779Y17616856D01*
X64168779Y17616856D01*
G37*
D15*
X63908000Y17093000D03*
D14*
G36*
X64168779Y19366856D02*
G01*
X64191834Y19363437D01*
X64214443Y19357773D01*
X64236387Y19349921D01*
X64257457Y19339956D01*
X64277448Y19327974D01*
X64296168Y19314090D01*
X64313438Y19298438D01*
X64329090Y19281168D01*
X64342974Y19262448D01*
X64354956Y19242457D01*
X64364921Y19221387D01*
X64372773Y19199443D01*
X64378437Y19176834D01*
X64381856Y19153779D01*
X64383000Y19130500D01*
X64383000Y18555500D01*
X64381856Y18532221D01*
X64378437Y18509166D01*
X64372773Y18486557D01*
X64364921Y18464613D01*
X64354956Y18443543D01*
X64342974Y18423552D01*
X64329090Y18404832D01*
X64313438Y18387562D01*
X64296168Y18371910D01*
X64277448Y18358026D01*
X64257457Y18346044D01*
X64236387Y18336079D01*
X64214443Y18328227D01*
X64191834Y18322563D01*
X64168779Y18319144D01*
X64145500Y18318000D01*
X63670500Y18318000D01*
X63647221Y18319144D01*
X63624166Y18322563D01*
X63601557Y18328227D01*
X63579613Y18336079D01*
X63558543Y18346044D01*
X63538552Y18358026D01*
X63519832Y18371910D01*
X63502562Y18387562D01*
X63486910Y18404832D01*
X63473026Y18423552D01*
X63461044Y18443543D01*
X63451079Y18464613D01*
X63443227Y18486557D01*
X63437563Y18509166D01*
X63434144Y18532221D01*
X63433000Y18555500D01*
X63433000Y19130500D01*
X63434144Y19153779D01*
X63437563Y19176834D01*
X63443227Y19199443D01*
X63451079Y19221387D01*
X63461044Y19242457D01*
X63473026Y19262448D01*
X63486910Y19281168D01*
X63502562Y19298438D01*
X63519832Y19314090D01*
X63538552Y19327974D01*
X63558543Y19339956D01*
X63579613Y19349921D01*
X63601557Y19357773D01*
X63624166Y19363437D01*
X63647221Y19366856D01*
X63670500Y19368000D01*
X64145500Y19368000D01*
X64168779Y19366856D01*
X64168779Y19366856D01*
G37*
D15*
X63908000Y18843000D03*
D14*
G36*
X29556779Y39806856D02*
G01*
X29579834Y39803437D01*
X29602443Y39797773D01*
X29624387Y39789921D01*
X29645457Y39779956D01*
X29665448Y39767974D01*
X29684168Y39754090D01*
X29701438Y39738438D01*
X29717090Y39721168D01*
X29730974Y39702448D01*
X29742956Y39682457D01*
X29752921Y39661387D01*
X29760773Y39639443D01*
X29766437Y39616834D01*
X29769856Y39593779D01*
X29771000Y39570500D01*
X29771000Y39095500D01*
X29769856Y39072221D01*
X29766437Y39049166D01*
X29760773Y39026557D01*
X29752921Y39004613D01*
X29742956Y38983543D01*
X29730974Y38963552D01*
X29717090Y38944832D01*
X29701438Y38927562D01*
X29684168Y38911910D01*
X29665448Y38898026D01*
X29645457Y38886044D01*
X29624387Y38876079D01*
X29602443Y38868227D01*
X29579834Y38862563D01*
X29556779Y38859144D01*
X29533500Y38858000D01*
X28958500Y38858000D01*
X28935221Y38859144D01*
X28912166Y38862563D01*
X28889557Y38868227D01*
X28867613Y38876079D01*
X28846543Y38886044D01*
X28826552Y38898026D01*
X28807832Y38911910D01*
X28790562Y38927562D01*
X28774910Y38944832D01*
X28761026Y38963552D01*
X28749044Y38983543D01*
X28739079Y39004613D01*
X28731227Y39026557D01*
X28725563Y39049166D01*
X28722144Y39072221D01*
X28721000Y39095500D01*
X28721000Y39570500D01*
X28722144Y39593779D01*
X28725563Y39616834D01*
X28731227Y39639443D01*
X28739079Y39661387D01*
X28749044Y39682457D01*
X28761026Y39702448D01*
X28774910Y39721168D01*
X28790562Y39738438D01*
X28807832Y39754090D01*
X28826552Y39767974D01*
X28846543Y39779956D01*
X28867613Y39789921D01*
X28889557Y39797773D01*
X28912166Y39803437D01*
X28935221Y39806856D01*
X28958500Y39808000D01*
X29533500Y39808000D01*
X29556779Y39806856D01*
X29556779Y39806856D01*
G37*
D15*
X29246000Y39333000D03*
D14*
G36*
X27806779Y39806856D02*
G01*
X27829834Y39803437D01*
X27852443Y39797773D01*
X27874387Y39789921D01*
X27895457Y39779956D01*
X27915448Y39767974D01*
X27934168Y39754090D01*
X27951438Y39738438D01*
X27967090Y39721168D01*
X27980974Y39702448D01*
X27992956Y39682457D01*
X28002921Y39661387D01*
X28010773Y39639443D01*
X28016437Y39616834D01*
X28019856Y39593779D01*
X28021000Y39570500D01*
X28021000Y39095500D01*
X28019856Y39072221D01*
X28016437Y39049166D01*
X28010773Y39026557D01*
X28002921Y39004613D01*
X27992956Y38983543D01*
X27980974Y38963552D01*
X27967090Y38944832D01*
X27951438Y38927562D01*
X27934168Y38911910D01*
X27915448Y38898026D01*
X27895457Y38886044D01*
X27874387Y38876079D01*
X27852443Y38868227D01*
X27829834Y38862563D01*
X27806779Y38859144D01*
X27783500Y38858000D01*
X27208500Y38858000D01*
X27185221Y38859144D01*
X27162166Y38862563D01*
X27139557Y38868227D01*
X27117613Y38876079D01*
X27096543Y38886044D01*
X27076552Y38898026D01*
X27057832Y38911910D01*
X27040562Y38927562D01*
X27024910Y38944832D01*
X27011026Y38963552D01*
X26999044Y38983543D01*
X26989079Y39004613D01*
X26981227Y39026557D01*
X26975563Y39049166D01*
X26972144Y39072221D01*
X26971000Y39095500D01*
X26971000Y39570500D01*
X26972144Y39593779D01*
X26975563Y39616834D01*
X26981227Y39639443D01*
X26989079Y39661387D01*
X26999044Y39682457D01*
X27011026Y39702448D01*
X27024910Y39721168D01*
X27040562Y39738438D01*
X27057832Y39754090D01*
X27076552Y39767974D01*
X27096543Y39779956D01*
X27117613Y39789921D01*
X27139557Y39797773D01*
X27162166Y39803437D01*
X27185221Y39806856D01*
X27208500Y39808000D01*
X27783500Y39808000D01*
X27806779Y39806856D01*
X27806779Y39806856D01*
G37*
D15*
X27496000Y39333000D03*
D14*
G36*
X31186779Y39796856D02*
G01*
X31209834Y39793437D01*
X31232443Y39787773D01*
X31254387Y39779921D01*
X31275457Y39769956D01*
X31295448Y39757974D01*
X31314168Y39744090D01*
X31331438Y39728438D01*
X31347090Y39711168D01*
X31360974Y39692448D01*
X31372956Y39672457D01*
X31382921Y39651387D01*
X31390773Y39629443D01*
X31396437Y39606834D01*
X31399856Y39583779D01*
X31401000Y39560500D01*
X31401000Y39085500D01*
X31399856Y39062221D01*
X31396437Y39039166D01*
X31390773Y39016557D01*
X31382921Y38994613D01*
X31372956Y38973543D01*
X31360974Y38953552D01*
X31347090Y38934832D01*
X31331438Y38917562D01*
X31314168Y38901910D01*
X31295448Y38888026D01*
X31275457Y38876044D01*
X31254387Y38866079D01*
X31232443Y38858227D01*
X31209834Y38852563D01*
X31186779Y38849144D01*
X31163500Y38848000D01*
X30588500Y38848000D01*
X30565221Y38849144D01*
X30542166Y38852563D01*
X30519557Y38858227D01*
X30497613Y38866079D01*
X30476543Y38876044D01*
X30456552Y38888026D01*
X30437832Y38901910D01*
X30420562Y38917562D01*
X30404910Y38934832D01*
X30391026Y38953552D01*
X30379044Y38973543D01*
X30369079Y38994613D01*
X30361227Y39016557D01*
X30355563Y39039166D01*
X30352144Y39062221D01*
X30351000Y39085500D01*
X30351000Y39560500D01*
X30352144Y39583779D01*
X30355563Y39606834D01*
X30361227Y39629443D01*
X30369079Y39651387D01*
X30379044Y39672457D01*
X30391026Y39692448D01*
X30404910Y39711168D01*
X30420562Y39728438D01*
X30437832Y39744090D01*
X30456552Y39757974D01*
X30476543Y39769956D01*
X30497613Y39779921D01*
X30519557Y39787773D01*
X30542166Y39793437D01*
X30565221Y39796856D01*
X30588500Y39798000D01*
X31163500Y39798000D01*
X31186779Y39796856D01*
X31186779Y39796856D01*
G37*
D15*
X30876000Y39323000D03*
D14*
G36*
X32936779Y39796856D02*
G01*
X32959834Y39793437D01*
X32982443Y39787773D01*
X33004387Y39779921D01*
X33025457Y39769956D01*
X33045448Y39757974D01*
X33064168Y39744090D01*
X33081438Y39728438D01*
X33097090Y39711168D01*
X33110974Y39692448D01*
X33122956Y39672457D01*
X33132921Y39651387D01*
X33140773Y39629443D01*
X33146437Y39606834D01*
X33149856Y39583779D01*
X33151000Y39560500D01*
X33151000Y39085500D01*
X33149856Y39062221D01*
X33146437Y39039166D01*
X33140773Y39016557D01*
X33132921Y38994613D01*
X33122956Y38973543D01*
X33110974Y38953552D01*
X33097090Y38934832D01*
X33081438Y38917562D01*
X33064168Y38901910D01*
X33045448Y38888026D01*
X33025457Y38876044D01*
X33004387Y38866079D01*
X32982443Y38858227D01*
X32959834Y38852563D01*
X32936779Y38849144D01*
X32913500Y38848000D01*
X32338500Y38848000D01*
X32315221Y38849144D01*
X32292166Y38852563D01*
X32269557Y38858227D01*
X32247613Y38866079D01*
X32226543Y38876044D01*
X32206552Y38888026D01*
X32187832Y38901910D01*
X32170562Y38917562D01*
X32154910Y38934832D01*
X32141026Y38953552D01*
X32129044Y38973543D01*
X32119079Y38994613D01*
X32111227Y39016557D01*
X32105563Y39039166D01*
X32102144Y39062221D01*
X32101000Y39085500D01*
X32101000Y39560500D01*
X32102144Y39583779D01*
X32105563Y39606834D01*
X32111227Y39629443D01*
X32119079Y39651387D01*
X32129044Y39672457D01*
X32141026Y39692448D01*
X32154910Y39711168D01*
X32170562Y39728438D01*
X32187832Y39744090D01*
X32206552Y39757974D01*
X32226543Y39769956D01*
X32247613Y39779921D01*
X32269557Y39787773D01*
X32292166Y39793437D01*
X32315221Y39796856D01*
X32338500Y39798000D01*
X32913500Y39798000D01*
X32936779Y39796856D01*
X32936779Y39796856D01*
G37*
D15*
X32626000Y39323000D03*
D14*
G36*
X34065779Y15233856D02*
G01*
X34088834Y15230437D01*
X34111443Y15224773D01*
X34133387Y15216921D01*
X34154457Y15206956D01*
X34174448Y15194974D01*
X34193168Y15181090D01*
X34210438Y15165438D01*
X34226090Y15148168D01*
X34239974Y15129448D01*
X34251956Y15109457D01*
X34261921Y15088387D01*
X34269773Y15066443D01*
X34275437Y15043834D01*
X34278856Y15020779D01*
X34280000Y14997500D01*
X34280000Y14522500D01*
X34278856Y14499221D01*
X34275437Y14476166D01*
X34269773Y14453557D01*
X34261921Y14431613D01*
X34251956Y14410543D01*
X34239974Y14390552D01*
X34226090Y14371832D01*
X34210438Y14354562D01*
X34193168Y14338910D01*
X34174448Y14325026D01*
X34154457Y14313044D01*
X34133387Y14303079D01*
X34111443Y14295227D01*
X34088834Y14289563D01*
X34065779Y14286144D01*
X34042500Y14285000D01*
X33467500Y14285000D01*
X33444221Y14286144D01*
X33421166Y14289563D01*
X33398557Y14295227D01*
X33376613Y14303079D01*
X33355543Y14313044D01*
X33335552Y14325026D01*
X33316832Y14338910D01*
X33299562Y14354562D01*
X33283910Y14371832D01*
X33270026Y14390552D01*
X33258044Y14410543D01*
X33248079Y14431613D01*
X33240227Y14453557D01*
X33234563Y14476166D01*
X33231144Y14499221D01*
X33230000Y14522500D01*
X33230000Y14997500D01*
X33231144Y15020779D01*
X33234563Y15043834D01*
X33240227Y15066443D01*
X33248079Y15088387D01*
X33258044Y15109457D01*
X33270026Y15129448D01*
X33283910Y15148168D01*
X33299562Y15165438D01*
X33316832Y15181090D01*
X33335552Y15194974D01*
X33355543Y15206956D01*
X33376613Y15216921D01*
X33398557Y15224773D01*
X33421166Y15230437D01*
X33444221Y15233856D01*
X33467500Y15235000D01*
X34042500Y15235000D01*
X34065779Y15233856D01*
X34065779Y15233856D01*
G37*
D15*
X33755000Y14760000D03*
D14*
G36*
X35815779Y15233856D02*
G01*
X35838834Y15230437D01*
X35861443Y15224773D01*
X35883387Y15216921D01*
X35904457Y15206956D01*
X35924448Y15194974D01*
X35943168Y15181090D01*
X35960438Y15165438D01*
X35976090Y15148168D01*
X35989974Y15129448D01*
X36001956Y15109457D01*
X36011921Y15088387D01*
X36019773Y15066443D01*
X36025437Y15043834D01*
X36028856Y15020779D01*
X36030000Y14997500D01*
X36030000Y14522500D01*
X36028856Y14499221D01*
X36025437Y14476166D01*
X36019773Y14453557D01*
X36011921Y14431613D01*
X36001956Y14410543D01*
X35989974Y14390552D01*
X35976090Y14371832D01*
X35960438Y14354562D01*
X35943168Y14338910D01*
X35924448Y14325026D01*
X35904457Y14313044D01*
X35883387Y14303079D01*
X35861443Y14295227D01*
X35838834Y14289563D01*
X35815779Y14286144D01*
X35792500Y14285000D01*
X35217500Y14285000D01*
X35194221Y14286144D01*
X35171166Y14289563D01*
X35148557Y14295227D01*
X35126613Y14303079D01*
X35105543Y14313044D01*
X35085552Y14325026D01*
X35066832Y14338910D01*
X35049562Y14354562D01*
X35033910Y14371832D01*
X35020026Y14390552D01*
X35008044Y14410543D01*
X34998079Y14431613D01*
X34990227Y14453557D01*
X34984563Y14476166D01*
X34981144Y14499221D01*
X34980000Y14522500D01*
X34980000Y14997500D01*
X34981144Y15020779D01*
X34984563Y15043834D01*
X34990227Y15066443D01*
X34998079Y15088387D01*
X35008044Y15109457D01*
X35020026Y15129448D01*
X35033910Y15148168D01*
X35049562Y15165438D01*
X35066832Y15181090D01*
X35085552Y15194974D01*
X35105543Y15206956D01*
X35126613Y15216921D01*
X35148557Y15224773D01*
X35171166Y15230437D01*
X35194221Y15233856D01*
X35217500Y15235000D01*
X35792500Y15235000D01*
X35815779Y15233856D01*
X35815779Y15233856D01*
G37*
D15*
X35505000Y14760000D03*
D14*
G36*
X34055779Y17823856D02*
G01*
X34078834Y17820437D01*
X34101443Y17814773D01*
X34123387Y17806921D01*
X34144457Y17796956D01*
X34164448Y17784974D01*
X34183168Y17771090D01*
X34200438Y17755438D01*
X34216090Y17738168D01*
X34229974Y17719448D01*
X34241956Y17699457D01*
X34251921Y17678387D01*
X34259773Y17656443D01*
X34265437Y17633834D01*
X34268856Y17610779D01*
X34270000Y17587500D01*
X34270000Y17112500D01*
X34268856Y17089221D01*
X34265437Y17066166D01*
X34259773Y17043557D01*
X34251921Y17021613D01*
X34241956Y17000543D01*
X34229974Y16980552D01*
X34216090Y16961832D01*
X34200438Y16944562D01*
X34183168Y16928910D01*
X34164448Y16915026D01*
X34144457Y16903044D01*
X34123387Y16893079D01*
X34101443Y16885227D01*
X34078834Y16879563D01*
X34055779Y16876144D01*
X34032500Y16875000D01*
X33457500Y16875000D01*
X33434221Y16876144D01*
X33411166Y16879563D01*
X33388557Y16885227D01*
X33366613Y16893079D01*
X33345543Y16903044D01*
X33325552Y16915026D01*
X33306832Y16928910D01*
X33289562Y16944562D01*
X33273910Y16961832D01*
X33260026Y16980552D01*
X33248044Y17000543D01*
X33238079Y17021613D01*
X33230227Y17043557D01*
X33224563Y17066166D01*
X33221144Y17089221D01*
X33220000Y17112500D01*
X33220000Y17587500D01*
X33221144Y17610779D01*
X33224563Y17633834D01*
X33230227Y17656443D01*
X33238079Y17678387D01*
X33248044Y17699457D01*
X33260026Y17719448D01*
X33273910Y17738168D01*
X33289562Y17755438D01*
X33306832Y17771090D01*
X33325552Y17784974D01*
X33345543Y17796956D01*
X33366613Y17806921D01*
X33388557Y17814773D01*
X33411166Y17820437D01*
X33434221Y17823856D01*
X33457500Y17825000D01*
X34032500Y17825000D01*
X34055779Y17823856D01*
X34055779Y17823856D01*
G37*
D15*
X33745000Y17350000D03*
D14*
G36*
X35805779Y17823856D02*
G01*
X35828834Y17820437D01*
X35851443Y17814773D01*
X35873387Y17806921D01*
X35894457Y17796956D01*
X35914448Y17784974D01*
X35933168Y17771090D01*
X35950438Y17755438D01*
X35966090Y17738168D01*
X35979974Y17719448D01*
X35991956Y17699457D01*
X36001921Y17678387D01*
X36009773Y17656443D01*
X36015437Y17633834D01*
X36018856Y17610779D01*
X36020000Y17587500D01*
X36020000Y17112500D01*
X36018856Y17089221D01*
X36015437Y17066166D01*
X36009773Y17043557D01*
X36001921Y17021613D01*
X35991956Y17000543D01*
X35979974Y16980552D01*
X35966090Y16961832D01*
X35950438Y16944562D01*
X35933168Y16928910D01*
X35914448Y16915026D01*
X35894457Y16903044D01*
X35873387Y16893079D01*
X35851443Y16885227D01*
X35828834Y16879563D01*
X35805779Y16876144D01*
X35782500Y16875000D01*
X35207500Y16875000D01*
X35184221Y16876144D01*
X35161166Y16879563D01*
X35138557Y16885227D01*
X35116613Y16893079D01*
X35095543Y16903044D01*
X35075552Y16915026D01*
X35056832Y16928910D01*
X35039562Y16944562D01*
X35023910Y16961832D01*
X35010026Y16980552D01*
X34998044Y17000543D01*
X34988079Y17021613D01*
X34980227Y17043557D01*
X34974563Y17066166D01*
X34971144Y17089221D01*
X34970000Y17112500D01*
X34970000Y17587500D01*
X34971144Y17610779D01*
X34974563Y17633834D01*
X34980227Y17656443D01*
X34988079Y17678387D01*
X34998044Y17699457D01*
X35010026Y17719448D01*
X35023910Y17738168D01*
X35039562Y17755438D01*
X35056832Y17771090D01*
X35075552Y17784974D01*
X35095543Y17796956D01*
X35116613Y17806921D01*
X35138557Y17814773D01*
X35161166Y17820437D01*
X35184221Y17823856D01*
X35207500Y17825000D01*
X35782500Y17825000D01*
X35805779Y17823856D01*
X35805779Y17823856D01*
G37*
D15*
X35495000Y17350000D03*
D14*
G36*
X23950779Y9598856D02*
G01*
X23973834Y9595437D01*
X23996443Y9589773D01*
X24018387Y9581921D01*
X24039457Y9571956D01*
X24059448Y9559974D01*
X24078168Y9546090D01*
X24095438Y9530438D01*
X24111090Y9513168D01*
X24124974Y9494448D01*
X24136956Y9474457D01*
X24146921Y9453387D01*
X24154773Y9431443D01*
X24160437Y9408834D01*
X24163856Y9385779D01*
X24165000Y9362500D01*
X24165000Y8787500D01*
X24163856Y8764221D01*
X24160437Y8741166D01*
X24154773Y8718557D01*
X24146921Y8696613D01*
X24136956Y8675543D01*
X24124974Y8655552D01*
X24111090Y8636832D01*
X24095438Y8619562D01*
X24078168Y8603910D01*
X24059448Y8590026D01*
X24039457Y8578044D01*
X24018387Y8568079D01*
X23996443Y8560227D01*
X23973834Y8554563D01*
X23950779Y8551144D01*
X23927500Y8550000D01*
X23452500Y8550000D01*
X23429221Y8551144D01*
X23406166Y8554563D01*
X23383557Y8560227D01*
X23361613Y8568079D01*
X23340543Y8578044D01*
X23320552Y8590026D01*
X23301832Y8603910D01*
X23284562Y8619562D01*
X23268910Y8636832D01*
X23255026Y8655552D01*
X23243044Y8675543D01*
X23233079Y8696613D01*
X23225227Y8718557D01*
X23219563Y8741166D01*
X23216144Y8764221D01*
X23215000Y8787500D01*
X23215000Y9362500D01*
X23216144Y9385779D01*
X23219563Y9408834D01*
X23225227Y9431443D01*
X23233079Y9453387D01*
X23243044Y9474457D01*
X23255026Y9494448D01*
X23268910Y9513168D01*
X23284562Y9530438D01*
X23301832Y9546090D01*
X23320552Y9559974D01*
X23340543Y9571956D01*
X23361613Y9581921D01*
X23383557Y9589773D01*
X23406166Y9595437D01*
X23429221Y9598856D01*
X23452500Y9600000D01*
X23927500Y9600000D01*
X23950779Y9598856D01*
X23950779Y9598856D01*
G37*
D15*
X23690000Y9075000D03*
D14*
G36*
X23950779Y11348856D02*
G01*
X23973834Y11345437D01*
X23996443Y11339773D01*
X24018387Y11331921D01*
X24039457Y11321956D01*
X24059448Y11309974D01*
X24078168Y11296090D01*
X24095438Y11280438D01*
X24111090Y11263168D01*
X24124974Y11244448D01*
X24136956Y11224457D01*
X24146921Y11203387D01*
X24154773Y11181443D01*
X24160437Y11158834D01*
X24163856Y11135779D01*
X24165000Y11112500D01*
X24165000Y10537500D01*
X24163856Y10514221D01*
X24160437Y10491166D01*
X24154773Y10468557D01*
X24146921Y10446613D01*
X24136956Y10425543D01*
X24124974Y10405552D01*
X24111090Y10386832D01*
X24095438Y10369562D01*
X24078168Y10353910D01*
X24059448Y10340026D01*
X24039457Y10328044D01*
X24018387Y10318079D01*
X23996443Y10310227D01*
X23973834Y10304563D01*
X23950779Y10301144D01*
X23927500Y10300000D01*
X23452500Y10300000D01*
X23429221Y10301144D01*
X23406166Y10304563D01*
X23383557Y10310227D01*
X23361613Y10318079D01*
X23340543Y10328044D01*
X23320552Y10340026D01*
X23301832Y10353910D01*
X23284562Y10369562D01*
X23268910Y10386832D01*
X23255026Y10405552D01*
X23243044Y10425543D01*
X23233079Y10446613D01*
X23225227Y10468557D01*
X23219563Y10491166D01*
X23216144Y10514221D01*
X23215000Y10537500D01*
X23215000Y11112500D01*
X23216144Y11135779D01*
X23219563Y11158834D01*
X23225227Y11181443D01*
X23233079Y11203387D01*
X23243044Y11224457D01*
X23255026Y11244448D01*
X23268910Y11263168D01*
X23284562Y11280438D01*
X23301832Y11296090D01*
X23320552Y11309974D01*
X23340543Y11321956D01*
X23361613Y11331921D01*
X23383557Y11339773D01*
X23406166Y11345437D01*
X23429221Y11348856D01*
X23452500Y11350000D01*
X23927500Y11350000D01*
X23950779Y11348856D01*
X23950779Y11348856D01*
G37*
D15*
X23690000Y10825000D03*
D14*
G36*
X22450779Y9592856D02*
G01*
X22473834Y9589437D01*
X22496443Y9583773D01*
X22518387Y9575921D01*
X22539457Y9565956D01*
X22559448Y9553974D01*
X22578168Y9540090D01*
X22595438Y9524438D01*
X22611090Y9507168D01*
X22624974Y9488448D01*
X22636956Y9468457D01*
X22646921Y9447387D01*
X22654773Y9425443D01*
X22660437Y9402834D01*
X22663856Y9379779D01*
X22665000Y9356500D01*
X22665000Y8781500D01*
X22663856Y8758221D01*
X22660437Y8735166D01*
X22654773Y8712557D01*
X22646921Y8690613D01*
X22636956Y8669543D01*
X22624974Y8649552D01*
X22611090Y8630832D01*
X22595438Y8613562D01*
X22578168Y8597910D01*
X22559448Y8584026D01*
X22539457Y8572044D01*
X22518387Y8562079D01*
X22496443Y8554227D01*
X22473834Y8548563D01*
X22450779Y8545144D01*
X22427500Y8544000D01*
X21952500Y8544000D01*
X21929221Y8545144D01*
X21906166Y8548563D01*
X21883557Y8554227D01*
X21861613Y8562079D01*
X21840543Y8572044D01*
X21820552Y8584026D01*
X21801832Y8597910D01*
X21784562Y8613562D01*
X21768910Y8630832D01*
X21755026Y8649552D01*
X21743044Y8669543D01*
X21733079Y8690613D01*
X21725227Y8712557D01*
X21719563Y8735166D01*
X21716144Y8758221D01*
X21715000Y8781500D01*
X21715000Y9356500D01*
X21716144Y9379779D01*
X21719563Y9402834D01*
X21725227Y9425443D01*
X21733079Y9447387D01*
X21743044Y9468457D01*
X21755026Y9488448D01*
X21768910Y9507168D01*
X21784562Y9524438D01*
X21801832Y9540090D01*
X21820552Y9553974D01*
X21840543Y9565956D01*
X21861613Y9575921D01*
X21883557Y9583773D01*
X21906166Y9589437D01*
X21929221Y9592856D01*
X21952500Y9594000D01*
X22427500Y9594000D01*
X22450779Y9592856D01*
X22450779Y9592856D01*
G37*
D15*
X22190000Y9069000D03*
D14*
G36*
X22450779Y11342856D02*
G01*
X22473834Y11339437D01*
X22496443Y11333773D01*
X22518387Y11325921D01*
X22539457Y11315956D01*
X22559448Y11303974D01*
X22578168Y11290090D01*
X22595438Y11274438D01*
X22611090Y11257168D01*
X22624974Y11238448D01*
X22636956Y11218457D01*
X22646921Y11197387D01*
X22654773Y11175443D01*
X22660437Y11152834D01*
X22663856Y11129779D01*
X22665000Y11106500D01*
X22665000Y10531500D01*
X22663856Y10508221D01*
X22660437Y10485166D01*
X22654773Y10462557D01*
X22646921Y10440613D01*
X22636956Y10419543D01*
X22624974Y10399552D01*
X22611090Y10380832D01*
X22595438Y10363562D01*
X22578168Y10347910D01*
X22559448Y10334026D01*
X22539457Y10322044D01*
X22518387Y10312079D01*
X22496443Y10304227D01*
X22473834Y10298563D01*
X22450779Y10295144D01*
X22427500Y10294000D01*
X21952500Y10294000D01*
X21929221Y10295144D01*
X21906166Y10298563D01*
X21883557Y10304227D01*
X21861613Y10312079D01*
X21840543Y10322044D01*
X21820552Y10334026D01*
X21801832Y10347910D01*
X21784562Y10363562D01*
X21768910Y10380832D01*
X21755026Y10399552D01*
X21743044Y10419543D01*
X21733079Y10440613D01*
X21725227Y10462557D01*
X21719563Y10485166D01*
X21716144Y10508221D01*
X21715000Y10531500D01*
X21715000Y11106500D01*
X21716144Y11129779D01*
X21719563Y11152834D01*
X21725227Y11175443D01*
X21733079Y11197387D01*
X21743044Y11218457D01*
X21755026Y11238448D01*
X21768910Y11257168D01*
X21784562Y11274438D01*
X21801832Y11290090D01*
X21820552Y11303974D01*
X21840543Y11315956D01*
X21861613Y11325921D01*
X21883557Y11333773D01*
X21906166Y11339437D01*
X21929221Y11342856D01*
X21952500Y11344000D01*
X22427500Y11344000D01*
X22450779Y11342856D01*
X22450779Y11342856D01*
G37*
D15*
X22190000Y10819000D03*
D14*
G36*
X62295779Y7833856D02*
G01*
X62318834Y7830437D01*
X62341443Y7824773D01*
X62363387Y7816921D01*
X62384457Y7806956D01*
X62404448Y7794974D01*
X62423168Y7781090D01*
X62440438Y7765438D01*
X62456090Y7748168D01*
X62469974Y7729448D01*
X62481956Y7709457D01*
X62491921Y7688387D01*
X62499773Y7666443D01*
X62505437Y7643834D01*
X62508856Y7620779D01*
X62510000Y7597500D01*
X62510000Y7122500D01*
X62508856Y7099221D01*
X62505437Y7076166D01*
X62499773Y7053557D01*
X62491921Y7031613D01*
X62481956Y7010543D01*
X62469974Y6990552D01*
X62456090Y6971832D01*
X62440438Y6954562D01*
X62423168Y6938910D01*
X62404448Y6925026D01*
X62384457Y6913044D01*
X62363387Y6903079D01*
X62341443Y6895227D01*
X62318834Y6889563D01*
X62295779Y6886144D01*
X62272500Y6885000D01*
X61697500Y6885000D01*
X61674221Y6886144D01*
X61651166Y6889563D01*
X61628557Y6895227D01*
X61606613Y6903079D01*
X61585543Y6913044D01*
X61565552Y6925026D01*
X61546832Y6938910D01*
X61529562Y6954562D01*
X61513910Y6971832D01*
X61500026Y6990552D01*
X61488044Y7010543D01*
X61478079Y7031613D01*
X61470227Y7053557D01*
X61464563Y7076166D01*
X61461144Y7099221D01*
X61460000Y7122500D01*
X61460000Y7597500D01*
X61461144Y7620779D01*
X61464563Y7643834D01*
X61470227Y7666443D01*
X61478079Y7688387D01*
X61488044Y7709457D01*
X61500026Y7729448D01*
X61513910Y7748168D01*
X61529562Y7765438D01*
X61546832Y7781090D01*
X61565552Y7794974D01*
X61585543Y7806956D01*
X61606613Y7816921D01*
X61628557Y7824773D01*
X61651166Y7830437D01*
X61674221Y7833856D01*
X61697500Y7835000D01*
X62272500Y7835000D01*
X62295779Y7833856D01*
X62295779Y7833856D01*
G37*
D15*
X61985000Y7360000D03*
D14*
G36*
X60545779Y7833856D02*
G01*
X60568834Y7830437D01*
X60591443Y7824773D01*
X60613387Y7816921D01*
X60634457Y7806956D01*
X60654448Y7794974D01*
X60673168Y7781090D01*
X60690438Y7765438D01*
X60706090Y7748168D01*
X60719974Y7729448D01*
X60731956Y7709457D01*
X60741921Y7688387D01*
X60749773Y7666443D01*
X60755437Y7643834D01*
X60758856Y7620779D01*
X60760000Y7597500D01*
X60760000Y7122500D01*
X60758856Y7099221D01*
X60755437Y7076166D01*
X60749773Y7053557D01*
X60741921Y7031613D01*
X60731956Y7010543D01*
X60719974Y6990552D01*
X60706090Y6971832D01*
X60690438Y6954562D01*
X60673168Y6938910D01*
X60654448Y6925026D01*
X60634457Y6913044D01*
X60613387Y6903079D01*
X60591443Y6895227D01*
X60568834Y6889563D01*
X60545779Y6886144D01*
X60522500Y6885000D01*
X59947500Y6885000D01*
X59924221Y6886144D01*
X59901166Y6889563D01*
X59878557Y6895227D01*
X59856613Y6903079D01*
X59835543Y6913044D01*
X59815552Y6925026D01*
X59796832Y6938910D01*
X59779562Y6954562D01*
X59763910Y6971832D01*
X59750026Y6990552D01*
X59738044Y7010543D01*
X59728079Y7031613D01*
X59720227Y7053557D01*
X59714563Y7076166D01*
X59711144Y7099221D01*
X59710000Y7122500D01*
X59710000Y7597500D01*
X59711144Y7620779D01*
X59714563Y7643834D01*
X59720227Y7666443D01*
X59728079Y7688387D01*
X59738044Y7709457D01*
X59750026Y7729448D01*
X59763910Y7748168D01*
X59779562Y7765438D01*
X59796832Y7781090D01*
X59815552Y7794974D01*
X59835543Y7806956D01*
X59856613Y7816921D01*
X59878557Y7824773D01*
X59901166Y7830437D01*
X59924221Y7833856D01*
X59947500Y7835000D01*
X60522500Y7835000D01*
X60545779Y7833856D01*
X60545779Y7833856D01*
G37*
D15*
X60235000Y7360000D03*
D14*
G36*
X17145779Y9357856D02*
G01*
X17168834Y9354437D01*
X17191443Y9348773D01*
X17213387Y9340921D01*
X17234457Y9330956D01*
X17254448Y9318974D01*
X17273168Y9305090D01*
X17290438Y9289438D01*
X17306090Y9272168D01*
X17319974Y9253448D01*
X17331956Y9233457D01*
X17341921Y9212387D01*
X17349773Y9190443D01*
X17355437Y9167834D01*
X17358856Y9144779D01*
X17360000Y9121500D01*
X17360000Y8646500D01*
X17358856Y8623221D01*
X17355437Y8600166D01*
X17349773Y8577557D01*
X17341921Y8555613D01*
X17331956Y8534543D01*
X17319974Y8514552D01*
X17306090Y8495832D01*
X17290438Y8478562D01*
X17273168Y8462910D01*
X17254448Y8449026D01*
X17234457Y8437044D01*
X17213387Y8427079D01*
X17191443Y8419227D01*
X17168834Y8413563D01*
X17145779Y8410144D01*
X17122500Y8409000D01*
X16547500Y8409000D01*
X16524221Y8410144D01*
X16501166Y8413563D01*
X16478557Y8419227D01*
X16456613Y8427079D01*
X16435543Y8437044D01*
X16415552Y8449026D01*
X16396832Y8462910D01*
X16379562Y8478562D01*
X16363910Y8495832D01*
X16350026Y8514552D01*
X16338044Y8534543D01*
X16328079Y8555613D01*
X16320227Y8577557D01*
X16314563Y8600166D01*
X16311144Y8623221D01*
X16310000Y8646500D01*
X16310000Y9121500D01*
X16311144Y9144779D01*
X16314563Y9167834D01*
X16320227Y9190443D01*
X16328079Y9212387D01*
X16338044Y9233457D01*
X16350026Y9253448D01*
X16363910Y9272168D01*
X16379562Y9289438D01*
X16396832Y9305090D01*
X16415552Y9318974D01*
X16435543Y9330956D01*
X16456613Y9340921D01*
X16478557Y9348773D01*
X16501166Y9354437D01*
X16524221Y9357856D01*
X16547500Y9359000D01*
X17122500Y9359000D01*
X17145779Y9357856D01*
X17145779Y9357856D01*
G37*
D15*
X16835000Y8884000D03*
D14*
G36*
X15395779Y9357856D02*
G01*
X15418834Y9354437D01*
X15441443Y9348773D01*
X15463387Y9340921D01*
X15484457Y9330956D01*
X15504448Y9318974D01*
X15523168Y9305090D01*
X15540438Y9289438D01*
X15556090Y9272168D01*
X15569974Y9253448D01*
X15581956Y9233457D01*
X15591921Y9212387D01*
X15599773Y9190443D01*
X15605437Y9167834D01*
X15608856Y9144779D01*
X15610000Y9121500D01*
X15610000Y8646500D01*
X15608856Y8623221D01*
X15605437Y8600166D01*
X15599773Y8577557D01*
X15591921Y8555613D01*
X15581956Y8534543D01*
X15569974Y8514552D01*
X15556090Y8495832D01*
X15540438Y8478562D01*
X15523168Y8462910D01*
X15504448Y8449026D01*
X15484457Y8437044D01*
X15463387Y8427079D01*
X15441443Y8419227D01*
X15418834Y8413563D01*
X15395779Y8410144D01*
X15372500Y8409000D01*
X14797500Y8409000D01*
X14774221Y8410144D01*
X14751166Y8413563D01*
X14728557Y8419227D01*
X14706613Y8427079D01*
X14685543Y8437044D01*
X14665552Y8449026D01*
X14646832Y8462910D01*
X14629562Y8478562D01*
X14613910Y8495832D01*
X14600026Y8514552D01*
X14588044Y8534543D01*
X14578079Y8555613D01*
X14570227Y8577557D01*
X14564563Y8600166D01*
X14561144Y8623221D01*
X14560000Y8646500D01*
X14560000Y9121500D01*
X14561144Y9144779D01*
X14564563Y9167834D01*
X14570227Y9190443D01*
X14578079Y9212387D01*
X14588044Y9233457D01*
X14600026Y9253448D01*
X14613910Y9272168D01*
X14629562Y9289438D01*
X14646832Y9305090D01*
X14665552Y9318974D01*
X14685543Y9330956D01*
X14706613Y9340921D01*
X14728557Y9348773D01*
X14751166Y9354437D01*
X14774221Y9357856D01*
X14797500Y9359000D01*
X15372500Y9359000D01*
X15395779Y9357856D01*
X15395779Y9357856D01*
G37*
D15*
X15085000Y8884000D03*
D14*
G36*
X49091779Y46889856D02*
G01*
X49114834Y46886437D01*
X49137443Y46880773D01*
X49159387Y46872921D01*
X49180457Y46862956D01*
X49200448Y46850974D01*
X49219168Y46837090D01*
X49236438Y46821438D01*
X49252090Y46804168D01*
X49265974Y46785448D01*
X49277956Y46765457D01*
X49287921Y46744387D01*
X49295773Y46722443D01*
X49301437Y46699834D01*
X49304856Y46676779D01*
X49306000Y46653500D01*
X49306000Y46178500D01*
X49304856Y46155221D01*
X49301437Y46132166D01*
X49295773Y46109557D01*
X49287921Y46087613D01*
X49277956Y46066543D01*
X49265974Y46046552D01*
X49252090Y46027832D01*
X49236438Y46010562D01*
X49219168Y45994910D01*
X49200448Y45981026D01*
X49180457Y45969044D01*
X49159387Y45959079D01*
X49137443Y45951227D01*
X49114834Y45945563D01*
X49091779Y45942144D01*
X49068500Y45941000D01*
X48493500Y45941000D01*
X48470221Y45942144D01*
X48447166Y45945563D01*
X48424557Y45951227D01*
X48402613Y45959079D01*
X48381543Y45969044D01*
X48361552Y45981026D01*
X48342832Y45994910D01*
X48325562Y46010562D01*
X48309910Y46027832D01*
X48296026Y46046552D01*
X48284044Y46066543D01*
X48274079Y46087613D01*
X48266227Y46109557D01*
X48260563Y46132166D01*
X48257144Y46155221D01*
X48256000Y46178500D01*
X48256000Y46653500D01*
X48257144Y46676779D01*
X48260563Y46699834D01*
X48266227Y46722443D01*
X48274079Y46744387D01*
X48284044Y46765457D01*
X48296026Y46785448D01*
X48309910Y46804168D01*
X48325562Y46821438D01*
X48342832Y46837090D01*
X48361552Y46850974D01*
X48381543Y46862956D01*
X48402613Y46872921D01*
X48424557Y46880773D01*
X48447166Y46886437D01*
X48470221Y46889856D01*
X48493500Y46891000D01*
X49068500Y46891000D01*
X49091779Y46889856D01*
X49091779Y46889856D01*
G37*
D15*
X48781000Y46416000D03*
D14*
G36*
X47341779Y46889856D02*
G01*
X47364834Y46886437D01*
X47387443Y46880773D01*
X47409387Y46872921D01*
X47430457Y46862956D01*
X47450448Y46850974D01*
X47469168Y46837090D01*
X47486438Y46821438D01*
X47502090Y46804168D01*
X47515974Y46785448D01*
X47527956Y46765457D01*
X47537921Y46744387D01*
X47545773Y46722443D01*
X47551437Y46699834D01*
X47554856Y46676779D01*
X47556000Y46653500D01*
X47556000Y46178500D01*
X47554856Y46155221D01*
X47551437Y46132166D01*
X47545773Y46109557D01*
X47537921Y46087613D01*
X47527956Y46066543D01*
X47515974Y46046552D01*
X47502090Y46027832D01*
X47486438Y46010562D01*
X47469168Y45994910D01*
X47450448Y45981026D01*
X47430457Y45969044D01*
X47409387Y45959079D01*
X47387443Y45951227D01*
X47364834Y45945563D01*
X47341779Y45942144D01*
X47318500Y45941000D01*
X46743500Y45941000D01*
X46720221Y45942144D01*
X46697166Y45945563D01*
X46674557Y45951227D01*
X46652613Y45959079D01*
X46631543Y45969044D01*
X46611552Y45981026D01*
X46592832Y45994910D01*
X46575562Y46010562D01*
X46559910Y46027832D01*
X46546026Y46046552D01*
X46534044Y46066543D01*
X46524079Y46087613D01*
X46516227Y46109557D01*
X46510563Y46132166D01*
X46507144Y46155221D01*
X46506000Y46178500D01*
X46506000Y46653500D01*
X46507144Y46676779D01*
X46510563Y46699834D01*
X46516227Y46722443D01*
X46524079Y46744387D01*
X46534044Y46765457D01*
X46546026Y46785448D01*
X46559910Y46804168D01*
X46575562Y46821438D01*
X46592832Y46837090D01*
X46611552Y46850974D01*
X46631543Y46862956D01*
X46652613Y46872921D01*
X46674557Y46880773D01*
X46697166Y46886437D01*
X46720221Y46889856D01*
X46743500Y46891000D01*
X47318500Y46891000D01*
X47341779Y46889856D01*
X47341779Y46889856D01*
G37*
D15*
X47031000Y46416000D03*
D14*
G36*
X33190779Y48532856D02*
G01*
X33213834Y48529437D01*
X33236443Y48523773D01*
X33258387Y48515921D01*
X33279457Y48505956D01*
X33299448Y48493974D01*
X33318168Y48480090D01*
X33335438Y48464438D01*
X33351090Y48447168D01*
X33364974Y48428448D01*
X33376956Y48408457D01*
X33386921Y48387387D01*
X33394773Y48365443D01*
X33400437Y48342834D01*
X33403856Y48319779D01*
X33405000Y48296500D01*
X33405000Y47721500D01*
X33403856Y47698221D01*
X33400437Y47675166D01*
X33394773Y47652557D01*
X33386921Y47630613D01*
X33376956Y47609543D01*
X33364974Y47589552D01*
X33351090Y47570832D01*
X33335438Y47553562D01*
X33318168Y47537910D01*
X33299448Y47524026D01*
X33279457Y47512044D01*
X33258387Y47502079D01*
X33236443Y47494227D01*
X33213834Y47488563D01*
X33190779Y47485144D01*
X33167500Y47484000D01*
X32692500Y47484000D01*
X32669221Y47485144D01*
X32646166Y47488563D01*
X32623557Y47494227D01*
X32601613Y47502079D01*
X32580543Y47512044D01*
X32560552Y47524026D01*
X32541832Y47537910D01*
X32524562Y47553562D01*
X32508910Y47570832D01*
X32495026Y47589552D01*
X32483044Y47609543D01*
X32473079Y47630613D01*
X32465227Y47652557D01*
X32459563Y47675166D01*
X32456144Y47698221D01*
X32455000Y47721500D01*
X32455000Y48296500D01*
X32456144Y48319779D01*
X32459563Y48342834D01*
X32465227Y48365443D01*
X32473079Y48387387D01*
X32483044Y48408457D01*
X32495026Y48428448D01*
X32508910Y48447168D01*
X32524562Y48464438D01*
X32541832Y48480090D01*
X32560552Y48493974D01*
X32580543Y48505956D01*
X32601613Y48515921D01*
X32623557Y48523773D01*
X32646166Y48529437D01*
X32669221Y48532856D01*
X32692500Y48534000D01*
X33167500Y48534000D01*
X33190779Y48532856D01*
X33190779Y48532856D01*
G37*
D15*
X32930000Y48009000D03*
D14*
G36*
X33190779Y46782856D02*
G01*
X33213834Y46779437D01*
X33236443Y46773773D01*
X33258387Y46765921D01*
X33279457Y46755956D01*
X33299448Y46743974D01*
X33318168Y46730090D01*
X33335438Y46714438D01*
X33351090Y46697168D01*
X33364974Y46678448D01*
X33376956Y46658457D01*
X33386921Y46637387D01*
X33394773Y46615443D01*
X33400437Y46592834D01*
X33403856Y46569779D01*
X33405000Y46546500D01*
X33405000Y45971500D01*
X33403856Y45948221D01*
X33400437Y45925166D01*
X33394773Y45902557D01*
X33386921Y45880613D01*
X33376956Y45859543D01*
X33364974Y45839552D01*
X33351090Y45820832D01*
X33335438Y45803562D01*
X33318168Y45787910D01*
X33299448Y45774026D01*
X33279457Y45762044D01*
X33258387Y45752079D01*
X33236443Y45744227D01*
X33213834Y45738563D01*
X33190779Y45735144D01*
X33167500Y45734000D01*
X32692500Y45734000D01*
X32669221Y45735144D01*
X32646166Y45738563D01*
X32623557Y45744227D01*
X32601613Y45752079D01*
X32580543Y45762044D01*
X32560552Y45774026D01*
X32541832Y45787910D01*
X32524562Y45803562D01*
X32508910Y45820832D01*
X32495026Y45839552D01*
X32483044Y45859543D01*
X32473079Y45880613D01*
X32465227Y45902557D01*
X32459563Y45925166D01*
X32456144Y45948221D01*
X32455000Y45971500D01*
X32455000Y46546500D01*
X32456144Y46569779D01*
X32459563Y46592834D01*
X32465227Y46615443D01*
X32473079Y46637387D01*
X32483044Y46658457D01*
X32495026Y46678448D01*
X32508910Y46697168D01*
X32524562Y46714438D01*
X32541832Y46730090D01*
X32560552Y46743974D01*
X32580543Y46755956D01*
X32601613Y46765921D01*
X32623557Y46773773D01*
X32646166Y46779437D01*
X32669221Y46782856D01*
X32692500Y46784000D01*
X33167500Y46784000D01*
X33190779Y46782856D01*
X33190779Y46782856D01*
G37*
D15*
X32930000Y46259000D03*
D14*
G36*
X54604504Y47097796D02*
G01*
X54628773Y47094196D01*
X54652571Y47088235D01*
X54675671Y47079970D01*
X54697849Y47069480D01*
X54718893Y47056867D01*
X54738598Y47042253D01*
X54756777Y47025777D01*
X54773253Y47007598D01*
X54787867Y46987893D01*
X54800480Y46966849D01*
X54810970Y46944671D01*
X54819235Y46921571D01*
X54825196Y46897773D01*
X54828796Y46873504D01*
X54830000Y46849000D01*
X54830000Y45599000D01*
X54828796Y45574496D01*
X54825196Y45550227D01*
X54819235Y45526429D01*
X54810970Y45503329D01*
X54800480Y45481151D01*
X54787867Y45460107D01*
X54773253Y45440402D01*
X54756777Y45422223D01*
X54738598Y45405747D01*
X54718893Y45391133D01*
X54697849Y45378520D01*
X54675671Y45368030D01*
X54652571Y45359765D01*
X54628773Y45353804D01*
X54604504Y45350204D01*
X54580000Y45349000D01*
X53655000Y45349000D01*
X53630496Y45350204D01*
X53606227Y45353804D01*
X53582429Y45359765D01*
X53559329Y45368030D01*
X53537151Y45378520D01*
X53516107Y45391133D01*
X53496402Y45405747D01*
X53478223Y45422223D01*
X53461747Y45440402D01*
X53447133Y45460107D01*
X53434520Y45481151D01*
X53424030Y45503329D01*
X53415765Y45526429D01*
X53409804Y45550227D01*
X53406204Y45574496D01*
X53405000Y45599000D01*
X53405000Y46849000D01*
X53406204Y46873504D01*
X53409804Y46897773D01*
X53415765Y46921571D01*
X53424030Y46944671D01*
X53434520Y46966849D01*
X53447133Y46987893D01*
X53461747Y47007598D01*
X53478223Y47025777D01*
X53496402Y47042253D01*
X53516107Y47056867D01*
X53537151Y47069480D01*
X53559329Y47079970D01*
X53582429Y47088235D01*
X53606227Y47094196D01*
X53630496Y47097796D01*
X53655000Y47099000D01*
X54580000Y47099000D01*
X54604504Y47097796D01*
X54604504Y47097796D01*
G37*
D21*
X54117500Y46224000D03*
D14*
G36*
X51629504Y47097796D02*
G01*
X51653773Y47094196D01*
X51677571Y47088235D01*
X51700671Y47079970D01*
X51722849Y47069480D01*
X51743893Y47056867D01*
X51763598Y47042253D01*
X51781777Y47025777D01*
X51798253Y47007598D01*
X51812867Y46987893D01*
X51825480Y46966849D01*
X51835970Y46944671D01*
X51844235Y46921571D01*
X51850196Y46897773D01*
X51853796Y46873504D01*
X51855000Y46849000D01*
X51855000Y45599000D01*
X51853796Y45574496D01*
X51850196Y45550227D01*
X51844235Y45526429D01*
X51835970Y45503329D01*
X51825480Y45481151D01*
X51812867Y45460107D01*
X51798253Y45440402D01*
X51781777Y45422223D01*
X51763598Y45405747D01*
X51743893Y45391133D01*
X51722849Y45378520D01*
X51700671Y45368030D01*
X51677571Y45359765D01*
X51653773Y45353804D01*
X51629504Y45350204D01*
X51605000Y45349000D01*
X50680000Y45349000D01*
X50655496Y45350204D01*
X50631227Y45353804D01*
X50607429Y45359765D01*
X50584329Y45368030D01*
X50562151Y45378520D01*
X50541107Y45391133D01*
X50521402Y45405747D01*
X50503223Y45422223D01*
X50486747Y45440402D01*
X50472133Y45460107D01*
X50459520Y45481151D01*
X50449030Y45503329D01*
X50440765Y45526429D01*
X50434804Y45550227D01*
X50431204Y45574496D01*
X50430000Y45599000D01*
X50430000Y46849000D01*
X50431204Y46873504D01*
X50434804Y46897773D01*
X50440765Y46921571D01*
X50449030Y46944671D01*
X50459520Y46966849D01*
X50472133Y46987893D01*
X50486747Y47007598D01*
X50503223Y47025777D01*
X50521402Y47042253D01*
X50541107Y47056867D01*
X50562151Y47069480D01*
X50584329Y47079970D01*
X50607429Y47088235D01*
X50631227Y47094196D01*
X50655496Y47097796D01*
X50680000Y47099000D01*
X51605000Y47099000D01*
X51629504Y47097796D01*
X51629504Y47097796D01*
G37*
D21*
X51142500Y46224000D03*
D14*
G36*
X33599504Y54182796D02*
G01*
X33623773Y54179196D01*
X33647571Y54173235D01*
X33670671Y54164970D01*
X33692849Y54154480D01*
X33713893Y54141867D01*
X33733598Y54127253D01*
X33751777Y54110777D01*
X33768253Y54092598D01*
X33782867Y54072893D01*
X33795480Y54051849D01*
X33805970Y54029671D01*
X33814235Y54006571D01*
X33820196Y53982773D01*
X33823796Y53958504D01*
X33825000Y53934000D01*
X33825000Y53009000D01*
X33823796Y52984496D01*
X33820196Y52960227D01*
X33814235Y52936429D01*
X33805970Y52913329D01*
X33795480Y52891151D01*
X33782867Y52870107D01*
X33768253Y52850402D01*
X33751777Y52832223D01*
X33733598Y52815747D01*
X33713893Y52801133D01*
X33692849Y52788520D01*
X33670671Y52778030D01*
X33647571Y52769765D01*
X33623773Y52763804D01*
X33599504Y52760204D01*
X33575000Y52759000D01*
X32325000Y52759000D01*
X32300496Y52760204D01*
X32276227Y52763804D01*
X32252429Y52769765D01*
X32229329Y52778030D01*
X32207151Y52788520D01*
X32186107Y52801133D01*
X32166402Y52815747D01*
X32148223Y52832223D01*
X32131747Y52850402D01*
X32117133Y52870107D01*
X32104520Y52891151D01*
X32094030Y52913329D01*
X32085765Y52936429D01*
X32079804Y52960227D01*
X32076204Y52984496D01*
X32075000Y53009000D01*
X32075000Y53934000D01*
X32076204Y53958504D01*
X32079804Y53982773D01*
X32085765Y54006571D01*
X32094030Y54029671D01*
X32104520Y54051849D01*
X32117133Y54072893D01*
X32131747Y54092598D01*
X32148223Y54110777D01*
X32166402Y54127253D01*
X32186107Y54141867D01*
X32207151Y54154480D01*
X32229329Y54164970D01*
X32252429Y54173235D01*
X32276227Y54179196D01*
X32300496Y54182796D01*
X32325000Y54184000D01*
X33575000Y54184000D01*
X33599504Y54182796D01*
X33599504Y54182796D01*
G37*
D21*
X32950000Y53471500D03*
D14*
G36*
X33599504Y51207796D02*
G01*
X33623773Y51204196D01*
X33647571Y51198235D01*
X33670671Y51189970D01*
X33692849Y51179480D01*
X33713893Y51166867D01*
X33733598Y51152253D01*
X33751777Y51135777D01*
X33768253Y51117598D01*
X33782867Y51097893D01*
X33795480Y51076849D01*
X33805970Y51054671D01*
X33814235Y51031571D01*
X33820196Y51007773D01*
X33823796Y50983504D01*
X33825000Y50959000D01*
X33825000Y50034000D01*
X33823796Y50009496D01*
X33820196Y49985227D01*
X33814235Y49961429D01*
X33805970Y49938329D01*
X33795480Y49916151D01*
X33782867Y49895107D01*
X33768253Y49875402D01*
X33751777Y49857223D01*
X33733598Y49840747D01*
X33713893Y49826133D01*
X33692849Y49813520D01*
X33670671Y49803030D01*
X33647571Y49794765D01*
X33623773Y49788804D01*
X33599504Y49785204D01*
X33575000Y49784000D01*
X32325000Y49784000D01*
X32300496Y49785204D01*
X32276227Y49788804D01*
X32252429Y49794765D01*
X32229329Y49803030D01*
X32207151Y49813520D01*
X32186107Y49826133D01*
X32166402Y49840747D01*
X32148223Y49857223D01*
X32131747Y49875402D01*
X32117133Y49895107D01*
X32104520Y49916151D01*
X32094030Y49938329D01*
X32085765Y49961429D01*
X32079804Y49985227D01*
X32076204Y50009496D01*
X32075000Y50034000D01*
X32075000Y50959000D01*
X32076204Y50983504D01*
X32079804Y51007773D01*
X32085765Y51031571D01*
X32094030Y51054671D01*
X32104520Y51076849D01*
X32117133Y51097893D01*
X32131747Y51117598D01*
X32148223Y51135777D01*
X32166402Y51152253D01*
X32186107Y51166867D01*
X32207151Y51179480D01*
X32229329Y51189970D01*
X32252429Y51198235D01*
X32276227Y51204196D01*
X32300496Y51207796D01*
X32325000Y51209000D01*
X33575000Y51209000D01*
X33599504Y51207796D01*
X33599504Y51207796D01*
G37*
D21*
X32950000Y50496500D03*
D14*
G36*
X21425779Y34713856D02*
G01*
X21448834Y34710437D01*
X21471443Y34704773D01*
X21493387Y34696921D01*
X21514457Y34686956D01*
X21534448Y34674974D01*
X21553168Y34661090D01*
X21570438Y34645438D01*
X21586090Y34628168D01*
X21599974Y34609448D01*
X21611956Y34589457D01*
X21621921Y34568387D01*
X21629773Y34546443D01*
X21635437Y34523834D01*
X21638856Y34500779D01*
X21640000Y34477500D01*
X21640000Y34002500D01*
X21638856Y33979221D01*
X21635437Y33956166D01*
X21629773Y33933557D01*
X21621921Y33911613D01*
X21611956Y33890543D01*
X21599974Y33870552D01*
X21586090Y33851832D01*
X21570438Y33834562D01*
X21553168Y33818910D01*
X21534448Y33805026D01*
X21514457Y33793044D01*
X21493387Y33783079D01*
X21471443Y33775227D01*
X21448834Y33769563D01*
X21425779Y33766144D01*
X21402500Y33765000D01*
X20827500Y33765000D01*
X20804221Y33766144D01*
X20781166Y33769563D01*
X20758557Y33775227D01*
X20736613Y33783079D01*
X20715543Y33793044D01*
X20695552Y33805026D01*
X20676832Y33818910D01*
X20659562Y33834562D01*
X20643910Y33851832D01*
X20630026Y33870552D01*
X20618044Y33890543D01*
X20608079Y33911613D01*
X20600227Y33933557D01*
X20594563Y33956166D01*
X20591144Y33979221D01*
X20590000Y34002500D01*
X20590000Y34477500D01*
X20591144Y34500779D01*
X20594563Y34523834D01*
X20600227Y34546443D01*
X20608079Y34568387D01*
X20618044Y34589457D01*
X20630026Y34609448D01*
X20643910Y34628168D01*
X20659562Y34645438D01*
X20676832Y34661090D01*
X20695552Y34674974D01*
X20715543Y34686956D01*
X20736613Y34696921D01*
X20758557Y34704773D01*
X20781166Y34710437D01*
X20804221Y34713856D01*
X20827500Y34715000D01*
X21402500Y34715000D01*
X21425779Y34713856D01*
X21425779Y34713856D01*
G37*
D15*
X21115000Y34240000D03*
D14*
G36*
X19675779Y34713856D02*
G01*
X19698834Y34710437D01*
X19721443Y34704773D01*
X19743387Y34696921D01*
X19764457Y34686956D01*
X19784448Y34674974D01*
X19803168Y34661090D01*
X19820438Y34645438D01*
X19836090Y34628168D01*
X19849974Y34609448D01*
X19861956Y34589457D01*
X19871921Y34568387D01*
X19879773Y34546443D01*
X19885437Y34523834D01*
X19888856Y34500779D01*
X19890000Y34477500D01*
X19890000Y34002500D01*
X19888856Y33979221D01*
X19885437Y33956166D01*
X19879773Y33933557D01*
X19871921Y33911613D01*
X19861956Y33890543D01*
X19849974Y33870552D01*
X19836090Y33851832D01*
X19820438Y33834562D01*
X19803168Y33818910D01*
X19784448Y33805026D01*
X19764457Y33793044D01*
X19743387Y33783079D01*
X19721443Y33775227D01*
X19698834Y33769563D01*
X19675779Y33766144D01*
X19652500Y33765000D01*
X19077500Y33765000D01*
X19054221Y33766144D01*
X19031166Y33769563D01*
X19008557Y33775227D01*
X18986613Y33783079D01*
X18965543Y33793044D01*
X18945552Y33805026D01*
X18926832Y33818910D01*
X18909562Y33834562D01*
X18893910Y33851832D01*
X18880026Y33870552D01*
X18868044Y33890543D01*
X18858079Y33911613D01*
X18850227Y33933557D01*
X18844563Y33956166D01*
X18841144Y33979221D01*
X18840000Y34002500D01*
X18840000Y34477500D01*
X18841144Y34500779D01*
X18844563Y34523834D01*
X18850227Y34546443D01*
X18858079Y34568387D01*
X18868044Y34589457D01*
X18880026Y34609448D01*
X18893910Y34628168D01*
X18909562Y34645438D01*
X18926832Y34661090D01*
X18945552Y34674974D01*
X18965543Y34686956D01*
X18986613Y34696921D01*
X19008557Y34704773D01*
X19031166Y34710437D01*
X19054221Y34713856D01*
X19077500Y34715000D01*
X19652500Y34715000D01*
X19675779Y34713856D01*
X19675779Y34713856D01*
G37*
D15*
X19365000Y34240000D03*
D14*
G36*
X36744504Y26208796D02*
G01*
X36768773Y26205196D01*
X36792571Y26199235D01*
X36815671Y26190970D01*
X36837849Y26180480D01*
X36858893Y26167867D01*
X36878598Y26153253D01*
X36896777Y26136777D01*
X36913253Y26118598D01*
X36927867Y26098893D01*
X36940480Y26077849D01*
X36950970Y26055671D01*
X36959235Y26032571D01*
X36965196Y26008773D01*
X36968796Y25984504D01*
X36970000Y25960000D01*
X36970000Y25035000D01*
X36968796Y25010496D01*
X36965196Y24986227D01*
X36959235Y24962429D01*
X36950970Y24939329D01*
X36940480Y24917151D01*
X36927867Y24896107D01*
X36913253Y24876402D01*
X36896777Y24858223D01*
X36878598Y24841747D01*
X36858893Y24827133D01*
X36837849Y24814520D01*
X36815671Y24804030D01*
X36792571Y24795765D01*
X36768773Y24789804D01*
X36744504Y24786204D01*
X36720000Y24785000D01*
X35470000Y24785000D01*
X35445496Y24786204D01*
X35421227Y24789804D01*
X35397429Y24795765D01*
X35374329Y24804030D01*
X35352151Y24814520D01*
X35331107Y24827133D01*
X35311402Y24841747D01*
X35293223Y24858223D01*
X35276747Y24876402D01*
X35262133Y24896107D01*
X35249520Y24917151D01*
X35239030Y24939329D01*
X35230765Y24962429D01*
X35224804Y24986227D01*
X35221204Y25010496D01*
X35220000Y25035000D01*
X35220000Y25960000D01*
X35221204Y25984504D01*
X35224804Y26008773D01*
X35230765Y26032571D01*
X35239030Y26055671D01*
X35249520Y26077849D01*
X35262133Y26098893D01*
X35276747Y26118598D01*
X35293223Y26136777D01*
X35311402Y26153253D01*
X35331107Y26167867D01*
X35352151Y26180480D01*
X35374329Y26190970D01*
X35397429Y26199235D01*
X35421227Y26205196D01*
X35445496Y26208796D01*
X35470000Y26210000D01*
X36720000Y26210000D01*
X36744504Y26208796D01*
X36744504Y26208796D01*
G37*
D21*
X36095000Y25497500D03*
D14*
G36*
X36744504Y29183796D02*
G01*
X36768773Y29180196D01*
X36792571Y29174235D01*
X36815671Y29165970D01*
X36837849Y29155480D01*
X36858893Y29142867D01*
X36878598Y29128253D01*
X36896777Y29111777D01*
X36913253Y29093598D01*
X36927867Y29073893D01*
X36940480Y29052849D01*
X36950970Y29030671D01*
X36959235Y29007571D01*
X36965196Y28983773D01*
X36968796Y28959504D01*
X36970000Y28935000D01*
X36970000Y28010000D01*
X36968796Y27985496D01*
X36965196Y27961227D01*
X36959235Y27937429D01*
X36950970Y27914329D01*
X36940480Y27892151D01*
X36927867Y27871107D01*
X36913253Y27851402D01*
X36896777Y27833223D01*
X36878598Y27816747D01*
X36858893Y27802133D01*
X36837849Y27789520D01*
X36815671Y27779030D01*
X36792571Y27770765D01*
X36768773Y27764804D01*
X36744504Y27761204D01*
X36720000Y27760000D01*
X35470000Y27760000D01*
X35445496Y27761204D01*
X35421227Y27764804D01*
X35397429Y27770765D01*
X35374329Y27779030D01*
X35352151Y27789520D01*
X35331107Y27802133D01*
X35311402Y27816747D01*
X35293223Y27833223D01*
X35276747Y27851402D01*
X35262133Y27871107D01*
X35249520Y27892151D01*
X35239030Y27914329D01*
X35230765Y27937429D01*
X35224804Y27961227D01*
X35221204Y27985496D01*
X35220000Y28010000D01*
X35220000Y28935000D01*
X35221204Y28959504D01*
X35224804Y28983773D01*
X35230765Y29007571D01*
X35239030Y29030671D01*
X35249520Y29052849D01*
X35262133Y29073893D01*
X35276747Y29093598D01*
X35293223Y29111777D01*
X35311402Y29128253D01*
X35331107Y29142867D01*
X35352151Y29155480D01*
X35374329Y29165970D01*
X35397429Y29174235D01*
X35421227Y29180196D01*
X35445496Y29183796D01*
X35470000Y29185000D01*
X36720000Y29185000D01*
X36744504Y29183796D01*
X36744504Y29183796D01*
G37*
D21*
X36095000Y28472500D03*
D14*
G36*
X45135779Y20973856D02*
G01*
X45158834Y20970437D01*
X45181443Y20964773D01*
X45203387Y20956921D01*
X45224457Y20946956D01*
X45244448Y20934974D01*
X45263168Y20921090D01*
X45280438Y20905438D01*
X45296090Y20888168D01*
X45309974Y20869448D01*
X45321956Y20849457D01*
X45331921Y20828387D01*
X45339773Y20806443D01*
X45345437Y20783834D01*
X45348856Y20760779D01*
X45350000Y20737500D01*
X45350000Y20262500D01*
X45348856Y20239221D01*
X45345437Y20216166D01*
X45339773Y20193557D01*
X45331921Y20171613D01*
X45321956Y20150543D01*
X45309974Y20130552D01*
X45296090Y20111832D01*
X45280438Y20094562D01*
X45263168Y20078910D01*
X45244448Y20065026D01*
X45224457Y20053044D01*
X45203387Y20043079D01*
X45181443Y20035227D01*
X45158834Y20029563D01*
X45135779Y20026144D01*
X45112500Y20025000D01*
X44537500Y20025000D01*
X44514221Y20026144D01*
X44491166Y20029563D01*
X44468557Y20035227D01*
X44446613Y20043079D01*
X44425543Y20053044D01*
X44405552Y20065026D01*
X44386832Y20078910D01*
X44369562Y20094562D01*
X44353910Y20111832D01*
X44340026Y20130552D01*
X44328044Y20150543D01*
X44318079Y20171613D01*
X44310227Y20193557D01*
X44304563Y20216166D01*
X44301144Y20239221D01*
X44300000Y20262500D01*
X44300000Y20737500D01*
X44301144Y20760779D01*
X44304563Y20783834D01*
X44310227Y20806443D01*
X44318079Y20828387D01*
X44328044Y20849457D01*
X44340026Y20869448D01*
X44353910Y20888168D01*
X44369562Y20905438D01*
X44386832Y20921090D01*
X44405552Y20934974D01*
X44425543Y20946956D01*
X44446613Y20956921D01*
X44468557Y20964773D01*
X44491166Y20970437D01*
X44514221Y20973856D01*
X44537500Y20975000D01*
X45112500Y20975000D01*
X45135779Y20973856D01*
X45135779Y20973856D01*
G37*
D15*
X44825000Y20500000D03*
D14*
G36*
X46885779Y20973856D02*
G01*
X46908834Y20970437D01*
X46931443Y20964773D01*
X46953387Y20956921D01*
X46974457Y20946956D01*
X46994448Y20934974D01*
X47013168Y20921090D01*
X47030438Y20905438D01*
X47046090Y20888168D01*
X47059974Y20869448D01*
X47071956Y20849457D01*
X47081921Y20828387D01*
X47089773Y20806443D01*
X47095437Y20783834D01*
X47098856Y20760779D01*
X47100000Y20737500D01*
X47100000Y20262500D01*
X47098856Y20239221D01*
X47095437Y20216166D01*
X47089773Y20193557D01*
X47081921Y20171613D01*
X47071956Y20150543D01*
X47059974Y20130552D01*
X47046090Y20111832D01*
X47030438Y20094562D01*
X47013168Y20078910D01*
X46994448Y20065026D01*
X46974457Y20053044D01*
X46953387Y20043079D01*
X46931443Y20035227D01*
X46908834Y20029563D01*
X46885779Y20026144D01*
X46862500Y20025000D01*
X46287500Y20025000D01*
X46264221Y20026144D01*
X46241166Y20029563D01*
X46218557Y20035227D01*
X46196613Y20043079D01*
X46175543Y20053044D01*
X46155552Y20065026D01*
X46136832Y20078910D01*
X46119562Y20094562D01*
X46103910Y20111832D01*
X46090026Y20130552D01*
X46078044Y20150543D01*
X46068079Y20171613D01*
X46060227Y20193557D01*
X46054563Y20216166D01*
X46051144Y20239221D01*
X46050000Y20262500D01*
X46050000Y20737500D01*
X46051144Y20760779D01*
X46054563Y20783834D01*
X46060227Y20806443D01*
X46068079Y20828387D01*
X46078044Y20849457D01*
X46090026Y20869448D01*
X46103910Y20888168D01*
X46119562Y20905438D01*
X46136832Y20921090D01*
X46155552Y20934974D01*
X46175543Y20946956D01*
X46196613Y20956921D01*
X46218557Y20964773D01*
X46241166Y20970437D01*
X46264221Y20973856D01*
X46287500Y20975000D01*
X46862500Y20975000D01*
X46885779Y20973856D01*
X46885779Y20973856D01*
G37*
D15*
X46575000Y20500000D03*
D14*
G36*
X34875779Y33917856D02*
G01*
X34898834Y33914437D01*
X34921443Y33908773D01*
X34943387Y33900921D01*
X34964457Y33890956D01*
X34984448Y33878974D01*
X35003168Y33865090D01*
X35020438Y33849438D01*
X35036090Y33832168D01*
X35049974Y33813448D01*
X35061956Y33793457D01*
X35071921Y33772387D01*
X35079773Y33750443D01*
X35085437Y33727834D01*
X35088856Y33704779D01*
X35090000Y33681500D01*
X35090000Y33206500D01*
X35088856Y33183221D01*
X35085437Y33160166D01*
X35079773Y33137557D01*
X35071921Y33115613D01*
X35061956Y33094543D01*
X35049974Y33074552D01*
X35036090Y33055832D01*
X35020438Y33038562D01*
X35003168Y33022910D01*
X34984448Y33009026D01*
X34964457Y32997044D01*
X34943387Y32987079D01*
X34921443Y32979227D01*
X34898834Y32973563D01*
X34875779Y32970144D01*
X34852500Y32969000D01*
X34277500Y32969000D01*
X34254221Y32970144D01*
X34231166Y32973563D01*
X34208557Y32979227D01*
X34186613Y32987079D01*
X34165543Y32997044D01*
X34145552Y33009026D01*
X34126832Y33022910D01*
X34109562Y33038562D01*
X34093910Y33055832D01*
X34080026Y33074552D01*
X34068044Y33094543D01*
X34058079Y33115613D01*
X34050227Y33137557D01*
X34044563Y33160166D01*
X34041144Y33183221D01*
X34040000Y33206500D01*
X34040000Y33681500D01*
X34041144Y33704779D01*
X34044563Y33727834D01*
X34050227Y33750443D01*
X34058079Y33772387D01*
X34068044Y33793457D01*
X34080026Y33813448D01*
X34093910Y33832168D01*
X34109562Y33849438D01*
X34126832Y33865090D01*
X34145552Y33878974D01*
X34165543Y33890956D01*
X34186613Y33900921D01*
X34208557Y33908773D01*
X34231166Y33914437D01*
X34254221Y33917856D01*
X34277500Y33919000D01*
X34852500Y33919000D01*
X34875779Y33917856D01*
X34875779Y33917856D01*
G37*
D15*
X34565000Y33444000D03*
D14*
G36*
X36625779Y33917856D02*
G01*
X36648834Y33914437D01*
X36671443Y33908773D01*
X36693387Y33900921D01*
X36714457Y33890956D01*
X36734448Y33878974D01*
X36753168Y33865090D01*
X36770438Y33849438D01*
X36786090Y33832168D01*
X36799974Y33813448D01*
X36811956Y33793457D01*
X36821921Y33772387D01*
X36829773Y33750443D01*
X36835437Y33727834D01*
X36838856Y33704779D01*
X36840000Y33681500D01*
X36840000Y33206500D01*
X36838856Y33183221D01*
X36835437Y33160166D01*
X36829773Y33137557D01*
X36821921Y33115613D01*
X36811956Y33094543D01*
X36799974Y33074552D01*
X36786090Y33055832D01*
X36770438Y33038562D01*
X36753168Y33022910D01*
X36734448Y33009026D01*
X36714457Y32997044D01*
X36693387Y32987079D01*
X36671443Y32979227D01*
X36648834Y32973563D01*
X36625779Y32970144D01*
X36602500Y32969000D01*
X36027500Y32969000D01*
X36004221Y32970144D01*
X35981166Y32973563D01*
X35958557Y32979227D01*
X35936613Y32987079D01*
X35915543Y32997044D01*
X35895552Y33009026D01*
X35876832Y33022910D01*
X35859562Y33038562D01*
X35843910Y33055832D01*
X35830026Y33074552D01*
X35818044Y33094543D01*
X35808079Y33115613D01*
X35800227Y33137557D01*
X35794563Y33160166D01*
X35791144Y33183221D01*
X35790000Y33206500D01*
X35790000Y33681500D01*
X35791144Y33704779D01*
X35794563Y33727834D01*
X35800227Y33750443D01*
X35808079Y33772387D01*
X35818044Y33793457D01*
X35830026Y33813448D01*
X35843910Y33832168D01*
X35859562Y33849438D01*
X35876832Y33865090D01*
X35895552Y33878974D01*
X35915543Y33890956D01*
X35936613Y33900921D01*
X35958557Y33908773D01*
X35981166Y33914437D01*
X36004221Y33917856D01*
X36027500Y33919000D01*
X36602500Y33919000D01*
X36625779Y33917856D01*
X36625779Y33917856D01*
G37*
D15*
X36315000Y33444000D03*
D14*
G36*
X49864779Y23648856D02*
G01*
X49887834Y23645437D01*
X49910443Y23639773D01*
X49932387Y23631921D01*
X49953457Y23621956D01*
X49973448Y23609974D01*
X49992168Y23596090D01*
X50009438Y23580438D01*
X50025090Y23563168D01*
X50038974Y23544448D01*
X50050956Y23524457D01*
X50060921Y23503387D01*
X50068773Y23481443D01*
X50074437Y23458834D01*
X50077856Y23435779D01*
X50079000Y23412500D01*
X50079000Y22837500D01*
X50077856Y22814221D01*
X50074437Y22791166D01*
X50068773Y22768557D01*
X50060921Y22746613D01*
X50050956Y22725543D01*
X50038974Y22705552D01*
X50025090Y22686832D01*
X50009438Y22669562D01*
X49992168Y22653910D01*
X49973448Y22640026D01*
X49953457Y22628044D01*
X49932387Y22618079D01*
X49910443Y22610227D01*
X49887834Y22604563D01*
X49864779Y22601144D01*
X49841500Y22600000D01*
X49366500Y22600000D01*
X49343221Y22601144D01*
X49320166Y22604563D01*
X49297557Y22610227D01*
X49275613Y22618079D01*
X49254543Y22628044D01*
X49234552Y22640026D01*
X49215832Y22653910D01*
X49198562Y22669562D01*
X49182910Y22686832D01*
X49169026Y22705552D01*
X49157044Y22725543D01*
X49147079Y22746613D01*
X49139227Y22768557D01*
X49133563Y22791166D01*
X49130144Y22814221D01*
X49129000Y22837500D01*
X49129000Y23412500D01*
X49130144Y23435779D01*
X49133563Y23458834D01*
X49139227Y23481443D01*
X49147079Y23503387D01*
X49157044Y23524457D01*
X49169026Y23544448D01*
X49182910Y23563168D01*
X49198562Y23580438D01*
X49215832Y23596090D01*
X49234552Y23609974D01*
X49254543Y23621956D01*
X49275613Y23631921D01*
X49297557Y23639773D01*
X49320166Y23645437D01*
X49343221Y23648856D01*
X49366500Y23650000D01*
X49841500Y23650000D01*
X49864779Y23648856D01*
X49864779Y23648856D01*
G37*
D15*
X49604000Y23125000D03*
D14*
G36*
X49864779Y25398856D02*
G01*
X49887834Y25395437D01*
X49910443Y25389773D01*
X49932387Y25381921D01*
X49953457Y25371956D01*
X49973448Y25359974D01*
X49992168Y25346090D01*
X50009438Y25330438D01*
X50025090Y25313168D01*
X50038974Y25294448D01*
X50050956Y25274457D01*
X50060921Y25253387D01*
X50068773Y25231443D01*
X50074437Y25208834D01*
X50077856Y25185779D01*
X50079000Y25162500D01*
X50079000Y24587500D01*
X50077856Y24564221D01*
X50074437Y24541166D01*
X50068773Y24518557D01*
X50060921Y24496613D01*
X50050956Y24475543D01*
X50038974Y24455552D01*
X50025090Y24436832D01*
X50009438Y24419562D01*
X49992168Y24403910D01*
X49973448Y24390026D01*
X49953457Y24378044D01*
X49932387Y24368079D01*
X49910443Y24360227D01*
X49887834Y24354563D01*
X49864779Y24351144D01*
X49841500Y24350000D01*
X49366500Y24350000D01*
X49343221Y24351144D01*
X49320166Y24354563D01*
X49297557Y24360227D01*
X49275613Y24368079D01*
X49254543Y24378044D01*
X49234552Y24390026D01*
X49215832Y24403910D01*
X49198562Y24419562D01*
X49182910Y24436832D01*
X49169026Y24455552D01*
X49157044Y24475543D01*
X49147079Y24496613D01*
X49139227Y24518557D01*
X49133563Y24541166D01*
X49130144Y24564221D01*
X49129000Y24587500D01*
X49129000Y25162500D01*
X49130144Y25185779D01*
X49133563Y25208834D01*
X49139227Y25231443D01*
X49147079Y25253387D01*
X49157044Y25274457D01*
X49169026Y25294448D01*
X49182910Y25313168D01*
X49198562Y25330438D01*
X49215832Y25346090D01*
X49234552Y25359974D01*
X49254543Y25371956D01*
X49275613Y25381921D01*
X49297557Y25389773D01*
X49320166Y25395437D01*
X49343221Y25398856D01*
X49366500Y25400000D01*
X49841500Y25400000D01*
X49864779Y25398856D01*
X49864779Y25398856D01*
G37*
D15*
X49604000Y24875000D03*
D14*
G36*
X45078779Y25937856D02*
G01*
X45101834Y25934437D01*
X45124443Y25928773D01*
X45146387Y25920921D01*
X45167457Y25910956D01*
X45187448Y25898974D01*
X45206168Y25885090D01*
X45223438Y25869438D01*
X45239090Y25852168D01*
X45252974Y25833448D01*
X45264956Y25813457D01*
X45274921Y25792387D01*
X45282773Y25770443D01*
X45288437Y25747834D01*
X45291856Y25724779D01*
X45293000Y25701500D01*
X45293000Y25126500D01*
X45291856Y25103221D01*
X45288437Y25080166D01*
X45282773Y25057557D01*
X45274921Y25035613D01*
X45264956Y25014543D01*
X45252974Y24994552D01*
X45239090Y24975832D01*
X45223438Y24958562D01*
X45206168Y24942910D01*
X45187448Y24929026D01*
X45167457Y24917044D01*
X45146387Y24907079D01*
X45124443Y24899227D01*
X45101834Y24893563D01*
X45078779Y24890144D01*
X45055500Y24889000D01*
X44580500Y24889000D01*
X44557221Y24890144D01*
X44534166Y24893563D01*
X44511557Y24899227D01*
X44489613Y24907079D01*
X44468543Y24917044D01*
X44448552Y24929026D01*
X44429832Y24942910D01*
X44412562Y24958562D01*
X44396910Y24975832D01*
X44383026Y24994552D01*
X44371044Y25014543D01*
X44361079Y25035613D01*
X44353227Y25057557D01*
X44347563Y25080166D01*
X44344144Y25103221D01*
X44343000Y25126500D01*
X44343000Y25701500D01*
X44344144Y25724779D01*
X44347563Y25747834D01*
X44353227Y25770443D01*
X44361079Y25792387D01*
X44371044Y25813457D01*
X44383026Y25833448D01*
X44396910Y25852168D01*
X44412562Y25869438D01*
X44429832Y25885090D01*
X44448552Y25898974D01*
X44468543Y25910956D01*
X44489613Y25920921D01*
X44511557Y25928773D01*
X44534166Y25934437D01*
X44557221Y25937856D01*
X44580500Y25939000D01*
X45055500Y25939000D01*
X45078779Y25937856D01*
X45078779Y25937856D01*
G37*
D15*
X44818000Y25414000D03*
D14*
G36*
X45078779Y24187856D02*
G01*
X45101834Y24184437D01*
X45124443Y24178773D01*
X45146387Y24170921D01*
X45167457Y24160956D01*
X45187448Y24148974D01*
X45206168Y24135090D01*
X45223438Y24119438D01*
X45239090Y24102168D01*
X45252974Y24083448D01*
X45264956Y24063457D01*
X45274921Y24042387D01*
X45282773Y24020443D01*
X45288437Y23997834D01*
X45291856Y23974779D01*
X45293000Y23951500D01*
X45293000Y23376500D01*
X45291856Y23353221D01*
X45288437Y23330166D01*
X45282773Y23307557D01*
X45274921Y23285613D01*
X45264956Y23264543D01*
X45252974Y23244552D01*
X45239090Y23225832D01*
X45223438Y23208562D01*
X45206168Y23192910D01*
X45187448Y23179026D01*
X45167457Y23167044D01*
X45146387Y23157079D01*
X45124443Y23149227D01*
X45101834Y23143563D01*
X45078779Y23140144D01*
X45055500Y23139000D01*
X44580500Y23139000D01*
X44557221Y23140144D01*
X44534166Y23143563D01*
X44511557Y23149227D01*
X44489613Y23157079D01*
X44468543Y23167044D01*
X44448552Y23179026D01*
X44429832Y23192910D01*
X44412562Y23208562D01*
X44396910Y23225832D01*
X44383026Y23244552D01*
X44371044Y23264543D01*
X44361079Y23285613D01*
X44353227Y23307557D01*
X44347563Y23330166D01*
X44344144Y23353221D01*
X44343000Y23376500D01*
X44343000Y23951500D01*
X44344144Y23974779D01*
X44347563Y23997834D01*
X44353227Y24020443D01*
X44361079Y24042387D01*
X44371044Y24063457D01*
X44383026Y24083448D01*
X44396910Y24102168D01*
X44412562Y24119438D01*
X44429832Y24135090D01*
X44448552Y24148974D01*
X44468543Y24160956D01*
X44489613Y24170921D01*
X44511557Y24178773D01*
X44534166Y24184437D01*
X44557221Y24187856D01*
X44580500Y24189000D01*
X45055500Y24189000D01*
X45078779Y24187856D01*
X45078779Y24187856D01*
G37*
D15*
X44818000Y23664000D03*
D14*
G36*
X53585779Y36573856D02*
G01*
X53608834Y36570437D01*
X53631443Y36564773D01*
X53653387Y36556921D01*
X53674457Y36546956D01*
X53694448Y36534974D01*
X53713168Y36521090D01*
X53730438Y36505438D01*
X53746090Y36488168D01*
X53759974Y36469448D01*
X53771956Y36449457D01*
X53781921Y36428387D01*
X53789773Y36406443D01*
X53795437Y36383834D01*
X53798856Y36360779D01*
X53800000Y36337500D01*
X53800000Y35862500D01*
X53798856Y35839221D01*
X53795437Y35816166D01*
X53789773Y35793557D01*
X53781921Y35771613D01*
X53771956Y35750543D01*
X53759974Y35730552D01*
X53746090Y35711832D01*
X53730438Y35694562D01*
X53713168Y35678910D01*
X53694448Y35665026D01*
X53674457Y35653044D01*
X53653387Y35643079D01*
X53631443Y35635227D01*
X53608834Y35629563D01*
X53585779Y35626144D01*
X53562500Y35625000D01*
X52987500Y35625000D01*
X52964221Y35626144D01*
X52941166Y35629563D01*
X52918557Y35635227D01*
X52896613Y35643079D01*
X52875543Y35653044D01*
X52855552Y35665026D01*
X52836832Y35678910D01*
X52819562Y35694562D01*
X52803910Y35711832D01*
X52790026Y35730552D01*
X52778044Y35750543D01*
X52768079Y35771613D01*
X52760227Y35793557D01*
X52754563Y35816166D01*
X52751144Y35839221D01*
X52750000Y35862500D01*
X52750000Y36337500D01*
X52751144Y36360779D01*
X52754563Y36383834D01*
X52760227Y36406443D01*
X52768079Y36428387D01*
X52778044Y36449457D01*
X52790026Y36469448D01*
X52803910Y36488168D01*
X52819562Y36505438D01*
X52836832Y36521090D01*
X52855552Y36534974D01*
X52875543Y36546956D01*
X52896613Y36556921D01*
X52918557Y36564773D01*
X52941166Y36570437D01*
X52964221Y36573856D01*
X52987500Y36575000D01*
X53562500Y36575000D01*
X53585779Y36573856D01*
X53585779Y36573856D01*
G37*
D15*
X53275000Y36100000D03*
D14*
G36*
X51835779Y36573856D02*
G01*
X51858834Y36570437D01*
X51881443Y36564773D01*
X51903387Y36556921D01*
X51924457Y36546956D01*
X51944448Y36534974D01*
X51963168Y36521090D01*
X51980438Y36505438D01*
X51996090Y36488168D01*
X52009974Y36469448D01*
X52021956Y36449457D01*
X52031921Y36428387D01*
X52039773Y36406443D01*
X52045437Y36383834D01*
X52048856Y36360779D01*
X52050000Y36337500D01*
X52050000Y35862500D01*
X52048856Y35839221D01*
X52045437Y35816166D01*
X52039773Y35793557D01*
X52031921Y35771613D01*
X52021956Y35750543D01*
X52009974Y35730552D01*
X51996090Y35711832D01*
X51980438Y35694562D01*
X51963168Y35678910D01*
X51944448Y35665026D01*
X51924457Y35653044D01*
X51903387Y35643079D01*
X51881443Y35635227D01*
X51858834Y35629563D01*
X51835779Y35626144D01*
X51812500Y35625000D01*
X51237500Y35625000D01*
X51214221Y35626144D01*
X51191166Y35629563D01*
X51168557Y35635227D01*
X51146613Y35643079D01*
X51125543Y35653044D01*
X51105552Y35665026D01*
X51086832Y35678910D01*
X51069562Y35694562D01*
X51053910Y35711832D01*
X51040026Y35730552D01*
X51028044Y35750543D01*
X51018079Y35771613D01*
X51010227Y35793557D01*
X51004563Y35816166D01*
X51001144Y35839221D01*
X51000000Y35862500D01*
X51000000Y36337500D01*
X51001144Y36360779D01*
X51004563Y36383834D01*
X51010227Y36406443D01*
X51018079Y36428387D01*
X51028044Y36449457D01*
X51040026Y36469448D01*
X51053910Y36488168D01*
X51069562Y36505438D01*
X51086832Y36521090D01*
X51105552Y36534974D01*
X51125543Y36546956D01*
X51146613Y36556921D01*
X51168557Y36564773D01*
X51191166Y36570437D01*
X51214221Y36573856D01*
X51237500Y36575000D01*
X51812500Y36575000D01*
X51835779Y36573856D01*
X51835779Y36573856D01*
G37*
D15*
X51525000Y36100000D03*
D14*
G36*
X53585779Y38086856D02*
G01*
X53608834Y38083437D01*
X53631443Y38077773D01*
X53653387Y38069921D01*
X53674457Y38059956D01*
X53694448Y38047974D01*
X53713168Y38034090D01*
X53730438Y38018438D01*
X53746090Y38001168D01*
X53759974Y37982448D01*
X53771956Y37962457D01*
X53781921Y37941387D01*
X53789773Y37919443D01*
X53795437Y37896834D01*
X53798856Y37873779D01*
X53800000Y37850500D01*
X53800000Y37375500D01*
X53798856Y37352221D01*
X53795437Y37329166D01*
X53789773Y37306557D01*
X53781921Y37284613D01*
X53771956Y37263543D01*
X53759974Y37243552D01*
X53746090Y37224832D01*
X53730438Y37207562D01*
X53713168Y37191910D01*
X53694448Y37178026D01*
X53674457Y37166044D01*
X53653387Y37156079D01*
X53631443Y37148227D01*
X53608834Y37142563D01*
X53585779Y37139144D01*
X53562500Y37138000D01*
X52987500Y37138000D01*
X52964221Y37139144D01*
X52941166Y37142563D01*
X52918557Y37148227D01*
X52896613Y37156079D01*
X52875543Y37166044D01*
X52855552Y37178026D01*
X52836832Y37191910D01*
X52819562Y37207562D01*
X52803910Y37224832D01*
X52790026Y37243552D01*
X52778044Y37263543D01*
X52768079Y37284613D01*
X52760227Y37306557D01*
X52754563Y37329166D01*
X52751144Y37352221D01*
X52750000Y37375500D01*
X52750000Y37850500D01*
X52751144Y37873779D01*
X52754563Y37896834D01*
X52760227Y37919443D01*
X52768079Y37941387D01*
X52778044Y37962457D01*
X52790026Y37982448D01*
X52803910Y38001168D01*
X52819562Y38018438D01*
X52836832Y38034090D01*
X52855552Y38047974D01*
X52875543Y38059956D01*
X52896613Y38069921D01*
X52918557Y38077773D01*
X52941166Y38083437D01*
X52964221Y38086856D01*
X52987500Y38088000D01*
X53562500Y38088000D01*
X53585779Y38086856D01*
X53585779Y38086856D01*
G37*
D15*
X53275000Y37613000D03*
D14*
G36*
X51835779Y38086856D02*
G01*
X51858834Y38083437D01*
X51881443Y38077773D01*
X51903387Y38069921D01*
X51924457Y38059956D01*
X51944448Y38047974D01*
X51963168Y38034090D01*
X51980438Y38018438D01*
X51996090Y38001168D01*
X52009974Y37982448D01*
X52021956Y37962457D01*
X52031921Y37941387D01*
X52039773Y37919443D01*
X52045437Y37896834D01*
X52048856Y37873779D01*
X52050000Y37850500D01*
X52050000Y37375500D01*
X52048856Y37352221D01*
X52045437Y37329166D01*
X52039773Y37306557D01*
X52031921Y37284613D01*
X52021956Y37263543D01*
X52009974Y37243552D01*
X51996090Y37224832D01*
X51980438Y37207562D01*
X51963168Y37191910D01*
X51944448Y37178026D01*
X51924457Y37166044D01*
X51903387Y37156079D01*
X51881443Y37148227D01*
X51858834Y37142563D01*
X51835779Y37139144D01*
X51812500Y37138000D01*
X51237500Y37138000D01*
X51214221Y37139144D01*
X51191166Y37142563D01*
X51168557Y37148227D01*
X51146613Y37156079D01*
X51125543Y37166044D01*
X51105552Y37178026D01*
X51086832Y37191910D01*
X51069562Y37207562D01*
X51053910Y37224832D01*
X51040026Y37243552D01*
X51028044Y37263543D01*
X51018079Y37284613D01*
X51010227Y37306557D01*
X51004563Y37329166D01*
X51001144Y37352221D01*
X51000000Y37375500D01*
X51000000Y37850500D01*
X51001144Y37873779D01*
X51004563Y37896834D01*
X51010227Y37919443D01*
X51018079Y37941387D01*
X51028044Y37962457D01*
X51040026Y37982448D01*
X51053910Y38001168D01*
X51069562Y38018438D01*
X51086832Y38034090D01*
X51105552Y38047974D01*
X51125543Y38059956D01*
X51146613Y38069921D01*
X51168557Y38077773D01*
X51191166Y38083437D01*
X51214221Y38086856D01*
X51237500Y38088000D01*
X51812500Y38088000D01*
X51835779Y38086856D01*
X51835779Y38086856D01*
G37*
D15*
X51525000Y37613000D03*
D14*
G36*
X54274504Y40431796D02*
G01*
X54298773Y40428196D01*
X54322571Y40422235D01*
X54345671Y40413970D01*
X54367849Y40403480D01*
X54388893Y40390867D01*
X54408598Y40376253D01*
X54426777Y40359777D01*
X54443253Y40341598D01*
X54457867Y40321893D01*
X54470480Y40300849D01*
X54480970Y40278671D01*
X54489235Y40255571D01*
X54495196Y40231773D01*
X54498796Y40207504D01*
X54500000Y40183000D01*
X54500000Y38933000D01*
X54498796Y38908496D01*
X54495196Y38884227D01*
X54489235Y38860429D01*
X54480970Y38837329D01*
X54470480Y38815151D01*
X54457867Y38794107D01*
X54443253Y38774402D01*
X54426777Y38756223D01*
X54408598Y38739747D01*
X54388893Y38725133D01*
X54367849Y38712520D01*
X54345671Y38702030D01*
X54322571Y38693765D01*
X54298773Y38687804D01*
X54274504Y38684204D01*
X54250000Y38683000D01*
X53325000Y38683000D01*
X53300496Y38684204D01*
X53276227Y38687804D01*
X53252429Y38693765D01*
X53229329Y38702030D01*
X53207151Y38712520D01*
X53186107Y38725133D01*
X53166402Y38739747D01*
X53148223Y38756223D01*
X53131747Y38774402D01*
X53117133Y38794107D01*
X53104520Y38815151D01*
X53094030Y38837329D01*
X53085765Y38860429D01*
X53079804Y38884227D01*
X53076204Y38908496D01*
X53075000Y38933000D01*
X53075000Y40183000D01*
X53076204Y40207504D01*
X53079804Y40231773D01*
X53085765Y40255571D01*
X53094030Y40278671D01*
X53104520Y40300849D01*
X53117133Y40321893D01*
X53131747Y40341598D01*
X53148223Y40359777D01*
X53166402Y40376253D01*
X53186107Y40390867D01*
X53207151Y40403480D01*
X53229329Y40413970D01*
X53252429Y40422235D01*
X53276227Y40428196D01*
X53300496Y40431796D01*
X53325000Y40433000D01*
X54250000Y40433000D01*
X54274504Y40431796D01*
X54274504Y40431796D01*
G37*
D21*
X53787500Y39558000D03*
D14*
G36*
X51299504Y40431796D02*
G01*
X51323773Y40428196D01*
X51347571Y40422235D01*
X51370671Y40413970D01*
X51392849Y40403480D01*
X51413893Y40390867D01*
X51433598Y40376253D01*
X51451777Y40359777D01*
X51468253Y40341598D01*
X51482867Y40321893D01*
X51495480Y40300849D01*
X51505970Y40278671D01*
X51514235Y40255571D01*
X51520196Y40231773D01*
X51523796Y40207504D01*
X51525000Y40183000D01*
X51525000Y38933000D01*
X51523796Y38908496D01*
X51520196Y38884227D01*
X51514235Y38860429D01*
X51505970Y38837329D01*
X51495480Y38815151D01*
X51482867Y38794107D01*
X51468253Y38774402D01*
X51451777Y38756223D01*
X51433598Y38739747D01*
X51413893Y38725133D01*
X51392849Y38712520D01*
X51370671Y38702030D01*
X51347571Y38693765D01*
X51323773Y38687804D01*
X51299504Y38684204D01*
X51275000Y38683000D01*
X50350000Y38683000D01*
X50325496Y38684204D01*
X50301227Y38687804D01*
X50277429Y38693765D01*
X50254329Y38702030D01*
X50232151Y38712520D01*
X50211107Y38725133D01*
X50191402Y38739747D01*
X50173223Y38756223D01*
X50156747Y38774402D01*
X50142133Y38794107D01*
X50129520Y38815151D01*
X50119030Y38837329D01*
X50110765Y38860429D01*
X50104804Y38884227D01*
X50101204Y38908496D01*
X50100000Y38933000D01*
X50100000Y40183000D01*
X50101204Y40207504D01*
X50104804Y40231773D01*
X50110765Y40255571D01*
X50119030Y40278671D01*
X50129520Y40300849D01*
X50142133Y40321893D01*
X50156747Y40341598D01*
X50173223Y40359777D01*
X50191402Y40376253D01*
X50211107Y40390867D01*
X50232151Y40403480D01*
X50254329Y40413970D01*
X50277429Y40422235D01*
X50301227Y40428196D01*
X50325496Y40431796D01*
X50350000Y40433000D01*
X51275000Y40433000D01*
X51299504Y40431796D01*
X51299504Y40431796D01*
G37*
D21*
X50812500Y39558000D03*
D14*
G36*
X29999504Y43373796D02*
G01*
X30023773Y43370196D01*
X30047571Y43364235D01*
X30070671Y43355970D01*
X30092849Y43345480D01*
X30113893Y43332867D01*
X30133598Y43318253D01*
X30151777Y43301777D01*
X30168253Y43283598D01*
X30182867Y43263893D01*
X30195480Y43242849D01*
X30205970Y43220671D01*
X30214235Y43197571D01*
X30220196Y43173773D01*
X30223796Y43149504D01*
X30225000Y43125000D01*
X30225000Y41875000D01*
X30223796Y41850496D01*
X30220196Y41826227D01*
X30214235Y41802429D01*
X30205970Y41779329D01*
X30195480Y41757151D01*
X30182867Y41736107D01*
X30168253Y41716402D01*
X30151777Y41698223D01*
X30133598Y41681747D01*
X30113893Y41667133D01*
X30092849Y41654520D01*
X30070671Y41644030D01*
X30047571Y41635765D01*
X30023773Y41629804D01*
X29999504Y41626204D01*
X29975000Y41625000D01*
X29050000Y41625000D01*
X29025496Y41626204D01*
X29001227Y41629804D01*
X28977429Y41635765D01*
X28954329Y41644030D01*
X28932151Y41654520D01*
X28911107Y41667133D01*
X28891402Y41681747D01*
X28873223Y41698223D01*
X28856747Y41716402D01*
X28842133Y41736107D01*
X28829520Y41757151D01*
X28819030Y41779329D01*
X28810765Y41802429D01*
X28804804Y41826227D01*
X28801204Y41850496D01*
X28800000Y41875000D01*
X28800000Y43125000D01*
X28801204Y43149504D01*
X28804804Y43173773D01*
X28810765Y43197571D01*
X28819030Y43220671D01*
X28829520Y43242849D01*
X28842133Y43263893D01*
X28856747Y43283598D01*
X28873223Y43301777D01*
X28891402Y43318253D01*
X28911107Y43332867D01*
X28932151Y43345480D01*
X28954329Y43355970D01*
X28977429Y43364235D01*
X29001227Y43370196D01*
X29025496Y43373796D01*
X29050000Y43375000D01*
X29975000Y43375000D01*
X29999504Y43373796D01*
X29999504Y43373796D01*
G37*
D21*
X29512500Y42500000D03*
D14*
G36*
X32974504Y43373796D02*
G01*
X32998773Y43370196D01*
X33022571Y43364235D01*
X33045671Y43355970D01*
X33067849Y43345480D01*
X33088893Y43332867D01*
X33108598Y43318253D01*
X33126777Y43301777D01*
X33143253Y43283598D01*
X33157867Y43263893D01*
X33170480Y43242849D01*
X33180970Y43220671D01*
X33189235Y43197571D01*
X33195196Y43173773D01*
X33198796Y43149504D01*
X33200000Y43125000D01*
X33200000Y41875000D01*
X33198796Y41850496D01*
X33195196Y41826227D01*
X33189235Y41802429D01*
X33180970Y41779329D01*
X33170480Y41757151D01*
X33157867Y41736107D01*
X33143253Y41716402D01*
X33126777Y41698223D01*
X33108598Y41681747D01*
X33088893Y41667133D01*
X33067849Y41654520D01*
X33045671Y41644030D01*
X33022571Y41635765D01*
X32998773Y41629804D01*
X32974504Y41626204D01*
X32950000Y41625000D01*
X32025000Y41625000D01*
X32000496Y41626204D01*
X31976227Y41629804D01*
X31952429Y41635765D01*
X31929329Y41644030D01*
X31907151Y41654520D01*
X31886107Y41667133D01*
X31866402Y41681747D01*
X31848223Y41698223D01*
X31831747Y41716402D01*
X31817133Y41736107D01*
X31804520Y41757151D01*
X31794030Y41779329D01*
X31785765Y41802429D01*
X31779804Y41826227D01*
X31776204Y41850496D01*
X31775000Y41875000D01*
X31775000Y43125000D01*
X31776204Y43149504D01*
X31779804Y43173773D01*
X31785765Y43197571D01*
X31794030Y43220671D01*
X31804520Y43242849D01*
X31817133Y43263893D01*
X31831747Y43283598D01*
X31848223Y43301777D01*
X31866402Y43318253D01*
X31886107Y43332867D01*
X31907151Y43345480D01*
X31929329Y43355970D01*
X31952429Y43364235D01*
X31976227Y43370196D01*
X32000496Y43373796D01*
X32025000Y43375000D01*
X32950000Y43375000D01*
X32974504Y43373796D01*
X32974504Y43373796D01*
G37*
D21*
X32487500Y42500000D03*
D14*
G36*
X54476779Y30410856D02*
G01*
X54499834Y30407437D01*
X54522443Y30401773D01*
X54544387Y30393921D01*
X54565457Y30383956D01*
X54585448Y30371974D01*
X54604168Y30358090D01*
X54621438Y30342438D01*
X54637090Y30325168D01*
X54650974Y30306448D01*
X54662956Y30286457D01*
X54672921Y30265387D01*
X54680773Y30243443D01*
X54686437Y30220834D01*
X54689856Y30197779D01*
X54691000Y30174500D01*
X54691000Y29599500D01*
X54689856Y29576221D01*
X54686437Y29553166D01*
X54680773Y29530557D01*
X54672921Y29508613D01*
X54662956Y29487543D01*
X54650974Y29467552D01*
X54637090Y29448832D01*
X54621438Y29431562D01*
X54604168Y29415910D01*
X54585448Y29402026D01*
X54565457Y29390044D01*
X54544387Y29380079D01*
X54522443Y29372227D01*
X54499834Y29366563D01*
X54476779Y29363144D01*
X54453500Y29362000D01*
X53978500Y29362000D01*
X53955221Y29363144D01*
X53932166Y29366563D01*
X53909557Y29372227D01*
X53887613Y29380079D01*
X53866543Y29390044D01*
X53846552Y29402026D01*
X53827832Y29415910D01*
X53810562Y29431562D01*
X53794910Y29448832D01*
X53781026Y29467552D01*
X53769044Y29487543D01*
X53759079Y29508613D01*
X53751227Y29530557D01*
X53745563Y29553166D01*
X53742144Y29576221D01*
X53741000Y29599500D01*
X53741000Y30174500D01*
X53742144Y30197779D01*
X53745563Y30220834D01*
X53751227Y30243443D01*
X53759079Y30265387D01*
X53769044Y30286457D01*
X53781026Y30306448D01*
X53794910Y30325168D01*
X53810562Y30342438D01*
X53827832Y30358090D01*
X53846552Y30371974D01*
X53866543Y30383956D01*
X53887613Y30393921D01*
X53909557Y30401773D01*
X53932166Y30407437D01*
X53955221Y30410856D01*
X53978500Y30412000D01*
X54453500Y30412000D01*
X54476779Y30410856D01*
X54476779Y30410856D01*
G37*
D15*
X54216000Y29887000D03*
D14*
G36*
X54476779Y32160856D02*
G01*
X54499834Y32157437D01*
X54522443Y32151773D01*
X54544387Y32143921D01*
X54565457Y32133956D01*
X54585448Y32121974D01*
X54604168Y32108090D01*
X54621438Y32092438D01*
X54637090Y32075168D01*
X54650974Y32056448D01*
X54662956Y32036457D01*
X54672921Y32015387D01*
X54680773Y31993443D01*
X54686437Y31970834D01*
X54689856Y31947779D01*
X54691000Y31924500D01*
X54691000Y31349500D01*
X54689856Y31326221D01*
X54686437Y31303166D01*
X54680773Y31280557D01*
X54672921Y31258613D01*
X54662956Y31237543D01*
X54650974Y31217552D01*
X54637090Y31198832D01*
X54621438Y31181562D01*
X54604168Y31165910D01*
X54585448Y31152026D01*
X54565457Y31140044D01*
X54544387Y31130079D01*
X54522443Y31122227D01*
X54499834Y31116563D01*
X54476779Y31113144D01*
X54453500Y31112000D01*
X53978500Y31112000D01*
X53955221Y31113144D01*
X53932166Y31116563D01*
X53909557Y31122227D01*
X53887613Y31130079D01*
X53866543Y31140044D01*
X53846552Y31152026D01*
X53827832Y31165910D01*
X53810562Y31181562D01*
X53794910Y31198832D01*
X53781026Y31217552D01*
X53769044Y31237543D01*
X53759079Y31258613D01*
X53751227Y31280557D01*
X53745563Y31303166D01*
X53742144Y31326221D01*
X53741000Y31349500D01*
X53741000Y31924500D01*
X53742144Y31947779D01*
X53745563Y31970834D01*
X53751227Y31993443D01*
X53759079Y32015387D01*
X53769044Y32036457D01*
X53781026Y32056448D01*
X53794910Y32075168D01*
X53810562Y32092438D01*
X53827832Y32108090D01*
X53846552Y32121974D01*
X53866543Y32133956D01*
X53887613Y32143921D01*
X53909557Y32151773D01*
X53932166Y32157437D01*
X53955221Y32160856D01*
X53978500Y32162000D01*
X54453500Y32162000D01*
X54476779Y32160856D01*
X54476779Y32160856D01*
G37*
D15*
X54216000Y31637000D03*
D14*
G36*
X14015779Y39577856D02*
G01*
X14038834Y39574437D01*
X14061443Y39568773D01*
X14083387Y39560921D01*
X14104457Y39550956D01*
X14124448Y39538974D01*
X14143168Y39525090D01*
X14160438Y39509438D01*
X14176090Y39492168D01*
X14189974Y39473448D01*
X14201956Y39453457D01*
X14211921Y39432387D01*
X14219773Y39410443D01*
X14225437Y39387834D01*
X14228856Y39364779D01*
X14230000Y39341500D01*
X14230000Y38866500D01*
X14228856Y38843221D01*
X14225437Y38820166D01*
X14219773Y38797557D01*
X14211921Y38775613D01*
X14201956Y38754543D01*
X14189974Y38734552D01*
X14176090Y38715832D01*
X14160438Y38698562D01*
X14143168Y38682910D01*
X14124448Y38669026D01*
X14104457Y38657044D01*
X14083387Y38647079D01*
X14061443Y38639227D01*
X14038834Y38633563D01*
X14015779Y38630144D01*
X13992500Y38629000D01*
X13417500Y38629000D01*
X13394221Y38630144D01*
X13371166Y38633563D01*
X13348557Y38639227D01*
X13326613Y38647079D01*
X13305543Y38657044D01*
X13285552Y38669026D01*
X13266832Y38682910D01*
X13249562Y38698562D01*
X13233910Y38715832D01*
X13220026Y38734552D01*
X13208044Y38754543D01*
X13198079Y38775613D01*
X13190227Y38797557D01*
X13184563Y38820166D01*
X13181144Y38843221D01*
X13180000Y38866500D01*
X13180000Y39341500D01*
X13181144Y39364779D01*
X13184563Y39387834D01*
X13190227Y39410443D01*
X13198079Y39432387D01*
X13208044Y39453457D01*
X13220026Y39473448D01*
X13233910Y39492168D01*
X13249562Y39509438D01*
X13266832Y39525090D01*
X13285552Y39538974D01*
X13305543Y39550956D01*
X13326613Y39560921D01*
X13348557Y39568773D01*
X13371166Y39574437D01*
X13394221Y39577856D01*
X13417500Y39579000D01*
X13992500Y39579000D01*
X14015779Y39577856D01*
X14015779Y39577856D01*
G37*
D15*
X13705000Y39104000D03*
D14*
G36*
X15765779Y39577856D02*
G01*
X15788834Y39574437D01*
X15811443Y39568773D01*
X15833387Y39560921D01*
X15854457Y39550956D01*
X15874448Y39538974D01*
X15893168Y39525090D01*
X15910438Y39509438D01*
X15926090Y39492168D01*
X15939974Y39473448D01*
X15951956Y39453457D01*
X15961921Y39432387D01*
X15969773Y39410443D01*
X15975437Y39387834D01*
X15978856Y39364779D01*
X15980000Y39341500D01*
X15980000Y38866500D01*
X15978856Y38843221D01*
X15975437Y38820166D01*
X15969773Y38797557D01*
X15961921Y38775613D01*
X15951956Y38754543D01*
X15939974Y38734552D01*
X15926090Y38715832D01*
X15910438Y38698562D01*
X15893168Y38682910D01*
X15874448Y38669026D01*
X15854457Y38657044D01*
X15833387Y38647079D01*
X15811443Y38639227D01*
X15788834Y38633563D01*
X15765779Y38630144D01*
X15742500Y38629000D01*
X15167500Y38629000D01*
X15144221Y38630144D01*
X15121166Y38633563D01*
X15098557Y38639227D01*
X15076613Y38647079D01*
X15055543Y38657044D01*
X15035552Y38669026D01*
X15016832Y38682910D01*
X14999562Y38698562D01*
X14983910Y38715832D01*
X14970026Y38734552D01*
X14958044Y38754543D01*
X14948079Y38775613D01*
X14940227Y38797557D01*
X14934563Y38820166D01*
X14931144Y38843221D01*
X14930000Y38866500D01*
X14930000Y39341500D01*
X14931144Y39364779D01*
X14934563Y39387834D01*
X14940227Y39410443D01*
X14948079Y39432387D01*
X14958044Y39453457D01*
X14970026Y39473448D01*
X14983910Y39492168D01*
X14999562Y39509438D01*
X15016832Y39525090D01*
X15035552Y39538974D01*
X15055543Y39550956D01*
X15076613Y39560921D01*
X15098557Y39568773D01*
X15121166Y39574437D01*
X15144221Y39577856D01*
X15167500Y39579000D01*
X15742500Y39579000D01*
X15765779Y39577856D01*
X15765779Y39577856D01*
G37*
D15*
X15455000Y39104000D03*
D14*
G36*
X27707779Y30861856D02*
G01*
X27730834Y30858437D01*
X27753443Y30852773D01*
X27775387Y30844921D01*
X27796457Y30834956D01*
X27816448Y30822974D01*
X27835168Y30809090D01*
X27852438Y30793438D01*
X27868090Y30776168D01*
X27881974Y30757448D01*
X27893956Y30737457D01*
X27903921Y30716387D01*
X27911773Y30694443D01*
X27917437Y30671834D01*
X27920856Y30648779D01*
X27922000Y30625500D01*
X27922000Y30050500D01*
X27920856Y30027221D01*
X27917437Y30004166D01*
X27911773Y29981557D01*
X27903921Y29959613D01*
X27893956Y29938543D01*
X27881974Y29918552D01*
X27868090Y29899832D01*
X27852438Y29882562D01*
X27835168Y29866910D01*
X27816448Y29853026D01*
X27796457Y29841044D01*
X27775387Y29831079D01*
X27753443Y29823227D01*
X27730834Y29817563D01*
X27707779Y29814144D01*
X27684500Y29813000D01*
X27209500Y29813000D01*
X27186221Y29814144D01*
X27163166Y29817563D01*
X27140557Y29823227D01*
X27118613Y29831079D01*
X27097543Y29841044D01*
X27077552Y29853026D01*
X27058832Y29866910D01*
X27041562Y29882562D01*
X27025910Y29899832D01*
X27012026Y29918552D01*
X27000044Y29938543D01*
X26990079Y29959613D01*
X26982227Y29981557D01*
X26976563Y30004166D01*
X26973144Y30027221D01*
X26972000Y30050500D01*
X26972000Y30625500D01*
X26973144Y30648779D01*
X26976563Y30671834D01*
X26982227Y30694443D01*
X26990079Y30716387D01*
X27000044Y30737457D01*
X27012026Y30757448D01*
X27025910Y30776168D01*
X27041562Y30793438D01*
X27058832Y30809090D01*
X27077552Y30822974D01*
X27097543Y30834956D01*
X27118613Y30844921D01*
X27140557Y30852773D01*
X27163166Y30858437D01*
X27186221Y30861856D01*
X27209500Y30863000D01*
X27684500Y30863000D01*
X27707779Y30861856D01*
X27707779Y30861856D01*
G37*
D15*
X27447000Y30338000D03*
D14*
G36*
X27707779Y29111856D02*
G01*
X27730834Y29108437D01*
X27753443Y29102773D01*
X27775387Y29094921D01*
X27796457Y29084956D01*
X27816448Y29072974D01*
X27835168Y29059090D01*
X27852438Y29043438D01*
X27868090Y29026168D01*
X27881974Y29007448D01*
X27893956Y28987457D01*
X27903921Y28966387D01*
X27911773Y28944443D01*
X27917437Y28921834D01*
X27920856Y28898779D01*
X27922000Y28875500D01*
X27922000Y28300500D01*
X27920856Y28277221D01*
X27917437Y28254166D01*
X27911773Y28231557D01*
X27903921Y28209613D01*
X27893956Y28188543D01*
X27881974Y28168552D01*
X27868090Y28149832D01*
X27852438Y28132562D01*
X27835168Y28116910D01*
X27816448Y28103026D01*
X27796457Y28091044D01*
X27775387Y28081079D01*
X27753443Y28073227D01*
X27730834Y28067563D01*
X27707779Y28064144D01*
X27684500Y28063000D01*
X27209500Y28063000D01*
X27186221Y28064144D01*
X27163166Y28067563D01*
X27140557Y28073227D01*
X27118613Y28081079D01*
X27097543Y28091044D01*
X27077552Y28103026D01*
X27058832Y28116910D01*
X27041562Y28132562D01*
X27025910Y28149832D01*
X27012026Y28168552D01*
X27000044Y28188543D01*
X26990079Y28209613D01*
X26982227Y28231557D01*
X26976563Y28254166D01*
X26973144Y28277221D01*
X26972000Y28300500D01*
X26972000Y28875500D01*
X26973144Y28898779D01*
X26976563Y28921834D01*
X26982227Y28944443D01*
X26990079Y28966387D01*
X27000044Y28987457D01*
X27012026Y29007448D01*
X27025910Y29026168D01*
X27041562Y29043438D01*
X27058832Y29059090D01*
X27077552Y29072974D01*
X27097543Y29084956D01*
X27118613Y29094921D01*
X27140557Y29102773D01*
X27163166Y29108437D01*
X27186221Y29111856D01*
X27209500Y29113000D01*
X27684500Y29113000D01*
X27707779Y29111856D01*
X27707779Y29111856D01*
G37*
D15*
X27447000Y28588000D03*
D14*
G36*
X22992779Y26036856D02*
G01*
X23015834Y26033437D01*
X23038443Y26027773D01*
X23060387Y26019921D01*
X23081457Y26009956D01*
X23101448Y25997974D01*
X23120168Y25984090D01*
X23137438Y25968438D01*
X23153090Y25951168D01*
X23166974Y25932448D01*
X23178956Y25912457D01*
X23188921Y25891387D01*
X23196773Y25869443D01*
X23202437Y25846834D01*
X23205856Y25823779D01*
X23207000Y25800500D01*
X23207000Y25325500D01*
X23205856Y25302221D01*
X23202437Y25279166D01*
X23196773Y25256557D01*
X23188921Y25234613D01*
X23178956Y25213543D01*
X23166974Y25193552D01*
X23153090Y25174832D01*
X23137438Y25157562D01*
X23120168Y25141910D01*
X23101448Y25128026D01*
X23081457Y25116044D01*
X23060387Y25106079D01*
X23038443Y25098227D01*
X23015834Y25092563D01*
X22992779Y25089144D01*
X22969500Y25088000D01*
X22394500Y25088000D01*
X22371221Y25089144D01*
X22348166Y25092563D01*
X22325557Y25098227D01*
X22303613Y25106079D01*
X22282543Y25116044D01*
X22262552Y25128026D01*
X22243832Y25141910D01*
X22226562Y25157562D01*
X22210910Y25174832D01*
X22197026Y25193552D01*
X22185044Y25213543D01*
X22175079Y25234613D01*
X22167227Y25256557D01*
X22161563Y25279166D01*
X22158144Y25302221D01*
X22157000Y25325500D01*
X22157000Y25800500D01*
X22158144Y25823779D01*
X22161563Y25846834D01*
X22167227Y25869443D01*
X22175079Y25891387D01*
X22185044Y25912457D01*
X22197026Y25932448D01*
X22210910Y25951168D01*
X22226562Y25968438D01*
X22243832Y25984090D01*
X22262552Y25997974D01*
X22282543Y26009956D01*
X22303613Y26019921D01*
X22325557Y26027773D01*
X22348166Y26033437D01*
X22371221Y26036856D01*
X22394500Y26038000D01*
X22969500Y26038000D01*
X22992779Y26036856D01*
X22992779Y26036856D01*
G37*
D15*
X22682000Y25563000D03*
D14*
G36*
X24742779Y26036856D02*
G01*
X24765834Y26033437D01*
X24788443Y26027773D01*
X24810387Y26019921D01*
X24831457Y26009956D01*
X24851448Y25997974D01*
X24870168Y25984090D01*
X24887438Y25968438D01*
X24903090Y25951168D01*
X24916974Y25932448D01*
X24928956Y25912457D01*
X24938921Y25891387D01*
X24946773Y25869443D01*
X24952437Y25846834D01*
X24955856Y25823779D01*
X24957000Y25800500D01*
X24957000Y25325500D01*
X24955856Y25302221D01*
X24952437Y25279166D01*
X24946773Y25256557D01*
X24938921Y25234613D01*
X24928956Y25213543D01*
X24916974Y25193552D01*
X24903090Y25174832D01*
X24887438Y25157562D01*
X24870168Y25141910D01*
X24851448Y25128026D01*
X24831457Y25116044D01*
X24810387Y25106079D01*
X24788443Y25098227D01*
X24765834Y25092563D01*
X24742779Y25089144D01*
X24719500Y25088000D01*
X24144500Y25088000D01*
X24121221Y25089144D01*
X24098166Y25092563D01*
X24075557Y25098227D01*
X24053613Y25106079D01*
X24032543Y25116044D01*
X24012552Y25128026D01*
X23993832Y25141910D01*
X23976562Y25157562D01*
X23960910Y25174832D01*
X23947026Y25193552D01*
X23935044Y25213543D01*
X23925079Y25234613D01*
X23917227Y25256557D01*
X23911563Y25279166D01*
X23908144Y25302221D01*
X23907000Y25325500D01*
X23907000Y25800500D01*
X23908144Y25823779D01*
X23911563Y25846834D01*
X23917227Y25869443D01*
X23925079Y25891387D01*
X23935044Y25912457D01*
X23947026Y25932448D01*
X23960910Y25951168D01*
X23976562Y25968438D01*
X23993832Y25984090D01*
X24012552Y25997974D01*
X24032543Y26009956D01*
X24053613Y26019921D01*
X24075557Y26027773D01*
X24098166Y26033437D01*
X24121221Y26036856D01*
X24144500Y26038000D01*
X24719500Y26038000D01*
X24742779Y26036856D01*
X24742779Y26036856D01*
G37*
D15*
X24432000Y25563000D03*
D14*
G36*
X20950779Y9592856D02*
G01*
X20973834Y9589437D01*
X20996443Y9583773D01*
X21018387Y9575921D01*
X21039457Y9565956D01*
X21059448Y9553974D01*
X21078168Y9540090D01*
X21095438Y9524438D01*
X21111090Y9507168D01*
X21124974Y9488448D01*
X21136956Y9468457D01*
X21146921Y9447387D01*
X21154773Y9425443D01*
X21160437Y9402834D01*
X21163856Y9379779D01*
X21165000Y9356500D01*
X21165000Y8781500D01*
X21163856Y8758221D01*
X21160437Y8735166D01*
X21154773Y8712557D01*
X21146921Y8690613D01*
X21136956Y8669543D01*
X21124974Y8649552D01*
X21111090Y8630832D01*
X21095438Y8613562D01*
X21078168Y8597910D01*
X21059448Y8584026D01*
X21039457Y8572044D01*
X21018387Y8562079D01*
X20996443Y8554227D01*
X20973834Y8548563D01*
X20950779Y8545144D01*
X20927500Y8544000D01*
X20452500Y8544000D01*
X20429221Y8545144D01*
X20406166Y8548563D01*
X20383557Y8554227D01*
X20361613Y8562079D01*
X20340543Y8572044D01*
X20320552Y8584026D01*
X20301832Y8597910D01*
X20284562Y8613562D01*
X20268910Y8630832D01*
X20255026Y8649552D01*
X20243044Y8669543D01*
X20233079Y8690613D01*
X20225227Y8712557D01*
X20219563Y8735166D01*
X20216144Y8758221D01*
X20215000Y8781500D01*
X20215000Y9356500D01*
X20216144Y9379779D01*
X20219563Y9402834D01*
X20225227Y9425443D01*
X20233079Y9447387D01*
X20243044Y9468457D01*
X20255026Y9488448D01*
X20268910Y9507168D01*
X20284562Y9524438D01*
X20301832Y9540090D01*
X20320552Y9553974D01*
X20340543Y9565956D01*
X20361613Y9575921D01*
X20383557Y9583773D01*
X20406166Y9589437D01*
X20429221Y9592856D01*
X20452500Y9594000D01*
X20927500Y9594000D01*
X20950779Y9592856D01*
X20950779Y9592856D01*
G37*
D15*
X20690000Y9069000D03*
D14*
G36*
X20950779Y11342856D02*
G01*
X20973834Y11339437D01*
X20996443Y11333773D01*
X21018387Y11325921D01*
X21039457Y11315956D01*
X21059448Y11303974D01*
X21078168Y11290090D01*
X21095438Y11274438D01*
X21111090Y11257168D01*
X21124974Y11238448D01*
X21136956Y11218457D01*
X21146921Y11197387D01*
X21154773Y11175443D01*
X21160437Y11152834D01*
X21163856Y11129779D01*
X21165000Y11106500D01*
X21165000Y10531500D01*
X21163856Y10508221D01*
X21160437Y10485166D01*
X21154773Y10462557D01*
X21146921Y10440613D01*
X21136956Y10419543D01*
X21124974Y10399552D01*
X21111090Y10380832D01*
X21095438Y10363562D01*
X21078168Y10347910D01*
X21059448Y10334026D01*
X21039457Y10322044D01*
X21018387Y10312079D01*
X20996443Y10304227D01*
X20973834Y10298563D01*
X20950779Y10295144D01*
X20927500Y10294000D01*
X20452500Y10294000D01*
X20429221Y10295144D01*
X20406166Y10298563D01*
X20383557Y10304227D01*
X20361613Y10312079D01*
X20340543Y10322044D01*
X20320552Y10334026D01*
X20301832Y10347910D01*
X20284562Y10363562D01*
X20268910Y10380832D01*
X20255026Y10399552D01*
X20243044Y10419543D01*
X20233079Y10440613D01*
X20225227Y10462557D01*
X20219563Y10485166D01*
X20216144Y10508221D01*
X20215000Y10531500D01*
X20215000Y11106500D01*
X20216144Y11129779D01*
X20219563Y11152834D01*
X20225227Y11175443D01*
X20233079Y11197387D01*
X20243044Y11218457D01*
X20255026Y11238448D01*
X20268910Y11257168D01*
X20284562Y11274438D01*
X20301832Y11290090D01*
X20320552Y11303974D01*
X20340543Y11315956D01*
X20361613Y11325921D01*
X20383557Y11333773D01*
X20406166Y11339437D01*
X20429221Y11342856D01*
X20452500Y11344000D01*
X20927500Y11344000D01*
X20950779Y11342856D01*
X20950779Y11342856D01*
G37*
D15*
X20690000Y10819000D03*
D14*
G36*
X19450779Y9592856D02*
G01*
X19473834Y9589437D01*
X19496443Y9583773D01*
X19518387Y9575921D01*
X19539457Y9565956D01*
X19559448Y9553974D01*
X19578168Y9540090D01*
X19595438Y9524438D01*
X19611090Y9507168D01*
X19624974Y9488448D01*
X19636956Y9468457D01*
X19646921Y9447387D01*
X19654773Y9425443D01*
X19660437Y9402834D01*
X19663856Y9379779D01*
X19665000Y9356500D01*
X19665000Y8781500D01*
X19663856Y8758221D01*
X19660437Y8735166D01*
X19654773Y8712557D01*
X19646921Y8690613D01*
X19636956Y8669543D01*
X19624974Y8649552D01*
X19611090Y8630832D01*
X19595438Y8613562D01*
X19578168Y8597910D01*
X19559448Y8584026D01*
X19539457Y8572044D01*
X19518387Y8562079D01*
X19496443Y8554227D01*
X19473834Y8548563D01*
X19450779Y8545144D01*
X19427500Y8544000D01*
X18952500Y8544000D01*
X18929221Y8545144D01*
X18906166Y8548563D01*
X18883557Y8554227D01*
X18861613Y8562079D01*
X18840543Y8572044D01*
X18820552Y8584026D01*
X18801832Y8597910D01*
X18784562Y8613562D01*
X18768910Y8630832D01*
X18755026Y8649552D01*
X18743044Y8669543D01*
X18733079Y8690613D01*
X18725227Y8712557D01*
X18719563Y8735166D01*
X18716144Y8758221D01*
X18715000Y8781500D01*
X18715000Y9356500D01*
X18716144Y9379779D01*
X18719563Y9402834D01*
X18725227Y9425443D01*
X18733079Y9447387D01*
X18743044Y9468457D01*
X18755026Y9488448D01*
X18768910Y9507168D01*
X18784562Y9524438D01*
X18801832Y9540090D01*
X18820552Y9553974D01*
X18840543Y9565956D01*
X18861613Y9575921D01*
X18883557Y9583773D01*
X18906166Y9589437D01*
X18929221Y9592856D01*
X18952500Y9594000D01*
X19427500Y9594000D01*
X19450779Y9592856D01*
X19450779Y9592856D01*
G37*
D15*
X19190000Y9069000D03*
D14*
G36*
X19450779Y11342856D02*
G01*
X19473834Y11339437D01*
X19496443Y11333773D01*
X19518387Y11325921D01*
X19539457Y11315956D01*
X19559448Y11303974D01*
X19578168Y11290090D01*
X19595438Y11274438D01*
X19611090Y11257168D01*
X19624974Y11238448D01*
X19636956Y11218457D01*
X19646921Y11197387D01*
X19654773Y11175443D01*
X19660437Y11152834D01*
X19663856Y11129779D01*
X19665000Y11106500D01*
X19665000Y10531500D01*
X19663856Y10508221D01*
X19660437Y10485166D01*
X19654773Y10462557D01*
X19646921Y10440613D01*
X19636956Y10419543D01*
X19624974Y10399552D01*
X19611090Y10380832D01*
X19595438Y10363562D01*
X19578168Y10347910D01*
X19559448Y10334026D01*
X19539457Y10322044D01*
X19518387Y10312079D01*
X19496443Y10304227D01*
X19473834Y10298563D01*
X19450779Y10295144D01*
X19427500Y10294000D01*
X18952500Y10294000D01*
X18929221Y10295144D01*
X18906166Y10298563D01*
X18883557Y10304227D01*
X18861613Y10312079D01*
X18840543Y10322044D01*
X18820552Y10334026D01*
X18801832Y10347910D01*
X18784562Y10363562D01*
X18768910Y10380832D01*
X18755026Y10399552D01*
X18743044Y10419543D01*
X18733079Y10440613D01*
X18725227Y10462557D01*
X18719563Y10485166D01*
X18716144Y10508221D01*
X18715000Y10531500D01*
X18715000Y11106500D01*
X18716144Y11129779D01*
X18719563Y11152834D01*
X18725227Y11175443D01*
X18733079Y11197387D01*
X18743044Y11218457D01*
X18755026Y11238448D01*
X18768910Y11257168D01*
X18784562Y11274438D01*
X18801832Y11290090D01*
X18820552Y11303974D01*
X18840543Y11315956D01*
X18861613Y11325921D01*
X18883557Y11333773D01*
X18906166Y11339437D01*
X18929221Y11342856D01*
X18952500Y11344000D01*
X19427500Y11344000D01*
X19450779Y11342856D01*
X19450779Y11342856D01*
G37*
D15*
X19190000Y10819000D03*
D14*
G36*
X32141779Y36371856D02*
G01*
X32164834Y36368437D01*
X32187443Y36362773D01*
X32209387Y36354921D01*
X32230457Y36344956D01*
X32250448Y36332974D01*
X32269168Y36319090D01*
X32286438Y36303438D01*
X32302090Y36286168D01*
X32315974Y36267448D01*
X32327956Y36247457D01*
X32337921Y36226387D01*
X32345773Y36204443D01*
X32351437Y36181834D01*
X32354856Y36158779D01*
X32356000Y36135500D01*
X32356000Y35560500D01*
X32354856Y35537221D01*
X32351437Y35514166D01*
X32345773Y35491557D01*
X32337921Y35469613D01*
X32327956Y35448543D01*
X32315974Y35428552D01*
X32302090Y35409832D01*
X32286438Y35392562D01*
X32269168Y35376910D01*
X32250448Y35363026D01*
X32230457Y35351044D01*
X32209387Y35341079D01*
X32187443Y35333227D01*
X32164834Y35327563D01*
X32141779Y35324144D01*
X32118500Y35323000D01*
X31643500Y35323000D01*
X31620221Y35324144D01*
X31597166Y35327563D01*
X31574557Y35333227D01*
X31552613Y35341079D01*
X31531543Y35351044D01*
X31511552Y35363026D01*
X31492832Y35376910D01*
X31475562Y35392562D01*
X31459910Y35409832D01*
X31446026Y35428552D01*
X31434044Y35448543D01*
X31424079Y35469613D01*
X31416227Y35491557D01*
X31410563Y35514166D01*
X31407144Y35537221D01*
X31406000Y35560500D01*
X31406000Y36135500D01*
X31407144Y36158779D01*
X31410563Y36181834D01*
X31416227Y36204443D01*
X31424079Y36226387D01*
X31434044Y36247457D01*
X31446026Y36267448D01*
X31459910Y36286168D01*
X31475562Y36303438D01*
X31492832Y36319090D01*
X31511552Y36332974D01*
X31531543Y36344956D01*
X31552613Y36354921D01*
X31574557Y36362773D01*
X31597166Y36368437D01*
X31620221Y36371856D01*
X31643500Y36373000D01*
X32118500Y36373000D01*
X32141779Y36371856D01*
X32141779Y36371856D01*
G37*
D15*
X31881000Y35848000D03*
D14*
G36*
X32141779Y38121856D02*
G01*
X32164834Y38118437D01*
X32187443Y38112773D01*
X32209387Y38104921D01*
X32230457Y38094956D01*
X32250448Y38082974D01*
X32269168Y38069090D01*
X32286438Y38053438D01*
X32302090Y38036168D01*
X32315974Y38017448D01*
X32327956Y37997457D01*
X32337921Y37976387D01*
X32345773Y37954443D01*
X32351437Y37931834D01*
X32354856Y37908779D01*
X32356000Y37885500D01*
X32356000Y37310500D01*
X32354856Y37287221D01*
X32351437Y37264166D01*
X32345773Y37241557D01*
X32337921Y37219613D01*
X32327956Y37198543D01*
X32315974Y37178552D01*
X32302090Y37159832D01*
X32286438Y37142562D01*
X32269168Y37126910D01*
X32250448Y37113026D01*
X32230457Y37101044D01*
X32209387Y37091079D01*
X32187443Y37083227D01*
X32164834Y37077563D01*
X32141779Y37074144D01*
X32118500Y37073000D01*
X31643500Y37073000D01*
X31620221Y37074144D01*
X31597166Y37077563D01*
X31574557Y37083227D01*
X31552613Y37091079D01*
X31531543Y37101044D01*
X31511552Y37113026D01*
X31492832Y37126910D01*
X31475562Y37142562D01*
X31459910Y37159832D01*
X31446026Y37178552D01*
X31434044Y37198543D01*
X31424079Y37219613D01*
X31416227Y37241557D01*
X31410563Y37264166D01*
X31407144Y37287221D01*
X31406000Y37310500D01*
X31406000Y37885500D01*
X31407144Y37908779D01*
X31410563Y37931834D01*
X31416227Y37954443D01*
X31424079Y37976387D01*
X31434044Y37997457D01*
X31446026Y38017448D01*
X31459910Y38036168D01*
X31475562Y38053438D01*
X31492832Y38069090D01*
X31511552Y38082974D01*
X31531543Y38094956D01*
X31552613Y38104921D01*
X31574557Y38112773D01*
X31597166Y38118437D01*
X31620221Y38121856D01*
X31643500Y38123000D01*
X32118500Y38123000D01*
X32141779Y38121856D01*
X32141779Y38121856D01*
G37*
D15*
X31881000Y37598000D03*
D22*
X57211000Y16620000D03*
X56561000Y16620000D03*
X55911000Y16620000D03*
X55261000Y16620000D03*
X54611000Y16620000D03*
X53961000Y16620000D03*
X53311000Y16620000D03*
X52661000Y16620000D03*
X52011000Y16620000D03*
X51361000Y16620000D03*
X50711000Y16620000D03*
X50061000Y16620000D03*
X49411000Y16620000D03*
X48761000Y16620000D03*
X48761000Y10920000D03*
X49411000Y10920000D03*
X50061000Y10920000D03*
X50711000Y10920000D03*
X51361000Y10920000D03*
X52011000Y10920000D03*
X52661000Y10920000D03*
X53311000Y10920000D03*
X53961000Y10920000D03*
X54611000Y10920000D03*
X55261000Y10920000D03*
X55911000Y10920000D03*
X56561000Y10920000D03*
X57211000Y10920000D03*
D23*
X52475000Y27860000D03*
X52475000Y33600000D03*
X51205000Y27860000D03*
X51205000Y33600000D03*
X49935000Y27860000D03*
X49935000Y33600000D03*
X48665000Y27860000D03*
X48665000Y33600000D03*
D24*
X50570000Y30730000D03*
D25*
X14980000Y42504000D03*
D26*
X15930000Y41004000D03*
X15280000Y41004000D03*
X14680000Y41004000D03*
X14030000Y41004000D03*
X14030000Y44004000D03*
X14680000Y44004000D03*
X15280000Y44004000D03*
X15930000Y44004000D03*
D27*
X29381000Y35473000D03*
X29381000Y36423000D03*
X29381000Y37373000D03*
X27181000Y37373000D03*
X27181000Y35473000D03*
D28*
X44720000Y30730000D03*
X38820000Y30730000D03*
D20*
X27840000Y46644000D03*
X25040000Y46644000D03*
D29*
X41143000Y38087000D03*
X46143000Y38087000D03*
D14*
G36*
X56747779Y9343856D02*
G01*
X56770834Y9340437D01*
X56793443Y9334773D01*
X56815387Y9326921D01*
X56836457Y9316956D01*
X56856448Y9304974D01*
X56875168Y9291090D01*
X56892438Y9275438D01*
X56908090Y9258168D01*
X56921974Y9239448D01*
X56933956Y9219457D01*
X56943921Y9198387D01*
X56951773Y9176443D01*
X56957437Y9153834D01*
X56960856Y9130779D01*
X56962000Y9107500D01*
X56962000Y8632500D01*
X56960856Y8609221D01*
X56957437Y8586166D01*
X56951773Y8563557D01*
X56943921Y8541613D01*
X56933956Y8520543D01*
X56921974Y8500552D01*
X56908090Y8481832D01*
X56892438Y8464562D01*
X56875168Y8448910D01*
X56856448Y8435026D01*
X56836457Y8423044D01*
X56815387Y8413079D01*
X56793443Y8405227D01*
X56770834Y8399563D01*
X56747779Y8396144D01*
X56724500Y8395000D01*
X56149500Y8395000D01*
X56126221Y8396144D01*
X56103166Y8399563D01*
X56080557Y8405227D01*
X56058613Y8413079D01*
X56037543Y8423044D01*
X56017552Y8435026D01*
X55998832Y8448910D01*
X55981562Y8464562D01*
X55965910Y8481832D01*
X55952026Y8500552D01*
X55940044Y8520543D01*
X55930079Y8541613D01*
X55922227Y8563557D01*
X55916563Y8586166D01*
X55913144Y8609221D01*
X55912000Y8632500D01*
X55912000Y9107500D01*
X55913144Y9130779D01*
X55916563Y9153834D01*
X55922227Y9176443D01*
X55930079Y9198387D01*
X55940044Y9219457D01*
X55952026Y9239448D01*
X55965910Y9258168D01*
X55981562Y9275438D01*
X55998832Y9291090D01*
X56017552Y9304974D01*
X56037543Y9316956D01*
X56058613Y9326921D01*
X56080557Y9334773D01*
X56103166Y9340437D01*
X56126221Y9343856D01*
X56149500Y9345000D01*
X56724500Y9345000D01*
X56747779Y9343856D01*
X56747779Y9343856D01*
G37*
D15*
X56437000Y8870000D03*
D14*
G36*
X58497779Y9343856D02*
G01*
X58520834Y9340437D01*
X58543443Y9334773D01*
X58565387Y9326921D01*
X58586457Y9316956D01*
X58606448Y9304974D01*
X58625168Y9291090D01*
X58642438Y9275438D01*
X58658090Y9258168D01*
X58671974Y9239448D01*
X58683956Y9219457D01*
X58693921Y9198387D01*
X58701773Y9176443D01*
X58707437Y9153834D01*
X58710856Y9130779D01*
X58712000Y9107500D01*
X58712000Y8632500D01*
X58710856Y8609221D01*
X58707437Y8586166D01*
X58701773Y8563557D01*
X58693921Y8541613D01*
X58683956Y8520543D01*
X58671974Y8500552D01*
X58658090Y8481832D01*
X58642438Y8464562D01*
X58625168Y8448910D01*
X58606448Y8435026D01*
X58586457Y8423044D01*
X58565387Y8413079D01*
X58543443Y8405227D01*
X58520834Y8399563D01*
X58497779Y8396144D01*
X58474500Y8395000D01*
X57899500Y8395000D01*
X57876221Y8396144D01*
X57853166Y8399563D01*
X57830557Y8405227D01*
X57808613Y8413079D01*
X57787543Y8423044D01*
X57767552Y8435026D01*
X57748832Y8448910D01*
X57731562Y8464562D01*
X57715910Y8481832D01*
X57702026Y8500552D01*
X57690044Y8520543D01*
X57680079Y8541613D01*
X57672227Y8563557D01*
X57666563Y8586166D01*
X57663144Y8609221D01*
X57662000Y8632500D01*
X57662000Y9107500D01*
X57663144Y9130779D01*
X57666563Y9153834D01*
X57672227Y9176443D01*
X57680079Y9198387D01*
X57690044Y9219457D01*
X57702026Y9239448D01*
X57715910Y9258168D01*
X57731562Y9275438D01*
X57748832Y9291090D01*
X57767552Y9304974D01*
X57787543Y9316956D01*
X57808613Y9326921D01*
X57830557Y9334773D01*
X57853166Y9340437D01*
X57876221Y9343856D01*
X57899500Y9345000D01*
X58474500Y9345000D01*
X58497779Y9343856D01*
X58497779Y9343856D01*
G37*
D15*
X58187000Y8870000D03*
D14*
G36*
X58497779Y7819856D02*
G01*
X58520834Y7816437D01*
X58543443Y7810773D01*
X58565387Y7802921D01*
X58586457Y7792956D01*
X58606448Y7780974D01*
X58625168Y7767090D01*
X58642438Y7751438D01*
X58658090Y7734168D01*
X58671974Y7715448D01*
X58683956Y7695457D01*
X58693921Y7674387D01*
X58701773Y7652443D01*
X58707437Y7629834D01*
X58710856Y7606779D01*
X58712000Y7583500D01*
X58712000Y7108500D01*
X58710856Y7085221D01*
X58707437Y7062166D01*
X58701773Y7039557D01*
X58693921Y7017613D01*
X58683956Y6996543D01*
X58671974Y6976552D01*
X58658090Y6957832D01*
X58642438Y6940562D01*
X58625168Y6924910D01*
X58606448Y6911026D01*
X58586457Y6899044D01*
X58565387Y6889079D01*
X58543443Y6881227D01*
X58520834Y6875563D01*
X58497779Y6872144D01*
X58474500Y6871000D01*
X57899500Y6871000D01*
X57876221Y6872144D01*
X57853166Y6875563D01*
X57830557Y6881227D01*
X57808613Y6889079D01*
X57787543Y6899044D01*
X57767552Y6911026D01*
X57748832Y6924910D01*
X57731562Y6940562D01*
X57715910Y6957832D01*
X57702026Y6976552D01*
X57690044Y6996543D01*
X57680079Y7017613D01*
X57672227Y7039557D01*
X57666563Y7062166D01*
X57663144Y7085221D01*
X57662000Y7108500D01*
X57662000Y7583500D01*
X57663144Y7606779D01*
X57666563Y7629834D01*
X57672227Y7652443D01*
X57680079Y7674387D01*
X57690044Y7695457D01*
X57702026Y7715448D01*
X57715910Y7734168D01*
X57731562Y7751438D01*
X57748832Y7767090D01*
X57767552Y7780974D01*
X57787543Y7792956D01*
X57808613Y7802921D01*
X57830557Y7810773D01*
X57853166Y7816437D01*
X57876221Y7819856D01*
X57899500Y7821000D01*
X58474500Y7821000D01*
X58497779Y7819856D01*
X58497779Y7819856D01*
G37*
D15*
X58187000Y7346000D03*
D14*
G36*
X56747779Y7819856D02*
G01*
X56770834Y7816437D01*
X56793443Y7810773D01*
X56815387Y7802921D01*
X56836457Y7792956D01*
X56856448Y7780974D01*
X56875168Y7767090D01*
X56892438Y7751438D01*
X56908090Y7734168D01*
X56921974Y7715448D01*
X56933956Y7695457D01*
X56943921Y7674387D01*
X56951773Y7652443D01*
X56957437Y7629834D01*
X56960856Y7606779D01*
X56962000Y7583500D01*
X56962000Y7108500D01*
X56960856Y7085221D01*
X56957437Y7062166D01*
X56951773Y7039557D01*
X56943921Y7017613D01*
X56933956Y6996543D01*
X56921974Y6976552D01*
X56908090Y6957832D01*
X56892438Y6940562D01*
X56875168Y6924910D01*
X56856448Y6911026D01*
X56836457Y6899044D01*
X56815387Y6889079D01*
X56793443Y6881227D01*
X56770834Y6875563D01*
X56747779Y6872144D01*
X56724500Y6871000D01*
X56149500Y6871000D01*
X56126221Y6872144D01*
X56103166Y6875563D01*
X56080557Y6881227D01*
X56058613Y6889079D01*
X56037543Y6899044D01*
X56017552Y6911026D01*
X55998832Y6924910D01*
X55981562Y6940562D01*
X55965910Y6957832D01*
X55952026Y6976552D01*
X55940044Y6996543D01*
X55930079Y7017613D01*
X55922227Y7039557D01*
X55916563Y7062166D01*
X55913144Y7085221D01*
X55912000Y7108500D01*
X55912000Y7583500D01*
X55913144Y7606779D01*
X55916563Y7629834D01*
X55922227Y7652443D01*
X55930079Y7674387D01*
X55940044Y7695457D01*
X55952026Y7715448D01*
X55965910Y7734168D01*
X55981562Y7751438D01*
X55998832Y7767090D01*
X56017552Y7780974D01*
X56037543Y7792956D01*
X56058613Y7802921D01*
X56080557Y7810773D01*
X56103166Y7816437D01*
X56126221Y7819856D01*
X56149500Y7821000D01*
X56724500Y7821000D01*
X56747779Y7819856D01*
X56747779Y7819856D01*
G37*
D15*
X56437000Y7346000D03*
D14*
G36*
X13455779Y9377856D02*
G01*
X13478834Y9374437D01*
X13501443Y9368773D01*
X13523387Y9360921D01*
X13544457Y9350956D01*
X13564448Y9338974D01*
X13583168Y9325090D01*
X13600438Y9309438D01*
X13616090Y9292168D01*
X13629974Y9273448D01*
X13641956Y9253457D01*
X13651921Y9232387D01*
X13659773Y9210443D01*
X13665437Y9187834D01*
X13668856Y9164779D01*
X13670000Y9141500D01*
X13670000Y8666500D01*
X13668856Y8643221D01*
X13665437Y8620166D01*
X13659773Y8597557D01*
X13651921Y8575613D01*
X13641956Y8554543D01*
X13629974Y8534552D01*
X13616090Y8515832D01*
X13600438Y8498562D01*
X13583168Y8482910D01*
X13564448Y8469026D01*
X13544457Y8457044D01*
X13523387Y8447079D01*
X13501443Y8439227D01*
X13478834Y8433563D01*
X13455779Y8430144D01*
X13432500Y8429000D01*
X12857500Y8429000D01*
X12834221Y8430144D01*
X12811166Y8433563D01*
X12788557Y8439227D01*
X12766613Y8447079D01*
X12745543Y8457044D01*
X12725552Y8469026D01*
X12706832Y8482910D01*
X12689562Y8498562D01*
X12673910Y8515832D01*
X12660026Y8534552D01*
X12648044Y8554543D01*
X12638079Y8575613D01*
X12630227Y8597557D01*
X12624563Y8620166D01*
X12621144Y8643221D01*
X12620000Y8666500D01*
X12620000Y9141500D01*
X12621144Y9164779D01*
X12624563Y9187834D01*
X12630227Y9210443D01*
X12638079Y9232387D01*
X12648044Y9253457D01*
X12660026Y9273448D01*
X12673910Y9292168D01*
X12689562Y9309438D01*
X12706832Y9325090D01*
X12725552Y9338974D01*
X12745543Y9350956D01*
X12766613Y9360921D01*
X12788557Y9368773D01*
X12811166Y9374437D01*
X12834221Y9377856D01*
X12857500Y9379000D01*
X13432500Y9379000D01*
X13455779Y9377856D01*
X13455779Y9377856D01*
G37*
D15*
X13145000Y8904000D03*
D14*
G36*
X11705779Y9377856D02*
G01*
X11728834Y9374437D01*
X11751443Y9368773D01*
X11773387Y9360921D01*
X11794457Y9350956D01*
X11814448Y9338974D01*
X11833168Y9325090D01*
X11850438Y9309438D01*
X11866090Y9292168D01*
X11879974Y9273448D01*
X11891956Y9253457D01*
X11901921Y9232387D01*
X11909773Y9210443D01*
X11915437Y9187834D01*
X11918856Y9164779D01*
X11920000Y9141500D01*
X11920000Y8666500D01*
X11918856Y8643221D01*
X11915437Y8620166D01*
X11909773Y8597557D01*
X11901921Y8575613D01*
X11891956Y8554543D01*
X11879974Y8534552D01*
X11866090Y8515832D01*
X11850438Y8498562D01*
X11833168Y8482910D01*
X11814448Y8469026D01*
X11794457Y8457044D01*
X11773387Y8447079D01*
X11751443Y8439227D01*
X11728834Y8433563D01*
X11705779Y8430144D01*
X11682500Y8429000D01*
X11107500Y8429000D01*
X11084221Y8430144D01*
X11061166Y8433563D01*
X11038557Y8439227D01*
X11016613Y8447079D01*
X10995543Y8457044D01*
X10975552Y8469026D01*
X10956832Y8482910D01*
X10939562Y8498562D01*
X10923910Y8515832D01*
X10910026Y8534552D01*
X10898044Y8554543D01*
X10888079Y8575613D01*
X10880227Y8597557D01*
X10874563Y8620166D01*
X10871144Y8643221D01*
X10870000Y8666500D01*
X10870000Y9141500D01*
X10871144Y9164779D01*
X10874563Y9187834D01*
X10880227Y9210443D01*
X10888079Y9232387D01*
X10898044Y9253457D01*
X10910026Y9273448D01*
X10923910Y9292168D01*
X10939562Y9309438D01*
X10956832Y9325090D01*
X10975552Y9338974D01*
X10995543Y9350956D01*
X11016613Y9360921D01*
X11038557Y9368773D01*
X11061166Y9374437D01*
X11084221Y9377856D01*
X11107500Y9379000D01*
X11682500Y9379000D01*
X11705779Y9377856D01*
X11705779Y9377856D01*
G37*
D15*
X11395000Y8904000D03*
M02*
