G04 #@! TF.GenerationSoftware,KiCad,Pcbnew,(5.1.4)-1*
G04 #@! TF.CreationDate,2019-11-27T00:40:15+11:00*
G04 #@! TF.ProjectId,dingo-hat,64696e67-6f2d-4686-9174-2e6b69636164,rev?*
G04 #@! TF.SameCoordinates,PX5f37000PY5f5c990*
G04 #@! TF.FileFunction,Soldermask,Bot*
G04 #@! TF.FilePolarity,Negative*
%FSLAX46Y46*%
G04 Gerber Fmt 4.6, Leading zero omitted, Abs format (unit mm)*
G04 Created by KiCad (PCBNEW (5.1.4)-1) date 2019-11-27 00:40:15*
%MOMM*%
%LPD*%
G04 APERTURE LIST*
%ADD10C,0.010000*%
%ADD11C,0.100000*%
G04 APERTURE END LIST*
D10*
G36*
X8636464Y45074743D02*
G01*
X8619021Y45060307D01*
X8593661Y45036373D01*
X8561967Y45004593D01*
X8525521Y44966619D01*
X8485905Y44924105D01*
X8444702Y44878704D01*
X8403495Y44832067D01*
X8363865Y44785848D01*
X8358221Y44779133D01*
X8179488Y44552856D01*
X8015073Y44317792D01*
X7865227Y44074501D01*
X7730200Y43823544D01*
X7610244Y43565480D01*
X7505610Y43300870D01*
X7416547Y43030274D01*
X7343307Y42754250D01*
X7286141Y42473361D01*
X7264416Y42336500D01*
X7251982Y42247029D01*
X7241922Y42166084D01*
X7234007Y42090159D01*
X7228008Y42015751D01*
X7223697Y41939354D01*
X7220845Y41857465D01*
X7219224Y41766580D01*
X7218606Y41663194D01*
X7218581Y41633767D01*
X7219654Y41492067D01*
X7223127Y41363274D01*
X7229382Y41243483D01*
X7238799Y41128787D01*
X7251759Y41015281D01*
X7268643Y40899059D01*
X7289831Y40776217D01*
X7314785Y40647400D01*
X7377986Y40376579D01*
X7457310Y40108812D01*
X7552180Y39845342D01*
X7662015Y39587411D01*
X7786235Y39336261D01*
X7924262Y39093136D01*
X8075515Y38859278D01*
X8239415Y38635929D01*
X8272378Y38594233D01*
X8460692Y38372180D01*
X8659767Y38163100D01*
X8869188Y37967245D01*
X9088541Y37784867D01*
X9317411Y37616216D01*
X9555384Y37461545D01*
X9802045Y37321104D01*
X10056979Y37195146D01*
X10319773Y37083923D01*
X10590010Y36987685D01*
X10867277Y36906684D01*
X11151159Y36841171D01*
X11167067Y36838001D01*
X11251665Y36822620D01*
X11345779Y36807839D01*
X11445917Y36794039D01*
X11548590Y36781602D01*
X11650305Y36770909D01*
X11747571Y36762343D01*
X11836897Y36756285D01*
X11914793Y36753117D01*
X11946726Y36752735D01*
X12019418Y36752733D01*
X12096926Y36562233D01*
X12214080Y36561573D01*
X12261732Y36561535D01*
X12307748Y36561907D01*
X12347236Y36562622D01*
X12375303Y36563616D01*
X12377800Y36563759D01*
X12672229Y36590013D01*
X12963216Y36632459D01*
X13250083Y36690882D01*
X13532150Y36765068D01*
X13808740Y36854801D01*
X14079173Y36959866D01*
X14342771Y37080050D01*
X14598856Y37215137D01*
X14785422Y37326003D01*
X15027932Y37487154D01*
X15259036Y37660449D01*
X15478455Y37845283D01*
X15685907Y38041049D01*
X15881114Y38247142D01*
X16063796Y38462957D01*
X16233671Y38687889D01*
X16390461Y38921332D01*
X16533884Y39162681D01*
X16663662Y39411329D01*
X16779514Y39666673D01*
X16881160Y39928106D01*
X16968320Y40195022D01*
X17040715Y40466817D01*
X17098063Y40742885D01*
X17140085Y41022621D01*
X17166501Y41305419D01*
X17177031Y41590673D01*
X17171396Y41877779D01*
X17149314Y42166130D01*
X17122387Y42378833D01*
X17072893Y42657752D01*
X17007433Y42935041D01*
X16926633Y43208664D01*
X16831120Y43476584D01*
X16721519Y43736766D01*
X16673541Y43838906D01*
X16650117Y43886636D01*
X16624358Y43938040D01*
X16597549Y43990666D01*
X16570975Y44042061D01*
X16545919Y44089773D01*
X16523667Y44131348D01*
X16505504Y44164334D01*
X16492713Y44186278D01*
X16487734Y44193650D01*
X16479983Y44190922D01*
X16461433Y44181336D01*
X16435657Y44166989D01*
X16406226Y44149982D01*
X16376712Y44132413D01*
X16350685Y44116381D01*
X16331719Y44103985D01*
X16323384Y44097324D01*
X16323267Y44096996D01*
X16327181Y44088259D01*
X16337688Y44068301D01*
X16352941Y44040582D01*
X16362707Y44023239D01*
X16390588Y43972214D01*
X16423196Y43909457D01*
X16458658Y43838832D01*
X16495105Y43764202D01*
X16530662Y43689431D01*
X16563460Y43618382D01*
X16591625Y43554919D01*
X16605628Y43521833D01*
X16706898Y43255999D01*
X16792200Y42987490D01*
X16861818Y42715082D01*
X16916032Y42437552D01*
X16955126Y42153677D01*
X16975959Y41917400D01*
X16981689Y41793239D01*
X16983391Y41657121D01*
X16981246Y41513493D01*
X16975433Y41366801D01*
X16966133Y41221489D01*
X16953527Y41082005D01*
X16937793Y40952793D01*
X16936505Y40943733D01*
X16888425Y40667981D01*
X16823915Y40394192D01*
X16743461Y40123549D01*
X16647549Y39857234D01*
X16536665Y39596431D01*
X16411295Y39342321D01*
X16271924Y39096088D01*
X16119038Y38858915D01*
X16027114Y38729700D01*
X15861684Y38518311D01*
X15682964Y38314650D01*
X15492588Y38120231D01*
X15292191Y37936569D01*
X15083406Y37765180D01*
X14867868Y37607579D01*
X14694968Y37494487D01*
X14449052Y37350699D01*
X14200472Y37223151D01*
X13947691Y37111188D01*
X13689171Y37014153D01*
X13423375Y36931392D01*
X13292494Y36896477D01*
X13124789Y36857698D01*
X12951180Y36824368D01*
X12775254Y36796931D01*
X12600603Y36775835D01*
X12430814Y36761526D01*
X12269477Y36754450D01*
X12149200Y36754291D01*
X12017967Y36756966D01*
X11940905Y36947466D01*
X11918239Y37003468D01*
X11890710Y37071437D01*
X11859825Y37147654D01*
X11827093Y37228397D01*
X11794022Y37309947D01*
X11762120Y37388582D01*
X11748720Y37421600D01*
X11719735Y37493037D01*
X11685054Y37578551D01*
X11645334Y37676526D01*
X11601230Y37785340D01*
X11553397Y37903376D01*
X11502492Y38029015D01*
X11449170Y38160637D01*
X11394086Y38296623D01*
X11337897Y38435355D01*
X11281257Y38575213D01*
X11224824Y38714579D01*
X11169251Y38851834D01*
X11115195Y38985358D01*
X11063312Y39113533D01*
X11014256Y39234739D01*
X10968685Y39347359D01*
X10927253Y39449772D01*
X10890616Y39540360D01*
X10860657Y39614466D01*
X10824552Y39703766D01*
X10785710Y39799775D01*
X10745563Y39898955D01*
X10705544Y39997767D01*
X10667087Y40092675D01*
X10631625Y40180138D01*
X10600591Y40256619D01*
X10591462Y40279100D01*
X10567714Y40337595D01*
X10538001Y40410824D01*
X10502713Y40497825D01*
X10462240Y40597637D01*
X10416971Y40709298D01*
X10367297Y40831845D01*
X10313606Y40964318D01*
X10256288Y41105754D01*
X10195732Y41255191D01*
X10132329Y41411668D01*
X10066468Y41574222D01*
X9998538Y41741893D01*
X9928929Y41913718D01*
X9858031Y42088735D01*
X9786233Y42265982D01*
X9713925Y42444498D01*
X9641496Y42623321D01*
X9569336Y42801489D01*
X9497834Y42978040D01*
X9427381Y43152012D01*
X9358365Y43322444D01*
X9291176Y43488373D01*
X9226205Y43648838D01*
X9163840Y43802878D01*
X9104470Y43949529D01*
X9048487Y44087831D01*
X8996278Y44216822D01*
X8948234Y44335539D01*
X8904745Y44443021D01*
X8866199Y44538307D01*
X8832987Y44620433D01*
X8813328Y44669067D01*
X8781694Y44747165D01*
X8751847Y44820523D01*
X8724408Y44887636D01*
X8699998Y44947003D01*
X8679238Y44997119D01*
X8662748Y45036482D01*
X8651149Y45063588D01*
X8645063Y45076935D01*
X8644407Y45078028D01*
X8636464Y45074743D01*
X8636464Y45074743D01*
G37*
X8636464Y45074743D02*
X8619021Y45060307D01*
X8593661Y45036373D01*
X8561967Y45004593D01*
X8525521Y44966619D01*
X8485905Y44924105D01*
X8444702Y44878704D01*
X8403495Y44832067D01*
X8363865Y44785848D01*
X8358221Y44779133D01*
X8179488Y44552856D01*
X8015073Y44317792D01*
X7865227Y44074501D01*
X7730200Y43823544D01*
X7610244Y43565480D01*
X7505610Y43300870D01*
X7416547Y43030274D01*
X7343307Y42754250D01*
X7286141Y42473361D01*
X7264416Y42336500D01*
X7251982Y42247029D01*
X7241922Y42166084D01*
X7234007Y42090159D01*
X7228008Y42015751D01*
X7223697Y41939354D01*
X7220845Y41857465D01*
X7219224Y41766580D01*
X7218606Y41663194D01*
X7218581Y41633767D01*
X7219654Y41492067D01*
X7223127Y41363274D01*
X7229382Y41243483D01*
X7238799Y41128787D01*
X7251759Y41015281D01*
X7268643Y40899059D01*
X7289831Y40776217D01*
X7314785Y40647400D01*
X7377986Y40376579D01*
X7457310Y40108812D01*
X7552180Y39845342D01*
X7662015Y39587411D01*
X7786235Y39336261D01*
X7924262Y39093136D01*
X8075515Y38859278D01*
X8239415Y38635929D01*
X8272378Y38594233D01*
X8460692Y38372180D01*
X8659767Y38163100D01*
X8869188Y37967245D01*
X9088541Y37784867D01*
X9317411Y37616216D01*
X9555384Y37461545D01*
X9802045Y37321104D01*
X10056979Y37195146D01*
X10319773Y37083923D01*
X10590010Y36987685D01*
X10867277Y36906684D01*
X11151159Y36841171D01*
X11167067Y36838001D01*
X11251665Y36822620D01*
X11345779Y36807839D01*
X11445917Y36794039D01*
X11548590Y36781602D01*
X11650305Y36770909D01*
X11747571Y36762343D01*
X11836897Y36756285D01*
X11914793Y36753117D01*
X11946726Y36752735D01*
X12019418Y36752733D01*
X12096926Y36562233D01*
X12214080Y36561573D01*
X12261732Y36561535D01*
X12307748Y36561907D01*
X12347236Y36562622D01*
X12375303Y36563616D01*
X12377800Y36563759D01*
X12672229Y36590013D01*
X12963216Y36632459D01*
X13250083Y36690882D01*
X13532150Y36765068D01*
X13808740Y36854801D01*
X14079173Y36959866D01*
X14342771Y37080050D01*
X14598856Y37215137D01*
X14785422Y37326003D01*
X15027932Y37487154D01*
X15259036Y37660449D01*
X15478455Y37845283D01*
X15685907Y38041049D01*
X15881114Y38247142D01*
X16063796Y38462957D01*
X16233671Y38687889D01*
X16390461Y38921332D01*
X16533884Y39162681D01*
X16663662Y39411329D01*
X16779514Y39666673D01*
X16881160Y39928106D01*
X16968320Y40195022D01*
X17040715Y40466817D01*
X17098063Y40742885D01*
X17140085Y41022621D01*
X17166501Y41305419D01*
X17177031Y41590673D01*
X17171396Y41877779D01*
X17149314Y42166130D01*
X17122387Y42378833D01*
X17072893Y42657752D01*
X17007433Y42935041D01*
X16926633Y43208664D01*
X16831120Y43476584D01*
X16721519Y43736766D01*
X16673541Y43838906D01*
X16650117Y43886636D01*
X16624358Y43938040D01*
X16597549Y43990666D01*
X16570975Y44042061D01*
X16545919Y44089773D01*
X16523667Y44131348D01*
X16505504Y44164334D01*
X16492713Y44186278D01*
X16487734Y44193650D01*
X16479983Y44190922D01*
X16461433Y44181336D01*
X16435657Y44166989D01*
X16406226Y44149982D01*
X16376712Y44132413D01*
X16350685Y44116381D01*
X16331719Y44103985D01*
X16323384Y44097324D01*
X16323267Y44096996D01*
X16327181Y44088259D01*
X16337688Y44068301D01*
X16352941Y44040582D01*
X16362707Y44023239D01*
X16390588Y43972214D01*
X16423196Y43909457D01*
X16458658Y43838832D01*
X16495105Y43764202D01*
X16530662Y43689431D01*
X16563460Y43618382D01*
X16591625Y43554919D01*
X16605628Y43521833D01*
X16706898Y43255999D01*
X16792200Y42987490D01*
X16861818Y42715082D01*
X16916032Y42437552D01*
X16955126Y42153677D01*
X16975959Y41917400D01*
X16981689Y41793239D01*
X16983391Y41657121D01*
X16981246Y41513493D01*
X16975433Y41366801D01*
X16966133Y41221489D01*
X16953527Y41082005D01*
X16937793Y40952793D01*
X16936505Y40943733D01*
X16888425Y40667981D01*
X16823915Y40394192D01*
X16743461Y40123549D01*
X16647549Y39857234D01*
X16536665Y39596431D01*
X16411295Y39342321D01*
X16271924Y39096088D01*
X16119038Y38858915D01*
X16027114Y38729700D01*
X15861684Y38518311D01*
X15682964Y38314650D01*
X15492588Y38120231D01*
X15292191Y37936569D01*
X15083406Y37765180D01*
X14867868Y37607579D01*
X14694968Y37494487D01*
X14449052Y37350699D01*
X14200472Y37223151D01*
X13947691Y37111188D01*
X13689171Y37014153D01*
X13423375Y36931392D01*
X13292494Y36896477D01*
X13124789Y36857698D01*
X12951180Y36824368D01*
X12775254Y36796931D01*
X12600603Y36775835D01*
X12430814Y36761526D01*
X12269477Y36754450D01*
X12149200Y36754291D01*
X12017967Y36756966D01*
X11940905Y36947466D01*
X11918239Y37003468D01*
X11890710Y37071437D01*
X11859825Y37147654D01*
X11827093Y37228397D01*
X11794022Y37309947D01*
X11762120Y37388582D01*
X11748720Y37421600D01*
X11719735Y37493037D01*
X11685054Y37578551D01*
X11645334Y37676526D01*
X11601230Y37785340D01*
X11553397Y37903376D01*
X11502492Y38029015D01*
X11449170Y38160637D01*
X11394086Y38296623D01*
X11337897Y38435355D01*
X11281257Y38575213D01*
X11224824Y38714579D01*
X11169251Y38851834D01*
X11115195Y38985358D01*
X11063312Y39113533D01*
X11014256Y39234739D01*
X10968685Y39347359D01*
X10927253Y39449772D01*
X10890616Y39540360D01*
X10860657Y39614466D01*
X10824552Y39703766D01*
X10785710Y39799775D01*
X10745563Y39898955D01*
X10705544Y39997767D01*
X10667087Y40092675D01*
X10631625Y40180138D01*
X10600591Y40256619D01*
X10591462Y40279100D01*
X10567714Y40337595D01*
X10538001Y40410824D01*
X10502713Y40497825D01*
X10462240Y40597637D01*
X10416971Y40709298D01*
X10367297Y40831845D01*
X10313606Y40964318D01*
X10256288Y41105754D01*
X10195732Y41255191D01*
X10132329Y41411668D01*
X10066468Y41574222D01*
X9998538Y41741893D01*
X9928929Y41913718D01*
X9858031Y42088735D01*
X9786233Y42265982D01*
X9713925Y42444498D01*
X9641496Y42623321D01*
X9569336Y42801489D01*
X9497834Y42978040D01*
X9427381Y43152012D01*
X9358365Y43322444D01*
X9291176Y43488373D01*
X9226205Y43648838D01*
X9163840Y43802878D01*
X9104470Y43949529D01*
X9048487Y44087831D01*
X8996278Y44216822D01*
X8948234Y44335539D01*
X8904745Y44443021D01*
X8866199Y44538307D01*
X8832987Y44620433D01*
X8813328Y44669067D01*
X8781694Y44747165D01*
X8751847Y44820523D01*
X8724408Y44887636D01*
X8699998Y44947003D01*
X8679238Y44997119D01*
X8662748Y45036482D01*
X8651149Y45063588D01*
X8645063Y45076935D01*
X8644407Y45078028D01*
X8636464Y45074743D01*
D11*
G36*
X42436983Y8834240D02*
G01*
X42623999Y8777510D01*
X42796344Y8685389D01*
X42947412Y8561412D01*
X43071389Y8410344D01*
X43163510Y8237999D01*
X43220240Y8050983D01*
X43240000Y7850360D01*
X43240000Y1837640D01*
X43220240Y1637017D01*
X43163510Y1450001D01*
X43071389Y1277656D01*
X42947412Y1126588D01*
X42796344Y1002611D01*
X42623999Y910490D01*
X42436983Y853760D01*
X42236360Y834000D01*
X40003640Y834000D01*
X39803017Y853760D01*
X39616001Y910490D01*
X39443656Y1002611D01*
X39292588Y1126588D01*
X39168611Y1277656D01*
X39076490Y1450001D01*
X39019760Y1637017D01*
X39000000Y1837640D01*
X39000000Y7850360D01*
X39019760Y8050983D01*
X39076490Y8237999D01*
X39168611Y8410344D01*
X39292588Y8561412D01*
X39443656Y8685389D01*
X39616001Y8777510D01*
X39803017Y8834240D01*
X40003640Y8854000D01*
X42236360Y8854000D01*
X42436983Y8834240D01*
X42436983Y8834240D01*
G37*
G36*
X37356983Y8834240D02*
G01*
X37543999Y8777510D01*
X37716344Y8685389D01*
X37867412Y8561412D01*
X37991389Y8410344D01*
X38083510Y8237999D01*
X38140240Y8050983D01*
X38160000Y7850360D01*
X38160000Y1837640D01*
X38140240Y1637017D01*
X38083510Y1450001D01*
X37991389Y1277656D01*
X37867412Y1126588D01*
X37716344Y1002611D01*
X37543999Y910490D01*
X37356983Y853760D01*
X37156360Y834000D01*
X34923640Y834000D01*
X34723017Y853760D01*
X34536001Y910490D01*
X34363656Y1002611D01*
X34212588Y1126588D01*
X34088611Y1277656D01*
X33996490Y1450001D01*
X33939760Y1637017D01*
X33920000Y1837640D01*
X33920000Y7850360D01*
X33939760Y8050983D01*
X33996490Y8237999D01*
X34088611Y8410344D01*
X34212588Y8561412D01*
X34363656Y8685389D01*
X34536001Y8777510D01*
X34723017Y8834240D01*
X34923640Y8854000D01*
X37156360Y8854000D01*
X37356983Y8834240D01*
X37356983Y8834240D01*
G37*
G36*
X11950983Y8834240D02*
G01*
X12137999Y8777510D01*
X12310344Y8685389D01*
X12461412Y8561412D01*
X12585389Y8410344D01*
X12677510Y8237999D01*
X12734240Y8050983D01*
X12754000Y7850360D01*
X12754000Y1837640D01*
X12734240Y1637017D01*
X12677510Y1450001D01*
X12585389Y1277656D01*
X12461412Y1126588D01*
X12310344Y1002611D01*
X12137999Y910490D01*
X11950983Y853760D01*
X11750360Y834000D01*
X9517640Y834000D01*
X9317017Y853760D01*
X9130001Y910490D01*
X8957656Y1002611D01*
X8806588Y1126588D01*
X8682611Y1277656D01*
X8590490Y1450001D01*
X8533760Y1637017D01*
X8514000Y1837640D01*
X8514000Y7850360D01*
X8533760Y8050983D01*
X8590490Y8237999D01*
X8682611Y8410344D01*
X8806588Y8561412D01*
X8957656Y8685389D01*
X9130001Y8777510D01*
X9317017Y8834240D01*
X9517640Y8854000D01*
X11750360Y8854000D01*
X11950983Y8834240D01*
X11950983Y8834240D01*
G37*
G36*
X17030983Y8834240D02*
G01*
X17217999Y8777510D01*
X17390344Y8685389D01*
X17541412Y8561412D01*
X17665389Y8410344D01*
X17757510Y8237999D01*
X17814240Y8050983D01*
X17834000Y7850360D01*
X17834000Y1837640D01*
X17814240Y1637017D01*
X17757510Y1450001D01*
X17665389Y1277656D01*
X17541412Y1126588D01*
X17390344Y1002611D01*
X17217999Y910490D01*
X17030983Y853760D01*
X16830360Y834000D01*
X14597640Y834000D01*
X14397017Y853760D01*
X14210001Y910490D01*
X14037656Y1002611D01*
X13886588Y1126588D01*
X13762611Y1277656D01*
X13670490Y1450001D01*
X13613760Y1637017D01*
X13594000Y1837640D01*
X13594000Y7850360D01*
X13613760Y8050983D01*
X13670490Y8237999D01*
X13762611Y8410344D01*
X13886588Y8561412D01*
X14037656Y8685389D01*
X14210001Y8777510D01*
X14397017Y8834240D01*
X14597640Y8854000D01*
X16830360Y8854000D01*
X17030983Y8834240D01*
X17030983Y8834240D01*
G37*
G36*
X29733983Y8834240D02*
G01*
X29920999Y8777510D01*
X30093344Y8685389D01*
X30244412Y8561412D01*
X30368389Y8410344D01*
X30460510Y8237999D01*
X30517240Y8050983D01*
X30537000Y7850360D01*
X30537000Y1837640D01*
X30517240Y1637017D01*
X30460510Y1450001D01*
X30368389Y1277656D01*
X30244412Y1126588D01*
X30093344Y1002611D01*
X29920999Y910490D01*
X29733983Y853760D01*
X29533360Y834000D01*
X27300640Y834000D01*
X27100017Y853760D01*
X26913001Y910490D01*
X26740656Y1002611D01*
X26589588Y1126588D01*
X26465611Y1277656D01*
X26373490Y1450001D01*
X26316760Y1637017D01*
X26297000Y1837640D01*
X26297000Y7850360D01*
X26316760Y8050983D01*
X26373490Y8237999D01*
X26465611Y8410344D01*
X26589588Y8561412D01*
X26740656Y8685389D01*
X26913001Y8777510D01*
X27100017Y8834240D01*
X27300640Y8854000D01*
X29533360Y8854000D01*
X29733983Y8834240D01*
X29733983Y8834240D01*
G37*
G36*
X24653983Y8834240D02*
G01*
X24840999Y8777510D01*
X25013344Y8685389D01*
X25164412Y8561412D01*
X25288389Y8410344D01*
X25380510Y8237999D01*
X25437240Y8050983D01*
X25457000Y7850360D01*
X25457000Y1837640D01*
X25437240Y1637017D01*
X25380510Y1450001D01*
X25288389Y1277656D01*
X25164412Y1126588D01*
X25013344Y1002611D01*
X24840999Y910490D01*
X24653983Y853760D01*
X24453360Y834000D01*
X22220640Y834000D01*
X22020017Y853760D01*
X21833001Y910490D01*
X21660656Y1002611D01*
X21509588Y1126588D01*
X21385611Y1277656D01*
X21293490Y1450001D01*
X21236760Y1637017D01*
X21217000Y1837640D01*
X21217000Y7850360D01*
X21236760Y8050983D01*
X21293490Y8237999D01*
X21385611Y8410344D01*
X21509588Y8561412D01*
X21660656Y8685389D01*
X21833001Y8777510D01*
X22020017Y8834240D01*
X22220640Y8854000D01*
X24453360Y8854000D01*
X24653983Y8834240D01*
X24653983Y8834240D01*
G37*
G36*
X4021163Y5739413D02*
G01*
X4195041Y5704827D01*
X4522620Y5569139D01*
X4817433Y5372151D01*
X5068151Y5121433D01*
X5265139Y4826620D01*
X5400827Y4499041D01*
X5400827Y4499039D01*
X5468011Y4161286D01*
X5470000Y4151284D01*
X5470000Y3796716D01*
X5400827Y3448959D01*
X5265139Y3121380D01*
X5068151Y2826567D01*
X4817433Y2575849D01*
X4522620Y2378861D01*
X4195041Y2243173D01*
X4021163Y2208587D01*
X3847286Y2174000D01*
X3492714Y2174000D01*
X3318837Y2208587D01*
X3144959Y2243173D01*
X2817380Y2378861D01*
X2522567Y2575849D01*
X2271849Y2826567D01*
X2074861Y3121380D01*
X1939173Y3448959D01*
X1870000Y3796716D01*
X1870000Y4151284D01*
X1871990Y4161286D01*
X1939173Y4499039D01*
X1939173Y4499041D01*
X2074861Y4826620D01*
X2271849Y5121433D01*
X2522567Y5372151D01*
X2817380Y5569139D01*
X3144959Y5704827D01*
X3318837Y5739413D01*
X3492714Y5774000D01*
X3847286Y5774000D01*
X4021163Y5739413D01*
X4021163Y5739413D01*
G37*
G36*
X62011162Y5749414D02*
G01*
X62185041Y5714827D01*
X62512620Y5579139D01*
X62807433Y5382151D01*
X63058151Y5131433D01*
X63255139Y4836620D01*
X63390827Y4509041D01*
X63393291Y4496653D01*
X63460000Y4161286D01*
X63460000Y3806714D01*
X63428803Y3649879D01*
X63390827Y3458959D01*
X63255139Y3131380D01*
X63058151Y2836567D01*
X62807433Y2585849D01*
X62512620Y2388861D01*
X62185041Y2253173D01*
X62011162Y2218586D01*
X61837286Y2184000D01*
X61482714Y2184000D01*
X61308838Y2218586D01*
X61134959Y2253173D01*
X60807380Y2388861D01*
X60512567Y2585849D01*
X60261849Y2836567D01*
X60064861Y3131380D01*
X59929173Y3458959D01*
X59891197Y3649879D01*
X59860000Y3806714D01*
X59860000Y4161286D01*
X59926709Y4496653D01*
X59929173Y4509041D01*
X60064861Y4836620D01*
X60261849Y5131433D01*
X60512567Y5382151D01*
X60807380Y5579139D01*
X61134959Y5714827D01*
X61308838Y5749414D01*
X61482714Y5784000D01*
X61837286Y5784000D01*
X62011162Y5749414D01*
X62011162Y5749414D01*
G37*
G36*
X52689722Y4598344D02*
G01*
X52793566Y4577688D01*
X52850866Y4553953D01*
X52989203Y4496653D01*
X53165272Y4379007D01*
X53315007Y4229272D01*
X53432653Y4053203D01*
X53513688Y3857565D01*
X53555000Y3649879D01*
X53555000Y3438121D01*
X53513688Y3230435D01*
X53432653Y3034797D01*
X53315007Y2858728D01*
X53165272Y2708993D01*
X52989203Y2591347D01*
X52850866Y2534047D01*
X52793566Y2510312D01*
X52689722Y2489656D01*
X52585879Y2469000D01*
X52374121Y2469000D01*
X52270278Y2489656D01*
X52166434Y2510312D01*
X52109134Y2534047D01*
X51970797Y2591347D01*
X51794728Y2708993D01*
X51644993Y2858728D01*
X51527347Y3034797D01*
X51446312Y3230435D01*
X51405000Y3438121D01*
X51405000Y3649879D01*
X51446312Y3857565D01*
X51527347Y4053203D01*
X51644993Y4229272D01*
X51794728Y4379007D01*
X51970797Y4496653D01*
X52109134Y4553953D01*
X52166434Y4577688D01*
X52270278Y4598344D01*
X52374121Y4619000D01*
X52585879Y4619000D01*
X52689722Y4598344D01*
X52689722Y4598344D01*
G37*
G36*
X55189722Y4598344D02*
G01*
X55293566Y4577688D01*
X55350866Y4553953D01*
X55489203Y4496653D01*
X55665272Y4379007D01*
X55815007Y4229272D01*
X55932653Y4053203D01*
X56013688Y3857565D01*
X56055000Y3649879D01*
X56055000Y3438121D01*
X56013688Y3230435D01*
X55932653Y3034797D01*
X55815007Y2858728D01*
X55665272Y2708993D01*
X55489203Y2591347D01*
X55350866Y2534047D01*
X55293566Y2510312D01*
X55189722Y2489656D01*
X55085879Y2469000D01*
X54874121Y2469000D01*
X54770278Y2489656D01*
X54666434Y2510312D01*
X54609134Y2534047D01*
X54470797Y2591347D01*
X54294728Y2708993D01*
X54144993Y2858728D01*
X54027347Y3034797D01*
X53946312Y3230435D01*
X53905000Y3438121D01*
X53905000Y3649879D01*
X53946312Y3857565D01*
X54027347Y4053203D01*
X54144993Y4229272D01*
X54294728Y4379007D01*
X54470797Y4496653D01*
X54609134Y4553953D01*
X54666434Y4577688D01*
X54770278Y4598344D01*
X54874121Y4619000D01*
X55085879Y4619000D01*
X55189722Y4598344D01*
X55189722Y4598344D01*
G37*
G36*
X51055000Y2469000D02*
G01*
X48905000Y2469000D01*
X48905000Y4619000D01*
X51055000Y4619000D01*
X51055000Y2469000D01*
X51055000Y2469000D01*
G37*
G36*
X7073707Y10966403D02*
G01*
X7150836Y10958807D01*
X7348762Y10898767D01*
X7348765Y10898766D01*
X7531170Y10801268D01*
X7691055Y10670055D01*
X7822268Y10510170D01*
X7919766Y10327765D01*
X7919767Y10327762D01*
X7979807Y10129836D01*
X8000080Y9924000D01*
X7979807Y9718164D01*
X7919767Y9520238D01*
X7919766Y9520235D01*
X7822268Y9337830D01*
X7691055Y9177945D01*
X7531170Y9046732D01*
X7348765Y8949234D01*
X7348762Y8949233D01*
X7150836Y8889193D01*
X7073707Y8881597D01*
X6996580Y8874000D01*
X6893420Y8874000D01*
X6816293Y8881597D01*
X6739164Y8889193D01*
X6541238Y8949233D01*
X6541235Y8949234D01*
X6358830Y9046732D01*
X6198945Y9177945D01*
X6067732Y9337830D01*
X5970234Y9520235D01*
X5970233Y9520238D01*
X5910193Y9718164D01*
X5889920Y9924000D01*
X5910193Y10129836D01*
X5970233Y10327762D01*
X5970234Y10327765D01*
X6067732Y10510170D01*
X6198945Y10670055D01*
X6358830Y10801268D01*
X6541235Y10898766D01*
X6541238Y10898767D01*
X6739164Y10958807D01*
X6816293Y10966403D01*
X6893420Y10974000D01*
X6996580Y10974000D01*
X7073707Y10966403D01*
X7073707Y10966403D01*
G37*
G36*
X4533707Y10966403D02*
G01*
X4610836Y10958807D01*
X4808762Y10898767D01*
X4808765Y10898766D01*
X4991170Y10801268D01*
X5151055Y10670055D01*
X5282268Y10510170D01*
X5379766Y10327765D01*
X5379767Y10327762D01*
X5439807Y10129836D01*
X5460080Y9924000D01*
X5439807Y9718164D01*
X5379767Y9520238D01*
X5379766Y9520235D01*
X5282268Y9337830D01*
X5151055Y9177945D01*
X4991170Y9046732D01*
X4808765Y8949234D01*
X4808762Y8949233D01*
X4610836Y8889193D01*
X4533707Y8881597D01*
X4456580Y8874000D01*
X4353420Y8874000D01*
X4276293Y8881597D01*
X4199164Y8889193D01*
X4001238Y8949233D01*
X4001235Y8949234D01*
X3818830Y9046732D01*
X3658945Y9177945D01*
X3527732Y9337830D01*
X3430234Y9520235D01*
X3430233Y9520238D01*
X3370193Y9718164D01*
X3349920Y9924000D01*
X3370193Y10129836D01*
X3430233Y10327762D01*
X3430234Y10327765D01*
X3527732Y10510170D01*
X3658945Y10670055D01*
X3818830Y10801268D01*
X4001235Y10898766D01*
X4001238Y10898767D01*
X4199164Y10958807D01*
X4276293Y10966403D01*
X4353420Y10974000D01*
X4456580Y10974000D01*
X4533707Y10966403D01*
X4533707Y10966403D01*
G37*
G36*
X2915000Y8874000D02*
G01*
X815000Y8874000D01*
X815000Y10974000D01*
X2915000Y10974000D01*
X2915000Y8874000D01*
X2915000Y8874000D01*
G37*
G36*
X2915000Y11414000D02*
G01*
X815000Y11414000D01*
X815000Y13514000D01*
X2915000Y13514000D01*
X2915000Y11414000D01*
X2915000Y11414000D01*
G37*
G36*
X7073707Y13506403D02*
G01*
X7150836Y13498807D01*
X7348762Y13438767D01*
X7348765Y13438766D01*
X7531170Y13341268D01*
X7691055Y13210055D01*
X7822268Y13050170D01*
X7919766Y12867765D01*
X7919767Y12867762D01*
X7979807Y12669836D01*
X8000080Y12464000D01*
X7979807Y12258164D01*
X7969072Y12222776D01*
X7919766Y12060235D01*
X7822268Y11877830D01*
X7691055Y11717945D01*
X7531170Y11586732D01*
X7348765Y11489234D01*
X7348762Y11489233D01*
X7150836Y11429193D01*
X7073707Y11421596D01*
X6996580Y11414000D01*
X6893420Y11414000D01*
X6816293Y11421596D01*
X6739164Y11429193D01*
X6541238Y11489233D01*
X6541235Y11489234D01*
X6358830Y11586732D01*
X6198945Y11717945D01*
X6067732Y11877830D01*
X5970234Y12060235D01*
X5920928Y12222776D01*
X5910193Y12258164D01*
X5889920Y12464000D01*
X5910193Y12669836D01*
X5970233Y12867762D01*
X5970234Y12867765D01*
X6067732Y13050170D01*
X6198945Y13210055D01*
X6358830Y13341268D01*
X6541235Y13438766D01*
X6541238Y13438767D01*
X6739164Y13498807D01*
X6816293Y13506403D01*
X6893420Y13514000D01*
X6996580Y13514000D01*
X7073707Y13506403D01*
X7073707Y13506403D01*
G37*
G36*
X4533707Y13506403D02*
G01*
X4610836Y13498807D01*
X4808762Y13438767D01*
X4808765Y13438766D01*
X4991170Y13341268D01*
X5151055Y13210055D01*
X5282268Y13050170D01*
X5379766Y12867765D01*
X5379767Y12867762D01*
X5439807Y12669836D01*
X5460080Y12464000D01*
X5439807Y12258164D01*
X5429072Y12222776D01*
X5379766Y12060235D01*
X5282268Y11877830D01*
X5151055Y11717945D01*
X4991170Y11586732D01*
X4808765Y11489234D01*
X4808762Y11489233D01*
X4610836Y11429193D01*
X4533707Y11421596D01*
X4456580Y11414000D01*
X4353420Y11414000D01*
X4276293Y11421596D01*
X4199164Y11429193D01*
X4001238Y11489233D01*
X4001235Y11489234D01*
X3818830Y11586732D01*
X3658945Y11717945D01*
X3527732Y11877830D01*
X3430234Y12060235D01*
X3380928Y12222776D01*
X3370193Y12258164D01*
X3349920Y12464000D01*
X3370193Y12669836D01*
X3430233Y12867762D01*
X3430234Y12867765D01*
X3527732Y13050170D01*
X3658945Y13210055D01*
X3818830Y13341268D01*
X4001235Y13438766D01*
X4001238Y13438767D01*
X4199164Y13498807D01*
X4276293Y13506403D01*
X4353420Y13514000D01*
X4456580Y13514000D01*
X4533707Y13506403D01*
X4533707Y13506403D01*
G37*
G36*
X39176000Y13057598D02*
G01*
X39178402Y13033212D01*
X39185515Y13009763D01*
X39197066Y12988152D01*
X39212611Y12969210D01*
X39231553Y12953665D01*
X39253164Y12942114D01*
X39276613Y12935001D01*
X39300999Y12932599D01*
X39325385Y12935001D01*
X39359921Y12947358D01*
X39476825Y13009845D01*
X39608776Y13049872D01*
X39711610Y13060000D01*
X39780390Y13060000D01*
X39883224Y13049872D01*
X40015175Y13009845D01*
X40136781Y12944845D01*
X40243370Y12857370D01*
X40330845Y12750781D01*
X40395845Y12629175D01*
X40435872Y12497224D01*
X40449387Y12360000D01*
X40435872Y12222776D01*
X40395845Y12090825D01*
X40330845Y11969219D01*
X40243370Y11862630D01*
X40136781Y11775155D01*
X40015175Y11710155D01*
X39883224Y11670128D01*
X39780390Y11660000D01*
X39711610Y11660000D01*
X39608776Y11670128D01*
X39476825Y11710155D01*
X39359920Y11772642D01*
X39337284Y11782019D01*
X39313251Y11786799D01*
X39288747Y11786799D01*
X39264714Y11782019D01*
X39242075Y11772641D01*
X39221700Y11759027D01*
X39204373Y11741700D01*
X39190760Y11721326D01*
X39181382Y11698687D01*
X39176000Y11662402D01*
X39176000Y11660000D01*
X37776000Y11660000D01*
X37776000Y13060000D01*
X39176000Y13060000D01*
X39176000Y13057598D01*
X39176000Y13057598D01*
G37*
G36*
X7063707Y16046403D02*
G01*
X7140836Y16038807D01*
X7338762Y15978767D01*
X7338765Y15978766D01*
X7521170Y15881268D01*
X7681055Y15750055D01*
X7812268Y15590170D01*
X7909766Y15407765D01*
X7909767Y15407762D01*
X7969807Y15209836D01*
X7990080Y15004000D01*
X7969807Y14798164D01*
X7909767Y14600238D01*
X7909766Y14600235D01*
X7812268Y14417830D01*
X7681055Y14257945D01*
X7521170Y14126732D01*
X7338765Y14029234D01*
X7338762Y14029233D01*
X7140836Y13969193D01*
X7063707Y13961597D01*
X6986580Y13954000D01*
X6883420Y13954000D01*
X6806293Y13961597D01*
X6729164Y13969193D01*
X6531238Y14029233D01*
X6531235Y14029234D01*
X6348830Y14126732D01*
X6188945Y14257945D01*
X6057732Y14417830D01*
X5960234Y14600235D01*
X5960233Y14600238D01*
X5900193Y14798164D01*
X5879920Y15004000D01*
X5900193Y15209836D01*
X5960233Y15407762D01*
X5960234Y15407765D01*
X6057732Y15590170D01*
X6188945Y15750055D01*
X6348830Y15881268D01*
X6531235Y15978766D01*
X6531238Y15978767D01*
X6729164Y16038807D01*
X6806293Y16046403D01*
X6883420Y16054000D01*
X6986580Y16054000D01*
X7063707Y16046403D01*
X7063707Y16046403D01*
G37*
G36*
X4523707Y16046403D02*
G01*
X4600836Y16038807D01*
X4798762Y15978767D01*
X4798765Y15978766D01*
X4981170Y15881268D01*
X5141055Y15750055D01*
X5272268Y15590170D01*
X5369766Y15407765D01*
X5369767Y15407762D01*
X5429807Y15209836D01*
X5450080Y15004000D01*
X5429807Y14798164D01*
X5369767Y14600238D01*
X5369766Y14600235D01*
X5272268Y14417830D01*
X5141055Y14257945D01*
X4981170Y14126732D01*
X4798765Y14029234D01*
X4798762Y14029233D01*
X4600836Y13969193D01*
X4523707Y13961597D01*
X4446580Y13954000D01*
X4343420Y13954000D01*
X4266293Y13961597D01*
X4189164Y13969193D01*
X3991238Y14029233D01*
X3991235Y14029234D01*
X3808830Y14126732D01*
X3648945Y14257945D01*
X3517732Y14417830D01*
X3420234Y14600235D01*
X3420233Y14600238D01*
X3360193Y14798164D01*
X3339920Y15004000D01*
X3360193Y15209836D01*
X3420233Y15407762D01*
X3420234Y15407765D01*
X3517732Y15590170D01*
X3648945Y15750055D01*
X3808830Y15881268D01*
X3991235Y15978766D01*
X3991238Y15978767D01*
X4189164Y16038807D01*
X4266293Y16046403D01*
X4343420Y16054000D01*
X4446580Y16054000D01*
X4523707Y16046403D01*
X4523707Y16046403D01*
G37*
G36*
X2905000Y13954000D02*
G01*
X805000Y13954000D01*
X805000Y16054000D01*
X2905000Y16054000D01*
X2905000Y13954000D01*
X2905000Y13954000D01*
G37*
G36*
X7063707Y18586403D02*
G01*
X7140836Y18578807D01*
X7338762Y18518767D01*
X7338765Y18518766D01*
X7521170Y18421268D01*
X7681055Y18290055D01*
X7812268Y18130170D01*
X7909766Y17947765D01*
X7909767Y17947762D01*
X7969807Y17749836D01*
X7990080Y17544000D01*
X7969807Y17338164D01*
X7944233Y17253859D01*
X7909766Y17140235D01*
X7812268Y16957830D01*
X7681055Y16797945D01*
X7521170Y16666732D01*
X7338765Y16569234D01*
X7338762Y16569233D01*
X7140836Y16509193D01*
X7063707Y16501596D01*
X6986580Y16494000D01*
X6883420Y16494000D01*
X6806293Y16501596D01*
X6729164Y16509193D01*
X6531238Y16569233D01*
X6531235Y16569234D01*
X6348830Y16666732D01*
X6188945Y16797945D01*
X6057732Y16957830D01*
X5960234Y17140235D01*
X5925767Y17253859D01*
X5900193Y17338164D01*
X5879920Y17544000D01*
X5900193Y17749836D01*
X5960233Y17947762D01*
X5960234Y17947765D01*
X6057732Y18130170D01*
X6188945Y18290055D01*
X6348830Y18421268D01*
X6531235Y18518766D01*
X6531238Y18518767D01*
X6729164Y18578807D01*
X6806293Y18586403D01*
X6883420Y18594000D01*
X6986580Y18594000D01*
X7063707Y18586403D01*
X7063707Y18586403D01*
G37*
G36*
X4523707Y18586403D02*
G01*
X4600836Y18578807D01*
X4798762Y18518767D01*
X4798765Y18518766D01*
X4981170Y18421268D01*
X5141055Y18290055D01*
X5272268Y18130170D01*
X5369766Y17947765D01*
X5369767Y17947762D01*
X5429807Y17749836D01*
X5450080Y17544000D01*
X5429807Y17338164D01*
X5404233Y17253859D01*
X5369766Y17140235D01*
X5272268Y16957830D01*
X5141055Y16797945D01*
X4981170Y16666732D01*
X4798765Y16569234D01*
X4798762Y16569233D01*
X4600836Y16509193D01*
X4523707Y16501596D01*
X4446580Y16494000D01*
X4343420Y16494000D01*
X4266293Y16501596D01*
X4189164Y16509193D01*
X3991238Y16569233D01*
X3991235Y16569234D01*
X3808830Y16666732D01*
X3648945Y16797945D01*
X3517732Y16957830D01*
X3420234Y17140235D01*
X3385767Y17253859D01*
X3360193Y17338164D01*
X3339920Y17544000D01*
X3360193Y17749836D01*
X3420233Y17947762D01*
X3420234Y17947765D01*
X3517732Y18130170D01*
X3648945Y18290055D01*
X3808830Y18421268D01*
X3991235Y18518766D01*
X3991238Y18518767D01*
X4189164Y18578807D01*
X4266293Y18586403D01*
X4343420Y18594000D01*
X4446580Y18594000D01*
X4523707Y18586403D01*
X4523707Y18586403D01*
G37*
G36*
X2905000Y16494000D02*
G01*
X805000Y16494000D01*
X805000Y18594000D01*
X2905000Y18594000D01*
X2905000Y16494000D01*
X2905000Y16494000D01*
G37*
G36*
X58524845Y19621190D02*
G01*
X58769896Y19546855D01*
X58995736Y19426140D01*
X59193687Y19263687D01*
X59356140Y19065736D01*
X59476855Y18839896D01*
X59551190Y18594845D01*
X59576290Y18340000D01*
X59551190Y18085155D01*
X59476855Y17840104D01*
X59356140Y17614264D01*
X59193687Y17416313D01*
X58995736Y17253860D01*
X58769896Y17133145D01*
X58524845Y17058810D01*
X58333864Y17040000D01*
X56006136Y17040000D01*
X55815155Y17058810D01*
X55570104Y17133145D01*
X55344264Y17253860D01*
X55146313Y17416313D01*
X54983860Y17614264D01*
X54863145Y17840104D01*
X54788810Y18085155D01*
X54763710Y18340000D01*
X54788810Y18594845D01*
X54863145Y18839896D01*
X54983860Y19065736D01*
X55146313Y19263687D01*
X55344264Y19426140D01*
X55570104Y19546855D01*
X55815155Y19621190D01*
X56006136Y19640000D01*
X58333864Y19640000D01*
X58524845Y19621190D01*
X58524845Y19621190D01*
G37*
G36*
X61424845Y22421190D02*
G01*
X61669896Y22346855D01*
X61895736Y22226140D01*
X62093687Y22063687D01*
X62256140Y21865736D01*
X62376855Y21639896D01*
X62451190Y21394845D01*
X62476290Y21140000D01*
X62451190Y20885155D01*
X62376855Y20640104D01*
X62256140Y20414264D01*
X62093687Y20216313D01*
X61895736Y20053860D01*
X61669896Y19933145D01*
X61424845Y19858810D01*
X61233864Y19840000D01*
X58906136Y19840000D01*
X58715155Y19858810D01*
X58470104Y19933145D01*
X58244264Y20053860D01*
X58046313Y20216313D01*
X57883860Y20414264D01*
X57763145Y20640104D01*
X57688810Y20885155D01*
X57663710Y21140000D01*
X57688810Y21394845D01*
X57763145Y21639896D01*
X57883860Y21865736D01*
X58046313Y22063687D01*
X58244264Y22226140D01*
X58470104Y22346855D01*
X58715155Y22421190D01*
X58906136Y22440000D01*
X61233864Y22440000D01*
X61424845Y22421190D01*
X61424845Y22421190D01*
G37*
G36*
X54024844Y26521190D02*
G01*
X54269895Y26446855D01*
X54495735Y26326140D01*
X54693687Y26163687D01*
X54856140Y25965736D01*
X54976855Y25739896D01*
X55051190Y25494845D01*
X55070000Y25303864D01*
X55070000Y22976136D01*
X55051190Y22785155D01*
X54976855Y22540104D01*
X54856140Y22314264D01*
X54693687Y22116313D01*
X54495736Y21953860D01*
X54269896Y21833145D01*
X54024845Y21758810D01*
X53770000Y21733710D01*
X53515156Y21758810D01*
X53270105Y21833145D01*
X53044265Y21953860D01*
X52846314Y22116313D01*
X52683861Y22314264D01*
X52563146Y22540104D01*
X52488811Y22785155D01*
X52470001Y22976136D01*
X52470000Y25303863D01*
X52488810Y25494844D01*
X52563145Y25739895D01*
X52683860Y25965735D01*
X52846313Y26163687D01*
X53044264Y26326140D01*
X53270104Y26446855D01*
X53515155Y26521190D01*
X53770000Y26546290D01*
X54024844Y26521190D01*
X54024844Y26521190D01*
G37*
G36*
X27986707Y36020404D02*
G01*
X28063836Y36012807D01*
X28261762Y35952767D01*
X28261765Y35952766D01*
X28444170Y35855268D01*
X28604055Y35724055D01*
X28735268Y35564170D01*
X28832766Y35381765D01*
X28832767Y35381762D01*
X28892807Y35183836D01*
X28913080Y34978000D01*
X28892807Y34772164D01*
X28832767Y34574238D01*
X28832766Y34574235D01*
X28735268Y34391830D01*
X28604055Y34231945D01*
X28444170Y34100732D01*
X28261765Y34003234D01*
X28261762Y34003233D01*
X28063836Y33943193D01*
X27986707Y33935596D01*
X27909580Y33928000D01*
X27806420Y33928000D01*
X27729293Y33935596D01*
X27652164Y33943193D01*
X27454238Y34003233D01*
X27454235Y34003234D01*
X27271830Y34100732D01*
X27111945Y34231945D01*
X26980732Y34391830D01*
X26883234Y34574235D01*
X26883233Y34574238D01*
X26823193Y34772164D01*
X26802920Y34978000D01*
X26823193Y35183836D01*
X26883233Y35381762D01*
X26883234Y35381765D01*
X26980732Y35564170D01*
X27111945Y35724055D01*
X27271830Y35855268D01*
X27454235Y35952766D01*
X27454238Y35952767D01*
X27652164Y36012807D01*
X27729293Y36020404D01*
X27806420Y36028000D01*
X27909580Y36028000D01*
X27986707Y36020404D01*
X27986707Y36020404D01*
G37*
G36*
X25446707Y36020404D02*
G01*
X25523836Y36012807D01*
X25721762Y35952767D01*
X25721765Y35952766D01*
X25904170Y35855268D01*
X26064055Y35724055D01*
X26195268Y35564170D01*
X26292766Y35381765D01*
X26292767Y35381762D01*
X26352807Y35183836D01*
X26373080Y34978000D01*
X26352807Y34772164D01*
X26292767Y34574238D01*
X26292766Y34574235D01*
X26195268Y34391830D01*
X26064055Y34231945D01*
X25904170Y34100732D01*
X25721765Y34003234D01*
X25721762Y34003233D01*
X25523836Y33943193D01*
X25446707Y33935596D01*
X25369580Y33928000D01*
X25266420Y33928000D01*
X25189293Y33935596D01*
X25112164Y33943193D01*
X24914238Y34003233D01*
X24914235Y34003234D01*
X24731830Y34100732D01*
X24571945Y34231945D01*
X24440732Y34391830D01*
X24343234Y34574235D01*
X24343233Y34574238D01*
X24283193Y34772164D01*
X24262920Y34978000D01*
X24283193Y35183836D01*
X24343233Y35381762D01*
X24343234Y35381765D01*
X24440732Y35564170D01*
X24571945Y35724055D01*
X24731830Y35855268D01*
X24914235Y35952766D01*
X24914238Y35952767D01*
X25112164Y36012807D01*
X25189293Y36020404D01*
X25266420Y36028000D01*
X25369580Y36028000D01*
X25446707Y36020404D01*
X25446707Y36020404D01*
G37*
G36*
X30526707Y36020404D02*
G01*
X30603836Y36012807D01*
X30801762Y35952767D01*
X30801765Y35952766D01*
X30984170Y35855268D01*
X31144055Y35724055D01*
X31275268Y35564170D01*
X31372766Y35381765D01*
X31372767Y35381762D01*
X31432807Y35183836D01*
X31453080Y34978000D01*
X31432807Y34772164D01*
X31372767Y34574238D01*
X31372766Y34574235D01*
X31275268Y34391830D01*
X31144055Y34231945D01*
X30984170Y34100732D01*
X30801765Y34003234D01*
X30801762Y34003233D01*
X30603836Y33943193D01*
X30526707Y33935596D01*
X30449580Y33928000D01*
X30346420Y33928000D01*
X30269293Y33935596D01*
X30192164Y33943193D01*
X29994238Y34003233D01*
X29994235Y34003234D01*
X29811830Y34100732D01*
X29651945Y34231945D01*
X29520732Y34391830D01*
X29423234Y34574235D01*
X29423233Y34574238D01*
X29363193Y34772164D01*
X29342920Y34978000D01*
X29363193Y35183836D01*
X29423233Y35381762D01*
X29423234Y35381765D01*
X29520732Y35564170D01*
X29651945Y35724055D01*
X29811830Y35855268D01*
X29994235Y35952766D01*
X29994238Y35952767D01*
X30192164Y36012807D01*
X30269293Y36020404D01*
X30346420Y36028000D01*
X30449580Y36028000D01*
X30526707Y36020404D01*
X30526707Y36020404D01*
G37*
G36*
X33066707Y36020404D02*
G01*
X33143836Y36012807D01*
X33341762Y35952767D01*
X33341765Y35952766D01*
X33524170Y35855268D01*
X33684055Y35724055D01*
X33815268Y35564170D01*
X33912766Y35381765D01*
X33912767Y35381762D01*
X33972807Y35183836D01*
X33993080Y34978000D01*
X33972807Y34772164D01*
X33912767Y34574238D01*
X33912766Y34574235D01*
X33815268Y34391830D01*
X33684055Y34231945D01*
X33524170Y34100732D01*
X33341765Y34003234D01*
X33341762Y34003233D01*
X33143836Y33943193D01*
X33066707Y33935596D01*
X32989580Y33928000D01*
X32886420Y33928000D01*
X32809293Y33935596D01*
X32732164Y33943193D01*
X32534238Y34003233D01*
X32534235Y34003234D01*
X32351830Y34100732D01*
X32191945Y34231945D01*
X32060732Y34391830D01*
X31963234Y34574235D01*
X31963233Y34574238D01*
X31903193Y34772164D01*
X31882920Y34978000D01*
X31903193Y35183836D01*
X31963233Y35381762D01*
X31963234Y35381765D01*
X32060732Y35564170D01*
X32191945Y35724055D01*
X32351830Y35855268D01*
X32534235Y35952766D01*
X32534238Y35952767D01*
X32732164Y36012807D01*
X32809293Y36020404D01*
X32886420Y36028000D01*
X32989580Y36028000D01*
X33066707Y36020404D01*
X33066707Y36020404D01*
G37*
G36*
X35606707Y36020404D02*
G01*
X35683836Y36012807D01*
X35881762Y35952767D01*
X35881765Y35952766D01*
X36064170Y35855268D01*
X36224055Y35724055D01*
X36355268Y35564170D01*
X36452766Y35381765D01*
X36452767Y35381762D01*
X36512807Y35183836D01*
X36533080Y34978000D01*
X36512807Y34772164D01*
X36452767Y34574238D01*
X36452766Y34574235D01*
X36355268Y34391830D01*
X36224055Y34231945D01*
X36064170Y34100732D01*
X35881765Y34003234D01*
X35881762Y34003233D01*
X35683836Y33943193D01*
X35606707Y33935596D01*
X35529580Y33928000D01*
X35426420Y33928000D01*
X35349293Y33935596D01*
X35272164Y33943193D01*
X35074238Y34003233D01*
X35074235Y34003234D01*
X34891830Y34100732D01*
X34731945Y34231945D01*
X34600732Y34391830D01*
X34503234Y34574235D01*
X34503233Y34574238D01*
X34443193Y34772164D01*
X34422920Y34978000D01*
X34443193Y35183836D01*
X34503233Y35381762D01*
X34503234Y35381765D01*
X34600732Y35564170D01*
X34731945Y35724055D01*
X34891830Y35855268D01*
X35074235Y35952766D01*
X35074238Y35952767D01*
X35272164Y36012807D01*
X35349293Y36020404D01*
X35426420Y36028000D01*
X35529580Y36028000D01*
X35606707Y36020404D01*
X35606707Y36020404D01*
G37*
G36*
X38146707Y36020404D02*
G01*
X38223836Y36012807D01*
X38421762Y35952767D01*
X38421765Y35952766D01*
X38604170Y35855268D01*
X38764055Y35724055D01*
X38895268Y35564170D01*
X38992766Y35381765D01*
X38992767Y35381762D01*
X39052807Y35183836D01*
X39073080Y34978000D01*
X39052807Y34772164D01*
X38992767Y34574238D01*
X38992766Y34574235D01*
X38895268Y34391830D01*
X38764055Y34231945D01*
X38604170Y34100732D01*
X38421765Y34003234D01*
X38421762Y34003233D01*
X38223836Y33943193D01*
X38146707Y33935596D01*
X38069580Y33928000D01*
X37966420Y33928000D01*
X37889293Y33935596D01*
X37812164Y33943193D01*
X37614238Y34003233D01*
X37614235Y34003234D01*
X37431830Y34100732D01*
X37271945Y34231945D01*
X37140732Y34391830D01*
X37043234Y34574235D01*
X37043233Y34574238D01*
X36983193Y34772164D01*
X36962920Y34978000D01*
X36983193Y35183836D01*
X37043233Y35381762D01*
X37043234Y35381765D01*
X37140732Y35564170D01*
X37271945Y35724055D01*
X37431830Y35855268D01*
X37614235Y35952766D01*
X37614238Y35952767D01*
X37812164Y36012807D01*
X37889293Y36020404D01*
X37966420Y36028000D01*
X38069580Y36028000D01*
X38146707Y36020404D01*
X38146707Y36020404D01*
G37*
G36*
X40686707Y36020404D02*
G01*
X40763836Y36012807D01*
X40961762Y35952767D01*
X40961765Y35952766D01*
X41144170Y35855268D01*
X41304055Y35724055D01*
X41435268Y35564170D01*
X41532766Y35381765D01*
X41532767Y35381762D01*
X41592807Y35183836D01*
X41613080Y34978000D01*
X41592807Y34772164D01*
X41532767Y34574238D01*
X41532766Y34574235D01*
X41435268Y34391830D01*
X41304055Y34231945D01*
X41144170Y34100732D01*
X40961765Y34003234D01*
X40961762Y34003233D01*
X40763836Y33943193D01*
X40686707Y33935596D01*
X40609580Y33928000D01*
X40506420Y33928000D01*
X40429293Y33935596D01*
X40352164Y33943193D01*
X40154238Y34003233D01*
X40154235Y34003234D01*
X39971830Y34100732D01*
X39811945Y34231945D01*
X39680732Y34391830D01*
X39583234Y34574235D01*
X39583233Y34574238D01*
X39523193Y34772164D01*
X39502920Y34978000D01*
X39523193Y35183836D01*
X39583233Y35381762D01*
X39583234Y35381765D01*
X39680732Y35564170D01*
X39811945Y35724055D01*
X39971830Y35855268D01*
X40154235Y35952766D01*
X40154238Y35952767D01*
X40352164Y36012807D01*
X40429293Y36020404D01*
X40506420Y36028000D01*
X40609580Y36028000D01*
X40686707Y36020404D01*
X40686707Y36020404D01*
G37*
G36*
X44148000Y33928000D02*
G01*
X42048000Y33928000D01*
X42048000Y36028000D01*
X44148000Y36028000D01*
X44148000Y33928000D01*
X44148000Y33928000D01*
G37*
G36*
X51870604Y40705032D02*
G01*
X52045678Y40632514D01*
X52045679Y40632513D01*
X52203237Y40527237D01*
X52337237Y40393237D01*
X52406217Y40290000D01*
X52442514Y40235678D01*
X52515032Y40060604D01*
X52552000Y39874750D01*
X52552000Y39685250D01*
X52515032Y39499396D01*
X52442514Y39324322D01*
X52442513Y39324321D01*
X52337237Y39166763D01*
X52203237Y39032763D01*
X52071879Y38944993D01*
X52045678Y38927486D01*
X51958142Y38891228D01*
X51870604Y38854968D01*
X51684750Y38818000D01*
X51495250Y38818000D01*
X51309396Y38854968D01*
X51134322Y38927486D01*
X51108121Y38944993D01*
X50976763Y39032763D01*
X50842763Y39166763D01*
X50737487Y39324321D01*
X50737486Y39324322D01*
X50664968Y39499396D01*
X50628000Y39685250D01*
X50628000Y39874750D01*
X50664968Y40060604D01*
X50737486Y40235678D01*
X50773783Y40290000D01*
X50842763Y40393237D01*
X50976763Y40527237D01*
X51134321Y40632513D01*
X51134322Y40632514D01*
X51309396Y40705032D01*
X51495250Y40742000D01*
X51684750Y40742000D01*
X51870604Y40705032D01*
X51870604Y40705032D01*
G37*
G36*
X4810000Y40290000D02*
G01*
X2710000Y40290000D01*
X2710000Y42390000D01*
X4810000Y42390000D01*
X4810000Y40290000D01*
X4810000Y40290000D01*
G37*
G36*
X63200026Y42663885D02*
G01*
X63418411Y42573427D01*
X63418413Y42573426D01*
X63614955Y42442101D01*
X63782101Y42274955D01*
X63913427Y42078411D01*
X64003885Y41860026D01*
X64050000Y41628191D01*
X64050000Y41391809D01*
X64003885Y41159974D01*
X63913427Y40941589D01*
X63913426Y40941587D01*
X63782101Y40745045D01*
X63614955Y40577899D01*
X63418413Y40446574D01*
X63418412Y40446573D01*
X63418411Y40446573D01*
X63200026Y40356115D01*
X62968191Y40310000D01*
X62731809Y40310000D01*
X62499974Y40356115D01*
X62281589Y40446573D01*
X62281588Y40446573D01*
X62281587Y40446574D01*
X62085045Y40577899D01*
X61917899Y40745045D01*
X61786574Y40941587D01*
X61786573Y40941589D01*
X61696115Y41159974D01*
X61650000Y41391809D01*
X61650000Y41628191D01*
X61696115Y41860026D01*
X61786573Y42078411D01*
X61917899Y42274955D01*
X62085045Y42442101D01*
X62281587Y42573426D01*
X62281589Y42573427D01*
X62499974Y42663885D01*
X62731809Y42710000D01*
X62968191Y42710000D01*
X63200026Y42663885D01*
X63200026Y42663885D01*
G37*
G36*
X56700026Y42663885D02*
G01*
X56918411Y42573427D01*
X56918413Y42573426D01*
X57114955Y42442101D01*
X57282101Y42274955D01*
X57413427Y42078411D01*
X57503885Y41860026D01*
X57550000Y41628191D01*
X57550000Y41391809D01*
X57503885Y41159974D01*
X57413427Y40941589D01*
X57413426Y40941587D01*
X57282101Y40745045D01*
X57114955Y40577899D01*
X56918413Y40446574D01*
X56918412Y40446573D01*
X56918411Y40446573D01*
X56700026Y40356115D01*
X56468191Y40310000D01*
X56231809Y40310000D01*
X55999974Y40356115D01*
X55781589Y40446573D01*
X55781588Y40446573D01*
X55781587Y40446574D01*
X55585045Y40577899D01*
X55417899Y40745045D01*
X55286574Y40941587D01*
X55286573Y40941589D01*
X55196115Y41159974D01*
X55150000Y41391809D01*
X55150000Y41628191D01*
X55196115Y41860026D01*
X55286573Y42078411D01*
X55417899Y42274955D01*
X55585045Y42442101D01*
X55781587Y42573426D01*
X55781589Y42573427D01*
X55999974Y42663885D01*
X56231809Y42710000D01*
X56468191Y42710000D01*
X56700026Y42663885D01*
X56700026Y42663885D01*
G37*
G36*
X51870604Y43245032D02*
G01*
X52045678Y43172514D01*
X52045679Y43172513D01*
X52203237Y43067237D01*
X52337237Y42933237D01*
X52406217Y42830000D01*
X52442514Y42775678D01*
X52469718Y42710000D01*
X52515032Y42600604D01*
X52552000Y42414750D01*
X52552000Y42225250D01*
X52515032Y42039396D01*
X52442514Y41864322D01*
X52442513Y41864321D01*
X52337237Y41706763D01*
X52203237Y41572763D01*
X52071879Y41484993D01*
X52045678Y41467486D01*
X51870604Y41394968D01*
X51684750Y41358000D01*
X51495250Y41358000D01*
X51309396Y41394968D01*
X51221858Y41431228D01*
X51134322Y41467486D01*
X51108121Y41484993D01*
X50976763Y41572763D01*
X50842763Y41706763D01*
X50737487Y41864321D01*
X50737486Y41864322D01*
X50664968Y42039396D01*
X50628000Y42225250D01*
X50628000Y42414750D01*
X50664968Y42600604D01*
X50710282Y42710000D01*
X50737486Y42775678D01*
X50773783Y42830000D01*
X50842763Y42933237D01*
X50976763Y43067237D01*
X51134321Y43172513D01*
X51134322Y43172514D01*
X51309396Y43245032D01*
X51495250Y43282000D01*
X51684750Y43282000D01*
X51870604Y43245032D01*
X51870604Y43245032D01*
G37*
G36*
X3888707Y44922403D02*
G01*
X3965836Y44914807D01*
X4159315Y44856116D01*
X4163765Y44854766D01*
X4346170Y44757268D01*
X4506055Y44626055D01*
X4637268Y44466170D01*
X4734766Y44283765D01*
X4734767Y44283762D01*
X4794807Y44085836D01*
X4815080Y43880000D01*
X4794807Y43674164D01*
X4734767Y43476238D01*
X4734766Y43476235D01*
X4637268Y43293830D01*
X4506055Y43133945D01*
X4346170Y43002732D01*
X4163765Y42905234D01*
X4163762Y42905233D01*
X3965836Y42845193D01*
X3888707Y42837596D01*
X3811580Y42830000D01*
X3708420Y42830000D01*
X3631293Y42837596D01*
X3554164Y42845193D01*
X3356238Y42905233D01*
X3356235Y42905234D01*
X3173830Y43002732D01*
X3013945Y43133945D01*
X2882732Y43293830D01*
X2785234Y43476235D01*
X2785233Y43476238D01*
X2725193Y43674164D01*
X2704920Y43880000D01*
X2725193Y44085836D01*
X2785233Y44283762D01*
X2785234Y44283765D01*
X2882732Y44466170D01*
X3013945Y44626055D01*
X3173830Y44757268D01*
X3356235Y44854766D01*
X3360685Y44856116D01*
X3554164Y44914807D01*
X3631293Y44922403D01*
X3708420Y44930000D01*
X3811580Y44930000D01*
X3888707Y44922403D01*
X3888707Y44922403D01*
G37*
G36*
X51870604Y45775032D02*
G01*
X52045678Y45702514D01*
X52045679Y45702513D01*
X52203237Y45597237D01*
X52337237Y45463237D01*
X52399535Y45370000D01*
X52442514Y45305678D01*
X52467629Y45245045D01*
X52515032Y45130604D01*
X52552000Y44944750D01*
X52552000Y44755250D01*
X52515032Y44569396D01*
X52478772Y44481858D01*
X52442514Y44394322D01*
X52442513Y44394321D01*
X52337237Y44236763D01*
X52203237Y44102763D01*
X52071879Y44014993D01*
X52045678Y43997486D01*
X51958142Y43961228D01*
X51870604Y43924968D01*
X51684750Y43888000D01*
X51495250Y43888000D01*
X51309396Y43924968D01*
X51221858Y43961228D01*
X51134322Y43997486D01*
X51108121Y44014993D01*
X50976763Y44102763D01*
X50842763Y44236763D01*
X50737487Y44394321D01*
X50737486Y44394322D01*
X50701228Y44481858D01*
X50664968Y44569396D01*
X50628000Y44755250D01*
X50628000Y44944750D01*
X50664968Y45130604D01*
X50712371Y45245045D01*
X50737486Y45305678D01*
X50780465Y45370000D01*
X50842763Y45463237D01*
X50976763Y45597237D01*
X51134321Y45702513D01*
X51134322Y45702514D01*
X51221858Y45738772D01*
X51309396Y45775032D01*
X51495250Y45812000D01*
X51684750Y45812000D01*
X51870604Y45775032D01*
X51870604Y45775032D01*
G37*
G36*
X63200026Y47163885D02*
G01*
X63418411Y47073427D01*
X63418413Y47073426D01*
X63519067Y47006171D01*
X63614955Y46942101D01*
X63782101Y46774955D01*
X63913427Y46578411D01*
X64003885Y46360026D01*
X64050000Y46128191D01*
X64050000Y45891809D01*
X64003885Y45659974D01*
X63922395Y45463239D01*
X63913426Y45441587D01*
X63782101Y45245045D01*
X63614955Y45077899D01*
X63418413Y44946574D01*
X63418412Y44946573D01*
X63418411Y44946573D01*
X63200026Y44856115D01*
X62968191Y44810000D01*
X62731809Y44810000D01*
X62499974Y44856115D01*
X62281589Y44946573D01*
X62281588Y44946573D01*
X62281587Y44946574D01*
X62085045Y45077899D01*
X61917899Y45245045D01*
X61786574Y45441587D01*
X61777605Y45463239D01*
X61696115Y45659974D01*
X61650000Y45891809D01*
X61650000Y46128191D01*
X61696115Y46360026D01*
X61786573Y46578411D01*
X61917899Y46774955D01*
X62085045Y46942101D01*
X62180933Y47006171D01*
X62281587Y47073426D01*
X62281589Y47073427D01*
X62499974Y47163885D01*
X62731809Y47210000D01*
X62968191Y47210000D01*
X63200026Y47163885D01*
X63200026Y47163885D01*
G37*
G36*
X56700026Y47163885D02*
G01*
X56918411Y47073427D01*
X56918413Y47073426D01*
X57019067Y47006171D01*
X57114955Y46942101D01*
X57282101Y46774955D01*
X57413427Y46578411D01*
X57503885Y46360026D01*
X57550000Y46128191D01*
X57550000Y45891809D01*
X57503885Y45659974D01*
X57422395Y45463239D01*
X57413426Y45441587D01*
X57282101Y45245045D01*
X57114955Y45077899D01*
X56918413Y44946574D01*
X56918412Y44946573D01*
X56918411Y44946573D01*
X56700026Y44856115D01*
X56468191Y44810000D01*
X56231809Y44810000D01*
X55999974Y44856115D01*
X55781589Y44946573D01*
X55781588Y44946573D01*
X55781587Y44946574D01*
X55585045Y45077899D01*
X55417899Y45245045D01*
X55286574Y45441587D01*
X55277605Y45463239D01*
X55196115Y45659974D01*
X55150000Y45891809D01*
X55150000Y46128191D01*
X55196115Y46360026D01*
X55286573Y46578411D01*
X55417899Y46774955D01*
X55585045Y46942101D01*
X55680933Y47006171D01*
X55781587Y47073426D01*
X55781589Y47073427D01*
X55999974Y47163885D01*
X56231809Y47210000D01*
X56468191Y47210000D01*
X56700026Y47163885D01*
X56700026Y47163885D01*
G37*
G36*
X3888707Y47462403D02*
G01*
X3965836Y47454807D01*
X4163762Y47394767D01*
X4163765Y47394766D01*
X4346170Y47297268D01*
X4506055Y47166055D01*
X4637268Y47006170D01*
X4734766Y46823765D01*
X4734767Y46823762D01*
X4794807Y46625836D01*
X4815080Y46420000D01*
X4794807Y46214164D01*
X4768727Y46128191D01*
X4734766Y46016235D01*
X4637268Y45833830D01*
X4506055Y45673945D01*
X4346170Y45542732D01*
X4163765Y45445234D01*
X4163762Y45445233D01*
X3965836Y45385193D01*
X3888707Y45377597D01*
X3811580Y45370000D01*
X3708420Y45370000D01*
X3631293Y45377597D01*
X3554164Y45385193D01*
X3356238Y45445233D01*
X3356235Y45445234D01*
X3173830Y45542732D01*
X3013945Y45673945D01*
X2882732Y45833830D01*
X2785234Y46016235D01*
X2751273Y46128191D01*
X2725193Y46214164D01*
X2704920Y46420000D01*
X2725193Y46625836D01*
X2785233Y46823762D01*
X2785234Y46823765D01*
X2882732Y47006170D01*
X3013945Y47166055D01*
X3173830Y47297268D01*
X3356235Y47394766D01*
X3356238Y47394767D01*
X3554164Y47454807D01*
X3631293Y47462403D01*
X3708420Y47470000D01*
X3811580Y47470000D01*
X3888707Y47462403D01*
X3888707Y47462403D01*
G37*
G36*
X52552000Y46428000D02*
G01*
X50628000Y46428000D01*
X50628000Y48352000D01*
X52552000Y48352000D01*
X52552000Y46428000D01*
X52552000Y46428000D01*
G37*
G36*
X9600000Y50654000D02*
G01*
X7500000Y50654000D01*
X7500000Y52754000D01*
X9600000Y52754000D01*
X9600000Y50654000D01*
X9600000Y50654000D01*
G37*
G36*
X56938707Y52746403D02*
G01*
X57015836Y52738807D01*
X57213762Y52678767D01*
X57213765Y52678766D01*
X57396170Y52581268D01*
X57556055Y52450055D01*
X57687268Y52290170D01*
X57784766Y52107765D01*
X57784767Y52107762D01*
X57844807Y51909836D01*
X57865080Y51704000D01*
X57844807Y51498164D01*
X57811650Y51388861D01*
X57784766Y51300235D01*
X57687268Y51117830D01*
X57556055Y50957945D01*
X57396170Y50826732D01*
X57213765Y50729234D01*
X57213762Y50729233D01*
X57015836Y50669193D01*
X56938707Y50661596D01*
X56861580Y50654000D01*
X56758420Y50654000D01*
X56681293Y50661596D01*
X56604164Y50669193D01*
X56406238Y50729233D01*
X56406235Y50729234D01*
X56223830Y50826732D01*
X56063945Y50957945D01*
X55932732Y51117830D01*
X55835234Y51300235D01*
X55808350Y51388861D01*
X55775193Y51498164D01*
X55754920Y51704000D01*
X55775193Y51909836D01*
X55835233Y52107762D01*
X55835234Y52107765D01*
X55932732Y52290170D01*
X56063945Y52450055D01*
X56223830Y52581268D01*
X56406235Y52678766D01*
X56406238Y52678767D01*
X56604164Y52738807D01*
X56681293Y52746403D01*
X56758420Y52754000D01*
X56861580Y52754000D01*
X56938707Y52746403D01*
X56938707Y52746403D01*
G37*
G36*
X54398707Y52746403D02*
G01*
X54475836Y52738807D01*
X54673762Y52678767D01*
X54673765Y52678766D01*
X54856170Y52581268D01*
X55016055Y52450055D01*
X55147268Y52290170D01*
X55244766Y52107765D01*
X55244767Y52107762D01*
X55304807Y51909836D01*
X55325080Y51704000D01*
X55304807Y51498164D01*
X55271650Y51388861D01*
X55244766Y51300235D01*
X55147268Y51117830D01*
X55016055Y50957945D01*
X54856170Y50826732D01*
X54673765Y50729234D01*
X54673762Y50729233D01*
X54475836Y50669193D01*
X54398707Y50661596D01*
X54321580Y50654000D01*
X54218420Y50654000D01*
X54141293Y50661596D01*
X54064164Y50669193D01*
X53866238Y50729233D01*
X53866235Y50729234D01*
X53683830Y50826732D01*
X53523945Y50957945D01*
X53392732Y51117830D01*
X53295234Y51300235D01*
X53268350Y51388861D01*
X53235193Y51498164D01*
X53214920Y51704000D01*
X53235193Y51909836D01*
X53295233Y52107762D01*
X53295234Y52107765D01*
X53392732Y52290170D01*
X53523945Y52450055D01*
X53683830Y52581268D01*
X53866235Y52678766D01*
X53866238Y52678767D01*
X54064164Y52738807D01*
X54141293Y52746403D01*
X54218420Y52754000D01*
X54321580Y52754000D01*
X54398707Y52746403D01*
X54398707Y52746403D01*
G37*
G36*
X16298707Y52746403D02*
G01*
X16375836Y52738807D01*
X16573762Y52678767D01*
X16573765Y52678766D01*
X16756170Y52581268D01*
X16916055Y52450055D01*
X17047268Y52290170D01*
X17144766Y52107765D01*
X17144767Y52107762D01*
X17204807Y51909836D01*
X17225080Y51704000D01*
X17204807Y51498164D01*
X17171650Y51388861D01*
X17144766Y51300235D01*
X17047268Y51117830D01*
X16916055Y50957945D01*
X16756170Y50826732D01*
X16573765Y50729234D01*
X16573762Y50729233D01*
X16375836Y50669193D01*
X16298707Y50661596D01*
X16221580Y50654000D01*
X16118420Y50654000D01*
X16041293Y50661596D01*
X15964164Y50669193D01*
X15766238Y50729233D01*
X15766235Y50729234D01*
X15583830Y50826732D01*
X15423945Y50957945D01*
X15292732Y51117830D01*
X15195234Y51300235D01*
X15168350Y51388861D01*
X15135193Y51498164D01*
X15114920Y51704000D01*
X15135193Y51909836D01*
X15195233Y52107762D01*
X15195234Y52107765D01*
X15292732Y52290170D01*
X15423945Y52450055D01*
X15583830Y52581268D01*
X15766235Y52678766D01*
X15766238Y52678767D01*
X15964164Y52738807D01*
X16041293Y52746403D01*
X16118420Y52754000D01*
X16221580Y52754000D01*
X16298707Y52746403D01*
X16298707Y52746403D01*
G37*
G36*
X51858707Y52746403D02*
G01*
X51935836Y52738807D01*
X52133762Y52678767D01*
X52133765Y52678766D01*
X52316170Y52581268D01*
X52476055Y52450055D01*
X52607268Y52290170D01*
X52704766Y52107765D01*
X52704767Y52107762D01*
X52764807Y51909836D01*
X52785080Y51704000D01*
X52764807Y51498164D01*
X52731650Y51388861D01*
X52704766Y51300235D01*
X52607268Y51117830D01*
X52476055Y50957945D01*
X52316170Y50826732D01*
X52133765Y50729234D01*
X52133762Y50729233D01*
X51935836Y50669193D01*
X51858707Y50661596D01*
X51781580Y50654000D01*
X51678420Y50654000D01*
X51601293Y50661596D01*
X51524164Y50669193D01*
X51326238Y50729233D01*
X51326235Y50729234D01*
X51143830Y50826732D01*
X50983945Y50957945D01*
X50852732Y51117830D01*
X50755234Y51300235D01*
X50728350Y51388861D01*
X50695193Y51498164D01*
X50674920Y51704000D01*
X50695193Y51909836D01*
X50755233Y52107762D01*
X50755234Y52107765D01*
X50852732Y52290170D01*
X50983945Y52450055D01*
X51143830Y52581268D01*
X51326235Y52678766D01*
X51326238Y52678767D01*
X51524164Y52738807D01*
X51601293Y52746403D01*
X51678420Y52754000D01*
X51781580Y52754000D01*
X51858707Y52746403D01*
X51858707Y52746403D01*
G37*
G36*
X49318707Y52746403D02*
G01*
X49395836Y52738807D01*
X49593762Y52678767D01*
X49593765Y52678766D01*
X49776170Y52581268D01*
X49936055Y52450055D01*
X50067268Y52290170D01*
X50164766Y52107765D01*
X50164767Y52107762D01*
X50224807Y51909836D01*
X50245080Y51704000D01*
X50224807Y51498164D01*
X50191650Y51388861D01*
X50164766Y51300235D01*
X50067268Y51117830D01*
X49936055Y50957945D01*
X49776170Y50826732D01*
X49593765Y50729234D01*
X49593762Y50729233D01*
X49395836Y50669193D01*
X49318707Y50661596D01*
X49241580Y50654000D01*
X49138420Y50654000D01*
X49061293Y50661596D01*
X48984164Y50669193D01*
X48786238Y50729233D01*
X48786235Y50729234D01*
X48603830Y50826732D01*
X48443945Y50957945D01*
X48312732Y51117830D01*
X48215234Y51300235D01*
X48188350Y51388861D01*
X48155193Y51498164D01*
X48134920Y51704000D01*
X48155193Y51909836D01*
X48215233Y52107762D01*
X48215234Y52107765D01*
X48312732Y52290170D01*
X48443945Y52450055D01*
X48603830Y52581268D01*
X48786235Y52678766D01*
X48786238Y52678767D01*
X48984164Y52738807D01*
X49061293Y52746403D01*
X49138420Y52754000D01*
X49241580Y52754000D01*
X49318707Y52746403D01*
X49318707Y52746403D01*
G37*
G36*
X46778707Y52746403D02*
G01*
X46855836Y52738807D01*
X47053762Y52678767D01*
X47053765Y52678766D01*
X47236170Y52581268D01*
X47396055Y52450055D01*
X47527268Y52290170D01*
X47624766Y52107765D01*
X47624767Y52107762D01*
X47684807Y51909836D01*
X47705080Y51704000D01*
X47684807Y51498164D01*
X47651650Y51388861D01*
X47624766Y51300235D01*
X47527268Y51117830D01*
X47396055Y50957945D01*
X47236170Y50826732D01*
X47053765Y50729234D01*
X47053762Y50729233D01*
X46855836Y50669193D01*
X46778707Y50661596D01*
X46701580Y50654000D01*
X46598420Y50654000D01*
X46521293Y50661596D01*
X46444164Y50669193D01*
X46246238Y50729233D01*
X46246235Y50729234D01*
X46063830Y50826732D01*
X45903945Y50957945D01*
X45772732Y51117830D01*
X45675234Y51300235D01*
X45648350Y51388861D01*
X45615193Y51498164D01*
X45594920Y51704000D01*
X45615193Y51909836D01*
X45675233Y52107762D01*
X45675234Y52107765D01*
X45772732Y52290170D01*
X45903945Y52450055D01*
X46063830Y52581268D01*
X46246235Y52678766D01*
X46246238Y52678767D01*
X46444164Y52738807D01*
X46521293Y52746403D01*
X46598420Y52754000D01*
X46701580Y52754000D01*
X46778707Y52746403D01*
X46778707Y52746403D01*
G37*
G36*
X44238707Y52746403D02*
G01*
X44315836Y52738807D01*
X44513762Y52678767D01*
X44513765Y52678766D01*
X44696170Y52581268D01*
X44856055Y52450055D01*
X44987268Y52290170D01*
X45084766Y52107765D01*
X45084767Y52107762D01*
X45144807Y51909836D01*
X45165080Y51704000D01*
X45144807Y51498164D01*
X45111650Y51388861D01*
X45084766Y51300235D01*
X44987268Y51117830D01*
X44856055Y50957945D01*
X44696170Y50826732D01*
X44513765Y50729234D01*
X44513762Y50729233D01*
X44315836Y50669193D01*
X44238707Y50661596D01*
X44161580Y50654000D01*
X44058420Y50654000D01*
X43981293Y50661596D01*
X43904164Y50669193D01*
X43706238Y50729233D01*
X43706235Y50729234D01*
X43523830Y50826732D01*
X43363945Y50957945D01*
X43232732Y51117830D01*
X43135234Y51300235D01*
X43108350Y51388861D01*
X43075193Y51498164D01*
X43054920Y51704000D01*
X43075193Y51909836D01*
X43135233Y52107762D01*
X43135234Y52107765D01*
X43232732Y52290170D01*
X43363945Y52450055D01*
X43523830Y52581268D01*
X43706235Y52678766D01*
X43706238Y52678767D01*
X43904164Y52738807D01*
X43981293Y52746403D01*
X44058420Y52754000D01*
X44161580Y52754000D01*
X44238707Y52746403D01*
X44238707Y52746403D01*
G37*
G36*
X41698707Y52746403D02*
G01*
X41775836Y52738807D01*
X41973762Y52678767D01*
X41973765Y52678766D01*
X42156170Y52581268D01*
X42316055Y52450055D01*
X42447268Y52290170D01*
X42544766Y52107765D01*
X42544767Y52107762D01*
X42604807Y51909836D01*
X42625080Y51704000D01*
X42604807Y51498164D01*
X42571650Y51388861D01*
X42544766Y51300235D01*
X42447268Y51117830D01*
X42316055Y50957945D01*
X42156170Y50826732D01*
X41973765Y50729234D01*
X41973762Y50729233D01*
X41775836Y50669193D01*
X41698707Y50661596D01*
X41621580Y50654000D01*
X41518420Y50654000D01*
X41441293Y50661596D01*
X41364164Y50669193D01*
X41166238Y50729233D01*
X41166235Y50729234D01*
X40983830Y50826732D01*
X40823945Y50957945D01*
X40692732Y51117830D01*
X40595234Y51300235D01*
X40568350Y51388861D01*
X40535193Y51498164D01*
X40514920Y51704000D01*
X40535193Y51909836D01*
X40595233Y52107762D01*
X40595234Y52107765D01*
X40692732Y52290170D01*
X40823945Y52450055D01*
X40983830Y52581268D01*
X41166235Y52678766D01*
X41166238Y52678767D01*
X41364164Y52738807D01*
X41441293Y52746403D01*
X41518420Y52754000D01*
X41621580Y52754000D01*
X41698707Y52746403D01*
X41698707Y52746403D01*
G37*
G36*
X39158707Y52746403D02*
G01*
X39235836Y52738807D01*
X39433762Y52678767D01*
X39433765Y52678766D01*
X39616170Y52581268D01*
X39776055Y52450055D01*
X39907268Y52290170D01*
X40004766Y52107765D01*
X40004767Y52107762D01*
X40064807Y51909836D01*
X40085080Y51704000D01*
X40064807Y51498164D01*
X40031650Y51388861D01*
X40004766Y51300235D01*
X39907268Y51117830D01*
X39776055Y50957945D01*
X39616170Y50826732D01*
X39433765Y50729234D01*
X39433762Y50729233D01*
X39235836Y50669193D01*
X39158707Y50661596D01*
X39081580Y50654000D01*
X38978420Y50654000D01*
X38901293Y50661596D01*
X38824164Y50669193D01*
X38626238Y50729233D01*
X38626235Y50729234D01*
X38443830Y50826732D01*
X38283945Y50957945D01*
X38152732Y51117830D01*
X38055234Y51300235D01*
X38028350Y51388861D01*
X37995193Y51498164D01*
X37974920Y51704000D01*
X37995193Y51909836D01*
X38055233Y52107762D01*
X38055234Y52107765D01*
X38152732Y52290170D01*
X38283945Y52450055D01*
X38443830Y52581268D01*
X38626235Y52678766D01*
X38626238Y52678767D01*
X38824164Y52738807D01*
X38901293Y52746403D01*
X38978420Y52754000D01*
X39081580Y52754000D01*
X39158707Y52746403D01*
X39158707Y52746403D01*
G37*
G36*
X34078707Y52746403D02*
G01*
X34155836Y52738807D01*
X34353762Y52678767D01*
X34353765Y52678766D01*
X34536170Y52581268D01*
X34696055Y52450055D01*
X34827268Y52290170D01*
X34924766Y52107765D01*
X34924767Y52107762D01*
X34984807Y51909836D01*
X35005080Y51704000D01*
X34984807Y51498164D01*
X34951650Y51388861D01*
X34924766Y51300235D01*
X34827268Y51117830D01*
X34696055Y50957945D01*
X34536170Y50826732D01*
X34353765Y50729234D01*
X34353762Y50729233D01*
X34155836Y50669193D01*
X34078707Y50661596D01*
X34001580Y50654000D01*
X33898420Y50654000D01*
X33821293Y50661596D01*
X33744164Y50669193D01*
X33546238Y50729233D01*
X33546235Y50729234D01*
X33363830Y50826732D01*
X33203945Y50957945D01*
X33072732Y51117830D01*
X32975234Y51300235D01*
X32948350Y51388861D01*
X32915193Y51498164D01*
X32894920Y51704000D01*
X32915193Y51909836D01*
X32975233Y52107762D01*
X32975234Y52107765D01*
X33072732Y52290170D01*
X33203945Y52450055D01*
X33363830Y52581268D01*
X33546235Y52678766D01*
X33546238Y52678767D01*
X33744164Y52738807D01*
X33821293Y52746403D01*
X33898420Y52754000D01*
X34001580Y52754000D01*
X34078707Y52746403D01*
X34078707Y52746403D01*
G37*
G36*
X11218707Y52746403D02*
G01*
X11295836Y52738807D01*
X11493762Y52678767D01*
X11493765Y52678766D01*
X11676170Y52581268D01*
X11836055Y52450055D01*
X11967268Y52290170D01*
X12064766Y52107765D01*
X12064767Y52107762D01*
X12124807Y51909836D01*
X12145080Y51704000D01*
X12124807Y51498164D01*
X12091650Y51388861D01*
X12064766Y51300235D01*
X11967268Y51117830D01*
X11836055Y50957945D01*
X11676170Y50826732D01*
X11493765Y50729234D01*
X11493762Y50729233D01*
X11295836Y50669193D01*
X11218707Y50661596D01*
X11141580Y50654000D01*
X11038420Y50654000D01*
X10961293Y50661596D01*
X10884164Y50669193D01*
X10686238Y50729233D01*
X10686235Y50729234D01*
X10503830Y50826732D01*
X10343945Y50957945D01*
X10212732Y51117830D01*
X10115234Y51300235D01*
X10088350Y51388861D01*
X10055193Y51498164D01*
X10034920Y51704000D01*
X10055193Y51909836D01*
X10115233Y52107762D01*
X10115234Y52107765D01*
X10212732Y52290170D01*
X10343945Y52450055D01*
X10503830Y52581268D01*
X10686235Y52678766D01*
X10686238Y52678767D01*
X10884164Y52738807D01*
X10961293Y52746403D01*
X11038420Y52754000D01*
X11141580Y52754000D01*
X11218707Y52746403D01*
X11218707Y52746403D01*
G37*
G36*
X31538707Y52746403D02*
G01*
X31615836Y52738807D01*
X31813762Y52678767D01*
X31813765Y52678766D01*
X31996170Y52581268D01*
X32156055Y52450055D01*
X32287268Y52290170D01*
X32384766Y52107765D01*
X32384767Y52107762D01*
X32444807Y51909836D01*
X32465080Y51704000D01*
X32444807Y51498164D01*
X32411650Y51388861D01*
X32384766Y51300235D01*
X32287268Y51117830D01*
X32156055Y50957945D01*
X31996170Y50826732D01*
X31813765Y50729234D01*
X31813762Y50729233D01*
X31615836Y50669193D01*
X31538707Y50661596D01*
X31461580Y50654000D01*
X31358420Y50654000D01*
X31281293Y50661596D01*
X31204164Y50669193D01*
X31006238Y50729233D01*
X31006235Y50729234D01*
X30823830Y50826732D01*
X30663945Y50957945D01*
X30532732Y51117830D01*
X30435234Y51300235D01*
X30408350Y51388861D01*
X30375193Y51498164D01*
X30354920Y51704000D01*
X30375193Y51909836D01*
X30435233Y52107762D01*
X30435234Y52107765D01*
X30532732Y52290170D01*
X30663945Y52450055D01*
X30823830Y52581268D01*
X31006235Y52678766D01*
X31006238Y52678767D01*
X31204164Y52738807D01*
X31281293Y52746403D01*
X31358420Y52754000D01*
X31461580Y52754000D01*
X31538707Y52746403D01*
X31538707Y52746403D01*
G37*
G36*
X28998707Y52746403D02*
G01*
X29075836Y52738807D01*
X29273762Y52678767D01*
X29273765Y52678766D01*
X29456170Y52581268D01*
X29616055Y52450055D01*
X29747268Y52290170D01*
X29844766Y52107765D01*
X29844767Y52107762D01*
X29904807Y51909836D01*
X29925080Y51704000D01*
X29904807Y51498164D01*
X29871650Y51388861D01*
X29844766Y51300235D01*
X29747268Y51117830D01*
X29616055Y50957945D01*
X29456170Y50826732D01*
X29273765Y50729234D01*
X29273762Y50729233D01*
X29075836Y50669193D01*
X28998707Y50661596D01*
X28921580Y50654000D01*
X28818420Y50654000D01*
X28741293Y50661596D01*
X28664164Y50669193D01*
X28466238Y50729233D01*
X28466235Y50729234D01*
X28283830Y50826732D01*
X28123945Y50957945D01*
X27992732Y51117830D01*
X27895234Y51300235D01*
X27868350Y51388861D01*
X27835193Y51498164D01*
X27814920Y51704000D01*
X27835193Y51909836D01*
X27895233Y52107762D01*
X27895234Y52107765D01*
X27992732Y52290170D01*
X28123945Y52450055D01*
X28283830Y52581268D01*
X28466235Y52678766D01*
X28466238Y52678767D01*
X28664164Y52738807D01*
X28741293Y52746403D01*
X28818420Y52754000D01*
X28921580Y52754000D01*
X28998707Y52746403D01*
X28998707Y52746403D01*
G37*
G36*
X26458707Y52746403D02*
G01*
X26535836Y52738807D01*
X26733762Y52678767D01*
X26733765Y52678766D01*
X26916170Y52581268D01*
X27076055Y52450055D01*
X27207268Y52290170D01*
X27304766Y52107765D01*
X27304767Y52107762D01*
X27364807Y51909836D01*
X27385080Y51704000D01*
X27364807Y51498164D01*
X27331650Y51388861D01*
X27304766Y51300235D01*
X27207268Y51117830D01*
X27076055Y50957945D01*
X26916170Y50826732D01*
X26733765Y50729234D01*
X26733762Y50729233D01*
X26535836Y50669193D01*
X26458707Y50661596D01*
X26381580Y50654000D01*
X26278420Y50654000D01*
X26201293Y50661596D01*
X26124164Y50669193D01*
X25926238Y50729233D01*
X25926235Y50729234D01*
X25743830Y50826732D01*
X25583945Y50957945D01*
X25452732Y51117830D01*
X25355234Y51300235D01*
X25328350Y51388861D01*
X25295193Y51498164D01*
X25274920Y51704000D01*
X25295193Y51909836D01*
X25355233Y52107762D01*
X25355234Y52107765D01*
X25452732Y52290170D01*
X25583945Y52450055D01*
X25743830Y52581268D01*
X25926235Y52678766D01*
X25926238Y52678767D01*
X26124164Y52738807D01*
X26201293Y52746403D01*
X26278420Y52754000D01*
X26381580Y52754000D01*
X26458707Y52746403D01*
X26458707Y52746403D01*
G37*
G36*
X13758707Y52746403D02*
G01*
X13835836Y52738807D01*
X14033762Y52678767D01*
X14033765Y52678766D01*
X14216170Y52581268D01*
X14376055Y52450055D01*
X14507268Y52290170D01*
X14604766Y52107765D01*
X14604767Y52107762D01*
X14664807Y51909836D01*
X14685080Y51704000D01*
X14664807Y51498164D01*
X14631650Y51388861D01*
X14604766Y51300235D01*
X14507268Y51117830D01*
X14376055Y50957945D01*
X14216170Y50826732D01*
X14033765Y50729234D01*
X14033762Y50729233D01*
X13835836Y50669193D01*
X13758707Y50661596D01*
X13681580Y50654000D01*
X13578420Y50654000D01*
X13501293Y50661596D01*
X13424164Y50669193D01*
X13226238Y50729233D01*
X13226235Y50729234D01*
X13043830Y50826732D01*
X12883945Y50957945D01*
X12752732Y51117830D01*
X12655234Y51300235D01*
X12628350Y51388861D01*
X12595193Y51498164D01*
X12574920Y51704000D01*
X12595193Y51909836D01*
X12655233Y52107762D01*
X12655234Y52107765D01*
X12752732Y52290170D01*
X12883945Y52450055D01*
X13043830Y52581268D01*
X13226235Y52678766D01*
X13226238Y52678767D01*
X13424164Y52738807D01*
X13501293Y52746403D01*
X13578420Y52754000D01*
X13681580Y52754000D01*
X13758707Y52746403D01*
X13758707Y52746403D01*
G37*
G36*
X18838707Y52746403D02*
G01*
X18915836Y52738807D01*
X19113762Y52678767D01*
X19113765Y52678766D01*
X19296170Y52581268D01*
X19456055Y52450055D01*
X19587268Y52290170D01*
X19684766Y52107765D01*
X19684767Y52107762D01*
X19744807Y51909836D01*
X19765080Y51704000D01*
X19744807Y51498164D01*
X19711650Y51388861D01*
X19684766Y51300235D01*
X19587268Y51117830D01*
X19456055Y50957945D01*
X19296170Y50826732D01*
X19113765Y50729234D01*
X19113762Y50729233D01*
X18915836Y50669193D01*
X18838707Y50661596D01*
X18761580Y50654000D01*
X18658420Y50654000D01*
X18581293Y50661596D01*
X18504164Y50669193D01*
X18306238Y50729233D01*
X18306235Y50729234D01*
X18123830Y50826732D01*
X17963945Y50957945D01*
X17832732Y51117830D01*
X17735234Y51300235D01*
X17708350Y51388861D01*
X17675193Y51498164D01*
X17654920Y51704000D01*
X17675193Y51909836D01*
X17735233Y52107762D01*
X17735234Y52107765D01*
X17832732Y52290170D01*
X17963945Y52450055D01*
X18123830Y52581268D01*
X18306235Y52678766D01*
X18306238Y52678767D01*
X18504164Y52738807D01*
X18581293Y52746403D01*
X18658420Y52754000D01*
X18761580Y52754000D01*
X18838707Y52746403D01*
X18838707Y52746403D01*
G37*
G36*
X21378707Y52746403D02*
G01*
X21455836Y52738807D01*
X21653762Y52678767D01*
X21653765Y52678766D01*
X21836170Y52581268D01*
X21996055Y52450055D01*
X22127268Y52290170D01*
X22224766Y52107765D01*
X22224767Y52107762D01*
X22284807Y51909836D01*
X22305080Y51704000D01*
X22284807Y51498164D01*
X22251650Y51388861D01*
X22224766Y51300235D01*
X22127268Y51117830D01*
X21996055Y50957945D01*
X21836170Y50826732D01*
X21653765Y50729234D01*
X21653762Y50729233D01*
X21455836Y50669193D01*
X21378707Y50661596D01*
X21301580Y50654000D01*
X21198420Y50654000D01*
X21121293Y50661596D01*
X21044164Y50669193D01*
X20846238Y50729233D01*
X20846235Y50729234D01*
X20663830Y50826732D01*
X20503945Y50957945D01*
X20372732Y51117830D01*
X20275234Y51300235D01*
X20248350Y51388861D01*
X20215193Y51498164D01*
X20194920Y51704000D01*
X20215193Y51909836D01*
X20275233Y52107762D01*
X20275234Y52107765D01*
X20372732Y52290170D01*
X20503945Y52450055D01*
X20663830Y52581268D01*
X20846235Y52678766D01*
X20846238Y52678767D01*
X21044164Y52738807D01*
X21121293Y52746403D01*
X21198420Y52754000D01*
X21301580Y52754000D01*
X21378707Y52746403D01*
X21378707Y52746403D01*
G37*
G36*
X23918707Y52746403D02*
G01*
X23995836Y52738807D01*
X24193762Y52678767D01*
X24193765Y52678766D01*
X24376170Y52581268D01*
X24536055Y52450055D01*
X24667268Y52290170D01*
X24764766Y52107765D01*
X24764767Y52107762D01*
X24824807Y51909836D01*
X24845080Y51704000D01*
X24824807Y51498164D01*
X24791650Y51388861D01*
X24764766Y51300235D01*
X24667268Y51117830D01*
X24536055Y50957945D01*
X24376170Y50826732D01*
X24193765Y50729234D01*
X24193762Y50729233D01*
X23995836Y50669193D01*
X23918707Y50661596D01*
X23841580Y50654000D01*
X23738420Y50654000D01*
X23661293Y50661596D01*
X23584164Y50669193D01*
X23386238Y50729233D01*
X23386235Y50729234D01*
X23203830Y50826732D01*
X23043945Y50957945D01*
X22912732Y51117830D01*
X22815234Y51300235D01*
X22788350Y51388861D01*
X22755193Y51498164D01*
X22734920Y51704000D01*
X22755193Y51909836D01*
X22815233Y52107762D01*
X22815234Y52107765D01*
X22912732Y52290170D01*
X23043945Y52450055D01*
X23203830Y52581268D01*
X23386235Y52678766D01*
X23386238Y52678767D01*
X23584164Y52738807D01*
X23661293Y52746403D01*
X23738420Y52754000D01*
X23841580Y52754000D01*
X23918707Y52746403D01*
X23918707Y52746403D01*
G37*
G36*
X36618707Y52746403D02*
G01*
X36695836Y52738807D01*
X36893762Y52678767D01*
X36893765Y52678766D01*
X37076170Y52581268D01*
X37236055Y52450055D01*
X37367268Y52290170D01*
X37464766Y52107765D01*
X37464767Y52107762D01*
X37524807Y51909836D01*
X37545080Y51704000D01*
X37524807Y51498164D01*
X37491650Y51388861D01*
X37464766Y51300235D01*
X37367268Y51117830D01*
X37236055Y50957945D01*
X37076170Y50826732D01*
X36893765Y50729234D01*
X36893762Y50729233D01*
X36695836Y50669193D01*
X36618707Y50661596D01*
X36541580Y50654000D01*
X36438420Y50654000D01*
X36361293Y50661596D01*
X36284164Y50669193D01*
X36086238Y50729233D01*
X36086235Y50729234D01*
X35903830Y50826732D01*
X35743945Y50957945D01*
X35612732Y51117830D01*
X35515234Y51300235D01*
X35488350Y51388861D01*
X35455193Y51498164D01*
X35434920Y51704000D01*
X35455193Y51909836D01*
X35515233Y52107762D01*
X35515234Y52107765D01*
X35612732Y52290170D01*
X35743945Y52450055D01*
X35903830Y52581268D01*
X36086235Y52678766D01*
X36086238Y52678767D01*
X36284164Y52738807D01*
X36361293Y52746403D01*
X36438420Y52754000D01*
X36541580Y52754000D01*
X36618707Y52746403D01*
X36618707Y52746403D01*
G37*
G36*
X62021163Y54729413D02*
G01*
X62195041Y54694827D01*
X62522620Y54559139D01*
X62817433Y54362151D01*
X63068151Y54111433D01*
X63265139Y53816620D01*
X63400827Y53489041D01*
X63425156Y53366732D01*
X63470000Y53141286D01*
X63470000Y52786714D01*
X63435414Y52612838D01*
X63400827Y52438959D01*
X63265139Y52111380D01*
X63068151Y51816567D01*
X62817433Y51565849D01*
X62522620Y51368861D01*
X62195041Y51233173D01*
X62021163Y51198587D01*
X61847286Y51164000D01*
X61492714Y51164000D01*
X61318837Y51198587D01*
X61144959Y51233173D01*
X60817380Y51368861D01*
X60522567Y51565849D01*
X60271849Y51816567D01*
X60074861Y52111380D01*
X59939173Y52438959D01*
X59904586Y52612838D01*
X59870000Y52786714D01*
X59870000Y53141286D01*
X59914844Y53366732D01*
X59939173Y53489041D01*
X60074861Y53816620D01*
X60271849Y54111433D01*
X60522567Y54362151D01*
X60817380Y54559139D01*
X61144959Y54694827D01*
X61318838Y54729414D01*
X61492714Y54764000D01*
X61847286Y54764000D01*
X62021163Y54729413D01*
X62021163Y54729413D01*
G37*
G36*
X4021162Y54749414D02*
G01*
X4195041Y54714827D01*
X4522620Y54579139D01*
X4817433Y54382151D01*
X5068151Y54131433D01*
X5265139Y53836620D01*
X5400827Y53509041D01*
X5429134Y53366733D01*
X5470000Y53161286D01*
X5470000Y52806714D01*
X5444549Y52678766D01*
X5400827Y52458959D01*
X5265139Y52131380D01*
X5068151Y51836567D01*
X4817433Y51585849D01*
X4522620Y51388861D01*
X4195041Y51253173D01*
X4021162Y51218586D01*
X3847286Y51184000D01*
X3492714Y51184000D01*
X3318838Y51218586D01*
X3144959Y51253173D01*
X2817380Y51388861D01*
X2522567Y51585849D01*
X2271849Y51836567D01*
X2074861Y52131380D01*
X1939173Y52458959D01*
X1895451Y52678766D01*
X1870000Y52806714D01*
X1870000Y53161286D01*
X1910866Y53366733D01*
X1939173Y53509041D01*
X2074861Y53836620D01*
X2271849Y54131433D01*
X2522567Y54382151D01*
X2817380Y54579139D01*
X3144959Y54714827D01*
X3318837Y54749413D01*
X3492714Y54784000D01*
X3847286Y54784000D01*
X4021162Y54749414D01*
X4021162Y54749414D01*
G37*
G36*
X13758707Y55286403D02*
G01*
X13835836Y55278807D01*
X14033762Y55218767D01*
X14033765Y55218766D01*
X14216170Y55121268D01*
X14376055Y54990055D01*
X14507268Y54830170D01*
X14604766Y54647765D01*
X14604767Y54647762D01*
X14664807Y54449836D01*
X14685080Y54244000D01*
X14664807Y54038164D01*
X14604767Y53840238D01*
X14604766Y53840235D01*
X14507268Y53657830D01*
X14376055Y53497945D01*
X14216170Y53366732D01*
X14033765Y53269234D01*
X14033762Y53269233D01*
X13835836Y53209193D01*
X13758707Y53201597D01*
X13681580Y53194000D01*
X13578420Y53194000D01*
X13501293Y53201596D01*
X13424164Y53209193D01*
X13226238Y53269233D01*
X13226235Y53269234D01*
X13043830Y53366732D01*
X12883945Y53497945D01*
X12752732Y53657830D01*
X12655234Y53840235D01*
X12655233Y53840238D01*
X12595193Y54038164D01*
X12574920Y54244000D01*
X12595193Y54449836D01*
X12655233Y54647762D01*
X12655234Y54647765D01*
X12752732Y54830170D01*
X12883945Y54990055D01*
X13043830Y55121268D01*
X13226235Y55218766D01*
X13226238Y55218767D01*
X13424164Y55278807D01*
X13501293Y55286403D01*
X13578420Y55294000D01*
X13681580Y55294000D01*
X13758707Y55286403D01*
X13758707Y55286403D01*
G37*
G36*
X8678707Y55286403D02*
G01*
X8755836Y55278807D01*
X8953762Y55218767D01*
X8953765Y55218766D01*
X9136170Y55121268D01*
X9296055Y54990055D01*
X9427268Y54830170D01*
X9524766Y54647765D01*
X9524767Y54647762D01*
X9584807Y54449836D01*
X9605080Y54244000D01*
X9584807Y54038164D01*
X9524767Y53840238D01*
X9524766Y53840235D01*
X9427268Y53657830D01*
X9296055Y53497945D01*
X9136170Y53366732D01*
X8953765Y53269234D01*
X8953762Y53269233D01*
X8755836Y53209193D01*
X8678707Y53201597D01*
X8601580Y53194000D01*
X8498420Y53194000D01*
X8421293Y53201596D01*
X8344164Y53209193D01*
X8146238Y53269233D01*
X8146235Y53269234D01*
X7963830Y53366732D01*
X7803945Y53497945D01*
X7672732Y53657830D01*
X7575234Y53840235D01*
X7575233Y53840238D01*
X7515193Y54038164D01*
X7494920Y54244000D01*
X7515193Y54449836D01*
X7575233Y54647762D01*
X7575234Y54647765D01*
X7672732Y54830170D01*
X7803945Y54990055D01*
X7963830Y55121268D01*
X8146235Y55218766D01*
X8146238Y55218767D01*
X8344164Y55278807D01*
X8421293Y55286403D01*
X8498420Y55294000D01*
X8601580Y55294000D01*
X8678707Y55286403D01*
X8678707Y55286403D01*
G37*
G36*
X16298707Y55286403D02*
G01*
X16375836Y55278807D01*
X16573762Y55218767D01*
X16573765Y55218766D01*
X16756170Y55121268D01*
X16916055Y54990055D01*
X17047268Y54830170D01*
X17144766Y54647765D01*
X17144767Y54647762D01*
X17204807Y54449836D01*
X17225080Y54244000D01*
X17204807Y54038164D01*
X17144767Y53840238D01*
X17144766Y53840235D01*
X17047268Y53657830D01*
X16916055Y53497945D01*
X16756170Y53366732D01*
X16573765Y53269234D01*
X16573762Y53269233D01*
X16375836Y53209193D01*
X16298707Y53201597D01*
X16221580Y53194000D01*
X16118420Y53194000D01*
X16041293Y53201596D01*
X15964164Y53209193D01*
X15766238Y53269233D01*
X15766235Y53269234D01*
X15583830Y53366732D01*
X15423945Y53497945D01*
X15292732Y53657830D01*
X15195234Y53840235D01*
X15195233Y53840238D01*
X15135193Y54038164D01*
X15114920Y54244000D01*
X15135193Y54449836D01*
X15195233Y54647762D01*
X15195234Y54647765D01*
X15292732Y54830170D01*
X15423945Y54990055D01*
X15583830Y55121268D01*
X15766235Y55218766D01*
X15766238Y55218767D01*
X15964164Y55278807D01*
X16041293Y55286403D01*
X16118420Y55294000D01*
X16221580Y55294000D01*
X16298707Y55286403D01*
X16298707Y55286403D01*
G37*
G36*
X56938707Y55286403D02*
G01*
X57015836Y55278807D01*
X57213762Y55218767D01*
X57213765Y55218766D01*
X57396170Y55121268D01*
X57556055Y54990055D01*
X57687268Y54830170D01*
X57784766Y54647765D01*
X57784767Y54647762D01*
X57844807Y54449836D01*
X57865080Y54244000D01*
X57844807Y54038164D01*
X57784767Y53840238D01*
X57784766Y53840235D01*
X57687268Y53657830D01*
X57556055Y53497945D01*
X57396170Y53366732D01*
X57213765Y53269234D01*
X57213762Y53269233D01*
X57015836Y53209193D01*
X56938707Y53201597D01*
X56861580Y53194000D01*
X56758420Y53194000D01*
X56681293Y53201596D01*
X56604164Y53209193D01*
X56406238Y53269233D01*
X56406235Y53269234D01*
X56223830Y53366732D01*
X56063945Y53497945D01*
X55932732Y53657830D01*
X55835234Y53840235D01*
X55835233Y53840238D01*
X55775193Y54038164D01*
X55754920Y54244000D01*
X55775193Y54449836D01*
X55835233Y54647762D01*
X55835234Y54647765D01*
X55932732Y54830170D01*
X56063945Y54990055D01*
X56223830Y55121268D01*
X56406235Y55218766D01*
X56406238Y55218767D01*
X56604164Y55278807D01*
X56681293Y55286403D01*
X56758420Y55294000D01*
X56861580Y55294000D01*
X56938707Y55286403D01*
X56938707Y55286403D01*
G37*
G36*
X54398707Y55286403D02*
G01*
X54475836Y55278807D01*
X54673762Y55218767D01*
X54673765Y55218766D01*
X54856170Y55121268D01*
X55016055Y54990055D01*
X55147268Y54830170D01*
X55244766Y54647765D01*
X55244767Y54647762D01*
X55304807Y54449836D01*
X55325080Y54244000D01*
X55304807Y54038164D01*
X55244767Y53840238D01*
X55244766Y53840235D01*
X55147268Y53657830D01*
X55016055Y53497945D01*
X54856170Y53366732D01*
X54673765Y53269234D01*
X54673762Y53269233D01*
X54475836Y53209193D01*
X54398707Y53201597D01*
X54321580Y53194000D01*
X54218420Y53194000D01*
X54141293Y53201596D01*
X54064164Y53209193D01*
X53866238Y53269233D01*
X53866235Y53269234D01*
X53683830Y53366732D01*
X53523945Y53497945D01*
X53392732Y53657830D01*
X53295234Y53840235D01*
X53295233Y53840238D01*
X53235193Y54038164D01*
X53214920Y54244000D01*
X53235193Y54449836D01*
X53295233Y54647762D01*
X53295234Y54647765D01*
X53392732Y54830170D01*
X53523945Y54990055D01*
X53683830Y55121268D01*
X53866235Y55218766D01*
X53866238Y55218767D01*
X54064164Y55278807D01*
X54141293Y55286403D01*
X54218420Y55294000D01*
X54321580Y55294000D01*
X54398707Y55286403D01*
X54398707Y55286403D01*
G37*
G36*
X51858707Y55286403D02*
G01*
X51935836Y55278807D01*
X52133762Y55218767D01*
X52133765Y55218766D01*
X52316170Y55121268D01*
X52476055Y54990055D01*
X52607268Y54830170D01*
X52704766Y54647765D01*
X52704767Y54647762D01*
X52764807Y54449836D01*
X52785080Y54244000D01*
X52764807Y54038164D01*
X52704767Y53840238D01*
X52704766Y53840235D01*
X52607268Y53657830D01*
X52476055Y53497945D01*
X52316170Y53366732D01*
X52133765Y53269234D01*
X52133762Y53269233D01*
X51935836Y53209193D01*
X51858707Y53201597D01*
X51781580Y53194000D01*
X51678420Y53194000D01*
X51601293Y53201596D01*
X51524164Y53209193D01*
X51326238Y53269233D01*
X51326235Y53269234D01*
X51143830Y53366732D01*
X50983945Y53497945D01*
X50852732Y53657830D01*
X50755234Y53840235D01*
X50755233Y53840238D01*
X50695193Y54038164D01*
X50674920Y54244000D01*
X50695193Y54449836D01*
X50755233Y54647762D01*
X50755234Y54647765D01*
X50852732Y54830170D01*
X50983945Y54990055D01*
X51143830Y55121268D01*
X51326235Y55218766D01*
X51326238Y55218767D01*
X51524164Y55278807D01*
X51601293Y55286403D01*
X51678420Y55294000D01*
X51781580Y55294000D01*
X51858707Y55286403D01*
X51858707Y55286403D01*
G37*
G36*
X49318707Y55286403D02*
G01*
X49395836Y55278807D01*
X49593762Y55218767D01*
X49593765Y55218766D01*
X49776170Y55121268D01*
X49936055Y54990055D01*
X50067268Y54830170D01*
X50164766Y54647765D01*
X50164767Y54647762D01*
X50224807Y54449836D01*
X50245080Y54244000D01*
X50224807Y54038164D01*
X50164767Y53840238D01*
X50164766Y53840235D01*
X50067268Y53657830D01*
X49936055Y53497945D01*
X49776170Y53366732D01*
X49593765Y53269234D01*
X49593762Y53269233D01*
X49395836Y53209193D01*
X49318707Y53201597D01*
X49241580Y53194000D01*
X49138420Y53194000D01*
X49061293Y53201596D01*
X48984164Y53209193D01*
X48786238Y53269233D01*
X48786235Y53269234D01*
X48603830Y53366732D01*
X48443945Y53497945D01*
X48312732Y53657830D01*
X48215234Y53840235D01*
X48215233Y53840238D01*
X48155193Y54038164D01*
X48134920Y54244000D01*
X48155193Y54449836D01*
X48215233Y54647762D01*
X48215234Y54647765D01*
X48312732Y54830170D01*
X48443945Y54990055D01*
X48603830Y55121268D01*
X48786235Y55218766D01*
X48786238Y55218767D01*
X48984164Y55278807D01*
X49061293Y55286403D01*
X49138420Y55294000D01*
X49241580Y55294000D01*
X49318707Y55286403D01*
X49318707Y55286403D01*
G37*
G36*
X46778707Y55286403D02*
G01*
X46855836Y55278807D01*
X47053762Y55218767D01*
X47053765Y55218766D01*
X47236170Y55121268D01*
X47396055Y54990055D01*
X47527268Y54830170D01*
X47624766Y54647765D01*
X47624767Y54647762D01*
X47684807Y54449836D01*
X47705080Y54244000D01*
X47684807Y54038164D01*
X47624767Y53840238D01*
X47624766Y53840235D01*
X47527268Y53657830D01*
X47396055Y53497945D01*
X47236170Y53366732D01*
X47053765Y53269234D01*
X47053762Y53269233D01*
X46855836Y53209193D01*
X46778707Y53201597D01*
X46701580Y53194000D01*
X46598420Y53194000D01*
X46521293Y53201596D01*
X46444164Y53209193D01*
X46246238Y53269233D01*
X46246235Y53269234D01*
X46063830Y53366732D01*
X45903945Y53497945D01*
X45772732Y53657830D01*
X45675234Y53840235D01*
X45675233Y53840238D01*
X45615193Y54038164D01*
X45594920Y54244000D01*
X45615193Y54449836D01*
X45675233Y54647762D01*
X45675234Y54647765D01*
X45772732Y54830170D01*
X45903945Y54990055D01*
X46063830Y55121268D01*
X46246235Y55218766D01*
X46246238Y55218767D01*
X46444164Y55278807D01*
X46521293Y55286403D01*
X46598420Y55294000D01*
X46701580Y55294000D01*
X46778707Y55286403D01*
X46778707Y55286403D01*
G37*
G36*
X11218707Y55286403D02*
G01*
X11295836Y55278807D01*
X11493762Y55218767D01*
X11493765Y55218766D01*
X11676170Y55121268D01*
X11836055Y54990055D01*
X11967268Y54830170D01*
X12064766Y54647765D01*
X12064767Y54647762D01*
X12124807Y54449836D01*
X12145080Y54244000D01*
X12124807Y54038164D01*
X12064767Y53840238D01*
X12064766Y53840235D01*
X11967268Y53657830D01*
X11836055Y53497945D01*
X11676170Y53366732D01*
X11493765Y53269234D01*
X11493762Y53269233D01*
X11295836Y53209193D01*
X11218707Y53201597D01*
X11141580Y53194000D01*
X11038420Y53194000D01*
X10961293Y53201596D01*
X10884164Y53209193D01*
X10686238Y53269233D01*
X10686235Y53269234D01*
X10503830Y53366732D01*
X10343945Y53497945D01*
X10212732Y53657830D01*
X10115234Y53840235D01*
X10115233Y53840238D01*
X10055193Y54038164D01*
X10034920Y54244000D01*
X10055193Y54449836D01*
X10115233Y54647762D01*
X10115234Y54647765D01*
X10212732Y54830170D01*
X10343945Y54990055D01*
X10503830Y55121268D01*
X10686235Y55218766D01*
X10686238Y55218767D01*
X10884164Y55278807D01*
X10961293Y55286403D01*
X11038420Y55294000D01*
X11141580Y55294000D01*
X11218707Y55286403D01*
X11218707Y55286403D01*
G37*
G36*
X41698707Y55286403D02*
G01*
X41775836Y55278807D01*
X41973762Y55218767D01*
X41973765Y55218766D01*
X42156170Y55121268D01*
X42316055Y54990055D01*
X42447268Y54830170D01*
X42544766Y54647765D01*
X42544767Y54647762D01*
X42604807Y54449836D01*
X42625080Y54244000D01*
X42604807Y54038164D01*
X42544767Y53840238D01*
X42544766Y53840235D01*
X42447268Y53657830D01*
X42316055Y53497945D01*
X42156170Y53366732D01*
X41973765Y53269234D01*
X41973762Y53269233D01*
X41775836Y53209193D01*
X41698707Y53201597D01*
X41621580Y53194000D01*
X41518420Y53194000D01*
X41441293Y53201596D01*
X41364164Y53209193D01*
X41166238Y53269233D01*
X41166235Y53269234D01*
X40983830Y53366732D01*
X40823945Y53497945D01*
X40692732Y53657830D01*
X40595234Y53840235D01*
X40595233Y53840238D01*
X40535193Y54038164D01*
X40514920Y54244000D01*
X40535193Y54449836D01*
X40595233Y54647762D01*
X40595234Y54647765D01*
X40692732Y54830170D01*
X40823945Y54990055D01*
X40983830Y55121268D01*
X41166235Y55218766D01*
X41166238Y55218767D01*
X41364164Y55278807D01*
X41441293Y55286403D01*
X41518420Y55294000D01*
X41621580Y55294000D01*
X41698707Y55286403D01*
X41698707Y55286403D01*
G37*
G36*
X39158707Y55286403D02*
G01*
X39235836Y55278807D01*
X39433762Y55218767D01*
X39433765Y55218766D01*
X39616170Y55121268D01*
X39776055Y54990055D01*
X39907268Y54830170D01*
X40004766Y54647765D01*
X40004767Y54647762D01*
X40064807Y54449836D01*
X40085080Y54244000D01*
X40064807Y54038164D01*
X40004767Y53840238D01*
X40004766Y53840235D01*
X39907268Y53657830D01*
X39776055Y53497945D01*
X39616170Y53366732D01*
X39433765Y53269234D01*
X39433762Y53269233D01*
X39235836Y53209193D01*
X39158707Y53201597D01*
X39081580Y53194000D01*
X38978420Y53194000D01*
X38901293Y53201596D01*
X38824164Y53209193D01*
X38626238Y53269233D01*
X38626235Y53269234D01*
X38443830Y53366732D01*
X38283945Y53497945D01*
X38152732Y53657830D01*
X38055234Y53840235D01*
X38055233Y53840238D01*
X37995193Y54038164D01*
X37974920Y54244000D01*
X37995193Y54449836D01*
X38055233Y54647762D01*
X38055234Y54647765D01*
X38152732Y54830170D01*
X38283945Y54990055D01*
X38443830Y55121268D01*
X38626235Y55218766D01*
X38626238Y55218767D01*
X38824164Y55278807D01*
X38901293Y55286403D01*
X38978420Y55294000D01*
X39081580Y55294000D01*
X39158707Y55286403D01*
X39158707Y55286403D01*
G37*
G36*
X18838707Y55286403D02*
G01*
X18915836Y55278807D01*
X19113762Y55218767D01*
X19113765Y55218766D01*
X19296170Y55121268D01*
X19456055Y54990055D01*
X19587268Y54830170D01*
X19684766Y54647765D01*
X19684767Y54647762D01*
X19744807Y54449836D01*
X19765080Y54244000D01*
X19744807Y54038164D01*
X19684767Y53840238D01*
X19684766Y53840235D01*
X19587268Y53657830D01*
X19456055Y53497945D01*
X19296170Y53366732D01*
X19113765Y53269234D01*
X19113762Y53269233D01*
X18915836Y53209193D01*
X18838707Y53201597D01*
X18761580Y53194000D01*
X18658420Y53194000D01*
X18581293Y53201596D01*
X18504164Y53209193D01*
X18306238Y53269233D01*
X18306235Y53269234D01*
X18123830Y53366732D01*
X17963945Y53497945D01*
X17832732Y53657830D01*
X17735234Y53840235D01*
X17735233Y53840238D01*
X17675193Y54038164D01*
X17654920Y54244000D01*
X17675193Y54449836D01*
X17735233Y54647762D01*
X17735234Y54647765D01*
X17832732Y54830170D01*
X17963945Y54990055D01*
X18123830Y55121268D01*
X18306235Y55218766D01*
X18306238Y55218767D01*
X18504164Y55278807D01*
X18581293Y55286403D01*
X18658420Y55294000D01*
X18761580Y55294000D01*
X18838707Y55286403D01*
X18838707Y55286403D01*
G37*
G36*
X21378707Y55286403D02*
G01*
X21455836Y55278807D01*
X21653762Y55218767D01*
X21653765Y55218766D01*
X21836170Y55121268D01*
X21996055Y54990055D01*
X22127268Y54830170D01*
X22224766Y54647765D01*
X22224767Y54647762D01*
X22284807Y54449836D01*
X22305080Y54244000D01*
X22284807Y54038164D01*
X22224767Y53840238D01*
X22224766Y53840235D01*
X22127268Y53657830D01*
X21996055Y53497945D01*
X21836170Y53366732D01*
X21653765Y53269234D01*
X21653762Y53269233D01*
X21455836Y53209193D01*
X21378707Y53201597D01*
X21301580Y53194000D01*
X21198420Y53194000D01*
X21121293Y53201596D01*
X21044164Y53209193D01*
X20846238Y53269233D01*
X20846235Y53269234D01*
X20663830Y53366732D01*
X20503945Y53497945D01*
X20372732Y53657830D01*
X20275234Y53840235D01*
X20275233Y53840238D01*
X20215193Y54038164D01*
X20194920Y54244000D01*
X20215193Y54449836D01*
X20275233Y54647762D01*
X20275234Y54647765D01*
X20372732Y54830170D01*
X20503945Y54990055D01*
X20663830Y55121268D01*
X20846235Y55218766D01*
X20846238Y55218767D01*
X21044164Y55278807D01*
X21121293Y55286403D01*
X21198420Y55294000D01*
X21301580Y55294000D01*
X21378707Y55286403D01*
X21378707Y55286403D01*
G37*
G36*
X23918707Y55286403D02*
G01*
X23995836Y55278807D01*
X24193762Y55218767D01*
X24193765Y55218766D01*
X24376170Y55121268D01*
X24536055Y54990055D01*
X24667268Y54830170D01*
X24764766Y54647765D01*
X24764767Y54647762D01*
X24824807Y54449836D01*
X24845080Y54244000D01*
X24824807Y54038164D01*
X24764767Y53840238D01*
X24764766Y53840235D01*
X24667268Y53657830D01*
X24536055Y53497945D01*
X24376170Y53366732D01*
X24193765Y53269234D01*
X24193762Y53269233D01*
X23995836Y53209193D01*
X23918707Y53201597D01*
X23841580Y53194000D01*
X23738420Y53194000D01*
X23661293Y53201596D01*
X23584164Y53209193D01*
X23386238Y53269233D01*
X23386235Y53269234D01*
X23203830Y53366732D01*
X23043945Y53497945D01*
X22912732Y53657830D01*
X22815234Y53840235D01*
X22815233Y53840238D01*
X22755193Y54038164D01*
X22734920Y54244000D01*
X22755193Y54449836D01*
X22815233Y54647762D01*
X22815234Y54647765D01*
X22912732Y54830170D01*
X23043945Y54990055D01*
X23203830Y55121268D01*
X23386235Y55218766D01*
X23386238Y55218767D01*
X23584164Y55278807D01*
X23661293Y55286403D01*
X23738420Y55294000D01*
X23841580Y55294000D01*
X23918707Y55286403D01*
X23918707Y55286403D01*
G37*
G36*
X44238707Y55286403D02*
G01*
X44315836Y55278807D01*
X44513762Y55218767D01*
X44513765Y55218766D01*
X44696170Y55121268D01*
X44856055Y54990055D01*
X44987268Y54830170D01*
X45084766Y54647765D01*
X45084767Y54647762D01*
X45144807Y54449836D01*
X45165080Y54244000D01*
X45144807Y54038164D01*
X45084767Y53840238D01*
X45084766Y53840235D01*
X44987268Y53657830D01*
X44856055Y53497945D01*
X44696170Y53366732D01*
X44513765Y53269234D01*
X44513762Y53269233D01*
X44315836Y53209193D01*
X44238707Y53201597D01*
X44161580Y53194000D01*
X44058420Y53194000D01*
X43981293Y53201596D01*
X43904164Y53209193D01*
X43706238Y53269233D01*
X43706235Y53269234D01*
X43523830Y53366732D01*
X43363945Y53497945D01*
X43232732Y53657830D01*
X43135234Y53840235D01*
X43135233Y53840238D01*
X43075193Y54038164D01*
X43054920Y54244000D01*
X43075193Y54449836D01*
X43135233Y54647762D01*
X43135234Y54647765D01*
X43232732Y54830170D01*
X43363945Y54990055D01*
X43523830Y55121268D01*
X43706235Y55218766D01*
X43706238Y55218767D01*
X43904164Y55278807D01*
X43981293Y55286403D01*
X44058420Y55294000D01*
X44161580Y55294000D01*
X44238707Y55286403D01*
X44238707Y55286403D01*
G37*
G36*
X28998707Y55286403D02*
G01*
X29075836Y55278807D01*
X29273762Y55218767D01*
X29273765Y55218766D01*
X29456170Y55121268D01*
X29616055Y54990055D01*
X29747268Y54830170D01*
X29844766Y54647765D01*
X29844767Y54647762D01*
X29904807Y54449836D01*
X29925080Y54244000D01*
X29904807Y54038164D01*
X29844767Y53840238D01*
X29844766Y53840235D01*
X29747268Y53657830D01*
X29616055Y53497945D01*
X29456170Y53366732D01*
X29273765Y53269234D01*
X29273762Y53269233D01*
X29075836Y53209193D01*
X28998707Y53201597D01*
X28921580Y53194000D01*
X28818420Y53194000D01*
X28741293Y53201596D01*
X28664164Y53209193D01*
X28466238Y53269233D01*
X28466235Y53269234D01*
X28283830Y53366732D01*
X28123945Y53497945D01*
X27992732Y53657830D01*
X27895234Y53840235D01*
X27895233Y53840238D01*
X27835193Y54038164D01*
X27814920Y54244000D01*
X27835193Y54449836D01*
X27895233Y54647762D01*
X27895234Y54647765D01*
X27992732Y54830170D01*
X28123945Y54990055D01*
X28283830Y55121268D01*
X28466235Y55218766D01*
X28466238Y55218767D01*
X28664164Y55278807D01*
X28741293Y55286403D01*
X28818420Y55294000D01*
X28921580Y55294000D01*
X28998707Y55286403D01*
X28998707Y55286403D01*
G37*
G36*
X31538707Y55286403D02*
G01*
X31615836Y55278807D01*
X31813762Y55218767D01*
X31813765Y55218766D01*
X31996170Y55121268D01*
X32156055Y54990055D01*
X32287268Y54830170D01*
X32384766Y54647765D01*
X32384767Y54647762D01*
X32444807Y54449836D01*
X32465080Y54244000D01*
X32444807Y54038164D01*
X32384767Y53840238D01*
X32384766Y53840235D01*
X32287268Y53657830D01*
X32156055Y53497945D01*
X31996170Y53366732D01*
X31813765Y53269234D01*
X31813762Y53269233D01*
X31615836Y53209193D01*
X31538707Y53201597D01*
X31461580Y53194000D01*
X31358420Y53194000D01*
X31281293Y53201596D01*
X31204164Y53209193D01*
X31006238Y53269233D01*
X31006235Y53269234D01*
X30823830Y53366732D01*
X30663945Y53497945D01*
X30532732Y53657830D01*
X30435234Y53840235D01*
X30435233Y53840238D01*
X30375193Y54038164D01*
X30354920Y54244000D01*
X30375193Y54449836D01*
X30435233Y54647762D01*
X30435234Y54647765D01*
X30532732Y54830170D01*
X30663945Y54990055D01*
X30823830Y55121268D01*
X31006235Y55218766D01*
X31006238Y55218767D01*
X31204164Y55278807D01*
X31281293Y55286403D01*
X31358420Y55294000D01*
X31461580Y55294000D01*
X31538707Y55286403D01*
X31538707Y55286403D01*
G37*
G36*
X34078707Y55286403D02*
G01*
X34155836Y55278807D01*
X34353762Y55218767D01*
X34353765Y55218766D01*
X34536170Y55121268D01*
X34696055Y54990055D01*
X34827268Y54830170D01*
X34924766Y54647765D01*
X34924767Y54647762D01*
X34984807Y54449836D01*
X35005080Y54244000D01*
X34984807Y54038164D01*
X34924767Y53840238D01*
X34924766Y53840235D01*
X34827268Y53657830D01*
X34696055Y53497945D01*
X34536170Y53366732D01*
X34353765Y53269234D01*
X34353762Y53269233D01*
X34155836Y53209193D01*
X34078707Y53201597D01*
X34001580Y53194000D01*
X33898420Y53194000D01*
X33821293Y53201596D01*
X33744164Y53209193D01*
X33546238Y53269233D01*
X33546235Y53269234D01*
X33363830Y53366732D01*
X33203945Y53497945D01*
X33072732Y53657830D01*
X32975234Y53840235D01*
X32975233Y53840238D01*
X32915193Y54038164D01*
X32894920Y54244000D01*
X32915193Y54449836D01*
X32975233Y54647762D01*
X32975234Y54647765D01*
X33072732Y54830170D01*
X33203945Y54990055D01*
X33363830Y55121268D01*
X33546235Y55218766D01*
X33546238Y55218767D01*
X33744164Y55278807D01*
X33821293Y55286403D01*
X33898420Y55294000D01*
X34001580Y55294000D01*
X34078707Y55286403D01*
X34078707Y55286403D01*
G37*
G36*
X36618707Y55286403D02*
G01*
X36695836Y55278807D01*
X36893762Y55218767D01*
X36893765Y55218766D01*
X37076170Y55121268D01*
X37236055Y54990055D01*
X37367268Y54830170D01*
X37464766Y54647765D01*
X37464767Y54647762D01*
X37524807Y54449836D01*
X37545080Y54244000D01*
X37524807Y54038164D01*
X37464767Y53840238D01*
X37464766Y53840235D01*
X37367268Y53657830D01*
X37236055Y53497945D01*
X37076170Y53366732D01*
X36893765Y53269234D01*
X36893762Y53269233D01*
X36695836Y53209193D01*
X36618707Y53201597D01*
X36541580Y53194000D01*
X36438420Y53194000D01*
X36361293Y53201596D01*
X36284164Y53209193D01*
X36086238Y53269233D01*
X36086235Y53269234D01*
X35903830Y53366732D01*
X35743945Y53497945D01*
X35612732Y53657830D01*
X35515234Y53840235D01*
X35515233Y53840238D01*
X35455193Y54038164D01*
X35434920Y54244000D01*
X35455193Y54449836D01*
X35515233Y54647762D01*
X35515234Y54647765D01*
X35612732Y54830170D01*
X35743945Y54990055D01*
X35903830Y55121268D01*
X36086235Y55218766D01*
X36086238Y55218767D01*
X36284164Y55278807D01*
X36361293Y55286403D01*
X36438420Y55294000D01*
X36541580Y55294000D01*
X36618707Y55286403D01*
X36618707Y55286403D01*
G37*
G36*
X26458707Y55286403D02*
G01*
X26535836Y55278807D01*
X26733762Y55218767D01*
X26733765Y55218766D01*
X26916170Y55121268D01*
X27076055Y54990055D01*
X27207268Y54830170D01*
X27304766Y54647765D01*
X27304767Y54647762D01*
X27364807Y54449836D01*
X27385080Y54244000D01*
X27364807Y54038164D01*
X27304767Y53840238D01*
X27304766Y53840235D01*
X27207268Y53657830D01*
X27076055Y53497945D01*
X26916170Y53366732D01*
X26733765Y53269234D01*
X26733762Y53269233D01*
X26535836Y53209193D01*
X26458707Y53201597D01*
X26381580Y53194000D01*
X26278420Y53194000D01*
X26201293Y53201596D01*
X26124164Y53209193D01*
X25926238Y53269233D01*
X25926235Y53269234D01*
X25743830Y53366732D01*
X25583945Y53497945D01*
X25452732Y53657830D01*
X25355234Y53840235D01*
X25355233Y53840238D01*
X25295193Y54038164D01*
X25274920Y54244000D01*
X25295193Y54449836D01*
X25355233Y54647762D01*
X25355234Y54647765D01*
X25452732Y54830170D01*
X25583945Y54990055D01*
X25743830Y55121268D01*
X25926235Y55218766D01*
X25926238Y55218767D01*
X26124164Y55278807D01*
X26201293Y55286403D01*
X26278420Y55294000D01*
X26381580Y55294000D01*
X26458707Y55286403D01*
X26458707Y55286403D01*
G37*
M02*
