G04 #@! TF.GenerationSoftware,KiCad,Pcbnew,(5.1.4)-1*
G04 #@! TF.CreationDate,2019-11-27T00:46:48+11:00*
G04 #@! TF.ProjectId,dingo-hat,64696e67-6f2d-4686-9174-2e6b69636164,rev?*
G04 #@! TF.SameCoordinates,Original*
G04 #@! TF.FileFunction,Soldermask,Bot*
G04 #@! TF.FilePolarity,Negative*
%FSLAX46Y46*%
G04 Gerber Fmt 4.6, Leading zero omitted, Abs format (unit mm)*
G04 Created by KiCad (PCBNEW (5.1.4)-1) date 2019-11-27 00:46:48*
%MOMM*%
%LPD*%
G04 APERTURE LIST*
%ADD10C,0.010000*%
%ADD11C,0.100000*%
G04 APERTURE END LIST*
D10*
G36*
X108476464Y-54919257D02*
G01*
X108459021Y-54933693D01*
X108433661Y-54957627D01*
X108401967Y-54989407D01*
X108365521Y-55027381D01*
X108325905Y-55069895D01*
X108284702Y-55115296D01*
X108243495Y-55161933D01*
X108203865Y-55208152D01*
X108198221Y-55214867D01*
X108019488Y-55441144D01*
X107855073Y-55676208D01*
X107705227Y-55919499D01*
X107570200Y-56170456D01*
X107450244Y-56428520D01*
X107345610Y-56693130D01*
X107256547Y-56963726D01*
X107183307Y-57239750D01*
X107126141Y-57520639D01*
X107104416Y-57657500D01*
X107091982Y-57746971D01*
X107081922Y-57827916D01*
X107074007Y-57903841D01*
X107068008Y-57978249D01*
X107063697Y-58054646D01*
X107060845Y-58136535D01*
X107059224Y-58227420D01*
X107058606Y-58330806D01*
X107058581Y-58360233D01*
X107059654Y-58501933D01*
X107063127Y-58630726D01*
X107069382Y-58750517D01*
X107078799Y-58865213D01*
X107091759Y-58978719D01*
X107108643Y-59094941D01*
X107129831Y-59217783D01*
X107154785Y-59346600D01*
X107217986Y-59617421D01*
X107297310Y-59885188D01*
X107392180Y-60148658D01*
X107502015Y-60406589D01*
X107626235Y-60657739D01*
X107764262Y-60900864D01*
X107915515Y-61134722D01*
X108079415Y-61358071D01*
X108112378Y-61399767D01*
X108300692Y-61621820D01*
X108499767Y-61830900D01*
X108709188Y-62026755D01*
X108928541Y-62209133D01*
X109157411Y-62377784D01*
X109395384Y-62532455D01*
X109642045Y-62672896D01*
X109896979Y-62798854D01*
X110159773Y-62910077D01*
X110430010Y-63006315D01*
X110707277Y-63087316D01*
X110991159Y-63152829D01*
X111007067Y-63155999D01*
X111091665Y-63171380D01*
X111185779Y-63186161D01*
X111285917Y-63199961D01*
X111388590Y-63212398D01*
X111490305Y-63223091D01*
X111587571Y-63231657D01*
X111676897Y-63237715D01*
X111754793Y-63240883D01*
X111786726Y-63241265D01*
X111859418Y-63241267D01*
X111936926Y-63431767D01*
X112054080Y-63432427D01*
X112101732Y-63432465D01*
X112147748Y-63432093D01*
X112187236Y-63431378D01*
X112215303Y-63430384D01*
X112217800Y-63430241D01*
X112512229Y-63403987D01*
X112803216Y-63361541D01*
X113090083Y-63303118D01*
X113372150Y-63228932D01*
X113648740Y-63139199D01*
X113919173Y-63034134D01*
X114182771Y-62913950D01*
X114438856Y-62778863D01*
X114625422Y-62667997D01*
X114867932Y-62506846D01*
X115099036Y-62333551D01*
X115318455Y-62148717D01*
X115525907Y-61952951D01*
X115721114Y-61746858D01*
X115903796Y-61531043D01*
X116073671Y-61306111D01*
X116230461Y-61072668D01*
X116373884Y-60831319D01*
X116503662Y-60582671D01*
X116619514Y-60327327D01*
X116721160Y-60065894D01*
X116808320Y-59798978D01*
X116880715Y-59527183D01*
X116938063Y-59251115D01*
X116980085Y-58971379D01*
X117006501Y-58688581D01*
X117017031Y-58403327D01*
X117011396Y-58116221D01*
X116989314Y-57827870D01*
X116962387Y-57615167D01*
X116912893Y-57336248D01*
X116847433Y-57058959D01*
X116766633Y-56785336D01*
X116671120Y-56517416D01*
X116561519Y-56257234D01*
X116513541Y-56155094D01*
X116490117Y-56107364D01*
X116464358Y-56055960D01*
X116437549Y-56003334D01*
X116410975Y-55951939D01*
X116385919Y-55904227D01*
X116363667Y-55862652D01*
X116345504Y-55829666D01*
X116332713Y-55807722D01*
X116327734Y-55800350D01*
X116319983Y-55803078D01*
X116301433Y-55812664D01*
X116275657Y-55827011D01*
X116246226Y-55844018D01*
X116216712Y-55861587D01*
X116190685Y-55877619D01*
X116171719Y-55890015D01*
X116163384Y-55896676D01*
X116163267Y-55897004D01*
X116167181Y-55905741D01*
X116177688Y-55925699D01*
X116192941Y-55953418D01*
X116202707Y-55970761D01*
X116230588Y-56021786D01*
X116263196Y-56084543D01*
X116298658Y-56155168D01*
X116335105Y-56229798D01*
X116370662Y-56304569D01*
X116403460Y-56375618D01*
X116431625Y-56439081D01*
X116445628Y-56472167D01*
X116546898Y-56738001D01*
X116632200Y-57006510D01*
X116701818Y-57278918D01*
X116756032Y-57556448D01*
X116795126Y-57840323D01*
X116815959Y-58076600D01*
X116821689Y-58200761D01*
X116823391Y-58336879D01*
X116821246Y-58480507D01*
X116815433Y-58627199D01*
X116806133Y-58772511D01*
X116793527Y-58911995D01*
X116777793Y-59041207D01*
X116776505Y-59050267D01*
X116728425Y-59326019D01*
X116663915Y-59599808D01*
X116583461Y-59870451D01*
X116487549Y-60136766D01*
X116376665Y-60397569D01*
X116251295Y-60651679D01*
X116111924Y-60897912D01*
X115959038Y-61135085D01*
X115867114Y-61264300D01*
X115701684Y-61475689D01*
X115522964Y-61679350D01*
X115332588Y-61873769D01*
X115132191Y-62057431D01*
X114923406Y-62228820D01*
X114707868Y-62386421D01*
X114534968Y-62499513D01*
X114289052Y-62643301D01*
X114040472Y-62770849D01*
X113787691Y-62882812D01*
X113529171Y-62979847D01*
X113263375Y-63062608D01*
X113132494Y-63097523D01*
X112964789Y-63136302D01*
X112791180Y-63169632D01*
X112615254Y-63197069D01*
X112440603Y-63218165D01*
X112270814Y-63232474D01*
X112109477Y-63239550D01*
X111989200Y-63239709D01*
X111857967Y-63237034D01*
X111780905Y-63046534D01*
X111758239Y-62990532D01*
X111730710Y-62922563D01*
X111699825Y-62846346D01*
X111667093Y-62765603D01*
X111634022Y-62684053D01*
X111602120Y-62605418D01*
X111588720Y-62572400D01*
X111559735Y-62500963D01*
X111525054Y-62415449D01*
X111485334Y-62317474D01*
X111441230Y-62208660D01*
X111393397Y-62090624D01*
X111342492Y-61964985D01*
X111289170Y-61833363D01*
X111234086Y-61697377D01*
X111177897Y-61558645D01*
X111121257Y-61418787D01*
X111064824Y-61279421D01*
X111009251Y-61142166D01*
X110955195Y-61008642D01*
X110903312Y-60880467D01*
X110854256Y-60759261D01*
X110808685Y-60646641D01*
X110767253Y-60544228D01*
X110730616Y-60453640D01*
X110700657Y-60379534D01*
X110664552Y-60290234D01*
X110625710Y-60194225D01*
X110585563Y-60095045D01*
X110545544Y-59996233D01*
X110507087Y-59901325D01*
X110471625Y-59813862D01*
X110440591Y-59737381D01*
X110431462Y-59714900D01*
X110407714Y-59656405D01*
X110378001Y-59583176D01*
X110342713Y-59496175D01*
X110302240Y-59396363D01*
X110256971Y-59284702D01*
X110207297Y-59162155D01*
X110153606Y-59029682D01*
X110096288Y-58888246D01*
X110035732Y-58738809D01*
X109972329Y-58582332D01*
X109906468Y-58419778D01*
X109838538Y-58252107D01*
X109768929Y-58080282D01*
X109698031Y-57905265D01*
X109626233Y-57728018D01*
X109553925Y-57549502D01*
X109481496Y-57370679D01*
X109409336Y-57192511D01*
X109337834Y-57015960D01*
X109267381Y-56841988D01*
X109198365Y-56671556D01*
X109131176Y-56505627D01*
X109066205Y-56345162D01*
X109003840Y-56191122D01*
X108944470Y-56044471D01*
X108888487Y-55906169D01*
X108836278Y-55777178D01*
X108788234Y-55658461D01*
X108744745Y-55550979D01*
X108706199Y-55455693D01*
X108672987Y-55373567D01*
X108653328Y-55324933D01*
X108621694Y-55246835D01*
X108591847Y-55173477D01*
X108564408Y-55106364D01*
X108539998Y-55046997D01*
X108519238Y-54996881D01*
X108502748Y-54957518D01*
X108491149Y-54930412D01*
X108485063Y-54917065D01*
X108484407Y-54915972D01*
X108476464Y-54919257D01*
X108476464Y-54919257D01*
G37*
X108476464Y-54919257D02*
X108459021Y-54933693D01*
X108433661Y-54957627D01*
X108401967Y-54989407D01*
X108365521Y-55027381D01*
X108325905Y-55069895D01*
X108284702Y-55115296D01*
X108243495Y-55161933D01*
X108203865Y-55208152D01*
X108198221Y-55214867D01*
X108019488Y-55441144D01*
X107855073Y-55676208D01*
X107705227Y-55919499D01*
X107570200Y-56170456D01*
X107450244Y-56428520D01*
X107345610Y-56693130D01*
X107256547Y-56963726D01*
X107183307Y-57239750D01*
X107126141Y-57520639D01*
X107104416Y-57657500D01*
X107091982Y-57746971D01*
X107081922Y-57827916D01*
X107074007Y-57903841D01*
X107068008Y-57978249D01*
X107063697Y-58054646D01*
X107060845Y-58136535D01*
X107059224Y-58227420D01*
X107058606Y-58330806D01*
X107058581Y-58360233D01*
X107059654Y-58501933D01*
X107063127Y-58630726D01*
X107069382Y-58750517D01*
X107078799Y-58865213D01*
X107091759Y-58978719D01*
X107108643Y-59094941D01*
X107129831Y-59217783D01*
X107154785Y-59346600D01*
X107217986Y-59617421D01*
X107297310Y-59885188D01*
X107392180Y-60148658D01*
X107502015Y-60406589D01*
X107626235Y-60657739D01*
X107764262Y-60900864D01*
X107915515Y-61134722D01*
X108079415Y-61358071D01*
X108112378Y-61399767D01*
X108300692Y-61621820D01*
X108499767Y-61830900D01*
X108709188Y-62026755D01*
X108928541Y-62209133D01*
X109157411Y-62377784D01*
X109395384Y-62532455D01*
X109642045Y-62672896D01*
X109896979Y-62798854D01*
X110159773Y-62910077D01*
X110430010Y-63006315D01*
X110707277Y-63087316D01*
X110991159Y-63152829D01*
X111007067Y-63155999D01*
X111091665Y-63171380D01*
X111185779Y-63186161D01*
X111285917Y-63199961D01*
X111388590Y-63212398D01*
X111490305Y-63223091D01*
X111587571Y-63231657D01*
X111676897Y-63237715D01*
X111754793Y-63240883D01*
X111786726Y-63241265D01*
X111859418Y-63241267D01*
X111936926Y-63431767D01*
X112054080Y-63432427D01*
X112101732Y-63432465D01*
X112147748Y-63432093D01*
X112187236Y-63431378D01*
X112215303Y-63430384D01*
X112217800Y-63430241D01*
X112512229Y-63403987D01*
X112803216Y-63361541D01*
X113090083Y-63303118D01*
X113372150Y-63228932D01*
X113648740Y-63139199D01*
X113919173Y-63034134D01*
X114182771Y-62913950D01*
X114438856Y-62778863D01*
X114625422Y-62667997D01*
X114867932Y-62506846D01*
X115099036Y-62333551D01*
X115318455Y-62148717D01*
X115525907Y-61952951D01*
X115721114Y-61746858D01*
X115903796Y-61531043D01*
X116073671Y-61306111D01*
X116230461Y-61072668D01*
X116373884Y-60831319D01*
X116503662Y-60582671D01*
X116619514Y-60327327D01*
X116721160Y-60065894D01*
X116808320Y-59798978D01*
X116880715Y-59527183D01*
X116938063Y-59251115D01*
X116980085Y-58971379D01*
X117006501Y-58688581D01*
X117017031Y-58403327D01*
X117011396Y-58116221D01*
X116989314Y-57827870D01*
X116962387Y-57615167D01*
X116912893Y-57336248D01*
X116847433Y-57058959D01*
X116766633Y-56785336D01*
X116671120Y-56517416D01*
X116561519Y-56257234D01*
X116513541Y-56155094D01*
X116490117Y-56107364D01*
X116464358Y-56055960D01*
X116437549Y-56003334D01*
X116410975Y-55951939D01*
X116385919Y-55904227D01*
X116363667Y-55862652D01*
X116345504Y-55829666D01*
X116332713Y-55807722D01*
X116327734Y-55800350D01*
X116319983Y-55803078D01*
X116301433Y-55812664D01*
X116275657Y-55827011D01*
X116246226Y-55844018D01*
X116216712Y-55861587D01*
X116190685Y-55877619D01*
X116171719Y-55890015D01*
X116163384Y-55896676D01*
X116163267Y-55897004D01*
X116167181Y-55905741D01*
X116177688Y-55925699D01*
X116192941Y-55953418D01*
X116202707Y-55970761D01*
X116230588Y-56021786D01*
X116263196Y-56084543D01*
X116298658Y-56155168D01*
X116335105Y-56229798D01*
X116370662Y-56304569D01*
X116403460Y-56375618D01*
X116431625Y-56439081D01*
X116445628Y-56472167D01*
X116546898Y-56738001D01*
X116632200Y-57006510D01*
X116701818Y-57278918D01*
X116756032Y-57556448D01*
X116795126Y-57840323D01*
X116815959Y-58076600D01*
X116821689Y-58200761D01*
X116823391Y-58336879D01*
X116821246Y-58480507D01*
X116815433Y-58627199D01*
X116806133Y-58772511D01*
X116793527Y-58911995D01*
X116777793Y-59041207D01*
X116776505Y-59050267D01*
X116728425Y-59326019D01*
X116663915Y-59599808D01*
X116583461Y-59870451D01*
X116487549Y-60136766D01*
X116376665Y-60397569D01*
X116251295Y-60651679D01*
X116111924Y-60897912D01*
X115959038Y-61135085D01*
X115867114Y-61264300D01*
X115701684Y-61475689D01*
X115522964Y-61679350D01*
X115332588Y-61873769D01*
X115132191Y-62057431D01*
X114923406Y-62228820D01*
X114707868Y-62386421D01*
X114534968Y-62499513D01*
X114289052Y-62643301D01*
X114040472Y-62770849D01*
X113787691Y-62882812D01*
X113529171Y-62979847D01*
X113263375Y-63062608D01*
X113132494Y-63097523D01*
X112964789Y-63136302D01*
X112791180Y-63169632D01*
X112615254Y-63197069D01*
X112440603Y-63218165D01*
X112270814Y-63232474D01*
X112109477Y-63239550D01*
X111989200Y-63239709D01*
X111857967Y-63237034D01*
X111780905Y-63046534D01*
X111758239Y-62990532D01*
X111730710Y-62922563D01*
X111699825Y-62846346D01*
X111667093Y-62765603D01*
X111634022Y-62684053D01*
X111602120Y-62605418D01*
X111588720Y-62572400D01*
X111559735Y-62500963D01*
X111525054Y-62415449D01*
X111485334Y-62317474D01*
X111441230Y-62208660D01*
X111393397Y-62090624D01*
X111342492Y-61964985D01*
X111289170Y-61833363D01*
X111234086Y-61697377D01*
X111177897Y-61558645D01*
X111121257Y-61418787D01*
X111064824Y-61279421D01*
X111009251Y-61142166D01*
X110955195Y-61008642D01*
X110903312Y-60880467D01*
X110854256Y-60759261D01*
X110808685Y-60646641D01*
X110767253Y-60544228D01*
X110730616Y-60453640D01*
X110700657Y-60379534D01*
X110664552Y-60290234D01*
X110625710Y-60194225D01*
X110585563Y-60095045D01*
X110545544Y-59996233D01*
X110507087Y-59901325D01*
X110471625Y-59813862D01*
X110440591Y-59737381D01*
X110431462Y-59714900D01*
X110407714Y-59656405D01*
X110378001Y-59583176D01*
X110342713Y-59496175D01*
X110302240Y-59396363D01*
X110256971Y-59284702D01*
X110207297Y-59162155D01*
X110153606Y-59029682D01*
X110096288Y-58888246D01*
X110035732Y-58738809D01*
X109972329Y-58582332D01*
X109906468Y-58419778D01*
X109838538Y-58252107D01*
X109768929Y-58080282D01*
X109698031Y-57905265D01*
X109626233Y-57728018D01*
X109553925Y-57549502D01*
X109481496Y-57370679D01*
X109409336Y-57192511D01*
X109337834Y-57015960D01*
X109267381Y-56841988D01*
X109198365Y-56671556D01*
X109131176Y-56505627D01*
X109066205Y-56345162D01*
X109003840Y-56191122D01*
X108944470Y-56044471D01*
X108888487Y-55906169D01*
X108836278Y-55777178D01*
X108788234Y-55658461D01*
X108744745Y-55550979D01*
X108706199Y-55455693D01*
X108672987Y-55373567D01*
X108653328Y-55324933D01*
X108621694Y-55246835D01*
X108591847Y-55173477D01*
X108564408Y-55106364D01*
X108539998Y-55046997D01*
X108519238Y-54996881D01*
X108502748Y-54957518D01*
X108491149Y-54930412D01*
X108485063Y-54917065D01*
X108484407Y-54915972D01*
X108476464Y-54919257D01*
D11*
G36*
X142276983Y-91159760D02*
G01*
X142463999Y-91216490D01*
X142636344Y-91308611D01*
X142787412Y-91432588D01*
X142911389Y-91583656D01*
X143003510Y-91756001D01*
X143060240Y-91943017D01*
X143080000Y-92143640D01*
X143080000Y-98156360D01*
X143060240Y-98356983D01*
X143003510Y-98543999D01*
X142911389Y-98716344D01*
X142787412Y-98867412D01*
X142636344Y-98991389D01*
X142463999Y-99083510D01*
X142276983Y-99140240D01*
X142076360Y-99160000D01*
X139843640Y-99160000D01*
X139643017Y-99140240D01*
X139456001Y-99083510D01*
X139283656Y-98991389D01*
X139132588Y-98867412D01*
X139008611Y-98716344D01*
X138916490Y-98543999D01*
X138859760Y-98356983D01*
X138840000Y-98156360D01*
X138840000Y-92143640D01*
X138859760Y-91943017D01*
X138916490Y-91756001D01*
X139008611Y-91583656D01*
X139132588Y-91432588D01*
X139283656Y-91308611D01*
X139456001Y-91216490D01*
X139643017Y-91159760D01*
X139843640Y-91140000D01*
X142076360Y-91140000D01*
X142276983Y-91159760D01*
X142276983Y-91159760D01*
G37*
G36*
X137196983Y-91159760D02*
G01*
X137383999Y-91216490D01*
X137556344Y-91308611D01*
X137707412Y-91432588D01*
X137831389Y-91583656D01*
X137923510Y-91756001D01*
X137980240Y-91943017D01*
X138000000Y-92143640D01*
X138000000Y-98156360D01*
X137980240Y-98356983D01*
X137923510Y-98543999D01*
X137831389Y-98716344D01*
X137707412Y-98867412D01*
X137556344Y-98991389D01*
X137383999Y-99083510D01*
X137196983Y-99140240D01*
X136996360Y-99160000D01*
X134763640Y-99160000D01*
X134563017Y-99140240D01*
X134376001Y-99083510D01*
X134203656Y-98991389D01*
X134052588Y-98867412D01*
X133928611Y-98716344D01*
X133836490Y-98543999D01*
X133779760Y-98356983D01*
X133760000Y-98156360D01*
X133760000Y-92143640D01*
X133779760Y-91943017D01*
X133836490Y-91756001D01*
X133928611Y-91583656D01*
X134052588Y-91432588D01*
X134203656Y-91308611D01*
X134376001Y-91216490D01*
X134563017Y-91159760D01*
X134763640Y-91140000D01*
X136996360Y-91140000D01*
X137196983Y-91159760D01*
X137196983Y-91159760D01*
G37*
G36*
X111790983Y-91159760D02*
G01*
X111977999Y-91216490D01*
X112150344Y-91308611D01*
X112301412Y-91432588D01*
X112425389Y-91583656D01*
X112517510Y-91756001D01*
X112574240Y-91943017D01*
X112594000Y-92143640D01*
X112594000Y-98156360D01*
X112574240Y-98356983D01*
X112517510Y-98543999D01*
X112425389Y-98716344D01*
X112301412Y-98867412D01*
X112150344Y-98991389D01*
X111977999Y-99083510D01*
X111790983Y-99140240D01*
X111590360Y-99160000D01*
X109357640Y-99160000D01*
X109157017Y-99140240D01*
X108970001Y-99083510D01*
X108797656Y-98991389D01*
X108646588Y-98867412D01*
X108522611Y-98716344D01*
X108430490Y-98543999D01*
X108373760Y-98356983D01*
X108354000Y-98156360D01*
X108354000Y-92143640D01*
X108373760Y-91943017D01*
X108430490Y-91756001D01*
X108522611Y-91583656D01*
X108646588Y-91432588D01*
X108797656Y-91308611D01*
X108970001Y-91216490D01*
X109157017Y-91159760D01*
X109357640Y-91140000D01*
X111590360Y-91140000D01*
X111790983Y-91159760D01*
X111790983Y-91159760D01*
G37*
G36*
X116870983Y-91159760D02*
G01*
X117057999Y-91216490D01*
X117230344Y-91308611D01*
X117381412Y-91432588D01*
X117505389Y-91583656D01*
X117597510Y-91756001D01*
X117654240Y-91943017D01*
X117674000Y-92143640D01*
X117674000Y-98156360D01*
X117654240Y-98356983D01*
X117597510Y-98543999D01*
X117505389Y-98716344D01*
X117381412Y-98867412D01*
X117230344Y-98991389D01*
X117057999Y-99083510D01*
X116870983Y-99140240D01*
X116670360Y-99160000D01*
X114437640Y-99160000D01*
X114237017Y-99140240D01*
X114050001Y-99083510D01*
X113877656Y-98991389D01*
X113726588Y-98867412D01*
X113602611Y-98716344D01*
X113510490Y-98543999D01*
X113453760Y-98356983D01*
X113434000Y-98156360D01*
X113434000Y-92143640D01*
X113453760Y-91943017D01*
X113510490Y-91756001D01*
X113602611Y-91583656D01*
X113726588Y-91432588D01*
X113877656Y-91308611D01*
X114050001Y-91216490D01*
X114237017Y-91159760D01*
X114437640Y-91140000D01*
X116670360Y-91140000D01*
X116870983Y-91159760D01*
X116870983Y-91159760D01*
G37*
G36*
X129573983Y-91159760D02*
G01*
X129760999Y-91216490D01*
X129933344Y-91308611D01*
X130084412Y-91432588D01*
X130208389Y-91583656D01*
X130300510Y-91756001D01*
X130357240Y-91943017D01*
X130377000Y-92143640D01*
X130377000Y-98156360D01*
X130357240Y-98356983D01*
X130300510Y-98543999D01*
X130208389Y-98716344D01*
X130084412Y-98867412D01*
X129933344Y-98991389D01*
X129760999Y-99083510D01*
X129573983Y-99140240D01*
X129373360Y-99160000D01*
X127140640Y-99160000D01*
X126940017Y-99140240D01*
X126753001Y-99083510D01*
X126580656Y-98991389D01*
X126429588Y-98867412D01*
X126305611Y-98716344D01*
X126213490Y-98543999D01*
X126156760Y-98356983D01*
X126137000Y-98156360D01*
X126137000Y-92143640D01*
X126156760Y-91943017D01*
X126213490Y-91756001D01*
X126305611Y-91583656D01*
X126429588Y-91432588D01*
X126580656Y-91308611D01*
X126753001Y-91216490D01*
X126940017Y-91159760D01*
X127140640Y-91140000D01*
X129373360Y-91140000D01*
X129573983Y-91159760D01*
X129573983Y-91159760D01*
G37*
G36*
X124493983Y-91159760D02*
G01*
X124680999Y-91216490D01*
X124853344Y-91308611D01*
X125004412Y-91432588D01*
X125128389Y-91583656D01*
X125220510Y-91756001D01*
X125277240Y-91943017D01*
X125297000Y-92143640D01*
X125297000Y-98156360D01*
X125277240Y-98356983D01*
X125220510Y-98543999D01*
X125128389Y-98716344D01*
X125004412Y-98867412D01*
X124853344Y-98991389D01*
X124680999Y-99083510D01*
X124493983Y-99140240D01*
X124293360Y-99160000D01*
X122060640Y-99160000D01*
X121860017Y-99140240D01*
X121673001Y-99083510D01*
X121500656Y-98991389D01*
X121349588Y-98867412D01*
X121225611Y-98716344D01*
X121133490Y-98543999D01*
X121076760Y-98356983D01*
X121057000Y-98156360D01*
X121057000Y-92143640D01*
X121076760Y-91943017D01*
X121133490Y-91756001D01*
X121225611Y-91583656D01*
X121349588Y-91432588D01*
X121500656Y-91308611D01*
X121673001Y-91216490D01*
X121860017Y-91159760D01*
X122060640Y-91140000D01*
X124293360Y-91140000D01*
X124493983Y-91159760D01*
X124493983Y-91159760D01*
G37*
G36*
X103861163Y-94254587D02*
G01*
X104035041Y-94289173D01*
X104362620Y-94424861D01*
X104657433Y-94621849D01*
X104908151Y-94872567D01*
X105105139Y-95167380D01*
X105240827Y-95494959D01*
X105240827Y-95494961D01*
X105308011Y-95832714D01*
X105310000Y-95842716D01*
X105310000Y-96197284D01*
X105240827Y-96545041D01*
X105105139Y-96872620D01*
X104908151Y-97167433D01*
X104657433Y-97418151D01*
X104362620Y-97615139D01*
X104035041Y-97750827D01*
X103861163Y-97785413D01*
X103687286Y-97820000D01*
X103332714Y-97820000D01*
X103158837Y-97785413D01*
X102984959Y-97750827D01*
X102657380Y-97615139D01*
X102362567Y-97418151D01*
X102111849Y-97167433D01*
X101914861Y-96872620D01*
X101779173Y-96545041D01*
X101710000Y-96197284D01*
X101710000Y-95842716D01*
X101711990Y-95832714D01*
X101779173Y-95494961D01*
X101779173Y-95494959D01*
X101914861Y-95167380D01*
X102111849Y-94872567D01*
X102362567Y-94621849D01*
X102657380Y-94424861D01*
X102984959Y-94289173D01*
X103158837Y-94254587D01*
X103332714Y-94220000D01*
X103687286Y-94220000D01*
X103861163Y-94254587D01*
X103861163Y-94254587D01*
G37*
G36*
X161851162Y-94244586D02*
G01*
X162025041Y-94279173D01*
X162352620Y-94414861D01*
X162647433Y-94611849D01*
X162898151Y-94862567D01*
X163095139Y-95157380D01*
X163230827Y-95484959D01*
X163233291Y-95497347D01*
X163300000Y-95832714D01*
X163300000Y-96187286D01*
X163268803Y-96344121D01*
X163230827Y-96535041D01*
X163095139Y-96862620D01*
X162898151Y-97157433D01*
X162647433Y-97408151D01*
X162352620Y-97605139D01*
X162025041Y-97740827D01*
X161851162Y-97775414D01*
X161677286Y-97810000D01*
X161322714Y-97810000D01*
X161148838Y-97775414D01*
X160974959Y-97740827D01*
X160647380Y-97605139D01*
X160352567Y-97408151D01*
X160101849Y-97157433D01*
X159904861Y-96862620D01*
X159769173Y-96535041D01*
X159731197Y-96344121D01*
X159700000Y-96187286D01*
X159700000Y-95832714D01*
X159766709Y-95497347D01*
X159769173Y-95484959D01*
X159904861Y-95157380D01*
X160101849Y-94862567D01*
X160352567Y-94611849D01*
X160647380Y-94414861D01*
X160974959Y-94279173D01*
X161148838Y-94244586D01*
X161322714Y-94210000D01*
X161677286Y-94210000D01*
X161851162Y-94244586D01*
X161851162Y-94244586D01*
G37*
G36*
X152529722Y-95395656D02*
G01*
X152633566Y-95416312D01*
X152690866Y-95440047D01*
X152829203Y-95497347D01*
X153005272Y-95614993D01*
X153155007Y-95764728D01*
X153272653Y-95940797D01*
X153353688Y-96136435D01*
X153395000Y-96344121D01*
X153395000Y-96555879D01*
X153353688Y-96763565D01*
X153272653Y-96959203D01*
X153155007Y-97135272D01*
X153005272Y-97285007D01*
X152829203Y-97402653D01*
X152690866Y-97459953D01*
X152633566Y-97483688D01*
X152529722Y-97504344D01*
X152425879Y-97525000D01*
X152214121Y-97525000D01*
X152110278Y-97504344D01*
X152006434Y-97483688D01*
X151949134Y-97459953D01*
X151810797Y-97402653D01*
X151634728Y-97285007D01*
X151484993Y-97135272D01*
X151367347Y-96959203D01*
X151286312Y-96763565D01*
X151245000Y-96555879D01*
X151245000Y-96344121D01*
X151286312Y-96136435D01*
X151367347Y-95940797D01*
X151484993Y-95764728D01*
X151634728Y-95614993D01*
X151810797Y-95497347D01*
X151949134Y-95440047D01*
X152006434Y-95416312D01*
X152110278Y-95395656D01*
X152214121Y-95375000D01*
X152425879Y-95375000D01*
X152529722Y-95395656D01*
X152529722Y-95395656D01*
G37*
G36*
X155029722Y-95395656D02*
G01*
X155133566Y-95416312D01*
X155190866Y-95440047D01*
X155329203Y-95497347D01*
X155505272Y-95614993D01*
X155655007Y-95764728D01*
X155772653Y-95940797D01*
X155853688Y-96136435D01*
X155895000Y-96344121D01*
X155895000Y-96555879D01*
X155853688Y-96763565D01*
X155772653Y-96959203D01*
X155655007Y-97135272D01*
X155505272Y-97285007D01*
X155329203Y-97402653D01*
X155190866Y-97459953D01*
X155133566Y-97483688D01*
X155029722Y-97504344D01*
X154925879Y-97525000D01*
X154714121Y-97525000D01*
X154610278Y-97504344D01*
X154506434Y-97483688D01*
X154449134Y-97459953D01*
X154310797Y-97402653D01*
X154134728Y-97285007D01*
X153984993Y-97135272D01*
X153867347Y-96959203D01*
X153786312Y-96763565D01*
X153745000Y-96555879D01*
X153745000Y-96344121D01*
X153786312Y-96136435D01*
X153867347Y-95940797D01*
X153984993Y-95764728D01*
X154134728Y-95614993D01*
X154310797Y-95497347D01*
X154449134Y-95440047D01*
X154506434Y-95416312D01*
X154610278Y-95395656D01*
X154714121Y-95375000D01*
X154925879Y-95375000D01*
X155029722Y-95395656D01*
X155029722Y-95395656D01*
G37*
G36*
X150895000Y-97525000D02*
G01*
X148745000Y-97525000D01*
X148745000Y-95375000D01*
X150895000Y-95375000D01*
X150895000Y-97525000D01*
X150895000Y-97525000D01*
G37*
G36*
X106913707Y-89027597D02*
G01*
X106990836Y-89035193D01*
X107188762Y-89095233D01*
X107188765Y-89095234D01*
X107371170Y-89192732D01*
X107531055Y-89323945D01*
X107662268Y-89483830D01*
X107759766Y-89666235D01*
X107759767Y-89666238D01*
X107819807Y-89864164D01*
X107840080Y-90070000D01*
X107819807Y-90275836D01*
X107759767Y-90473762D01*
X107759766Y-90473765D01*
X107662268Y-90656170D01*
X107531055Y-90816055D01*
X107371170Y-90947268D01*
X107188765Y-91044766D01*
X107188762Y-91044767D01*
X106990836Y-91104807D01*
X106913707Y-91112403D01*
X106836580Y-91120000D01*
X106733420Y-91120000D01*
X106656293Y-91112403D01*
X106579164Y-91104807D01*
X106381238Y-91044767D01*
X106381235Y-91044766D01*
X106198830Y-90947268D01*
X106038945Y-90816055D01*
X105907732Y-90656170D01*
X105810234Y-90473765D01*
X105810233Y-90473762D01*
X105750193Y-90275836D01*
X105729920Y-90070000D01*
X105750193Y-89864164D01*
X105810233Y-89666238D01*
X105810234Y-89666235D01*
X105907732Y-89483830D01*
X106038945Y-89323945D01*
X106198830Y-89192732D01*
X106381235Y-89095234D01*
X106381238Y-89095233D01*
X106579164Y-89035193D01*
X106656293Y-89027597D01*
X106733420Y-89020000D01*
X106836580Y-89020000D01*
X106913707Y-89027597D01*
X106913707Y-89027597D01*
G37*
G36*
X104373707Y-89027597D02*
G01*
X104450836Y-89035193D01*
X104648762Y-89095233D01*
X104648765Y-89095234D01*
X104831170Y-89192732D01*
X104991055Y-89323945D01*
X105122268Y-89483830D01*
X105219766Y-89666235D01*
X105219767Y-89666238D01*
X105279807Y-89864164D01*
X105300080Y-90070000D01*
X105279807Y-90275836D01*
X105219767Y-90473762D01*
X105219766Y-90473765D01*
X105122268Y-90656170D01*
X104991055Y-90816055D01*
X104831170Y-90947268D01*
X104648765Y-91044766D01*
X104648762Y-91044767D01*
X104450836Y-91104807D01*
X104373707Y-91112403D01*
X104296580Y-91120000D01*
X104193420Y-91120000D01*
X104116293Y-91112403D01*
X104039164Y-91104807D01*
X103841238Y-91044767D01*
X103841235Y-91044766D01*
X103658830Y-90947268D01*
X103498945Y-90816055D01*
X103367732Y-90656170D01*
X103270234Y-90473765D01*
X103270233Y-90473762D01*
X103210193Y-90275836D01*
X103189920Y-90070000D01*
X103210193Y-89864164D01*
X103270233Y-89666238D01*
X103270234Y-89666235D01*
X103367732Y-89483830D01*
X103498945Y-89323945D01*
X103658830Y-89192732D01*
X103841235Y-89095234D01*
X103841238Y-89095233D01*
X104039164Y-89035193D01*
X104116293Y-89027597D01*
X104193420Y-89020000D01*
X104296580Y-89020000D01*
X104373707Y-89027597D01*
X104373707Y-89027597D01*
G37*
G36*
X102755000Y-91120000D02*
G01*
X100655000Y-91120000D01*
X100655000Y-89020000D01*
X102755000Y-89020000D01*
X102755000Y-91120000D01*
X102755000Y-91120000D01*
G37*
G36*
X102755000Y-88580000D02*
G01*
X100655000Y-88580000D01*
X100655000Y-86480000D01*
X102755000Y-86480000D01*
X102755000Y-88580000D01*
X102755000Y-88580000D01*
G37*
G36*
X106913707Y-86487597D02*
G01*
X106990836Y-86495193D01*
X107188762Y-86555233D01*
X107188765Y-86555234D01*
X107371170Y-86652732D01*
X107531055Y-86783945D01*
X107662268Y-86943830D01*
X107759766Y-87126235D01*
X107759767Y-87126238D01*
X107819807Y-87324164D01*
X107840080Y-87530000D01*
X107819807Y-87735836D01*
X107809072Y-87771224D01*
X107759766Y-87933765D01*
X107662268Y-88116170D01*
X107531055Y-88276055D01*
X107371170Y-88407268D01*
X107188765Y-88504766D01*
X107188762Y-88504767D01*
X106990836Y-88564807D01*
X106913707Y-88572404D01*
X106836580Y-88580000D01*
X106733420Y-88580000D01*
X106656293Y-88572404D01*
X106579164Y-88564807D01*
X106381238Y-88504767D01*
X106381235Y-88504766D01*
X106198830Y-88407268D01*
X106038945Y-88276055D01*
X105907732Y-88116170D01*
X105810234Y-87933765D01*
X105760928Y-87771224D01*
X105750193Y-87735836D01*
X105729920Y-87530000D01*
X105750193Y-87324164D01*
X105810233Y-87126238D01*
X105810234Y-87126235D01*
X105907732Y-86943830D01*
X106038945Y-86783945D01*
X106198830Y-86652732D01*
X106381235Y-86555234D01*
X106381238Y-86555233D01*
X106579164Y-86495193D01*
X106656293Y-86487597D01*
X106733420Y-86480000D01*
X106836580Y-86480000D01*
X106913707Y-86487597D01*
X106913707Y-86487597D01*
G37*
G36*
X104373707Y-86487597D02*
G01*
X104450836Y-86495193D01*
X104648762Y-86555233D01*
X104648765Y-86555234D01*
X104831170Y-86652732D01*
X104991055Y-86783945D01*
X105122268Y-86943830D01*
X105219766Y-87126235D01*
X105219767Y-87126238D01*
X105279807Y-87324164D01*
X105300080Y-87530000D01*
X105279807Y-87735836D01*
X105269072Y-87771224D01*
X105219766Y-87933765D01*
X105122268Y-88116170D01*
X104991055Y-88276055D01*
X104831170Y-88407268D01*
X104648765Y-88504766D01*
X104648762Y-88504767D01*
X104450836Y-88564807D01*
X104373707Y-88572404D01*
X104296580Y-88580000D01*
X104193420Y-88580000D01*
X104116293Y-88572404D01*
X104039164Y-88564807D01*
X103841238Y-88504767D01*
X103841235Y-88504766D01*
X103658830Y-88407268D01*
X103498945Y-88276055D01*
X103367732Y-88116170D01*
X103270234Y-87933765D01*
X103220928Y-87771224D01*
X103210193Y-87735836D01*
X103189920Y-87530000D01*
X103210193Y-87324164D01*
X103270233Y-87126238D01*
X103270234Y-87126235D01*
X103367732Y-86943830D01*
X103498945Y-86783945D01*
X103658830Y-86652732D01*
X103841235Y-86555234D01*
X103841238Y-86555233D01*
X104039164Y-86495193D01*
X104116293Y-86487597D01*
X104193420Y-86480000D01*
X104296580Y-86480000D01*
X104373707Y-86487597D01*
X104373707Y-86487597D01*
G37*
G36*
X139016000Y-86936402D02*
G01*
X139018402Y-86960788D01*
X139025515Y-86984237D01*
X139037066Y-87005848D01*
X139052611Y-87024790D01*
X139071553Y-87040335D01*
X139093164Y-87051886D01*
X139116613Y-87058999D01*
X139140999Y-87061401D01*
X139165385Y-87058999D01*
X139199921Y-87046642D01*
X139316825Y-86984155D01*
X139448776Y-86944128D01*
X139551610Y-86934000D01*
X139620390Y-86934000D01*
X139723224Y-86944128D01*
X139855175Y-86984155D01*
X139976781Y-87049155D01*
X140083370Y-87136630D01*
X140170845Y-87243219D01*
X140235845Y-87364825D01*
X140275872Y-87496776D01*
X140289387Y-87634000D01*
X140275872Y-87771224D01*
X140235845Y-87903175D01*
X140170845Y-88024781D01*
X140083370Y-88131370D01*
X139976781Y-88218845D01*
X139855175Y-88283845D01*
X139723224Y-88323872D01*
X139620390Y-88334000D01*
X139551610Y-88334000D01*
X139448776Y-88323872D01*
X139316825Y-88283845D01*
X139199920Y-88221358D01*
X139177284Y-88211981D01*
X139153251Y-88207201D01*
X139128747Y-88207201D01*
X139104714Y-88211981D01*
X139082075Y-88221359D01*
X139061700Y-88234973D01*
X139044373Y-88252300D01*
X139030760Y-88272674D01*
X139021382Y-88295313D01*
X139016000Y-88331598D01*
X139016000Y-88334000D01*
X137616000Y-88334000D01*
X137616000Y-86934000D01*
X139016000Y-86934000D01*
X139016000Y-86936402D01*
X139016000Y-86936402D01*
G37*
G36*
X106903707Y-83947597D02*
G01*
X106980836Y-83955193D01*
X107178762Y-84015233D01*
X107178765Y-84015234D01*
X107361170Y-84112732D01*
X107521055Y-84243945D01*
X107652268Y-84403830D01*
X107749766Y-84586235D01*
X107749767Y-84586238D01*
X107809807Y-84784164D01*
X107830080Y-84990000D01*
X107809807Y-85195836D01*
X107749767Y-85393762D01*
X107749766Y-85393765D01*
X107652268Y-85576170D01*
X107521055Y-85736055D01*
X107361170Y-85867268D01*
X107178765Y-85964766D01*
X107178762Y-85964767D01*
X106980836Y-86024807D01*
X106903707Y-86032403D01*
X106826580Y-86040000D01*
X106723420Y-86040000D01*
X106646293Y-86032403D01*
X106569164Y-86024807D01*
X106371238Y-85964767D01*
X106371235Y-85964766D01*
X106188830Y-85867268D01*
X106028945Y-85736055D01*
X105897732Y-85576170D01*
X105800234Y-85393765D01*
X105800233Y-85393762D01*
X105740193Y-85195836D01*
X105719920Y-84990000D01*
X105740193Y-84784164D01*
X105800233Y-84586238D01*
X105800234Y-84586235D01*
X105897732Y-84403830D01*
X106028945Y-84243945D01*
X106188830Y-84112732D01*
X106371235Y-84015234D01*
X106371238Y-84015233D01*
X106569164Y-83955193D01*
X106646293Y-83947597D01*
X106723420Y-83940000D01*
X106826580Y-83940000D01*
X106903707Y-83947597D01*
X106903707Y-83947597D01*
G37*
G36*
X104363707Y-83947597D02*
G01*
X104440836Y-83955193D01*
X104638762Y-84015233D01*
X104638765Y-84015234D01*
X104821170Y-84112732D01*
X104981055Y-84243945D01*
X105112268Y-84403830D01*
X105209766Y-84586235D01*
X105209767Y-84586238D01*
X105269807Y-84784164D01*
X105290080Y-84990000D01*
X105269807Y-85195836D01*
X105209767Y-85393762D01*
X105209766Y-85393765D01*
X105112268Y-85576170D01*
X104981055Y-85736055D01*
X104821170Y-85867268D01*
X104638765Y-85964766D01*
X104638762Y-85964767D01*
X104440836Y-86024807D01*
X104363707Y-86032403D01*
X104286580Y-86040000D01*
X104183420Y-86040000D01*
X104106293Y-86032403D01*
X104029164Y-86024807D01*
X103831238Y-85964767D01*
X103831235Y-85964766D01*
X103648830Y-85867268D01*
X103488945Y-85736055D01*
X103357732Y-85576170D01*
X103260234Y-85393765D01*
X103260233Y-85393762D01*
X103200193Y-85195836D01*
X103179920Y-84990000D01*
X103200193Y-84784164D01*
X103260233Y-84586238D01*
X103260234Y-84586235D01*
X103357732Y-84403830D01*
X103488945Y-84243945D01*
X103648830Y-84112732D01*
X103831235Y-84015234D01*
X103831238Y-84015233D01*
X104029164Y-83955193D01*
X104106293Y-83947597D01*
X104183420Y-83940000D01*
X104286580Y-83940000D01*
X104363707Y-83947597D01*
X104363707Y-83947597D01*
G37*
G36*
X102745000Y-86040000D02*
G01*
X100645000Y-86040000D01*
X100645000Y-83940000D01*
X102745000Y-83940000D01*
X102745000Y-86040000D01*
X102745000Y-86040000D01*
G37*
G36*
X106903707Y-81407597D02*
G01*
X106980836Y-81415193D01*
X107178762Y-81475233D01*
X107178765Y-81475234D01*
X107361170Y-81572732D01*
X107521055Y-81703945D01*
X107652268Y-81863830D01*
X107749766Y-82046235D01*
X107749767Y-82046238D01*
X107809807Y-82244164D01*
X107830080Y-82450000D01*
X107809807Y-82655836D01*
X107784233Y-82740141D01*
X107749766Y-82853765D01*
X107652268Y-83036170D01*
X107521055Y-83196055D01*
X107361170Y-83327268D01*
X107178765Y-83424766D01*
X107178762Y-83424767D01*
X106980836Y-83484807D01*
X106903707Y-83492404D01*
X106826580Y-83500000D01*
X106723420Y-83500000D01*
X106646293Y-83492404D01*
X106569164Y-83484807D01*
X106371238Y-83424767D01*
X106371235Y-83424766D01*
X106188830Y-83327268D01*
X106028945Y-83196055D01*
X105897732Y-83036170D01*
X105800234Y-82853765D01*
X105765767Y-82740141D01*
X105740193Y-82655836D01*
X105719920Y-82450000D01*
X105740193Y-82244164D01*
X105800233Y-82046238D01*
X105800234Y-82046235D01*
X105897732Y-81863830D01*
X106028945Y-81703945D01*
X106188830Y-81572732D01*
X106371235Y-81475234D01*
X106371238Y-81475233D01*
X106569164Y-81415193D01*
X106646293Y-81407597D01*
X106723420Y-81400000D01*
X106826580Y-81400000D01*
X106903707Y-81407597D01*
X106903707Y-81407597D01*
G37*
G36*
X104363707Y-81407597D02*
G01*
X104440836Y-81415193D01*
X104638762Y-81475233D01*
X104638765Y-81475234D01*
X104821170Y-81572732D01*
X104981055Y-81703945D01*
X105112268Y-81863830D01*
X105209766Y-82046235D01*
X105209767Y-82046238D01*
X105269807Y-82244164D01*
X105290080Y-82450000D01*
X105269807Y-82655836D01*
X105244233Y-82740141D01*
X105209766Y-82853765D01*
X105112268Y-83036170D01*
X104981055Y-83196055D01*
X104821170Y-83327268D01*
X104638765Y-83424766D01*
X104638762Y-83424767D01*
X104440836Y-83484807D01*
X104363707Y-83492404D01*
X104286580Y-83500000D01*
X104183420Y-83500000D01*
X104106293Y-83492404D01*
X104029164Y-83484807D01*
X103831238Y-83424767D01*
X103831235Y-83424766D01*
X103648830Y-83327268D01*
X103488945Y-83196055D01*
X103357732Y-83036170D01*
X103260234Y-82853765D01*
X103225767Y-82740141D01*
X103200193Y-82655836D01*
X103179920Y-82450000D01*
X103200193Y-82244164D01*
X103260233Y-82046238D01*
X103260234Y-82046235D01*
X103357732Y-81863830D01*
X103488945Y-81703945D01*
X103648830Y-81572732D01*
X103831235Y-81475234D01*
X103831238Y-81475233D01*
X104029164Y-81415193D01*
X104106293Y-81407597D01*
X104183420Y-81400000D01*
X104286580Y-81400000D01*
X104363707Y-81407597D01*
X104363707Y-81407597D01*
G37*
G36*
X102745000Y-83500000D02*
G01*
X100645000Y-83500000D01*
X100645000Y-81400000D01*
X102745000Y-81400000D01*
X102745000Y-83500000D01*
X102745000Y-83500000D01*
G37*
G36*
X158364845Y-80372810D02*
G01*
X158609896Y-80447145D01*
X158835736Y-80567860D01*
X159033687Y-80730313D01*
X159196140Y-80928264D01*
X159316855Y-81154104D01*
X159391190Y-81399155D01*
X159416290Y-81654000D01*
X159391190Y-81908845D01*
X159316855Y-82153896D01*
X159196140Y-82379736D01*
X159033687Y-82577687D01*
X158835736Y-82740140D01*
X158609896Y-82860855D01*
X158364845Y-82935190D01*
X158173864Y-82954000D01*
X155846136Y-82954000D01*
X155655155Y-82935190D01*
X155410104Y-82860855D01*
X155184264Y-82740140D01*
X154986313Y-82577687D01*
X154823860Y-82379736D01*
X154703145Y-82153896D01*
X154628810Y-81908845D01*
X154603710Y-81654000D01*
X154628810Y-81399155D01*
X154703145Y-81154104D01*
X154823860Y-80928264D01*
X154986313Y-80730313D01*
X155184264Y-80567860D01*
X155410104Y-80447145D01*
X155655155Y-80372810D01*
X155846136Y-80354000D01*
X158173864Y-80354000D01*
X158364845Y-80372810D01*
X158364845Y-80372810D01*
G37*
G36*
X161264845Y-77572810D02*
G01*
X161509896Y-77647145D01*
X161735736Y-77767860D01*
X161933687Y-77930313D01*
X162096140Y-78128264D01*
X162216855Y-78354104D01*
X162291190Y-78599155D01*
X162316290Y-78854000D01*
X162291190Y-79108845D01*
X162216855Y-79353896D01*
X162096140Y-79579736D01*
X161933687Y-79777687D01*
X161735736Y-79940140D01*
X161509896Y-80060855D01*
X161264845Y-80135190D01*
X161073864Y-80154000D01*
X158746136Y-80154000D01*
X158555155Y-80135190D01*
X158310104Y-80060855D01*
X158084264Y-79940140D01*
X157886313Y-79777687D01*
X157723860Y-79579736D01*
X157603145Y-79353896D01*
X157528810Y-79108845D01*
X157503710Y-78854000D01*
X157528810Y-78599155D01*
X157603145Y-78354104D01*
X157723860Y-78128264D01*
X157886313Y-77930313D01*
X158084264Y-77767860D01*
X158310104Y-77647145D01*
X158555155Y-77572810D01*
X158746136Y-77554000D01*
X161073864Y-77554000D01*
X161264845Y-77572810D01*
X161264845Y-77572810D01*
G37*
G36*
X153864844Y-73472810D02*
G01*
X154109895Y-73547145D01*
X154335735Y-73667860D01*
X154533687Y-73830313D01*
X154696140Y-74028264D01*
X154816855Y-74254104D01*
X154891190Y-74499155D01*
X154910000Y-74690136D01*
X154910000Y-77017864D01*
X154891190Y-77208845D01*
X154816855Y-77453896D01*
X154696140Y-77679736D01*
X154533687Y-77877687D01*
X154335736Y-78040140D01*
X154109896Y-78160855D01*
X153864845Y-78235190D01*
X153610000Y-78260290D01*
X153355156Y-78235190D01*
X153110105Y-78160855D01*
X152884265Y-78040140D01*
X152686314Y-77877687D01*
X152523861Y-77679736D01*
X152403146Y-77453896D01*
X152328811Y-77208845D01*
X152310001Y-77017864D01*
X152310000Y-74690137D01*
X152328810Y-74499156D01*
X152403145Y-74254105D01*
X152523860Y-74028265D01*
X152686313Y-73830313D01*
X152884264Y-73667860D01*
X153110104Y-73547145D01*
X153355155Y-73472810D01*
X153610000Y-73447710D01*
X153864844Y-73472810D01*
X153864844Y-73472810D01*
G37*
G36*
X127826707Y-63973596D02*
G01*
X127903836Y-63981193D01*
X128101762Y-64041233D01*
X128101765Y-64041234D01*
X128284170Y-64138732D01*
X128444055Y-64269945D01*
X128575268Y-64429830D01*
X128672766Y-64612235D01*
X128672767Y-64612238D01*
X128732807Y-64810164D01*
X128753080Y-65016000D01*
X128732807Y-65221836D01*
X128672767Y-65419762D01*
X128672766Y-65419765D01*
X128575268Y-65602170D01*
X128444055Y-65762055D01*
X128284170Y-65893268D01*
X128101765Y-65990766D01*
X128101762Y-65990767D01*
X127903836Y-66050807D01*
X127826707Y-66058404D01*
X127749580Y-66066000D01*
X127646420Y-66066000D01*
X127569293Y-66058404D01*
X127492164Y-66050807D01*
X127294238Y-65990767D01*
X127294235Y-65990766D01*
X127111830Y-65893268D01*
X126951945Y-65762055D01*
X126820732Y-65602170D01*
X126723234Y-65419765D01*
X126723233Y-65419762D01*
X126663193Y-65221836D01*
X126642920Y-65016000D01*
X126663193Y-64810164D01*
X126723233Y-64612238D01*
X126723234Y-64612235D01*
X126820732Y-64429830D01*
X126951945Y-64269945D01*
X127111830Y-64138732D01*
X127294235Y-64041234D01*
X127294238Y-64041233D01*
X127492164Y-63981193D01*
X127569293Y-63973596D01*
X127646420Y-63966000D01*
X127749580Y-63966000D01*
X127826707Y-63973596D01*
X127826707Y-63973596D01*
G37*
G36*
X125286707Y-63973596D02*
G01*
X125363836Y-63981193D01*
X125561762Y-64041233D01*
X125561765Y-64041234D01*
X125744170Y-64138732D01*
X125904055Y-64269945D01*
X126035268Y-64429830D01*
X126132766Y-64612235D01*
X126132767Y-64612238D01*
X126192807Y-64810164D01*
X126213080Y-65016000D01*
X126192807Y-65221836D01*
X126132767Y-65419762D01*
X126132766Y-65419765D01*
X126035268Y-65602170D01*
X125904055Y-65762055D01*
X125744170Y-65893268D01*
X125561765Y-65990766D01*
X125561762Y-65990767D01*
X125363836Y-66050807D01*
X125286707Y-66058404D01*
X125209580Y-66066000D01*
X125106420Y-66066000D01*
X125029293Y-66058404D01*
X124952164Y-66050807D01*
X124754238Y-65990767D01*
X124754235Y-65990766D01*
X124571830Y-65893268D01*
X124411945Y-65762055D01*
X124280732Y-65602170D01*
X124183234Y-65419765D01*
X124183233Y-65419762D01*
X124123193Y-65221836D01*
X124102920Y-65016000D01*
X124123193Y-64810164D01*
X124183233Y-64612238D01*
X124183234Y-64612235D01*
X124280732Y-64429830D01*
X124411945Y-64269945D01*
X124571830Y-64138732D01*
X124754235Y-64041234D01*
X124754238Y-64041233D01*
X124952164Y-63981193D01*
X125029293Y-63973596D01*
X125106420Y-63966000D01*
X125209580Y-63966000D01*
X125286707Y-63973596D01*
X125286707Y-63973596D01*
G37*
G36*
X130366707Y-63973596D02*
G01*
X130443836Y-63981193D01*
X130641762Y-64041233D01*
X130641765Y-64041234D01*
X130824170Y-64138732D01*
X130984055Y-64269945D01*
X131115268Y-64429830D01*
X131212766Y-64612235D01*
X131212767Y-64612238D01*
X131272807Y-64810164D01*
X131293080Y-65016000D01*
X131272807Y-65221836D01*
X131212767Y-65419762D01*
X131212766Y-65419765D01*
X131115268Y-65602170D01*
X130984055Y-65762055D01*
X130824170Y-65893268D01*
X130641765Y-65990766D01*
X130641762Y-65990767D01*
X130443836Y-66050807D01*
X130366707Y-66058404D01*
X130289580Y-66066000D01*
X130186420Y-66066000D01*
X130109293Y-66058404D01*
X130032164Y-66050807D01*
X129834238Y-65990767D01*
X129834235Y-65990766D01*
X129651830Y-65893268D01*
X129491945Y-65762055D01*
X129360732Y-65602170D01*
X129263234Y-65419765D01*
X129263233Y-65419762D01*
X129203193Y-65221836D01*
X129182920Y-65016000D01*
X129203193Y-64810164D01*
X129263233Y-64612238D01*
X129263234Y-64612235D01*
X129360732Y-64429830D01*
X129491945Y-64269945D01*
X129651830Y-64138732D01*
X129834235Y-64041234D01*
X129834238Y-64041233D01*
X130032164Y-63981193D01*
X130109293Y-63973596D01*
X130186420Y-63966000D01*
X130289580Y-63966000D01*
X130366707Y-63973596D01*
X130366707Y-63973596D01*
G37*
G36*
X132906707Y-63973596D02*
G01*
X132983836Y-63981193D01*
X133181762Y-64041233D01*
X133181765Y-64041234D01*
X133364170Y-64138732D01*
X133524055Y-64269945D01*
X133655268Y-64429830D01*
X133752766Y-64612235D01*
X133752767Y-64612238D01*
X133812807Y-64810164D01*
X133833080Y-65016000D01*
X133812807Y-65221836D01*
X133752767Y-65419762D01*
X133752766Y-65419765D01*
X133655268Y-65602170D01*
X133524055Y-65762055D01*
X133364170Y-65893268D01*
X133181765Y-65990766D01*
X133181762Y-65990767D01*
X132983836Y-66050807D01*
X132906707Y-66058404D01*
X132829580Y-66066000D01*
X132726420Y-66066000D01*
X132649293Y-66058404D01*
X132572164Y-66050807D01*
X132374238Y-65990767D01*
X132374235Y-65990766D01*
X132191830Y-65893268D01*
X132031945Y-65762055D01*
X131900732Y-65602170D01*
X131803234Y-65419765D01*
X131803233Y-65419762D01*
X131743193Y-65221836D01*
X131722920Y-65016000D01*
X131743193Y-64810164D01*
X131803233Y-64612238D01*
X131803234Y-64612235D01*
X131900732Y-64429830D01*
X132031945Y-64269945D01*
X132191830Y-64138732D01*
X132374235Y-64041234D01*
X132374238Y-64041233D01*
X132572164Y-63981193D01*
X132649293Y-63973596D01*
X132726420Y-63966000D01*
X132829580Y-63966000D01*
X132906707Y-63973596D01*
X132906707Y-63973596D01*
G37*
G36*
X135446707Y-63973596D02*
G01*
X135523836Y-63981193D01*
X135721762Y-64041233D01*
X135721765Y-64041234D01*
X135904170Y-64138732D01*
X136064055Y-64269945D01*
X136195268Y-64429830D01*
X136292766Y-64612235D01*
X136292767Y-64612238D01*
X136352807Y-64810164D01*
X136373080Y-65016000D01*
X136352807Y-65221836D01*
X136292767Y-65419762D01*
X136292766Y-65419765D01*
X136195268Y-65602170D01*
X136064055Y-65762055D01*
X135904170Y-65893268D01*
X135721765Y-65990766D01*
X135721762Y-65990767D01*
X135523836Y-66050807D01*
X135446707Y-66058404D01*
X135369580Y-66066000D01*
X135266420Y-66066000D01*
X135189293Y-66058404D01*
X135112164Y-66050807D01*
X134914238Y-65990767D01*
X134914235Y-65990766D01*
X134731830Y-65893268D01*
X134571945Y-65762055D01*
X134440732Y-65602170D01*
X134343234Y-65419765D01*
X134343233Y-65419762D01*
X134283193Y-65221836D01*
X134262920Y-65016000D01*
X134283193Y-64810164D01*
X134343233Y-64612238D01*
X134343234Y-64612235D01*
X134440732Y-64429830D01*
X134571945Y-64269945D01*
X134731830Y-64138732D01*
X134914235Y-64041234D01*
X134914238Y-64041233D01*
X135112164Y-63981193D01*
X135189293Y-63973596D01*
X135266420Y-63966000D01*
X135369580Y-63966000D01*
X135446707Y-63973596D01*
X135446707Y-63973596D01*
G37*
G36*
X137986707Y-63973596D02*
G01*
X138063836Y-63981193D01*
X138261762Y-64041233D01*
X138261765Y-64041234D01*
X138444170Y-64138732D01*
X138604055Y-64269945D01*
X138735268Y-64429830D01*
X138832766Y-64612235D01*
X138832767Y-64612238D01*
X138892807Y-64810164D01*
X138913080Y-65016000D01*
X138892807Y-65221836D01*
X138832767Y-65419762D01*
X138832766Y-65419765D01*
X138735268Y-65602170D01*
X138604055Y-65762055D01*
X138444170Y-65893268D01*
X138261765Y-65990766D01*
X138261762Y-65990767D01*
X138063836Y-66050807D01*
X137986707Y-66058404D01*
X137909580Y-66066000D01*
X137806420Y-66066000D01*
X137729293Y-66058404D01*
X137652164Y-66050807D01*
X137454238Y-65990767D01*
X137454235Y-65990766D01*
X137271830Y-65893268D01*
X137111945Y-65762055D01*
X136980732Y-65602170D01*
X136883234Y-65419765D01*
X136883233Y-65419762D01*
X136823193Y-65221836D01*
X136802920Y-65016000D01*
X136823193Y-64810164D01*
X136883233Y-64612238D01*
X136883234Y-64612235D01*
X136980732Y-64429830D01*
X137111945Y-64269945D01*
X137271830Y-64138732D01*
X137454235Y-64041234D01*
X137454238Y-64041233D01*
X137652164Y-63981193D01*
X137729293Y-63973596D01*
X137806420Y-63966000D01*
X137909580Y-63966000D01*
X137986707Y-63973596D01*
X137986707Y-63973596D01*
G37*
G36*
X140526707Y-63973596D02*
G01*
X140603836Y-63981193D01*
X140801762Y-64041233D01*
X140801765Y-64041234D01*
X140984170Y-64138732D01*
X141144055Y-64269945D01*
X141275268Y-64429830D01*
X141372766Y-64612235D01*
X141372767Y-64612238D01*
X141432807Y-64810164D01*
X141453080Y-65016000D01*
X141432807Y-65221836D01*
X141372767Y-65419762D01*
X141372766Y-65419765D01*
X141275268Y-65602170D01*
X141144055Y-65762055D01*
X140984170Y-65893268D01*
X140801765Y-65990766D01*
X140801762Y-65990767D01*
X140603836Y-66050807D01*
X140526707Y-66058404D01*
X140449580Y-66066000D01*
X140346420Y-66066000D01*
X140269293Y-66058404D01*
X140192164Y-66050807D01*
X139994238Y-65990767D01*
X139994235Y-65990766D01*
X139811830Y-65893268D01*
X139651945Y-65762055D01*
X139520732Y-65602170D01*
X139423234Y-65419765D01*
X139423233Y-65419762D01*
X139363193Y-65221836D01*
X139342920Y-65016000D01*
X139363193Y-64810164D01*
X139423233Y-64612238D01*
X139423234Y-64612235D01*
X139520732Y-64429830D01*
X139651945Y-64269945D01*
X139811830Y-64138732D01*
X139994235Y-64041234D01*
X139994238Y-64041233D01*
X140192164Y-63981193D01*
X140269293Y-63973596D01*
X140346420Y-63966000D01*
X140449580Y-63966000D01*
X140526707Y-63973596D01*
X140526707Y-63973596D01*
G37*
G36*
X143988000Y-66066000D02*
G01*
X141888000Y-66066000D01*
X141888000Y-63966000D01*
X143988000Y-63966000D01*
X143988000Y-66066000D01*
X143988000Y-66066000D01*
G37*
G36*
X151710604Y-59288968D02*
G01*
X151885678Y-59361486D01*
X151885679Y-59361487D01*
X152043237Y-59466763D01*
X152177237Y-59600763D01*
X152246217Y-59704000D01*
X152282514Y-59758322D01*
X152355032Y-59933396D01*
X152392000Y-60119250D01*
X152392000Y-60308750D01*
X152355032Y-60494604D01*
X152282514Y-60669678D01*
X152282513Y-60669679D01*
X152177237Y-60827237D01*
X152043237Y-60961237D01*
X151911879Y-61049007D01*
X151885678Y-61066514D01*
X151798142Y-61102772D01*
X151710604Y-61139032D01*
X151524750Y-61176000D01*
X151335250Y-61176000D01*
X151149396Y-61139032D01*
X150974322Y-61066514D01*
X150948121Y-61049007D01*
X150816763Y-60961237D01*
X150682763Y-60827237D01*
X150577487Y-60669679D01*
X150577486Y-60669678D01*
X150504968Y-60494604D01*
X150468000Y-60308750D01*
X150468000Y-60119250D01*
X150504968Y-59933396D01*
X150577486Y-59758322D01*
X150613783Y-59704000D01*
X150682763Y-59600763D01*
X150816763Y-59466763D01*
X150974321Y-59361487D01*
X150974322Y-59361486D01*
X151149396Y-59288968D01*
X151335250Y-59252000D01*
X151524750Y-59252000D01*
X151710604Y-59288968D01*
X151710604Y-59288968D01*
G37*
G36*
X104650000Y-59704000D02*
G01*
X102550000Y-59704000D01*
X102550000Y-57604000D01*
X104650000Y-57604000D01*
X104650000Y-59704000D01*
X104650000Y-59704000D01*
G37*
G36*
X163040026Y-57330115D02*
G01*
X163258411Y-57420573D01*
X163258413Y-57420574D01*
X163454955Y-57551899D01*
X163622101Y-57719045D01*
X163753427Y-57915589D01*
X163843885Y-58133974D01*
X163890000Y-58365809D01*
X163890000Y-58602191D01*
X163843885Y-58834026D01*
X163753427Y-59052411D01*
X163753426Y-59052413D01*
X163622101Y-59248955D01*
X163454955Y-59416101D01*
X163258413Y-59547426D01*
X163258412Y-59547427D01*
X163258411Y-59547427D01*
X163040026Y-59637885D01*
X162808191Y-59684000D01*
X162571809Y-59684000D01*
X162339974Y-59637885D01*
X162121589Y-59547427D01*
X162121588Y-59547427D01*
X162121587Y-59547426D01*
X161925045Y-59416101D01*
X161757899Y-59248955D01*
X161626574Y-59052413D01*
X161626573Y-59052411D01*
X161536115Y-58834026D01*
X161490000Y-58602191D01*
X161490000Y-58365809D01*
X161536115Y-58133974D01*
X161626573Y-57915589D01*
X161757899Y-57719045D01*
X161925045Y-57551899D01*
X162121587Y-57420574D01*
X162121589Y-57420573D01*
X162339974Y-57330115D01*
X162571809Y-57284000D01*
X162808191Y-57284000D01*
X163040026Y-57330115D01*
X163040026Y-57330115D01*
G37*
G36*
X156540026Y-57330115D02*
G01*
X156758411Y-57420573D01*
X156758413Y-57420574D01*
X156954955Y-57551899D01*
X157122101Y-57719045D01*
X157253427Y-57915589D01*
X157343885Y-58133974D01*
X157390000Y-58365809D01*
X157390000Y-58602191D01*
X157343885Y-58834026D01*
X157253427Y-59052411D01*
X157253426Y-59052413D01*
X157122101Y-59248955D01*
X156954955Y-59416101D01*
X156758413Y-59547426D01*
X156758412Y-59547427D01*
X156758411Y-59547427D01*
X156540026Y-59637885D01*
X156308191Y-59684000D01*
X156071809Y-59684000D01*
X155839974Y-59637885D01*
X155621589Y-59547427D01*
X155621588Y-59547427D01*
X155621587Y-59547426D01*
X155425045Y-59416101D01*
X155257899Y-59248955D01*
X155126574Y-59052413D01*
X155126573Y-59052411D01*
X155036115Y-58834026D01*
X154990000Y-58602191D01*
X154990000Y-58365809D01*
X155036115Y-58133974D01*
X155126573Y-57915589D01*
X155257899Y-57719045D01*
X155425045Y-57551899D01*
X155621587Y-57420574D01*
X155621589Y-57420573D01*
X155839974Y-57330115D01*
X156071809Y-57284000D01*
X156308191Y-57284000D01*
X156540026Y-57330115D01*
X156540026Y-57330115D01*
G37*
G36*
X151710604Y-56748968D02*
G01*
X151885678Y-56821486D01*
X151885679Y-56821487D01*
X152043237Y-56926763D01*
X152177237Y-57060763D01*
X152246217Y-57164000D01*
X152282514Y-57218322D01*
X152309718Y-57284000D01*
X152355032Y-57393396D01*
X152392000Y-57579250D01*
X152392000Y-57768750D01*
X152355032Y-57954604D01*
X152282514Y-58129678D01*
X152282513Y-58129679D01*
X152177237Y-58287237D01*
X152043237Y-58421237D01*
X151911879Y-58509007D01*
X151885678Y-58526514D01*
X151710604Y-58599032D01*
X151524750Y-58636000D01*
X151335250Y-58636000D01*
X151149396Y-58599032D01*
X151061858Y-58562772D01*
X150974322Y-58526514D01*
X150948121Y-58509007D01*
X150816763Y-58421237D01*
X150682763Y-58287237D01*
X150577487Y-58129679D01*
X150577486Y-58129678D01*
X150504968Y-57954604D01*
X150468000Y-57768750D01*
X150468000Y-57579250D01*
X150504968Y-57393396D01*
X150550282Y-57284000D01*
X150577486Y-57218322D01*
X150613783Y-57164000D01*
X150682763Y-57060763D01*
X150816763Y-56926763D01*
X150974321Y-56821487D01*
X150974322Y-56821486D01*
X151149396Y-56748968D01*
X151335250Y-56712000D01*
X151524750Y-56712000D01*
X151710604Y-56748968D01*
X151710604Y-56748968D01*
G37*
G36*
X103728707Y-55071597D02*
G01*
X103805836Y-55079193D01*
X103999315Y-55137884D01*
X104003765Y-55139234D01*
X104186170Y-55236732D01*
X104346055Y-55367945D01*
X104477268Y-55527830D01*
X104574766Y-55710235D01*
X104574767Y-55710238D01*
X104634807Y-55908164D01*
X104655080Y-56114000D01*
X104634807Y-56319836D01*
X104574767Y-56517762D01*
X104574766Y-56517765D01*
X104477268Y-56700170D01*
X104346055Y-56860055D01*
X104186170Y-56991268D01*
X104003765Y-57088766D01*
X104003762Y-57088767D01*
X103805836Y-57148807D01*
X103728707Y-57156404D01*
X103651580Y-57164000D01*
X103548420Y-57164000D01*
X103471293Y-57156404D01*
X103394164Y-57148807D01*
X103196238Y-57088767D01*
X103196235Y-57088766D01*
X103013830Y-56991268D01*
X102853945Y-56860055D01*
X102722732Y-56700170D01*
X102625234Y-56517765D01*
X102625233Y-56517762D01*
X102565193Y-56319836D01*
X102544920Y-56114000D01*
X102565193Y-55908164D01*
X102625233Y-55710238D01*
X102625234Y-55710235D01*
X102722732Y-55527830D01*
X102853945Y-55367945D01*
X103013830Y-55236732D01*
X103196235Y-55139234D01*
X103200685Y-55137884D01*
X103394164Y-55079193D01*
X103471293Y-55071597D01*
X103548420Y-55064000D01*
X103651580Y-55064000D01*
X103728707Y-55071597D01*
X103728707Y-55071597D01*
G37*
G36*
X151710604Y-54218968D02*
G01*
X151885678Y-54291486D01*
X151885679Y-54291487D01*
X152043237Y-54396763D01*
X152177237Y-54530763D01*
X152239535Y-54624000D01*
X152282514Y-54688322D01*
X152307629Y-54748955D01*
X152355032Y-54863396D01*
X152392000Y-55049250D01*
X152392000Y-55238750D01*
X152355032Y-55424604D01*
X152318772Y-55512142D01*
X152282514Y-55599678D01*
X152282513Y-55599679D01*
X152177237Y-55757237D01*
X152043237Y-55891237D01*
X151911879Y-55979007D01*
X151885678Y-55996514D01*
X151798142Y-56032772D01*
X151710604Y-56069032D01*
X151524750Y-56106000D01*
X151335250Y-56106000D01*
X151149396Y-56069032D01*
X151061858Y-56032772D01*
X150974322Y-55996514D01*
X150948121Y-55979007D01*
X150816763Y-55891237D01*
X150682763Y-55757237D01*
X150577487Y-55599679D01*
X150577486Y-55599678D01*
X150541228Y-55512142D01*
X150504968Y-55424604D01*
X150468000Y-55238750D01*
X150468000Y-55049250D01*
X150504968Y-54863396D01*
X150552371Y-54748955D01*
X150577486Y-54688322D01*
X150620465Y-54624000D01*
X150682763Y-54530763D01*
X150816763Y-54396763D01*
X150974321Y-54291487D01*
X150974322Y-54291486D01*
X151061858Y-54255228D01*
X151149396Y-54218968D01*
X151335250Y-54182000D01*
X151524750Y-54182000D01*
X151710604Y-54218968D01*
X151710604Y-54218968D01*
G37*
G36*
X163040026Y-52830115D02*
G01*
X163258411Y-52920573D01*
X163258413Y-52920574D01*
X163359067Y-52987829D01*
X163454955Y-53051899D01*
X163622101Y-53219045D01*
X163753427Y-53415589D01*
X163843885Y-53633974D01*
X163890000Y-53865809D01*
X163890000Y-54102191D01*
X163843885Y-54334026D01*
X163762395Y-54530761D01*
X163753426Y-54552413D01*
X163622101Y-54748955D01*
X163454955Y-54916101D01*
X163258413Y-55047426D01*
X163258412Y-55047427D01*
X163258411Y-55047427D01*
X163040026Y-55137885D01*
X162808191Y-55184000D01*
X162571809Y-55184000D01*
X162339974Y-55137885D01*
X162121589Y-55047427D01*
X162121588Y-55047427D01*
X162121587Y-55047426D01*
X161925045Y-54916101D01*
X161757899Y-54748955D01*
X161626574Y-54552413D01*
X161617605Y-54530761D01*
X161536115Y-54334026D01*
X161490000Y-54102191D01*
X161490000Y-53865809D01*
X161536115Y-53633974D01*
X161626573Y-53415589D01*
X161757899Y-53219045D01*
X161925045Y-53051899D01*
X162020933Y-52987829D01*
X162121587Y-52920574D01*
X162121589Y-52920573D01*
X162339974Y-52830115D01*
X162571809Y-52784000D01*
X162808191Y-52784000D01*
X163040026Y-52830115D01*
X163040026Y-52830115D01*
G37*
G36*
X156540026Y-52830115D02*
G01*
X156758411Y-52920573D01*
X156758413Y-52920574D01*
X156859067Y-52987829D01*
X156954955Y-53051899D01*
X157122101Y-53219045D01*
X157253427Y-53415589D01*
X157343885Y-53633974D01*
X157390000Y-53865809D01*
X157390000Y-54102191D01*
X157343885Y-54334026D01*
X157262395Y-54530761D01*
X157253426Y-54552413D01*
X157122101Y-54748955D01*
X156954955Y-54916101D01*
X156758413Y-55047426D01*
X156758412Y-55047427D01*
X156758411Y-55047427D01*
X156540026Y-55137885D01*
X156308191Y-55184000D01*
X156071809Y-55184000D01*
X155839974Y-55137885D01*
X155621589Y-55047427D01*
X155621588Y-55047427D01*
X155621587Y-55047426D01*
X155425045Y-54916101D01*
X155257899Y-54748955D01*
X155126574Y-54552413D01*
X155117605Y-54530761D01*
X155036115Y-54334026D01*
X154990000Y-54102191D01*
X154990000Y-53865809D01*
X155036115Y-53633974D01*
X155126573Y-53415589D01*
X155257899Y-53219045D01*
X155425045Y-53051899D01*
X155520933Y-52987829D01*
X155621587Y-52920574D01*
X155621589Y-52920573D01*
X155839974Y-52830115D01*
X156071809Y-52784000D01*
X156308191Y-52784000D01*
X156540026Y-52830115D01*
X156540026Y-52830115D01*
G37*
G36*
X103728707Y-52531597D02*
G01*
X103805836Y-52539193D01*
X104003762Y-52599233D01*
X104003765Y-52599234D01*
X104186170Y-52696732D01*
X104346055Y-52827945D01*
X104477268Y-52987830D01*
X104574766Y-53170235D01*
X104574767Y-53170238D01*
X104634807Y-53368164D01*
X104655080Y-53574000D01*
X104634807Y-53779836D01*
X104608727Y-53865809D01*
X104574766Y-53977765D01*
X104477268Y-54160170D01*
X104346055Y-54320055D01*
X104186170Y-54451268D01*
X104003765Y-54548766D01*
X104003762Y-54548767D01*
X103805836Y-54608807D01*
X103728707Y-54616403D01*
X103651580Y-54624000D01*
X103548420Y-54624000D01*
X103471293Y-54616403D01*
X103394164Y-54608807D01*
X103196238Y-54548767D01*
X103196235Y-54548766D01*
X103013830Y-54451268D01*
X102853945Y-54320055D01*
X102722732Y-54160170D01*
X102625234Y-53977765D01*
X102591273Y-53865809D01*
X102565193Y-53779836D01*
X102544920Y-53574000D01*
X102565193Y-53368164D01*
X102625233Y-53170238D01*
X102625234Y-53170235D01*
X102722732Y-52987830D01*
X102853945Y-52827945D01*
X103013830Y-52696732D01*
X103196235Y-52599234D01*
X103196238Y-52599233D01*
X103394164Y-52539193D01*
X103471293Y-52531597D01*
X103548420Y-52524000D01*
X103651580Y-52524000D01*
X103728707Y-52531597D01*
X103728707Y-52531597D01*
G37*
G36*
X152392000Y-53566000D02*
G01*
X150468000Y-53566000D01*
X150468000Y-51642000D01*
X152392000Y-51642000D01*
X152392000Y-53566000D01*
X152392000Y-53566000D01*
G37*
G36*
X109440000Y-49340000D02*
G01*
X107340000Y-49340000D01*
X107340000Y-47240000D01*
X109440000Y-47240000D01*
X109440000Y-49340000D01*
X109440000Y-49340000D01*
G37*
G36*
X156778707Y-47247597D02*
G01*
X156855836Y-47255193D01*
X157053762Y-47315233D01*
X157053765Y-47315234D01*
X157236170Y-47412732D01*
X157396055Y-47543945D01*
X157527268Y-47703830D01*
X157624766Y-47886235D01*
X157624767Y-47886238D01*
X157684807Y-48084164D01*
X157705080Y-48290000D01*
X157684807Y-48495836D01*
X157651650Y-48605139D01*
X157624766Y-48693765D01*
X157527268Y-48876170D01*
X157396055Y-49036055D01*
X157236170Y-49167268D01*
X157053765Y-49264766D01*
X157053762Y-49264767D01*
X156855836Y-49324807D01*
X156778707Y-49332404D01*
X156701580Y-49340000D01*
X156598420Y-49340000D01*
X156521293Y-49332404D01*
X156444164Y-49324807D01*
X156246238Y-49264767D01*
X156246235Y-49264766D01*
X156063830Y-49167268D01*
X155903945Y-49036055D01*
X155772732Y-48876170D01*
X155675234Y-48693765D01*
X155648350Y-48605139D01*
X155615193Y-48495836D01*
X155594920Y-48290000D01*
X155615193Y-48084164D01*
X155675233Y-47886238D01*
X155675234Y-47886235D01*
X155772732Y-47703830D01*
X155903945Y-47543945D01*
X156063830Y-47412732D01*
X156246235Y-47315234D01*
X156246238Y-47315233D01*
X156444164Y-47255193D01*
X156521293Y-47247597D01*
X156598420Y-47240000D01*
X156701580Y-47240000D01*
X156778707Y-47247597D01*
X156778707Y-47247597D01*
G37*
G36*
X154238707Y-47247597D02*
G01*
X154315836Y-47255193D01*
X154513762Y-47315233D01*
X154513765Y-47315234D01*
X154696170Y-47412732D01*
X154856055Y-47543945D01*
X154987268Y-47703830D01*
X155084766Y-47886235D01*
X155084767Y-47886238D01*
X155144807Y-48084164D01*
X155165080Y-48290000D01*
X155144807Y-48495836D01*
X155111650Y-48605139D01*
X155084766Y-48693765D01*
X154987268Y-48876170D01*
X154856055Y-49036055D01*
X154696170Y-49167268D01*
X154513765Y-49264766D01*
X154513762Y-49264767D01*
X154315836Y-49324807D01*
X154238707Y-49332404D01*
X154161580Y-49340000D01*
X154058420Y-49340000D01*
X153981293Y-49332404D01*
X153904164Y-49324807D01*
X153706238Y-49264767D01*
X153706235Y-49264766D01*
X153523830Y-49167268D01*
X153363945Y-49036055D01*
X153232732Y-48876170D01*
X153135234Y-48693765D01*
X153108350Y-48605139D01*
X153075193Y-48495836D01*
X153054920Y-48290000D01*
X153075193Y-48084164D01*
X153135233Y-47886238D01*
X153135234Y-47886235D01*
X153232732Y-47703830D01*
X153363945Y-47543945D01*
X153523830Y-47412732D01*
X153706235Y-47315234D01*
X153706238Y-47315233D01*
X153904164Y-47255193D01*
X153981293Y-47247597D01*
X154058420Y-47240000D01*
X154161580Y-47240000D01*
X154238707Y-47247597D01*
X154238707Y-47247597D01*
G37*
G36*
X116138707Y-47247597D02*
G01*
X116215836Y-47255193D01*
X116413762Y-47315233D01*
X116413765Y-47315234D01*
X116596170Y-47412732D01*
X116756055Y-47543945D01*
X116887268Y-47703830D01*
X116984766Y-47886235D01*
X116984767Y-47886238D01*
X117044807Y-48084164D01*
X117065080Y-48290000D01*
X117044807Y-48495836D01*
X117011650Y-48605139D01*
X116984766Y-48693765D01*
X116887268Y-48876170D01*
X116756055Y-49036055D01*
X116596170Y-49167268D01*
X116413765Y-49264766D01*
X116413762Y-49264767D01*
X116215836Y-49324807D01*
X116138707Y-49332404D01*
X116061580Y-49340000D01*
X115958420Y-49340000D01*
X115881293Y-49332404D01*
X115804164Y-49324807D01*
X115606238Y-49264767D01*
X115606235Y-49264766D01*
X115423830Y-49167268D01*
X115263945Y-49036055D01*
X115132732Y-48876170D01*
X115035234Y-48693765D01*
X115008350Y-48605139D01*
X114975193Y-48495836D01*
X114954920Y-48290000D01*
X114975193Y-48084164D01*
X115035233Y-47886238D01*
X115035234Y-47886235D01*
X115132732Y-47703830D01*
X115263945Y-47543945D01*
X115423830Y-47412732D01*
X115606235Y-47315234D01*
X115606238Y-47315233D01*
X115804164Y-47255193D01*
X115881293Y-47247597D01*
X115958420Y-47240000D01*
X116061580Y-47240000D01*
X116138707Y-47247597D01*
X116138707Y-47247597D01*
G37*
G36*
X151698707Y-47247597D02*
G01*
X151775836Y-47255193D01*
X151973762Y-47315233D01*
X151973765Y-47315234D01*
X152156170Y-47412732D01*
X152316055Y-47543945D01*
X152447268Y-47703830D01*
X152544766Y-47886235D01*
X152544767Y-47886238D01*
X152604807Y-48084164D01*
X152625080Y-48290000D01*
X152604807Y-48495836D01*
X152571650Y-48605139D01*
X152544766Y-48693765D01*
X152447268Y-48876170D01*
X152316055Y-49036055D01*
X152156170Y-49167268D01*
X151973765Y-49264766D01*
X151973762Y-49264767D01*
X151775836Y-49324807D01*
X151698707Y-49332404D01*
X151621580Y-49340000D01*
X151518420Y-49340000D01*
X151441293Y-49332404D01*
X151364164Y-49324807D01*
X151166238Y-49264767D01*
X151166235Y-49264766D01*
X150983830Y-49167268D01*
X150823945Y-49036055D01*
X150692732Y-48876170D01*
X150595234Y-48693765D01*
X150568350Y-48605139D01*
X150535193Y-48495836D01*
X150514920Y-48290000D01*
X150535193Y-48084164D01*
X150595233Y-47886238D01*
X150595234Y-47886235D01*
X150692732Y-47703830D01*
X150823945Y-47543945D01*
X150983830Y-47412732D01*
X151166235Y-47315234D01*
X151166238Y-47315233D01*
X151364164Y-47255193D01*
X151441293Y-47247597D01*
X151518420Y-47240000D01*
X151621580Y-47240000D01*
X151698707Y-47247597D01*
X151698707Y-47247597D01*
G37*
G36*
X149158707Y-47247597D02*
G01*
X149235836Y-47255193D01*
X149433762Y-47315233D01*
X149433765Y-47315234D01*
X149616170Y-47412732D01*
X149776055Y-47543945D01*
X149907268Y-47703830D01*
X150004766Y-47886235D01*
X150004767Y-47886238D01*
X150064807Y-48084164D01*
X150085080Y-48290000D01*
X150064807Y-48495836D01*
X150031650Y-48605139D01*
X150004766Y-48693765D01*
X149907268Y-48876170D01*
X149776055Y-49036055D01*
X149616170Y-49167268D01*
X149433765Y-49264766D01*
X149433762Y-49264767D01*
X149235836Y-49324807D01*
X149158707Y-49332404D01*
X149081580Y-49340000D01*
X148978420Y-49340000D01*
X148901293Y-49332404D01*
X148824164Y-49324807D01*
X148626238Y-49264767D01*
X148626235Y-49264766D01*
X148443830Y-49167268D01*
X148283945Y-49036055D01*
X148152732Y-48876170D01*
X148055234Y-48693765D01*
X148028350Y-48605139D01*
X147995193Y-48495836D01*
X147974920Y-48290000D01*
X147995193Y-48084164D01*
X148055233Y-47886238D01*
X148055234Y-47886235D01*
X148152732Y-47703830D01*
X148283945Y-47543945D01*
X148443830Y-47412732D01*
X148626235Y-47315234D01*
X148626238Y-47315233D01*
X148824164Y-47255193D01*
X148901293Y-47247597D01*
X148978420Y-47240000D01*
X149081580Y-47240000D01*
X149158707Y-47247597D01*
X149158707Y-47247597D01*
G37*
G36*
X146618707Y-47247597D02*
G01*
X146695836Y-47255193D01*
X146893762Y-47315233D01*
X146893765Y-47315234D01*
X147076170Y-47412732D01*
X147236055Y-47543945D01*
X147367268Y-47703830D01*
X147464766Y-47886235D01*
X147464767Y-47886238D01*
X147524807Y-48084164D01*
X147545080Y-48290000D01*
X147524807Y-48495836D01*
X147491650Y-48605139D01*
X147464766Y-48693765D01*
X147367268Y-48876170D01*
X147236055Y-49036055D01*
X147076170Y-49167268D01*
X146893765Y-49264766D01*
X146893762Y-49264767D01*
X146695836Y-49324807D01*
X146618707Y-49332404D01*
X146541580Y-49340000D01*
X146438420Y-49340000D01*
X146361293Y-49332404D01*
X146284164Y-49324807D01*
X146086238Y-49264767D01*
X146086235Y-49264766D01*
X145903830Y-49167268D01*
X145743945Y-49036055D01*
X145612732Y-48876170D01*
X145515234Y-48693765D01*
X145488350Y-48605139D01*
X145455193Y-48495836D01*
X145434920Y-48290000D01*
X145455193Y-48084164D01*
X145515233Y-47886238D01*
X145515234Y-47886235D01*
X145612732Y-47703830D01*
X145743945Y-47543945D01*
X145903830Y-47412732D01*
X146086235Y-47315234D01*
X146086238Y-47315233D01*
X146284164Y-47255193D01*
X146361293Y-47247597D01*
X146438420Y-47240000D01*
X146541580Y-47240000D01*
X146618707Y-47247597D01*
X146618707Y-47247597D01*
G37*
G36*
X144078707Y-47247597D02*
G01*
X144155836Y-47255193D01*
X144353762Y-47315233D01*
X144353765Y-47315234D01*
X144536170Y-47412732D01*
X144696055Y-47543945D01*
X144827268Y-47703830D01*
X144924766Y-47886235D01*
X144924767Y-47886238D01*
X144984807Y-48084164D01*
X145005080Y-48290000D01*
X144984807Y-48495836D01*
X144951650Y-48605139D01*
X144924766Y-48693765D01*
X144827268Y-48876170D01*
X144696055Y-49036055D01*
X144536170Y-49167268D01*
X144353765Y-49264766D01*
X144353762Y-49264767D01*
X144155836Y-49324807D01*
X144078707Y-49332404D01*
X144001580Y-49340000D01*
X143898420Y-49340000D01*
X143821293Y-49332404D01*
X143744164Y-49324807D01*
X143546238Y-49264767D01*
X143546235Y-49264766D01*
X143363830Y-49167268D01*
X143203945Y-49036055D01*
X143072732Y-48876170D01*
X142975234Y-48693765D01*
X142948350Y-48605139D01*
X142915193Y-48495836D01*
X142894920Y-48290000D01*
X142915193Y-48084164D01*
X142975233Y-47886238D01*
X142975234Y-47886235D01*
X143072732Y-47703830D01*
X143203945Y-47543945D01*
X143363830Y-47412732D01*
X143546235Y-47315234D01*
X143546238Y-47315233D01*
X143744164Y-47255193D01*
X143821293Y-47247597D01*
X143898420Y-47240000D01*
X144001580Y-47240000D01*
X144078707Y-47247597D01*
X144078707Y-47247597D01*
G37*
G36*
X141538707Y-47247597D02*
G01*
X141615836Y-47255193D01*
X141813762Y-47315233D01*
X141813765Y-47315234D01*
X141996170Y-47412732D01*
X142156055Y-47543945D01*
X142287268Y-47703830D01*
X142384766Y-47886235D01*
X142384767Y-47886238D01*
X142444807Y-48084164D01*
X142465080Y-48290000D01*
X142444807Y-48495836D01*
X142411650Y-48605139D01*
X142384766Y-48693765D01*
X142287268Y-48876170D01*
X142156055Y-49036055D01*
X141996170Y-49167268D01*
X141813765Y-49264766D01*
X141813762Y-49264767D01*
X141615836Y-49324807D01*
X141538707Y-49332404D01*
X141461580Y-49340000D01*
X141358420Y-49340000D01*
X141281293Y-49332404D01*
X141204164Y-49324807D01*
X141006238Y-49264767D01*
X141006235Y-49264766D01*
X140823830Y-49167268D01*
X140663945Y-49036055D01*
X140532732Y-48876170D01*
X140435234Y-48693765D01*
X140408350Y-48605139D01*
X140375193Y-48495836D01*
X140354920Y-48290000D01*
X140375193Y-48084164D01*
X140435233Y-47886238D01*
X140435234Y-47886235D01*
X140532732Y-47703830D01*
X140663945Y-47543945D01*
X140823830Y-47412732D01*
X141006235Y-47315234D01*
X141006238Y-47315233D01*
X141204164Y-47255193D01*
X141281293Y-47247597D01*
X141358420Y-47240000D01*
X141461580Y-47240000D01*
X141538707Y-47247597D01*
X141538707Y-47247597D01*
G37*
G36*
X138998707Y-47247597D02*
G01*
X139075836Y-47255193D01*
X139273762Y-47315233D01*
X139273765Y-47315234D01*
X139456170Y-47412732D01*
X139616055Y-47543945D01*
X139747268Y-47703830D01*
X139844766Y-47886235D01*
X139844767Y-47886238D01*
X139904807Y-48084164D01*
X139925080Y-48290000D01*
X139904807Y-48495836D01*
X139871650Y-48605139D01*
X139844766Y-48693765D01*
X139747268Y-48876170D01*
X139616055Y-49036055D01*
X139456170Y-49167268D01*
X139273765Y-49264766D01*
X139273762Y-49264767D01*
X139075836Y-49324807D01*
X138998707Y-49332404D01*
X138921580Y-49340000D01*
X138818420Y-49340000D01*
X138741293Y-49332404D01*
X138664164Y-49324807D01*
X138466238Y-49264767D01*
X138466235Y-49264766D01*
X138283830Y-49167268D01*
X138123945Y-49036055D01*
X137992732Y-48876170D01*
X137895234Y-48693765D01*
X137868350Y-48605139D01*
X137835193Y-48495836D01*
X137814920Y-48290000D01*
X137835193Y-48084164D01*
X137895233Y-47886238D01*
X137895234Y-47886235D01*
X137992732Y-47703830D01*
X138123945Y-47543945D01*
X138283830Y-47412732D01*
X138466235Y-47315234D01*
X138466238Y-47315233D01*
X138664164Y-47255193D01*
X138741293Y-47247597D01*
X138818420Y-47240000D01*
X138921580Y-47240000D01*
X138998707Y-47247597D01*
X138998707Y-47247597D01*
G37*
G36*
X133918707Y-47247597D02*
G01*
X133995836Y-47255193D01*
X134193762Y-47315233D01*
X134193765Y-47315234D01*
X134376170Y-47412732D01*
X134536055Y-47543945D01*
X134667268Y-47703830D01*
X134764766Y-47886235D01*
X134764767Y-47886238D01*
X134824807Y-48084164D01*
X134845080Y-48290000D01*
X134824807Y-48495836D01*
X134791650Y-48605139D01*
X134764766Y-48693765D01*
X134667268Y-48876170D01*
X134536055Y-49036055D01*
X134376170Y-49167268D01*
X134193765Y-49264766D01*
X134193762Y-49264767D01*
X133995836Y-49324807D01*
X133918707Y-49332404D01*
X133841580Y-49340000D01*
X133738420Y-49340000D01*
X133661293Y-49332404D01*
X133584164Y-49324807D01*
X133386238Y-49264767D01*
X133386235Y-49264766D01*
X133203830Y-49167268D01*
X133043945Y-49036055D01*
X132912732Y-48876170D01*
X132815234Y-48693765D01*
X132788350Y-48605139D01*
X132755193Y-48495836D01*
X132734920Y-48290000D01*
X132755193Y-48084164D01*
X132815233Y-47886238D01*
X132815234Y-47886235D01*
X132912732Y-47703830D01*
X133043945Y-47543945D01*
X133203830Y-47412732D01*
X133386235Y-47315234D01*
X133386238Y-47315233D01*
X133584164Y-47255193D01*
X133661293Y-47247597D01*
X133738420Y-47240000D01*
X133841580Y-47240000D01*
X133918707Y-47247597D01*
X133918707Y-47247597D01*
G37*
G36*
X111058707Y-47247597D02*
G01*
X111135836Y-47255193D01*
X111333762Y-47315233D01*
X111333765Y-47315234D01*
X111516170Y-47412732D01*
X111676055Y-47543945D01*
X111807268Y-47703830D01*
X111904766Y-47886235D01*
X111904767Y-47886238D01*
X111964807Y-48084164D01*
X111985080Y-48290000D01*
X111964807Y-48495836D01*
X111931650Y-48605139D01*
X111904766Y-48693765D01*
X111807268Y-48876170D01*
X111676055Y-49036055D01*
X111516170Y-49167268D01*
X111333765Y-49264766D01*
X111333762Y-49264767D01*
X111135836Y-49324807D01*
X111058707Y-49332404D01*
X110981580Y-49340000D01*
X110878420Y-49340000D01*
X110801293Y-49332404D01*
X110724164Y-49324807D01*
X110526238Y-49264767D01*
X110526235Y-49264766D01*
X110343830Y-49167268D01*
X110183945Y-49036055D01*
X110052732Y-48876170D01*
X109955234Y-48693765D01*
X109928350Y-48605139D01*
X109895193Y-48495836D01*
X109874920Y-48290000D01*
X109895193Y-48084164D01*
X109955233Y-47886238D01*
X109955234Y-47886235D01*
X110052732Y-47703830D01*
X110183945Y-47543945D01*
X110343830Y-47412732D01*
X110526235Y-47315234D01*
X110526238Y-47315233D01*
X110724164Y-47255193D01*
X110801293Y-47247597D01*
X110878420Y-47240000D01*
X110981580Y-47240000D01*
X111058707Y-47247597D01*
X111058707Y-47247597D01*
G37*
G36*
X131378707Y-47247597D02*
G01*
X131455836Y-47255193D01*
X131653762Y-47315233D01*
X131653765Y-47315234D01*
X131836170Y-47412732D01*
X131996055Y-47543945D01*
X132127268Y-47703830D01*
X132224766Y-47886235D01*
X132224767Y-47886238D01*
X132284807Y-48084164D01*
X132305080Y-48290000D01*
X132284807Y-48495836D01*
X132251650Y-48605139D01*
X132224766Y-48693765D01*
X132127268Y-48876170D01*
X131996055Y-49036055D01*
X131836170Y-49167268D01*
X131653765Y-49264766D01*
X131653762Y-49264767D01*
X131455836Y-49324807D01*
X131378707Y-49332404D01*
X131301580Y-49340000D01*
X131198420Y-49340000D01*
X131121293Y-49332404D01*
X131044164Y-49324807D01*
X130846238Y-49264767D01*
X130846235Y-49264766D01*
X130663830Y-49167268D01*
X130503945Y-49036055D01*
X130372732Y-48876170D01*
X130275234Y-48693765D01*
X130248350Y-48605139D01*
X130215193Y-48495836D01*
X130194920Y-48290000D01*
X130215193Y-48084164D01*
X130275233Y-47886238D01*
X130275234Y-47886235D01*
X130372732Y-47703830D01*
X130503945Y-47543945D01*
X130663830Y-47412732D01*
X130846235Y-47315234D01*
X130846238Y-47315233D01*
X131044164Y-47255193D01*
X131121293Y-47247597D01*
X131198420Y-47240000D01*
X131301580Y-47240000D01*
X131378707Y-47247597D01*
X131378707Y-47247597D01*
G37*
G36*
X128838707Y-47247597D02*
G01*
X128915836Y-47255193D01*
X129113762Y-47315233D01*
X129113765Y-47315234D01*
X129296170Y-47412732D01*
X129456055Y-47543945D01*
X129587268Y-47703830D01*
X129684766Y-47886235D01*
X129684767Y-47886238D01*
X129744807Y-48084164D01*
X129765080Y-48290000D01*
X129744807Y-48495836D01*
X129711650Y-48605139D01*
X129684766Y-48693765D01*
X129587268Y-48876170D01*
X129456055Y-49036055D01*
X129296170Y-49167268D01*
X129113765Y-49264766D01*
X129113762Y-49264767D01*
X128915836Y-49324807D01*
X128838707Y-49332404D01*
X128761580Y-49340000D01*
X128658420Y-49340000D01*
X128581293Y-49332404D01*
X128504164Y-49324807D01*
X128306238Y-49264767D01*
X128306235Y-49264766D01*
X128123830Y-49167268D01*
X127963945Y-49036055D01*
X127832732Y-48876170D01*
X127735234Y-48693765D01*
X127708350Y-48605139D01*
X127675193Y-48495836D01*
X127654920Y-48290000D01*
X127675193Y-48084164D01*
X127735233Y-47886238D01*
X127735234Y-47886235D01*
X127832732Y-47703830D01*
X127963945Y-47543945D01*
X128123830Y-47412732D01*
X128306235Y-47315234D01*
X128306238Y-47315233D01*
X128504164Y-47255193D01*
X128581293Y-47247597D01*
X128658420Y-47240000D01*
X128761580Y-47240000D01*
X128838707Y-47247597D01*
X128838707Y-47247597D01*
G37*
G36*
X126298707Y-47247597D02*
G01*
X126375836Y-47255193D01*
X126573762Y-47315233D01*
X126573765Y-47315234D01*
X126756170Y-47412732D01*
X126916055Y-47543945D01*
X127047268Y-47703830D01*
X127144766Y-47886235D01*
X127144767Y-47886238D01*
X127204807Y-48084164D01*
X127225080Y-48290000D01*
X127204807Y-48495836D01*
X127171650Y-48605139D01*
X127144766Y-48693765D01*
X127047268Y-48876170D01*
X126916055Y-49036055D01*
X126756170Y-49167268D01*
X126573765Y-49264766D01*
X126573762Y-49264767D01*
X126375836Y-49324807D01*
X126298707Y-49332404D01*
X126221580Y-49340000D01*
X126118420Y-49340000D01*
X126041293Y-49332404D01*
X125964164Y-49324807D01*
X125766238Y-49264767D01*
X125766235Y-49264766D01*
X125583830Y-49167268D01*
X125423945Y-49036055D01*
X125292732Y-48876170D01*
X125195234Y-48693765D01*
X125168350Y-48605139D01*
X125135193Y-48495836D01*
X125114920Y-48290000D01*
X125135193Y-48084164D01*
X125195233Y-47886238D01*
X125195234Y-47886235D01*
X125292732Y-47703830D01*
X125423945Y-47543945D01*
X125583830Y-47412732D01*
X125766235Y-47315234D01*
X125766238Y-47315233D01*
X125964164Y-47255193D01*
X126041293Y-47247597D01*
X126118420Y-47240000D01*
X126221580Y-47240000D01*
X126298707Y-47247597D01*
X126298707Y-47247597D01*
G37*
G36*
X113598707Y-47247597D02*
G01*
X113675836Y-47255193D01*
X113873762Y-47315233D01*
X113873765Y-47315234D01*
X114056170Y-47412732D01*
X114216055Y-47543945D01*
X114347268Y-47703830D01*
X114444766Y-47886235D01*
X114444767Y-47886238D01*
X114504807Y-48084164D01*
X114525080Y-48290000D01*
X114504807Y-48495836D01*
X114471650Y-48605139D01*
X114444766Y-48693765D01*
X114347268Y-48876170D01*
X114216055Y-49036055D01*
X114056170Y-49167268D01*
X113873765Y-49264766D01*
X113873762Y-49264767D01*
X113675836Y-49324807D01*
X113598707Y-49332404D01*
X113521580Y-49340000D01*
X113418420Y-49340000D01*
X113341293Y-49332404D01*
X113264164Y-49324807D01*
X113066238Y-49264767D01*
X113066235Y-49264766D01*
X112883830Y-49167268D01*
X112723945Y-49036055D01*
X112592732Y-48876170D01*
X112495234Y-48693765D01*
X112468350Y-48605139D01*
X112435193Y-48495836D01*
X112414920Y-48290000D01*
X112435193Y-48084164D01*
X112495233Y-47886238D01*
X112495234Y-47886235D01*
X112592732Y-47703830D01*
X112723945Y-47543945D01*
X112883830Y-47412732D01*
X113066235Y-47315234D01*
X113066238Y-47315233D01*
X113264164Y-47255193D01*
X113341293Y-47247597D01*
X113418420Y-47240000D01*
X113521580Y-47240000D01*
X113598707Y-47247597D01*
X113598707Y-47247597D01*
G37*
G36*
X118678707Y-47247597D02*
G01*
X118755836Y-47255193D01*
X118953762Y-47315233D01*
X118953765Y-47315234D01*
X119136170Y-47412732D01*
X119296055Y-47543945D01*
X119427268Y-47703830D01*
X119524766Y-47886235D01*
X119524767Y-47886238D01*
X119584807Y-48084164D01*
X119605080Y-48290000D01*
X119584807Y-48495836D01*
X119551650Y-48605139D01*
X119524766Y-48693765D01*
X119427268Y-48876170D01*
X119296055Y-49036055D01*
X119136170Y-49167268D01*
X118953765Y-49264766D01*
X118953762Y-49264767D01*
X118755836Y-49324807D01*
X118678707Y-49332404D01*
X118601580Y-49340000D01*
X118498420Y-49340000D01*
X118421293Y-49332404D01*
X118344164Y-49324807D01*
X118146238Y-49264767D01*
X118146235Y-49264766D01*
X117963830Y-49167268D01*
X117803945Y-49036055D01*
X117672732Y-48876170D01*
X117575234Y-48693765D01*
X117548350Y-48605139D01*
X117515193Y-48495836D01*
X117494920Y-48290000D01*
X117515193Y-48084164D01*
X117575233Y-47886238D01*
X117575234Y-47886235D01*
X117672732Y-47703830D01*
X117803945Y-47543945D01*
X117963830Y-47412732D01*
X118146235Y-47315234D01*
X118146238Y-47315233D01*
X118344164Y-47255193D01*
X118421293Y-47247597D01*
X118498420Y-47240000D01*
X118601580Y-47240000D01*
X118678707Y-47247597D01*
X118678707Y-47247597D01*
G37*
G36*
X121218707Y-47247597D02*
G01*
X121295836Y-47255193D01*
X121493762Y-47315233D01*
X121493765Y-47315234D01*
X121676170Y-47412732D01*
X121836055Y-47543945D01*
X121967268Y-47703830D01*
X122064766Y-47886235D01*
X122064767Y-47886238D01*
X122124807Y-48084164D01*
X122145080Y-48290000D01*
X122124807Y-48495836D01*
X122091650Y-48605139D01*
X122064766Y-48693765D01*
X121967268Y-48876170D01*
X121836055Y-49036055D01*
X121676170Y-49167268D01*
X121493765Y-49264766D01*
X121493762Y-49264767D01*
X121295836Y-49324807D01*
X121218707Y-49332404D01*
X121141580Y-49340000D01*
X121038420Y-49340000D01*
X120961293Y-49332404D01*
X120884164Y-49324807D01*
X120686238Y-49264767D01*
X120686235Y-49264766D01*
X120503830Y-49167268D01*
X120343945Y-49036055D01*
X120212732Y-48876170D01*
X120115234Y-48693765D01*
X120088350Y-48605139D01*
X120055193Y-48495836D01*
X120034920Y-48290000D01*
X120055193Y-48084164D01*
X120115233Y-47886238D01*
X120115234Y-47886235D01*
X120212732Y-47703830D01*
X120343945Y-47543945D01*
X120503830Y-47412732D01*
X120686235Y-47315234D01*
X120686238Y-47315233D01*
X120884164Y-47255193D01*
X120961293Y-47247597D01*
X121038420Y-47240000D01*
X121141580Y-47240000D01*
X121218707Y-47247597D01*
X121218707Y-47247597D01*
G37*
G36*
X123758707Y-47247597D02*
G01*
X123835836Y-47255193D01*
X124033762Y-47315233D01*
X124033765Y-47315234D01*
X124216170Y-47412732D01*
X124376055Y-47543945D01*
X124507268Y-47703830D01*
X124604766Y-47886235D01*
X124604767Y-47886238D01*
X124664807Y-48084164D01*
X124685080Y-48290000D01*
X124664807Y-48495836D01*
X124631650Y-48605139D01*
X124604766Y-48693765D01*
X124507268Y-48876170D01*
X124376055Y-49036055D01*
X124216170Y-49167268D01*
X124033765Y-49264766D01*
X124033762Y-49264767D01*
X123835836Y-49324807D01*
X123758707Y-49332404D01*
X123681580Y-49340000D01*
X123578420Y-49340000D01*
X123501293Y-49332404D01*
X123424164Y-49324807D01*
X123226238Y-49264767D01*
X123226235Y-49264766D01*
X123043830Y-49167268D01*
X122883945Y-49036055D01*
X122752732Y-48876170D01*
X122655234Y-48693765D01*
X122628350Y-48605139D01*
X122595193Y-48495836D01*
X122574920Y-48290000D01*
X122595193Y-48084164D01*
X122655233Y-47886238D01*
X122655234Y-47886235D01*
X122752732Y-47703830D01*
X122883945Y-47543945D01*
X123043830Y-47412732D01*
X123226235Y-47315234D01*
X123226238Y-47315233D01*
X123424164Y-47255193D01*
X123501293Y-47247597D01*
X123578420Y-47240000D01*
X123681580Y-47240000D01*
X123758707Y-47247597D01*
X123758707Y-47247597D01*
G37*
G36*
X136458707Y-47247597D02*
G01*
X136535836Y-47255193D01*
X136733762Y-47315233D01*
X136733765Y-47315234D01*
X136916170Y-47412732D01*
X137076055Y-47543945D01*
X137207268Y-47703830D01*
X137304766Y-47886235D01*
X137304767Y-47886238D01*
X137364807Y-48084164D01*
X137385080Y-48290000D01*
X137364807Y-48495836D01*
X137331650Y-48605139D01*
X137304766Y-48693765D01*
X137207268Y-48876170D01*
X137076055Y-49036055D01*
X136916170Y-49167268D01*
X136733765Y-49264766D01*
X136733762Y-49264767D01*
X136535836Y-49324807D01*
X136458707Y-49332404D01*
X136381580Y-49340000D01*
X136278420Y-49340000D01*
X136201293Y-49332404D01*
X136124164Y-49324807D01*
X135926238Y-49264767D01*
X135926235Y-49264766D01*
X135743830Y-49167268D01*
X135583945Y-49036055D01*
X135452732Y-48876170D01*
X135355234Y-48693765D01*
X135328350Y-48605139D01*
X135295193Y-48495836D01*
X135274920Y-48290000D01*
X135295193Y-48084164D01*
X135355233Y-47886238D01*
X135355234Y-47886235D01*
X135452732Y-47703830D01*
X135583945Y-47543945D01*
X135743830Y-47412732D01*
X135926235Y-47315234D01*
X135926238Y-47315233D01*
X136124164Y-47255193D01*
X136201293Y-47247597D01*
X136278420Y-47240000D01*
X136381580Y-47240000D01*
X136458707Y-47247597D01*
X136458707Y-47247597D01*
G37*
G36*
X161861163Y-45264587D02*
G01*
X162035041Y-45299173D01*
X162362620Y-45434861D01*
X162657433Y-45631849D01*
X162908151Y-45882567D01*
X163105139Y-46177380D01*
X163240827Y-46504959D01*
X163265156Y-46627268D01*
X163310000Y-46852714D01*
X163310000Y-47207286D01*
X163275414Y-47381162D01*
X163240827Y-47555041D01*
X163105139Y-47882620D01*
X162908151Y-48177433D01*
X162657433Y-48428151D01*
X162362620Y-48625139D01*
X162035041Y-48760827D01*
X161861163Y-48795413D01*
X161687286Y-48830000D01*
X161332714Y-48830000D01*
X161158837Y-48795413D01*
X160984959Y-48760827D01*
X160657380Y-48625139D01*
X160362567Y-48428151D01*
X160111849Y-48177433D01*
X159914861Y-47882620D01*
X159779173Y-47555041D01*
X159744586Y-47381162D01*
X159710000Y-47207286D01*
X159710000Y-46852714D01*
X159754844Y-46627268D01*
X159779173Y-46504959D01*
X159914861Y-46177380D01*
X160111849Y-45882567D01*
X160362567Y-45631849D01*
X160657380Y-45434861D01*
X160984959Y-45299173D01*
X161158838Y-45264586D01*
X161332714Y-45230000D01*
X161687286Y-45230000D01*
X161861163Y-45264587D01*
X161861163Y-45264587D01*
G37*
G36*
X103861162Y-45244586D02*
G01*
X104035041Y-45279173D01*
X104362620Y-45414861D01*
X104657433Y-45611849D01*
X104908151Y-45862567D01*
X105105139Y-46157380D01*
X105240827Y-46484959D01*
X105269134Y-46627267D01*
X105310000Y-46832714D01*
X105310000Y-47187286D01*
X105284549Y-47315234D01*
X105240827Y-47535041D01*
X105105139Y-47862620D01*
X104908151Y-48157433D01*
X104657433Y-48408151D01*
X104362620Y-48605139D01*
X104035041Y-48740827D01*
X103861162Y-48775414D01*
X103687286Y-48810000D01*
X103332714Y-48810000D01*
X103158838Y-48775414D01*
X102984959Y-48740827D01*
X102657380Y-48605139D01*
X102362567Y-48408151D01*
X102111849Y-48157433D01*
X101914861Y-47862620D01*
X101779173Y-47535041D01*
X101735451Y-47315234D01*
X101710000Y-47187286D01*
X101710000Y-46832714D01*
X101750866Y-46627267D01*
X101779173Y-46484959D01*
X101914861Y-46157380D01*
X102111849Y-45862567D01*
X102362567Y-45611849D01*
X102657380Y-45414861D01*
X102984959Y-45279173D01*
X103158837Y-45244587D01*
X103332714Y-45210000D01*
X103687286Y-45210000D01*
X103861162Y-45244586D01*
X103861162Y-45244586D01*
G37*
G36*
X113598707Y-44707597D02*
G01*
X113675836Y-44715193D01*
X113873762Y-44775233D01*
X113873765Y-44775234D01*
X114056170Y-44872732D01*
X114216055Y-45003945D01*
X114347268Y-45163830D01*
X114444766Y-45346235D01*
X114444767Y-45346238D01*
X114504807Y-45544164D01*
X114525080Y-45750000D01*
X114504807Y-45955836D01*
X114444767Y-46153762D01*
X114444766Y-46153765D01*
X114347268Y-46336170D01*
X114216055Y-46496055D01*
X114056170Y-46627268D01*
X113873765Y-46724766D01*
X113873762Y-46724767D01*
X113675836Y-46784807D01*
X113598707Y-46792403D01*
X113521580Y-46800000D01*
X113418420Y-46800000D01*
X113341293Y-46792404D01*
X113264164Y-46784807D01*
X113066238Y-46724767D01*
X113066235Y-46724766D01*
X112883830Y-46627268D01*
X112723945Y-46496055D01*
X112592732Y-46336170D01*
X112495234Y-46153765D01*
X112495233Y-46153762D01*
X112435193Y-45955836D01*
X112414920Y-45750000D01*
X112435193Y-45544164D01*
X112495233Y-45346238D01*
X112495234Y-45346235D01*
X112592732Y-45163830D01*
X112723945Y-45003945D01*
X112883830Y-44872732D01*
X113066235Y-44775234D01*
X113066238Y-44775233D01*
X113264164Y-44715193D01*
X113341293Y-44707597D01*
X113418420Y-44700000D01*
X113521580Y-44700000D01*
X113598707Y-44707597D01*
X113598707Y-44707597D01*
G37*
G36*
X108518707Y-44707597D02*
G01*
X108595836Y-44715193D01*
X108793762Y-44775233D01*
X108793765Y-44775234D01*
X108976170Y-44872732D01*
X109136055Y-45003945D01*
X109267268Y-45163830D01*
X109364766Y-45346235D01*
X109364767Y-45346238D01*
X109424807Y-45544164D01*
X109445080Y-45750000D01*
X109424807Y-45955836D01*
X109364767Y-46153762D01*
X109364766Y-46153765D01*
X109267268Y-46336170D01*
X109136055Y-46496055D01*
X108976170Y-46627268D01*
X108793765Y-46724766D01*
X108793762Y-46724767D01*
X108595836Y-46784807D01*
X108518707Y-46792403D01*
X108441580Y-46800000D01*
X108338420Y-46800000D01*
X108261293Y-46792404D01*
X108184164Y-46784807D01*
X107986238Y-46724767D01*
X107986235Y-46724766D01*
X107803830Y-46627268D01*
X107643945Y-46496055D01*
X107512732Y-46336170D01*
X107415234Y-46153765D01*
X107415233Y-46153762D01*
X107355193Y-45955836D01*
X107334920Y-45750000D01*
X107355193Y-45544164D01*
X107415233Y-45346238D01*
X107415234Y-45346235D01*
X107512732Y-45163830D01*
X107643945Y-45003945D01*
X107803830Y-44872732D01*
X107986235Y-44775234D01*
X107986238Y-44775233D01*
X108184164Y-44715193D01*
X108261293Y-44707597D01*
X108338420Y-44700000D01*
X108441580Y-44700000D01*
X108518707Y-44707597D01*
X108518707Y-44707597D01*
G37*
G36*
X116138707Y-44707597D02*
G01*
X116215836Y-44715193D01*
X116413762Y-44775233D01*
X116413765Y-44775234D01*
X116596170Y-44872732D01*
X116756055Y-45003945D01*
X116887268Y-45163830D01*
X116984766Y-45346235D01*
X116984767Y-45346238D01*
X117044807Y-45544164D01*
X117065080Y-45750000D01*
X117044807Y-45955836D01*
X116984767Y-46153762D01*
X116984766Y-46153765D01*
X116887268Y-46336170D01*
X116756055Y-46496055D01*
X116596170Y-46627268D01*
X116413765Y-46724766D01*
X116413762Y-46724767D01*
X116215836Y-46784807D01*
X116138707Y-46792403D01*
X116061580Y-46800000D01*
X115958420Y-46800000D01*
X115881293Y-46792404D01*
X115804164Y-46784807D01*
X115606238Y-46724767D01*
X115606235Y-46724766D01*
X115423830Y-46627268D01*
X115263945Y-46496055D01*
X115132732Y-46336170D01*
X115035234Y-46153765D01*
X115035233Y-46153762D01*
X114975193Y-45955836D01*
X114954920Y-45750000D01*
X114975193Y-45544164D01*
X115035233Y-45346238D01*
X115035234Y-45346235D01*
X115132732Y-45163830D01*
X115263945Y-45003945D01*
X115423830Y-44872732D01*
X115606235Y-44775234D01*
X115606238Y-44775233D01*
X115804164Y-44715193D01*
X115881293Y-44707597D01*
X115958420Y-44700000D01*
X116061580Y-44700000D01*
X116138707Y-44707597D01*
X116138707Y-44707597D01*
G37*
G36*
X156778707Y-44707597D02*
G01*
X156855836Y-44715193D01*
X157053762Y-44775233D01*
X157053765Y-44775234D01*
X157236170Y-44872732D01*
X157396055Y-45003945D01*
X157527268Y-45163830D01*
X157624766Y-45346235D01*
X157624767Y-45346238D01*
X157684807Y-45544164D01*
X157705080Y-45750000D01*
X157684807Y-45955836D01*
X157624767Y-46153762D01*
X157624766Y-46153765D01*
X157527268Y-46336170D01*
X157396055Y-46496055D01*
X157236170Y-46627268D01*
X157053765Y-46724766D01*
X157053762Y-46724767D01*
X156855836Y-46784807D01*
X156778707Y-46792403D01*
X156701580Y-46800000D01*
X156598420Y-46800000D01*
X156521293Y-46792404D01*
X156444164Y-46784807D01*
X156246238Y-46724767D01*
X156246235Y-46724766D01*
X156063830Y-46627268D01*
X155903945Y-46496055D01*
X155772732Y-46336170D01*
X155675234Y-46153765D01*
X155675233Y-46153762D01*
X155615193Y-45955836D01*
X155594920Y-45750000D01*
X155615193Y-45544164D01*
X155675233Y-45346238D01*
X155675234Y-45346235D01*
X155772732Y-45163830D01*
X155903945Y-45003945D01*
X156063830Y-44872732D01*
X156246235Y-44775234D01*
X156246238Y-44775233D01*
X156444164Y-44715193D01*
X156521293Y-44707597D01*
X156598420Y-44700000D01*
X156701580Y-44700000D01*
X156778707Y-44707597D01*
X156778707Y-44707597D01*
G37*
G36*
X154238707Y-44707597D02*
G01*
X154315836Y-44715193D01*
X154513762Y-44775233D01*
X154513765Y-44775234D01*
X154696170Y-44872732D01*
X154856055Y-45003945D01*
X154987268Y-45163830D01*
X155084766Y-45346235D01*
X155084767Y-45346238D01*
X155144807Y-45544164D01*
X155165080Y-45750000D01*
X155144807Y-45955836D01*
X155084767Y-46153762D01*
X155084766Y-46153765D01*
X154987268Y-46336170D01*
X154856055Y-46496055D01*
X154696170Y-46627268D01*
X154513765Y-46724766D01*
X154513762Y-46724767D01*
X154315836Y-46784807D01*
X154238707Y-46792403D01*
X154161580Y-46800000D01*
X154058420Y-46800000D01*
X153981293Y-46792404D01*
X153904164Y-46784807D01*
X153706238Y-46724767D01*
X153706235Y-46724766D01*
X153523830Y-46627268D01*
X153363945Y-46496055D01*
X153232732Y-46336170D01*
X153135234Y-46153765D01*
X153135233Y-46153762D01*
X153075193Y-45955836D01*
X153054920Y-45750000D01*
X153075193Y-45544164D01*
X153135233Y-45346238D01*
X153135234Y-45346235D01*
X153232732Y-45163830D01*
X153363945Y-45003945D01*
X153523830Y-44872732D01*
X153706235Y-44775234D01*
X153706238Y-44775233D01*
X153904164Y-44715193D01*
X153981293Y-44707597D01*
X154058420Y-44700000D01*
X154161580Y-44700000D01*
X154238707Y-44707597D01*
X154238707Y-44707597D01*
G37*
G36*
X151698707Y-44707597D02*
G01*
X151775836Y-44715193D01*
X151973762Y-44775233D01*
X151973765Y-44775234D01*
X152156170Y-44872732D01*
X152316055Y-45003945D01*
X152447268Y-45163830D01*
X152544766Y-45346235D01*
X152544767Y-45346238D01*
X152604807Y-45544164D01*
X152625080Y-45750000D01*
X152604807Y-45955836D01*
X152544767Y-46153762D01*
X152544766Y-46153765D01*
X152447268Y-46336170D01*
X152316055Y-46496055D01*
X152156170Y-46627268D01*
X151973765Y-46724766D01*
X151973762Y-46724767D01*
X151775836Y-46784807D01*
X151698707Y-46792403D01*
X151621580Y-46800000D01*
X151518420Y-46800000D01*
X151441293Y-46792404D01*
X151364164Y-46784807D01*
X151166238Y-46724767D01*
X151166235Y-46724766D01*
X150983830Y-46627268D01*
X150823945Y-46496055D01*
X150692732Y-46336170D01*
X150595234Y-46153765D01*
X150595233Y-46153762D01*
X150535193Y-45955836D01*
X150514920Y-45750000D01*
X150535193Y-45544164D01*
X150595233Y-45346238D01*
X150595234Y-45346235D01*
X150692732Y-45163830D01*
X150823945Y-45003945D01*
X150983830Y-44872732D01*
X151166235Y-44775234D01*
X151166238Y-44775233D01*
X151364164Y-44715193D01*
X151441293Y-44707597D01*
X151518420Y-44700000D01*
X151621580Y-44700000D01*
X151698707Y-44707597D01*
X151698707Y-44707597D01*
G37*
G36*
X149158707Y-44707597D02*
G01*
X149235836Y-44715193D01*
X149433762Y-44775233D01*
X149433765Y-44775234D01*
X149616170Y-44872732D01*
X149776055Y-45003945D01*
X149907268Y-45163830D01*
X150004766Y-45346235D01*
X150004767Y-45346238D01*
X150064807Y-45544164D01*
X150085080Y-45750000D01*
X150064807Y-45955836D01*
X150004767Y-46153762D01*
X150004766Y-46153765D01*
X149907268Y-46336170D01*
X149776055Y-46496055D01*
X149616170Y-46627268D01*
X149433765Y-46724766D01*
X149433762Y-46724767D01*
X149235836Y-46784807D01*
X149158707Y-46792403D01*
X149081580Y-46800000D01*
X148978420Y-46800000D01*
X148901293Y-46792404D01*
X148824164Y-46784807D01*
X148626238Y-46724767D01*
X148626235Y-46724766D01*
X148443830Y-46627268D01*
X148283945Y-46496055D01*
X148152732Y-46336170D01*
X148055234Y-46153765D01*
X148055233Y-46153762D01*
X147995193Y-45955836D01*
X147974920Y-45750000D01*
X147995193Y-45544164D01*
X148055233Y-45346238D01*
X148055234Y-45346235D01*
X148152732Y-45163830D01*
X148283945Y-45003945D01*
X148443830Y-44872732D01*
X148626235Y-44775234D01*
X148626238Y-44775233D01*
X148824164Y-44715193D01*
X148901293Y-44707597D01*
X148978420Y-44700000D01*
X149081580Y-44700000D01*
X149158707Y-44707597D01*
X149158707Y-44707597D01*
G37*
G36*
X146618707Y-44707597D02*
G01*
X146695836Y-44715193D01*
X146893762Y-44775233D01*
X146893765Y-44775234D01*
X147076170Y-44872732D01*
X147236055Y-45003945D01*
X147367268Y-45163830D01*
X147464766Y-45346235D01*
X147464767Y-45346238D01*
X147524807Y-45544164D01*
X147545080Y-45750000D01*
X147524807Y-45955836D01*
X147464767Y-46153762D01*
X147464766Y-46153765D01*
X147367268Y-46336170D01*
X147236055Y-46496055D01*
X147076170Y-46627268D01*
X146893765Y-46724766D01*
X146893762Y-46724767D01*
X146695836Y-46784807D01*
X146618707Y-46792403D01*
X146541580Y-46800000D01*
X146438420Y-46800000D01*
X146361293Y-46792404D01*
X146284164Y-46784807D01*
X146086238Y-46724767D01*
X146086235Y-46724766D01*
X145903830Y-46627268D01*
X145743945Y-46496055D01*
X145612732Y-46336170D01*
X145515234Y-46153765D01*
X145515233Y-46153762D01*
X145455193Y-45955836D01*
X145434920Y-45750000D01*
X145455193Y-45544164D01*
X145515233Y-45346238D01*
X145515234Y-45346235D01*
X145612732Y-45163830D01*
X145743945Y-45003945D01*
X145903830Y-44872732D01*
X146086235Y-44775234D01*
X146086238Y-44775233D01*
X146284164Y-44715193D01*
X146361293Y-44707597D01*
X146438420Y-44700000D01*
X146541580Y-44700000D01*
X146618707Y-44707597D01*
X146618707Y-44707597D01*
G37*
G36*
X111058707Y-44707597D02*
G01*
X111135836Y-44715193D01*
X111333762Y-44775233D01*
X111333765Y-44775234D01*
X111516170Y-44872732D01*
X111676055Y-45003945D01*
X111807268Y-45163830D01*
X111904766Y-45346235D01*
X111904767Y-45346238D01*
X111964807Y-45544164D01*
X111985080Y-45750000D01*
X111964807Y-45955836D01*
X111904767Y-46153762D01*
X111904766Y-46153765D01*
X111807268Y-46336170D01*
X111676055Y-46496055D01*
X111516170Y-46627268D01*
X111333765Y-46724766D01*
X111333762Y-46724767D01*
X111135836Y-46784807D01*
X111058707Y-46792403D01*
X110981580Y-46800000D01*
X110878420Y-46800000D01*
X110801293Y-46792404D01*
X110724164Y-46784807D01*
X110526238Y-46724767D01*
X110526235Y-46724766D01*
X110343830Y-46627268D01*
X110183945Y-46496055D01*
X110052732Y-46336170D01*
X109955234Y-46153765D01*
X109955233Y-46153762D01*
X109895193Y-45955836D01*
X109874920Y-45750000D01*
X109895193Y-45544164D01*
X109955233Y-45346238D01*
X109955234Y-45346235D01*
X110052732Y-45163830D01*
X110183945Y-45003945D01*
X110343830Y-44872732D01*
X110526235Y-44775234D01*
X110526238Y-44775233D01*
X110724164Y-44715193D01*
X110801293Y-44707597D01*
X110878420Y-44700000D01*
X110981580Y-44700000D01*
X111058707Y-44707597D01*
X111058707Y-44707597D01*
G37*
G36*
X141538707Y-44707597D02*
G01*
X141615836Y-44715193D01*
X141813762Y-44775233D01*
X141813765Y-44775234D01*
X141996170Y-44872732D01*
X142156055Y-45003945D01*
X142287268Y-45163830D01*
X142384766Y-45346235D01*
X142384767Y-45346238D01*
X142444807Y-45544164D01*
X142465080Y-45750000D01*
X142444807Y-45955836D01*
X142384767Y-46153762D01*
X142384766Y-46153765D01*
X142287268Y-46336170D01*
X142156055Y-46496055D01*
X141996170Y-46627268D01*
X141813765Y-46724766D01*
X141813762Y-46724767D01*
X141615836Y-46784807D01*
X141538707Y-46792403D01*
X141461580Y-46800000D01*
X141358420Y-46800000D01*
X141281293Y-46792404D01*
X141204164Y-46784807D01*
X141006238Y-46724767D01*
X141006235Y-46724766D01*
X140823830Y-46627268D01*
X140663945Y-46496055D01*
X140532732Y-46336170D01*
X140435234Y-46153765D01*
X140435233Y-46153762D01*
X140375193Y-45955836D01*
X140354920Y-45750000D01*
X140375193Y-45544164D01*
X140435233Y-45346238D01*
X140435234Y-45346235D01*
X140532732Y-45163830D01*
X140663945Y-45003945D01*
X140823830Y-44872732D01*
X141006235Y-44775234D01*
X141006238Y-44775233D01*
X141204164Y-44715193D01*
X141281293Y-44707597D01*
X141358420Y-44700000D01*
X141461580Y-44700000D01*
X141538707Y-44707597D01*
X141538707Y-44707597D01*
G37*
G36*
X138998707Y-44707597D02*
G01*
X139075836Y-44715193D01*
X139273762Y-44775233D01*
X139273765Y-44775234D01*
X139456170Y-44872732D01*
X139616055Y-45003945D01*
X139747268Y-45163830D01*
X139844766Y-45346235D01*
X139844767Y-45346238D01*
X139904807Y-45544164D01*
X139925080Y-45750000D01*
X139904807Y-45955836D01*
X139844767Y-46153762D01*
X139844766Y-46153765D01*
X139747268Y-46336170D01*
X139616055Y-46496055D01*
X139456170Y-46627268D01*
X139273765Y-46724766D01*
X139273762Y-46724767D01*
X139075836Y-46784807D01*
X138998707Y-46792403D01*
X138921580Y-46800000D01*
X138818420Y-46800000D01*
X138741293Y-46792404D01*
X138664164Y-46784807D01*
X138466238Y-46724767D01*
X138466235Y-46724766D01*
X138283830Y-46627268D01*
X138123945Y-46496055D01*
X137992732Y-46336170D01*
X137895234Y-46153765D01*
X137895233Y-46153762D01*
X137835193Y-45955836D01*
X137814920Y-45750000D01*
X137835193Y-45544164D01*
X137895233Y-45346238D01*
X137895234Y-45346235D01*
X137992732Y-45163830D01*
X138123945Y-45003945D01*
X138283830Y-44872732D01*
X138466235Y-44775234D01*
X138466238Y-44775233D01*
X138664164Y-44715193D01*
X138741293Y-44707597D01*
X138818420Y-44700000D01*
X138921580Y-44700000D01*
X138998707Y-44707597D01*
X138998707Y-44707597D01*
G37*
G36*
X118678707Y-44707597D02*
G01*
X118755836Y-44715193D01*
X118953762Y-44775233D01*
X118953765Y-44775234D01*
X119136170Y-44872732D01*
X119296055Y-45003945D01*
X119427268Y-45163830D01*
X119524766Y-45346235D01*
X119524767Y-45346238D01*
X119584807Y-45544164D01*
X119605080Y-45750000D01*
X119584807Y-45955836D01*
X119524767Y-46153762D01*
X119524766Y-46153765D01*
X119427268Y-46336170D01*
X119296055Y-46496055D01*
X119136170Y-46627268D01*
X118953765Y-46724766D01*
X118953762Y-46724767D01*
X118755836Y-46784807D01*
X118678707Y-46792403D01*
X118601580Y-46800000D01*
X118498420Y-46800000D01*
X118421293Y-46792404D01*
X118344164Y-46784807D01*
X118146238Y-46724767D01*
X118146235Y-46724766D01*
X117963830Y-46627268D01*
X117803945Y-46496055D01*
X117672732Y-46336170D01*
X117575234Y-46153765D01*
X117575233Y-46153762D01*
X117515193Y-45955836D01*
X117494920Y-45750000D01*
X117515193Y-45544164D01*
X117575233Y-45346238D01*
X117575234Y-45346235D01*
X117672732Y-45163830D01*
X117803945Y-45003945D01*
X117963830Y-44872732D01*
X118146235Y-44775234D01*
X118146238Y-44775233D01*
X118344164Y-44715193D01*
X118421293Y-44707597D01*
X118498420Y-44700000D01*
X118601580Y-44700000D01*
X118678707Y-44707597D01*
X118678707Y-44707597D01*
G37*
G36*
X121218707Y-44707597D02*
G01*
X121295836Y-44715193D01*
X121493762Y-44775233D01*
X121493765Y-44775234D01*
X121676170Y-44872732D01*
X121836055Y-45003945D01*
X121967268Y-45163830D01*
X122064766Y-45346235D01*
X122064767Y-45346238D01*
X122124807Y-45544164D01*
X122145080Y-45750000D01*
X122124807Y-45955836D01*
X122064767Y-46153762D01*
X122064766Y-46153765D01*
X121967268Y-46336170D01*
X121836055Y-46496055D01*
X121676170Y-46627268D01*
X121493765Y-46724766D01*
X121493762Y-46724767D01*
X121295836Y-46784807D01*
X121218707Y-46792403D01*
X121141580Y-46800000D01*
X121038420Y-46800000D01*
X120961293Y-46792404D01*
X120884164Y-46784807D01*
X120686238Y-46724767D01*
X120686235Y-46724766D01*
X120503830Y-46627268D01*
X120343945Y-46496055D01*
X120212732Y-46336170D01*
X120115234Y-46153765D01*
X120115233Y-46153762D01*
X120055193Y-45955836D01*
X120034920Y-45750000D01*
X120055193Y-45544164D01*
X120115233Y-45346238D01*
X120115234Y-45346235D01*
X120212732Y-45163830D01*
X120343945Y-45003945D01*
X120503830Y-44872732D01*
X120686235Y-44775234D01*
X120686238Y-44775233D01*
X120884164Y-44715193D01*
X120961293Y-44707597D01*
X121038420Y-44700000D01*
X121141580Y-44700000D01*
X121218707Y-44707597D01*
X121218707Y-44707597D01*
G37*
G36*
X123758707Y-44707597D02*
G01*
X123835836Y-44715193D01*
X124033762Y-44775233D01*
X124033765Y-44775234D01*
X124216170Y-44872732D01*
X124376055Y-45003945D01*
X124507268Y-45163830D01*
X124604766Y-45346235D01*
X124604767Y-45346238D01*
X124664807Y-45544164D01*
X124685080Y-45750000D01*
X124664807Y-45955836D01*
X124604767Y-46153762D01*
X124604766Y-46153765D01*
X124507268Y-46336170D01*
X124376055Y-46496055D01*
X124216170Y-46627268D01*
X124033765Y-46724766D01*
X124033762Y-46724767D01*
X123835836Y-46784807D01*
X123758707Y-46792403D01*
X123681580Y-46800000D01*
X123578420Y-46800000D01*
X123501293Y-46792404D01*
X123424164Y-46784807D01*
X123226238Y-46724767D01*
X123226235Y-46724766D01*
X123043830Y-46627268D01*
X122883945Y-46496055D01*
X122752732Y-46336170D01*
X122655234Y-46153765D01*
X122655233Y-46153762D01*
X122595193Y-45955836D01*
X122574920Y-45750000D01*
X122595193Y-45544164D01*
X122655233Y-45346238D01*
X122655234Y-45346235D01*
X122752732Y-45163830D01*
X122883945Y-45003945D01*
X123043830Y-44872732D01*
X123226235Y-44775234D01*
X123226238Y-44775233D01*
X123424164Y-44715193D01*
X123501293Y-44707597D01*
X123578420Y-44700000D01*
X123681580Y-44700000D01*
X123758707Y-44707597D01*
X123758707Y-44707597D01*
G37*
G36*
X144078707Y-44707597D02*
G01*
X144155836Y-44715193D01*
X144353762Y-44775233D01*
X144353765Y-44775234D01*
X144536170Y-44872732D01*
X144696055Y-45003945D01*
X144827268Y-45163830D01*
X144924766Y-45346235D01*
X144924767Y-45346238D01*
X144984807Y-45544164D01*
X145005080Y-45750000D01*
X144984807Y-45955836D01*
X144924767Y-46153762D01*
X144924766Y-46153765D01*
X144827268Y-46336170D01*
X144696055Y-46496055D01*
X144536170Y-46627268D01*
X144353765Y-46724766D01*
X144353762Y-46724767D01*
X144155836Y-46784807D01*
X144078707Y-46792403D01*
X144001580Y-46800000D01*
X143898420Y-46800000D01*
X143821293Y-46792404D01*
X143744164Y-46784807D01*
X143546238Y-46724767D01*
X143546235Y-46724766D01*
X143363830Y-46627268D01*
X143203945Y-46496055D01*
X143072732Y-46336170D01*
X142975234Y-46153765D01*
X142975233Y-46153762D01*
X142915193Y-45955836D01*
X142894920Y-45750000D01*
X142915193Y-45544164D01*
X142975233Y-45346238D01*
X142975234Y-45346235D01*
X143072732Y-45163830D01*
X143203945Y-45003945D01*
X143363830Y-44872732D01*
X143546235Y-44775234D01*
X143546238Y-44775233D01*
X143744164Y-44715193D01*
X143821293Y-44707597D01*
X143898420Y-44700000D01*
X144001580Y-44700000D01*
X144078707Y-44707597D01*
X144078707Y-44707597D01*
G37*
G36*
X128838707Y-44707597D02*
G01*
X128915836Y-44715193D01*
X129113762Y-44775233D01*
X129113765Y-44775234D01*
X129296170Y-44872732D01*
X129456055Y-45003945D01*
X129587268Y-45163830D01*
X129684766Y-45346235D01*
X129684767Y-45346238D01*
X129744807Y-45544164D01*
X129765080Y-45750000D01*
X129744807Y-45955836D01*
X129684767Y-46153762D01*
X129684766Y-46153765D01*
X129587268Y-46336170D01*
X129456055Y-46496055D01*
X129296170Y-46627268D01*
X129113765Y-46724766D01*
X129113762Y-46724767D01*
X128915836Y-46784807D01*
X128838707Y-46792403D01*
X128761580Y-46800000D01*
X128658420Y-46800000D01*
X128581293Y-46792404D01*
X128504164Y-46784807D01*
X128306238Y-46724767D01*
X128306235Y-46724766D01*
X128123830Y-46627268D01*
X127963945Y-46496055D01*
X127832732Y-46336170D01*
X127735234Y-46153765D01*
X127735233Y-46153762D01*
X127675193Y-45955836D01*
X127654920Y-45750000D01*
X127675193Y-45544164D01*
X127735233Y-45346238D01*
X127735234Y-45346235D01*
X127832732Y-45163830D01*
X127963945Y-45003945D01*
X128123830Y-44872732D01*
X128306235Y-44775234D01*
X128306238Y-44775233D01*
X128504164Y-44715193D01*
X128581293Y-44707597D01*
X128658420Y-44700000D01*
X128761580Y-44700000D01*
X128838707Y-44707597D01*
X128838707Y-44707597D01*
G37*
G36*
X131378707Y-44707597D02*
G01*
X131455836Y-44715193D01*
X131653762Y-44775233D01*
X131653765Y-44775234D01*
X131836170Y-44872732D01*
X131996055Y-45003945D01*
X132127268Y-45163830D01*
X132224766Y-45346235D01*
X132224767Y-45346238D01*
X132284807Y-45544164D01*
X132305080Y-45750000D01*
X132284807Y-45955836D01*
X132224767Y-46153762D01*
X132224766Y-46153765D01*
X132127268Y-46336170D01*
X131996055Y-46496055D01*
X131836170Y-46627268D01*
X131653765Y-46724766D01*
X131653762Y-46724767D01*
X131455836Y-46784807D01*
X131378707Y-46792403D01*
X131301580Y-46800000D01*
X131198420Y-46800000D01*
X131121293Y-46792404D01*
X131044164Y-46784807D01*
X130846238Y-46724767D01*
X130846235Y-46724766D01*
X130663830Y-46627268D01*
X130503945Y-46496055D01*
X130372732Y-46336170D01*
X130275234Y-46153765D01*
X130275233Y-46153762D01*
X130215193Y-45955836D01*
X130194920Y-45750000D01*
X130215193Y-45544164D01*
X130275233Y-45346238D01*
X130275234Y-45346235D01*
X130372732Y-45163830D01*
X130503945Y-45003945D01*
X130663830Y-44872732D01*
X130846235Y-44775234D01*
X130846238Y-44775233D01*
X131044164Y-44715193D01*
X131121293Y-44707597D01*
X131198420Y-44700000D01*
X131301580Y-44700000D01*
X131378707Y-44707597D01*
X131378707Y-44707597D01*
G37*
G36*
X133918707Y-44707597D02*
G01*
X133995836Y-44715193D01*
X134193762Y-44775233D01*
X134193765Y-44775234D01*
X134376170Y-44872732D01*
X134536055Y-45003945D01*
X134667268Y-45163830D01*
X134764766Y-45346235D01*
X134764767Y-45346238D01*
X134824807Y-45544164D01*
X134845080Y-45750000D01*
X134824807Y-45955836D01*
X134764767Y-46153762D01*
X134764766Y-46153765D01*
X134667268Y-46336170D01*
X134536055Y-46496055D01*
X134376170Y-46627268D01*
X134193765Y-46724766D01*
X134193762Y-46724767D01*
X133995836Y-46784807D01*
X133918707Y-46792403D01*
X133841580Y-46800000D01*
X133738420Y-46800000D01*
X133661293Y-46792404D01*
X133584164Y-46784807D01*
X133386238Y-46724767D01*
X133386235Y-46724766D01*
X133203830Y-46627268D01*
X133043945Y-46496055D01*
X132912732Y-46336170D01*
X132815234Y-46153765D01*
X132815233Y-46153762D01*
X132755193Y-45955836D01*
X132734920Y-45750000D01*
X132755193Y-45544164D01*
X132815233Y-45346238D01*
X132815234Y-45346235D01*
X132912732Y-45163830D01*
X133043945Y-45003945D01*
X133203830Y-44872732D01*
X133386235Y-44775234D01*
X133386238Y-44775233D01*
X133584164Y-44715193D01*
X133661293Y-44707597D01*
X133738420Y-44700000D01*
X133841580Y-44700000D01*
X133918707Y-44707597D01*
X133918707Y-44707597D01*
G37*
G36*
X136458707Y-44707597D02*
G01*
X136535836Y-44715193D01*
X136733762Y-44775233D01*
X136733765Y-44775234D01*
X136916170Y-44872732D01*
X137076055Y-45003945D01*
X137207268Y-45163830D01*
X137304766Y-45346235D01*
X137304767Y-45346238D01*
X137364807Y-45544164D01*
X137385080Y-45750000D01*
X137364807Y-45955836D01*
X137304767Y-46153762D01*
X137304766Y-46153765D01*
X137207268Y-46336170D01*
X137076055Y-46496055D01*
X136916170Y-46627268D01*
X136733765Y-46724766D01*
X136733762Y-46724767D01*
X136535836Y-46784807D01*
X136458707Y-46792403D01*
X136381580Y-46800000D01*
X136278420Y-46800000D01*
X136201293Y-46792404D01*
X136124164Y-46784807D01*
X135926238Y-46724767D01*
X135926235Y-46724766D01*
X135743830Y-46627268D01*
X135583945Y-46496055D01*
X135452732Y-46336170D01*
X135355234Y-46153765D01*
X135355233Y-46153762D01*
X135295193Y-45955836D01*
X135274920Y-45750000D01*
X135295193Y-45544164D01*
X135355233Y-45346238D01*
X135355234Y-45346235D01*
X135452732Y-45163830D01*
X135583945Y-45003945D01*
X135743830Y-44872732D01*
X135926235Y-44775234D01*
X135926238Y-44775233D01*
X136124164Y-44715193D01*
X136201293Y-44707597D01*
X136278420Y-44700000D01*
X136381580Y-44700000D01*
X136458707Y-44707597D01*
X136458707Y-44707597D01*
G37*
G36*
X126298707Y-44707597D02*
G01*
X126375836Y-44715193D01*
X126573762Y-44775233D01*
X126573765Y-44775234D01*
X126756170Y-44872732D01*
X126916055Y-45003945D01*
X127047268Y-45163830D01*
X127144766Y-45346235D01*
X127144767Y-45346238D01*
X127204807Y-45544164D01*
X127225080Y-45750000D01*
X127204807Y-45955836D01*
X127144767Y-46153762D01*
X127144766Y-46153765D01*
X127047268Y-46336170D01*
X126916055Y-46496055D01*
X126756170Y-46627268D01*
X126573765Y-46724766D01*
X126573762Y-46724767D01*
X126375836Y-46784807D01*
X126298707Y-46792403D01*
X126221580Y-46800000D01*
X126118420Y-46800000D01*
X126041293Y-46792404D01*
X125964164Y-46784807D01*
X125766238Y-46724767D01*
X125766235Y-46724766D01*
X125583830Y-46627268D01*
X125423945Y-46496055D01*
X125292732Y-46336170D01*
X125195234Y-46153765D01*
X125195233Y-46153762D01*
X125135193Y-45955836D01*
X125114920Y-45750000D01*
X125135193Y-45544164D01*
X125195233Y-45346238D01*
X125195234Y-45346235D01*
X125292732Y-45163830D01*
X125423945Y-45003945D01*
X125583830Y-44872732D01*
X125766235Y-44775234D01*
X125766238Y-44775233D01*
X125964164Y-44715193D01*
X126041293Y-44707597D01*
X126118420Y-44700000D01*
X126221580Y-44700000D01*
X126298707Y-44707597D01*
X126298707Y-44707597D01*
G37*
M02*
