G04 #@! TF.GenerationSoftware,KiCad,Pcbnew,(5.1.4)-1*
G04 #@! TF.CreationDate,2019-12-08T02:24:49+11:00*
G04 #@! TF.ProjectId,dingo-hat,64696e67-6f2d-4686-9174-2e6b69636164,rev?*
G04 #@! TF.SameCoordinates,Original*
G04 #@! TF.FileFunction,Soldermask,Bot*
G04 #@! TF.FilePolarity,Negative*
%FSLAX46Y46*%
G04 Gerber Fmt 4.6, Leading zero omitted, Abs format (unit mm)*
G04 Created by KiCad (PCBNEW (5.1.4)-1) date 2019-12-08 02:24:49*
%MOMM*%
%LPD*%
G04 APERTURE LIST*
%ADD10C,0.010000*%
%ADD11C,0.100000*%
G04 APERTURE END LIST*
D10*
G36*
X106616464Y-54959257D02*
G01*
X106599021Y-54973693D01*
X106573661Y-54997627D01*
X106541967Y-55029407D01*
X106505521Y-55067381D01*
X106465905Y-55109895D01*
X106424702Y-55155296D01*
X106383495Y-55201933D01*
X106343865Y-55248152D01*
X106338221Y-55254867D01*
X106159488Y-55481144D01*
X105995073Y-55716208D01*
X105845227Y-55959499D01*
X105710200Y-56210456D01*
X105590244Y-56468520D01*
X105485610Y-56733130D01*
X105396547Y-57003726D01*
X105323307Y-57279750D01*
X105266141Y-57560639D01*
X105244416Y-57697500D01*
X105231982Y-57786971D01*
X105221922Y-57867916D01*
X105214007Y-57943841D01*
X105208008Y-58018249D01*
X105203697Y-58094646D01*
X105200845Y-58176535D01*
X105199224Y-58267420D01*
X105198606Y-58370806D01*
X105198581Y-58400233D01*
X105199654Y-58541933D01*
X105203127Y-58670726D01*
X105209382Y-58790517D01*
X105218799Y-58905213D01*
X105231759Y-59018719D01*
X105248643Y-59134941D01*
X105269831Y-59257783D01*
X105294785Y-59386600D01*
X105357986Y-59657421D01*
X105437310Y-59925188D01*
X105532180Y-60188658D01*
X105642015Y-60446589D01*
X105766235Y-60697739D01*
X105904262Y-60940864D01*
X106055515Y-61174722D01*
X106219415Y-61398071D01*
X106252378Y-61439767D01*
X106440692Y-61661820D01*
X106639767Y-61870900D01*
X106849188Y-62066755D01*
X107068541Y-62249133D01*
X107297411Y-62417784D01*
X107535384Y-62572455D01*
X107782045Y-62712896D01*
X108036979Y-62838854D01*
X108299773Y-62950077D01*
X108570010Y-63046315D01*
X108847277Y-63127316D01*
X109131159Y-63192829D01*
X109147067Y-63195999D01*
X109231665Y-63211380D01*
X109325779Y-63226161D01*
X109425917Y-63239961D01*
X109528590Y-63252398D01*
X109630305Y-63263091D01*
X109727571Y-63271657D01*
X109816897Y-63277715D01*
X109894793Y-63280883D01*
X109926726Y-63281265D01*
X109999418Y-63281267D01*
X110076926Y-63471767D01*
X110194080Y-63472427D01*
X110241732Y-63472465D01*
X110287748Y-63472093D01*
X110327236Y-63471378D01*
X110355303Y-63470384D01*
X110357800Y-63470241D01*
X110652229Y-63443987D01*
X110943216Y-63401541D01*
X111230083Y-63343118D01*
X111512150Y-63268932D01*
X111788740Y-63179199D01*
X112059173Y-63074134D01*
X112322771Y-62953950D01*
X112578856Y-62818863D01*
X112765422Y-62707997D01*
X113007932Y-62546846D01*
X113239036Y-62373551D01*
X113458455Y-62188717D01*
X113665907Y-61992951D01*
X113861114Y-61786858D01*
X114043796Y-61571043D01*
X114213671Y-61346111D01*
X114370461Y-61112668D01*
X114513884Y-60871319D01*
X114643662Y-60622671D01*
X114759514Y-60367327D01*
X114861160Y-60105894D01*
X114948320Y-59838978D01*
X115020715Y-59567183D01*
X115078063Y-59291115D01*
X115120085Y-59011379D01*
X115146501Y-58728581D01*
X115157031Y-58443327D01*
X115151396Y-58156221D01*
X115129314Y-57867870D01*
X115102387Y-57655167D01*
X115052893Y-57376248D01*
X114987433Y-57098959D01*
X114906633Y-56825336D01*
X114811120Y-56557416D01*
X114701519Y-56297234D01*
X114653541Y-56195094D01*
X114630117Y-56147364D01*
X114604358Y-56095960D01*
X114577549Y-56043334D01*
X114550975Y-55991939D01*
X114525919Y-55944227D01*
X114503667Y-55902652D01*
X114485504Y-55869666D01*
X114472713Y-55847722D01*
X114467734Y-55840350D01*
X114459983Y-55843078D01*
X114441433Y-55852664D01*
X114415657Y-55867011D01*
X114386226Y-55884018D01*
X114356712Y-55901587D01*
X114330685Y-55917619D01*
X114311719Y-55930015D01*
X114303384Y-55936676D01*
X114303267Y-55937004D01*
X114307181Y-55945741D01*
X114317688Y-55965699D01*
X114332941Y-55993418D01*
X114342707Y-56010761D01*
X114370588Y-56061786D01*
X114403196Y-56124543D01*
X114438658Y-56195168D01*
X114475105Y-56269798D01*
X114510662Y-56344569D01*
X114543460Y-56415618D01*
X114571625Y-56479081D01*
X114585628Y-56512167D01*
X114686898Y-56778001D01*
X114772200Y-57046510D01*
X114841818Y-57318918D01*
X114896032Y-57596448D01*
X114935126Y-57880323D01*
X114955959Y-58116600D01*
X114961689Y-58240761D01*
X114963391Y-58376879D01*
X114961246Y-58520507D01*
X114955433Y-58667199D01*
X114946133Y-58812511D01*
X114933527Y-58951995D01*
X114917793Y-59081207D01*
X114916505Y-59090267D01*
X114868425Y-59366019D01*
X114803915Y-59639808D01*
X114723461Y-59910451D01*
X114627549Y-60176766D01*
X114516665Y-60437569D01*
X114391295Y-60691679D01*
X114251924Y-60937912D01*
X114099038Y-61175085D01*
X114007114Y-61304300D01*
X113841684Y-61515689D01*
X113662964Y-61719350D01*
X113472588Y-61913769D01*
X113272191Y-62097431D01*
X113063406Y-62268820D01*
X112847868Y-62426421D01*
X112674968Y-62539513D01*
X112429052Y-62683301D01*
X112180472Y-62810849D01*
X111927691Y-62922812D01*
X111669171Y-63019847D01*
X111403375Y-63102608D01*
X111272494Y-63137523D01*
X111104789Y-63176302D01*
X110931180Y-63209632D01*
X110755254Y-63237069D01*
X110580603Y-63258165D01*
X110410814Y-63272474D01*
X110249477Y-63279550D01*
X110129200Y-63279709D01*
X109997967Y-63277034D01*
X109920905Y-63086534D01*
X109898239Y-63030532D01*
X109870710Y-62962563D01*
X109839825Y-62886346D01*
X109807093Y-62805603D01*
X109774022Y-62724053D01*
X109742120Y-62645418D01*
X109728720Y-62612400D01*
X109699735Y-62540963D01*
X109665054Y-62455449D01*
X109625334Y-62357474D01*
X109581230Y-62248660D01*
X109533397Y-62130624D01*
X109482492Y-62004985D01*
X109429170Y-61873363D01*
X109374086Y-61737377D01*
X109317897Y-61598645D01*
X109261257Y-61458787D01*
X109204824Y-61319421D01*
X109149251Y-61182166D01*
X109095195Y-61048642D01*
X109043312Y-60920467D01*
X108994256Y-60799261D01*
X108948685Y-60686641D01*
X108907253Y-60584228D01*
X108870616Y-60493640D01*
X108840657Y-60419534D01*
X108804552Y-60330234D01*
X108765710Y-60234225D01*
X108725563Y-60135045D01*
X108685544Y-60036233D01*
X108647087Y-59941325D01*
X108611625Y-59853862D01*
X108580591Y-59777381D01*
X108571462Y-59754900D01*
X108547714Y-59696405D01*
X108518001Y-59623176D01*
X108482713Y-59536175D01*
X108442240Y-59436363D01*
X108396971Y-59324702D01*
X108347297Y-59202155D01*
X108293606Y-59069682D01*
X108236288Y-58928246D01*
X108175732Y-58778809D01*
X108112329Y-58622332D01*
X108046468Y-58459778D01*
X107978538Y-58292107D01*
X107908929Y-58120282D01*
X107838031Y-57945265D01*
X107766233Y-57768018D01*
X107693925Y-57589502D01*
X107621496Y-57410679D01*
X107549336Y-57232511D01*
X107477834Y-57055960D01*
X107407381Y-56881988D01*
X107338365Y-56711556D01*
X107271176Y-56545627D01*
X107206205Y-56385162D01*
X107143840Y-56231122D01*
X107084470Y-56084471D01*
X107028487Y-55946169D01*
X106976278Y-55817178D01*
X106928234Y-55698461D01*
X106884745Y-55590979D01*
X106846199Y-55495693D01*
X106812987Y-55413567D01*
X106793328Y-55364933D01*
X106761694Y-55286835D01*
X106731847Y-55213477D01*
X106704408Y-55146364D01*
X106679998Y-55086997D01*
X106659238Y-55036881D01*
X106642748Y-54997518D01*
X106631149Y-54970412D01*
X106625063Y-54957065D01*
X106624407Y-54955972D01*
X106616464Y-54959257D01*
X106616464Y-54959257D01*
G37*
X106616464Y-54959257D02*
X106599021Y-54973693D01*
X106573661Y-54997627D01*
X106541967Y-55029407D01*
X106505521Y-55067381D01*
X106465905Y-55109895D01*
X106424702Y-55155296D01*
X106383495Y-55201933D01*
X106343865Y-55248152D01*
X106338221Y-55254867D01*
X106159488Y-55481144D01*
X105995073Y-55716208D01*
X105845227Y-55959499D01*
X105710200Y-56210456D01*
X105590244Y-56468520D01*
X105485610Y-56733130D01*
X105396547Y-57003726D01*
X105323307Y-57279750D01*
X105266141Y-57560639D01*
X105244416Y-57697500D01*
X105231982Y-57786971D01*
X105221922Y-57867916D01*
X105214007Y-57943841D01*
X105208008Y-58018249D01*
X105203697Y-58094646D01*
X105200845Y-58176535D01*
X105199224Y-58267420D01*
X105198606Y-58370806D01*
X105198581Y-58400233D01*
X105199654Y-58541933D01*
X105203127Y-58670726D01*
X105209382Y-58790517D01*
X105218799Y-58905213D01*
X105231759Y-59018719D01*
X105248643Y-59134941D01*
X105269831Y-59257783D01*
X105294785Y-59386600D01*
X105357986Y-59657421D01*
X105437310Y-59925188D01*
X105532180Y-60188658D01*
X105642015Y-60446589D01*
X105766235Y-60697739D01*
X105904262Y-60940864D01*
X106055515Y-61174722D01*
X106219415Y-61398071D01*
X106252378Y-61439767D01*
X106440692Y-61661820D01*
X106639767Y-61870900D01*
X106849188Y-62066755D01*
X107068541Y-62249133D01*
X107297411Y-62417784D01*
X107535384Y-62572455D01*
X107782045Y-62712896D01*
X108036979Y-62838854D01*
X108299773Y-62950077D01*
X108570010Y-63046315D01*
X108847277Y-63127316D01*
X109131159Y-63192829D01*
X109147067Y-63195999D01*
X109231665Y-63211380D01*
X109325779Y-63226161D01*
X109425917Y-63239961D01*
X109528590Y-63252398D01*
X109630305Y-63263091D01*
X109727571Y-63271657D01*
X109816897Y-63277715D01*
X109894793Y-63280883D01*
X109926726Y-63281265D01*
X109999418Y-63281267D01*
X110076926Y-63471767D01*
X110194080Y-63472427D01*
X110241732Y-63472465D01*
X110287748Y-63472093D01*
X110327236Y-63471378D01*
X110355303Y-63470384D01*
X110357800Y-63470241D01*
X110652229Y-63443987D01*
X110943216Y-63401541D01*
X111230083Y-63343118D01*
X111512150Y-63268932D01*
X111788740Y-63179199D01*
X112059173Y-63074134D01*
X112322771Y-62953950D01*
X112578856Y-62818863D01*
X112765422Y-62707997D01*
X113007932Y-62546846D01*
X113239036Y-62373551D01*
X113458455Y-62188717D01*
X113665907Y-61992951D01*
X113861114Y-61786858D01*
X114043796Y-61571043D01*
X114213671Y-61346111D01*
X114370461Y-61112668D01*
X114513884Y-60871319D01*
X114643662Y-60622671D01*
X114759514Y-60367327D01*
X114861160Y-60105894D01*
X114948320Y-59838978D01*
X115020715Y-59567183D01*
X115078063Y-59291115D01*
X115120085Y-59011379D01*
X115146501Y-58728581D01*
X115157031Y-58443327D01*
X115151396Y-58156221D01*
X115129314Y-57867870D01*
X115102387Y-57655167D01*
X115052893Y-57376248D01*
X114987433Y-57098959D01*
X114906633Y-56825336D01*
X114811120Y-56557416D01*
X114701519Y-56297234D01*
X114653541Y-56195094D01*
X114630117Y-56147364D01*
X114604358Y-56095960D01*
X114577549Y-56043334D01*
X114550975Y-55991939D01*
X114525919Y-55944227D01*
X114503667Y-55902652D01*
X114485504Y-55869666D01*
X114472713Y-55847722D01*
X114467734Y-55840350D01*
X114459983Y-55843078D01*
X114441433Y-55852664D01*
X114415657Y-55867011D01*
X114386226Y-55884018D01*
X114356712Y-55901587D01*
X114330685Y-55917619D01*
X114311719Y-55930015D01*
X114303384Y-55936676D01*
X114303267Y-55937004D01*
X114307181Y-55945741D01*
X114317688Y-55965699D01*
X114332941Y-55993418D01*
X114342707Y-56010761D01*
X114370588Y-56061786D01*
X114403196Y-56124543D01*
X114438658Y-56195168D01*
X114475105Y-56269798D01*
X114510662Y-56344569D01*
X114543460Y-56415618D01*
X114571625Y-56479081D01*
X114585628Y-56512167D01*
X114686898Y-56778001D01*
X114772200Y-57046510D01*
X114841818Y-57318918D01*
X114896032Y-57596448D01*
X114935126Y-57880323D01*
X114955959Y-58116600D01*
X114961689Y-58240761D01*
X114963391Y-58376879D01*
X114961246Y-58520507D01*
X114955433Y-58667199D01*
X114946133Y-58812511D01*
X114933527Y-58951995D01*
X114917793Y-59081207D01*
X114916505Y-59090267D01*
X114868425Y-59366019D01*
X114803915Y-59639808D01*
X114723461Y-59910451D01*
X114627549Y-60176766D01*
X114516665Y-60437569D01*
X114391295Y-60691679D01*
X114251924Y-60937912D01*
X114099038Y-61175085D01*
X114007114Y-61304300D01*
X113841684Y-61515689D01*
X113662964Y-61719350D01*
X113472588Y-61913769D01*
X113272191Y-62097431D01*
X113063406Y-62268820D01*
X112847868Y-62426421D01*
X112674968Y-62539513D01*
X112429052Y-62683301D01*
X112180472Y-62810849D01*
X111927691Y-62922812D01*
X111669171Y-63019847D01*
X111403375Y-63102608D01*
X111272494Y-63137523D01*
X111104789Y-63176302D01*
X110931180Y-63209632D01*
X110755254Y-63237069D01*
X110580603Y-63258165D01*
X110410814Y-63272474D01*
X110249477Y-63279550D01*
X110129200Y-63279709D01*
X109997967Y-63277034D01*
X109920905Y-63086534D01*
X109898239Y-63030532D01*
X109870710Y-62962563D01*
X109839825Y-62886346D01*
X109807093Y-62805603D01*
X109774022Y-62724053D01*
X109742120Y-62645418D01*
X109728720Y-62612400D01*
X109699735Y-62540963D01*
X109665054Y-62455449D01*
X109625334Y-62357474D01*
X109581230Y-62248660D01*
X109533397Y-62130624D01*
X109482492Y-62004985D01*
X109429170Y-61873363D01*
X109374086Y-61737377D01*
X109317897Y-61598645D01*
X109261257Y-61458787D01*
X109204824Y-61319421D01*
X109149251Y-61182166D01*
X109095195Y-61048642D01*
X109043312Y-60920467D01*
X108994256Y-60799261D01*
X108948685Y-60686641D01*
X108907253Y-60584228D01*
X108870616Y-60493640D01*
X108840657Y-60419534D01*
X108804552Y-60330234D01*
X108765710Y-60234225D01*
X108725563Y-60135045D01*
X108685544Y-60036233D01*
X108647087Y-59941325D01*
X108611625Y-59853862D01*
X108580591Y-59777381D01*
X108571462Y-59754900D01*
X108547714Y-59696405D01*
X108518001Y-59623176D01*
X108482713Y-59536175D01*
X108442240Y-59436363D01*
X108396971Y-59324702D01*
X108347297Y-59202155D01*
X108293606Y-59069682D01*
X108236288Y-58928246D01*
X108175732Y-58778809D01*
X108112329Y-58622332D01*
X108046468Y-58459778D01*
X107978538Y-58292107D01*
X107908929Y-58120282D01*
X107838031Y-57945265D01*
X107766233Y-57768018D01*
X107693925Y-57589502D01*
X107621496Y-57410679D01*
X107549336Y-57232511D01*
X107477834Y-57055960D01*
X107407381Y-56881988D01*
X107338365Y-56711556D01*
X107271176Y-56545627D01*
X107206205Y-56385162D01*
X107143840Y-56231122D01*
X107084470Y-56084471D01*
X107028487Y-55946169D01*
X106976278Y-55817178D01*
X106928234Y-55698461D01*
X106884745Y-55590979D01*
X106846199Y-55495693D01*
X106812987Y-55413567D01*
X106793328Y-55364933D01*
X106761694Y-55286835D01*
X106731847Y-55213477D01*
X106704408Y-55146364D01*
X106679998Y-55086997D01*
X106659238Y-55036881D01*
X106642748Y-54997518D01*
X106631149Y-54970412D01*
X106625063Y-54957065D01*
X106624407Y-54955972D01*
X106616464Y-54959257D01*
D11*
G36*
X142276983Y-91159760D02*
G01*
X142463999Y-91216490D01*
X142636344Y-91308611D01*
X142787412Y-91432588D01*
X142911389Y-91583656D01*
X143003510Y-91756001D01*
X143060240Y-91943017D01*
X143080000Y-92143640D01*
X143080000Y-98156360D01*
X143060240Y-98356983D01*
X143003510Y-98543999D01*
X142911389Y-98716344D01*
X142787412Y-98867412D01*
X142636344Y-98991389D01*
X142463999Y-99083510D01*
X142276983Y-99140240D01*
X142076360Y-99160000D01*
X139843640Y-99160000D01*
X139643017Y-99140240D01*
X139456001Y-99083510D01*
X139283656Y-98991389D01*
X139132588Y-98867412D01*
X139008611Y-98716344D01*
X138916490Y-98543999D01*
X138859760Y-98356983D01*
X138840000Y-98156360D01*
X138840000Y-92143640D01*
X138859760Y-91943017D01*
X138916490Y-91756001D01*
X139008611Y-91583656D01*
X139132588Y-91432588D01*
X139283656Y-91308611D01*
X139456001Y-91216490D01*
X139643017Y-91159760D01*
X139843640Y-91140000D01*
X142076360Y-91140000D01*
X142276983Y-91159760D01*
X142276983Y-91159760D01*
G37*
G36*
X137196983Y-91159760D02*
G01*
X137383999Y-91216490D01*
X137556344Y-91308611D01*
X137707412Y-91432588D01*
X137831389Y-91583656D01*
X137923510Y-91756001D01*
X137980240Y-91943017D01*
X138000000Y-92143640D01*
X138000000Y-98156360D01*
X137980240Y-98356983D01*
X137923510Y-98543999D01*
X137831389Y-98716344D01*
X137707412Y-98867412D01*
X137556344Y-98991389D01*
X137383999Y-99083510D01*
X137196983Y-99140240D01*
X136996360Y-99160000D01*
X134763640Y-99160000D01*
X134563017Y-99140240D01*
X134376001Y-99083510D01*
X134203656Y-98991389D01*
X134052588Y-98867412D01*
X133928611Y-98716344D01*
X133836490Y-98543999D01*
X133779760Y-98356983D01*
X133760000Y-98156360D01*
X133760000Y-92143640D01*
X133779760Y-91943017D01*
X133836490Y-91756001D01*
X133928611Y-91583656D01*
X134052588Y-91432588D01*
X134203656Y-91308611D01*
X134376001Y-91216490D01*
X134563017Y-91159760D01*
X134763640Y-91140000D01*
X136996360Y-91140000D01*
X137196983Y-91159760D01*
X137196983Y-91159760D01*
G37*
G36*
X111790983Y-91159760D02*
G01*
X111977999Y-91216490D01*
X112150344Y-91308611D01*
X112301412Y-91432588D01*
X112425389Y-91583656D01*
X112517510Y-91756001D01*
X112574240Y-91943017D01*
X112594000Y-92143640D01*
X112594000Y-98156360D01*
X112574240Y-98356983D01*
X112517510Y-98543999D01*
X112425389Y-98716344D01*
X112301412Y-98867412D01*
X112150344Y-98991389D01*
X111977999Y-99083510D01*
X111790983Y-99140240D01*
X111590360Y-99160000D01*
X109357640Y-99160000D01*
X109157017Y-99140240D01*
X108970001Y-99083510D01*
X108797656Y-98991389D01*
X108646588Y-98867412D01*
X108522611Y-98716344D01*
X108430490Y-98543999D01*
X108373760Y-98356983D01*
X108354000Y-98156360D01*
X108354000Y-92143640D01*
X108373760Y-91943017D01*
X108430490Y-91756001D01*
X108522611Y-91583656D01*
X108646588Y-91432588D01*
X108797656Y-91308611D01*
X108970001Y-91216490D01*
X109157017Y-91159760D01*
X109357640Y-91140000D01*
X111590360Y-91140000D01*
X111790983Y-91159760D01*
X111790983Y-91159760D01*
G37*
G36*
X116870983Y-91159760D02*
G01*
X117057999Y-91216490D01*
X117230344Y-91308611D01*
X117381412Y-91432588D01*
X117505389Y-91583656D01*
X117597510Y-91756001D01*
X117654240Y-91943017D01*
X117674000Y-92143640D01*
X117674000Y-98156360D01*
X117654240Y-98356983D01*
X117597510Y-98543999D01*
X117505389Y-98716344D01*
X117381412Y-98867412D01*
X117230344Y-98991389D01*
X117057999Y-99083510D01*
X116870983Y-99140240D01*
X116670360Y-99160000D01*
X114437640Y-99160000D01*
X114237017Y-99140240D01*
X114050001Y-99083510D01*
X113877656Y-98991389D01*
X113726588Y-98867412D01*
X113602611Y-98716344D01*
X113510490Y-98543999D01*
X113453760Y-98356983D01*
X113434000Y-98156360D01*
X113434000Y-92143640D01*
X113453760Y-91943017D01*
X113510490Y-91756001D01*
X113602611Y-91583656D01*
X113726588Y-91432588D01*
X113877656Y-91308611D01*
X114050001Y-91216490D01*
X114237017Y-91159760D01*
X114437640Y-91140000D01*
X116670360Y-91140000D01*
X116870983Y-91159760D01*
X116870983Y-91159760D01*
G37*
G36*
X129573983Y-91159760D02*
G01*
X129760999Y-91216490D01*
X129933344Y-91308611D01*
X130084412Y-91432588D01*
X130208389Y-91583656D01*
X130300510Y-91756001D01*
X130357240Y-91943017D01*
X130377000Y-92143640D01*
X130377000Y-98156360D01*
X130357240Y-98356983D01*
X130300510Y-98543999D01*
X130208389Y-98716344D01*
X130084412Y-98867412D01*
X129933344Y-98991389D01*
X129760999Y-99083510D01*
X129573983Y-99140240D01*
X129373360Y-99160000D01*
X127140640Y-99160000D01*
X126940017Y-99140240D01*
X126753001Y-99083510D01*
X126580656Y-98991389D01*
X126429588Y-98867412D01*
X126305611Y-98716344D01*
X126213490Y-98543999D01*
X126156760Y-98356983D01*
X126137000Y-98156360D01*
X126137000Y-92143640D01*
X126156760Y-91943017D01*
X126213490Y-91756001D01*
X126305611Y-91583656D01*
X126429588Y-91432588D01*
X126580656Y-91308611D01*
X126753001Y-91216490D01*
X126940017Y-91159760D01*
X127140640Y-91140000D01*
X129373360Y-91140000D01*
X129573983Y-91159760D01*
X129573983Y-91159760D01*
G37*
G36*
X124493983Y-91159760D02*
G01*
X124680999Y-91216490D01*
X124853344Y-91308611D01*
X125004412Y-91432588D01*
X125128389Y-91583656D01*
X125220510Y-91756001D01*
X125277240Y-91943017D01*
X125297000Y-92143640D01*
X125297000Y-98156360D01*
X125277240Y-98356983D01*
X125220510Y-98543999D01*
X125128389Y-98716344D01*
X125004412Y-98867412D01*
X124853344Y-98991389D01*
X124680999Y-99083510D01*
X124493983Y-99140240D01*
X124293360Y-99160000D01*
X122060640Y-99160000D01*
X121860017Y-99140240D01*
X121673001Y-99083510D01*
X121500656Y-98991389D01*
X121349588Y-98867412D01*
X121225611Y-98716344D01*
X121133490Y-98543999D01*
X121076760Y-98356983D01*
X121057000Y-98156360D01*
X121057000Y-92143640D01*
X121076760Y-91943017D01*
X121133490Y-91756001D01*
X121225611Y-91583656D01*
X121349588Y-91432588D01*
X121500656Y-91308611D01*
X121673001Y-91216490D01*
X121860017Y-91159760D01*
X122060640Y-91140000D01*
X124293360Y-91140000D01*
X124493983Y-91159760D01*
X124493983Y-91159760D01*
G37*
G36*
X103812390Y-94499783D02*
G01*
X103962118Y-94529565D01*
X104078960Y-94577963D01*
X104244199Y-94646407D01*
X104244200Y-94646408D01*
X104498068Y-94816036D01*
X104713964Y-95031932D01*
X104763373Y-95105879D01*
X104883593Y-95285801D01*
X104952037Y-95451040D01*
X104996293Y-95557882D01*
X105000435Y-95567883D01*
X105060000Y-95867337D01*
X105060000Y-96172663D01*
X105000435Y-96472117D01*
X104883593Y-96754199D01*
X104883592Y-96754200D01*
X104713964Y-97008068D01*
X104498068Y-97223964D01*
X104328439Y-97337306D01*
X104244199Y-97393593D01*
X104078960Y-97462037D01*
X103962118Y-97510435D01*
X103812390Y-97540218D01*
X103662663Y-97570000D01*
X103357337Y-97570000D01*
X103207610Y-97540218D01*
X103057882Y-97510435D01*
X102941040Y-97462037D01*
X102775801Y-97393593D01*
X102691561Y-97337306D01*
X102521932Y-97223964D01*
X102306036Y-97008068D01*
X102136408Y-96754200D01*
X102136407Y-96754199D01*
X102019565Y-96472117D01*
X101960000Y-96172663D01*
X101960000Y-95867337D01*
X102019565Y-95567883D01*
X102023708Y-95557882D01*
X102067963Y-95451040D01*
X102136407Y-95285801D01*
X102256627Y-95105879D01*
X102306036Y-95031932D01*
X102521932Y-94816036D01*
X102775800Y-94646408D01*
X102775801Y-94646407D01*
X102941040Y-94577963D01*
X103057882Y-94529565D01*
X103207610Y-94499782D01*
X103357337Y-94470000D01*
X103662663Y-94470000D01*
X103812390Y-94499783D01*
X103812390Y-94499783D01*
G37*
G36*
X161702936Y-94470000D02*
G01*
X161952118Y-94519565D01*
X162068960Y-94567963D01*
X162234199Y-94636407D01*
X162309070Y-94686434D01*
X162488068Y-94806036D01*
X162703964Y-95021932D01*
X162760055Y-95105879D01*
X162873593Y-95275801D01*
X162942037Y-95441040D01*
X162990435Y-95557882D01*
X163050000Y-95857338D01*
X163050000Y-96162662D01*
X162990435Y-96462118D01*
X162942037Y-96578960D01*
X162873593Y-96744199D01*
X162817306Y-96828439D01*
X162703964Y-96998068D01*
X162488068Y-97213964D01*
X162318439Y-97327306D01*
X162234199Y-97383593D01*
X162068960Y-97452037D01*
X161952118Y-97500435D01*
X161901844Y-97510435D01*
X161652663Y-97560000D01*
X161347337Y-97560000D01*
X161098156Y-97510435D01*
X161047882Y-97500435D01*
X160931040Y-97452037D01*
X160765801Y-97383593D01*
X160681561Y-97327306D01*
X160511932Y-97213964D01*
X160296036Y-96998068D01*
X160182694Y-96828439D01*
X160126407Y-96744199D01*
X160057963Y-96578960D01*
X160009565Y-96462118D01*
X159950000Y-96162662D01*
X159950000Y-95857338D01*
X160009565Y-95557882D01*
X160057963Y-95441040D01*
X160126407Y-95275801D01*
X160239945Y-95105879D01*
X160296036Y-95021932D01*
X160511932Y-94806036D01*
X160690930Y-94686434D01*
X160765801Y-94636407D01*
X160931040Y-94567963D01*
X161047882Y-94519565D01*
X161297064Y-94470000D01*
X161347337Y-94460000D01*
X161652663Y-94460000D01*
X161702936Y-94470000D01*
X161702936Y-94470000D01*
G37*
G36*
X156075000Y-96075000D02*
G01*
X153925000Y-96075000D01*
X153925000Y-93925000D01*
X156075000Y-93925000D01*
X156075000Y-96075000D01*
X156075000Y-96075000D01*
G37*
G36*
X150209722Y-93945656D02*
G01*
X150313566Y-93966312D01*
X150370866Y-93990047D01*
X150509203Y-94047347D01*
X150685272Y-94164993D01*
X150835007Y-94314728D01*
X150952653Y-94490797D01*
X151009953Y-94629134D01*
X151017109Y-94646408D01*
X151033688Y-94686435D01*
X151075000Y-94894121D01*
X151075000Y-95105879D01*
X151033688Y-95313565D01*
X150952653Y-95509203D01*
X150835007Y-95685272D01*
X150685272Y-95835007D01*
X150509203Y-95952653D01*
X150370866Y-96009953D01*
X150313566Y-96033688D01*
X150209722Y-96054344D01*
X150105879Y-96075000D01*
X149894121Y-96075000D01*
X149790278Y-96054344D01*
X149686434Y-96033688D01*
X149629134Y-96009953D01*
X149490797Y-95952653D01*
X149314728Y-95835007D01*
X149164993Y-95685272D01*
X149047347Y-95509203D01*
X148966312Y-95313565D01*
X148925000Y-95105879D01*
X148925000Y-94894121D01*
X148966312Y-94686435D01*
X148982892Y-94646408D01*
X148990047Y-94629134D01*
X149047347Y-94490797D01*
X149164993Y-94314728D01*
X149314728Y-94164993D01*
X149490797Y-94047347D01*
X149629134Y-93990047D01*
X149686434Y-93966312D01*
X149790278Y-93945656D01*
X149894121Y-93925000D01*
X150105879Y-93925000D01*
X150209722Y-93945656D01*
X150209722Y-93945656D01*
G37*
G36*
X152709722Y-93945656D02*
G01*
X152813566Y-93966312D01*
X152870866Y-93990047D01*
X153009203Y-94047347D01*
X153185272Y-94164993D01*
X153335007Y-94314728D01*
X153452653Y-94490797D01*
X153509953Y-94629134D01*
X153517109Y-94646408D01*
X153533688Y-94686435D01*
X153575000Y-94894121D01*
X153575000Y-95105879D01*
X153533688Y-95313565D01*
X153452653Y-95509203D01*
X153335007Y-95685272D01*
X153185272Y-95835007D01*
X153009203Y-95952653D01*
X152870866Y-96009953D01*
X152813566Y-96033688D01*
X152709722Y-96054344D01*
X152605879Y-96075000D01*
X152394121Y-96075000D01*
X152290278Y-96054344D01*
X152186434Y-96033688D01*
X152129134Y-96009953D01*
X151990797Y-95952653D01*
X151814728Y-95835007D01*
X151664993Y-95685272D01*
X151547347Y-95509203D01*
X151466312Y-95313565D01*
X151425000Y-95105879D01*
X151425000Y-94894121D01*
X151466312Y-94686435D01*
X151482892Y-94646408D01*
X151490047Y-94629134D01*
X151547347Y-94490797D01*
X151664993Y-94314728D01*
X151814728Y-94164993D01*
X151990797Y-94047347D01*
X152129134Y-93990047D01*
X152186434Y-93966312D01*
X152290278Y-93945656D01*
X152394121Y-93925000D01*
X152605879Y-93925000D01*
X152709722Y-93945656D01*
X152709722Y-93945656D01*
G37*
G36*
X101728707Y-89381596D02*
G01*
X101805836Y-89389193D01*
X102003762Y-89449233D01*
X102003765Y-89449234D01*
X102186170Y-89546732D01*
X102346055Y-89677945D01*
X102477268Y-89837830D01*
X102574766Y-90020235D01*
X102574767Y-90020238D01*
X102634807Y-90218164D01*
X102655080Y-90424000D01*
X102634807Y-90629836D01*
X102574767Y-90827762D01*
X102574766Y-90827765D01*
X102477268Y-91010170D01*
X102346055Y-91170055D01*
X102186170Y-91301268D01*
X102003765Y-91398766D01*
X102003762Y-91398767D01*
X101805836Y-91458807D01*
X101728707Y-91466403D01*
X101651580Y-91474000D01*
X101548420Y-91474000D01*
X101471293Y-91466403D01*
X101394164Y-91458807D01*
X101196238Y-91398767D01*
X101196235Y-91398766D01*
X101013830Y-91301268D01*
X100853945Y-91170055D01*
X100722732Y-91010170D01*
X100625234Y-90827765D01*
X100625233Y-90827762D01*
X100565193Y-90629836D01*
X100544920Y-90424000D01*
X100565193Y-90218164D01*
X100625233Y-90020238D01*
X100625234Y-90020235D01*
X100722732Y-89837830D01*
X100853945Y-89677945D01*
X101013830Y-89546732D01*
X101196235Y-89449234D01*
X101196238Y-89449233D01*
X101394164Y-89389193D01*
X101471293Y-89381596D01*
X101548420Y-89374000D01*
X101651580Y-89374000D01*
X101728707Y-89381596D01*
X101728707Y-89381596D01*
G37*
G36*
X104268707Y-89381596D02*
G01*
X104345836Y-89389193D01*
X104543762Y-89449233D01*
X104543765Y-89449234D01*
X104726170Y-89546732D01*
X104886055Y-89677945D01*
X105017268Y-89837830D01*
X105114766Y-90020235D01*
X105114767Y-90020238D01*
X105174807Y-90218164D01*
X105195080Y-90424000D01*
X105174807Y-90629836D01*
X105114767Y-90827762D01*
X105114766Y-90827765D01*
X105017268Y-91010170D01*
X104886055Y-91170055D01*
X104726170Y-91301268D01*
X104543765Y-91398766D01*
X104543762Y-91398767D01*
X104345836Y-91458807D01*
X104268707Y-91466403D01*
X104191580Y-91474000D01*
X104088420Y-91474000D01*
X104011293Y-91466403D01*
X103934164Y-91458807D01*
X103736238Y-91398767D01*
X103736235Y-91398766D01*
X103553830Y-91301268D01*
X103393945Y-91170055D01*
X103262732Y-91010170D01*
X103165234Y-90827765D01*
X103165233Y-90827762D01*
X103105193Y-90629836D01*
X103084920Y-90424000D01*
X103105193Y-90218164D01*
X103165233Y-90020238D01*
X103165234Y-90020235D01*
X103262732Y-89837830D01*
X103393945Y-89677945D01*
X103553830Y-89546732D01*
X103736235Y-89449234D01*
X103736238Y-89449233D01*
X103934164Y-89389193D01*
X104011293Y-89381596D01*
X104088420Y-89374000D01*
X104191580Y-89374000D01*
X104268707Y-89381596D01*
X104268707Y-89381596D01*
G37*
G36*
X107730000Y-91474000D02*
G01*
X105630000Y-91474000D01*
X105630000Y-89374000D01*
X107730000Y-89374000D01*
X107730000Y-91474000D01*
X107730000Y-91474000D01*
G37*
G36*
X101728707Y-86841597D02*
G01*
X101805836Y-86849193D01*
X102003762Y-86909233D01*
X102003765Y-86909234D01*
X102186170Y-87006732D01*
X102346055Y-87137945D01*
X102477268Y-87297830D01*
X102574766Y-87480235D01*
X102574767Y-87480238D01*
X102634807Y-87678164D01*
X102655080Y-87884000D01*
X102634807Y-88089836D01*
X102574767Y-88287762D01*
X102574766Y-88287765D01*
X102477268Y-88470170D01*
X102346055Y-88630055D01*
X102186170Y-88761268D01*
X102003765Y-88858766D01*
X102003762Y-88858767D01*
X101805836Y-88918807D01*
X101728707Y-88926404D01*
X101651580Y-88934000D01*
X101548420Y-88934000D01*
X101471293Y-88926404D01*
X101394164Y-88918807D01*
X101196238Y-88858767D01*
X101196235Y-88858766D01*
X101013830Y-88761268D01*
X100853945Y-88630055D01*
X100722732Y-88470170D01*
X100625234Y-88287765D01*
X100625233Y-88287762D01*
X100565193Y-88089836D01*
X100544920Y-87884000D01*
X100565193Y-87678164D01*
X100625233Y-87480238D01*
X100625234Y-87480235D01*
X100722732Y-87297830D01*
X100853945Y-87137945D01*
X101013830Y-87006732D01*
X101196235Y-86909234D01*
X101196238Y-86909233D01*
X101394164Y-86849193D01*
X101471293Y-86841597D01*
X101548420Y-86834000D01*
X101651580Y-86834000D01*
X101728707Y-86841597D01*
X101728707Y-86841597D01*
G37*
G36*
X107730000Y-88934000D02*
G01*
X105630000Y-88934000D01*
X105630000Y-86834000D01*
X107730000Y-86834000D01*
X107730000Y-88934000D01*
X107730000Y-88934000D01*
G37*
G36*
X104268707Y-86841597D02*
G01*
X104345836Y-86849193D01*
X104543762Y-86909233D01*
X104543765Y-86909234D01*
X104726170Y-87006732D01*
X104886055Y-87137945D01*
X105017268Y-87297830D01*
X105114766Y-87480235D01*
X105114767Y-87480238D01*
X105174807Y-87678164D01*
X105195080Y-87884000D01*
X105174807Y-88089836D01*
X105114767Y-88287762D01*
X105114766Y-88287765D01*
X105017268Y-88470170D01*
X104886055Y-88630055D01*
X104726170Y-88761268D01*
X104543765Y-88858766D01*
X104543762Y-88858767D01*
X104345836Y-88918807D01*
X104268707Y-88926404D01*
X104191580Y-88934000D01*
X104088420Y-88934000D01*
X104011293Y-88926404D01*
X103934164Y-88918807D01*
X103736238Y-88858767D01*
X103736235Y-88858766D01*
X103553830Y-88761268D01*
X103393945Y-88630055D01*
X103262732Y-88470170D01*
X103165234Y-88287765D01*
X103165233Y-88287762D01*
X103105193Y-88089836D01*
X103084920Y-87884000D01*
X103105193Y-87678164D01*
X103165233Y-87480238D01*
X103165234Y-87480235D01*
X103262732Y-87297830D01*
X103393945Y-87137945D01*
X103553830Y-87006732D01*
X103736235Y-86909234D01*
X103736238Y-86909233D01*
X103934164Y-86849193D01*
X104011293Y-86841597D01*
X104088420Y-86834000D01*
X104191580Y-86834000D01*
X104268707Y-86841597D01*
X104268707Y-86841597D01*
G37*
G36*
X101728707Y-84301597D02*
G01*
X101805836Y-84309193D01*
X102003762Y-84369233D01*
X102003765Y-84369234D01*
X102186170Y-84466732D01*
X102346055Y-84597945D01*
X102477268Y-84757830D01*
X102574766Y-84940235D01*
X102574767Y-84940238D01*
X102634807Y-85138164D01*
X102655080Y-85344000D01*
X102634807Y-85549836D01*
X102634788Y-85549898D01*
X102574766Y-85747765D01*
X102477268Y-85930170D01*
X102346055Y-86090055D01*
X102186170Y-86221268D01*
X102003765Y-86318766D01*
X102003762Y-86318767D01*
X101805836Y-86378807D01*
X101728707Y-86386403D01*
X101651580Y-86394000D01*
X101548420Y-86394000D01*
X101471293Y-86386403D01*
X101394164Y-86378807D01*
X101196238Y-86318767D01*
X101196235Y-86318766D01*
X101013830Y-86221268D01*
X100853945Y-86090055D01*
X100722732Y-85930170D01*
X100625234Y-85747765D01*
X100565212Y-85549898D01*
X100565193Y-85549836D01*
X100544920Y-85344000D01*
X100565193Y-85138164D01*
X100625233Y-84940238D01*
X100625234Y-84940235D01*
X100722732Y-84757830D01*
X100853945Y-84597945D01*
X101013830Y-84466732D01*
X101196235Y-84369234D01*
X101196238Y-84369233D01*
X101394164Y-84309193D01*
X101471293Y-84301597D01*
X101548420Y-84294000D01*
X101651580Y-84294000D01*
X101728707Y-84301597D01*
X101728707Y-84301597D01*
G37*
G36*
X104268707Y-84301597D02*
G01*
X104345836Y-84309193D01*
X104543762Y-84369233D01*
X104543765Y-84369234D01*
X104726170Y-84466732D01*
X104886055Y-84597945D01*
X105017268Y-84757830D01*
X105114766Y-84940235D01*
X105114767Y-84940238D01*
X105174807Y-85138164D01*
X105195080Y-85344000D01*
X105174807Y-85549836D01*
X105174788Y-85549898D01*
X105114766Y-85747765D01*
X105017268Y-85930170D01*
X104886055Y-86090055D01*
X104726170Y-86221268D01*
X104543765Y-86318766D01*
X104543762Y-86318767D01*
X104345836Y-86378807D01*
X104268707Y-86386403D01*
X104191580Y-86394000D01*
X104088420Y-86394000D01*
X104011293Y-86386403D01*
X103934164Y-86378807D01*
X103736238Y-86318767D01*
X103736235Y-86318766D01*
X103553830Y-86221268D01*
X103393945Y-86090055D01*
X103262732Y-85930170D01*
X103165234Y-85747765D01*
X103105212Y-85549898D01*
X103105193Y-85549836D01*
X103084920Y-85344000D01*
X103105193Y-85138164D01*
X103165233Y-84940238D01*
X103165234Y-84940235D01*
X103262732Y-84757830D01*
X103393945Y-84597945D01*
X103553830Y-84466732D01*
X103736235Y-84369234D01*
X103736238Y-84369233D01*
X103934164Y-84309193D01*
X104011293Y-84301597D01*
X104088420Y-84294000D01*
X104191580Y-84294000D01*
X104268707Y-84301597D01*
X104268707Y-84301597D01*
G37*
G36*
X107730000Y-86394000D02*
G01*
X105630000Y-86394000D01*
X105630000Y-84294000D01*
X107730000Y-84294000D01*
X107730000Y-86394000D01*
X107730000Y-86394000D01*
G37*
G36*
X163304845Y-80968810D02*
G01*
X163549896Y-81043145D01*
X163775736Y-81163860D01*
X163973687Y-81326313D01*
X164136140Y-81524264D01*
X164256855Y-81750104D01*
X164331190Y-81995155D01*
X164356290Y-82250000D01*
X164331190Y-82504845D01*
X164256855Y-82749896D01*
X164136140Y-82975736D01*
X163973687Y-83173687D01*
X163775736Y-83336140D01*
X163549896Y-83456855D01*
X163304845Y-83531190D01*
X163113864Y-83550000D01*
X160526198Y-83550000D01*
X160501812Y-83552402D01*
X160478363Y-83559515D01*
X160456752Y-83571066D01*
X160437810Y-83586611D01*
X160422265Y-83605553D01*
X160410714Y-83627164D01*
X160403601Y-83650613D01*
X160401199Y-83674999D01*
X160403601Y-83699385D01*
X160410714Y-83722834D01*
X160422265Y-83744445D01*
X160437810Y-83763387D01*
X160456752Y-83778932D01*
X160478363Y-83790483D01*
X160489894Y-83794609D01*
X160649896Y-83843145D01*
X160875736Y-83963860D01*
X161073687Y-84126313D01*
X161236140Y-84324264D01*
X161356855Y-84550104D01*
X161431190Y-84795155D01*
X161456290Y-85050000D01*
X161431190Y-85304845D01*
X161356855Y-85549896D01*
X161236140Y-85775736D01*
X161073687Y-85973687D01*
X160875736Y-86136140D01*
X160649896Y-86256855D01*
X160404845Y-86331190D01*
X160213864Y-86350000D01*
X157286136Y-86350000D01*
X157095155Y-86331190D01*
X156850104Y-86256855D01*
X156624264Y-86136140D01*
X156426313Y-85973687D01*
X156263860Y-85775736D01*
X156143145Y-85549896D01*
X156068810Y-85304845D01*
X156043710Y-85050000D01*
X156068810Y-84795155D01*
X156143145Y-84550104D01*
X156263860Y-84324264D01*
X156426313Y-84126313D01*
X156624264Y-83963860D01*
X156850104Y-83843145D01*
X157095155Y-83768810D01*
X157286136Y-83750000D01*
X159873802Y-83750000D01*
X159898188Y-83747598D01*
X159921637Y-83740485D01*
X159943248Y-83728934D01*
X159962190Y-83713389D01*
X159977735Y-83694447D01*
X159989286Y-83672836D01*
X159996399Y-83649387D01*
X159998801Y-83625001D01*
X159996399Y-83600615D01*
X159989286Y-83577166D01*
X159977735Y-83555555D01*
X159962190Y-83536613D01*
X159943248Y-83521068D01*
X159921637Y-83509517D01*
X159910106Y-83505391D01*
X159750104Y-83456855D01*
X159524264Y-83336140D01*
X159326313Y-83173687D01*
X159163860Y-82975736D01*
X159043145Y-82749896D01*
X158968810Y-82504845D01*
X158943710Y-82250000D01*
X158968810Y-81995155D01*
X159043145Y-81750104D01*
X159163860Y-81524264D01*
X159326313Y-81326313D01*
X159524264Y-81163860D01*
X159750104Y-81043145D01*
X159995155Y-80968810D01*
X160186136Y-80950000D01*
X163113864Y-80950000D01*
X163304845Y-80968810D01*
X163304845Y-80968810D01*
G37*
G36*
X107730000Y-83854000D02*
G01*
X105630000Y-83854000D01*
X105630000Y-81754000D01*
X107730000Y-81754000D01*
X107730000Y-83854000D01*
X107730000Y-83854000D01*
G37*
G36*
X104268707Y-81761597D02*
G01*
X104345836Y-81769193D01*
X104543762Y-81829233D01*
X104543765Y-81829234D01*
X104726170Y-81926732D01*
X104886055Y-82057945D01*
X105017268Y-82217830D01*
X105114766Y-82400235D01*
X105114767Y-82400238D01*
X105174807Y-82598164D01*
X105195080Y-82804000D01*
X105174807Y-83009836D01*
X105114767Y-83207762D01*
X105114766Y-83207765D01*
X105017268Y-83390170D01*
X104886055Y-83550055D01*
X104726170Y-83681268D01*
X104543765Y-83778766D01*
X104543762Y-83778767D01*
X104345836Y-83838807D01*
X104268707Y-83846404D01*
X104191580Y-83854000D01*
X104088420Y-83854000D01*
X104011293Y-83846404D01*
X103934164Y-83838807D01*
X103736238Y-83778767D01*
X103736235Y-83778766D01*
X103553830Y-83681268D01*
X103393945Y-83550055D01*
X103262732Y-83390170D01*
X103165234Y-83207765D01*
X103165233Y-83207762D01*
X103105193Y-83009836D01*
X103084920Y-82804000D01*
X103105193Y-82598164D01*
X103165233Y-82400238D01*
X103165234Y-82400235D01*
X103262732Y-82217830D01*
X103393945Y-82057945D01*
X103553830Y-81926732D01*
X103736235Y-81829234D01*
X103736238Y-81829233D01*
X103934164Y-81769193D01*
X104011293Y-81761597D01*
X104088420Y-81754000D01*
X104191580Y-81754000D01*
X104268707Y-81761597D01*
X104268707Y-81761597D01*
G37*
G36*
X101728707Y-81761597D02*
G01*
X101805836Y-81769193D01*
X102003762Y-81829233D01*
X102003765Y-81829234D01*
X102186170Y-81926732D01*
X102346055Y-82057945D01*
X102477268Y-82217830D01*
X102574766Y-82400235D01*
X102574767Y-82400238D01*
X102634807Y-82598164D01*
X102655080Y-82804000D01*
X102634807Y-83009836D01*
X102574767Y-83207762D01*
X102574766Y-83207765D01*
X102477268Y-83390170D01*
X102346055Y-83550055D01*
X102186170Y-83681268D01*
X102003765Y-83778766D01*
X102003762Y-83778767D01*
X101805836Y-83838807D01*
X101728707Y-83846404D01*
X101651580Y-83854000D01*
X101548420Y-83854000D01*
X101471293Y-83846404D01*
X101394164Y-83838807D01*
X101196238Y-83778767D01*
X101196235Y-83778766D01*
X101013830Y-83681268D01*
X100853945Y-83550055D01*
X100722732Y-83390170D01*
X100625234Y-83207765D01*
X100625233Y-83207762D01*
X100565193Y-83009836D01*
X100544920Y-82804000D01*
X100565193Y-82598164D01*
X100625233Y-82400238D01*
X100625234Y-82400235D01*
X100722732Y-82217830D01*
X100853945Y-82057945D01*
X101013830Y-81926732D01*
X101196235Y-81829234D01*
X101196238Y-81829233D01*
X101394164Y-81769193D01*
X101471293Y-81761597D01*
X101548420Y-81754000D01*
X101651580Y-81754000D01*
X101728707Y-81761597D01*
X101728707Y-81761597D01*
G37*
G36*
X155604844Y-76668810D02*
G01*
X155849895Y-76743145D01*
X156075735Y-76863860D01*
X156273687Y-77026313D01*
X156436140Y-77224264D01*
X156556855Y-77450104D01*
X156631190Y-77695155D01*
X156650000Y-77886136D01*
X156650000Y-80613864D01*
X156631190Y-80804845D01*
X156556855Y-81049896D01*
X156436140Y-81275736D01*
X156273687Y-81473687D01*
X156075736Y-81636140D01*
X155849896Y-81756855D01*
X155604845Y-81831190D01*
X155350000Y-81856290D01*
X155095156Y-81831190D01*
X154850105Y-81756855D01*
X154624265Y-81636140D01*
X154426314Y-81473687D01*
X154263861Y-81275736D01*
X154143146Y-81049896D01*
X154068811Y-80804845D01*
X154050001Y-80613864D01*
X154050000Y-77886137D01*
X154068810Y-77695156D01*
X154143145Y-77450105D01*
X154263860Y-77224265D01*
X154426313Y-77026313D01*
X154624264Y-76863860D01*
X154850104Y-76743145D01*
X155095155Y-76668810D01*
X155350000Y-76643710D01*
X155604844Y-76668810D01*
X155604844Y-76668810D01*
G37*
G36*
X154198707Y-66497596D02*
G01*
X154275836Y-66505193D01*
X154473762Y-66565233D01*
X154473765Y-66565234D01*
X154656170Y-66662732D01*
X154816055Y-66793945D01*
X154947268Y-66953830D01*
X155044766Y-67136235D01*
X155044767Y-67136238D01*
X155104807Y-67334164D01*
X155125080Y-67540000D01*
X155104807Y-67745836D01*
X155044767Y-67943762D01*
X155044766Y-67943765D01*
X154947268Y-68126170D01*
X154816055Y-68286055D01*
X154656170Y-68417268D01*
X154473765Y-68514766D01*
X154473762Y-68514767D01*
X154275836Y-68574807D01*
X154198707Y-68582403D01*
X154121580Y-68590000D01*
X154018420Y-68590000D01*
X153941293Y-68582403D01*
X153864164Y-68574807D01*
X153666238Y-68514767D01*
X153666235Y-68514766D01*
X153483830Y-68417268D01*
X153323945Y-68286055D01*
X153192732Y-68126170D01*
X153095234Y-67943765D01*
X153095233Y-67943762D01*
X153035193Y-67745836D01*
X153014920Y-67540000D01*
X153035193Y-67334164D01*
X153095233Y-67136238D01*
X153095234Y-67136235D01*
X153192732Y-66953830D01*
X153323945Y-66793945D01*
X153483830Y-66662732D01*
X153666235Y-66565234D01*
X153666238Y-66565233D01*
X153864164Y-66505193D01*
X153941293Y-66497596D01*
X154018420Y-66490000D01*
X154121580Y-66490000D01*
X154198707Y-66497596D01*
X154198707Y-66497596D01*
G37*
G36*
X156738707Y-66497596D02*
G01*
X156815836Y-66505193D01*
X157013762Y-66565233D01*
X157013765Y-66565234D01*
X157196170Y-66662732D01*
X157356055Y-66793945D01*
X157487268Y-66953830D01*
X157584766Y-67136235D01*
X157584767Y-67136238D01*
X157644807Y-67334164D01*
X157665080Y-67540000D01*
X157644807Y-67745836D01*
X157584767Y-67943762D01*
X157584766Y-67943765D01*
X157487268Y-68126170D01*
X157356055Y-68286055D01*
X157196170Y-68417268D01*
X157013765Y-68514766D01*
X157013762Y-68514767D01*
X156815836Y-68574807D01*
X156738707Y-68582403D01*
X156661580Y-68590000D01*
X156558420Y-68590000D01*
X156481293Y-68582403D01*
X156404164Y-68574807D01*
X156206238Y-68514767D01*
X156206235Y-68514766D01*
X156023830Y-68417268D01*
X155863945Y-68286055D01*
X155732732Y-68126170D01*
X155635234Y-67943765D01*
X155635233Y-67943762D01*
X155575193Y-67745836D01*
X155554920Y-67540000D01*
X155575193Y-67334164D01*
X155635233Y-67136238D01*
X155635234Y-67136235D01*
X155732732Y-66953830D01*
X155863945Y-66793945D01*
X156023830Y-66662732D01*
X156206235Y-66565234D01*
X156206238Y-66565233D01*
X156404164Y-66505193D01*
X156481293Y-66497596D01*
X156558420Y-66490000D01*
X156661580Y-66490000D01*
X156738707Y-66497596D01*
X156738707Y-66497596D01*
G37*
G36*
X162740000Y-68590000D02*
G01*
X160640000Y-68590000D01*
X160640000Y-66490000D01*
X162740000Y-66490000D01*
X162740000Y-68590000D01*
X162740000Y-68590000D01*
G37*
G36*
X159278707Y-66497596D02*
G01*
X159355836Y-66505193D01*
X159553762Y-66565233D01*
X159553765Y-66565234D01*
X159736170Y-66662732D01*
X159896055Y-66793945D01*
X160027268Y-66953830D01*
X160124766Y-67136235D01*
X160124767Y-67136238D01*
X160184807Y-67334164D01*
X160205080Y-67540000D01*
X160184807Y-67745836D01*
X160124767Y-67943762D01*
X160124766Y-67943765D01*
X160027268Y-68126170D01*
X159896055Y-68286055D01*
X159736170Y-68417268D01*
X159553765Y-68514766D01*
X159553762Y-68514767D01*
X159355836Y-68574807D01*
X159278707Y-68582403D01*
X159201580Y-68590000D01*
X159098420Y-68590000D01*
X159021293Y-68582403D01*
X158944164Y-68574807D01*
X158746238Y-68514767D01*
X158746235Y-68514766D01*
X158563830Y-68417268D01*
X158403945Y-68286055D01*
X158272732Y-68126170D01*
X158175234Y-67943765D01*
X158175233Y-67943762D01*
X158115193Y-67745836D01*
X158094920Y-67540000D01*
X158115193Y-67334164D01*
X158175233Y-67136238D01*
X158175234Y-67136235D01*
X158272732Y-66953830D01*
X158403945Y-66793945D01*
X158563830Y-66662732D01*
X158746235Y-66565234D01*
X158746238Y-66565233D01*
X158944164Y-66505193D01*
X159021293Y-66497596D01*
X159098420Y-66490000D01*
X159201580Y-66490000D01*
X159278707Y-66497596D01*
X159278707Y-66497596D01*
G37*
G36*
X126208000Y-66066000D02*
G01*
X124108000Y-66066000D01*
X124108000Y-63966000D01*
X126208000Y-63966000D01*
X126208000Y-66066000D01*
X126208000Y-66066000D01*
G37*
G36*
X127826707Y-63973596D02*
G01*
X127903836Y-63981193D01*
X128101762Y-64041233D01*
X128101765Y-64041234D01*
X128284170Y-64138732D01*
X128444055Y-64269945D01*
X128575268Y-64429830D01*
X128672766Y-64612235D01*
X128672767Y-64612238D01*
X128732807Y-64810164D01*
X128753080Y-65016000D01*
X128732807Y-65221836D01*
X128672767Y-65419762D01*
X128672766Y-65419765D01*
X128575268Y-65602170D01*
X128444055Y-65762055D01*
X128284170Y-65893268D01*
X128101765Y-65990766D01*
X128101762Y-65990767D01*
X127903836Y-66050807D01*
X127826707Y-66058404D01*
X127749580Y-66066000D01*
X127646420Y-66066000D01*
X127569293Y-66058404D01*
X127492164Y-66050807D01*
X127294238Y-65990767D01*
X127294235Y-65990766D01*
X127111830Y-65893268D01*
X126951945Y-65762055D01*
X126820732Y-65602170D01*
X126723234Y-65419765D01*
X126723233Y-65419762D01*
X126663193Y-65221836D01*
X126642920Y-65016000D01*
X126663193Y-64810164D01*
X126723233Y-64612238D01*
X126723234Y-64612235D01*
X126820732Y-64429830D01*
X126951945Y-64269945D01*
X127111830Y-64138732D01*
X127294235Y-64041234D01*
X127294238Y-64041233D01*
X127492164Y-63981193D01*
X127569293Y-63973596D01*
X127646420Y-63966000D01*
X127749580Y-63966000D01*
X127826707Y-63973596D01*
X127826707Y-63973596D01*
G37*
G36*
X130366707Y-63973596D02*
G01*
X130443836Y-63981193D01*
X130641762Y-64041233D01*
X130641765Y-64041234D01*
X130824170Y-64138732D01*
X130984055Y-64269945D01*
X131115268Y-64429830D01*
X131212766Y-64612235D01*
X131212767Y-64612238D01*
X131272807Y-64810164D01*
X131293080Y-65016000D01*
X131272807Y-65221836D01*
X131212767Y-65419762D01*
X131212766Y-65419765D01*
X131115268Y-65602170D01*
X130984055Y-65762055D01*
X130824170Y-65893268D01*
X130641765Y-65990766D01*
X130641762Y-65990767D01*
X130443836Y-66050807D01*
X130366707Y-66058404D01*
X130289580Y-66066000D01*
X130186420Y-66066000D01*
X130109293Y-66058404D01*
X130032164Y-66050807D01*
X129834238Y-65990767D01*
X129834235Y-65990766D01*
X129651830Y-65893268D01*
X129491945Y-65762055D01*
X129360732Y-65602170D01*
X129263234Y-65419765D01*
X129263233Y-65419762D01*
X129203193Y-65221836D01*
X129182920Y-65016000D01*
X129203193Y-64810164D01*
X129263233Y-64612238D01*
X129263234Y-64612235D01*
X129360732Y-64429830D01*
X129491945Y-64269945D01*
X129651830Y-64138732D01*
X129834235Y-64041234D01*
X129834238Y-64041233D01*
X130032164Y-63981193D01*
X130109293Y-63973596D01*
X130186420Y-63966000D01*
X130289580Y-63966000D01*
X130366707Y-63973596D01*
X130366707Y-63973596D01*
G37*
G36*
X132906707Y-63973596D02*
G01*
X132983836Y-63981193D01*
X133181762Y-64041233D01*
X133181765Y-64041234D01*
X133364170Y-64138732D01*
X133524055Y-64269945D01*
X133655268Y-64429830D01*
X133752766Y-64612235D01*
X133752767Y-64612238D01*
X133812807Y-64810164D01*
X133833080Y-65016000D01*
X133812807Y-65221836D01*
X133752767Y-65419762D01*
X133752766Y-65419765D01*
X133655268Y-65602170D01*
X133524055Y-65762055D01*
X133364170Y-65893268D01*
X133181765Y-65990766D01*
X133181762Y-65990767D01*
X132983836Y-66050807D01*
X132906707Y-66058404D01*
X132829580Y-66066000D01*
X132726420Y-66066000D01*
X132649293Y-66058404D01*
X132572164Y-66050807D01*
X132374238Y-65990767D01*
X132374235Y-65990766D01*
X132191830Y-65893268D01*
X132031945Y-65762055D01*
X131900732Y-65602170D01*
X131803234Y-65419765D01*
X131803233Y-65419762D01*
X131743193Y-65221836D01*
X131722920Y-65016000D01*
X131743193Y-64810164D01*
X131803233Y-64612238D01*
X131803234Y-64612235D01*
X131900732Y-64429830D01*
X132031945Y-64269945D01*
X132191830Y-64138732D01*
X132374235Y-64041234D01*
X132374238Y-64041233D01*
X132572164Y-63981193D01*
X132649293Y-63973596D01*
X132726420Y-63966000D01*
X132829580Y-63966000D01*
X132906707Y-63973596D01*
X132906707Y-63973596D01*
G37*
G36*
X135446707Y-63973596D02*
G01*
X135523836Y-63981193D01*
X135721762Y-64041233D01*
X135721765Y-64041234D01*
X135904170Y-64138732D01*
X136064055Y-64269945D01*
X136195268Y-64429830D01*
X136292766Y-64612235D01*
X136292767Y-64612238D01*
X136352807Y-64810164D01*
X136373080Y-65016000D01*
X136352807Y-65221836D01*
X136292767Y-65419762D01*
X136292766Y-65419765D01*
X136195268Y-65602170D01*
X136064055Y-65762055D01*
X135904170Y-65893268D01*
X135721765Y-65990766D01*
X135721762Y-65990767D01*
X135523836Y-66050807D01*
X135446707Y-66058404D01*
X135369580Y-66066000D01*
X135266420Y-66066000D01*
X135189293Y-66058404D01*
X135112164Y-66050807D01*
X134914238Y-65990767D01*
X134914235Y-65990766D01*
X134731830Y-65893268D01*
X134571945Y-65762055D01*
X134440732Y-65602170D01*
X134343234Y-65419765D01*
X134343233Y-65419762D01*
X134283193Y-65221836D01*
X134262920Y-65016000D01*
X134283193Y-64810164D01*
X134343233Y-64612238D01*
X134343234Y-64612235D01*
X134440732Y-64429830D01*
X134571945Y-64269945D01*
X134731830Y-64138732D01*
X134914235Y-64041234D01*
X134914238Y-64041233D01*
X135112164Y-63981193D01*
X135189293Y-63973596D01*
X135266420Y-63966000D01*
X135369580Y-63966000D01*
X135446707Y-63973596D01*
X135446707Y-63973596D01*
G37*
G36*
X137986707Y-63973596D02*
G01*
X138063836Y-63981193D01*
X138261762Y-64041233D01*
X138261765Y-64041234D01*
X138444170Y-64138732D01*
X138604055Y-64269945D01*
X138735268Y-64429830D01*
X138832766Y-64612235D01*
X138832767Y-64612238D01*
X138892807Y-64810164D01*
X138913080Y-65016000D01*
X138892807Y-65221836D01*
X138832767Y-65419762D01*
X138832766Y-65419765D01*
X138735268Y-65602170D01*
X138604055Y-65762055D01*
X138444170Y-65893268D01*
X138261765Y-65990766D01*
X138261762Y-65990767D01*
X138063836Y-66050807D01*
X137986707Y-66058404D01*
X137909580Y-66066000D01*
X137806420Y-66066000D01*
X137729293Y-66058404D01*
X137652164Y-66050807D01*
X137454238Y-65990767D01*
X137454235Y-65990766D01*
X137271830Y-65893268D01*
X137111945Y-65762055D01*
X136980732Y-65602170D01*
X136883234Y-65419765D01*
X136883233Y-65419762D01*
X136823193Y-65221836D01*
X136802920Y-65016000D01*
X136823193Y-64810164D01*
X136883233Y-64612238D01*
X136883234Y-64612235D01*
X136980732Y-64429830D01*
X137111945Y-64269945D01*
X137271830Y-64138732D01*
X137454235Y-64041234D01*
X137454238Y-64041233D01*
X137652164Y-63981193D01*
X137729293Y-63973596D01*
X137806420Y-63966000D01*
X137909580Y-63966000D01*
X137986707Y-63973596D01*
X137986707Y-63973596D01*
G37*
G36*
X143066707Y-63973596D02*
G01*
X143143836Y-63981193D01*
X143341762Y-64041233D01*
X143341765Y-64041234D01*
X143524170Y-64138732D01*
X143684055Y-64269945D01*
X143815268Y-64429830D01*
X143912766Y-64612235D01*
X143912767Y-64612238D01*
X143972807Y-64810164D01*
X143993080Y-65016000D01*
X143972807Y-65221836D01*
X143912767Y-65419762D01*
X143912766Y-65419765D01*
X143815268Y-65602170D01*
X143684055Y-65762055D01*
X143524170Y-65893268D01*
X143341765Y-65990766D01*
X143341762Y-65990767D01*
X143143836Y-66050807D01*
X143066707Y-66058404D01*
X142989580Y-66066000D01*
X142886420Y-66066000D01*
X142809293Y-66058404D01*
X142732164Y-66050807D01*
X142534238Y-65990767D01*
X142534235Y-65990766D01*
X142351830Y-65893268D01*
X142191945Y-65762055D01*
X142060732Y-65602170D01*
X141963234Y-65419765D01*
X141963233Y-65419762D01*
X141903193Y-65221836D01*
X141882920Y-65016000D01*
X141903193Y-64810164D01*
X141963233Y-64612238D01*
X141963234Y-64612235D01*
X142060732Y-64429830D01*
X142191945Y-64269945D01*
X142351830Y-64138732D01*
X142534235Y-64041234D01*
X142534238Y-64041233D01*
X142732164Y-63981193D01*
X142809293Y-63973596D01*
X142886420Y-63966000D01*
X142989580Y-63966000D01*
X143066707Y-63973596D01*
X143066707Y-63973596D01*
G37*
G36*
X140526707Y-63973596D02*
G01*
X140603836Y-63981193D01*
X140801762Y-64041233D01*
X140801765Y-64041234D01*
X140984170Y-64138732D01*
X141144055Y-64269945D01*
X141275268Y-64429830D01*
X141372766Y-64612235D01*
X141372767Y-64612238D01*
X141432807Y-64810164D01*
X141453080Y-65016000D01*
X141432807Y-65221836D01*
X141372767Y-65419762D01*
X141372766Y-65419765D01*
X141275268Y-65602170D01*
X141144055Y-65762055D01*
X140984170Y-65893268D01*
X140801765Y-65990766D01*
X140801762Y-65990767D01*
X140603836Y-66050807D01*
X140526707Y-66058404D01*
X140449580Y-66066000D01*
X140346420Y-66066000D01*
X140269293Y-66058404D01*
X140192164Y-66050807D01*
X139994238Y-65990767D01*
X139994235Y-65990766D01*
X139811830Y-65893268D01*
X139651945Y-65762055D01*
X139520732Y-65602170D01*
X139423234Y-65419765D01*
X139423233Y-65419762D01*
X139363193Y-65221836D01*
X139342920Y-65016000D01*
X139363193Y-64810164D01*
X139423233Y-64612238D01*
X139423234Y-64612235D01*
X139520732Y-64429830D01*
X139651945Y-64269945D01*
X139811830Y-64138732D01*
X139994235Y-64041234D01*
X139994238Y-64041233D01*
X140192164Y-63981193D01*
X140269293Y-63973596D01*
X140346420Y-63966000D01*
X140449580Y-63966000D01*
X140526707Y-63973596D01*
X140526707Y-63973596D01*
G37*
G36*
X152100604Y-63078968D02*
G01*
X152275678Y-63151486D01*
X152275679Y-63151487D01*
X152433237Y-63256763D01*
X152567237Y-63390763D01*
X152655007Y-63522121D01*
X152672514Y-63548322D01*
X152708772Y-63635858D01*
X152745032Y-63723396D01*
X152782000Y-63909250D01*
X152782000Y-64098750D01*
X152745032Y-64284604D01*
X152672514Y-64459678D01*
X152672513Y-64459679D01*
X152567237Y-64617237D01*
X152433237Y-64751237D01*
X152301879Y-64839007D01*
X152275678Y-64856514D01*
X152100604Y-64929032D01*
X151914750Y-64966000D01*
X151725250Y-64966000D01*
X151539396Y-64929032D01*
X151364322Y-64856514D01*
X151338121Y-64839007D01*
X151206763Y-64751237D01*
X151072763Y-64617237D01*
X150967487Y-64459679D01*
X150967486Y-64459678D01*
X150894968Y-64284604D01*
X150858000Y-64098750D01*
X150858000Y-63909250D01*
X150894968Y-63723396D01*
X150967486Y-63548322D01*
X150984993Y-63522121D01*
X151072763Y-63390763D01*
X151206763Y-63256763D01*
X151364321Y-63151487D01*
X151364322Y-63151486D01*
X151539396Y-63078968D01*
X151725250Y-63042000D01*
X151914750Y-63042000D01*
X152100604Y-63078968D01*
X152100604Y-63078968D01*
G37*
G36*
X152100604Y-60538968D02*
G01*
X152188142Y-60575228D01*
X152275678Y-60611486D01*
X152275679Y-60611487D01*
X152433237Y-60716763D01*
X152567237Y-60850763D01*
X152655007Y-60982121D01*
X152672514Y-61008322D01*
X152745032Y-61183396D01*
X152782000Y-61369250D01*
X152782000Y-61558750D01*
X152745032Y-61744604D01*
X152672514Y-61919678D01*
X152672513Y-61919679D01*
X152567237Y-62077237D01*
X152433237Y-62211237D01*
X152301879Y-62299007D01*
X152275678Y-62316514D01*
X152188142Y-62352772D01*
X152100604Y-62389032D01*
X151914750Y-62426000D01*
X151725250Y-62426000D01*
X151539396Y-62389032D01*
X151451858Y-62352772D01*
X151364322Y-62316514D01*
X151338121Y-62299007D01*
X151206763Y-62211237D01*
X151072763Y-62077237D01*
X150967487Y-61919679D01*
X150967486Y-61919678D01*
X150894968Y-61744604D01*
X150858000Y-61558750D01*
X150858000Y-61369250D01*
X150894968Y-61183396D01*
X150967486Y-61008322D01*
X150984993Y-60982121D01*
X151072763Y-60850763D01*
X151206763Y-60716763D01*
X151364321Y-60611487D01*
X151364322Y-60611486D01*
X151451858Y-60575228D01*
X151539396Y-60538968D01*
X151725250Y-60502000D01*
X151914750Y-60502000D01*
X152100604Y-60538968D01*
X152100604Y-60538968D01*
G37*
G36*
X157440026Y-59726115D02*
G01*
X157658411Y-59816573D01*
X157658413Y-59816574D01*
X157854955Y-59947899D01*
X158022101Y-60115045D01*
X158153427Y-60311589D01*
X158243885Y-60529974D01*
X158290000Y-60761809D01*
X158290000Y-60998191D01*
X158243885Y-61230026D01*
X158186216Y-61369251D01*
X158153426Y-61448413D01*
X158022101Y-61644955D01*
X157854955Y-61812101D01*
X157658413Y-61943426D01*
X157658412Y-61943427D01*
X157658411Y-61943427D01*
X157440026Y-62033885D01*
X157208191Y-62080000D01*
X156971809Y-62080000D01*
X156739974Y-62033885D01*
X156521589Y-61943427D01*
X156521588Y-61943427D01*
X156521587Y-61943426D01*
X156325045Y-61812101D01*
X156157899Y-61644955D01*
X156026574Y-61448413D01*
X155993784Y-61369251D01*
X155936115Y-61230026D01*
X155890000Y-60998191D01*
X155890000Y-60761809D01*
X155936115Y-60529974D01*
X156026573Y-60311589D01*
X156157899Y-60115045D01*
X156325045Y-59947899D01*
X156521587Y-59816574D01*
X156521589Y-59816573D01*
X156739974Y-59726115D01*
X156971809Y-59680000D01*
X157208191Y-59680000D01*
X157440026Y-59726115D01*
X157440026Y-59726115D01*
G37*
G36*
X162440026Y-59726115D02*
G01*
X162658411Y-59816573D01*
X162658413Y-59816574D01*
X162854955Y-59947899D01*
X163022101Y-60115045D01*
X163153427Y-60311589D01*
X163243885Y-60529974D01*
X163290000Y-60761809D01*
X163290000Y-60998191D01*
X163243885Y-61230026D01*
X163186216Y-61369251D01*
X163153426Y-61448413D01*
X163022101Y-61644955D01*
X162854955Y-61812101D01*
X162658413Y-61943426D01*
X162658412Y-61943427D01*
X162658411Y-61943427D01*
X162440026Y-62033885D01*
X162208191Y-62080000D01*
X161971809Y-62080000D01*
X161739974Y-62033885D01*
X161521589Y-61943427D01*
X161521588Y-61943427D01*
X161521587Y-61943426D01*
X161325045Y-61812101D01*
X161157899Y-61644955D01*
X161026574Y-61448413D01*
X160993784Y-61369251D01*
X160936115Y-61230026D01*
X160890000Y-60998191D01*
X160890000Y-60761809D01*
X160936115Y-60529974D01*
X161026573Y-60311589D01*
X161157899Y-60115045D01*
X161325045Y-59947899D01*
X161521587Y-59816574D01*
X161521589Y-59816573D01*
X161739974Y-59726115D01*
X161971809Y-59680000D01*
X162208191Y-59680000D01*
X162440026Y-59726115D01*
X162440026Y-59726115D01*
G37*
G36*
X152100604Y-58008968D02*
G01*
X152188142Y-58045228D01*
X152275678Y-58081486D01*
X152275679Y-58081487D01*
X152433237Y-58186763D01*
X152567237Y-58320763D01*
X152652528Y-58448411D01*
X152672514Y-58478322D01*
X152745032Y-58653396D01*
X152782000Y-58839250D01*
X152782000Y-59028750D01*
X152745032Y-59214604D01*
X152708772Y-59302142D01*
X152672514Y-59389678D01*
X152672513Y-59389679D01*
X152567237Y-59547237D01*
X152433237Y-59681237D01*
X152301879Y-59769007D01*
X152275678Y-59786514D01*
X152203106Y-59816574D01*
X152100604Y-59859032D01*
X151914750Y-59896000D01*
X151725250Y-59896000D01*
X151539396Y-59859032D01*
X151436894Y-59816574D01*
X151364322Y-59786514D01*
X151338121Y-59769007D01*
X151206763Y-59681237D01*
X151072763Y-59547237D01*
X150967487Y-59389679D01*
X150967486Y-59389678D01*
X150931228Y-59302142D01*
X150894968Y-59214604D01*
X150858000Y-59028750D01*
X150858000Y-58839250D01*
X150894968Y-58653396D01*
X150967486Y-58478322D01*
X150987472Y-58448411D01*
X151072763Y-58320763D01*
X151206763Y-58186763D01*
X151364321Y-58081487D01*
X151364322Y-58081486D01*
X151539396Y-58008968D01*
X151725250Y-57972000D01*
X151914750Y-57972000D01*
X152100604Y-58008968D01*
X152100604Y-58008968D01*
G37*
G36*
X104650000Y-59704000D02*
G01*
X102550000Y-59704000D01*
X102550000Y-57604000D01*
X104650000Y-57604000D01*
X104650000Y-59704000D01*
X104650000Y-59704000D01*
G37*
G36*
X162440026Y-56726115D02*
G01*
X162658411Y-56816573D01*
X162658413Y-56816574D01*
X162723487Y-56860055D01*
X162854955Y-56947899D01*
X163022101Y-57115045D01*
X163153427Y-57311589D01*
X163243885Y-57529974D01*
X163290000Y-57761809D01*
X163290000Y-57998191D01*
X163243885Y-58230026D01*
X163153427Y-58448411D01*
X163153426Y-58448413D01*
X163022101Y-58644955D01*
X162854955Y-58812101D01*
X162658413Y-58943426D01*
X162658412Y-58943427D01*
X162658411Y-58943427D01*
X162440026Y-59033885D01*
X162208191Y-59080000D01*
X161971809Y-59080000D01*
X161739974Y-59033885D01*
X161521589Y-58943427D01*
X161521588Y-58943427D01*
X161521587Y-58943426D01*
X161325045Y-58812101D01*
X161157899Y-58644955D01*
X161026574Y-58448413D01*
X161026573Y-58448411D01*
X160936115Y-58230026D01*
X160890000Y-57998191D01*
X160890000Y-57761809D01*
X160936115Y-57529974D01*
X161026573Y-57311589D01*
X161157899Y-57115045D01*
X161325045Y-56947899D01*
X161456513Y-56860055D01*
X161521587Y-56816574D01*
X161521589Y-56816573D01*
X161739974Y-56726115D01*
X161971809Y-56680000D01*
X162208191Y-56680000D01*
X162440026Y-56726115D01*
X162440026Y-56726115D01*
G37*
G36*
X157440026Y-56726115D02*
G01*
X157658411Y-56816573D01*
X157658413Y-56816574D01*
X157723487Y-56860055D01*
X157854955Y-56947899D01*
X158022101Y-57115045D01*
X158153427Y-57311589D01*
X158243885Y-57529974D01*
X158290000Y-57761809D01*
X158290000Y-57998191D01*
X158243885Y-58230026D01*
X158153427Y-58448411D01*
X158153426Y-58448413D01*
X158022101Y-58644955D01*
X157854955Y-58812101D01*
X157658413Y-58943426D01*
X157658412Y-58943427D01*
X157658411Y-58943427D01*
X157440026Y-59033885D01*
X157208191Y-59080000D01*
X156971809Y-59080000D01*
X156739974Y-59033885D01*
X156521589Y-58943427D01*
X156521588Y-58943427D01*
X156521587Y-58943426D01*
X156325045Y-58812101D01*
X156157899Y-58644955D01*
X156026574Y-58448413D01*
X156026573Y-58448411D01*
X155936115Y-58230026D01*
X155890000Y-57998191D01*
X155890000Y-57761809D01*
X155936115Y-57529974D01*
X156026573Y-57311589D01*
X156157899Y-57115045D01*
X156325045Y-56947899D01*
X156456513Y-56860055D01*
X156521587Y-56816574D01*
X156521589Y-56816573D01*
X156739974Y-56726115D01*
X156971809Y-56680000D01*
X157208191Y-56680000D01*
X157440026Y-56726115D01*
X157440026Y-56726115D01*
G37*
G36*
X152782000Y-57356000D02*
G01*
X150858000Y-57356000D01*
X150858000Y-55432000D01*
X152782000Y-55432000D01*
X152782000Y-57356000D01*
X152782000Y-57356000D01*
G37*
G36*
X103728707Y-55071597D02*
G01*
X103805836Y-55079193D01*
X104003762Y-55139233D01*
X104003765Y-55139234D01*
X104186170Y-55236732D01*
X104346055Y-55367945D01*
X104477268Y-55527830D01*
X104574766Y-55710235D01*
X104574767Y-55710238D01*
X104634807Y-55908164D01*
X104655080Y-56114000D01*
X104634807Y-56319836D01*
X104574767Y-56517762D01*
X104574766Y-56517765D01*
X104477268Y-56700170D01*
X104346055Y-56860055D01*
X104186170Y-56991268D01*
X104003765Y-57088766D01*
X104003762Y-57088767D01*
X103805836Y-57148807D01*
X103728707Y-57156404D01*
X103651580Y-57164000D01*
X103548420Y-57164000D01*
X103471293Y-57156404D01*
X103394164Y-57148807D01*
X103196238Y-57088767D01*
X103196235Y-57088766D01*
X103013830Y-56991268D01*
X102853945Y-56860055D01*
X102722732Y-56700170D01*
X102625234Y-56517765D01*
X102625233Y-56517762D01*
X102565193Y-56319836D01*
X102544920Y-56114000D01*
X102565193Y-55908164D01*
X102625233Y-55710238D01*
X102625234Y-55710235D01*
X102722732Y-55527830D01*
X102853945Y-55367945D01*
X103013830Y-55236732D01*
X103196235Y-55139234D01*
X103196238Y-55139233D01*
X103394164Y-55079193D01*
X103471293Y-55071597D01*
X103548420Y-55064000D01*
X103651580Y-55064000D01*
X103728707Y-55071597D01*
X103728707Y-55071597D01*
G37*
G36*
X157440026Y-53526115D02*
G01*
X157658411Y-53616573D01*
X157658413Y-53616574D01*
X157854955Y-53747899D01*
X158022101Y-53915045D01*
X158153427Y-54111589D01*
X158243885Y-54329974D01*
X158290000Y-54561809D01*
X158290000Y-54798191D01*
X158243885Y-55030026D01*
X158158264Y-55236733D01*
X158153426Y-55248413D01*
X158022101Y-55444955D01*
X157854955Y-55612101D01*
X157658413Y-55743426D01*
X157658412Y-55743427D01*
X157658411Y-55743427D01*
X157440026Y-55833885D01*
X157208191Y-55880000D01*
X156971809Y-55880000D01*
X156739974Y-55833885D01*
X156521589Y-55743427D01*
X156521588Y-55743427D01*
X156521587Y-55743426D01*
X156325045Y-55612101D01*
X156157899Y-55444955D01*
X156026574Y-55248413D01*
X156021736Y-55236733D01*
X155936115Y-55030026D01*
X155890000Y-54798191D01*
X155890000Y-54561809D01*
X155936115Y-54329974D01*
X156026573Y-54111589D01*
X156157899Y-53915045D01*
X156325045Y-53747899D01*
X156521587Y-53616574D01*
X156521589Y-53616573D01*
X156739974Y-53526115D01*
X156971809Y-53480000D01*
X157208191Y-53480000D01*
X157440026Y-53526115D01*
X157440026Y-53526115D01*
G37*
G36*
X162440026Y-53526115D02*
G01*
X162658411Y-53616573D01*
X162658413Y-53616574D01*
X162854955Y-53747899D01*
X163022101Y-53915045D01*
X163153427Y-54111589D01*
X163243885Y-54329974D01*
X163290000Y-54561809D01*
X163290000Y-54798191D01*
X163243885Y-55030026D01*
X163158264Y-55236733D01*
X163153426Y-55248413D01*
X163022101Y-55444955D01*
X162854955Y-55612101D01*
X162658413Y-55743426D01*
X162658412Y-55743427D01*
X162658411Y-55743427D01*
X162440026Y-55833885D01*
X162208191Y-55880000D01*
X161971809Y-55880000D01*
X161739974Y-55833885D01*
X161521589Y-55743427D01*
X161521588Y-55743427D01*
X161521587Y-55743426D01*
X161325045Y-55612101D01*
X161157899Y-55444955D01*
X161026574Y-55248413D01*
X161021736Y-55236733D01*
X160936115Y-55030026D01*
X160890000Y-54798191D01*
X160890000Y-54561809D01*
X160936115Y-54329974D01*
X161026573Y-54111589D01*
X161157899Y-53915045D01*
X161325045Y-53747899D01*
X161521587Y-53616574D01*
X161521589Y-53616573D01*
X161739974Y-53526115D01*
X161971809Y-53480000D01*
X162208191Y-53480000D01*
X162440026Y-53526115D01*
X162440026Y-53526115D01*
G37*
G36*
X103728707Y-52531597D02*
G01*
X103805836Y-52539193D01*
X104003762Y-52599233D01*
X104003765Y-52599234D01*
X104186170Y-52696732D01*
X104346055Y-52827945D01*
X104477268Y-52987830D01*
X104574766Y-53170235D01*
X104574767Y-53170238D01*
X104634807Y-53368164D01*
X104655080Y-53574000D01*
X104634807Y-53779836D01*
X104593792Y-53915045D01*
X104574766Y-53977765D01*
X104477268Y-54160170D01*
X104346055Y-54320055D01*
X104186170Y-54451268D01*
X104003765Y-54548766D01*
X104003762Y-54548767D01*
X103805836Y-54608807D01*
X103728707Y-54616403D01*
X103651580Y-54624000D01*
X103548420Y-54624000D01*
X103471293Y-54616403D01*
X103394164Y-54608807D01*
X103196238Y-54548767D01*
X103196235Y-54548766D01*
X103013830Y-54451268D01*
X102853945Y-54320055D01*
X102722732Y-54160170D01*
X102625234Y-53977765D01*
X102606208Y-53915045D01*
X102565193Y-53779836D01*
X102544920Y-53574000D01*
X102565193Y-53368164D01*
X102625233Y-53170238D01*
X102625234Y-53170235D01*
X102722732Y-52987830D01*
X102853945Y-52827945D01*
X103013830Y-52696732D01*
X103196235Y-52599234D01*
X103196238Y-52599233D01*
X103394164Y-52539193D01*
X103471293Y-52531597D01*
X103548420Y-52524000D01*
X103651580Y-52524000D01*
X103728707Y-52531597D01*
X103728707Y-52531597D01*
G37*
G36*
X162440026Y-50526115D02*
G01*
X162658411Y-50616573D01*
X162658413Y-50616574D01*
X162705445Y-50648000D01*
X162854955Y-50747899D01*
X163022101Y-50915045D01*
X163153427Y-51111589D01*
X163243885Y-51329974D01*
X163290000Y-51561809D01*
X163290000Y-51798191D01*
X163243885Y-52030026D01*
X163153427Y-52248411D01*
X163153426Y-52248413D01*
X163022101Y-52444955D01*
X162854955Y-52612101D01*
X162658413Y-52743426D01*
X162658412Y-52743427D01*
X162658411Y-52743427D01*
X162440026Y-52833885D01*
X162208191Y-52880000D01*
X161971809Y-52880000D01*
X161739974Y-52833885D01*
X161521589Y-52743427D01*
X161521588Y-52743427D01*
X161521587Y-52743426D01*
X161325045Y-52612101D01*
X161157899Y-52444955D01*
X161026574Y-52248413D01*
X161026573Y-52248411D01*
X160936115Y-52030026D01*
X160890000Y-51798191D01*
X160890000Y-51561809D01*
X160936115Y-51329974D01*
X161026573Y-51111589D01*
X161157899Y-50915045D01*
X161325045Y-50747899D01*
X161474555Y-50648000D01*
X161521587Y-50616574D01*
X161521589Y-50616573D01*
X161739974Y-50526115D01*
X161971809Y-50480000D01*
X162208191Y-50480000D01*
X162440026Y-50526115D01*
X162440026Y-50526115D01*
G37*
G36*
X157440026Y-50526115D02*
G01*
X157658411Y-50616573D01*
X157658413Y-50616574D01*
X157705445Y-50648000D01*
X157854955Y-50747899D01*
X158022101Y-50915045D01*
X158153427Y-51111589D01*
X158243885Y-51329974D01*
X158290000Y-51561809D01*
X158290000Y-51798191D01*
X158243885Y-52030026D01*
X158153427Y-52248411D01*
X158153426Y-52248413D01*
X158022101Y-52444955D01*
X157854955Y-52612101D01*
X157658413Y-52743426D01*
X157658412Y-52743427D01*
X157658411Y-52743427D01*
X157440026Y-52833885D01*
X157208191Y-52880000D01*
X156971809Y-52880000D01*
X156739974Y-52833885D01*
X156521589Y-52743427D01*
X156521588Y-52743427D01*
X156521587Y-52743426D01*
X156325045Y-52612101D01*
X156157899Y-52444955D01*
X156026574Y-52248413D01*
X156026573Y-52248411D01*
X155936115Y-52030026D01*
X155890000Y-51798191D01*
X155890000Y-51561809D01*
X155936115Y-51329974D01*
X156026573Y-51111589D01*
X156157899Y-50915045D01*
X156325045Y-50747899D01*
X156474555Y-50648000D01*
X156521587Y-50616574D01*
X156521589Y-50616573D01*
X156739974Y-50526115D01*
X156971809Y-50480000D01*
X157208191Y-50480000D01*
X157440026Y-50526115D01*
X157440026Y-50526115D01*
G37*
G36*
X132850604Y-50684968D02*
G01*
X132938142Y-50721228D01*
X133025678Y-50757486D01*
X133025679Y-50757487D01*
X133183237Y-50862763D01*
X133317237Y-50996763D01*
X133405007Y-51128121D01*
X133422514Y-51154322D01*
X133458772Y-51241858D01*
X133495032Y-51329396D01*
X133532000Y-51515250D01*
X133532000Y-51704750D01*
X133495032Y-51890604D01*
X133422514Y-52065678D01*
X133422513Y-52065679D01*
X133317237Y-52223237D01*
X133183237Y-52357237D01*
X133051957Y-52444955D01*
X133025678Y-52462514D01*
X132850604Y-52535032D01*
X132664750Y-52572000D01*
X132475250Y-52572000D01*
X132289396Y-52535032D01*
X132201858Y-52498772D01*
X132114322Y-52462514D01*
X132088043Y-52444955D01*
X131956763Y-52357237D01*
X131822763Y-52223237D01*
X131717487Y-52065679D01*
X131717486Y-52065678D01*
X131644968Y-51890604D01*
X131608000Y-51704750D01*
X131608000Y-51515250D01*
X131644968Y-51329396D01*
X131717486Y-51154322D01*
X131734993Y-51128121D01*
X131822763Y-50996763D01*
X131956763Y-50862763D01*
X132114321Y-50757487D01*
X132114322Y-50757486D01*
X132201858Y-50721228D01*
X132289396Y-50684968D01*
X132475250Y-50648000D01*
X132664750Y-50648000D01*
X132850604Y-50684968D01*
X132850604Y-50684968D01*
G37*
G36*
X137890604Y-50684968D02*
G01*
X137978142Y-50721228D01*
X138065678Y-50757486D01*
X138065679Y-50757487D01*
X138223237Y-50862763D01*
X138357237Y-50996763D01*
X138445007Y-51128121D01*
X138462514Y-51154322D01*
X138498772Y-51241858D01*
X138535032Y-51329396D01*
X138572000Y-51515250D01*
X138572000Y-51704750D01*
X138535032Y-51890604D01*
X138462514Y-52065678D01*
X138462513Y-52065679D01*
X138357237Y-52223237D01*
X138223237Y-52357237D01*
X138091957Y-52444955D01*
X138065678Y-52462514D01*
X137890604Y-52535032D01*
X137704750Y-52572000D01*
X137515250Y-52572000D01*
X137329396Y-52535032D01*
X137241858Y-52498772D01*
X137154322Y-52462514D01*
X137128043Y-52444955D01*
X136996763Y-52357237D01*
X136862763Y-52223237D01*
X136757487Y-52065679D01*
X136757486Y-52065678D01*
X136684968Y-51890604D01*
X136648000Y-51704750D01*
X136648000Y-51515250D01*
X136684968Y-51329396D01*
X136757486Y-51154322D01*
X136774993Y-51128121D01*
X136862763Y-50996763D01*
X136996763Y-50862763D01*
X137154321Y-50757487D01*
X137154322Y-50757486D01*
X137241858Y-50721228D01*
X137329396Y-50684968D01*
X137515250Y-50648000D01*
X137704750Y-50648000D01*
X137890604Y-50684968D01*
X137890604Y-50684968D01*
G37*
G36*
X135370604Y-50684968D02*
G01*
X135458142Y-50721228D01*
X135545678Y-50757486D01*
X135545679Y-50757487D01*
X135703237Y-50862763D01*
X135837237Y-50996763D01*
X135925007Y-51128121D01*
X135942514Y-51154322D01*
X135978772Y-51241858D01*
X136015032Y-51329396D01*
X136052000Y-51515250D01*
X136052000Y-51704750D01*
X136015032Y-51890604D01*
X135942514Y-52065678D01*
X135942513Y-52065679D01*
X135837237Y-52223237D01*
X135703237Y-52357237D01*
X135571957Y-52444955D01*
X135545678Y-52462514D01*
X135370604Y-52535032D01*
X135184750Y-52572000D01*
X134995250Y-52572000D01*
X134809396Y-52535032D01*
X134721858Y-52498772D01*
X134634322Y-52462514D01*
X134608043Y-52444955D01*
X134476763Y-52357237D01*
X134342763Y-52223237D01*
X134237487Y-52065679D01*
X134237486Y-52065678D01*
X134164968Y-51890604D01*
X134128000Y-51704750D01*
X134128000Y-51515250D01*
X134164968Y-51329396D01*
X134237486Y-51154322D01*
X134254993Y-51128121D01*
X134342763Y-50996763D01*
X134476763Y-50862763D01*
X134634321Y-50757487D01*
X134634322Y-50757486D01*
X134721858Y-50721228D01*
X134809396Y-50684968D01*
X134995250Y-50648000D01*
X135184750Y-50648000D01*
X135370604Y-50684968D01*
X135370604Y-50684968D01*
G37*
G36*
X130972000Y-52572000D02*
G01*
X129048000Y-52572000D01*
X129048000Y-50648000D01*
X130972000Y-50648000D01*
X130972000Y-52572000D01*
X130972000Y-52572000D01*
G37*
G36*
X138998707Y-47247597D02*
G01*
X139075836Y-47255193D01*
X139273762Y-47315233D01*
X139273765Y-47315234D01*
X139456170Y-47412732D01*
X139616055Y-47543945D01*
X139747268Y-47703830D01*
X139844766Y-47886235D01*
X139844767Y-47886238D01*
X139904807Y-48084164D01*
X139925080Y-48290000D01*
X139904807Y-48495836D01*
X139885343Y-48560000D01*
X139844766Y-48693765D01*
X139747268Y-48876170D01*
X139616055Y-49036055D01*
X139456170Y-49167268D01*
X139273765Y-49264766D01*
X139273762Y-49264767D01*
X139075836Y-49324807D01*
X138998707Y-49332404D01*
X138921580Y-49340000D01*
X138818420Y-49340000D01*
X138741293Y-49332404D01*
X138664164Y-49324807D01*
X138466238Y-49264767D01*
X138466235Y-49264766D01*
X138283830Y-49167268D01*
X138123945Y-49036055D01*
X137992732Y-48876170D01*
X137895234Y-48693765D01*
X137854657Y-48560000D01*
X137835193Y-48495836D01*
X137814920Y-48290000D01*
X137835193Y-48084164D01*
X137895233Y-47886238D01*
X137895234Y-47886235D01*
X137992732Y-47703830D01*
X138123945Y-47543945D01*
X138283830Y-47412732D01*
X138466235Y-47315234D01*
X138466238Y-47315233D01*
X138664164Y-47255193D01*
X138741293Y-47247597D01*
X138818420Y-47240000D01*
X138921580Y-47240000D01*
X138998707Y-47247597D01*
X138998707Y-47247597D01*
G37*
G36*
X144078707Y-47247597D02*
G01*
X144155836Y-47255193D01*
X144353762Y-47315233D01*
X144353765Y-47315234D01*
X144536170Y-47412732D01*
X144696055Y-47543945D01*
X144827268Y-47703830D01*
X144924766Y-47886235D01*
X144924767Y-47886238D01*
X144984807Y-48084164D01*
X145005080Y-48290000D01*
X144984807Y-48495836D01*
X144965343Y-48560000D01*
X144924766Y-48693765D01*
X144827268Y-48876170D01*
X144696055Y-49036055D01*
X144536170Y-49167268D01*
X144353765Y-49264766D01*
X144353762Y-49264767D01*
X144155836Y-49324807D01*
X144078707Y-49332404D01*
X144001580Y-49340000D01*
X143898420Y-49340000D01*
X143821293Y-49332404D01*
X143744164Y-49324807D01*
X143546238Y-49264767D01*
X143546235Y-49264766D01*
X143363830Y-49167268D01*
X143203945Y-49036055D01*
X143072732Y-48876170D01*
X142975234Y-48693765D01*
X142934657Y-48560000D01*
X142915193Y-48495836D01*
X142894920Y-48290000D01*
X142915193Y-48084164D01*
X142975233Y-47886238D01*
X142975234Y-47886235D01*
X143072732Y-47703830D01*
X143203945Y-47543945D01*
X143363830Y-47412732D01*
X143546235Y-47315234D01*
X143546238Y-47315233D01*
X143744164Y-47255193D01*
X143821293Y-47247597D01*
X143898420Y-47240000D01*
X144001580Y-47240000D01*
X144078707Y-47247597D01*
X144078707Y-47247597D01*
G37*
G36*
X136458707Y-47247597D02*
G01*
X136535836Y-47255193D01*
X136733762Y-47315233D01*
X136733765Y-47315234D01*
X136916170Y-47412732D01*
X137076055Y-47543945D01*
X137207268Y-47703830D01*
X137304766Y-47886235D01*
X137304767Y-47886238D01*
X137364807Y-48084164D01*
X137385080Y-48290000D01*
X137364807Y-48495836D01*
X137345343Y-48560000D01*
X137304766Y-48693765D01*
X137207268Y-48876170D01*
X137076055Y-49036055D01*
X136916170Y-49167268D01*
X136733765Y-49264766D01*
X136733762Y-49264767D01*
X136535836Y-49324807D01*
X136458707Y-49332404D01*
X136381580Y-49340000D01*
X136278420Y-49340000D01*
X136201293Y-49332404D01*
X136124164Y-49324807D01*
X135926238Y-49264767D01*
X135926235Y-49264766D01*
X135743830Y-49167268D01*
X135583945Y-49036055D01*
X135452732Y-48876170D01*
X135355234Y-48693765D01*
X135314657Y-48560000D01*
X135295193Y-48495836D01*
X135274920Y-48290000D01*
X135295193Y-48084164D01*
X135355233Y-47886238D01*
X135355234Y-47886235D01*
X135452732Y-47703830D01*
X135583945Y-47543945D01*
X135743830Y-47412732D01*
X135926235Y-47315234D01*
X135926238Y-47315233D01*
X136124164Y-47255193D01*
X136201293Y-47247597D01*
X136278420Y-47240000D01*
X136381580Y-47240000D01*
X136458707Y-47247597D01*
X136458707Y-47247597D01*
G37*
G36*
X146618707Y-47247597D02*
G01*
X146695836Y-47255193D01*
X146893762Y-47315233D01*
X146893765Y-47315234D01*
X147076170Y-47412732D01*
X147236055Y-47543945D01*
X147367268Y-47703830D01*
X147464766Y-47886235D01*
X147464767Y-47886238D01*
X147524807Y-48084164D01*
X147545080Y-48290000D01*
X147524807Y-48495836D01*
X147505343Y-48560000D01*
X147464766Y-48693765D01*
X147367268Y-48876170D01*
X147236055Y-49036055D01*
X147076170Y-49167268D01*
X146893765Y-49264766D01*
X146893762Y-49264767D01*
X146695836Y-49324807D01*
X146618707Y-49332404D01*
X146541580Y-49340000D01*
X146438420Y-49340000D01*
X146361293Y-49332404D01*
X146284164Y-49324807D01*
X146086238Y-49264767D01*
X146086235Y-49264766D01*
X145903830Y-49167268D01*
X145743945Y-49036055D01*
X145612732Y-48876170D01*
X145515234Y-48693765D01*
X145474657Y-48560000D01*
X145455193Y-48495836D01*
X145434920Y-48290000D01*
X145455193Y-48084164D01*
X145515233Y-47886238D01*
X145515234Y-47886235D01*
X145612732Y-47703830D01*
X145743945Y-47543945D01*
X145903830Y-47412732D01*
X146086235Y-47315234D01*
X146086238Y-47315233D01*
X146284164Y-47255193D01*
X146361293Y-47247597D01*
X146438420Y-47240000D01*
X146541580Y-47240000D01*
X146618707Y-47247597D01*
X146618707Y-47247597D01*
G37*
G36*
X133918707Y-47247597D02*
G01*
X133995836Y-47255193D01*
X134193762Y-47315233D01*
X134193765Y-47315234D01*
X134376170Y-47412732D01*
X134536055Y-47543945D01*
X134667268Y-47703830D01*
X134764766Y-47886235D01*
X134764767Y-47886238D01*
X134824807Y-48084164D01*
X134845080Y-48290000D01*
X134824807Y-48495836D01*
X134805343Y-48560000D01*
X134764766Y-48693765D01*
X134667268Y-48876170D01*
X134536055Y-49036055D01*
X134376170Y-49167268D01*
X134193765Y-49264766D01*
X134193762Y-49264767D01*
X133995836Y-49324807D01*
X133918707Y-49332404D01*
X133841580Y-49340000D01*
X133738420Y-49340000D01*
X133661293Y-49332404D01*
X133584164Y-49324807D01*
X133386238Y-49264767D01*
X133386235Y-49264766D01*
X133203830Y-49167268D01*
X133043945Y-49036055D01*
X132912732Y-48876170D01*
X132815234Y-48693765D01*
X132774657Y-48560000D01*
X132755193Y-48495836D01*
X132734920Y-48290000D01*
X132755193Y-48084164D01*
X132815233Y-47886238D01*
X132815234Y-47886235D01*
X132912732Y-47703830D01*
X133043945Y-47543945D01*
X133203830Y-47412732D01*
X133386235Y-47315234D01*
X133386238Y-47315233D01*
X133584164Y-47255193D01*
X133661293Y-47247597D01*
X133738420Y-47240000D01*
X133841580Y-47240000D01*
X133918707Y-47247597D01*
X133918707Y-47247597D01*
G37*
G36*
X131378707Y-47247597D02*
G01*
X131455836Y-47255193D01*
X131653762Y-47315233D01*
X131653765Y-47315234D01*
X131836170Y-47412732D01*
X131996055Y-47543945D01*
X132127268Y-47703830D01*
X132224766Y-47886235D01*
X132224767Y-47886238D01*
X132284807Y-48084164D01*
X132305080Y-48290000D01*
X132284807Y-48495836D01*
X132265343Y-48560000D01*
X132224766Y-48693765D01*
X132127268Y-48876170D01*
X131996055Y-49036055D01*
X131836170Y-49167268D01*
X131653765Y-49264766D01*
X131653762Y-49264767D01*
X131455836Y-49324807D01*
X131378707Y-49332404D01*
X131301580Y-49340000D01*
X131198420Y-49340000D01*
X131121293Y-49332404D01*
X131044164Y-49324807D01*
X130846238Y-49264767D01*
X130846235Y-49264766D01*
X130663830Y-49167268D01*
X130503945Y-49036055D01*
X130372732Y-48876170D01*
X130275234Y-48693765D01*
X130234657Y-48560000D01*
X130215193Y-48495836D01*
X130194920Y-48290000D01*
X130215193Y-48084164D01*
X130275233Y-47886238D01*
X130275234Y-47886235D01*
X130372732Y-47703830D01*
X130503945Y-47543945D01*
X130663830Y-47412732D01*
X130846235Y-47315234D01*
X130846238Y-47315233D01*
X131044164Y-47255193D01*
X131121293Y-47247597D01*
X131198420Y-47240000D01*
X131301580Y-47240000D01*
X131378707Y-47247597D01*
X131378707Y-47247597D01*
G37*
G36*
X149158707Y-47247597D02*
G01*
X149235836Y-47255193D01*
X149433762Y-47315233D01*
X149433765Y-47315234D01*
X149616170Y-47412732D01*
X149776055Y-47543945D01*
X149907268Y-47703830D01*
X150004766Y-47886235D01*
X150004767Y-47886238D01*
X150064807Y-48084164D01*
X150085080Y-48290000D01*
X150064807Y-48495836D01*
X150045343Y-48560000D01*
X150004766Y-48693765D01*
X149907268Y-48876170D01*
X149776055Y-49036055D01*
X149616170Y-49167268D01*
X149433765Y-49264766D01*
X149433762Y-49264767D01*
X149235836Y-49324807D01*
X149158707Y-49332404D01*
X149081580Y-49340000D01*
X148978420Y-49340000D01*
X148901293Y-49332404D01*
X148824164Y-49324807D01*
X148626238Y-49264767D01*
X148626235Y-49264766D01*
X148443830Y-49167268D01*
X148283945Y-49036055D01*
X148152732Y-48876170D01*
X148055234Y-48693765D01*
X148014657Y-48560000D01*
X147995193Y-48495836D01*
X147974920Y-48290000D01*
X147995193Y-48084164D01*
X148055233Y-47886238D01*
X148055234Y-47886235D01*
X148152732Y-47703830D01*
X148283945Y-47543945D01*
X148443830Y-47412732D01*
X148626235Y-47315234D01*
X148626238Y-47315233D01*
X148824164Y-47255193D01*
X148901293Y-47247597D01*
X148978420Y-47240000D01*
X149081580Y-47240000D01*
X149158707Y-47247597D01*
X149158707Y-47247597D01*
G37*
G36*
X128838707Y-47247597D02*
G01*
X128915836Y-47255193D01*
X129113762Y-47315233D01*
X129113765Y-47315234D01*
X129296170Y-47412732D01*
X129456055Y-47543945D01*
X129587268Y-47703830D01*
X129684766Y-47886235D01*
X129684767Y-47886238D01*
X129744807Y-48084164D01*
X129765080Y-48290000D01*
X129744807Y-48495836D01*
X129725343Y-48560000D01*
X129684766Y-48693765D01*
X129587268Y-48876170D01*
X129456055Y-49036055D01*
X129296170Y-49167268D01*
X129113765Y-49264766D01*
X129113762Y-49264767D01*
X128915836Y-49324807D01*
X128838707Y-49332404D01*
X128761580Y-49340000D01*
X128658420Y-49340000D01*
X128581293Y-49332404D01*
X128504164Y-49324807D01*
X128306238Y-49264767D01*
X128306235Y-49264766D01*
X128123830Y-49167268D01*
X127963945Y-49036055D01*
X127832732Y-48876170D01*
X127735234Y-48693765D01*
X127694657Y-48560000D01*
X127675193Y-48495836D01*
X127654920Y-48290000D01*
X127675193Y-48084164D01*
X127735233Y-47886238D01*
X127735234Y-47886235D01*
X127832732Y-47703830D01*
X127963945Y-47543945D01*
X128123830Y-47412732D01*
X128306235Y-47315234D01*
X128306238Y-47315233D01*
X128504164Y-47255193D01*
X128581293Y-47247597D01*
X128658420Y-47240000D01*
X128761580Y-47240000D01*
X128838707Y-47247597D01*
X128838707Y-47247597D01*
G37*
G36*
X126298707Y-47247597D02*
G01*
X126375836Y-47255193D01*
X126573762Y-47315233D01*
X126573765Y-47315234D01*
X126756170Y-47412732D01*
X126916055Y-47543945D01*
X127047268Y-47703830D01*
X127144766Y-47886235D01*
X127144767Y-47886238D01*
X127204807Y-48084164D01*
X127225080Y-48290000D01*
X127204807Y-48495836D01*
X127185343Y-48560000D01*
X127144766Y-48693765D01*
X127047268Y-48876170D01*
X126916055Y-49036055D01*
X126756170Y-49167268D01*
X126573765Y-49264766D01*
X126573762Y-49264767D01*
X126375836Y-49324807D01*
X126298707Y-49332404D01*
X126221580Y-49340000D01*
X126118420Y-49340000D01*
X126041293Y-49332404D01*
X125964164Y-49324807D01*
X125766238Y-49264767D01*
X125766235Y-49264766D01*
X125583830Y-49167268D01*
X125423945Y-49036055D01*
X125292732Y-48876170D01*
X125195234Y-48693765D01*
X125154657Y-48560000D01*
X125135193Y-48495836D01*
X125114920Y-48290000D01*
X125135193Y-48084164D01*
X125195233Y-47886238D01*
X125195234Y-47886235D01*
X125292732Y-47703830D01*
X125423945Y-47543945D01*
X125583830Y-47412732D01*
X125766235Y-47315234D01*
X125766238Y-47315233D01*
X125964164Y-47255193D01*
X126041293Y-47247597D01*
X126118420Y-47240000D01*
X126221580Y-47240000D01*
X126298707Y-47247597D01*
X126298707Y-47247597D01*
G37*
G36*
X151698707Y-47247597D02*
G01*
X151775836Y-47255193D01*
X151973762Y-47315233D01*
X151973765Y-47315234D01*
X152156170Y-47412732D01*
X152316055Y-47543945D01*
X152447268Y-47703830D01*
X152544766Y-47886235D01*
X152544767Y-47886238D01*
X152604807Y-48084164D01*
X152625080Y-48290000D01*
X152604807Y-48495836D01*
X152585343Y-48560000D01*
X152544766Y-48693765D01*
X152447268Y-48876170D01*
X152316055Y-49036055D01*
X152156170Y-49167268D01*
X151973765Y-49264766D01*
X151973762Y-49264767D01*
X151775836Y-49324807D01*
X151698707Y-49332404D01*
X151621580Y-49340000D01*
X151518420Y-49340000D01*
X151441293Y-49332404D01*
X151364164Y-49324807D01*
X151166238Y-49264767D01*
X151166235Y-49264766D01*
X150983830Y-49167268D01*
X150823945Y-49036055D01*
X150692732Y-48876170D01*
X150595234Y-48693765D01*
X150554657Y-48560000D01*
X150535193Y-48495836D01*
X150514920Y-48290000D01*
X150535193Y-48084164D01*
X150595233Y-47886238D01*
X150595234Y-47886235D01*
X150692732Y-47703830D01*
X150823945Y-47543945D01*
X150983830Y-47412732D01*
X151166235Y-47315234D01*
X151166238Y-47315233D01*
X151364164Y-47255193D01*
X151441293Y-47247597D01*
X151518420Y-47240000D01*
X151621580Y-47240000D01*
X151698707Y-47247597D01*
X151698707Y-47247597D01*
G37*
G36*
X154238707Y-47247597D02*
G01*
X154315836Y-47255193D01*
X154513762Y-47315233D01*
X154513765Y-47315234D01*
X154696170Y-47412732D01*
X154856055Y-47543945D01*
X154987268Y-47703830D01*
X155084766Y-47886235D01*
X155084767Y-47886238D01*
X155144807Y-48084164D01*
X155165080Y-48290000D01*
X155144807Y-48495836D01*
X155125343Y-48560000D01*
X155084766Y-48693765D01*
X154987268Y-48876170D01*
X154856055Y-49036055D01*
X154696170Y-49167268D01*
X154513765Y-49264766D01*
X154513762Y-49264767D01*
X154315836Y-49324807D01*
X154238707Y-49332404D01*
X154161580Y-49340000D01*
X154058420Y-49340000D01*
X153981293Y-49332404D01*
X153904164Y-49324807D01*
X153706238Y-49264767D01*
X153706235Y-49264766D01*
X153523830Y-49167268D01*
X153363945Y-49036055D01*
X153232732Y-48876170D01*
X153135234Y-48693765D01*
X153094657Y-48560000D01*
X153075193Y-48495836D01*
X153054920Y-48290000D01*
X153075193Y-48084164D01*
X153135233Y-47886238D01*
X153135234Y-47886235D01*
X153232732Y-47703830D01*
X153363945Y-47543945D01*
X153523830Y-47412732D01*
X153706235Y-47315234D01*
X153706238Y-47315233D01*
X153904164Y-47255193D01*
X153981293Y-47247597D01*
X154058420Y-47240000D01*
X154161580Y-47240000D01*
X154238707Y-47247597D01*
X154238707Y-47247597D01*
G37*
G36*
X118678707Y-47247597D02*
G01*
X118755836Y-47255193D01*
X118953762Y-47315233D01*
X118953765Y-47315234D01*
X119136170Y-47412732D01*
X119296055Y-47543945D01*
X119427268Y-47703830D01*
X119524766Y-47886235D01*
X119524767Y-47886238D01*
X119584807Y-48084164D01*
X119605080Y-48290000D01*
X119584807Y-48495836D01*
X119565343Y-48560000D01*
X119524766Y-48693765D01*
X119427268Y-48876170D01*
X119296055Y-49036055D01*
X119136170Y-49167268D01*
X118953765Y-49264766D01*
X118953762Y-49264767D01*
X118755836Y-49324807D01*
X118678707Y-49332404D01*
X118601580Y-49340000D01*
X118498420Y-49340000D01*
X118421293Y-49332404D01*
X118344164Y-49324807D01*
X118146238Y-49264767D01*
X118146235Y-49264766D01*
X117963830Y-49167268D01*
X117803945Y-49036055D01*
X117672732Y-48876170D01*
X117575234Y-48693765D01*
X117534657Y-48560000D01*
X117515193Y-48495836D01*
X117494920Y-48290000D01*
X117515193Y-48084164D01*
X117575233Y-47886238D01*
X117575234Y-47886235D01*
X117672732Y-47703830D01*
X117803945Y-47543945D01*
X117963830Y-47412732D01*
X118146235Y-47315234D01*
X118146238Y-47315233D01*
X118344164Y-47255193D01*
X118421293Y-47247597D01*
X118498420Y-47240000D01*
X118601580Y-47240000D01*
X118678707Y-47247597D01*
X118678707Y-47247597D01*
G37*
G36*
X116138707Y-47247597D02*
G01*
X116215836Y-47255193D01*
X116413762Y-47315233D01*
X116413765Y-47315234D01*
X116596170Y-47412732D01*
X116756055Y-47543945D01*
X116887268Y-47703830D01*
X116984766Y-47886235D01*
X116984767Y-47886238D01*
X117044807Y-48084164D01*
X117065080Y-48290000D01*
X117044807Y-48495836D01*
X117025343Y-48560000D01*
X116984766Y-48693765D01*
X116887268Y-48876170D01*
X116756055Y-49036055D01*
X116596170Y-49167268D01*
X116413765Y-49264766D01*
X116413762Y-49264767D01*
X116215836Y-49324807D01*
X116138707Y-49332404D01*
X116061580Y-49340000D01*
X115958420Y-49340000D01*
X115881293Y-49332404D01*
X115804164Y-49324807D01*
X115606238Y-49264767D01*
X115606235Y-49264766D01*
X115423830Y-49167268D01*
X115263945Y-49036055D01*
X115132732Y-48876170D01*
X115035234Y-48693765D01*
X114994657Y-48560000D01*
X114975193Y-48495836D01*
X114954920Y-48290000D01*
X114975193Y-48084164D01*
X115035233Y-47886238D01*
X115035234Y-47886235D01*
X115132732Y-47703830D01*
X115263945Y-47543945D01*
X115423830Y-47412732D01*
X115606235Y-47315234D01*
X115606238Y-47315233D01*
X115804164Y-47255193D01*
X115881293Y-47247597D01*
X115958420Y-47240000D01*
X116061580Y-47240000D01*
X116138707Y-47247597D01*
X116138707Y-47247597D01*
G37*
G36*
X156778707Y-47247597D02*
G01*
X156855836Y-47255193D01*
X157053762Y-47315233D01*
X157053765Y-47315234D01*
X157236170Y-47412732D01*
X157396055Y-47543945D01*
X157527268Y-47703830D01*
X157624766Y-47886235D01*
X157624767Y-47886238D01*
X157684807Y-48084164D01*
X157705080Y-48290000D01*
X157684807Y-48495836D01*
X157665343Y-48560000D01*
X157624766Y-48693765D01*
X157527268Y-48876170D01*
X157396055Y-49036055D01*
X157236170Y-49167268D01*
X157053765Y-49264766D01*
X157053762Y-49264767D01*
X156855836Y-49324807D01*
X156778707Y-49332404D01*
X156701580Y-49340000D01*
X156598420Y-49340000D01*
X156521293Y-49332404D01*
X156444164Y-49324807D01*
X156246238Y-49264767D01*
X156246235Y-49264766D01*
X156063830Y-49167268D01*
X155903945Y-49036055D01*
X155772732Y-48876170D01*
X155675234Y-48693765D01*
X155634657Y-48560000D01*
X155615193Y-48495836D01*
X155594920Y-48290000D01*
X155615193Y-48084164D01*
X155675233Y-47886238D01*
X155675234Y-47886235D01*
X155772732Y-47703830D01*
X155903945Y-47543945D01*
X156063830Y-47412732D01*
X156246235Y-47315234D01*
X156246238Y-47315233D01*
X156444164Y-47255193D01*
X156521293Y-47247597D01*
X156598420Y-47240000D01*
X156701580Y-47240000D01*
X156778707Y-47247597D01*
X156778707Y-47247597D01*
G37*
G36*
X113598707Y-47247597D02*
G01*
X113675836Y-47255193D01*
X113873762Y-47315233D01*
X113873765Y-47315234D01*
X114056170Y-47412732D01*
X114216055Y-47543945D01*
X114347268Y-47703830D01*
X114444766Y-47886235D01*
X114444767Y-47886238D01*
X114504807Y-48084164D01*
X114525080Y-48290000D01*
X114504807Y-48495836D01*
X114485343Y-48560000D01*
X114444766Y-48693765D01*
X114347268Y-48876170D01*
X114216055Y-49036055D01*
X114056170Y-49167268D01*
X113873765Y-49264766D01*
X113873762Y-49264767D01*
X113675836Y-49324807D01*
X113598707Y-49332404D01*
X113521580Y-49340000D01*
X113418420Y-49340000D01*
X113341293Y-49332404D01*
X113264164Y-49324807D01*
X113066238Y-49264767D01*
X113066235Y-49264766D01*
X112883830Y-49167268D01*
X112723945Y-49036055D01*
X112592732Y-48876170D01*
X112495234Y-48693765D01*
X112454657Y-48560000D01*
X112435193Y-48495836D01*
X112414920Y-48290000D01*
X112435193Y-48084164D01*
X112495233Y-47886238D01*
X112495234Y-47886235D01*
X112592732Y-47703830D01*
X112723945Y-47543945D01*
X112883830Y-47412732D01*
X113066235Y-47315234D01*
X113066238Y-47315233D01*
X113264164Y-47255193D01*
X113341293Y-47247597D01*
X113418420Y-47240000D01*
X113521580Y-47240000D01*
X113598707Y-47247597D01*
X113598707Y-47247597D01*
G37*
G36*
X141538707Y-47247597D02*
G01*
X141615836Y-47255193D01*
X141813762Y-47315233D01*
X141813765Y-47315234D01*
X141996170Y-47412732D01*
X142156055Y-47543945D01*
X142287268Y-47703830D01*
X142384766Y-47886235D01*
X142384767Y-47886238D01*
X142444807Y-48084164D01*
X142465080Y-48290000D01*
X142444807Y-48495836D01*
X142425343Y-48560000D01*
X142384766Y-48693765D01*
X142287268Y-48876170D01*
X142156055Y-49036055D01*
X141996170Y-49167268D01*
X141813765Y-49264766D01*
X141813762Y-49264767D01*
X141615836Y-49324807D01*
X141538707Y-49332404D01*
X141461580Y-49340000D01*
X141358420Y-49340000D01*
X141281293Y-49332404D01*
X141204164Y-49324807D01*
X141006238Y-49264767D01*
X141006235Y-49264766D01*
X140823830Y-49167268D01*
X140663945Y-49036055D01*
X140532732Y-48876170D01*
X140435234Y-48693765D01*
X140394657Y-48560000D01*
X140375193Y-48495836D01*
X140354920Y-48290000D01*
X140375193Y-48084164D01*
X140435233Y-47886238D01*
X140435234Y-47886235D01*
X140532732Y-47703830D01*
X140663945Y-47543945D01*
X140823830Y-47412732D01*
X141006235Y-47315234D01*
X141006238Y-47315233D01*
X141204164Y-47255193D01*
X141281293Y-47247597D01*
X141358420Y-47240000D01*
X141461580Y-47240000D01*
X141538707Y-47247597D01*
X141538707Y-47247597D01*
G37*
G36*
X109440000Y-49340000D02*
G01*
X107340000Y-49340000D01*
X107340000Y-47240000D01*
X109440000Y-47240000D01*
X109440000Y-49340000D01*
X109440000Y-49340000D01*
G37*
G36*
X111058707Y-47247597D02*
G01*
X111135836Y-47255193D01*
X111333762Y-47315233D01*
X111333765Y-47315234D01*
X111516170Y-47412732D01*
X111676055Y-47543945D01*
X111807268Y-47703830D01*
X111904766Y-47886235D01*
X111904767Y-47886238D01*
X111964807Y-48084164D01*
X111985080Y-48290000D01*
X111964807Y-48495836D01*
X111945343Y-48560000D01*
X111904766Y-48693765D01*
X111807268Y-48876170D01*
X111676055Y-49036055D01*
X111516170Y-49167268D01*
X111333765Y-49264766D01*
X111333762Y-49264767D01*
X111135836Y-49324807D01*
X111058707Y-49332404D01*
X110981580Y-49340000D01*
X110878420Y-49340000D01*
X110801293Y-49332404D01*
X110724164Y-49324807D01*
X110526238Y-49264767D01*
X110526235Y-49264766D01*
X110343830Y-49167268D01*
X110183945Y-49036055D01*
X110052732Y-48876170D01*
X109955234Y-48693765D01*
X109914657Y-48560000D01*
X109895193Y-48495836D01*
X109874920Y-48290000D01*
X109895193Y-48084164D01*
X109955233Y-47886238D01*
X109955234Y-47886235D01*
X110052732Y-47703830D01*
X110183945Y-47543945D01*
X110343830Y-47412732D01*
X110526235Y-47315234D01*
X110526238Y-47315233D01*
X110724164Y-47255193D01*
X110801293Y-47247597D01*
X110878420Y-47240000D01*
X110981580Y-47240000D01*
X111058707Y-47247597D01*
X111058707Y-47247597D01*
G37*
G36*
X123758707Y-47247597D02*
G01*
X123835836Y-47255193D01*
X124033762Y-47315233D01*
X124033765Y-47315234D01*
X124216170Y-47412732D01*
X124376055Y-47543945D01*
X124507268Y-47703830D01*
X124604766Y-47886235D01*
X124604767Y-47886238D01*
X124664807Y-48084164D01*
X124685080Y-48290000D01*
X124664807Y-48495836D01*
X124645343Y-48560000D01*
X124604766Y-48693765D01*
X124507268Y-48876170D01*
X124376055Y-49036055D01*
X124216170Y-49167268D01*
X124033765Y-49264766D01*
X124033762Y-49264767D01*
X123835836Y-49324807D01*
X123758707Y-49332404D01*
X123681580Y-49340000D01*
X123578420Y-49340000D01*
X123501293Y-49332404D01*
X123424164Y-49324807D01*
X123226238Y-49264767D01*
X123226235Y-49264766D01*
X123043830Y-49167268D01*
X122883945Y-49036055D01*
X122752732Y-48876170D01*
X122655234Y-48693765D01*
X122614657Y-48560000D01*
X122595193Y-48495836D01*
X122574920Y-48290000D01*
X122595193Y-48084164D01*
X122655233Y-47886238D01*
X122655234Y-47886235D01*
X122752732Y-47703830D01*
X122883945Y-47543945D01*
X123043830Y-47412732D01*
X123226235Y-47315234D01*
X123226238Y-47315233D01*
X123424164Y-47255193D01*
X123501293Y-47247597D01*
X123578420Y-47240000D01*
X123681580Y-47240000D01*
X123758707Y-47247597D01*
X123758707Y-47247597D01*
G37*
G36*
X121218707Y-47247597D02*
G01*
X121295836Y-47255193D01*
X121493762Y-47315233D01*
X121493765Y-47315234D01*
X121676170Y-47412732D01*
X121836055Y-47543945D01*
X121967268Y-47703830D01*
X122064766Y-47886235D01*
X122064767Y-47886238D01*
X122124807Y-48084164D01*
X122145080Y-48290000D01*
X122124807Y-48495836D01*
X122105343Y-48560000D01*
X122064766Y-48693765D01*
X121967268Y-48876170D01*
X121836055Y-49036055D01*
X121676170Y-49167268D01*
X121493765Y-49264766D01*
X121493762Y-49264767D01*
X121295836Y-49324807D01*
X121218707Y-49332404D01*
X121141580Y-49340000D01*
X121038420Y-49340000D01*
X120961293Y-49332404D01*
X120884164Y-49324807D01*
X120686238Y-49264767D01*
X120686235Y-49264766D01*
X120503830Y-49167268D01*
X120343945Y-49036055D01*
X120212732Y-48876170D01*
X120115234Y-48693765D01*
X120074657Y-48560000D01*
X120055193Y-48495836D01*
X120034920Y-48290000D01*
X120055193Y-48084164D01*
X120115233Y-47886238D01*
X120115234Y-47886235D01*
X120212732Y-47703830D01*
X120343945Y-47543945D01*
X120503830Y-47412732D01*
X120686235Y-47315234D01*
X120686238Y-47315233D01*
X120884164Y-47255193D01*
X120961293Y-47247597D01*
X121038420Y-47240000D01*
X121141580Y-47240000D01*
X121218707Y-47247597D01*
X121218707Y-47247597D01*
G37*
G36*
X161812390Y-45509782D02*
G01*
X161962118Y-45539565D01*
X162078960Y-45587963D01*
X162244199Y-45656407D01*
X162244200Y-45656408D01*
X162498068Y-45826036D01*
X162713964Y-46041932D01*
X162788686Y-46153762D01*
X162883593Y-46295801D01*
X162952037Y-46461040D01*
X162992151Y-46557882D01*
X163000435Y-46577883D01*
X163060000Y-46877337D01*
X163060000Y-47182663D01*
X163000435Y-47482117D01*
X162883593Y-47764199D01*
X162883592Y-47764200D01*
X162713964Y-48018068D01*
X162498068Y-48233964D01*
X162328439Y-48347306D01*
X162244199Y-48403593D01*
X162078960Y-48472037D01*
X161962118Y-48520435D01*
X161812390Y-48550217D01*
X161662663Y-48580000D01*
X161357337Y-48580000D01*
X161207610Y-48550217D01*
X161057882Y-48520435D01*
X160941040Y-48472037D01*
X160775801Y-48403593D01*
X160691561Y-48347306D01*
X160521932Y-48233964D01*
X160306036Y-48018068D01*
X160136408Y-47764200D01*
X160136407Y-47764199D01*
X160019565Y-47482117D01*
X159960000Y-47182663D01*
X159960000Y-46877337D01*
X160019565Y-46577883D01*
X160027850Y-46557882D01*
X160067963Y-46461040D01*
X160136407Y-46295801D01*
X160231314Y-46153762D01*
X160306036Y-46041932D01*
X160521932Y-45826036D01*
X160775800Y-45656408D01*
X160775801Y-45656407D01*
X160941040Y-45587963D01*
X161057882Y-45539565D01*
X161207610Y-45509782D01*
X161357337Y-45480000D01*
X161662663Y-45480000D01*
X161812390Y-45509782D01*
X161812390Y-45509782D01*
G37*
G36*
X103763210Y-45480000D02*
G01*
X103962118Y-45519565D01*
X104078960Y-45567963D01*
X104244199Y-45636407D01*
X104328439Y-45692694D01*
X104498068Y-45806036D01*
X104713964Y-46021932D01*
X104727327Y-46041932D01*
X104883593Y-46275801D01*
X104908599Y-46336171D01*
X105000435Y-46557882D01*
X105060000Y-46857338D01*
X105060000Y-47162662D01*
X105000435Y-47462118D01*
X104966541Y-47543945D01*
X104883593Y-47744199D01*
X104883592Y-47744200D01*
X104713964Y-47998068D01*
X104498068Y-48213964D01*
X104384271Y-48290000D01*
X104244199Y-48383593D01*
X104078960Y-48452037D01*
X103962118Y-48500435D01*
X103861570Y-48520435D01*
X103662663Y-48560000D01*
X103357337Y-48560000D01*
X103158430Y-48520435D01*
X103057882Y-48500435D01*
X102941040Y-48452037D01*
X102775801Y-48383593D01*
X102635729Y-48290000D01*
X102521932Y-48213964D01*
X102306036Y-47998068D01*
X102136408Y-47744200D01*
X102136407Y-47744199D01*
X102053459Y-47543945D01*
X102019565Y-47462118D01*
X101960000Y-47162662D01*
X101960000Y-46857338D01*
X102019565Y-46557882D01*
X102111401Y-46336171D01*
X102136407Y-46275801D01*
X102292673Y-46041932D01*
X102306036Y-46021932D01*
X102521932Y-45806036D01*
X102691561Y-45692694D01*
X102775801Y-45636407D01*
X102941040Y-45567963D01*
X103057882Y-45519565D01*
X103256790Y-45480000D01*
X103357337Y-45460000D01*
X103662663Y-45460000D01*
X103763210Y-45480000D01*
X103763210Y-45480000D01*
G37*
G36*
X123758707Y-44707597D02*
G01*
X123835836Y-44715193D01*
X124033762Y-44775233D01*
X124033765Y-44775234D01*
X124216170Y-44872732D01*
X124376055Y-45003945D01*
X124507268Y-45163830D01*
X124604766Y-45346235D01*
X124604767Y-45346238D01*
X124664807Y-45544164D01*
X124685080Y-45750000D01*
X124664807Y-45955836D01*
X124604767Y-46153762D01*
X124604766Y-46153765D01*
X124507268Y-46336170D01*
X124376055Y-46496055D01*
X124216170Y-46627268D01*
X124033765Y-46724766D01*
X124033762Y-46724767D01*
X123835836Y-46784807D01*
X123758707Y-46792403D01*
X123681580Y-46800000D01*
X123578420Y-46800000D01*
X123501293Y-46792404D01*
X123424164Y-46784807D01*
X123226238Y-46724767D01*
X123226235Y-46724766D01*
X123043830Y-46627268D01*
X122883945Y-46496055D01*
X122752732Y-46336170D01*
X122655234Y-46153765D01*
X122655233Y-46153762D01*
X122595193Y-45955836D01*
X122574920Y-45750000D01*
X122595193Y-45544164D01*
X122655233Y-45346238D01*
X122655234Y-45346235D01*
X122752732Y-45163830D01*
X122883945Y-45003945D01*
X123043830Y-44872732D01*
X123226235Y-44775234D01*
X123226238Y-44775233D01*
X123424164Y-44715193D01*
X123501293Y-44707597D01*
X123578420Y-44700000D01*
X123681580Y-44700000D01*
X123758707Y-44707597D01*
X123758707Y-44707597D01*
G37*
G36*
X121218707Y-44707597D02*
G01*
X121295836Y-44715193D01*
X121493762Y-44775233D01*
X121493765Y-44775234D01*
X121676170Y-44872732D01*
X121836055Y-45003945D01*
X121967268Y-45163830D01*
X122064766Y-45346235D01*
X122064767Y-45346238D01*
X122124807Y-45544164D01*
X122145080Y-45750000D01*
X122124807Y-45955836D01*
X122064767Y-46153762D01*
X122064766Y-46153765D01*
X121967268Y-46336170D01*
X121836055Y-46496055D01*
X121676170Y-46627268D01*
X121493765Y-46724766D01*
X121493762Y-46724767D01*
X121295836Y-46784807D01*
X121218707Y-46792403D01*
X121141580Y-46800000D01*
X121038420Y-46800000D01*
X120961293Y-46792404D01*
X120884164Y-46784807D01*
X120686238Y-46724767D01*
X120686235Y-46724766D01*
X120503830Y-46627268D01*
X120343945Y-46496055D01*
X120212732Y-46336170D01*
X120115234Y-46153765D01*
X120115233Y-46153762D01*
X120055193Y-45955836D01*
X120034920Y-45750000D01*
X120055193Y-45544164D01*
X120115233Y-45346238D01*
X120115234Y-45346235D01*
X120212732Y-45163830D01*
X120343945Y-45003945D01*
X120503830Y-44872732D01*
X120686235Y-44775234D01*
X120686238Y-44775233D01*
X120884164Y-44715193D01*
X120961293Y-44707597D01*
X121038420Y-44700000D01*
X121141580Y-44700000D01*
X121218707Y-44707597D01*
X121218707Y-44707597D01*
G37*
G36*
X118678707Y-44707597D02*
G01*
X118755836Y-44715193D01*
X118953762Y-44775233D01*
X118953765Y-44775234D01*
X119136170Y-44872732D01*
X119296055Y-45003945D01*
X119427268Y-45163830D01*
X119524766Y-45346235D01*
X119524767Y-45346238D01*
X119584807Y-45544164D01*
X119605080Y-45750000D01*
X119584807Y-45955836D01*
X119524767Y-46153762D01*
X119524766Y-46153765D01*
X119427268Y-46336170D01*
X119296055Y-46496055D01*
X119136170Y-46627268D01*
X118953765Y-46724766D01*
X118953762Y-46724767D01*
X118755836Y-46784807D01*
X118678707Y-46792403D01*
X118601580Y-46800000D01*
X118498420Y-46800000D01*
X118421293Y-46792404D01*
X118344164Y-46784807D01*
X118146238Y-46724767D01*
X118146235Y-46724766D01*
X117963830Y-46627268D01*
X117803945Y-46496055D01*
X117672732Y-46336170D01*
X117575234Y-46153765D01*
X117575233Y-46153762D01*
X117515193Y-45955836D01*
X117494920Y-45750000D01*
X117515193Y-45544164D01*
X117575233Y-45346238D01*
X117575234Y-45346235D01*
X117672732Y-45163830D01*
X117803945Y-45003945D01*
X117963830Y-44872732D01*
X118146235Y-44775234D01*
X118146238Y-44775233D01*
X118344164Y-44715193D01*
X118421293Y-44707597D01*
X118498420Y-44700000D01*
X118601580Y-44700000D01*
X118678707Y-44707597D01*
X118678707Y-44707597D01*
G37*
G36*
X113598707Y-44707597D02*
G01*
X113675836Y-44715193D01*
X113873762Y-44775233D01*
X113873765Y-44775234D01*
X114056170Y-44872732D01*
X114216055Y-45003945D01*
X114347268Y-45163830D01*
X114444766Y-45346235D01*
X114444767Y-45346238D01*
X114504807Y-45544164D01*
X114525080Y-45750000D01*
X114504807Y-45955836D01*
X114444767Y-46153762D01*
X114444766Y-46153765D01*
X114347268Y-46336170D01*
X114216055Y-46496055D01*
X114056170Y-46627268D01*
X113873765Y-46724766D01*
X113873762Y-46724767D01*
X113675836Y-46784807D01*
X113598707Y-46792403D01*
X113521580Y-46800000D01*
X113418420Y-46800000D01*
X113341293Y-46792404D01*
X113264164Y-46784807D01*
X113066238Y-46724767D01*
X113066235Y-46724766D01*
X112883830Y-46627268D01*
X112723945Y-46496055D01*
X112592732Y-46336170D01*
X112495234Y-46153765D01*
X112495233Y-46153762D01*
X112435193Y-45955836D01*
X112414920Y-45750000D01*
X112435193Y-45544164D01*
X112495233Y-45346238D01*
X112495234Y-45346235D01*
X112592732Y-45163830D01*
X112723945Y-45003945D01*
X112883830Y-44872732D01*
X113066235Y-44775234D01*
X113066238Y-44775233D01*
X113264164Y-44715193D01*
X113341293Y-44707597D01*
X113418420Y-44700000D01*
X113521580Y-44700000D01*
X113598707Y-44707597D01*
X113598707Y-44707597D01*
G37*
G36*
X111058707Y-44707597D02*
G01*
X111135836Y-44715193D01*
X111333762Y-44775233D01*
X111333765Y-44775234D01*
X111516170Y-44872732D01*
X111676055Y-45003945D01*
X111807268Y-45163830D01*
X111904766Y-45346235D01*
X111904767Y-45346238D01*
X111964807Y-45544164D01*
X111985080Y-45750000D01*
X111964807Y-45955836D01*
X111904767Y-46153762D01*
X111904766Y-46153765D01*
X111807268Y-46336170D01*
X111676055Y-46496055D01*
X111516170Y-46627268D01*
X111333765Y-46724766D01*
X111333762Y-46724767D01*
X111135836Y-46784807D01*
X111058707Y-46792403D01*
X110981580Y-46800000D01*
X110878420Y-46800000D01*
X110801293Y-46792404D01*
X110724164Y-46784807D01*
X110526238Y-46724767D01*
X110526235Y-46724766D01*
X110343830Y-46627268D01*
X110183945Y-46496055D01*
X110052732Y-46336170D01*
X109955234Y-46153765D01*
X109955233Y-46153762D01*
X109895193Y-45955836D01*
X109874920Y-45750000D01*
X109895193Y-45544164D01*
X109955233Y-45346238D01*
X109955234Y-45346235D01*
X110052732Y-45163830D01*
X110183945Y-45003945D01*
X110343830Y-44872732D01*
X110526235Y-44775234D01*
X110526238Y-44775233D01*
X110724164Y-44715193D01*
X110801293Y-44707597D01*
X110878420Y-44700000D01*
X110981580Y-44700000D01*
X111058707Y-44707597D01*
X111058707Y-44707597D01*
G37*
G36*
X108518707Y-44707597D02*
G01*
X108595836Y-44715193D01*
X108793762Y-44775233D01*
X108793765Y-44775234D01*
X108976170Y-44872732D01*
X109136055Y-45003945D01*
X109267268Y-45163830D01*
X109364766Y-45346235D01*
X109364767Y-45346238D01*
X109424807Y-45544164D01*
X109445080Y-45750000D01*
X109424807Y-45955836D01*
X109364767Y-46153762D01*
X109364766Y-46153765D01*
X109267268Y-46336170D01*
X109136055Y-46496055D01*
X108976170Y-46627268D01*
X108793765Y-46724766D01*
X108793762Y-46724767D01*
X108595836Y-46784807D01*
X108518707Y-46792403D01*
X108441580Y-46800000D01*
X108338420Y-46800000D01*
X108261293Y-46792404D01*
X108184164Y-46784807D01*
X107986238Y-46724767D01*
X107986235Y-46724766D01*
X107803830Y-46627268D01*
X107643945Y-46496055D01*
X107512732Y-46336170D01*
X107415234Y-46153765D01*
X107415233Y-46153762D01*
X107355193Y-45955836D01*
X107334920Y-45750000D01*
X107355193Y-45544164D01*
X107415233Y-45346238D01*
X107415234Y-45346235D01*
X107512732Y-45163830D01*
X107643945Y-45003945D01*
X107803830Y-44872732D01*
X107986235Y-44775234D01*
X107986238Y-44775233D01*
X108184164Y-44715193D01*
X108261293Y-44707597D01*
X108338420Y-44700000D01*
X108441580Y-44700000D01*
X108518707Y-44707597D01*
X108518707Y-44707597D01*
G37*
G36*
X126298707Y-44707597D02*
G01*
X126375836Y-44715193D01*
X126573762Y-44775233D01*
X126573765Y-44775234D01*
X126756170Y-44872732D01*
X126916055Y-45003945D01*
X127047268Y-45163830D01*
X127144766Y-45346235D01*
X127144767Y-45346238D01*
X127204807Y-45544164D01*
X127225080Y-45750000D01*
X127204807Y-45955836D01*
X127144767Y-46153762D01*
X127144766Y-46153765D01*
X127047268Y-46336170D01*
X126916055Y-46496055D01*
X126756170Y-46627268D01*
X126573765Y-46724766D01*
X126573762Y-46724767D01*
X126375836Y-46784807D01*
X126298707Y-46792403D01*
X126221580Y-46800000D01*
X126118420Y-46800000D01*
X126041293Y-46792404D01*
X125964164Y-46784807D01*
X125766238Y-46724767D01*
X125766235Y-46724766D01*
X125583830Y-46627268D01*
X125423945Y-46496055D01*
X125292732Y-46336170D01*
X125195234Y-46153765D01*
X125195233Y-46153762D01*
X125135193Y-45955836D01*
X125114920Y-45750000D01*
X125135193Y-45544164D01*
X125195233Y-45346238D01*
X125195234Y-45346235D01*
X125292732Y-45163830D01*
X125423945Y-45003945D01*
X125583830Y-44872732D01*
X125766235Y-44775234D01*
X125766238Y-44775233D01*
X125964164Y-44715193D01*
X126041293Y-44707597D01*
X126118420Y-44700000D01*
X126221580Y-44700000D01*
X126298707Y-44707597D01*
X126298707Y-44707597D01*
G37*
G36*
X131378707Y-44707597D02*
G01*
X131455836Y-44715193D01*
X131653762Y-44775233D01*
X131653765Y-44775234D01*
X131836170Y-44872732D01*
X131996055Y-45003945D01*
X132127268Y-45163830D01*
X132224766Y-45346235D01*
X132224767Y-45346238D01*
X132284807Y-45544164D01*
X132305080Y-45750000D01*
X132284807Y-45955836D01*
X132224767Y-46153762D01*
X132224766Y-46153765D01*
X132127268Y-46336170D01*
X131996055Y-46496055D01*
X131836170Y-46627268D01*
X131653765Y-46724766D01*
X131653762Y-46724767D01*
X131455836Y-46784807D01*
X131378707Y-46792403D01*
X131301580Y-46800000D01*
X131198420Y-46800000D01*
X131121293Y-46792404D01*
X131044164Y-46784807D01*
X130846238Y-46724767D01*
X130846235Y-46724766D01*
X130663830Y-46627268D01*
X130503945Y-46496055D01*
X130372732Y-46336170D01*
X130275234Y-46153765D01*
X130275233Y-46153762D01*
X130215193Y-45955836D01*
X130194920Y-45750000D01*
X130215193Y-45544164D01*
X130275233Y-45346238D01*
X130275234Y-45346235D01*
X130372732Y-45163830D01*
X130503945Y-45003945D01*
X130663830Y-44872732D01*
X130846235Y-44775234D01*
X130846238Y-44775233D01*
X131044164Y-44715193D01*
X131121293Y-44707597D01*
X131198420Y-44700000D01*
X131301580Y-44700000D01*
X131378707Y-44707597D01*
X131378707Y-44707597D01*
G37*
G36*
X133918707Y-44707597D02*
G01*
X133995836Y-44715193D01*
X134193762Y-44775233D01*
X134193765Y-44775234D01*
X134376170Y-44872732D01*
X134536055Y-45003945D01*
X134667268Y-45163830D01*
X134764766Y-45346235D01*
X134764767Y-45346238D01*
X134824807Y-45544164D01*
X134845080Y-45750000D01*
X134824807Y-45955836D01*
X134764767Y-46153762D01*
X134764766Y-46153765D01*
X134667268Y-46336170D01*
X134536055Y-46496055D01*
X134376170Y-46627268D01*
X134193765Y-46724766D01*
X134193762Y-46724767D01*
X133995836Y-46784807D01*
X133918707Y-46792403D01*
X133841580Y-46800000D01*
X133738420Y-46800000D01*
X133661293Y-46792404D01*
X133584164Y-46784807D01*
X133386238Y-46724767D01*
X133386235Y-46724766D01*
X133203830Y-46627268D01*
X133043945Y-46496055D01*
X132912732Y-46336170D01*
X132815234Y-46153765D01*
X132815233Y-46153762D01*
X132755193Y-45955836D01*
X132734920Y-45750000D01*
X132755193Y-45544164D01*
X132815233Y-45346238D01*
X132815234Y-45346235D01*
X132912732Y-45163830D01*
X133043945Y-45003945D01*
X133203830Y-44872732D01*
X133386235Y-44775234D01*
X133386238Y-44775233D01*
X133584164Y-44715193D01*
X133661293Y-44707597D01*
X133738420Y-44700000D01*
X133841580Y-44700000D01*
X133918707Y-44707597D01*
X133918707Y-44707597D01*
G37*
G36*
X136458707Y-44707597D02*
G01*
X136535836Y-44715193D01*
X136733762Y-44775233D01*
X136733765Y-44775234D01*
X136916170Y-44872732D01*
X137076055Y-45003945D01*
X137207268Y-45163830D01*
X137304766Y-45346235D01*
X137304767Y-45346238D01*
X137364807Y-45544164D01*
X137385080Y-45750000D01*
X137364807Y-45955836D01*
X137304767Y-46153762D01*
X137304766Y-46153765D01*
X137207268Y-46336170D01*
X137076055Y-46496055D01*
X136916170Y-46627268D01*
X136733765Y-46724766D01*
X136733762Y-46724767D01*
X136535836Y-46784807D01*
X136458707Y-46792403D01*
X136381580Y-46800000D01*
X136278420Y-46800000D01*
X136201293Y-46792404D01*
X136124164Y-46784807D01*
X135926238Y-46724767D01*
X135926235Y-46724766D01*
X135743830Y-46627268D01*
X135583945Y-46496055D01*
X135452732Y-46336170D01*
X135355234Y-46153765D01*
X135355233Y-46153762D01*
X135295193Y-45955836D01*
X135274920Y-45750000D01*
X135295193Y-45544164D01*
X135355233Y-45346238D01*
X135355234Y-45346235D01*
X135452732Y-45163830D01*
X135583945Y-45003945D01*
X135743830Y-44872732D01*
X135926235Y-44775234D01*
X135926238Y-44775233D01*
X136124164Y-44715193D01*
X136201293Y-44707597D01*
X136278420Y-44700000D01*
X136381580Y-44700000D01*
X136458707Y-44707597D01*
X136458707Y-44707597D01*
G37*
G36*
X138998707Y-44707597D02*
G01*
X139075836Y-44715193D01*
X139273762Y-44775233D01*
X139273765Y-44775234D01*
X139456170Y-44872732D01*
X139616055Y-45003945D01*
X139747268Y-45163830D01*
X139844766Y-45346235D01*
X139844767Y-45346238D01*
X139904807Y-45544164D01*
X139925080Y-45750000D01*
X139904807Y-45955836D01*
X139844767Y-46153762D01*
X139844766Y-46153765D01*
X139747268Y-46336170D01*
X139616055Y-46496055D01*
X139456170Y-46627268D01*
X139273765Y-46724766D01*
X139273762Y-46724767D01*
X139075836Y-46784807D01*
X138998707Y-46792403D01*
X138921580Y-46800000D01*
X138818420Y-46800000D01*
X138741293Y-46792404D01*
X138664164Y-46784807D01*
X138466238Y-46724767D01*
X138466235Y-46724766D01*
X138283830Y-46627268D01*
X138123945Y-46496055D01*
X137992732Y-46336170D01*
X137895234Y-46153765D01*
X137895233Y-46153762D01*
X137835193Y-45955836D01*
X137814920Y-45750000D01*
X137835193Y-45544164D01*
X137895233Y-45346238D01*
X137895234Y-45346235D01*
X137992732Y-45163830D01*
X138123945Y-45003945D01*
X138283830Y-44872732D01*
X138466235Y-44775234D01*
X138466238Y-44775233D01*
X138664164Y-44715193D01*
X138741293Y-44707597D01*
X138818420Y-44700000D01*
X138921580Y-44700000D01*
X138998707Y-44707597D01*
X138998707Y-44707597D01*
G37*
G36*
X141538707Y-44707597D02*
G01*
X141615836Y-44715193D01*
X141813762Y-44775233D01*
X141813765Y-44775234D01*
X141996170Y-44872732D01*
X142156055Y-45003945D01*
X142287268Y-45163830D01*
X142384766Y-45346235D01*
X142384767Y-45346238D01*
X142444807Y-45544164D01*
X142465080Y-45750000D01*
X142444807Y-45955836D01*
X142384767Y-46153762D01*
X142384766Y-46153765D01*
X142287268Y-46336170D01*
X142156055Y-46496055D01*
X141996170Y-46627268D01*
X141813765Y-46724766D01*
X141813762Y-46724767D01*
X141615836Y-46784807D01*
X141538707Y-46792403D01*
X141461580Y-46800000D01*
X141358420Y-46800000D01*
X141281293Y-46792404D01*
X141204164Y-46784807D01*
X141006238Y-46724767D01*
X141006235Y-46724766D01*
X140823830Y-46627268D01*
X140663945Y-46496055D01*
X140532732Y-46336170D01*
X140435234Y-46153765D01*
X140435233Y-46153762D01*
X140375193Y-45955836D01*
X140354920Y-45750000D01*
X140375193Y-45544164D01*
X140435233Y-45346238D01*
X140435234Y-45346235D01*
X140532732Y-45163830D01*
X140663945Y-45003945D01*
X140823830Y-44872732D01*
X141006235Y-44775234D01*
X141006238Y-44775233D01*
X141204164Y-44715193D01*
X141281293Y-44707597D01*
X141358420Y-44700000D01*
X141461580Y-44700000D01*
X141538707Y-44707597D01*
X141538707Y-44707597D01*
G37*
G36*
X128838707Y-44707597D02*
G01*
X128915836Y-44715193D01*
X129113762Y-44775233D01*
X129113765Y-44775234D01*
X129296170Y-44872732D01*
X129456055Y-45003945D01*
X129587268Y-45163830D01*
X129684766Y-45346235D01*
X129684767Y-45346238D01*
X129744807Y-45544164D01*
X129765080Y-45750000D01*
X129744807Y-45955836D01*
X129684767Y-46153762D01*
X129684766Y-46153765D01*
X129587268Y-46336170D01*
X129456055Y-46496055D01*
X129296170Y-46627268D01*
X129113765Y-46724766D01*
X129113762Y-46724767D01*
X128915836Y-46784807D01*
X128838707Y-46792403D01*
X128761580Y-46800000D01*
X128658420Y-46800000D01*
X128581293Y-46792404D01*
X128504164Y-46784807D01*
X128306238Y-46724767D01*
X128306235Y-46724766D01*
X128123830Y-46627268D01*
X127963945Y-46496055D01*
X127832732Y-46336170D01*
X127735234Y-46153765D01*
X127735233Y-46153762D01*
X127675193Y-45955836D01*
X127654920Y-45750000D01*
X127675193Y-45544164D01*
X127735233Y-45346238D01*
X127735234Y-45346235D01*
X127832732Y-45163830D01*
X127963945Y-45003945D01*
X128123830Y-44872732D01*
X128306235Y-44775234D01*
X128306238Y-44775233D01*
X128504164Y-44715193D01*
X128581293Y-44707597D01*
X128658420Y-44700000D01*
X128761580Y-44700000D01*
X128838707Y-44707597D01*
X128838707Y-44707597D01*
G37*
G36*
X151698707Y-44707597D02*
G01*
X151775836Y-44715193D01*
X151973762Y-44775233D01*
X151973765Y-44775234D01*
X152156170Y-44872732D01*
X152316055Y-45003945D01*
X152447268Y-45163830D01*
X152544766Y-45346235D01*
X152544767Y-45346238D01*
X152604807Y-45544164D01*
X152625080Y-45750000D01*
X152604807Y-45955836D01*
X152544767Y-46153762D01*
X152544766Y-46153765D01*
X152447268Y-46336170D01*
X152316055Y-46496055D01*
X152156170Y-46627268D01*
X151973765Y-46724766D01*
X151973762Y-46724767D01*
X151775836Y-46784807D01*
X151698707Y-46792403D01*
X151621580Y-46800000D01*
X151518420Y-46800000D01*
X151441293Y-46792404D01*
X151364164Y-46784807D01*
X151166238Y-46724767D01*
X151166235Y-46724766D01*
X150983830Y-46627268D01*
X150823945Y-46496055D01*
X150692732Y-46336170D01*
X150595234Y-46153765D01*
X150595233Y-46153762D01*
X150535193Y-45955836D01*
X150514920Y-45750000D01*
X150535193Y-45544164D01*
X150595233Y-45346238D01*
X150595234Y-45346235D01*
X150692732Y-45163830D01*
X150823945Y-45003945D01*
X150983830Y-44872732D01*
X151166235Y-44775234D01*
X151166238Y-44775233D01*
X151364164Y-44715193D01*
X151441293Y-44707597D01*
X151518420Y-44700000D01*
X151621580Y-44700000D01*
X151698707Y-44707597D01*
X151698707Y-44707597D01*
G37*
G36*
X154238707Y-44707597D02*
G01*
X154315836Y-44715193D01*
X154513762Y-44775233D01*
X154513765Y-44775234D01*
X154696170Y-44872732D01*
X154856055Y-45003945D01*
X154987268Y-45163830D01*
X155084766Y-45346235D01*
X155084767Y-45346238D01*
X155144807Y-45544164D01*
X155165080Y-45750000D01*
X155144807Y-45955836D01*
X155084767Y-46153762D01*
X155084766Y-46153765D01*
X154987268Y-46336170D01*
X154856055Y-46496055D01*
X154696170Y-46627268D01*
X154513765Y-46724766D01*
X154513762Y-46724767D01*
X154315836Y-46784807D01*
X154238707Y-46792403D01*
X154161580Y-46800000D01*
X154058420Y-46800000D01*
X153981293Y-46792404D01*
X153904164Y-46784807D01*
X153706238Y-46724767D01*
X153706235Y-46724766D01*
X153523830Y-46627268D01*
X153363945Y-46496055D01*
X153232732Y-46336170D01*
X153135234Y-46153765D01*
X153135233Y-46153762D01*
X153075193Y-45955836D01*
X153054920Y-45750000D01*
X153075193Y-45544164D01*
X153135233Y-45346238D01*
X153135234Y-45346235D01*
X153232732Y-45163830D01*
X153363945Y-45003945D01*
X153523830Y-44872732D01*
X153706235Y-44775234D01*
X153706238Y-44775233D01*
X153904164Y-44715193D01*
X153981293Y-44707597D01*
X154058420Y-44700000D01*
X154161580Y-44700000D01*
X154238707Y-44707597D01*
X154238707Y-44707597D01*
G37*
G36*
X149158707Y-44707597D02*
G01*
X149235836Y-44715193D01*
X149433762Y-44775233D01*
X149433765Y-44775234D01*
X149616170Y-44872732D01*
X149776055Y-45003945D01*
X149907268Y-45163830D01*
X150004766Y-45346235D01*
X150004767Y-45346238D01*
X150064807Y-45544164D01*
X150085080Y-45750000D01*
X150064807Y-45955836D01*
X150004767Y-46153762D01*
X150004766Y-46153765D01*
X149907268Y-46336170D01*
X149776055Y-46496055D01*
X149616170Y-46627268D01*
X149433765Y-46724766D01*
X149433762Y-46724767D01*
X149235836Y-46784807D01*
X149158707Y-46792403D01*
X149081580Y-46800000D01*
X148978420Y-46800000D01*
X148901293Y-46792404D01*
X148824164Y-46784807D01*
X148626238Y-46724767D01*
X148626235Y-46724766D01*
X148443830Y-46627268D01*
X148283945Y-46496055D01*
X148152732Y-46336170D01*
X148055234Y-46153765D01*
X148055233Y-46153762D01*
X147995193Y-45955836D01*
X147974920Y-45750000D01*
X147995193Y-45544164D01*
X148055233Y-45346238D01*
X148055234Y-45346235D01*
X148152732Y-45163830D01*
X148283945Y-45003945D01*
X148443830Y-44872732D01*
X148626235Y-44775234D01*
X148626238Y-44775233D01*
X148824164Y-44715193D01*
X148901293Y-44707597D01*
X148978420Y-44700000D01*
X149081580Y-44700000D01*
X149158707Y-44707597D01*
X149158707Y-44707597D01*
G37*
G36*
X146618707Y-44707597D02*
G01*
X146695836Y-44715193D01*
X146893762Y-44775233D01*
X146893765Y-44775234D01*
X147076170Y-44872732D01*
X147236055Y-45003945D01*
X147367268Y-45163830D01*
X147464766Y-45346235D01*
X147464767Y-45346238D01*
X147524807Y-45544164D01*
X147545080Y-45750000D01*
X147524807Y-45955836D01*
X147464767Y-46153762D01*
X147464766Y-46153765D01*
X147367268Y-46336170D01*
X147236055Y-46496055D01*
X147076170Y-46627268D01*
X146893765Y-46724766D01*
X146893762Y-46724767D01*
X146695836Y-46784807D01*
X146618707Y-46792403D01*
X146541580Y-46800000D01*
X146438420Y-46800000D01*
X146361293Y-46792404D01*
X146284164Y-46784807D01*
X146086238Y-46724767D01*
X146086235Y-46724766D01*
X145903830Y-46627268D01*
X145743945Y-46496055D01*
X145612732Y-46336170D01*
X145515234Y-46153765D01*
X145515233Y-46153762D01*
X145455193Y-45955836D01*
X145434920Y-45750000D01*
X145455193Y-45544164D01*
X145515233Y-45346238D01*
X145515234Y-45346235D01*
X145612732Y-45163830D01*
X145743945Y-45003945D01*
X145903830Y-44872732D01*
X146086235Y-44775234D01*
X146086238Y-44775233D01*
X146284164Y-44715193D01*
X146361293Y-44707597D01*
X146438420Y-44700000D01*
X146541580Y-44700000D01*
X146618707Y-44707597D01*
X146618707Y-44707597D01*
G37*
G36*
X156778707Y-44707597D02*
G01*
X156855836Y-44715193D01*
X157053762Y-44775233D01*
X157053765Y-44775234D01*
X157236170Y-44872732D01*
X157396055Y-45003945D01*
X157527268Y-45163830D01*
X157624766Y-45346235D01*
X157624767Y-45346238D01*
X157684807Y-45544164D01*
X157705080Y-45750000D01*
X157684807Y-45955836D01*
X157624767Y-46153762D01*
X157624766Y-46153765D01*
X157527268Y-46336170D01*
X157396055Y-46496055D01*
X157236170Y-46627268D01*
X157053765Y-46724766D01*
X157053762Y-46724767D01*
X156855836Y-46784807D01*
X156778707Y-46792403D01*
X156701580Y-46800000D01*
X156598420Y-46800000D01*
X156521293Y-46792404D01*
X156444164Y-46784807D01*
X156246238Y-46724767D01*
X156246235Y-46724766D01*
X156063830Y-46627268D01*
X155903945Y-46496055D01*
X155772732Y-46336170D01*
X155675234Y-46153765D01*
X155675233Y-46153762D01*
X155615193Y-45955836D01*
X155594920Y-45750000D01*
X155615193Y-45544164D01*
X155675233Y-45346238D01*
X155675234Y-45346235D01*
X155772732Y-45163830D01*
X155903945Y-45003945D01*
X156063830Y-44872732D01*
X156246235Y-44775234D01*
X156246238Y-44775233D01*
X156444164Y-44715193D01*
X156521293Y-44707597D01*
X156598420Y-44700000D01*
X156701580Y-44700000D01*
X156778707Y-44707597D01*
X156778707Y-44707597D01*
G37*
G36*
X144078707Y-44707597D02*
G01*
X144155836Y-44715193D01*
X144353762Y-44775233D01*
X144353765Y-44775234D01*
X144536170Y-44872732D01*
X144696055Y-45003945D01*
X144827268Y-45163830D01*
X144924766Y-45346235D01*
X144924767Y-45346238D01*
X144984807Y-45544164D01*
X145005080Y-45750000D01*
X144984807Y-45955836D01*
X144924767Y-46153762D01*
X144924766Y-46153765D01*
X144827268Y-46336170D01*
X144696055Y-46496055D01*
X144536170Y-46627268D01*
X144353765Y-46724766D01*
X144353762Y-46724767D01*
X144155836Y-46784807D01*
X144078707Y-46792403D01*
X144001580Y-46800000D01*
X143898420Y-46800000D01*
X143821293Y-46792404D01*
X143744164Y-46784807D01*
X143546238Y-46724767D01*
X143546235Y-46724766D01*
X143363830Y-46627268D01*
X143203945Y-46496055D01*
X143072732Y-46336170D01*
X142975234Y-46153765D01*
X142975233Y-46153762D01*
X142915193Y-45955836D01*
X142894920Y-45750000D01*
X142915193Y-45544164D01*
X142975233Y-45346238D01*
X142975234Y-45346235D01*
X143072732Y-45163830D01*
X143203945Y-45003945D01*
X143363830Y-44872732D01*
X143546235Y-44775234D01*
X143546238Y-44775233D01*
X143744164Y-44715193D01*
X143821293Y-44707597D01*
X143898420Y-44700000D01*
X144001580Y-44700000D01*
X144078707Y-44707597D01*
X144078707Y-44707597D01*
G37*
G36*
X116138707Y-44707597D02*
G01*
X116215836Y-44715193D01*
X116413762Y-44775233D01*
X116413765Y-44775234D01*
X116596170Y-44872732D01*
X116756055Y-45003945D01*
X116887268Y-45163830D01*
X116984766Y-45346235D01*
X116984767Y-45346238D01*
X117044807Y-45544164D01*
X117065080Y-45750000D01*
X117044807Y-45955836D01*
X116984767Y-46153762D01*
X116984766Y-46153765D01*
X116887268Y-46336170D01*
X116756055Y-46496055D01*
X116596170Y-46627268D01*
X116413765Y-46724766D01*
X116413762Y-46724767D01*
X116215836Y-46784807D01*
X116138707Y-46792403D01*
X116061580Y-46800000D01*
X115958420Y-46800000D01*
X115881293Y-46792404D01*
X115804164Y-46784807D01*
X115606238Y-46724767D01*
X115606235Y-46724766D01*
X115423830Y-46627268D01*
X115263945Y-46496055D01*
X115132732Y-46336170D01*
X115035234Y-46153765D01*
X115035233Y-46153762D01*
X114975193Y-45955836D01*
X114954920Y-45750000D01*
X114975193Y-45544164D01*
X115035233Y-45346238D01*
X115035234Y-45346235D01*
X115132732Y-45163830D01*
X115263945Y-45003945D01*
X115423830Y-44872732D01*
X115606235Y-44775234D01*
X115606238Y-44775233D01*
X115804164Y-44715193D01*
X115881293Y-44707597D01*
X115958420Y-44700000D01*
X116061580Y-44700000D01*
X116138707Y-44707597D01*
X116138707Y-44707597D01*
G37*
M02*
