G04 #@! TF.GenerationSoftware,KiCad,Pcbnew,(5.1.4)-1*
G04 #@! TF.CreationDate,2019-11-04T18:42:31+11:00*
G04 #@! TF.ProjectId,dingo-hat,64696e67-6f2d-4686-9174-2e6b69636164,rev?*
G04 #@! TF.SameCoordinates,Original*
G04 #@! TF.FileFunction,Paste,Top*
G04 #@! TF.FilePolarity,Positive*
%FSLAX46Y46*%
G04 Gerber Fmt 4.6, Leading zero omitted, Abs format (unit mm)*
G04 Created by KiCad (PCBNEW (5.1.4)-1) date 2019-11-04 18:42:31*
%MOMM*%
%LPD*%
G04 APERTURE LIST*
%ADD10C,0.200000*%
%ADD11C,0.000100*%
%ADD12R,0.900000X0.500000*%
%ADD13R,0.400000X1.100000*%
%ADD14R,1.800000X1.800000*%
%ADD15R,0.500000X0.400000*%
%ADD16R,0.500000X0.750000*%
%ADD17R,0.500000X0.900000*%
%ADD18R,0.800000X2.200000*%
%ADD19R,3.700000X2.710000*%
%ADD20R,2.400000X1.650000*%
%ADD21R,0.300000X0.800000*%
%ADD22R,1.752600X2.489200*%
%ADD23R,0.812800X0.203200*%
%ADD24R,1.060000X0.650000*%
%ADD25R,2.000000X3.500000*%
%ADD26R,0.900000X1.700000*%
%ADD27R,1.700000X0.900000*%
%ADD28R,0.800000X0.800000*%
%ADD29R,1.100000X1.100000*%
%ADD30R,3.200000X1.600000*%
%ADD31R,1.000000X1.600000*%
%ADD32R,0.800000X0.750000*%
%ADD33R,0.750000X0.800000*%
%ADD34C,0.100000*%
%ADD35C,0.950000*%
%ADD36R,0.500000X0.800000*%
%ADD37R,0.400000X0.800000*%
G04 APERTURE END LIST*
D10*
X124530000Y-113300000D02*
G75*
G02X122530000Y-113300000I-1000000J0D01*
G01*
X79530000Y-80800000D02*
G75*
G02X78530000Y-79800000I0J1000000D01*
G01*
X122530000Y-98300000D02*
X122530000Y-113300000D01*
X122530000Y-98300000D02*
G75*
G02X124530000Y-98300000I1000000J0D01*
G01*
X82530000Y-80800000D02*
G75*
G02X83530000Y-81800000I125000J-875000D01*
G01*
X124530000Y-98300000D02*
X124530000Y-113300000D01*
X83530000Y-96800000D02*
X83530000Y-81800000D01*
X79530000Y-80800000D02*
X82530000Y-80800000D01*
X79530000Y-97800000D02*
X82530000Y-97800000D01*
X78530000Y-63800000D02*
G75*
G02X81530000Y-60800000I3000000J0D01*
G01*
X140530000Y-60800000D02*
X81530000Y-60800000D01*
X78530000Y-98800000D02*
X78530000Y-114300000D01*
X78530000Y-98800000D02*
G75*
G02X79530000Y-97800000I1000000J0D01*
G01*
X140530000Y-60800000D02*
G75*
G02X143530000Y-63800000I0J-3000000D01*
G01*
X81530000Y-117300000D02*
X140530000Y-117300000D01*
X78530000Y-63800000D02*
X78530000Y-79800000D01*
X81530000Y-117300000D02*
G75*
G02X78530000Y-114300000I0J3000000D01*
G01*
X83530000Y-96800000D02*
G75*
G02X82530000Y-97800000I-875000J-125000D01*
G01*
X143530000Y-114300000D02*
X143530000Y-63800000D01*
X143530000Y-114300000D02*
G75*
G02X140530000Y-117300000I-3000000J0D01*
G01*
D11*
X136340000Y-102994000D02*
X135340000Y-102994000D01*
X135340000Y-102994000D02*
X135340000Y-99494000D01*
X135340000Y-99494000D02*
X136340000Y-99494000D01*
X136340000Y-99494000D02*
X136340000Y-102994000D01*
X142340000Y-102744000D02*
X141340000Y-102744000D01*
X141340000Y-102744000D02*
X141340000Y-99744000D01*
X141340000Y-99744000D02*
X142340000Y-99744000D01*
X142340000Y-99744000D02*
X142340000Y-102744000D01*
D12*
X95092000Y-71500000D03*
X95092000Y-70000000D03*
X93568000Y-71500000D03*
X93568000Y-70000000D03*
X119840000Y-71500000D03*
X119840000Y-70000000D03*
X121340000Y-71494000D03*
X121340000Y-69994000D03*
X124340000Y-71494000D03*
X124340000Y-69994000D03*
X122840000Y-71494000D03*
X122840000Y-69994000D03*
D13*
X82133000Y-76950000D03*
X82783000Y-76950000D03*
X83433000Y-76950000D03*
X84083000Y-76950000D03*
X84733000Y-76950000D03*
X85383000Y-76950000D03*
X86033000Y-76950000D03*
X86683000Y-76950000D03*
X87333000Y-76950000D03*
X87983000Y-76950000D03*
X88633000Y-76950000D03*
X89283000Y-76950000D03*
X89933000Y-76950000D03*
X90583000Y-76950000D03*
X90583000Y-71250000D03*
X89933000Y-71250000D03*
X89283000Y-71250000D03*
X88633000Y-71250000D03*
X87983000Y-71250000D03*
X87333000Y-71250000D03*
X86683000Y-71250000D03*
X86033000Y-71250000D03*
X85383000Y-71250000D03*
X84733000Y-71250000D03*
X84083000Y-71250000D03*
X83433000Y-71250000D03*
X82783000Y-71250000D03*
X82133000Y-71250000D03*
D14*
X117346000Y-102234000D03*
D15*
X115996000Y-101434000D03*
X118696000Y-101434000D03*
X115996000Y-102034000D03*
X118696000Y-102034000D03*
D16*
X115996000Y-102809000D03*
X118696000Y-102809000D03*
D17*
X83608000Y-79400000D03*
X85108000Y-79400000D03*
D18*
X96055000Y-90660000D03*
X96055000Y-96400000D03*
X97325000Y-90660000D03*
X97325000Y-96400000D03*
X98595000Y-90660000D03*
X98595000Y-96400000D03*
X99865000Y-90660000D03*
X99865000Y-96400000D03*
D19*
X97960000Y-93530000D03*
D20*
X128550000Y-103050000D03*
D21*
X127600000Y-101550000D03*
X128250000Y-101550000D03*
X128850000Y-101550000D03*
X129500000Y-101550000D03*
X129500000Y-104550000D03*
X128850000Y-104550000D03*
X128250000Y-104550000D03*
X127600000Y-104550000D03*
D22*
X128066900Y-94300000D03*
D23*
X129463900Y-93299999D03*
X129463900Y-93800001D03*
X129463900Y-94300000D03*
X129463900Y-94799999D03*
X129463900Y-95300001D03*
X126669900Y-95300001D03*
X126669900Y-94799999D03*
X126669900Y-94300000D03*
X126669900Y-93800001D03*
X126669900Y-93299999D03*
D24*
X127040000Y-84494000D03*
X127040000Y-85444000D03*
X127040000Y-86394000D03*
X129240000Y-86394000D03*
X129240000Y-84494000D03*
D17*
X91500000Y-88174000D03*
X93000000Y-88174000D03*
X92990000Y-89714000D03*
X91490000Y-89714000D03*
X96270000Y-85544000D03*
X94770000Y-85544000D03*
D12*
X102188000Y-88089000D03*
X102188000Y-86589000D03*
X125850000Y-108900000D03*
X125850000Y-107400000D03*
D17*
X128900000Y-108950000D03*
X127400000Y-108950000D03*
X130540000Y-107250000D03*
X132040000Y-107250000D03*
X130540000Y-108994000D03*
X132040000Y-108994000D03*
X133500000Y-91334000D03*
X132000000Y-91334000D03*
D12*
X114040000Y-101494000D03*
X114040000Y-102994000D03*
D17*
X133550000Y-93694000D03*
X132050000Y-93694000D03*
X116770000Y-97874000D03*
X118270000Y-97874000D03*
X128590000Y-88344000D03*
X127090000Y-88344000D03*
X124490000Y-88344000D03*
X125990000Y-88344000D03*
X87992000Y-69234000D03*
X89492000Y-69234000D03*
X135840000Y-82500000D03*
X137340000Y-82500000D03*
X137340000Y-79250000D03*
X135840000Y-79250000D03*
X137340000Y-69244000D03*
X135840000Y-69244000D03*
X135840000Y-71894000D03*
X137340000Y-71894000D03*
D12*
X118340000Y-69994000D03*
X118340000Y-71494000D03*
D17*
X138026000Y-94464000D03*
X136526000Y-94464000D03*
D25*
X103810000Y-93530000D03*
X109710000Y-93530000D03*
D17*
X96840000Y-107644000D03*
X95340000Y-107644000D03*
D12*
X110590000Y-109744000D03*
X110590000Y-108244000D03*
X133050000Y-98500000D03*
X133050000Y-100000000D03*
D26*
X91940000Y-107544000D03*
X89040000Y-107544000D03*
D27*
X110590000Y-111044000D03*
X110590000Y-113944000D03*
D28*
X132000000Y-96014000D03*
X133600000Y-96014000D03*
D29*
X91890000Y-105044000D03*
X89090000Y-105044000D03*
X115690000Y-107444000D03*
X118490000Y-107444000D03*
D30*
X109895000Y-100760000D03*
X104895000Y-100760000D03*
D31*
X115090000Y-90744000D03*
X112090000Y-90744000D03*
D32*
X93190000Y-85544000D03*
X91690000Y-85544000D03*
X112340000Y-96244000D03*
X113840000Y-96244000D03*
D33*
X98590000Y-87744000D03*
X98590000Y-86244000D03*
X103712000Y-86589000D03*
X103712000Y-88089000D03*
D32*
X98644000Y-99785000D03*
X100144000Y-99785000D03*
X96842000Y-99785000D03*
X95342000Y-99785000D03*
D31*
X93830000Y-102071000D03*
X96830000Y-102071000D03*
X101656000Y-102071000D03*
X98656000Y-102071000D03*
D33*
X93806000Y-96344000D03*
X93806000Y-94844000D03*
D32*
X129700000Y-99650000D03*
X128200000Y-99650000D03*
X135200000Y-107250000D03*
X133700000Y-107250000D03*
X135150000Y-108950000D03*
X133650000Y-108950000D03*
X129000000Y-107250000D03*
X127500000Y-107250000D03*
D33*
X124090000Y-95994000D03*
X124090000Y-94494000D03*
D32*
X124540000Y-116244000D03*
X123040000Y-116244000D03*
X128730000Y-91344000D03*
X127230000Y-91344000D03*
D33*
X120940000Y-102944000D03*
X120940000Y-101444000D03*
X124540000Y-84994000D03*
X124540000Y-86494000D03*
D34*
G36*
X80620779Y-72661144D02*
G01*
X80643834Y-72664563D01*
X80666443Y-72670227D01*
X80688387Y-72678079D01*
X80709457Y-72688044D01*
X80729448Y-72700026D01*
X80748168Y-72713910D01*
X80765438Y-72729562D01*
X80781090Y-72746832D01*
X80794974Y-72765552D01*
X80806956Y-72785543D01*
X80816921Y-72806613D01*
X80824773Y-72828557D01*
X80830437Y-72851166D01*
X80833856Y-72874221D01*
X80835000Y-72897500D01*
X80835000Y-73472500D01*
X80833856Y-73495779D01*
X80830437Y-73518834D01*
X80824773Y-73541443D01*
X80816921Y-73563387D01*
X80806956Y-73584457D01*
X80794974Y-73604448D01*
X80781090Y-73623168D01*
X80765438Y-73640438D01*
X80748168Y-73656090D01*
X80729448Y-73669974D01*
X80709457Y-73681956D01*
X80688387Y-73691921D01*
X80666443Y-73699773D01*
X80643834Y-73705437D01*
X80620779Y-73708856D01*
X80597500Y-73710000D01*
X80122500Y-73710000D01*
X80099221Y-73708856D01*
X80076166Y-73705437D01*
X80053557Y-73699773D01*
X80031613Y-73691921D01*
X80010543Y-73681956D01*
X79990552Y-73669974D01*
X79971832Y-73656090D01*
X79954562Y-73640438D01*
X79938910Y-73623168D01*
X79925026Y-73604448D01*
X79913044Y-73584457D01*
X79903079Y-73563387D01*
X79895227Y-73541443D01*
X79889563Y-73518834D01*
X79886144Y-73495779D01*
X79885000Y-73472500D01*
X79885000Y-72897500D01*
X79886144Y-72874221D01*
X79889563Y-72851166D01*
X79895227Y-72828557D01*
X79903079Y-72806613D01*
X79913044Y-72785543D01*
X79925026Y-72765552D01*
X79938910Y-72746832D01*
X79954562Y-72729562D01*
X79971832Y-72713910D01*
X79990552Y-72700026D01*
X80010543Y-72688044D01*
X80031613Y-72678079D01*
X80053557Y-72670227D01*
X80076166Y-72664563D01*
X80099221Y-72661144D01*
X80122500Y-72660000D01*
X80597500Y-72660000D01*
X80620779Y-72661144D01*
X80620779Y-72661144D01*
G37*
D35*
X80360000Y-73185000D03*
D34*
G36*
X80620779Y-74411144D02*
G01*
X80643834Y-74414563D01*
X80666443Y-74420227D01*
X80688387Y-74428079D01*
X80709457Y-74438044D01*
X80729448Y-74450026D01*
X80748168Y-74463910D01*
X80765438Y-74479562D01*
X80781090Y-74496832D01*
X80794974Y-74515552D01*
X80806956Y-74535543D01*
X80816921Y-74556613D01*
X80824773Y-74578557D01*
X80830437Y-74601166D01*
X80833856Y-74624221D01*
X80835000Y-74647500D01*
X80835000Y-75222500D01*
X80833856Y-75245779D01*
X80830437Y-75268834D01*
X80824773Y-75291443D01*
X80816921Y-75313387D01*
X80806956Y-75334457D01*
X80794974Y-75354448D01*
X80781090Y-75373168D01*
X80765438Y-75390438D01*
X80748168Y-75406090D01*
X80729448Y-75419974D01*
X80709457Y-75431956D01*
X80688387Y-75441921D01*
X80666443Y-75449773D01*
X80643834Y-75455437D01*
X80620779Y-75458856D01*
X80597500Y-75460000D01*
X80122500Y-75460000D01*
X80099221Y-75458856D01*
X80076166Y-75455437D01*
X80053557Y-75449773D01*
X80031613Y-75441921D01*
X80010543Y-75431956D01*
X79990552Y-75419974D01*
X79971832Y-75406090D01*
X79954562Y-75390438D01*
X79938910Y-75373168D01*
X79925026Y-75354448D01*
X79913044Y-75334457D01*
X79903079Y-75313387D01*
X79895227Y-75291443D01*
X79889563Y-75268834D01*
X79886144Y-75245779D01*
X79885000Y-75222500D01*
X79885000Y-74647500D01*
X79886144Y-74624221D01*
X79889563Y-74601166D01*
X79895227Y-74578557D01*
X79903079Y-74556613D01*
X79913044Y-74535543D01*
X79925026Y-74515552D01*
X79938910Y-74496832D01*
X79954562Y-74479562D01*
X79971832Y-74463910D01*
X79990552Y-74450026D01*
X80010543Y-74438044D01*
X80031613Y-74428079D01*
X80053557Y-74420227D01*
X80076166Y-74414563D01*
X80099221Y-74411144D01*
X80122500Y-74410000D01*
X80597500Y-74410000D01*
X80620779Y-74411144D01*
X80620779Y-74411144D01*
G37*
D35*
X80360000Y-74935000D03*
D34*
G36*
X81065779Y-68270144D02*
G01*
X81088834Y-68273563D01*
X81111443Y-68279227D01*
X81133387Y-68287079D01*
X81154457Y-68297044D01*
X81174448Y-68309026D01*
X81193168Y-68322910D01*
X81210438Y-68338562D01*
X81226090Y-68355832D01*
X81239974Y-68374552D01*
X81251956Y-68394543D01*
X81261921Y-68415613D01*
X81269773Y-68437557D01*
X81275437Y-68460166D01*
X81278856Y-68483221D01*
X81280000Y-68506500D01*
X81280000Y-68981500D01*
X81278856Y-69004779D01*
X81275437Y-69027834D01*
X81269773Y-69050443D01*
X81261921Y-69072387D01*
X81251956Y-69093457D01*
X81239974Y-69113448D01*
X81226090Y-69132168D01*
X81210438Y-69149438D01*
X81193168Y-69165090D01*
X81174448Y-69178974D01*
X81154457Y-69190956D01*
X81133387Y-69200921D01*
X81111443Y-69208773D01*
X81088834Y-69214437D01*
X81065779Y-69217856D01*
X81042500Y-69219000D01*
X80467500Y-69219000D01*
X80444221Y-69217856D01*
X80421166Y-69214437D01*
X80398557Y-69208773D01*
X80376613Y-69200921D01*
X80355543Y-69190956D01*
X80335552Y-69178974D01*
X80316832Y-69165090D01*
X80299562Y-69149438D01*
X80283910Y-69132168D01*
X80270026Y-69113448D01*
X80258044Y-69093457D01*
X80248079Y-69072387D01*
X80240227Y-69050443D01*
X80234563Y-69027834D01*
X80231144Y-69004779D01*
X80230000Y-68981500D01*
X80230000Y-68506500D01*
X80231144Y-68483221D01*
X80234563Y-68460166D01*
X80240227Y-68437557D01*
X80248079Y-68415613D01*
X80258044Y-68394543D01*
X80270026Y-68374552D01*
X80283910Y-68355832D01*
X80299562Y-68338562D01*
X80316832Y-68322910D01*
X80335552Y-68309026D01*
X80355543Y-68297044D01*
X80376613Y-68287079D01*
X80398557Y-68279227D01*
X80421166Y-68273563D01*
X80444221Y-68270144D01*
X80467500Y-68269000D01*
X81042500Y-68269000D01*
X81065779Y-68270144D01*
X81065779Y-68270144D01*
G37*
D35*
X80755000Y-68744000D03*
D34*
G36*
X82815779Y-68270144D02*
G01*
X82838834Y-68273563D01*
X82861443Y-68279227D01*
X82883387Y-68287079D01*
X82904457Y-68297044D01*
X82924448Y-68309026D01*
X82943168Y-68322910D01*
X82960438Y-68338562D01*
X82976090Y-68355832D01*
X82989974Y-68374552D01*
X83001956Y-68394543D01*
X83011921Y-68415613D01*
X83019773Y-68437557D01*
X83025437Y-68460166D01*
X83028856Y-68483221D01*
X83030000Y-68506500D01*
X83030000Y-68981500D01*
X83028856Y-69004779D01*
X83025437Y-69027834D01*
X83019773Y-69050443D01*
X83011921Y-69072387D01*
X83001956Y-69093457D01*
X82989974Y-69113448D01*
X82976090Y-69132168D01*
X82960438Y-69149438D01*
X82943168Y-69165090D01*
X82924448Y-69178974D01*
X82904457Y-69190956D01*
X82883387Y-69200921D01*
X82861443Y-69208773D01*
X82838834Y-69214437D01*
X82815779Y-69217856D01*
X82792500Y-69219000D01*
X82217500Y-69219000D01*
X82194221Y-69217856D01*
X82171166Y-69214437D01*
X82148557Y-69208773D01*
X82126613Y-69200921D01*
X82105543Y-69190956D01*
X82085552Y-69178974D01*
X82066832Y-69165090D01*
X82049562Y-69149438D01*
X82033910Y-69132168D01*
X82020026Y-69113448D01*
X82008044Y-69093457D01*
X81998079Y-69072387D01*
X81990227Y-69050443D01*
X81984563Y-69027834D01*
X81981144Y-69004779D01*
X81980000Y-68981500D01*
X81980000Y-68506500D01*
X81981144Y-68483221D01*
X81984563Y-68460166D01*
X81990227Y-68437557D01*
X81998079Y-68415613D01*
X82008044Y-68394543D01*
X82020026Y-68374552D01*
X82033910Y-68355832D01*
X82049562Y-68338562D01*
X82066832Y-68322910D01*
X82085552Y-68309026D01*
X82105543Y-68297044D01*
X82126613Y-68287079D01*
X82148557Y-68279227D01*
X82171166Y-68273563D01*
X82194221Y-68270144D01*
X82217500Y-68269000D01*
X82792500Y-68269000D01*
X82815779Y-68270144D01*
X82815779Y-68270144D01*
G37*
D35*
X82505000Y-68744000D03*
D34*
G36*
X140401779Y-94010144D02*
G01*
X140424834Y-94013563D01*
X140447443Y-94019227D01*
X140469387Y-94027079D01*
X140490457Y-94037044D01*
X140510448Y-94049026D01*
X140529168Y-94062910D01*
X140546438Y-94078562D01*
X140562090Y-94095832D01*
X140575974Y-94114552D01*
X140587956Y-94134543D01*
X140597921Y-94155613D01*
X140605773Y-94177557D01*
X140611437Y-94200166D01*
X140614856Y-94223221D01*
X140616000Y-94246500D01*
X140616000Y-94721500D01*
X140614856Y-94744779D01*
X140611437Y-94767834D01*
X140605773Y-94790443D01*
X140597921Y-94812387D01*
X140587956Y-94833457D01*
X140575974Y-94853448D01*
X140562090Y-94872168D01*
X140546438Y-94889438D01*
X140529168Y-94905090D01*
X140510448Y-94918974D01*
X140490457Y-94930956D01*
X140469387Y-94940921D01*
X140447443Y-94948773D01*
X140424834Y-94954437D01*
X140401779Y-94957856D01*
X140378500Y-94959000D01*
X139803500Y-94959000D01*
X139780221Y-94957856D01*
X139757166Y-94954437D01*
X139734557Y-94948773D01*
X139712613Y-94940921D01*
X139691543Y-94930956D01*
X139671552Y-94918974D01*
X139652832Y-94905090D01*
X139635562Y-94889438D01*
X139619910Y-94872168D01*
X139606026Y-94853448D01*
X139594044Y-94833457D01*
X139584079Y-94812387D01*
X139576227Y-94790443D01*
X139570563Y-94767834D01*
X139567144Y-94744779D01*
X139566000Y-94721500D01*
X139566000Y-94246500D01*
X139567144Y-94223221D01*
X139570563Y-94200166D01*
X139576227Y-94177557D01*
X139584079Y-94155613D01*
X139594044Y-94134543D01*
X139606026Y-94114552D01*
X139619910Y-94095832D01*
X139635562Y-94078562D01*
X139652832Y-94062910D01*
X139671552Y-94049026D01*
X139691543Y-94037044D01*
X139712613Y-94027079D01*
X139734557Y-94019227D01*
X139757166Y-94013563D01*
X139780221Y-94010144D01*
X139803500Y-94009000D01*
X140378500Y-94009000D01*
X140401779Y-94010144D01*
X140401779Y-94010144D01*
G37*
D35*
X140091000Y-94484000D03*
D34*
G36*
X142151779Y-94010144D02*
G01*
X142174834Y-94013563D01*
X142197443Y-94019227D01*
X142219387Y-94027079D01*
X142240457Y-94037044D01*
X142260448Y-94049026D01*
X142279168Y-94062910D01*
X142296438Y-94078562D01*
X142312090Y-94095832D01*
X142325974Y-94114552D01*
X142337956Y-94134543D01*
X142347921Y-94155613D01*
X142355773Y-94177557D01*
X142361437Y-94200166D01*
X142364856Y-94223221D01*
X142366000Y-94246500D01*
X142366000Y-94721500D01*
X142364856Y-94744779D01*
X142361437Y-94767834D01*
X142355773Y-94790443D01*
X142347921Y-94812387D01*
X142337956Y-94833457D01*
X142325974Y-94853448D01*
X142312090Y-94872168D01*
X142296438Y-94889438D01*
X142279168Y-94905090D01*
X142260448Y-94918974D01*
X142240457Y-94930956D01*
X142219387Y-94940921D01*
X142197443Y-94948773D01*
X142174834Y-94954437D01*
X142151779Y-94957856D01*
X142128500Y-94959000D01*
X141553500Y-94959000D01*
X141530221Y-94957856D01*
X141507166Y-94954437D01*
X141484557Y-94948773D01*
X141462613Y-94940921D01*
X141441543Y-94930956D01*
X141421552Y-94918974D01*
X141402832Y-94905090D01*
X141385562Y-94889438D01*
X141369910Y-94872168D01*
X141356026Y-94853448D01*
X141344044Y-94833457D01*
X141334079Y-94812387D01*
X141326227Y-94790443D01*
X141320563Y-94767834D01*
X141317144Y-94744779D01*
X141316000Y-94721500D01*
X141316000Y-94246500D01*
X141317144Y-94223221D01*
X141320563Y-94200166D01*
X141326227Y-94177557D01*
X141334079Y-94155613D01*
X141344044Y-94134543D01*
X141356026Y-94114552D01*
X141369910Y-94095832D01*
X141385562Y-94078562D01*
X141402832Y-94062910D01*
X141421552Y-94049026D01*
X141441543Y-94037044D01*
X141462613Y-94027079D01*
X141484557Y-94019227D01*
X141507166Y-94013563D01*
X141530221Y-94010144D01*
X141553500Y-94009000D01*
X142128500Y-94009000D01*
X142151779Y-94010144D01*
X142151779Y-94010144D01*
G37*
D35*
X141841000Y-94484000D03*
D36*
X86640000Y-81644000D03*
D37*
X87440000Y-81644000D03*
D36*
X89040000Y-81644000D03*
D37*
X88240000Y-81644000D03*
D36*
X86640000Y-79844000D03*
D37*
X88240000Y-79844000D03*
X87440000Y-79844000D03*
D36*
X89040000Y-79844000D03*
M02*
