G04 #@! TF.GenerationSoftware,KiCad,Pcbnew,(5.1.4)-1*
G04 #@! TF.CreationDate,2019-11-06T21:38:22+11:00*
G04 #@! TF.ProjectId,dingo-hat,64696e67-6f2d-4686-9174-2e6b69636164,rev?*
G04 #@! TF.SameCoordinates,PX5f37000PY5f5c990*
G04 #@! TF.FileFunction,Copper,L2,Bot*
G04 #@! TF.FilePolarity,Positive*
%FSLAX46Y46*%
G04 Gerber Fmt 4.6, Leading zero omitted, Abs format (unit mm)*
G04 Created by KiCad (PCBNEW (5.1.4)-1) date 2019-11-06 21:38:22*
%MOMM*%
%LPD*%
G04 APERTURE LIST*
%ADD10C,0.100000*%
%ADD11C,3.840000*%
%ADD12O,2.500000X5.000000*%
%ADD13O,2.250000X4.500000*%
%ADD14R,1.000000X1.000000*%
%ADD15O,1.000000X1.000000*%
%ADD16R,1.700000X1.700000*%
%ADD17O,1.700000X1.700000*%
%ADD18R,1.750000X1.750000*%
%ADD19C,1.750000*%
%ADD20C,0.600000*%
%ADD21C,0.500000*%
%ADD22C,0.203200*%
%ADD23C,0.300000*%
%ADD24C,0.254000*%
G04 APERTURE END LIST*
D10*
G36*
X42174096Y8149377D02*
G01*
X42267287Y8135554D01*
X42358673Y8112663D01*
X42447376Y8080924D01*
X42532541Y8040644D01*
X42613347Y7992211D01*
X42689018Y7936090D01*
X42758823Y7872823D01*
X42822090Y7803018D01*
X42878211Y7727347D01*
X42926644Y7646541D01*
X42966924Y7561376D01*
X42998663Y7472673D01*
X43021554Y7381287D01*
X43035377Y7288096D01*
X43040000Y7194000D01*
X43040000Y1494000D01*
X43035377Y1399904D01*
X43021554Y1306713D01*
X42998663Y1215327D01*
X42966924Y1126624D01*
X42926644Y1041459D01*
X42878211Y960653D01*
X42822090Y884982D01*
X42758823Y815177D01*
X42689018Y751910D01*
X42613347Y695789D01*
X42532541Y647356D01*
X42447376Y607076D01*
X42358673Y575337D01*
X42267287Y552446D01*
X42174096Y538623D01*
X42080000Y534000D01*
X40160000Y534000D01*
X40065904Y538623D01*
X39972713Y552446D01*
X39881327Y575337D01*
X39792624Y607076D01*
X39707459Y647356D01*
X39626653Y695789D01*
X39550982Y751910D01*
X39481177Y815177D01*
X39417910Y884982D01*
X39361789Y960653D01*
X39313356Y1041459D01*
X39273076Y1126624D01*
X39241337Y1215327D01*
X39218446Y1306713D01*
X39204623Y1399904D01*
X39200000Y1494000D01*
X39200000Y7194000D01*
X39204623Y7288096D01*
X39218446Y7381287D01*
X39241337Y7472673D01*
X39273076Y7561376D01*
X39313356Y7646541D01*
X39361789Y7727347D01*
X39417910Y7803018D01*
X39481177Y7872823D01*
X39550982Y7936090D01*
X39626653Y7992211D01*
X39707459Y8040644D01*
X39792624Y8080924D01*
X39881327Y8112663D01*
X39972713Y8135554D01*
X40065904Y8149377D01*
X40160000Y8154000D01*
X42080000Y8154000D01*
X42174096Y8149377D01*
X42174096Y8149377D01*
G37*
D11*
X41120000Y4344000D03*
D10*
G36*
X37094096Y8149377D02*
G01*
X37187287Y8135554D01*
X37278673Y8112663D01*
X37367376Y8080924D01*
X37452541Y8040644D01*
X37533347Y7992211D01*
X37609018Y7936090D01*
X37678823Y7872823D01*
X37742090Y7803018D01*
X37798211Y7727347D01*
X37846644Y7646541D01*
X37886924Y7561376D01*
X37918663Y7472673D01*
X37941554Y7381287D01*
X37955377Y7288096D01*
X37960000Y7194000D01*
X37960000Y1494000D01*
X37955377Y1399904D01*
X37941554Y1306713D01*
X37918663Y1215327D01*
X37886924Y1126624D01*
X37846644Y1041459D01*
X37798211Y960653D01*
X37742090Y884982D01*
X37678823Y815177D01*
X37609018Y751910D01*
X37533347Y695789D01*
X37452541Y647356D01*
X37367376Y607076D01*
X37278673Y575337D01*
X37187287Y552446D01*
X37094096Y538623D01*
X37000000Y534000D01*
X35080000Y534000D01*
X34985904Y538623D01*
X34892713Y552446D01*
X34801327Y575337D01*
X34712624Y607076D01*
X34627459Y647356D01*
X34546653Y695789D01*
X34470982Y751910D01*
X34401177Y815177D01*
X34337910Y884982D01*
X34281789Y960653D01*
X34233356Y1041459D01*
X34193076Y1126624D01*
X34161337Y1215327D01*
X34138446Y1306713D01*
X34124623Y1399904D01*
X34120000Y1494000D01*
X34120000Y7194000D01*
X34124623Y7288096D01*
X34138446Y7381287D01*
X34161337Y7472673D01*
X34193076Y7561376D01*
X34233356Y7646541D01*
X34281789Y7727347D01*
X34337910Y7803018D01*
X34401177Y7872823D01*
X34470982Y7936090D01*
X34546653Y7992211D01*
X34627459Y8040644D01*
X34712624Y8080924D01*
X34801327Y8112663D01*
X34892713Y8135554D01*
X34985904Y8149377D01*
X35080000Y8154000D01*
X37000000Y8154000D01*
X37094096Y8149377D01*
X37094096Y8149377D01*
G37*
D11*
X36040000Y4344000D03*
D10*
G36*
X29471096Y8149377D02*
G01*
X29564287Y8135554D01*
X29655673Y8112663D01*
X29744376Y8080924D01*
X29829541Y8040644D01*
X29910347Y7992211D01*
X29986018Y7936090D01*
X30055823Y7872823D01*
X30119090Y7803018D01*
X30175211Y7727347D01*
X30223644Y7646541D01*
X30263924Y7561376D01*
X30295663Y7472673D01*
X30318554Y7381287D01*
X30332377Y7288096D01*
X30337000Y7194000D01*
X30337000Y1494000D01*
X30332377Y1399904D01*
X30318554Y1306713D01*
X30295663Y1215327D01*
X30263924Y1126624D01*
X30223644Y1041459D01*
X30175211Y960653D01*
X30119090Y884982D01*
X30055823Y815177D01*
X29986018Y751910D01*
X29910347Y695789D01*
X29829541Y647356D01*
X29744376Y607076D01*
X29655673Y575337D01*
X29564287Y552446D01*
X29471096Y538623D01*
X29377000Y534000D01*
X27457000Y534000D01*
X27362904Y538623D01*
X27269713Y552446D01*
X27178327Y575337D01*
X27089624Y607076D01*
X27004459Y647356D01*
X26923653Y695789D01*
X26847982Y751910D01*
X26778177Y815177D01*
X26714910Y884982D01*
X26658789Y960653D01*
X26610356Y1041459D01*
X26570076Y1126624D01*
X26538337Y1215327D01*
X26515446Y1306713D01*
X26501623Y1399904D01*
X26497000Y1494000D01*
X26497000Y7194000D01*
X26501623Y7288096D01*
X26515446Y7381287D01*
X26538337Y7472673D01*
X26570076Y7561376D01*
X26610356Y7646541D01*
X26658789Y7727347D01*
X26714910Y7803018D01*
X26778177Y7872823D01*
X26847982Y7936090D01*
X26923653Y7992211D01*
X27004459Y8040644D01*
X27089624Y8080924D01*
X27178327Y8112663D01*
X27269713Y8135554D01*
X27362904Y8149377D01*
X27457000Y8154000D01*
X29377000Y8154000D01*
X29471096Y8149377D01*
X29471096Y8149377D01*
G37*
D11*
X28417000Y4344000D03*
D10*
G36*
X24391096Y8149377D02*
G01*
X24484287Y8135554D01*
X24575673Y8112663D01*
X24664376Y8080924D01*
X24749541Y8040644D01*
X24830347Y7992211D01*
X24906018Y7936090D01*
X24975823Y7872823D01*
X25039090Y7803018D01*
X25095211Y7727347D01*
X25143644Y7646541D01*
X25183924Y7561376D01*
X25215663Y7472673D01*
X25238554Y7381287D01*
X25252377Y7288096D01*
X25257000Y7194000D01*
X25257000Y1494000D01*
X25252377Y1399904D01*
X25238554Y1306713D01*
X25215663Y1215327D01*
X25183924Y1126624D01*
X25143644Y1041459D01*
X25095211Y960653D01*
X25039090Y884982D01*
X24975823Y815177D01*
X24906018Y751910D01*
X24830347Y695789D01*
X24749541Y647356D01*
X24664376Y607076D01*
X24575673Y575337D01*
X24484287Y552446D01*
X24391096Y538623D01*
X24297000Y534000D01*
X22377000Y534000D01*
X22282904Y538623D01*
X22189713Y552446D01*
X22098327Y575337D01*
X22009624Y607076D01*
X21924459Y647356D01*
X21843653Y695789D01*
X21767982Y751910D01*
X21698177Y815177D01*
X21634910Y884982D01*
X21578789Y960653D01*
X21530356Y1041459D01*
X21490076Y1126624D01*
X21458337Y1215327D01*
X21435446Y1306713D01*
X21421623Y1399904D01*
X21417000Y1494000D01*
X21417000Y7194000D01*
X21421623Y7288096D01*
X21435446Y7381287D01*
X21458337Y7472673D01*
X21490076Y7561376D01*
X21530356Y7646541D01*
X21578789Y7727347D01*
X21634910Y7803018D01*
X21698177Y7872823D01*
X21767982Y7936090D01*
X21843653Y7992211D01*
X21924459Y8040644D01*
X22009624Y8080924D01*
X22098327Y8112663D01*
X22189713Y8135554D01*
X22282904Y8149377D01*
X22377000Y8154000D01*
X24297000Y8154000D01*
X24391096Y8149377D01*
X24391096Y8149377D01*
G37*
D11*
X23337000Y4344000D03*
D10*
G36*
X16768096Y8149377D02*
G01*
X16861287Y8135554D01*
X16952673Y8112663D01*
X17041376Y8080924D01*
X17126541Y8040644D01*
X17207347Y7992211D01*
X17283018Y7936090D01*
X17352823Y7872823D01*
X17416090Y7803018D01*
X17472211Y7727347D01*
X17520644Y7646541D01*
X17560924Y7561376D01*
X17592663Y7472673D01*
X17615554Y7381287D01*
X17629377Y7288096D01*
X17634000Y7194000D01*
X17634000Y1494000D01*
X17629377Y1399904D01*
X17615554Y1306713D01*
X17592663Y1215327D01*
X17560924Y1126624D01*
X17520644Y1041459D01*
X17472211Y960653D01*
X17416090Y884982D01*
X17352823Y815177D01*
X17283018Y751910D01*
X17207347Y695789D01*
X17126541Y647356D01*
X17041376Y607076D01*
X16952673Y575337D01*
X16861287Y552446D01*
X16768096Y538623D01*
X16674000Y534000D01*
X14754000Y534000D01*
X14659904Y538623D01*
X14566713Y552446D01*
X14475327Y575337D01*
X14386624Y607076D01*
X14301459Y647356D01*
X14220653Y695789D01*
X14144982Y751910D01*
X14075177Y815177D01*
X14011910Y884982D01*
X13955789Y960653D01*
X13907356Y1041459D01*
X13867076Y1126624D01*
X13835337Y1215327D01*
X13812446Y1306713D01*
X13798623Y1399904D01*
X13794000Y1494000D01*
X13794000Y7194000D01*
X13798623Y7288096D01*
X13812446Y7381287D01*
X13835337Y7472673D01*
X13867076Y7561376D01*
X13907356Y7646541D01*
X13955789Y7727347D01*
X14011910Y7803018D01*
X14075177Y7872823D01*
X14144982Y7936090D01*
X14220653Y7992211D01*
X14301459Y8040644D01*
X14386624Y8080924D01*
X14475327Y8112663D01*
X14566713Y8135554D01*
X14659904Y8149377D01*
X14754000Y8154000D01*
X16674000Y8154000D01*
X16768096Y8149377D01*
X16768096Y8149377D01*
G37*
D11*
X15714000Y4344000D03*
D10*
G36*
X11688096Y8149377D02*
G01*
X11781287Y8135554D01*
X11872673Y8112663D01*
X11961376Y8080924D01*
X12046541Y8040644D01*
X12127347Y7992211D01*
X12203018Y7936090D01*
X12272823Y7872823D01*
X12336090Y7803018D01*
X12392211Y7727347D01*
X12440644Y7646541D01*
X12480924Y7561376D01*
X12512663Y7472673D01*
X12535554Y7381287D01*
X12549377Y7288096D01*
X12554000Y7194000D01*
X12554000Y1494000D01*
X12549377Y1399904D01*
X12535554Y1306713D01*
X12512663Y1215327D01*
X12480924Y1126624D01*
X12440644Y1041459D01*
X12392211Y960653D01*
X12336090Y884982D01*
X12272823Y815177D01*
X12203018Y751910D01*
X12127347Y695789D01*
X12046541Y647356D01*
X11961376Y607076D01*
X11872673Y575337D01*
X11781287Y552446D01*
X11688096Y538623D01*
X11594000Y534000D01*
X9674000Y534000D01*
X9579904Y538623D01*
X9486713Y552446D01*
X9395327Y575337D01*
X9306624Y607076D01*
X9221459Y647356D01*
X9140653Y695789D01*
X9064982Y751910D01*
X8995177Y815177D01*
X8931910Y884982D01*
X8875789Y960653D01*
X8827356Y1041459D01*
X8787076Y1126624D01*
X8755337Y1215327D01*
X8732446Y1306713D01*
X8718623Y1399904D01*
X8714000Y1494000D01*
X8714000Y7194000D01*
X8718623Y7288096D01*
X8732446Y7381287D01*
X8755337Y7472673D01*
X8787076Y7561376D01*
X8827356Y7646541D01*
X8875789Y7727347D01*
X8931910Y7803018D01*
X8995177Y7872823D01*
X9064982Y7936090D01*
X9140653Y7992211D01*
X9221459Y8040644D01*
X9306624Y8080924D01*
X9395327Y8112663D01*
X9486713Y8135554D01*
X9579904Y8149377D01*
X9674000Y8154000D01*
X11594000Y8154000D01*
X11688096Y8149377D01*
X11688096Y8149377D01*
G37*
D11*
X10634000Y4344000D03*
D12*
X57470000Y16050000D03*
D13*
X63470000Y16050000D03*
D14*
X38476000Y12360000D03*
D15*
X39746000Y12360000D03*
D16*
X53790000Y38950000D03*
D17*
X51250000Y38950000D03*
X48710000Y38950000D03*
X46170000Y38950000D03*
D18*
X49980000Y3544000D03*
D19*
X52480000Y3544000D03*
X54980000Y3544000D03*
D16*
X8550000Y51704000D03*
D17*
X8550000Y54244000D03*
X11090000Y51704000D03*
X11090000Y54244000D03*
X13630000Y51704000D03*
X13630000Y54244000D03*
X16170000Y51704000D03*
X16170000Y54244000D03*
X18710000Y51704000D03*
X18710000Y54244000D03*
X21250000Y51704000D03*
X21250000Y54244000D03*
X23790000Y51704000D03*
X23790000Y54244000D03*
X26330000Y51704000D03*
X26330000Y54244000D03*
X28870000Y51704000D03*
X28870000Y54244000D03*
X31410000Y51704000D03*
X31410000Y54244000D03*
X33950000Y51704000D03*
X33950000Y54244000D03*
X36490000Y51704000D03*
X36490000Y54244000D03*
X39030000Y51704000D03*
X39030000Y54244000D03*
X41570000Y51704000D03*
X41570000Y54244000D03*
X44110000Y51704000D03*
X44110000Y54244000D03*
X46650000Y51704000D03*
X46650000Y54244000D03*
X49190000Y51704000D03*
X49190000Y54244000D03*
X51730000Y51704000D03*
X51730000Y54244000D03*
X54270000Y51704000D03*
X54270000Y54244000D03*
X56810000Y51704000D03*
X56810000Y54244000D03*
D16*
X1855000Y17544000D03*
D17*
X4395000Y17544000D03*
X6935000Y17544000D03*
D16*
X1855000Y15004000D03*
D17*
X4395000Y15004000D03*
X6935000Y15004000D03*
X6945000Y12464000D03*
X4405000Y12464000D03*
D16*
X1865000Y12464000D03*
D17*
X6945000Y9924000D03*
X4405000Y9924000D03*
D16*
X1865000Y9924000D03*
X48710000Y46570000D03*
D17*
X51250000Y46570000D03*
X53790000Y46570000D03*
D16*
X37368000Y48208000D03*
D17*
X34828000Y48208000D03*
X32288000Y48208000D03*
X29748000Y48208000D03*
X27208000Y48208000D03*
X24668000Y48208000D03*
X22128000Y48208000D03*
X19588000Y48208000D03*
D16*
X62450000Y46570000D03*
D17*
X62450000Y44030000D03*
X62450000Y41490000D03*
X62450000Y38950000D03*
X62470000Y26250000D03*
X62470000Y28790000D03*
X62470000Y31330000D03*
D16*
X62470000Y33870000D03*
D20*
X45970000Y48500000D03*
X6363000Y41993000D03*
X49470000Y23550000D03*
X49970000Y23050000D03*
X49470000Y22550000D03*
X49970000Y22050000D03*
X20220000Y32050000D03*
X37720000Y26550000D03*
X36470000Y21050000D03*
X27720000Y18050000D03*
X27220000Y19050000D03*
X26720000Y18050000D03*
X26220000Y19050000D03*
X25720000Y18050000D03*
X25220000Y19050000D03*
X24720000Y18050000D03*
X23720000Y18050000D03*
X24220000Y19050000D03*
X23220000Y19050000D03*
X23720000Y20050000D03*
X24720000Y20050000D03*
X25720000Y20050000D03*
X26720000Y20050000D03*
X27720000Y20050000D03*
X27220000Y21050000D03*
X26220000Y21050000D03*
X25220000Y21050000D03*
X24220000Y21050000D03*
X23220000Y21050000D03*
X24720000Y15050000D03*
X25720000Y15050000D03*
X26720000Y15050000D03*
X27720000Y15050000D03*
X34720000Y13550000D03*
X34220000Y12550000D03*
X35220000Y12550000D03*
X35720000Y13550000D03*
X36220000Y12550000D03*
X36720000Y13550000D03*
X37220000Y12550000D03*
X36720000Y11550000D03*
X35720000Y11550000D03*
X34720000Y11550000D03*
X52413999Y23493999D03*
X5970000Y44050000D03*
X12220000Y48050000D03*
X15470000Y23800000D03*
X1220000Y48550000D03*
X1970000Y41050000D03*
X4413000Y41993000D03*
X5020000Y42800000D03*
X5970000Y42800000D03*
X12213000Y38807000D03*
X44470000Y48550000D03*
X56470000Y48050000D03*
X52670000Y28950000D03*
X52170000Y25950000D03*
X60170000Y34850000D03*
X57170000Y22850000D03*
X44470000Y21250000D03*
X15470000Y17550000D03*
X14970000Y16550000D03*
X14470000Y17550000D03*
X13970000Y16550000D03*
X13970000Y14550000D03*
X13470000Y17550000D03*
X13470000Y15550000D03*
X12970000Y16550000D03*
X12970000Y14550000D03*
X44320000Y33600000D03*
X13130000Y26270000D03*
X12020000Y31750000D03*
X6020000Y21140000D03*
X61400000Y10510000D03*
X18890000Y39360000D03*
X31360000Y39330000D03*
X36290000Y32450000D03*
X6350000Y2140000D03*
X42420000Y25270000D03*
X48260000Y18590000D03*
X60410000Y19940000D03*
X57160000Y30010000D03*
X59510000Y43270000D03*
X28190000Y29760000D03*
X48640000Y35830000D03*
X48020000Y42550000D03*
X42820000Y42230000D03*
X52790000Y35540000D03*
X12150000Y19090000D03*
X54660000Y35890000D03*
X14430000Y41460000D03*
X47020000Y27300000D03*
X42350000Y27300000D03*
X9750000Y19700000D03*
X15070000Y48750000D03*
X19710000Y46150000D03*
X15270000Y44550000D03*
X46150000Y25950000D03*
X53680000Y19650000D03*
X32220000Y11800000D03*
X37220000Y17300000D03*
X52170000Y6600000D03*
X55320000Y6600000D03*
X35670000Y17100000D03*
X47120000Y19032785D03*
X39970000Y44650000D03*
D21*
X62470000Y35220000D02*
X62470000Y33870000D01*
X61800000Y35890000D02*
X62470000Y35220000D01*
X54660000Y35890000D02*
X61800000Y35890000D01*
X4405000Y17534000D02*
X4395000Y17544000D01*
X4405000Y9924000D02*
X4405000Y17534000D01*
X4395000Y17544000D02*
X6551000Y19700000D01*
X6551000Y19700000D02*
X7166998Y19700000D01*
X6660000Y52354000D02*
X8550000Y54244000D01*
X47020000Y27300000D02*
X42350000Y27300000D01*
X14430000Y42530000D02*
X6660000Y50300000D01*
X14430000Y41460000D02*
X14430000Y42530000D01*
X6660000Y50300000D02*
X6660000Y52354000D01*
X7166998Y19700000D02*
X9750000Y19700000D01*
D22*
X47860001Y39799999D02*
X48710000Y38950000D01*
X46910000Y40750000D02*
X47860001Y39799999D01*
X29748000Y48208000D02*
X37206000Y40750000D01*
X37206000Y40750000D02*
X46910000Y40750000D01*
X11939999Y50854001D02*
X11090000Y51704000D01*
X13744001Y49049999D02*
X11939999Y50854001D01*
X14770001Y49049999D02*
X13744001Y49049999D01*
X15070000Y48750000D02*
X14770001Y49049999D01*
X36466000Y38950000D02*
X46170000Y38950000D01*
X27208000Y48208000D02*
X36466000Y38950000D01*
X15070000Y48750000D02*
X17670000Y46150000D01*
X17670000Y46150000D02*
X19710000Y46150000D01*
X8550000Y50650800D02*
X14650800Y44550000D01*
X8550000Y51704000D02*
X8550000Y50650800D01*
X14650800Y44550000D02*
X15270000Y44550000D01*
X61944000Y44030000D02*
X62450000Y44030000D01*
X54270000Y51704000D02*
X61944000Y44030000D01*
D23*
X48120000Y19650000D02*
X46150000Y21620000D01*
X46150000Y21620000D02*
X46150000Y25950000D01*
X53680000Y19650000D02*
X48120000Y19650000D01*
X32220000Y11800000D02*
X32220000Y12300000D01*
X32220000Y12300000D02*
X37220000Y17300000D01*
D22*
X52170000Y6600000D02*
X52594264Y6600000D01*
X52594264Y6600000D02*
X55320000Y6600000D01*
X45748272Y20404513D02*
X47120000Y19032785D01*
X36674513Y20404513D02*
X45748272Y20404513D01*
X35670000Y17100000D02*
X35670000Y19400000D01*
X35670000Y19400000D02*
X36674513Y20404513D01*
X51250000Y45230000D02*
X51250000Y46570000D01*
X49670000Y43650000D02*
X51250000Y45230000D01*
X40545736Y43650000D02*
X49670000Y43650000D01*
X39970000Y44650000D02*
X39970000Y44225736D01*
X39970000Y44225736D02*
X40545736Y43650000D01*
D24*
G36*
X62659370Y56015988D02*
G01*
X63139712Y55870965D01*
X63582744Y55635401D01*
X63971582Y55318272D01*
X64291417Y54931659D01*
X64530065Y54490287D01*
X64678441Y54010961D01*
X64733001Y53491861D01*
X64733000Y18395201D01*
X64624705Y18509311D01*
X64342207Y18708944D01*
X64026190Y18849629D01*
X63870043Y18888933D01*
X63597000Y18771206D01*
X63597000Y17877050D01*
X63343000Y17877050D01*
X63343000Y18771206D01*
X63069957Y18888933D01*
X62913810Y18849629D01*
X62597793Y18708944D01*
X62315295Y18509311D01*
X62077171Y18258401D01*
X61892573Y17965856D01*
X61768594Y17642919D01*
X61710000Y17302000D01*
X61710000Y16177000D01*
X62642951Y16177000D01*
X62642950Y15923000D01*
X61710000Y15923000D01*
X61710000Y14798000D01*
X61768594Y14457081D01*
X61892573Y14134144D01*
X62077171Y13841599D01*
X62315295Y13590689D01*
X62597793Y13391056D01*
X62913810Y13250371D01*
X63069957Y13211067D01*
X63343000Y13328794D01*
X63343000Y14222950D01*
X63597000Y14222950D01*
X63597000Y13328794D01*
X63870043Y13211067D01*
X64026190Y13250371D01*
X64342207Y13391056D01*
X64624705Y13590689D01*
X64733000Y13704799D01*
X64733000Y3014883D01*
X64681989Y2494635D01*
X64536965Y2014289D01*
X64301401Y1571256D01*
X63984272Y1182418D01*
X63597659Y862583D01*
X63156286Y623935D01*
X62676961Y475559D01*
X62157870Y421000D01*
X42792936Y421000D01*
X42795898Y422583D01*
X42991165Y582835D01*
X43151417Y778102D01*
X43270495Y1000881D01*
X43343822Y1242610D01*
X43368582Y1494000D01*
X43368582Y7194000D01*
X43343822Y7445390D01*
X43270495Y7687119D01*
X43151417Y7909898D01*
X42991165Y8105165D01*
X42795898Y8265417D01*
X42573119Y8384495D01*
X42331390Y8457822D01*
X42080000Y8482582D01*
X40160000Y8482582D01*
X39908610Y8457822D01*
X39666881Y8384495D01*
X39444102Y8265417D01*
X39248835Y8105165D01*
X39088583Y7909898D01*
X38969505Y7687119D01*
X38896178Y7445390D01*
X38871418Y7194000D01*
X38871418Y1494000D01*
X38896178Y1242610D01*
X38969505Y1000881D01*
X39088583Y778102D01*
X39248835Y582835D01*
X39444102Y422583D01*
X39447064Y421000D01*
X37712936Y421000D01*
X37715898Y422583D01*
X37911165Y582835D01*
X38071417Y778102D01*
X38190495Y1000881D01*
X38263822Y1242610D01*
X38288582Y1494000D01*
X38288582Y7194000D01*
X38263822Y7445390D01*
X38190495Y7687119D01*
X38071417Y7909898D01*
X37911165Y8105165D01*
X37715898Y8265417D01*
X37493119Y8384495D01*
X37251390Y8457822D01*
X37000000Y8482582D01*
X35080000Y8482582D01*
X34828610Y8457822D01*
X34586881Y8384495D01*
X34364102Y8265417D01*
X34168835Y8105165D01*
X34008583Y7909898D01*
X33889505Y7687119D01*
X33816178Y7445390D01*
X33791418Y7194000D01*
X33791418Y1494000D01*
X33816178Y1242610D01*
X33889505Y1000881D01*
X34008583Y778102D01*
X34168835Y582835D01*
X34364102Y422583D01*
X34367064Y421000D01*
X30963943Y421000D01*
X30975072Y534000D01*
X30972000Y4058250D01*
X30813250Y4217000D01*
X28544000Y4217000D01*
X28544000Y4197000D01*
X28290000Y4197000D01*
X28290000Y4217000D01*
X26020750Y4217000D01*
X25862000Y4058250D01*
X25858928Y534000D01*
X25870057Y421000D01*
X25009936Y421000D01*
X25012898Y422583D01*
X25208165Y582835D01*
X25368417Y778102D01*
X25487495Y1000881D01*
X25560822Y1242610D01*
X25585582Y1494000D01*
X25585582Y7194000D01*
X25560822Y7445390D01*
X25487495Y7687119D01*
X25368417Y7909898D01*
X25208165Y8105165D01*
X25148660Y8154000D01*
X25858928Y8154000D01*
X25862000Y4629750D01*
X26020750Y4471000D01*
X28290000Y4471000D01*
X28290000Y8630250D01*
X28544000Y8630250D01*
X28544000Y4471000D01*
X30813250Y4471000D01*
X30972000Y4629750D01*
X30975072Y8154000D01*
X30962812Y8278482D01*
X30926502Y8398180D01*
X30867537Y8508494D01*
X30788185Y8605185D01*
X30691494Y8684537D01*
X30581180Y8743502D01*
X30461482Y8779812D01*
X30337000Y8792072D01*
X28702750Y8789000D01*
X28544000Y8630250D01*
X28290000Y8630250D01*
X28131250Y8789000D01*
X26497000Y8792072D01*
X26372518Y8779812D01*
X26252820Y8743502D01*
X26142506Y8684537D01*
X26045815Y8605185D01*
X25966463Y8508494D01*
X25907498Y8398180D01*
X25871188Y8278482D01*
X25858928Y8154000D01*
X25148660Y8154000D01*
X25012898Y8265417D01*
X24790119Y8384495D01*
X24548390Y8457822D01*
X24297000Y8482582D01*
X22377000Y8482582D01*
X22125610Y8457822D01*
X21883881Y8384495D01*
X21661102Y8265417D01*
X21465835Y8105165D01*
X21305583Y7909898D01*
X21186505Y7687119D01*
X21113178Y7445390D01*
X21088418Y7194000D01*
X21088418Y1494000D01*
X21113178Y1242610D01*
X21186505Y1000881D01*
X21305583Y778102D01*
X21465835Y582835D01*
X21661102Y422583D01*
X21664064Y421000D01*
X18260943Y421000D01*
X18272072Y534000D01*
X18269000Y4058250D01*
X18110250Y4217000D01*
X15841000Y4217000D01*
X15841000Y4197000D01*
X15587000Y4197000D01*
X15587000Y4217000D01*
X13317750Y4217000D01*
X13159000Y4058250D01*
X13155928Y534000D01*
X13167057Y421000D01*
X12306936Y421000D01*
X12309898Y422583D01*
X12505165Y582835D01*
X12665417Y778102D01*
X12784495Y1000881D01*
X12857822Y1242610D01*
X12882582Y1494000D01*
X12882582Y7194000D01*
X12857822Y7445390D01*
X12784495Y7687119D01*
X12665417Y7909898D01*
X12505165Y8105165D01*
X12445660Y8154000D01*
X13155928Y8154000D01*
X13159000Y4629750D01*
X13317750Y4471000D01*
X15587000Y4471000D01*
X15587000Y8630250D01*
X15841000Y8630250D01*
X15841000Y4471000D01*
X18110250Y4471000D01*
X18269000Y4629750D01*
X18272072Y8154000D01*
X18259812Y8278482D01*
X18223502Y8398180D01*
X18164537Y8508494D01*
X18085185Y8605185D01*
X17988494Y8684537D01*
X17878180Y8743502D01*
X17758482Y8779812D01*
X17634000Y8792072D01*
X15999750Y8789000D01*
X15841000Y8630250D01*
X15587000Y8630250D01*
X15428250Y8789000D01*
X13794000Y8792072D01*
X13669518Y8779812D01*
X13549820Y8743502D01*
X13439506Y8684537D01*
X13342815Y8605185D01*
X13263463Y8508494D01*
X13204498Y8398180D01*
X13168188Y8278482D01*
X13155928Y8154000D01*
X12445660Y8154000D01*
X12309898Y8265417D01*
X12087119Y8384495D01*
X11845390Y8457822D01*
X11594000Y8482582D01*
X9674000Y8482582D01*
X9422610Y8457822D01*
X9180881Y8384495D01*
X8958102Y8265417D01*
X8762835Y8105165D01*
X8602583Y7909898D01*
X8483505Y7687119D01*
X8410178Y7445390D01*
X8385418Y7194000D01*
X8385418Y1494000D01*
X8410178Y1242610D01*
X8483505Y1000881D01*
X8602583Y778102D01*
X8762835Y582835D01*
X8958102Y422583D01*
X8961064Y421000D01*
X3180883Y421000D01*
X2660635Y472011D01*
X2180289Y617035D01*
X1737256Y852599D01*
X1348418Y1169728D01*
X1028583Y1556341D01*
X789935Y1997714D01*
X641559Y2477039D01*
X587000Y2996130D01*
X587000Y4163793D01*
X1743000Y4163793D01*
X1743000Y3784207D01*
X1817053Y3411915D01*
X1962315Y3061223D01*
X2173201Y2745609D01*
X2441609Y2477201D01*
X2757223Y2266315D01*
X3107915Y2121053D01*
X3480207Y2047000D01*
X3859793Y2047000D01*
X4232085Y2121053D01*
X4582777Y2266315D01*
X4898391Y2477201D01*
X5166799Y2745609D01*
X5377685Y3061223D01*
X5522947Y3411915D01*
X5597000Y3784207D01*
X5597000Y4163793D01*
X5522947Y4536085D01*
X5377685Y4886777D01*
X5166799Y5202391D01*
X4898391Y5470799D01*
X4582777Y5681685D01*
X4232085Y5826947D01*
X3859793Y5901000D01*
X3480207Y5901000D01*
X3107915Y5826947D01*
X2757223Y5681685D01*
X2441609Y5470799D01*
X2173201Y5202391D01*
X1962315Y4886777D01*
X1817053Y4536085D01*
X1743000Y4163793D01*
X587000Y4163793D01*
X587000Y8603788D01*
X660506Y8543463D01*
X770820Y8484498D01*
X890518Y8448188D01*
X1015000Y8435928D01*
X1579250Y8439000D01*
X1738000Y8597750D01*
X1738000Y9797000D01*
X1718000Y9797000D01*
X1718000Y10051000D01*
X1738000Y10051000D01*
X1738000Y12337000D01*
X1718000Y12337000D01*
X1718000Y12591000D01*
X1738000Y12591000D01*
X1738000Y13790250D01*
X1728000Y13800250D01*
X1728000Y14877000D01*
X1708000Y14877000D01*
X1708000Y15131000D01*
X1728000Y15131000D01*
X1728000Y17417000D01*
X1708000Y17417000D01*
X1708000Y17671000D01*
X1728000Y17671000D01*
X1728000Y18870250D01*
X1982000Y18870250D01*
X1982000Y17671000D01*
X2002000Y17671000D01*
X2002000Y17417000D01*
X1982000Y17417000D01*
X1982000Y15131000D01*
X2002000Y15131000D01*
X2002000Y14877000D01*
X1982000Y14877000D01*
X1982000Y13677750D01*
X1992000Y13667750D01*
X1992000Y12591000D01*
X2012000Y12591000D01*
X2012000Y12337000D01*
X1992000Y12337000D01*
X1992000Y10051000D01*
X2012000Y10051000D01*
X2012000Y9797000D01*
X1992000Y9797000D01*
X1992000Y8597750D01*
X2150750Y8439000D01*
X2715000Y8435928D01*
X2839482Y8448188D01*
X2959180Y8484498D01*
X3069494Y8543463D01*
X3166185Y8622815D01*
X3245537Y8719506D01*
X3304502Y8829820D01*
X3340812Y8949518D01*
X3353072Y9074000D01*
X3351305Y9398491D01*
X3421626Y9266930D01*
X3568709Y9087709D01*
X3747930Y8940626D01*
X3952403Y8831333D01*
X4174268Y8764031D01*
X4347188Y8747000D01*
X4462812Y8747000D01*
X4635732Y8764031D01*
X4857597Y8831333D01*
X5062070Y8940626D01*
X5241291Y9087709D01*
X5388374Y9266930D01*
X5497667Y9471403D01*
X5564969Y9693268D01*
X5587694Y9924000D01*
X5762306Y9924000D01*
X5785031Y9693268D01*
X5852333Y9471403D01*
X5961626Y9266930D01*
X6108709Y9087709D01*
X6287930Y8940626D01*
X6492403Y8831333D01*
X6714268Y8764031D01*
X6887188Y8747000D01*
X7002812Y8747000D01*
X7175732Y8764031D01*
X7397597Y8831333D01*
X7602070Y8940626D01*
X7781291Y9087709D01*
X7928374Y9266930D01*
X8037667Y9471403D01*
X8104969Y9693268D01*
X8127694Y9924000D01*
X8104969Y10154732D01*
X8037667Y10376597D01*
X7928374Y10581070D01*
X7781291Y10760291D01*
X7602070Y10907374D01*
X7397597Y11016667D01*
X7175732Y11083969D01*
X7002812Y11101000D01*
X6887188Y11101000D01*
X6714268Y11083969D01*
X6492403Y11016667D01*
X6287930Y10907374D01*
X6108709Y10760291D01*
X5961626Y10581070D01*
X5852333Y10376597D01*
X5785031Y10154732D01*
X5762306Y9924000D01*
X5587694Y9924000D01*
X5564969Y10154732D01*
X5497667Y10376597D01*
X5388374Y10581070D01*
X5241291Y10760291D01*
X5062070Y10907374D01*
X4982000Y10950172D01*
X4982000Y11437828D01*
X5062070Y11480626D01*
X5241291Y11627709D01*
X5388374Y11806930D01*
X5497667Y12011403D01*
X5564969Y12233268D01*
X5587694Y12464000D01*
X5762306Y12464000D01*
X5785031Y12233268D01*
X5852333Y12011403D01*
X5961626Y11806930D01*
X6108709Y11627709D01*
X6287930Y11480626D01*
X6492403Y11371333D01*
X6714268Y11304031D01*
X6887188Y11287000D01*
X7002812Y11287000D01*
X7175732Y11304031D01*
X7397597Y11371333D01*
X7602070Y11480626D01*
X7781291Y11627709D01*
X7928374Y11806930D01*
X7957678Y11861754D01*
X31593000Y11861754D01*
X31593000Y11738246D01*
X31617095Y11617111D01*
X31664360Y11503004D01*
X31732977Y11400311D01*
X31820311Y11312977D01*
X31923004Y11244360D01*
X32037111Y11197095D01*
X32158246Y11173000D01*
X32281754Y11173000D01*
X32402889Y11197095D01*
X32516996Y11244360D01*
X32619689Y11312977D01*
X32707023Y11400311D01*
X32775640Y11503004D01*
X32822905Y11617111D01*
X32847000Y11738246D01*
X32847000Y11860000D01*
X37337928Y11860000D01*
X37350188Y11735518D01*
X37386498Y11615820D01*
X37445463Y11505506D01*
X37524815Y11408815D01*
X37621506Y11329463D01*
X37731820Y11270498D01*
X37851518Y11234188D01*
X37976000Y11221928D01*
X38190250Y11225000D01*
X38349000Y11383750D01*
X38349000Y12233000D01*
X37499750Y12233000D01*
X37341000Y12074250D01*
X37337928Y11860000D01*
X32847000Y11860000D01*
X32847000Y11861754D01*
X32822905Y11982889D01*
X32775640Y12096996D01*
X32741968Y12147389D01*
X33454579Y12860000D01*
X37337928Y12860000D01*
X37341000Y12645750D01*
X37499750Y12487000D01*
X38349000Y12487000D01*
X38349000Y13336250D01*
X38603000Y13336250D01*
X38603000Y12487000D01*
X38623000Y12487000D01*
X38623000Y12233000D01*
X38603000Y12233000D01*
X38603000Y11383750D01*
X38761750Y11225000D01*
X38976000Y11221928D01*
X39100482Y11234188D01*
X39220180Y11270498D01*
X39330494Y11329463D01*
X39427185Y11408815D01*
X39506537Y11505506D01*
X39535477Y11559649D01*
X39583880Y11544966D01*
X39705376Y11533000D01*
X39786624Y11533000D01*
X39908120Y11544966D01*
X40064010Y11592255D01*
X40207679Y11669048D01*
X40333606Y11772394D01*
X40436952Y11898321D01*
X40513745Y12041990D01*
X40561034Y12197880D01*
X40577001Y12360000D01*
X40561034Y12522120D01*
X40513745Y12678010D01*
X40436952Y12821679D01*
X40333606Y12947606D01*
X40207679Y13050952D01*
X40064010Y13127745D01*
X39908120Y13175034D01*
X39786624Y13187000D01*
X39705376Y13187000D01*
X39583880Y13175034D01*
X39535477Y13160351D01*
X39506537Y13214494D01*
X39427185Y13311185D01*
X39330494Y13390537D01*
X39220180Y13449502D01*
X39100482Y13485812D01*
X38976000Y13498072D01*
X38761750Y13495000D01*
X38603000Y13336250D01*
X38349000Y13336250D01*
X38190250Y13495000D01*
X37976000Y13498072D01*
X37851518Y13485812D01*
X37731820Y13449502D01*
X37621506Y13390537D01*
X37524815Y13311185D01*
X37445463Y13214494D01*
X37386498Y13104180D01*
X37350188Y12984482D01*
X37337928Y12860000D01*
X33454579Y12860000D01*
X37267580Y16673000D01*
X37281754Y16673000D01*
X37402889Y16697095D01*
X37516996Y16744360D01*
X37619689Y16812977D01*
X37707023Y16900311D01*
X37775640Y17003004D01*
X37822905Y17117111D01*
X37847000Y17238246D01*
X37847000Y17361754D01*
X37822905Y17482889D01*
X37775640Y17596996D01*
X37707023Y17699689D01*
X37619689Y17787023D01*
X37516996Y17855640D01*
X37402889Y17902905D01*
X37281754Y17927000D01*
X37158246Y17927000D01*
X37037111Y17902905D01*
X36923004Y17855640D01*
X36820311Y17787023D01*
X36732977Y17699689D01*
X36664360Y17596996D01*
X36617095Y17482889D01*
X36593000Y17361754D01*
X36593000Y17347580D01*
X36297000Y17051580D01*
X36297000Y17161754D01*
X36272905Y17282889D01*
X36225640Y17396996D01*
X36157023Y17499689D01*
X36098600Y17558112D01*
X36098600Y19222469D01*
X36852045Y19975913D01*
X44126196Y19975913D01*
X44123328Y19973104D01*
X44119528Y19968511D01*
X43996178Y19817269D01*
X43974748Y19785015D01*
X43952896Y19753101D01*
X43950063Y19747861D01*
X43950060Y19747857D01*
X43950060Y19747856D01*
X43858435Y19575534D01*
X43843676Y19539727D01*
X43828442Y19504182D01*
X43826681Y19498493D01*
X43826678Y19498486D01*
X43826677Y19498479D01*
X43770270Y19311650D01*
X43762755Y19273698D01*
X43754706Y19235831D01*
X43754083Y19229902D01*
X43735084Y19036133D01*
X43733000Y19014977D01*
X43733001Y3973022D01*
X43735135Y3951354D01*
X43735135Y3938370D01*
X43735758Y3932441D01*
X43757513Y3738491D01*
X43765563Y3700619D01*
X43773077Y3662670D01*
X43774840Y3656974D01*
X43833853Y3470944D01*
X43849113Y3435340D01*
X43863847Y3399594D01*
X43866682Y3394349D01*
X43960704Y3223324D01*
X43982571Y3191388D01*
X44003985Y3159157D01*
X44007782Y3154568D01*
X44007786Y3154562D01*
X44007791Y3154557D01*
X44133236Y3005057D01*
X44160932Y2977934D01*
X44188158Y2950518D01*
X44192772Y2946754D01*
X44192776Y2946750D01*
X44192778Y2946749D01*
X44344878Y2824458D01*
X44377271Y2803261D01*
X44409344Y2781627D01*
X44414608Y2778828D01*
X44587564Y2688408D01*
X44623465Y2673903D01*
X44659127Y2658912D01*
X44664822Y2657193D01*
X44664831Y2657189D01*
X44664840Y2657187D01*
X44852060Y2602086D01*
X44890116Y2594826D01*
X44927984Y2587053D01*
X44933917Y2586470D01*
X45128279Y2568782D01*
X45166981Y2569052D01*
X45205682Y2568782D01*
X45211616Y2569363D01*
X45405713Y2589764D01*
X45443644Y2597550D01*
X45481637Y2604798D01*
X45487343Y2606520D01*
X45487349Y2606522D01*
X45673783Y2664233D01*
X45709483Y2679240D01*
X45745342Y2693728D01*
X45750607Y2696527D01*
X45922284Y2789352D01*
X45954382Y2811002D01*
X45986753Y2832185D01*
X45991374Y2835953D01*
X46141751Y2960357D01*
X46169029Y2987825D01*
X46196672Y3014896D01*
X46200472Y3019489D01*
X46323822Y3170731D01*
X46345264Y3203003D01*
X46367104Y3234900D01*
X46369937Y3240139D01*
X46369940Y3240143D01*
X46369942Y3240147D01*
X46461565Y3412466D01*
X46476329Y3448285D01*
X46491558Y3483818D01*
X46493318Y3489504D01*
X46493322Y3489514D01*
X46493324Y3489524D01*
X46549731Y3676350D01*
X46557258Y3714368D01*
X46565293Y3752168D01*
X46565917Y3758098D01*
X46584962Y3952331D01*
X46587000Y3973022D01*
X46587000Y4419000D01*
X48776418Y4419000D01*
X48776418Y2669000D01*
X48782732Y2604897D01*
X48801430Y2543257D01*
X48831794Y2486450D01*
X48872657Y2436657D01*
X48922450Y2395794D01*
X48979257Y2365430D01*
X49040897Y2346732D01*
X49105000Y2340418D01*
X50855000Y2340418D01*
X50919103Y2346732D01*
X50980743Y2365430D01*
X51037550Y2395794D01*
X51087343Y2436657D01*
X51128206Y2486450D01*
X51158570Y2543257D01*
X51177268Y2604897D01*
X51183582Y2669000D01*
X51183582Y3662387D01*
X51278000Y3662387D01*
X51278000Y3425613D01*
X51324192Y3193390D01*
X51414801Y2974639D01*
X51546346Y2777770D01*
X51713770Y2610346D01*
X51910639Y2478801D01*
X52129390Y2388192D01*
X52361613Y2342000D01*
X52598387Y2342000D01*
X52830610Y2388192D01*
X53049361Y2478801D01*
X53246230Y2610346D01*
X53413654Y2777770D01*
X53545199Y2974639D01*
X53635808Y3193390D01*
X53682000Y3425613D01*
X53682000Y3662387D01*
X53778000Y3662387D01*
X53778000Y3425613D01*
X53824192Y3193390D01*
X53914801Y2974639D01*
X54046346Y2777770D01*
X54213770Y2610346D01*
X54410639Y2478801D01*
X54629390Y2388192D01*
X54861613Y2342000D01*
X55098387Y2342000D01*
X55330610Y2388192D01*
X55549361Y2478801D01*
X55746230Y2610346D01*
X55913654Y2777770D01*
X56045199Y2974639D01*
X56135808Y3193390D01*
X56182000Y3425613D01*
X56182000Y3662387D01*
X56135808Y3894610D01*
X56045199Y4113361D01*
X56004820Y4173793D01*
X59733000Y4173793D01*
X59733000Y3794207D01*
X59807053Y3421915D01*
X59952315Y3071223D01*
X60163201Y2755609D01*
X60431609Y2487201D01*
X60747223Y2276315D01*
X61097915Y2131053D01*
X61470207Y2057000D01*
X61849793Y2057000D01*
X62222085Y2131053D01*
X62572777Y2276315D01*
X62888391Y2487201D01*
X63156799Y2755609D01*
X63367685Y3071223D01*
X63512947Y3421915D01*
X63587000Y3794207D01*
X63587000Y4173793D01*
X63512947Y4546085D01*
X63367685Y4896777D01*
X63156799Y5212391D01*
X62888391Y5480799D01*
X62572777Y5691685D01*
X62222085Y5836947D01*
X61849793Y5911000D01*
X61470207Y5911000D01*
X61097915Y5836947D01*
X60747223Y5691685D01*
X60431609Y5480799D01*
X60163201Y5212391D01*
X59952315Y4896777D01*
X59807053Y4546085D01*
X59733000Y4173793D01*
X56004820Y4173793D01*
X55913654Y4310230D01*
X55746230Y4477654D01*
X55549361Y4609199D01*
X55330610Y4699808D01*
X55098387Y4746000D01*
X54861613Y4746000D01*
X54629390Y4699808D01*
X54410639Y4609199D01*
X54213770Y4477654D01*
X54046346Y4310230D01*
X53914801Y4113361D01*
X53824192Y3894610D01*
X53778000Y3662387D01*
X53682000Y3662387D01*
X53635808Y3894610D01*
X53545199Y4113361D01*
X53413654Y4310230D01*
X53246230Y4477654D01*
X53049361Y4609199D01*
X52830610Y4699808D01*
X52598387Y4746000D01*
X52361613Y4746000D01*
X52129390Y4699808D01*
X51910639Y4609199D01*
X51713770Y4477654D01*
X51546346Y4310230D01*
X51414801Y4113361D01*
X51324192Y3894610D01*
X51278000Y3662387D01*
X51183582Y3662387D01*
X51183582Y4419000D01*
X51177268Y4483103D01*
X51158570Y4544743D01*
X51128206Y4601550D01*
X51087343Y4651343D01*
X51037550Y4692206D01*
X50980743Y4722570D01*
X50919103Y4741268D01*
X50855000Y4747582D01*
X49105000Y4747582D01*
X49040897Y4741268D01*
X48979257Y4722570D01*
X48922450Y4692206D01*
X48872657Y4651343D01*
X48831794Y4601550D01*
X48801430Y4544743D01*
X48782732Y4483103D01*
X48776418Y4419000D01*
X46587000Y4419000D01*
X46587000Y6661754D01*
X51543000Y6661754D01*
X51543000Y6538246D01*
X51567095Y6417111D01*
X51614360Y6303004D01*
X51682977Y6200311D01*
X51770311Y6112977D01*
X51873004Y6044360D01*
X51987111Y5997095D01*
X52108246Y5973000D01*
X52231754Y5973000D01*
X52352889Y5997095D01*
X52466996Y6044360D01*
X52569689Y6112977D01*
X52628112Y6171400D01*
X54861888Y6171400D01*
X54920311Y6112977D01*
X55023004Y6044360D01*
X55137111Y5997095D01*
X55258246Y5973000D01*
X55381754Y5973000D01*
X55502889Y5997095D01*
X55616996Y6044360D01*
X55719689Y6112977D01*
X55807023Y6200311D01*
X55875640Y6303004D01*
X55922905Y6417111D01*
X55947000Y6538246D01*
X55947000Y6661754D01*
X55922905Y6782889D01*
X55875640Y6896996D01*
X55807023Y6999689D01*
X55719689Y7087023D01*
X55616996Y7155640D01*
X55502889Y7202905D01*
X55381754Y7227000D01*
X55258246Y7227000D01*
X55137111Y7202905D01*
X55023004Y7155640D01*
X54920311Y7087023D01*
X54861888Y7028600D01*
X52628112Y7028600D01*
X52569689Y7087023D01*
X52466996Y7155640D01*
X52352889Y7202905D01*
X52231754Y7227000D01*
X52108246Y7227000D01*
X51987111Y7202905D01*
X51873004Y7155640D01*
X51770311Y7087023D01*
X51682977Y6999689D01*
X51614360Y6896996D01*
X51567095Y6782889D01*
X51543000Y6661754D01*
X46587000Y6661754D01*
X46587000Y17377468D01*
X55893000Y17377468D01*
X55893001Y14722531D01*
X55915819Y14490854D01*
X56005994Y14193588D01*
X56152429Y13919627D01*
X56349498Y13679497D01*
X56589628Y13482428D01*
X56863589Y13335993D01*
X57160855Y13245818D01*
X57470000Y13215370D01*
X57779146Y13245818D01*
X58076412Y13335993D01*
X58350373Y13482428D01*
X58590503Y13679497D01*
X58787572Y13919627D01*
X58934007Y14193588D01*
X59024182Y14490854D01*
X59047000Y14722531D01*
X59047000Y17377469D01*
X59024182Y17609146D01*
X58934007Y17906412D01*
X58787572Y18180373D01*
X58590503Y18420503D01*
X58350372Y18617572D01*
X58076411Y18764007D01*
X57779145Y18854182D01*
X57470000Y18884630D01*
X57160854Y18854182D01*
X56863588Y18764007D01*
X56589627Y18617572D01*
X56349497Y18420503D01*
X56152428Y18180372D01*
X56005993Y17906411D01*
X55915818Y17609145D01*
X55893000Y17377468D01*
X46587000Y17377468D01*
X46587000Y18701906D01*
X46632977Y18633096D01*
X46720311Y18545762D01*
X46823004Y18477145D01*
X46937111Y18429880D01*
X47058246Y18405785D01*
X47181754Y18405785D01*
X47302889Y18429880D01*
X47416996Y18477145D01*
X47519689Y18545762D01*
X47607023Y18633096D01*
X47675640Y18735789D01*
X47722905Y18849896D01*
X47747000Y18971031D01*
X47747000Y19094539D01*
X47722905Y19215674D01*
X47675640Y19329781D01*
X47607023Y19432474D01*
X47519689Y19519808D01*
X47416996Y19588425D01*
X47302889Y19635690D01*
X47181754Y19659785D01*
X47099132Y19659785D01*
X46066227Y20692689D01*
X46052804Y20709045D01*
X45987541Y20762605D01*
X45913083Y20802403D01*
X45832292Y20826911D01*
X45769320Y20833113D01*
X45748272Y20835186D01*
X45727224Y20833113D01*
X36695561Y20833113D01*
X36674513Y20835186D01*
X36590492Y20826911D01*
X36565984Y20819476D01*
X36509702Y20802403D01*
X36435244Y20762605D01*
X36369981Y20709045D01*
X36356562Y20692694D01*
X35381819Y19717950D01*
X35365469Y19704532D01*
X35352051Y19688182D01*
X35311909Y19639269D01*
X35272111Y19564811D01*
X35247602Y19484020D01*
X35239327Y19400000D01*
X35241401Y19378942D01*
X35241400Y17558112D01*
X35182977Y17499689D01*
X35114360Y17396996D01*
X35067095Y17282889D01*
X35043000Y17161754D01*
X35043000Y17038246D01*
X35067095Y16917111D01*
X35114360Y16803004D01*
X35182977Y16700311D01*
X35270311Y16612977D01*
X35373004Y16544360D01*
X35487111Y16497095D01*
X35608246Y16473000D01*
X35718420Y16473000D01*
X31899271Y12653850D01*
X31881080Y12638921D01*
X31821472Y12566289D01*
X31797863Y12522120D01*
X31777178Y12483422D01*
X31749903Y12393507D01*
X31740694Y12300000D01*
X31743001Y12276576D01*
X31743001Y12209713D01*
X31732977Y12199689D01*
X31664360Y12096996D01*
X31617095Y11982889D01*
X31593000Y11861754D01*
X7957678Y11861754D01*
X8037667Y12011403D01*
X8104969Y12233268D01*
X8127694Y12464000D01*
X8104969Y12694732D01*
X8037667Y12916597D01*
X7928374Y13121070D01*
X7781291Y13300291D01*
X7602070Y13447374D01*
X7397597Y13556667D01*
X7175732Y13623969D01*
X7002812Y13641000D01*
X6887188Y13641000D01*
X6714268Y13623969D01*
X6492403Y13556667D01*
X6287930Y13447374D01*
X6108709Y13300291D01*
X5961626Y13121070D01*
X5852333Y12916597D01*
X5785031Y12694732D01*
X5762306Y12464000D01*
X5587694Y12464000D01*
X5564969Y12694732D01*
X5497667Y12916597D01*
X5388374Y13121070D01*
X5241291Y13300291D01*
X5062070Y13447374D01*
X4982000Y13490172D01*
X4982000Y13983173D01*
X5052070Y14020626D01*
X5231291Y14167709D01*
X5378374Y14346930D01*
X5487667Y14551403D01*
X5554969Y14773268D01*
X5577694Y15004000D01*
X5752306Y15004000D01*
X5775031Y14773268D01*
X5842333Y14551403D01*
X5951626Y14346930D01*
X6098709Y14167709D01*
X6277930Y14020626D01*
X6482403Y13911333D01*
X6704268Y13844031D01*
X6877188Y13827000D01*
X6992812Y13827000D01*
X7165732Y13844031D01*
X7387597Y13911333D01*
X7592070Y14020626D01*
X7771291Y14167709D01*
X7918374Y14346930D01*
X8027667Y14551403D01*
X8094969Y14773268D01*
X8117694Y15004000D01*
X8094969Y15234732D01*
X8027667Y15456597D01*
X7918374Y15661070D01*
X7771291Y15840291D01*
X7592070Y15987374D01*
X7387597Y16096667D01*
X7165732Y16163969D01*
X6992812Y16181000D01*
X6877188Y16181000D01*
X6704268Y16163969D01*
X6482403Y16096667D01*
X6277930Y15987374D01*
X6098709Y15840291D01*
X5951626Y15661070D01*
X5842333Y15456597D01*
X5775031Y15234732D01*
X5752306Y15004000D01*
X5577694Y15004000D01*
X5554969Y15234732D01*
X5487667Y15456597D01*
X5378374Y15661070D01*
X5231291Y15840291D01*
X5052070Y15987374D01*
X4982000Y16024827D01*
X4982000Y16523173D01*
X5052070Y16560626D01*
X5231291Y16707709D01*
X5378374Y16886930D01*
X5487667Y17091403D01*
X5554969Y17313268D01*
X5577694Y17544000D01*
X5752306Y17544000D01*
X5775031Y17313268D01*
X5842333Y17091403D01*
X5951626Y16886930D01*
X6098709Y16707709D01*
X6277930Y16560626D01*
X6482403Y16451333D01*
X6704268Y16384031D01*
X6877188Y16367000D01*
X6992812Y16367000D01*
X7165732Y16384031D01*
X7387597Y16451333D01*
X7592070Y16560626D01*
X7771291Y16707709D01*
X7918374Y16886930D01*
X8027667Y17091403D01*
X8094969Y17313268D01*
X8117694Y17544000D01*
X8094969Y17774732D01*
X8027667Y17996597D01*
X7918374Y18201070D01*
X7771291Y18380291D01*
X7592070Y18527374D01*
X7387597Y18636667D01*
X7165732Y18703969D01*
X6992812Y18721000D01*
X6877188Y18721000D01*
X6704268Y18703969D01*
X6482403Y18636667D01*
X6277930Y18527374D01*
X6098709Y18380291D01*
X5951626Y18201070D01*
X5842333Y17996597D01*
X5775031Y17774732D01*
X5752306Y17544000D01*
X5577694Y17544000D01*
X5554969Y17774732D01*
X5528614Y17861613D01*
X6790001Y19123000D01*
X9504571Y19123000D01*
X9567111Y19097095D01*
X9688246Y19073000D01*
X9811754Y19073000D01*
X9932889Y19097095D01*
X10046996Y19144360D01*
X10149689Y19212977D01*
X10237023Y19300311D01*
X10305640Y19403004D01*
X10352905Y19517111D01*
X10377000Y19638246D01*
X10377000Y19761754D01*
X10352905Y19882889D01*
X10305640Y19996996D01*
X10237023Y20099689D01*
X10149689Y20187023D01*
X10046996Y20255640D01*
X9932889Y20302905D01*
X9811754Y20327000D01*
X9688246Y20327000D01*
X9567111Y20302905D01*
X9504571Y20277000D01*
X6579328Y20277000D01*
X6550999Y20279790D01*
X6522670Y20277000D01*
X6522664Y20277000D01*
X6437888Y20268650D01*
X6329124Y20235657D01*
X6228885Y20182079D01*
X6141026Y20109974D01*
X6122961Y20087962D01*
X4712613Y18677614D01*
X4625732Y18703969D01*
X4452812Y18721000D01*
X4337188Y18721000D01*
X4164268Y18703969D01*
X3942403Y18636667D01*
X3737930Y18527374D01*
X3558709Y18380291D01*
X3411626Y18201070D01*
X3341305Y18069509D01*
X3343072Y18394000D01*
X3330812Y18518482D01*
X3294502Y18638180D01*
X3235537Y18748494D01*
X3156185Y18845185D01*
X3059494Y18924537D01*
X2949180Y18983502D01*
X2829482Y19019812D01*
X2705000Y19032072D01*
X2140750Y19029000D01*
X1982000Y18870250D01*
X1728000Y18870250D01*
X1569250Y19029000D01*
X1005000Y19032072D01*
X963418Y19027977D01*
X1045193Y19053290D01*
X1175629Y19067000D01*
X4139863Y19067000D01*
X4203643Y19060971D01*
X4231696Y19061069D01*
X4259698Y19059371D01*
X4265654Y19059634D01*
X4437934Y19068452D01*
X4476226Y19074195D01*
X4514555Y19079398D01*
X4520345Y19080813D01*
X4520348Y19080813D01*
X4520350Y19080814D01*
X4687630Y19122925D01*
X4724103Y19136005D01*
X4760668Y19148546D01*
X4766069Y19151056D01*
X4766074Y19151058D01*
X4766078Y19151061D01*
X4921994Y19224862D01*
X4955206Y19244762D01*
X4988663Y19264181D01*
X4993479Y19267696D01*
X5132093Y19370378D01*
X5160784Y19396330D01*
X5189854Y19421896D01*
X5193895Y19426279D01*
X5309926Y19553929D01*
X5333053Y19584990D01*
X5356584Y19615690D01*
X5359697Y19620775D01*
X5448723Y19768532D01*
X5465380Y19803501D01*
X5482493Y19838173D01*
X5484559Y19843766D01*
X5543191Y20006000D01*
X5552737Y20043532D01*
X5562793Y20080879D01*
X5563733Y20086766D01*
X5589736Y20257298D01*
X5591810Y20295970D01*
X5594420Y20334556D01*
X5594199Y20340514D01*
X5587000Y20503435D01*
X5587000Y26011754D01*
X45523000Y26011754D01*
X45523000Y25888246D01*
X45547095Y25767111D01*
X45594360Y25653004D01*
X45662977Y25550311D01*
X45673001Y25540287D01*
X45673000Y21643415D01*
X45670694Y21620000D01*
X45673000Y21596585D01*
X45673000Y21596578D01*
X45679903Y21526493D01*
X45707178Y21436578D01*
X45751471Y21353711D01*
X45811079Y21281079D01*
X45829276Y21266145D01*
X47766149Y19329271D01*
X47781079Y19311079D01*
X47799270Y19296150D01*
X47799272Y19296148D01*
X47847653Y19256443D01*
X47853711Y19251471D01*
X47936577Y19207178D01*
X48026492Y19179903D01*
X48096577Y19173000D01*
X48096585Y19173000D01*
X48120000Y19170694D01*
X48143415Y19173000D01*
X53270288Y19173000D01*
X53280311Y19162977D01*
X53383004Y19094360D01*
X53497111Y19047095D01*
X53618246Y19023000D01*
X53741754Y19023000D01*
X53862889Y19047095D01*
X53976996Y19094360D01*
X54079689Y19162977D01*
X54167023Y19250311D01*
X54235640Y19353004D01*
X54282905Y19467111D01*
X54307000Y19588246D01*
X54307000Y19711754D01*
X54282905Y19832889D01*
X54235640Y19946996D01*
X54167023Y20049689D01*
X54079689Y20137023D01*
X53976996Y20205640D01*
X53862889Y20252905D01*
X53741754Y20277000D01*
X53618246Y20277000D01*
X53497111Y20252905D01*
X53383004Y20205640D01*
X53280311Y20137023D01*
X53270288Y20127000D01*
X48317580Y20127000D01*
X46627000Y21817579D01*
X46627000Y25540288D01*
X46637023Y25550311D01*
X46705640Y25653004D01*
X46752905Y25767111D01*
X46777000Y25888246D01*
X46777000Y25893110D01*
X61028524Y25893110D01*
X61073175Y25745901D01*
X61198359Y25483080D01*
X61372412Y25249731D01*
X61588645Y25054822D01*
X61838748Y24905843D01*
X62113109Y24808519D01*
X62343000Y24929186D01*
X62343000Y26123000D01*
X62597000Y26123000D01*
X62597000Y24929186D01*
X62826891Y24808519D01*
X63101252Y24905843D01*
X63351355Y25054822D01*
X63567588Y25249731D01*
X63741641Y25483080D01*
X63866825Y25745901D01*
X63911476Y25893110D01*
X63790155Y26123000D01*
X62597000Y26123000D01*
X62343000Y26123000D01*
X61149845Y26123000D01*
X61028524Y25893110D01*
X46777000Y25893110D01*
X46777000Y26011754D01*
X46752905Y26132889D01*
X46705640Y26246996D01*
X46637023Y26349689D01*
X46549689Y26437023D01*
X46446996Y26505640D01*
X46332889Y26552905D01*
X46211754Y26577000D01*
X46088246Y26577000D01*
X45967111Y26552905D01*
X45853004Y26505640D01*
X45750311Y26437023D01*
X45662977Y26349689D01*
X45594360Y26246996D01*
X45547095Y26132889D01*
X45523000Y26011754D01*
X5587000Y26011754D01*
X5587000Y26606890D01*
X61028524Y26606890D01*
X61149845Y26377000D01*
X62343000Y26377000D01*
X62343000Y26397000D01*
X62597000Y26397000D01*
X62597000Y26377000D01*
X63790155Y26377000D01*
X63911476Y26606890D01*
X63866825Y26754099D01*
X63741641Y27016920D01*
X63567588Y27250269D01*
X63351355Y27445178D01*
X63101252Y27594157D01*
X62862115Y27678986D01*
X62922597Y27697333D01*
X63127070Y27806626D01*
X63306291Y27953709D01*
X63453374Y28132930D01*
X63562667Y28337403D01*
X63629969Y28559268D01*
X63652694Y28790000D01*
X63629969Y29020732D01*
X63562667Y29242597D01*
X63453374Y29447070D01*
X63306291Y29626291D01*
X63127070Y29773374D01*
X62922597Y29882667D01*
X62700732Y29949969D01*
X62527812Y29967000D01*
X62412188Y29967000D01*
X62239268Y29949969D01*
X62017403Y29882667D01*
X61812930Y29773374D01*
X61633709Y29626291D01*
X61486626Y29447070D01*
X61377333Y29242597D01*
X61310031Y29020732D01*
X61287306Y28790000D01*
X61310031Y28559268D01*
X61377333Y28337403D01*
X61486626Y28132930D01*
X61633709Y27953709D01*
X61812930Y27806626D01*
X62017403Y27697333D01*
X62077885Y27678986D01*
X61838748Y27594157D01*
X61588645Y27445178D01*
X61372412Y27250269D01*
X61198359Y27016920D01*
X61073175Y26754099D01*
X61028524Y26606890D01*
X5587000Y26606890D01*
X5587000Y27361754D01*
X41723000Y27361754D01*
X41723000Y27238246D01*
X41747095Y27117111D01*
X41794360Y27003004D01*
X41862977Y26900311D01*
X41950311Y26812977D01*
X42053004Y26744360D01*
X42167111Y26697095D01*
X42288246Y26673000D01*
X42411754Y26673000D01*
X42532889Y26697095D01*
X42595429Y26723000D01*
X46774571Y26723000D01*
X46837111Y26697095D01*
X46958246Y26673000D01*
X47081754Y26673000D01*
X47202889Y26697095D01*
X47316996Y26744360D01*
X47419689Y26812977D01*
X47507023Y26900311D01*
X47575640Y27003004D01*
X47622905Y27117111D01*
X47647000Y27238246D01*
X47647000Y27361754D01*
X47622905Y27482889D01*
X47575640Y27596996D01*
X47507023Y27699689D01*
X47419689Y27787023D01*
X47316996Y27855640D01*
X47202889Y27902905D01*
X47081754Y27927000D01*
X46958246Y27927000D01*
X46837111Y27902905D01*
X46774571Y27877000D01*
X42595429Y27877000D01*
X42532889Y27902905D01*
X42411754Y27927000D01*
X42288246Y27927000D01*
X42167111Y27902905D01*
X42053004Y27855640D01*
X41950311Y27787023D01*
X41862977Y27699689D01*
X41794360Y27596996D01*
X41747095Y27482889D01*
X41723000Y27361754D01*
X5587000Y27361754D01*
X5587000Y31330000D01*
X61287306Y31330000D01*
X61310031Y31099268D01*
X61377333Y30877403D01*
X61486626Y30672930D01*
X61633709Y30493709D01*
X61812930Y30346626D01*
X62017403Y30237333D01*
X62239268Y30170031D01*
X62412188Y30153000D01*
X62527812Y30153000D01*
X62700732Y30170031D01*
X62922597Y30237333D01*
X63127070Y30346626D01*
X63306291Y30493709D01*
X63453374Y30672930D01*
X63562667Y30877403D01*
X63629969Y31099268D01*
X63652694Y31330000D01*
X63629969Y31560732D01*
X63562667Y31782597D01*
X63453374Y31987070D01*
X63306291Y32166291D01*
X63127070Y32313374D01*
X62922597Y32422667D01*
X62700732Y32489969D01*
X62527812Y32507000D01*
X62412188Y32507000D01*
X62239268Y32489969D01*
X62017403Y32422667D01*
X61812930Y32313374D01*
X61633709Y32166291D01*
X61486626Y31987070D01*
X61377333Y31782597D01*
X61310031Y31560732D01*
X61287306Y31330000D01*
X5587000Y31330000D01*
X5587000Y35473863D01*
X5593029Y35537643D01*
X5592931Y35565696D01*
X5594629Y35593697D01*
X5594366Y35599654D01*
X5585548Y35771933D01*
X5579801Y35810253D01*
X5574601Y35848555D01*
X5573187Y35854347D01*
X5548666Y35951754D01*
X54033000Y35951754D01*
X54033000Y35828246D01*
X54057095Y35707111D01*
X54104360Y35593004D01*
X54172977Y35490311D01*
X54260311Y35402977D01*
X54363004Y35334360D01*
X54477111Y35287095D01*
X54598246Y35263000D01*
X54721754Y35263000D01*
X54842889Y35287095D01*
X54905429Y35313000D01*
X61560999Y35313000D01*
X61825416Y35048582D01*
X61620000Y35048582D01*
X61555897Y35042268D01*
X61494257Y35023570D01*
X61437450Y34993206D01*
X61387657Y34952343D01*
X61346794Y34902550D01*
X61316430Y34845743D01*
X61297732Y34784103D01*
X61291418Y34720000D01*
X61291418Y33020000D01*
X61297732Y32955897D01*
X61316430Y32894257D01*
X61346794Y32837450D01*
X61387657Y32787657D01*
X61437450Y32746794D01*
X61494257Y32716430D01*
X61555897Y32697732D01*
X61620000Y32691418D01*
X63320000Y32691418D01*
X63384103Y32697732D01*
X63445743Y32716430D01*
X63502550Y32746794D01*
X63552343Y32787657D01*
X63593206Y32837450D01*
X63623570Y32894257D01*
X63642268Y32955897D01*
X63648582Y33020000D01*
X63648582Y34720000D01*
X63642268Y34784103D01*
X63623570Y34845743D01*
X63593206Y34902550D01*
X63552343Y34952343D01*
X63502550Y34993206D01*
X63445743Y35023570D01*
X63384103Y35042268D01*
X63320000Y35048582D01*
X63047000Y35048582D01*
X63047000Y35191672D01*
X63049790Y35220001D01*
X63047000Y35248330D01*
X63047000Y35248336D01*
X63038650Y35333112D01*
X63005657Y35441876D01*
X62952079Y35542115D01*
X62909746Y35593697D01*
X62898037Y35607965D01*
X62898035Y35607967D01*
X62879974Y35629974D01*
X62857968Y35648034D01*
X62228039Y36277962D01*
X62209974Y36299974D01*
X62122115Y36372079D01*
X62021876Y36425657D01*
X61957770Y36445103D01*
X61913111Y36458651D01*
X61858045Y36464074D01*
X61828336Y36467000D01*
X61828331Y36467000D01*
X61800000Y36469790D01*
X61771669Y36467000D01*
X54905429Y36467000D01*
X54842889Y36492905D01*
X54721754Y36517000D01*
X54598246Y36517000D01*
X54477111Y36492905D01*
X54363004Y36445640D01*
X54260311Y36377023D01*
X54172977Y36289689D01*
X54104360Y36186996D01*
X54057095Y36072889D01*
X54033000Y35951754D01*
X5548666Y35951754D01*
X5531075Y36021631D01*
X5517990Y36058115D01*
X5505454Y36094668D01*
X5502944Y36100069D01*
X5502942Y36100074D01*
X5502939Y36100078D01*
X5429138Y36255994D01*
X5409247Y36289189D01*
X5389819Y36322664D01*
X5386304Y36327479D01*
X5283622Y36466093D01*
X5257638Y36494819D01*
X5232104Y36523854D01*
X5227721Y36527895D01*
X5100071Y36643926D01*
X5069010Y36667053D01*
X5038310Y36690584D01*
X5033225Y36693697D01*
X4885468Y36782723D01*
X4850525Y36799367D01*
X4815827Y36816493D01*
X4810234Y36818559D01*
X4648000Y36877191D01*
X4610468Y36886737D01*
X4573121Y36896793D01*
X4567239Y36897732D01*
X4567236Y36897733D01*
X4567233Y36897733D01*
X4396702Y36923736D01*
X4358030Y36925810D01*
X4319444Y36928420D01*
X4313486Y36928199D01*
X4150565Y36921000D01*
X1180883Y36921000D01*
X1049101Y36933922D01*
X942430Y36966127D01*
X844039Y37018442D01*
X757687Y37088870D01*
X686657Y37174730D01*
X633661Y37272745D01*
X600710Y37379193D01*
X587000Y37509629D01*
X587000Y53173793D01*
X1743000Y53173793D01*
X1743000Y52794207D01*
X1817053Y52421915D01*
X1962315Y52071223D01*
X2173201Y51755609D01*
X2441609Y51487201D01*
X2757223Y51276315D01*
X3107915Y51131053D01*
X3480207Y51057000D01*
X3859793Y51057000D01*
X4232085Y51131053D01*
X4582777Y51276315D01*
X4898391Y51487201D01*
X5166799Y51755609D01*
X5377685Y52071223D01*
X5494815Y52354000D01*
X6080210Y52354000D01*
X6083001Y52325659D01*
X6083000Y50328331D01*
X6080210Y50300000D01*
X6083000Y50271669D01*
X6083000Y50271665D01*
X6084847Y50252910D01*
X6091349Y50186889D01*
X6110796Y50122783D01*
X6124343Y50078125D01*
X6177921Y49977886D01*
X6250026Y49890026D01*
X6272038Y49871961D01*
X13853001Y42290998D01*
X13853000Y41705429D01*
X13827095Y41642889D01*
X13803000Y41521754D01*
X13803000Y41398246D01*
X13827095Y41277111D01*
X13874360Y41163004D01*
X13942977Y41060311D01*
X14030311Y40972977D01*
X14133004Y40904360D01*
X14247111Y40857095D01*
X14368246Y40833000D01*
X14491754Y40833000D01*
X14612889Y40857095D01*
X14726996Y40904360D01*
X14829689Y40972977D01*
X14917023Y41060311D01*
X14985640Y41163004D01*
X15032905Y41277111D01*
X15057000Y41398246D01*
X15057000Y41521754D01*
X15032905Y41642889D01*
X15007000Y41705429D01*
X15007000Y42501672D01*
X15009790Y42530001D01*
X15007000Y42558330D01*
X15007000Y42558336D01*
X14998650Y42643112D01*
X14965657Y42751876D01*
X14912079Y42852115D01*
X14839974Y42939974D01*
X14817962Y42958039D01*
X7237000Y50539001D01*
X7237000Y52114999D01*
X7371418Y52249417D01*
X7371418Y50854000D01*
X7377732Y50789897D01*
X7396430Y50728257D01*
X7426794Y50671450D01*
X7467657Y50621657D01*
X7517450Y50580794D01*
X7574257Y50550430D01*
X7635897Y50531732D01*
X7700000Y50525418D01*
X8140150Y50525418D01*
X8149101Y50495910D01*
X8152111Y50485989D01*
X8191909Y50411531D01*
X8245469Y50346268D01*
X8261820Y50332849D01*
X14332849Y44261819D01*
X14346268Y44245468D01*
X14411531Y44191908D01*
X14485989Y44152110D01*
X14566780Y44127602D01*
X14629752Y44121400D01*
X14629753Y44121400D01*
X14650799Y44119327D01*
X14671845Y44121400D01*
X14811888Y44121400D01*
X14870311Y44062977D01*
X14973004Y43994360D01*
X15087111Y43947095D01*
X15208246Y43923000D01*
X15331754Y43923000D01*
X15452889Y43947095D01*
X15566996Y43994360D01*
X15669689Y44062977D01*
X15757023Y44150311D01*
X15825640Y44253004D01*
X15872905Y44367111D01*
X15897000Y44488246D01*
X15897000Y44611754D01*
X15872905Y44732889D01*
X15825640Y44846996D01*
X15757023Y44949689D01*
X15669689Y45037023D01*
X15566996Y45105640D01*
X15452889Y45152905D01*
X15331754Y45177000D01*
X15208246Y45177000D01*
X15087111Y45152905D01*
X14973004Y45105640D01*
X14870311Y45037023D01*
X14820110Y44986822D01*
X9281513Y50525418D01*
X9400000Y50525418D01*
X9464103Y50531732D01*
X9525743Y50550430D01*
X9582550Y50580794D01*
X9632343Y50621657D01*
X9673206Y50671450D01*
X9703570Y50728257D01*
X9722268Y50789897D01*
X9728582Y50854000D01*
X9728582Y51704000D01*
X9907306Y51704000D01*
X9930031Y51473268D01*
X9997333Y51251403D01*
X10106626Y51046930D01*
X10253709Y50867709D01*
X10432930Y50720626D01*
X10637403Y50611333D01*
X10859268Y50544031D01*
X11032188Y50527000D01*
X11147812Y50527000D01*
X11320732Y50544031D01*
X11542597Y50611333D01*
X11564714Y50623155D01*
X11651816Y50536052D01*
X13426050Y48761818D01*
X13439469Y48745467D01*
X13504732Y48691907D01*
X13579190Y48652109D01*
X13659981Y48627601D01*
X13722953Y48621399D01*
X13722954Y48621399D01*
X13744000Y48619326D01*
X13765046Y48621399D01*
X14456297Y48621399D01*
X14467095Y48567111D01*
X14514360Y48453004D01*
X14582977Y48350311D01*
X14670311Y48262977D01*
X14773004Y48194360D01*
X14887111Y48147095D01*
X15008246Y48123000D01*
X15090869Y48123000D01*
X17352045Y45861824D01*
X17365468Y45845468D01*
X17430731Y45791908D01*
X17505189Y45752110D01*
X17585980Y45727602D01*
X17648952Y45721400D01*
X17648953Y45721400D01*
X17669999Y45719327D01*
X17691045Y45721400D01*
X19251888Y45721400D01*
X19310311Y45662977D01*
X19413004Y45594360D01*
X19527111Y45547095D01*
X19648246Y45523000D01*
X19771754Y45523000D01*
X19892889Y45547095D01*
X20006996Y45594360D01*
X20109689Y45662977D01*
X20197023Y45750311D01*
X20265640Y45853004D01*
X20312905Y45967111D01*
X20337000Y46088246D01*
X20337000Y46211754D01*
X20312905Y46332889D01*
X20265640Y46446996D01*
X20197023Y46549689D01*
X20109689Y46637023D01*
X20006996Y46705640D01*
X19892889Y46752905D01*
X19771754Y46777000D01*
X19648246Y46777000D01*
X19527111Y46752905D01*
X19413004Y46705640D01*
X19310311Y46637023D01*
X19251888Y46578600D01*
X17847531Y46578600D01*
X16218131Y48208000D01*
X18405306Y48208000D01*
X18428031Y47977268D01*
X18495333Y47755403D01*
X18604626Y47550930D01*
X18751709Y47371709D01*
X18930930Y47224626D01*
X19135403Y47115333D01*
X19357268Y47048031D01*
X19530188Y47031000D01*
X19645812Y47031000D01*
X19818732Y47048031D01*
X20040597Y47115333D01*
X20245070Y47224626D01*
X20424291Y47371709D01*
X20571374Y47550930D01*
X20680667Y47755403D01*
X20747969Y47977268D01*
X20770694Y48208000D01*
X20945306Y48208000D01*
X20968031Y47977268D01*
X21035333Y47755403D01*
X21144626Y47550930D01*
X21291709Y47371709D01*
X21470930Y47224626D01*
X21675403Y47115333D01*
X21897268Y47048031D01*
X22070188Y47031000D01*
X22185812Y47031000D01*
X22358732Y47048031D01*
X22580597Y47115333D01*
X22785070Y47224626D01*
X22964291Y47371709D01*
X23111374Y47550930D01*
X23220667Y47755403D01*
X23287969Y47977268D01*
X23310694Y48208000D01*
X23485306Y48208000D01*
X23508031Y47977268D01*
X23575333Y47755403D01*
X23684626Y47550930D01*
X23831709Y47371709D01*
X24010930Y47224626D01*
X24215403Y47115333D01*
X24437268Y47048031D01*
X24610188Y47031000D01*
X24725812Y47031000D01*
X24898732Y47048031D01*
X25120597Y47115333D01*
X25325070Y47224626D01*
X25504291Y47371709D01*
X25651374Y47550930D01*
X25760667Y47755403D01*
X25827969Y47977268D01*
X25850694Y48208000D01*
X26025306Y48208000D01*
X26048031Y47977268D01*
X26115333Y47755403D01*
X26224626Y47550930D01*
X26371709Y47371709D01*
X26550930Y47224626D01*
X26755403Y47115333D01*
X26977268Y47048031D01*
X27150188Y47031000D01*
X27265812Y47031000D01*
X27438732Y47048031D01*
X27660597Y47115333D01*
X27682714Y47127155D01*
X36148049Y38661819D01*
X36161468Y38645468D01*
X36226731Y38591908D01*
X36301189Y38552110D01*
X36381980Y38527602D01*
X36444952Y38521400D01*
X36444953Y38521400D01*
X36465999Y38519327D01*
X36487045Y38521400D01*
X45070054Y38521400D01*
X45077333Y38497403D01*
X45186626Y38292930D01*
X45333709Y38113709D01*
X45512930Y37966626D01*
X45717403Y37857333D01*
X45939268Y37790031D01*
X46112188Y37773000D01*
X46227812Y37773000D01*
X46400732Y37790031D01*
X46622597Y37857333D01*
X46827070Y37966626D01*
X47006291Y38113709D01*
X47153374Y38292930D01*
X47262667Y38497403D01*
X47329969Y38719268D01*
X47352694Y38950000D01*
X47329969Y39180732D01*
X47262667Y39402597D01*
X47153374Y39607070D01*
X47006291Y39786291D01*
X46827070Y39933374D01*
X46622597Y40042667D01*
X46400732Y40109969D01*
X46227812Y40127000D01*
X46112188Y40127000D01*
X45939268Y40109969D01*
X45717403Y40042667D01*
X45512930Y39933374D01*
X45333709Y39786291D01*
X45186626Y39607070D01*
X45077333Y39402597D01*
X45070054Y39378600D01*
X36643532Y39378600D01*
X28288845Y47733286D01*
X28300667Y47755403D01*
X28367969Y47977268D01*
X28390694Y48208000D01*
X28565306Y48208000D01*
X28588031Y47977268D01*
X28655333Y47755403D01*
X28764626Y47550930D01*
X28911709Y47371709D01*
X29090930Y47224626D01*
X29295403Y47115333D01*
X29517268Y47048031D01*
X29690188Y47031000D01*
X29805812Y47031000D01*
X29978732Y47048031D01*
X30200597Y47115333D01*
X30222714Y47127155D01*
X36888049Y40461819D01*
X36901468Y40445468D01*
X36966731Y40391908D01*
X37041189Y40352110D01*
X37097471Y40335037D01*
X37121979Y40327602D01*
X37206000Y40319327D01*
X37227048Y40321400D01*
X46732469Y40321400D01*
X47629155Y39424714D01*
X47617333Y39402597D01*
X47550031Y39180732D01*
X47527306Y38950000D01*
X47550031Y38719268D01*
X47617333Y38497403D01*
X47726626Y38292930D01*
X47873709Y38113709D01*
X48052930Y37966626D01*
X48257403Y37857333D01*
X48479268Y37790031D01*
X48652188Y37773000D01*
X48767812Y37773000D01*
X48940732Y37790031D01*
X49162597Y37857333D01*
X49367070Y37966626D01*
X49546291Y38113709D01*
X49693374Y38292930D01*
X49802667Y38497403D01*
X49869969Y38719268D01*
X49892694Y38950000D01*
X50067306Y38950000D01*
X50090031Y38719268D01*
X50157333Y38497403D01*
X50266626Y38292930D01*
X50413709Y38113709D01*
X50592930Y37966626D01*
X50797403Y37857333D01*
X51019268Y37790031D01*
X51192188Y37773000D01*
X51307812Y37773000D01*
X51480732Y37790031D01*
X51702597Y37857333D01*
X51907070Y37966626D01*
X52086291Y38113709D01*
X52233374Y38292930D01*
X52303695Y38424491D01*
X52301928Y38100000D01*
X52314188Y37975518D01*
X52350498Y37855820D01*
X52409463Y37745506D01*
X52488815Y37648815D01*
X52585506Y37569463D01*
X52695820Y37510498D01*
X52815518Y37474188D01*
X52940000Y37461928D01*
X53504250Y37465000D01*
X53663000Y37623750D01*
X53663000Y38823000D01*
X53917000Y38823000D01*
X53917000Y37623750D01*
X54075750Y37465000D01*
X54640000Y37461928D01*
X54764482Y37474188D01*
X54884180Y37510498D01*
X54994494Y37569463D01*
X55091185Y37648815D01*
X55170537Y37745506D01*
X55229502Y37855820D01*
X55265812Y37975518D01*
X55278072Y38100000D01*
X55275388Y38593110D01*
X61008524Y38593110D01*
X61053175Y38445901D01*
X61178359Y38183080D01*
X61352412Y37949731D01*
X61568645Y37754822D01*
X61818748Y37605843D01*
X62093109Y37508519D01*
X62323000Y37629186D01*
X62323000Y38823000D01*
X62577000Y38823000D01*
X62577000Y37629186D01*
X62806891Y37508519D01*
X63081252Y37605843D01*
X63331355Y37754822D01*
X63547588Y37949731D01*
X63721641Y38183080D01*
X63846825Y38445901D01*
X63891476Y38593110D01*
X63770155Y38823000D01*
X62577000Y38823000D01*
X62323000Y38823000D01*
X61129845Y38823000D01*
X61008524Y38593110D01*
X55275388Y38593110D01*
X55275000Y38664250D01*
X55116250Y38823000D01*
X53917000Y38823000D01*
X53663000Y38823000D01*
X53643000Y38823000D01*
X53643000Y39077000D01*
X53663000Y39077000D01*
X53663000Y40276250D01*
X53917000Y40276250D01*
X53917000Y39077000D01*
X55116250Y39077000D01*
X55275000Y39235750D01*
X55275387Y39306890D01*
X61008524Y39306890D01*
X61129845Y39077000D01*
X62323000Y39077000D01*
X62323000Y39097000D01*
X62577000Y39097000D01*
X62577000Y39077000D01*
X63770155Y39077000D01*
X63891476Y39306890D01*
X63846825Y39454099D01*
X63721641Y39716920D01*
X63547588Y39950269D01*
X63331355Y40145178D01*
X63081252Y40294157D01*
X62842115Y40378986D01*
X62902597Y40397333D01*
X63107070Y40506626D01*
X63286291Y40653709D01*
X63433374Y40832930D01*
X63542667Y41037403D01*
X63609969Y41259268D01*
X63632694Y41490000D01*
X63609969Y41720732D01*
X63542667Y41942597D01*
X63433374Y42147070D01*
X63286291Y42326291D01*
X63107070Y42473374D01*
X62902597Y42582667D01*
X62680732Y42649969D01*
X62507812Y42667000D01*
X62392188Y42667000D01*
X62219268Y42649969D01*
X61997403Y42582667D01*
X61792930Y42473374D01*
X61613709Y42326291D01*
X61466626Y42147070D01*
X61357333Y41942597D01*
X61290031Y41720732D01*
X61267306Y41490000D01*
X61290031Y41259268D01*
X61357333Y41037403D01*
X61466626Y40832930D01*
X61613709Y40653709D01*
X61792930Y40506626D01*
X61997403Y40397333D01*
X62057885Y40378986D01*
X61818748Y40294157D01*
X61568645Y40145178D01*
X61352412Y39950269D01*
X61178359Y39716920D01*
X61053175Y39454099D01*
X61008524Y39306890D01*
X55275387Y39306890D01*
X55278072Y39800000D01*
X55265812Y39924482D01*
X55229502Y40044180D01*
X55170537Y40154494D01*
X55091185Y40251185D01*
X54994494Y40330537D01*
X54884180Y40389502D01*
X54764482Y40425812D01*
X54640000Y40438072D01*
X54075750Y40435000D01*
X53917000Y40276250D01*
X53663000Y40276250D01*
X53504250Y40435000D01*
X52940000Y40438072D01*
X52815518Y40425812D01*
X52695820Y40389502D01*
X52585506Y40330537D01*
X52488815Y40251185D01*
X52409463Y40154494D01*
X52350498Y40044180D01*
X52314188Y39924482D01*
X52301928Y39800000D01*
X52303695Y39475509D01*
X52233374Y39607070D01*
X52086291Y39786291D01*
X51907070Y39933374D01*
X51702597Y40042667D01*
X51480732Y40109969D01*
X51307812Y40127000D01*
X51192188Y40127000D01*
X51019268Y40109969D01*
X50797403Y40042667D01*
X50592930Y39933374D01*
X50413709Y39786291D01*
X50266626Y39607070D01*
X50157333Y39402597D01*
X50090031Y39180732D01*
X50067306Y38950000D01*
X49892694Y38950000D01*
X49869969Y39180732D01*
X49802667Y39402597D01*
X49693374Y39607070D01*
X49546291Y39786291D01*
X49367070Y39933374D01*
X49162597Y40042667D01*
X48940732Y40109969D01*
X48767812Y40127000D01*
X48652188Y40127000D01*
X48479268Y40109969D01*
X48257403Y40042667D01*
X48235286Y40030845D01*
X47227955Y41038176D01*
X47214532Y41054532D01*
X47149269Y41108092D01*
X47074811Y41147890D01*
X46994020Y41172398D01*
X46931048Y41178600D01*
X46910000Y41180673D01*
X46888952Y41178600D01*
X37383532Y41178600D01*
X33850378Y44711754D01*
X39343000Y44711754D01*
X39343000Y44588246D01*
X39367095Y44467111D01*
X39414360Y44353004D01*
X39482977Y44250311D01*
X39542798Y44190490D01*
X39547602Y44141716D01*
X39572111Y44060925D01*
X39611909Y43986467D01*
X39665469Y43921204D01*
X39681819Y43907786D01*
X40227785Y43361819D01*
X40241204Y43345468D01*
X40306467Y43291908D01*
X40380925Y43252110D01*
X40437207Y43235037D01*
X40461715Y43227602D01*
X40545736Y43219327D01*
X40566784Y43221400D01*
X49648952Y43221400D01*
X49670000Y43219327D01*
X49691048Y43221400D01*
X49754020Y43227602D01*
X49834811Y43252110D01*
X49909269Y43291908D01*
X49974532Y43345468D01*
X49987955Y43361824D01*
X51538182Y44912050D01*
X51554532Y44925468D01*
X51608092Y44990731D01*
X51647890Y45065189D01*
X51672398Y45145980D01*
X51678600Y45208952D01*
X51678600Y45208961D01*
X51680672Y45229999D01*
X51678600Y45251037D01*
X51678600Y45470054D01*
X51702597Y45477333D01*
X51907070Y45586626D01*
X52086291Y45733709D01*
X52233374Y45912930D01*
X52342667Y46117403D01*
X52361014Y46177885D01*
X52445843Y45938748D01*
X52594822Y45688645D01*
X52789731Y45472412D01*
X53023080Y45298359D01*
X53285901Y45173175D01*
X53433110Y45128524D01*
X53663000Y45249845D01*
X53663000Y46443000D01*
X53917000Y46443000D01*
X53917000Y45249845D01*
X54146890Y45128524D01*
X54294099Y45173175D01*
X54556920Y45298359D01*
X54790269Y45472412D01*
X54985178Y45688645D01*
X55134157Y45938748D01*
X55231481Y46213109D01*
X55110814Y46443000D01*
X53917000Y46443000D01*
X53663000Y46443000D01*
X53643000Y46443000D01*
X53643000Y46697000D01*
X53663000Y46697000D01*
X53663000Y47890155D01*
X53917000Y47890155D01*
X53917000Y46697000D01*
X55110814Y46697000D01*
X55231481Y46926891D01*
X55134157Y47201252D01*
X54985178Y47451355D01*
X54790269Y47667588D01*
X54556920Y47841641D01*
X54294099Y47966825D01*
X54146890Y48011476D01*
X53917000Y47890155D01*
X53663000Y47890155D01*
X53433110Y48011476D01*
X53285901Y47966825D01*
X53023080Y47841641D01*
X52789731Y47667588D01*
X52594822Y47451355D01*
X52445843Y47201252D01*
X52361014Y46962115D01*
X52342667Y47022597D01*
X52233374Y47227070D01*
X52086291Y47406291D01*
X51907070Y47553374D01*
X51702597Y47662667D01*
X51480732Y47729969D01*
X51307812Y47747000D01*
X51192188Y47747000D01*
X51019268Y47729969D01*
X50797403Y47662667D01*
X50592930Y47553374D01*
X50413709Y47406291D01*
X50266626Y47227070D01*
X50157333Y47022597D01*
X50090031Y46800732D01*
X50067306Y46570000D01*
X50090031Y46339268D01*
X50157333Y46117403D01*
X50266626Y45912930D01*
X50413709Y45733709D01*
X50592930Y45586626D01*
X50797403Y45477333D01*
X50821400Y45470054D01*
X50821400Y45407532D01*
X49492469Y44078600D01*
X40723268Y44078600D01*
X40494888Y44306980D01*
X40525640Y44353004D01*
X40572905Y44467111D01*
X40597000Y44588246D01*
X40597000Y44711754D01*
X40572905Y44832889D01*
X40525640Y44946996D01*
X40457023Y45049689D01*
X40369689Y45137023D01*
X40266996Y45205640D01*
X40152889Y45252905D01*
X40031754Y45277000D01*
X39908246Y45277000D01*
X39787111Y45252905D01*
X39673004Y45205640D01*
X39570311Y45137023D01*
X39482977Y45049689D01*
X39414360Y44946996D01*
X39367095Y44832889D01*
X39343000Y44711754D01*
X33850378Y44711754D01*
X31720992Y46841139D01*
X31783901Y46811175D01*
X31931110Y46766524D01*
X32161000Y46887845D01*
X32161000Y48081000D01*
X32141000Y48081000D01*
X32141000Y48335000D01*
X32161000Y48335000D01*
X32161000Y49528155D01*
X32415000Y49528155D01*
X32415000Y48335000D01*
X32435000Y48335000D01*
X32435000Y48081000D01*
X32415000Y48081000D01*
X32415000Y46887845D01*
X32644890Y46766524D01*
X32792099Y46811175D01*
X33054920Y46936359D01*
X33288269Y47110412D01*
X33483178Y47326645D01*
X33632157Y47576748D01*
X33716986Y47815885D01*
X33735333Y47755403D01*
X33844626Y47550930D01*
X33991709Y47371709D01*
X34170930Y47224626D01*
X34375403Y47115333D01*
X34597268Y47048031D01*
X34770188Y47031000D01*
X34885812Y47031000D01*
X35058732Y47048031D01*
X35280597Y47115333D01*
X35485070Y47224626D01*
X35664291Y47371709D01*
X35811374Y47550930D01*
X35920667Y47755403D01*
X35987969Y47977268D01*
X36010694Y48208000D01*
X35987969Y48438732D01*
X35920667Y48660597D01*
X35811374Y48865070D01*
X35664291Y49044291D01*
X35647587Y49058000D01*
X36189418Y49058000D01*
X36189418Y47358000D01*
X36195732Y47293897D01*
X36214430Y47232257D01*
X36244794Y47175450D01*
X36285657Y47125657D01*
X36335450Y47084794D01*
X36392257Y47054430D01*
X36453897Y47035732D01*
X36518000Y47029418D01*
X38218000Y47029418D01*
X38282103Y47035732D01*
X38343743Y47054430D01*
X38400550Y47084794D01*
X38450343Y47125657D01*
X38491206Y47175450D01*
X38521570Y47232257D01*
X38540268Y47293897D01*
X38546582Y47358000D01*
X38546582Y47420000D01*
X47531418Y47420000D01*
X47531418Y45720000D01*
X47537732Y45655897D01*
X47556430Y45594257D01*
X47586794Y45537450D01*
X47627657Y45487657D01*
X47677450Y45446794D01*
X47734257Y45416430D01*
X47795897Y45397732D01*
X47860000Y45391418D01*
X49560000Y45391418D01*
X49624103Y45397732D01*
X49685743Y45416430D01*
X49742550Y45446794D01*
X49792343Y45487657D01*
X49833206Y45537450D01*
X49863570Y45594257D01*
X49882268Y45655897D01*
X49888582Y45720000D01*
X49888582Y47420000D01*
X49882268Y47484103D01*
X49863570Y47545743D01*
X49833206Y47602550D01*
X49792343Y47652343D01*
X49742550Y47693206D01*
X49685743Y47723570D01*
X49624103Y47742268D01*
X49560000Y47748582D01*
X47860000Y47748582D01*
X47795897Y47742268D01*
X47734257Y47723570D01*
X47677450Y47693206D01*
X47627657Y47652343D01*
X47586794Y47602550D01*
X47556430Y47545743D01*
X47537732Y47484103D01*
X47531418Y47420000D01*
X38546582Y47420000D01*
X38546582Y49058000D01*
X38540268Y49122103D01*
X38521570Y49183743D01*
X38491206Y49240550D01*
X38450343Y49290343D01*
X38400550Y49331206D01*
X38343743Y49361570D01*
X38282103Y49380268D01*
X38218000Y49386582D01*
X36518000Y49386582D01*
X36453897Y49380268D01*
X36392257Y49361570D01*
X36335450Y49331206D01*
X36285657Y49290343D01*
X36244794Y49240550D01*
X36214430Y49183743D01*
X36195732Y49122103D01*
X36189418Y49058000D01*
X35647587Y49058000D01*
X35485070Y49191374D01*
X35280597Y49300667D01*
X35058732Y49367969D01*
X34885812Y49385000D01*
X34770188Y49385000D01*
X34597268Y49367969D01*
X34375403Y49300667D01*
X34170930Y49191374D01*
X33991709Y49044291D01*
X33844626Y48865070D01*
X33735333Y48660597D01*
X33716986Y48600115D01*
X33632157Y48839252D01*
X33483178Y49089355D01*
X33288269Y49305588D01*
X33054920Y49479641D01*
X32792099Y49604825D01*
X32644890Y49649476D01*
X32415000Y49528155D01*
X32161000Y49528155D01*
X31931110Y49649476D01*
X31783901Y49604825D01*
X31521080Y49479641D01*
X31287731Y49305588D01*
X31092822Y49089355D01*
X30943843Y48839252D01*
X30859014Y48600115D01*
X30840667Y48660597D01*
X30731374Y48865070D01*
X30584291Y49044291D01*
X30405070Y49191374D01*
X30200597Y49300667D01*
X29978732Y49367969D01*
X29805812Y49385000D01*
X29690188Y49385000D01*
X29517268Y49367969D01*
X29295403Y49300667D01*
X29090930Y49191374D01*
X28911709Y49044291D01*
X28764626Y48865070D01*
X28655333Y48660597D01*
X28588031Y48438732D01*
X28565306Y48208000D01*
X28390694Y48208000D01*
X28367969Y48438732D01*
X28300667Y48660597D01*
X28191374Y48865070D01*
X28044291Y49044291D01*
X27865070Y49191374D01*
X27660597Y49300667D01*
X27438732Y49367969D01*
X27265812Y49385000D01*
X27150188Y49385000D01*
X26977268Y49367969D01*
X26755403Y49300667D01*
X26550930Y49191374D01*
X26371709Y49044291D01*
X26224626Y48865070D01*
X26115333Y48660597D01*
X26048031Y48438732D01*
X26025306Y48208000D01*
X25850694Y48208000D01*
X25827969Y48438732D01*
X25760667Y48660597D01*
X25651374Y48865070D01*
X25504291Y49044291D01*
X25325070Y49191374D01*
X25120597Y49300667D01*
X24898732Y49367969D01*
X24725812Y49385000D01*
X24610188Y49385000D01*
X24437268Y49367969D01*
X24215403Y49300667D01*
X24010930Y49191374D01*
X23831709Y49044291D01*
X23684626Y48865070D01*
X23575333Y48660597D01*
X23508031Y48438732D01*
X23485306Y48208000D01*
X23310694Y48208000D01*
X23287969Y48438732D01*
X23220667Y48660597D01*
X23111374Y48865070D01*
X22964291Y49044291D01*
X22785070Y49191374D01*
X22580597Y49300667D01*
X22358732Y49367969D01*
X22185812Y49385000D01*
X22070188Y49385000D01*
X21897268Y49367969D01*
X21675403Y49300667D01*
X21470930Y49191374D01*
X21291709Y49044291D01*
X21144626Y48865070D01*
X21035333Y48660597D01*
X20968031Y48438732D01*
X20945306Y48208000D01*
X20770694Y48208000D01*
X20747969Y48438732D01*
X20680667Y48660597D01*
X20571374Y48865070D01*
X20424291Y49044291D01*
X20245070Y49191374D01*
X20040597Y49300667D01*
X19818732Y49367969D01*
X19645812Y49385000D01*
X19530188Y49385000D01*
X19357268Y49367969D01*
X19135403Y49300667D01*
X18930930Y49191374D01*
X18751709Y49044291D01*
X18604626Y48865070D01*
X18495333Y48660597D01*
X18428031Y48438732D01*
X18405306Y48208000D01*
X16218131Y48208000D01*
X15697000Y48729131D01*
X15697000Y48811754D01*
X15672905Y48932889D01*
X15625640Y49046996D01*
X15557023Y49149689D01*
X15469689Y49237023D01*
X15366996Y49305640D01*
X15252889Y49352905D01*
X15131754Y49377000D01*
X15047154Y49377000D01*
X15009270Y49408091D01*
X14934812Y49447889D01*
X14854021Y49472397D01*
X14791049Y49478599D01*
X14770001Y49480672D01*
X14748953Y49478599D01*
X13921533Y49478599D01*
X12257948Y51142184D01*
X12170845Y51229286D01*
X12182667Y51251403D01*
X12249969Y51473268D01*
X12272694Y51704000D01*
X12249969Y51934732D01*
X12182667Y52156597D01*
X12073374Y52361070D01*
X11926291Y52540291D01*
X11747070Y52687374D01*
X11542597Y52796667D01*
X11320732Y52863969D01*
X11147812Y52881000D01*
X11032188Y52881000D01*
X10859268Y52863969D01*
X10637403Y52796667D01*
X10432930Y52687374D01*
X10253709Y52540291D01*
X10106626Y52361070D01*
X9997333Y52156597D01*
X9930031Y51934732D01*
X9907306Y51704000D01*
X9728582Y51704000D01*
X9728582Y52554000D01*
X9722268Y52618103D01*
X9703570Y52679743D01*
X9673206Y52736550D01*
X9632343Y52786343D01*
X9582550Y52827206D01*
X9525743Y52857570D01*
X9464103Y52876268D01*
X9400000Y52882582D01*
X8004583Y52882582D01*
X8232387Y53110386D01*
X8319268Y53084031D01*
X8492188Y53067000D01*
X8607812Y53067000D01*
X8780732Y53084031D01*
X9002597Y53151333D01*
X9207070Y53260626D01*
X9386291Y53407709D01*
X9533374Y53586930D01*
X9642667Y53791403D01*
X9709969Y54013268D01*
X9732694Y54244000D01*
X9907306Y54244000D01*
X9930031Y54013268D01*
X9997333Y53791403D01*
X10106626Y53586930D01*
X10253709Y53407709D01*
X10432930Y53260626D01*
X10637403Y53151333D01*
X10859268Y53084031D01*
X11032188Y53067000D01*
X11147812Y53067000D01*
X11320732Y53084031D01*
X11542597Y53151333D01*
X11747070Y53260626D01*
X11926291Y53407709D01*
X12073374Y53586930D01*
X12182667Y53791403D01*
X12201014Y53851885D01*
X12285843Y53612748D01*
X12434822Y53362645D01*
X12629731Y53146412D01*
X12863080Y52972359D01*
X13125901Y52847175D01*
X13234909Y52814111D01*
X13177403Y52796667D01*
X12972930Y52687374D01*
X12793709Y52540291D01*
X12646626Y52361070D01*
X12537333Y52156597D01*
X12470031Y51934732D01*
X12447306Y51704000D01*
X12470031Y51473268D01*
X12537333Y51251403D01*
X12646626Y51046930D01*
X12793709Y50867709D01*
X12972930Y50720626D01*
X13177403Y50611333D01*
X13399268Y50544031D01*
X13572188Y50527000D01*
X13687812Y50527000D01*
X13860732Y50544031D01*
X14082597Y50611333D01*
X14287070Y50720626D01*
X14466291Y50867709D01*
X14613374Y51046930D01*
X14722667Y51251403D01*
X14789969Y51473268D01*
X14812694Y51704000D01*
X14987306Y51704000D01*
X15010031Y51473268D01*
X15077333Y51251403D01*
X15186626Y51046930D01*
X15333709Y50867709D01*
X15512930Y50720626D01*
X15717403Y50611333D01*
X15939268Y50544031D01*
X16112188Y50527000D01*
X16227812Y50527000D01*
X16400732Y50544031D01*
X16622597Y50611333D01*
X16827070Y50720626D01*
X17006291Y50867709D01*
X17153374Y51046930D01*
X17262667Y51251403D01*
X17281014Y51311885D01*
X17365843Y51072748D01*
X17514822Y50822645D01*
X17709731Y50606412D01*
X17943080Y50432359D01*
X18205901Y50307175D01*
X18353110Y50262524D01*
X18583000Y50383845D01*
X18583000Y51577000D01*
X18563000Y51577000D01*
X18563000Y51831000D01*
X18583000Y51831000D01*
X18583000Y51851000D01*
X18837000Y51851000D01*
X18837000Y51831000D01*
X18857000Y51831000D01*
X18857000Y51577000D01*
X18837000Y51577000D01*
X18837000Y50383845D01*
X19066890Y50262524D01*
X19214099Y50307175D01*
X19476920Y50432359D01*
X19710269Y50606412D01*
X19905178Y50822645D01*
X20054157Y51072748D01*
X20138986Y51311885D01*
X20157333Y51251403D01*
X20266626Y51046930D01*
X20413709Y50867709D01*
X20592930Y50720626D01*
X20797403Y50611333D01*
X21019268Y50544031D01*
X21192188Y50527000D01*
X21307812Y50527000D01*
X21480732Y50544031D01*
X21702597Y50611333D01*
X21907070Y50720626D01*
X22086291Y50867709D01*
X22233374Y51046930D01*
X22342667Y51251403D01*
X22409969Y51473268D01*
X22432694Y51704000D01*
X22409969Y51934732D01*
X22342667Y52156597D01*
X22233374Y52361070D01*
X22086291Y52540291D01*
X21907070Y52687374D01*
X21702597Y52796667D01*
X21480732Y52863969D01*
X21307812Y52881000D01*
X21192188Y52881000D01*
X21019268Y52863969D01*
X20797403Y52796667D01*
X20592930Y52687374D01*
X20413709Y52540291D01*
X20266626Y52361070D01*
X20157333Y52156597D01*
X20138986Y52096115D01*
X20054157Y52335252D01*
X19905178Y52585355D01*
X19710269Y52801588D01*
X19476920Y52975641D01*
X19214099Y53100825D01*
X19105091Y53133889D01*
X19162597Y53151333D01*
X19367070Y53260626D01*
X19546291Y53407709D01*
X19693374Y53586930D01*
X19802667Y53791403D01*
X19869969Y54013268D01*
X19892694Y54244000D01*
X20067306Y54244000D01*
X20090031Y54013268D01*
X20157333Y53791403D01*
X20266626Y53586930D01*
X20413709Y53407709D01*
X20592930Y53260626D01*
X20797403Y53151333D01*
X21019268Y53084031D01*
X21192188Y53067000D01*
X21307812Y53067000D01*
X21480732Y53084031D01*
X21702597Y53151333D01*
X21907070Y53260626D01*
X22086291Y53407709D01*
X22233374Y53586930D01*
X22342667Y53791403D01*
X22361014Y53851885D01*
X22445843Y53612748D01*
X22594822Y53362645D01*
X22789731Y53146412D01*
X23023080Y52972359D01*
X23285901Y52847175D01*
X23394909Y52814111D01*
X23337403Y52796667D01*
X23132930Y52687374D01*
X22953709Y52540291D01*
X22806626Y52361070D01*
X22697333Y52156597D01*
X22630031Y51934732D01*
X22607306Y51704000D01*
X22630031Y51473268D01*
X22697333Y51251403D01*
X22806626Y51046930D01*
X22953709Y50867709D01*
X23132930Y50720626D01*
X23337403Y50611333D01*
X23559268Y50544031D01*
X23732188Y50527000D01*
X23847812Y50527000D01*
X24020732Y50544031D01*
X24242597Y50611333D01*
X24447070Y50720626D01*
X24626291Y50867709D01*
X24773374Y51046930D01*
X24882667Y51251403D01*
X24949969Y51473268D01*
X24972694Y51704000D01*
X25147306Y51704000D01*
X25170031Y51473268D01*
X25237333Y51251403D01*
X25346626Y51046930D01*
X25493709Y50867709D01*
X25672930Y50720626D01*
X25877403Y50611333D01*
X26099268Y50544031D01*
X26272188Y50527000D01*
X26387812Y50527000D01*
X26560732Y50544031D01*
X26782597Y50611333D01*
X26987070Y50720626D01*
X27166291Y50867709D01*
X27313374Y51046930D01*
X27422667Y51251403D01*
X27489969Y51473268D01*
X27512694Y51704000D01*
X27687306Y51704000D01*
X27710031Y51473268D01*
X27777333Y51251403D01*
X27886626Y51046930D01*
X28033709Y50867709D01*
X28212930Y50720626D01*
X28417403Y50611333D01*
X28639268Y50544031D01*
X28812188Y50527000D01*
X28927812Y50527000D01*
X29100732Y50544031D01*
X29322597Y50611333D01*
X29527070Y50720626D01*
X29706291Y50867709D01*
X29853374Y51046930D01*
X29962667Y51251403D01*
X30029969Y51473268D01*
X30052694Y51704000D01*
X30029969Y51934732D01*
X29962667Y52156597D01*
X29853374Y52361070D01*
X29706291Y52540291D01*
X29527070Y52687374D01*
X29322597Y52796667D01*
X29100732Y52863969D01*
X28927812Y52881000D01*
X28812188Y52881000D01*
X28639268Y52863969D01*
X28417403Y52796667D01*
X28212930Y52687374D01*
X28033709Y52540291D01*
X27886626Y52361070D01*
X27777333Y52156597D01*
X27710031Y51934732D01*
X27687306Y51704000D01*
X27512694Y51704000D01*
X27489969Y51934732D01*
X27422667Y52156597D01*
X27313374Y52361070D01*
X27166291Y52540291D01*
X26987070Y52687374D01*
X26782597Y52796667D01*
X26560732Y52863969D01*
X26387812Y52881000D01*
X26272188Y52881000D01*
X26099268Y52863969D01*
X25877403Y52796667D01*
X25672930Y52687374D01*
X25493709Y52540291D01*
X25346626Y52361070D01*
X25237333Y52156597D01*
X25170031Y51934732D01*
X25147306Y51704000D01*
X24972694Y51704000D01*
X24949969Y51934732D01*
X24882667Y52156597D01*
X24773374Y52361070D01*
X24626291Y52540291D01*
X24447070Y52687374D01*
X24242597Y52796667D01*
X24185091Y52814111D01*
X24294099Y52847175D01*
X24556920Y52972359D01*
X24790269Y53146412D01*
X24985178Y53362645D01*
X25134157Y53612748D01*
X25218986Y53851885D01*
X25237333Y53791403D01*
X25346626Y53586930D01*
X25493709Y53407709D01*
X25672930Y53260626D01*
X25877403Y53151333D01*
X26099268Y53084031D01*
X26272188Y53067000D01*
X26387812Y53067000D01*
X26560732Y53084031D01*
X26782597Y53151333D01*
X26987070Y53260626D01*
X27166291Y53407709D01*
X27313374Y53586930D01*
X27422667Y53791403D01*
X27489969Y54013268D01*
X27512694Y54244000D01*
X27687306Y54244000D01*
X27710031Y54013268D01*
X27777333Y53791403D01*
X27886626Y53586930D01*
X28033709Y53407709D01*
X28212930Y53260626D01*
X28417403Y53151333D01*
X28639268Y53084031D01*
X28812188Y53067000D01*
X28927812Y53067000D01*
X29100732Y53084031D01*
X29322597Y53151333D01*
X29527070Y53260626D01*
X29706291Y53407709D01*
X29853374Y53586930D01*
X29962667Y53791403D01*
X29981014Y53851885D01*
X30065843Y53612748D01*
X30214822Y53362645D01*
X30409731Y53146412D01*
X30643080Y52972359D01*
X30905901Y52847175D01*
X31014909Y52814111D01*
X30957403Y52796667D01*
X30752930Y52687374D01*
X30573709Y52540291D01*
X30426626Y52361070D01*
X30317333Y52156597D01*
X30250031Y51934732D01*
X30227306Y51704000D01*
X30250031Y51473268D01*
X30317333Y51251403D01*
X30426626Y51046930D01*
X30573709Y50867709D01*
X30752930Y50720626D01*
X30957403Y50611333D01*
X31179268Y50544031D01*
X31352188Y50527000D01*
X31467812Y50527000D01*
X31640732Y50544031D01*
X31862597Y50611333D01*
X32067070Y50720626D01*
X32246291Y50867709D01*
X32393374Y51046930D01*
X32502667Y51251403D01*
X32569969Y51473268D01*
X32592694Y51704000D01*
X32767306Y51704000D01*
X32790031Y51473268D01*
X32857333Y51251403D01*
X32966626Y51046930D01*
X33113709Y50867709D01*
X33292930Y50720626D01*
X33497403Y50611333D01*
X33719268Y50544031D01*
X33892188Y50527000D01*
X34007812Y50527000D01*
X34180732Y50544031D01*
X34402597Y50611333D01*
X34607070Y50720626D01*
X34786291Y50867709D01*
X34933374Y51046930D01*
X35042667Y51251403D01*
X35109969Y51473268D01*
X35132694Y51704000D01*
X35307306Y51704000D01*
X35330031Y51473268D01*
X35397333Y51251403D01*
X35506626Y51046930D01*
X35653709Y50867709D01*
X35832930Y50720626D01*
X36037403Y50611333D01*
X36259268Y50544031D01*
X36432188Y50527000D01*
X36547812Y50527000D01*
X36720732Y50544031D01*
X36942597Y50611333D01*
X37147070Y50720626D01*
X37326291Y50867709D01*
X37473374Y51046930D01*
X37582667Y51251403D01*
X37601014Y51311885D01*
X37685843Y51072748D01*
X37834822Y50822645D01*
X38029731Y50606412D01*
X38263080Y50432359D01*
X38525901Y50307175D01*
X38673110Y50262524D01*
X38903000Y50383845D01*
X38903000Y51577000D01*
X38883000Y51577000D01*
X38883000Y51831000D01*
X38903000Y51831000D01*
X38903000Y51851000D01*
X39157000Y51851000D01*
X39157000Y51831000D01*
X39177000Y51831000D01*
X39177000Y51577000D01*
X39157000Y51577000D01*
X39157000Y50383845D01*
X39386890Y50262524D01*
X39534099Y50307175D01*
X39796920Y50432359D01*
X40030269Y50606412D01*
X40225178Y50822645D01*
X40374157Y51072748D01*
X40458986Y51311885D01*
X40477333Y51251403D01*
X40586626Y51046930D01*
X40733709Y50867709D01*
X40912930Y50720626D01*
X41117403Y50611333D01*
X41339268Y50544031D01*
X41512188Y50527000D01*
X41627812Y50527000D01*
X41800732Y50544031D01*
X42022597Y50611333D01*
X42227070Y50720626D01*
X42406291Y50867709D01*
X42553374Y51046930D01*
X42662667Y51251403D01*
X42729969Y51473268D01*
X42752694Y51704000D01*
X42729969Y51934732D01*
X42662667Y52156597D01*
X42553374Y52361070D01*
X42406291Y52540291D01*
X42227070Y52687374D01*
X42022597Y52796667D01*
X41800732Y52863969D01*
X41627812Y52881000D01*
X41512188Y52881000D01*
X41339268Y52863969D01*
X41117403Y52796667D01*
X40912930Y52687374D01*
X40733709Y52540291D01*
X40586626Y52361070D01*
X40477333Y52156597D01*
X40458986Y52096115D01*
X40374157Y52335252D01*
X40225178Y52585355D01*
X40030269Y52801588D01*
X39796920Y52975641D01*
X39534099Y53100825D01*
X39425091Y53133889D01*
X39482597Y53151333D01*
X39687070Y53260626D01*
X39866291Y53407709D01*
X40013374Y53586930D01*
X40122667Y53791403D01*
X40189969Y54013268D01*
X40212694Y54244000D01*
X40387306Y54244000D01*
X40410031Y54013268D01*
X40477333Y53791403D01*
X40586626Y53586930D01*
X40733709Y53407709D01*
X40912930Y53260626D01*
X41117403Y53151333D01*
X41339268Y53084031D01*
X41512188Y53067000D01*
X41627812Y53067000D01*
X41800732Y53084031D01*
X42022597Y53151333D01*
X42227070Y53260626D01*
X42406291Y53407709D01*
X42553374Y53586930D01*
X42662667Y53791403D01*
X42681014Y53851885D01*
X42765843Y53612748D01*
X42914822Y53362645D01*
X43109731Y53146412D01*
X43343080Y52972359D01*
X43605901Y52847175D01*
X43714909Y52814111D01*
X43657403Y52796667D01*
X43452930Y52687374D01*
X43273709Y52540291D01*
X43126626Y52361070D01*
X43017333Y52156597D01*
X42950031Y51934732D01*
X42927306Y51704000D01*
X42950031Y51473268D01*
X43017333Y51251403D01*
X43126626Y51046930D01*
X43273709Y50867709D01*
X43452930Y50720626D01*
X43657403Y50611333D01*
X43879268Y50544031D01*
X44052188Y50527000D01*
X44167812Y50527000D01*
X44340732Y50544031D01*
X44562597Y50611333D01*
X44767070Y50720626D01*
X44946291Y50867709D01*
X45093374Y51046930D01*
X45202667Y51251403D01*
X45269969Y51473268D01*
X45292694Y51704000D01*
X45467306Y51704000D01*
X45490031Y51473268D01*
X45557333Y51251403D01*
X45666626Y51046930D01*
X45813709Y50867709D01*
X45992930Y50720626D01*
X46197403Y50611333D01*
X46419268Y50544031D01*
X46592188Y50527000D01*
X46707812Y50527000D01*
X46880732Y50544031D01*
X47102597Y50611333D01*
X47307070Y50720626D01*
X47486291Y50867709D01*
X47633374Y51046930D01*
X47742667Y51251403D01*
X47809969Y51473268D01*
X47832694Y51704000D01*
X47809969Y51934732D01*
X47742667Y52156597D01*
X47633374Y52361070D01*
X47486291Y52540291D01*
X47307070Y52687374D01*
X47102597Y52796667D01*
X46880732Y52863969D01*
X46707812Y52881000D01*
X46592188Y52881000D01*
X46419268Y52863969D01*
X46197403Y52796667D01*
X45992930Y52687374D01*
X45813709Y52540291D01*
X45666626Y52361070D01*
X45557333Y52156597D01*
X45490031Y51934732D01*
X45467306Y51704000D01*
X45292694Y51704000D01*
X45269969Y51934732D01*
X45202667Y52156597D01*
X45093374Y52361070D01*
X44946291Y52540291D01*
X44767070Y52687374D01*
X44562597Y52796667D01*
X44505091Y52814111D01*
X44614099Y52847175D01*
X44876920Y52972359D01*
X45110269Y53146412D01*
X45305178Y53362645D01*
X45454157Y53612748D01*
X45538986Y53851885D01*
X45557333Y53791403D01*
X45666626Y53586930D01*
X45813709Y53407709D01*
X45992930Y53260626D01*
X46197403Y53151333D01*
X46419268Y53084031D01*
X46592188Y53067000D01*
X46707812Y53067000D01*
X46880732Y53084031D01*
X47102597Y53151333D01*
X47307070Y53260626D01*
X47486291Y53407709D01*
X47633374Y53586930D01*
X47742667Y53791403D01*
X47761014Y53851885D01*
X47845843Y53612748D01*
X47994822Y53362645D01*
X48189731Y53146412D01*
X48423080Y52972359D01*
X48685901Y52847175D01*
X48794909Y52814111D01*
X48737403Y52796667D01*
X48532930Y52687374D01*
X48353709Y52540291D01*
X48206626Y52361070D01*
X48097333Y52156597D01*
X48030031Y51934732D01*
X48007306Y51704000D01*
X48030031Y51473268D01*
X48097333Y51251403D01*
X48206626Y51046930D01*
X48353709Y50867709D01*
X48532930Y50720626D01*
X48737403Y50611333D01*
X48959268Y50544031D01*
X49132188Y50527000D01*
X49247812Y50527000D01*
X49420732Y50544031D01*
X49642597Y50611333D01*
X49847070Y50720626D01*
X50026291Y50867709D01*
X50173374Y51046930D01*
X50282667Y51251403D01*
X50349969Y51473268D01*
X50372694Y51704000D01*
X50547306Y51704000D01*
X50570031Y51473268D01*
X50637333Y51251403D01*
X50746626Y51046930D01*
X50893709Y50867709D01*
X51072930Y50720626D01*
X51277403Y50611333D01*
X51499268Y50544031D01*
X51672188Y50527000D01*
X51787812Y50527000D01*
X51960732Y50544031D01*
X52182597Y50611333D01*
X52387070Y50720626D01*
X52566291Y50867709D01*
X52713374Y51046930D01*
X52822667Y51251403D01*
X52889969Y51473268D01*
X52912694Y51704000D01*
X53087306Y51704000D01*
X53110031Y51473268D01*
X53177333Y51251403D01*
X53286626Y51046930D01*
X53433709Y50867709D01*
X53612930Y50720626D01*
X53817403Y50611333D01*
X54039268Y50544031D01*
X54212188Y50527000D01*
X54327812Y50527000D01*
X54500732Y50544031D01*
X54722597Y50611333D01*
X54744714Y50623155D01*
X61273633Y44094235D01*
X61267306Y44030000D01*
X61290031Y43799268D01*
X61357333Y43577403D01*
X61466626Y43372930D01*
X61613709Y43193709D01*
X61792930Y43046626D01*
X61997403Y42937333D01*
X62219268Y42870031D01*
X62392188Y42853000D01*
X62507812Y42853000D01*
X62680732Y42870031D01*
X62902597Y42937333D01*
X63107070Y43046626D01*
X63286291Y43193709D01*
X63433374Y43372930D01*
X63542667Y43577403D01*
X63609969Y43799268D01*
X63632694Y44030000D01*
X63609969Y44260732D01*
X63542667Y44482597D01*
X63433374Y44687070D01*
X63286291Y44866291D01*
X63107070Y45013374D01*
X62902597Y45122667D01*
X62680732Y45189969D01*
X62507812Y45207000D01*
X62392188Y45207000D01*
X62219268Y45189969D01*
X61997403Y45122667D01*
X61792930Y45013374D01*
X61668706Y44911426D01*
X59160132Y47420000D01*
X61271418Y47420000D01*
X61271418Y45720000D01*
X61277732Y45655897D01*
X61296430Y45594257D01*
X61326794Y45537450D01*
X61367657Y45487657D01*
X61417450Y45446794D01*
X61474257Y45416430D01*
X61535897Y45397732D01*
X61600000Y45391418D01*
X63300000Y45391418D01*
X63364103Y45397732D01*
X63425743Y45416430D01*
X63482550Y45446794D01*
X63532343Y45487657D01*
X63573206Y45537450D01*
X63603570Y45594257D01*
X63622268Y45655897D01*
X63628582Y45720000D01*
X63628582Y47420000D01*
X63622268Y47484103D01*
X63603570Y47545743D01*
X63573206Y47602550D01*
X63532343Y47652343D01*
X63482550Y47693206D01*
X63425743Y47723570D01*
X63364103Y47742268D01*
X63300000Y47748582D01*
X61600000Y47748582D01*
X61535897Y47742268D01*
X61474257Y47723570D01*
X61417450Y47693206D01*
X61367657Y47652343D01*
X61326794Y47602550D01*
X61296430Y47545743D01*
X61277732Y47484103D01*
X61271418Y47420000D01*
X59160132Y47420000D01*
X56242992Y50337139D01*
X56305901Y50307175D01*
X56453110Y50262524D01*
X56683000Y50383845D01*
X56683000Y51577000D01*
X56937000Y51577000D01*
X56937000Y50383845D01*
X57166890Y50262524D01*
X57314099Y50307175D01*
X57576920Y50432359D01*
X57810269Y50606412D01*
X58005178Y50822645D01*
X58154157Y51072748D01*
X58251481Y51347109D01*
X58130814Y51577000D01*
X56937000Y51577000D01*
X56683000Y51577000D01*
X56663000Y51577000D01*
X56663000Y51831000D01*
X56683000Y51831000D01*
X56683000Y51851000D01*
X56937000Y51851000D01*
X56937000Y51831000D01*
X58130814Y51831000D01*
X58251481Y52060891D01*
X58154157Y52335252D01*
X58005178Y52585355D01*
X57810269Y52801588D01*
X57576920Y52975641D01*
X57314099Y53100825D01*
X57205091Y53133889D01*
X57262597Y53151333D01*
X57267199Y53153793D01*
X59743000Y53153793D01*
X59743000Y52774207D01*
X59817053Y52401915D01*
X59962315Y52051223D01*
X60173201Y51735609D01*
X60441609Y51467201D01*
X60757223Y51256315D01*
X61107915Y51111053D01*
X61480207Y51037000D01*
X61859793Y51037000D01*
X62232085Y51111053D01*
X62582777Y51256315D01*
X62898391Y51467201D01*
X63166799Y51735609D01*
X63377685Y52051223D01*
X63522947Y52401915D01*
X63597000Y52774207D01*
X63597000Y53153793D01*
X63522947Y53526085D01*
X63377685Y53876777D01*
X63166799Y54192391D01*
X62898391Y54460799D01*
X62582777Y54671685D01*
X62232085Y54816947D01*
X61859793Y54891000D01*
X61480207Y54891000D01*
X61107915Y54816947D01*
X60757223Y54671685D01*
X60441609Y54460799D01*
X60173201Y54192391D01*
X59962315Y53876777D01*
X59817053Y53526085D01*
X59743000Y53153793D01*
X57267199Y53153793D01*
X57467070Y53260626D01*
X57646291Y53407709D01*
X57793374Y53586930D01*
X57902667Y53791403D01*
X57969969Y54013268D01*
X57992694Y54244000D01*
X57969969Y54474732D01*
X57902667Y54696597D01*
X57793374Y54901070D01*
X57646291Y55080291D01*
X57467070Y55227374D01*
X57262597Y55336667D01*
X57040732Y55403969D01*
X56867812Y55421000D01*
X56752188Y55421000D01*
X56579268Y55403969D01*
X56357403Y55336667D01*
X56152930Y55227374D01*
X55973709Y55080291D01*
X55826626Y54901070D01*
X55717333Y54696597D01*
X55650031Y54474732D01*
X55627306Y54244000D01*
X55650031Y54013268D01*
X55717333Y53791403D01*
X55826626Y53586930D01*
X55973709Y53407709D01*
X56152930Y53260626D01*
X56357403Y53151333D01*
X56414909Y53133889D01*
X56305901Y53100825D01*
X56043080Y52975641D01*
X55809731Y52801588D01*
X55614822Y52585355D01*
X55465843Y52335252D01*
X55381014Y52096115D01*
X55362667Y52156597D01*
X55253374Y52361070D01*
X55106291Y52540291D01*
X54927070Y52687374D01*
X54722597Y52796667D01*
X54500732Y52863969D01*
X54327812Y52881000D01*
X54212188Y52881000D01*
X54039268Y52863969D01*
X53817403Y52796667D01*
X53612930Y52687374D01*
X53433709Y52540291D01*
X53286626Y52361070D01*
X53177333Y52156597D01*
X53110031Y51934732D01*
X53087306Y51704000D01*
X52912694Y51704000D01*
X52889969Y51934732D01*
X52822667Y52156597D01*
X52713374Y52361070D01*
X52566291Y52540291D01*
X52387070Y52687374D01*
X52182597Y52796667D01*
X51960732Y52863969D01*
X51787812Y52881000D01*
X51672188Y52881000D01*
X51499268Y52863969D01*
X51277403Y52796667D01*
X51072930Y52687374D01*
X50893709Y52540291D01*
X50746626Y52361070D01*
X50637333Y52156597D01*
X50570031Y51934732D01*
X50547306Y51704000D01*
X50372694Y51704000D01*
X50349969Y51934732D01*
X50282667Y52156597D01*
X50173374Y52361070D01*
X50026291Y52540291D01*
X49847070Y52687374D01*
X49642597Y52796667D01*
X49585091Y52814111D01*
X49694099Y52847175D01*
X49956920Y52972359D01*
X50190269Y53146412D01*
X50385178Y53362645D01*
X50534157Y53612748D01*
X50618986Y53851885D01*
X50637333Y53791403D01*
X50746626Y53586930D01*
X50893709Y53407709D01*
X51072930Y53260626D01*
X51277403Y53151333D01*
X51499268Y53084031D01*
X51672188Y53067000D01*
X51787812Y53067000D01*
X51960732Y53084031D01*
X52182597Y53151333D01*
X52387070Y53260626D01*
X52566291Y53407709D01*
X52713374Y53586930D01*
X52822667Y53791403D01*
X52889969Y54013268D01*
X52912694Y54244000D01*
X53087306Y54244000D01*
X53110031Y54013268D01*
X53177333Y53791403D01*
X53286626Y53586930D01*
X53433709Y53407709D01*
X53612930Y53260626D01*
X53817403Y53151333D01*
X54039268Y53084031D01*
X54212188Y53067000D01*
X54327812Y53067000D01*
X54500732Y53084031D01*
X54722597Y53151333D01*
X54927070Y53260626D01*
X55106291Y53407709D01*
X55253374Y53586930D01*
X55362667Y53791403D01*
X55429969Y54013268D01*
X55452694Y54244000D01*
X55429969Y54474732D01*
X55362667Y54696597D01*
X55253374Y54901070D01*
X55106291Y55080291D01*
X54927070Y55227374D01*
X54722597Y55336667D01*
X54500732Y55403969D01*
X54327812Y55421000D01*
X54212188Y55421000D01*
X54039268Y55403969D01*
X53817403Y55336667D01*
X53612930Y55227374D01*
X53433709Y55080291D01*
X53286626Y54901070D01*
X53177333Y54696597D01*
X53110031Y54474732D01*
X53087306Y54244000D01*
X52912694Y54244000D01*
X52889969Y54474732D01*
X52822667Y54696597D01*
X52713374Y54901070D01*
X52566291Y55080291D01*
X52387070Y55227374D01*
X52182597Y55336667D01*
X51960732Y55403969D01*
X51787812Y55421000D01*
X51672188Y55421000D01*
X51499268Y55403969D01*
X51277403Y55336667D01*
X51072930Y55227374D01*
X50893709Y55080291D01*
X50746626Y54901070D01*
X50637333Y54696597D01*
X50618986Y54636115D01*
X50534157Y54875252D01*
X50385178Y55125355D01*
X50190269Y55341588D01*
X49956920Y55515641D01*
X49694099Y55640825D01*
X49546890Y55685476D01*
X49317000Y55564155D01*
X49317000Y54371000D01*
X49337000Y54371000D01*
X49337000Y54117000D01*
X49317000Y54117000D01*
X49317000Y54097000D01*
X49063000Y54097000D01*
X49063000Y54117000D01*
X49043000Y54117000D01*
X49043000Y54371000D01*
X49063000Y54371000D01*
X49063000Y55564155D01*
X48833110Y55685476D01*
X48685901Y55640825D01*
X48423080Y55515641D01*
X48189731Y55341588D01*
X47994822Y55125355D01*
X47845843Y54875252D01*
X47761014Y54636115D01*
X47742667Y54696597D01*
X47633374Y54901070D01*
X47486291Y55080291D01*
X47307070Y55227374D01*
X47102597Y55336667D01*
X46880732Y55403969D01*
X46707812Y55421000D01*
X46592188Y55421000D01*
X46419268Y55403969D01*
X46197403Y55336667D01*
X45992930Y55227374D01*
X45813709Y55080291D01*
X45666626Y54901070D01*
X45557333Y54696597D01*
X45538986Y54636115D01*
X45454157Y54875252D01*
X45305178Y55125355D01*
X45110269Y55341588D01*
X44876920Y55515641D01*
X44614099Y55640825D01*
X44466890Y55685476D01*
X44237000Y55564155D01*
X44237000Y54371000D01*
X44257000Y54371000D01*
X44257000Y54117000D01*
X44237000Y54117000D01*
X44237000Y54097000D01*
X43983000Y54097000D01*
X43983000Y54117000D01*
X43963000Y54117000D01*
X43963000Y54371000D01*
X43983000Y54371000D01*
X43983000Y55564155D01*
X43753110Y55685476D01*
X43605901Y55640825D01*
X43343080Y55515641D01*
X43109731Y55341588D01*
X42914822Y55125355D01*
X42765843Y54875252D01*
X42681014Y54636115D01*
X42662667Y54696597D01*
X42553374Y54901070D01*
X42406291Y55080291D01*
X42227070Y55227374D01*
X42022597Y55336667D01*
X41800732Y55403969D01*
X41627812Y55421000D01*
X41512188Y55421000D01*
X41339268Y55403969D01*
X41117403Y55336667D01*
X40912930Y55227374D01*
X40733709Y55080291D01*
X40586626Y54901070D01*
X40477333Y54696597D01*
X40410031Y54474732D01*
X40387306Y54244000D01*
X40212694Y54244000D01*
X40189969Y54474732D01*
X40122667Y54696597D01*
X40013374Y54901070D01*
X39866291Y55080291D01*
X39687070Y55227374D01*
X39482597Y55336667D01*
X39260732Y55403969D01*
X39087812Y55421000D01*
X38972188Y55421000D01*
X38799268Y55403969D01*
X38577403Y55336667D01*
X38372930Y55227374D01*
X38193709Y55080291D01*
X38046626Y54901070D01*
X37937333Y54696597D01*
X37870031Y54474732D01*
X37847306Y54244000D01*
X37870031Y54013268D01*
X37937333Y53791403D01*
X38046626Y53586930D01*
X38193709Y53407709D01*
X38372930Y53260626D01*
X38577403Y53151333D01*
X38634909Y53133889D01*
X38525901Y53100825D01*
X38263080Y52975641D01*
X38029731Y52801588D01*
X37834822Y52585355D01*
X37685843Y52335252D01*
X37601014Y52096115D01*
X37582667Y52156597D01*
X37473374Y52361070D01*
X37326291Y52540291D01*
X37147070Y52687374D01*
X36942597Y52796667D01*
X36720732Y52863969D01*
X36547812Y52881000D01*
X36432188Y52881000D01*
X36259268Y52863969D01*
X36037403Y52796667D01*
X35832930Y52687374D01*
X35653709Y52540291D01*
X35506626Y52361070D01*
X35397333Y52156597D01*
X35330031Y51934732D01*
X35307306Y51704000D01*
X35132694Y51704000D01*
X35109969Y51934732D01*
X35042667Y52156597D01*
X34933374Y52361070D01*
X34786291Y52540291D01*
X34607070Y52687374D01*
X34402597Y52796667D01*
X34180732Y52863969D01*
X34007812Y52881000D01*
X33892188Y52881000D01*
X33719268Y52863969D01*
X33497403Y52796667D01*
X33292930Y52687374D01*
X33113709Y52540291D01*
X32966626Y52361070D01*
X32857333Y52156597D01*
X32790031Y51934732D01*
X32767306Y51704000D01*
X32592694Y51704000D01*
X32569969Y51934732D01*
X32502667Y52156597D01*
X32393374Y52361070D01*
X32246291Y52540291D01*
X32067070Y52687374D01*
X31862597Y52796667D01*
X31805091Y52814111D01*
X31914099Y52847175D01*
X32176920Y52972359D01*
X32410269Y53146412D01*
X32605178Y53362645D01*
X32754157Y53612748D01*
X32838986Y53851885D01*
X32857333Y53791403D01*
X32966626Y53586930D01*
X33113709Y53407709D01*
X33292930Y53260626D01*
X33497403Y53151333D01*
X33719268Y53084031D01*
X33892188Y53067000D01*
X34007812Y53067000D01*
X34180732Y53084031D01*
X34402597Y53151333D01*
X34607070Y53260626D01*
X34786291Y53407709D01*
X34933374Y53586930D01*
X35042667Y53791403D01*
X35109969Y54013268D01*
X35132694Y54244000D01*
X35307306Y54244000D01*
X35330031Y54013268D01*
X35397333Y53791403D01*
X35506626Y53586930D01*
X35653709Y53407709D01*
X35832930Y53260626D01*
X36037403Y53151333D01*
X36259268Y53084031D01*
X36432188Y53067000D01*
X36547812Y53067000D01*
X36720732Y53084031D01*
X36942597Y53151333D01*
X37147070Y53260626D01*
X37326291Y53407709D01*
X37473374Y53586930D01*
X37582667Y53791403D01*
X37649969Y54013268D01*
X37672694Y54244000D01*
X37649969Y54474732D01*
X37582667Y54696597D01*
X37473374Y54901070D01*
X37326291Y55080291D01*
X37147070Y55227374D01*
X36942597Y55336667D01*
X36720732Y55403969D01*
X36547812Y55421000D01*
X36432188Y55421000D01*
X36259268Y55403969D01*
X36037403Y55336667D01*
X35832930Y55227374D01*
X35653709Y55080291D01*
X35506626Y54901070D01*
X35397333Y54696597D01*
X35330031Y54474732D01*
X35307306Y54244000D01*
X35132694Y54244000D01*
X35109969Y54474732D01*
X35042667Y54696597D01*
X34933374Y54901070D01*
X34786291Y55080291D01*
X34607070Y55227374D01*
X34402597Y55336667D01*
X34180732Y55403969D01*
X34007812Y55421000D01*
X33892188Y55421000D01*
X33719268Y55403969D01*
X33497403Y55336667D01*
X33292930Y55227374D01*
X33113709Y55080291D01*
X32966626Y54901070D01*
X32857333Y54696597D01*
X32838986Y54636115D01*
X32754157Y54875252D01*
X32605178Y55125355D01*
X32410269Y55341588D01*
X32176920Y55515641D01*
X31914099Y55640825D01*
X31766890Y55685476D01*
X31537000Y55564155D01*
X31537000Y54371000D01*
X31557000Y54371000D01*
X31557000Y54117000D01*
X31537000Y54117000D01*
X31537000Y54097000D01*
X31283000Y54097000D01*
X31283000Y54117000D01*
X31263000Y54117000D01*
X31263000Y54371000D01*
X31283000Y54371000D01*
X31283000Y55564155D01*
X31053110Y55685476D01*
X30905901Y55640825D01*
X30643080Y55515641D01*
X30409731Y55341588D01*
X30214822Y55125355D01*
X30065843Y54875252D01*
X29981014Y54636115D01*
X29962667Y54696597D01*
X29853374Y54901070D01*
X29706291Y55080291D01*
X29527070Y55227374D01*
X29322597Y55336667D01*
X29100732Y55403969D01*
X28927812Y55421000D01*
X28812188Y55421000D01*
X28639268Y55403969D01*
X28417403Y55336667D01*
X28212930Y55227374D01*
X28033709Y55080291D01*
X27886626Y54901070D01*
X27777333Y54696597D01*
X27710031Y54474732D01*
X27687306Y54244000D01*
X27512694Y54244000D01*
X27489969Y54474732D01*
X27422667Y54696597D01*
X27313374Y54901070D01*
X27166291Y55080291D01*
X26987070Y55227374D01*
X26782597Y55336667D01*
X26560732Y55403969D01*
X26387812Y55421000D01*
X26272188Y55421000D01*
X26099268Y55403969D01*
X25877403Y55336667D01*
X25672930Y55227374D01*
X25493709Y55080291D01*
X25346626Y54901070D01*
X25237333Y54696597D01*
X25218986Y54636115D01*
X25134157Y54875252D01*
X24985178Y55125355D01*
X24790269Y55341588D01*
X24556920Y55515641D01*
X24294099Y55640825D01*
X24146890Y55685476D01*
X23917000Y55564155D01*
X23917000Y54371000D01*
X23937000Y54371000D01*
X23937000Y54117000D01*
X23917000Y54117000D01*
X23917000Y54097000D01*
X23663000Y54097000D01*
X23663000Y54117000D01*
X23643000Y54117000D01*
X23643000Y54371000D01*
X23663000Y54371000D01*
X23663000Y55564155D01*
X23433110Y55685476D01*
X23285901Y55640825D01*
X23023080Y55515641D01*
X22789731Y55341588D01*
X22594822Y55125355D01*
X22445843Y54875252D01*
X22361014Y54636115D01*
X22342667Y54696597D01*
X22233374Y54901070D01*
X22086291Y55080291D01*
X21907070Y55227374D01*
X21702597Y55336667D01*
X21480732Y55403969D01*
X21307812Y55421000D01*
X21192188Y55421000D01*
X21019268Y55403969D01*
X20797403Y55336667D01*
X20592930Y55227374D01*
X20413709Y55080291D01*
X20266626Y54901070D01*
X20157333Y54696597D01*
X20090031Y54474732D01*
X20067306Y54244000D01*
X19892694Y54244000D01*
X19869969Y54474732D01*
X19802667Y54696597D01*
X19693374Y54901070D01*
X19546291Y55080291D01*
X19367070Y55227374D01*
X19162597Y55336667D01*
X18940732Y55403969D01*
X18767812Y55421000D01*
X18652188Y55421000D01*
X18479268Y55403969D01*
X18257403Y55336667D01*
X18052930Y55227374D01*
X17873709Y55080291D01*
X17726626Y54901070D01*
X17617333Y54696597D01*
X17550031Y54474732D01*
X17527306Y54244000D01*
X17550031Y54013268D01*
X17617333Y53791403D01*
X17726626Y53586930D01*
X17873709Y53407709D01*
X18052930Y53260626D01*
X18257403Y53151333D01*
X18314909Y53133889D01*
X18205901Y53100825D01*
X17943080Y52975641D01*
X17709731Y52801588D01*
X17514822Y52585355D01*
X17365843Y52335252D01*
X17281014Y52096115D01*
X17262667Y52156597D01*
X17153374Y52361070D01*
X17006291Y52540291D01*
X16827070Y52687374D01*
X16622597Y52796667D01*
X16400732Y52863969D01*
X16227812Y52881000D01*
X16112188Y52881000D01*
X15939268Y52863969D01*
X15717403Y52796667D01*
X15512930Y52687374D01*
X15333709Y52540291D01*
X15186626Y52361070D01*
X15077333Y52156597D01*
X15010031Y51934732D01*
X14987306Y51704000D01*
X14812694Y51704000D01*
X14789969Y51934732D01*
X14722667Y52156597D01*
X14613374Y52361070D01*
X14466291Y52540291D01*
X14287070Y52687374D01*
X14082597Y52796667D01*
X14025091Y52814111D01*
X14134099Y52847175D01*
X14396920Y52972359D01*
X14630269Y53146412D01*
X14825178Y53362645D01*
X14974157Y53612748D01*
X15058986Y53851885D01*
X15077333Y53791403D01*
X15186626Y53586930D01*
X15333709Y53407709D01*
X15512930Y53260626D01*
X15717403Y53151333D01*
X15939268Y53084031D01*
X16112188Y53067000D01*
X16227812Y53067000D01*
X16400732Y53084031D01*
X16622597Y53151333D01*
X16827070Y53260626D01*
X17006291Y53407709D01*
X17153374Y53586930D01*
X17262667Y53791403D01*
X17329969Y54013268D01*
X17352694Y54244000D01*
X17329969Y54474732D01*
X17262667Y54696597D01*
X17153374Y54901070D01*
X17006291Y55080291D01*
X16827070Y55227374D01*
X16622597Y55336667D01*
X16400732Y55403969D01*
X16227812Y55421000D01*
X16112188Y55421000D01*
X15939268Y55403969D01*
X15717403Y55336667D01*
X15512930Y55227374D01*
X15333709Y55080291D01*
X15186626Y54901070D01*
X15077333Y54696597D01*
X15058986Y54636115D01*
X14974157Y54875252D01*
X14825178Y55125355D01*
X14630269Y55341588D01*
X14396920Y55515641D01*
X14134099Y55640825D01*
X13986890Y55685476D01*
X13757000Y55564155D01*
X13757000Y54371000D01*
X13777000Y54371000D01*
X13777000Y54117000D01*
X13757000Y54117000D01*
X13757000Y54097000D01*
X13503000Y54097000D01*
X13503000Y54117000D01*
X13483000Y54117000D01*
X13483000Y54371000D01*
X13503000Y54371000D01*
X13503000Y55564155D01*
X13273110Y55685476D01*
X13125901Y55640825D01*
X12863080Y55515641D01*
X12629731Y55341588D01*
X12434822Y55125355D01*
X12285843Y54875252D01*
X12201014Y54636115D01*
X12182667Y54696597D01*
X12073374Y54901070D01*
X11926291Y55080291D01*
X11747070Y55227374D01*
X11542597Y55336667D01*
X11320732Y55403969D01*
X11147812Y55421000D01*
X11032188Y55421000D01*
X10859268Y55403969D01*
X10637403Y55336667D01*
X10432930Y55227374D01*
X10253709Y55080291D01*
X10106626Y54901070D01*
X9997333Y54696597D01*
X9930031Y54474732D01*
X9907306Y54244000D01*
X9732694Y54244000D01*
X9709969Y54474732D01*
X9642667Y54696597D01*
X9533374Y54901070D01*
X9386291Y55080291D01*
X9207070Y55227374D01*
X9002597Y55336667D01*
X8780732Y55403969D01*
X8607812Y55421000D01*
X8492188Y55421000D01*
X8319268Y55403969D01*
X8097403Y55336667D01*
X7892930Y55227374D01*
X7713709Y55080291D01*
X7566626Y54901070D01*
X7457333Y54696597D01*
X7390031Y54474732D01*
X7367306Y54244000D01*
X7390031Y54013268D01*
X7416386Y53926387D01*
X6272034Y52782035D01*
X6250027Y52763974D01*
X6231966Y52741967D01*
X6231963Y52741964D01*
X6227520Y52736550D01*
X6177922Y52676115D01*
X6129411Y52585355D01*
X6124344Y52575876D01*
X6091349Y52467111D01*
X6080210Y52354000D01*
X5494815Y52354000D01*
X5522947Y52421915D01*
X5597000Y52794207D01*
X5597000Y53173793D01*
X5522947Y53546085D01*
X5377685Y53896777D01*
X5166799Y54212391D01*
X4898391Y54480799D01*
X4582777Y54691685D01*
X4232085Y54836947D01*
X3859793Y54911000D01*
X3480207Y54911000D01*
X3107915Y54836947D01*
X2757223Y54691685D01*
X2441609Y54480799D01*
X2173201Y54212391D01*
X1962315Y53896777D01*
X1817053Y53546085D01*
X1743000Y53173793D01*
X587000Y53173793D01*
X587000Y53473117D01*
X638012Y53993370D01*
X783035Y54473712D01*
X1018599Y54916744D01*
X1335728Y55305582D01*
X1722341Y55625417D01*
X2163713Y55864065D01*
X2643039Y56012441D01*
X3162129Y56067000D01*
X62139117Y56067000D01*
X62659370Y56015988D01*
X62659370Y56015988D01*
G37*
X62659370Y56015988D02*
X63139712Y55870965D01*
X63582744Y55635401D01*
X63971582Y55318272D01*
X64291417Y54931659D01*
X64530065Y54490287D01*
X64678441Y54010961D01*
X64733001Y53491861D01*
X64733000Y18395201D01*
X64624705Y18509311D01*
X64342207Y18708944D01*
X64026190Y18849629D01*
X63870043Y18888933D01*
X63597000Y18771206D01*
X63597000Y17877050D01*
X63343000Y17877050D01*
X63343000Y18771206D01*
X63069957Y18888933D01*
X62913810Y18849629D01*
X62597793Y18708944D01*
X62315295Y18509311D01*
X62077171Y18258401D01*
X61892573Y17965856D01*
X61768594Y17642919D01*
X61710000Y17302000D01*
X61710000Y16177000D01*
X62642951Y16177000D01*
X62642950Y15923000D01*
X61710000Y15923000D01*
X61710000Y14798000D01*
X61768594Y14457081D01*
X61892573Y14134144D01*
X62077171Y13841599D01*
X62315295Y13590689D01*
X62597793Y13391056D01*
X62913810Y13250371D01*
X63069957Y13211067D01*
X63343000Y13328794D01*
X63343000Y14222950D01*
X63597000Y14222950D01*
X63597000Y13328794D01*
X63870043Y13211067D01*
X64026190Y13250371D01*
X64342207Y13391056D01*
X64624705Y13590689D01*
X64733000Y13704799D01*
X64733000Y3014883D01*
X64681989Y2494635D01*
X64536965Y2014289D01*
X64301401Y1571256D01*
X63984272Y1182418D01*
X63597659Y862583D01*
X63156286Y623935D01*
X62676961Y475559D01*
X62157870Y421000D01*
X42792936Y421000D01*
X42795898Y422583D01*
X42991165Y582835D01*
X43151417Y778102D01*
X43270495Y1000881D01*
X43343822Y1242610D01*
X43368582Y1494000D01*
X43368582Y7194000D01*
X43343822Y7445390D01*
X43270495Y7687119D01*
X43151417Y7909898D01*
X42991165Y8105165D01*
X42795898Y8265417D01*
X42573119Y8384495D01*
X42331390Y8457822D01*
X42080000Y8482582D01*
X40160000Y8482582D01*
X39908610Y8457822D01*
X39666881Y8384495D01*
X39444102Y8265417D01*
X39248835Y8105165D01*
X39088583Y7909898D01*
X38969505Y7687119D01*
X38896178Y7445390D01*
X38871418Y7194000D01*
X38871418Y1494000D01*
X38896178Y1242610D01*
X38969505Y1000881D01*
X39088583Y778102D01*
X39248835Y582835D01*
X39444102Y422583D01*
X39447064Y421000D01*
X37712936Y421000D01*
X37715898Y422583D01*
X37911165Y582835D01*
X38071417Y778102D01*
X38190495Y1000881D01*
X38263822Y1242610D01*
X38288582Y1494000D01*
X38288582Y7194000D01*
X38263822Y7445390D01*
X38190495Y7687119D01*
X38071417Y7909898D01*
X37911165Y8105165D01*
X37715898Y8265417D01*
X37493119Y8384495D01*
X37251390Y8457822D01*
X37000000Y8482582D01*
X35080000Y8482582D01*
X34828610Y8457822D01*
X34586881Y8384495D01*
X34364102Y8265417D01*
X34168835Y8105165D01*
X34008583Y7909898D01*
X33889505Y7687119D01*
X33816178Y7445390D01*
X33791418Y7194000D01*
X33791418Y1494000D01*
X33816178Y1242610D01*
X33889505Y1000881D01*
X34008583Y778102D01*
X34168835Y582835D01*
X34364102Y422583D01*
X34367064Y421000D01*
X30963943Y421000D01*
X30975072Y534000D01*
X30972000Y4058250D01*
X30813250Y4217000D01*
X28544000Y4217000D01*
X28544000Y4197000D01*
X28290000Y4197000D01*
X28290000Y4217000D01*
X26020750Y4217000D01*
X25862000Y4058250D01*
X25858928Y534000D01*
X25870057Y421000D01*
X25009936Y421000D01*
X25012898Y422583D01*
X25208165Y582835D01*
X25368417Y778102D01*
X25487495Y1000881D01*
X25560822Y1242610D01*
X25585582Y1494000D01*
X25585582Y7194000D01*
X25560822Y7445390D01*
X25487495Y7687119D01*
X25368417Y7909898D01*
X25208165Y8105165D01*
X25148660Y8154000D01*
X25858928Y8154000D01*
X25862000Y4629750D01*
X26020750Y4471000D01*
X28290000Y4471000D01*
X28290000Y8630250D01*
X28544000Y8630250D01*
X28544000Y4471000D01*
X30813250Y4471000D01*
X30972000Y4629750D01*
X30975072Y8154000D01*
X30962812Y8278482D01*
X30926502Y8398180D01*
X30867537Y8508494D01*
X30788185Y8605185D01*
X30691494Y8684537D01*
X30581180Y8743502D01*
X30461482Y8779812D01*
X30337000Y8792072D01*
X28702750Y8789000D01*
X28544000Y8630250D01*
X28290000Y8630250D01*
X28131250Y8789000D01*
X26497000Y8792072D01*
X26372518Y8779812D01*
X26252820Y8743502D01*
X26142506Y8684537D01*
X26045815Y8605185D01*
X25966463Y8508494D01*
X25907498Y8398180D01*
X25871188Y8278482D01*
X25858928Y8154000D01*
X25148660Y8154000D01*
X25012898Y8265417D01*
X24790119Y8384495D01*
X24548390Y8457822D01*
X24297000Y8482582D01*
X22377000Y8482582D01*
X22125610Y8457822D01*
X21883881Y8384495D01*
X21661102Y8265417D01*
X21465835Y8105165D01*
X21305583Y7909898D01*
X21186505Y7687119D01*
X21113178Y7445390D01*
X21088418Y7194000D01*
X21088418Y1494000D01*
X21113178Y1242610D01*
X21186505Y1000881D01*
X21305583Y778102D01*
X21465835Y582835D01*
X21661102Y422583D01*
X21664064Y421000D01*
X18260943Y421000D01*
X18272072Y534000D01*
X18269000Y4058250D01*
X18110250Y4217000D01*
X15841000Y4217000D01*
X15841000Y4197000D01*
X15587000Y4197000D01*
X15587000Y4217000D01*
X13317750Y4217000D01*
X13159000Y4058250D01*
X13155928Y534000D01*
X13167057Y421000D01*
X12306936Y421000D01*
X12309898Y422583D01*
X12505165Y582835D01*
X12665417Y778102D01*
X12784495Y1000881D01*
X12857822Y1242610D01*
X12882582Y1494000D01*
X12882582Y7194000D01*
X12857822Y7445390D01*
X12784495Y7687119D01*
X12665417Y7909898D01*
X12505165Y8105165D01*
X12445660Y8154000D01*
X13155928Y8154000D01*
X13159000Y4629750D01*
X13317750Y4471000D01*
X15587000Y4471000D01*
X15587000Y8630250D01*
X15841000Y8630250D01*
X15841000Y4471000D01*
X18110250Y4471000D01*
X18269000Y4629750D01*
X18272072Y8154000D01*
X18259812Y8278482D01*
X18223502Y8398180D01*
X18164537Y8508494D01*
X18085185Y8605185D01*
X17988494Y8684537D01*
X17878180Y8743502D01*
X17758482Y8779812D01*
X17634000Y8792072D01*
X15999750Y8789000D01*
X15841000Y8630250D01*
X15587000Y8630250D01*
X15428250Y8789000D01*
X13794000Y8792072D01*
X13669518Y8779812D01*
X13549820Y8743502D01*
X13439506Y8684537D01*
X13342815Y8605185D01*
X13263463Y8508494D01*
X13204498Y8398180D01*
X13168188Y8278482D01*
X13155928Y8154000D01*
X12445660Y8154000D01*
X12309898Y8265417D01*
X12087119Y8384495D01*
X11845390Y8457822D01*
X11594000Y8482582D01*
X9674000Y8482582D01*
X9422610Y8457822D01*
X9180881Y8384495D01*
X8958102Y8265417D01*
X8762835Y8105165D01*
X8602583Y7909898D01*
X8483505Y7687119D01*
X8410178Y7445390D01*
X8385418Y7194000D01*
X8385418Y1494000D01*
X8410178Y1242610D01*
X8483505Y1000881D01*
X8602583Y778102D01*
X8762835Y582835D01*
X8958102Y422583D01*
X8961064Y421000D01*
X3180883Y421000D01*
X2660635Y472011D01*
X2180289Y617035D01*
X1737256Y852599D01*
X1348418Y1169728D01*
X1028583Y1556341D01*
X789935Y1997714D01*
X641559Y2477039D01*
X587000Y2996130D01*
X587000Y4163793D01*
X1743000Y4163793D01*
X1743000Y3784207D01*
X1817053Y3411915D01*
X1962315Y3061223D01*
X2173201Y2745609D01*
X2441609Y2477201D01*
X2757223Y2266315D01*
X3107915Y2121053D01*
X3480207Y2047000D01*
X3859793Y2047000D01*
X4232085Y2121053D01*
X4582777Y2266315D01*
X4898391Y2477201D01*
X5166799Y2745609D01*
X5377685Y3061223D01*
X5522947Y3411915D01*
X5597000Y3784207D01*
X5597000Y4163793D01*
X5522947Y4536085D01*
X5377685Y4886777D01*
X5166799Y5202391D01*
X4898391Y5470799D01*
X4582777Y5681685D01*
X4232085Y5826947D01*
X3859793Y5901000D01*
X3480207Y5901000D01*
X3107915Y5826947D01*
X2757223Y5681685D01*
X2441609Y5470799D01*
X2173201Y5202391D01*
X1962315Y4886777D01*
X1817053Y4536085D01*
X1743000Y4163793D01*
X587000Y4163793D01*
X587000Y8603788D01*
X660506Y8543463D01*
X770820Y8484498D01*
X890518Y8448188D01*
X1015000Y8435928D01*
X1579250Y8439000D01*
X1738000Y8597750D01*
X1738000Y9797000D01*
X1718000Y9797000D01*
X1718000Y10051000D01*
X1738000Y10051000D01*
X1738000Y12337000D01*
X1718000Y12337000D01*
X1718000Y12591000D01*
X1738000Y12591000D01*
X1738000Y13790250D01*
X1728000Y13800250D01*
X1728000Y14877000D01*
X1708000Y14877000D01*
X1708000Y15131000D01*
X1728000Y15131000D01*
X1728000Y17417000D01*
X1708000Y17417000D01*
X1708000Y17671000D01*
X1728000Y17671000D01*
X1728000Y18870250D01*
X1982000Y18870250D01*
X1982000Y17671000D01*
X2002000Y17671000D01*
X2002000Y17417000D01*
X1982000Y17417000D01*
X1982000Y15131000D01*
X2002000Y15131000D01*
X2002000Y14877000D01*
X1982000Y14877000D01*
X1982000Y13677750D01*
X1992000Y13667750D01*
X1992000Y12591000D01*
X2012000Y12591000D01*
X2012000Y12337000D01*
X1992000Y12337000D01*
X1992000Y10051000D01*
X2012000Y10051000D01*
X2012000Y9797000D01*
X1992000Y9797000D01*
X1992000Y8597750D01*
X2150750Y8439000D01*
X2715000Y8435928D01*
X2839482Y8448188D01*
X2959180Y8484498D01*
X3069494Y8543463D01*
X3166185Y8622815D01*
X3245537Y8719506D01*
X3304502Y8829820D01*
X3340812Y8949518D01*
X3353072Y9074000D01*
X3351305Y9398491D01*
X3421626Y9266930D01*
X3568709Y9087709D01*
X3747930Y8940626D01*
X3952403Y8831333D01*
X4174268Y8764031D01*
X4347188Y8747000D01*
X4462812Y8747000D01*
X4635732Y8764031D01*
X4857597Y8831333D01*
X5062070Y8940626D01*
X5241291Y9087709D01*
X5388374Y9266930D01*
X5497667Y9471403D01*
X5564969Y9693268D01*
X5587694Y9924000D01*
X5762306Y9924000D01*
X5785031Y9693268D01*
X5852333Y9471403D01*
X5961626Y9266930D01*
X6108709Y9087709D01*
X6287930Y8940626D01*
X6492403Y8831333D01*
X6714268Y8764031D01*
X6887188Y8747000D01*
X7002812Y8747000D01*
X7175732Y8764031D01*
X7397597Y8831333D01*
X7602070Y8940626D01*
X7781291Y9087709D01*
X7928374Y9266930D01*
X8037667Y9471403D01*
X8104969Y9693268D01*
X8127694Y9924000D01*
X8104969Y10154732D01*
X8037667Y10376597D01*
X7928374Y10581070D01*
X7781291Y10760291D01*
X7602070Y10907374D01*
X7397597Y11016667D01*
X7175732Y11083969D01*
X7002812Y11101000D01*
X6887188Y11101000D01*
X6714268Y11083969D01*
X6492403Y11016667D01*
X6287930Y10907374D01*
X6108709Y10760291D01*
X5961626Y10581070D01*
X5852333Y10376597D01*
X5785031Y10154732D01*
X5762306Y9924000D01*
X5587694Y9924000D01*
X5564969Y10154732D01*
X5497667Y10376597D01*
X5388374Y10581070D01*
X5241291Y10760291D01*
X5062070Y10907374D01*
X4982000Y10950172D01*
X4982000Y11437828D01*
X5062070Y11480626D01*
X5241291Y11627709D01*
X5388374Y11806930D01*
X5497667Y12011403D01*
X5564969Y12233268D01*
X5587694Y12464000D01*
X5762306Y12464000D01*
X5785031Y12233268D01*
X5852333Y12011403D01*
X5961626Y11806930D01*
X6108709Y11627709D01*
X6287930Y11480626D01*
X6492403Y11371333D01*
X6714268Y11304031D01*
X6887188Y11287000D01*
X7002812Y11287000D01*
X7175732Y11304031D01*
X7397597Y11371333D01*
X7602070Y11480626D01*
X7781291Y11627709D01*
X7928374Y11806930D01*
X7957678Y11861754D01*
X31593000Y11861754D01*
X31593000Y11738246D01*
X31617095Y11617111D01*
X31664360Y11503004D01*
X31732977Y11400311D01*
X31820311Y11312977D01*
X31923004Y11244360D01*
X32037111Y11197095D01*
X32158246Y11173000D01*
X32281754Y11173000D01*
X32402889Y11197095D01*
X32516996Y11244360D01*
X32619689Y11312977D01*
X32707023Y11400311D01*
X32775640Y11503004D01*
X32822905Y11617111D01*
X32847000Y11738246D01*
X32847000Y11860000D01*
X37337928Y11860000D01*
X37350188Y11735518D01*
X37386498Y11615820D01*
X37445463Y11505506D01*
X37524815Y11408815D01*
X37621506Y11329463D01*
X37731820Y11270498D01*
X37851518Y11234188D01*
X37976000Y11221928D01*
X38190250Y11225000D01*
X38349000Y11383750D01*
X38349000Y12233000D01*
X37499750Y12233000D01*
X37341000Y12074250D01*
X37337928Y11860000D01*
X32847000Y11860000D01*
X32847000Y11861754D01*
X32822905Y11982889D01*
X32775640Y12096996D01*
X32741968Y12147389D01*
X33454579Y12860000D01*
X37337928Y12860000D01*
X37341000Y12645750D01*
X37499750Y12487000D01*
X38349000Y12487000D01*
X38349000Y13336250D01*
X38603000Y13336250D01*
X38603000Y12487000D01*
X38623000Y12487000D01*
X38623000Y12233000D01*
X38603000Y12233000D01*
X38603000Y11383750D01*
X38761750Y11225000D01*
X38976000Y11221928D01*
X39100482Y11234188D01*
X39220180Y11270498D01*
X39330494Y11329463D01*
X39427185Y11408815D01*
X39506537Y11505506D01*
X39535477Y11559649D01*
X39583880Y11544966D01*
X39705376Y11533000D01*
X39786624Y11533000D01*
X39908120Y11544966D01*
X40064010Y11592255D01*
X40207679Y11669048D01*
X40333606Y11772394D01*
X40436952Y11898321D01*
X40513745Y12041990D01*
X40561034Y12197880D01*
X40577001Y12360000D01*
X40561034Y12522120D01*
X40513745Y12678010D01*
X40436952Y12821679D01*
X40333606Y12947606D01*
X40207679Y13050952D01*
X40064010Y13127745D01*
X39908120Y13175034D01*
X39786624Y13187000D01*
X39705376Y13187000D01*
X39583880Y13175034D01*
X39535477Y13160351D01*
X39506537Y13214494D01*
X39427185Y13311185D01*
X39330494Y13390537D01*
X39220180Y13449502D01*
X39100482Y13485812D01*
X38976000Y13498072D01*
X38761750Y13495000D01*
X38603000Y13336250D01*
X38349000Y13336250D01*
X38190250Y13495000D01*
X37976000Y13498072D01*
X37851518Y13485812D01*
X37731820Y13449502D01*
X37621506Y13390537D01*
X37524815Y13311185D01*
X37445463Y13214494D01*
X37386498Y13104180D01*
X37350188Y12984482D01*
X37337928Y12860000D01*
X33454579Y12860000D01*
X37267580Y16673000D01*
X37281754Y16673000D01*
X37402889Y16697095D01*
X37516996Y16744360D01*
X37619689Y16812977D01*
X37707023Y16900311D01*
X37775640Y17003004D01*
X37822905Y17117111D01*
X37847000Y17238246D01*
X37847000Y17361754D01*
X37822905Y17482889D01*
X37775640Y17596996D01*
X37707023Y17699689D01*
X37619689Y17787023D01*
X37516996Y17855640D01*
X37402889Y17902905D01*
X37281754Y17927000D01*
X37158246Y17927000D01*
X37037111Y17902905D01*
X36923004Y17855640D01*
X36820311Y17787023D01*
X36732977Y17699689D01*
X36664360Y17596996D01*
X36617095Y17482889D01*
X36593000Y17361754D01*
X36593000Y17347580D01*
X36297000Y17051580D01*
X36297000Y17161754D01*
X36272905Y17282889D01*
X36225640Y17396996D01*
X36157023Y17499689D01*
X36098600Y17558112D01*
X36098600Y19222469D01*
X36852045Y19975913D01*
X44126196Y19975913D01*
X44123328Y19973104D01*
X44119528Y19968511D01*
X43996178Y19817269D01*
X43974748Y19785015D01*
X43952896Y19753101D01*
X43950063Y19747861D01*
X43950060Y19747857D01*
X43950060Y19747856D01*
X43858435Y19575534D01*
X43843676Y19539727D01*
X43828442Y19504182D01*
X43826681Y19498493D01*
X43826678Y19498486D01*
X43826677Y19498479D01*
X43770270Y19311650D01*
X43762755Y19273698D01*
X43754706Y19235831D01*
X43754083Y19229902D01*
X43735084Y19036133D01*
X43733000Y19014977D01*
X43733001Y3973022D01*
X43735135Y3951354D01*
X43735135Y3938370D01*
X43735758Y3932441D01*
X43757513Y3738491D01*
X43765563Y3700619D01*
X43773077Y3662670D01*
X43774840Y3656974D01*
X43833853Y3470944D01*
X43849113Y3435340D01*
X43863847Y3399594D01*
X43866682Y3394349D01*
X43960704Y3223324D01*
X43982571Y3191388D01*
X44003985Y3159157D01*
X44007782Y3154568D01*
X44007786Y3154562D01*
X44007791Y3154557D01*
X44133236Y3005057D01*
X44160932Y2977934D01*
X44188158Y2950518D01*
X44192772Y2946754D01*
X44192776Y2946750D01*
X44192778Y2946749D01*
X44344878Y2824458D01*
X44377271Y2803261D01*
X44409344Y2781627D01*
X44414608Y2778828D01*
X44587564Y2688408D01*
X44623465Y2673903D01*
X44659127Y2658912D01*
X44664822Y2657193D01*
X44664831Y2657189D01*
X44664840Y2657187D01*
X44852060Y2602086D01*
X44890116Y2594826D01*
X44927984Y2587053D01*
X44933917Y2586470D01*
X45128279Y2568782D01*
X45166981Y2569052D01*
X45205682Y2568782D01*
X45211616Y2569363D01*
X45405713Y2589764D01*
X45443644Y2597550D01*
X45481637Y2604798D01*
X45487343Y2606520D01*
X45487349Y2606522D01*
X45673783Y2664233D01*
X45709483Y2679240D01*
X45745342Y2693728D01*
X45750607Y2696527D01*
X45922284Y2789352D01*
X45954382Y2811002D01*
X45986753Y2832185D01*
X45991374Y2835953D01*
X46141751Y2960357D01*
X46169029Y2987825D01*
X46196672Y3014896D01*
X46200472Y3019489D01*
X46323822Y3170731D01*
X46345264Y3203003D01*
X46367104Y3234900D01*
X46369937Y3240139D01*
X46369940Y3240143D01*
X46369942Y3240147D01*
X46461565Y3412466D01*
X46476329Y3448285D01*
X46491558Y3483818D01*
X46493318Y3489504D01*
X46493322Y3489514D01*
X46493324Y3489524D01*
X46549731Y3676350D01*
X46557258Y3714368D01*
X46565293Y3752168D01*
X46565917Y3758098D01*
X46584962Y3952331D01*
X46587000Y3973022D01*
X46587000Y4419000D01*
X48776418Y4419000D01*
X48776418Y2669000D01*
X48782732Y2604897D01*
X48801430Y2543257D01*
X48831794Y2486450D01*
X48872657Y2436657D01*
X48922450Y2395794D01*
X48979257Y2365430D01*
X49040897Y2346732D01*
X49105000Y2340418D01*
X50855000Y2340418D01*
X50919103Y2346732D01*
X50980743Y2365430D01*
X51037550Y2395794D01*
X51087343Y2436657D01*
X51128206Y2486450D01*
X51158570Y2543257D01*
X51177268Y2604897D01*
X51183582Y2669000D01*
X51183582Y3662387D01*
X51278000Y3662387D01*
X51278000Y3425613D01*
X51324192Y3193390D01*
X51414801Y2974639D01*
X51546346Y2777770D01*
X51713770Y2610346D01*
X51910639Y2478801D01*
X52129390Y2388192D01*
X52361613Y2342000D01*
X52598387Y2342000D01*
X52830610Y2388192D01*
X53049361Y2478801D01*
X53246230Y2610346D01*
X53413654Y2777770D01*
X53545199Y2974639D01*
X53635808Y3193390D01*
X53682000Y3425613D01*
X53682000Y3662387D01*
X53778000Y3662387D01*
X53778000Y3425613D01*
X53824192Y3193390D01*
X53914801Y2974639D01*
X54046346Y2777770D01*
X54213770Y2610346D01*
X54410639Y2478801D01*
X54629390Y2388192D01*
X54861613Y2342000D01*
X55098387Y2342000D01*
X55330610Y2388192D01*
X55549361Y2478801D01*
X55746230Y2610346D01*
X55913654Y2777770D01*
X56045199Y2974639D01*
X56135808Y3193390D01*
X56182000Y3425613D01*
X56182000Y3662387D01*
X56135808Y3894610D01*
X56045199Y4113361D01*
X56004820Y4173793D01*
X59733000Y4173793D01*
X59733000Y3794207D01*
X59807053Y3421915D01*
X59952315Y3071223D01*
X60163201Y2755609D01*
X60431609Y2487201D01*
X60747223Y2276315D01*
X61097915Y2131053D01*
X61470207Y2057000D01*
X61849793Y2057000D01*
X62222085Y2131053D01*
X62572777Y2276315D01*
X62888391Y2487201D01*
X63156799Y2755609D01*
X63367685Y3071223D01*
X63512947Y3421915D01*
X63587000Y3794207D01*
X63587000Y4173793D01*
X63512947Y4546085D01*
X63367685Y4896777D01*
X63156799Y5212391D01*
X62888391Y5480799D01*
X62572777Y5691685D01*
X62222085Y5836947D01*
X61849793Y5911000D01*
X61470207Y5911000D01*
X61097915Y5836947D01*
X60747223Y5691685D01*
X60431609Y5480799D01*
X60163201Y5212391D01*
X59952315Y4896777D01*
X59807053Y4546085D01*
X59733000Y4173793D01*
X56004820Y4173793D01*
X55913654Y4310230D01*
X55746230Y4477654D01*
X55549361Y4609199D01*
X55330610Y4699808D01*
X55098387Y4746000D01*
X54861613Y4746000D01*
X54629390Y4699808D01*
X54410639Y4609199D01*
X54213770Y4477654D01*
X54046346Y4310230D01*
X53914801Y4113361D01*
X53824192Y3894610D01*
X53778000Y3662387D01*
X53682000Y3662387D01*
X53635808Y3894610D01*
X53545199Y4113361D01*
X53413654Y4310230D01*
X53246230Y4477654D01*
X53049361Y4609199D01*
X52830610Y4699808D01*
X52598387Y4746000D01*
X52361613Y4746000D01*
X52129390Y4699808D01*
X51910639Y4609199D01*
X51713770Y4477654D01*
X51546346Y4310230D01*
X51414801Y4113361D01*
X51324192Y3894610D01*
X51278000Y3662387D01*
X51183582Y3662387D01*
X51183582Y4419000D01*
X51177268Y4483103D01*
X51158570Y4544743D01*
X51128206Y4601550D01*
X51087343Y4651343D01*
X51037550Y4692206D01*
X50980743Y4722570D01*
X50919103Y4741268D01*
X50855000Y4747582D01*
X49105000Y4747582D01*
X49040897Y4741268D01*
X48979257Y4722570D01*
X48922450Y4692206D01*
X48872657Y4651343D01*
X48831794Y4601550D01*
X48801430Y4544743D01*
X48782732Y4483103D01*
X48776418Y4419000D01*
X46587000Y4419000D01*
X46587000Y6661754D01*
X51543000Y6661754D01*
X51543000Y6538246D01*
X51567095Y6417111D01*
X51614360Y6303004D01*
X51682977Y6200311D01*
X51770311Y6112977D01*
X51873004Y6044360D01*
X51987111Y5997095D01*
X52108246Y5973000D01*
X52231754Y5973000D01*
X52352889Y5997095D01*
X52466996Y6044360D01*
X52569689Y6112977D01*
X52628112Y6171400D01*
X54861888Y6171400D01*
X54920311Y6112977D01*
X55023004Y6044360D01*
X55137111Y5997095D01*
X55258246Y5973000D01*
X55381754Y5973000D01*
X55502889Y5997095D01*
X55616996Y6044360D01*
X55719689Y6112977D01*
X55807023Y6200311D01*
X55875640Y6303004D01*
X55922905Y6417111D01*
X55947000Y6538246D01*
X55947000Y6661754D01*
X55922905Y6782889D01*
X55875640Y6896996D01*
X55807023Y6999689D01*
X55719689Y7087023D01*
X55616996Y7155640D01*
X55502889Y7202905D01*
X55381754Y7227000D01*
X55258246Y7227000D01*
X55137111Y7202905D01*
X55023004Y7155640D01*
X54920311Y7087023D01*
X54861888Y7028600D01*
X52628112Y7028600D01*
X52569689Y7087023D01*
X52466996Y7155640D01*
X52352889Y7202905D01*
X52231754Y7227000D01*
X52108246Y7227000D01*
X51987111Y7202905D01*
X51873004Y7155640D01*
X51770311Y7087023D01*
X51682977Y6999689D01*
X51614360Y6896996D01*
X51567095Y6782889D01*
X51543000Y6661754D01*
X46587000Y6661754D01*
X46587000Y17377468D01*
X55893000Y17377468D01*
X55893001Y14722531D01*
X55915819Y14490854D01*
X56005994Y14193588D01*
X56152429Y13919627D01*
X56349498Y13679497D01*
X56589628Y13482428D01*
X56863589Y13335993D01*
X57160855Y13245818D01*
X57470000Y13215370D01*
X57779146Y13245818D01*
X58076412Y13335993D01*
X58350373Y13482428D01*
X58590503Y13679497D01*
X58787572Y13919627D01*
X58934007Y14193588D01*
X59024182Y14490854D01*
X59047000Y14722531D01*
X59047000Y17377469D01*
X59024182Y17609146D01*
X58934007Y17906412D01*
X58787572Y18180373D01*
X58590503Y18420503D01*
X58350372Y18617572D01*
X58076411Y18764007D01*
X57779145Y18854182D01*
X57470000Y18884630D01*
X57160854Y18854182D01*
X56863588Y18764007D01*
X56589627Y18617572D01*
X56349497Y18420503D01*
X56152428Y18180372D01*
X56005993Y17906411D01*
X55915818Y17609145D01*
X55893000Y17377468D01*
X46587000Y17377468D01*
X46587000Y18701906D01*
X46632977Y18633096D01*
X46720311Y18545762D01*
X46823004Y18477145D01*
X46937111Y18429880D01*
X47058246Y18405785D01*
X47181754Y18405785D01*
X47302889Y18429880D01*
X47416996Y18477145D01*
X47519689Y18545762D01*
X47607023Y18633096D01*
X47675640Y18735789D01*
X47722905Y18849896D01*
X47747000Y18971031D01*
X47747000Y19094539D01*
X47722905Y19215674D01*
X47675640Y19329781D01*
X47607023Y19432474D01*
X47519689Y19519808D01*
X47416996Y19588425D01*
X47302889Y19635690D01*
X47181754Y19659785D01*
X47099132Y19659785D01*
X46066227Y20692689D01*
X46052804Y20709045D01*
X45987541Y20762605D01*
X45913083Y20802403D01*
X45832292Y20826911D01*
X45769320Y20833113D01*
X45748272Y20835186D01*
X45727224Y20833113D01*
X36695561Y20833113D01*
X36674513Y20835186D01*
X36590492Y20826911D01*
X36565984Y20819476D01*
X36509702Y20802403D01*
X36435244Y20762605D01*
X36369981Y20709045D01*
X36356562Y20692694D01*
X35381819Y19717950D01*
X35365469Y19704532D01*
X35352051Y19688182D01*
X35311909Y19639269D01*
X35272111Y19564811D01*
X35247602Y19484020D01*
X35239327Y19400000D01*
X35241401Y19378942D01*
X35241400Y17558112D01*
X35182977Y17499689D01*
X35114360Y17396996D01*
X35067095Y17282889D01*
X35043000Y17161754D01*
X35043000Y17038246D01*
X35067095Y16917111D01*
X35114360Y16803004D01*
X35182977Y16700311D01*
X35270311Y16612977D01*
X35373004Y16544360D01*
X35487111Y16497095D01*
X35608246Y16473000D01*
X35718420Y16473000D01*
X31899271Y12653850D01*
X31881080Y12638921D01*
X31821472Y12566289D01*
X31797863Y12522120D01*
X31777178Y12483422D01*
X31749903Y12393507D01*
X31740694Y12300000D01*
X31743001Y12276576D01*
X31743001Y12209713D01*
X31732977Y12199689D01*
X31664360Y12096996D01*
X31617095Y11982889D01*
X31593000Y11861754D01*
X7957678Y11861754D01*
X8037667Y12011403D01*
X8104969Y12233268D01*
X8127694Y12464000D01*
X8104969Y12694732D01*
X8037667Y12916597D01*
X7928374Y13121070D01*
X7781291Y13300291D01*
X7602070Y13447374D01*
X7397597Y13556667D01*
X7175732Y13623969D01*
X7002812Y13641000D01*
X6887188Y13641000D01*
X6714268Y13623969D01*
X6492403Y13556667D01*
X6287930Y13447374D01*
X6108709Y13300291D01*
X5961626Y13121070D01*
X5852333Y12916597D01*
X5785031Y12694732D01*
X5762306Y12464000D01*
X5587694Y12464000D01*
X5564969Y12694732D01*
X5497667Y12916597D01*
X5388374Y13121070D01*
X5241291Y13300291D01*
X5062070Y13447374D01*
X4982000Y13490172D01*
X4982000Y13983173D01*
X5052070Y14020626D01*
X5231291Y14167709D01*
X5378374Y14346930D01*
X5487667Y14551403D01*
X5554969Y14773268D01*
X5577694Y15004000D01*
X5752306Y15004000D01*
X5775031Y14773268D01*
X5842333Y14551403D01*
X5951626Y14346930D01*
X6098709Y14167709D01*
X6277930Y14020626D01*
X6482403Y13911333D01*
X6704268Y13844031D01*
X6877188Y13827000D01*
X6992812Y13827000D01*
X7165732Y13844031D01*
X7387597Y13911333D01*
X7592070Y14020626D01*
X7771291Y14167709D01*
X7918374Y14346930D01*
X8027667Y14551403D01*
X8094969Y14773268D01*
X8117694Y15004000D01*
X8094969Y15234732D01*
X8027667Y15456597D01*
X7918374Y15661070D01*
X7771291Y15840291D01*
X7592070Y15987374D01*
X7387597Y16096667D01*
X7165732Y16163969D01*
X6992812Y16181000D01*
X6877188Y16181000D01*
X6704268Y16163969D01*
X6482403Y16096667D01*
X6277930Y15987374D01*
X6098709Y15840291D01*
X5951626Y15661070D01*
X5842333Y15456597D01*
X5775031Y15234732D01*
X5752306Y15004000D01*
X5577694Y15004000D01*
X5554969Y15234732D01*
X5487667Y15456597D01*
X5378374Y15661070D01*
X5231291Y15840291D01*
X5052070Y15987374D01*
X4982000Y16024827D01*
X4982000Y16523173D01*
X5052070Y16560626D01*
X5231291Y16707709D01*
X5378374Y16886930D01*
X5487667Y17091403D01*
X5554969Y17313268D01*
X5577694Y17544000D01*
X5752306Y17544000D01*
X5775031Y17313268D01*
X5842333Y17091403D01*
X5951626Y16886930D01*
X6098709Y16707709D01*
X6277930Y16560626D01*
X6482403Y16451333D01*
X6704268Y16384031D01*
X6877188Y16367000D01*
X6992812Y16367000D01*
X7165732Y16384031D01*
X7387597Y16451333D01*
X7592070Y16560626D01*
X7771291Y16707709D01*
X7918374Y16886930D01*
X8027667Y17091403D01*
X8094969Y17313268D01*
X8117694Y17544000D01*
X8094969Y17774732D01*
X8027667Y17996597D01*
X7918374Y18201070D01*
X7771291Y18380291D01*
X7592070Y18527374D01*
X7387597Y18636667D01*
X7165732Y18703969D01*
X6992812Y18721000D01*
X6877188Y18721000D01*
X6704268Y18703969D01*
X6482403Y18636667D01*
X6277930Y18527374D01*
X6098709Y18380291D01*
X5951626Y18201070D01*
X5842333Y17996597D01*
X5775031Y17774732D01*
X5752306Y17544000D01*
X5577694Y17544000D01*
X5554969Y17774732D01*
X5528614Y17861613D01*
X6790001Y19123000D01*
X9504571Y19123000D01*
X9567111Y19097095D01*
X9688246Y19073000D01*
X9811754Y19073000D01*
X9932889Y19097095D01*
X10046996Y19144360D01*
X10149689Y19212977D01*
X10237023Y19300311D01*
X10305640Y19403004D01*
X10352905Y19517111D01*
X10377000Y19638246D01*
X10377000Y19761754D01*
X10352905Y19882889D01*
X10305640Y19996996D01*
X10237023Y20099689D01*
X10149689Y20187023D01*
X10046996Y20255640D01*
X9932889Y20302905D01*
X9811754Y20327000D01*
X9688246Y20327000D01*
X9567111Y20302905D01*
X9504571Y20277000D01*
X6579328Y20277000D01*
X6550999Y20279790D01*
X6522670Y20277000D01*
X6522664Y20277000D01*
X6437888Y20268650D01*
X6329124Y20235657D01*
X6228885Y20182079D01*
X6141026Y20109974D01*
X6122961Y20087962D01*
X4712613Y18677614D01*
X4625732Y18703969D01*
X4452812Y18721000D01*
X4337188Y18721000D01*
X4164268Y18703969D01*
X3942403Y18636667D01*
X3737930Y18527374D01*
X3558709Y18380291D01*
X3411626Y18201070D01*
X3341305Y18069509D01*
X3343072Y18394000D01*
X3330812Y18518482D01*
X3294502Y18638180D01*
X3235537Y18748494D01*
X3156185Y18845185D01*
X3059494Y18924537D01*
X2949180Y18983502D01*
X2829482Y19019812D01*
X2705000Y19032072D01*
X2140750Y19029000D01*
X1982000Y18870250D01*
X1728000Y18870250D01*
X1569250Y19029000D01*
X1005000Y19032072D01*
X963418Y19027977D01*
X1045193Y19053290D01*
X1175629Y19067000D01*
X4139863Y19067000D01*
X4203643Y19060971D01*
X4231696Y19061069D01*
X4259698Y19059371D01*
X4265654Y19059634D01*
X4437934Y19068452D01*
X4476226Y19074195D01*
X4514555Y19079398D01*
X4520345Y19080813D01*
X4520348Y19080813D01*
X4520350Y19080814D01*
X4687630Y19122925D01*
X4724103Y19136005D01*
X4760668Y19148546D01*
X4766069Y19151056D01*
X4766074Y19151058D01*
X4766078Y19151061D01*
X4921994Y19224862D01*
X4955206Y19244762D01*
X4988663Y19264181D01*
X4993479Y19267696D01*
X5132093Y19370378D01*
X5160784Y19396330D01*
X5189854Y19421896D01*
X5193895Y19426279D01*
X5309926Y19553929D01*
X5333053Y19584990D01*
X5356584Y19615690D01*
X5359697Y19620775D01*
X5448723Y19768532D01*
X5465380Y19803501D01*
X5482493Y19838173D01*
X5484559Y19843766D01*
X5543191Y20006000D01*
X5552737Y20043532D01*
X5562793Y20080879D01*
X5563733Y20086766D01*
X5589736Y20257298D01*
X5591810Y20295970D01*
X5594420Y20334556D01*
X5594199Y20340514D01*
X5587000Y20503435D01*
X5587000Y26011754D01*
X45523000Y26011754D01*
X45523000Y25888246D01*
X45547095Y25767111D01*
X45594360Y25653004D01*
X45662977Y25550311D01*
X45673001Y25540287D01*
X45673000Y21643415D01*
X45670694Y21620000D01*
X45673000Y21596585D01*
X45673000Y21596578D01*
X45679903Y21526493D01*
X45707178Y21436578D01*
X45751471Y21353711D01*
X45811079Y21281079D01*
X45829276Y21266145D01*
X47766149Y19329271D01*
X47781079Y19311079D01*
X47799270Y19296150D01*
X47799272Y19296148D01*
X47847653Y19256443D01*
X47853711Y19251471D01*
X47936577Y19207178D01*
X48026492Y19179903D01*
X48096577Y19173000D01*
X48096585Y19173000D01*
X48120000Y19170694D01*
X48143415Y19173000D01*
X53270288Y19173000D01*
X53280311Y19162977D01*
X53383004Y19094360D01*
X53497111Y19047095D01*
X53618246Y19023000D01*
X53741754Y19023000D01*
X53862889Y19047095D01*
X53976996Y19094360D01*
X54079689Y19162977D01*
X54167023Y19250311D01*
X54235640Y19353004D01*
X54282905Y19467111D01*
X54307000Y19588246D01*
X54307000Y19711754D01*
X54282905Y19832889D01*
X54235640Y19946996D01*
X54167023Y20049689D01*
X54079689Y20137023D01*
X53976996Y20205640D01*
X53862889Y20252905D01*
X53741754Y20277000D01*
X53618246Y20277000D01*
X53497111Y20252905D01*
X53383004Y20205640D01*
X53280311Y20137023D01*
X53270288Y20127000D01*
X48317580Y20127000D01*
X46627000Y21817579D01*
X46627000Y25540288D01*
X46637023Y25550311D01*
X46705640Y25653004D01*
X46752905Y25767111D01*
X46777000Y25888246D01*
X46777000Y25893110D01*
X61028524Y25893110D01*
X61073175Y25745901D01*
X61198359Y25483080D01*
X61372412Y25249731D01*
X61588645Y25054822D01*
X61838748Y24905843D01*
X62113109Y24808519D01*
X62343000Y24929186D01*
X62343000Y26123000D01*
X62597000Y26123000D01*
X62597000Y24929186D01*
X62826891Y24808519D01*
X63101252Y24905843D01*
X63351355Y25054822D01*
X63567588Y25249731D01*
X63741641Y25483080D01*
X63866825Y25745901D01*
X63911476Y25893110D01*
X63790155Y26123000D01*
X62597000Y26123000D01*
X62343000Y26123000D01*
X61149845Y26123000D01*
X61028524Y25893110D01*
X46777000Y25893110D01*
X46777000Y26011754D01*
X46752905Y26132889D01*
X46705640Y26246996D01*
X46637023Y26349689D01*
X46549689Y26437023D01*
X46446996Y26505640D01*
X46332889Y26552905D01*
X46211754Y26577000D01*
X46088246Y26577000D01*
X45967111Y26552905D01*
X45853004Y26505640D01*
X45750311Y26437023D01*
X45662977Y26349689D01*
X45594360Y26246996D01*
X45547095Y26132889D01*
X45523000Y26011754D01*
X5587000Y26011754D01*
X5587000Y26606890D01*
X61028524Y26606890D01*
X61149845Y26377000D01*
X62343000Y26377000D01*
X62343000Y26397000D01*
X62597000Y26397000D01*
X62597000Y26377000D01*
X63790155Y26377000D01*
X63911476Y26606890D01*
X63866825Y26754099D01*
X63741641Y27016920D01*
X63567588Y27250269D01*
X63351355Y27445178D01*
X63101252Y27594157D01*
X62862115Y27678986D01*
X62922597Y27697333D01*
X63127070Y27806626D01*
X63306291Y27953709D01*
X63453374Y28132930D01*
X63562667Y28337403D01*
X63629969Y28559268D01*
X63652694Y28790000D01*
X63629969Y29020732D01*
X63562667Y29242597D01*
X63453374Y29447070D01*
X63306291Y29626291D01*
X63127070Y29773374D01*
X62922597Y29882667D01*
X62700732Y29949969D01*
X62527812Y29967000D01*
X62412188Y29967000D01*
X62239268Y29949969D01*
X62017403Y29882667D01*
X61812930Y29773374D01*
X61633709Y29626291D01*
X61486626Y29447070D01*
X61377333Y29242597D01*
X61310031Y29020732D01*
X61287306Y28790000D01*
X61310031Y28559268D01*
X61377333Y28337403D01*
X61486626Y28132930D01*
X61633709Y27953709D01*
X61812930Y27806626D01*
X62017403Y27697333D01*
X62077885Y27678986D01*
X61838748Y27594157D01*
X61588645Y27445178D01*
X61372412Y27250269D01*
X61198359Y27016920D01*
X61073175Y26754099D01*
X61028524Y26606890D01*
X5587000Y26606890D01*
X5587000Y27361754D01*
X41723000Y27361754D01*
X41723000Y27238246D01*
X41747095Y27117111D01*
X41794360Y27003004D01*
X41862977Y26900311D01*
X41950311Y26812977D01*
X42053004Y26744360D01*
X42167111Y26697095D01*
X42288246Y26673000D01*
X42411754Y26673000D01*
X42532889Y26697095D01*
X42595429Y26723000D01*
X46774571Y26723000D01*
X46837111Y26697095D01*
X46958246Y26673000D01*
X47081754Y26673000D01*
X47202889Y26697095D01*
X47316996Y26744360D01*
X47419689Y26812977D01*
X47507023Y26900311D01*
X47575640Y27003004D01*
X47622905Y27117111D01*
X47647000Y27238246D01*
X47647000Y27361754D01*
X47622905Y27482889D01*
X47575640Y27596996D01*
X47507023Y27699689D01*
X47419689Y27787023D01*
X47316996Y27855640D01*
X47202889Y27902905D01*
X47081754Y27927000D01*
X46958246Y27927000D01*
X46837111Y27902905D01*
X46774571Y27877000D01*
X42595429Y27877000D01*
X42532889Y27902905D01*
X42411754Y27927000D01*
X42288246Y27927000D01*
X42167111Y27902905D01*
X42053004Y27855640D01*
X41950311Y27787023D01*
X41862977Y27699689D01*
X41794360Y27596996D01*
X41747095Y27482889D01*
X41723000Y27361754D01*
X5587000Y27361754D01*
X5587000Y31330000D01*
X61287306Y31330000D01*
X61310031Y31099268D01*
X61377333Y30877403D01*
X61486626Y30672930D01*
X61633709Y30493709D01*
X61812930Y30346626D01*
X62017403Y30237333D01*
X62239268Y30170031D01*
X62412188Y30153000D01*
X62527812Y30153000D01*
X62700732Y30170031D01*
X62922597Y30237333D01*
X63127070Y30346626D01*
X63306291Y30493709D01*
X63453374Y30672930D01*
X63562667Y30877403D01*
X63629969Y31099268D01*
X63652694Y31330000D01*
X63629969Y31560732D01*
X63562667Y31782597D01*
X63453374Y31987070D01*
X63306291Y32166291D01*
X63127070Y32313374D01*
X62922597Y32422667D01*
X62700732Y32489969D01*
X62527812Y32507000D01*
X62412188Y32507000D01*
X62239268Y32489969D01*
X62017403Y32422667D01*
X61812930Y32313374D01*
X61633709Y32166291D01*
X61486626Y31987070D01*
X61377333Y31782597D01*
X61310031Y31560732D01*
X61287306Y31330000D01*
X5587000Y31330000D01*
X5587000Y35473863D01*
X5593029Y35537643D01*
X5592931Y35565696D01*
X5594629Y35593697D01*
X5594366Y35599654D01*
X5585548Y35771933D01*
X5579801Y35810253D01*
X5574601Y35848555D01*
X5573187Y35854347D01*
X5548666Y35951754D01*
X54033000Y35951754D01*
X54033000Y35828246D01*
X54057095Y35707111D01*
X54104360Y35593004D01*
X54172977Y35490311D01*
X54260311Y35402977D01*
X54363004Y35334360D01*
X54477111Y35287095D01*
X54598246Y35263000D01*
X54721754Y35263000D01*
X54842889Y35287095D01*
X54905429Y35313000D01*
X61560999Y35313000D01*
X61825416Y35048582D01*
X61620000Y35048582D01*
X61555897Y35042268D01*
X61494257Y35023570D01*
X61437450Y34993206D01*
X61387657Y34952343D01*
X61346794Y34902550D01*
X61316430Y34845743D01*
X61297732Y34784103D01*
X61291418Y34720000D01*
X61291418Y33020000D01*
X61297732Y32955897D01*
X61316430Y32894257D01*
X61346794Y32837450D01*
X61387657Y32787657D01*
X61437450Y32746794D01*
X61494257Y32716430D01*
X61555897Y32697732D01*
X61620000Y32691418D01*
X63320000Y32691418D01*
X63384103Y32697732D01*
X63445743Y32716430D01*
X63502550Y32746794D01*
X63552343Y32787657D01*
X63593206Y32837450D01*
X63623570Y32894257D01*
X63642268Y32955897D01*
X63648582Y33020000D01*
X63648582Y34720000D01*
X63642268Y34784103D01*
X63623570Y34845743D01*
X63593206Y34902550D01*
X63552343Y34952343D01*
X63502550Y34993206D01*
X63445743Y35023570D01*
X63384103Y35042268D01*
X63320000Y35048582D01*
X63047000Y35048582D01*
X63047000Y35191672D01*
X63049790Y35220001D01*
X63047000Y35248330D01*
X63047000Y35248336D01*
X63038650Y35333112D01*
X63005657Y35441876D01*
X62952079Y35542115D01*
X62909746Y35593697D01*
X62898037Y35607965D01*
X62898035Y35607967D01*
X62879974Y35629974D01*
X62857968Y35648034D01*
X62228039Y36277962D01*
X62209974Y36299974D01*
X62122115Y36372079D01*
X62021876Y36425657D01*
X61957770Y36445103D01*
X61913111Y36458651D01*
X61858045Y36464074D01*
X61828336Y36467000D01*
X61828331Y36467000D01*
X61800000Y36469790D01*
X61771669Y36467000D01*
X54905429Y36467000D01*
X54842889Y36492905D01*
X54721754Y36517000D01*
X54598246Y36517000D01*
X54477111Y36492905D01*
X54363004Y36445640D01*
X54260311Y36377023D01*
X54172977Y36289689D01*
X54104360Y36186996D01*
X54057095Y36072889D01*
X54033000Y35951754D01*
X5548666Y35951754D01*
X5531075Y36021631D01*
X5517990Y36058115D01*
X5505454Y36094668D01*
X5502944Y36100069D01*
X5502942Y36100074D01*
X5502939Y36100078D01*
X5429138Y36255994D01*
X5409247Y36289189D01*
X5389819Y36322664D01*
X5386304Y36327479D01*
X5283622Y36466093D01*
X5257638Y36494819D01*
X5232104Y36523854D01*
X5227721Y36527895D01*
X5100071Y36643926D01*
X5069010Y36667053D01*
X5038310Y36690584D01*
X5033225Y36693697D01*
X4885468Y36782723D01*
X4850525Y36799367D01*
X4815827Y36816493D01*
X4810234Y36818559D01*
X4648000Y36877191D01*
X4610468Y36886737D01*
X4573121Y36896793D01*
X4567239Y36897732D01*
X4567236Y36897733D01*
X4567233Y36897733D01*
X4396702Y36923736D01*
X4358030Y36925810D01*
X4319444Y36928420D01*
X4313486Y36928199D01*
X4150565Y36921000D01*
X1180883Y36921000D01*
X1049101Y36933922D01*
X942430Y36966127D01*
X844039Y37018442D01*
X757687Y37088870D01*
X686657Y37174730D01*
X633661Y37272745D01*
X600710Y37379193D01*
X587000Y37509629D01*
X587000Y53173793D01*
X1743000Y53173793D01*
X1743000Y52794207D01*
X1817053Y52421915D01*
X1962315Y52071223D01*
X2173201Y51755609D01*
X2441609Y51487201D01*
X2757223Y51276315D01*
X3107915Y51131053D01*
X3480207Y51057000D01*
X3859793Y51057000D01*
X4232085Y51131053D01*
X4582777Y51276315D01*
X4898391Y51487201D01*
X5166799Y51755609D01*
X5377685Y52071223D01*
X5494815Y52354000D01*
X6080210Y52354000D01*
X6083001Y52325659D01*
X6083000Y50328331D01*
X6080210Y50300000D01*
X6083000Y50271669D01*
X6083000Y50271665D01*
X6084847Y50252910D01*
X6091349Y50186889D01*
X6110796Y50122783D01*
X6124343Y50078125D01*
X6177921Y49977886D01*
X6250026Y49890026D01*
X6272038Y49871961D01*
X13853001Y42290998D01*
X13853000Y41705429D01*
X13827095Y41642889D01*
X13803000Y41521754D01*
X13803000Y41398246D01*
X13827095Y41277111D01*
X13874360Y41163004D01*
X13942977Y41060311D01*
X14030311Y40972977D01*
X14133004Y40904360D01*
X14247111Y40857095D01*
X14368246Y40833000D01*
X14491754Y40833000D01*
X14612889Y40857095D01*
X14726996Y40904360D01*
X14829689Y40972977D01*
X14917023Y41060311D01*
X14985640Y41163004D01*
X15032905Y41277111D01*
X15057000Y41398246D01*
X15057000Y41521754D01*
X15032905Y41642889D01*
X15007000Y41705429D01*
X15007000Y42501672D01*
X15009790Y42530001D01*
X15007000Y42558330D01*
X15007000Y42558336D01*
X14998650Y42643112D01*
X14965657Y42751876D01*
X14912079Y42852115D01*
X14839974Y42939974D01*
X14817962Y42958039D01*
X7237000Y50539001D01*
X7237000Y52114999D01*
X7371418Y52249417D01*
X7371418Y50854000D01*
X7377732Y50789897D01*
X7396430Y50728257D01*
X7426794Y50671450D01*
X7467657Y50621657D01*
X7517450Y50580794D01*
X7574257Y50550430D01*
X7635897Y50531732D01*
X7700000Y50525418D01*
X8140150Y50525418D01*
X8149101Y50495910D01*
X8152111Y50485989D01*
X8191909Y50411531D01*
X8245469Y50346268D01*
X8261820Y50332849D01*
X14332849Y44261819D01*
X14346268Y44245468D01*
X14411531Y44191908D01*
X14485989Y44152110D01*
X14566780Y44127602D01*
X14629752Y44121400D01*
X14629753Y44121400D01*
X14650799Y44119327D01*
X14671845Y44121400D01*
X14811888Y44121400D01*
X14870311Y44062977D01*
X14973004Y43994360D01*
X15087111Y43947095D01*
X15208246Y43923000D01*
X15331754Y43923000D01*
X15452889Y43947095D01*
X15566996Y43994360D01*
X15669689Y44062977D01*
X15757023Y44150311D01*
X15825640Y44253004D01*
X15872905Y44367111D01*
X15897000Y44488246D01*
X15897000Y44611754D01*
X15872905Y44732889D01*
X15825640Y44846996D01*
X15757023Y44949689D01*
X15669689Y45037023D01*
X15566996Y45105640D01*
X15452889Y45152905D01*
X15331754Y45177000D01*
X15208246Y45177000D01*
X15087111Y45152905D01*
X14973004Y45105640D01*
X14870311Y45037023D01*
X14820110Y44986822D01*
X9281513Y50525418D01*
X9400000Y50525418D01*
X9464103Y50531732D01*
X9525743Y50550430D01*
X9582550Y50580794D01*
X9632343Y50621657D01*
X9673206Y50671450D01*
X9703570Y50728257D01*
X9722268Y50789897D01*
X9728582Y50854000D01*
X9728582Y51704000D01*
X9907306Y51704000D01*
X9930031Y51473268D01*
X9997333Y51251403D01*
X10106626Y51046930D01*
X10253709Y50867709D01*
X10432930Y50720626D01*
X10637403Y50611333D01*
X10859268Y50544031D01*
X11032188Y50527000D01*
X11147812Y50527000D01*
X11320732Y50544031D01*
X11542597Y50611333D01*
X11564714Y50623155D01*
X11651816Y50536052D01*
X13426050Y48761818D01*
X13439469Y48745467D01*
X13504732Y48691907D01*
X13579190Y48652109D01*
X13659981Y48627601D01*
X13722953Y48621399D01*
X13722954Y48621399D01*
X13744000Y48619326D01*
X13765046Y48621399D01*
X14456297Y48621399D01*
X14467095Y48567111D01*
X14514360Y48453004D01*
X14582977Y48350311D01*
X14670311Y48262977D01*
X14773004Y48194360D01*
X14887111Y48147095D01*
X15008246Y48123000D01*
X15090869Y48123000D01*
X17352045Y45861824D01*
X17365468Y45845468D01*
X17430731Y45791908D01*
X17505189Y45752110D01*
X17585980Y45727602D01*
X17648952Y45721400D01*
X17648953Y45721400D01*
X17669999Y45719327D01*
X17691045Y45721400D01*
X19251888Y45721400D01*
X19310311Y45662977D01*
X19413004Y45594360D01*
X19527111Y45547095D01*
X19648246Y45523000D01*
X19771754Y45523000D01*
X19892889Y45547095D01*
X20006996Y45594360D01*
X20109689Y45662977D01*
X20197023Y45750311D01*
X20265640Y45853004D01*
X20312905Y45967111D01*
X20337000Y46088246D01*
X20337000Y46211754D01*
X20312905Y46332889D01*
X20265640Y46446996D01*
X20197023Y46549689D01*
X20109689Y46637023D01*
X20006996Y46705640D01*
X19892889Y46752905D01*
X19771754Y46777000D01*
X19648246Y46777000D01*
X19527111Y46752905D01*
X19413004Y46705640D01*
X19310311Y46637023D01*
X19251888Y46578600D01*
X17847531Y46578600D01*
X16218131Y48208000D01*
X18405306Y48208000D01*
X18428031Y47977268D01*
X18495333Y47755403D01*
X18604626Y47550930D01*
X18751709Y47371709D01*
X18930930Y47224626D01*
X19135403Y47115333D01*
X19357268Y47048031D01*
X19530188Y47031000D01*
X19645812Y47031000D01*
X19818732Y47048031D01*
X20040597Y47115333D01*
X20245070Y47224626D01*
X20424291Y47371709D01*
X20571374Y47550930D01*
X20680667Y47755403D01*
X20747969Y47977268D01*
X20770694Y48208000D01*
X20945306Y48208000D01*
X20968031Y47977268D01*
X21035333Y47755403D01*
X21144626Y47550930D01*
X21291709Y47371709D01*
X21470930Y47224626D01*
X21675403Y47115333D01*
X21897268Y47048031D01*
X22070188Y47031000D01*
X22185812Y47031000D01*
X22358732Y47048031D01*
X22580597Y47115333D01*
X22785070Y47224626D01*
X22964291Y47371709D01*
X23111374Y47550930D01*
X23220667Y47755403D01*
X23287969Y47977268D01*
X23310694Y48208000D01*
X23485306Y48208000D01*
X23508031Y47977268D01*
X23575333Y47755403D01*
X23684626Y47550930D01*
X23831709Y47371709D01*
X24010930Y47224626D01*
X24215403Y47115333D01*
X24437268Y47048031D01*
X24610188Y47031000D01*
X24725812Y47031000D01*
X24898732Y47048031D01*
X25120597Y47115333D01*
X25325070Y47224626D01*
X25504291Y47371709D01*
X25651374Y47550930D01*
X25760667Y47755403D01*
X25827969Y47977268D01*
X25850694Y48208000D01*
X26025306Y48208000D01*
X26048031Y47977268D01*
X26115333Y47755403D01*
X26224626Y47550930D01*
X26371709Y47371709D01*
X26550930Y47224626D01*
X26755403Y47115333D01*
X26977268Y47048031D01*
X27150188Y47031000D01*
X27265812Y47031000D01*
X27438732Y47048031D01*
X27660597Y47115333D01*
X27682714Y47127155D01*
X36148049Y38661819D01*
X36161468Y38645468D01*
X36226731Y38591908D01*
X36301189Y38552110D01*
X36381980Y38527602D01*
X36444952Y38521400D01*
X36444953Y38521400D01*
X36465999Y38519327D01*
X36487045Y38521400D01*
X45070054Y38521400D01*
X45077333Y38497403D01*
X45186626Y38292930D01*
X45333709Y38113709D01*
X45512930Y37966626D01*
X45717403Y37857333D01*
X45939268Y37790031D01*
X46112188Y37773000D01*
X46227812Y37773000D01*
X46400732Y37790031D01*
X46622597Y37857333D01*
X46827070Y37966626D01*
X47006291Y38113709D01*
X47153374Y38292930D01*
X47262667Y38497403D01*
X47329969Y38719268D01*
X47352694Y38950000D01*
X47329969Y39180732D01*
X47262667Y39402597D01*
X47153374Y39607070D01*
X47006291Y39786291D01*
X46827070Y39933374D01*
X46622597Y40042667D01*
X46400732Y40109969D01*
X46227812Y40127000D01*
X46112188Y40127000D01*
X45939268Y40109969D01*
X45717403Y40042667D01*
X45512930Y39933374D01*
X45333709Y39786291D01*
X45186626Y39607070D01*
X45077333Y39402597D01*
X45070054Y39378600D01*
X36643532Y39378600D01*
X28288845Y47733286D01*
X28300667Y47755403D01*
X28367969Y47977268D01*
X28390694Y48208000D01*
X28565306Y48208000D01*
X28588031Y47977268D01*
X28655333Y47755403D01*
X28764626Y47550930D01*
X28911709Y47371709D01*
X29090930Y47224626D01*
X29295403Y47115333D01*
X29517268Y47048031D01*
X29690188Y47031000D01*
X29805812Y47031000D01*
X29978732Y47048031D01*
X30200597Y47115333D01*
X30222714Y47127155D01*
X36888049Y40461819D01*
X36901468Y40445468D01*
X36966731Y40391908D01*
X37041189Y40352110D01*
X37097471Y40335037D01*
X37121979Y40327602D01*
X37206000Y40319327D01*
X37227048Y40321400D01*
X46732469Y40321400D01*
X47629155Y39424714D01*
X47617333Y39402597D01*
X47550031Y39180732D01*
X47527306Y38950000D01*
X47550031Y38719268D01*
X47617333Y38497403D01*
X47726626Y38292930D01*
X47873709Y38113709D01*
X48052930Y37966626D01*
X48257403Y37857333D01*
X48479268Y37790031D01*
X48652188Y37773000D01*
X48767812Y37773000D01*
X48940732Y37790031D01*
X49162597Y37857333D01*
X49367070Y37966626D01*
X49546291Y38113709D01*
X49693374Y38292930D01*
X49802667Y38497403D01*
X49869969Y38719268D01*
X49892694Y38950000D01*
X50067306Y38950000D01*
X50090031Y38719268D01*
X50157333Y38497403D01*
X50266626Y38292930D01*
X50413709Y38113709D01*
X50592930Y37966626D01*
X50797403Y37857333D01*
X51019268Y37790031D01*
X51192188Y37773000D01*
X51307812Y37773000D01*
X51480732Y37790031D01*
X51702597Y37857333D01*
X51907070Y37966626D01*
X52086291Y38113709D01*
X52233374Y38292930D01*
X52303695Y38424491D01*
X52301928Y38100000D01*
X52314188Y37975518D01*
X52350498Y37855820D01*
X52409463Y37745506D01*
X52488815Y37648815D01*
X52585506Y37569463D01*
X52695820Y37510498D01*
X52815518Y37474188D01*
X52940000Y37461928D01*
X53504250Y37465000D01*
X53663000Y37623750D01*
X53663000Y38823000D01*
X53917000Y38823000D01*
X53917000Y37623750D01*
X54075750Y37465000D01*
X54640000Y37461928D01*
X54764482Y37474188D01*
X54884180Y37510498D01*
X54994494Y37569463D01*
X55091185Y37648815D01*
X55170537Y37745506D01*
X55229502Y37855820D01*
X55265812Y37975518D01*
X55278072Y38100000D01*
X55275388Y38593110D01*
X61008524Y38593110D01*
X61053175Y38445901D01*
X61178359Y38183080D01*
X61352412Y37949731D01*
X61568645Y37754822D01*
X61818748Y37605843D01*
X62093109Y37508519D01*
X62323000Y37629186D01*
X62323000Y38823000D01*
X62577000Y38823000D01*
X62577000Y37629186D01*
X62806891Y37508519D01*
X63081252Y37605843D01*
X63331355Y37754822D01*
X63547588Y37949731D01*
X63721641Y38183080D01*
X63846825Y38445901D01*
X63891476Y38593110D01*
X63770155Y38823000D01*
X62577000Y38823000D01*
X62323000Y38823000D01*
X61129845Y38823000D01*
X61008524Y38593110D01*
X55275388Y38593110D01*
X55275000Y38664250D01*
X55116250Y38823000D01*
X53917000Y38823000D01*
X53663000Y38823000D01*
X53643000Y38823000D01*
X53643000Y39077000D01*
X53663000Y39077000D01*
X53663000Y40276250D01*
X53917000Y40276250D01*
X53917000Y39077000D01*
X55116250Y39077000D01*
X55275000Y39235750D01*
X55275387Y39306890D01*
X61008524Y39306890D01*
X61129845Y39077000D01*
X62323000Y39077000D01*
X62323000Y39097000D01*
X62577000Y39097000D01*
X62577000Y39077000D01*
X63770155Y39077000D01*
X63891476Y39306890D01*
X63846825Y39454099D01*
X63721641Y39716920D01*
X63547588Y39950269D01*
X63331355Y40145178D01*
X63081252Y40294157D01*
X62842115Y40378986D01*
X62902597Y40397333D01*
X63107070Y40506626D01*
X63286291Y40653709D01*
X63433374Y40832930D01*
X63542667Y41037403D01*
X63609969Y41259268D01*
X63632694Y41490000D01*
X63609969Y41720732D01*
X63542667Y41942597D01*
X63433374Y42147070D01*
X63286291Y42326291D01*
X63107070Y42473374D01*
X62902597Y42582667D01*
X62680732Y42649969D01*
X62507812Y42667000D01*
X62392188Y42667000D01*
X62219268Y42649969D01*
X61997403Y42582667D01*
X61792930Y42473374D01*
X61613709Y42326291D01*
X61466626Y42147070D01*
X61357333Y41942597D01*
X61290031Y41720732D01*
X61267306Y41490000D01*
X61290031Y41259268D01*
X61357333Y41037403D01*
X61466626Y40832930D01*
X61613709Y40653709D01*
X61792930Y40506626D01*
X61997403Y40397333D01*
X62057885Y40378986D01*
X61818748Y40294157D01*
X61568645Y40145178D01*
X61352412Y39950269D01*
X61178359Y39716920D01*
X61053175Y39454099D01*
X61008524Y39306890D01*
X55275387Y39306890D01*
X55278072Y39800000D01*
X55265812Y39924482D01*
X55229502Y40044180D01*
X55170537Y40154494D01*
X55091185Y40251185D01*
X54994494Y40330537D01*
X54884180Y40389502D01*
X54764482Y40425812D01*
X54640000Y40438072D01*
X54075750Y40435000D01*
X53917000Y40276250D01*
X53663000Y40276250D01*
X53504250Y40435000D01*
X52940000Y40438072D01*
X52815518Y40425812D01*
X52695820Y40389502D01*
X52585506Y40330537D01*
X52488815Y40251185D01*
X52409463Y40154494D01*
X52350498Y40044180D01*
X52314188Y39924482D01*
X52301928Y39800000D01*
X52303695Y39475509D01*
X52233374Y39607070D01*
X52086291Y39786291D01*
X51907070Y39933374D01*
X51702597Y40042667D01*
X51480732Y40109969D01*
X51307812Y40127000D01*
X51192188Y40127000D01*
X51019268Y40109969D01*
X50797403Y40042667D01*
X50592930Y39933374D01*
X50413709Y39786291D01*
X50266626Y39607070D01*
X50157333Y39402597D01*
X50090031Y39180732D01*
X50067306Y38950000D01*
X49892694Y38950000D01*
X49869969Y39180732D01*
X49802667Y39402597D01*
X49693374Y39607070D01*
X49546291Y39786291D01*
X49367070Y39933374D01*
X49162597Y40042667D01*
X48940732Y40109969D01*
X48767812Y40127000D01*
X48652188Y40127000D01*
X48479268Y40109969D01*
X48257403Y40042667D01*
X48235286Y40030845D01*
X47227955Y41038176D01*
X47214532Y41054532D01*
X47149269Y41108092D01*
X47074811Y41147890D01*
X46994020Y41172398D01*
X46931048Y41178600D01*
X46910000Y41180673D01*
X46888952Y41178600D01*
X37383532Y41178600D01*
X33850378Y44711754D01*
X39343000Y44711754D01*
X39343000Y44588246D01*
X39367095Y44467111D01*
X39414360Y44353004D01*
X39482977Y44250311D01*
X39542798Y44190490D01*
X39547602Y44141716D01*
X39572111Y44060925D01*
X39611909Y43986467D01*
X39665469Y43921204D01*
X39681819Y43907786D01*
X40227785Y43361819D01*
X40241204Y43345468D01*
X40306467Y43291908D01*
X40380925Y43252110D01*
X40437207Y43235037D01*
X40461715Y43227602D01*
X40545736Y43219327D01*
X40566784Y43221400D01*
X49648952Y43221400D01*
X49670000Y43219327D01*
X49691048Y43221400D01*
X49754020Y43227602D01*
X49834811Y43252110D01*
X49909269Y43291908D01*
X49974532Y43345468D01*
X49987955Y43361824D01*
X51538182Y44912050D01*
X51554532Y44925468D01*
X51608092Y44990731D01*
X51647890Y45065189D01*
X51672398Y45145980D01*
X51678600Y45208952D01*
X51678600Y45208961D01*
X51680672Y45229999D01*
X51678600Y45251037D01*
X51678600Y45470054D01*
X51702597Y45477333D01*
X51907070Y45586626D01*
X52086291Y45733709D01*
X52233374Y45912930D01*
X52342667Y46117403D01*
X52361014Y46177885D01*
X52445843Y45938748D01*
X52594822Y45688645D01*
X52789731Y45472412D01*
X53023080Y45298359D01*
X53285901Y45173175D01*
X53433110Y45128524D01*
X53663000Y45249845D01*
X53663000Y46443000D01*
X53917000Y46443000D01*
X53917000Y45249845D01*
X54146890Y45128524D01*
X54294099Y45173175D01*
X54556920Y45298359D01*
X54790269Y45472412D01*
X54985178Y45688645D01*
X55134157Y45938748D01*
X55231481Y46213109D01*
X55110814Y46443000D01*
X53917000Y46443000D01*
X53663000Y46443000D01*
X53643000Y46443000D01*
X53643000Y46697000D01*
X53663000Y46697000D01*
X53663000Y47890155D01*
X53917000Y47890155D01*
X53917000Y46697000D01*
X55110814Y46697000D01*
X55231481Y46926891D01*
X55134157Y47201252D01*
X54985178Y47451355D01*
X54790269Y47667588D01*
X54556920Y47841641D01*
X54294099Y47966825D01*
X54146890Y48011476D01*
X53917000Y47890155D01*
X53663000Y47890155D01*
X53433110Y48011476D01*
X53285901Y47966825D01*
X53023080Y47841641D01*
X52789731Y47667588D01*
X52594822Y47451355D01*
X52445843Y47201252D01*
X52361014Y46962115D01*
X52342667Y47022597D01*
X52233374Y47227070D01*
X52086291Y47406291D01*
X51907070Y47553374D01*
X51702597Y47662667D01*
X51480732Y47729969D01*
X51307812Y47747000D01*
X51192188Y47747000D01*
X51019268Y47729969D01*
X50797403Y47662667D01*
X50592930Y47553374D01*
X50413709Y47406291D01*
X50266626Y47227070D01*
X50157333Y47022597D01*
X50090031Y46800732D01*
X50067306Y46570000D01*
X50090031Y46339268D01*
X50157333Y46117403D01*
X50266626Y45912930D01*
X50413709Y45733709D01*
X50592930Y45586626D01*
X50797403Y45477333D01*
X50821400Y45470054D01*
X50821400Y45407532D01*
X49492469Y44078600D01*
X40723268Y44078600D01*
X40494888Y44306980D01*
X40525640Y44353004D01*
X40572905Y44467111D01*
X40597000Y44588246D01*
X40597000Y44711754D01*
X40572905Y44832889D01*
X40525640Y44946996D01*
X40457023Y45049689D01*
X40369689Y45137023D01*
X40266996Y45205640D01*
X40152889Y45252905D01*
X40031754Y45277000D01*
X39908246Y45277000D01*
X39787111Y45252905D01*
X39673004Y45205640D01*
X39570311Y45137023D01*
X39482977Y45049689D01*
X39414360Y44946996D01*
X39367095Y44832889D01*
X39343000Y44711754D01*
X33850378Y44711754D01*
X31720992Y46841139D01*
X31783901Y46811175D01*
X31931110Y46766524D01*
X32161000Y46887845D01*
X32161000Y48081000D01*
X32141000Y48081000D01*
X32141000Y48335000D01*
X32161000Y48335000D01*
X32161000Y49528155D01*
X32415000Y49528155D01*
X32415000Y48335000D01*
X32435000Y48335000D01*
X32435000Y48081000D01*
X32415000Y48081000D01*
X32415000Y46887845D01*
X32644890Y46766524D01*
X32792099Y46811175D01*
X33054920Y46936359D01*
X33288269Y47110412D01*
X33483178Y47326645D01*
X33632157Y47576748D01*
X33716986Y47815885D01*
X33735333Y47755403D01*
X33844626Y47550930D01*
X33991709Y47371709D01*
X34170930Y47224626D01*
X34375403Y47115333D01*
X34597268Y47048031D01*
X34770188Y47031000D01*
X34885812Y47031000D01*
X35058732Y47048031D01*
X35280597Y47115333D01*
X35485070Y47224626D01*
X35664291Y47371709D01*
X35811374Y47550930D01*
X35920667Y47755403D01*
X35987969Y47977268D01*
X36010694Y48208000D01*
X35987969Y48438732D01*
X35920667Y48660597D01*
X35811374Y48865070D01*
X35664291Y49044291D01*
X35647587Y49058000D01*
X36189418Y49058000D01*
X36189418Y47358000D01*
X36195732Y47293897D01*
X36214430Y47232257D01*
X36244794Y47175450D01*
X36285657Y47125657D01*
X36335450Y47084794D01*
X36392257Y47054430D01*
X36453897Y47035732D01*
X36518000Y47029418D01*
X38218000Y47029418D01*
X38282103Y47035732D01*
X38343743Y47054430D01*
X38400550Y47084794D01*
X38450343Y47125657D01*
X38491206Y47175450D01*
X38521570Y47232257D01*
X38540268Y47293897D01*
X38546582Y47358000D01*
X38546582Y47420000D01*
X47531418Y47420000D01*
X47531418Y45720000D01*
X47537732Y45655897D01*
X47556430Y45594257D01*
X47586794Y45537450D01*
X47627657Y45487657D01*
X47677450Y45446794D01*
X47734257Y45416430D01*
X47795897Y45397732D01*
X47860000Y45391418D01*
X49560000Y45391418D01*
X49624103Y45397732D01*
X49685743Y45416430D01*
X49742550Y45446794D01*
X49792343Y45487657D01*
X49833206Y45537450D01*
X49863570Y45594257D01*
X49882268Y45655897D01*
X49888582Y45720000D01*
X49888582Y47420000D01*
X49882268Y47484103D01*
X49863570Y47545743D01*
X49833206Y47602550D01*
X49792343Y47652343D01*
X49742550Y47693206D01*
X49685743Y47723570D01*
X49624103Y47742268D01*
X49560000Y47748582D01*
X47860000Y47748582D01*
X47795897Y47742268D01*
X47734257Y47723570D01*
X47677450Y47693206D01*
X47627657Y47652343D01*
X47586794Y47602550D01*
X47556430Y47545743D01*
X47537732Y47484103D01*
X47531418Y47420000D01*
X38546582Y47420000D01*
X38546582Y49058000D01*
X38540268Y49122103D01*
X38521570Y49183743D01*
X38491206Y49240550D01*
X38450343Y49290343D01*
X38400550Y49331206D01*
X38343743Y49361570D01*
X38282103Y49380268D01*
X38218000Y49386582D01*
X36518000Y49386582D01*
X36453897Y49380268D01*
X36392257Y49361570D01*
X36335450Y49331206D01*
X36285657Y49290343D01*
X36244794Y49240550D01*
X36214430Y49183743D01*
X36195732Y49122103D01*
X36189418Y49058000D01*
X35647587Y49058000D01*
X35485070Y49191374D01*
X35280597Y49300667D01*
X35058732Y49367969D01*
X34885812Y49385000D01*
X34770188Y49385000D01*
X34597268Y49367969D01*
X34375403Y49300667D01*
X34170930Y49191374D01*
X33991709Y49044291D01*
X33844626Y48865070D01*
X33735333Y48660597D01*
X33716986Y48600115D01*
X33632157Y48839252D01*
X33483178Y49089355D01*
X33288269Y49305588D01*
X33054920Y49479641D01*
X32792099Y49604825D01*
X32644890Y49649476D01*
X32415000Y49528155D01*
X32161000Y49528155D01*
X31931110Y49649476D01*
X31783901Y49604825D01*
X31521080Y49479641D01*
X31287731Y49305588D01*
X31092822Y49089355D01*
X30943843Y48839252D01*
X30859014Y48600115D01*
X30840667Y48660597D01*
X30731374Y48865070D01*
X30584291Y49044291D01*
X30405070Y49191374D01*
X30200597Y49300667D01*
X29978732Y49367969D01*
X29805812Y49385000D01*
X29690188Y49385000D01*
X29517268Y49367969D01*
X29295403Y49300667D01*
X29090930Y49191374D01*
X28911709Y49044291D01*
X28764626Y48865070D01*
X28655333Y48660597D01*
X28588031Y48438732D01*
X28565306Y48208000D01*
X28390694Y48208000D01*
X28367969Y48438732D01*
X28300667Y48660597D01*
X28191374Y48865070D01*
X28044291Y49044291D01*
X27865070Y49191374D01*
X27660597Y49300667D01*
X27438732Y49367969D01*
X27265812Y49385000D01*
X27150188Y49385000D01*
X26977268Y49367969D01*
X26755403Y49300667D01*
X26550930Y49191374D01*
X26371709Y49044291D01*
X26224626Y48865070D01*
X26115333Y48660597D01*
X26048031Y48438732D01*
X26025306Y48208000D01*
X25850694Y48208000D01*
X25827969Y48438732D01*
X25760667Y48660597D01*
X25651374Y48865070D01*
X25504291Y49044291D01*
X25325070Y49191374D01*
X25120597Y49300667D01*
X24898732Y49367969D01*
X24725812Y49385000D01*
X24610188Y49385000D01*
X24437268Y49367969D01*
X24215403Y49300667D01*
X24010930Y49191374D01*
X23831709Y49044291D01*
X23684626Y48865070D01*
X23575333Y48660597D01*
X23508031Y48438732D01*
X23485306Y48208000D01*
X23310694Y48208000D01*
X23287969Y48438732D01*
X23220667Y48660597D01*
X23111374Y48865070D01*
X22964291Y49044291D01*
X22785070Y49191374D01*
X22580597Y49300667D01*
X22358732Y49367969D01*
X22185812Y49385000D01*
X22070188Y49385000D01*
X21897268Y49367969D01*
X21675403Y49300667D01*
X21470930Y49191374D01*
X21291709Y49044291D01*
X21144626Y48865070D01*
X21035333Y48660597D01*
X20968031Y48438732D01*
X20945306Y48208000D01*
X20770694Y48208000D01*
X20747969Y48438732D01*
X20680667Y48660597D01*
X20571374Y48865070D01*
X20424291Y49044291D01*
X20245070Y49191374D01*
X20040597Y49300667D01*
X19818732Y49367969D01*
X19645812Y49385000D01*
X19530188Y49385000D01*
X19357268Y49367969D01*
X19135403Y49300667D01*
X18930930Y49191374D01*
X18751709Y49044291D01*
X18604626Y48865070D01*
X18495333Y48660597D01*
X18428031Y48438732D01*
X18405306Y48208000D01*
X16218131Y48208000D01*
X15697000Y48729131D01*
X15697000Y48811754D01*
X15672905Y48932889D01*
X15625640Y49046996D01*
X15557023Y49149689D01*
X15469689Y49237023D01*
X15366996Y49305640D01*
X15252889Y49352905D01*
X15131754Y49377000D01*
X15047154Y49377000D01*
X15009270Y49408091D01*
X14934812Y49447889D01*
X14854021Y49472397D01*
X14791049Y49478599D01*
X14770001Y49480672D01*
X14748953Y49478599D01*
X13921533Y49478599D01*
X12257948Y51142184D01*
X12170845Y51229286D01*
X12182667Y51251403D01*
X12249969Y51473268D01*
X12272694Y51704000D01*
X12249969Y51934732D01*
X12182667Y52156597D01*
X12073374Y52361070D01*
X11926291Y52540291D01*
X11747070Y52687374D01*
X11542597Y52796667D01*
X11320732Y52863969D01*
X11147812Y52881000D01*
X11032188Y52881000D01*
X10859268Y52863969D01*
X10637403Y52796667D01*
X10432930Y52687374D01*
X10253709Y52540291D01*
X10106626Y52361070D01*
X9997333Y52156597D01*
X9930031Y51934732D01*
X9907306Y51704000D01*
X9728582Y51704000D01*
X9728582Y52554000D01*
X9722268Y52618103D01*
X9703570Y52679743D01*
X9673206Y52736550D01*
X9632343Y52786343D01*
X9582550Y52827206D01*
X9525743Y52857570D01*
X9464103Y52876268D01*
X9400000Y52882582D01*
X8004583Y52882582D01*
X8232387Y53110386D01*
X8319268Y53084031D01*
X8492188Y53067000D01*
X8607812Y53067000D01*
X8780732Y53084031D01*
X9002597Y53151333D01*
X9207070Y53260626D01*
X9386291Y53407709D01*
X9533374Y53586930D01*
X9642667Y53791403D01*
X9709969Y54013268D01*
X9732694Y54244000D01*
X9907306Y54244000D01*
X9930031Y54013268D01*
X9997333Y53791403D01*
X10106626Y53586930D01*
X10253709Y53407709D01*
X10432930Y53260626D01*
X10637403Y53151333D01*
X10859268Y53084031D01*
X11032188Y53067000D01*
X11147812Y53067000D01*
X11320732Y53084031D01*
X11542597Y53151333D01*
X11747070Y53260626D01*
X11926291Y53407709D01*
X12073374Y53586930D01*
X12182667Y53791403D01*
X12201014Y53851885D01*
X12285843Y53612748D01*
X12434822Y53362645D01*
X12629731Y53146412D01*
X12863080Y52972359D01*
X13125901Y52847175D01*
X13234909Y52814111D01*
X13177403Y52796667D01*
X12972930Y52687374D01*
X12793709Y52540291D01*
X12646626Y52361070D01*
X12537333Y52156597D01*
X12470031Y51934732D01*
X12447306Y51704000D01*
X12470031Y51473268D01*
X12537333Y51251403D01*
X12646626Y51046930D01*
X12793709Y50867709D01*
X12972930Y50720626D01*
X13177403Y50611333D01*
X13399268Y50544031D01*
X13572188Y50527000D01*
X13687812Y50527000D01*
X13860732Y50544031D01*
X14082597Y50611333D01*
X14287070Y50720626D01*
X14466291Y50867709D01*
X14613374Y51046930D01*
X14722667Y51251403D01*
X14789969Y51473268D01*
X14812694Y51704000D01*
X14987306Y51704000D01*
X15010031Y51473268D01*
X15077333Y51251403D01*
X15186626Y51046930D01*
X15333709Y50867709D01*
X15512930Y50720626D01*
X15717403Y50611333D01*
X15939268Y50544031D01*
X16112188Y50527000D01*
X16227812Y50527000D01*
X16400732Y50544031D01*
X16622597Y50611333D01*
X16827070Y50720626D01*
X17006291Y50867709D01*
X17153374Y51046930D01*
X17262667Y51251403D01*
X17281014Y51311885D01*
X17365843Y51072748D01*
X17514822Y50822645D01*
X17709731Y50606412D01*
X17943080Y50432359D01*
X18205901Y50307175D01*
X18353110Y50262524D01*
X18583000Y50383845D01*
X18583000Y51577000D01*
X18563000Y51577000D01*
X18563000Y51831000D01*
X18583000Y51831000D01*
X18583000Y51851000D01*
X18837000Y51851000D01*
X18837000Y51831000D01*
X18857000Y51831000D01*
X18857000Y51577000D01*
X18837000Y51577000D01*
X18837000Y50383845D01*
X19066890Y50262524D01*
X19214099Y50307175D01*
X19476920Y50432359D01*
X19710269Y50606412D01*
X19905178Y50822645D01*
X20054157Y51072748D01*
X20138986Y51311885D01*
X20157333Y51251403D01*
X20266626Y51046930D01*
X20413709Y50867709D01*
X20592930Y50720626D01*
X20797403Y50611333D01*
X21019268Y50544031D01*
X21192188Y50527000D01*
X21307812Y50527000D01*
X21480732Y50544031D01*
X21702597Y50611333D01*
X21907070Y50720626D01*
X22086291Y50867709D01*
X22233374Y51046930D01*
X22342667Y51251403D01*
X22409969Y51473268D01*
X22432694Y51704000D01*
X22409969Y51934732D01*
X22342667Y52156597D01*
X22233374Y52361070D01*
X22086291Y52540291D01*
X21907070Y52687374D01*
X21702597Y52796667D01*
X21480732Y52863969D01*
X21307812Y52881000D01*
X21192188Y52881000D01*
X21019268Y52863969D01*
X20797403Y52796667D01*
X20592930Y52687374D01*
X20413709Y52540291D01*
X20266626Y52361070D01*
X20157333Y52156597D01*
X20138986Y52096115D01*
X20054157Y52335252D01*
X19905178Y52585355D01*
X19710269Y52801588D01*
X19476920Y52975641D01*
X19214099Y53100825D01*
X19105091Y53133889D01*
X19162597Y53151333D01*
X19367070Y53260626D01*
X19546291Y53407709D01*
X19693374Y53586930D01*
X19802667Y53791403D01*
X19869969Y54013268D01*
X19892694Y54244000D01*
X20067306Y54244000D01*
X20090031Y54013268D01*
X20157333Y53791403D01*
X20266626Y53586930D01*
X20413709Y53407709D01*
X20592930Y53260626D01*
X20797403Y53151333D01*
X21019268Y53084031D01*
X21192188Y53067000D01*
X21307812Y53067000D01*
X21480732Y53084031D01*
X21702597Y53151333D01*
X21907070Y53260626D01*
X22086291Y53407709D01*
X22233374Y53586930D01*
X22342667Y53791403D01*
X22361014Y53851885D01*
X22445843Y53612748D01*
X22594822Y53362645D01*
X22789731Y53146412D01*
X23023080Y52972359D01*
X23285901Y52847175D01*
X23394909Y52814111D01*
X23337403Y52796667D01*
X23132930Y52687374D01*
X22953709Y52540291D01*
X22806626Y52361070D01*
X22697333Y52156597D01*
X22630031Y51934732D01*
X22607306Y51704000D01*
X22630031Y51473268D01*
X22697333Y51251403D01*
X22806626Y51046930D01*
X22953709Y50867709D01*
X23132930Y50720626D01*
X23337403Y50611333D01*
X23559268Y50544031D01*
X23732188Y50527000D01*
X23847812Y50527000D01*
X24020732Y50544031D01*
X24242597Y50611333D01*
X24447070Y50720626D01*
X24626291Y50867709D01*
X24773374Y51046930D01*
X24882667Y51251403D01*
X24949969Y51473268D01*
X24972694Y51704000D01*
X25147306Y51704000D01*
X25170031Y51473268D01*
X25237333Y51251403D01*
X25346626Y51046930D01*
X25493709Y50867709D01*
X25672930Y50720626D01*
X25877403Y50611333D01*
X26099268Y50544031D01*
X26272188Y50527000D01*
X26387812Y50527000D01*
X26560732Y50544031D01*
X26782597Y50611333D01*
X26987070Y50720626D01*
X27166291Y50867709D01*
X27313374Y51046930D01*
X27422667Y51251403D01*
X27489969Y51473268D01*
X27512694Y51704000D01*
X27687306Y51704000D01*
X27710031Y51473268D01*
X27777333Y51251403D01*
X27886626Y51046930D01*
X28033709Y50867709D01*
X28212930Y50720626D01*
X28417403Y50611333D01*
X28639268Y50544031D01*
X28812188Y50527000D01*
X28927812Y50527000D01*
X29100732Y50544031D01*
X29322597Y50611333D01*
X29527070Y50720626D01*
X29706291Y50867709D01*
X29853374Y51046930D01*
X29962667Y51251403D01*
X30029969Y51473268D01*
X30052694Y51704000D01*
X30029969Y51934732D01*
X29962667Y52156597D01*
X29853374Y52361070D01*
X29706291Y52540291D01*
X29527070Y52687374D01*
X29322597Y52796667D01*
X29100732Y52863969D01*
X28927812Y52881000D01*
X28812188Y52881000D01*
X28639268Y52863969D01*
X28417403Y52796667D01*
X28212930Y52687374D01*
X28033709Y52540291D01*
X27886626Y52361070D01*
X27777333Y52156597D01*
X27710031Y51934732D01*
X27687306Y51704000D01*
X27512694Y51704000D01*
X27489969Y51934732D01*
X27422667Y52156597D01*
X27313374Y52361070D01*
X27166291Y52540291D01*
X26987070Y52687374D01*
X26782597Y52796667D01*
X26560732Y52863969D01*
X26387812Y52881000D01*
X26272188Y52881000D01*
X26099268Y52863969D01*
X25877403Y52796667D01*
X25672930Y52687374D01*
X25493709Y52540291D01*
X25346626Y52361070D01*
X25237333Y52156597D01*
X25170031Y51934732D01*
X25147306Y51704000D01*
X24972694Y51704000D01*
X24949969Y51934732D01*
X24882667Y52156597D01*
X24773374Y52361070D01*
X24626291Y52540291D01*
X24447070Y52687374D01*
X24242597Y52796667D01*
X24185091Y52814111D01*
X24294099Y52847175D01*
X24556920Y52972359D01*
X24790269Y53146412D01*
X24985178Y53362645D01*
X25134157Y53612748D01*
X25218986Y53851885D01*
X25237333Y53791403D01*
X25346626Y53586930D01*
X25493709Y53407709D01*
X25672930Y53260626D01*
X25877403Y53151333D01*
X26099268Y53084031D01*
X26272188Y53067000D01*
X26387812Y53067000D01*
X26560732Y53084031D01*
X26782597Y53151333D01*
X26987070Y53260626D01*
X27166291Y53407709D01*
X27313374Y53586930D01*
X27422667Y53791403D01*
X27489969Y54013268D01*
X27512694Y54244000D01*
X27687306Y54244000D01*
X27710031Y54013268D01*
X27777333Y53791403D01*
X27886626Y53586930D01*
X28033709Y53407709D01*
X28212930Y53260626D01*
X28417403Y53151333D01*
X28639268Y53084031D01*
X28812188Y53067000D01*
X28927812Y53067000D01*
X29100732Y53084031D01*
X29322597Y53151333D01*
X29527070Y53260626D01*
X29706291Y53407709D01*
X29853374Y53586930D01*
X29962667Y53791403D01*
X29981014Y53851885D01*
X30065843Y53612748D01*
X30214822Y53362645D01*
X30409731Y53146412D01*
X30643080Y52972359D01*
X30905901Y52847175D01*
X31014909Y52814111D01*
X30957403Y52796667D01*
X30752930Y52687374D01*
X30573709Y52540291D01*
X30426626Y52361070D01*
X30317333Y52156597D01*
X30250031Y51934732D01*
X30227306Y51704000D01*
X30250031Y51473268D01*
X30317333Y51251403D01*
X30426626Y51046930D01*
X30573709Y50867709D01*
X30752930Y50720626D01*
X30957403Y50611333D01*
X31179268Y50544031D01*
X31352188Y50527000D01*
X31467812Y50527000D01*
X31640732Y50544031D01*
X31862597Y50611333D01*
X32067070Y50720626D01*
X32246291Y50867709D01*
X32393374Y51046930D01*
X32502667Y51251403D01*
X32569969Y51473268D01*
X32592694Y51704000D01*
X32767306Y51704000D01*
X32790031Y51473268D01*
X32857333Y51251403D01*
X32966626Y51046930D01*
X33113709Y50867709D01*
X33292930Y50720626D01*
X33497403Y50611333D01*
X33719268Y50544031D01*
X33892188Y50527000D01*
X34007812Y50527000D01*
X34180732Y50544031D01*
X34402597Y50611333D01*
X34607070Y50720626D01*
X34786291Y50867709D01*
X34933374Y51046930D01*
X35042667Y51251403D01*
X35109969Y51473268D01*
X35132694Y51704000D01*
X35307306Y51704000D01*
X35330031Y51473268D01*
X35397333Y51251403D01*
X35506626Y51046930D01*
X35653709Y50867709D01*
X35832930Y50720626D01*
X36037403Y50611333D01*
X36259268Y50544031D01*
X36432188Y50527000D01*
X36547812Y50527000D01*
X36720732Y50544031D01*
X36942597Y50611333D01*
X37147070Y50720626D01*
X37326291Y50867709D01*
X37473374Y51046930D01*
X37582667Y51251403D01*
X37601014Y51311885D01*
X37685843Y51072748D01*
X37834822Y50822645D01*
X38029731Y50606412D01*
X38263080Y50432359D01*
X38525901Y50307175D01*
X38673110Y50262524D01*
X38903000Y50383845D01*
X38903000Y51577000D01*
X38883000Y51577000D01*
X38883000Y51831000D01*
X38903000Y51831000D01*
X38903000Y51851000D01*
X39157000Y51851000D01*
X39157000Y51831000D01*
X39177000Y51831000D01*
X39177000Y51577000D01*
X39157000Y51577000D01*
X39157000Y50383845D01*
X39386890Y50262524D01*
X39534099Y50307175D01*
X39796920Y50432359D01*
X40030269Y50606412D01*
X40225178Y50822645D01*
X40374157Y51072748D01*
X40458986Y51311885D01*
X40477333Y51251403D01*
X40586626Y51046930D01*
X40733709Y50867709D01*
X40912930Y50720626D01*
X41117403Y50611333D01*
X41339268Y50544031D01*
X41512188Y50527000D01*
X41627812Y50527000D01*
X41800732Y50544031D01*
X42022597Y50611333D01*
X42227070Y50720626D01*
X42406291Y50867709D01*
X42553374Y51046930D01*
X42662667Y51251403D01*
X42729969Y51473268D01*
X42752694Y51704000D01*
X42729969Y51934732D01*
X42662667Y52156597D01*
X42553374Y52361070D01*
X42406291Y52540291D01*
X42227070Y52687374D01*
X42022597Y52796667D01*
X41800732Y52863969D01*
X41627812Y52881000D01*
X41512188Y52881000D01*
X41339268Y52863969D01*
X41117403Y52796667D01*
X40912930Y52687374D01*
X40733709Y52540291D01*
X40586626Y52361070D01*
X40477333Y52156597D01*
X40458986Y52096115D01*
X40374157Y52335252D01*
X40225178Y52585355D01*
X40030269Y52801588D01*
X39796920Y52975641D01*
X39534099Y53100825D01*
X39425091Y53133889D01*
X39482597Y53151333D01*
X39687070Y53260626D01*
X39866291Y53407709D01*
X40013374Y53586930D01*
X40122667Y53791403D01*
X40189969Y54013268D01*
X40212694Y54244000D01*
X40387306Y54244000D01*
X40410031Y54013268D01*
X40477333Y53791403D01*
X40586626Y53586930D01*
X40733709Y53407709D01*
X40912930Y53260626D01*
X41117403Y53151333D01*
X41339268Y53084031D01*
X41512188Y53067000D01*
X41627812Y53067000D01*
X41800732Y53084031D01*
X42022597Y53151333D01*
X42227070Y53260626D01*
X42406291Y53407709D01*
X42553374Y53586930D01*
X42662667Y53791403D01*
X42681014Y53851885D01*
X42765843Y53612748D01*
X42914822Y53362645D01*
X43109731Y53146412D01*
X43343080Y52972359D01*
X43605901Y52847175D01*
X43714909Y52814111D01*
X43657403Y52796667D01*
X43452930Y52687374D01*
X43273709Y52540291D01*
X43126626Y52361070D01*
X43017333Y52156597D01*
X42950031Y51934732D01*
X42927306Y51704000D01*
X42950031Y51473268D01*
X43017333Y51251403D01*
X43126626Y51046930D01*
X43273709Y50867709D01*
X43452930Y50720626D01*
X43657403Y50611333D01*
X43879268Y50544031D01*
X44052188Y50527000D01*
X44167812Y50527000D01*
X44340732Y50544031D01*
X44562597Y50611333D01*
X44767070Y50720626D01*
X44946291Y50867709D01*
X45093374Y51046930D01*
X45202667Y51251403D01*
X45269969Y51473268D01*
X45292694Y51704000D01*
X45467306Y51704000D01*
X45490031Y51473268D01*
X45557333Y51251403D01*
X45666626Y51046930D01*
X45813709Y50867709D01*
X45992930Y50720626D01*
X46197403Y50611333D01*
X46419268Y50544031D01*
X46592188Y50527000D01*
X46707812Y50527000D01*
X46880732Y50544031D01*
X47102597Y50611333D01*
X47307070Y50720626D01*
X47486291Y50867709D01*
X47633374Y51046930D01*
X47742667Y51251403D01*
X47809969Y51473268D01*
X47832694Y51704000D01*
X47809969Y51934732D01*
X47742667Y52156597D01*
X47633374Y52361070D01*
X47486291Y52540291D01*
X47307070Y52687374D01*
X47102597Y52796667D01*
X46880732Y52863969D01*
X46707812Y52881000D01*
X46592188Y52881000D01*
X46419268Y52863969D01*
X46197403Y52796667D01*
X45992930Y52687374D01*
X45813709Y52540291D01*
X45666626Y52361070D01*
X45557333Y52156597D01*
X45490031Y51934732D01*
X45467306Y51704000D01*
X45292694Y51704000D01*
X45269969Y51934732D01*
X45202667Y52156597D01*
X45093374Y52361070D01*
X44946291Y52540291D01*
X44767070Y52687374D01*
X44562597Y52796667D01*
X44505091Y52814111D01*
X44614099Y52847175D01*
X44876920Y52972359D01*
X45110269Y53146412D01*
X45305178Y53362645D01*
X45454157Y53612748D01*
X45538986Y53851885D01*
X45557333Y53791403D01*
X45666626Y53586930D01*
X45813709Y53407709D01*
X45992930Y53260626D01*
X46197403Y53151333D01*
X46419268Y53084031D01*
X46592188Y53067000D01*
X46707812Y53067000D01*
X46880732Y53084031D01*
X47102597Y53151333D01*
X47307070Y53260626D01*
X47486291Y53407709D01*
X47633374Y53586930D01*
X47742667Y53791403D01*
X47761014Y53851885D01*
X47845843Y53612748D01*
X47994822Y53362645D01*
X48189731Y53146412D01*
X48423080Y52972359D01*
X48685901Y52847175D01*
X48794909Y52814111D01*
X48737403Y52796667D01*
X48532930Y52687374D01*
X48353709Y52540291D01*
X48206626Y52361070D01*
X48097333Y52156597D01*
X48030031Y51934732D01*
X48007306Y51704000D01*
X48030031Y51473268D01*
X48097333Y51251403D01*
X48206626Y51046930D01*
X48353709Y50867709D01*
X48532930Y50720626D01*
X48737403Y50611333D01*
X48959268Y50544031D01*
X49132188Y50527000D01*
X49247812Y50527000D01*
X49420732Y50544031D01*
X49642597Y50611333D01*
X49847070Y50720626D01*
X50026291Y50867709D01*
X50173374Y51046930D01*
X50282667Y51251403D01*
X50349969Y51473268D01*
X50372694Y51704000D01*
X50547306Y51704000D01*
X50570031Y51473268D01*
X50637333Y51251403D01*
X50746626Y51046930D01*
X50893709Y50867709D01*
X51072930Y50720626D01*
X51277403Y50611333D01*
X51499268Y50544031D01*
X51672188Y50527000D01*
X51787812Y50527000D01*
X51960732Y50544031D01*
X52182597Y50611333D01*
X52387070Y50720626D01*
X52566291Y50867709D01*
X52713374Y51046930D01*
X52822667Y51251403D01*
X52889969Y51473268D01*
X52912694Y51704000D01*
X53087306Y51704000D01*
X53110031Y51473268D01*
X53177333Y51251403D01*
X53286626Y51046930D01*
X53433709Y50867709D01*
X53612930Y50720626D01*
X53817403Y50611333D01*
X54039268Y50544031D01*
X54212188Y50527000D01*
X54327812Y50527000D01*
X54500732Y50544031D01*
X54722597Y50611333D01*
X54744714Y50623155D01*
X61273633Y44094235D01*
X61267306Y44030000D01*
X61290031Y43799268D01*
X61357333Y43577403D01*
X61466626Y43372930D01*
X61613709Y43193709D01*
X61792930Y43046626D01*
X61997403Y42937333D01*
X62219268Y42870031D01*
X62392188Y42853000D01*
X62507812Y42853000D01*
X62680732Y42870031D01*
X62902597Y42937333D01*
X63107070Y43046626D01*
X63286291Y43193709D01*
X63433374Y43372930D01*
X63542667Y43577403D01*
X63609969Y43799268D01*
X63632694Y44030000D01*
X63609969Y44260732D01*
X63542667Y44482597D01*
X63433374Y44687070D01*
X63286291Y44866291D01*
X63107070Y45013374D01*
X62902597Y45122667D01*
X62680732Y45189969D01*
X62507812Y45207000D01*
X62392188Y45207000D01*
X62219268Y45189969D01*
X61997403Y45122667D01*
X61792930Y45013374D01*
X61668706Y44911426D01*
X59160132Y47420000D01*
X61271418Y47420000D01*
X61271418Y45720000D01*
X61277732Y45655897D01*
X61296430Y45594257D01*
X61326794Y45537450D01*
X61367657Y45487657D01*
X61417450Y45446794D01*
X61474257Y45416430D01*
X61535897Y45397732D01*
X61600000Y45391418D01*
X63300000Y45391418D01*
X63364103Y45397732D01*
X63425743Y45416430D01*
X63482550Y45446794D01*
X63532343Y45487657D01*
X63573206Y45537450D01*
X63603570Y45594257D01*
X63622268Y45655897D01*
X63628582Y45720000D01*
X63628582Y47420000D01*
X63622268Y47484103D01*
X63603570Y47545743D01*
X63573206Y47602550D01*
X63532343Y47652343D01*
X63482550Y47693206D01*
X63425743Y47723570D01*
X63364103Y47742268D01*
X63300000Y47748582D01*
X61600000Y47748582D01*
X61535897Y47742268D01*
X61474257Y47723570D01*
X61417450Y47693206D01*
X61367657Y47652343D01*
X61326794Y47602550D01*
X61296430Y47545743D01*
X61277732Y47484103D01*
X61271418Y47420000D01*
X59160132Y47420000D01*
X56242992Y50337139D01*
X56305901Y50307175D01*
X56453110Y50262524D01*
X56683000Y50383845D01*
X56683000Y51577000D01*
X56937000Y51577000D01*
X56937000Y50383845D01*
X57166890Y50262524D01*
X57314099Y50307175D01*
X57576920Y50432359D01*
X57810269Y50606412D01*
X58005178Y50822645D01*
X58154157Y51072748D01*
X58251481Y51347109D01*
X58130814Y51577000D01*
X56937000Y51577000D01*
X56683000Y51577000D01*
X56663000Y51577000D01*
X56663000Y51831000D01*
X56683000Y51831000D01*
X56683000Y51851000D01*
X56937000Y51851000D01*
X56937000Y51831000D01*
X58130814Y51831000D01*
X58251481Y52060891D01*
X58154157Y52335252D01*
X58005178Y52585355D01*
X57810269Y52801588D01*
X57576920Y52975641D01*
X57314099Y53100825D01*
X57205091Y53133889D01*
X57262597Y53151333D01*
X57267199Y53153793D01*
X59743000Y53153793D01*
X59743000Y52774207D01*
X59817053Y52401915D01*
X59962315Y52051223D01*
X60173201Y51735609D01*
X60441609Y51467201D01*
X60757223Y51256315D01*
X61107915Y51111053D01*
X61480207Y51037000D01*
X61859793Y51037000D01*
X62232085Y51111053D01*
X62582777Y51256315D01*
X62898391Y51467201D01*
X63166799Y51735609D01*
X63377685Y52051223D01*
X63522947Y52401915D01*
X63597000Y52774207D01*
X63597000Y53153793D01*
X63522947Y53526085D01*
X63377685Y53876777D01*
X63166799Y54192391D01*
X62898391Y54460799D01*
X62582777Y54671685D01*
X62232085Y54816947D01*
X61859793Y54891000D01*
X61480207Y54891000D01*
X61107915Y54816947D01*
X60757223Y54671685D01*
X60441609Y54460799D01*
X60173201Y54192391D01*
X59962315Y53876777D01*
X59817053Y53526085D01*
X59743000Y53153793D01*
X57267199Y53153793D01*
X57467070Y53260626D01*
X57646291Y53407709D01*
X57793374Y53586930D01*
X57902667Y53791403D01*
X57969969Y54013268D01*
X57992694Y54244000D01*
X57969969Y54474732D01*
X57902667Y54696597D01*
X57793374Y54901070D01*
X57646291Y55080291D01*
X57467070Y55227374D01*
X57262597Y55336667D01*
X57040732Y55403969D01*
X56867812Y55421000D01*
X56752188Y55421000D01*
X56579268Y55403969D01*
X56357403Y55336667D01*
X56152930Y55227374D01*
X55973709Y55080291D01*
X55826626Y54901070D01*
X55717333Y54696597D01*
X55650031Y54474732D01*
X55627306Y54244000D01*
X55650031Y54013268D01*
X55717333Y53791403D01*
X55826626Y53586930D01*
X55973709Y53407709D01*
X56152930Y53260626D01*
X56357403Y53151333D01*
X56414909Y53133889D01*
X56305901Y53100825D01*
X56043080Y52975641D01*
X55809731Y52801588D01*
X55614822Y52585355D01*
X55465843Y52335252D01*
X55381014Y52096115D01*
X55362667Y52156597D01*
X55253374Y52361070D01*
X55106291Y52540291D01*
X54927070Y52687374D01*
X54722597Y52796667D01*
X54500732Y52863969D01*
X54327812Y52881000D01*
X54212188Y52881000D01*
X54039268Y52863969D01*
X53817403Y52796667D01*
X53612930Y52687374D01*
X53433709Y52540291D01*
X53286626Y52361070D01*
X53177333Y52156597D01*
X53110031Y51934732D01*
X53087306Y51704000D01*
X52912694Y51704000D01*
X52889969Y51934732D01*
X52822667Y52156597D01*
X52713374Y52361070D01*
X52566291Y52540291D01*
X52387070Y52687374D01*
X52182597Y52796667D01*
X51960732Y52863969D01*
X51787812Y52881000D01*
X51672188Y52881000D01*
X51499268Y52863969D01*
X51277403Y52796667D01*
X51072930Y52687374D01*
X50893709Y52540291D01*
X50746626Y52361070D01*
X50637333Y52156597D01*
X50570031Y51934732D01*
X50547306Y51704000D01*
X50372694Y51704000D01*
X50349969Y51934732D01*
X50282667Y52156597D01*
X50173374Y52361070D01*
X50026291Y52540291D01*
X49847070Y52687374D01*
X49642597Y52796667D01*
X49585091Y52814111D01*
X49694099Y52847175D01*
X49956920Y52972359D01*
X50190269Y53146412D01*
X50385178Y53362645D01*
X50534157Y53612748D01*
X50618986Y53851885D01*
X50637333Y53791403D01*
X50746626Y53586930D01*
X50893709Y53407709D01*
X51072930Y53260626D01*
X51277403Y53151333D01*
X51499268Y53084031D01*
X51672188Y53067000D01*
X51787812Y53067000D01*
X51960732Y53084031D01*
X52182597Y53151333D01*
X52387070Y53260626D01*
X52566291Y53407709D01*
X52713374Y53586930D01*
X52822667Y53791403D01*
X52889969Y54013268D01*
X52912694Y54244000D01*
X53087306Y54244000D01*
X53110031Y54013268D01*
X53177333Y53791403D01*
X53286626Y53586930D01*
X53433709Y53407709D01*
X53612930Y53260626D01*
X53817403Y53151333D01*
X54039268Y53084031D01*
X54212188Y53067000D01*
X54327812Y53067000D01*
X54500732Y53084031D01*
X54722597Y53151333D01*
X54927070Y53260626D01*
X55106291Y53407709D01*
X55253374Y53586930D01*
X55362667Y53791403D01*
X55429969Y54013268D01*
X55452694Y54244000D01*
X55429969Y54474732D01*
X55362667Y54696597D01*
X55253374Y54901070D01*
X55106291Y55080291D01*
X54927070Y55227374D01*
X54722597Y55336667D01*
X54500732Y55403969D01*
X54327812Y55421000D01*
X54212188Y55421000D01*
X54039268Y55403969D01*
X53817403Y55336667D01*
X53612930Y55227374D01*
X53433709Y55080291D01*
X53286626Y54901070D01*
X53177333Y54696597D01*
X53110031Y54474732D01*
X53087306Y54244000D01*
X52912694Y54244000D01*
X52889969Y54474732D01*
X52822667Y54696597D01*
X52713374Y54901070D01*
X52566291Y55080291D01*
X52387070Y55227374D01*
X52182597Y55336667D01*
X51960732Y55403969D01*
X51787812Y55421000D01*
X51672188Y55421000D01*
X51499268Y55403969D01*
X51277403Y55336667D01*
X51072930Y55227374D01*
X50893709Y55080291D01*
X50746626Y54901070D01*
X50637333Y54696597D01*
X50618986Y54636115D01*
X50534157Y54875252D01*
X50385178Y55125355D01*
X50190269Y55341588D01*
X49956920Y55515641D01*
X49694099Y55640825D01*
X49546890Y55685476D01*
X49317000Y55564155D01*
X49317000Y54371000D01*
X49337000Y54371000D01*
X49337000Y54117000D01*
X49317000Y54117000D01*
X49317000Y54097000D01*
X49063000Y54097000D01*
X49063000Y54117000D01*
X49043000Y54117000D01*
X49043000Y54371000D01*
X49063000Y54371000D01*
X49063000Y55564155D01*
X48833110Y55685476D01*
X48685901Y55640825D01*
X48423080Y55515641D01*
X48189731Y55341588D01*
X47994822Y55125355D01*
X47845843Y54875252D01*
X47761014Y54636115D01*
X47742667Y54696597D01*
X47633374Y54901070D01*
X47486291Y55080291D01*
X47307070Y55227374D01*
X47102597Y55336667D01*
X46880732Y55403969D01*
X46707812Y55421000D01*
X46592188Y55421000D01*
X46419268Y55403969D01*
X46197403Y55336667D01*
X45992930Y55227374D01*
X45813709Y55080291D01*
X45666626Y54901070D01*
X45557333Y54696597D01*
X45538986Y54636115D01*
X45454157Y54875252D01*
X45305178Y55125355D01*
X45110269Y55341588D01*
X44876920Y55515641D01*
X44614099Y55640825D01*
X44466890Y55685476D01*
X44237000Y55564155D01*
X44237000Y54371000D01*
X44257000Y54371000D01*
X44257000Y54117000D01*
X44237000Y54117000D01*
X44237000Y54097000D01*
X43983000Y54097000D01*
X43983000Y54117000D01*
X43963000Y54117000D01*
X43963000Y54371000D01*
X43983000Y54371000D01*
X43983000Y55564155D01*
X43753110Y55685476D01*
X43605901Y55640825D01*
X43343080Y55515641D01*
X43109731Y55341588D01*
X42914822Y55125355D01*
X42765843Y54875252D01*
X42681014Y54636115D01*
X42662667Y54696597D01*
X42553374Y54901070D01*
X42406291Y55080291D01*
X42227070Y55227374D01*
X42022597Y55336667D01*
X41800732Y55403969D01*
X41627812Y55421000D01*
X41512188Y55421000D01*
X41339268Y55403969D01*
X41117403Y55336667D01*
X40912930Y55227374D01*
X40733709Y55080291D01*
X40586626Y54901070D01*
X40477333Y54696597D01*
X40410031Y54474732D01*
X40387306Y54244000D01*
X40212694Y54244000D01*
X40189969Y54474732D01*
X40122667Y54696597D01*
X40013374Y54901070D01*
X39866291Y55080291D01*
X39687070Y55227374D01*
X39482597Y55336667D01*
X39260732Y55403969D01*
X39087812Y55421000D01*
X38972188Y55421000D01*
X38799268Y55403969D01*
X38577403Y55336667D01*
X38372930Y55227374D01*
X38193709Y55080291D01*
X38046626Y54901070D01*
X37937333Y54696597D01*
X37870031Y54474732D01*
X37847306Y54244000D01*
X37870031Y54013268D01*
X37937333Y53791403D01*
X38046626Y53586930D01*
X38193709Y53407709D01*
X38372930Y53260626D01*
X38577403Y53151333D01*
X38634909Y53133889D01*
X38525901Y53100825D01*
X38263080Y52975641D01*
X38029731Y52801588D01*
X37834822Y52585355D01*
X37685843Y52335252D01*
X37601014Y52096115D01*
X37582667Y52156597D01*
X37473374Y52361070D01*
X37326291Y52540291D01*
X37147070Y52687374D01*
X36942597Y52796667D01*
X36720732Y52863969D01*
X36547812Y52881000D01*
X36432188Y52881000D01*
X36259268Y52863969D01*
X36037403Y52796667D01*
X35832930Y52687374D01*
X35653709Y52540291D01*
X35506626Y52361070D01*
X35397333Y52156597D01*
X35330031Y51934732D01*
X35307306Y51704000D01*
X35132694Y51704000D01*
X35109969Y51934732D01*
X35042667Y52156597D01*
X34933374Y52361070D01*
X34786291Y52540291D01*
X34607070Y52687374D01*
X34402597Y52796667D01*
X34180732Y52863969D01*
X34007812Y52881000D01*
X33892188Y52881000D01*
X33719268Y52863969D01*
X33497403Y52796667D01*
X33292930Y52687374D01*
X33113709Y52540291D01*
X32966626Y52361070D01*
X32857333Y52156597D01*
X32790031Y51934732D01*
X32767306Y51704000D01*
X32592694Y51704000D01*
X32569969Y51934732D01*
X32502667Y52156597D01*
X32393374Y52361070D01*
X32246291Y52540291D01*
X32067070Y52687374D01*
X31862597Y52796667D01*
X31805091Y52814111D01*
X31914099Y52847175D01*
X32176920Y52972359D01*
X32410269Y53146412D01*
X32605178Y53362645D01*
X32754157Y53612748D01*
X32838986Y53851885D01*
X32857333Y53791403D01*
X32966626Y53586930D01*
X33113709Y53407709D01*
X33292930Y53260626D01*
X33497403Y53151333D01*
X33719268Y53084031D01*
X33892188Y53067000D01*
X34007812Y53067000D01*
X34180732Y53084031D01*
X34402597Y53151333D01*
X34607070Y53260626D01*
X34786291Y53407709D01*
X34933374Y53586930D01*
X35042667Y53791403D01*
X35109969Y54013268D01*
X35132694Y54244000D01*
X35307306Y54244000D01*
X35330031Y54013268D01*
X35397333Y53791403D01*
X35506626Y53586930D01*
X35653709Y53407709D01*
X35832930Y53260626D01*
X36037403Y53151333D01*
X36259268Y53084031D01*
X36432188Y53067000D01*
X36547812Y53067000D01*
X36720732Y53084031D01*
X36942597Y53151333D01*
X37147070Y53260626D01*
X37326291Y53407709D01*
X37473374Y53586930D01*
X37582667Y53791403D01*
X37649969Y54013268D01*
X37672694Y54244000D01*
X37649969Y54474732D01*
X37582667Y54696597D01*
X37473374Y54901070D01*
X37326291Y55080291D01*
X37147070Y55227374D01*
X36942597Y55336667D01*
X36720732Y55403969D01*
X36547812Y55421000D01*
X36432188Y55421000D01*
X36259268Y55403969D01*
X36037403Y55336667D01*
X35832930Y55227374D01*
X35653709Y55080291D01*
X35506626Y54901070D01*
X35397333Y54696597D01*
X35330031Y54474732D01*
X35307306Y54244000D01*
X35132694Y54244000D01*
X35109969Y54474732D01*
X35042667Y54696597D01*
X34933374Y54901070D01*
X34786291Y55080291D01*
X34607070Y55227374D01*
X34402597Y55336667D01*
X34180732Y55403969D01*
X34007812Y55421000D01*
X33892188Y55421000D01*
X33719268Y55403969D01*
X33497403Y55336667D01*
X33292930Y55227374D01*
X33113709Y55080291D01*
X32966626Y54901070D01*
X32857333Y54696597D01*
X32838986Y54636115D01*
X32754157Y54875252D01*
X32605178Y55125355D01*
X32410269Y55341588D01*
X32176920Y55515641D01*
X31914099Y55640825D01*
X31766890Y55685476D01*
X31537000Y55564155D01*
X31537000Y54371000D01*
X31557000Y54371000D01*
X31557000Y54117000D01*
X31537000Y54117000D01*
X31537000Y54097000D01*
X31283000Y54097000D01*
X31283000Y54117000D01*
X31263000Y54117000D01*
X31263000Y54371000D01*
X31283000Y54371000D01*
X31283000Y55564155D01*
X31053110Y55685476D01*
X30905901Y55640825D01*
X30643080Y55515641D01*
X30409731Y55341588D01*
X30214822Y55125355D01*
X30065843Y54875252D01*
X29981014Y54636115D01*
X29962667Y54696597D01*
X29853374Y54901070D01*
X29706291Y55080291D01*
X29527070Y55227374D01*
X29322597Y55336667D01*
X29100732Y55403969D01*
X28927812Y55421000D01*
X28812188Y55421000D01*
X28639268Y55403969D01*
X28417403Y55336667D01*
X28212930Y55227374D01*
X28033709Y55080291D01*
X27886626Y54901070D01*
X27777333Y54696597D01*
X27710031Y54474732D01*
X27687306Y54244000D01*
X27512694Y54244000D01*
X27489969Y54474732D01*
X27422667Y54696597D01*
X27313374Y54901070D01*
X27166291Y55080291D01*
X26987070Y55227374D01*
X26782597Y55336667D01*
X26560732Y55403969D01*
X26387812Y55421000D01*
X26272188Y55421000D01*
X26099268Y55403969D01*
X25877403Y55336667D01*
X25672930Y55227374D01*
X25493709Y55080291D01*
X25346626Y54901070D01*
X25237333Y54696597D01*
X25218986Y54636115D01*
X25134157Y54875252D01*
X24985178Y55125355D01*
X24790269Y55341588D01*
X24556920Y55515641D01*
X24294099Y55640825D01*
X24146890Y55685476D01*
X23917000Y55564155D01*
X23917000Y54371000D01*
X23937000Y54371000D01*
X23937000Y54117000D01*
X23917000Y54117000D01*
X23917000Y54097000D01*
X23663000Y54097000D01*
X23663000Y54117000D01*
X23643000Y54117000D01*
X23643000Y54371000D01*
X23663000Y54371000D01*
X23663000Y55564155D01*
X23433110Y55685476D01*
X23285901Y55640825D01*
X23023080Y55515641D01*
X22789731Y55341588D01*
X22594822Y55125355D01*
X22445843Y54875252D01*
X22361014Y54636115D01*
X22342667Y54696597D01*
X22233374Y54901070D01*
X22086291Y55080291D01*
X21907070Y55227374D01*
X21702597Y55336667D01*
X21480732Y55403969D01*
X21307812Y55421000D01*
X21192188Y55421000D01*
X21019268Y55403969D01*
X20797403Y55336667D01*
X20592930Y55227374D01*
X20413709Y55080291D01*
X20266626Y54901070D01*
X20157333Y54696597D01*
X20090031Y54474732D01*
X20067306Y54244000D01*
X19892694Y54244000D01*
X19869969Y54474732D01*
X19802667Y54696597D01*
X19693374Y54901070D01*
X19546291Y55080291D01*
X19367070Y55227374D01*
X19162597Y55336667D01*
X18940732Y55403969D01*
X18767812Y55421000D01*
X18652188Y55421000D01*
X18479268Y55403969D01*
X18257403Y55336667D01*
X18052930Y55227374D01*
X17873709Y55080291D01*
X17726626Y54901070D01*
X17617333Y54696597D01*
X17550031Y54474732D01*
X17527306Y54244000D01*
X17550031Y54013268D01*
X17617333Y53791403D01*
X17726626Y53586930D01*
X17873709Y53407709D01*
X18052930Y53260626D01*
X18257403Y53151333D01*
X18314909Y53133889D01*
X18205901Y53100825D01*
X17943080Y52975641D01*
X17709731Y52801588D01*
X17514822Y52585355D01*
X17365843Y52335252D01*
X17281014Y52096115D01*
X17262667Y52156597D01*
X17153374Y52361070D01*
X17006291Y52540291D01*
X16827070Y52687374D01*
X16622597Y52796667D01*
X16400732Y52863969D01*
X16227812Y52881000D01*
X16112188Y52881000D01*
X15939268Y52863969D01*
X15717403Y52796667D01*
X15512930Y52687374D01*
X15333709Y52540291D01*
X15186626Y52361070D01*
X15077333Y52156597D01*
X15010031Y51934732D01*
X14987306Y51704000D01*
X14812694Y51704000D01*
X14789969Y51934732D01*
X14722667Y52156597D01*
X14613374Y52361070D01*
X14466291Y52540291D01*
X14287070Y52687374D01*
X14082597Y52796667D01*
X14025091Y52814111D01*
X14134099Y52847175D01*
X14396920Y52972359D01*
X14630269Y53146412D01*
X14825178Y53362645D01*
X14974157Y53612748D01*
X15058986Y53851885D01*
X15077333Y53791403D01*
X15186626Y53586930D01*
X15333709Y53407709D01*
X15512930Y53260626D01*
X15717403Y53151333D01*
X15939268Y53084031D01*
X16112188Y53067000D01*
X16227812Y53067000D01*
X16400732Y53084031D01*
X16622597Y53151333D01*
X16827070Y53260626D01*
X17006291Y53407709D01*
X17153374Y53586930D01*
X17262667Y53791403D01*
X17329969Y54013268D01*
X17352694Y54244000D01*
X17329969Y54474732D01*
X17262667Y54696597D01*
X17153374Y54901070D01*
X17006291Y55080291D01*
X16827070Y55227374D01*
X16622597Y55336667D01*
X16400732Y55403969D01*
X16227812Y55421000D01*
X16112188Y55421000D01*
X15939268Y55403969D01*
X15717403Y55336667D01*
X15512930Y55227374D01*
X15333709Y55080291D01*
X15186626Y54901070D01*
X15077333Y54696597D01*
X15058986Y54636115D01*
X14974157Y54875252D01*
X14825178Y55125355D01*
X14630269Y55341588D01*
X14396920Y55515641D01*
X14134099Y55640825D01*
X13986890Y55685476D01*
X13757000Y55564155D01*
X13757000Y54371000D01*
X13777000Y54371000D01*
X13777000Y54117000D01*
X13757000Y54117000D01*
X13757000Y54097000D01*
X13503000Y54097000D01*
X13503000Y54117000D01*
X13483000Y54117000D01*
X13483000Y54371000D01*
X13503000Y54371000D01*
X13503000Y55564155D01*
X13273110Y55685476D01*
X13125901Y55640825D01*
X12863080Y55515641D01*
X12629731Y55341588D01*
X12434822Y55125355D01*
X12285843Y54875252D01*
X12201014Y54636115D01*
X12182667Y54696597D01*
X12073374Y54901070D01*
X11926291Y55080291D01*
X11747070Y55227374D01*
X11542597Y55336667D01*
X11320732Y55403969D01*
X11147812Y55421000D01*
X11032188Y55421000D01*
X10859268Y55403969D01*
X10637403Y55336667D01*
X10432930Y55227374D01*
X10253709Y55080291D01*
X10106626Y54901070D01*
X9997333Y54696597D01*
X9930031Y54474732D01*
X9907306Y54244000D01*
X9732694Y54244000D01*
X9709969Y54474732D01*
X9642667Y54696597D01*
X9533374Y54901070D01*
X9386291Y55080291D01*
X9207070Y55227374D01*
X9002597Y55336667D01*
X8780732Y55403969D01*
X8607812Y55421000D01*
X8492188Y55421000D01*
X8319268Y55403969D01*
X8097403Y55336667D01*
X7892930Y55227374D01*
X7713709Y55080291D01*
X7566626Y54901070D01*
X7457333Y54696597D01*
X7390031Y54474732D01*
X7367306Y54244000D01*
X7390031Y54013268D01*
X7416386Y53926387D01*
X6272034Y52782035D01*
X6250027Y52763974D01*
X6231966Y52741967D01*
X6231963Y52741964D01*
X6227520Y52736550D01*
X6177922Y52676115D01*
X6129411Y52585355D01*
X6124344Y52575876D01*
X6091349Y52467111D01*
X6080210Y52354000D01*
X5494815Y52354000D01*
X5522947Y52421915D01*
X5597000Y52794207D01*
X5597000Y53173793D01*
X5522947Y53546085D01*
X5377685Y53896777D01*
X5166799Y54212391D01*
X4898391Y54480799D01*
X4582777Y54691685D01*
X4232085Y54836947D01*
X3859793Y54911000D01*
X3480207Y54911000D01*
X3107915Y54836947D01*
X2757223Y54691685D01*
X2441609Y54480799D01*
X2173201Y54212391D01*
X1962315Y53896777D01*
X1817053Y53546085D01*
X1743000Y53173793D01*
X587000Y53173793D01*
X587000Y53473117D01*
X638012Y53993370D01*
X783035Y54473712D01*
X1018599Y54916744D01*
X1335728Y55305582D01*
X1722341Y55625417D01*
X2163713Y55864065D01*
X2643039Y56012441D01*
X3162129Y56067000D01*
X62139117Y56067000D01*
X62659370Y56015988D01*
G36*
X63597000Y16177000D02*
G01*
X63617000Y16177000D01*
X63617000Y15923000D01*
X63597000Y15923000D01*
X63597000Y14877050D01*
X63343000Y14877050D01*
X63343000Y15923000D01*
X63297050Y15923000D01*
X63297050Y16177000D01*
X63343000Y16177000D01*
X63343000Y17222950D01*
X63597000Y17222950D01*
X63597000Y16177000D01*
X63597000Y16177000D01*
G37*
X63597000Y16177000D02*
X63617000Y16177000D01*
X63617000Y15923000D01*
X63597000Y15923000D01*
X63597000Y14877050D01*
X63343000Y14877050D01*
X63343000Y15923000D01*
X63297050Y15923000D01*
X63297050Y16177000D01*
X63343000Y16177000D01*
X63343000Y17222950D01*
X63597000Y17222950D01*
X63597000Y16177000D01*
M02*
