M48
; DRILL file {KiCad (5.1.4)-1} date 9/12/2019 12:56:37 AM
; FORMAT={-:-/ absolute / metric / decimal}
; #@! TF.CreationDate,2019-12-09T00:56:37+11:00
; #@! TF.GenerationSoftware,Kicad,Pcbnew,(5.1.4)-1
; #@! TF.FileFunction,Plated,1,2,PTH
FMAT,2
METRIC
T1C0.300
T2C0.400
T3C0.762
T4C1.000
T5C1.100
T6C2.000
%
G90
G05
T1
X140.512Y-82.344
X147.116Y-81.328
X150.24Y-91.5
X150.672Y-81.074
X151.53Y-96.66
X154.253Y-103.281
X156.507Y-102.737
X156.507Y-103.607
X156.527Y-101.967
X157.437Y-102.757
X157.437Y-103.597
X157.447Y-101.967
X158.557Y-99.537
X158.881Y-91.977
X159.697Y-105.727
X162.14Y-113.33
X164.75Y-115.23
X165.73Y-119.676
X166.59Y-115.23
X171.04Y-119.27
X178.448Y-91.729
X178.448Y-94.729
X178.448Y-96.729
X178.57Y-122.06
X178.948Y-95.729
X178.948Y-97.729
X179.448Y-91.729
X179.448Y-94.729
X179.448Y-96.729
X179.948Y-95.729
X179.948Y-97.729
X180.448Y-91.729
X180.448Y-94.729
X180.448Y-96.729
X180.8Y-115.3
X180.948Y-95.729
X180.948Y-97.729
X181.448Y-91.729
X186.19Y-122.98
X188.112Y-122.932
X188.2Y-119.01
X190.11Y-116.16
X192.31Y-76.946
X195.4Y-91.4
X196.7Y-108.6
X196.7Y-109.4
T2
X135.4Y-100.88
X139.3Y-129.5
X140.19Y-76.86
X146.4Y-100.9
X149.7Y-120.1
X150.78Y-77.04
X153.03Y-109.84
X153.65Y-114.8
X154.3Y-124.3
X156.01Y-94.79
X156.94Y-88.73
X160.86Y-118.13
X160.87Y-99.49
X160.96Y-114.8
X161.47Y-107.15
X163.1Y-86.4
X164.5Y-117.13
X167.42Y-95.46
X167.65Y-100.33
X168.31Y-118.98
X172.414Y-103.746
X173.18Y-106.83
X174.41Y-122.3
X174.5Y-115.4
X175.59Y-101.24
X181.4Y-109.2
X181.5Y-105.7
X184.4Y-110.8
X187.7Y-109.6
X187.8Y-104.0
X187.81Y-89.67
X187.9Y-117.5
X188.0Y-96.9
X192.74Y-120.95
X196.4Y-83.7
X197.1Y-125.58
T3
X146.68Y-110.796
X146.68Y-113.336
X146.68Y-115.866
X146.68Y-118.406
X160.89Y-123.19
X163.41Y-123.19
X165.93Y-123.19
X168.49Y-123.19
T4
X141.85Y-126.51
X141.85Y-129.05
X144.39Y-126.51
X144.39Y-129.05
X146.93Y-126.51
X146.93Y-129.05
X149.47Y-126.51
X149.47Y-129.05
X152.01Y-126.51
X152.01Y-129.05
X154.55Y-126.51
X154.55Y-129.05
X157.09Y-126.51
X157.09Y-129.05
X159.63Y-126.51
X159.63Y-129.05
X162.17Y-126.51
X162.17Y-129.05
X164.71Y-126.51
X164.71Y-129.05
X167.25Y-126.51
X167.25Y-129.05
X169.79Y-126.51
X169.79Y-129.05
X172.33Y-126.51
X172.33Y-129.05
X174.87Y-126.51
X174.87Y-129.05
X177.41Y-126.51
X177.41Y-129.05
X179.95Y-126.51
X179.95Y-129.05
X182.49Y-126.51
X182.49Y-129.05
X185.03Y-126.51
X185.03Y-129.05
X187.57Y-126.51
X187.57Y-129.05
X190.11Y-126.51
X190.11Y-129.05
X191.41Y-97.736
X193.95Y-97.736
X196.49Y-97.736
X191.41Y-105.356
X193.95Y-105.356
X196.49Y-105.356
X191.41Y-100.276
X193.95Y-100.276
X196.49Y-100.276
X194.9Y-116.146
X194.9Y-118.686
X194.9Y-121.226
X191.41Y-90.116
X193.95Y-90.116
X196.49Y-90.116
X155.562Y-109.784
X158.102Y-109.784
X160.642Y-109.784
X163.182Y-109.784
X165.722Y-109.784
X168.262Y-109.784
X170.802Y-109.784
X173.342Y-109.784
X191.41Y-95.196
X193.95Y-95.196
X196.49Y-95.196
X191.41Y-102.816
X193.95Y-102.816
X196.49Y-102.816
X191.41Y-87.576
X193.95Y-87.576
X196.49Y-87.576
X143.5Y-79.8
X146.0Y-79.8
X148.5Y-79.8
X191.41Y-92.656
X193.95Y-92.656
X196.49Y-92.656
X136.81Y-107.26
X139.35Y-107.26
X141.89Y-107.26
X144.43Y-107.26
T5
X136.41Y-113.92
X136.41Y-116.92
X141.41Y-113.92
X141.41Y-116.92
X136.41Y-120.12
X136.41Y-123.12
X141.41Y-120.12
X141.41Y-123.12
T6
X157.54Y-79.65
X162.62Y-79.65
X170.243Y-79.65
X175.323Y-79.65
X182.946Y-79.65
X188.026Y-79.65
T5
G00X135.45Y-92.55
M15
G01X138.25Y-92.55
M16
G05
G00X138.35Y-89.75
M15
G01X141.15Y-89.75
M16
G05
G00X143.15Y-94.15
M15
G01X143.15Y-96.95
M16
G05
T0
M30
