G04 #@! TF.GenerationSoftware,KiCad,Pcbnew,(5.1.4)-1*
G04 #@! TF.CreationDate,2019-11-27T00:40:15+11:00*
G04 #@! TF.ProjectId,dingo-hat,64696e67-6f2d-4686-9174-2e6b69636164,rev?*
G04 #@! TF.SameCoordinates,PX5f37000PY5f5c990*
G04 #@! TF.FileFunction,Profile,NP*
%FSLAX46Y46*%
G04 Gerber Fmt 4.6, Leading zero omitted, Abs format (unit mm)*
G04 Created by KiCad (PCBNEW (5.1.4)-1) date 2019-11-27 00:40:15*
%MOMM*%
%LPD*%
G04 APERTURE LIST*
%ADD10C,0.200000*%
%ADD11C,0.100000*%
G04 APERTURE END LIST*
D10*
X46160000Y3994000D02*
G75*
G02X44160000Y3994000I-1000000J0D01*
G01*
X1160000Y36494000D02*
G75*
G02X160000Y37494000I0J1000000D01*
G01*
X44160000Y18994000D02*
X44160000Y3994000D01*
X44160000Y18994000D02*
G75*
G02X46160000Y18994000I1000000J0D01*
G01*
X4160000Y36494000D02*
G75*
G02X5160000Y35494000I125000J-875000D01*
G01*
X46160000Y18994000D02*
X46160000Y3994000D01*
X5160000Y20494000D02*
X5160000Y35494000D01*
X1160000Y36494000D02*
X4160000Y36494000D01*
X1160000Y19494000D02*
X4160000Y19494000D01*
X160000Y53494000D02*
G75*
G02X3160000Y56494000I3000000J0D01*
G01*
X62160000Y56494000D02*
X3160000Y56494000D01*
X160000Y18494000D02*
X160000Y3494000D01*
X160000Y18494000D02*
G75*
G02X1160000Y19494000I1000000J0D01*
G01*
X62160000Y56494000D02*
G75*
G02X65160000Y53494000I0J-3000000D01*
G01*
X3160000Y494000D02*
X62160000Y494000D01*
X160000Y53494000D02*
X160000Y37494000D01*
X3160000Y494000D02*
G75*
G02X160000Y3494000I0J3000000D01*
G01*
X5160000Y20494000D02*
G75*
G02X4160000Y19494000I-875000J-125000D01*
G01*
X65160000Y3494000D02*
X65160000Y53494000D01*
X65160000Y3494000D02*
G75*
G02X62160000Y494000I-3000000J0D01*
G01*
D11*
X58920000Y17840000D02*
X55420000Y17840000D01*
X58920000Y18840000D02*
X58920000Y17840000D01*
X55420000Y18840000D02*
X58920000Y18840000D01*
X55420000Y17840000D02*
X55420000Y18840000D01*
X53270000Y22390000D02*
X53270000Y25890000D01*
X54270000Y22390000D02*
X53270000Y22390000D01*
X54270000Y25890000D02*
X54270000Y22390000D01*
X53270000Y25890000D02*
X54270000Y25890000D01*
X61820000Y20640000D02*
X58320000Y20640000D01*
X61820000Y21640000D02*
X61820000Y20640000D01*
X58320000Y21640000D02*
X61820000Y21640000D01*
X58320000Y20640000D02*
X58320000Y21640000D01*
M02*
