M48
; DRILL file {KiCad (5.1.4)-1} date 27/11/2019 12:46:50 AM
; FORMAT={-:-/ absolute / metric / decimal}
; #@! TF.CreationDate,2019-11-27T00:46:50+11:00
; #@! TF.GenerationSoftware,Kicad,Pcbnew,(5.1.4)-1
; #@! TF.FileFunction,Plated,1,2,PTH
FMAT,2
METRIC
T1C0.300
T2C0.400
T3C0.650
T4C0.762
T5C1.000
T6C1.100
T7C2.000
%
G90
G05
T1
X106.19Y-97.854
X109.38Y-54.574
X111.86Y-68.244
X112.81Y-83.444
X112.81Y-85.444
X112.97Y-73.724
X113.31Y-82.444
X113.31Y-84.444
X113.81Y-83.444
X113.81Y-85.444
X114.31Y-82.444
X114.805Y-52.454
X114.81Y-83.444
X115.31Y-76.194
X115.31Y-82.444
X115.46Y-55.874
X117.65Y-56.294
X120.06Y-67.944
X121.353Y-61.657
X123.06Y-78.944
X123.06Y-80.944
X123.09Y-54.134
X123.56Y-79.944
X123.56Y-81.944
X124.06Y-78.944
X124.06Y-80.944
X124.56Y-79.944
X124.56Y-81.944
X124.56Y-84.944
X125.06Y-78.944
X125.06Y-80.944
X125.56Y-79.944
X125.56Y-81.944
X125.56Y-84.944
X126.06Y-78.944
X126.06Y-80.944
X126.56Y-79.944
X126.56Y-81.944
X126.56Y-84.944
X126.97Y-54.114
X127.06Y-78.944
X127.06Y-80.944
X127.16Y-51.894
X127.56Y-79.944
X127.56Y-81.944
X127.56Y-84.944
X131.06Y-73.054
X131.93Y-53.284
X132.06Y-88.194
X132.36Y-54.754
X133.41Y-59.054
X133.42Y-57.724
X134.03Y-61.604
X134.06Y-87.444
X134.56Y-86.444
X134.56Y-88.444
X135.06Y-87.444
X135.51Y-82.894
X135.56Y-86.444
X135.56Y-88.444
X136.06Y-87.444
X136.31Y-78.944
X136.56Y-86.444
X136.56Y-88.444
X136.71Y-53.904
X137.06Y-82.694
X137.06Y-87.444
X137.62Y-58.334
X138.61Y-81.974
X139.21Y-75.414
X141.66Y-81.794
X141.71Y-70.724
X141.74Y-79.584
X142.5Y-58.264
X142.85Y-76.914
X143.27Y-59.054
X143.61Y-60.624
X143.96Y-74.484
X143.97Y-72.854
X143.97Y-73.694
X144.31Y-51.444
X144.38Y-78.244
X144.88Y-74.484
X144.9Y-72.844
X144.9Y-73.714
X145.81Y-51.494
X146.91Y-70.714
X147.154Y-73.17
X147.84Y-60.624
X148.38Y-80.634
X153.97Y-67.964
X154.3Y-92.384
X156.15Y-65.024
X157.52Y-92.384
X159.82Y-72.734
X162.46Y-87.824
T2
X106.23Y-66.884
X107.1Y-52.164
X110.57Y-70.904
X113.19Y-57.544
X115.28Y-58.354
X115.59Y-66.914
X118.54Y-65.144
X118.57Y-58.304
X124.99Y-49.674
X127.48Y-67.614
X128.42Y-61.624
X135.49Y-69.774
X143.0Y-56.464
X145.27Y-64.674
T3
X138.316Y-87.634
X139.586Y-87.634
T4
X151.43Y-52.604
X151.43Y-55.144
X151.43Y-57.674
X151.43Y-60.214
T5
X153.61Y-75.854
X157.01Y-81.654
X159.91Y-78.854
X101.695Y-84.99
X104.235Y-84.99
X106.775Y-84.99
X101.705Y-87.53
X104.245Y-87.53
X106.785Y-87.53
X149.82Y-96.45
X152.32Y-96.45
X154.82Y-96.45
X101.695Y-82.45
X104.235Y-82.45
X106.775Y-82.45
X101.705Y-90.07
X104.245Y-90.07
X106.785Y-90.07
X125.158Y-65.016
X127.698Y-65.016
X130.238Y-65.016
X132.778Y-65.016
X135.318Y-65.016
X137.858Y-65.016
X140.398Y-65.016
X142.938Y-65.016
X108.39Y-45.75
X108.39Y-48.29
X110.93Y-45.75
X110.93Y-48.29
X113.47Y-45.75
X113.47Y-48.29
X116.01Y-45.75
X116.01Y-48.29
X118.55Y-45.75
X118.55Y-48.29
X121.09Y-45.75
X121.09Y-48.29
X123.63Y-45.75
X123.63Y-48.29
X126.17Y-45.75
X126.17Y-48.29
X128.71Y-45.75
X128.71Y-48.29
X131.25Y-45.75
X131.25Y-48.29
X133.79Y-45.75
X133.79Y-48.29
X136.33Y-45.75
X136.33Y-48.29
X138.87Y-45.75
X138.87Y-48.29
X141.41Y-45.75
X141.41Y-48.29
X143.95Y-45.75
X143.95Y-48.29
X146.49Y-45.75
X146.49Y-48.29
X149.03Y-45.75
X149.03Y-48.29
X151.57Y-45.75
X151.57Y-48.29
X154.11Y-45.75
X154.11Y-48.29
X156.65Y-45.75
X156.65Y-48.29
X103.6Y-53.574
X103.6Y-56.114
X103.6Y-58.654
T6
X156.19Y-53.984
X156.19Y-58.484
X162.69Y-53.984
X162.69Y-58.484
T7
X135.88Y-95.15
X140.96Y-95.15
X123.177Y-95.15
X128.257Y-95.15
X110.474Y-95.15
X115.554Y-95.15
T0
M30
