G04 #@! TF.GenerationSoftware,KiCad,Pcbnew,(5.1.4)-1*
G04 #@! TF.CreationDate,2019-12-08T02:24:49+11:00*
G04 #@! TF.ProjectId,dingo-hat,64696e67-6f2d-4686-9174-2e6b69636164,rev?*
G04 #@! TF.SameCoordinates,Original*
G04 #@! TF.FileFunction,Legend,Top*
G04 #@! TF.FilePolarity,Positive*
%FSLAX46Y46*%
G04 Gerber Fmt 4.6, Leading zero omitted, Abs format (unit mm)*
G04 Created by KiCad (PCBNEW (5.1.4)-1) date 2019-12-08 02:24:49*
%MOMM*%
%LPD*%
G04 APERTURE LIST*
%ADD10C,0.150000*%
%ADD11C,0.175000*%
%ADD12C,0.500000*%
%ADD13C,0.010000*%
%ADD14C,0.127000*%
%ADD15C,0.380000*%
%ADD16C,0.100000*%
%ADD17C,0.120000*%
%ADD18C,0.152400*%
%ADD19C,0.050000*%
G04 APERTURE END LIST*
D10*
X157758571Y-69380000D02*
X157701428Y-69351428D01*
X157615714Y-69351428D01*
X157530000Y-69380000D01*
X157472857Y-69437142D01*
X157444285Y-69494285D01*
X157415714Y-69608571D01*
X157415714Y-69694285D01*
X157444285Y-69808571D01*
X157472857Y-69865714D01*
X157530000Y-69922857D01*
X157615714Y-69951428D01*
X157672857Y-69951428D01*
X157758571Y-69922857D01*
X157787142Y-69894285D01*
X157787142Y-69694285D01*
X157672857Y-69694285D01*
X158044285Y-69951428D02*
X158044285Y-69351428D01*
X158272857Y-69351428D01*
X158330000Y-69380000D01*
X158358571Y-69408571D01*
X158387142Y-69465714D01*
X158387142Y-69551428D01*
X158358571Y-69608571D01*
X158330000Y-69637142D01*
X158272857Y-69665714D01*
X158044285Y-69665714D01*
X158644285Y-69951428D02*
X158644285Y-69351428D01*
X159044285Y-69351428D02*
X159158571Y-69351428D01*
X159215714Y-69380000D01*
X159272857Y-69437142D01*
X159301428Y-69551428D01*
X159301428Y-69751428D01*
X159272857Y-69865714D01*
X159215714Y-69922857D01*
X159158571Y-69951428D01*
X159044285Y-69951428D01*
X158987142Y-69922857D01*
X158930000Y-69865714D01*
X158901428Y-69751428D01*
X158901428Y-69551428D01*
X158930000Y-69437142D01*
X158987142Y-69380000D01*
X159044285Y-69351428D01*
X159530000Y-69408571D02*
X159558571Y-69380000D01*
X159615714Y-69351428D01*
X159758571Y-69351428D01*
X159815714Y-69380000D01*
X159844285Y-69408571D01*
X159872857Y-69465714D01*
X159872857Y-69522857D01*
X159844285Y-69608571D01*
X159501428Y-69951428D01*
X159872857Y-69951428D01*
X160444285Y-69951428D02*
X160101428Y-69951428D01*
X160272857Y-69951428D02*
X160272857Y-69351428D01*
X160215714Y-69437142D01*
X160158571Y-69494285D01*
X160101428Y-69522857D01*
X155890000Y-71671428D02*
X155861428Y-71728571D01*
X155861428Y-71814285D01*
X155890000Y-71900000D01*
X155947142Y-71957142D01*
X156004285Y-71985714D01*
X156118571Y-72014285D01*
X156204285Y-72014285D01*
X156318571Y-71985714D01*
X156375714Y-71957142D01*
X156432857Y-71900000D01*
X156461428Y-71814285D01*
X156461428Y-71757142D01*
X156432857Y-71671428D01*
X156404285Y-71642857D01*
X156204285Y-71642857D01*
X156204285Y-71757142D01*
X156461428Y-71385714D02*
X155861428Y-71385714D01*
X155861428Y-71157142D01*
X155890000Y-71100000D01*
X155918571Y-71071428D01*
X155975714Y-71042857D01*
X156061428Y-71042857D01*
X156118571Y-71071428D01*
X156147142Y-71100000D01*
X156175714Y-71157142D01*
X156175714Y-71385714D01*
X156461428Y-70785714D02*
X155861428Y-70785714D01*
X155861428Y-70385714D02*
X155861428Y-70271428D01*
X155890000Y-70214285D01*
X155947142Y-70157142D01*
X156061428Y-70128571D01*
X156261428Y-70128571D01*
X156375714Y-70157142D01*
X156432857Y-70214285D01*
X156461428Y-70271428D01*
X156461428Y-70385714D01*
X156432857Y-70442857D01*
X156375714Y-70500000D01*
X156261428Y-70528571D01*
X156061428Y-70528571D01*
X155947142Y-70500000D01*
X155890000Y-70442857D01*
X155861428Y-70385714D01*
X155918571Y-69900000D02*
X155890000Y-69871428D01*
X155861428Y-69814285D01*
X155861428Y-69671428D01*
X155890000Y-69614285D01*
X155918571Y-69585714D01*
X155975714Y-69557142D01*
X156032857Y-69557142D01*
X156118571Y-69585714D01*
X156461428Y-69928571D01*
X156461428Y-69557142D01*
X155861428Y-69042857D02*
X155861428Y-69157142D01*
X155890000Y-69214285D01*
X155918571Y-69242857D01*
X156004285Y-69300000D01*
X156118571Y-69328571D01*
X156347142Y-69328571D01*
X156404285Y-69300000D01*
X156432857Y-69271428D01*
X156461428Y-69214285D01*
X156461428Y-69100000D01*
X156432857Y-69042857D01*
X156404285Y-69014285D01*
X156347142Y-68985714D01*
X156204285Y-68985714D01*
X156147142Y-69014285D01*
X156118571Y-69042857D01*
X156090000Y-69100000D01*
X156090000Y-69214285D01*
X156118571Y-69271428D01*
X156147142Y-69300000D01*
X156204285Y-69328571D01*
D11*
X153140000Y-69490000D02*
X153673333Y-69490000D01*
X153406666Y-69756666D02*
X153406666Y-69223333D01*
X154340000Y-69056666D02*
X154006666Y-69056666D01*
X153973333Y-69390000D01*
X154006666Y-69356666D01*
X154073333Y-69323333D01*
X154240000Y-69323333D01*
X154306666Y-69356666D01*
X154340000Y-69390000D01*
X154373333Y-69456666D01*
X154373333Y-69623333D01*
X154340000Y-69690000D01*
X154306666Y-69723333D01*
X154240000Y-69756666D01*
X154073333Y-69756666D01*
X154006666Y-69723333D01*
X153973333Y-69690000D01*
X154573333Y-69056666D02*
X154806666Y-69756666D01*
X155040000Y-69056666D01*
X161186666Y-68990000D02*
X161120000Y-68956666D01*
X161020000Y-68956666D01*
X160920000Y-68990000D01*
X160853333Y-69056666D01*
X160820000Y-69123333D01*
X160786666Y-69256666D01*
X160786666Y-69356666D01*
X160820000Y-69490000D01*
X160853333Y-69556666D01*
X160920000Y-69623333D01*
X161020000Y-69656666D01*
X161086666Y-69656666D01*
X161186666Y-69623333D01*
X161220000Y-69590000D01*
X161220000Y-69356666D01*
X161086666Y-69356666D01*
X161520000Y-69656666D02*
X161520000Y-68956666D01*
X161920000Y-69656666D01*
X161920000Y-68956666D01*
X162253333Y-69656666D02*
X162253333Y-68956666D01*
X162420000Y-68956666D01*
X162520000Y-68990000D01*
X162586666Y-69056666D01*
X162620000Y-69123333D01*
X162653333Y-69256666D01*
X162653333Y-69356666D01*
X162620000Y-69490000D01*
X162586666Y-69556666D01*
X162520000Y-69623333D01*
X162420000Y-69656666D01*
X162253333Y-69656666D01*
D12*
X125105476Y-83384761D02*
X125772142Y-85384761D01*
X126438809Y-83384761D01*
X128153095Y-85384761D02*
X127010238Y-85384761D01*
X127581666Y-85384761D02*
X127581666Y-83384761D01*
X127391190Y-83670476D01*
X127200714Y-83860952D01*
X127010238Y-83956190D01*
X129010238Y-85194285D02*
X129105476Y-85289523D01*
X129010238Y-85384761D01*
X128915000Y-85289523D01*
X129010238Y-85194285D01*
X129010238Y-85384761D01*
X129772142Y-83384761D02*
X131010238Y-83384761D01*
X130343571Y-84146666D01*
X130629285Y-84146666D01*
X130819761Y-84241904D01*
X130915000Y-84337142D01*
X131010238Y-84527619D01*
X131010238Y-85003809D01*
X130915000Y-85194285D01*
X130819761Y-85289523D01*
X130629285Y-85384761D01*
X130057857Y-85384761D01*
X129867380Y-85289523D01*
X129772142Y-85194285D01*
D10*
X135130000Y-90920666D02*
X134730000Y-90920666D01*
X134930000Y-90920666D02*
X134930000Y-90220666D01*
X134863333Y-90320666D01*
X134796666Y-90387333D01*
X134730000Y-90420666D01*
X135396666Y-90720666D02*
X135730000Y-90720666D01*
X135330000Y-90920666D02*
X135563333Y-90220666D01*
X135796666Y-90920666D01*
D11*
X100912000Y-59429333D02*
X100878666Y-59496000D01*
X100878666Y-59596000D01*
X100912000Y-59696000D01*
X100978666Y-59762666D01*
X101045333Y-59796000D01*
X101178666Y-59829333D01*
X101278666Y-59829333D01*
X101412000Y-59796000D01*
X101478666Y-59762666D01*
X101545333Y-59696000D01*
X101578666Y-59596000D01*
X101578666Y-59529333D01*
X101545333Y-59429333D01*
X101512000Y-59396000D01*
X101278666Y-59396000D01*
X101278666Y-59529333D01*
X101578666Y-59096000D02*
X100878666Y-59096000D01*
X101578666Y-58696000D01*
X100878666Y-58696000D01*
X101578666Y-58362666D02*
X100878666Y-58362666D01*
X100878666Y-58196000D01*
X100912000Y-58096000D01*
X100978666Y-58029333D01*
X101045333Y-57996000D01*
X101178666Y-57962666D01*
X101278666Y-57962666D01*
X101412000Y-57996000D01*
X101478666Y-58029333D01*
X101545333Y-58096000D01*
X101578666Y-58196000D01*
X101578666Y-58362666D01*
X101300000Y-53914000D02*
X101300000Y-53380666D01*
X101566666Y-53647333D02*
X101033333Y-53647333D01*
X100866666Y-52714000D02*
X100866666Y-53047333D01*
X101200000Y-53080666D01*
X101166666Y-53047333D01*
X101133333Y-52980666D01*
X101133333Y-52814000D01*
X101166666Y-52747333D01*
X101200000Y-52714000D01*
X101266666Y-52680666D01*
X101433333Y-52680666D01*
X101500000Y-52714000D01*
X101533333Y-52747333D01*
X101566666Y-52814000D01*
X101566666Y-52980666D01*
X101533333Y-53047333D01*
X101500000Y-53080666D01*
X100866666Y-52480666D02*
X101566666Y-52247333D01*
X100866666Y-52014000D01*
D10*
X100990000Y-57035428D02*
X100961428Y-57092571D01*
X100961428Y-57178285D01*
X100990000Y-57264000D01*
X101047142Y-57321142D01*
X101104285Y-57349714D01*
X101218571Y-57378285D01*
X101304285Y-57378285D01*
X101418571Y-57349714D01*
X101475714Y-57321142D01*
X101532857Y-57264000D01*
X101561428Y-57178285D01*
X101561428Y-57121142D01*
X101532857Y-57035428D01*
X101504285Y-57006857D01*
X101304285Y-57006857D01*
X101304285Y-57121142D01*
X101561428Y-56749714D02*
X100961428Y-56749714D01*
X100961428Y-56521142D01*
X100990000Y-56464000D01*
X101018571Y-56435428D01*
X101075714Y-56406857D01*
X101161428Y-56406857D01*
X101218571Y-56435428D01*
X101247142Y-56464000D01*
X101275714Y-56521142D01*
X101275714Y-56749714D01*
X101561428Y-56149714D02*
X100961428Y-56149714D01*
X100961428Y-55749714D02*
X100961428Y-55635428D01*
X100990000Y-55578285D01*
X101047142Y-55521142D01*
X101161428Y-55492571D01*
X101361428Y-55492571D01*
X101475714Y-55521142D01*
X101532857Y-55578285D01*
X101561428Y-55635428D01*
X101561428Y-55749714D01*
X101532857Y-55806857D01*
X101475714Y-55864000D01*
X101361428Y-55892571D01*
X101161428Y-55892571D01*
X101047142Y-55864000D01*
X100990000Y-55806857D01*
X100961428Y-55749714D01*
X101561428Y-54921142D02*
X101561428Y-55264000D01*
X101561428Y-55092571D02*
X100961428Y-55092571D01*
X101047142Y-55149714D01*
X101104285Y-55206857D01*
X101132857Y-55264000D01*
X101218571Y-54578285D02*
X101190000Y-54635428D01*
X101161428Y-54664000D01*
X101104285Y-54692571D01*
X101075714Y-54692571D01*
X101018571Y-54664000D01*
X100990000Y-54635428D01*
X100961428Y-54578285D01*
X100961428Y-54464000D01*
X100990000Y-54406857D01*
X101018571Y-54378285D01*
X101075714Y-54349714D01*
X101104285Y-54349714D01*
X101161428Y-54378285D01*
X101190000Y-54406857D01*
X101218571Y-54464000D01*
X101218571Y-54578285D01*
X101247142Y-54635428D01*
X101275714Y-54664000D01*
X101332857Y-54692571D01*
X101447142Y-54692571D01*
X101504285Y-54664000D01*
X101532857Y-54635428D01*
X101561428Y-54578285D01*
X101561428Y-54464000D01*
X101532857Y-54406857D01*
X101504285Y-54378285D01*
X101447142Y-54349714D01*
X101332857Y-54349714D01*
X101275714Y-54378285D01*
X101247142Y-54406857D01*
X101218571Y-54464000D01*
D11*
X151363333Y-96616666D02*
X151596666Y-97316666D01*
X151830000Y-96616666D01*
X152463333Y-97250000D02*
X152430000Y-97283333D01*
X152330000Y-97316666D01*
X152263333Y-97316666D01*
X152163333Y-97283333D01*
X152096666Y-97216666D01*
X152063333Y-97150000D01*
X152030000Y-97016666D01*
X152030000Y-96916666D01*
X152063333Y-96783333D01*
X152096666Y-96716666D01*
X152163333Y-96650000D01*
X152263333Y-96616666D01*
X152330000Y-96616666D01*
X152430000Y-96650000D01*
X152463333Y-96683333D01*
X153130000Y-97316666D02*
X152730000Y-97316666D01*
X152930000Y-97316666D02*
X152930000Y-96616666D01*
X152863333Y-96716666D01*
X152796666Y-96783333D01*
X152730000Y-96816666D01*
X149083333Y-96616666D02*
X149316666Y-97316666D01*
X149550000Y-96616666D01*
X150183333Y-97250000D02*
X150150000Y-97283333D01*
X150050000Y-97316666D01*
X149983333Y-97316666D01*
X149883333Y-97283333D01*
X149816666Y-97216666D01*
X149783333Y-97150000D01*
X149750000Y-97016666D01*
X149750000Y-96916666D01*
X149783333Y-96783333D01*
X149816666Y-96716666D01*
X149883333Y-96650000D01*
X149983333Y-96616666D01*
X150050000Y-96616666D01*
X150150000Y-96650000D01*
X150183333Y-96683333D01*
X150616666Y-96616666D02*
X150683333Y-96616666D01*
X150750000Y-96650000D01*
X150783333Y-96683333D01*
X150816666Y-96750000D01*
X150850000Y-96883333D01*
X150850000Y-97050000D01*
X150816666Y-97183333D01*
X150783333Y-97250000D01*
X150750000Y-97283333D01*
X150683333Y-97316666D01*
X150616666Y-97316666D01*
X150550000Y-97283333D01*
X150516666Y-97250000D01*
X150483333Y-97183333D01*
X150450000Y-97050000D01*
X150450000Y-96883333D01*
X150483333Y-96750000D01*
X150516666Y-96683333D01*
X150550000Y-96650000D01*
X150616666Y-96616666D01*
D10*
X112451428Y-86544000D02*
X112451428Y-87544000D01*
X111565714Y-87244000D02*
X112022857Y-87044000D01*
X111565714Y-86844000D01*
X138128571Y-90664000D02*
X138128571Y-89664000D01*
X139014285Y-89964000D02*
X138557142Y-90164000D01*
X139014285Y-90364000D01*
X142511428Y-77792857D02*
X142968571Y-77792857D01*
X142740000Y-78021428D02*
X142740000Y-77564285D01*
D11*
X142163333Y-91154000D02*
X142696666Y-91154000D01*
X118370000Y-93817333D02*
X118336666Y-93884000D01*
X118336666Y-93984000D01*
X118370000Y-94084000D01*
X118436666Y-94150666D01*
X118503333Y-94184000D01*
X118636666Y-94217333D01*
X118736666Y-94217333D01*
X118870000Y-94184000D01*
X118936666Y-94150666D01*
X119003333Y-94084000D01*
X119036666Y-93984000D01*
X119036666Y-93917333D01*
X119003333Y-93817333D01*
X118970000Y-93784000D01*
X118736666Y-93784000D01*
X118736666Y-93917333D01*
X119036666Y-93484000D02*
X118336666Y-93484000D01*
X119036666Y-93084000D01*
X118336666Y-93084000D01*
X119036666Y-92750666D02*
X118336666Y-92750666D01*
X118336666Y-92584000D01*
X118370000Y-92484000D01*
X118436666Y-92417333D01*
X118503333Y-92384000D01*
X118636666Y-92350666D01*
X118736666Y-92350666D01*
X118870000Y-92384000D01*
X118936666Y-92417333D01*
X119003333Y-92484000D01*
X119036666Y-92584000D01*
X119036666Y-92750666D01*
X127736666Y-90094000D02*
X127670000Y-90060666D01*
X127570000Y-90060666D01*
X127470000Y-90094000D01*
X127403333Y-90160666D01*
X127370000Y-90227333D01*
X127336666Y-90360666D01*
X127336666Y-90460666D01*
X127370000Y-90594000D01*
X127403333Y-90660666D01*
X127470000Y-90727333D01*
X127570000Y-90760666D01*
X127636666Y-90760666D01*
X127736666Y-90727333D01*
X127770000Y-90694000D01*
X127770000Y-90460666D01*
X127636666Y-90460666D01*
X128070000Y-90760666D02*
X128070000Y-90060666D01*
X128470000Y-90760666D01*
X128470000Y-90060666D01*
X128803333Y-90760666D02*
X128803333Y-90060666D01*
X128970000Y-90060666D01*
X129070000Y-90094000D01*
X129136666Y-90160666D01*
X129170000Y-90227333D01*
X129203333Y-90360666D01*
X129203333Y-90460666D01*
X129170000Y-90594000D01*
X129136666Y-90660666D01*
X129070000Y-90727333D01*
X128970000Y-90760666D01*
X128803333Y-90760666D01*
X126227000Y-81584000D02*
X126760333Y-81584000D01*
X126493666Y-81850666D02*
X126493666Y-81317333D01*
X127427000Y-81150666D02*
X127093666Y-81150666D01*
X127060333Y-81484000D01*
X127093666Y-81450666D01*
X127160333Y-81417333D01*
X127327000Y-81417333D01*
X127393666Y-81450666D01*
X127427000Y-81484000D01*
X127460333Y-81550666D01*
X127460333Y-81717333D01*
X127427000Y-81784000D01*
X127393666Y-81817333D01*
X127327000Y-81850666D01*
X127160333Y-81850666D01*
X127093666Y-81817333D01*
X127060333Y-81784000D01*
X127660333Y-81150666D02*
X127893666Y-81850666D01*
X128127000Y-81150666D01*
X103300000Y-81074000D02*
X103833333Y-81074000D01*
X103566666Y-81340666D02*
X103566666Y-80807333D01*
X104500000Y-80640666D02*
X104166666Y-80640666D01*
X104133333Y-80974000D01*
X104166666Y-80940666D01*
X104233333Y-80907333D01*
X104400000Y-80907333D01*
X104466666Y-80940666D01*
X104500000Y-80974000D01*
X104533333Y-81040666D01*
X104533333Y-81207333D01*
X104500000Y-81274000D01*
X104466666Y-81307333D01*
X104400000Y-81340666D01*
X104233333Y-81340666D01*
X104166666Y-81307333D01*
X104133333Y-81274000D01*
X104733333Y-80640666D02*
X104966666Y-81340666D01*
X105200000Y-80640666D01*
X106156666Y-80550000D02*
X106090000Y-80516666D01*
X105990000Y-80516666D01*
X105890000Y-80550000D01*
X105823333Y-80616666D01*
X105790000Y-80683333D01*
X105756666Y-80816666D01*
X105756666Y-80916666D01*
X105790000Y-81050000D01*
X105823333Y-81116666D01*
X105890000Y-81183333D01*
X105990000Y-81216666D01*
X106056666Y-81216666D01*
X106156666Y-81183333D01*
X106190000Y-81150000D01*
X106190000Y-80916666D01*
X106056666Y-80916666D01*
X106490000Y-81216666D02*
X106490000Y-80516666D01*
X106890000Y-81216666D01*
X106890000Y-80516666D01*
X107223333Y-81216666D02*
X107223333Y-80516666D01*
X107390000Y-80516666D01*
X107490000Y-80550000D01*
X107556666Y-80616666D01*
X107590000Y-80683333D01*
X107623333Y-80816666D01*
X107623333Y-80916666D01*
X107590000Y-81050000D01*
X107556666Y-81116666D01*
X107490000Y-81183333D01*
X107390000Y-81216666D01*
X107223333Y-81216666D01*
X161986666Y-84680000D02*
X161920000Y-84646666D01*
X161820000Y-84646666D01*
X161720000Y-84680000D01*
X161653333Y-84746666D01*
X161620000Y-84813333D01*
X161586666Y-84946666D01*
X161586666Y-85046666D01*
X161620000Y-85180000D01*
X161653333Y-85246666D01*
X161720000Y-85313333D01*
X161820000Y-85346666D01*
X161886666Y-85346666D01*
X161986666Y-85313333D01*
X162020000Y-85280000D01*
X162020000Y-85046666D01*
X161886666Y-85046666D01*
X162320000Y-85346666D02*
X162320000Y-84646666D01*
X162720000Y-85346666D01*
X162720000Y-84646666D01*
X163053333Y-85346666D02*
X163053333Y-84646666D01*
X163220000Y-84646666D01*
X163320000Y-84680000D01*
X163386666Y-84746666D01*
X163420000Y-84813333D01*
X163453333Y-84946666D01*
X163453333Y-85046666D01*
X163420000Y-85180000D01*
X163386666Y-85246666D01*
X163320000Y-85313333D01*
X163220000Y-85346666D01*
X163053333Y-85346666D01*
X134405000Y-67299333D02*
X134505000Y-67332666D01*
X134671666Y-67332666D01*
X134738333Y-67299333D01*
X134771666Y-67266000D01*
X134805000Y-67199333D01*
X134805000Y-67132666D01*
X134771666Y-67066000D01*
X134738333Y-67032666D01*
X134671666Y-66999333D01*
X134538333Y-66966000D01*
X134471666Y-66932666D01*
X134438333Y-66899333D01*
X134405000Y-66832666D01*
X134405000Y-66766000D01*
X134438333Y-66699333D01*
X134471666Y-66666000D01*
X134538333Y-66632666D01*
X134705000Y-66632666D01*
X134805000Y-66666000D01*
X135105000Y-67332666D02*
X135105000Y-66632666D01*
X135271666Y-66632666D01*
X135371666Y-66666000D01*
X135438333Y-66732666D01*
X135471666Y-66799333D01*
X135505000Y-66932666D01*
X135505000Y-67032666D01*
X135471666Y-67166000D01*
X135438333Y-67232666D01*
X135371666Y-67299333D01*
X135271666Y-67332666D01*
X135105000Y-67332666D01*
X135771666Y-67132666D02*
X136105000Y-67132666D01*
X135705000Y-67332666D02*
X135938333Y-66632666D01*
X136171666Y-67332666D01*
X131881666Y-67299333D02*
X131981666Y-67332666D01*
X132148333Y-67332666D01*
X132215000Y-67299333D01*
X132248333Y-67266000D01*
X132281666Y-67199333D01*
X132281666Y-67132666D01*
X132248333Y-67066000D01*
X132215000Y-67032666D01*
X132148333Y-66999333D01*
X132015000Y-66966000D01*
X131948333Y-66932666D01*
X131915000Y-66899333D01*
X131881666Y-66832666D01*
X131881666Y-66766000D01*
X131915000Y-66699333D01*
X131948333Y-66666000D01*
X132015000Y-66632666D01*
X132181666Y-66632666D01*
X132281666Y-66666000D01*
X132981666Y-67266000D02*
X132948333Y-67299333D01*
X132848333Y-67332666D01*
X132781666Y-67332666D01*
X132681666Y-67299333D01*
X132615000Y-67232666D01*
X132581666Y-67166000D01*
X132548333Y-67032666D01*
X132548333Y-66932666D01*
X132581666Y-66799333D01*
X132615000Y-66732666D01*
X132681666Y-66666000D01*
X132781666Y-66632666D01*
X132848333Y-66632666D01*
X132948333Y-66666000D01*
X132981666Y-66699333D01*
X133615000Y-67332666D02*
X133281666Y-67332666D01*
X133281666Y-66632666D01*
X125766666Y-67056000D02*
X126300000Y-67056000D01*
X126033333Y-67322666D02*
X126033333Y-66789333D01*
X126566666Y-66622666D02*
X127000000Y-66622666D01*
X126766666Y-66889333D01*
X126866666Y-66889333D01*
X126933333Y-66922666D01*
X126966666Y-66956000D01*
X127000000Y-67022666D01*
X127000000Y-67189333D01*
X126966666Y-67256000D01*
X126933333Y-67289333D01*
X126866666Y-67322666D01*
X126666666Y-67322666D01*
X126600000Y-67289333D01*
X126566666Y-67256000D01*
X127200000Y-66622666D02*
X127433333Y-67322666D01*
X127666666Y-66622666D01*
X127833333Y-66622666D02*
X128266666Y-66622666D01*
X128033333Y-66889333D01*
X128133333Y-66889333D01*
X128200000Y-66922666D01*
X128233333Y-66956000D01*
X128266666Y-67022666D01*
X128266666Y-67189333D01*
X128233333Y-67256000D01*
X128200000Y-67289333D01*
X128133333Y-67322666D01*
X127933333Y-67322666D01*
X127866666Y-67289333D01*
X127833333Y-67256000D01*
X129641666Y-66646000D02*
X129575000Y-66612666D01*
X129475000Y-66612666D01*
X129375000Y-66646000D01*
X129308333Y-66712666D01*
X129275000Y-66779333D01*
X129241666Y-66912666D01*
X129241666Y-67012666D01*
X129275000Y-67146000D01*
X129308333Y-67212666D01*
X129375000Y-67279333D01*
X129475000Y-67312666D01*
X129541666Y-67312666D01*
X129641666Y-67279333D01*
X129675000Y-67246000D01*
X129675000Y-67012666D01*
X129541666Y-67012666D01*
X129975000Y-67312666D02*
X129975000Y-66612666D01*
X130375000Y-67312666D01*
X130375000Y-66612666D01*
X130708333Y-67312666D02*
X130708333Y-66612666D01*
X130875000Y-66612666D01*
X130975000Y-66646000D01*
X131041666Y-66712666D01*
X131075000Y-66779333D01*
X131108333Y-66912666D01*
X131108333Y-67012666D01*
X131075000Y-67146000D01*
X131041666Y-67212666D01*
X130975000Y-67279333D01*
X130875000Y-67312666D01*
X130708333Y-67312666D01*
D12*
X115741190Y-88314761D02*
X115741190Y-86314761D01*
X116217380Y-86314761D01*
X116503095Y-86410000D01*
X116693571Y-86600476D01*
X116788809Y-86790952D01*
X116884047Y-87171904D01*
X116884047Y-87457619D01*
X116788809Y-87838571D01*
X116693571Y-88029047D01*
X116503095Y-88219523D01*
X116217380Y-88314761D01*
X115741190Y-88314761D01*
X117741190Y-88314761D02*
X117741190Y-86981428D01*
X117741190Y-86314761D02*
X117645952Y-86410000D01*
X117741190Y-86505238D01*
X117836428Y-86410000D01*
X117741190Y-86314761D01*
X117741190Y-86505238D01*
X118693571Y-86981428D02*
X118693571Y-88314761D01*
X118693571Y-87171904D02*
X118788809Y-87076666D01*
X118979285Y-86981428D01*
X119265000Y-86981428D01*
X119455476Y-87076666D01*
X119550714Y-87267142D01*
X119550714Y-88314761D01*
X121360238Y-86981428D02*
X121360238Y-88600476D01*
X121265000Y-88790952D01*
X121169761Y-88886190D01*
X120979285Y-88981428D01*
X120693571Y-88981428D01*
X120503095Y-88886190D01*
X121360238Y-88219523D02*
X121169761Y-88314761D01*
X120788809Y-88314761D01*
X120598333Y-88219523D01*
X120503095Y-88124285D01*
X120407857Y-87933809D01*
X120407857Y-87362380D01*
X120503095Y-87171904D01*
X120598333Y-87076666D01*
X120788809Y-86981428D01*
X121169761Y-86981428D01*
X121360238Y-87076666D01*
X122598333Y-88314761D02*
X122407857Y-88219523D01*
X122312619Y-88124285D01*
X122217380Y-87933809D01*
X122217380Y-87362380D01*
X122312619Y-87171904D01*
X122407857Y-87076666D01*
X122598333Y-86981428D01*
X122884047Y-86981428D01*
X123074523Y-87076666D01*
X123169761Y-87171904D01*
X123265000Y-87362380D01*
X123265000Y-87933809D01*
X123169761Y-88124285D01*
X123074523Y-88219523D01*
X122884047Y-88314761D01*
X122598333Y-88314761D01*
X124122142Y-87552857D02*
X125645952Y-87552857D01*
X126598333Y-88314761D02*
X126598333Y-86314761D01*
X126598333Y-87267142D02*
X127741190Y-87267142D01*
X127741190Y-88314761D02*
X127741190Y-86314761D01*
X129550714Y-88314761D02*
X129550714Y-87267142D01*
X129455476Y-87076666D01*
X129265000Y-86981428D01*
X128884047Y-86981428D01*
X128693571Y-87076666D01*
X129550714Y-88219523D02*
X129360238Y-88314761D01*
X128884047Y-88314761D01*
X128693571Y-88219523D01*
X128598333Y-88029047D01*
X128598333Y-87838571D01*
X128693571Y-87648095D01*
X128884047Y-87552857D01*
X129360238Y-87552857D01*
X129550714Y-87457619D01*
X130217380Y-86981428D02*
X130979285Y-86981428D01*
X130503095Y-86314761D02*
X130503095Y-88029047D01*
X130598333Y-88219523D01*
X130788809Y-88314761D01*
X130979285Y-88314761D01*
D13*
G36*
X153353686Y-70581193D02*
G01*
X153368123Y-70588048D01*
X153461682Y-70642825D01*
X153556966Y-70711036D01*
X153650492Y-70790001D01*
X153725767Y-70863323D01*
X153821143Y-70973733D01*
X153901091Y-71090616D01*
X153966168Y-71215014D01*
X154016928Y-71347973D01*
X154049906Y-71471552D01*
X154056185Y-71510760D01*
X154060730Y-71560413D01*
X154063513Y-71616402D01*
X154064503Y-71674619D01*
X154063673Y-71730954D01*
X154060991Y-71781300D01*
X154056430Y-71821548D01*
X154052533Y-71840033D01*
X154017411Y-71934727D01*
X153968244Y-72021518D01*
X153906376Y-72099575D01*
X153833147Y-72168066D01*
X153749899Y-72226159D01*
X153657975Y-72273024D01*
X153558717Y-72307828D01*
X153453466Y-72329739D01*
X153343565Y-72337926D01*
X153255100Y-72334215D01*
X153159291Y-72317940D01*
X153063350Y-72287883D01*
X152970604Y-72245768D01*
X152884381Y-72193318D01*
X152808006Y-72132255D01*
X152752539Y-72073926D01*
X152694185Y-71990893D01*
X152651884Y-71902719D01*
X152625311Y-71808548D01*
X152614347Y-71713033D01*
X152617298Y-71585903D01*
X152636205Y-71458141D01*
X152670260Y-71331504D01*
X152718656Y-71207749D01*
X152780585Y-71088632D01*
X152855239Y-70975911D01*
X152941810Y-70871341D01*
X153039490Y-70776680D01*
X153048453Y-70769000D01*
X153094693Y-70731726D01*
X153146851Y-70692874D01*
X153200474Y-70655528D01*
X153251105Y-70622775D01*
X153294290Y-70597700D01*
X153300390Y-70594516D01*
X153324447Y-70582863D01*
X153340059Y-70578628D01*
X153353686Y-70581193D01*
X153353686Y-70581193D01*
G37*
X153353686Y-70581193D02*
X153368123Y-70588048D01*
X153461682Y-70642825D01*
X153556966Y-70711036D01*
X153650492Y-70790001D01*
X153725767Y-70863323D01*
X153821143Y-70973733D01*
X153901091Y-71090616D01*
X153966168Y-71215014D01*
X154016928Y-71347973D01*
X154049906Y-71471552D01*
X154056185Y-71510760D01*
X154060730Y-71560413D01*
X154063513Y-71616402D01*
X154064503Y-71674619D01*
X154063673Y-71730954D01*
X154060991Y-71781300D01*
X154056430Y-71821548D01*
X154052533Y-71840033D01*
X154017411Y-71934727D01*
X153968244Y-72021518D01*
X153906376Y-72099575D01*
X153833147Y-72168066D01*
X153749899Y-72226159D01*
X153657975Y-72273024D01*
X153558717Y-72307828D01*
X153453466Y-72329739D01*
X153343565Y-72337926D01*
X153255100Y-72334215D01*
X153159291Y-72317940D01*
X153063350Y-72287883D01*
X152970604Y-72245768D01*
X152884381Y-72193318D01*
X152808006Y-72132255D01*
X152752539Y-72073926D01*
X152694185Y-71990893D01*
X152651884Y-71902719D01*
X152625311Y-71808548D01*
X152614347Y-71713033D01*
X152617298Y-71585903D01*
X152636205Y-71458141D01*
X152670260Y-71331504D01*
X152718656Y-71207749D01*
X152780585Y-71088632D01*
X152855239Y-70975911D01*
X152941810Y-70871341D01*
X153039490Y-70776680D01*
X153048453Y-70769000D01*
X153094693Y-70731726D01*
X153146851Y-70692874D01*
X153200474Y-70655528D01*
X153251105Y-70622775D01*
X153294290Y-70597700D01*
X153300390Y-70594516D01*
X153324447Y-70582863D01*
X153340059Y-70578628D01*
X153353686Y-70581193D01*
G36*
X151641385Y-70595732D02*
G01*
X151669732Y-70611900D01*
X151705310Y-70633518D01*
X151741381Y-70656470D01*
X151748800Y-70661347D01*
X151867260Y-70748937D01*
X151973574Y-70846367D01*
X152067131Y-70952565D01*
X152147320Y-71066461D01*
X152213530Y-71186983D01*
X152265151Y-71313059D01*
X152301570Y-71443619D01*
X152322178Y-71577591D01*
X152326879Y-71674933D01*
X152324485Y-71748898D01*
X152315778Y-71812717D01*
X152299530Y-71872397D01*
X152274509Y-71933945D01*
X152273324Y-71936498D01*
X152222556Y-72025781D01*
X152158546Y-72105602D01*
X152082625Y-72175120D01*
X151996124Y-72233493D01*
X151900375Y-72279879D01*
X151796711Y-72313438D01*
X151686461Y-72333329D01*
X151638733Y-72337392D01*
X151604452Y-72338693D01*
X151572351Y-72338797D01*
X151554067Y-72338003D01*
X151434895Y-72320975D01*
X151326477Y-72291203D01*
X151228005Y-72248315D01*
X151138669Y-72191939D01*
X151057661Y-72121703D01*
X151036652Y-72099817D01*
X150973097Y-72020857D01*
X150925065Y-71937782D01*
X150892185Y-71849375D01*
X150874085Y-71754417D01*
X150870395Y-71651691D01*
X150876271Y-71573772D01*
X150901064Y-71431795D01*
X150941533Y-71295771D01*
X150997307Y-71166250D01*
X151068015Y-71043782D01*
X151153284Y-70928917D01*
X151252745Y-70822204D01*
X151366024Y-70724193D01*
X151492751Y-70635434D01*
X151522852Y-70616932D01*
X151597471Y-70572159D01*
X151641385Y-70595732D01*
X151641385Y-70595732D01*
G37*
X151641385Y-70595732D02*
X151669732Y-70611900D01*
X151705310Y-70633518D01*
X151741381Y-70656470D01*
X151748800Y-70661347D01*
X151867260Y-70748937D01*
X151973574Y-70846367D01*
X152067131Y-70952565D01*
X152147320Y-71066461D01*
X152213530Y-71186983D01*
X152265151Y-71313059D01*
X152301570Y-71443619D01*
X152322178Y-71577591D01*
X152326879Y-71674933D01*
X152324485Y-71748898D01*
X152315778Y-71812717D01*
X152299530Y-71872397D01*
X152274509Y-71933945D01*
X152273324Y-71936498D01*
X152222556Y-72025781D01*
X152158546Y-72105602D01*
X152082625Y-72175120D01*
X151996124Y-72233493D01*
X151900375Y-72279879D01*
X151796711Y-72313438D01*
X151686461Y-72333329D01*
X151638733Y-72337392D01*
X151604452Y-72338693D01*
X151572351Y-72338797D01*
X151554067Y-72338003D01*
X151434895Y-72320975D01*
X151326477Y-72291203D01*
X151228005Y-72248315D01*
X151138669Y-72191939D01*
X151057661Y-72121703D01*
X151036652Y-72099817D01*
X150973097Y-72020857D01*
X150925065Y-71937782D01*
X150892185Y-71849375D01*
X150874085Y-71754417D01*
X150870395Y-71651691D01*
X150876271Y-71573772D01*
X150901064Y-71431795D01*
X150941533Y-71295771D01*
X150997307Y-71166250D01*
X151068015Y-71043782D01*
X151153284Y-70928917D01*
X151252745Y-70822204D01*
X151366024Y-70724193D01*
X151492751Y-70635434D01*
X151522852Y-70616932D01*
X151597471Y-70572159D01*
X151641385Y-70595732D01*
G36*
X154500983Y-71988463D02*
G01*
X154581956Y-72035574D01*
X154666216Y-72095071D01*
X154750267Y-72163825D01*
X154830609Y-72238709D01*
X154903745Y-72316593D01*
X154966177Y-72394349D01*
X154985231Y-72421518D01*
X155055911Y-72540327D01*
X155112855Y-72665280D01*
X155155370Y-72794188D01*
X155182760Y-72924862D01*
X155194329Y-73055114D01*
X155194683Y-73081162D01*
X155186587Y-73179955D01*
X155162785Y-73274387D01*
X155124195Y-73363331D01*
X155071734Y-73445655D01*
X155006320Y-73520230D01*
X154928868Y-73585926D01*
X154840297Y-73641615D01*
X154741523Y-73686166D01*
X154689244Y-73703718D01*
X154655701Y-73713044D01*
X154624632Y-73719619D01*
X154591425Y-73724019D01*
X154551463Y-73726821D01*
X154500133Y-73728602D01*
X154487767Y-73728894D01*
X154414744Y-73729291D01*
X154356964Y-73726811D01*
X154312973Y-73721382D01*
X154305733Y-73719943D01*
X154195059Y-73688425D01*
X154093748Y-73643651D01*
X154002638Y-73586344D01*
X153922571Y-73517233D01*
X153854385Y-73437042D01*
X153798921Y-73346496D01*
X153757018Y-73246323D01*
X153756745Y-73245500D01*
X153749934Y-73213961D01*
X153745255Y-73169531D01*
X153742693Y-73116115D01*
X153742230Y-73057620D01*
X153743851Y-72997949D01*
X153747538Y-72941010D01*
X153753276Y-72890706D01*
X153758353Y-72862229D01*
X153796840Y-72722594D01*
X153850271Y-72590517D01*
X153918827Y-72465692D01*
X154002691Y-72347811D01*
X154102043Y-72236569D01*
X154165310Y-72176343D01*
X154208269Y-72140042D01*
X154258872Y-72101022D01*
X154312631Y-72062449D01*
X154365055Y-72027490D01*
X154411659Y-71999313D01*
X154430617Y-71989139D01*
X154466600Y-71970922D01*
X154500983Y-71988463D01*
X154500983Y-71988463D01*
G37*
X154500983Y-71988463D02*
X154581956Y-72035574D01*
X154666216Y-72095071D01*
X154750267Y-72163825D01*
X154830609Y-72238709D01*
X154903745Y-72316593D01*
X154966177Y-72394349D01*
X154985231Y-72421518D01*
X155055911Y-72540327D01*
X155112855Y-72665280D01*
X155155370Y-72794188D01*
X155182760Y-72924862D01*
X155194329Y-73055114D01*
X155194683Y-73081162D01*
X155186587Y-73179955D01*
X155162785Y-73274387D01*
X155124195Y-73363331D01*
X155071734Y-73445655D01*
X155006320Y-73520230D01*
X154928868Y-73585926D01*
X154840297Y-73641615D01*
X154741523Y-73686166D01*
X154689244Y-73703718D01*
X154655701Y-73713044D01*
X154624632Y-73719619D01*
X154591425Y-73724019D01*
X154551463Y-73726821D01*
X154500133Y-73728602D01*
X154487767Y-73728894D01*
X154414744Y-73729291D01*
X154356964Y-73726811D01*
X154312973Y-73721382D01*
X154305733Y-73719943D01*
X154195059Y-73688425D01*
X154093748Y-73643651D01*
X154002638Y-73586344D01*
X153922571Y-73517233D01*
X153854385Y-73437042D01*
X153798921Y-73346496D01*
X153757018Y-73246323D01*
X153756745Y-73245500D01*
X153749934Y-73213961D01*
X153745255Y-73169531D01*
X153742693Y-73116115D01*
X153742230Y-73057620D01*
X153743851Y-72997949D01*
X153747538Y-72941010D01*
X153753276Y-72890706D01*
X153758353Y-72862229D01*
X153796840Y-72722594D01*
X153850271Y-72590517D01*
X153918827Y-72465692D01*
X154002691Y-72347811D01*
X154102043Y-72236569D01*
X154165310Y-72176343D01*
X154208269Y-72140042D01*
X154258872Y-72101022D01*
X154312631Y-72062449D01*
X154365055Y-72027490D01*
X154411659Y-71999313D01*
X154430617Y-71989139D01*
X154466600Y-71970922D01*
X154500983Y-71988463D01*
G36*
X150516217Y-71992506D02*
G01*
X150642845Y-72071412D01*
X150758297Y-72160691D01*
X150861914Y-72259303D01*
X150953035Y-72366204D01*
X151031002Y-72480352D01*
X151095157Y-72600705D01*
X151144838Y-72726221D01*
X151179389Y-72855859D01*
X151198149Y-72988575D01*
X151201563Y-73076167D01*
X151199149Y-73147957D01*
X151191337Y-73208908D01*
X151176905Y-73264590D01*
X151154633Y-73320574D01*
X151142426Y-73345959D01*
X151088781Y-73434403D01*
X151021765Y-73513631D01*
X150942868Y-73582541D01*
X150853582Y-73640031D01*
X150755398Y-73684997D01*
X150649806Y-73716339D01*
X150637907Y-73718886D01*
X150587289Y-73726232D01*
X150526164Y-73730380D01*
X150460333Y-73731340D01*
X150395597Y-73729123D01*
X150337758Y-73723739D01*
X150305365Y-73718283D01*
X150202203Y-73688472D01*
X150105757Y-73645351D01*
X150017499Y-73590238D01*
X149938904Y-73524450D01*
X149871446Y-73449305D01*
X149816599Y-73366120D01*
X149775838Y-73276212D01*
X149762180Y-73232800D01*
X149753890Y-73188415D01*
X149749066Y-73132019D01*
X149747705Y-73068177D01*
X149749799Y-73001450D01*
X149755347Y-72936403D01*
X149762531Y-72887170D01*
X149795443Y-72752156D01*
X149844139Y-72621898D01*
X149907892Y-72497393D01*
X149985973Y-72379640D01*
X150077655Y-72269637D01*
X150182210Y-72168385D01*
X150298911Y-72076881D01*
X150400695Y-72011269D01*
X150473200Y-71968595D01*
X150516217Y-71992506D01*
X150516217Y-71992506D01*
G37*
X150516217Y-71992506D02*
X150642845Y-72071412D01*
X150758297Y-72160691D01*
X150861914Y-72259303D01*
X150953035Y-72366204D01*
X151031002Y-72480352D01*
X151095157Y-72600705D01*
X151144838Y-72726221D01*
X151179389Y-72855859D01*
X151198149Y-72988575D01*
X151201563Y-73076167D01*
X151199149Y-73147957D01*
X151191337Y-73208908D01*
X151176905Y-73264590D01*
X151154633Y-73320574D01*
X151142426Y-73345959D01*
X151088781Y-73434403D01*
X151021765Y-73513631D01*
X150942868Y-73582541D01*
X150853582Y-73640031D01*
X150755398Y-73684997D01*
X150649806Y-73716339D01*
X150637907Y-73718886D01*
X150587289Y-73726232D01*
X150526164Y-73730380D01*
X150460333Y-73731340D01*
X150395597Y-73729123D01*
X150337758Y-73723739D01*
X150305365Y-73718283D01*
X150202203Y-73688472D01*
X150105757Y-73645351D01*
X150017499Y-73590238D01*
X149938904Y-73524450D01*
X149871446Y-73449305D01*
X149816599Y-73366120D01*
X149775838Y-73276212D01*
X149762180Y-73232800D01*
X149753890Y-73188415D01*
X149749066Y-73132019D01*
X149747705Y-73068177D01*
X149749799Y-73001450D01*
X149755347Y-72936403D01*
X149762531Y-72887170D01*
X149795443Y-72752156D01*
X149844139Y-72621898D01*
X149907892Y-72497393D01*
X149985973Y-72379640D01*
X150077655Y-72269637D01*
X150182210Y-72168385D01*
X150298911Y-72076881D01*
X150400695Y-72011269D01*
X150473200Y-71968595D01*
X150516217Y-71992506D01*
G36*
X152534021Y-72425457D02*
G01*
X152587871Y-72428179D01*
X152635192Y-72433750D01*
X152681158Y-72442916D01*
X152730944Y-72456426D01*
X152769033Y-72468287D01*
X152875735Y-72510809D01*
X152974890Y-72566651D01*
X153064866Y-72634400D01*
X153144030Y-72712641D01*
X153210749Y-72799960D01*
X153263390Y-72894943D01*
X153264519Y-72897418D01*
X153276269Y-72926956D01*
X153290302Y-72967802D01*
X153304945Y-73014798D01*
X153318523Y-73062789D01*
X153319881Y-73067913D01*
X153350815Y-73175863D01*
X153384032Y-73271059D01*
X153421483Y-73357678D01*
X153465121Y-73439897D01*
X153516895Y-73521891D01*
X153561068Y-73584167D01*
X153612680Y-73650605D01*
X153666328Y-73712031D01*
X153725444Y-73771980D01*
X153793460Y-73833987D01*
X153850596Y-73882495D01*
X153921931Y-73944516D01*
X153980345Y-74002056D01*
X154028245Y-74057822D01*
X154068043Y-74114521D01*
X154089245Y-74150494D01*
X154134484Y-74248946D01*
X154163384Y-74349648D01*
X154176168Y-74451314D01*
X154173058Y-74552659D01*
X154154276Y-74652398D01*
X154120043Y-74749247D01*
X154070582Y-74841921D01*
X154006115Y-74929134D01*
X153943398Y-74994566D01*
X153850281Y-75070136D01*
X153748318Y-75131441D01*
X153638237Y-75178183D01*
X153520767Y-75210062D01*
X153396638Y-75226779D01*
X153373879Y-75228143D01*
X153305325Y-75229842D01*
X153242165Y-75227394D01*
X153179478Y-75220187D01*
X153112342Y-75207606D01*
X153035836Y-75189040D01*
X153014566Y-75183363D01*
X152833653Y-75141766D01*
X152656857Y-75116261D01*
X152483038Y-75106847D01*
X152311052Y-75113520D01*
X152139756Y-75136278D01*
X151968008Y-75175118D01*
X151946866Y-75180986D01*
X151812992Y-75212166D01*
X151684876Y-75228365D01*
X151563157Y-75229536D01*
X151458014Y-75217414D01*
X151364097Y-75194750D01*
X151269124Y-75161390D01*
X151179107Y-75119746D01*
X151105333Y-75075850D01*
X151072488Y-75050751D01*
X151033374Y-75016602D01*
X150992303Y-74977574D01*
X150953589Y-74937836D01*
X150921542Y-74901561D01*
X150910133Y-74887059D01*
X150854260Y-74799720D01*
X150813948Y-74707998D01*
X150788536Y-74609987D01*
X150777366Y-74503780D01*
X150777329Y-74502800D01*
X150778101Y-74413669D01*
X150788328Y-74333820D01*
X150809157Y-74257775D01*
X150841737Y-74180061D01*
X150847486Y-74168366D01*
X150873171Y-74120477D01*
X150900605Y-74077397D01*
X150932096Y-74036459D01*
X150969955Y-73994993D01*
X151016492Y-73950332D01*
X151074016Y-73899807D01*
X151096073Y-73881166D01*
X151210474Y-73778782D01*
X151309484Y-73675792D01*
X151394561Y-73569929D01*
X151467167Y-73458924D01*
X151528759Y-73340511D01*
X151580799Y-73212420D01*
X151624746Y-73072385D01*
X151630583Y-73050767D01*
X151659812Y-72954764D01*
X151693826Y-72872011D01*
X151734580Y-72799063D01*
X151784030Y-72732475D01*
X151844133Y-72668800D01*
X151851269Y-72662022D01*
X151937869Y-72589997D01*
X152031321Y-72531053D01*
X152133989Y-72483938D01*
X152248235Y-72447400D01*
X152263511Y-72443499D01*
X152298735Y-72435674D01*
X152333559Y-72430307D01*
X152372524Y-72426985D01*
X152420168Y-72425293D01*
X152468467Y-72424834D01*
X152534021Y-72425457D01*
X152534021Y-72425457D01*
G37*
X152534021Y-72425457D02*
X152587871Y-72428179D01*
X152635192Y-72433750D01*
X152681158Y-72442916D01*
X152730944Y-72456426D01*
X152769033Y-72468287D01*
X152875735Y-72510809D01*
X152974890Y-72566651D01*
X153064866Y-72634400D01*
X153144030Y-72712641D01*
X153210749Y-72799960D01*
X153263390Y-72894943D01*
X153264519Y-72897418D01*
X153276269Y-72926956D01*
X153290302Y-72967802D01*
X153304945Y-73014798D01*
X153318523Y-73062789D01*
X153319881Y-73067913D01*
X153350815Y-73175863D01*
X153384032Y-73271059D01*
X153421483Y-73357678D01*
X153465121Y-73439897D01*
X153516895Y-73521891D01*
X153561068Y-73584167D01*
X153612680Y-73650605D01*
X153666328Y-73712031D01*
X153725444Y-73771980D01*
X153793460Y-73833987D01*
X153850596Y-73882495D01*
X153921931Y-73944516D01*
X153980345Y-74002056D01*
X154028245Y-74057822D01*
X154068043Y-74114521D01*
X154089245Y-74150494D01*
X154134484Y-74248946D01*
X154163384Y-74349648D01*
X154176168Y-74451314D01*
X154173058Y-74552659D01*
X154154276Y-74652398D01*
X154120043Y-74749247D01*
X154070582Y-74841921D01*
X154006115Y-74929134D01*
X153943398Y-74994566D01*
X153850281Y-75070136D01*
X153748318Y-75131441D01*
X153638237Y-75178183D01*
X153520767Y-75210062D01*
X153396638Y-75226779D01*
X153373879Y-75228143D01*
X153305325Y-75229842D01*
X153242165Y-75227394D01*
X153179478Y-75220187D01*
X153112342Y-75207606D01*
X153035836Y-75189040D01*
X153014566Y-75183363D01*
X152833653Y-75141766D01*
X152656857Y-75116261D01*
X152483038Y-75106847D01*
X152311052Y-75113520D01*
X152139756Y-75136278D01*
X151968008Y-75175118D01*
X151946866Y-75180986D01*
X151812992Y-75212166D01*
X151684876Y-75228365D01*
X151563157Y-75229536D01*
X151458014Y-75217414D01*
X151364097Y-75194750D01*
X151269124Y-75161390D01*
X151179107Y-75119746D01*
X151105333Y-75075850D01*
X151072488Y-75050751D01*
X151033374Y-75016602D01*
X150992303Y-74977574D01*
X150953589Y-74937836D01*
X150921542Y-74901561D01*
X150910133Y-74887059D01*
X150854260Y-74799720D01*
X150813948Y-74707998D01*
X150788536Y-74609987D01*
X150777366Y-74503780D01*
X150777329Y-74502800D01*
X150778101Y-74413669D01*
X150788328Y-74333820D01*
X150809157Y-74257775D01*
X150841737Y-74180061D01*
X150847486Y-74168366D01*
X150873171Y-74120477D01*
X150900605Y-74077397D01*
X150932096Y-74036459D01*
X150969955Y-73994993D01*
X151016492Y-73950332D01*
X151074016Y-73899807D01*
X151096073Y-73881166D01*
X151210474Y-73778782D01*
X151309484Y-73675792D01*
X151394561Y-73569929D01*
X151467167Y-73458924D01*
X151528759Y-73340511D01*
X151580799Y-73212420D01*
X151624746Y-73072385D01*
X151630583Y-73050767D01*
X151659812Y-72954764D01*
X151693826Y-72872011D01*
X151734580Y-72799063D01*
X151784030Y-72732475D01*
X151844133Y-72668800D01*
X151851269Y-72662022D01*
X151937869Y-72589997D01*
X152031321Y-72531053D01*
X152133989Y-72483938D01*
X152248235Y-72447400D01*
X152263511Y-72443499D01*
X152298735Y-72435674D01*
X152333559Y-72430307D01*
X152372524Y-72426985D01*
X152420168Y-72425293D01*
X152468467Y-72424834D01*
X152534021Y-72425457D01*
G36*
X150411067Y-75637333D02*
G01*
X150250200Y-75637333D01*
X150250200Y-75510333D01*
X150411067Y-75510333D01*
X150411067Y-75637333D01*
X150411067Y-75637333D01*
G37*
X150411067Y-75637333D02*
X150250200Y-75637333D01*
X150250200Y-75510333D01*
X150411067Y-75510333D01*
X150411067Y-75637333D01*
G36*
X155313475Y-75628632D02*
G01*
X155394744Y-75646519D01*
X155471016Y-75676240D01*
X155537976Y-75716836D01*
X155539686Y-75718128D01*
X155575606Y-75745443D01*
X155521452Y-75792988D01*
X155495777Y-75814664D01*
X155474360Y-75831161D01*
X155460708Y-75839835D01*
X155458391Y-75840533D01*
X155446365Y-75836105D01*
X155426871Y-75825000D01*
X155419126Y-75819931D01*
X155366673Y-75792088D01*
X155308789Y-75777079D01*
X155241950Y-75774039D01*
X155233854Y-75774400D01*
X155166507Y-75784533D01*
X155108108Y-75808131D01*
X155055873Y-75846444D01*
X155040706Y-75861289D01*
X155008467Y-75894744D01*
X155008467Y-76297733D01*
X154847600Y-76297733D01*
X154847600Y-75755867D01*
X154877925Y-75755867D01*
X154904841Y-75751106D01*
X154932942Y-75735173D01*
X154944022Y-75726554D01*
X154992515Y-75693787D01*
X155051901Y-75664554D01*
X155116157Y-75641573D01*
X155153196Y-75632197D01*
X155231521Y-75623538D01*
X155313475Y-75628632D01*
X155313475Y-75628632D01*
G37*
X155313475Y-75628632D02*
X155394744Y-75646519D01*
X155471016Y-75676240D01*
X155537976Y-75716836D01*
X155539686Y-75718128D01*
X155575606Y-75745443D01*
X155521452Y-75792988D01*
X155495777Y-75814664D01*
X155474360Y-75831161D01*
X155460708Y-75839835D01*
X155458391Y-75840533D01*
X155446365Y-75836105D01*
X155426871Y-75825000D01*
X155419126Y-75819931D01*
X155366673Y-75792088D01*
X155308789Y-75777079D01*
X155241950Y-75774039D01*
X155233854Y-75774400D01*
X155166507Y-75784533D01*
X155108108Y-75808131D01*
X155055873Y-75846444D01*
X155040706Y-75861289D01*
X155008467Y-75894744D01*
X155008467Y-76297733D01*
X154847600Y-76297733D01*
X154847600Y-75755867D01*
X154877925Y-75755867D01*
X154904841Y-75751106D01*
X154932942Y-75735173D01*
X154944022Y-75726554D01*
X154992515Y-75693787D01*
X155051901Y-75664554D01*
X155116157Y-75641573D01*
X155153196Y-75632197D01*
X155231521Y-75623538D01*
X155313475Y-75628632D01*
G36*
X150938628Y-75625221D02*
G01*
X151027575Y-75642181D01*
X151040072Y-75645881D01*
X151103792Y-75672052D01*
X151163730Y-75708808D01*
X151215781Y-75753083D01*
X151255844Y-75801809D01*
X151262081Y-75811859D01*
X151279456Y-75843121D01*
X151292775Y-75872067D01*
X151302562Y-75901660D01*
X151309344Y-75934865D01*
X151313646Y-75974646D01*
X151315993Y-76023966D01*
X151316912Y-76085790D01*
X151317000Y-76121565D01*
X151317000Y-76298346D01*
X151151900Y-76293500D01*
X151147666Y-76111467D01*
X151145984Y-76046339D01*
X151143902Y-75995563D01*
X151140766Y-75956557D01*
X151135920Y-75926741D01*
X151128709Y-75903534D01*
X151118478Y-75884357D01*
X151104571Y-75866628D01*
X151086333Y-75847767D01*
X151078846Y-75840459D01*
X151030719Y-75805274D01*
X150972681Y-75782478D01*
X150907305Y-75773020D01*
X150895466Y-75772807D01*
X150830017Y-75779529D01*
X150772007Y-75800520D01*
X150718032Y-75837040D01*
X150714878Y-75839725D01*
X150673533Y-75875339D01*
X150673533Y-76297733D01*
X150504200Y-76297733D01*
X150504200Y-75755867D01*
X150535168Y-75755867D01*
X150559116Y-75752238D01*
X150584805Y-75739822D01*
X150610450Y-75721678D01*
X150686273Y-75673286D01*
X150766937Y-75640957D01*
X150851402Y-75624874D01*
X150938628Y-75625221D01*
X150938628Y-75625221D01*
G37*
X150938628Y-75625221D02*
X151027575Y-75642181D01*
X151040072Y-75645881D01*
X151103792Y-75672052D01*
X151163730Y-75708808D01*
X151215781Y-75753083D01*
X151255844Y-75801809D01*
X151262081Y-75811859D01*
X151279456Y-75843121D01*
X151292775Y-75872067D01*
X151302562Y-75901660D01*
X151309344Y-75934865D01*
X151313646Y-75974646D01*
X151315993Y-76023966D01*
X151316912Y-76085790D01*
X151317000Y-76121565D01*
X151317000Y-76298346D01*
X151151900Y-76293500D01*
X151147666Y-76111467D01*
X151145984Y-76046339D01*
X151143902Y-75995563D01*
X151140766Y-75956557D01*
X151135920Y-75926741D01*
X151128709Y-75903534D01*
X151118478Y-75884357D01*
X151104571Y-75866628D01*
X151086333Y-75847767D01*
X151078846Y-75840459D01*
X151030719Y-75805274D01*
X150972681Y-75782478D01*
X150907305Y-75773020D01*
X150895466Y-75772807D01*
X150830017Y-75779529D01*
X150772007Y-75800520D01*
X150718032Y-75837040D01*
X150714878Y-75839725D01*
X150673533Y-75875339D01*
X150673533Y-76297733D01*
X150504200Y-76297733D01*
X150504200Y-75755867D01*
X150535168Y-75755867D01*
X150559116Y-75752238D01*
X150584805Y-75739822D01*
X150610450Y-75721678D01*
X150686273Y-75673286D01*
X150766937Y-75640957D01*
X150851402Y-75624874D01*
X150938628Y-75625221D01*
G36*
X150411067Y-76297733D02*
G01*
X150250200Y-76297733D01*
X150250200Y-75755867D01*
X150411067Y-75755867D01*
X150411067Y-76297733D01*
X150411067Y-76297733D01*
G37*
X150411067Y-76297733D02*
X150250200Y-76297733D01*
X150250200Y-75755867D01*
X150411067Y-75755867D01*
X150411067Y-76297733D01*
G36*
X154474803Y-75636619D02*
G01*
X154556307Y-75665746D01*
X154634053Y-75710703D01*
X154650264Y-75722488D01*
X154682720Y-75744040D01*
X154709250Y-75754293D01*
X154724470Y-75755867D01*
X154754467Y-75755867D01*
X154754467Y-76297733D01*
X154682218Y-76297733D01*
X154642533Y-76298633D01*
X154613618Y-76302089D01*
X154589372Y-76309238D01*
X154568061Y-76318970D01*
X154534335Y-76333791D01*
X154495812Y-76347541D01*
X154477663Y-76352837D01*
X154430982Y-76360955D01*
X154375861Y-76364371D01*
X154318742Y-76363182D01*
X154266066Y-76357483D01*
X154229533Y-76349144D01*
X154172574Y-76327814D01*
X154124562Y-76301527D01*
X154078283Y-76266060D01*
X154060882Y-76250440D01*
X154009085Y-76192592D01*
X153972595Y-76130562D01*
X153950792Y-76065921D01*
X153943058Y-76000244D01*
X153945893Y-75967943D01*
X154106359Y-75967943D01*
X154107045Y-76018562D01*
X154120410Y-76067948D01*
X154146213Y-76113916D01*
X154184214Y-76154282D01*
X154234171Y-76186860D01*
X154280278Y-76205156D01*
X154317750Y-76211554D01*
X154363933Y-76212294D01*
X154411718Y-76207751D01*
X154453993Y-76198300D01*
X154461953Y-76195561D01*
X154508153Y-76171424D01*
X154546937Y-76139859D01*
X154585133Y-76101663D01*
X154585133Y-75879496D01*
X154542432Y-75839406D01*
X154494197Y-75802856D01*
X154440653Y-75780015D01*
X154378568Y-75769685D01*
X154352122Y-75768790D01*
X154316492Y-75769958D01*
X154287842Y-75775075D01*
X154258064Y-75786085D01*
X154235234Y-75796846D01*
X154182791Y-75830544D01*
X154143991Y-75871749D01*
X154118594Y-75918277D01*
X154106359Y-75967943D01*
X153945893Y-75967943D01*
X153948776Y-75935103D01*
X153967325Y-75872073D01*
X153998089Y-75812725D01*
X154040448Y-75758634D01*
X154093785Y-75711373D01*
X154157479Y-75672515D01*
X154230914Y-75643634D01*
X154305834Y-75627326D01*
X154390870Y-75623690D01*
X154474803Y-75636619D01*
X154474803Y-75636619D01*
G37*
X154474803Y-75636619D02*
X154556307Y-75665746D01*
X154634053Y-75710703D01*
X154650264Y-75722488D01*
X154682720Y-75744040D01*
X154709250Y-75754293D01*
X154724470Y-75755867D01*
X154754467Y-75755867D01*
X154754467Y-76297733D01*
X154682218Y-76297733D01*
X154642533Y-76298633D01*
X154613618Y-76302089D01*
X154589372Y-76309238D01*
X154568061Y-76318970D01*
X154534335Y-76333791D01*
X154495812Y-76347541D01*
X154477663Y-76352837D01*
X154430982Y-76360955D01*
X154375861Y-76364371D01*
X154318742Y-76363182D01*
X154266066Y-76357483D01*
X154229533Y-76349144D01*
X154172574Y-76327814D01*
X154124562Y-76301527D01*
X154078283Y-76266060D01*
X154060882Y-76250440D01*
X154009085Y-76192592D01*
X153972595Y-76130562D01*
X153950792Y-76065921D01*
X153943058Y-76000244D01*
X153945893Y-75967943D01*
X154106359Y-75967943D01*
X154107045Y-76018562D01*
X154120410Y-76067948D01*
X154146213Y-76113916D01*
X154184214Y-76154282D01*
X154234171Y-76186860D01*
X154280278Y-76205156D01*
X154317750Y-76211554D01*
X154363933Y-76212294D01*
X154411718Y-76207751D01*
X154453993Y-76198300D01*
X154461953Y-76195561D01*
X154508153Y-76171424D01*
X154546937Y-76139859D01*
X154585133Y-76101663D01*
X154585133Y-75879496D01*
X154542432Y-75839406D01*
X154494197Y-75802856D01*
X154440653Y-75780015D01*
X154378568Y-75769685D01*
X154352122Y-75768790D01*
X154316492Y-75769958D01*
X154287842Y-75775075D01*
X154258064Y-75786085D01*
X154235234Y-75796846D01*
X154182791Y-75830544D01*
X154143991Y-75871749D01*
X154118594Y-75918277D01*
X154106359Y-75967943D01*
X153945893Y-75967943D01*
X153948776Y-75935103D01*
X153967325Y-75872073D01*
X153998089Y-75812725D01*
X154040448Y-75758634D01*
X154093785Y-75711373D01*
X154157479Y-75672515D01*
X154230914Y-75643634D01*
X154305834Y-75627326D01*
X154390870Y-75623690D01*
X154474803Y-75636619D01*
G36*
X153619314Y-75630317D02*
G01*
X153698159Y-75644479D01*
X153775663Y-75673103D01*
X153787208Y-75678768D01*
X153814030Y-75694009D01*
X153841814Y-75712398D01*
X153867327Y-75731410D01*
X153887333Y-75748518D01*
X153898598Y-75761199D01*
X153899333Y-75766313D01*
X153890899Y-75772570D01*
X153872121Y-75786037D01*
X153846518Y-75804199D01*
X153836838Y-75811028D01*
X153808268Y-75830861D01*
X153789670Y-75842138D01*
X153777228Y-75846137D01*
X153767129Y-75844134D01*
X153756405Y-75837946D01*
X153705559Y-75808416D01*
X153661051Y-75789673D01*
X153617796Y-75780002D01*
X153577600Y-75777632D01*
X153510468Y-75784873D01*
X153450590Y-75805911D01*
X153399766Y-75839719D01*
X153359793Y-75885272D01*
X153345425Y-75910128D01*
X153327250Y-75963777D01*
X153324596Y-76017526D01*
X153336199Y-76069253D01*
X153360793Y-76116835D01*
X153397113Y-76158152D01*
X153443892Y-76191083D01*
X153499866Y-76213506D01*
X153530269Y-76220014D01*
X153591340Y-76222683D01*
X153651903Y-76212774D01*
X153707305Y-76191533D01*
X153752656Y-76160425D01*
X153771078Y-76143561D01*
X153835206Y-76188334D01*
X153863258Y-76208623D01*
X153885081Y-76225744D01*
X153897565Y-76237189D01*
X153899333Y-76240038D01*
X153892458Y-76250035D01*
X153874223Y-76265606D01*
X153848212Y-76284363D01*
X153818009Y-76303919D01*
X153787200Y-76321885D01*
X153759367Y-76335874D01*
X153749121Y-76340105D01*
X153669499Y-76363707D01*
X153592951Y-76372790D01*
X153514496Y-76367729D01*
X153476000Y-76360669D01*
X153402265Y-76337525D01*
X153335508Y-76302572D01*
X153277133Y-76257663D01*
X153228540Y-76204651D01*
X153191131Y-76145388D01*
X153166307Y-76081727D01*
X153155471Y-76015522D01*
X153160025Y-75948625D01*
X153160912Y-75944176D01*
X153184295Y-75870687D01*
X153221046Y-75805427D01*
X153269326Y-75749176D01*
X153327297Y-75702712D01*
X153393119Y-75666815D01*
X153464956Y-75642264D01*
X153540967Y-75629839D01*
X153619314Y-75630317D01*
X153619314Y-75630317D01*
G37*
X153619314Y-75630317D02*
X153698159Y-75644479D01*
X153775663Y-75673103D01*
X153787208Y-75678768D01*
X153814030Y-75694009D01*
X153841814Y-75712398D01*
X153867327Y-75731410D01*
X153887333Y-75748518D01*
X153898598Y-75761199D01*
X153899333Y-75766313D01*
X153890899Y-75772570D01*
X153872121Y-75786037D01*
X153846518Y-75804199D01*
X153836838Y-75811028D01*
X153808268Y-75830861D01*
X153789670Y-75842138D01*
X153777228Y-75846137D01*
X153767129Y-75844134D01*
X153756405Y-75837946D01*
X153705559Y-75808416D01*
X153661051Y-75789673D01*
X153617796Y-75780002D01*
X153577600Y-75777632D01*
X153510468Y-75784873D01*
X153450590Y-75805911D01*
X153399766Y-75839719D01*
X153359793Y-75885272D01*
X153345425Y-75910128D01*
X153327250Y-75963777D01*
X153324596Y-76017526D01*
X153336199Y-76069253D01*
X153360793Y-76116835D01*
X153397113Y-76158152D01*
X153443892Y-76191083D01*
X153499866Y-76213506D01*
X153530269Y-76220014D01*
X153591340Y-76222683D01*
X153651903Y-76212774D01*
X153707305Y-76191533D01*
X153752656Y-76160425D01*
X153771078Y-76143561D01*
X153835206Y-76188334D01*
X153863258Y-76208623D01*
X153885081Y-76225744D01*
X153897565Y-76237189D01*
X153899333Y-76240038D01*
X153892458Y-76250035D01*
X153874223Y-76265606D01*
X153848212Y-76284363D01*
X153818009Y-76303919D01*
X153787200Y-76321885D01*
X153759367Y-76335874D01*
X153749121Y-76340105D01*
X153669499Y-76363707D01*
X153592951Y-76372790D01*
X153514496Y-76367729D01*
X153476000Y-76360669D01*
X153402265Y-76337525D01*
X153335508Y-76302572D01*
X153277133Y-76257663D01*
X153228540Y-76204651D01*
X153191131Y-76145388D01*
X153166307Y-76081727D01*
X153155471Y-76015522D01*
X153160025Y-75948625D01*
X153160912Y-75944176D01*
X153184295Y-75870687D01*
X153221046Y-75805427D01*
X153269326Y-75749176D01*
X153327297Y-75702712D01*
X153393119Y-75666815D01*
X153464956Y-75642264D01*
X153540967Y-75629839D01*
X153619314Y-75630317D01*
G36*
X152757116Y-75635902D02*
G01*
X152831325Y-75655997D01*
X152898979Y-75687638D01*
X152958723Y-75729310D01*
X153009207Y-75779498D01*
X153049078Y-75836687D01*
X153076985Y-75899362D01*
X153091574Y-75966009D01*
X153091495Y-76035113D01*
X153082475Y-76082355D01*
X153054503Y-76154313D01*
X153012487Y-76218271D01*
X152957968Y-76272853D01*
X152892484Y-76316683D01*
X152817577Y-76348388D01*
X152771006Y-76360557D01*
X152706560Y-76370717D01*
X152649062Y-76372122D01*
X152590982Y-76364803D01*
X152574300Y-76361352D01*
X152497321Y-76337166D01*
X152428868Y-76301504D01*
X152370022Y-76256045D01*
X152321865Y-76202468D01*
X152285479Y-76142451D01*
X152261946Y-76077673D01*
X152254021Y-76021635D01*
X152420301Y-76021635D01*
X152433975Y-76074799D01*
X152442295Y-76093021D01*
X152465710Y-76127077D01*
X152498978Y-76161008D01*
X152535955Y-76189136D01*
X152560418Y-76202191D01*
X152622334Y-76220229D01*
X152687651Y-76223378D01*
X152757710Y-76212079D01*
X152798062Y-76195620D01*
X152839363Y-76168121D01*
X152875727Y-76134037D01*
X152895689Y-76107691D01*
X152918186Y-76056667D01*
X152925504Y-76003325D01*
X152918672Y-75950255D01*
X152898719Y-75900044D01*
X152866672Y-75855283D01*
X152823561Y-75818560D01*
X152770477Y-75792486D01*
X152708708Y-75778198D01*
X152648919Y-75777266D01*
X152592712Y-75788227D01*
X152541687Y-75809613D01*
X152497443Y-75839959D01*
X152461583Y-75877800D01*
X152435705Y-75921670D01*
X152421411Y-75970104D01*
X152420301Y-76021635D01*
X152254021Y-76021635D01*
X152252349Y-76009814D01*
X152257769Y-75940551D01*
X152271367Y-75891333D01*
X152305508Y-75821390D01*
X152352871Y-75760556D01*
X152411757Y-75709926D01*
X152480472Y-75670597D01*
X152557318Y-75643665D01*
X152640599Y-75630225D01*
X152677702Y-75628867D01*
X152757116Y-75635902D01*
X152757116Y-75635902D01*
G37*
X152757116Y-75635902D02*
X152831325Y-75655997D01*
X152898979Y-75687638D01*
X152958723Y-75729310D01*
X153009207Y-75779498D01*
X153049078Y-75836687D01*
X153076985Y-75899362D01*
X153091574Y-75966009D01*
X153091495Y-76035113D01*
X153082475Y-76082355D01*
X153054503Y-76154313D01*
X153012487Y-76218271D01*
X152957968Y-76272853D01*
X152892484Y-76316683D01*
X152817577Y-76348388D01*
X152771006Y-76360557D01*
X152706560Y-76370717D01*
X152649062Y-76372122D01*
X152590982Y-76364803D01*
X152574300Y-76361352D01*
X152497321Y-76337166D01*
X152428868Y-76301504D01*
X152370022Y-76256045D01*
X152321865Y-76202468D01*
X152285479Y-76142451D01*
X152261946Y-76077673D01*
X152254021Y-76021635D01*
X152420301Y-76021635D01*
X152433975Y-76074799D01*
X152442295Y-76093021D01*
X152465710Y-76127077D01*
X152498978Y-76161008D01*
X152535955Y-76189136D01*
X152560418Y-76202191D01*
X152622334Y-76220229D01*
X152687651Y-76223378D01*
X152757710Y-76212079D01*
X152798062Y-76195620D01*
X152839363Y-76168121D01*
X152875727Y-76134037D01*
X152895689Y-76107691D01*
X152918186Y-76056667D01*
X152925504Y-76003325D01*
X152918672Y-75950255D01*
X152898719Y-75900044D01*
X152866672Y-75855283D01*
X152823561Y-75818560D01*
X152770477Y-75792486D01*
X152708708Y-75778198D01*
X152648919Y-75777266D01*
X152592712Y-75788227D01*
X152541687Y-75809613D01*
X152497443Y-75839959D01*
X152461583Y-75877800D01*
X152435705Y-75921670D01*
X152421411Y-75970104D01*
X152420301Y-76021635D01*
X152254021Y-76021635D01*
X152252349Y-76009814D01*
X152257769Y-75940551D01*
X152271367Y-75891333D01*
X152305508Y-75821390D01*
X152352871Y-75760556D01*
X152411757Y-75709926D01*
X152480472Y-75670597D01*
X152557318Y-75643665D01*
X152640599Y-75630225D01*
X152677702Y-75628867D01*
X152757116Y-75635902D01*
G36*
X150157067Y-76263867D02*
G01*
X150109602Y-76263867D01*
X150078018Y-76265595D01*
X150055123Y-76272441D01*
X150032874Y-76286898D01*
X150031285Y-76288140D01*
X149969575Y-76326565D01*
X149898025Y-76353804D01*
X149820153Y-76369077D01*
X149739478Y-76371605D01*
X149682933Y-76365324D01*
X149605183Y-76344468D01*
X149534893Y-76311140D01*
X149473507Y-76266998D01*
X149422470Y-76213698D01*
X149383227Y-76152898D01*
X149357222Y-76086254D01*
X149347054Y-76022638D01*
X149514373Y-76022638D01*
X149526999Y-76074809D01*
X149552763Y-76122272D01*
X149590422Y-76162962D01*
X149638733Y-76194811D01*
X149696452Y-76215754D01*
X149718637Y-76220123D01*
X149768054Y-76224384D01*
X149814260Y-76219791D01*
X149864247Y-76205999D01*
X149893903Y-76192156D01*
X149926504Y-76171330D01*
X149946797Y-76155132D01*
X149987733Y-76118364D01*
X149987733Y-75883431D01*
X149958731Y-75854429D01*
X149909934Y-75816984D01*
X149852019Y-75791072D01*
X149789339Y-75777967D01*
X149726249Y-75778943D01*
X149710222Y-75781680D01*
X149645696Y-75802073D01*
X149593339Y-75834200D01*
X149553012Y-75878163D01*
X149533508Y-75912438D01*
X149516128Y-75967826D01*
X149514373Y-76022638D01*
X149347054Y-76022638D01*
X149345900Y-76015424D01*
X149346187Y-75979103D01*
X149359010Y-75906775D01*
X149387158Y-75839674D01*
X149429496Y-75779048D01*
X149484892Y-75726139D01*
X149552213Y-75682193D01*
X149630323Y-75648455D01*
X149654124Y-75640963D01*
X149686628Y-75633555D01*
X149722477Y-75630060D01*
X149767260Y-75630060D01*
X149788169Y-75630907D01*
X149829793Y-75633597D01*
X149863276Y-75637996D01*
X149894488Y-75645513D01*
X149929301Y-75657557D01*
X149972917Y-75675256D01*
X149977740Y-75676307D01*
X149981388Y-75673545D01*
X149984025Y-75664984D01*
X149985813Y-75648637D01*
X149986915Y-75622518D01*
X149987492Y-75584640D01*
X149987709Y-75533017D01*
X149987733Y-75494306D01*
X149987733Y-75307133D01*
X150157067Y-75307133D01*
X150157067Y-76263867D01*
X150157067Y-76263867D01*
G37*
X150157067Y-76263867D02*
X150109602Y-76263867D01*
X150078018Y-76265595D01*
X150055123Y-76272441D01*
X150032874Y-76286898D01*
X150031285Y-76288140D01*
X149969575Y-76326565D01*
X149898025Y-76353804D01*
X149820153Y-76369077D01*
X149739478Y-76371605D01*
X149682933Y-76365324D01*
X149605183Y-76344468D01*
X149534893Y-76311140D01*
X149473507Y-76266998D01*
X149422470Y-76213698D01*
X149383227Y-76152898D01*
X149357222Y-76086254D01*
X149347054Y-76022638D01*
X149514373Y-76022638D01*
X149526999Y-76074809D01*
X149552763Y-76122272D01*
X149590422Y-76162962D01*
X149638733Y-76194811D01*
X149696452Y-76215754D01*
X149718637Y-76220123D01*
X149768054Y-76224384D01*
X149814260Y-76219791D01*
X149864247Y-76205999D01*
X149893903Y-76192156D01*
X149926504Y-76171330D01*
X149946797Y-76155132D01*
X149987733Y-76118364D01*
X149987733Y-75883431D01*
X149958731Y-75854429D01*
X149909934Y-75816984D01*
X149852019Y-75791072D01*
X149789339Y-75777967D01*
X149726249Y-75778943D01*
X149710222Y-75781680D01*
X149645696Y-75802073D01*
X149593339Y-75834200D01*
X149553012Y-75878163D01*
X149533508Y-75912438D01*
X149516128Y-75967826D01*
X149514373Y-76022638D01*
X149347054Y-76022638D01*
X149345900Y-76015424D01*
X149346187Y-75979103D01*
X149359010Y-75906775D01*
X149387158Y-75839674D01*
X149429496Y-75779048D01*
X149484892Y-75726139D01*
X149552213Y-75682193D01*
X149630323Y-75648455D01*
X149654124Y-75640963D01*
X149686628Y-75633555D01*
X149722477Y-75630060D01*
X149767260Y-75630060D01*
X149788169Y-75630907D01*
X149829793Y-75633597D01*
X149863276Y-75637996D01*
X149894488Y-75645513D01*
X149929301Y-75657557D01*
X149972917Y-75675256D01*
X149977740Y-75676307D01*
X149981388Y-75673545D01*
X149984025Y-75664984D01*
X149985813Y-75648637D01*
X149986915Y-75622518D01*
X149987492Y-75584640D01*
X149987709Y-75533017D01*
X149987733Y-75494306D01*
X149987733Y-75307133D01*
X150157067Y-75307133D01*
X150157067Y-76263867D01*
G36*
X151887345Y-75632957D02*
G01*
X151966838Y-75653632D01*
X152040397Y-75688961D01*
X152072669Y-75710179D01*
X152102418Y-75728666D01*
X152128580Y-75737273D01*
X152150986Y-75738933D01*
X152189067Y-75738933D01*
X152189067Y-76114163D01*
X152189013Y-76210014D01*
X152188732Y-76290600D01*
X152188046Y-76357592D01*
X152186775Y-76412658D01*
X152184742Y-76457467D01*
X152181766Y-76493688D01*
X152177669Y-76522991D01*
X152172272Y-76547045D01*
X152165397Y-76567518D01*
X152156864Y-76586080D01*
X152146496Y-76604401D01*
X152134490Y-76623557D01*
X152086442Y-76683446D01*
X152026691Y-76733145D01*
X151957693Y-76771746D01*
X151881909Y-76798342D01*
X151801795Y-76812027D01*
X151719810Y-76811892D01*
X151653635Y-76801010D01*
X151583437Y-76777001D01*
X151517809Y-76741213D01*
X151460927Y-76696312D01*
X151423249Y-76653900D01*
X151407192Y-76630743D01*
X151396288Y-76612567D01*
X151393200Y-76604737D01*
X151400482Y-76598010D01*
X151419962Y-76586973D01*
X151448092Y-76573543D01*
X151462668Y-76567212D01*
X151532136Y-76537914D01*
X151579085Y-76585816D01*
X151624979Y-76624897D01*
X151673790Y-76649807D01*
X151729513Y-76662136D01*
X151775955Y-76664116D01*
X151840394Y-76655742D01*
X151898922Y-76633337D01*
X151949064Y-76598361D01*
X151988345Y-76552274D01*
X151999981Y-76532009D01*
X152010731Y-76507794D01*
X152017952Y-76482516D01*
X152022646Y-76451154D01*
X152025817Y-76408689D01*
X152026252Y-76400478D01*
X152028100Y-76361106D01*
X152028548Y-76335876D01*
X152027207Y-76322027D01*
X152023685Y-76316799D01*
X152017593Y-76317429D01*
X152014671Y-76318570D01*
X151922551Y-76349297D01*
X151832729Y-76364200D01*
X151746200Y-76363400D01*
X151663960Y-76347022D01*
X151587002Y-76315189D01*
X151516322Y-76268024D01*
X151500743Y-76254741D01*
X151451322Y-76200863D01*
X151413538Y-76139059D01*
X151388746Y-76072570D01*
X151379572Y-76012906D01*
X151543068Y-76012906D01*
X151555025Y-76063081D01*
X151579879Y-76110001D01*
X151617507Y-76151451D01*
X151667784Y-76185215D01*
X151703949Y-76200855D01*
X151729026Y-76206741D01*
X151763425Y-76211007D01*
X151798389Y-76212695D01*
X151836621Y-76211569D01*
X151866694Y-76206400D01*
X151897245Y-76195307D01*
X151914378Y-76187438D01*
X151949755Y-76167350D01*
X151980308Y-76144264D01*
X151993905Y-76130476D01*
X152019733Y-76099142D01*
X152019733Y-75876556D01*
X151981377Y-75841201D01*
X151935864Y-75805581D01*
X151888924Y-75783145D01*
X151835445Y-75771927D01*
X151795367Y-75769728D01*
X151755846Y-75770419D01*
X151726047Y-75774391D01*
X151698872Y-75782946D01*
X151681067Y-75790732D01*
X151626684Y-75823956D01*
X151585816Y-75865000D01*
X151558340Y-75911650D01*
X151544132Y-75961690D01*
X151543068Y-76012906D01*
X151379572Y-76012906D01*
X151378299Y-76004634D01*
X151379500Y-75964322D01*
X151394118Y-75899976D01*
X151423086Y-75836419D01*
X151464021Y-75777033D01*
X151514540Y-75725204D01*
X151572259Y-75684313D01*
X151579525Y-75680318D01*
X151637015Y-75653198D01*
X151691028Y-75636321D01*
X151748617Y-75627956D01*
X151799600Y-75626224D01*
X151887345Y-75632957D01*
X151887345Y-75632957D01*
G37*
X151887345Y-75632957D02*
X151966838Y-75653632D01*
X152040397Y-75688961D01*
X152072669Y-75710179D01*
X152102418Y-75728666D01*
X152128580Y-75737273D01*
X152150986Y-75738933D01*
X152189067Y-75738933D01*
X152189067Y-76114163D01*
X152189013Y-76210014D01*
X152188732Y-76290600D01*
X152188046Y-76357592D01*
X152186775Y-76412658D01*
X152184742Y-76457467D01*
X152181766Y-76493688D01*
X152177669Y-76522991D01*
X152172272Y-76547045D01*
X152165397Y-76567518D01*
X152156864Y-76586080D01*
X152146496Y-76604401D01*
X152134490Y-76623557D01*
X152086442Y-76683446D01*
X152026691Y-76733145D01*
X151957693Y-76771746D01*
X151881909Y-76798342D01*
X151801795Y-76812027D01*
X151719810Y-76811892D01*
X151653635Y-76801010D01*
X151583437Y-76777001D01*
X151517809Y-76741213D01*
X151460927Y-76696312D01*
X151423249Y-76653900D01*
X151407192Y-76630743D01*
X151396288Y-76612567D01*
X151393200Y-76604737D01*
X151400482Y-76598010D01*
X151419962Y-76586973D01*
X151448092Y-76573543D01*
X151462668Y-76567212D01*
X151532136Y-76537914D01*
X151579085Y-76585816D01*
X151624979Y-76624897D01*
X151673790Y-76649807D01*
X151729513Y-76662136D01*
X151775955Y-76664116D01*
X151840394Y-76655742D01*
X151898922Y-76633337D01*
X151949064Y-76598361D01*
X151988345Y-76552274D01*
X151999981Y-76532009D01*
X152010731Y-76507794D01*
X152017952Y-76482516D01*
X152022646Y-76451154D01*
X152025817Y-76408689D01*
X152026252Y-76400478D01*
X152028100Y-76361106D01*
X152028548Y-76335876D01*
X152027207Y-76322027D01*
X152023685Y-76316799D01*
X152017593Y-76317429D01*
X152014671Y-76318570D01*
X151922551Y-76349297D01*
X151832729Y-76364200D01*
X151746200Y-76363400D01*
X151663960Y-76347022D01*
X151587002Y-76315189D01*
X151516322Y-76268024D01*
X151500743Y-76254741D01*
X151451322Y-76200863D01*
X151413538Y-76139059D01*
X151388746Y-76072570D01*
X151379572Y-76012906D01*
X151543068Y-76012906D01*
X151555025Y-76063081D01*
X151579879Y-76110001D01*
X151617507Y-76151451D01*
X151667784Y-76185215D01*
X151703949Y-76200855D01*
X151729026Y-76206741D01*
X151763425Y-76211007D01*
X151798389Y-76212695D01*
X151836621Y-76211569D01*
X151866694Y-76206400D01*
X151897245Y-76195307D01*
X151914378Y-76187438D01*
X151949755Y-76167350D01*
X151980308Y-76144264D01*
X151993905Y-76130476D01*
X152019733Y-76099142D01*
X152019733Y-75876556D01*
X151981377Y-75841201D01*
X151935864Y-75805581D01*
X151888924Y-75783145D01*
X151835445Y-75771927D01*
X151795367Y-75769728D01*
X151755846Y-75770419D01*
X151726047Y-75774391D01*
X151698872Y-75782946D01*
X151681067Y-75790732D01*
X151626684Y-75823956D01*
X151585816Y-75865000D01*
X151558340Y-75911650D01*
X151544132Y-75961690D01*
X151543068Y-76012906D01*
X151379572Y-76012906D01*
X151378299Y-76004634D01*
X151379500Y-75964322D01*
X151394118Y-75899976D01*
X151423086Y-75836419D01*
X151464021Y-75777033D01*
X151514540Y-75725204D01*
X151572259Y-75684313D01*
X151579525Y-75680318D01*
X151637015Y-75653198D01*
X151691028Y-75636321D01*
X151748617Y-75627956D01*
X151799600Y-75626224D01*
X151887345Y-75632957D01*
D14*
X155850000Y-86100000D02*
X155850000Y-81900000D01*
X160250000Y-90500000D02*
G75*
G02X155850000Y-86100000I0J4400000D01*
G01*
X164650000Y-86100000D02*
G75*
G02X160250000Y-90500000I-4400000J0D01*
G01*
X164650000Y-74900000D02*
X164650000Y-86100000D01*
X160250000Y-70500000D02*
G75*
G02X164650000Y-74900000I0J-4400000D01*
G01*
X155850000Y-74900000D02*
G75*
G02X160250000Y-70500000I4400000J0D01*
G01*
X155850000Y-76700000D02*
X155850000Y-74900000D01*
D15*
X153470000Y-78570000D02*
G75*
G03X153470000Y-78570000I-190000J0D01*
G01*
D16*
X146420000Y-50040000D02*
X146420000Y-76040000D01*
X121220000Y-50040000D02*
X146420000Y-50040000D01*
X121220000Y-76040000D02*
X146420000Y-76040000D01*
X121220000Y-50040000D02*
X121220000Y-76040000D01*
D17*
X162190000Y-53480000D02*
X162190000Y-52880000D01*
X161190000Y-50680000D02*
X158090000Y-50680000D01*
X156790000Y-52880000D02*
X156790000Y-53480000D01*
X158190000Y-55680000D02*
X161190000Y-55680000D01*
X162190000Y-59680000D02*
X162190000Y-59080000D01*
X161190000Y-56880000D02*
X158090000Y-56880000D01*
X156790000Y-59080000D02*
X156790000Y-59680000D01*
X158190000Y-61880000D02*
X161190000Y-61880000D01*
X154230000Y-90887733D02*
X154230000Y-91230267D01*
X155250000Y-90887733D02*
X155250000Y-91230267D01*
X150678000Y-91230267D02*
X150678000Y-90887733D01*
X149658000Y-91230267D02*
X149658000Y-90887733D01*
X156774000Y-91230267D02*
X156774000Y-90887733D01*
X155754000Y-91230267D02*
X155754000Y-90887733D01*
X147630000Y-91230267D02*
X147630000Y-90887733D01*
X146610000Y-91230267D02*
X146610000Y-90887733D01*
X152202000Y-91230267D02*
X152202000Y-90887733D01*
X151182000Y-91230267D02*
X151182000Y-90887733D01*
X148134000Y-90887733D02*
X148134000Y-91230267D01*
X149154000Y-90887733D02*
X149154000Y-91230267D01*
X147842000Y-70424000D02*
X146842000Y-70424000D01*
X146842000Y-69064000D02*
X147842000Y-69064000D01*
X162810000Y-65430000D02*
X161810000Y-65430000D01*
X161810000Y-64070000D02*
X162810000Y-64070000D01*
X158730000Y-65430000D02*
X157730000Y-65430000D01*
X157730000Y-64070000D02*
X158730000Y-64070000D01*
X152740000Y-66210000D02*
X152740000Y-68870000D01*
X160420000Y-66210000D02*
X152740000Y-66210000D01*
X160420000Y-68870000D02*
X152740000Y-68870000D01*
X160420000Y-66210000D02*
X160420000Y-68870000D01*
X161690000Y-66210000D02*
X163020000Y-66210000D01*
X163020000Y-66210000D02*
X163020000Y-67540000D01*
D16*
X116360000Y-54200280D02*
X126360000Y-54200280D01*
X154360000Y-66200280D02*
X149280000Y-66200280D01*
X154360000Y-54200280D02*
X154360000Y-66200280D01*
X116360000Y-66200280D02*
X116360000Y-54200280D01*
X149280000Y-66200280D02*
X126360000Y-66200280D01*
X126360000Y-66200280D02*
X116360000Y-66200280D01*
X149280000Y-54200280D02*
X154360000Y-54200280D01*
X126360000Y-54200280D02*
X149280000Y-54200280D01*
D17*
X147975000Y-73864000D02*
X147975000Y-72934000D01*
X147975000Y-70704000D02*
X147975000Y-71634000D01*
X147975000Y-70704000D02*
X145815000Y-70704000D01*
X147975000Y-73864000D02*
X146515000Y-73864000D01*
D18*
X139451100Y-71019000D02*
G75*
G03X139451100Y-71019000I-76200J0D01*
G01*
X143155500Y-70584659D02*
X143155500Y-70393400D01*
X139904300Y-73453341D02*
X139904300Y-73644600D01*
X139904300Y-70393400D02*
X139904300Y-70584659D01*
X143155500Y-70393400D02*
X139904300Y-70393400D01*
X143155500Y-73644600D02*
X143155500Y-73453341D01*
X139904300Y-73644600D02*
X143155500Y-73644600D01*
D17*
X114468000Y-88122000D02*
X114468000Y-86122000D01*
X114468000Y-86122000D02*
X110618000Y-86122000D01*
X114468000Y-88122000D02*
X110618000Y-88122000D01*
X114858733Y-52940000D02*
X115201267Y-52940000D01*
X114858733Y-51920000D02*
X115201267Y-51920000D01*
X148768733Y-80410000D02*
X149111267Y-80410000D01*
X148768733Y-79390000D02*
X149111267Y-79390000D01*
X111334000Y-67671267D02*
X111334000Y-67328733D01*
X110314000Y-67671267D02*
X110314000Y-67328733D01*
X111838000Y-67328733D02*
X111838000Y-67671267D01*
X112858000Y-67328733D02*
X112858000Y-67671267D01*
X113362000Y-67328733D02*
X113362000Y-67671267D01*
X114382000Y-67328733D02*
X114382000Y-67671267D01*
X118148000Y-67867733D02*
X118148000Y-68210267D01*
X119168000Y-67867733D02*
X119168000Y-68210267D01*
X152706000Y-90887733D02*
X152706000Y-91230267D01*
X153726000Y-90887733D02*
X153726000Y-91230267D01*
X147860000Y-75688733D02*
X147860000Y-76031267D01*
X148880000Y-75688733D02*
X148880000Y-76031267D01*
X144951267Y-75630000D02*
X144608733Y-75630000D01*
X144951267Y-76650000D02*
X144608733Y-76650000D01*
X101602000Y-61639267D02*
X101602000Y-61296733D01*
X100582000Y-61639267D02*
X100582000Y-61296733D01*
X136800267Y-82323000D02*
X136457733Y-82323000D01*
X136800267Y-83343000D02*
X136457733Y-83343000D01*
X133077733Y-83333000D02*
X133420267Y-83333000D01*
X133077733Y-82313000D02*
X133420267Y-82313000D01*
X130198733Y-58770000D02*
X130541267Y-58770000D01*
X130198733Y-57750000D02*
X130541267Y-57750000D01*
X130208733Y-61360000D02*
X130551267Y-61360000D01*
X130208733Y-60340000D02*
X130551267Y-60340000D01*
X141820000Y-53621267D02*
X141820000Y-53278733D01*
X140800000Y-53621267D02*
X140800000Y-53278733D01*
X143320000Y-53615267D02*
X143320000Y-53272733D01*
X142300000Y-53615267D02*
X142300000Y-53272733D01*
X104061267Y-50350000D02*
X103718733Y-50350000D01*
X104061267Y-51370000D02*
X103718733Y-51370000D01*
X149211267Y-51874000D02*
X148868733Y-51874000D01*
X149211267Y-52894000D02*
X148868733Y-52894000D01*
X117265267Y-89406000D02*
X116922733Y-89406000D01*
X117265267Y-90426000D02*
X116922733Y-90426000D01*
X131560000Y-90462733D02*
X131560000Y-90805267D01*
X132580000Y-90462733D02*
X132580000Y-90805267D01*
X112972064Y-88814000D02*
X111767936Y-88814000D01*
X112972064Y-90634000D02*
X111767936Y-90634000D01*
X131140000Y-94881936D02*
X131140000Y-96086064D01*
X132960000Y-94881936D02*
X132960000Y-96086064D01*
X146420000Y-77005000D02*
X143960000Y-77005000D01*
X146420000Y-78475000D02*
X146420000Y-77005000D01*
X143960000Y-78475000D02*
X146420000Y-78475000D01*
X129815000Y-71087064D02*
X129815000Y-69882936D01*
X127995000Y-71087064D02*
X127995000Y-69882936D01*
X117948733Y-64710000D02*
X118291267Y-64710000D01*
X117948733Y-63690000D02*
X118291267Y-63690000D01*
X129388733Y-77454000D02*
X129731267Y-77454000D01*
X129388733Y-76434000D02*
X129731267Y-76434000D01*
X115906000Y-67671267D02*
X115906000Y-67328733D01*
X114886000Y-67671267D02*
X114886000Y-67328733D01*
X119672000Y-67867733D02*
X119672000Y-68210267D01*
X120692000Y-67867733D02*
X120692000Y-68210267D01*
X112756767Y-79119000D02*
X112414233Y-79119000D01*
X112756767Y-80139000D02*
X112414233Y-80139000D01*
X112733267Y-80643000D02*
X112390733Y-80643000D01*
X112733267Y-81663000D02*
X112390733Y-81663000D01*
X112616064Y-82148000D02*
X111411936Y-82148000D01*
X112616064Y-83968000D02*
X111411936Y-83968000D01*
X133397936Y-86910000D02*
X134602064Y-86910000D01*
X133397936Y-85090000D02*
X134602064Y-85090000D01*
X111294000Y-74433267D02*
X111294000Y-74090733D01*
X110274000Y-74433267D02*
X110274000Y-74090733D01*
X150248733Y-83114000D02*
X150591267Y-83114000D01*
X150248733Y-82094000D02*
X150591267Y-82094000D01*
X137043000Y-72791733D02*
X137043000Y-73134267D01*
X138063000Y-72791733D02*
X138063000Y-73134267D01*
X141271733Y-69573000D02*
X141614267Y-69573000D01*
X141271733Y-68553000D02*
X141614267Y-68553000D01*
X144820000Y-53615267D02*
X144820000Y-53272733D01*
X143800000Y-53615267D02*
X143800000Y-53272733D01*
X146320000Y-53615267D02*
X146320000Y-53272733D01*
X145300000Y-53615267D02*
X145300000Y-53272733D01*
X133629000Y-80394267D02*
X133629000Y-80051733D01*
X132609000Y-80394267D02*
X132609000Y-80051733D01*
X104930000Y-52244000D02*
X102270000Y-52244000D01*
X104930000Y-57384000D02*
X104930000Y-52244000D01*
X102270000Y-57384000D02*
X102270000Y-52244000D01*
X104930000Y-57384000D02*
X102270000Y-57384000D01*
X104930000Y-58654000D02*
X104930000Y-59984000D01*
X104930000Y-59984000D02*
X103600000Y-59984000D01*
D10*
X133340000Y-91150000D02*
X133340000Y-98960000D01*
X143500000Y-91150000D02*
X133340000Y-91150000D01*
X143500000Y-98960000D02*
X143500000Y-91150000D01*
X120637000Y-91150000D02*
X120637000Y-98960000D01*
X130797000Y-91150000D02*
X120637000Y-91150000D01*
X130797000Y-98960000D02*
X130797000Y-91150000D01*
X107934000Y-91150000D02*
X107934000Y-98960000D01*
X118094000Y-91150000D02*
X107934000Y-91150000D01*
X118094000Y-98960000D02*
X118094000Y-91150000D01*
X107039000Y-59595000D02*
X107264000Y-59595000D01*
X107039000Y-54945000D02*
X107364000Y-54945000D01*
X116989000Y-54945000D02*
X116664000Y-54945000D01*
X116989000Y-59595000D02*
X116664000Y-59595000D01*
X107039000Y-59595000D02*
X107039000Y-54945000D01*
X116989000Y-59595000D02*
X116989000Y-54945000D01*
X107264000Y-59595000D02*
X107264000Y-60670000D01*
D17*
X112375000Y-78750000D02*
X111575000Y-77950000D01*
X111575000Y-77950000D02*
X111575000Y-69710000D01*
X111575000Y-69710000D02*
X117285000Y-69710000D01*
X117285000Y-69710000D02*
X117285000Y-78750000D01*
X117285000Y-78750000D02*
X112375000Y-78750000D01*
D18*
X148537261Y-84302001D02*
X148318001Y-84302001D01*
X151502739Y-87705999D02*
X151721999Y-87705999D01*
X148318001Y-87705999D02*
X148537261Y-87705999D01*
X148318001Y-84302001D02*
X148318001Y-87705999D01*
X151721999Y-84302001D02*
X151502739Y-84302001D01*
X151721999Y-87705999D02*
X151721999Y-84302001D01*
D17*
X135819000Y-81533000D02*
X137619000Y-81533000D01*
X137619000Y-78313000D02*
X135169000Y-78313000D01*
D10*
X118980000Y-70480000D02*
X118980000Y-77980000D01*
X118980000Y-77980000D02*
X127480000Y-77980000D01*
X127480000Y-77980000D02*
X127480000Y-70480000D01*
X127480000Y-70480000D02*
X118980000Y-70480000D01*
D17*
X136360000Y-89144000D02*
X136360000Y-91144000D01*
X136360000Y-91144000D02*
X140210000Y-91144000D01*
X136360000Y-89144000D02*
X140210000Y-89144000D01*
X118057000Y-78287000D02*
X118057000Y-80467000D01*
X118057000Y-84887000D02*
X118057000Y-82707000D01*
X124657000Y-79047000D02*
X124657000Y-80467000D01*
X124657000Y-84127000D02*
X124657000Y-82707000D01*
X118057000Y-78287000D02*
X123897000Y-78287000D01*
X123897000Y-78287000D02*
X124657000Y-79047000D01*
X124657000Y-84127000D02*
X123897000Y-84887000D01*
X123897000Y-84887000D02*
X118057000Y-84887000D01*
X107859267Y-52880000D02*
X107516733Y-52880000D01*
X107859267Y-51860000D02*
X107516733Y-51860000D01*
X107859267Y-50336000D02*
X107516733Y-50336000D01*
X107859267Y-51356000D02*
X107516733Y-51356000D01*
X153530000Y-51669000D02*
X151070000Y-51669000D01*
X151070000Y-51669000D02*
X151070000Y-53139000D01*
X151070000Y-53139000D02*
X153530000Y-53139000D01*
X100270000Y-81474000D02*
X100270000Y-84134000D01*
X105410000Y-81474000D02*
X100270000Y-81474000D01*
X105410000Y-84134000D02*
X100270000Y-84134000D01*
X105410000Y-81474000D02*
X105410000Y-84134000D01*
X106680000Y-81474000D02*
X108010000Y-81474000D01*
X108010000Y-81474000D02*
X108010000Y-82804000D01*
X100270000Y-84014000D02*
X100270000Y-86674000D01*
X105410000Y-84014000D02*
X100270000Y-84014000D01*
X105410000Y-86674000D02*
X100270000Y-86674000D01*
X105410000Y-84014000D02*
X105410000Y-86674000D01*
X106680000Y-84014000D02*
X108010000Y-84014000D01*
X108010000Y-84014000D02*
X108010000Y-85344000D01*
X108010000Y-86554000D02*
X108010000Y-87884000D01*
X106680000Y-86554000D02*
X108010000Y-86554000D01*
X105410000Y-86554000D02*
X105410000Y-89214000D01*
X105410000Y-89214000D02*
X100270000Y-89214000D01*
X105410000Y-86554000D02*
X100270000Y-86554000D01*
X100270000Y-86554000D02*
X100270000Y-89214000D01*
X108010000Y-89094000D02*
X108010000Y-90424000D01*
X106680000Y-89094000D02*
X108010000Y-89094000D01*
X105410000Y-89094000D02*
X105410000Y-91754000D01*
X105410000Y-91754000D02*
X100270000Y-91754000D01*
X105410000Y-89094000D02*
X100270000Y-89094000D01*
X100270000Y-89094000D02*
X100270000Y-91754000D01*
X105080000Y-62780000D02*
X103680000Y-62780000D01*
X102980000Y-62080000D02*
X102980000Y-61480000D01*
X103680000Y-60780000D02*
X105080000Y-60780000D01*
X105780000Y-61480000D02*
X105780000Y-62080000D01*
X105780000Y-62080000D02*
G75*
G02X105080000Y-62780000I-700000J0D01*
G01*
X105080000Y-60780000D02*
G75*
G02X105780000Y-61480000I0J-700000D01*
G01*
X102980000Y-61480000D02*
G75*
G02X103680000Y-60780000I700000J0D01*
G01*
X103680000Y-62780000D02*
G75*
G02X102980000Y-62080000I0J700000D01*
G01*
X107450000Y-65307000D02*
X108450000Y-65307000D01*
X107450000Y-61947000D02*
X108450000Y-61947000D01*
D19*
X162329504Y-75091723D02*
X162329504Y-75806866D01*
X162281828Y-75949895D01*
X162186476Y-76045247D01*
X162043447Y-76092923D01*
X161948095Y-76092923D01*
X163330704Y-76092923D02*
X162758590Y-76092923D01*
X163044647Y-76092923D02*
X163044647Y-75091723D01*
X162949295Y-75234752D01*
X162853942Y-75330104D01*
X162758590Y-75377780D01*
X163950495Y-75091723D02*
X164045847Y-75091723D01*
X164141200Y-75139400D01*
X164188876Y-75187076D01*
X164236552Y-75282428D01*
X164284228Y-75473133D01*
X164284228Y-75711514D01*
X164236552Y-75902219D01*
X164188876Y-75997571D01*
X164141200Y-76045247D01*
X164045847Y-76092923D01*
X163950495Y-76092923D01*
X163855142Y-76045247D01*
X163807466Y-75997571D01*
X163759790Y-75902219D01*
X163712114Y-75711514D01*
X163712114Y-75473133D01*
X163759790Y-75282428D01*
X163807466Y-75187076D01*
X163855142Y-75139400D01*
X163950495Y-75091723D01*
X156756523Y-87752457D02*
X156756523Y-86752287D01*
X157137540Y-86752287D01*
X157232795Y-86799915D01*
X157280422Y-86847542D01*
X157328049Y-86942796D01*
X157328049Y-87085677D01*
X157280422Y-87180932D01*
X157232795Y-87228559D01*
X157137540Y-87276186D01*
X156756523Y-87276186D01*
X158042456Y-86752287D02*
X158042456Y-87466695D01*
X157994829Y-87609576D01*
X157899575Y-87704830D01*
X157756693Y-87752457D01*
X157661439Y-87752457D01*
X158518727Y-87371440D02*
X159280762Y-87371440D01*
X159947542Y-86752287D02*
X160042796Y-86752287D01*
X160138050Y-86799915D01*
X160185677Y-86847542D01*
X160233305Y-86942796D01*
X160280932Y-87133305D01*
X160280932Y-87371440D01*
X160233305Y-87561949D01*
X160185677Y-87657203D01*
X160138050Y-87704830D01*
X160042796Y-87752457D01*
X159947542Y-87752457D01*
X159852287Y-87704830D01*
X159804660Y-87657203D01*
X159757033Y-87561949D01*
X159709406Y-87371440D01*
X159709406Y-87133305D01*
X159757033Y-86942796D01*
X159804660Y-86847542D01*
X159852287Y-86799915D01*
X159947542Y-86752287D01*
X160614322Y-86752287D02*
X161233475Y-86752287D01*
X160900085Y-87133305D01*
X161042966Y-87133305D01*
X161138220Y-87180932D01*
X161185847Y-87228559D01*
X161233475Y-87323813D01*
X161233475Y-87561949D01*
X161185847Y-87657203D01*
X161138220Y-87704830D01*
X161042966Y-87752457D01*
X160757203Y-87752457D01*
X160661949Y-87704830D01*
X160614322Y-87657203D01*
X161805000Y-87180932D02*
X161709746Y-87133305D01*
X161662119Y-87085677D01*
X161614492Y-86990423D01*
X161614492Y-86942796D01*
X161662119Y-86847542D01*
X161709746Y-86799915D01*
X161805000Y-86752287D01*
X161995509Y-86752287D01*
X162090763Y-86799915D01*
X162138390Y-86847542D01*
X162186017Y-86942796D01*
X162186017Y-86990423D01*
X162138390Y-87085677D01*
X162090763Y-87133305D01*
X161995509Y-87180932D01*
X161805000Y-87180932D01*
X161709746Y-87228559D01*
X161662119Y-87276186D01*
X161614492Y-87371440D01*
X161614492Y-87561949D01*
X161662119Y-87657203D01*
X161709746Y-87704830D01*
X161805000Y-87752457D01*
X161995509Y-87752457D01*
X162090763Y-87704830D01*
X162138390Y-87657203D01*
X162186017Y-87561949D01*
X162186017Y-87371440D01*
X162138390Y-87276186D01*
X162090763Y-87228559D01*
X161995509Y-87180932D01*
X162567035Y-87466695D02*
X163043306Y-87466695D01*
X162471780Y-87752457D02*
X162805170Y-86752287D01*
X163138560Y-87752457D01*
X163471950Y-87752457D02*
X163471950Y-86752287D01*
X163471950Y-87228559D02*
X164043476Y-87228559D01*
X164043476Y-87752457D02*
X164043476Y-86752287D01*
D10*
X129624285Y-55862380D02*
X129052857Y-55862380D01*
X129338571Y-55862380D02*
X129338571Y-54862380D01*
X129243333Y-55005238D01*
X129148095Y-55100476D01*
X129052857Y-55148095D01*
X130005238Y-54957619D02*
X130052857Y-54910000D01*
X130148095Y-54862380D01*
X130386190Y-54862380D01*
X130481428Y-54910000D01*
X130529047Y-54957619D01*
X130576666Y-55052857D01*
X130576666Y-55148095D01*
X130529047Y-55290952D01*
X129957619Y-55862380D01*
X130576666Y-55862380D01*
X131148095Y-55290952D02*
X131052857Y-55243333D01*
X131005238Y-55195714D01*
X130957619Y-55100476D01*
X130957619Y-55052857D01*
X131005238Y-54957619D01*
X131052857Y-54910000D01*
X131148095Y-54862380D01*
X131338571Y-54862380D01*
X131433809Y-54910000D01*
X131481428Y-54957619D01*
X131529047Y-55052857D01*
X131529047Y-55100476D01*
X131481428Y-55195714D01*
X131433809Y-55243333D01*
X131338571Y-55290952D01*
X131148095Y-55290952D01*
X131052857Y-55338571D01*
X131005238Y-55386190D01*
X130957619Y-55481428D01*
X130957619Y-55671904D01*
X131005238Y-55767142D01*
X131052857Y-55814761D01*
X131148095Y-55862380D01*
X131338571Y-55862380D01*
X131433809Y-55814761D01*
X131481428Y-55767142D01*
X131529047Y-55671904D01*
X131529047Y-55481428D01*
X131481428Y-55386190D01*
X131433809Y-55338571D01*
X131338571Y-55290952D01*
X131862380Y-55862380D02*
X132386190Y-55195714D01*
X131862380Y-55195714D02*
X132386190Y-55862380D01*
X133195714Y-54862380D02*
X133005238Y-54862380D01*
X132910000Y-54910000D01*
X132862380Y-54957619D01*
X132767142Y-55100476D01*
X132719523Y-55290952D01*
X132719523Y-55671904D01*
X132767142Y-55767142D01*
X132814761Y-55814761D01*
X132910000Y-55862380D01*
X133100476Y-55862380D01*
X133195714Y-55814761D01*
X133243333Y-55767142D01*
X133290952Y-55671904D01*
X133290952Y-55433809D01*
X133243333Y-55338571D01*
X133195714Y-55290952D01*
X133100476Y-55243333D01*
X132910000Y-55243333D01*
X132814761Y-55290952D01*
X132767142Y-55338571D01*
X132719523Y-55433809D01*
X134148095Y-55195714D02*
X134148095Y-55862380D01*
X133910000Y-54814761D02*
X133671904Y-55529047D01*
X134290952Y-55529047D01*
X134433809Y-55957619D02*
X135195714Y-55957619D01*
X135624285Y-54862380D02*
X135814761Y-54862380D01*
X135910000Y-54910000D01*
X136005238Y-55005238D01*
X136052857Y-55195714D01*
X136052857Y-55529047D01*
X136005238Y-55719523D01*
X135910000Y-55814761D01*
X135814761Y-55862380D01*
X135624285Y-55862380D01*
X135529047Y-55814761D01*
X135433809Y-55719523D01*
X135386190Y-55529047D01*
X135386190Y-55195714D01*
X135433809Y-55005238D01*
X135529047Y-54910000D01*
X135624285Y-54862380D01*
X136957619Y-55862380D02*
X136481428Y-55862380D01*
X136481428Y-54862380D01*
X137290952Y-55338571D02*
X137624285Y-55338571D01*
X137767142Y-55862380D02*
X137290952Y-55862380D01*
X137290952Y-54862380D01*
X137767142Y-54862380D01*
X138195714Y-55862380D02*
X138195714Y-54862380D01*
X138433809Y-54862380D01*
X138576666Y-54910000D01*
X138671904Y-55005238D01*
X138719523Y-55100476D01*
X138767142Y-55290952D01*
X138767142Y-55433809D01*
X138719523Y-55624285D01*
X138671904Y-55719523D01*
X138576666Y-55814761D01*
X138433809Y-55862380D01*
X138195714Y-55862380D01*
X129480476Y-52850000D02*
X129404285Y-52811904D01*
X129290000Y-52811904D01*
X129175714Y-52850000D01*
X129099523Y-52926190D01*
X129061428Y-53002380D01*
X129023333Y-53154761D01*
X129023333Y-53269047D01*
X129061428Y-53421428D01*
X129099523Y-53497619D01*
X129175714Y-53573809D01*
X129290000Y-53611904D01*
X129366190Y-53611904D01*
X129480476Y-53573809D01*
X129518571Y-53535714D01*
X129518571Y-53269047D01*
X129366190Y-53269047D01*
X129861428Y-53611904D02*
X129861428Y-52811904D01*
X130318571Y-53611904D01*
X130318571Y-52811904D01*
X130699523Y-53611904D02*
X130699523Y-52811904D01*
X130890000Y-52811904D01*
X131004285Y-52850000D01*
X131080476Y-52926190D01*
X131118571Y-53002380D01*
X131156666Y-53154761D01*
X131156666Y-53269047D01*
X131118571Y-53421428D01*
X131080476Y-53497619D01*
X131004285Y-53573809D01*
X130890000Y-53611904D01*
X130699523Y-53611904D01*
X134227619Y-53553809D02*
X134341904Y-53591904D01*
X134532380Y-53591904D01*
X134608571Y-53553809D01*
X134646666Y-53515714D01*
X134684761Y-53439523D01*
X134684761Y-53363333D01*
X134646666Y-53287142D01*
X134608571Y-53249047D01*
X134532380Y-53210952D01*
X134380000Y-53172857D01*
X134303809Y-53134761D01*
X134265714Y-53096666D01*
X134227619Y-53020476D01*
X134227619Y-52944285D01*
X134265714Y-52868095D01*
X134303809Y-52830000D01*
X134380000Y-52791904D01*
X134570476Y-52791904D01*
X134684761Y-52830000D01*
X135484761Y-53515714D02*
X135446666Y-53553809D01*
X135332380Y-53591904D01*
X135256190Y-53591904D01*
X135141904Y-53553809D01*
X135065714Y-53477619D01*
X135027619Y-53401428D01*
X134989523Y-53249047D01*
X134989523Y-53134761D01*
X135027619Y-52982380D01*
X135065714Y-52906190D01*
X135141904Y-52830000D01*
X135256190Y-52791904D01*
X135332380Y-52791904D01*
X135446666Y-52830000D01*
X135484761Y-52868095D01*
X136208571Y-53591904D02*
X135827619Y-53591904D01*
X135827619Y-52791904D01*
X136748571Y-53553809D02*
X136862857Y-53591904D01*
X137053333Y-53591904D01*
X137129523Y-53553809D01*
X137167619Y-53515714D01*
X137205714Y-53439523D01*
X137205714Y-53363333D01*
X137167619Y-53287142D01*
X137129523Y-53249047D01*
X137053333Y-53210952D01*
X136900952Y-53172857D01*
X136824761Y-53134761D01*
X136786666Y-53096666D01*
X136748571Y-53020476D01*
X136748571Y-52944285D01*
X136786666Y-52868095D01*
X136824761Y-52830000D01*
X136900952Y-52791904D01*
X137091428Y-52791904D01*
X137205714Y-52830000D01*
X137548571Y-53591904D02*
X137548571Y-52791904D01*
X137739047Y-52791904D01*
X137853333Y-52830000D01*
X137929523Y-52906190D01*
X137967619Y-52982380D01*
X138005714Y-53134761D01*
X138005714Y-53249047D01*
X137967619Y-53401428D01*
X137929523Y-53477619D01*
X137853333Y-53553809D01*
X137739047Y-53591904D01*
X137548571Y-53591904D01*
X138310476Y-53363333D02*
X138691428Y-53363333D01*
X138234285Y-53591904D02*
X138500952Y-52791904D01*
X138767619Y-53591904D01*
X131583333Y-52831904D02*
X131850000Y-53631904D01*
X132116666Y-52831904D01*
X132840476Y-53555714D02*
X132802380Y-53593809D01*
X132688095Y-53631904D01*
X132611904Y-53631904D01*
X132497619Y-53593809D01*
X132421428Y-53517619D01*
X132383333Y-53441428D01*
X132345238Y-53289047D01*
X132345238Y-53174761D01*
X132383333Y-53022380D01*
X132421428Y-52946190D01*
X132497619Y-52870000D01*
X132611904Y-52831904D01*
X132688095Y-52831904D01*
X132802380Y-52870000D01*
X132840476Y-52908095D01*
X133640476Y-53555714D02*
X133602380Y-53593809D01*
X133488095Y-53631904D01*
X133411904Y-53631904D01*
X133297619Y-53593809D01*
X133221428Y-53517619D01*
X133183333Y-53441428D01*
X133145238Y-53289047D01*
X133145238Y-53174761D01*
X133183333Y-53022380D01*
X133221428Y-52946190D01*
X133297619Y-52870000D01*
X133411904Y-52831904D01*
X133488095Y-52831904D01*
X133602380Y-52870000D01*
X133640476Y-52908095D01*
X163770000Y-54546666D02*
X163736666Y-54613333D01*
X163736666Y-54713333D01*
X163770000Y-54813333D01*
X163836666Y-54880000D01*
X163903333Y-54913333D01*
X164036666Y-54946666D01*
X164136666Y-54946666D01*
X164270000Y-54913333D01*
X164336666Y-54880000D01*
X164403333Y-54813333D01*
X164436666Y-54713333D01*
X164436666Y-54646666D01*
X164403333Y-54546666D01*
X164370000Y-54513333D01*
X164136666Y-54513333D01*
X164136666Y-54646666D01*
X164436666Y-54213333D02*
X163736666Y-54213333D01*
X163736666Y-53946666D01*
X163770000Y-53880000D01*
X163803333Y-53846666D01*
X163870000Y-53813333D01*
X163970000Y-53813333D01*
X164036666Y-53846666D01*
X164070000Y-53880000D01*
X164103333Y-53946666D01*
X164103333Y-54213333D01*
X164436666Y-53513333D02*
X163736666Y-53513333D01*
X163736666Y-53046666D02*
X163736666Y-52913333D01*
X163770000Y-52846666D01*
X163836666Y-52780000D01*
X163970000Y-52746666D01*
X164203333Y-52746666D01*
X164336666Y-52780000D01*
X164403333Y-52846666D01*
X164436666Y-52913333D01*
X164436666Y-53046666D01*
X164403333Y-53113333D01*
X164336666Y-53180000D01*
X164203333Y-53213333D01*
X163970000Y-53213333D01*
X163836666Y-53180000D01*
X163770000Y-53113333D01*
X163736666Y-53046666D01*
X164436666Y-52080000D02*
X164436666Y-52480000D01*
X164436666Y-52280000D02*
X163736666Y-52280000D01*
X163836666Y-52346666D01*
X163903333Y-52413333D01*
X163936666Y-52480000D01*
X163736666Y-51846666D02*
X163736666Y-51413333D01*
X164003333Y-51646666D01*
X164003333Y-51546666D01*
X164036666Y-51480000D01*
X164070000Y-51446666D01*
X164136666Y-51413333D01*
X164303333Y-51413333D01*
X164370000Y-51446666D01*
X164403333Y-51480000D01*
X164436666Y-51546666D01*
X164436666Y-51746666D01*
X164403333Y-51813333D01*
X164370000Y-51846666D01*
X158656666Y-53463333D02*
X158756666Y-53496666D01*
X158923333Y-53496666D01*
X158990000Y-53463333D01*
X159023333Y-53430000D01*
X159056666Y-53363333D01*
X159056666Y-53296666D01*
X159023333Y-53230000D01*
X158990000Y-53196666D01*
X158923333Y-53163333D01*
X158790000Y-53130000D01*
X158723333Y-53096666D01*
X158690000Y-53063333D01*
X158656666Y-52996666D01*
X158656666Y-52930000D01*
X158690000Y-52863333D01*
X158723333Y-52830000D01*
X158790000Y-52796666D01*
X158956666Y-52796666D01*
X159056666Y-52830000D01*
X159290000Y-52796666D02*
X159456666Y-53496666D01*
X159590000Y-52996666D01*
X159723333Y-53496666D01*
X159890000Y-52796666D01*
X160523333Y-53496666D02*
X160123333Y-53496666D01*
X160323333Y-53496666D02*
X160323333Y-52796666D01*
X160256666Y-52896666D01*
X160190000Y-52963333D01*
X160123333Y-52996666D01*
X163770000Y-60756666D02*
X163736666Y-60823333D01*
X163736666Y-60923333D01*
X163770000Y-61023333D01*
X163836666Y-61090000D01*
X163903333Y-61123333D01*
X164036666Y-61156666D01*
X164136666Y-61156666D01*
X164270000Y-61123333D01*
X164336666Y-61090000D01*
X164403333Y-61023333D01*
X164436666Y-60923333D01*
X164436666Y-60856666D01*
X164403333Y-60756666D01*
X164370000Y-60723333D01*
X164136666Y-60723333D01*
X164136666Y-60856666D01*
X164436666Y-60423333D02*
X163736666Y-60423333D01*
X163736666Y-60156666D01*
X163770000Y-60090000D01*
X163803333Y-60056666D01*
X163870000Y-60023333D01*
X163970000Y-60023333D01*
X164036666Y-60056666D01*
X164070000Y-60090000D01*
X164103333Y-60156666D01*
X164103333Y-60423333D01*
X164436666Y-59723333D02*
X163736666Y-59723333D01*
X163736666Y-59256666D02*
X163736666Y-59123333D01*
X163770000Y-59056666D01*
X163836666Y-58990000D01*
X163970000Y-58956666D01*
X164203333Y-58956666D01*
X164336666Y-58990000D01*
X164403333Y-59056666D01*
X164436666Y-59123333D01*
X164436666Y-59256666D01*
X164403333Y-59323333D01*
X164336666Y-59390000D01*
X164203333Y-59423333D01*
X163970000Y-59423333D01*
X163836666Y-59390000D01*
X163770000Y-59323333D01*
X163736666Y-59256666D01*
X163736666Y-58523333D02*
X163736666Y-58456666D01*
X163770000Y-58390000D01*
X163803333Y-58356666D01*
X163870000Y-58323333D01*
X164003333Y-58290000D01*
X164170000Y-58290000D01*
X164303333Y-58323333D01*
X164370000Y-58356666D01*
X164403333Y-58390000D01*
X164436666Y-58456666D01*
X164436666Y-58523333D01*
X164403333Y-58590000D01*
X164370000Y-58623333D01*
X164303333Y-58656666D01*
X164170000Y-58690000D01*
X164003333Y-58690000D01*
X163870000Y-58656666D01*
X163803333Y-58623333D01*
X163770000Y-58590000D01*
X163736666Y-58523333D01*
X163736666Y-57690000D02*
X163736666Y-57823333D01*
X163770000Y-57890000D01*
X163803333Y-57923333D01*
X163903333Y-57990000D01*
X164036666Y-58023333D01*
X164303333Y-58023333D01*
X164370000Y-57990000D01*
X164403333Y-57956666D01*
X164436666Y-57890000D01*
X164436666Y-57756666D01*
X164403333Y-57690000D01*
X164370000Y-57656666D01*
X164303333Y-57623333D01*
X164136666Y-57623333D01*
X164070000Y-57656666D01*
X164036666Y-57690000D01*
X164003333Y-57756666D01*
X164003333Y-57890000D01*
X164036666Y-57956666D01*
X164070000Y-57990000D01*
X164136666Y-58023333D01*
X158656666Y-59663333D02*
X158756666Y-59696666D01*
X158923333Y-59696666D01*
X158990000Y-59663333D01*
X159023333Y-59630000D01*
X159056666Y-59563333D01*
X159056666Y-59496666D01*
X159023333Y-59430000D01*
X158990000Y-59396666D01*
X158923333Y-59363333D01*
X158790000Y-59330000D01*
X158723333Y-59296666D01*
X158690000Y-59263333D01*
X158656666Y-59196666D01*
X158656666Y-59130000D01*
X158690000Y-59063333D01*
X158723333Y-59030000D01*
X158790000Y-58996666D01*
X158956666Y-58996666D01*
X159056666Y-59030000D01*
X159290000Y-58996666D02*
X159456666Y-59696666D01*
X159590000Y-59196666D01*
X159723333Y-59696666D01*
X159890000Y-58996666D01*
X160123333Y-59063333D02*
X160156666Y-59030000D01*
X160223333Y-58996666D01*
X160390000Y-58996666D01*
X160456666Y-59030000D01*
X160490000Y-59063333D01*
X160523333Y-59130000D01*
X160523333Y-59196666D01*
X160490000Y-59296666D01*
X160090000Y-59696666D01*
X160523333Y-59696666D01*
X156262666Y-91475666D02*
X156262666Y-91875666D01*
X156262666Y-91675666D02*
X155562666Y-91675666D01*
X155662666Y-91742333D01*
X155729333Y-91809000D01*
X155762666Y-91875666D01*
X155796000Y-90875666D02*
X156262666Y-90875666D01*
X155796000Y-91175666D02*
X156162666Y-91175666D01*
X156229333Y-91142333D01*
X156262666Y-91075666D01*
X156262666Y-90975666D01*
X156229333Y-90909000D01*
X156196000Y-90875666D01*
X155896000Y-90309000D02*
X155896000Y-90542333D01*
X156262666Y-90542333D02*
X155562666Y-90542333D01*
X155562666Y-90209000D01*
X149278666Y-91495666D02*
X149278666Y-91895666D01*
X149278666Y-91695666D02*
X148578666Y-91695666D01*
X148678666Y-91762333D01*
X148745333Y-91829000D01*
X148778666Y-91895666D01*
X148812000Y-90895666D02*
X149278666Y-90895666D01*
X148812000Y-91195666D02*
X149178666Y-91195666D01*
X149245333Y-91162333D01*
X149278666Y-91095666D01*
X149278666Y-90995666D01*
X149245333Y-90929000D01*
X149212000Y-90895666D01*
X148912000Y-90329000D02*
X148912000Y-90562333D01*
X149278666Y-90562333D02*
X148578666Y-90562333D01*
X148578666Y-90229000D01*
X157814666Y-91465666D02*
X157814666Y-91865666D01*
X157814666Y-91665666D02*
X157114666Y-91665666D01*
X157214666Y-91732333D01*
X157281333Y-91799000D01*
X157314666Y-91865666D01*
X157348000Y-90865666D02*
X157814666Y-90865666D01*
X157348000Y-91165666D02*
X157714666Y-91165666D01*
X157781333Y-91132333D01*
X157814666Y-91065666D01*
X157814666Y-90965666D01*
X157781333Y-90899000D01*
X157748000Y-90865666D01*
X157448000Y-90299000D02*
X157448000Y-90532333D01*
X157814666Y-90532333D02*
X157114666Y-90532333D01*
X157114666Y-90199000D01*
X148696666Y-91519666D02*
X148696666Y-91919666D01*
X148696666Y-91719666D02*
X147996666Y-91719666D01*
X148096666Y-91786333D01*
X148163333Y-91853000D01*
X148196666Y-91919666D01*
X147996666Y-90886333D02*
X147996666Y-91219666D01*
X148330000Y-91253000D01*
X148296666Y-91219666D01*
X148263333Y-91153000D01*
X148263333Y-90986333D01*
X148296666Y-90919666D01*
X148330000Y-90886333D01*
X148396666Y-90853000D01*
X148563333Y-90853000D01*
X148630000Y-90886333D01*
X148663333Y-90919666D01*
X148696666Y-90986333D01*
X148696666Y-91153000D01*
X148663333Y-91219666D01*
X148630000Y-91253000D01*
X147996666Y-90419666D02*
X147996666Y-90353000D01*
X148030000Y-90286333D01*
X148063333Y-90253000D01*
X148130000Y-90219666D01*
X148263333Y-90186333D01*
X148430000Y-90186333D01*
X148563333Y-90219666D01*
X148630000Y-90253000D01*
X148663333Y-90286333D01*
X148696666Y-90353000D01*
X148696666Y-90419666D01*
X148663333Y-90486333D01*
X148630000Y-90519666D01*
X148563333Y-90553000D01*
X148430000Y-90586333D01*
X148263333Y-90586333D01*
X148130000Y-90553000D01*
X148063333Y-90519666D01*
X148030000Y-90486333D01*
X147996666Y-90419666D01*
X152805333Y-91925666D02*
X152772000Y-91892333D01*
X152738666Y-91825666D01*
X152738666Y-91659000D01*
X152772000Y-91592333D01*
X152805333Y-91559000D01*
X152872000Y-91525666D01*
X152938666Y-91525666D01*
X153038666Y-91559000D01*
X153438666Y-91959000D01*
X153438666Y-91525666D01*
X152972000Y-90925666D02*
X153438666Y-90925666D01*
X152705333Y-91092333D02*
X153205333Y-91259000D01*
X153205333Y-90825666D01*
X152738666Y-90425666D02*
X152738666Y-90359000D01*
X152772000Y-90292333D01*
X152805333Y-90259000D01*
X152872000Y-90225666D01*
X153005333Y-90192333D01*
X153172000Y-90192333D01*
X153305333Y-90225666D01*
X153372000Y-90259000D01*
X153405333Y-90292333D01*
X153438666Y-90359000D01*
X153438666Y-90425666D01*
X153405333Y-90492333D01*
X153372000Y-90525666D01*
X153305333Y-90559000D01*
X153172000Y-90592333D01*
X153005333Y-90592333D01*
X152872000Y-90559000D01*
X152805333Y-90525666D01*
X152772000Y-90492333D01*
X152738666Y-90425666D01*
X150224666Y-91525666D02*
X150224666Y-91925666D01*
X150224666Y-91725666D02*
X149524666Y-91725666D01*
X149624666Y-91792333D01*
X149691333Y-91859000D01*
X149724666Y-91925666D01*
X149524666Y-90892333D02*
X149524666Y-91225666D01*
X149858000Y-91259000D01*
X149824666Y-91225666D01*
X149791333Y-91159000D01*
X149791333Y-90992333D01*
X149824666Y-90925666D01*
X149858000Y-90892333D01*
X149924666Y-90859000D01*
X150091333Y-90859000D01*
X150158000Y-90892333D01*
X150191333Y-90925666D01*
X150224666Y-90992333D01*
X150224666Y-91159000D01*
X150191333Y-91225666D01*
X150158000Y-91259000D01*
X149524666Y-90425666D02*
X149524666Y-90359000D01*
X149558000Y-90292333D01*
X149591333Y-90259000D01*
X149658000Y-90225666D01*
X149791333Y-90192333D01*
X149958000Y-90192333D01*
X150091333Y-90225666D01*
X150158000Y-90259000D01*
X150191333Y-90292333D01*
X150224666Y-90359000D01*
X150224666Y-90425666D01*
X150191333Y-90492333D01*
X150158000Y-90525666D01*
X150091333Y-90559000D01*
X149958000Y-90592333D01*
X149791333Y-90592333D01*
X149658000Y-90559000D01*
X149591333Y-90525666D01*
X149558000Y-90492333D01*
X149524666Y-90425666D01*
X147036666Y-68876666D02*
X146636666Y-68876666D01*
X146836666Y-68876666D02*
X146836666Y-68176666D01*
X146770000Y-68276666D01*
X146703333Y-68343333D01*
X146636666Y-68376666D01*
X147470000Y-68176666D02*
X147536666Y-68176666D01*
X147603333Y-68210000D01*
X147636666Y-68243333D01*
X147670000Y-68310000D01*
X147703333Y-68443333D01*
X147703333Y-68610000D01*
X147670000Y-68743333D01*
X147636666Y-68810000D01*
X147603333Y-68843333D01*
X147536666Y-68876666D01*
X147470000Y-68876666D01*
X147403333Y-68843333D01*
X147370000Y-68810000D01*
X147336666Y-68743333D01*
X147303333Y-68610000D01*
X147303333Y-68443333D01*
X147336666Y-68310000D01*
X147370000Y-68243333D01*
X147403333Y-68210000D01*
X147470000Y-68176666D01*
X148003333Y-68876666D02*
X148003333Y-68176666D01*
X148403333Y-68876666D02*
X148103333Y-68476666D01*
X148403333Y-68176666D02*
X148003333Y-68576666D01*
X161766666Y-63270000D02*
X161766666Y-63736666D01*
X161600000Y-63003333D02*
X161433333Y-63503333D01*
X161866666Y-63503333D01*
X162066666Y-63036666D02*
X162533333Y-63036666D01*
X162233333Y-63736666D01*
X162933333Y-63036666D02*
X163000000Y-63036666D01*
X163066666Y-63070000D01*
X163100000Y-63103333D01*
X163133333Y-63170000D01*
X163166666Y-63303333D01*
X163166666Y-63470000D01*
X163133333Y-63603333D01*
X163100000Y-63670000D01*
X163066666Y-63703333D01*
X163000000Y-63736666D01*
X162933333Y-63736666D01*
X162866666Y-63703333D01*
X162833333Y-63670000D01*
X162800000Y-63603333D01*
X162766666Y-63470000D01*
X162766666Y-63303333D01*
X162800000Y-63170000D01*
X162833333Y-63103333D01*
X162866666Y-63070000D01*
X162933333Y-63036666D01*
X157270000Y-63076666D02*
X157703333Y-63076666D01*
X157470000Y-63343333D01*
X157570000Y-63343333D01*
X157636666Y-63376666D01*
X157670000Y-63410000D01*
X157703333Y-63476666D01*
X157703333Y-63643333D01*
X157670000Y-63710000D01*
X157636666Y-63743333D01*
X157570000Y-63776666D01*
X157370000Y-63776666D01*
X157303333Y-63743333D01*
X157270000Y-63710000D01*
X157936666Y-63076666D02*
X158370000Y-63076666D01*
X158136666Y-63343333D01*
X158236666Y-63343333D01*
X158303333Y-63376666D01*
X158336666Y-63410000D01*
X158370000Y-63476666D01*
X158370000Y-63643333D01*
X158336666Y-63710000D01*
X158303333Y-63743333D01*
X158236666Y-63776666D01*
X158036666Y-63776666D01*
X157970000Y-63743333D01*
X157936666Y-63710000D01*
X158803333Y-63076666D02*
X158870000Y-63076666D01*
X158936666Y-63110000D01*
X158970000Y-63143333D01*
X159003333Y-63210000D01*
X159036666Y-63343333D01*
X159036666Y-63510000D01*
X159003333Y-63643333D01*
X158970000Y-63710000D01*
X158936666Y-63743333D01*
X158870000Y-63776666D01*
X158803333Y-63776666D01*
X158736666Y-63743333D01*
X158703333Y-63710000D01*
X158670000Y-63643333D01*
X158636666Y-63510000D01*
X158636666Y-63343333D01*
X158670000Y-63210000D01*
X158703333Y-63143333D01*
X158736666Y-63110000D01*
X158803333Y-63076666D01*
X163786666Y-69660000D02*
X164353333Y-69660000D01*
X164420000Y-69626666D01*
X164453333Y-69593333D01*
X164486666Y-69526666D01*
X164486666Y-69393333D01*
X164453333Y-69326666D01*
X164420000Y-69293333D01*
X164353333Y-69260000D01*
X163786666Y-69260000D01*
X164486666Y-68593333D02*
X164486666Y-68926666D01*
X163786666Y-68926666D01*
X163786666Y-68460000D02*
X163786666Y-68060000D01*
X164486666Y-68260000D02*
X163786666Y-68260000D01*
X164486666Y-67426666D02*
X164153333Y-67660000D01*
X164486666Y-67826666D02*
X163786666Y-67826666D01*
X163786666Y-67560000D01*
X163820000Y-67493333D01*
X163853333Y-67460000D01*
X163920000Y-67426666D01*
X164020000Y-67426666D01*
X164086666Y-67460000D01*
X164120000Y-67493333D01*
X164153333Y-67560000D01*
X164153333Y-67826666D01*
X164286666Y-67160000D02*
X164286666Y-66826666D01*
X164486666Y-67226666D02*
X163786666Y-66993333D01*
X164486666Y-66760000D01*
X164553333Y-66693333D02*
X164553333Y-66160000D01*
X163786666Y-65860000D02*
X163786666Y-65793333D01*
X163820000Y-65726666D01*
X163853333Y-65693333D01*
X163920000Y-65660000D01*
X164053333Y-65626666D01*
X164220000Y-65626666D01*
X164353333Y-65660000D01*
X164420000Y-65693333D01*
X164453333Y-65726666D01*
X164486666Y-65793333D01*
X164486666Y-65860000D01*
X164453333Y-65926666D01*
X164420000Y-65960000D01*
X164353333Y-65993333D01*
X164220000Y-66026666D01*
X164053333Y-66026666D01*
X163920000Y-65993333D01*
X163853333Y-65960000D01*
X163820000Y-65926666D01*
X163786666Y-65860000D01*
X148732380Y-64609714D02*
X148732380Y-65181142D01*
X148732380Y-64895428D02*
X147732380Y-64895428D01*
X147875238Y-64990666D01*
X147970476Y-65085904D01*
X148018095Y-65181142D01*
X147827619Y-64228761D02*
X147780000Y-64181142D01*
X147732380Y-64085904D01*
X147732380Y-63847809D01*
X147780000Y-63752571D01*
X147827619Y-63704952D01*
X147922857Y-63657333D01*
X148018095Y-63657333D01*
X148160952Y-63704952D01*
X148732380Y-64276380D01*
X148732380Y-63657333D01*
X148160952Y-63085904D02*
X148113333Y-63181142D01*
X148065714Y-63228761D01*
X147970476Y-63276380D01*
X147922857Y-63276380D01*
X147827619Y-63228761D01*
X147780000Y-63181142D01*
X147732380Y-63085904D01*
X147732380Y-62895428D01*
X147780000Y-62800190D01*
X147827619Y-62752571D01*
X147922857Y-62704952D01*
X147970476Y-62704952D01*
X148065714Y-62752571D01*
X148113333Y-62800190D01*
X148160952Y-62895428D01*
X148160952Y-63085904D01*
X148208571Y-63181142D01*
X148256190Y-63228761D01*
X148351428Y-63276380D01*
X148541904Y-63276380D01*
X148637142Y-63228761D01*
X148684761Y-63181142D01*
X148732380Y-63085904D01*
X148732380Y-62895428D01*
X148684761Y-62800190D01*
X148637142Y-62752571D01*
X148541904Y-62704952D01*
X148351428Y-62704952D01*
X148256190Y-62752571D01*
X148208571Y-62800190D01*
X148160952Y-62895428D01*
X148732380Y-62371619D02*
X148065714Y-61847809D01*
X148065714Y-62371619D02*
X148732380Y-61847809D01*
X147732380Y-61562095D02*
X147732380Y-60943047D01*
X148113333Y-61276380D01*
X148113333Y-61133523D01*
X148160952Y-61038285D01*
X148208571Y-60990666D01*
X148303809Y-60943047D01*
X148541904Y-60943047D01*
X148637142Y-60990666D01*
X148684761Y-61038285D01*
X148732380Y-61133523D01*
X148732380Y-61419238D01*
X148684761Y-61514476D01*
X148637142Y-61562095D01*
X147827619Y-60562095D02*
X147780000Y-60514476D01*
X147732380Y-60419238D01*
X147732380Y-60181142D01*
X147780000Y-60085904D01*
X147827619Y-60038285D01*
X147922857Y-59990666D01*
X148018095Y-59990666D01*
X148160952Y-60038285D01*
X148732380Y-60609714D01*
X148732380Y-59990666D01*
X148827619Y-59800190D02*
X148827619Y-59038285D01*
X147732380Y-58609714D02*
X147732380Y-58419238D01*
X147780000Y-58324000D01*
X147875238Y-58228761D01*
X148065714Y-58181142D01*
X148399047Y-58181142D01*
X148589523Y-58228761D01*
X148684761Y-58324000D01*
X148732380Y-58419238D01*
X148732380Y-58609714D01*
X148684761Y-58704952D01*
X148589523Y-58800190D01*
X148399047Y-58847809D01*
X148065714Y-58847809D01*
X147875238Y-58800190D01*
X147780000Y-58704952D01*
X147732380Y-58609714D01*
X148732380Y-57276380D02*
X148732380Y-57752571D01*
X147732380Y-57752571D01*
X148208571Y-56943047D02*
X148208571Y-56609714D01*
X148732380Y-56466857D02*
X148732380Y-56943047D01*
X147732380Y-56943047D01*
X147732380Y-56466857D01*
X148732380Y-56038285D02*
X147732380Y-56038285D01*
X147732380Y-55800190D01*
X147780000Y-55657333D01*
X147875238Y-55562095D01*
X147970476Y-55514476D01*
X148160952Y-55466857D01*
X148303809Y-55466857D01*
X148494285Y-55514476D01*
X148589523Y-55562095D01*
X148684761Y-55657333D01*
X148732380Y-55800190D01*
X148732380Y-56038285D01*
X149750000Y-56973523D02*
X149711904Y-57049714D01*
X149711904Y-57164000D01*
X149750000Y-57278285D01*
X149826190Y-57354476D01*
X149902380Y-57392571D01*
X150054761Y-57430666D01*
X150169047Y-57430666D01*
X150321428Y-57392571D01*
X150397619Y-57354476D01*
X150473809Y-57278285D01*
X150511904Y-57164000D01*
X150511904Y-57087809D01*
X150473809Y-56973523D01*
X150435714Y-56935428D01*
X150169047Y-56935428D01*
X150169047Y-57087809D01*
X150511904Y-56592571D02*
X149711904Y-56592571D01*
X150511904Y-56135428D01*
X149711904Y-56135428D01*
X150511904Y-55754476D02*
X149711904Y-55754476D01*
X149711904Y-55564000D01*
X149750000Y-55449714D01*
X149826190Y-55373523D01*
X149902380Y-55335428D01*
X150054761Y-55297333D01*
X150169047Y-55297333D01*
X150321428Y-55335428D01*
X150397619Y-55373523D01*
X150473809Y-55449714D01*
X150511904Y-55564000D01*
X150511904Y-55754476D01*
X149691904Y-59990666D02*
X150491904Y-59724000D01*
X149691904Y-59457333D01*
X150415714Y-58733523D02*
X150453809Y-58771619D01*
X150491904Y-58885904D01*
X150491904Y-58962095D01*
X150453809Y-59076380D01*
X150377619Y-59152571D01*
X150301428Y-59190666D01*
X150149047Y-59228761D01*
X150034761Y-59228761D01*
X149882380Y-59190666D01*
X149806190Y-59152571D01*
X149730000Y-59076380D01*
X149691904Y-58962095D01*
X149691904Y-58885904D01*
X149730000Y-58771619D01*
X149768095Y-58733523D01*
X150415714Y-57933523D02*
X150453809Y-57971619D01*
X150491904Y-58085904D01*
X150491904Y-58162095D01*
X150453809Y-58276380D01*
X150377619Y-58352571D01*
X150301428Y-58390666D01*
X150149047Y-58428761D01*
X150034761Y-58428761D01*
X149882380Y-58390666D01*
X149806190Y-58352571D01*
X149730000Y-58276380D01*
X149691904Y-58162095D01*
X149691904Y-58085904D01*
X149730000Y-57971619D01*
X149768095Y-57933523D01*
X150493809Y-62406380D02*
X150531904Y-62292095D01*
X150531904Y-62101619D01*
X150493809Y-62025428D01*
X150455714Y-61987333D01*
X150379523Y-61949238D01*
X150303333Y-61949238D01*
X150227142Y-61987333D01*
X150189047Y-62025428D01*
X150150952Y-62101619D01*
X150112857Y-62254000D01*
X150074761Y-62330190D01*
X150036666Y-62368285D01*
X149960476Y-62406380D01*
X149884285Y-62406380D01*
X149808095Y-62368285D01*
X149770000Y-62330190D01*
X149731904Y-62254000D01*
X149731904Y-62063523D01*
X149770000Y-61949238D01*
X150455714Y-61149238D02*
X150493809Y-61187333D01*
X150531904Y-61301619D01*
X150531904Y-61377809D01*
X150493809Y-61492095D01*
X150417619Y-61568285D01*
X150341428Y-61606380D01*
X150189047Y-61644476D01*
X150074761Y-61644476D01*
X149922380Y-61606380D01*
X149846190Y-61568285D01*
X149770000Y-61492095D01*
X149731904Y-61377809D01*
X149731904Y-61301619D01*
X149770000Y-61187333D01*
X149808095Y-61149238D01*
X150531904Y-60425428D02*
X150531904Y-60806380D01*
X149731904Y-60806380D01*
X150493809Y-64965428D02*
X150531904Y-64851142D01*
X150531904Y-64660666D01*
X150493809Y-64584476D01*
X150455714Y-64546380D01*
X150379523Y-64508285D01*
X150303333Y-64508285D01*
X150227142Y-64546380D01*
X150189047Y-64584476D01*
X150150952Y-64660666D01*
X150112857Y-64813047D01*
X150074761Y-64889238D01*
X150036666Y-64927333D01*
X149960476Y-64965428D01*
X149884285Y-64965428D01*
X149808095Y-64927333D01*
X149770000Y-64889238D01*
X149731904Y-64813047D01*
X149731904Y-64622571D01*
X149770000Y-64508285D01*
X150531904Y-64165428D02*
X149731904Y-64165428D01*
X149731904Y-63974952D01*
X149770000Y-63860666D01*
X149846190Y-63784476D01*
X149922380Y-63746380D01*
X150074761Y-63708285D01*
X150189047Y-63708285D01*
X150341428Y-63746380D01*
X150417619Y-63784476D01*
X150493809Y-63860666D01*
X150531904Y-63974952D01*
X150531904Y-64165428D01*
X150303333Y-63403523D02*
X150303333Y-63022571D01*
X150531904Y-63479714D02*
X149731904Y-63213047D01*
X150531904Y-62946380D01*
X146167380Y-70331619D02*
X146072142Y-70284000D01*
X145976904Y-70188761D01*
X145834047Y-70045904D01*
X145738809Y-69998285D01*
X145643571Y-69998285D01*
X145691190Y-70236380D02*
X145595952Y-70188761D01*
X145500714Y-70093523D01*
X145453095Y-69903047D01*
X145453095Y-69569714D01*
X145500714Y-69379238D01*
X145595952Y-69284000D01*
X145691190Y-69236380D01*
X145881666Y-69236380D01*
X145976904Y-69284000D01*
X146072142Y-69379238D01*
X146119761Y-69569714D01*
X146119761Y-69903047D01*
X146072142Y-70093523D01*
X145976904Y-70188761D01*
X145881666Y-70236380D01*
X145691190Y-70236380D01*
X146500714Y-69331619D02*
X146548333Y-69284000D01*
X146643571Y-69236380D01*
X146881666Y-69236380D01*
X146976904Y-69284000D01*
X147024523Y-69331619D01*
X147072142Y-69426857D01*
X147072142Y-69522095D01*
X147024523Y-69664952D01*
X146453095Y-70236380D01*
X147072142Y-70236380D01*
X147691190Y-69236380D02*
X147786428Y-69236380D01*
X147881666Y-69284000D01*
X147929285Y-69331619D01*
X147976904Y-69426857D01*
X148024523Y-69617333D01*
X148024523Y-69855428D01*
X147976904Y-70045904D01*
X147929285Y-70141142D01*
X147881666Y-70188761D01*
X147786428Y-70236380D01*
X147691190Y-70236380D01*
X147595952Y-70188761D01*
X147548333Y-70141142D01*
X147500714Y-70045904D01*
X147453095Y-69855428D01*
X147453095Y-69617333D01*
X147500714Y-69426857D01*
X147548333Y-69331619D01*
X147595952Y-69284000D01*
X147691190Y-69236380D01*
X148976904Y-70236380D02*
X148405476Y-70236380D01*
X148691190Y-70236380D02*
X148691190Y-69236380D01*
X148595952Y-69379238D01*
X148500714Y-69474476D01*
X148405476Y-69522095D01*
X144880000Y-73563333D02*
X144913333Y-73463333D01*
X144946666Y-73430000D01*
X145013333Y-73396666D01*
X145113333Y-73396666D01*
X145180000Y-73430000D01*
X145213333Y-73463333D01*
X145246666Y-73530000D01*
X145246666Y-73796666D01*
X144546666Y-73796666D01*
X144546666Y-73563333D01*
X144580000Y-73496666D01*
X144613333Y-73463333D01*
X144680000Y-73430000D01*
X144746666Y-73430000D01*
X144813333Y-73463333D01*
X144846666Y-73496666D01*
X144880000Y-73563333D01*
X144880000Y-73796666D01*
X145213333Y-73130000D02*
X145246666Y-73030000D01*
X145246666Y-72863333D01*
X145213333Y-72796666D01*
X145180000Y-72763333D01*
X145113333Y-72730000D01*
X145046666Y-72730000D01*
X144980000Y-72763333D01*
X144946666Y-72796666D01*
X144913333Y-72863333D01*
X144880000Y-72996666D01*
X144846666Y-73063333D01*
X144813333Y-73096666D01*
X144746666Y-73130000D01*
X144680000Y-73130000D01*
X144613333Y-73096666D01*
X144580000Y-73063333D01*
X144546666Y-72996666D01*
X144546666Y-72830000D01*
X144580000Y-72730000D01*
X145213333Y-72463333D02*
X145246666Y-72363333D01*
X145246666Y-72196666D01*
X145213333Y-72130000D01*
X145180000Y-72096666D01*
X145113333Y-72063333D01*
X145046666Y-72063333D01*
X144980000Y-72096666D01*
X144946666Y-72130000D01*
X144913333Y-72196666D01*
X144880000Y-72330000D01*
X144846666Y-72396666D01*
X144813333Y-72430000D01*
X144746666Y-72463333D01*
X144680000Y-72463333D01*
X144613333Y-72430000D01*
X144580000Y-72396666D01*
X144546666Y-72330000D01*
X144546666Y-72163333D01*
X144580000Y-72063333D01*
X144846666Y-71663333D02*
X144813333Y-71730000D01*
X144780000Y-71763333D01*
X144713333Y-71796666D01*
X144680000Y-71796666D01*
X144613333Y-71763333D01*
X144580000Y-71730000D01*
X144546666Y-71663333D01*
X144546666Y-71530000D01*
X144580000Y-71463333D01*
X144613333Y-71430000D01*
X144680000Y-71396666D01*
X144713333Y-71396666D01*
X144780000Y-71430000D01*
X144813333Y-71463333D01*
X144846666Y-71530000D01*
X144846666Y-71663333D01*
X144880000Y-71730000D01*
X144913333Y-71763333D01*
X144980000Y-71796666D01*
X145113333Y-71796666D01*
X145180000Y-71763333D01*
X145213333Y-71730000D01*
X145246666Y-71663333D01*
X145246666Y-71530000D01*
X145213333Y-71463333D01*
X145180000Y-71430000D01*
X145113333Y-71396666D01*
X144980000Y-71396666D01*
X144913333Y-71430000D01*
X144880000Y-71463333D01*
X144846666Y-71530000D01*
X144780000Y-70796666D02*
X145246666Y-70796666D01*
X144513333Y-70963333D02*
X145013333Y-71130000D01*
X145013333Y-70696666D01*
X140613000Y-73969666D02*
X140613000Y-74536333D01*
X140646333Y-74603000D01*
X140679666Y-74636333D01*
X140746333Y-74669666D01*
X140879666Y-74669666D01*
X140946333Y-74636333D01*
X140979666Y-74603000D01*
X141013000Y-74536333D01*
X141013000Y-73969666D01*
X141313000Y-74036333D02*
X141346333Y-74003000D01*
X141413000Y-73969666D01*
X141579666Y-73969666D01*
X141646333Y-74003000D01*
X141679666Y-74036333D01*
X141713000Y-74103000D01*
X141713000Y-74169666D01*
X141679666Y-74269666D01*
X141279666Y-74669666D01*
X141713000Y-74669666D01*
X142146333Y-73969666D02*
X142213000Y-73969666D01*
X142279666Y-74003000D01*
X142313000Y-74036333D01*
X142346333Y-74103000D01*
X142379666Y-74236333D01*
X142379666Y-74403000D01*
X142346333Y-74536333D01*
X142313000Y-74603000D01*
X142279666Y-74636333D01*
X142213000Y-74669666D01*
X142146333Y-74669666D01*
X142079666Y-74636333D01*
X142046333Y-74603000D01*
X142013000Y-74536333D01*
X141979666Y-74403000D01*
X141979666Y-74236333D01*
X142013000Y-74103000D01*
X142046333Y-74036333D01*
X142079666Y-74003000D01*
X142146333Y-73969666D01*
X142646333Y-74036333D02*
X142679666Y-74003000D01*
X142746333Y-73969666D01*
X142913000Y-73969666D01*
X142979666Y-74003000D01*
X143013000Y-74036333D01*
X143046333Y-74103000D01*
X143046333Y-74169666D01*
X143013000Y-74269666D01*
X142613000Y-74669666D01*
X143046333Y-74669666D01*
X110291333Y-85178666D02*
X110724666Y-85178666D01*
X110491333Y-85445333D01*
X110591333Y-85445333D01*
X110658000Y-85478666D01*
X110691333Y-85512000D01*
X110724666Y-85578666D01*
X110724666Y-85745333D01*
X110691333Y-85812000D01*
X110658000Y-85845333D01*
X110591333Y-85878666D01*
X110391333Y-85878666D01*
X110324666Y-85845333D01*
X110291333Y-85812000D01*
X111158000Y-85178666D02*
X111224666Y-85178666D01*
X111291333Y-85212000D01*
X111324666Y-85245333D01*
X111358000Y-85312000D01*
X111391333Y-85445333D01*
X111391333Y-85612000D01*
X111358000Y-85745333D01*
X111324666Y-85812000D01*
X111291333Y-85845333D01*
X111224666Y-85878666D01*
X111158000Y-85878666D01*
X111091333Y-85845333D01*
X111058000Y-85812000D01*
X111024666Y-85745333D01*
X110991333Y-85612000D01*
X110991333Y-85445333D01*
X111024666Y-85312000D01*
X111058000Y-85245333D01*
X111091333Y-85212000D01*
X111158000Y-85178666D01*
X111591333Y-85178666D02*
X111824666Y-85878666D01*
X112058000Y-85178666D01*
X113191333Y-85878666D02*
X112791333Y-85878666D01*
X112991333Y-85878666D02*
X112991333Y-85178666D01*
X112924666Y-85278666D01*
X112858000Y-85345333D01*
X112791333Y-85378666D01*
X113458000Y-85678666D02*
X113791333Y-85678666D01*
X113391333Y-85878666D02*
X113624666Y-85178666D01*
X113858000Y-85878666D01*
X114536666Y-51526666D02*
X114136666Y-51526666D01*
X114336666Y-51526666D02*
X114336666Y-50826666D01*
X114270000Y-50926666D01*
X114203333Y-50993333D01*
X114136666Y-51026666D01*
X114970000Y-50826666D02*
X115036666Y-50826666D01*
X115103333Y-50860000D01*
X115136666Y-50893333D01*
X115170000Y-50960000D01*
X115203333Y-51093333D01*
X115203333Y-51260000D01*
X115170000Y-51393333D01*
X115136666Y-51460000D01*
X115103333Y-51493333D01*
X115036666Y-51526666D01*
X114970000Y-51526666D01*
X114903333Y-51493333D01*
X114870000Y-51460000D01*
X114836666Y-51393333D01*
X114803333Y-51260000D01*
X114803333Y-51093333D01*
X114836666Y-50960000D01*
X114870000Y-50893333D01*
X114903333Y-50860000D01*
X114970000Y-50826666D01*
X115503333Y-51526666D02*
X115503333Y-50826666D01*
X115903333Y-51526666D02*
X115603333Y-51126666D01*
X115903333Y-50826666D02*
X115503333Y-51226666D01*
X151006666Y-79890000D02*
X150773333Y-79890000D01*
X150773333Y-80256666D02*
X150773333Y-79556666D01*
X151106666Y-79556666D01*
X151606666Y-79890000D02*
X151706666Y-79923333D01*
X151740000Y-79956666D01*
X151773333Y-80023333D01*
X151773333Y-80123333D01*
X151740000Y-80190000D01*
X151706666Y-80223333D01*
X151640000Y-80256666D01*
X151373333Y-80256666D01*
X151373333Y-79556666D01*
X151606666Y-79556666D01*
X151673333Y-79590000D01*
X151706666Y-79623333D01*
X151740000Y-79690000D01*
X151740000Y-79756666D01*
X151706666Y-79823333D01*
X151673333Y-79856666D01*
X151606666Y-79890000D01*
X151373333Y-79890000D01*
X152440000Y-80256666D02*
X152040000Y-80256666D01*
X152240000Y-80256666D02*
X152240000Y-79556666D01*
X152173333Y-79656666D01*
X152106666Y-79723333D01*
X152040000Y-79756666D01*
X111146666Y-65200000D02*
X111146666Y-65600000D01*
X111146666Y-65400000D02*
X110446666Y-65400000D01*
X110546666Y-65466666D01*
X110613333Y-65533333D01*
X110646666Y-65600000D01*
X111146666Y-64533333D02*
X111146666Y-64933333D01*
X111146666Y-64733333D02*
X110446666Y-64733333D01*
X110546666Y-64800000D01*
X110613333Y-64866666D01*
X110646666Y-64933333D01*
X110446666Y-64100000D02*
X110446666Y-64033333D01*
X110480000Y-63966666D01*
X110513333Y-63933333D01*
X110580000Y-63900000D01*
X110713333Y-63866666D01*
X110880000Y-63866666D01*
X111013333Y-63900000D01*
X111080000Y-63933333D01*
X111113333Y-63966666D01*
X111146666Y-64033333D01*
X111146666Y-64100000D01*
X111113333Y-64166666D01*
X111080000Y-64200000D01*
X111013333Y-64233333D01*
X110880000Y-64266666D01*
X110713333Y-64266666D01*
X110580000Y-64233333D01*
X110513333Y-64200000D01*
X110480000Y-64166666D01*
X110446666Y-64100000D01*
X111146666Y-63566666D02*
X110446666Y-63566666D01*
X110880000Y-63500000D02*
X111146666Y-63300000D01*
X110680000Y-63300000D02*
X110946666Y-63566666D01*
X112716666Y-65196666D02*
X112716666Y-65596666D01*
X112716666Y-65396666D02*
X112016666Y-65396666D01*
X112116666Y-65463333D01*
X112183333Y-65530000D01*
X112216666Y-65596666D01*
X112016666Y-64563333D02*
X112016666Y-64896666D01*
X112350000Y-64930000D01*
X112316666Y-64896666D01*
X112283333Y-64830000D01*
X112283333Y-64663333D01*
X112316666Y-64596666D01*
X112350000Y-64563333D01*
X112416666Y-64530000D01*
X112583333Y-64530000D01*
X112650000Y-64563333D01*
X112683333Y-64596666D01*
X112716666Y-64663333D01*
X112716666Y-64830000D01*
X112683333Y-64896666D01*
X112650000Y-64930000D01*
X112716666Y-64230000D02*
X112016666Y-64230000D01*
X112450000Y-64163333D02*
X112716666Y-63963333D01*
X112250000Y-63963333D02*
X112516666Y-64230000D01*
X113476666Y-65230000D02*
X113476666Y-65563333D01*
X113810000Y-65596666D01*
X113776666Y-65563333D01*
X113743333Y-65496666D01*
X113743333Y-65330000D01*
X113776666Y-65263333D01*
X113810000Y-65230000D01*
X113876666Y-65196666D01*
X114043333Y-65196666D01*
X114110000Y-65230000D01*
X114143333Y-65263333D01*
X114176666Y-65330000D01*
X114176666Y-65496666D01*
X114143333Y-65563333D01*
X114110000Y-65596666D01*
X113476666Y-64763333D02*
X113476666Y-64696666D01*
X113510000Y-64630000D01*
X113543333Y-64596666D01*
X113610000Y-64563333D01*
X113743333Y-64530000D01*
X113910000Y-64530000D01*
X114043333Y-64563333D01*
X114110000Y-64596666D01*
X114143333Y-64630000D01*
X114176666Y-64696666D01*
X114176666Y-64763333D01*
X114143333Y-64830000D01*
X114110000Y-64863333D01*
X114043333Y-64896666D01*
X113910000Y-64930000D01*
X113743333Y-64930000D01*
X113610000Y-64896666D01*
X113543333Y-64863333D01*
X113510000Y-64830000D01*
X113476666Y-64763333D01*
X114176666Y-64230000D02*
X113476666Y-64230000D01*
X113910000Y-64163333D02*
X114176666Y-63963333D01*
X113710000Y-63963333D02*
X113976666Y-64230000D01*
X117076666Y-68407333D02*
X117076666Y-68340666D01*
X117110000Y-68274000D01*
X117143333Y-68240666D01*
X117210000Y-68207333D01*
X117343333Y-68174000D01*
X117510000Y-68174000D01*
X117643333Y-68207333D01*
X117710000Y-68240666D01*
X117743333Y-68274000D01*
X117776666Y-68340666D01*
X117776666Y-68407333D01*
X117743333Y-68474000D01*
X117710000Y-68507333D01*
X117643333Y-68540666D01*
X117510000Y-68574000D01*
X117343333Y-68574000D01*
X117210000Y-68540666D01*
X117143333Y-68507333D01*
X117110000Y-68474000D01*
X117076666Y-68407333D01*
X117776666Y-67474000D02*
X117443333Y-67707333D01*
X117776666Y-67874000D02*
X117076666Y-67874000D01*
X117076666Y-67607333D01*
X117110000Y-67540666D01*
X117143333Y-67507333D01*
X117210000Y-67474000D01*
X117310000Y-67474000D01*
X117376666Y-67507333D01*
X117410000Y-67540666D01*
X117443333Y-67607333D01*
X117443333Y-67874000D01*
X154708666Y-91525666D02*
X154708666Y-91925666D01*
X154708666Y-91725666D02*
X154008666Y-91725666D01*
X154108666Y-91792333D01*
X154175333Y-91859000D01*
X154208666Y-91925666D01*
X154008666Y-90892333D02*
X154008666Y-91225666D01*
X154342000Y-91259000D01*
X154308666Y-91225666D01*
X154275333Y-91159000D01*
X154275333Y-90992333D01*
X154308666Y-90925666D01*
X154342000Y-90892333D01*
X154408666Y-90859000D01*
X154575333Y-90859000D01*
X154642000Y-90892333D01*
X154675333Y-90925666D01*
X154708666Y-90992333D01*
X154708666Y-91159000D01*
X154675333Y-91225666D01*
X154642000Y-91259000D01*
X154008666Y-90425666D02*
X154008666Y-90359000D01*
X154042000Y-90292333D01*
X154075333Y-90259000D01*
X154142000Y-90225666D01*
X154275333Y-90192333D01*
X154442000Y-90192333D01*
X154575333Y-90225666D01*
X154642000Y-90259000D01*
X154675333Y-90292333D01*
X154708666Y-90359000D01*
X154708666Y-90425666D01*
X154675333Y-90492333D01*
X154642000Y-90525666D01*
X154575333Y-90559000D01*
X154442000Y-90592333D01*
X154275333Y-90592333D01*
X154142000Y-90559000D01*
X154075333Y-90525666D01*
X154042000Y-90492333D01*
X154008666Y-90425666D01*
X147406666Y-76443333D02*
X147406666Y-76843333D01*
X147406666Y-76643333D02*
X146706666Y-76643333D01*
X146806666Y-76710000D01*
X146873333Y-76776666D01*
X146906666Y-76843333D01*
X147340000Y-76143333D02*
X147373333Y-76110000D01*
X147406666Y-76143333D01*
X147373333Y-76176666D01*
X147340000Y-76143333D01*
X147406666Y-76143333D01*
X146706666Y-75476666D02*
X146706666Y-75810000D01*
X147040000Y-75843333D01*
X147006666Y-75810000D01*
X146973333Y-75743333D01*
X146973333Y-75576666D01*
X147006666Y-75510000D01*
X147040000Y-75476666D01*
X147106666Y-75443333D01*
X147273333Y-75443333D01*
X147340000Y-75476666D01*
X147373333Y-75510000D01*
X147406666Y-75576666D01*
X147406666Y-75743333D01*
X147373333Y-75810000D01*
X147340000Y-75843333D01*
X147406666Y-75143333D02*
X146706666Y-75143333D01*
X147140000Y-75076666D02*
X147406666Y-74876666D01*
X146940000Y-74876666D02*
X147206666Y-75143333D01*
X144256666Y-74810000D02*
X144256666Y-75276666D01*
X144090000Y-74543333D02*
X143923333Y-75043333D01*
X144356666Y-75043333D01*
X144556666Y-74576666D02*
X145023333Y-74576666D01*
X144723333Y-75276666D01*
X145423333Y-74576666D02*
X145490000Y-74576666D01*
X145556666Y-74610000D01*
X145590000Y-74643333D01*
X145623333Y-74710000D01*
X145656666Y-74843333D01*
X145656666Y-75010000D01*
X145623333Y-75143333D01*
X145590000Y-75210000D01*
X145556666Y-75243333D01*
X145490000Y-75276666D01*
X145423333Y-75276666D01*
X145356666Y-75243333D01*
X145323333Y-75210000D01*
X145290000Y-75143333D01*
X145256666Y-75010000D01*
X145256666Y-74843333D01*
X145290000Y-74710000D01*
X145323333Y-74643333D01*
X145356666Y-74610000D01*
X145423333Y-74576666D01*
X102636666Y-62083333D02*
X102636666Y-62483333D01*
X102636666Y-62283333D02*
X101936666Y-62283333D01*
X102036666Y-62350000D01*
X102103333Y-62416666D01*
X102136666Y-62483333D01*
X101936666Y-61650000D02*
X101936666Y-61583333D01*
X101970000Y-61516666D01*
X102003333Y-61483333D01*
X102070000Y-61450000D01*
X102203333Y-61416666D01*
X102370000Y-61416666D01*
X102503333Y-61450000D01*
X102570000Y-61483333D01*
X102603333Y-61516666D01*
X102636666Y-61583333D01*
X102636666Y-61650000D01*
X102603333Y-61716666D01*
X102570000Y-61750000D01*
X102503333Y-61783333D01*
X102370000Y-61816666D01*
X102203333Y-61816666D01*
X102070000Y-61783333D01*
X102003333Y-61750000D01*
X101970000Y-61716666D01*
X101936666Y-61650000D01*
X102636666Y-61116666D02*
X101936666Y-61116666D01*
X102636666Y-60716666D02*
X102236666Y-61016666D01*
X101936666Y-60716666D02*
X102336666Y-61116666D01*
X135869000Y-84519666D02*
X135469000Y-84519666D01*
X135669000Y-84519666D02*
X135669000Y-83819666D01*
X135602333Y-83919666D01*
X135535666Y-83986333D01*
X135469000Y-84019666D01*
X136302333Y-83819666D02*
X136369000Y-83819666D01*
X136435666Y-83853000D01*
X136469000Y-83886333D01*
X136502333Y-83953000D01*
X136535666Y-84086333D01*
X136535666Y-84253000D01*
X136502333Y-84386333D01*
X136469000Y-84453000D01*
X136435666Y-84486333D01*
X136369000Y-84519666D01*
X136302333Y-84519666D01*
X136235666Y-84486333D01*
X136202333Y-84453000D01*
X136169000Y-84386333D01*
X136135666Y-84253000D01*
X136135666Y-84086333D01*
X136169000Y-83953000D01*
X136202333Y-83886333D01*
X136235666Y-83853000D01*
X136302333Y-83819666D01*
X136969000Y-83819666D02*
X137035666Y-83819666D01*
X137102333Y-83853000D01*
X137135666Y-83886333D01*
X137169000Y-83953000D01*
X137202333Y-84086333D01*
X137202333Y-84253000D01*
X137169000Y-84386333D01*
X137135666Y-84453000D01*
X137102333Y-84486333D01*
X137035666Y-84519666D01*
X136969000Y-84519666D01*
X136902333Y-84486333D01*
X136869000Y-84453000D01*
X136835666Y-84386333D01*
X136802333Y-84253000D01*
X136802333Y-84086333D01*
X136835666Y-83953000D01*
X136869000Y-83886333D01*
X136902333Y-83853000D01*
X136969000Y-83819666D01*
X137502333Y-84519666D02*
X137502333Y-83819666D01*
X137569000Y-84253000D02*
X137769000Y-84519666D01*
X137769000Y-84053000D02*
X137502333Y-84319666D01*
X132099000Y-83936333D02*
X132132333Y-83903000D01*
X132199000Y-83869666D01*
X132365666Y-83869666D01*
X132432333Y-83903000D01*
X132465666Y-83936333D01*
X132499000Y-84003000D01*
X132499000Y-84069666D01*
X132465666Y-84169666D01*
X132065666Y-84569666D01*
X132499000Y-84569666D01*
X132932333Y-83869666D02*
X132999000Y-83869666D01*
X133065666Y-83903000D01*
X133099000Y-83936333D01*
X133132333Y-84003000D01*
X133165666Y-84136333D01*
X133165666Y-84303000D01*
X133132333Y-84436333D01*
X133099000Y-84503000D01*
X133065666Y-84536333D01*
X132999000Y-84569666D01*
X132932333Y-84569666D01*
X132865666Y-84536333D01*
X132832333Y-84503000D01*
X132799000Y-84436333D01*
X132765666Y-84303000D01*
X132765666Y-84136333D01*
X132799000Y-84003000D01*
X132832333Y-83936333D01*
X132865666Y-83903000D01*
X132932333Y-83869666D01*
X133599000Y-83869666D02*
X133665666Y-83869666D01*
X133732333Y-83903000D01*
X133765666Y-83936333D01*
X133799000Y-84003000D01*
X133832333Y-84136333D01*
X133832333Y-84303000D01*
X133799000Y-84436333D01*
X133765666Y-84503000D01*
X133732333Y-84536333D01*
X133665666Y-84569666D01*
X133599000Y-84569666D01*
X133532333Y-84536333D01*
X133499000Y-84503000D01*
X133465666Y-84436333D01*
X133432333Y-84303000D01*
X133432333Y-84136333D01*
X133465666Y-84003000D01*
X133499000Y-83936333D01*
X133532333Y-83903000D01*
X133599000Y-83869666D01*
X134132333Y-84569666D02*
X134132333Y-83869666D01*
X134199000Y-84303000D02*
X134399000Y-84569666D01*
X134399000Y-84103000D02*
X134132333Y-84369666D01*
X129336666Y-56646666D02*
X129770000Y-56646666D01*
X129536666Y-56913333D01*
X129636666Y-56913333D01*
X129703333Y-56946666D01*
X129736666Y-56980000D01*
X129770000Y-57046666D01*
X129770000Y-57213333D01*
X129736666Y-57280000D01*
X129703333Y-57313333D01*
X129636666Y-57346666D01*
X129436666Y-57346666D01*
X129370000Y-57313333D01*
X129336666Y-57280000D01*
X130070000Y-57280000D02*
X130103333Y-57313333D01*
X130070000Y-57346666D01*
X130036666Y-57313333D01*
X130070000Y-57280000D01*
X130070000Y-57346666D01*
X130436666Y-57346666D02*
X130570000Y-57346666D01*
X130636666Y-57313333D01*
X130670000Y-57280000D01*
X130736666Y-57180000D01*
X130770000Y-57046666D01*
X130770000Y-56780000D01*
X130736666Y-56713333D01*
X130703333Y-56680000D01*
X130636666Y-56646666D01*
X130503333Y-56646666D01*
X130436666Y-56680000D01*
X130403333Y-56713333D01*
X130370000Y-56780000D01*
X130370000Y-56946666D01*
X130403333Y-57013333D01*
X130436666Y-57046666D01*
X130503333Y-57080000D01*
X130636666Y-57080000D01*
X130703333Y-57046666D01*
X130736666Y-57013333D01*
X130770000Y-56946666D01*
X131070000Y-57346666D02*
X131070000Y-56646666D01*
X131470000Y-57346666D02*
X131170000Y-56946666D01*
X131470000Y-56646666D02*
X131070000Y-57046666D01*
X129296666Y-59256666D02*
X129730000Y-59256666D01*
X129496666Y-59523333D01*
X129596666Y-59523333D01*
X129663333Y-59556666D01*
X129696666Y-59590000D01*
X129730000Y-59656666D01*
X129730000Y-59823333D01*
X129696666Y-59890000D01*
X129663333Y-59923333D01*
X129596666Y-59956666D01*
X129396666Y-59956666D01*
X129330000Y-59923333D01*
X129296666Y-59890000D01*
X130030000Y-59890000D02*
X130063333Y-59923333D01*
X130030000Y-59956666D01*
X129996666Y-59923333D01*
X130030000Y-59890000D01*
X130030000Y-59956666D01*
X130396666Y-59956666D02*
X130530000Y-59956666D01*
X130596666Y-59923333D01*
X130630000Y-59890000D01*
X130696666Y-59790000D01*
X130730000Y-59656666D01*
X130730000Y-59390000D01*
X130696666Y-59323333D01*
X130663333Y-59290000D01*
X130596666Y-59256666D01*
X130463333Y-59256666D01*
X130396666Y-59290000D01*
X130363333Y-59323333D01*
X130330000Y-59390000D01*
X130330000Y-59556666D01*
X130363333Y-59623333D01*
X130396666Y-59656666D01*
X130463333Y-59690000D01*
X130596666Y-59690000D01*
X130663333Y-59656666D01*
X130696666Y-59623333D01*
X130730000Y-59556666D01*
X131030000Y-59956666D02*
X131030000Y-59256666D01*
X131430000Y-59956666D02*
X131130000Y-59556666D01*
X131430000Y-59256666D02*
X131030000Y-59656666D01*
X140916666Y-57347333D02*
X140916666Y-56914000D01*
X141183333Y-57147333D01*
X141183333Y-57047333D01*
X141216666Y-56980666D01*
X141250000Y-56947333D01*
X141316666Y-56914000D01*
X141483333Y-56914000D01*
X141550000Y-56947333D01*
X141583333Y-56980666D01*
X141616666Y-57047333D01*
X141616666Y-57247333D01*
X141583333Y-57314000D01*
X141550000Y-57347333D01*
X141550000Y-56614000D02*
X141583333Y-56580666D01*
X141616666Y-56614000D01*
X141583333Y-56647333D01*
X141550000Y-56614000D01*
X141616666Y-56614000D01*
X141616666Y-56247333D02*
X141616666Y-56114000D01*
X141583333Y-56047333D01*
X141550000Y-56014000D01*
X141450000Y-55947333D01*
X141316666Y-55914000D01*
X141050000Y-55914000D01*
X140983333Y-55947333D01*
X140950000Y-55980666D01*
X140916666Y-56047333D01*
X140916666Y-56180666D01*
X140950000Y-56247333D01*
X140983333Y-56280666D01*
X141050000Y-56314000D01*
X141216666Y-56314000D01*
X141283333Y-56280666D01*
X141316666Y-56247333D01*
X141350000Y-56180666D01*
X141350000Y-56047333D01*
X141316666Y-55980666D01*
X141283333Y-55947333D01*
X141216666Y-55914000D01*
X141616666Y-55614000D02*
X140916666Y-55614000D01*
X141616666Y-55214000D02*
X141216666Y-55514000D01*
X140916666Y-55214000D02*
X141316666Y-55614000D01*
X142406666Y-57347333D02*
X142406666Y-56914000D01*
X142673333Y-57147333D01*
X142673333Y-57047333D01*
X142706666Y-56980666D01*
X142740000Y-56947333D01*
X142806666Y-56914000D01*
X142973333Y-56914000D01*
X143040000Y-56947333D01*
X143073333Y-56980666D01*
X143106666Y-57047333D01*
X143106666Y-57247333D01*
X143073333Y-57314000D01*
X143040000Y-57347333D01*
X143040000Y-56614000D02*
X143073333Y-56580666D01*
X143106666Y-56614000D01*
X143073333Y-56647333D01*
X143040000Y-56614000D01*
X143106666Y-56614000D01*
X143106666Y-56247333D02*
X143106666Y-56114000D01*
X143073333Y-56047333D01*
X143040000Y-56014000D01*
X142940000Y-55947333D01*
X142806666Y-55914000D01*
X142540000Y-55914000D01*
X142473333Y-55947333D01*
X142440000Y-55980666D01*
X142406666Y-56047333D01*
X142406666Y-56180666D01*
X142440000Y-56247333D01*
X142473333Y-56280666D01*
X142540000Y-56314000D01*
X142706666Y-56314000D01*
X142773333Y-56280666D01*
X142806666Y-56247333D01*
X142840000Y-56180666D01*
X142840000Y-56047333D01*
X142806666Y-55980666D01*
X142773333Y-55947333D01*
X142706666Y-55914000D01*
X143106666Y-55614000D02*
X142406666Y-55614000D01*
X143106666Y-55214000D02*
X142706666Y-55514000D01*
X142406666Y-55214000D02*
X142806666Y-55614000D01*
X100620000Y-50700000D02*
X100620000Y-51166666D01*
X100453333Y-50433333D02*
X100286666Y-50933333D01*
X100720000Y-50933333D01*
X100920000Y-50466666D02*
X101386666Y-50466666D01*
X101086666Y-51166666D01*
X102053333Y-51166666D02*
X101820000Y-50833333D01*
X101653333Y-51166666D02*
X101653333Y-50466666D01*
X101920000Y-50466666D01*
X101986666Y-50500000D01*
X102020000Y-50533333D01*
X102053333Y-50600000D01*
X102053333Y-50700000D01*
X102020000Y-50766666D01*
X101986666Y-50800000D01*
X101920000Y-50833333D01*
X101653333Y-50833333D01*
X148570666Y-51084000D02*
X148570666Y-51550666D01*
X148404000Y-50817333D02*
X148237333Y-51317333D01*
X148670666Y-51317333D01*
X148870666Y-50850666D02*
X149337333Y-50850666D01*
X149037333Y-51550666D01*
X149737333Y-50850666D02*
X149804000Y-50850666D01*
X149870666Y-50884000D01*
X149904000Y-50917333D01*
X149937333Y-50984000D01*
X149970666Y-51117333D01*
X149970666Y-51284000D01*
X149937333Y-51417333D01*
X149904000Y-51484000D01*
X149870666Y-51517333D01*
X149804000Y-51550666D01*
X149737333Y-51550666D01*
X149670666Y-51517333D01*
X149637333Y-51484000D01*
X149604000Y-51417333D01*
X149570666Y-51284000D01*
X149570666Y-51117333D01*
X149604000Y-50984000D01*
X149637333Y-50917333D01*
X149670666Y-50884000D01*
X149737333Y-50850666D01*
X119530666Y-89956000D02*
X119297333Y-89956000D01*
X119297333Y-90322666D02*
X119297333Y-89622666D01*
X119630666Y-89622666D01*
X120130666Y-89956000D02*
X120230666Y-89989333D01*
X120264000Y-90022666D01*
X120297333Y-90089333D01*
X120297333Y-90189333D01*
X120264000Y-90256000D01*
X120230666Y-90289333D01*
X120164000Y-90322666D01*
X119897333Y-90322666D01*
X119897333Y-89622666D01*
X120130666Y-89622666D01*
X120197333Y-89656000D01*
X120230666Y-89689333D01*
X120264000Y-89756000D01*
X120264000Y-89822666D01*
X120230666Y-89889333D01*
X120197333Y-89922666D01*
X120130666Y-89956000D01*
X119897333Y-89956000D01*
X120530666Y-89622666D02*
X120964000Y-89622666D01*
X120730666Y-89889333D01*
X120830666Y-89889333D01*
X120897333Y-89922666D01*
X120930666Y-89956000D01*
X120964000Y-90022666D01*
X120964000Y-90189333D01*
X120930666Y-90256000D01*
X120897333Y-90289333D01*
X120830666Y-90322666D01*
X120630666Y-90322666D01*
X120564000Y-90289333D01*
X120530666Y-90256000D01*
X133310000Y-90477333D02*
X133310000Y-90710666D01*
X133676666Y-90710666D02*
X132976666Y-90710666D01*
X132976666Y-90377333D01*
X133310000Y-89877333D02*
X133343333Y-89777333D01*
X133376666Y-89744000D01*
X133443333Y-89710666D01*
X133543333Y-89710666D01*
X133610000Y-89744000D01*
X133643333Y-89777333D01*
X133676666Y-89844000D01*
X133676666Y-90110666D01*
X132976666Y-90110666D01*
X132976666Y-89877333D01*
X133010000Y-89810666D01*
X133043333Y-89777333D01*
X133110000Y-89744000D01*
X133176666Y-89744000D01*
X133243333Y-89777333D01*
X133276666Y-89810666D01*
X133310000Y-89877333D01*
X133310000Y-90110666D01*
X133043333Y-89444000D02*
X133010000Y-89410666D01*
X132976666Y-89344000D01*
X132976666Y-89177333D01*
X133010000Y-89110666D01*
X133043333Y-89077333D01*
X133110000Y-89044000D01*
X133176666Y-89044000D01*
X133276666Y-89077333D01*
X133676666Y-89477333D01*
X133676666Y-89044000D01*
X112106666Y-89624000D02*
X111873333Y-89624000D01*
X111873333Y-89990666D02*
X111873333Y-89290666D01*
X112206666Y-89290666D01*
X112440000Y-89357333D02*
X112473333Y-89324000D01*
X112540000Y-89290666D01*
X112706666Y-89290666D01*
X112773333Y-89324000D01*
X112806666Y-89357333D01*
X112840000Y-89424000D01*
X112840000Y-89490666D01*
X112806666Y-89590666D01*
X112406666Y-89990666D01*
X112840000Y-89990666D01*
X131960000Y-98807333D02*
X131960000Y-99040666D01*
X132326666Y-99040666D02*
X131626666Y-99040666D01*
X131626666Y-98707333D01*
X132326666Y-98074000D02*
X132326666Y-98474000D01*
X132326666Y-98274000D02*
X131626666Y-98274000D01*
X131726666Y-98340666D01*
X131793333Y-98407333D01*
X131826666Y-98474000D01*
X143890000Y-79330000D02*
X143856666Y-79363333D01*
X143756666Y-79396666D01*
X143690000Y-79396666D01*
X143590000Y-79363333D01*
X143523333Y-79296666D01*
X143490000Y-79230000D01*
X143456666Y-79096666D01*
X143456666Y-78996666D01*
X143490000Y-78863333D01*
X143523333Y-78796666D01*
X143590000Y-78730000D01*
X143690000Y-78696666D01*
X143756666Y-78696666D01*
X143856666Y-78730000D01*
X143890000Y-78763333D01*
X144190000Y-79396666D02*
X144190000Y-78696666D01*
X144190000Y-79030000D02*
X144590000Y-79030000D01*
X144590000Y-79396666D02*
X144590000Y-78696666D01*
X145323333Y-79396666D02*
X145090000Y-79063333D01*
X144923333Y-79396666D02*
X144923333Y-78696666D01*
X145190000Y-78696666D01*
X145256666Y-78730000D01*
X145290000Y-78763333D01*
X145323333Y-78830000D01*
X145323333Y-78930000D01*
X145290000Y-78996666D01*
X145256666Y-79030000D01*
X145190000Y-79063333D01*
X144923333Y-79063333D01*
X145990000Y-78730000D02*
X145923333Y-78696666D01*
X145823333Y-78696666D01*
X145723333Y-78730000D01*
X145656666Y-78796666D01*
X145623333Y-78863333D01*
X145590000Y-78996666D01*
X145590000Y-79096666D01*
X145623333Y-79230000D01*
X145656666Y-79296666D01*
X145723333Y-79363333D01*
X145823333Y-79396666D01*
X145890000Y-79396666D01*
X145990000Y-79363333D01*
X146023333Y-79330000D01*
X146023333Y-79096666D01*
X145890000Y-79096666D01*
X127591666Y-71245000D02*
X127591666Y-71645000D01*
X127591666Y-71445000D02*
X126891666Y-71445000D01*
X126991666Y-71511666D01*
X127058333Y-71578333D01*
X127091666Y-71645000D01*
X126891666Y-70811666D02*
X126891666Y-70745000D01*
X126925000Y-70678333D01*
X126958333Y-70645000D01*
X127025000Y-70611666D01*
X127158333Y-70578333D01*
X127325000Y-70578333D01*
X127458333Y-70611666D01*
X127525000Y-70645000D01*
X127558333Y-70678333D01*
X127591666Y-70745000D01*
X127591666Y-70811666D01*
X127558333Y-70878333D01*
X127525000Y-70911666D01*
X127458333Y-70945000D01*
X127325000Y-70978333D01*
X127158333Y-70978333D01*
X127025000Y-70945000D01*
X126958333Y-70911666D01*
X126925000Y-70878333D01*
X126891666Y-70811666D01*
X127125000Y-69978333D02*
X127591666Y-69978333D01*
X127125000Y-70278333D02*
X127491666Y-70278333D01*
X127558333Y-70245000D01*
X127591666Y-70178333D01*
X127591666Y-70078333D01*
X127558333Y-70011666D01*
X127525000Y-69978333D01*
X127225000Y-69411666D02*
X127225000Y-69645000D01*
X127591666Y-69645000D02*
X126891666Y-69645000D01*
X126891666Y-69311666D01*
X117313333Y-62623333D02*
X117346666Y-62590000D01*
X117413333Y-62556666D01*
X117580000Y-62556666D01*
X117646666Y-62590000D01*
X117680000Y-62623333D01*
X117713333Y-62690000D01*
X117713333Y-62756666D01*
X117680000Y-62856666D01*
X117280000Y-63256666D01*
X117713333Y-63256666D01*
X118013333Y-62790000D02*
X118013333Y-63256666D01*
X118013333Y-62856666D02*
X118046666Y-62823333D01*
X118113333Y-62790000D01*
X118213333Y-62790000D01*
X118280000Y-62823333D01*
X118313333Y-62890000D01*
X118313333Y-63256666D01*
X118880000Y-62890000D02*
X118646666Y-62890000D01*
X118646666Y-63256666D02*
X118646666Y-62556666D01*
X118980000Y-62556666D01*
X128486666Y-75830666D02*
X128086666Y-75830666D01*
X128286666Y-75830666D02*
X128286666Y-75130666D01*
X128220000Y-75230666D01*
X128153333Y-75297333D01*
X128086666Y-75330666D01*
X128920000Y-75130666D02*
X128986666Y-75130666D01*
X129053333Y-75164000D01*
X129086666Y-75197333D01*
X129120000Y-75264000D01*
X129153333Y-75397333D01*
X129153333Y-75564000D01*
X129120000Y-75697333D01*
X129086666Y-75764000D01*
X129053333Y-75797333D01*
X128986666Y-75830666D01*
X128920000Y-75830666D01*
X128853333Y-75797333D01*
X128820000Y-75764000D01*
X128786666Y-75697333D01*
X128753333Y-75564000D01*
X128753333Y-75397333D01*
X128786666Y-75264000D01*
X128820000Y-75197333D01*
X128853333Y-75164000D01*
X128920000Y-75130666D01*
X129586666Y-75130666D02*
X129653333Y-75130666D01*
X129720000Y-75164000D01*
X129753333Y-75197333D01*
X129786666Y-75264000D01*
X129820000Y-75397333D01*
X129820000Y-75564000D01*
X129786666Y-75697333D01*
X129753333Y-75764000D01*
X129720000Y-75797333D01*
X129653333Y-75830666D01*
X129586666Y-75830666D01*
X129520000Y-75797333D01*
X129486666Y-75764000D01*
X129453333Y-75697333D01*
X129420000Y-75564000D01*
X129420000Y-75397333D01*
X129453333Y-75264000D01*
X129486666Y-75197333D01*
X129520000Y-75164000D01*
X129586666Y-75130666D01*
X130120000Y-75364000D02*
X130120000Y-75830666D01*
X130120000Y-75430666D02*
X130153333Y-75397333D01*
X130220000Y-75364000D01*
X130320000Y-75364000D01*
X130386666Y-75397333D01*
X130420000Y-75464000D01*
X130420000Y-75830666D01*
X130986666Y-75464000D02*
X130753333Y-75464000D01*
X130753333Y-75830666D02*
X130753333Y-75130666D01*
X131086666Y-75130666D01*
X115746666Y-65203333D02*
X115746666Y-65603333D01*
X115746666Y-65403333D02*
X115046666Y-65403333D01*
X115146666Y-65470000D01*
X115213333Y-65536666D01*
X115246666Y-65603333D01*
X115046666Y-64770000D02*
X115046666Y-64703333D01*
X115080000Y-64636666D01*
X115113333Y-64603333D01*
X115180000Y-64570000D01*
X115313333Y-64536666D01*
X115480000Y-64536666D01*
X115613333Y-64570000D01*
X115680000Y-64603333D01*
X115713333Y-64636666D01*
X115746666Y-64703333D01*
X115746666Y-64770000D01*
X115713333Y-64836666D01*
X115680000Y-64870000D01*
X115613333Y-64903333D01*
X115480000Y-64936666D01*
X115313333Y-64936666D01*
X115180000Y-64903333D01*
X115113333Y-64870000D01*
X115080000Y-64836666D01*
X115046666Y-64770000D01*
X115046666Y-64103333D02*
X115046666Y-64036666D01*
X115080000Y-63970000D01*
X115113333Y-63936666D01*
X115180000Y-63903333D01*
X115313333Y-63870000D01*
X115480000Y-63870000D01*
X115613333Y-63903333D01*
X115680000Y-63936666D01*
X115713333Y-63970000D01*
X115746666Y-64036666D01*
X115746666Y-64103333D01*
X115713333Y-64170000D01*
X115680000Y-64203333D01*
X115613333Y-64236666D01*
X115480000Y-64270000D01*
X115313333Y-64270000D01*
X115180000Y-64236666D01*
X115113333Y-64203333D01*
X115080000Y-64170000D01*
X115046666Y-64103333D01*
X115280000Y-63570000D02*
X115746666Y-63570000D01*
X115346666Y-63570000D02*
X115313333Y-63536666D01*
X115280000Y-63470000D01*
X115280000Y-63370000D01*
X115313333Y-63303333D01*
X115380000Y-63270000D01*
X115746666Y-63270000D01*
X115380000Y-62703333D02*
X115380000Y-62936666D01*
X115746666Y-62936666D02*
X115046666Y-62936666D01*
X115046666Y-62603333D01*
X121746666Y-69087333D02*
X121746666Y-69487333D01*
X121746666Y-69287333D02*
X121046666Y-69287333D01*
X121146666Y-69354000D01*
X121213333Y-69420666D01*
X121246666Y-69487333D01*
X121046666Y-68654000D02*
X121046666Y-68587333D01*
X121080000Y-68520666D01*
X121113333Y-68487333D01*
X121180000Y-68454000D01*
X121313333Y-68420666D01*
X121480000Y-68420666D01*
X121613333Y-68454000D01*
X121680000Y-68487333D01*
X121713333Y-68520666D01*
X121746666Y-68587333D01*
X121746666Y-68654000D01*
X121713333Y-68720666D01*
X121680000Y-68754000D01*
X121613333Y-68787333D01*
X121480000Y-68820666D01*
X121313333Y-68820666D01*
X121180000Y-68787333D01*
X121113333Y-68754000D01*
X121080000Y-68720666D01*
X121046666Y-68654000D01*
X121046666Y-67987333D02*
X121046666Y-67920666D01*
X121080000Y-67854000D01*
X121113333Y-67820666D01*
X121180000Y-67787333D01*
X121313333Y-67754000D01*
X121480000Y-67754000D01*
X121613333Y-67787333D01*
X121680000Y-67820666D01*
X121713333Y-67854000D01*
X121746666Y-67920666D01*
X121746666Y-67987333D01*
X121713333Y-68054000D01*
X121680000Y-68087333D01*
X121613333Y-68120666D01*
X121480000Y-68154000D01*
X121313333Y-68154000D01*
X121180000Y-68120666D01*
X121113333Y-68087333D01*
X121080000Y-68054000D01*
X121046666Y-67987333D01*
X121280000Y-67454000D02*
X121746666Y-67454000D01*
X121346666Y-67454000D02*
X121313333Y-67420666D01*
X121280000Y-67354000D01*
X121280000Y-67254000D01*
X121313333Y-67187333D01*
X121380000Y-67154000D01*
X121746666Y-67154000D01*
X121380000Y-66587333D02*
X121380000Y-66820666D01*
X121746666Y-66820666D02*
X121046666Y-66820666D01*
X121046666Y-66487333D01*
X108360000Y-80746666D02*
X108426666Y-80746666D01*
X108493333Y-80780000D01*
X108526666Y-80813333D01*
X108560000Y-80880000D01*
X108593333Y-81013333D01*
X108593333Y-81180000D01*
X108560000Y-81313333D01*
X108526666Y-81380000D01*
X108493333Y-81413333D01*
X108426666Y-81446666D01*
X108360000Y-81446666D01*
X108293333Y-81413333D01*
X108260000Y-81380000D01*
X108226666Y-81313333D01*
X108193333Y-81180000D01*
X108193333Y-81013333D01*
X108226666Y-80880000D01*
X108260000Y-80813333D01*
X108293333Y-80780000D01*
X108360000Y-80746666D01*
X108893333Y-81380000D02*
X108926666Y-81413333D01*
X108893333Y-81446666D01*
X108860000Y-81413333D01*
X108893333Y-81380000D01*
X108893333Y-81446666D01*
X109593333Y-81446666D02*
X109193333Y-81446666D01*
X109393333Y-81446666D02*
X109393333Y-80746666D01*
X109326666Y-80846666D01*
X109260000Y-80913333D01*
X109193333Y-80946666D01*
X110193333Y-80980000D02*
X110193333Y-81446666D01*
X109893333Y-80980000D02*
X109893333Y-81346666D01*
X109926666Y-81413333D01*
X109993333Y-81446666D01*
X110093333Y-81446666D01*
X110160000Y-81413333D01*
X110193333Y-81380000D01*
X110760000Y-81080000D02*
X110526666Y-81080000D01*
X110526666Y-81446666D02*
X110526666Y-80746666D01*
X110860000Y-80746666D01*
X109483333Y-79646666D02*
X109083333Y-79646666D01*
X109283333Y-79646666D02*
X109283333Y-78946666D01*
X109216666Y-79046666D01*
X109150000Y-79113333D01*
X109083333Y-79146666D01*
X110083333Y-79180000D02*
X110083333Y-79646666D01*
X109783333Y-79180000D02*
X109783333Y-79546666D01*
X109816666Y-79613333D01*
X109883333Y-79646666D01*
X109983333Y-79646666D01*
X110050000Y-79613333D01*
X110083333Y-79580000D01*
X110650000Y-79280000D02*
X110416666Y-79280000D01*
X110416666Y-79646666D02*
X110416666Y-78946666D01*
X110750000Y-78946666D01*
X111274000Y-84987666D02*
X110874000Y-84987666D01*
X111074000Y-84987666D02*
X111074000Y-84287666D01*
X111007333Y-84387666D01*
X110940666Y-84454333D01*
X110874000Y-84487666D01*
X111707333Y-84287666D02*
X111774000Y-84287666D01*
X111840666Y-84321000D01*
X111874000Y-84354333D01*
X111907333Y-84421000D01*
X111940666Y-84554333D01*
X111940666Y-84721000D01*
X111907333Y-84854333D01*
X111874000Y-84921000D01*
X111840666Y-84954333D01*
X111774000Y-84987666D01*
X111707333Y-84987666D01*
X111640666Y-84954333D01*
X111607333Y-84921000D01*
X111574000Y-84854333D01*
X111540666Y-84721000D01*
X111540666Y-84554333D01*
X111574000Y-84421000D01*
X111607333Y-84354333D01*
X111640666Y-84321000D01*
X111707333Y-84287666D01*
X112540666Y-84521000D02*
X112540666Y-84987666D01*
X112240666Y-84521000D02*
X112240666Y-84887666D01*
X112274000Y-84954333D01*
X112340666Y-84987666D01*
X112440666Y-84987666D01*
X112507333Y-84954333D01*
X112540666Y-84921000D01*
X113107333Y-84621000D02*
X112874000Y-84621000D01*
X112874000Y-84987666D02*
X112874000Y-84287666D01*
X113207333Y-84287666D01*
X133250000Y-87949666D02*
X132850000Y-87949666D01*
X133050000Y-87949666D02*
X133050000Y-87249666D01*
X132983333Y-87349666D01*
X132916666Y-87416333D01*
X132850000Y-87449666D01*
X133683333Y-87249666D02*
X133750000Y-87249666D01*
X133816666Y-87283000D01*
X133850000Y-87316333D01*
X133883333Y-87383000D01*
X133916666Y-87516333D01*
X133916666Y-87683000D01*
X133883333Y-87816333D01*
X133850000Y-87883000D01*
X133816666Y-87916333D01*
X133750000Y-87949666D01*
X133683333Y-87949666D01*
X133616666Y-87916333D01*
X133583333Y-87883000D01*
X133550000Y-87816333D01*
X133516666Y-87683000D01*
X133516666Y-87516333D01*
X133550000Y-87383000D01*
X133583333Y-87316333D01*
X133616666Y-87283000D01*
X133683333Y-87249666D01*
X134516666Y-87483000D02*
X134516666Y-87949666D01*
X134216666Y-87483000D02*
X134216666Y-87849666D01*
X134250000Y-87916333D01*
X134316666Y-87949666D01*
X134416666Y-87949666D01*
X134483333Y-87916333D01*
X134516666Y-87883000D01*
X135083333Y-87583000D02*
X134850000Y-87583000D01*
X134850000Y-87949666D02*
X134850000Y-87249666D01*
X135183333Y-87249666D01*
X109181333Y-75402000D02*
X109148000Y-75368666D01*
X109114666Y-75302000D01*
X109114666Y-75135333D01*
X109148000Y-75068666D01*
X109181333Y-75035333D01*
X109248000Y-75002000D01*
X109314666Y-75002000D01*
X109414666Y-75035333D01*
X109814666Y-75435333D01*
X109814666Y-75002000D01*
X109181333Y-74735333D02*
X109148000Y-74702000D01*
X109114666Y-74635333D01*
X109114666Y-74468666D01*
X109148000Y-74402000D01*
X109181333Y-74368666D01*
X109248000Y-74335333D01*
X109314666Y-74335333D01*
X109414666Y-74368666D01*
X109814666Y-74768666D01*
X109814666Y-74335333D01*
X109348000Y-74035333D02*
X109814666Y-74035333D01*
X109414666Y-74035333D02*
X109381333Y-74002000D01*
X109348000Y-73935333D01*
X109348000Y-73835333D01*
X109381333Y-73768666D01*
X109448000Y-73735333D01*
X109814666Y-73735333D01*
X109448000Y-73168666D02*
X109448000Y-73402000D01*
X109814666Y-73402000D02*
X109114666Y-73402000D01*
X109114666Y-73068666D01*
X150013333Y-81754666D02*
X149613333Y-81754666D01*
X149813333Y-81754666D02*
X149813333Y-81054666D01*
X149746666Y-81154666D01*
X149680000Y-81221333D01*
X149613333Y-81254666D01*
X150613333Y-81288000D02*
X150613333Y-81754666D01*
X150313333Y-81288000D02*
X150313333Y-81654666D01*
X150346666Y-81721333D01*
X150413333Y-81754666D01*
X150513333Y-81754666D01*
X150580000Y-81721333D01*
X150613333Y-81688000D01*
X151180000Y-81388000D02*
X150946666Y-81388000D01*
X150946666Y-81754666D02*
X150946666Y-81054666D01*
X151280000Y-81054666D01*
X136599666Y-72859666D02*
X136599666Y-73259666D01*
X136599666Y-73059666D02*
X135899666Y-73059666D01*
X135999666Y-73126333D01*
X136066333Y-73193000D01*
X136099666Y-73259666D01*
X136133000Y-72259666D02*
X136599666Y-72259666D01*
X136133000Y-72559666D02*
X136499666Y-72559666D01*
X136566333Y-72526333D01*
X136599666Y-72459666D01*
X136599666Y-72359666D01*
X136566333Y-72293000D01*
X136533000Y-72259666D01*
X136233000Y-71693000D02*
X136233000Y-71926333D01*
X136599666Y-71926333D02*
X135899666Y-71926333D01*
X135899666Y-71593000D01*
X141003333Y-68116666D02*
X140603333Y-68116666D01*
X140803333Y-68116666D02*
X140803333Y-67416666D01*
X140736666Y-67516666D01*
X140670000Y-67583333D01*
X140603333Y-67616666D01*
X141603333Y-67650000D02*
X141603333Y-68116666D01*
X141303333Y-67650000D02*
X141303333Y-68016666D01*
X141336666Y-68083333D01*
X141403333Y-68116666D01*
X141503333Y-68116666D01*
X141570000Y-68083333D01*
X141603333Y-68050000D01*
X142170000Y-67750000D02*
X141936666Y-67750000D01*
X141936666Y-68116666D02*
X141936666Y-67416666D01*
X142270000Y-67416666D01*
X144626666Y-57204000D02*
X144626666Y-57604000D01*
X144626666Y-57404000D02*
X143926666Y-57404000D01*
X144026666Y-57470666D01*
X144093333Y-57537333D01*
X144126666Y-57604000D01*
X143926666Y-56770666D02*
X143926666Y-56704000D01*
X143960000Y-56637333D01*
X143993333Y-56604000D01*
X144060000Y-56570666D01*
X144193333Y-56537333D01*
X144360000Y-56537333D01*
X144493333Y-56570666D01*
X144560000Y-56604000D01*
X144593333Y-56637333D01*
X144626666Y-56704000D01*
X144626666Y-56770666D01*
X144593333Y-56837333D01*
X144560000Y-56870666D01*
X144493333Y-56904000D01*
X144360000Y-56937333D01*
X144193333Y-56937333D01*
X144060000Y-56904000D01*
X143993333Y-56870666D01*
X143960000Y-56837333D01*
X143926666Y-56770666D01*
X144160000Y-55937333D02*
X144626666Y-55937333D01*
X144160000Y-56237333D02*
X144526666Y-56237333D01*
X144593333Y-56204000D01*
X144626666Y-56137333D01*
X144626666Y-56037333D01*
X144593333Y-55970666D01*
X144560000Y-55937333D01*
X144260000Y-55370666D02*
X144260000Y-55604000D01*
X144626666Y-55604000D02*
X143926666Y-55604000D01*
X143926666Y-55270666D01*
X146126666Y-57817333D02*
X146126666Y-58217333D01*
X146126666Y-58017333D02*
X145426666Y-58017333D01*
X145526666Y-58084000D01*
X145593333Y-58150666D01*
X145626666Y-58217333D01*
X145426666Y-57384000D02*
X145426666Y-57317333D01*
X145460000Y-57250666D01*
X145493333Y-57217333D01*
X145560000Y-57184000D01*
X145693333Y-57150666D01*
X145860000Y-57150666D01*
X145993333Y-57184000D01*
X146060000Y-57217333D01*
X146093333Y-57250666D01*
X146126666Y-57317333D01*
X146126666Y-57384000D01*
X146093333Y-57450666D01*
X146060000Y-57484000D01*
X145993333Y-57517333D01*
X145860000Y-57550666D01*
X145693333Y-57550666D01*
X145560000Y-57517333D01*
X145493333Y-57484000D01*
X145460000Y-57450666D01*
X145426666Y-57384000D01*
X145426666Y-56717333D02*
X145426666Y-56650666D01*
X145460000Y-56584000D01*
X145493333Y-56550666D01*
X145560000Y-56517333D01*
X145693333Y-56484000D01*
X145860000Y-56484000D01*
X145993333Y-56517333D01*
X146060000Y-56550666D01*
X146093333Y-56584000D01*
X146126666Y-56650666D01*
X146126666Y-56717333D01*
X146093333Y-56784000D01*
X146060000Y-56817333D01*
X145993333Y-56850666D01*
X145860000Y-56884000D01*
X145693333Y-56884000D01*
X145560000Y-56850666D01*
X145493333Y-56817333D01*
X145460000Y-56784000D01*
X145426666Y-56717333D01*
X145660000Y-56184000D02*
X146126666Y-56184000D01*
X145726666Y-56184000D02*
X145693333Y-56150666D01*
X145660000Y-56084000D01*
X145660000Y-55984000D01*
X145693333Y-55917333D01*
X145760000Y-55884000D01*
X146126666Y-55884000D01*
X145760000Y-55317333D02*
X145760000Y-55550666D01*
X146126666Y-55550666D02*
X145426666Y-55550666D01*
X145426666Y-55217333D01*
X132245666Y-81063000D02*
X131545666Y-81063000D01*
X131545666Y-80896333D01*
X131579000Y-80796333D01*
X131645666Y-80729666D01*
X131712333Y-80696333D01*
X131845666Y-80663000D01*
X131945666Y-80663000D01*
X132079000Y-80696333D01*
X132145666Y-80729666D01*
X132212333Y-80796333D01*
X132245666Y-80896333D01*
X132245666Y-81063000D01*
X132245666Y-80363000D02*
X131545666Y-80363000D01*
X132245666Y-79963000D01*
X131545666Y-79963000D01*
X131879000Y-79396333D02*
X131879000Y-79629666D01*
X132245666Y-79629666D02*
X131545666Y-79629666D01*
X131545666Y-79296333D01*
X105856666Y-58403333D02*
X105156666Y-58403333D01*
X105856666Y-58003333D01*
X105156666Y-58003333D01*
X105490000Y-57670000D02*
X105490000Y-57436666D01*
X105856666Y-57336666D02*
X105856666Y-57670000D01*
X105156666Y-57670000D01*
X105156666Y-57336666D01*
X105156666Y-56903333D02*
X105156666Y-56770000D01*
X105190000Y-56703333D01*
X105256666Y-56636666D01*
X105390000Y-56603333D01*
X105623333Y-56603333D01*
X105756666Y-56636666D01*
X105823333Y-56703333D01*
X105856666Y-56770000D01*
X105856666Y-56903333D01*
X105823333Y-56970000D01*
X105756666Y-57036666D01*
X105623333Y-57070000D01*
X105390000Y-57070000D01*
X105256666Y-57036666D01*
X105190000Y-56970000D01*
X105156666Y-56903333D01*
X105856666Y-56303333D02*
X105156666Y-56303333D01*
X105156666Y-56036666D01*
X105190000Y-55970000D01*
X105223333Y-55936666D01*
X105290000Y-55903333D01*
X105390000Y-55903333D01*
X105456666Y-55936666D01*
X105490000Y-55970000D01*
X105523333Y-56036666D01*
X105523333Y-56303333D01*
X105856666Y-55603333D02*
X105156666Y-55603333D01*
X105156666Y-55336666D02*
X105856666Y-54870000D01*
X105156666Y-54870000D02*
X105856666Y-55336666D01*
X105490000Y-54603333D02*
X105490000Y-54370000D01*
X105856666Y-54270000D02*
X105856666Y-54603333D01*
X105156666Y-54603333D01*
X105156666Y-54270000D01*
X105856666Y-53636666D02*
X105856666Y-53970000D01*
X105156666Y-53970000D01*
X120300000Y-97874000D02*
X120333333Y-97907333D01*
X120366666Y-98007333D01*
X120366666Y-98074000D01*
X120333333Y-98174000D01*
X120266666Y-98240666D01*
X120200000Y-98274000D01*
X120066666Y-98307333D01*
X119966666Y-98307333D01*
X119833333Y-98274000D01*
X119766666Y-98240666D01*
X119700000Y-98174000D01*
X119666666Y-98074000D01*
X119666666Y-98007333D01*
X119700000Y-97907333D01*
X119733333Y-97874000D01*
X120366666Y-97574000D02*
X119666666Y-97574000D01*
X120366666Y-97274000D02*
X120000000Y-97274000D01*
X119933333Y-97307333D01*
X119900000Y-97374000D01*
X119900000Y-97474000D01*
X119933333Y-97540666D01*
X119966666Y-97574000D01*
X120366666Y-96640666D02*
X120000000Y-96640666D01*
X119933333Y-96674000D01*
X119900000Y-96740666D01*
X119900000Y-96874000D01*
X119933333Y-96940666D01*
X120333333Y-96640666D02*
X120366666Y-96707333D01*
X120366666Y-96874000D01*
X120333333Y-96940666D01*
X120266666Y-96974000D01*
X120200000Y-96974000D01*
X120133333Y-96940666D01*
X120100000Y-96874000D01*
X120100000Y-96707333D01*
X120066666Y-96640666D01*
X120333333Y-96340666D02*
X120366666Y-96274000D01*
X120366666Y-96140666D01*
X120333333Y-96074000D01*
X120266666Y-96040666D01*
X120233333Y-96040666D01*
X120166666Y-96074000D01*
X120133333Y-96140666D01*
X120133333Y-96240666D01*
X120100000Y-96307333D01*
X120033333Y-96340666D01*
X120000000Y-96340666D01*
X119933333Y-96307333D01*
X119900000Y-96240666D01*
X119900000Y-96140666D01*
X119933333Y-96074000D01*
X120333333Y-95774000D02*
X120366666Y-95707333D01*
X120366666Y-95574000D01*
X120333333Y-95507333D01*
X120266666Y-95474000D01*
X120233333Y-95474000D01*
X120166666Y-95507333D01*
X120133333Y-95574000D01*
X120133333Y-95674000D01*
X120100000Y-95740666D01*
X120033333Y-95774000D01*
X120000000Y-95774000D01*
X119933333Y-95740666D01*
X119900000Y-95674000D01*
X119900000Y-95574000D01*
X119933333Y-95507333D01*
X120366666Y-95174000D02*
X119900000Y-95174000D01*
X119666666Y-95174000D02*
X119700000Y-95207333D01*
X119733333Y-95174000D01*
X119700000Y-95140666D01*
X119666666Y-95174000D01*
X119733333Y-95174000D01*
X120333333Y-94874000D02*
X120366666Y-94807333D01*
X120366666Y-94674000D01*
X120333333Y-94607333D01*
X120266666Y-94574000D01*
X120233333Y-94574000D01*
X120166666Y-94607333D01*
X120133333Y-94674000D01*
X120133333Y-94774000D01*
X120100000Y-94840666D01*
X120033333Y-94874000D01*
X120000000Y-94874000D01*
X119933333Y-94840666D01*
X119900000Y-94774000D01*
X119900000Y-94674000D01*
X119933333Y-94607333D01*
X120100000Y-94274000D02*
X120100000Y-93740666D01*
X119666666Y-93274000D02*
X119666666Y-93140666D01*
X119700000Y-93074000D01*
X119766666Y-93007333D01*
X119900000Y-92974000D01*
X120133333Y-92974000D01*
X120266666Y-93007333D01*
X120333333Y-93074000D01*
X120366666Y-93140666D01*
X120366666Y-93274000D01*
X120333333Y-93340666D01*
X120266666Y-93407333D01*
X120133333Y-93440666D01*
X119900000Y-93440666D01*
X119766666Y-93407333D01*
X119700000Y-93340666D01*
X119666666Y-93274000D01*
X119900000Y-92374000D02*
X120366666Y-92374000D01*
X119900000Y-92674000D02*
X120266666Y-92674000D01*
X120333333Y-92640666D01*
X120366666Y-92574000D01*
X120366666Y-92474000D01*
X120333333Y-92407333D01*
X120300000Y-92374000D01*
X119900000Y-92140666D02*
X119900000Y-91874000D01*
X119666666Y-92040666D02*
X120266666Y-92040666D01*
X120333333Y-92007333D01*
X120366666Y-91940666D01*
X120366666Y-91874000D01*
X107140000Y-99080000D02*
X107173333Y-98980000D01*
X107206666Y-98946666D01*
X107273333Y-98913333D01*
X107373333Y-98913333D01*
X107440000Y-98946666D01*
X107473333Y-98980000D01*
X107506666Y-99046666D01*
X107506666Y-99313333D01*
X106806666Y-99313333D01*
X106806666Y-99080000D01*
X106840000Y-99013333D01*
X106873333Y-98980000D01*
X106940000Y-98946666D01*
X107006666Y-98946666D01*
X107073333Y-98980000D01*
X107106666Y-99013333D01*
X107140000Y-99080000D01*
X107140000Y-99313333D01*
X107040000Y-98680000D02*
X107506666Y-98513333D01*
X107040000Y-98346666D02*
X107506666Y-98513333D01*
X107673333Y-98580000D01*
X107706666Y-98613333D01*
X107740000Y-98680000D01*
X107040000Y-98080000D02*
X107740000Y-98080000D01*
X107073333Y-98080000D02*
X107040000Y-98013333D01*
X107040000Y-97880000D01*
X107073333Y-97813333D01*
X107106666Y-97780000D01*
X107173333Y-97746666D01*
X107373333Y-97746666D01*
X107440000Y-97780000D01*
X107473333Y-97813333D01*
X107506666Y-97880000D01*
X107506666Y-98013333D01*
X107473333Y-98080000D01*
X107506666Y-97146666D02*
X107140000Y-97146666D01*
X107073333Y-97180000D01*
X107040000Y-97246666D01*
X107040000Y-97380000D01*
X107073333Y-97446666D01*
X107473333Y-97146666D02*
X107506666Y-97213333D01*
X107506666Y-97380000D01*
X107473333Y-97446666D01*
X107406666Y-97480000D01*
X107340000Y-97480000D01*
X107273333Y-97446666D01*
X107240000Y-97380000D01*
X107240000Y-97213333D01*
X107206666Y-97146666D01*
X107473333Y-96846666D02*
X107506666Y-96780000D01*
X107506666Y-96646666D01*
X107473333Y-96580000D01*
X107406666Y-96546666D01*
X107373333Y-96546666D01*
X107306666Y-96580000D01*
X107273333Y-96646666D01*
X107273333Y-96746666D01*
X107240000Y-96813333D01*
X107173333Y-96846666D01*
X107140000Y-96846666D01*
X107073333Y-96813333D01*
X107040000Y-96746666D01*
X107040000Y-96646666D01*
X107073333Y-96580000D01*
X107473333Y-96280000D02*
X107506666Y-96213333D01*
X107506666Y-96080000D01*
X107473333Y-96013333D01*
X107406666Y-95980000D01*
X107373333Y-95980000D01*
X107306666Y-96013333D01*
X107273333Y-96080000D01*
X107273333Y-96180000D01*
X107240000Y-96246666D01*
X107173333Y-96280000D01*
X107140000Y-96280000D01*
X107073333Y-96246666D01*
X107040000Y-96180000D01*
X107040000Y-96080000D01*
X107073333Y-96013333D01*
X107240000Y-95680000D02*
X107240000Y-95146666D01*
X107506666Y-94813333D02*
X106806666Y-94813333D01*
X106806666Y-94546666D01*
X106840000Y-94480000D01*
X106873333Y-94446666D01*
X106940000Y-94413333D01*
X107040000Y-94413333D01*
X107106666Y-94446666D01*
X107140000Y-94480000D01*
X107173333Y-94546666D01*
X107173333Y-94813333D01*
X107506666Y-94013333D02*
X107473333Y-94080000D01*
X107440000Y-94113333D01*
X107373333Y-94146666D01*
X107173333Y-94146666D01*
X107106666Y-94113333D01*
X107073333Y-94080000D01*
X107040000Y-94013333D01*
X107040000Y-93913333D01*
X107073333Y-93846666D01*
X107106666Y-93813333D01*
X107173333Y-93780000D01*
X107373333Y-93780000D01*
X107440000Y-93813333D01*
X107473333Y-93846666D01*
X107506666Y-93913333D01*
X107506666Y-94013333D01*
X107040000Y-93546666D02*
X107506666Y-93413333D01*
X107173333Y-93280000D01*
X107506666Y-93146666D01*
X107040000Y-93013333D01*
X107473333Y-92480000D02*
X107506666Y-92546666D01*
X107506666Y-92680000D01*
X107473333Y-92746666D01*
X107406666Y-92780000D01*
X107140000Y-92780000D01*
X107073333Y-92746666D01*
X107040000Y-92680000D01*
X107040000Y-92546666D01*
X107073333Y-92480000D01*
X107140000Y-92446666D01*
X107206666Y-92446666D01*
X107273333Y-92780000D01*
X107506666Y-92146666D02*
X107040000Y-92146666D01*
X107173333Y-92146666D02*
X107106666Y-92113333D01*
X107073333Y-92080000D01*
X107040000Y-92013333D01*
X107040000Y-91946666D01*
X109621000Y-57433285D02*
X109621000Y-56683285D01*
X109906714Y-56683285D01*
X109978142Y-56719000D01*
X110013857Y-56754714D01*
X110049571Y-56826142D01*
X110049571Y-56933285D01*
X110013857Y-57004714D01*
X109978142Y-57040428D01*
X109906714Y-57076142D01*
X109621000Y-57076142D01*
X110799571Y-57361857D02*
X110763857Y-57397571D01*
X110656714Y-57433285D01*
X110585285Y-57433285D01*
X110478142Y-57397571D01*
X110406714Y-57326142D01*
X110371000Y-57254714D01*
X110335285Y-57111857D01*
X110335285Y-57004714D01*
X110371000Y-56861857D01*
X110406714Y-56790428D01*
X110478142Y-56719000D01*
X110585285Y-56683285D01*
X110656714Y-56683285D01*
X110763857Y-56719000D01*
X110799571Y-56754714D01*
X111085285Y-57219000D02*
X111442428Y-57219000D01*
X111013857Y-57433285D02*
X111263857Y-56683285D01*
X111513857Y-57433285D01*
X111799571Y-57433285D02*
X111942428Y-57433285D01*
X112013857Y-57397571D01*
X112049571Y-57361857D01*
X112121000Y-57254714D01*
X112156714Y-57111857D01*
X112156714Y-56826142D01*
X112121000Y-56754714D01*
X112085285Y-56719000D01*
X112013857Y-56683285D01*
X111871000Y-56683285D01*
X111799571Y-56719000D01*
X111763857Y-56754714D01*
X111728142Y-56826142D01*
X111728142Y-57004714D01*
X111763857Y-57076142D01*
X111799571Y-57111857D01*
X111871000Y-57147571D01*
X112013857Y-57147571D01*
X112085285Y-57111857D01*
X112121000Y-57076142D01*
X112156714Y-57004714D01*
X112799571Y-56683285D02*
X112656714Y-56683285D01*
X112585285Y-56719000D01*
X112549571Y-56754714D01*
X112478142Y-56861857D01*
X112442428Y-57004714D01*
X112442428Y-57290428D01*
X112478142Y-57361857D01*
X112513857Y-57397571D01*
X112585285Y-57433285D01*
X112728142Y-57433285D01*
X112799571Y-57397571D01*
X112835285Y-57361857D01*
X112871000Y-57290428D01*
X112871000Y-57111857D01*
X112835285Y-57040428D01*
X112799571Y-57004714D01*
X112728142Y-56969000D01*
X112585285Y-56969000D01*
X112513857Y-57004714D01*
X112478142Y-57040428D01*
X112442428Y-57111857D01*
X113299571Y-57004714D02*
X113228142Y-56969000D01*
X113192428Y-56933285D01*
X113156714Y-56861857D01*
X113156714Y-56826142D01*
X113192428Y-56754714D01*
X113228142Y-56719000D01*
X113299571Y-56683285D01*
X113442428Y-56683285D01*
X113513857Y-56719000D01*
X113549571Y-56754714D01*
X113585285Y-56826142D01*
X113585285Y-56861857D01*
X113549571Y-56933285D01*
X113513857Y-56969000D01*
X113442428Y-57004714D01*
X113299571Y-57004714D01*
X113228142Y-57040428D01*
X113192428Y-57076142D01*
X113156714Y-57147571D01*
X113156714Y-57290428D01*
X113192428Y-57361857D01*
X113228142Y-57397571D01*
X113299571Y-57433285D01*
X113442428Y-57433285D01*
X113513857Y-57397571D01*
X113549571Y-57361857D01*
X113585285Y-57290428D01*
X113585285Y-57147571D01*
X113549571Y-57076142D01*
X113513857Y-57040428D01*
X113442428Y-57004714D01*
X114263857Y-56683285D02*
X113906714Y-56683285D01*
X113871000Y-57040428D01*
X113906714Y-57004714D01*
X113978142Y-56969000D01*
X114156714Y-56969000D01*
X114228142Y-57004714D01*
X114263857Y-57040428D01*
X114299571Y-57111857D01*
X114299571Y-57290428D01*
X114263857Y-57361857D01*
X114228142Y-57397571D01*
X114156714Y-57433285D01*
X113978142Y-57433285D01*
X113906714Y-57397571D01*
X113871000Y-57361857D01*
X114621000Y-57433285D02*
X114621000Y-56683285D01*
X114906714Y-56683285D01*
X114978142Y-56719000D01*
X115013857Y-56754714D01*
X115049571Y-56826142D01*
X115049571Y-56933285D01*
X115013857Y-57004714D01*
X114978142Y-57040428D01*
X114906714Y-57076142D01*
X114621000Y-57076142D01*
X115299571Y-56683285D02*
X115478142Y-57433285D01*
X115621000Y-56897571D01*
X115763857Y-57433285D01*
X115942428Y-56683285D01*
X118016666Y-77907333D02*
X118016666Y-77574000D01*
X118216666Y-77974000D02*
X117516666Y-77740666D01*
X118216666Y-77507333D01*
X117516666Y-77140666D02*
X117516666Y-77007333D01*
X117550000Y-76940666D01*
X117616666Y-76874000D01*
X117750000Y-76840666D01*
X117983333Y-76840666D01*
X118116666Y-76874000D01*
X118183333Y-76940666D01*
X118216666Y-77007333D01*
X118216666Y-77140666D01*
X118183333Y-77207333D01*
X118116666Y-77274000D01*
X117983333Y-77307333D01*
X117750000Y-77307333D01*
X117616666Y-77274000D01*
X117550000Y-77207333D01*
X117516666Y-77140666D01*
X117516666Y-76607333D02*
X117516666Y-76140666D01*
X118216666Y-76607333D01*
X118216666Y-76140666D01*
X117516666Y-75574000D02*
X117516666Y-75707333D01*
X117550000Y-75774000D01*
X117583333Y-75807333D01*
X117683333Y-75874000D01*
X117816666Y-75907333D01*
X118083333Y-75907333D01*
X118150000Y-75874000D01*
X118183333Y-75840666D01*
X118216666Y-75774000D01*
X118216666Y-75640666D01*
X118183333Y-75574000D01*
X118150000Y-75540666D01*
X118083333Y-75507333D01*
X117916666Y-75507333D01*
X117850000Y-75540666D01*
X117816666Y-75574000D01*
X117783333Y-75640666D01*
X117783333Y-75774000D01*
X117816666Y-75840666D01*
X117850000Y-75874000D01*
X117916666Y-75907333D01*
X117516666Y-74907333D02*
X117516666Y-75040666D01*
X117550000Y-75107333D01*
X117583333Y-75140666D01*
X117683333Y-75207333D01*
X117816666Y-75240666D01*
X118083333Y-75240666D01*
X118150000Y-75207333D01*
X118183333Y-75174000D01*
X118216666Y-75107333D01*
X118216666Y-74974000D01*
X118183333Y-74907333D01*
X118150000Y-74874000D01*
X118083333Y-74840666D01*
X117916666Y-74840666D01*
X117850000Y-74874000D01*
X117816666Y-74907333D01*
X117783333Y-74974000D01*
X117783333Y-75107333D01*
X117816666Y-75174000D01*
X117850000Y-75207333D01*
X117916666Y-75240666D01*
X117516666Y-74407333D02*
X117516666Y-74340666D01*
X117550000Y-74274000D01*
X117583333Y-74240666D01*
X117650000Y-74207333D01*
X117783333Y-74174000D01*
X117950000Y-74174000D01*
X118083333Y-74207333D01*
X118150000Y-74240666D01*
X118183333Y-74274000D01*
X118216666Y-74340666D01*
X118216666Y-74407333D01*
X118183333Y-74474000D01*
X118150000Y-74507333D01*
X118083333Y-74540666D01*
X117950000Y-74574000D01*
X117783333Y-74574000D01*
X117650000Y-74540666D01*
X117583333Y-74507333D01*
X117550000Y-74474000D01*
X117516666Y-74407333D01*
X117516666Y-73540666D02*
X117516666Y-73874000D01*
X117850000Y-73907333D01*
X117816666Y-73874000D01*
X117783333Y-73807333D01*
X117783333Y-73640666D01*
X117816666Y-73574000D01*
X117850000Y-73540666D01*
X117916666Y-73507333D01*
X118083333Y-73507333D01*
X118150000Y-73540666D01*
X118183333Y-73574000D01*
X118216666Y-73640666D01*
X118216666Y-73807333D01*
X118183333Y-73874000D01*
X118150000Y-73907333D01*
X118216666Y-73207333D02*
X117516666Y-73207333D01*
X117516666Y-72940666D01*
X117550000Y-72874000D01*
X117583333Y-72840666D01*
X117650000Y-72807333D01*
X117750000Y-72807333D01*
X117816666Y-72840666D01*
X117850000Y-72874000D01*
X117883333Y-72940666D01*
X117883333Y-73207333D01*
X118216666Y-72507333D02*
X117516666Y-72507333D01*
X117950000Y-72174000D02*
X117950000Y-71640666D01*
X118216666Y-70940666D02*
X118216666Y-71340666D01*
X118216666Y-71140666D02*
X117516666Y-71140666D01*
X117616666Y-71207333D01*
X117683333Y-71274000D01*
X117716666Y-71340666D01*
X147387142Y-88568000D02*
X147415714Y-88482285D01*
X147444285Y-88453714D01*
X147501428Y-88425142D01*
X147587142Y-88425142D01*
X147644285Y-88453714D01*
X147672857Y-88482285D01*
X147701428Y-88539428D01*
X147701428Y-88768000D01*
X147101428Y-88768000D01*
X147101428Y-88568000D01*
X147130000Y-88510857D01*
X147158571Y-88482285D01*
X147215714Y-88453714D01*
X147272857Y-88453714D01*
X147330000Y-88482285D01*
X147358571Y-88510857D01*
X147387142Y-88568000D01*
X147387142Y-88768000D01*
X147758571Y-87768000D02*
X147730000Y-87825142D01*
X147672857Y-87882285D01*
X147587142Y-87968000D01*
X147558571Y-88025142D01*
X147558571Y-88082285D01*
X147701428Y-88053714D02*
X147672857Y-88110857D01*
X147615714Y-88168000D01*
X147501428Y-88196571D01*
X147301428Y-88196571D01*
X147187142Y-88168000D01*
X147130000Y-88110857D01*
X147101428Y-88053714D01*
X147101428Y-87939428D01*
X147130000Y-87882285D01*
X147187142Y-87825142D01*
X147301428Y-87796571D01*
X147501428Y-87796571D01*
X147615714Y-87825142D01*
X147672857Y-87882285D01*
X147701428Y-87939428D01*
X147701428Y-88053714D01*
X147158571Y-87568000D02*
X147130000Y-87539428D01*
X147101428Y-87482285D01*
X147101428Y-87339428D01*
X147130000Y-87282285D01*
X147158571Y-87253714D01*
X147215714Y-87225142D01*
X147272857Y-87225142D01*
X147358571Y-87253714D01*
X147701428Y-87596571D01*
X147701428Y-87225142D01*
X147701428Y-86939428D02*
X147701428Y-86825142D01*
X147672857Y-86768000D01*
X147644285Y-86739428D01*
X147558571Y-86682285D01*
X147444285Y-86653714D01*
X147215714Y-86653714D01*
X147158571Y-86682285D01*
X147130000Y-86710857D01*
X147101428Y-86768000D01*
X147101428Y-86882285D01*
X147130000Y-86939428D01*
X147158571Y-86968000D01*
X147215714Y-86996571D01*
X147358571Y-86996571D01*
X147415714Y-86968000D01*
X147444285Y-86939428D01*
X147472857Y-86882285D01*
X147472857Y-86768000D01*
X147444285Y-86710857D01*
X147415714Y-86682285D01*
X147358571Y-86653714D01*
X147158571Y-86425142D02*
X147130000Y-86396571D01*
X147101428Y-86339428D01*
X147101428Y-86196571D01*
X147130000Y-86139428D01*
X147158571Y-86110857D01*
X147215714Y-86082285D01*
X147272857Y-86082285D01*
X147358571Y-86110857D01*
X147701428Y-86453714D01*
X147701428Y-86082285D01*
X147101428Y-85710857D02*
X147101428Y-85653714D01*
X147130000Y-85596571D01*
X147158571Y-85568000D01*
X147215714Y-85539428D01*
X147330000Y-85510857D01*
X147472857Y-85510857D01*
X147587142Y-85539428D01*
X147644285Y-85568000D01*
X147672857Y-85596571D01*
X147701428Y-85653714D01*
X147701428Y-85710857D01*
X147672857Y-85768000D01*
X147644285Y-85796571D01*
X147587142Y-85825142D01*
X147472857Y-85853714D01*
X147330000Y-85853714D01*
X147215714Y-85825142D01*
X147158571Y-85796571D01*
X147130000Y-85768000D01*
X147101428Y-85710857D01*
X147701428Y-85225142D02*
X147701428Y-85110857D01*
X147672857Y-85053714D01*
X147644285Y-85025142D01*
X147558571Y-84968000D01*
X147444285Y-84939428D01*
X147215714Y-84939428D01*
X147158571Y-84968000D01*
X147130000Y-84996571D01*
X147101428Y-85053714D01*
X147101428Y-85168000D01*
X147130000Y-85225142D01*
X147158571Y-85253714D01*
X147215714Y-85282285D01*
X147358571Y-85282285D01*
X147415714Y-85253714D01*
X147444285Y-85225142D01*
X147472857Y-85168000D01*
X147472857Y-85053714D01*
X147444285Y-84996571D01*
X147415714Y-84968000D01*
X147358571Y-84939428D01*
X147701428Y-84682285D02*
X147101428Y-84682285D01*
X147101428Y-84539428D01*
X147130000Y-84453714D01*
X147187142Y-84396571D01*
X147244285Y-84368000D01*
X147358571Y-84339428D01*
X147444285Y-84339428D01*
X147558571Y-84368000D01*
X147615714Y-84396571D01*
X147672857Y-84453714D01*
X147701428Y-84539428D01*
X147701428Y-84682285D01*
X147701428Y-83739428D02*
X147415714Y-83939428D01*
X147701428Y-84082285D02*
X147101428Y-84082285D01*
X147101428Y-83853714D01*
X147130000Y-83796571D01*
X147158571Y-83768000D01*
X147215714Y-83739428D01*
X147301428Y-83739428D01*
X147358571Y-83768000D01*
X147387142Y-83796571D01*
X147415714Y-83853714D01*
X147415714Y-84082285D01*
X147387142Y-83282285D02*
X147415714Y-83196571D01*
X147444285Y-83168000D01*
X147501428Y-83139428D01*
X147587142Y-83139428D01*
X147644285Y-83168000D01*
X147672857Y-83196571D01*
X147701428Y-83253714D01*
X147701428Y-83482285D01*
X147101428Y-83482285D01*
X147101428Y-83282285D01*
X147130000Y-83225142D01*
X147158571Y-83196571D01*
X147215714Y-83168000D01*
X147272857Y-83168000D01*
X147330000Y-83196571D01*
X147358571Y-83225142D01*
X147387142Y-83282285D01*
X147387142Y-83482285D01*
X147701428Y-82539428D02*
X147415714Y-82739428D01*
X147701428Y-82882285D02*
X147101428Y-82882285D01*
X147101428Y-82653714D01*
X147130000Y-82596571D01*
X147158571Y-82568000D01*
X147215714Y-82539428D01*
X147301428Y-82539428D01*
X147358571Y-82568000D01*
X147387142Y-82596571D01*
X147415714Y-82653714D01*
X147415714Y-82882285D01*
X147942380Y-88238000D02*
X148180476Y-88238000D01*
X148085238Y-88476095D02*
X148180476Y-88238000D01*
X148085238Y-87999904D01*
X148370952Y-88380857D02*
X148180476Y-88238000D01*
X148370952Y-88095142D01*
X139515666Y-82199666D02*
X138815666Y-82199666D01*
X139315666Y-81966333D01*
X138815666Y-81733000D01*
X139515666Y-81733000D01*
X139449000Y-80999666D02*
X139482333Y-81033000D01*
X139515666Y-81133000D01*
X139515666Y-81199666D01*
X139482333Y-81299666D01*
X139415666Y-81366333D01*
X139349000Y-81399666D01*
X139215666Y-81433000D01*
X139115666Y-81433000D01*
X138982333Y-81399666D01*
X138915666Y-81366333D01*
X138849000Y-81299666D01*
X138815666Y-81199666D01*
X138815666Y-81133000D01*
X138849000Y-81033000D01*
X138882333Y-80999666D01*
X139515666Y-80699666D02*
X138815666Y-80699666D01*
X138815666Y-80433000D01*
X138849000Y-80366333D01*
X138882333Y-80333000D01*
X138949000Y-80299666D01*
X139049000Y-80299666D01*
X139115666Y-80333000D01*
X139149000Y-80366333D01*
X139182333Y-80433000D01*
X139182333Y-80699666D01*
X138815666Y-80066333D02*
X138815666Y-79633000D01*
X139082333Y-79866333D01*
X139082333Y-79766333D01*
X139115666Y-79699666D01*
X139149000Y-79666333D01*
X139215666Y-79633000D01*
X139382333Y-79633000D01*
X139449000Y-79666333D01*
X139482333Y-79699666D01*
X139515666Y-79766333D01*
X139515666Y-79966333D01*
X139482333Y-80033000D01*
X139449000Y-80066333D01*
X138815666Y-79199666D02*
X138815666Y-79133000D01*
X138849000Y-79066333D01*
X138882333Y-79033000D01*
X138949000Y-78999666D01*
X139082333Y-78966333D01*
X139249000Y-78966333D01*
X139382333Y-78999666D01*
X139449000Y-79033000D01*
X139482333Y-79066333D01*
X139515666Y-79133000D01*
X139515666Y-79199666D01*
X139482333Y-79266333D01*
X139449000Y-79299666D01*
X139382333Y-79333000D01*
X139249000Y-79366333D01*
X139082333Y-79366333D01*
X138949000Y-79333000D01*
X138882333Y-79299666D01*
X138849000Y-79266333D01*
X138815666Y-79199666D01*
X138882333Y-78699666D02*
X138849000Y-78666333D01*
X138815666Y-78599666D01*
X138815666Y-78433000D01*
X138849000Y-78366333D01*
X138882333Y-78333000D01*
X138949000Y-78299666D01*
X139015666Y-78299666D01*
X139115666Y-78333000D01*
X139515666Y-78733000D01*
X139515666Y-78299666D01*
X139515666Y-77633000D02*
X139515666Y-78033000D01*
X139515666Y-77833000D02*
X138815666Y-77833000D01*
X138915666Y-77899666D01*
X138982333Y-77966333D01*
X139015666Y-78033000D01*
X122556666Y-70310666D02*
X122223333Y-70310666D01*
X122223333Y-69610666D01*
X122723333Y-69610666D02*
X123156666Y-69610666D01*
X122923333Y-69877333D01*
X123023333Y-69877333D01*
X123090000Y-69910666D01*
X123123333Y-69944000D01*
X123156666Y-70010666D01*
X123156666Y-70177333D01*
X123123333Y-70244000D01*
X123090000Y-70277333D01*
X123023333Y-70310666D01*
X122823333Y-70310666D01*
X122756666Y-70277333D01*
X122723333Y-70244000D01*
X123590000Y-69610666D02*
X123656666Y-69610666D01*
X123723333Y-69644000D01*
X123756666Y-69677333D01*
X123790000Y-69744000D01*
X123823333Y-69877333D01*
X123823333Y-70044000D01*
X123790000Y-70177333D01*
X123756666Y-70244000D01*
X123723333Y-70277333D01*
X123656666Y-70310666D01*
X123590000Y-70310666D01*
X123523333Y-70277333D01*
X123490000Y-70244000D01*
X123456666Y-70177333D01*
X123423333Y-70044000D01*
X123423333Y-69877333D01*
X123456666Y-69744000D01*
X123490000Y-69677333D01*
X123523333Y-69644000D01*
X123590000Y-69610666D01*
X124490000Y-70310666D02*
X124090000Y-70310666D01*
X124290000Y-70310666D02*
X124290000Y-69610666D01*
X124223333Y-69710666D01*
X124156666Y-69777333D01*
X124090000Y-69810666D01*
X125423333Y-69610666D02*
X125856666Y-69610666D01*
X125623333Y-69877333D01*
X125723333Y-69877333D01*
X125790000Y-69910666D01*
X125823333Y-69944000D01*
X125856666Y-70010666D01*
X125856666Y-70177333D01*
X125823333Y-70244000D01*
X125790000Y-70277333D01*
X125723333Y-70310666D01*
X125523333Y-70310666D01*
X125456666Y-70277333D01*
X125423333Y-70244000D01*
X126156666Y-70244000D02*
X126190000Y-70277333D01*
X126156666Y-70310666D01*
X126123333Y-70277333D01*
X126156666Y-70244000D01*
X126156666Y-70310666D01*
X126423333Y-69610666D02*
X126856666Y-69610666D01*
X126623333Y-69877333D01*
X126723333Y-69877333D01*
X126790000Y-69910666D01*
X126823333Y-69944000D01*
X126856666Y-70010666D01*
X126856666Y-70177333D01*
X126823333Y-70244000D01*
X126790000Y-70277333D01*
X126723333Y-70310666D01*
X126523333Y-70310666D01*
X126456666Y-70277333D01*
X126423333Y-70244000D01*
X127456666Y-69844000D02*
X127456666Y-70310666D01*
X127156666Y-69844000D02*
X127156666Y-70210666D01*
X127190000Y-70277333D01*
X127256666Y-70310666D01*
X127356666Y-70310666D01*
X127423333Y-70277333D01*
X127456666Y-70244000D01*
X127790000Y-70310666D02*
X127790000Y-69610666D01*
X127790000Y-69944000D02*
X128190000Y-69944000D01*
X128190000Y-70310666D02*
X128190000Y-69610666D01*
X133533333Y-89170666D02*
X133966666Y-89170666D01*
X133733333Y-89437333D01*
X133833333Y-89437333D01*
X133900000Y-89470666D01*
X133933333Y-89504000D01*
X133966666Y-89570666D01*
X133966666Y-89737333D01*
X133933333Y-89804000D01*
X133900000Y-89837333D01*
X133833333Y-89870666D01*
X133633333Y-89870666D01*
X133566666Y-89837333D01*
X133533333Y-89804000D01*
X134400000Y-89170666D02*
X134466666Y-89170666D01*
X134533333Y-89204000D01*
X134566666Y-89237333D01*
X134600000Y-89304000D01*
X134633333Y-89437333D01*
X134633333Y-89604000D01*
X134600000Y-89737333D01*
X134566666Y-89804000D01*
X134533333Y-89837333D01*
X134466666Y-89870666D01*
X134400000Y-89870666D01*
X134333333Y-89837333D01*
X134300000Y-89804000D01*
X134266666Y-89737333D01*
X134233333Y-89604000D01*
X134233333Y-89437333D01*
X134266666Y-89304000D01*
X134300000Y-89237333D01*
X134333333Y-89204000D01*
X134400000Y-89170666D01*
X134833333Y-89170666D02*
X135066666Y-89870666D01*
X135300000Y-89170666D01*
X136433333Y-89870666D02*
X136033333Y-89870666D01*
X136233333Y-89870666D02*
X136233333Y-89170666D01*
X136166666Y-89270666D01*
X136100000Y-89337333D01*
X136033333Y-89370666D01*
X136700000Y-89670666D02*
X137033333Y-89670666D01*
X136633333Y-89870666D02*
X136866666Y-89170666D01*
X137100000Y-89870666D01*
X118548666Y-85871000D02*
X118515333Y-85904333D01*
X118415333Y-85937666D01*
X118348666Y-85937666D01*
X118248666Y-85904333D01*
X118182000Y-85837666D01*
X118148666Y-85771000D01*
X118115333Y-85637666D01*
X118115333Y-85537666D01*
X118148666Y-85404333D01*
X118182000Y-85337666D01*
X118248666Y-85271000D01*
X118348666Y-85237666D01*
X118415333Y-85237666D01*
X118515333Y-85271000D01*
X118548666Y-85304333D01*
X118782000Y-85237666D02*
X119215333Y-85237666D01*
X118982000Y-85504333D01*
X119082000Y-85504333D01*
X119148666Y-85537666D01*
X119182000Y-85571000D01*
X119215333Y-85637666D01*
X119215333Y-85804333D01*
X119182000Y-85871000D01*
X119148666Y-85904333D01*
X119082000Y-85937666D01*
X118882000Y-85937666D01*
X118815333Y-85904333D01*
X118782000Y-85871000D01*
X119882000Y-85937666D02*
X119482000Y-85937666D01*
X119682000Y-85937666D02*
X119682000Y-85237666D01*
X119615333Y-85337666D01*
X119548666Y-85404333D01*
X119482000Y-85437666D01*
X120148666Y-85304333D02*
X120182000Y-85271000D01*
X120248666Y-85237666D01*
X120415333Y-85237666D01*
X120482000Y-85271000D01*
X120515333Y-85304333D01*
X120548666Y-85371000D01*
X120548666Y-85437666D01*
X120515333Y-85537666D01*
X120115333Y-85937666D01*
X120548666Y-85937666D01*
X122015333Y-85471000D02*
X122015333Y-85937666D01*
X121848666Y-85204333D02*
X121682000Y-85704333D01*
X122115333Y-85704333D01*
X122315333Y-85237666D02*
X122782000Y-85237666D01*
X122482000Y-85937666D01*
X123348666Y-85471000D02*
X123348666Y-85937666D01*
X123048666Y-85471000D02*
X123048666Y-85837666D01*
X123082000Y-85904333D01*
X123148666Y-85937666D01*
X123248666Y-85937666D01*
X123315333Y-85904333D01*
X123348666Y-85871000D01*
X123915333Y-85571000D02*
X123682000Y-85571000D01*
X123682000Y-85937666D02*
X123682000Y-85237666D01*
X124015333Y-85237666D01*
X125256047Y-78648428D02*
X126017952Y-78648428D01*
X125637000Y-79029380D02*
X125637000Y-78267476D01*
X110120000Y-52736666D02*
X109720000Y-52736666D01*
X109920000Y-52736666D02*
X109920000Y-52036666D01*
X109853333Y-52136666D01*
X109786666Y-52203333D01*
X109720000Y-52236666D01*
X110553333Y-52036666D02*
X110620000Y-52036666D01*
X110686666Y-52070000D01*
X110720000Y-52103333D01*
X110753333Y-52170000D01*
X110786666Y-52303333D01*
X110786666Y-52470000D01*
X110753333Y-52603333D01*
X110720000Y-52670000D01*
X110686666Y-52703333D01*
X110620000Y-52736666D01*
X110553333Y-52736666D01*
X110486666Y-52703333D01*
X110453333Y-52670000D01*
X110420000Y-52603333D01*
X110386666Y-52470000D01*
X110386666Y-52303333D01*
X110420000Y-52170000D01*
X110453333Y-52103333D01*
X110486666Y-52070000D01*
X110553333Y-52036666D01*
X111386666Y-52270000D02*
X111386666Y-52736666D01*
X111086666Y-52270000D02*
X111086666Y-52636666D01*
X111120000Y-52703333D01*
X111186666Y-52736666D01*
X111286666Y-52736666D01*
X111353333Y-52703333D01*
X111386666Y-52670000D01*
X111953333Y-52370000D02*
X111720000Y-52370000D01*
X111720000Y-52736666D02*
X111720000Y-52036666D01*
X112053333Y-52036666D01*
X109876666Y-51156666D02*
X109476666Y-51156666D01*
X109676666Y-51156666D02*
X109676666Y-50456666D01*
X109610000Y-50556666D01*
X109543333Y-50623333D01*
X109476666Y-50656666D01*
X110310000Y-50456666D02*
X110376666Y-50456666D01*
X110443333Y-50490000D01*
X110476666Y-50523333D01*
X110510000Y-50590000D01*
X110543333Y-50723333D01*
X110543333Y-50890000D01*
X110510000Y-51023333D01*
X110476666Y-51090000D01*
X110443333Y-51123333D01*
X110376666Y-51156666D01*
X110310000Y-51156666D01*
X110243333Y-51123333D01*
X110210000Y-51090000D01*
X110176666Y-51023333D01*
X110143333Y-50890000D01*
X110143333Y-50723333D01*
X110176666Y-50590000D01*
X110210000Y-50523333D01*
X110243333Y-50490000D01*
X110310000Y-50456666D01*
X110976666Y-50456666D02*
X111043333Y-50456666D01*
X111110000Y-50490000D01*
X111143333Y-50523333D01*
X111176666Y-50590000D01*
X111210000Y-50723333D01*
X111210000Y-50890000D01*
X111176666Y-51023333D01*
X111143333Y-51090000D01*
X111110000Y-51123333D01*
X111043333Y-51156666D01*
X110976666Y-51156666D01*
X110910000Y-51123333D01*
X110876666Y-51090000D01*
X110843333Y-51023333D01*
X110810000Y-50890000D01*
X110810000Y-50723333D01*
X110843333Y-50590000D01*
X110876666Y-50523333D01*
X110910000Y-50490000D01*
X110976666Y-50456666D01*
X111510000Y-50690000D02*
X111510000Y-51156666D01*
X111510000Y-50756666D02*
X111543333Y-50723333D01*
X111610000Y-50690000D01*
X111710000Y-50690000D01*
X111776666Y-50723333D01*
X111810000Y-50790000D01*
X111810000Y-51156666D01*
X112376666Y-50790000D02*
X112143333Y-50790000D01*
X112143333Y-51156666D02*
X112143333Y-50456666D01*
X112476666Y-50456666D01*
X151740666Y-51530666D02*
X151740666Y-50830666D01*
X152007333Y-50830666D01*
X152074000Y-50864000D01*
X152107333Y-50897333D01*
X152140666Y-50964000D01*
X152140666Y-51064000D01*
X152107333Y-51130666D01*
X152074000Y-51164000D01*
X152007333Y-51197333D01*
X151740666Y-51197333D01*
X152374000Y-50830666D02*
X152540666Y-51530666D01*
X152674000Y-51030666D01*
X152807333Y-51530666D01*
X152974000Y-50830666D01*
X153640666Y-51530666D02*
X153407333Y-51197333D01*
X153240666Y-51530666D02*
X153240666Y-50830666D01*
X153507333Y-50830666D01*
X153574000Y-50864000D01*
X153607333Y-50897333D01*
X153640666Y-50964000D01*
X153640666Y-51064000D01*
X153607333Y-51130666D01*
X153574000Y-51164000D01*
X153507333Y-51197333D01*
X153240666Y-51197333D01*
X108513380Y-82851619D02*
X108513380Y-82756380D01*
X108561000Y-82661142D01*
X108608619Y-82613523D01*
X108703857Y-82565904D01*
X108894333Y-82518285D01*
X109132428Y-82518285D01*
X109322904Y-82565904D01*
X109418142Y-82613523D01*
X109465761Y-82661142D01*
X109513380Y-82756380D01*
X109513380Y-82851619D01*
X109465761Y-82946857D01*
X109418142Y-82994476D01*
X109322904Y-83042095D01*
X109132428Y-83089714D01*
X108894333Y-83089714D01*
X108703857Y-83042095D01*
X108608619Y-82994476D01*
X108561000Y-82946857D01*
X108513380Y-82851619D01*
X109513380Y-84958285D02*
X109513380Y-85529714D01*
X109513380Y-85244000D02*
X108513380Y-85244000D01*
X108656238Y-85339238D01*
X108751476Y-85434476D01*
X108799095Y-85529714D01*
X108618619Y-88323714D02*
X108571000Y-88276095D01*
X108523380Y-88180857D01*
X108523380Y-87942761D01*
X108571000Y-87847523D01*
X108618619Y-87799904D01*
X108713857Y-87752285D01*
X108809095Y-87752285D01*
X108951952Y-87799904D01*
X109523380Y-88371333D01*
X109523380Y-87752285D01*
X108523380Y-90757333D02*
X108523380Y-90138285D01*
X108904333Y-90471619D01*
X108904333Y-90328761D01*
X108951952Y-90233523D01*
X108999571Y-90185904D01*
X109094809Y-90138285D01*
X109332904Y-90138285D01*
X109428142Y-90185904D01*
X109475761Y-90233523D01*
X109523380Y-90328761D01*
X109523380Y-90614476D01*
X109475761Y-90709714D01*
X109428142Y-90757333D01*
X105200000Y-60436666D02*
X105533333Y-60436666D01*
X105133333Y-60636666D02*
X105366666Y-59936666D01*
X105600000Y-60636666D01*
X105966666Y-59936666D02*
X106033333Y-59936666D01*
X106100000Y-59970000D01*
X106133333Y-60003333D01*
X106166666Y-60070000D01*
X106200000Y-60203333D01*
X106200000Y-60370000D01*
X106166666Y-60503333D01*
X106133333Y-60570000D01*
X106100000Y-60603333D01*
X106033333Y-60636666D01*
X105966666Y-60636666D01*
X105900000Y-60603333D01*
X105866666Y-60570000D01*
X105833333Y-60503333D01*
X105800000Y-60370000D01*
X105800000Y-60203333D01*
X105833333Y-60070000D01*
X105866666Y-60003333D01*
X105900000Y-59970000D01*
X105966666Y-59936666D01*
X107163333Y-61150333D02*
X107196666Y-61117000D01*
X107263333Y-61083666D01*
X107430000Y-61083666D01*
X107496666Y-61117000D01*
X107530000Y-61150333D01*
X107563333Y-61217000D01*
X107563333Y-61283666D01*
X107530000Y-61383666D01*
X107130000Y-61783666D01*
X107563333Y-61783666D01*
X107830000Y-61150333D02*
X107863333Y-61117000D01*
X107930000Y-61083666D01*
X108096666Y-61083666D01*
X108163333Y-61117000D01*
X108196666Y-61150333D01*
X108230000Y-61217000D01*
X108230000Y-61283666D01*
X108196666Y-61383666D01*
X107796666Y-61783666D01*
X108230000Y-61783666D01*
X108663333Y-61083666D02*
X108730000Y-61083666D01*
X108796666Y-61117000D01*
X108830000Y-61150333D01*
X108863333Y-61217000D01*
X108896666Y-61350333D01*
X108896666Y-61517000D01*
X108863333Y-61650333D01*
X108830000Y-61717000D01*
X108796666Y-61750333D01*
X108730000Y-61783666D01*
X108663333Y-61783666D01*
X108596666Y-61750333D01*
X108563333Y-61717000D01*
X108530000Y-61650333D01*
X108496666Y-61517000D01*
X108496666Y-61350333D01*
X108530000Y-61217000D01*
X108563333Y-61150333D01*
X108596666Y-61117000D01*
X108663333Y-61083666D01*
M02*
