G04 #@! TF.GenerationSoftware,KiCad,Pcbnew,(5.1.4)-1*
G04 #@! TF.CreationDate,2019-11-27T00:40:15+11:00*
G04 #@! TF.ProjectId,dingo-hat,64696e67-6f2d-4686-9174-2e6b69636164,rev?*
G04 #@! TF.SameCoordinates,PX5f37000PY5f5c990*
G04 #@! TF.FileFunction,Paste,Top*
G04 #@! TF.FilePolarity,Positive*
%FSLAX46Y46*%
G04 Gerber Fmt 4.6, Leading zero omitted, Abs format (unit mm)*
G04 Created by KiCad (PCBNEW (5.1.4)-1) date 2019-11-27 00:40:15*
%MOMM*%
%LPD*%
G04 APERTURE LIST*
%ADD10R,1.800000X1.800000*%
%ADD11R,0.500000X0.400000*%
%ADD12R,0.500000X0.350000*%
%ADD13R,0.500000X0.750000*%
%ADD14R,0.650000X0.300000*%
%ADD15R,1.550000X2.480000*%
%ADD16R,1.100000X1.100000*%
%ADD17C,0.100000*%
%ADD18C,0.950000*%
%ADD19C,1.425000*%
%ADD20R,0.400000X1.100000*%
%ADD21R,0.800000X2.200000*%
%ADD22R,3.700000X2.710000*%
%ADD23R,2.400000X1.650000*%
%ADD24R,0.300000X0.800000*%
%ADD25R,1.060000X0.650000*%
%ADD26R,2.000000X3.500000*%
%ADD27R,3.200000X1.600000*%
%ADD28R,0.500000X0.800000*%
%ADD29R,0.400000X0.800000*%
G04 APERTURE END LIST*
D10*
X38976000Y15060000D03*
D11*
X37626000Y15860000D03*
X40326000Y15860000D03*
X37626000Y15260000D03*
X40326000Y15260000D03*
D12*
X37626000Y14660000D03*
X40326000Y14660000D03*
X37626000Y14260000D03*
X40326000Y14260000D03*
D13*
X37626000Y14460000D03*
X40326000Y14460000D03*
D14*
X46146900Y27324000D03*
X46146900Y26824000D03*
X46146900Y25824000D03*
X46146900Y25324000D03*
X43046900Y25324000D03*
X43046900Y25824000D03*
X43046900Y26324000D03*
X43046900Y26824000D03*
D15*
X44596900Y26324000D03*
D14*
X46146900Y26324000D03*
X43046900Y27324000D03*
D16*
X13610000Y12930000D03*
X10810000Y12930000D03*
D17*
G36*
X25140779Y47258856D02*
G01*
X25163834Y47255437D01*
X25186443Y47249773D01*
X25208387Y47241921D01*
X25229457Y47231956D01*
X25249448Y47219974D01*
X25268168Y47206090D01*
X25285438Y47190438D01*
X25301090Y47173168D01*
X25314974Y47154448D01*
X25326956Y47134457D01*
X25336921Y47113387D01*
X25344773Y47091443D01*
X25350437Y47068834D01*
X25353856Y47045779D01*
X25355000Y47022500D01*
X25355000Y46447500D01*
X25353856Y46424221D01*
X25350437Y46401166D01*
X25344773Y46378557D01*
X25336921Y46356613D01*
X25326956Y46335543D01*
X25314974Y46315552D01*
X25301090Y46296832D01*
X25285438Y46279562D01*
X25268168Y46263910D01*
X25249448Y46250026D01*
X25229457Y46238044D01*
X25208387Y46228079D01*
X25186443Y46220227D01*
X25163834Y46214563D01*
X25140779Y46211144D01*
X25117500Y46210000D01*
X24642500Y46210000D01*
X24619221Y46211144D01*
X24596166Y46214563D01*
X24573557Y46220227D01*
X24551613Y46228079D01*
X24530543Y46238044D01*
X24510552Y46250026D01*
X24491832Y46263910D01*
X24474562Y46279562D01*
X24458910Y46296832D01*
X24445026Y46315552D01*
X24433044Y46335543D01*
X24423079Y46356613D01*
X24415227Y46378557D01*
X24409563Y46401166D01*
X24406144Y46424221D01*
X24405000Y46447500D01*
X24405000Y47022500D01*
X24406144Y47045779D01*
X24409563Y47068834D01*
X24415227Y47091443D01*
X24423079Y47113387D01*
X24433044Y47134457D01*
X24445026Y47154448D01*
X24458910Y47173168D01*
X24474562Y47190438D01*
X24491832Y47206090D01*
X24510552Y47219974D01*
X24530543Y47231956D01*
X24551613Y47241921D01*
X24573557Y47249773D01*
X24596166Y47255437D01*
X24619221Y47258856D01*
X24642500Y47260000D01*
X25117500Y47260000D01*
X25140779Y47258856D01*
X25140779Y47258856D01*
G37*
D18*
X24880000Y46735000D03*
D17*
G36*
X25140779Y45508856D02*
G01*
X25163834Y45505437D01*
X25186443Y45499773D01*
X25208387Y45491921D01*
X25229457Y45481956D01*
X25249448Y45469974D01*
X25268168Y45456090D01*
X25285438Y45440438D01*
X25301090Y45423168D01*
X25314974Y45404448D01*
X25326956Y45384457D01*
X25336921Y45363387D01*
X25344773Y45341443D01*
X25350437Y45318834D01*
X25353856Y45295779D01*
X25355000Y45272500D01*
X25355000Y44697500D01*
X25353856Y44674221D01*
X25350437Y44651166D01*
X25344773Y44628557D01*
X25336921Y44606613D01*
X25326956Y44585543D01*
X25314974Y44565552D01*
X25301090Y44546832D01*
X25285438Y44529562D01*
X25268168Y44513910D01*
X25249448Y44500026D01*
X25229457Y44488044D01*
X25208387Y44478079D01*
X25186443Y44470227D01*
X25163834Y44464563D01*
X25140779Y44461144D01*
X25117500Y44460000D01*
X24642500Y44460000D01*
X24619221Y44461144D01*
X24596166Y44464563D01*
X24573557Y44470227D01*
X24551613Y44478079D01*
X24530543Y44488044D01*
X24510552Y44500026D01*
X24491832Y44513910D01*
X24474562Y44529562D01*
X24458910Y44546832D01*
X24445026Y44565552D01*
X24433044Y44585543D01*
X24423079Y44606613D01*
X24415227Y44628557D01*
X24409563Y44651166D01*
X24406144Y44674221D01*
X24405000Y44697500D01*
X24405000Y45272500D01*
X24406144Y45295779D01*
X24409563Y45318834D01*
X24415227Y45341443D01*
X24423079Y45363387D01*
X24433044Y45384457D01*
X24445026Y45404448D01*
X24458910Y45423168D01*
X24474562Y45440438D01*
X24491832Y45456090D01*
X24510552Y45469974D01*
X24530543Y45481956D01*
X24551613Y45491921D01*
X24573557Y45499773D01*
X24596166Y45505437D01*
X24619221Y45508856D01*
X24642500Y45510000D01*
X25117500Y45510000D01*
X25140779Y45508856D01*
X25140779Y45508856D01*
G37*
D18*
X24880000Y44985000D03*
D17*
G36*
X50515779Y22233856D02*
G01*
X50538834Y22230437D01*
X50561443Y22224773D01*
X50583387Y22216921D01*
X50604457Y22206956D01*
X50624448Y22194974D01*
X50643168Y22181090D01*
X50660438Y22165438D01*
X50676090Y22148168D01*
X50689974Y22129448D01*
X50701956Y22109457D01*
X50711921Y22088387D01*
X50719773Y22066443D01*
X50725437Y22043834D01*
X50728856Y22020779D01*
X50730000Y21997500D01*
X50730000Y21522500D01*
X50728856Y21499221D01*
X50725437Y21476166D01*
X50719773Y21453557D01*
X50711921Y21431613D01*
X50701956Y21410543D01*
X50689974Y21390552D01*
X50676090Y21371832D01*
X50660438Y21354562D01*
X50643168Y21338910D01*
X50624448Y21325026D01*
X50604457Y21313044D01*
X50583387Y21303079D01*
X50561443Y21295227D01*
X50538834Y21289563D01*
X50515779Y21286144D01*
X50492500Y21285000D01*
X49917500Y21285000D01*
X49894221Y21286144D01*
X49871166Y21289563D01*
X49848557Y21295227D01*
X49826613Y21303079D01*
X49805543Y21313044D01*
X49785552Y21325026D01*
X49766832Y21338910D01*
X49749562Y21354562D01*
X49733910Y21371832D01*
X49720026Y21390552D01*
X49708044Y21410543D01*
X49698079Y21431613D01*
X49690227Y21453557D01*
X49684563Y21476166D01*
X49681144Y21499221D01*
X49680000Y21522500D01*
X49680000Y21997500D01*
X49681144Y22020779D01*
X49684563Y22043834D01*
X49690227Y22066443D01*
X49698079Y22088387D01*
X49708044Y22109457D01*
X49720026Y22129448D01*
X49733910Y22148168D01*
X49749562Y22165438D01*
X49766832Y22181090D01*
X49785552Y22194974D01*
X49805543Y22206956D01*
X49826613Y22216921D01*
X49848557Y22224773D01*
X49871166Y22230437D01*
X49894221Y22233856D01*
X49917500Y22235000D01*
X50492500Y22235000D01*
X50515779Y22233856D01*
X50515779Y22233856D01*
G37*
D18*
X50205000Y21760000D03*
D17*
G36*
X48765779Y22233856D02*
G01*
X48788834Y22230437D01*
X48811443Y22224773D01*
X48833387Y22216921D01*
X48854457Y22206956D01*
X48874448Y22194974D01*
X48893168Y22181090D01*
X48910438Y22165438D01*
X48926090Y22148168D01*
X48939974Y22129448D01*
X48951956Y22109457D01*
X48961921Y22088387D01*
X48969773Y22066443D01*
X48975437Y22043834D01*
X48978856Y22020779D01*
X48980000Y21997500D01*
X48980000Y21522500D01*
X48978856Y21499221D01*
X48975437Y21476166D01*
X48969773Y21453557D01*
X48961921Y21431613D01*
X48951956Y21410543D01*
X48939974Y21390552D01*
X48926090Y21371832D01*
X48910438Y21354562D01*
X48893168Y21338910D01*
X48874448Y21325026D01*
X48854457Y21313044D01*
X48833387Y21303079D01*
X48811443Y21295227D01*
X48788834Y21289563D01*
X48765779Y21286144D01*
X48742500Y21285000D01*
X48167500Y21285000D01*
X48144221Y21286144D01*
X48121166Y21289563D01*
X48098557Y21295227D01*
X48076613Y21303079D01*
X48055543Y21313044D01*
X48035552Y21325026D01*
X48016832Y21338910D01*
X47999562Y21354562D01*
X47983910Y21371832D01*
X47970026Y21390552D01*
X47958044Y21410543D01*
X47948079Y21431613D01*
X47940227Y21453557D01*
X47934563Y21476166D01*
X47931144Y21499221D01*
X47930000Y21522500D01*
X47930000Y21997500D01*
X47931144Y22020779D01*
X47934563Y22043834D01*
X47940227Y22066443D01*
X47948079Y22088387D01*
X47958044Y22109457D01*
X47970026Y22129448D01*
X47983910Y22148168D01*
X47999562Y22165438D01*
X48016832Y22181090D01*
X48035552Y22194974D01*
X48055543Y22206956D01*
X48076613Y22216921D01*
X48098557Y22224773D01*
X48121166Y22230437D01*
X48144221Y22233856D01*
X48167500Y22235000D01*
X48742500Y22235000D01*
X48765779Y22233856D01*
X48765779Y22233856D01*
G37*
D18*
X48455000Y21760000D03*
D17*
G36*
X13315779Y29593856D02*
G01*
X13338834Y29590437D01*
X13361443Y29584773D01*
X13383387Y29576921D01*
X13404457Y29566956D01*
X13424448Y29554974D01*
X13443168Y29541090D01*
X13460438Y29525438D01*
X13476090Y29508168D01*
X13489974Y29489448D01*
X13501956Y29469457D01*
X13511921Y29448387D01*
X13519773Y29426443D01*
X13525437Y29403834D01*
X13528856Y29380779D01*
X13530000Y29357500D01*
X13530000Y28882500D01*
X13528856Y28859221D01*
X13525437Y28836166D01*
X13519773Y28813557D01*
X13511921Y28791613D01*
X13501956Y28770543D01*
X13489974Y28750552D01*
X13476090Y28731832D01*
X13460438Y28714562D01*
X13443168Y28698910D01*
X13424448Y28685026D01*
X13404457Y28673044D01*
X13383387Y28663079D01*
X13361443Y28655227D01*
X13338834Y28649563D01*
X13315779Y28646144D01*
X13292500Y28645000D01*
X12717500Y28645000D01*
X12694221Y28646144D01*
X12671166Y28649563D01*
X12648557Y28655227D01*
X12626613Y28663079D01*
X12605543Y28673044D01*
X12585552Y28685026D01*
X12566832Y28698910D01*
X12549562Y28714562D01*
X12533910Y28731832D01*
X12520026Y28750552D01*
X12508044Y28770543D01*
X12498079Y28791613D01*
X12490227Y28813557D01*
X12484563Y28836166D01*
X12481144Y28859221D01*
X12480000Y28882500D01*
X12480000Y29357500D01*
X12481144Y29380779D01*
X12484563Y29403834D01*
X12490227Y29426443D01*
X12498079Y29448387D01*
X12508044Y29469457D01*
X12520026Y29489448D01*
X12533910Y29508168D01*
X12549562Y29525438D01*
X12566832Y29541090D01*
X12585552Y29554974D01*
X12605543Y29566956D01*
X12626613Y29576921D01*
X12648557Y29584773D01*
X12671166Y29590437D01*
X12694221Y29593856D01*
X12717500Y29595000D01*
X13292500Y29595000D01*
X13315779Y29593856D01*
X13315779Y29593856D01*
G37*
D18*
X13005000Y29120000D03*
D17*
G36*
X15065779Y29593856D02*
G01*
X15088834Y29590437D01*
X15111443Y29584773D01*
X15133387Y29576921D01*
X15154457Y29566956D01*
X15174448Y29554974D01*
X15193168Y29541090D01*
X15210438Y29525438D01*
X15226090Y29508168D01*
X15239974Y29489448D01*
X15251956Y29469457D01*
X15261921Y29448387D01*
X15269773Y29426443D01*
X15275437Y29403834D01*
X15278856Y29380779D01*
X15280000Y29357500D01*
X15280000Y28882500D01*
X15278856Y28859221D01*
X15275437Y28836166D01*
X15269773Y28813557D01*
X15261921Y28791613D01*
X15251956Y28770543D01*
X15239974Y28750552D01*
X15226090Y28731832D01*
X15210438Y28714562D01*
X15193168Y28698910D01*
X15174448Y28685026D01*
X15154457Y28673044D01*
X15133387Y28663079D01*
X15111443Y28655227D01*
X15088834Y28649563D01*
X15065779Y28646144D01*
X15042500Y28645000D01*
X14467500Y28645000D01*
X14444221Y28646144D01*
X14421166Y28649563D01*
X14398557Y28655227D01*
X14376613Y28663079D01*
X14355543Y28673044D01*
X14335552Y28685026D01*
X14316832Y28698910D01*
X14299562Y28714562D01*
X14283910Y28731832D01*
X14270026Y28750552D01*
X14258044Y28770543D01*
X14248079Y28791613D01*
X14240227Y28813557D01*
X14234563Y28836166D01*
X14231144Y28859221D01*
X14230000Y28882500D01*
X14230000Y29357500D01*
X14231144Y29380779D01*
X14234563Y29403834D01*
X14240227Y29426443D01*
X14248079Y29448387D01*
X14258044Y29469457D01*
X14270026Y29489448D01*
X14283910Y29508168D01*
X14299562Y29525438D01*
X14316832Y29541090D01*
X14335552Y29554974D01*
X14355543Y29566956D01*
X14376613Y29576921D01*
X14398557Y29584773D01*
X14421166Y29590437D01*
X14444221Y29593856D01*
X14467500Y29595000D01*
X15042500Y29595000D01*
X15065779Y29593856D01*
X15065779Y29593856D01*
G37*
D18*
X14755000Y29120000D03*
D17*
G36*
X15055779Y28053856D02*
G01*
X15078834Y28050437D01*
X15101443Y28044773D01*
X15123387Y28036921D01*
X15144457Y28026956D01*
X15164448Y28014974D01*
X15183168Y28001090D01*
X15200438Y27985438D01*
X15216090Y27968168D01*
X15229974Y27949448D01*
X15241956Y27929457D01*
X15251921Y27908387D01*
X15259773Y27886443D01*
X15265437Y27863834D01*
X15268856Y27840779D01*
X15270000Y27817500D01*
X15270000Y27342500D01*
X15268856Y27319221D01*
X15265437Y27296166D01*
X15259773Y27273557D01*
X15251921Y27251613D01*
X15241956Y27230543D01*
X15229974Y27210552D01*
X15216090Y27191832D01*
X15200438Y27174562D01*
X15183168Y27158910D01*
X15164448Y27145026D01*
X15144457Y27133044D01*
X15123387Y27123079D01*
X15101443Y27115227D01*
X15078834Y27109563D01*
X15055779Y27106144D01*
X15032500Y27105000D01*
X14457500Y27105000D01*
X14434221Y27106144D01*
X14411166Y27109563D01*
X14388557Y27115227D01*
X14366613Y27123079D01*
X14345543Y27133044D01*
X14325552Y27145026D01*
X14306832Y27158910D01*
X14289562Y27174562D01*
X14273910Y27191832D01*
X14260026Y27210552D01*
X14248044Y27230543D01*
X14238079Y27251613D01*
X14230227Y27273557D01*
X14224563Y27296166D01*
X14221144Y27319221D01*
X14220000Y27342500D01*
X14220000Y27817500D01*
X14221144Y27840779D01*
X14224563Y27863834D01*
X14230227Y27886443D01*
X14238079Y27908387D01*
X14248044Y27929457D01*
X14260026Y27949448D01*
X14273910Y27968168D01*
X14289562Y27985438D01*
X14306832Y28001090D01*
X14325552Y28014974D01*
X14345543Y28026956D01*
X14366613Y28036921D01*
X14388557Y28044773D01*
X14411166Y28050437D01*
X14434221Y28053856D01*
X14457500Y28055000D01*
X15032500Y28055000D01*
X15055779Y28053856D01*
X15055779Y28053856D01*
G37*
D18*
X14745000Y27580000D03*
D17*
G36*
X13305779Y28053856D02*
G01*
X13328834Y28050437D01*
X13351443Y28044773D01*
X13373387Y28036921D01*
X13394457Y28026956D01*
X13414448Y28014974D01*
X13433168Y28001090D01*
X13450438Y27985438D01*
X13466090Y27968168D01*
X13479974Y27949448D01*
X13491956Y27929457D01*
X13501921Y27908387D01*
X13509773Y27886443D01*
X13515437Y27863834D01*
X13518856Y27840779D01*
X13520000Y27817500D01*
X13520000Y27342500D01*
X13518856Y27319221D01*
X13515437Y27296166D01*
X13509773Y27273557D01*
X13501921Y27251613D01*
X13491956Y27230543D01*
X13479974Y27210552D01*
X13466090Y27191832D01*
X13450438Y27174562D01*
X13433168Y27158910D01*
X13414448Y27145026D01*
X13394457Y27133044D01*
X13373387Y27123079D01*
X13351443Y27115227D01*
X13328834Y27109563D01*
X13305779Y27106144D01*
X13282500Y27105000D01*
X12707500Y27105000D01*
X12684221Y27106144D01*
X12661166Y27109563D01*
X12638557Y27115227D01*
X12616613Y27123079D01*
X12595543Y27133044D01*
X12575552Y27145026D01*
X12556832Y27158910D01*
X12539562Y27174562D01*
X12523910Y27191832D01*
X12510026Y27210552D01*
X12498044Y27230543D01*
X12488079Y27251613D01*
X12480227Y27273557D01*
X12474563Y27296166D01*
X12471144Y27319221D01*
X12470000Y27342500D01*
X12470000Y27817500D01*
X12471144Y27840779D01*
X12474563Y27863834D01*
X12480227Y27886443D01*
X12488079Y27908387D01*
X12498044Y27929457D01*
X12510026Y27949448D01*
X12523910Y27968168D01*
X12539562Y27985438D01*
X12556832Y28001090D01*
X12575552Y28014974D01*
X12595543Y28026956D01*
X12616613Y28036921D01*
X12638557Y28044773D01*
X12661166Y28050437D01*
X12684221Y28053856D01*
X12707500Y28055000D01*
X13282500Y28055000D01*
X13305779Y28053856D01*
X13305779Y28053856D01*
G37*
D18*
X12995000Y27580000D03*
D17*
G36*
X18655779Y32223856D02*
G01*
X18678834Y32220437D01*
X18701443Y32214773D01*
X18723387Y32206921D01*
X18744457Y32196956D01*
X18764448Y32184974D01*
X18783168Y32171090D01*
X18800438Y32155438D01*
X18816090Y32138168D01*
X18829974Y32119448D01*
X18841956Y32099457D01*
X18851921Y32078387D01*
X18859773Y32056443D01*
X18865437Y32033834D01*
X18868856Y32010779D01*
X18870000Y31987500D01*
X18870000Y31512500D01*
X18868856Y31489221D01*
X18865437Y31466166D01*
X18859773Y31443557D01*
X18851921Y31421613D01*
X18841956Y31400543D01*
X18829974Y31380552D01*
X18816090Y31361832D01*
X18800438Y31344562D01*
X18783168Y31328910D01*
X18764448Y31315026D01*
X18744457Y31303044D01*
X18723387Y31293079D01*
X18701443Y31285227D01*
X18678834Y31279563D01*
X18655779Y31276144D01*
X18632500Y31275000D01*
X18057500Y31275000D01*
X18034221Y31276144D01*
X18011166Y31279563D01*
X17988557Y31285227D01*
X17966613Y31293079D01*
X17945543Y31303044D01*
X17925552Y31315026D01*
X17906832Y31328910D01*
X17889562Y31344562D01*
X17873910Y31361832D01*
X17860026Y31380552D01*
X17848044Y31400543D01*
X17838079Y31421613D01*
X17830227Y31443557D01*
X17824563Y31466166D01*
X17821144Y31489221D01*
X17820000Y31512500D01*
X17820000Y31987500D01*
X17821144Y32010779D01*
X17824563Y32033834D01*
X17830227Y32056443D01*
X17838079Y32078387D01*
X17848044Y32099457D01*
X17860026Y32119448D01*
X17873910Y32138168D01*
X17889562Y32155438D01*
X17906832Y32171090D01*
X17925552Y32184974D01*
X17945543Y32196956D01*
X17966613Y32206921D01*
X17988557Y32214773D01*
X18011166Y32220437D01*
X18034221Y32223856D01*
X18057500Y32225000D01*
X18632500Y32225000D01*
X18655779Y32223856D01*
X18655779Y32223856D01*
G37*
D18*
X18345000Y31750000D03*
D17*
G36*
X16905779Y32223856D02*
G01*
X16928834Y32220437D01*
X16951443Y32214773D01*
X16973387Y32206921D01*
X16994457Y32196956D01*
X17014448Y32184974D01*
X17033168Y32171090D01*
X17050438Y32155438D01*
X17066090Y32138168D01*
X17079974Y32119448D01*
X17091956Y32099457D01*
X17101921Y32078387D01*
X17109773Y32056443D01*
X17115437Y32033834D01*
X17118856Y32010779D01*
X17120000Y31987500D01*
X17120000Y31512500D01*
X17118856Y31489221D01*
X17115437Y31466166D01*
X17109773Y31443557D01*
X17101921Y31421613D01*
X17091956Y31400543D01*
X17079974Y31380552D01*
X17066090Y31361832D01*
X17050438Y31344562D01*
X17033168Y31328910D01*
X17014448Y31315026D01*
X16994457Y31303044D01*
X16973387Y31293079D01*
X16951443Y31285227D01*
X16928834Y31279563D01*
X16905779Y31276144D01*
X16882500Y31275000D01*
X16307500Y31275000D01*
X16284221Y31276144D01*
X16261166Y31279563D01*
X16238557Y31285227D01*
X16216613Y31293079D01*
X16195543Y31303044D01*
X16175552Y31315026D01*
X16156832Y31328910D01*
X16139562Y31344562D01*
X16123910Y31361832D01*
X16110026Y31380552D01*
X16098044Y31400543D01*
X16088079Y31421613D01*
X16080227Y31443557D01*
X16074563Y31466166D01*
X16071144Y31489221D01*
X16070000Y31512500D01*
X16070000Y31987500D01*
X16071144Y32010779D01*
X16074563Y32033834D01*
X16080227Y32056443D01*
X16088079Y32078387D01*
X16098044Y32099457D01*
X16110026Y32119448D01*
X16123910Y32138168D01*
X16139562Y32155438D01*
X16156832Y32171090D01*
X16175552Y32184974D01*
X16195543Y32196956D01*
X16216613Y32206921D01*
X16238557Y32214773D01*
X16261166Y32220437D01*
X16284221Y32223856D01*
X16307500Y32225000D01*
X16882500Y32225000D01*
X16905779Y32223856D01*
X16905779Y32223856D01*
G37*
D18*
X16595000Y31750000D03*
D17*
G36*
X24078779Y29603856D02*
G01*
X24101834Y29600437D01*
X24124443Y29594773D01*
X24146387Y29586921D01*
X24167457Y29576956D01*
X24187448Y29564974D01*
X24206168Y29551090D01*
X24223438Y29535438D01*
X24239090Y29518168D01*
X24252974Y29499448D01*
X24264956Y29479457D01*
X24274921Y29458387D01*
X24282773Y29436443D01*
X24288437Y29413834D01*
X24291856Y29390779D01*
X24293000Y29367500D01*
X24293000Y28792500D01*
X24291856Y28769221D01*
X24288437Y28746166D01*
X24282773Y28723557D01*
X24274921Y28701613D01*
X24264956Y28680543D01*
X24252974Y28660552D01*
X24239090Y28641832D01*
X24223438Y28624562D01*
X24206168Y28608910D01*
X24187448Y28595026D01*
X24167457Y28583044D01*
X24146387Y28573079D01*
X24124443Y28565227D01*
X24101834Y28559563D01*
X24078779Y28556144D01*
X24055500Y28555000D01*
X23580500Y28555000D01*
X23557221Y28556144D01*
X23534166Y28559563D01*
X23511557Y28565227D01*
X23489613Y28573079D01*
X23468543Y28583044D01*
X23448552Y28595026D01*
X23429832Y28608910D01*
X23412562Y28624562D01*
X23396910Y28641832D01*
X23383026Y28660552D01*
X23371044Y28680543D01*
X23361079Y28701613D01*
X23353227Y28723557D01*
X23347563Y28746166D01*
X23344144Y28769221D01*
X23343000Y28792500D01*
X23343000Y29367500D01*
X23344144Y29390779D01*
X23347563Y29413834D01*
X23353227Y29436443D01*
X23361079Y29458387D01*
X23371044Y29479457D01*
X23383026Y29499448D01*
X23396910Y29518168D01*
X23412562Y29535438D01*
X23429832Y29551090D01*
X23448552Y29564974D01*
X23468543Y29576956D01*
X23489613Y29586921D01*
X23511557Y29594773D01*
X23534166Y29600437D01*
X23557221Y29603856D01*
X23580500Y29605000D01*
X24055500Y29605000D01*
X24078779Y29603856D01*
X24078779Y29603856D01*
G37*
D18*
X23818000Y29080000D03*
D17*
G36*
X24078779Y31353856D02*
G01*
X24101834Y31350437D01*
X24124443Y31344773D01*
X24146387Y31336921D01*
X24167457Y31326956D01*
X24187448Y31314974D01*
X24206168Y31301090D01*
X24223438Y31285438D01*
X24239090Y31268168D01*
X24252974Y31249448D01*
X24264956Y31229457D01*
X24274921Y31208387D01*
X24282773Y31186443D01*
X24288437Y31163834D01*
X24291856Y31140779D01*
X24293000Y31117500D01*
X24293000Y30542500D01*
X24291856Y30519221D01*
X24288437Y30496166D01*
X24282773Y30473557D01*
X24274921Y30451613D01*
X24264956Y30430543D01*
X24252974Y30410552D01*
X24239090Y30391832D01*
X24223438Y30374562D01*
X24206168Y30358910D01*
X24187448Y30345026D01*
X24167457Y30333044D01*
X24146387Y30323079D01*
X24124443Y30315227D01*
X24101834Y30309563D01*
X24078779Y30306144D01*
X24055500Y30305000D01*
X23580500Y30305000D01*
X23557221Y30306144D01*
X23534166Y30309563D01*
X23511557Y30315227D01*
X23489613Y30323079D01*
X23468543Y30333044D01*
X23448552Y30345026D01*
X23429832Y30358910D01*
X23412562Y30374562D01*
X23396910Y30391832D01*
X23383026Y30410552D01*
X23371044Y30430543D01*
X23361079Y30451613D01*
X23353227Y30473557D01*
X23347563Y30496166D01*
X23344144Y30519221D01*
X23343000Y30542500D01*
X23343000Y31117500D01*
X23344144Y31140779D01*
X23347563Y31163834D01*
X23353227Y31186443D01*
X23361079Y31208387D01*
X23371044Y31229457D01*
X23383026Y31249448D01*
X23396910Y31268168D01*
X23412562Y31285438D01*
X23429832Y31301090D01*
X23448552Y31314974D01*
X23468543Y31326956D01*
X23489613Y31336921D01*
X23511557Y31344773D01*
X23534166Y31350437D01*
X23557221Y31353856D01*
X23580500Y31355000D01*
X24055500Y31355000D01*
X24078779Y31353856D01*
X24078779Y31353856D01*
G37*
D18*
X23818000Y30830000D03*
D17*
G36*
X48500779Y10578856D02*
G01*
X48523834Y10575437D01*
X48546443Y10569773D01*
X48568387Y10561921D01*
X48589457Y10551956D01*
X48609448Y10539974D01*
X48628168Y10526090D01*
X48645438Y10510438D01*
X48661090Y10493168D01*
X48674974Y10474448D01*
X48686956Y10454457D01*
X48696921Y10433387D01*
X48704773Y10411443D01*
X48710437Y10388834D01*
X48713856Y10365779D01*
X48715000Y10342500D01*
X48715000Y9767500D01*
X48713856Y9744221D01*
X48710437Y9721166D01*
X48704773Y9698557D01*
X48696921Y9676613D01*
X48686956Y9655543D01*
X48674974Y9635552D01*
X48661090Y9616832D01*
X48645438Y9599562D01*
X48628168Y9583910D01*
X48609448Y9570026D01*
X48589457Y9558044D01*
X48568387Y9548079D01*
X48546443Y9540227D01*
X48523834Y9534563D01*
X48500779Y9531144D01*
X48477500Y9530000D01*
X48002500Y9530000D01*
X47979221Y9531144D01*
X47956166Y9534563D01*
X47933557Y9540227D01*
X47911613Y9548079D01*
X47890543Y9558044D01*
X47870552Y9570026D01*
X47851832Y9583910D01*
X47834562Y9599562D01*
X47818910Y9616832D01*
X47805026Y9635552D01*
X47793044Y9655543D01*
X47783079Y9676613D01*
X47775227Y9698557D01*
X47769563Y9721166D01*
X47766144Y9744221D01*
X47765000Y9767500D01*
X47765000Y10342500D01*
X47766144Y10365779D01*
X47769563Y10388834D01*
X47775227Y10411443D01*
X47783079Y10433387D01*
X47793044Y10454457D01*
X47805026Y10474448D01*
X47818910Y10493168D01*
X47834562Y10510438D01*
X47851832Y10526090D01*
X47870552Y10539974D01*
X47890543Y10551956D01*
X47911613Y10561921D01*
X47933557Y10569773D01*
X47956166Y10575437D01*
X47979221Y10578856D01*
X48002500Y10580000D01*
X48477500Y10580000D01*
X48500779Y10578856D01*
X48500779Y10578856D01*
G37*
D18*
X48240000Y10055000D03*
D17*
G36*
X48500779Y8828856D02*
G01*
X48523834Y8825437D01*
X48546443Y8819773D01*
X48568387Y8811921D01*
X48589457Y8801956D01*
X48609448Y8789974D01*
X48628168Y8776090D01*
X48645438Y8760438D01*
X48661090Y8743168D01*
X48674974Y8724448D01*
X48686956Y8704457D01*
X48696921Y8683387D01*
X48704773Y8661443D01*
X48710437Y8638834D01*
X48713856Y8615779D01*
X48715000Y8592500D01*
X48715000Y8017500D01*
X48713856Y7994221D01*
X48710437Y7971166D01*
X48704773Y7948557D01*
X48696921Y7926613D01*
X48686956Y7905543D01*
X48674974Y7885552D01*
X48661090Y7866832D01*
X48645438Y7849562D01*
X48628168Y7833910D01*
X48609448Y7820026D01*
X48589457Y7808044D01*
X48568387Y7798079D01*
X48546443Y7790227D01*
X48523834Y7784563D01*
X48500779Y7781144D01*
X48477500Y7780000D01*
X48002500Y7780000D01*
X47979221Y7781144D01*
X47956166Y7784563D01*
X47933557Y7790227D01*
X47911613Y7798079D01*
X47890543Y7808044D01*
X47870552Y7820026D01*
X47851832Y7833910D01*
X47834562Y7849562D01*
X47818910Y7866832D01*
X47805026Y7885552D01*
X47793044Y7905543D01*
X47783079Y7926613D01*
X47775227Y7948557D01*
X47769563Y7971166D01*
X47766144Y7994221D01*
X47765000Y8017500D01*
X47765000Y8592500D01*
X47766144Y8615779D01*
X47769563Y8638834D01*
X47775227Y8661443D01*
X47783079Y8683387D01*
X47793044Y8704457D01*
X47805026Y8724448D01*
X47818910Y8743168D01*
X47834562Y8760438D01*
X47851832Y8776090D01*
X47870552Y8789974D01*
X47890543Y8801956D01*
X47911613Y8811921D01*
X47933557Y8819773D01*
X47956166Y8825437D01*
X47979221Y8828856D01*
X48002500Y8830000D01*
X48477500Y8830000D01*
X48500779Y8828856D01*
X48500779Y8828856D01*
G37*
D18*
X48240000Y8305000D03*
D17*
G36*
X50895779Y8987856D02*
G01*
X50918834Y8984437D01*
X50941443Y8978773D01*
X50963387Y8970921D01*
X50984457Y8960956D01*
X51004448Y8948974D01*
X51023168Y8935090D01*
X51040438Y8919438D01*
X51056090Y8902168D01*
X51069974Y8883448D01*
X51081956Y8863457D01*
X51091921Y8842387D01*
X51099773Y8820443D01*
X51105437Y8797834D01*
X51108856Y8774779D01*
X51110000Y8751500D01*
X51110000Y8276500D01*
X51108856Y8253221D01*
X51105437Y8230166D01*
X51099773Y8207557D01*
X51091921Y8185613D01*
X51081956Y8164543D01*
X51069974Y8144552D01*
X51056090Y8125832D01*
X51040438Y8108562D01*
X51023168Y8092910D01*
X51004448Y8079026D01*
X50984457Y8067044D01*
X50963387Y8057079D01*
X50941443Y8049227D01*
X50918834Y8043563D01*
X50895779Y8040144D01*
X50872500Y8039000D01*
X50297500Y8039000D01*
X50274221Y8040144D01*
X50251166Y8043563D01*
X50228557Y8049227D01*
X50206613Y8057079D01*
X50185543Y8067044D01*
X50165552Y8079026D01*
X50146832Y8092910D01*
X50129562Y8108562D01*
X50113910Y8125832D01*
X50100026Y8144552D01*
X50088044Y8164543D01*
X50078079Y8185613D01*
X50070227Y8207557D01*
X50064563Y8230166D01*
X50061144Y8253221D01*
X50060000Y8276500D01*
X50060000Y8751500D01*
X50061144Y8774779D01*
X50064563Y8797834D01*
X50070227Y8820443D01*
X50078079Y8842387D01*
X50088044Y8863457D01*
X50100026Y8883448D01*
X50113910Y8902168D01*
X50129562Y8919438D01*
X50146832Y8935090D01*
X50165552Y8948974D01*
X50185543Y8960956D01*
X50206613Y8970921D01*
X50228557Y8978773D01*
X50251166Y8984437D01*
X50274221Y8987856D01*
X50297500Y8989000D01*
X50872500Y8989000D01*
X50895779Y8987856D01*
X50895779Y8987856D01*
G37*
D18*
X50585000Y8514000D03*
D17*
G36*
X52645779Y8987856D02*
G01*
X52668834Y8984437D01*
X52691443Y8978773D01*
X52713387Y8970921D01*
X52734457Y8960956D01*
X52754448Y8948974D01*
X52773168Y8935090D01*
X52790438Y8919438D01*
X52806090Y8902168D01*
X52819974Y8883448D01*
X52831956Y8863457D01*
X52841921Y8842387D01*
X52849773Y8820443D01*
X52855437Y8797834D01*
X52858856Y8774779D01*
X52860000Y8751500D01*
X52860000Y8276500D01*
X52858856Y8253221D01*
X52855437Y8230166D01*
X52849773Y8207557D01*
X52841921Y8185613D01*
X52831956Y8164543D01*
X52819974Y8144552D01*
X52806090Y8125832D01*
X52790438Y8108562D01*
X52773168Y8092910D01*
X52754448Y8079026D01*
X52734457Y8067044D01*
X52713387Y8057079D01*
X52691443Y8049227D01*
X52668834Y8043563D01*
X52645779Y8040144D01*
X52622500Y8039000D01*
X52047500Y8039000D01*
X52024221Y8040144D01*
X52001166Y8043563D01*
X51978557Y8049227D01*
X51956613Y8057079D01*
X51935543Y8067044D01*
X51915552Y8079026D01*
X51896832Y8092910D01*
X51879562Y8108562D01*
X51863910Y8125832D01*
X51850026Y8144552D01*
X51838044Y8164543D01*
X51828079Y8185613D01*
X51820227Y8207557D01*
X51814563Y8230166D01*
X51811144Y8253221D01*
X51810000Y8276500D01*
X51810000Y8751500D01*
X51811144Y8774779D01*
X51814563Y8797834D01*
X51820227Y8820443D01*
X51828079Y8842387D01*
X51838044Y8863457D01*
X51850026Y8883448D01*
X51863910Y8902168D01*
X51879562Y8919438D01*
X51896832Y8935090D01*
X51915552Y8948974D01*
X51935543Y8960956D01*
X51956613Y8970921D01*
X51978557Y8978773D01*
X52001166Y8984437D01*
X52024221Y8987856D01*
X52047500Y8989000D01*
X52622500Y8989000D01*
X52645779Y8987856D01*
X52645779Y8987856D01*
G37*
D18*
X52335000Y8514000D03*
D17*
G36*
X56535779Y11067856D02*
G01*
X56558834Y11064437D01*
X56581443Y11058773D01*
X56603387Y11050921D01*
X56624457Y11040956D01*
X56644448Y11028974D01*
X56663168Y11015090D01*
X56680438Y10999438D01*
X56696090Y10982168D01*
X56709974Y10963448D01*
X56721956Y10943457D01*
X56731921Y10922387D01*
X56739773Y10900443D01*
X56745437Y10877834D01*
X56748856Y10854779D01*
X56750000Y10831500D01*
X56750000Y10356500D01*
X56748856Y10333221D01*
X56745437Y10310166D01*
X56739773Y10287557D01*
X56731921Y10265613D01*
X56721956Y10244543D01*
X56709974Y10224552D01*
X56696090Y10205832D01*
X56680438Y10188562D01*
X56663168Y10172910D01*
X56644448Y10159026D01*
X56624457Y10147044D01*
X56603387Y10137079D01*
X56581443Y10129227D01*
X56558834Y10123563D01*
X56535779Y10120144D01*
X56512500Y10119000D01*
X55937500Y10119000D01*
X55914221Y10120144D01*
X55891166Y10123563D01*
X55868557Y10129227D01*
X55846613Y10137079D01*
X55825543Y10147044D01*
X55805552Y10159026D01*
X55786832Y10172910D01*
X55769562Y10188562D01*
X55753910Y10205832D01*
X55740026Y10224552D01*
X55728044Y10244543D01*
X55718079Y10265613D01*
X55710227Y10287557D01*
X55704563Y10310166D01*
X55701144Y10333221D01*
X55700000Y10356500D01*
X55700000Y10831500D01*
X55701144Y10854779D01*
X55704563Y10877834D01*
X55710227Y10900443D01*
X55718079Y10922387D01*
X55728044Y10943457D01*
X55740026Y10963448D01*
X55753910Y10982168D01*
X55769562Y10999438D01*
X55786832Y11015090D01*
X55805552Y11028974D01*
X55825543Y11040956D01*
X55846613Y11050921D01*
X55868557Y11058773D01*
X55891166Y11064437D01*
X55914221Y11067856D01*
X55937500Y11069000D01*
X56512500Y11069000D01*
X56535779Y11067856D01*
X56535779Y11067856D01*
G37*
D18*
X56225000Y10594000D03*
D17*
G36*
X54785779Y11067856D02*
G01*
X54808834Y11064437D01*
X54831443Y11058773D01*
X54853387Y11050921D01*
X54874457Y11040956D01*
X54894448Y11028974D01*
X54913168Y11015090D01*
X54930438Y10999438D01*
X54946090Y10982168D01*
X54959974Y10963448D01*
X54971956Y10943457D01*
X54981921Y10922387D01*
X54989773Y10900443D01*
X54995437Y10877834D01*
X54998856Y10854779D01*
X55000000Y10831500D01*
X55000000Y10356500D01*
X54998856Y10333221D01*
X54995437Y10310166D01*
X54989773Y10287557D01*
X54981921Y10265613D01*
X54971956Y10244543D01*
X54959974Y10224552D01*
X54946090Y10205832D01*
X54930438Y10188562D01*
X54913168Y10172910D01*
X54894448Y10159026D01*
X54874457Y10147044D01*
X54853387Y10137079D01*
X54831443Y10129227D01*
X54808834Y10123563D01*
X54785779Y10120144D01*
X54762500Y10119000D01*
X54187500Y10119000D01*
X54164221Y10120144D01*
X54141166Y10123563D01*
X54118557Y10129227D01*
X54096613Y10137079D01*
X54075543Y10147044D01*
X54055552Y10159026D01*
X54036832Y10172910D01*
X54019562Y10188562D01*
X54003910Y10205832D01*
X53990026Y10224552D01*
X53978044Y10244543D01*
X53968079Y10265613D01*
X53960227Y10287557D01*
X53954563Y10310166D01*
X53951144Y10333221D01*
X53950000Y10356500D01*
X53950000Y10831500D01*
X53951144Y10854779D01*
X53954563Y10877834D01*
X53960227Y10900443D01*
X53968079Y10922387D01*
X53978044Y10943457D01*
X53990026Y10963448D01*
X54003910Y10982168D01*
X54019562Y10999438D01*
X54036832Y11015090D01*
X54055552Y11028974D01*
X54075543Y11040956D01*
X54096613Y11050921D01*
X54118557Y11058773D01*
X54141166Y11064437D01*
X54164221Y11067856D01*
X54187500Y11069000D01*
X54762500Y11069000D01*
X54785779Y11067856D01*
X54785779Y11067856D01*
G37*
D18*
X54475000Y10594000D03*
D17*
G36*
X56535779Y9323856D02*
G01*
X56558834Y9320437D01*
X56581443Y9314773D01*
X56603387Y9306921D01*
X56624457Y9296956D01*
X56644448Y9284974D01*
X56663168Y9271090D01*
X56680438Y9255438D01*
X56696090Y9238168D01*
X56709974Y9219448D01*
X56721956Y9199457D01*
X56731921Y9178387D01*
X56739773Y9156443D01*
X56745437Y9133834D01*
X56748856Y9110779D01*
X56750000Y9087500D01*
X56750000Y8612500D01*
X56748856Y8589221D01*
X56745437Y8566166D01*
X56739773Y8543557D01*
X56731921Y8521613D01*
X56721956Y8500543D01*
X56709974Y8480552D01*
X56696090Y8461832D01*
X56680438Y8444562D01*
X56663168Y8428910D01*
X56644448Y8415026D01*
X56624457Y8403044D01*
X56603387Y8393079D01*
X56581443Y8385227D01*
X56558834Y8379563D01*
X56535779Y8376144D01*
X56512500Y8375000D01*
X55937500Y8375000D01*
X55914221Y8376144D01*
X55891166Y8379563D01*
X55868557Y8385227D01*
X55846613Y8393079D01*
X55825543Y8403044D01*
X55805552Y8415026D01*
X55786832Y8428910D01*
X55769562Y8444562D01*
X55753910Y8461832D01*
X55740026Y8480552D01*
X55728044Y8500543D01*
X55718079Y8521613D01*
X55710227Y8543557D01*
X55704563Y8566166D01*
X55701144Y8589221D01*
X55700000Y8612500D01*
X55700000Y9087500D01*
X55701144Y9110779D01*
X55704563Y9133834D01*
X55710227Y9156443D01*
X55718079Y9178387D01*
X55728044Y9199457D01*
X55740026Y9219448D01*
X55753910Y9238168D01*
X55769562Y9255438D01*
X55786832Y9271090D01*
X55805552Y9284974D01*
X55825543Y9296956D01*
X55846613Y9306921D01*
X55868557Y9314773D01*
X55891166Y9320437D01*
X55914221Y9323856D01*
X55937500Y9325000D01*
X56512500Y9325000D01*
X56535779Y9323856D01*
X56535779Y9323856D01*
G37*
D18*
X56225000Y8850000D03*
D17*
G36*
X54785779Y9323856D02*
G01*
X54808834Y9320437D01*
X54831443Y9314773D01*
X54853387Y9306921D01*
X54874457Y9296956D01*
X54894448Y9284974D01*
X54913168Y9271090D01*
X54930438Y9255438D01*
X54946090Y9238168D01*
X54959974Y9219448D01*
X54971956Y9199457D01*
X54981921Y9178387D01*
X54989773Y9156443D01*
X54995437Y9133834D01*
X54998856Y9110779D01*
X55000000Y9087500D01*
X55000000Y8612500D01*
X54998856Y8589221D01*
X54995437Y8566166D01*
X54989773Y8543557D01*
X54981921Y8521613D01*
X54971956Y8500543D01*
X54959974Y8480552D01*
X54946090Y8461832D01*
X54930438Y8444562D01*
X54913168Y8428910D01*
X54894448Y8415026D01*
X54874457Y8403044D01*
X54853387Y8393079D01*
X54831443Y8385227D01*
X54808834Y8379563D01*
X54785779Y8376144D01*
X54762500Y8375000D01*
X54187500Y8375000D01*
X54164221Y8376144D01*
X54141166Y8379563D01*
X54118557Y8385227D01*
X54096613Y8393079D01*
X54075543Y8403044D01*
X54055552Y8415026D01*
X54036832Y8428910D01*
X54019562Y8444562D01*
X54003910Y8461832D01*
X53990026Y8480552D01*
X53978044Y8500543D01*
X53968079Y8521613D01*
X53960227Y8543557D01*
X53954563Y8566166D01*
X53951144Y8589221D01*
X53950000Y8612500D01*
X53950000Y9087500D01*
X53951144Y9110779D01*
X53954563Y9133834D01*
X53960227Y9156443D01*
X53968079Y9178387D01*
X53978044Y9199457D01*
X53990026Y9219448D01*
X54003910Y9238168D01*
X54019562Y9255438D01*
X54036832Y9271090D01*
X54055552Y9284974D01*
X54075543Y9296956D01*
X54096613Y9306921D01*
X54118557Y9314773D01*
X54141166Y9320437D01*
X54164221Y9323856D01*
X54187500Y9325000D01*
X54762500Y9325000D01*
X54785779Y9323856D01*
X54785779Y9323856D01*
G37*
D18*
X54475000Y8850000D03*
D17*
G36*
X48715779Y29763856D02*
G01*
X48738834Y29760437D01*
X48761443Y29754773D01*
X48783387Y29746921D01*
X48804457Y29736956D01*
X48824448Y29724974D01*
X48843168Y29711090D01*
X48860438Y29695438D01*
X48876090Y29678168D01*
X48889974Y29659448D01*
X48901956Y29639457D01*
X48911921Y29618387D01*
X48919773Y29596443D01*
X48925437Y29573834D01*
X48928856Y29550779D01*
X48930000Y29527500D01*
X48930000Y29052500D01*
X48928856Y29029221D01*
X48925437Y29006166D01*
X48919773Y28983557D01*
X48911921Y28961613D01*
X48901956Y28940543D01*
X48889974Y28920552D01*
X48876090Y28901832D01*
X48860438Y28884562D01*
X48843168Y28868910D01*
X48824448Y28855026D01*
X48804457Y28843044D01*
X48783387Y28833079D01*
X48761443Y28825227D01*
X48738834Y28819563D01*
X48715779Y28816144D01*
X48692500Y28815000D01*
X48117500Y28815000D01*
X48094221Y28816144D01*
X48071166Y28819563D01*
X48048557Y28825227D01*
X48026613Y28833079D01*
X48005543Y28843044D01*
X47985552Y28855026D01*
X47966832Y28868910D01*
X47949562Y28884562D01*
X47933910Y28901832D01*
X47920026Y28920552D01*
X47908044Y28940543D01*
X47898079Y28961613D01*
X47890227Y28983557D01*
X47884563Y29006166D01*
X47881144Y29029221D01*
X47880000Y29052500D01*
X47880000Y29527500D01*
X47881144Y29550779D01*
X47884563Y29573834D01*
X47890227Y29596443D01*
X47898079Y29618387D01*
X47908044Y29639457D01*
X47920026Y29659448D01*
X47933910Y29678168D01*
X47949562Y29695438D01*
X47966832Y29711090D01*
X47985552Y29724974D01*
X48005543Y29736956D01*
X48026613Y29746921D01*
X48048557Y29754773D01*
X48071166Y29760437D01*
X48094221Y29763856D01*
X48117500Y29765000D01*
X48692500Y29765000D01*
X48715779Y29763856D01*
X48715779Y29763856D01*
G37*
D18*
X48405000Y29290000D03*
D17*
G36*
X50465779Y29763856D02*
G01*
X50488834Y29760437D01*
X50511443Y29754773D01*
X50533387Y29746921D01*
X50554457Y29736956D01*
X50574448Y29724974D01*
X50593168Y29711090D01*
X50610438Y29695438D01*
X50626090Y29678168D01*
X50639974Y29659448D01*
X50651956Y29639457D01*
X50661921Y29618387D01*
X50669773Y29596443D01*
X50675437Y29573834D01*
X50678856Y29550779D01*
X50680000Y29527500D01*
X50680000Y29052500D01*
X50678856Y29029221D01*
X50675437Y29006166D01*
X50669773Y28983557D01*
X50661921Y28961613D01*
X50651956Y28940543D01*
X50639974Y28920552D01*
X50626090Y28901832D01*
X50610438Y28884562D01*
X50593168Y28868910D01*
X50574448Y28855026D01*
X50554457Y28843044D01*
X50533387Y28833079D01*
X50511443Y28825227D01*
X50488834Y28819563D01*
X50465779Y28816144D01*
X50442500Y28815000D01*
X49867500Y28815000D01*
X49844221Y28816144D01*
X49821166Y28819563D01*
X49798557Y28825227D01*
X49776613Y28833079D01*
X49755543Y28843044D01*
X49735552Y28855026D01*
X49716832Y28868910D01*
X49699562Y28884562D01*
X49683910Y28901832D01*
X49670026Y28920552D01*
X49658044Y28940543D01*
X49648079Y28961613D01*
X49640227Y28983557D01*
X49634563Y29006166D01*
X49631144Y29029221D01*
X49630000Y29052500D01*
X49630000Y29527500D01*
X49631144Y29550779D01*
X49634563Y29573834D01*
X49640227Y29596443D01*
X49648079Y29618387D01*
X49658044Y29639457D01*
X49670026Y29659448D01*
X49683910Y29678168D01*
X49699562Y29695438D01*
X49716832Y29711090D01*
X49735552Y29724974D01*
X49755543Y29736956D01*
X49776613Y29746921D01*
X49798557Y29754773D01*
X49821166Y29760437D01*
X49844221Y29763856D01*
X49867500Y29765000D01*
X50442500Y29765000D01*
X50465779Y29763856D01*
X50465779Y29763856D01*
G37*
D18*
X50155000Y29290000D03*
D17*
G36*
X35930779Y14698856D02*
G01*
X35953834Y14695437D01*
X35976443Y14689773D01*
X35998387Y14681921D01*
X36019457Y14671956D01*
X36039448Y14659974D01*
X36058168Y14646090D01*
X36075438Y14630438D01*
X36091090Y14613168D01*
X36104974Y14594448D01*
X36116956Y14574457D01*
X36126921Y14553387D01*
X36134773Y14531443D01*
X36140437Y14508834D01*
X36143856Y14485779D01*
X36145000Y14462500D01*
X36145000Y13887500D01*
X36143856Y13864221D01*
X36140437Y13841166D01*
X36134773Y13818557D01*
X36126921Y13796613D01*
X36116956Y13775543D01*
X36104974Y13755552D01*
X36091090Y13736832D01*
X36075438Y13719562D01*
X36058168Y13703910D01*
X36039448Y13690026D01*
X36019457Y13678044D01*
X35998387Y13668079D01*
X35976443Y13660227D01*
X35953834Y13654563D01*
X35930779Y13651144D01*
X35907500Y13650000D01*
X35432500Y13650000D01*
X35409221Y13651144D01*
X35386166Y13654563D01*
X35363557Y13660227D01*
X35341613Y13668079D01*
X35320543Y13678044D01*
X35300552Y13690026D01*
X35281832Y13703910D01*
X35264562Y13719562D01*
X35248910Y13736832D01*
X35235026Y13755552D01*
X35223044Y13775543D01*
X35213079Y13796613D01*
X35205227Y13818557D01*
X35199563Y13841166D01*
X35196144Y13864221D01*
X35195000Y13887500D01*
X35195000Y14462500D01*
X35196144Y14485779D01*
X35199563Y14508834D01*
X35205227Y14531443D01*
X35213079Y14553387D01*
X35223044Y14574457D01*
X35235026Y14594448D01*
X35248910Y14613168D01*
X35264562Y14630438D01*
X35281832Y14646090D01*
X35300552Y14659974D01*
X35320543Y14671956D01*
X35341613Y14681921D01*
X35363557Y14689773D01*
X35386166Y14695437D01*
X35409221Y14698856D01*
X35432500Y14700000D01*
X35907500Y14700000D01*
X35930779Y14698856D01*
X35930779Y14698856D01*
G37*
D18*
X35670000Y14175000D03*
D17*
G36*
X35930779Y16448856D02*
G01*
X35953834Y16445437D01*
X35976443Y16439773D01*
X35998387Y16431921D01*
X36019457Y16421956D01*
X36039448Y16409974D01*
X36058168Y16396090D01*
X36075438Y16380438D01*
X36091090Y16363168D01*
X36104974Y16344448D01*
X36116956Y16324457D01*
X36126921Y16303387D01*
X36134773Y16281443D01*
X36140437Y16258834D01*
X36143856Y16235779D01*
X36145000Y16212500D01*
X36145000Y15637500D01*
X36143856Y15614221D01*
X36140437Y15591166D01*
X36134773Y15568557D01*
X36126921Y15546613D01*
X36116956Y15525543D01*
X36104974Y15505552D01*
X36091090Y15486832D01*
X36075438Y15469562D01*
X36058168Y15453910D01*
X36039448Y15440026D01*
X36019457Y15428044D01*
X35998387Y15418079D01*
X35976443Y15410227D01*
X35953834Y15404563D01*
X35930779Y15401144D01*
X35907500Y15400000D01*
X35432500Y15400000D01*
X35409221Y15401144D01*
X35386166Y15404563D01*
X35363557Y15410227D01*
X35341613Y15418079D01*
X35320543Y15428044D01*
X35300552Y15440026D01*
X35281832Y15453910D01*
X35264562Y15469562D01*
X35248910Y15486832D01*
X35235026Y15505552D01*
X35223044Y15525543D01*
X35213079Y15546613D01*
X35205227Y15568557D01*
X35199563Y15591166D01*
X35196144Y15614221D01*
X35195000Y15637500D01*
X35195000Y16212500D01*
X35196144Y16235779D01*
X35199563Y16258834D01*
X35205227Y16281443D01*
X35213079Y16303387D01*
X35223044Y16324457D01*
X35235026Y16344448D01*
X35248910Y16363168D01*
X35264562Y16380438D01*
X35281832Y16396090D01*
X35300552Y16409974D01*
X35320543Y16421956D01*
X35341613Y16431921D01*
X35363557Y16439773D01*
X35386166Y16445437D01*
X35409221Y16448856D01*
X35432500Y16450000D01*
X35907500Y16450000D01*
X35930779Y16448856D01*
X35930779Y16448856D01*
G37*
D18*
X35670000Y15925000D03*
D17*
G36*
X48765779Y27403856D02*
G01*
X48788834Y27400437D01*
X48811443Y27394773D01*
X48833387Y27386921D01*
X48854457Y27376956D01*
X48874448Y27364974D01*
X48893168Y27351090D01*
X48910438Y27335438D01*
X48926090Y27318168D01*
X48939974Y27299448D01*
X48951956Y27279457D01*
X48961921Y27258387D01*
X48969773Y27236443D01*
X48975437Y27213834D01*
X48978856Y27190779D01*
X48980000Y27167500D01*
X48980000Y26692500D01*
X48978856Y26669221D01*
X48975437Y26646166D01*
X48969773Y26623557D01*
X48961921Y26601613D01*
X48951956Y26580543D01*
X48939974Y26560552D01*
X48926090Y26541832D01*
X48910438Y26524562D01*
X48893168Y26508910D01*
X48874448Y26495026D01*
X48854457Y26483044D01*
X48833387Y26473079D01*
X48811443Y26465227D01*
X48788834Y26459563D01*
X48765779Y26456144D01*
X48742500Y26455000D01*
X48167500Y26455000D01*
X48144221Y26456144D01*
X48121166Y26459563D01*
X48098557Y26465227D01*
X48076613Y26473079D01*
X48055543Y26483044D01*
X48035552Y26495026D01*
X48016832Y26508910D01*
X47999562Y26524562D01*
X47983910Y26541832D01*
X47970026Y26560552D01*
X47958044Y26580543D01*
X47948079Y26601613D01*
X47940227Y26623557D01*
X47934563Y26646166D01*
X47931144Y26669221D01*
X47930000Y26692500D01*
X47930000Y27167500D01*
X47931144Y27190779D01*
X47934563Y27213834D01*
X47940227Y27236443D01*
X47948079Y27258387D01*
X47958044Y27279457D01*
X47970026Y27299448D01*
X47983910Y27318168D01*
X47999562Y27335438D01*
X48016832Y27351090D01*
X48035552Y27364974D01*
X48055543Y27376956D01*
X48076613Y27386921D01*
X48098557Y27394773D01*
X48121166Y27400437D01*
X48144221Y27403856D01*
X48167500Y27405000D01*
X48742500Y27405000D01*
X48765779Y27403856D01*
X48765779Y27403856D01*
G37*
D18*
X48455000Y26930000D03*
D17*
G36*
X50515779Y27403856D02*
G01*
X50538834Y27400437D01*
X50561443Y27394773D01*
X50583387Y27386921D01*
X50604457Y27376956D01*
X50624448Y27364974D01*
X50643168Y27351090D01*
X50660438Y27335438D01*
X50676090Y27318168D01*
X50689974Y27299448D01*
X50701956Y27279457D01*
X50711921Y27258387D01*
X50719773Y27236443D01*
X50725437Y27213834D01*
X50728856Y27190779D01*
X50730000Y27167500D01*
X50730000Y26692500D01*
X50728856Y26669221D01*
X50725437Y26646166D01*
X50719773Y26623557D01*
X50711921Y26601613D01*
X50701956Y26580543D01*
X50689974Y26560552D01*
X50676090Y26541832D01*
X50660438Y26524562D01*
X50643168Y26508910D01*
X50624448Y26495026D01*
X50604457Y26483044D01*
X50583387Y26473079D01*
X50561443Y26465227D01*
X50538834Y26459563D01*
X50515779Y26456144D01*
X50492500Y26455000D01*
X49917500Y26455000D01*
X49894221Y26456144D01*
X49871166Y26459563D01*
X49848557Y26465227D01*
X49826613Y26473079D01*
X49805543Y26483044D01*
X49785552Y26495026D01*
X49766832Y26508910D01*
X49749562Y26524562D01*
X49733910Y26541832D01*
X49720026Y26560552D01*
X49708044Y26580543D01*
X49698079Y26601613D01*
X49690227Y26623557D01*
X49684563Y26646166D01*
X49681144Y26669221D01*
X49680000Y26692500D01*
X49680000Y27167500D01*
X49681144Y27190779D01*
X49684563Y27213834D01*
X49690227Y27236443D01*
X49698079Y27258387D01*
X49708044Y27279457D01*
X49720026Y27299448D01*
X49733910Y27318168D01*
X49749562Y27335438D01*
X49766832Y27351090D01*
X49785552Y27364974D01*
X49805543Y27376956D01*
X49826613Y27386921D01*
X49848557Y27394773D01*
X49871166Y27400437D01*
X49894221Y27403856D01*
X49917500Y27405000D01*
X50492500Y27405000D01*
X50515779Y27403856D01*
X50515779Y27403856D01*
G37*
D18*
X50205000Y26930000D03*
D17*
G36*
X40335779Y19893856D02*
G01*
X40358834Y19890437D01*
X40381443Y19884773D01*
X40403387Y19876921D01*
X40424457Y19866956D01*
X40444448Y19854974D01*
X40463168Y19841090D01*
X40480438Y19825438D01*
X40496090Y19808168D01*
X40509974Y19789448D01*
X40521956Y19769457D01*
X40531921Y19748387D01*
X40539773Y19726443D01*
X40545437Y19703834D01*
X40548856Y19680779D01*
X40550000Y19657500D01*
X40550000Y19182500D01*
X40548856Y19159221D01*
X40545437Y19136166D01*
X40539773Y19113557D01*
X40531921Y19091613D01*
X40521956Y19070543D01*
X40509974Y19050552D01*
X40496090Y19031832D01*
X40480438Y19014562D01*
X40463168Y18998910D01*
X40444448Y18985026D01*
X40424457Y18973044D01*
X40403387Y18963079D01*
X40381443Y18955227D01*
X40358834Y18949563D01*
X40335779Y18946144D01*
X40312500Y18945000D01*
X39737500Y18945000D01*
X39714221Y18946144D01*
X39691166Y18949563D01*
X39668557Y18955227D01*
X39646613Y18963079D01*
X39625543Y18973044D01*
X39605552Y18985026D01*
X39586832Y18998910D01*
X39569562Y19014562D01*
X39553910Y19031832D01*
X39540026Y19050552D01*
X39528044Y19070543D01*
X39518079Y19091613D01*
X39510227Y19113557D01*
X39504563Y19136166D01*
X39501144Y19159221D01*
X39500000Y19182500D01*
X39500000Y19657500D01*
X39501144Y19680779D01*
X39504563Y19703834D01*
X39510227Y19726443D01*
X39518079Y19748387D01*
X39528044Y19769457D01*
X39540026Y19789448D01*
X39553910Y19808168D01*
X39569562Y19825438D01*
X39586832Y19841090D01*
X39605552Y19854974D01*
X39625543Y19866956D01*
X39646613Y19876921D01*
X39668557Y19884773D01*
X39691166Y19890437D01*
X39714221Y19893856D01*
X39737500Y19895000D01*
X40312500Y19895000D01*
X40335779Y19893856D01*
X40335779Y19893856D01*
G37*
D18*
X40025000Y19420000D03*
D17*
G36*
X38585779Y19893856D02*
G01*
X38608834Y19890437D01*
X38631443Y19884773D01*
X38653387Y19876921D01*
X38674457Y19866956D01*
X38694448Y19854974D01*
X38713168Y19841090D01*
X38730438Y19825438D01*
X38746090Y19808168D01*
X38759974Y19789448D01*
X38771956Y19769457D01*
X38781921Y19748387D01*
X38789773Y19726443D01*
X38795437Y19703834D01*
X38798856Y19680779D01*
X38800000Y19657500D01*
X38800000Y19182500D01*
X38798856Y19159221D01*
X38795437Y19136166D01*
X38789773Y19113557D01*
X38781921Y19091613D01*
X38771956Y19070543D01*
X38759974Y19050552D01*
X38746090Y19031832D01*
X38730438Y19014562D01*
X38713168Y18998910D01*
X38694448Y18985026D01*
X38674457Y18973044D01*
X38653387Y18963079D01*
X38631443Y18955227D01*
X38608834Y18949563D01*
X38585779Y18946144D01*
X38562500Y18945000D01*
X37987500Y18945000D01*
X37964221Y18946144D01*
X37941166Y18949563D01*
X37918557Y18955227D01*
X37896613Y18963079D01*
X37875543Y18973044D01*
X37855552Y18985026D01*
X37836832Y18998910D01*
X37819562Y19014562D01*
X37803910Y19031832D01*
X37790026Y19050552D01*
X37778044Y19070543D01*
X37768079Y19091613D01*
X37760227Y19113557D01*
X37754563Y19136166D01*
X37751144Y19159221D01*
X37750000Y19182500D01*
X37750000Y19657500D01*
X37751144Y19680779D01*
X37754563Y19703834D01*
X37760227Y19726443D01*
X37768079Y19748387D01*
X37778044Y19769457D01*
X37790026Y19789448D01*
X37803910Y19808168D01*
X37819562Y19825438D01*
X37836832Y19841090D01*
X37855552Y19854974D01*
X37875543Y19866956D01*
X37896613Y19876921D01*
X37918557Y19884773D01*
X37941166Y19890437D01*
X37964221Y19893856D01*
X37987500Y19895000D01*
X38562500Y19895000D01*
X38585779Y19893856D01*
X38585779Y19893856D01*
G37*
D18*
X38275000Y19420000D03*
D17*
G36*
X9470779Y38128856D02*
G01*
X9493834Y38125437D01*
X9516443Y38119773D01*
X9538387Y38111921D01*
X9559457Y38101956D01*
X9579448Y38089974D01*
X9598168Y38076090D01*
X9615438Y38060438D01*
X9631090Y38043168D01*
X9644974Y38024448D01*
X9656956Y38004457D01*
X9666921Y37983387D01*
X9674773Y37961443D01*
X9680437Y37938834D01*
X9683856Y37915779D01*
X9685000Y37892500D01*
X9685000Y37317500D01*
X9683856Y37294221D01*
X9680437Y37271166D01*
X9674773Y37248557D01*
X9666921Y37226613D01*
X9656956Y37205543D01*
X9644974Y37185552D01*
X9631090Y37166832D01*
X9615438Y37149562D01*
X9598168Y37133910D01*
X9579448Y37120026D01*
X9559457Y37108044D01*
X9538387Y37098079D01*
X9516443Y37090227D01*
X9493834Y37084563D01*
X9470779Y37081144D01*
X9447500Y37080000D01*
X8972500Y37080000D01*
X8949221Y37081144D01*
X8926166Y37084563D01*
X8903557Y37090227D01*
X8881613Y37098079D01*
X8860543Y37108044D01*
X8840552Y37120026D01*
X8821832Y37133910D01*
X8804562Y37149562D01*
X8788910Y37166832D01*
X8775026Y37185552D01*
X8763044Y37205543D01*
X8753079Y37226613D01*
X8745227Y37248557D01*
X8739563Y37271166D01*
X8736144Y37294221D01*
X8735000Y37317500D01*
X8735000Y37892500D01*
X8736144Y37915779D01*
X8739563Y37938834D01*
X8745227Y37961443D01*
X8753079Y37983387D01*
X8763044Y38004457D01*
X8775026Y38024448D01*
X8788910Y38043168D01*
X8804562Y38060438D01*
X8821832Y38076090D01*
X8840552Y38089974D01*
X8860543Y38101956D01*
X8881613Y38111921D01*
X8903557Y38119773D01*
X8926166Y38125437D01*
X8949221Y38128856D01*
X8972500Y38130000D01*
X9447500Y38130000D01*
X9470779Y38128856D01*
X9470779Y38128856D01*
G37*
D18*
X9210000Y37605000D03*
D17*
G36*
X9470779Y39878856D02*
G01*
X9493834Y39875437D01*
X9516443Y39869773D01*
X9538387Y39861921D01*
X9559457Y39851956D01*
X9579448Y39839974D01*
X9598168Y39826090D01*
X9615438Y39810438D01*
X9631090Y39793168D01*
X9644974Y39774448D01*
X9656956Y39754457D01*
X9666921Y39733387D01*
X9674773Y39711443D01*
X9680437Y39688834D01*
X9683856Y39665779D01*
X9685000Y39642500D01*
X9685000Y39067500D01*
X9683856Y39044221D01*
X9680437Y39021166D01*
X9674773Y38998557D01*
X9666921Y38976613D01*
X9656956Y38955543D01*
X9644974Y38935552D01*
X9631090Y38916832D01*
X9615438Y38899562D01*
X9598168Y38883910D01*
X9579448Y38870026D01*
X9559457Y38858044D01*
X9538387Y38848079D01*
X9516443Y38840227D01*
X9493834Y38834563D01*
X9470779Y38831144D01*
X9447500Y38830000D01*
X8972500Y38830000D01*
X8949221Y38831144D01*
X8926166Y38834563D01*
X8903557Y38840227D01*
X8881613Y38848079D01*
X8860543Y38858044D01*
X8840552Y38870026D01*
X8821832Y38883910D01*
X8804562Y38899562D01*
X8788910Y38916832D01*
X8775026Y38935552D01*
X8763044Y38955543D01*
X8753079Y38976613D01*
X8745227Y38998557D01*
X8739563Y39021166D01*
X8736144Y39044221D01*
X8735000Y39067500D01*
X8735000Y39642500D01*
X8736144Y39665779D01*
X8739563Y39688834D01*
X8745227Y39711443D01*
X8753079Y39733387D01*
X8763044Y39754457D01*
X8775026Y39774448D01*
X8788910Y39793168D01*
X8804562Y39810438D01*
X8821832Y39826090D01*
X8840552Y39839974D01*
X8860543Y39851956D01*
X8881613Y39861921D01*
X8903557Y39869773D01*
X8926166Y39875437D01*
X8949221Y39878856D01*
X8972500Y39880000D01*
X9447500Y39880000D01*
X9470779Y39878856D01*
X9470779Y39878856D01*
G37*
D18*
X9210000Y39355000D03*
D17*
G36*
X50575779Y32493856D02*
G01*
X50598834Y32490437D01*
X50621443Y32484773D01*
X50643387Y32476921D01*
X50664457Y32466956D01*
X50684448Y32454974D01*
X50703168Y32441090D01*
X50720438Y32425438D01*
X50736090Y32408168D01*
X50749974Y32389448D01*
X50761956Y32369457D01*
X50771921Y32348387D01*
X50779773Y32326443D01*
X50785437Y32303834D01*
X50788856Y32280779D01*
X50790000Y32257500D01*
X50790000Y31782500D01*
X50788856Y31759221D01*
X50785437Y31736166D01*
X50779773Y31713557D01*
X50771921Y31691613D01*
X50761956Y31670543D01*
X50749974Y31650552D01*
X50736090Y31631832D01*
X50720438Y31614562D01*
X50703168Y31598910D01*
X50684448Y31585026D01*
X50664457Y31573044D01*
X50643387Y31563079D01*
X50621443Y31555227D01*
X50598834Y31549563D01*
X50575779Y31546144D01*
X50552500Y31545000D01*
X49977500Y31545000D01*
X49954221Y31546144D01*
X49931166Y31549563D01*
X49908557Y31555227D01*
X49886613Y31563079D01*
X49865543Y31573044D01*
X49845552Y31585026D01*
X49826832Y31598910D01*
X49809562Y31614562D01*
X49793910Y31631832D01*
X49780026Y31650552D01*
X49768044Y31670543D01*
X49758079Y31691613D01*
X49750227Y31713557D01*
X49744563Y31736166D01*
X49741144Y31759221D01*
X49740000Y31782500D01*
X49740000Y32257500D01*
X49741144Y32280779D01*
X49744563Y32303834D01*
X49750227Y32326443D01*
X49758079Y32348387D01*
X49768044Y32369457D01*
X49780026Y32389448D01*
X49793910Y32408168D01*
X49809562Y32425438D01*
X49826832Y32441090D01*
X49845552Y32454974D01*
X49865543Y32466956D01*
X49886613Y32476921D01*
X49908557Y32484773D01*
X49931166Y32490437D01*
X49954221Y32493856D01*
X49977500Y32495000D01*
X50552500Y32495000D01*
X50575779Y32493856D01*
X50575779Y32493856D01*
G37*
D18*
X50265000Y32020000D03*
D17*
G36*
X52325779Y32493856D02*
G01*
X52348834Y32490437D01*
X52371443Y32484773D01*
X52393387Y32476921D01*
X52414457Y32466956D01*
X52434448Y32454974D01*
X52453168Y32441090D01*
X52470438Y32425438D01*
X52486090Y32408168D01*
X52499974Y32389448D01*
X52511956Y32369457D01*
X52521921Y32348387D01*
X52529773Y32326443D01*
X52535437Y32303834D01*
X52538856Y32280779D01*
X52540000Y32257500D01*
X52540000Y31782500D01*
X52538856Y31759221D01*
X52535437Y31736166D01*
X52529773Y31713557D01*
X52521921Y31691613D01*
X52511956Y31670543D01*
X52499974Y31650552D01*
X52486090Y31631832D01*
X52470438Y31614562D01*
X52453168Y31598910D01*
X52434448Y31585026D01*
X52414457Y31573044D01*
X52393387Y31563079D01*
X52371443Y31555227D01*
X52348834Y31549563D01*
X52325779Y31546144D01*
X52302500Y31545000D01*
X51727500Y31545000D01*
X51704221Y31546144D01*
X51681166Y31549563D01*
X51658557Y31555227D01*
X51636613Y31563079D01*
X51615543Y31573044D01*
X51595552Y31585026D01*
X51576832Y31598910D01*
X51559562Y31614562D01*
X51543910Y31631832D01*
X51530026Y31650552D01*
X51518044Y31670543D01*
X51508079Y31691613D01*
X51500227Y31713557D01*
X51494563Y31736166D01*
X51491144Y31759221D01*
X51490000Y31782500D01*
X51490000Y32257500D01*
X51491144Y32280779D01*
X51494563Y32303834D01*
X51500227Y32326443D01*
X51508079Y32348387D01*
X51518044Y32369457D01*
X51530026Y32389448D01*
X51543910Y32408168D01*
X51559562Y32425438D01*
X51576832Y32441090D01*
X51595552Y32454974D01*
X51615543Y32466956D01*
X51636613Y32476921D01*
X51658557Y32484773D01*
X51681166Y32490437D01*
X51704221Y32493856D01*
X51727500Y32495000D01*
X52302500Y32495000D01*
X52325779Y32493856D01*
X52325779Y32493856D01*
G37*
D18*
X52015000Y32020000D03*
D17*
G36*
X48945779Y32503856D02*
G01*
X48968834Y32500437D01*
X48991443Y32494773D01*
X49013387Y32486921D01*
X49034457Y32476956D01*
X49054448Y32464974D01*
X49073168Y32451090D01*
X49090438Y32435438D01*
X49106090Y32418168D01*
X49119974Y32399448D01*
X49131956Y32379457D01*
X49141921Y32358387D01*
X49149773Y32336443D01*
X49155437Y32313834D01*
X49158856Y32290779D01*
X49160000Y32267500D01*
X49160000Y31792500D01*
X49158856Y31769221D01*
X49155437Y31746166D01*
X49149773Y31723557D01*
X49141921Y31701613D01*
X49131956Y31680543D01*
X49119974Y31660552D01*
X49106090Y31641832D01*
X49090438Y31624562D01*
X49073168Y31608910D01*
X49054448Y31595026D01*
X49034457Y31583044D01*
X49013387Y31573079D01*
X48991443Y31565227D01*
X48968834Y31559563D01*
X48945779Y31556144D01*
X48922500Y31555000D01*
X48347500Y31555000D01*
X48324221Y31556144D01*
X48301166Y31559563D01*
X48278557Y31565227D01*
X48256613Y31573079D01*
X48235543Y31583044D01*
X48215552Y31595026D01*
X48196832Y31608910D01*
X48179562Y31624562D01*
X48163910Y31641832D01*
X48150026Y31660552D01*
X48138044Y31680543D01*
X48128079Y31701613D01*
X48120227Y31723557D01*
X48114563Y31746166D01*
X48111144Y31769221D01*
X48110000Y31792500D01*
X48110000Y32267500D01*
X48111144Y32290779D01*
X48114563Y32313834D01*
X48120227Y32336443D01*
X48128079Y32358387D01*
X48138044Y32379457D01*
X48150026Y32399448D01*
X48163910Y32418168D01*
X48179562Y32435438D01*
X48196832Y32451090D01*
X48215552Y32464974D01*
X48235543Y32476956D01*
X48256613Y32486921D01*
X48278557Y32494773D01*
X48301166Y32500437D01*
X48324221Y32503856D01*
X48347500Y32505000D01*
X48922500Y32505000D01*
X48945779Y32503856D01*
X48945779Y32503856D01*
G37*
D18*
X48635000Y32030000D03*
D17*
G36*
X47195779Y32503856D02*
G01*
X47218834Y32500437D01*
X47241443Y32494773D01*
X47263387Y32486921D01*
X47284457Y32476956D01*
X47304448Y32464974D01*
X47323168Y32451090D01*
X47340438Y32435438D01*
X47356090Y32418168D01*
X47369974Y32399448D01*
X47381956Y32379457D01*
X47391921Y32358387D01*
X47399773Y32336443D01*
X47405437Y32313834D01*
X47408856Y32290779D01*
X47410000Y32267500D01*
X47410000Y31792500D01*
X47408856Y31769221D01*
X47405437Y31746166D01*
X47399773Y31723557D01*
X47391921Y31701613D01*
X47381956Y31680543D01*
X47369974Y31660552D01*
X47356090Y31641832D01*
X47340438Y31624562D01*
X47323168Y31608910D01*
X47304448Y31595026D01*
X47284457Y31583044D01*
X47263387Y31573079D01*
X47241443Y31565227D01*
X47218834Y31559563D01*
X47195779Y31556144D01*
X47172500Y31555000D01*
X46597500Y31555000D01*
X46574221Y31556144D01*
X46551166Y31559563D01*
X46528557Y31565227D01*
X46506613Y31573079D01*
X46485543Y31583044D01*
X46465552Y31595026D01*
X46446832Y31608910D01*
X46429562Y31624562D01*
X46413910Y31641832D01*
X46400026Y31660552D01*
X46388044Y31680543D01*
X46378079Y31701613D01*
X46370227Y31723557D01*
X46364563Y31746166D01*
X46361144Y31769221D01*
X46360000Y31792500D01*
X46360000Y32267500D01*
X46361144Y32290779D01*
X46364563Y32313834D01*
X46370227Y32336443D01*
X46378079Y32358387D01*
X46388044Y32379457D01*
X46400026Y32399448D01*
X46413910Y32418168D01*
X46429562Y32435438D01*
X46446832Y32451090D01*
X46465552Y32464974D01*
X46485543Y32476956D01*
X46506613Y32486921D01*
X46528557Y32494773D01*
X46551166Y32500437D01*
X46574221Y32503856D01*
X46597500Y32505000D01*
X47172500Y32505000D01*
X47195779Y32503856D01*
X47195779Y32503856D01*
G37*
D18*
X46885000Y32030000D03*
D17*
G36*
X34770779Y46888856D02*
G01*
X34793834Y46885437D01*
X34816443Y46879773D01*
X34838387Y46871921D01*
X34859457Y46861956D01*
X34879448Y46849974D01*
X34898168Y46836090D01*
X34915438Y46820438D01*
X34931090Y46803168D01*
X34944974Y46784448D01*
X34956956Y46764457D01*
X34966921Y46743387D01*
X34974773Y46721443D01*
X34980437Y46698834D01*
X34983856Y46675779D01*
X34985000Y46652500D01*
X34985000Y46077500D01*
X34983856Y46054221D01*
X34980437Y46031166D01*
X34974773Y46008557D01*
X34966921Y45986613D01*
X34956956Y45965543D01*
X34944974Y45945552D01*
X34931090Y45926832D01*
X34915438Y45909562D01*
X34898168Y45893910D01*
X34879448Y45880026D01*
X34859457Y45868044D01*
X34838387Y45858079D01*
X34816443Y45850227D01*
X34793834Y45844563D01*
X34770779Y45841144D01*
X34747500Y45840000D01*
X34272500Y45840000D01*
X34249221Y45841144D01*
X34226166Y45844563D01*
X34203557Y45850227D01*
X34181613Y45858079D01*
X34160543Y45868044D01*
X34140552Y45880026D01*
X34121832Y45893910D01*
X34104562Y45909562D01*
X34088910Y45926832D01*
X34075026Y45945552D01*
X34063044Y45965543D01*
X34053079Y45986613D01*
X34045227Y46008557D01*
X34039563Y46031166D01*
X34036144Y46054221D01*
X34035000Y46077500D01*
X34035000Y46652500D01*
X34036144Y46675779D01*
X34039563Y46698834D01*
X34045227Y46721443D01*
X34053079Y46743387D01*
X34063044Y46764457D01*
X34075026Y46784448D01*
X34088910Y46803168D01*
X34104562Y46820438D01*
X34121832Y46836090D01*
X34140552Y46849974D01*
X34160543Y46861956D01*
X34181613Y46871921D01*
X34203557Y46879773D01*
X34226166Y46885437D01*
X34249221Y46888856D01*
X34272500Y46890000D01*
X34747500Y46890000D01*
X34770779Y46888856D01*
X34770779Y46888856D01*
G37*
D18*
X34510000Y46365000D03*
D17*
G36*
X34770779Y48638856D02*
G01*
X34793834Y48635437D01*
X34816443Y48629773D01*
X34838387Y48621921D01*
X34859457Y48611956D01*
X34879448Y48599974D01*
X34898168Y48586090D01*
X34915438Y48570438D01*
X34931090Y48553168D01*
X34944974Y48534448D01*
X34956956Y48514457D01*
X34966921Y48493387D01*
X34974773Y48471443D01*
X34980437Y48448834D01*
X34983856Y48425779D01*
X34985000Y48402500D01*
X34985000Y47827500D01*
X34983856Y47804221D01*
X34980437Y47781166D01*
X34974773Y47758557D01*
X34966921Y47736613D01*
X34956956Y47715543D01*
X34944974Y47695552D01*
X34931090Y47676832D01*
X34915438Y47659562D01*
X34898168Y47643910D01*
X34879448Y47630026D01*
X34859457Y47618044D01*
X34838387Y47608079D01*
X34816443Y47600227D01*
X34793834Y47594563D01*
X34770779Y47591144D01*
X34747500Y47590000D01*
X34272500Y47590000D01*
X34249221Y47591144D01*
X34226166Y47594563D01*
X34203557Y47600227D01*
X34181613Y47608079D01*
X34160543Y47618044D01*
X34140552Y47630026D01*
X34121832Y47643910D01*
X34104562Y47659562D01*
X34088910Y47676832D01*
X34075026Y47695552D01*
X34063044Y47715543D01*
X34053079Y47736613D01*
X34045227Y47758557D01*
X34039563Y47781166D01*
X34036144Y47804221D01*
X34035000Y47827500D01*
X34035000Y48402500D01*
X34036144Y48425779D01*
X34039563Y48448834D01*
X34045227Y48471443D01*
X34053079Y48493387D01*
X34063044Y48514457D01*
X34075026Y48534448D01*
X34088910Y48553168D01*
X34104562Y48570438D01*
X34121832Y48586090D01*
X34140552Y48599974D01*
X34160543Y48611956D01*
X34181613Y48621921D01*
X34203557Y48629773D01*
X34226166Y48635437D01*
X34249221Y48638856D01*
X34272500Y48640000D01*
X34747500Y48640000D01*
X34770779Y48638856D01*
X34770779Y48638856D01*
G37*
D18*
X34510000Y48115000D03*
D17*
G36*
X30600779Y46868856D02*
G01*
X30623834Y46865437D01*
X30646443Y46859773D01*
X30668387Y46851921D01*
X30689457Y46841956D01*
X30709448Y46829974D01*
X30728168Y46816090D01*
X30745438Y46800438D01*
X30761090Y46783168D01*
X30774974Y46764448D01*
X30786956Y46744457D01*
X30796921Y46723387D01*
X30804773Y46701443D01*
X30810437Y46678834D01*
X30813856Y46655779D01*
X30815000Y46632500D01*
X30815000Y46057500D01*
X30813856Y46034221D01*
X30810437Y46011166D01*
X30804773Y45988557D01*
X30796921Y45966613D01*
X30786956Y45945543D01*
X30774974Y45925552D01*
X30761090Y45906832D01*
X30745438Y45889562D01*
X30728168Y45873910D01*
X30709448Y45860026D01*
X30689457Y45848044D01*
X30668387Y45838079D01*
X30646443Y45830227D01*
X30623834Y45824563D01*
X30600779Y45821144D01*
X30577500Y45820000D01*
X30102500Y45820000D01*
X30079221Y45821144D01*
X30056166Y45824563D01*
X30033557Y45830227D01*
X30011613Y45838079D01*
X29990543Y45848044D01*
X29970552Y45860026D01*
X29951832Y45873910D01*
X29934562Y45889562D01*
X29918910Y45906832D01*
X29905026Y45925552D01*
X29893044Y45945543D01*
X29883079Y45966613D01*
X29875227Y45988557D01*
X29869563Y46011166D01*
X29866144Y46034221D01*
X29865000Y46057500D01*
X29865000Y46632500D01*
X29866144Y46655779D01*
X29869563Y46678834D01*
X29875227Y46701443D01*
X29883079Y46723387D01*
X29893044Y46744457D01*
X29905026Y46764448D01*
X29918910Y46783168D01*
X29934562Y46800438D01*
X29951832Y46816090D01*
X29970552Y46829974D01*
X29990543Y46841956D01*
X30011613Y46851921D01*
X30033557Y46859773D01*
X30056166Y46865437D01*
X30079221Y46868856D01*
X30102500Y46870000D01*
X30577500Y46870000D01*
X30600779Y46868856D01*
X30600779Y46868856D01*
G37*
D18*
X30340000Y46345000D03*
D17*
G36*
X30600779Y48618856D02*
G01*
X30623834Y48615437D01*
X30646443Y48609773D01*
X30668387Y48601921D01*
X30689457Y48591956D01*
X30709448Y48579974D01*
X30728168Y48566090D01*
X30745438Y48550438D01*
X30761090Y48533168D01*
X30774974Y48514448D01*
X30786956Y48494457D01*
X30796921Y48473387D01*
X30804773Y48451443D01*
X30810437Y48428834D01*
X30813856Y48405779D01*
X30815000Y48382500D01*
X30815000Y47807500D01*
X30813856Y47784221D01*
X30810437Y47761166D01*
X30804773Y47738557D01*
X30796921Y47716613D01*
X30786956Y47695543D01*
X30774974Y47675552D01*
X30761090Y47656832D01*
X30745438Y47639562D01*
X30728168Y47623910D01*
X30709448Y47610026D01*
X30689457Y47598044D01*
X30668387Y47588079D01*
X30646443Y47580227D01*
X30623834Y47574563D01*
X30600779Y47571144D01*
X30577500Y47570000D01*
X30102500Y47570000D01*
X30079221Y47571144D01*
X30056166Y47574563D01*
X30033557Y47580227D01*
X30011613Y47588079D01*
X29990543Y47598044D01*
X29970552Y47610026D01*
X29951832Y47623910D01*
X29934562Y47639562D01*
X29918910Y47656832D01*
X29905026Y47675552D01*
X29893044Y47695543D01*
X29883079Y47716613D01*
X29875227Y47738557D01*
X29869563Y47761166D01*
X29866144Y47784221D01*
X29865000Y47807500D01*
X29865000Y48382500D01*
X29866144Y48405779D01*
X29869563Y48428834D01*
X29875227Y48451443D01*
X29883079Y48473387D01*
X29893044Y48494457D01*
X29905026Y48514448D01*
X29918910Y48533168D01*
X29934562Y48550438D01*
X29951832Y48566090D01*
X29970552Y48579974D01*
X29990543Y48591956D01*
X30011613Y48601921D01*
X30033557Y48609773D01*
X30056166Y48615437D01*
X30079221Y48618856D01*
X30102500Y48620000D01*
X30577500Y48620000D01*
X30600779Y48618856D01*
X30600779Y48618856D01*
G37*
D18*
X30340000Y48095000D03*
D17*
G36*
X41730779Y47942856D02*
G01*
X41753834Y47939437D01*
X41776443Y47933773D01*
X41798387Y47925921D01*
X41819457Y47915956D01*
X41839448Y47903974D01*
X41858168Y47890090D01*
X41875438Y47874438D01*
X41891090Y47857168D01*
X41904974Y47838448D01*
X41916956Y47818457D01*
X41926921Y47797387D01*
X41934773Y47775443D01*
X41940437Y47752834D01*
X41943856Y47729779D01*
X41945000Y47706500D01*
X41945000Y47131500D01*
X41943856Y47108221D01*
X41940437Y47085166D01*
X41934773Y47062557D01*
X41926921Y47040613D01*
X41916956Y47019543D01*
X41904974Y46999552D01*
X41891090Y46980832D01*
X41875438Y46963562D01*
X41858168Y46947910D01*
X41839448Y46934026D01*
X41819457Y46922044D01*
X41798387Y46912079D01*
X41776443Y46904227D01*
X41753834Y46898563D01*
X41730779Y46895144D01*
X41707500Y46894000D01*
X41232500Y46894000D01*
X41209221Y46895144D01*
X41186166Y46898563D01*
X41163557Y46904227D01*
X41141613Y46912079D01*
X41120543Y46922044D01*
X41100552Y46934026D01*
X41081832Y46947910D01*
X41064562Y46963562D01*
X41048910Y46980832D01*
X41035026Y46999552D01*
X41023044Y47019543D01*
X41013079Y47040613D01*
X41005227Y47062557D01*
X40999563Y47085166D01*
X40996144Y47108221D01*
X40995000Y47131500D01*
X40995000Y47706500D01*
X40996144Y47729779D01*
X40999563Y47752834D01*
X41005227Y47775443D01*
X41013079Y47797387D01*
X41023044Y47818457D01*
X41035026Y47838448D01*
X41048910Y47857168D01*
X41064562Y47874438D01*
X41081832Y47890090D01*
X41100552Y47903974D01*
X41120543Y47915956D01*
X41141613Y47925921D01*
X41163557Y47933773D01*
X41186166Y47939437D01*
X41209221Y47942856D01*
X41232500Y47944000D01*
X41707500Y47944000D01*
X41730779Y47942856D01*
X41730779Y47942856D01*
G37*
D18*
X41470000Y47419000D03*
D17*
G36*
X41730779Y46192856D02*
G01*
X41753834Y46189437D01*
X41776443Y46183773D01*
X41798387Y46175921D01*
X41819457Y46165956D01*
X41839448Y46153974D01*
X41858168Y46140090D01*
X41875438Y46124438D01*
X41891090Y46107168D01*
X41904974Y46088448D01*
X41916956Y46068457D01*
X41926921Y46047387D01*
X41934773Y46025443D01*
X41940437Y46002834D01*
X41943856Y45979779D01*
X41945000Y45956500D01*
X41945000Y45381500D01*
X41943856Y45358221D01*
X41940437Y45335166D01*
X41934773Y45312557D01*
X41926921Y45290613D01*
X41916956Y45269543D01*
X41904974Y45249552D01*
X41891090Y45230832D01*
X41875438Y45213562D01*
X41858168Y45197910D01*
X41839448Y45184026D01*
X41819457Y45172044D01*
X41798387Y45162079D01*
X41776443Y45154227D01*
X41753834Y45148563D01*
X41730779Y45145144D01*
X41707500Y45144000D01*
X41232500Y45144000D01*
X41209221Y45145144D01*
X41186166Y45148563D01*
X41163557Y45154227D01*
X41141613Y45162079D01*
X41120543Y45172044D01*
X41100552Y45184026D01*
X41081832Y45197910D01*
X41064562Y45213562D01*
X41048910Y45230832D01*
X41035026Y45249552D01*
X41023044Y45269543D01*
X41013079Y45290613D01*
X41005227Y45312557D01*
X40999563Y45335166D01*
X40996144Y45358221D01*
X40995000Y45381500D01*
X40995000Y45956500D01*
X40996144Y45979779D01*
X40999563Y46002834D01*
X41005227Y46025443D01*
X41013079Y46047387D01*
X41023044Y46068457D01*
X41035026Y46088448D01*
X41048910Y46107168D01*
X41064562Y46124438D01*
X41081832Y46140090D01*
X41100552Y46153974D01*
X41120543Y46165956D01*
X41141613Y46175921D01*
X41163557Y46183773D01*
X41186166Y46189437D01*
X41209221Y46192856D01*
X41232500Y46194000D01*
X41707500Y46194000D01*
X41730779Y46192856D01*
X41730779Y46192856D01*
G37*
D18*
X41470000Y45669000D03*
D17*
G36*
X43230779Y47948856D02*
G01*
X43253834Y47945437D01*
X43276443Y47939773D01*
X43298387Y47931921D01*
X43319457Y47921956D01*
X43339448Y47909974D01*
X43358168Y47896090D01*
X43375438Y47880438D01*
X43391090Y47863168D01*
X43404974Y47844448D01*
X43416956Y47824457D01*
X43426921Y47803387D01*
X43434773Y47781443D01*
X43440437Y47758834D01*
X43443856Y47735779D01*
X43445000Y47712500D01*
X43445000Y47137500D01*
X43443856Y47114221D01*
X43440437Y47091166D01*
X43434773Y47068557D01*
X43426921Y47046613D01*
X43416956Y47025543D01*
X43404974Y47005552D01*
X43391090Y46986832D01*
X43375438Y46969562D01*
X43358168Y46953910D01*
X43339448Y46940026D01*
X43319457Y46928044D01*
X43298387Y46918079D01*
X43276443Y46910227D01*
X43253834Y46904563D01*
X43230779Y46901144D01*
X43207500Y46900000D01*
X42732500Y46900000D01*
X42709221Y46901144D01*
X42686166Y46904563D01*
X42663557Y46910227D01*
X42641613Y46918079D01*
X42620543Y46928044D01*
X42600552Y46940026D01*
X42581832Y46953910D01*
X42564562Y46969562D01*
X42548910Y46986832D01*
X42535026Y47005552D01*
X42523044Y47025543D01*
X42513079Y47046613D01*
X42505227Y47068557D01*
X42499563Y47091166D01*
X42496144Y47114221D01*
X42495000Y47137500D01*
X42495000Y47712500D01*
X42496144Y47735779D01*
X42499563Y47758834D01*
X42505227Y47781443D01*
X42513079Y47803387D01*
X42523044Y47824457D01*
X42535026Y47844448D01*
X42548910Y47863168D01*
X42564562Y47880438D01*
X42581832Y47896090D01*
X42600552Y47909974D01*
X42620543Y47921956D01*
X42641613Y47931921D01*
X42663557Y47939773D01*
X42686166Y47945437D01*
X42709221Y47948856D01*
X42732500Y47950000D01*
X43207500Y47950000D01*
X43230779Y47948856D01*
X43230779Y47948856D01*
G37*
D18*
X42970000Y47425000D03*
D17*
G36*
X43230779Y46198856D02*
G01*
X43253834Y46195437D01*
X43276443Y46189773D01*
X43298387Y46181921D01*
X43319457Y46171956D01*
X43339448Y46159974D01*
X43358168Y46146090D01*
X43375438Y46130438D01*
X43391090Y46113168D01*
X43404974Y46094448D01*
X43416956Y46074457D01*
X43426921Y46053387D01*
X43434773Y46031443D01*
X43440437Y46008834D01*
X43443856Y45985779D01*
X43445000Y45962500D01*
X43445000Y45387500D01*
X43443856Y45364221D01*
X43440437Y45341166D01*
X43434773Y45318557D01*
X43426921Y45296613D01*
X43416956Y45275543D01*
X43404974Y45255552D01*
X43391090Y45236832D01*
X43375438Y45219562D01*
X43358168Y45203910D01*
X43339448Y45190026D01*
X43319457Y45178044D01*
X43298387Y45168079D01*
X43276443Y45160227D01*
X43253834Y45154563D01*
X43230779Y45151144D01*
X43207500Y45150000D01*
X42732500Y45150000D01*
X42709221Y45151144D01*
X42686166Y45154563D01*
X42663557Y45160227D01*
X42641613Y45168079D01*
X42620543Y45178044D01*
X42600552Y45190026D01*
X42581832Y45203910D01*
X42564562Y45219562D01*
X42548910Y45236832D01*
X42535026Y45255552D01*
X42523044Y45275543D01*
X42513079Y45296613D01*
X42505227Y45318557D01*
X42499563Y45341166D01*
X42496144Y45364221D01*
X42495000Y45387500D01*
X42495000Y45962500D01*
X42496144Y45985779D01*
X42499563Y46008834D01*
X42505227Y46031443D01*
X42513079Y46053387D01*
X42523044Y46074457D01*
X42535026Y46094448D01*
X42548910Y46113168D01*
X42564562Y46130438D01*
X42581832Y46146090D01*
X42600552Y46159974D01*
X42620543Y46171956D01*
X42641613Y46181921D01*
X42663557Y46189773D01*
X42686166Y46195437D01*
X42709221Y46198856D01*
X42732500Y46200000D01*
X43207500Y46200000D01*
X43230779Y46198856D01*
X43230779Y46198856D01*
G37*
D18*
X42970000Y45675000D03*
D17*
G36*
X16675779Y48133856D02*
G01*
X16698834Y48130437D01*
X16721443Y48124773D01*
X16743387Y48116921D01*
X16764457Y48106956D01*
X16784448Y48094974D01*
X16803168Y48081090D01*
X16820438Y48065438D01*
X16836090Y48048168D01*
X16849974Y48029448D01*
X16861956Y48009457D01*
X16871921Y47988387D01*
X16879773Y47966443D01*
X16885437Y47943834D01*
X16888856Y47920779D01*
X16890000Y47897500D01*
X16890000Y47422500D01*
X16888856Y47399221D01*
X16885437Y47376166D01*
X16879773Y47353557D01*
X16871921Y47331613D01*
X16861956Y47310543D01*
X16849974Y47290552D01*
X16836090Y47271832D01*
X16820438Y47254562D01*
X16803168Y47238910D01*
X16784448Y47225026D01*
X16764457Y47213044D01*
X16743387Y47203079D01*
X16721443Y47195227D01*
X16698834Y47189563D01*
X16675779Y47186144D01*
X16652500Y47185000D01*
X16077500Y47185000D01*
X16054221Y47186144D01*
X16031166Y47189563D01*
X16008557Y47195227D01*
X15986613Y47203079D01*
X15965543Y47213044D01*
X15945552Y47225026D01*
X15926832Y47238910D01*
X15909562Y47254562D01*
X15893910Y47271832D01*
X15880026Y47290552D01*
X15868044Y47310543D01*
X15858079Y47331613D01*
X15850227Y47353557D01*
X15844563Y47376166D01*
X15841144Y47399221D01*
X15840000Y47422500D01*
X15840000Y47897500D01*
X15841144Y47920779D01*
X15844563Y47943834D01*
X15850227Y47966443D01*
X15858079Y47988387D01*
X15868044Y48009457D01*
X15880026Y48029448D01*
X15893910Y48048168D01*
X15909562Y48065438D01*
X15926832Y48081090D01*
X15945552Y48094974D01*
X15965543Y48106956D01*
X15986613Y48116921D01*
X16008557Y48124773D01*
X16031166Y48130437D01*
X16054221Y48133856D01*
X16077500Y48135000D01*
X16652500Y48135000D01*
X16675779Y48133856D01*
X16675779Y48133856D01*
G37*
D18*
X16365000Y47660000D03*
D17*
G36*
X18425779Y48133856D02*
G01*
X18448834Y48130437D01*
X18471443Y48124773D01*
X18493387Y48116921D01*
X18514457Y48106956D01*
X18534448Y48094974D01*
X18553168Y48081090D01*
X18570438Y48065438D01*
X18586090Y48048168D01*
X18599974Y48029448D01*
X18611956Y48009457D01*
X18621921Y47988387D01*
X18629773Y47966443D01*
X18635437Y47943834D01*
X18638856Y47920779D01*
X18640000Y47897500D01*
X18640000Y47422500D01*
X18638856Y47399221D01*
X18635437Y47376166D01*
X18629773Y47353557D01*
X18621921Y47331613D01*
X18611956Y47310543D01*
X18599974Y47290552D01*
X18586090Y47271832D01*
X18570438Y47254562D01*
X18553168Y47238910D01*
X18534448Y47225026D01*
X18514457Y47213044D01*
X18493387Y47203079D01*
X18471443Y47195227D01*
X18448834Y47189563D01*
X18425779Y47186144D01*
X18402500Y47185000D01*
X17827500Y47185000D01*
X17804221Y47186144D01*
X17781166Y47189563D01*
X17758557Y47195227D01*
X17736613Y47203079D01*
X17715543Y47213044D01*
X17695552Y47225026D01*
X17676832Y47238910D01*
X17659562Y47254562D01*
X17643910Y47271832D01*
X17630026Y47290552D01*
X17618044Y47310543D01*
X17608079Y47331613D01*
X17600227Y47353557D01*
X17594563Y47376166D01*
X17591144Y47399221D01*
X17590000Y47422500D01*
X17590000Y47897500D01*
X17591144Y47920779D01*
X17594563Y47943834D01*
X17600227Y47966443D01*
X17608079Y47988387D01*
X17618044Y48009457D01*
X17630026Y48029448D01*
X17643910Y48048168D01*
X17659562Y48065438D01*
X17676832Y48081090D01*
X17695552Y48094974D01*
X17715543Y48106956D01*
X17736613Y48116921D01*
X17758557Y48124773D01*
X17781166Y48130437D01*
X17804221Y48133856D01*
X17827500Y48135000D01*
X18402500Y48135000D01*
X18425779Y48133856D01*
X18425779Y48133856D01*
G37*
D18*
X18115000Y47660000D03*
D17*
G36*
X57481779Y35423856D02*
G01*
X57504834Y35420437D01*
X57527443Y35414773D01*
X57549387Y35406921D01*
X57570457Y35396956D01*
X57590448Y35384974D01*
X57609168Y35371090D01*
X57626438Y35355438D01*
X57642090Y35338168D01*
X57655974Y35319448D01*
X57667956Y35299457D01*
X57677921Y35278387D01*
X57685773Y35256443D01*
X57691437Y35233834D01*
X57694856Y35210779D01*
X57696000Y35187500D01*
X57696000Y34712500D01*
X57694856Y34689221D01*
X57691437Y34666166D01*
X57685773Y34643557D01*
X57677921Y34621613D01*
X57667956Y34600543D01*
X57655974Y34580552D01*
X57642090Y34561832D01*
X57626438Y34544562D01*
X57609168Y34528910D01*
X57590448Y34515026D01*
X57570457Y34503044D01*
X57549387Y34493079D01*
X57527443Y34485227D01*
X57504834Y34479563D01*
X57481779Y34476144D01*
X57458500Y34475000D01*
X56883500Y34475000D01*
X56860221Y34476144D01*
X56837166Y34479563D01*
X56814557Y34485227D01*
X56792613Y34493079D01*
X56771543Y34503044D01*
X56751552Y34515026D01*
X56732832Y34528910D01*
X56715562Y34544562D01*
X56699910Y34561832D01*
X56686026Y34580552D01*
X56674044Y34600543D01*
X56664079Y34621613D01*
X56656227Y34643557D01*
X56650563Y34666166D01*
X56647144Y34689221D01*
X56646000Y34712500D01*
X56646000Y35187500D01*
X56647144Y35210779D01*
X56650563Y35233834D01*
X56656227Y35256443D01*
X56664079Y35278387D01*
X56674044Y35299457D01*
X56686026Y35319448D01*
X56699910Y35338168D01*
X56715562Y35355438D01*
X56732832Y35371090D01*
X56751552Y35384974D01*
X56771543Y35396956D01*
X56792613Y35406921D01*
X56814557Y35414773D01*
X56837166Y35420437D01*
X56860221Y35423856D01*
X56883500Y35425000D01*
X57458500Y35425000D01*
X57481779Y35423856D01*
X57481779Y35423856D01*
G37*
D18*
X57171000Y34950000D03*
D17*
G36*
X59231779Y35423856D02*
G01*
X59254834Y35420437D01*
X59277443Y35414773D01*
X59299387Y35406921D01*
X59320457Y35396956D01*
X59340448Y35384974D01*
X59359168Y35371090D01*
X59376438Y35355438D01*
X59392090Y35338168D01*
X59405974Y35319448D01*
X59417956Y35299457D01*
X59427921Y35278387D01*
X59435773Y35256443D01*
X59441437Y35233834D01*
X59444856Y35210779D01*
X59446000Y35187500D01*
X59446000Y34712500D01*
X59444856Y34689221D01*
X59441437Y34666166D01*
X59435773Y34643557D01*
X59427921Y34621613D01*
X59417956Y34600543D01*
X59405974Y34580552D01*
X59392090Y34561832D01*
X59376438Y34544562D01*
X59359168Y34528910D01*
X59340448Y34515026D01*
X59320457Y34503044D01*
X59299387Y34493079D01*
X59277443Y34485227D01*
X59254834Y34479563D01*
X59231779Y34476144D01*
X59208500Y34475000D01*
X58633500Y34475000D01*
X58610221Y34476144D01*
X58587166Y34479563D01*
X58564557Y34485227D01*
X58542613Y34493079D01*
X58521543Y34503044D01*
X58501552Y34515026D01*
X58482832Y34528910D01*
X58465562Y34544562D01*
X58449910Y34561832D01*
X58436026Y34580552D01*
X58424044Y34600543D01*
X58414079Y34621613D01*
X58406227Y34643557D01*
X58400563Y34666166D01*
X58397144Y34689221D01*
X58396000Y34712500D01*
X58396000Y35187500D01*
X58397144Y35210779D01*
X58400563Y35233834D01*
X58406227Y35256443D01*
X58414079Y35278387D01*
X58424044Y35299457D01*
X58436026Y35319448D01*
X58449910Y35338168D01*
X58465562Y35355438D01*
X58482832Y35371090D01*
X58501552Y35384974D01*
X58521543Y35396956D01*
X58542613Y35406921D01*
X58564557Y35414773D01*
X58587166Y35420437D01*
X58610221Y35423856D01*
X58633500Y35425000D01*
X59208500Y35425000D01*
X59231779Y35423856D01*
X59231779Y35423856D01*
G37*
D18*
X58921000Y34950000D03*
D17*
G36*
X17045779Y11003856D02*
G01*
X17068834Y11000437D01*
X17091443Y10994773D01*
X17113387Y10986921D01*
X17134457Y10976956D01*
X17154448Y10964974D01*
X17173168Y10951090D01*
X17190438Y10935438D01*
X17206090Y10918168D01*
X17219974Y10899448D01*
X17231956Y10879457D01*
X17241921Y10858387D01*
X17249773Y10836443D01*
X17255437Y10813834D01*
X17258856Y10790779D01*
X17260000Y10767500D01*
X17260000Y10292500D01*
X17258856Y10269221D01*
X17255437Y10246166D01*
X17249773Y10223557D01*
X17241921Y10201613D01*
X17231956Y10180543D01*
X17219974Y10160552D01*
X17206090Y10141832D01*
X17190438Y10124562D01*
X17173168Y10108910D01*
X17154448Y10095026D01*
X17134457Y10083044D01*
X17113387Y10073079D01*
X17091443Y10065227D01*
X17068834Y10059563D01*
X17045779Y10056144D01*
X17022500Y10055000D01*
X16447500Y10055000D01*
X16424221Y10056144D01*
X16401166Y10059563D01*
X16378557Y10065227D01*
X16356613Y10073079D01*
X16335543Y10083044D01*
X16315552Y10095026D01*
X16296832Y10108910D01*
X16279562Y10124562D01*
X16263910Y10141832D01*
X16250026Y10160552D01*
X16238044Y10180543D01*
X16228079Y10201613D01*
X16220227Y10223557D01*
X16214563Y10246166D01*
X16211144Y10269221D01*
X16210000Y10292500D01*
X16210000Y10767500D01*
X16211144Y10790779D01*
X16214563Y10813834D01*
X16220227Y10836443D01*
X16228079Y10858387D01*
X16238044Y10879457D01*
X16250026Y10899448D01*
X16263910Y10918168D01*
X16279562Y10935438D01*
X16296832Y10951090D01*
X16315552Y10964974D01*
X16335543Y10976956D01*
X16356613Y10986921D01*
X16378557Y10994773D01*
X16401166Y11000437D01*
X16424221Y11003856D01*
X16447500Y11005000D01*
X17022500Y11005000D01*
X17045779Y11003856D01*
X17045779Y11003856D01*
G37*
D18*
X16735000Y10530000D03*
D17*
G36*
X18795779Y11003856D02*
G01*
X18818834Y11000437D01*
X18841443Y10994773D01*
X18863387Y10986921D01*
X18884457Y10976956D01*
X18904448Y10964974D01*
X18923168Y10951090D01*
X18940438Y10935438D01*
X18956090Y10918168D01*
X18969974Y10899448D01*
X18981956Y10879457D01*
X18991921Y10858387D01*
X18999773Y10836443D01*
X19005437Y10813834D01*
X19008856Y10790779D01*
X19010000Y10767500D01*
X19010000Y10292500D01*
X19008856Y10269221D01*
X19005437Y10246166D01*
X18999773Y10223557D01*
X18991921Y10201613D01*
X18981956Y10180543D01*
X18969974Y10160552D01*
X18956090Y10141832D01*
X18940438Y10124562D01*
X18923168Y10108910D01*
X18904448Y10095026D01*
X18884457Y10083044D01*
X18863387Y10073079D01*
X18841443Y10065227D01*
X18818834Y10059563D01*
X18795779Y10056144D01*
X18772500Y10055000D01*
X18197500Y10055000D01*
X18174221Y10056144D01*
X18151166Y10059563D01*
X18128557Y10065227D01*
X18106613Y10073079D01*
X18085543Y10083044D01*
X18065552Y10095026D01*
X18046832Y10108910D01*
X18029562Y10124562D01*
X18013910Y10141832D01*
X18000026Y10160552D01*
X17988044Y10180543D01*
X17978079Y10201613D01*
X17970227Y10223557D01*
X17964563Y10246166D01*
X17961144Y10269221D01*
X17960000Y10292500D01*
X17960000Y10767500D01*
X17961144Y10790779D01*
X17964563Y10813834D01*
X17970227Y10836443D01*
X17978079Y10858387D01*
X17988044Y10879457D01*
X18000026Y10899448D01*
X18013910Y10918168D01*
X18029562Y10935438D01*
X18046832Y10951090D01*
X18065552Y10964974D01*
X18085543Y10976956D01*
X18106613Y10986921D01*
X18128557Y10994773D01*
X18151166Y11000437D01*
X18174221Y11003856D01*
X18197500Y11005000D01*
X18772500Y11005000D01*
X18795779Y11003856D01*
X18795779Y11003856D01*
G37*
D18*
X18485000Y10530000D03*
D17*
G36*
X32490779Y9008856D02*
G01*
X32513834Y9005437D01*
X32536443Y8999773D01*
X32558387Y8991921D01*
X32579457Y8981956D01*
X32599448Y8969974D01*
X32618168Y8956090D01*
X32635438Y8940438D01*
X32651090Y8923168D01*
X32664974Y8904448D01*
X32676956Y8884457D01*
X32686921Y8863387D01*
X32694773Y8841443D01*
X32700437Y8818834D01*
X32703856Y8795779D01*
X32705000Y8772500D01*
X32705000Y8197500D01*
X32703856Y8174221D01*
X32700437Y8151166D01*
X32694773Y8128557D01*
X32686921Y8106613D01*
X32676956Y8085543D01*
X32664974Y8065552D01*
X32651090Y8046832D01*
X32635438Y8029562D01*
X32618168Y8013910D01*
X32599448Y8000026D01*
X32579457Y7988044D01*
X32558387Y7978079D01*
X32536443Y7970227D01*
X32513834Y7964563D01*
X32490779Y7961144D01*
X32467500Y7960000D01*
X31992500Y7960000D01*
X31969221Y7961144D01*
X31946166Y7964563D01*
X31923557Y7970227D01*
X31901613Y7978079D01*
X31880543Y7988044D01*
X31860552Y8000026D01*
X31841832Y8013910D01*
X31824562Y8029562D01*
X31808910Y8046832D01*
X31795026Y8065552D01*
X31783044Y8085543D01*
X31773079Y8106613D01*
X31765227Y8128557D01*
X31759563Y8151166D01*
X31756144Y8174221D01*
X31755000Y8197500D01*
X31755000Y8772500D01*
X31756144Y8795779D01*
X31759563Y8818834D01*
X31765227Y8841443D01*
X31773079Y8863387D01*
X31783044Y8884457D01*
X31795026Y8904448D01*
X31808910Y8923168D01*
X31824562Y8940438D01*
X31841832Y8956090D01*
X31860552Y8969974D01*
X31880543Y8981956D01*
X31901613Y8991921D01*
X31923557Y8999773D01*
X31946166Y9005437D01*
X31969221Y9008856D01*
X31992500Y9010000D01*
X32467500Y9010000D01*
X32490779Y9008856D01*
X32490779Y9008856D01*
G37*
D18*
X32230000Y8485000D03*
D17*
G36*
X32490779Y10758856D02*
G01*
X32513834Y10755437D01*
X32536443Y10749773D01*
X32558387Y10741921D01*
X32579457Y10731956D01*
X32599448Y10719974D01*
X32618168Y10706090D01*
X32635438Y10690438D01*
X32651090Y10673168D01*
X32664974Y10654448D01*
X32676956Y10634457D01*
X32686921Y10613387D01*
X32694773Y10591443D01*
X32700437Y10568834D01*
X32703856Y10545779D01*
X32705000Y10522500D01*
X32705000Y9947500D01*
X32703856Y9924221D01*
X32700437Y9901166D01*
X32694773Y9878557D01*
X32686921Y9856613D01*
X32676956Y9835543D01*
X32664974Y9815552D01*
X32651090Y9796832D01*
X32635438Y9779562D01*
X32618168Y9763910D01*
X32599448Y9750026D01*
X32579457Y9738044D01*
X32558387Y9728079D01*
X32536443Y9720227D01*
X32513834Y9714563D01*
X32490779Y9711144D01*
X32467500Y9710000D01*
X31992500Y9710000D01*
X31969221Y9711144D01*
X31946166Y9714563D01*
X31923557Y9720227D01*
X31901613Y9728079D01*
X31880543Y9738044D01*
X31860552Y9750026D01*
X31841832Y9763910D01*
X31824562Y9779562D01*
X31808910Y9796832D01*
X31795026Y9815552D01*
X31783044Y9835543D01*
X31773079Y9856613D01*
X31765227Y9878557D01*
X31759563Y9901166D01*
X31756144Y9924221D01*
X31755000Y9947500D01*
X31755000Y10522500D01*
X31756144Y10545779D01*
X31759563Y10568834D01*
X31765227Y10591443D01*
X31773079Y10613387D01*
X31783044Y10634457D01*
X31795026Y10654448D01*
X31808910Y10673168D01*
X31824562Y10690438D01*
X31841832Y10706090D01*
X31860552Y10719974D01*
X31880543Y10731956D01*
X31901613Y10741921D01*
X31923557Y10749773D01*
X31946166Y10755437D01*
X31969221Y10758856D01*
X31992500Y10760000D01*
X32467500Y10760000D01*
X32490779Y10758856D01*
X32490779Y10758856D01*
G37*
D18*
X32230000Y10235000D03*
D17*
G36*
X11529504Y11143796D02*
G01*
X11553773Y11140196D01*
X11577571Y11134235D01*
X11600671Y11125970D01*
X11622849Y11115480D01*
X11643893Y11102867D01*
X11663598Y11088253D01*
X11681777Y11071777D01*
X11698253Y11053598D01*
X11712867Y11033893D01*
X11725480Y11012849D01*
X11735970Y10990671D01*
X11744235Y10967571D01*
X11750196Y10943773D01*
X11753796Y10919504D01*
X11755000Y10895000D01*
X11755000Y9645000D01*
X11753796Y9620496D01*
X11750196Y9596227D01*
X11744235Y9572429D01*
X11735970Y9549329D01*
X11725480Y9527151D01*
X11712867Y9506107D01*
X11698253Y9486402D01*
X11681777Y9468223D01*
X11663598Y9451747D01*
X11643893Y9437133D01*
X11622849Y9424520D01*
X11600671Y9414030D01*
X11577571Y9405765D01*
X11553773Y9399804D01*
X11529504Y9396204D01*
X11505000Y9395000D01*
X10580000Y9395000D01*
X10555496Y9396204D01*
X10531227Y9399804D01*
X10507429Y9405765D01*
X10484329Y9414030D01*
X10462151Y9424520D01*
X10441107Y9437133D01*
X10421402Y9451747D01*
X10403223Y9468223D01*
X10386747Y9486402D01*
X10372133Y9506107D01*
X10359520Y9527151D01*
X10349030Y9549329D01*
X10340765Y9572429D01*
X10334804Y9596227D01*
X10331204Y9620496D01*
X10330000Y9645000D01*
X10330000Y10895000D01*
X10331204Y10919504D01*
X10334804Y10943773D01*
X10340765Y10967571D01*
X10349030Y10990671D01*
X10359520Y11012849D01*
X10372133Y11033893D01*
X10386747Y11053598D01*
X10403223Y11071777D01*
X10421402Y11088253D01*
X10441107Y11102867D01*
X10462151Y11115480D01*
X10484329Y11125970D01*
X10507429Y11134235D01*
X10531227Y11140196D01*
X10555496Y11143796D01*
X10580000Y11145000D01*
X11505000Y11145000D01*
X11529504Y11143796D01*
X11529504Y11143796D01*
G37*
D19*
X11042500Y10270000D03*
D17*
G36*
X14504504Y11143796D02*
G01*
X14528773Y11140196D01*
X14552571Y11134235D01*
X14575671Y11125970D01*
X14597849Y11115480D01*
X14618893Y11102867D01*
X14638598Y11088253D01*
X14656777Y11071777D01*
X14673253Y11053598D01*
X14687867Y11033893D01*
X14700480Y11012849D01*
X14710970Y10990671D01*
X14719235Y10967571D01*
X14725196Y10943773D01*
X14728796Y10919504D01*
X14730000Y10895000D01*
X14730000Y9645000D01*
X14728796Y9620496D01*
X14725196Y9596227D01*
X14719235Y9572429D01*
X14710970Y9549329D01*
X14700480Y9527151D01*
X14687867Y9506107D01*
X14673253Y9486402D01*
X14656777Y9468223D01*
X14638598Y9451747D01*
X14618893Y9437133D01*
X14597849Y9424520D01*
X14575671Y9414030D01*
X14552571Y9405765D01*
X14528773Y9399804D01*
X14504504Y9396204D01*
X14480000Y9395000D01*
X13555000Y9395000D01*
X13530496Y9396204D01*
X13506227Y9399804D01*
X13482429Y9405765D01*
X13459329Y9414030D01*
X13437151Y9424520D01*
X13416107Y9437133D01*
X13396402Y9451747D01*
X13378223Y9468223D01*
X13361747Y9486402D01*
X13347133Y9506107D01*
X13334520Y9527151D01*
X13324030Y9549329D01*
X13315765Y9572429D01*
X13309804Y9596227D01*
X13306204Y9620496D01*
X13305000Y9645000D01*
X13305000Y10895000D01*
X13306204Y10919504D01*
X13309804Y10943773D01*
X13315765Y10967571D01*
X13324030Y10990671D01*
X13334520Y11012849D01*
X13347133Y11033893D01*
X13361747Y11053598D01*
X13378223Y11071777D01*
X13396402Y11088253D01*
X13416107Y11102867D01*
X13437151Y11115480D01*
X13459329Y11125970D01*
X13482429Y11134235D01*
X13506227Y11140196D01*
X13530496Y11143796D01*
X13555000Y11145000D01*
X14480000Y11145000D01*
X14504504Y11143796D01*
X14504504Y11143796D01*
G37*
D19*
X14017500Y10270000D03*
D17*
G36*
X32859504Y3733796D02*
G01*
X32883773Y3730196D01*
X32907571Y3724235D01*
X32930671Y3715970D01*
X32952849Y3705480D01*
X32973893Y3692867D01*
X32993598Y3678253D01*
X33011777Y3661777D01*
X33028253Y3643598D01*
X33042867Y3623893D01*
X33055480Y3602849D01*
X33065970Y3580671D01*
X33074235Y3557571D01*
X33080196Y3533773D01*
X33083796Y3509504D01*
X33085000Y3485000D01*
X33085000Y2560000D01*
X33083796Y2535496D01*
X33080196Y2511227D01*
X33074235Y2487429D01*
X33065970Y2464329D01*
X33055480Y2442151D01*
X33042867Y2421107D01*
X33028253Y2401402D01*
X33011777Y2383223D01*
X32993598Y2366747D01*
X32973893Y2352133D01*
X32952849Y2339520D01*
X32930671Y2329030D01*
X32907571Y2320765D01*
X32883773Y2314804D01*
X32859504Y2311204D01*
X32835000Y2310000D01*
X31585000Y2310000D01*
X31560496Y2311204D01*
X31536227Y2314804D01*
X31512429Y2320765D01*
X31489329Y2329030D01*
X31467151Y2339520D01*
X31446107Y2352133D01*
X31426402Y2366747D01*
X31408223Y2383223D01*
X31391747Y2401402D01*
X31377133Y2421107D01*
X31364520Y2442151D01*
X31354030Y2464329D01*
X31345765Y2487429D01*
X31339804Y2511227D01*
X31336204Y2535496D01*
X31335000Y2560000D01*
X31335000Y3485000D01*
X31336204Y3509504D01*
X31339804Y3533773D01*
X31345765Y3557571D01*
X31354030Y3580671D01*
X31364520Y3602849D01*
X31377133Y3623893D01*
X31391747Y3643598D01*
X31408223Y3661777D01*
X31426402Y3678253D01*
X31446107Y3692867D01*
X31467151Y3705480D01*
X31489329Y3715970D01*
X31512429Y3724235D01*
X31536227Y3730196D01*
X31560496Y3733796D01*
X31585000Y3735000D01*
X32835000Y3735000D01*
X32859504Y3733796D01*
X32859504Y3733796D01*
G37*
D19*
X32210000Y3022500D03*
D17*
G36*
X32859504Y6708796D02*
G01*
X32883773Y6705196D01*
X32907571Y6699235D01*
X32930671Y6690970D01*
X32952849Y6680480D01*
X32973893Y6667867D01*
X32993598Y6653253D01*
X33011777Y6636777D01*
X33028253Y6618598D01*
X33042867Y6598893D01*
X33055480Y6577849D01*
X33065970Y6555671D01*
X33074235Y6532571D01*
X33080196Y6508773D01*
X33083796Y6484504D01*
X33085000Y6460000D01*
X33085000Y5535000D01*
X33083796Y5510496D01*
X33080196Y5486227D01*
X33074235Y5462429D01*
X33065970Y5439329D01*
X33055480Y5417151D01*
X33042867Y5396107D01*
X33028253Y5376402D01*
X33011777Y5358223D01*
X32993598Y5341747D01*
X32973893Y5327133D01*
X32952849Y5314520D01*
X32930671Y5304030D01*
X32907571Y5295765D01*
X32883773Y5289804D01*
X32859504Y5286204D01*
X32835000Y5285000D01*
X31585000Y5285000D01*
X31560496Y5286204D01*
X31536227Y5289804D01*
X31512429Y5295765D01*
X31489329Y5304030D01*
X31467151Y5314520D01*
X31446107Y5327133D01*
X31426402Y5341747D01*
X31408223Y5358223D01*
X31391747Y5376402D01*
X31377133Y5396107D01*
X31364520Y5417151D01*
X31354030Y5439329D01*
X31345765Y5462429D01*
X31339804Y5486227D01*
X31336204Y5510496D01*
X31335000Y5535000D01*
X31335000Y6460000D01*
X31336204Y6484504D01*
X31339804Y6508773D01*
X31345765Y6532571D01*
X31354030Y6555671D01*
X31364520Y6577849D01*
X31377133Y6598893D01*
X31391747Y6618598D01*
X31408223Y6636777D01*
X31426402Y6653253D01*
X31446107Y6667867D01*
X31467151Y6680480D01*
X31489329Y6690970D01*
X31512429Y6699235D01*
X31536227Y6705196D01*
X31560496Y6708796D01*
X31585000Y6710000D01*
X32835000Y6710000D01*
X32859504Y6708796D01*
X32859504Y6708796D01*
G37*
D19*
X32210000Y5997500D03*
D17*
G36*
X48765779Y25083856D02*
G01*
X48788834Y25080437D01*
X48811443Y25074773D01*
X48833387Y25066921D01*
X48854457Y25056956D01*
X48874448Y25044974D01*
X48893168Y25031090D01*
X48910438Y25015438D01*
X48926090Y24998168D01*
X48939974Y24979448D01*
X48951956Y24959457D01*
X48961921Y24938387D01*
X48969773Y24916443D01*
X48975437Y24893834D01*
X48978856Y24870779D01*
X48980000Y24847500D01*
X48980000Y24372500D01*
X48978856Y24349221D01*
X48975437Y24326166D01*
X48969773Y24303557D01*
X48961921Y24281613D01*
X48951956Y24260543D01*
X48939974Y24240552D01*
X48926090Y24221832D01*
X48910438Y24204562D01*
X48893168Y24188910D01*
X48874448Y24175026D01*
X48854457Y24163044D01*
X48833387Y24153079D01*
X48811443Y24145227D01*
X48788834Y24139563D01*
X48765779Y24136144D01*
X48742500Y24135000D01*
X48167500Y24135000D01*
X48144221Y24136144D01*
X48121166Y24139563D01*
X48098557Y24145227D01*
X48076613Y24153079D01*
X48055543Y24163044D01*
X48035552Y24175026D01*
X48016832Y24188910D01*
X47999562Y24204562D01*
X47983910Y24221832D01*
X47970026Y24240552D01*
X47958044Y24260543D01*
X47948079Y24281613D01*
X47940227Y24303557D01*
X47934563Y24326166D01*
X47931144Y24349221D01*
X47930000Y24372500D01*
X47930000Y24847500D01*
X47931144Y24870779D01*
X47934563Y24893834D01*
X47940227Y24916443D01*
X47948079Y24938387D01*
X47958044Y24959457D01*
X47970026Y24979448D01*
X47983910Y24998168D01*
X47999562Y25015438D01*
X48016832Y25031090D01*
X48035552Y25044974D01*
X48055543Y25056956D01*
X48076613Y25066921D01*
X48098557Y25074773D01*
X48121166Y25080437D01*
X48144221Y25083856D01*
X48167500Y25085000D01*
X48742500Y25085000D01*
X48765779Y25083856D01*
X48765779Y25083856D01*
G37*
D18*
X48455000Y24610000D03*
D17*
G36*
X50515779Y25083856D02*
G01*
X50538834Y25080437D01*
X50561443Y25074773D01*
X50583387Y25066921D01*
X50604457Y25056956D01*
X50624448Y25044974D01*
X50643168Y25031090D01*
X50660438Y25015438D01*
X50676090Y24998168D01*
X50689974Y24979448D01*
X50701956Y24959457D01*
X50711921Y24938387D01*
X50719773Y24916443D01*
X50725437Y24893834D01*
X50728856Y24870779D01*
X50730000Y24847500D01*
X50730000Y24372500D01*
X50728856Y24349221D01*
X50725437Y24326166D01*
X50719773Y24303557D01*
X50711921Y24281613D01*
X50701956Y24260543D01*
X50689974Y24240552D01*
X50676090Y24221832D01*
X50660438Y24204562D01*
X50643168Y24188910D01*
X50624448Y24175026D01*
X50604457Y24163044D01*
X50583387Y24153079D01*
X50561443Y24145227D01*
X50538834Y24139563D01*
X50515779Y24136144D01*
X50492500Y24135000D01*
X49917500Y24135000D01*
X49894221Y24136144D01*
X49871166Y24139563D01*
X49848557Y24145227D01*
X49826613Y24153079D01*
X49805543Y24163044D01*
X49785552Y24175026D01*
X49766832Y24188910D01*
X49749562Y24204562D01*
X49733910Y24221832D01*
X49720026Y24240552D01*
X49708044Y24260543D01*
X49698079Y24281613D01*
X49690227Y24303557D01*
X49684563Y24326166D01*
X49681144Y24349221D01*
X49680000Y24372500D01*
X49680000Y24847500D01*
X49681144Y24870779D01*
X49684563Y24893834D01*
X49690227Y24916443D01*
X49698079Y24938387D01*
X49708044Y24959457D01*
X49720026Y24979448D01*
X49733910Y24998168D01*
X49749562Y25015438D01*
X49766832Y25031090D01*
X49785552Y25044974D01*
X49805543Y25056956D01*
X49826613Y25066921D01*
X49848557Y25074773D01*
X49871166Y25080437D01*
X49894221Y25083856D01*
X49917500Y25085000D01*
X50492500Y25085000D01*
X50515779Y25083856D01*
X50515779Y25083856D01*
G37*
D18*
X50205000Y24610000D03*
D17*
G36*
X37194504Y27423796D02*
G01*
X37218773Y27420196D01*
X37242571Y27414235D01*
X37265671Y27405970D01*
X37287849Y27395480D01*
X37308893Y27382867D01*
X37328598Y27368253D01*
X37346777Y27351777D01*
X37363253Y27333598D01*
X37377867Y27313893D01*
X37390480Y27292849D01*
X37400970Y27270671D01*
X37409235Y27247571D01*
X37415196Y27223773D01*
X37418796Y27199504D01*
X37420000Y27175000D01*
X37420000Y25925000D01*
X37418796Y25900496D01*
X37415196Y25876227D01*
X37409235Y25852429D01*
X37400970Y25829329D01*
X37390480Y25807151D01*
X37377867Y25786107D01*
X37363253Y25766402D01*
X37346777Y25748223D01*
X37328598Y25731747D01*
X37308893Y25717133D01*
X37287849Y25704520D01*
X37265671Y25694030D01*
X37242571Y25685765D01*
X37218773Y25679804D01*
X37194504Y25676204D01*
X37170000Y25675000D01*
X36245000Y25675000D01*
X36220496Y25676204D01*
X36196227Y25679804D01*
X36172429Y25685765D01*
X36149329Y25694030D01*
X36127151Y25704520D01*
X36106107Y25717133D01*
X36086402Y25731747D01*
X36068223Y25748223D01*
X36051747Y25766402D01*
X36037133Y25786107D01*
X36024520Y25807151D01*
X36014030Y25829329D01*
X36005765Y25852429D01*
X35999804Y25876227D01*
X35996204Y25900496D01*
X35995000Y25925000D01*
X35995000Y27175000D01*
X35996204Y27199504D01*
X35999804Y27223773D01*
X36005765Y27247571D01*
X36014030Y27270671D01*
X36024520Y27292849D01*
X36037133Y27313893D01*
X36051747Y27333598D01*
X36068223Y27351777D01*
X36086402Y27368253D01*
X36106107Y27382867D01*
X36127151Y27395480D01*
X36149329Y27405970D01*
X36172429Y27414235D01*
X36196227Y27420196D01*
X36220496Y27423796D01*
X36245000Y27425000D01*
X37170000Y27425000D01*
X37194504Y27423796D01*
X37194504Y27423796D01*
G37*
D19*
X36707500Y26550000D03*
D17*
G36*
X34219504Y27423796D02*
G01*
X34243773Y27420196D01*
X34267571Y27414235D01*
X34290671Y27405970D01*
X34312849Y27395480D01*
X34333893Y27382867D01*
X34353598Y27368253D01*
X34371777Y27351777D01*
X34388253Y27333598D01*
X34402867Y27313893D01*
X34415480Y27292849D01*
X34425970Y27270671D01*
X34434235Y27247571D01*
X34440196Y27223773D01*
X34443796Y27199504D01*
X34445000Y27175000D01*
X34445000Y25925000D01*
X34443796Y25900496D01*
X34440196Y25876227D01*
X34434235Y25852429D01*
X34425970Y25829329D01*
X34415480Y25807151D01*
X34402867Y25786107D01*
X34388253Y25766402D01*
X34371777Y25748223D01*
X34353598Y25731747D01*
X34333893Y25717133D01*
X34312849Y25704520D01*
X34290671Y25694030D01*
X34267571Y25685765D01*
X34243773Y25679804D01*
X34219504Y25676204D01*
X34195000Y25675000D01*
X33270000Y25675000D01*
X33245496Y25676204D01*
X33221227Y25679804D01*
X33197429Y25685765D01*
X33174329Y25694030D01*
X33152151Y25704520D01*
X33131107Y25717133D01*
X33111402Y25731747D01*
X33093223Y25748223D01*
X33076747Y25766402D01*
X33062133Y25786107D01*
X33049520Y25807151D01*
X33039030Y25829329D01*
X33030765Y25852429D01*
X33024804Y25876227D01*
X33021204Y25900496D01*
X33020000Y25925000D01*
X33020000Y27175000D01*
X33021204Y27199504D01*
X33024804Y27223773D01*
X33030765Y27247571D01*
X33039030Y27270671D01*
X33049520Y27292849D01*
X33062133Y27313893D01*
X33076747Y27333598D01*
X33093223Y27351777D01*
X33111402Y27368253D01*
X33131107Y27382867D01*
X33152151Y27395480D01*
X33174329Y27405970D01*
X33197429Y27414235D01*
X33221227Y27420196D01*
X33245496Y27423796D01*
X33270000Y27425000D01*
X34195000Y27425000D01*
X34219504Y27423796D01*
X34219504Y27423796D01*
G37*
D19*
X33732500Y26550000D03*
D17*
G36*
X13505779Y32223856D02*
G01*
X13528834Y32220437D01*
X13551443Y32214773D01*
X13573387Y32206921D01*
X13594457Y32196956D01*
X13614448Y32184974D01*
X13633168Y32171090D01*
X13650438Y32155438D01*
X13666090Y32138168D01*
X13679974Y32119448D01*
X13691956Y32099457D01*
X13701921Y32078387D01*
X13709773Y32056443D01*
X13715437Y32033834D01*
X13718856Y32010779D01*
X13720000Y31987500D01*
X13720000Y31512500D01*
X13718856Y31489221D01*
X13715437Y31466166D01*
X13709773Y31443557D01*
X13701921Y31421613D01*
X13691956Y31400543D01*
X13679974Y31380552D01*
X13666090Y31361832D01*
X13650438Y31344562D01*
X13633168Y31328910D01*
X13614448Y31315026D01*
X13594457Y31303044D01*
X13573387Y31293079D01*
X13551443Y31285227D01*
X13528834Y31279563D01*
X13505779Y31276144D01*
X13482500Y31275000D01*
X12907500Y31275000D01*
X12884221Y31276144D01*
X12861166Y31279563D01*
X12838557Y31285227D01*
X12816613Y31293079D01*
X12795543Y31303044D01*
X12775552Y31315026D01*
X12756832Y31328910D01*
X12739562Y31344562D01*
X12723910Y31361832D01*
X12710026Y31380552D01*
X12698044Y31400543D01*
X12688079Y31421613D01*
X12680227Y31443557D01*
X12674563Y31466166D01*
X12671144Y31489221D01*
X12670000Y31512500D01*
X12670000Y31987500D01*
X12671144Y32010779D01*
X12674563Y32033834D01*
X12680227Y32056443D01*
X12688079Y32078387D01*
X12698044Y32099457D01*
X12710026Y32119448D01*
X12723910Y32138168D01*
X12739562Y32155438D01*
X12756832Y32171090D01*
X12775552Y32184974D01*
X12795543Y32196956D01*
X12816613Y32206921D01*
X12838557Y32214773D01*
X12861166Y32220437D01*
X12884221Y32223856D01*
X12907500Y32225000D01*
X13482500Y32225000D01*
X13505779Y32223856D01*
X13505779Y32223856D01*
G37*
D18*
X13195000Y31750000D03*
D17*
G36*
X15255779Y32223856D02*
G01*
X15278834Y32220437D01*
X15301443Y32214773D01*
X15323387Y32206921D01*
X15344457Y32196956D01*
X15364448Y32184974D01*
X15383168Y32171090D01*
X15400438Y32155438D01*
X15416090Y32138168D01*
X15429974Y32119448D01*
X15441956Y32099457D01*
X15451921Y32078387D01*
X15459773Y32056443D01*
X15465437Y32033834D01*
X15468856Y32010779D01*
X15470000Y31987500D01*
X15470000Y31512500D01*
X15468856Y31489221D01*
X15465437Y31466166D01*
X15459773Y31443557D01*
X15451921Y31421613D01*
X15441956Y31400543D01*
X15429974Y31380552D01*
X15416090Y31361832D01*
X15400438Y31344562D01*
X15383168Y31328910D01*
X15364448Y31315026D01*
X15344457Y31303044D01*
X15323387Y31293079D01*
X15301443Y31285227D01*
X15278834Y31279563D01*
X15255779Y31276144D01*
X15232500Y31275000D01*
X14657500Y31275000D01*
X14634221Y31276144D01*
X14611166Y31279563D01*
X14588557Y31285227D01*
X14566613Y31293079D01*
X14545543Y31303044D01*
X14525552Y31315026D01*
X14506832Y31328910D01*
X14489562Y31344562D01*
X14473910Y31361832D01*
X14460026Y31380552D01*
X14448044Y31400543D01*
X14438079Y31421613D01*
X14430227Y31443557D01*
X14424563Y31466166D01*
X14421144Y31489221D01*
X14420000Y31512500D01*
X14420000Y31987500D01*
X14421144Y32010779D01*
X14424563Y32033834D01*
X14430227Y32056443D01*
X14438079Y32078387D01*
X14448044Y32099457D01*
X14460026Y32119448D01*
X14473910Y32138168D01*
X14489562Y32155438D01*
X14506832Y32171090D01*
X14525552Y32184974D01*
X14545543Y32196956D01*
X14566613Y32206921D01*
X14588557Y32214773D01*
X14611166Y32220437D01*
X14634221Y32223856D01*
X14657500Y32225000D01*
X15232500Y32225000D01*
X15255779Y32223856D01*
X15255779Y32223856D01*
G37*
D18*
X14945000Y31750000D03*
D17*
G36*
X35905779Y21523856D02*
G01*
X35928834Y21520437D01*
X35951443Y21514773D01*
X35973387Y21506921D01*
X35994457Y21496956D01*
X36014448Y21484974D01*
X36033168Y21471090D01*
X36050438Y21455438D01*
X36066090Y21438168D01*
X36079974Y21419448D01*
X36091956Y21399457D01*
X36101921Y21378387D01*
X36109773Y21356443D01*
X36115437Y21333834D01*
X36118856Y21310779D01*
X36120000Y21287500D01*
X36120000Y20812500D01*
X36118856Y20789221D01*
X36115437Y20766166D01*
X36109773Y20743557D01*
X36101921Y20721613D01*
X36091956Y20700543D01*
X36079974Y20680552D01*
X36066090Y20661832D01*
X36050438Y20644562D01*
X36033168Y20628910D01*
X36014448Y20615026D01*
X35994457Y20603044D01*
X35973387Y20593079D01*
X35951443Y20585227D01*
X35928834Y20579563D01*
X35905779Y20576144D01*
X35882500Y20575000D01*
X35307500Y20575000D01*
X35284221Y20576144D01*
X35261166Y20579563D01*
X35238557Y20585227D01*
X35216613Y20593079D01*
X35195543Y20603044D01*
X35175552Y20615026D01*
X35156832Y20628910D01*
X35139562Y20644562D01*
X35123910Y20661832D01*
X35110026Y20680552D01*
X35098044Y20700543D01*
X35088079Y20721613D01*
X35080227Y20743557D01*
X35074563Y20766166D01*
X35071144Y20789221D01*
X35070000Y20812500D01*
X35070000Y21287500D01*
X35071144Y21310779D01*
X35074563Y21333834D01*
X35080227Y21356443D01*
X35088079Y21378387D01*
X35098044Y21399457D01*
X35110026Y21419448D01*
X35123910Y21438168D01*
X35139562Y21455438D01*
X35156832Y21471090D01*
X35175552Y21484974D01*
X35195543Y21496956D01*
X35216613Y21506921D01*
X35238557Y21514773D01*
X35261166Y21520437D01*
X35284221Y21523856D01*
X35307500Y21525000D01*
X35882500Y21525000D01*
X35905779Y21523856D01*
X35905779Y21523856D01*
G37*
D18*
X35595000Y21050000D03*
D17*
G36*
X34155779Y21523856D02*
G01*
X34178834Y21520437D01*
X34201443Y21514773D01*
X34223387Y21506921D01*
X34244457Y21496956D01*
X34264448Y21484974D01*
X34283168Y21471090D01*
X34300438Y21455438D01*
X34316090Y21438168D01*
X34329974Y21419448D01*
X34341956Y21399457D01*
X34351921Y21378387D01*
X34359773Y21356443D01*
X34365437Y21333834D01*
X34368856Y21310779D01*
X34370000Y21287500D01*
X34370000Y20812500D01*
X34368856Y20789221D01*
X34365437Y20766166D01*
X34359773Y20743557D01*
X34351921Y20721613D01*
X34341956Y20700543D01*
X34329974Y20680552D01*
X34316090Y20661832D01*
X34300438Y20644562D01*
X34283168Y20628910D01*
X34264448Y20615026D01*
X34244457Y20603044D01*
X34223387Y20593079D01*
X34201443Y20585227D01*
X34178834Y20579563D01*
X34155779Y20576144D01*
X34132500Y20575000D01*
X33557500Y20575000D01*
X33534221Y20576144D01*
X33511166Y20579563D01*
X33488557Y20585227D01*
X33466613Y20593079D01*
X33445543Y20603044D01*
X33425552Y20615026D01*
X33406832Y20628910D01*
X33389562Y20644562D01*
X33373910Y20661832D01*
X33360026Y20680552D01*
X33348044Y20700543D01*
X33338079Y20721613D01*
X33330227Y20743557D01*
X33324563Y20766166D01*
X33321144Y20789221D01*
X33320000Y20812500D01*
X33320000Y21287500D01*
X33321144Y21310779D01*
X33324563Y21333834D01*
X33330227Y21356443D01*
X33338079Y21378387D01*
X33348044Y21399457D01*
X33360026Y21419448D01*
X33373910Y21438168D01*
X33389562Y21455438D01*
X33406832Y21471090D01*
X33425552Y21484974D01*
X33445543Y21496956D01*
X33466613Y21506921D01*
X33488557Y21514773D01*
X33511166Y21520437D01*
X33534221Y21523856D01*
X33557500Y21525000D01*
X34132500Y21525000D01*
X34155779Y21523856D01*
X34155779Y21523856D01*
G37*
D18*
X33845000Y21050000D03*
D17*
G36*
X20480779Y31698856D02*
G01*
X20503834Y31695437D01*
X20526443Y31689773D01*
X20548387Y31681921D01*
X20569457Y31671956D01*
X20589448Y31659974D01*
X20608168Y31646090D01*
X20625438Y31630438D01*
X20641090Y31613168D01*
X20654974Y31594448D01*
X20666956Y31574457D01*
X20676921Y31553387D01*
X20684773Y31531443D01*
X20690437Y31508834D01*
X20693856Y31485779D01*
X20695000Y31462500D01*
X20695000Y30887500D01*
X20693856Y30864221D01*
X20690437Y30841166D01*
X20684773Y30818557D01*
X20676921Y30796613D01*
X20666956Y30775543D01*
X20654974Y30755552D01*
X20641090Y30736832D01*
X20625438Y30719562D01*
X20608168Y30703910D01*
X20589448Y30690026D01*
X20569457Y30678044D01*
X20548387Y30668079D01*
X20526443Y30660227D01*
X20503834Y30654563D01*
X20480779Y30651144D01*
X20457500Y30650000D01*
X19982500Y30650000D01*
X19959221Y30651144D01*
X19936166Y30654563D01*
X19913557Y30660227D01*
X19891613Y30668079D01*
X19870543Y30678044D01*
X19850552Y30690026D01*
X19831832Y30703910D01*
X19814562Y30719562D01*
X19798910Y30736832D01*
X19785026Y30755552D01*
X19773044Y30775543D01*
X19763079Y30796613D01*
X19755227Y30818557D01*
X19749563Y30841166D01*
X19746144Y30864221D01*
X19745000Y30887500D01*
X19745000Y31462500D01*
X19746144Y31485779D01*
X19749563Y31508834D01*
X19755227Y31531443D01*
X19763079Y31553387D01*
X19773044Y31574457D01*
X19785026Y31594448D01*
X19798910Y31613168D01*
X19814562Y31630438D01*
X19831832Y31646090D01*
X19850552Y31659974D01*
X19870543Y31671956D01*
X19891613Y31681921D01*
X19913557Y31689773D01*
X19936166Y31695437D01*
X19959221Y31698856D01*
X19982500Y31700000D01*
X20457500Y31700000D01*
X20480779Y31698856D01*
X20480779Y31698856D01*
G37*
D18*
X20220000Y31175000D03*
D17*
G36*
X20480779Y29948856D02*
G01*
X20503834Y29945437D01*
X20526443Y29939773D01*
X20548387Y29931921D01*
X20569457Y29921956D01*
X20589448Y29909974D01*
X20608168Y29896090D01*
X20625438Y29880438D01*
X20641090Y29863168D01*
X20654974Y29844448D01*
X20666956Y29824457D01*
X20676921Y29803387D01*
X20684773Y29781443D01*
X20690437Y29758834D01*
X20693856Y29735779D01*
X20695000Y29712500D01*
X20695000Y29137500D01*
X20693856Y29114221D01*
X20690437Y29091166D01*
X20684773Y29068557D01*
X20676921Y29046613D01*
X20666956Y29025543D01*
X20654974Y29005552D01*
X20641090Y28986832D01*
X20625438Y28969562D01*
X20608168Y28953910D01*
X20589448Y28940026D01*
X20569457Y28928044D01*
X20548387Y28918079D01*
X20526443Y28910227D01*
X20503834Y28904563D01*
X20480779Y28901144D01*
X20457500Y28900000D01*
X19982500Y28900000D01*
X19959221Y28901144D01*
X19936166Y28904563D01*
X19913557Y28910227D01*
X19891613Y28918079D01*
X19870543Y28928044D01*
X19850552Y28940026D01*
X19831832Y28953910D01*
X19814562Y28969562D01*
X19798910Y28986832D01*
X19785026Y29005552D01*
X19773044Y29025543D01*
X19763079Y29046613D01*
X19755227Y29068557D01*
X19749563Y29091166D01*
X19746144Y29114221D01*
X19745000Y29137500D01*
X19745000Y29712500D01*
X19746144Y29735779D01*
X19749563Y29758834D01*
X19755227Y29781443D01*
X19763079Y29803387D01*
X19773044Y29824457D01*
X19785026Y29844448D01*
X19798910Y29863168D01*
X19814562Y29880438D01*
X19831832Y29896090D01*
X19850552Y29909974D01*
X19870543Y29921956D01*
X19891613Y29931921D01*
X19913557Y29939773D01*
X19936166Y29945437D01*
X19959221Y29948856D01*
X19982500Y29950000D01*
X20457500Y29950000D01*
X20480779Y29948856D01*
X20480779Y29948856D01*
G37*
D18*
X20220000Y29425000D03*
D17*
G36*
X25602779Y29603856D02*
G01*
X25625834Y29600437D01*
X25648443Y29594773D01*
X25670387Y29586921D01*
X25691457Y29576956D01*
X25711448Y29564974D01*
X25730168Y29551090D01*
X25747438Y29535438D01*
X25763090Y29518168D01*
X25776974Y29499448D01*
X25788956Y29479457D01*
X25798921Y29458387D01*
X25806773Y29436443D01*
X25812437Y29413834D01*
X25815856Y29390779D01*
X25817000Y29367500D01*
X25817000Y28792500D01*
X25815856Y28769221D01*
X25812437Y28746166D01*
X25806773Y28723557D01*
X25798921Y28701613D01*
X25788956Y28680543D01*
X25776974Y28660552D01*
X25763090Y28641832D01*
X25747438Y28624562D01*
X25730168Y28608910D01*
X25711448Y28595026D01*
X25691457Y28583044D01*
X25670387Y28573079D01*
X25648443Y28565227D01*
X25625834Y28559563D01*
X25602779Y28556144D01*
X25579500Y28555000D01*
X25104500Y28555000D01*
X25081221Y28556144D01*
X25058166Y28559563D01*
X25035557Y28565227D01*
X25013613Y28573079D01*
X24992543Y28583044D01*
X24972552Y28595026D01*
X24953832Y28608910D01*
X24936562Y28624562D01*
X24920910Y28641832D01*
X24907026Y28660552D01*
X24895044Y28680543D01*
X24885079Y28701613D01*
X24877227Y28723557D01*
X24871563Y28746166D01*
X24868144Y28769221D01*
X24867000Y28792500D01*
X24867000Y29367500D01*
X24868144Y29390779D01*
X24871563Y29413834D01*
X24877227Y29436443D01*
X24885079Y29458387D01*
X24895044Y29479457D01*
X24907026Y29499448D01*
X24920910Y29518168D01*
X24936562Y29535438D01*
X24953832Y29551090D01*
X24972552Y29564974D01*
X24992543Y29576956D01*
X25013613Y29586921D01*
X25035557Y29594773D01*
X25058166Y29600437D01*
X25081221Y29603856D01*
X25104500Y29605000D01*
X25579500Y29605000D01*
X25602779Y29603856D01*
X25602779Y29603856D01*
G37*
D18*
X25342000Y29080000D03*
D17*
G36*
X25602779Y31353856D02*
G01*
X25625834Y31350437D01*
X25648443Y31344773D01*
X25670387Y31336921D01*
X25691457Y31326956D01*
X25711448Y31314974D01*
X25730168Y31301090D01*
X25747438Y31285438D01*
X25763090Y31268168D01*
X25776974Y31249448D01*
X25788956Y31229457D01*
X25798921Y31208387D01*
X25806773Y31186443D01*
X25812437Y31163834D01*
X25815856Y31140779D01*
X25817000Y31117500D01*
X25817000Y30542500D01*
X25815856Y30519221D01*
X25812437Y30496166D01*
X25806773Y30473557D01*
X25798921Y30451613D01*
X25788956Y30430543D01*
X25776974Y30410552D01*
X25763090Y30391832D01*
X25747438Y30374562D01*
X25730168Y30358910D01*
X25711448Y30345026D01*
X25691457Y30333044D01*
X25670387Y30323079D01*
X25648443Y30315227D01*
X25625834Y30309563D01*
X25602779Y30306144D01*
X25579500Y30305000D01*
X25104500Y30305000D01*
X25081221Y30306144D01*
X25058166Y30309563D01*
X25035557Y30315227D01*
X25013613Y30323079D01*
X24992543Y30333044D01*
X24972552Y30345026D01*
X24953832Y30358910D01*
X24936562Y30374562D01*
X24920910Y30391832D01*
X24907026Y30410552D01*
X24895044Y30430543D01*
X24885079Y30451613D01*
X24877227Y30473557D01*
X24871563Y30496166D01*
X24868144Y30519221D01*
X24867000Y30542500D01*
X24867000Y31117500D01*
X24868144Y31140779D01*
X24871563Y31163834D01*
X24877227Y31186443D01*
X24885079Y31208387D01*
X24895044Y31229457D01*
X24907026Y31249448D01*
X24920910Y31268168D01*
X24936562Y31285438D01*
X24953832Y31301090D01*
X24972552Y31314974D01*
X24992543Y31326956D01*
X25013613Y31336921D01*
X25035557Y31344773D01*
X25058166Y31350437D01*
X25081221Y31353856D01*
X25104500Y31355000D01*
X25579500Y31355000D01*
X25602779Y31353856D01*
X25602779Y31353856D01*
G37*
D18*
X25342000Y30830000D03*
D17*
G36*
X22209779Y17982856D02*
G01*
X22232834Y17979437D01*
X22255443Y17973773D01*
X22277387Y17965921D01*
X22298457Y17955956D01*
X22318448Y17943974D01*
X22337168Y17930090D01*
X22354438Y17914438D01*
X22370090Y17897168D01*
X22383974Y17878448D01*
X22395956Y17858457D01*
X22405921Y17837387D01*
X22413773Y17815443D01*
X22419437Y17792834D01*
X22422856Y17769779D01*
X22424000Y17746500D01*
X22424000Y17271500D01*
X22422856Y17248221D01*
X22419437Y17225166D01*
X22413773Y17202557D01*
X22405921Y17180613D01*
X22395956Y17159543D01*
X22383974Y17139552D01*
X22370090Y17120832D01*
X22354438Y17103562D01*
X22337168Y17087910D01*
X22318448Y17074026D01*
X22298457Y17062044D01*
X22277387Y17052079D01*
X22255443Y17044227D01*
X22232834Y17038563D01*
X22209779Y17035144D01*
X22186500Y17034000D01*
X21611500Y17034000D01*
X21588221Y17035144D01*
X21565166Y17038563D01*
X21542557Y17044227D01*
X21520613Y17052079D01*
X21499543Y17062044D01*
X21479552Y17074026D01*
X21460832Y17087910D01*
X21443562Y17103562D01*
X21427910Y17120832D01*
X21414026Y17139552D01*
X21402044Y17159543D01*
X21392079Y17180613D01*
X21384227Y17202557D01*
X21378563Y17225166D01*
X21375144Y17248221D01*
X21374000Y17271500D01*
X21374000Y17746500D01*
X21375144Y17769779D01*
X21378563Y17792834D01*
X21384227Y17815443D01*
X21392079Y17837387D01*
X21402044Y17858457D01*
X21414026Y17878448D01*
X21427910Y17897168D01*
X21443562Y17914438D01*
X21460832Y17930090D01*
X21479552Y17943974D01*
X21499543Y17955956D01*
X21520613Y17965921D01*
X21542557Y17973773D01*
X21565166Y17979437D01*
X21588221Y17982856D01*
X21611500Y17984000D01*
X22186500Y17984000D01*
X22209779Y17982856D01*
X22209779Y17982856D01*
G37*
D18*
X21899000Y17509000D03*
D17*
G36*
X20459779Y17982856D02*
G01*
X20482834Y17979437D01*
X20505443Y17973773D01*
X20527387Y17965921D01*
X20548457Y17955956D01*
X20568448Y17943974D01*
X20587168Y17930090D01*
X20604438Y17914438D01*
X20620090Y17897168D01*
X20633974Y17878448D01*
X20645956Y17858457D01*
X20655921Y17837387D01*
X20663773Y17815443D01*
X20669437Y17792834D01*
X20672856Y17769779D01*
X20674000Y17746500D01*
X20674000Y17271500D01*
X20672856Y17248221D01*
X20669437Y17225166D01*
X20663773Y17202557D01*
X20655921Y17180613D01*
X20645956Y17159543D01*
X20633974Y17139552D01*
X20620090Y17120832D01*
X20604438Y17103562D01*
X20587168Y17087910D01*
X20568448Y17074026D01*
X20548457Y17062044D01*
X20527387Y17052079D01*
X20505443Y17044227D01*
X20482834Y17038563D01*
X20459779Y17035144D01*
X20436500Y17034000D01*
X19861500Y17034000D01*
X19838221Y17035144D01*
X19815166Y17038563D01*
X19792557Y17044227D01*
X19770613Y17052079D01*
X19749543Y17062044D01*
X19729552Y17074026D01*
X19710832Y17087910D01*
X19693562Y17103562D01*
X19677910Y17120832D01*
X19664026Y17139552D01*
X19652044Y17159543D01*
X19642079Y17180613D01*
X19634227Y17202557D01*
X19628563Y17225166D01*
X19625144Y17248221D01*
X19624000Y17271500D01*
X19624000Y17746500D01*
X19625144Y17769779D01*
X19628563Y17792834D01*
X19634227Y17815443D01*
X19642079Y17837387D01*
X19652044Y17858457D01*
X19664026Y17878448D01*
X19677910Y17897168D01*
X19693562Y17914438D01*
X19710832Y17930090D01*
X19729552Y17943974D01*
X19749543Y17955956D01*
X19770613Y17965921D01*
X19792557Y17973773D01*
X19815166Y17979437D01*
X19838221Y17982856D01*
X19861500Y17984000D01*
X20436500Y17984000D01*
X20459779Y17982856D01*
X20459779Y17982856D01*
G37*
D18*
X20149000Y17509000D03*
D17*
G36*
X17157779Y17982856D02*
G01*
X17180834Y17979437D01*
X17203443Y17973773D01*
X17225387Y17965921D01*
X17246457Y17955956D01*
X17266448Y17943974D01*
X17285168Y17930090D01*
X17302438Y17914438D01*
X17318090Y17897168D01*
X17331974Y17878448D01*
X17343956Y17858457D01*
X17353921Y17837387D01*
X17361773Y17815443D01*
X17367437Y17792834D01*
X17370856Y17769779D01*
X17372000Y17746500D01*
X17372000Y17271500D01*
X17370856Y17248221D01*
X17367437Y17225166D01*
X17361773Y17202557D01*
X17353921Y17180613D01*
X17343956Y17159543D01*
X17331974Y17139552D01*
X17318090Y17120832D01*
X17302438Y17103562D01*
X17285168Y17087910D01*
X17266448Y17074026D01*
X17246457Y17062044D01*
X17225387Y17052079D01*
X17203443Y17044227D01*
X17180834Y17038563D01*
X17157779Y17035144D01*
X17134500Y17034000D01*
X16559500Y17034000D01*
X16536221Y17035144D01*
X16513166Y17038563D01*
X16490557Y17044227D01*
X16468613Y17052079D01*
X16447543Y17062044D01*
X16427552Y17074026D01*
X16408832Y17087910D01*
X16391562Y17103562D01*
X16375910Y17120832D01*
X16362026Y17139552D01*
X16350044Y17159543D01*
X16340079Y17180613D01*
X16332227Y17202557D01*
X16326563Y17225166D01*
X16323144Y17248221D01*
X16322000Y17271500D01*
X16322000Y17746500D01*
X16323144Y17769779D01*
X16326563Y17792834D01*
X16332227Y17815443D01*
X16340079Y17837387D01*
X16350044Y17858457D01*
X16362026Y17878448D01*
X16375910Y17897168D01*
X16391562Y17914438D01*
X16408832Y17930090D01*
X16427552Y17943974D01*
X16447543Y17955956D01*
X16468613Y17965921D01*
X16490557Y17973773D01*
X16513166Y17979437D01*
X16536221Y17982856D01*
X16559500Y17984000D01*
X17134500Y17984000D01*
X17157779Y17982856D01*
X17157779Y17982856D01*
G37*
D18*
X16847000Y17509000D03*
D17*
G36*
X18907779Y17982856D02*
G01*
X18930834Y17979437D01*
X18953443Y17973773D01*
X18975387Y17965921D01*
X18996457Y17955956D01*
X19016448Y17943974D01*
X19035168Y17930090D01*
X19052438Y17914438D01*
X19068090Y17897168D01*
X19081974Y17878448D01*
X19093956Y17858457D01*
X19103921Y17837387D01*
X19111773Y17815443D01*
X19117437Y17792834D01*
X19120856Y17769779D01*
X19122000Y17746500D01*
X19122000Y17271500D01*
X19120856Y17248221D01*
X19117437Y17225166D01*
X19111773Y17202557D01*
X19103921Y17180613D01*
X19093956Y17159543D01*
X19081974Y17139552D01*
X19068090Y17120832D01*
X19052438Y17103562D01*
X19035168Y17087910D01*
X19016448Y17074026D01*
X18996457Y17062044D01*
X18975387Y17052079D01*
X18953443Y17044227D01*
X18930834Y17038563D01*
X18907779Y17035144D01*
X18884500Y17034000D01*
X18309500Y17034000D01*
X18286221Y17035144D01*
X18263166Y17038563D01*
X18240557Y17044227D01*
X18218613Y17052079D01*
X18197543Y17062044D01*
X18177552Y17074026D01*
X18158832Y17087910D01*
X18141562Y17103562D01*
X18125910Y17120832D01*
X18112026Y17139552D01*
X18100044Y17159543D01*
X18090079Y17180613D01*
X18082227Y17202557D01*
X18076563Y17225166D01*
X18073144Y17248221D01*
X18072000Y17271500D01*
X18072000Y17746500D01*
X18073144Y17769779D01*
X18076563Y17792834D01*
X18082227Y17815443D01*
X18090079Y17837387D01*
X18100044Y17858457D01*
X18112026Y17878448D01*
X18125910Y17897168D01*
X18141562Y17914438D01*
X18158832Y17930090D01*
X18177552Y17943974D01*
X18197543Y17955956D01*
X18218613Y17965921D01*
X18240557Y17973773D01*
X18263166Y17979437D01*
X18286221Y17982856D01*
X18309500Y17984000D01*
X18884500Y17984000D01*
X18907779Y17982856D01*
X18907779Y17982856D01*
G37*
D18*
X18597000Y17509000D03*
D17*
G36*
X15959504Y16096796D02*
G01*
X15983773Y16093196D01*
X16007571Y16087235D01*
X16030671Y16078970D01*
X16052849Y16068480D01*
X16073893Y16055867D01*
X16093598Y16041253D01*
X16111777Y16024777D01*
X16128253Y16006598D01*
X16142867Y15986893D01*
X16155480Y15965849D01*
X16165970Y15943671D01*
X16174235Y15920571D01*
X16180196Y15896773D01*
X16183796Y15872504D01*
X16185000Y15848000D01*
X16185000Y14598000D01*
X16183796Y14573496D01*
X16180196Y14549227D01*
X16174235Y14525429D01*
X16165970Y14502329D01*
X16155480Y14480151D01*
X16142867Y14459107D01*
X16128253Y14439402D01*
X16111777Y14421223D01*
X16093598Y14404747D01*
X16073893Y14390133D01*
X16052849Y14377520D01*
X16030671Y14367030D01*
X16007571Y14358765D01*
X15983773Y14352804D01*
X15959504Y14349204D01*
X15935000Y14348000D01*
X15010000Y14348000D01*
X14985496Y14349204D01*
X14961227Y14352804D01*
X14937429Y14358765D01*
X14914329Y14367030D01*
X14892151Y14377520D01*
X14871107Y14390133D01*
X14851402Y14404747D01*
X14833223Y14421223D01*
X14816747Y14439402D01*
X14802133Y14459107D01*
X14789520Y14480151D01*
X14779030Y14502329D01*
X14770765Y14525429D01*
X14764804Y14549227D01*
X14761204Y14573496D01*
X14760000Y14598000D01*
X14760000Y15848000D01*
X14761204Y15872504D01*
X14764804Y15896773D01*
X14770765Y15920571D01*
X14779030Y15943671D01*
X14789520Y15965849D01*
X14802133Y15986893D01*
X14816747Y16006598D01*
X14833223Y16024777D01*
X14851402Y16041253D01*
X14871107Y16055867D01*
X14892151Y16068480D01*
X14914329Y16078970D01*
X14937429Y16087235D01*
X14961227Y16093196D01*
X14985496Y16096796D01*
X15010000Y16098000D01*
X15935000Y16098000D01*
X15959504Y16096796D01*
X15959504Y16096796D01*
G37*
D19*
X15472500Y15223000D03*
D17*
G36*
X18934504Y16096796D02*
G01*
X18958773Y16093196D01*
X18982571Y16087235D01*
X19005671Y16078970D01*
X19027849Y16068480D01*
X19048893Y16055867D01*
X19068598Y16041253D01*
X19086777Y16024777D01*
X19103253Y16006598D01*
X19117867Y15986893D01*
X19130480Y15965849D01*
X19140970Y15943671D01*
X19149235Y15920571D01*
X19155196Y15896773D01*
X19158796Y15872504D01*
X19160000Y15848000D01*
X19160000Y14598000D01*
X19158796Y14573496D01*
X19155196Y14549227D01*
X19149235Y14525429D01*
X19140970Y14502329D01*
X19130480Y14480151D01*
X19117867Y14459107D01*
X19103253Y14439402D01*
X19086777Y14421223D01*
X19068598Y14404747D01*
X19048893Y14390133D01*
X19027849Y14377520D01*
X19005671Y14367030D01*
X18982571Y14358765D01*
X18958773Y14352804D01*
X18934504Y14349204D01*
X18910000Y14348000D01*
X17985000Y14348000D01*
X17960496Y14349204D01*
X17936227Y14352804D01*
X17912429Y14358765D01*
X17889329Y14367030D01*
X17867151Y14377520D01*
X17846107Y14390133D01*
X17826402Y14404747D01*
X17808223Y14421223D01*
X17791747Y14439402D01*
X17777133Y14459107D01*
X17764520Y14480151D01*
X17754030Y14502329D01*
X17745765Y14525429D01*
X17739804Y14549227D01*
X17736204Y14573496D01*
X17735000Y14598000D01*
X17735000Y15848000D01*
X17736204Y15872504D01*
X17739804Y15896773D01*
X17745765Y15920571D01*
X17754030Y15943671D01*
X17764520Y15965849D01*
X17777133Y15986893D01*
X17791747Y16006598D01*
X17808223Y16024777D01*
X17826402Y16041253D01*
X17846107Y16055867D01*
X17867151Y16068480D01*
X17889329Y16078970D01*
X17912429Y16087235D01*
X17936227Y16093196D01*
X17960496Y16096796D01*
X17985000Y16098000D01*
X18910000Y16098000D01*
X18934504Y16096796D01*
X18934504Y16096796D01*
G37*
D19*
X18447500Y15223000D03*
D17*
G36*
X23760504Y16096796D02*
G01*
X23784773Y16093196D01*
X23808571Y16087235D01*
X23831671Y16078970D01*
X23853849Y16068480D01*
X23874893Y16055867D01*
X23894598Y16041253D01*
X23912777Y16024777D01*
X23929253Y16006598D01*
X23943867Y15986893D01*
X23956480Y15965849D01*
X23966970Y15943671D01*
X23975235Y15920571D01*
X23981196Y15896773D01*
X23984796Y15872504D01*
X23986000Y15848000D01*
X23986000Y14598000D01*
X23984796Y14573496D01*
X23981196Y14549227D01*
X23975235Y14525429D01*
X23966970Y14502329D01*
X23956480Y14480151D01*
X23943867Y14459107D01*
X23929253Y14439402D01*
X23912777Y14421223D01*
X23894598Y14404747D01*
X23874893Y14390133D01*
X23853849Y14377520D01*
X23831671Y14367030D01*
X23808571Y14358765D01*
X23784773Y14352804D01*
X23760504Y14349204D01*
X23736000Y14348000D01*
X22811000Y14348000D01*
X22786496Y14349204D01*
X22762227Y14352804D01*
X22738429Y14358765D01*
X22715329Y14367030D01*
X22693151Y14377520D01*
X22672107Y14390133D01*
X22652402Y14404747D01*
X22634223Y14421223D01*
X22617747Y14439402D01*
X22603133Y14459107D01*
X22590520Y14480151D01*
X22580030Y14502329D01*
X22571765Y14525429D01*
X22565804Y14549227D01*
X22562204Y14573496D01*
X22561000Y14598000D01*
X22561000Y15848000D01*
X22562204Y15872504D01*
X22565804Y15896773D01*
X22571765Y15920571D01*
X22580030Y15943671D01*
X22590520Y15965849D01*
X22603133Y15986893D01*
X22617747Y16006598D01*
X22634223Y16024777D01*
X22652402Y16041253D01*
X22672107Y16055867D01*
X22693151Y16068480D01*
X22715329Y16078970D01*
X22738429Y16087235D01*
X22762227Y16093196D01*
X22786496Y16096796D01*
X22811000Y16098000D01*
X23736000Y16098000D01*
X23760504Y16096796D01*
X23760504Y16096796D01*
G37*
D19*
X23273500Y15223000D03*
D17*
G36*
X20785504Y16096796D02*
G01*
X20809773Y16093196D01*
X20833571Y16087235D01*
X20856671Y16078970D01*
X20878849Y16068480D01*
X20899893Y16055867D01*
X20919598Y16041253D01*
X20937777Y16024777D01*
X20954253Y16006598D01*
X20968867Y15986893D01*
X20981480Y15965849D01*
X20991970Y15943671D01*
X21000235Y15920571D01*
X21006196Y15896773D01*
X21009796Y15872504D01*
X21011000Y15848000D01*
X21011000Y14598000D01*
X21009796Y14573496D01*
X21006196Y14549227D01*
X21000235Y14525429D01*
X20991970Y14502329D01*
X20981480Y14480151D01*
X20968867Y14459107D01*
X20954253Y14439402D01*
X20937777Y14421223D01*
X20919598Y14404747D01*
X20899893Y14390133D01*
X20878849Y14377520D01*
X20856671Y14367030D01*
X20833571Y14358765D01*
X20809773Y14352804D01*
X20785504Y14349204D01*
X20761000Y14348000D01*
X19836000Y14348000D01*
X19811496Y14349204D01*
X19787227Y14352804D01*
X19763429Y14358765D01*
X19740329Y14367030D01*
X19718151Y14377520D01*
X19697107Y14390133D01*
X19677402Y14404747D01*
X19659223Y14421223D01*
X19642747Y14439402D01*
X19628133Y14459107D01*
X19615520Y14480151D01*
X19605030Y14502329D01*
X19596765Y14525429D01*
X19590804Y14549227D01*
X19587204Y14573496D01*
X19586000Y14598000D01*
X19586000Y15848000D01*
X19587204Y15872504D01*
X19590804Y15896773D01*
X19596765Y15920571D01*
X19605030Y15943671D01*
X19615520Y15965849D01*
X19628133Y15986893D01*
X19642747Y16006598D01*
X19659223Y16024777D01*
X19677402Y16041253D01*
X19697107Y16055867D01*
X19718151Y16068480D01*
X19740329Y16078970D01*
X19763429Y16087235D01*
X19787227Y16093196D01*
X19811496Y16096796D01*
X19836000Y16098000D01*
X20761000Y16098000D01*
X20785504Y16096796D01*
X20785504Y16096796D01*
G37*
D19*
X20298500Y15223000D03*
D17*
G36*
X15696779Y23098856D02*
G01*
X15719834Y23095437D01*
X15742443Y23089773D01*
X15764387Y23081921D01*
X15785457Y23071956D01*
X15805448Y23059974D01*
X15824168Y23046090D01*
X15841438Y23030438D01*
X15857090Y23013168D01*
X15870974Y22994448D01*
X15882956Y22974457D01*
X15892921Y22953387D01*
X15900773Y22931443D01*
X15906437Y22908834D01*
X15909856Y22885779D01*
X15911000Y22862500D01*
X15911000Y22287500D01*
X15909856Y22264221D01*
X15906437Y22241166D01*
X15900773Y22218557D01*
X15892921Y22196613D01*
X15882956Y22175543D01*
X15870974Y22155552D01*
X15857090Y22136832D01*
X15841438Y22119562D01*
X15824168Y22103910D01*
X15805448Y22090026D01*
X15785457Y22078044D01*
X15764387Y22068079D01*
X15742443Y22060227D01*
X15719834Y22054563D01*
X15696779Y22051144D01*
X15673500Y22050000D01*
X15198500Y22050000D01*
X15175221Y22051144D01*
X15152166Y22054563D01*
X15129557Y22060227D01*
X15107613Y22068079D01*
X15086543Y22078044D01*
X15066552Y22090026D01*
X15047832Y22103910D01*
X15030562Y22119562D01*
X15014910Y22136832D01*
X15001026Y22155552D01*
X14989044Y22175543D01*
X14979079Y22196613D01*
X14971227Y22218557D01*
X14965563Y22241166D01*
X14962144Y22264221D01*
X14961000Y22287500D01*
X14961000Y22862500D01*
X14962144Y22885779D01*
X14965563Y22908834D01*
X14971227Y22931443D01*
X14979079Y22953387D01*
X14989044Y22974457D01*
X15001026Y22994448D01*
X15014910Y23013168D01*
X15030562Y23030438D01*
X15047832Y23046090D01*
X15066552Y23059974D01*
X15086543Y23071956D01*
X15107613Y23081921D01*
X15129557Y23089773D01*
X15152166Y23095437D01*
X15175221Y23098856D01*
X15198500Y23100000D01*
X15673500Y23100000D01*
X15696779Y23098856D01*
X15696779Y23098856D01*
G37*
D18*
X15436000Y22575000D03*
D17*
G36*
X15696779Y21348856D02*
G01*
X15719834Y21345437D01*
X15742443Y21339773D01*
X15764387Y21331921D01*
X15785457Y21321956D01*
X15805448Y21309974D01*
X15824168Y21296090D01*
X15841438Y21280438D01*
X15857090Y21263168D01*
X15870974Y21244448D01*
X15882956Y21224457D01*
X15892921Y21203387D01*
X15900773Y21181443D01*
X15906437Y21158834D01*
X15909856Y21135779D01*
X15911000Y21112500D01*
X15911000Y20537500D01*
X15909856Y20514221D01*
X15906437Y20491166D01*
X15900773Y20468557D01*
X15892921Y20446613D01*
X15882956Y20425543D01*
X15870974Y20405552D01*
X15857090Y20386832D01*
X15841438Y20369562D01*
X15824168Y20353910D01*
X15805448Y20340026D01*
X15785457Y20328044D01*
X15764387Y20318079D01*
X15742443Y20310227D01*
X15719834Y20304563D01*
X15696779Y20301144D01*
X15673500Y20300000D01*
X15198500Y20300000D01*
X15175221Y20301144D01*
X15152166Y20304563D01*
X15129557Y20310227D01*
X15107613Y20318079D01*
X15086543Y20328044D01*
X15066552Y20340026D01*
X15047832Y20353910D01*
X15030562Y20369562D01*
X15014910Y20386832D01*
X15001026Y20405552D01*
X14989044Y20425543D01*
X14979079Y20446613D01*
X14971227Y20468557D01*
X14965563Y20491166D01*
X14962144Y20514221D01*
X14961000Y20537500D01*
X14961000Y21112500D01*
X14962144Y21135779D01*
X14965563Y21158834D01*
X14971227Y21181443D01*
X14979079Y21203387D01*
X14989044Y21224457D01*
X15001026Y21244448D01*
X15014910Y21263168D01*
X15030562Y21280438D01*
X15047832Y21296090D01*
X15066552Y21309974D01*
X15086543Y21321956D01*
X15107613Y21331921D01*
X15129557Y21339773D01*
X15152166Y21345437D01*
X15175221Y21348856D01*
X15198500Y21350000D01*
X15673500Y21350000D01*
X15696779Y21348856D01*
X15696779Y21348856D01*
G37*
D18*
X15436000Y20825000D03*
D17*
G36*
X51765779Y18117856D02*
G01*
X51788834Y18114437D01*
X51811443Y18108773D01*
X51833387Y18100921D01*
X51854457Y18090956D01*
X51874448Y18078974D01*
X51893168Y18065090D01*
X51910438Y18049438D01*
X51926090Y18032168D01*
X51939974Y18013448D01*
X51951956Y17993457D01*
X51961921Y17972387D01*
X51969773Y17950443D01*
X51975437Y17927834D01*
X51978856Y17904779D01*
X51980000Y17881500D01*
X51980000Y17406500D01*
X51978856Y17383221D01*
X51975437Y17360166D01*
X51969773Y17337557D01*
X51961921Y17315613D01*
X51951956Y17294543D01*
X51939974Y17274552D01*
X51926090Y17255832D01*
X51910438Y17238562D01*
X51893168Y17222910D01*
X51874448Y17209026D01*
X51854457Y17197044D01*
X51833387Y17187079D01*
X51811443Y17179227D01*
X51788834Y17173563D01*
X51765779Y17170144D01*
X51742500Y17169000D01*
X51167500Y17169000D01*
X51144221Y17170144D01*
X51121166Y17173563D01*
X51098557Y17179227D01*
X51076613Y17187079D01*
X51055543Y17197044D01*
X51035552Y17209026D01*
X51016832Y17222910D01*
X50999562Y17238562D01*
X50983910Y17255832D01*
X50970026Y17274552D01*
X50958044Y17294543D01*
X50948079Y17315613D01*
X50940227Y17337557D01*
X50934563Y17360166D01*
X50931144Y17383221D01*
X50930000Y17406500D01*
X50930000Y17881500D01*
X50931144Y17904779D01*
X50934563Y17927834D01*
X50940227Y17950443D01*
X50948079Y17972387D01*
X50958044Y17993457D01*
X50970026Y18013448D01*
X50983910Y18032168D01*
X50999562Y18049438D01*
X51016832Y18065090D01*
X51035552Y18078974D01*
X51055543Y18090956D01*
X51076613Y18100921D01*
X51098557Y18108773D01*
X51121166Y18114437D01*
X51144221Y18117856D01*
X51167500Y18119000D01*
X51742500Y18119000D01*
X51765779Y18117856D01*
X51765779Y18117856D01*
G37*
D18*
X51455000Y17644000D03*
D17*
G36*
X50015779Y18117856D02*
G01*
X50038834Y18114437D01*
X50061443Y18108773D01*
X50083387Y18100921D01*
X50104457Y18090956D01*
X50124448Y18078974D01*
X50143168Y18065090D01*
X50160438Y18049438D01*
X50176090Y18032168D01*
X50189974Y18013448D01*
X50201956Y17993457D01*
X50211921Y17972387D01*
X50219773Y17950443D01*
X50225437Y17927834D01*
X50228856Y17904779D01*
X50230000Y17881500D01*
X50230000Y17406500D01*
X50228856Y17383221D01*
X50225437Y17360166D01*
X50219773Y17337557D01*
X50211921Y17315613D01*
X50201956Y17294543D01*
X50189974Y17274552D01*
X50176090Y17255832D01*
X50160438Y17238562D01*
X50143168Y17222910D01*
X50124448Y17209026D01*
X50104457Y17197044D01*
X50083387Y17187079D01*
X50061443Y17179227D01*
X50038834Y17173563D01*
X50015779Y17170144D01*
X49992500Y17169000D01*
X49417500Y17169000D01*
X49394221Y17170144D01*
X49371166Y17173563D01*
X49348557Y17179227D01*
X49326613Y17187079D01*
X49305543Y17197044D01*
X49285552Y17209026D01*
X49266832Y17222910D01*
X49249562Y17238562D01*
X49233910Y17255832D01*
X49220026Y17274552D01*
X49208044Y17294543D01*
X49198079Y17315613D01*
X49190227Y17337557D01*
X49184563Y17360166D01*
X49181144Y17383221D01*
X49180000Y17406500D01*
X49180000Y17881500D01*
X49181144Y17904779D01*
X49184563Y17927834D01*
X49190227Y17950443D01*
X49198079Y17972387D01*
X49208044Y17993457D01*
X49220026Y18013448D01*
X49233910Y18032168D01*
X49249562Y18049438D01*
X49266832Y18065090D01*
X49285552Y18078974D01*
X49305543Y18090956D01*
X49326613Y18100921D01*
X49348557Y18108773D01*
X49371166Y18114437D01*
X49394221Y18117856D01*
X49417500Y18119000D01*
X49992500Y18119000D01*
X50015779Y18117856D01*
X50015779Y18117856D01*
G37*
D18*
X49705000Y17644000D03*
D17*
G36*
X60395779Y11017856D02*
G01*
X60418834Y11014437D01*
X60441443Y11008773D01*
X60463387Y11000921D01*
X60484457Y10990956D01*
X60504448Y10978974D01*
X60523168Y10965090D01*
X60540438Y10949438D01*
X60556090Y10932168D01*
X60569974Y10913448D01*
X60581956Y10893457D01*
X60591921Y10872387D01*
X60599773Y10850443D01*
X60605437Y10827834D01*
X60608856Y10804779D01*
X60610000Y10781500D01*
X60610000Y10306500D01*
X60608856Y10283221D01*
X60605437Y10260166D01*
X60599773Y10237557D01*
X60591921Y10215613D01*
X60581956Y10194543D01*
X60569974Y10174552D01*
X60556090Y10155832D01*
X60540438Y10138562D01*
X60523168Y10122910D01*
X60504448Y10109026D01*
X60484457Y10097044D01*
X60463387Y10087079D01*
X60441443Y10079227D01*
X60418834Y10073563D01*
X60395779Y10070144D01*
X60372500Y10069000D01*
X59797500Y10069000D01*
X59774221Y10070144D01*
X59751166Y10073563D01*
X59728557Y10079227D01*
X59706613Y10087079D01*
X59685543Y10097044D01*
X59665552Y10109026D01*
X59646832Y10122910D01*
X59629562Y10138562D01*
X59613910Y10155832D01*
X59600026Y10174552D01*
X59588044Y10194543D01*
X59578079Y10215613D01*
X59570227Y10237557D01*
X59564563Y10260166D01*
X59561144Y10283221D01*
X59560000Y10306500D01*
X59560000Y10781500D01*
X59561144Y10804779D01*
X59564563Y10827834D01*
X59570227Y10850443D01*
X59578079Y10872387D01*
X59588044Y10893457D01*
X59600026Y10913448D01*
X59613910Y10932168D01*
X59629562Y10949438D01*
X59646832Y10965090D01*
X59665552Y10978974D01*
X59685543Y10990956D01*
X59706613Y11000921D01*
X59728557Y11008773D01*
X59751166Y11014437D01*
X59774221Y11017856D01*
X59797500Y11019000D01*
X60372500Y11019000D01*
X60395779Y11017856D01*
X60395779Y11017856D01*
G37*
D18*
X60085000Y10544000D03*
D17*
G36*
X58645779Y11017856D02*
G01*
X58668834Y11014437D01*
X58691443Y11008773D01*
X58713387Y11000921D01*
X58734457Y10990956D01*
X58754448Y10978974D01*
X58773168Y10965090D01*
X58790438Y10949438D01*
X58806090Y10932168D01*
X58819974Y10913448D01*
X58831956Y10893457D01*
X58841921Y10872387D01*
X58849773Y10850443D01*
X58855437Y10827834D01*
X58858856Y10804779D01*
X58860000Y10781500D01*
X58860000Y10306500D01*
X58858856Y10283221D01*
X58855437Y10260166D01*
X58849773Y10237557D01*
X58841921Y10215613D01*
X58831956Y10194543D01*
X58819974Y10174552D01*
X58806090Y10155832D01*
X58790438Y10138562D01*
X58773168Y10122910D01*
X58754448Y10109026D01*
X58734457Y10097044D01*
X58713387Y10087079D01*
X58691443Y10079227D01*
X58668834Y10073563D01*
X58645779Y10070144D01*
X58622500Y10069000D01*
X58047500Y10069000D01*
X58024221Y10070144D01*
X58001166Y10073563D01*
X57978557Y10079227D01*
X57956613Y10087079D01*
X57935543Y10097044D01*
X57915552Y10109026D01*
X57896832Y10122910D01*
X57879562Y10138562D01*
X57863910Y10155832D01*
X57850026Y10174552D01*
X57838044Y10194543D01*
X57828079Y10215613D01*
X57820227Y10237557D01*
X57814563Y10260166D01*
X57811144Y10283221D01*
X57810000Y10306500D01*
X57810000Y10781500D01*
X57811144Y10804779D01*
X57814563Y10827834D01*
X57820227Y10850443D01*
X57828079Y10872387D01*
X57838044Y10893457D01*
X57850026Y10913448D01*
X57863910Y10932168D01*
X57879562Y10949438D01*
X57896832Y10965090D01*
X57915552Y10978974D01*
X57935543Y10990956D01*
X57956613Y11000921D01*
X57978557Y11008773D01*
X58001166Y11014437D01*
X58024221Y11017856D01*
X58047500Y11019000D01*
X58622500Y11019000D01*
X58645779Y11017856D01*
X58645779Y11017856D01*
G37*
D18*
X58335000Y10544000D03*
D17*
G36*
X60345779Y9317856D02*
G01*
X60368834Y9314437D01*
X60391443Y9308773D01*
X60413387Y9300921D01*
X60434457Y9290956D01*
X60454448Y9278974D01*
X60473168Y9265090D01*
X60490438Y9249438D01*
X60506090Y9232168D01*
X60519974Y9213448D01*
X60531956Y9193457D01*
X60541921Y9172387D01*
X60549773Y9150443D01*
X60555437Y9127834D01*
X60558856Y9104779D01*
X60560000Y9081500D01*
X60560000Y8606500D01*
X60558856Y8583221D01*
X60555437Y8560166D01*
X60549773Y8537557D01*
X60541921Y8515613D01*
X60531956Y8494543D01*
X60519974Y8474552D01*
X60506090Y8455832D01*
X60490438Y8438562D01*
X60473168Y8422910D01*
X60454448Y8409026D01*
X60434457Y8397044D01*
X60413387Y8387079D01*
X60391443Y8379227D01*
X60368834Y8373563D01*
X60345779Y8370144D01*
X60322500Y8369000D01*
X59747500Y8369000D01*
X59724221Y8370144D01*
X59701166Y8373563D01*
X59678557Y8379227D01*
X59656613Y8387079D01*
X59635543Y8397044D01*
X59615552Y8409026D01*
X59596832Y8422910D01*
X59579562Y8438562D01*
X59563910Y8455832D01*
X59550026Y8474552D01*
X59538044Y8494543D01*
X59528079Y8515613D01*
X59520227Y8537557D01*
X59514563Y8560166D01*
X59511144Y8583221D01*
X59510000Y8606500D01*
X59510000Y9081500D01*
X59511144Y9104779D01*
X59514563Y9127834D01*
X59520227Y9150443D01*
X59528079Y9172387D01*
X59538044Y9193457D01*
X59550026Y9213448D01*
X59563910Y9232168D01*
X59579562Y9249438D01*
X59596832Y9265090D01*
X59615552Y9278974D01*
X59635543Y9290956D01*
X59656613Y9300921D01*
X59678557Y9308773D01*
X59701166Y9314437D01*
X59724221Y9317856D01*
X59747500Y9319000D01*
X60322500Y9319000D01*
X60345779Y9317856D01*
X60345779Y9317856D01*
G37*
D18*
X60035000Y8844000D03*
D17*
G36*
X58595779Y9317856D02*
G01*
X58618834Y9314437D01*
X58641443Y9308773D01*
X58663387Y9300921D01*
X58684457Y9290956D01*
X58704448Y9278974D01*
X58723168Y9265090D01*
X58740438Y9249438D01*
X58756090Y9232168D01*
X58769974Y9213448D01*
X58781956Y9193457D01*
X58791921Y9172387D01*
X58799773Y9150443D01*
X58805437Y9127834D01*
X58808856Y9104779D01*
X58810000Y9081500D01*
X58810000Y8606500D01*
X58808856Y8583221D01*
X58805437Y8560166D01*
X58799773Y8537557D01*
X58791921Y8515613D01*
X58781956Y8494543D01*
X58769974Y8474552D01*
X58756090Y8455832D01*
X58740438Y8438562D01*
X58723168Y8422910D01*
X58704448Y8409026D01*
X58684457Y8397044D01*
X58663387Y8387079D01*
X58641443Y8379227D01*
X58618834Y8373563D01*
X58595779Y8370144D01*
X58572500Y8369000D01*
X57997500Y8369000D01*
X57974221Y8370144D01*
X57951166Y8373563D01*
X57928557Y8379227D01*
X57906613Y8387079D01*
X57885543Y8397044D01*
X57865552Y8409026D01*
X57846832Y8422910D01*
X57829562Y8438562D01*
X57813910Y8455832D01*
X57800026Y8474552D01*
X57788044Y8494543D01*
X57778079Y8515613D01*
X57770227Y8537557D01*
X57764563Y8560166D01*
X57761144Y8583221D01*
X57760000Y8606500D01*
X57760000Y9081500D01*
X57761144Y9104779D01*
X57764563Y9127834D01*
X57770227Y9150443D01*
X57778079Y9172387D01*
X57788044Y9193457D01*
X57800026Y9213448D01*
X57813910Y9232168D01*
X57829562Y9249438D01*
X57846832Y9265090D01*
X57865552Y9278974D01*
X57885543Y9290956D01*
X57906613Y9300921D01*
X57928557Y9308773D01*
X57951166Y9314437D01*
X57974221Y9317856D01*
X57997500Y9319000D01*
X58572500Y9319000D01*
X58595779Y9317856D01*
X58595779Y9317856D01*
G37*
D18*
X58285000Y8844000D03*
D17*
G36*
X52745779Y10687856D02*
G01*
X52768834Y10684437D01*
X52791443Y10678773D01*
X52813387Y10670921D01*
X52834457Y10660956D01*
X52854448Y10648974D01*
X52873168Y10635090D01*
X52890438Y10619438D01*
X52906090Y10602168D01*
X52919974Y10583448D01*
X52931956Y10563457D01*
X52941921Y10542387D01*
X52949773Y10520443D01*
X52955437Y10497834D01*
X52958856Y10474779D01*
X52960000Y10451500D01*
X52960000Y9976500D01*
X52958856Y9953221D01*
X52955437Y9930166D01*
X52949773Y9907557D01*
X52941921Y9885613D01*
X52931956Y9864543D01*
X52919974Y9844552D01*
X52906090Y9825832D01*
X52890438Y9808562D01*
X52873168Y9792910D01*
X52854448Y9779026D01*
X52834457Y9767044D01*
X52813387Y9757079D01*
X52791443Y9749227D01*
X52768834Y9743563D01*
X52745779Y9740144D01*
X52722500Y9739000D01*
X52147500Y9739000D01*
X52124221Y9740144D01*
X52101166Y9743563D01*
X52078557Y9749227D01*
X52056613Y9757079D01*
X52035543Y9767044D01*
X52015552Y9779026D01*
X51996832Y9792910D01*
X51979562Y9808562D01*
X51963910Y9825832D01*
X51950026Y9844552D01*
X51938044Y9864543D01*
X51928079Y9885613D01*
X51920227Y9907557D01*
X51914563Y9930166D01*
X51911144Y9953221D01*
X51910000Y9976500D01*
X51910000Y10451500D01*
X51911144Y10474779D01*
X51914563Y10497834D01*
X51920227Y10520443D01*
X51928079Y10542387D01*
X51938044Y10563457D01*
X51950026Y10583448D01*
X51963910Y10602168D01*
X51979562Y10619438D01*
X51996832Y10635090D01*
X52015552Y10648974D01*
X52035543Y10660956D01*
X52056613Y10670921D01*
X52078557Y10678773D01*
X52101166Y10684437D01*
X52124221Y10687856D01*
X52147500Y10689000D01*
X52722500Y10689000D01*
X52745779Y10687856D01*
X52745779Y10687856D01*
G37*
D18*
X52435000Y10214000D03*
D17*
G36*
X50995779Y10687856D02*
G01*
X51018834Y10684437D01*
X51041443Y10678773D01*
X51063387Y10670921D01*
X51084457Y10660956D01*
X51104448Y10648974D01*
X51123168Y10635090D01*
X51140438Y10619438D01*
X51156090Y10602168D01*
X51169974Y10583448D01*
X51181956Y10563457D01*
X51191921Y10542387D01*
X51199773Y10520443D01*
X51205437Y10497834D01*
X51208856Y10474779D01*
X51210000Y10451500D01*
X51210000Y9976500D01*
X51208856Y9953221D01*
X51205437Y9930166D01*
X51199773Y9907557D01*
X51191921Y9885613D01*
X51181956Y9864543D01*
X51169974Y9844552D01*
X51156090Y9825832D01*
X51140438Y9808562D01*
X51123168Y9792910D01*
X51104448Y9779026D01*
X51084457Y9767044D01*
X51063387Y9757079D01*
X51041443Y9749227D01*
X51018834Y9743563D01*
X50995779Y9740144D01*
X50972500Y9739000D01*
X50397500Y9739000D01*
X50374221Y9740144D01*
X50351166Y9743563D01*
X50328557Y9749227D01*
X50306613Y9757079D01*
X50285543Y9767044D01*
X50265552Y9779026D01*
X50246832Y9792910D01*
X50229562Y9808562D01*
X50213910Y9825832D01*
X50200026Y9844552D01*
X50188044Y9864543D01*
X50178079Y9885613D01*
X50170227Y9907557D01*
X50164563Y9930166D01*
X50161144Y9953221D01*
X50160000Y9976500D01*
X50160000Y10451500D01*
X50161144Y10474779D01*
X50164563Y10497834D01*
X50170227Y10520443D01*
X50178079Y10542387D01*
X50188044Y10563457D01*
X50200026Y10583448D01*
X50213910Y10602168D01*
X50229562Y10619438D01*
X50246832Y10635090D01*
X50265552Y10648974D01*
X50285543Y10660956D01*
X50306613Y10670921D01*
X50328557Y10678773D01*
X50351166Y10684437D01*
X50374221Y10687856D01*
X50397500Y10689000D01*
X50972500Y10689000D01*
X50995779Y10687856D01*
X50995779Y10687856D01*
G37*
D18*
X50685000Y10214000D03*
D17*
G36*
X40880779Y25028856D02*
G01*
X40903834Y25025437D01*
X40926443Y25019773D01*
X40948387Y25011921D01*
X40969457Y25001956D01*
X40989448Y24989974D01*
X41008168Y24976090D01*
X41025438Y24960438D01*
X41041090Y24943168D01*
X41054974Y24924448D01*
X41066956Y24904457D01*
X41076921Y24883387D01*
X41084773Y24861443D01*
X41090437Y24838834D01*
X41093856Y24815779D01*
X41095000Y24792500D01*
X41095000Y24217500D01*
X41093856Y24194221D01*
X41090437Y24171166D01*
X41084773Y24148557D01*
X41076921Y24126613D01*
X41066956Y24105543D01*
X41054974Y24085552D01*
X41041090Y24066832D01*
X41025438Y24049562D01*
X41008168Y24033910D01*
X40989448Y24020026D01*
X40969457Y24008044D01*
X40948387Y23998079D01*
X40926443Y23990227D01*
X40903834Y23984563D01*
X40880779Y23981144D01*
X40857500Y23980000D01*
X40382500Y23980000D01*
X40359221Y23981144D01*
X40336166Y23984563D01*
X40313557Y23990227D01*
X40291613Y23998079D01*
X40270543Y24008044D01*
X40250552Y24020026D01*
X40231832Y24033910D01*
X40214562Y24049562D01*
X40198910Y24066832D01*
X40185026Y24085552D01*
X40173044Y24105543D01*
X40163079Y24126613D01*
X40155227Y24148557D01*
X40149563Y24171166D01*
X40146144Y24194221D01*
X40145000Y24217500D01*
X40145000Y24792500D01*
X40146144Y24815779D01*
X40149563Y24838834D01*
X40155227Y24861443D01*
X40163079Y24883387D01*
X40173044Y24904457D01*
X40185026Y24924448D01*
X40198910Y24943168D01*
X40214562Y24960438D01*
X40231832Y24976090D01*
X40250552Y24989974D01*
X40270543Y25001956D01*
X40291613Y25011921D01*
X40313557Y25019773D01*
X40336166Y25025437D01*
X40359221Y25028856D01*
X40382500Y25030000D01*
X40857500Y25030000D01*
X40880779Y25028856D01*
X40880779Y25028856D01*
G37*
D18*
X40620000Y24505000D03*
D17*
G36*
X40880779Y26778856D02*
G01*
X40903834Y26775437D01*
X40926443Y26769773D01*
X40948387Y26761921D01*
X40969457Y26751956D01*
X40989448Y26739974D01*
X41008168Y26726090D01*
X41025438Y26710438D01*
X41041090Y26693168D01*
X41054974Y26674448D01*
X41066956Y26654457D01*
X41076921Y26633387D01*
X41084773Y26611443D01*
X41090437Y26588834D01*
X41093856Y26565779D01*
X41095000Y26542500D01*
X41095000Y25967500D01*
X41093856Y25944221D01*
X41090437Y25921166D01*
X41084773Y25898557D01*
X41076921Y25876613D01*
X41066956Y25855543D01*
X41054974Y25835552D01*
X41041090Y25816832D01*
X41025438Y25799562D01*
X41008168Y25783910D01*
X40989448Y25770026D01*
X40969457Y25758044D01*
X40948387Y25748079D01*
X40926443Y25740227D01*
X40903834Y25734563D01*
X40880779Y25731144D01*
X40857500Y25730000D01*
X40382500Y25730000D01*
X40359221Y25731144D01*
X40336166Y25734563D01*
X40313557Y25740227D01*
X40291613Y25748079D01*
X40270543Y25758044D01*
X40250552Y25770026D01*
X40231832Y25783910D01*
X40214562Y25799562D01*
X40198910Y25816832D01*
X40185026Y25835552D01*
X40173044Y25855543D01*
X40163079Y25876613D01*
X40155227Y25898557D01*
X40149563Y25921166D01*
X40146144Y25944221D01*
X40145000Y25967500D01*
X40145000Y26542500D01*
X40146144Y26565779D01*
X40149563Y26588834D01*
X40155227Y26611443D01*
X40163079Y26633387D01*
X40173044Y26654457D01*
X40185026Y26674448D01*
X40198910Y26693168D01*
X40214562Y26710438D01*
X40231832Y26726090D01*
X40250552Y26739974D01*
X40270543Y26751956D01*
X40291613Y26761921D01*
X40313557Y26769773D01*
X40336166Y26775437D01*
X40359221Y26778856D01*
X40382500Y26780000D01*
X40857500Y26780000D01*
X40880779Y26778856D01*
X40880779Y26778856D01*
G37*
D18*
X40620000Y26255000D03*
D17*
G36*
X46505779Y2573856D02*
G01*
X46528834Y2570437D01*
X46551443Y2564773D01*
X46573387Y2556921D01*
X46594457Y2546956D01*
X46614448Y2534974D01*
X46633168Y2521090D01*
X46650438Y2505438D01*
X46666090Y2488168D01*
X46679974Y2469448D01*
X46691956Y2449457D01*
X46701921Y2428387D01*
X46709773Y2406443D01*
X46715437Y2383834D01*
X46718856Y2360779D01*
X46720000Y2337500D01*
X46720000Y1862500D01*
X46718856Y1839221D01*
X46715437Y1816166D01*
X46709773Y1793557D01*
X46701921Y1771613D01*
X46691956Y1750543D01*
X46679974Y1730552D01*
X46666090Y1711832D01*
X46650438Y1694562D01*
X46633168Y1678910D01*
X46614448Y1665026D01*
X46594457Y1653044D01*
X46573387Y1643079D01*
X46551443Y1635227D01*
X46528834Y1629563D01*
X46505779Y1626144D01*
X46482500Y1625000D01*
X45907500Y1625000D01*
X45884221Y1626144D01*
X45861166Y1629563D01*
X45838557Y1635227D01*
X45816613Y1643079D01*
X45795543Y1653044D01*
X45775552Y1665026D01*
X45756832Y1678910D01*
X45739562Y1694562D01*
X45723910Y1711832D01*
X45710026Y1730552D01*
X45698044Y1750543D01*
X45688079Y1771613D01*
X45680227Y1793557D01*
X45674563Y1816166D01*
X45671144Y1839221D01*
X45670000Y1862500D01*
X45670000Y2337500D01*
X45671144Y2360779D01*
X45674563Y2383834D01*
X45680227Y2406443D01*
X45688079Y2428387D01*
X45698044Y2449457D01*
X45710026Y2469448D01*
X45723910Y2488168D01*
X45739562Y2505438D01*
X45756832Y2521090D01*
X45775552Y2534974D01*
X45795543Y2546956D01*
X45816613Y2556921D01*
X45838557Y2564773D01*
X45861166Y2570437D01*
X45884221Y2573856D01*
X45907500Y2575000D01*
X46482500Y2575000D01*
X46505779Y2573856D01*
X46505779Y2573856D01*
G37*
D18*
X46195000Y2100000D03*
D17*
G36*
X44755779Y2573856D02*
G01*
X44778834Y2570437D01*
X44801443Y2564773D01*
X44823387Y2556921D01*
X44844457Y2546956D01*
X44864448Y2534974D01*
X44883168Y2521090D01*
X44900438Y2505438D01*
X44916090Y2488168D01*
X44929974Y2469448D01*
X44941956Y2449457D01*
X44951921Y2428387D01*
X44959773Y2406443D01*
X44965437Y2383834D01*
X44968856Y2360779D01*
X44970000Y2337500D01*
X44970000Y1862500D01*
X44968856Y1839221D01*
X44965437Y1816166D01*
X44959773Y1793557D01*
X44951921Y1771613D01*
X44941956Y1750543D01*
X44929974Y1730552D01*
X44916090Y1711832D01*
X44900438Y1694562D01*
X44883168Y1678910D01*
X44864448Y1665026D01*
X44844457Y1653044D01*
X44823387Y1643079D01*
X44801443Y1635227D01*
X44778834Y1629563D01*
X44755779Y1626144D01*
X44732500Y1625000D01*
X44157500Y1625000D01*
X44134221Y1626144D01*
X44111166Y1629563D01*
X44088557Y1635227D01*
X44066613Y1643079D01*
X44045543Y1653044D01*
X44025552Y1665026D01*
X44006832Y1678910D01*
X43989562Y1694562D01*
X43973910Y1711832D01*
X43960026Y1730552D01*
X43948044Y1750543D01*
X43938079Y1771613D01*
X43930227Y1793557D01*
X43924563Y1816166D01*
X43921144Y1839221D01*
X43920000Y1862500D01*
X43920000Y2337500D01*
X43921144Y2360779D01*
X43924563Y2383834D01*
X43930227Y2406443D01*
X43938079Y2428387D01*
X43948044Y2449457D01*
X43960026Y2469448D01*
X43973910Y2488168D01*
X43989562Y2505438D01*
X44006832Y2521090D01*
X44025552Y2534974D01*
X44045543Y2546956D01*
X44066613Y2556921D01*
X44088557Y2564773D01*
X44111166Y2570437D01*
X44134221Y2573856D01*
X44157500Y2575000D01*
X44732500Y2575000D01*
X44755779Y2573856D01*
X44755779Y2573856D01*
G37*
D18*
X44445000Y2100000D03*
D17*
G36*
X45695779Y29753856D02*
G01*
X45718834Y29750437D01*
X45741443Y29744773D01*
X45763387Y29736921D01*
X45784457Y29726956D01*
X45804448Y29714974D01*
X45823168Y29701090D01*
X45840438Y29685438D01*
X45856090Y29668168D01*
X45869974Y29649448D01*
X45881956Y29629457D01*
X45891921Y29608387D01*
X45899773Y29586443D01*
X45905437Y29563834D01*
X45908856Y29540779D01*
X45910000Y29517500D01*
X45910000Y29042500D01*
X45908856Y29019221D01*
X45905437Y28996166D01*
X45899773Y28973557D01*
X45891921Y28951613D01*
X45881956Y28930543D01*
X45869974Y28910552D01*
X45856090Y28891832D01*
X45840438Y28874562D01*
X45823168Y28858910D01*
X45804448Y28845026D01*
X45784457Y28833044D01*
X45763387Y28823079D01*
X45741443Y28815227D01*
X45718834Y28809563D01*
X45695779Y28806144D01*
X45672500Y28805000D01*
X45097500Y28805000D01*
X45074221Y28806144D01*
X45051166Y28809563D01*
X45028557Y28815227D01*
X45006613Y28823079D01*
X44985543Y28833044D01*
X44965552Y28845026D01*
X44946832Y28858910D01*
X44929562Y28874562D01*
X44913910Y28891832D01*
X44900026Y28910552D01*
X44888044Y28930543D01*
X44878079Y28951613D01*
X44870227Y28973557D01*
X44864563Y28996166D01*
X44861144Y29019221D01*
X44860000Y29042500D01*
X44860000Y29517500D01*
X44861144Y29540779D01*
X44864563Y29563834D01*
X44870227Y29586443D01*
X44878079Y29608387D01*
X44888044Y29629457D01*
X44900026Y29649448D01*
X44913910Y29668168D01*
X44929562Y29685438D01*
X44946832Y29701090D01*
X44965552Y29714974D01*
X44985543Y29726956D01*
X45006613Y29736921D01*
X45028557Y29744773D01*
X45051166Y29750437D01*
X45074221Y29753856D01*
X45097500Y29755000D01*
X45672500Y29755000D01*
X45695779Y29753856D01*
X45695779Y29753856D01*
G37*
D18*
X45385000Y29280000D03*
D17*
G36*
X43945779Y29753856D02*
G01*
X43968834Y29750437D01*
X43991443Y29744773D01*
X44013387Y29736921D01*
X44034457Y29726956D01*
X44054448Y29714974D01*
X44073168Y29701090D01*
X44090438Y29685438D01*
X44106090Y29668168D01*
X44119974Y29649448D01*
X44131956Y29629457D01*
X44141921Y29608387D01*
X44149773Y29586443D01*
X44155437Y29563834D01*
X44158856Y29540779D01*
X44160000Y29517500D01*
X44160000Y29042500D01*
X44158856Y29019221D01*
X44155437Y28996166D01*
X44149773Y28973557D01*
X44141921Y28951613D01*
X44131956Y28930543D01*
X44119974Y28910552D01*
X44106090Y28891832D01*
X44090438Y28874562D01*
X44073168Y28858910D01*
X44054448Y28845026D01*
X44034457Y28833044D01*
X44013387Y28823079D01*
X43991443Y28815227D01*
X43968834Y28809563D01*
X43945779Y28806144D01*
X43922500Y28805000D01*
X43347500Y28805000D01*
X43324221Y28806144D01*
X43301166Y28809563D01*
X43278557Y28815227D01*
X43256613Y28823079D01*
X43235543Y28833044D01*
X43215552Y28845026D01*
X43196832Y28858910D01*
X43179562Y28874562D01*
X43163910Y28891832D01*
X43150026Y28910552D01*
X43138044Y28930543D01*
X43128079Y28951613D01*
X43120227Y28973557D01*
X43114563Y28996166D01*
X43111144Y29019221D01*
X43110000Y29042500D01*
X43110000Y29517500D01*
X43111144Y29540779D01*
X43114563Y29563834D01*
X43120227Y29586443D01*
X43128079Y29608387D01*
X43138044Y29629457D01*
X43150026Y29649448D01*
X43163910Y29668168D01*
X43179562Y29685438D01*
X43196832Y29701090D01*
X43215552Y29714974D01*
X43235543Y29726956D01*
X43256613Y29736921D01*
X43278557Y29744773D01*
X43301166Y29750437D01*
X43324221Y29753856D01*
X43347500Y29755000D01*
X43922500Y29755000D01*
X43945779Y29753856D01*
X43945779Y29753856D01*
G37*
D18*
X43635000Y29280000D03*
D17*
G36*
X42830779Y14748856D02*
G01*
X42853834Y14745437D01*
X42876443Y14739773D01*
X42898387Y14731921D01*
X42919457Y14721956D01*
X42939448Y14709974D01*
X42958168Y14696090D01*
X42975438Y14680438D01*
X42991090Y14663168D01*
X43004974Y14644448D01*
X43016956Y14624457D01*
X43026921Y14603387D01*
X43034773Y14581443D01*
X43040437Y14558834D01*
X43043856Y14535779D01*
X43045000Y14512500D01*
X43045000Y13937500D01*
X43043856Y13914221D01*
X43040437Y13891166D01*
X43034773Y13868557D01*
X43026921Y13846613D01*
X43016956Y13825543D01*
X43004974Y13805552D01*
X42991090Y13786832D01*
X42975438Y13769562D01*
X42958168Y13753910D01*
X42939448Y13740026D01*
X42919457Y13728044D01*
X42898387Y13718079D01*
X42876443Y13710227D01*
X42853834Y13704563D01*
X42830779Y13701144D01*
X42807500Y13700000D01*
X42332500Y13700000D01*
X42309221Y13701144D01*
X42286166Y13704563D01*
X42263557Y13710227D01*
X42241613Y13718079D01*
X42220543Y13728044D01*
X42200552Y13740026D01*
X42181832Y13753910D01*
X42164562Y13769562D01*
X42148910Y13786832D01*
X42135026Y13805552D01*
X42123044Y13825543D01*
X42113079Y13846613D01*
X42105227Y13868557D01*
X42099563Y13891166D01*
X42096144Y13914221D01*
X42095000Y13937500D01*
X42095000Y14512500D01*
X42096144Y14535779D01*
X42099563Y14558834D01*
X42105227Y14581443D01*
X42113079Y14603387D01*
X42123044Y14624457D01*
X42135026Y14644448D01*
X42148910Y14663168D01*
X42164562Y14680438D01*
X42181832Y14696090D01*
X42200552Y14709974D01*
X42220543Y14721956D01*
X42241613Y14731921D01*
X42263557Y14739773D01*
X42286166Y14745437D01*
X42309221Y14748856D01*
X42332500Y14750000D01*
X42807500Y14750000D01*
X42830779Y14748856D01*
X42830779Y14748856D01*
G37*
D18*
X42570000Y14225000D03*
D17*
G36*
X42830779Y16498856D02*
G01*
X42853834Y16495437D01*
X42876443Y16489773D01*
X42898387Y16481921D01*
X42919457Y16471956D01*
X42939448Y16459974D01*
X42958168Y16446090D01*
X42975438Y16430438D01*
X42991090Y16413168D01*
X43004974Y16394448D01*
X43016956Y16374457D01*
X43026921Y16353387D01*
X43034773Y16331443D01*
X43040437Y16308834D01*
X43043856Y16285779D01*
X43045000Y16262500D01*
X43045000Y15687500D01*
X43043856Y15664221D01*
X43040437Y15641166D01*
X43034773Y15618557D01*
X43026921Y15596613D01*
X43016956Y15575543D01*
X43004974Y15555552D01*
X42991090Y15536832D01*
X42975438Y15519562D01*
X42958168Y15503910D01*
X42939448Y15490026D01*
X42919457Y15478044D01*
X42898387Y15468079D01*
X42876443Y15460227D01*
X42853834Y15454563D01*
X42830779Y15451144D01*
X42807500Y15450000D01*
X42332500Y15450000D01*
X42309221Y15451144D01*
X42286166Y15454563D01*
X42263557Y15460227D01*
X42241613Y15468079D01*
X42220543Y15478044D01*
X42200552Y15490026D01*
X42181832Y15503910D01*
X42164562Y15519562D01*
X42148910Y15536832D01*
X42135026Y15555552D01*
X42123044Y15575543D01*
X42113079Y15596613D01*
X42105227Y15618557D01*
X42099563Y15641166D01*
X42096144Y15664221D01*
X42095000Y15687500D01*
X42095000Y16262500D01*
X42096144Y16285779D01*
X42099563Y16308834D01*
X42105227Y16331443D01*
X42113079Y16353387D01*
X42123044Y16374457D01*
X42135026Y16394448D01*
X42148910Y16413168D01*
X42164562Y16430438D01*
X42181832Y16446090D01*
X42200552Y16459974D01*
X42220543Y16471956D01*
X42241613Y16481921D01*
X42263557Y16489773D01*
X42286166Y16495437D01*
X42309221Y16498856D01*
X42332500Y16500000D01*
X42807500Y16500000D01*
X42830779Y16498856D01*
X42830779Y16498856D01*
G37*
D18*
X42570000Y15975000D03*
D17*
G36*
X44730779Y47948856D02*
G01*
X44753834Y47945437D01*
X44776443Y47939773D01*
X44798387Y47931921D01*
X44819457Y47921956D01*
X44839448Y47909974D01*
X44858168Y47896090D01*
X44875438Y47880438D01*
X44891090Y47863168D01*
X44904974Y47844448D01*
X44916956Y47824457D01*
X44926921Y47803387D01*
X44934773Y47781443D01*
X44940437Y47758834D01*
X44943856Y47735779D01*
X44945000Y47712500D01*
X44945000Y47137500D01*
X44943856Y47114221D01*
X44940437Y47091166D01*
X44934773Y47068557D01*
X44926921Y47046613D01*
X44916956Y47025543D01*
X44904974Y47005552D01*
X44891090Y46986832D01*
X44875438Y46969562D01*
X44858168Y46953910D01*
X44839448Y46940026D01*
X44819457Y46928044D01*
X44798387Y46918079D01*
X44776443Y46910227D01*
X44753834Y46904563D01*
X44730779Y46901144D01*
X44707500Y46900000D01*
X44232500Y46900000D01*
X44209221Y46901144D01*
X44186166Y46904563D01*
X44163557Y46910227D01*
X44141613Y46918079D01*
X44120543Y46928044D01*
X44100552Y46940026D01*
X44081832Y46953910D01*
X44064562Y46969562D01*
X44048910Y46986832D01*
X44035026Y47005552D01*
X44023044Y47025543D01*
X44013079Y47046613D01*
X44005227Y47068557D01*
X43999563Y47091166D01*
X43996144Y47114221D01*
X43995000Y47137500D01*
X43995000Y47712500D01*
X43996144Y47735779D01*
X43999563Y47758834D01*
X44005227Y47781443D01*
X44013079Y47803387D01*
X44023044Y47824457D01*
X44035026Y47844448D01*
X44048910Y47863168D01*
X44064562Y47880438D01*
X44081832Y47896090D01*
X44100552Y47909974D01*
X44120543Y47921956D01*
X44141613Y47931921D01*
X44163557Y47939773D01*
X44186166Y47945437D01*
X44209221Y47948856D01*
X44232500Y47950000D01*
X44707500Y47950000D01*
X44730779Y47948856D01*
X44730779Y47948856D01*
G37*
D18*
X44470000Y47425000D03*
D17*
G36*
X44730779Y46198856D02*
G01*
X44753834Y46195437D01*
X44776443Y46189773D01*
X44798387Y46181921D01*
X44819457Y46171956D01*
X44839448Y46159974D01*
X44858168Y46146090D01*
X44875438Y46130438D01*
X44891090Y46113168D01*
X44904974Y46094448D01*
X44916956Y46074457D01*
X44926921Y46053387D01*
X44934773Y46031443D01*
X44940437Y46008834D01*
X44943856Y45985779D01*
X44945000Y45962500D01*
X44945000Y45387500D01*
X44943856Y45364221D01*
X44940437Y45341166D01*
X44934773Y45318557D01*
X44926921Y45296613D01*
X44916956Y45275543D01*
X44904974Y45255552D01*
X44891090Y45236832D01*
X44875438Y45219562D01*
X44858168Y45203910D01*
X44839448Y45190026D01*
X44819457Y45178044D01*
X44798387Y45168079D01*
X44776443Y45160227D01*
X44753834Y45154563D01*
X44730779Y45151144D01*
X44707500Y45150000D01*
X44232500Y45150000D01*
X44209221Y45151144D01*
X44186166Y45154563D01*
X44163557Y45160227D01*
X44141613Y45168079D01*
X44120543Y45178044D01*
X44100552Y45190026D01*
X44081832Y45203910D01*
X44064562Y45219562D01*
X44048910Y45236832D01*
X44035026Y45255552D01*
X44023044Y45275543D01*
X44013079Y45296613D01*
X44005227Y45318557D01*
X43999563Y45341166D01*
X43996144Y45364221D01*
X43995000Y45387500D01*
X43995000Y45962500D01*
X43996144Y45985779D01*
X43999563Y46008834D01*
X44005227Y46031443D01*
X44013079Y46053387D01*
X44023044Y46074457D01*
X44035026Y46094448D01*
X44048910Y46113168D01*
X44064562Y46130438D01*
X44081832Y46146090D01*
X44100552Y46159974D01*
X44120543Y46171956D01*
X44141613Y46181921D01*
X44163557Y46189773D01*
X44186166Y46195437D01*
X44209221Y46198856D01*
X44232500Y46200000D01*
X44707500Y46200000D01*
X44730779Y46198856D01*
X44730779Y46198856D01*
G37*
D18*
X44470000Y45675000D03*
D17*
G36*
X46230779Y47948856D02*
G01*
X46253834Y47945437D01*
X46276443Y47939773D01*
X46298387Y47931921D01*
X46319457Y47921956D01*
X46339448Y47909974D01*
X46358168Y47896090D01*
X46375438Y47880438D01*
X46391090Y47863168D01*
X46404974Y47844448D01*
X46416956Y47824457D01*
X46426921Y47803387D01*
X46434773Y47781443D01*
X46440437Y47758834D01*
X46443856Y47735779D01*
X46445000Y47712500D01*
X46445000Y47137500D01*
X46443856Y47114221D01*
X46440437Y47091166D01*
X46434773Y47068557D01*
X46426921Y47046613D01*
X46416956Y47025543D01*
X46404974Y47005552D01*
X46391090Y46986832D01*
X46375438Y46969562D01*
X46358168Y46953910D01*
X46339448Y46940026D01*
X46319457Y46928044D01*
X46298387Y46918079D01*
X46276443Y46910227D01*
X46253834Y46904563D01*
X46230779Y46901144D01*
X46207500Y46900000D01*
X45732500Y46900000D01*
X45709221Y46901144D01*
X45686166Y46904563D01*
X45663557Y46910227D01*
X45641613Y46918079D01*
X45620543Y46928044D01*
X45600552Y46940026D01*
X45581832Y46953910D01*
X45564562Y46969562D01*
X45548910Y46986832D01*
X45535026Y47005552D01*
X45523044Y47025543D01*
X45513079Y47046613D01*
X45505227Y47068557D01*
X45499563Y47091166D01*
X45496144Y47114221D01*
X45495000Y47137500D01*
X45495000Y47712500D01*
X45496144Y47735779D01*
X45499563Y47758834D01*
X45505227Y47781443D01*
X45513079Y47803387D01*
X45523044Y47824457D01*
X45535026Y47844448D01*
X45548910Y47863168D01*
X45564562Y47880438D01*
X45581832Y47896090D01*
X45600552Y47909974D01*
X45620543Y47921956D01*
X45641613Y47931921D01*
X45663557Y47939773D01*
X45686166Y47945437D01*
X45709221Y47948856D01*
X45732500Y47950000D01*
X46207500Y47950000D01*
X46230779Y47948856D01*
X46230779Y47948856D01*
G37*
D18*
X45970000Y47425000D03*
D17*
G36*
X46230779Y46198856D02*
G01*
X46253834Y46195437D01*
X46276443Y46189773D01*
X46298387Y46181921D01*
X46319457Y46171956D01*
X46339448Y46159974D01*
X46358168Y46146090D01*
X46375438Y46130438D01*
X46391090Y46113168D01*
X46404974Y46094448D01*
X46416956Y46074457D01*
X46426921Y46053387D01*
X46434773Y46031443D01*
X46440437Y46008834D01*
X46443856Y45985779D01*
X46445000Y45962500D01*
X46445000Y45387500D01*
X46443856Y45364221D01*
X46440437Y45341166D01*
X46434773Y45318557D01*
X46426921Y45296613D01*
X46416956Y45275543D01*
X46404974Y45255552D01*
X46391090Y45236832D01*
X46375438Y45219562D01*
X46358168Y45203910D01*
X46339448Y45190026D01*
X46319457Y45178044D01*
X46298387Y45168079D01*
X46276443Y45160227D01*
X46253834Y45154563D01*
X46230779Y45151144D01*
X46207500Y45150000D01*
X45732500Y45150000D01*
X45709221Y45151144D01*
X45686166Y45154563D01*
X45663557Y45160227D01*
X45641613Y45168079D01*
X45620543Y45178044D01*
X45600552Y45190026D01*
X45581832Y45203910D01*
X45564562Y45219562D01*
X45548910Y45236832D01*
X45535026Y45255552D01*
X45523044Y45275543D01*
X45513079Y45296613D01*
X45505227Y45318557D01*
X45499563Y45341166D01*
X45496144Y45364221D01*
X45495000Y45387500D01*
X45495000Y45962500D01*
X45496144Y45985779D01*
X45499563Y46008834D01*
X45505227Y46031443D01*
X45513079Y46053387D01*
X45523044Y46074457D01*
X45535026Y46094448D01*
X45548910Y46113168D01*
X45564562Y46130438D01*
X45581832Y46146090D01*
X45600552Y46159974D01*
X45620543Y46171956D01*
X45641613Y46181921D01*
X45663557Y46189773D01*
X45686166Y46195437D01*
X45709221Y46198856D01*
X45732500Y46200000D01*
X46207500Y46200000D01*
X46230779Y46198856D01*
X46230779Y46198856D01*
G37*
D18*
X45970000Y45675000D03*
D17*
G36*
X47890779Y36028856D02*
G01*
X47913834Y36025437D01*
X47936443Y36019773D01*
X47958387Y36011921D01*
X47979457Y36001956D01*
X47999448Y35989974D01*
X48018168Y35976090D01*
X48035438Y35960438D01*
X48051090Y35943168D01*
X48064974Y35924448D01*
X48076956Y35904457D01*
X48086921Y35883387D01*
X48094773Y35861443D01*
X48100437Y35838834D01*
X48103856Y35815779D01*
X48105000Y35792500D01*
X48105000Y35217500D01*
X48103856Y35194221D01*
X48100437Y35171166D01*
X48094773Y35148557D01*
X48086921Y35126613D01*
X48076956Y35105543D01*
X48064974Y35085552D01*
X48051090Y35066832D01*
X48035438Y35049562D01*
X48018168Y35033910D01*
X47999448Y35020026D01*
X47979457Y35008044D01*
X47958387Y34998079D01*
X47936443Y34990227D01*
X47913834Y34984563D01*
X47890779Y34981144D01*
X47867500Y34980000D01*
X47392500Y34980000D01*
X47369221Y34981144D01*
X47346166Y34984563D01*
X47323557Y34990227D01*
X47301613Y34998079D01*
X47280543Y35008044D01*
X47260552Y35020026D01*
X47241832Y35033910D01*
X47224562Y35049562D01*
X47208910Y35066832D01*
X47195026Y35085552D01*
X47183044Y35105543D01*
X47173079Y35126613D01*
X47165227Y35148557D01*
X47159563Y35171166D01*
X47156144Y35194221D01*
X47155000Y35217500D01*
X47155000Y35792500D01*
X47156144Y35815779D01*
X47159563Y35838834D01*
X47165227Y35861443D01*
X47173079Y35883387D01*
X47183044Y35904457D01*
X47195026Y35924448D01*
X47208910Y35943168D01*
X47224562Y35960438D01*
X47241832Y35976090D01*
X47260552Y35989974D01*
X47280543Y36001956D01*
X47301613Y36011921D01*
X47323557Y36019773D01*
X47346166Y36025437D01*
X47369221Y36028856D01*
X47392500Y36030000D01*
X47867500Y36030000D01*
X47890779Y36028856D01*
X47890779Y36028856D01*
G37*
D18*
X47630000Y35505000D03*
D17*
G36*
X47890779Y34278856D02*
G01*
X47913834Y34275437D01*
X47936443Y34269773D01*
X47958387Y34261921D01*
X47979457Y34251956D01*
X47999448Y34239974D01*
X48018168Y34226090D01*
X48035438Y34210438D01*
X48051090Y34193168D01*
X48064974Y34174448D01*
X48076956Y34154457D01*
X48086921Y34133387D01*
X48094773Y34111443D01*
X48100437Y34088834D01*
X48103856Y34065779D01*
X48105000Y34042500D01*
X48105000Y33467500D01*
X48103856Y33444221D01*
X48100437Y33421166D01*
X48094773Y33398557D01*
X48086921Y33376613D01*
X48076956Y33355543D01*
X48064974Y33335552D01*
X48051090Y33316832D01*
X48035438Y33299562D01*
X48018168Y33283910D01*
X47999448Y33270026D01*
X47979457Y33258044D01*
X47958387Y33248079D01*
X47936443Y33240227D01*
X47913834Y33234563D01*
X47890779Y33231144D01*
X47867500Y33230000D01*
X47392500Y33230000D01*
X47369221Y33231144D01*
X47346166Y33234563D01*
X47323557Y33240227D01*
X47301613Y33248079D01*
X47280543Y33258044D01*
X47260552Y33270026D01*
X47241832Y33283910D01*
X47224562Y33299562D01*
X47208910Y33316832D01*
X47195026Y33335552D01*
X47183044Y33355543D01*
X47173079Y33376613D01*
X47165227Y33398557D01*
X47159563Y33421166D01*
X47156144Y33444221D01*
X47155000Y33467500D01*
X47155000Y34042500D01*
X47156144Y34065779D01*
X47159563Y34088834D01*
X47165227Y34111443D01*
X47173079Y34133387D01*
X47183044Y34154457D01*
X47195026Y34174448D01*
X47208910Y34193168D01*
X47224562Y34210438D01*
X47241832Y34226090D01*
X47260552Y34239974D01*
X47280543Y34251956D01*
X47301613Y34261921D01*
X47323557Y34269773D01*
X47346166Y34275437D01*
X47369221Y34278856D01*
X47392500Y34280000D01*
X47867500Y34280000D01*
X47890779Y34278856D01*
X47890779Y34278856D01*
G37*
D18*
X47630000Y33755000D03*
D20*
X13063000Y39874000D03*
X13713000Y39874000D03*
X14363000Y39874000D03*
X15013000Y39874000D03*
X15663000Y39874000D03*
X16313000Y39874000D03*
X16963000Y39874000D03*
X17613000Y39874000D03*
X18263000Y39874000D03*
X18913000Y39874000D03*
X19563000Y39874000D03*
X20213000Y39874000D03*
X20863000Y39874000D03*
X21513000Y39874000D03*
X21513000Y45574000D03*
X20863000Y45574000D03*
X20213000Y45574000D03*
X19563000Y45574000D03*
X18913000Y45574000D03*
X18263000Y45574000D03*
X17613000Y45574000D03*
X16963000Y45574000D03*
X16313000Y45574000D03*
X15663000Y45574000D03*
X15013000Y45574000D03*
X14363000Y45574000D03*
X13713000Y45574000D03*
X13063000Y45574000D03*
D21*
X17685000Y26634000D03*
X17685000Y20894000D03*
X18955000Y26634000D03*
X18955000Y20894000D03*
X20225000Y26634000D03*
X20225000Y20894000D03*
X21495000Y26634000D03*
X21495000Y20894000D03*
D22*
X19590000Y23764000D03*
D23*
X50180000Y14244000D03*
D24*
X49230000Y15744000D03*
X49880000Y15744000D03*
X50480000Y15744000D03*
X51130000Y15744000D03*
X51130000Y12744000D03*
X50480000Y12744000D03*
X49880000Y12744000D03*
X49230000Y12744000D03*
D25*
X50130000Y35880000D03*
X50130000Y34930000D03*
X50130000Y33980000D03*
X52330000Y33980000D03*
X52330000Y35880000D03*
D26*
X25440000Y23764000D03*
X31340000Y23764000D03*
D16*
X37320000Y9850000D03*
X40120000Y9850000D03*
D27*
X31525000Y16534000D03*
X26525000Y16534000D03*
D17*
G36*
X11550779Y44162856D02*
G01*
X11573834Y44159437D01*
X11596443Y44153773D01*
X11618387Y44145921D01*
X11639457Y44135956D01*
X11659448Y44123974D01*
X11678168Y44110090D01*
X11695438Y44094438D01*
X11711090Y44077168D01*
X11724974Y44058448D01*
X11736956Y44038457D01*
X11746921Y44017387D01*
X11754773Y43995443D01*
X11760437Y43972834D01*
X11763856Y43949779D01*
X11765000Y43926500D01*
X11765000Y43351500D01*
X11763856Y43328221D01*
X11760437Y43305166D01*
X11754773Y43282557D01*
X11746921Y43260613D01*
X11736956Y43239543D01*
X11724974Y43219552D01*
X11711090Y43200832D01*
X11695438Y43183562D01*
X11678168Y43167910D01*
X11659448Y43154026D01*
X11639457Y43142044D01*
X11618387Y43132079D01*
X11596443Y43124227D01*
X11573834Y43118563D01*
X11550779Y43115144D01*
X11527500Y43114000D01*
X11052500Y43114000D01*
X11029221Y43115144D01*
X11006166Y43118563D01*
X10983557Y43124227D01*
X10961613Y43132079D01*
X10940543Y43142044D01*
X10920552Y43154026D01*
X10901832Y43167910D01*
X10884562Y43183562D01*
X10868910Y43200832D01*
X10855026Y43219552D01*
X10843044Y43239543D01*
X10833079Y43260613D01*
X10825227Y43282557D01*
X10819563Y43305166D01*
X10816144Y43328221D01*
X10815000Y43351500D01*
X10815000Y43926500D01*
X10816144Y43949779D01*
X10819563Y43972834D01*
X10825227Y43995443D01*
X10833079Y44017387D01*
X10843044Y44038457D01*
X10855026Y44058448D01*
X10868910Y44077168D01*
X10884562Y44094438D01*
X10901832Y44110090D01*
X10920552Y44123974D01*
X10940543Y44135956D01*
X10961613Y44145921D01*
X10983557Y44153773D01*
X11006166Y44159437D01*
X11029221Y44162856D01*
X11052500Y44164000D01*
X11527500Y44164000D01*
X11550779Y44162856D01*
X11550779Y44162856D01*
G37*
D18*
X11290000Y43639000D03*
D17*
G36*
X11550779Y42412856D02*
G01*
X11573834Y42409437D01*
X11596443Y42403773D01*
X11618387Y42395921D01*
X11639457Y42385956D01*
X11659448Y42373974D01*
X11678168Y42360090D01*
X11695438Y42344438D01*
X11711090Y42327168D01*
X11724974Y42308448D01*
X11736956Y42288457D01*
X11746921Y42267387D01*
X11754773Y42245443D01*
X11760437Y42222834D01*
X11763856Y42199779D01*
X11765000Y42176500D01*
X11765000Y41601500D01*
X11763856Y41578221D01*
X11760437Y41555166D01*
X11754773Y41532557D01*
X11746921Y41510613D01*
X11736956Y41489543D01*
X11724974Y41469552D01*
X11711090Y41450832D01*
X11695438Y41433562D01*
X11678168Y41417910D01*
X11659448Y41404026D01*
X11639457Y41392044D01*
X11618387Y41382079D01*
X11596443Y41374227D01*
X11573834Y41368563D01*
X11550779Y41365144D01*
X11527500Y41364000D01*
X11052500Y41364000D01*
X11029221Y41365144D01*
X11006166Y41368563D01*
X10983557Y41374227D01*
X10961613Y41382079D01*
X10940543Y41392044D01*
X10920552Y41404026D01*
X10901832Y41417910D01*
X10884562Y41433562D01*
X10868910Y41450832D01*
X10855026Y41469552D01*
X10843044Y41489543D01*
X10833079Y41510613D01*
X10825227Y41532557D01*
X10819563Y41555166D01*
X10816144Y41578221D01*
X10815000Y41601500D01*
X10815000Y42176500D01*
X10816144Y42199779D01*
X10819563Y42222834D01*
X10825227Y42245443D01*
X10833079Y42267387D01*
X10843044Y42288457D01*
X10855026Y42308448D01*
X10868910Y42327168D01*
X10884562Y42344438D01*
X10901832Y42360090D01*
X10920552Y42373974D01*
X10940543Y42385956D01*
X10961613Y42395921D01*
X10983557Y42403773D01*
X11006166Y42409437D01*
X11029221Y42412856D01*
X11052500Y42414000D01*
X11527500Y42414000D01*
X11550779Y42412856D01*
X11550779Y42412856D01*
G37*
D18*
X11290000Y41889000D03*
D17*
G36*
X8995779Y48513856D02*
G01*
X9018834Y48510437D01*
X9041443Y48504773D01*
X9063387Y48496921D01*
X9084457Y48486956D01*
X9104448Y48474974D01*
X9123168Y48461090D01*
X9140438Y48445438D01*
X9156090Y48428168D01*
X9169974Y48409448D01*
X9181956Y48389457D01*
X9191921Y48368387D01*
X9199773Y48346443D01*
X9205437Y48323834D01*
X9208856Y48300779D01*
X9210000Y48277500D01*
X9210000Y47802500D01*
X9208856Y47779221D01*
X9205437Y47756166D01*
X9199773Y47733557D01*
X9191921Y47711613D01*
X9181956Y47690543D01*
X9169974Y47670552D01*
X9156090Y47651832D01*
X9140438Y47634562D01*
X9123168Y47618910D01*
X9104448Y47605026D01*
X9084457Y47593044D01*
X9063387Y47583079D01*
X9041443Y47575227D01*
X9018834Y47569563D01*
X8995779Y47566144D01*
X8972500Y47565000D01*
X8397500Y47565000D01*
X8374221Y47566144D01*
X8351166Y47569563D01*
X8328557Y47575227D01*
X8306613Y47583079D01*
X8285543Y47593044D01*
X8265552Y47605026D01*
X8246832Y47618910D01*
X8229562Y47634562D01*
X8213910Y47651832D01*
X8200026Y47670552D01*
X8188044Y47690543D01*
X8178079Y47711613D01*
X8170227Y47733557D01*
X8164563Y47756166D01*
X8161144Y47779221D01*
X8160000Y47802500D01*
X8160000Y48277500D01*
X8161144Y48300779D01*
X8164563Y48323834D01*
X8170227Y48346443D01*
X8178079Y48368387D01*
X8188044Y48389457D01*
X8200026Y48409448D01*
X8213910Y48428168D01*
X8229562Y48445438D01*
X8246832Y48461090D01*
X8265552Y48474974D01*
X8285543Y48486956D01*
X8306613Y48496921D01*
X8328557Y48504773D01*
X8351166Y48510437D01*
X8374221Y48513856D01*
X8397500Y48515000D01*
X8972500Y48515000D01*
X8995779Y48513856D01*
X8995779Y48513856D01*
G37*
D18*
X8685000Y48040000D03*
D17*
G36*
X10745779Y48513856D02*
G01*
X10768834Y48510437D01*
X10791443Y48504773D01*
X10813387Y48496921D01*
X10834457Y48486956D01*
X10854448Y48474974D01*
X10873168Y48461090D01*
X10890438Y48445438D01*
X10906090Y48428168D01*
X10919974Y48409448D01*
X10931956Y48389457D01*
X10941921Y48368387D01*
X10949773Y48346443D01*
X10955437Y48323834D01*
X10958856Y48300779D01*
X10960000Y48277500D01*
X10960000Y47802500D01*
X10958856Y47779221D01*
X10955437Y47756166D01*
X10949773Y47733557D01*
X10941921Y47711613D01*
X10931956Y47690543D01*
X10919974Y47670552D01*
X10906090Y47651832D01*
X10890438Y47634562D01*
X10873168Y47618910D01*
X10854448Y47605026D01*
X10834457Y47593044D01*
X10813387Y47583079D01*
X10791443Y47575227D01*
X10768834Y47569563D01*
X10745779Y47566144D01*
X10722500Y47565000D01*
X10147500Y47565000D01*
X10124221Y47566144D01*
X10101166Y47569563D01*
X10078557Y47575227D01*
X10056613Y47583079D01*
X10035543Y47593044D01*
X10015552Y47605026D01*
X9996832Y47618910D01*
X9979562Y47634562D01*
X9963910Y47651832D01*
X9950026Y47670552D01*
X9938044Y47690543D01*
X9928079Y47711613D01*
X9920227Y47733557D01*
X9914563Y47756166D01*
X9911144Y47779221D01*
X9910000Y47802500D01*
X9910000Y48277500D01*
X9911144Y48300779D01*
X9914563Y48323834D01*
X9920227Y48346443D01*
X9928079Y48368387D01*
X9938044Y48389457D01*
X9950026Y48409448D01*
X9963910Y48428168D01*
X9979562Y48445438D01*
X9996832Y48461090D01*
X10015552Y48474974D01*
X10035543Y48486956D01*
X10056613Y48496921D01*
X10078557Y48504773D01*
X10101166Y48510437D01*
X10124221Y48513856D01*
X10147500Y48515000D01*
X10722500Y48515000D01*
X10745779Y48513856D01*
X10745779Y48513856D01*
G37*
D18*
X10435000Y48040000D03*
D17*
G36*
X61171779Y35403856D02*
G01*
X61194834Y35400437D01*
X61217443Y35394773D01*
X61239387Y35386921D01*
X61260457Y35376956D01*
X61280448Y35364974D01*
X61299168Y35351090D01*
X61316438Y35335438D01*
X61332090Y35318168D01*
X61345974Y35299448D01*
X61357956Y35279457D01*
X61367921Y35258387D01*
X61375773Y35236443D01*
X61381437Y35213834D01*
X61384856Y35190779D01*
X61386000Y35167500D01*
X61386000Y34692500D01*
X61384856Y34669221D01*
X61381437Y34646166D01*
X61375773Y34623557D01*
X61367921Y34601613D01*
X61357956Y34580543D01*
X61345974Y34560552D01*
X61332090Y34541832D01*
X61316438Y34524562D01*
X61299168Y34508910D01*
X61280448Y34495026D01*
X61260457Y34483044D01*
X61239387Y34473079D01*
X61217443Y34465227D01*
X61194834Y34459563D01*
X61171779Y34456144D01*
X61148500Y34455000D01*
X60573500Y34455000D01*
X60550221Y34456144D01*
X60527166Y34459563D01*
X60504557Y34465227D01*
X60482613Y34473079D01*
X60461543Y34483044D01*
X60441552Y34495026D01*
X60422832Y34508910D01*
X60405562Y34524562D01*
X60389910Y34541832D01*
X60376026Y34560552D01*
X60364044Y34580543D01*
X60354079Y34601613D01*
X60346227Y34623557D01*
X60340563Y34646166D01*
X60337144Y34669221D01*
X60336000Y34692500D01*
X60336000Y35167500D01*
X60337144Y35190779D01*
X60340563Y35213834D01*
X60346227Y35236443D01*
X60354079Y35258387D01*
X60364044Y35279457D01*
X60376026Y35299448D01*
X60389910Y35318168D01*
X60405562Y35335438D01*
X60422832Y35351090D01*
X60441552Y35364974D01*
X60461543Y35376956D01*
X60482613Y35386921D01*
X60504557Y35394773D01*
X60527166Y35400437D01*
X60550221Y35403856D01*
X60573500Y35405000D01*
X61148500Y35405000D01*
X61171779Y35403856D01*
X61171779Y35403856D01*
G37*
D18*
X60861000Y34930000D03*
D17*
G36*
X62921779Y35403856D02*
G01*
X62944834Y35400437D01*
X62967443Y35394773D01*
X62989387Y35386921D01*
X63010457Y35376956D01*
X63030448Y35364974D01*
X63049168Y35351090D01*
X63066438Y35335438D01*
X63082090Y35318168D01*
X63095974Y35299448D01*
X63107956Y35279457D01*
X63117921Y35258387D01*
X63125773Y35236443D01*
X63131437Y35213834D01*
X63134856Y35190779D01*
X63136000Y35167500D01*
X63136000Y34692500D01*
X63134856Y34669221D01*
X63131437Y34646166D01*
X63125773Y34623557D01*
X63117921Y34601613D01*
X63107956Y34580543D01*
X63095974Y34560552D01*
X63082090Y34541832D01*
X63066438Y34524562D01*
X63049168Y34508910D01*
X63030448Y34495026D01*
X63010457Y34483044D01*
X62989387Y34473079D01*
X62967443Y34465227D01*
X62944834Y34459563D01*
X62921779Y34456144D01*
X62898500Y34455000D01*
X62323500Y34455000D01*
X62300221Y34456144D01*
X62277166Y34459563D01*
X62254557Y34465227D01*
X62232613Y34473079D01*
X62211543Y34483044D01*
X62191552Y34495026D01*
X62172832Y34508910D01*
X62155562Y34524562D01*
X62139910Y34541832D01*
X62126026Y34560552D01*
X62114044Y34580543D01*
X62104079Y34601613D01*
X62096227Y34623557D01*
X62090563Y34646166D01*
X62087144Y34669221D01*
X62086000Y34692500D01*
X62086000Y35167500D01*
X62087144Y35190779D01*
X62090563Y35213834D01*
X62096227Y35236443D01*
X62104079Y35258387D01*
X62114044Y35279457D01*
X62126026Y35299448D01*
X62139910Y35318168D01*
X62155562Y35335438D01*
X62172832Y35351090D01*
X62191552Y35364974D01*
X62211543Y35376956D01*
X62232613Y35386921D01*
X62254557Y35394773D01*
X62277166Y35400437D01*
X62300221Y35403856D01*
X62323500Y35405000D01*
X62898500Y35405000D01*
X62921779Y35403856D01*
X62921779Y35403856D01*
G37*
D18*
X62611000Y34930000D03*
D28*
X11530000Y35300000D03*
D29*
X12330000Y35300000D03*
D28*
X13930000Y35300000D03*
D29*
X13130000Y35300000D03*
D28*
X11530000Y37100000D03*
D29*
X13130000Y37100000D03*
X12330000Y37100000D03*
D28*
X13930000Y37100000D03*
M02*
