G04 #@! TF.GenerationSoftware,KiCad,Pcbnew,(5.1.4)-1*
G04 #@! TF.CreationDate,2019-12-09T09:55:10+11:00*
G04 #@! TF.ProjectId,dingo-hat,64696e67-6f2d-4686-9174-2e6b69636164,rev?*
G04 #@! TF.SameCoordinates,PX7f50c60PY7d37aa0*
G04 #@! TF.FileFunction,Soldermask,Bot*
G04 #@! TF.FilePolarity,Negative*
%FSLAX46Y46*%
G04 Gerber Fmt 4.6, Leading zero omitted, Abs format (unit mm)*
G04 Created by KiCad (PCBNEW (5.1.4)-1) date 2019-12-09 09:55:10*
%MOMM*%
%LPD*%
G04 APERTURE LIST*
%ADD10C,0.010000*%
%ADD11C,0.100000*%
G04 APERTURE END LIST*
D10*
G36*
X17356464Y19248743D02*
G01*
X17339021Y19234307D01*
X17313661Y19210373D01*
X17281967Y19178593D01*
X17245521Y19140619D01*
X17205905Y19098105D01*
X17164702Y19052704D01*
X17123495Y19006067D01*
X17083865Y18959848D01*
X17078221Y18953133D01*
X16899488Y18726856D01*
X16735073Y18491792D01*
X16585227Y18248501D01*
X16450200Y17997544D01*
X16330244Y17739480D01*
X16225610Y17474870D01*
X16136547Y17204274D01*
X16063307Y16928250D01*
X16006141Y16647361D01*
X15984416Y16510500D01*
X15971982Y16421029D01*
X15961922Y16340084D01*
X15954007Y16264159D01*
X15948008Y16189751D01*
X15943697Y16113354D01*
X15940845Y16031465D01*
X15939224Y15940580D01*
X15938606Y15837194D01*
X15938581Y15807767D01*
X15939654Y15666067D01*
X15943127Y15537274D01*
X15949382Y15417483D01*
X15958799Y15302787D01*
X15971759Y15189281D01*
X15988643Y15073059D01*
X16009831Y14950217D01*
X16034785Y14821400D01*
X16097986Y14550579D01*
X16177310Y14282812D01*
X16272180Y14019342D01*
X16382015Y13761411D01*
X16506235Y13510261D01*
X16644262Y13267136D01*
X16795515Y13033278D01*
X16959415Y12809929D01*
X16992378Y12768233D01*
X17180692Y12546180D01*
X17379767Y12337100D01*
X17589188Y12141245D01*
X17808541Y11958867D01*
X18037411Y11790216D01*
X18275384Y11635545D01*
X18522045Y11495104D01*
X18776979Y11369146D01*
X19039773Y11257923D01*
X19310010Y11161685D01*
X19587277Y11080684D01*
X19871159Y11015171D01*
X19887067Y11012001D01*
X19971665Y10996620D01*
X20065779Y10981839D01*
X20165917Y10968039D01*
X20268590Y10955602D01*
X20370305Y10944909D01*
X20467571Y10936343D01*
X20556897Y10930285D01*
X20634793Y10927117D01*
X20666726Y10926735D01*
X20739418Y10926733D01*
X20816926Y10736233D01*
X20934080Y10735573D01*
X20981732Y10735535D01*
X21027748Y10735907D01*
X21067236Y10736622D01*
X21095303Y10737616D01*
X21097800Y10737759D01*
X21392229Y10764013D01*
X21683216Y10806459D01*
X21970083Y10864882D01*
X22252150Y10939068D01*
X22528740Y11028801D01*
X22799173Y11133866D01*
X23062771Y11254050D01*
X23318856Y11389137D01*
X23505422Y11500003D01*
X23747932Y11661154D01*
X23979036Y11834449D01*
X24198455Y12019283D01*
X24405907Y12215049D01*
X24601114Y12421142D01*
X24783796Y12636957D01*
X24953671Y12861889D01*
X25110461Y13095332D01*
X25253884Y13336681D01*
X25383662Y13585329D01*
X25499514Y13840673D01*
X25601160Y14102106D01*
X25688320Y14369022D01*
X25760715Y14640817D01*
X25818063Y14916885D01*
X25860085Y15196621D01*
X25886501Y15479419D01*
X25897031Y15764673D01*
X25891396Y16051779D01*
X25869314Y16340130D01*
X25842387Y16552833D01*
X25792893Y16831752D01*
X25727433Y17109041D01*
X25646633Y17382664D01*
X25551120Y17650584D01*
X25441519Y17910766D01*
X25393541Y18012906D01*
X25370117Y18060636D01*
X25344358Y18112040D01*
X25317549Y18164666D01*
X25290975Y18216061D01*
X25265919Y18263773D01*
X25243667Y18305348D01*
X25225504Y18338334D01*
X25212713Y18360278D01*
X25207734Y18367650D01*
X25199983Y18364922D01*
X25181433Y18355336D01*
X25155657Y18340989D01*
X25126226Y18323982D01*
X25096712Y18306413D01*
X25070685Y18290381D01*
X25051719Y18277985D01*
X25043384Y18271324D01*
X25043267Y18270996D01*
X25047181Y18262259D01*
X25057688Y18242301D01*
X25072941Y18214582D01*
X25082707Y18197239D01*
X25110588Y18146214D01*
X25143196Y18083457D01*
X25178658Y18012832D01*
X25215105Y17938202D01*
X25250662Y17863431D01*
X25283460Y17792382D01*
X25311625Y17728919D01*
X25325628Y17695833D01*
X25426898Y17429999D01*
X25512200Y17161490D01*
X25581818Y16889082D01*
X25636032Y16611552D01*
X25675126Y16327677D01*
X25695959Y16091400D01*
X25701689Y15967239D01*
X25703391Y15831121D01*
X25701246Y15687493D01*
X25695433Y15540801D01*
X25686133Y15395489D01*
X25673527Y15256005D01*
X25657793Y15126793D01*
X25656505Y15117733D01*
X25608425Y14841981D01*
X25543915Y14568192D01*
X25463461Y14297549D01*
X25367549Y14031234D01*
X25256665Y13770431D01*
X25131295Y13516321D01*
X24991924Y13270088D01*
X24839038Y13032915D01*
X24747114Y12903700D01*
X24581684Y12692311D01*
X24402964Y12488650D01*
X24212588Y12294231D01*
X24012191Y12110569D01*
X23803406Y11939180D01*
X23587868Y11781579D01*
X23414968Y11668487D01*
X23169052Y11524699D01*
X22920472Y11397151D01*
X22667691Y11285188D01*
X22409171Y11188153D01*
X22143375Y11105392D01*
X22012494Y11070477D01*
X21844789Y11031698D01*
X21671180Y10998368D01*
X21495254Y10970931D01*
X21320603Y10949835D01*
X21150814Y10935526D01*
X20989477Y10928450D01*
X20869200Y10928291D01*
X20737967Y10930966D01*
X20660905Y11121466D01*
X20638239Y11177468D01*
X20610710Y11245437D01*
X20579825Y11321654D01*
X20547093Y11402397D01*
X20514022Y11483947D01*
X20482120Y11562582D01*
X20468720Y11595600D01*
X20439735Y11667037D01*
X20405054Y11752551D01*
X20365334Y11850526D01*
X20321230Y11959340D01*
X20273397Y12077376D01*
X20222492Y12203015D01*
X20169170Y12334637D01*
X20114086Y12470623D01*
X20057897Y12609355D01*
X20001257Y12749213D01*
X19944824Y12888579D01*
X19889251Y13025834D01*
X19835195Y13159358D01*
X19783312Y13287533D01*
X19734256Y13408739D01*
X19688685Y13521359D01*
X19647253Y13623772D01*
X19610616Y13714360D01*
X19580657Y13788466D01*
X19544552Y13877766D01*
X19505710Y13973775D01*
X19465563Y14072955D01*
X19425544Y14171767D01*
X19387087Y14266675D01*
X19351625Y14354138D01*
X19320591Y14430619D01*
X19311462Y14453100D01*
X19287714Y14511595D01*
X19258001Y14584824D01*
X19222713Y14671825D01*
X19182240Y14771637D01*
X19136971Y14883298D01*
X19087297Y15005845D01*
X19033606Y15138318D01*
X18976288Y15279754D01*
X18915732Y15429191D01*
X18852329Y15585668D01*
X18786468Y15748222D01*
X18718538Y15915893D01*
X18648929Y16087718D01*
X18578031Y16262735D01*
X18506233Y16439982D01*
X18433925Y16618498D01*
X18361496Y16797321D01*
X18289336Y16975489D01*
X18217834Y17152040D01*
X18147381Y17326012D01*
X18078365Y17496444D01*
X18011176Y17662373D01*
X17946205Y17822838D01*
X17883840Y17976878D01*
X17824470Y18123529D01*
X17768487Y18261831D01*
X17716278Y18390822D01*
X17668234Y18509539D01*
X17624745Y18617021D01*
X17586199Y18712307D01*
X17552987Y18794433D01*
X17533328Y18843067D01*
X17501694Y18921165D01*
X17471847Y18994523D01*
X17444408Y19061636D01*
X17419998Y19121003D01*
X17399238Y19171119D01*
X17382748Y19210482D01*
X17371149Y19237588D01*
X17365063Y19250935D01*
X17364407Y19252028D01*
X17356464Y19248743D01*
X17356464Y19248743D01*
G37*
X17356464Y19248743D02*
X17339021Y19234307D01*
X17313661Y19210373D01*
X17281967Y19178593D01*
X17245521Y19140619D01*
X17205905Y19098105D01*
X17164702Y19052704D01*
X17123495Y19006067D01*
X17083865Y18959848D01*
X17078221Y18953133D01*
X16899488Y18726856D01*
X16735073Y18491792D01*
X16585227Y18248501D01*
X16450200Y17997544D01*
X16330244Y17739480D01*
X16225610Y17474870D01*
X16136547Y17204274D01*
X16063307Y16928250D01*
X16006141Y16647361D01*
X15984416Y16510500D01*
X15971982Y16421029D01*
X15961922Y16340084D01*
X15954007Y16264159D01*
X15948008Y16189751D01*
X15943697Y16113354D01*
X15940845Y16031465D01*
X15939224Y15940580D01*
X15938606Y15837194D01*
X15938581Y15807767D01*
X15939654Y15666067D01*
X15943127Y15537274D01*
X15949382Y15417483D01*
X15958799Y15302787D01*
X15971759Y15189281D01*
X15988643Y15073059D01*
X16009831Y14950217D01*
X16034785Y14821400D01*
X16097986Y14550579D01*
X16177310Y14282812D01*
X16272180Y14019342D01*
X16382015Y13761411D01*
X16506235Y13510261D01*
X16644262Y13267136D01*
X16795515Y13033278D01*
X16959415Y12809929D01*
X16992378Y12768233D01*
X17180692Y12546180D01*
X17379767Y12337100D01*
X17589188Y12141245D01*
X17808541Y11958867D01*
X18037411Y11790216D01*
X18275384Y11635545D01*
X18522045Y11495104D01*
X18776979Y11369146D01*
X19039773Y11257923D01*
X19310010Y11161685D01*
X19587277Y11080684D01*
X19871159Y11015171D01*
X19887067Y11012001D01*
X19971665Y10996620D01*
X20065779Y10981839D01*
X20165917Y10968039D01*
X20268590Y10955602D01*
X20370305Y10944909D01*
X20467571Y10936343D01*
X20556897Y10930285D01*
X20634793Y10927117D01*
X20666726Y10926735D01*
X20739418Y10926733D01*
X20816926Y10736233D01*
X20934080Y10735573D01*
X20981732Y10735535D01*
X21027748Y10735907D01*
X21067236Y10736622D01*
X21095303Y10737616D01*
X21097800Y10737759D01*
X21392229Y10764013D01*
X21683216Y10806459D01*
X21970083Y10864882D01*
X22252150Y10939068D01*
X22528740Y11028801D01*
X22799173Y11133866D01*
X23062771Y11254050D01*
X23318856Y11389137D01*
X23505422Y11500003D01*
X23747932Y11661154D01*
X23979036Y11834449D01*
X24198455Y12019283D01*
X24405907Y12215049D01*
X24601114Y12421142D01*
X24783796Y12636957D01*
X24953671Y12861889D01*
X25110461Y13095332D01*
X25253884Y13336681D01*
X25383662Y13585329D01*
X25499514Y13840673D01*
X25601160Y14102106D01*
X25688320Y14369022D01*
X25760715Y14640817D01*
X25818063Y14916885D01*
X25860085Y15196621D01*
X25886501Y15479419D01*
X25897031Y15764673D01*
X25891396Y16051779D01*
X25869314Y16340130D01*
X25842387Y16552833D01*
X25792893Y16831752D01*
X25727433Y17109041D01*
X25646633Y17382664D01*
X25551120Y17650584D01*
X25441519Y17910766D01*
X25393541Y18012906D01*
X25370117Y18060636D01*
X25344358Y18112040D01*
X25317549Y18164666D01*
X25290975Y18216061D01*
X25265919Y18263773D01*
X25243667Y18305348D01*
X25225504Y18338334D01*
X25212713Y18360278D01*
X25207734Y18367650D01*
X25199983Y18364922D01*
X25181433Y18355336D01*
X25155657Y18340989D01*
X25126226Y18323982D01*
X25096712Y18306413D01*
X25070685Y18290381D01*
X25051719Y18277985D01*
X25043384Y18271324D01*
X25043267Y18270996D01*
X25047181Y18262259D01*
X25057688Y18242301D01*
X25072941Y18214582D01*
X25082707Y18197239D01*
X25110588Y18146214D01*
X25143196Y18083457D01*
X25178658Y18012832D01*
X25215105Y17938202D01*
X25250662Y17863431D01*
X25283460Y17792382D01*
X25311625Y17728919D01*
X25325628Y17695833D01*
X25426898Y17429999D01*
X25512200Y17161490D01*
X25581818Y16889082D01*
X25636032Y16611552D01*
X25675126Y16327677D01*
X25695959Y16091400D01*
X25701689Y15967239D01*
X25703391Y15831121D01*
X25701246Y15687493D01*
X25695433Y15540801D01*
X25686133Y15395489D01*
X25673527Y15256005D01*
X25657793Y15126793D01*
X25656505Y15117733D01*
X25608425Y14841981D01*
X25543915Y14568192D01*
X25463461Y14297549D01*
X25367549Y14031234D01*
X25256665Y13770431D01*
X25131295Y13516321D01*
X24991924Y13270088D01*
X24839038Y13032915D01*
X24747114Y12903700D01*
X24581684Y12692311D01*
X24402964Y12488650D01*
X24212588Y12294231D01*
X24012191Y12110569D01*
X23803406Y11939180D01*
X23587868Y11781579D01*
X23414968Y11668487D01*
X23169052Y11524699D01*
X22920472Y11397151D01*
X22667691Y11285188D01*
X22409171Y11188153D01*
X22143375Y11105392D01*
X22012494Y11070477D01*
X21844789Y11031698D01*
X21671180Y10998368D01*
X21495254Y10970931D01*
X21320603Y10949835D01*
X21150814Y10935526D01*
X20989477Y10928450D01*
X20869200Y10928291D01*
X20737967Y10930966D01*
X20660905Y11121466D01*
X20638239Y11177468D01*
X20610710Y11245437D01*
X20579825Y11321654D01*
X20547093Y11402397D01*
X20514022Y11483947D01*
X20482120Y11562582D01*
X20468720Y11595600D01*
X20439735Y11667037D01*
X20405054Y11752551D01*
X20365334Y11850526D01*
X20321230Y11959340D01*
X20273397Y12077376D01*
X20222492Y12203015D01*
X20169170Y12334637D01*
X20114086Y12470623D01*
X20057897Y12609355D01*
X20001257Y12749213D01*
X19944824Y12888579D01*
X19889251Y13025834D01*
X19835195Y13159358D01*
X19783312Y13287533D01*
X19734256Y13408739D01*
X19688685Y13521359D01*
X19647253Y13623772D01*
X19610616Y13714360D01*
X19580657Y13788466D01*
X19544552Y13877766D01*
X19505710Y13973775D01*
X19465563Y14072955D01*
X19425544Y14171767D01*
X19387087Y14266675D01*
X19351625Y14354138D01*
X19320591Y14430619D01*
X19311462Y14453100D01*
X19287714Y14511595D01*
X19258001Y14584824D01*
X19222713Y14671825D01*
X19182240Y14771637D01*
X19136971Y14883298D01*
X19087297Y15005845D01*
X19033606Y15138318D01*
X18976288Y15279754D01*
X18915732Y15429191D01*
X18852329Y15585668D01*
X18786468Y15748222D01*
X18718538Y15915893D01*
X18648929Y16087718D01*
X18578031Y16262735D01*
X18506233Y16439982D01*
X18433925Y16618498D01*
X18361496Y16797321D01*
X18289336Y16975489D01*
X18217834Y17152040D01*
X18147381Y17326012D01*
X18078365Y17496444D01*
X18011176Y17662373D01*
X17946205Y17822838D01*
X17883840Y17976878D01*
X17824470Y18123529D01*
X17768487Y18261831D01*
X17716278Y18390822D01*
X17668234Y18509539D01*
X17624745Y18617021D01*
X17586199Y18712307D01*
X17552987Y18794433D01*
X17533328Y18843067D01*
X17501694Y18921165D01*
X17471847Y18994523D01*
X17444408Y19061636D01*
X17419998Y19121003D01*
X17399238Y19171119D01*
X17382748Y19210482D01*
X17371149Y19237588D01*
X17365063Y19250935D01*
X17364407Y19252028D01*
X17356464Y19248743D01*
D11*
G36*
X56738707Y3292403D02*
G01*
X56815836Y3284807D01*
X57013762Y3224767D01*
X57013765Y3224766D01*
X57196170Y3127268D01*
X57356055Y2996055D01*
X57487268Y2836170D01*
X57584766Y2653765D01*
X57584767Y2653762D01*
X57644807Y2455836D01*
X57665080Y2250000D01*
X57644807Y2044164D01*
X57625343Y1980000D01*
X57584766Y1846235D01*
X57487268Y1663830D01*
X57356055Y1503945D01*
X57196170Y1372732D01*
X57013765Y1275234D01*
X57013762Y1275233D01*
X56815836Y1215193D01*
X56738707Y1207596D01*
X56661580Y1200000D01*
X56558420Y1200000D01*
X56481293Y1207596D01*
X56404164Y1215193D01*
X56206238Y1275233D01*
X56206235Y1275234D01*
X56023830Y1372732D01*
X55863945Y1503945D01*
X55732732Y1663830D01*
X55635234Y1846235D01*
X55594657Y1980000D01*
X55575193Y2044164D01*
X55554920Y2250000D01*
X55575193Y2455836D01*
X55635233Y2653762D01*
X55635234Y2653765D01*
X55732732Y2836170D01*
X55863945Y2996055D01*
X56023830Y3127268D01*
X56206235Y3224766D01*
X56206238Y3224767D01*
X56404164Y3284807D01*
X56481293Y3292403D01*
X56558420Y3300000D01*
X56661580Y3300000D01*
X56738707Y3292403D01*
X56738707Y3292403D01*
G37*
G36*
X33878707Y3292403D02*
G01*
X33955836Y3284807D01*
X34153762Y3224767D01*
X34153765Y3224766D01*
X34336170Y3127268D01*
X34496055Y2996055D01*
X34627268Y2836170D01*
X34724766Y2653765D01*
X34724767Y2653762D01*
X34784807Y2455836D01*
X34805080Y2250000D01*
X34784807Y2044164D01*
X34765343Y1980000D01*
X34724766Y1846235D01*
X34627268Y1663830D01*
X34496055Y1503945D01*
X34336170Y1372732D01*
X34153765Y1275234D01*
X34153762Y1275233D01*
X33955836Y1215193D01*
X33878707Y1207596D01*
X33801580Y1200000D01*
X33698420Y1200000D01*
X33621293Y1207596D01*
X33544164Y1215193D01*
X33346238Y1275233D01*
X33346235Y1275234D01*
X33163830Y1372732D01*
X33003945Y1503945D01*
X32872732Y1663830D01*
X32775234Y1846235D01*
X32734657Y1980000D01*
X32715193Y2044164D01*
X32694920Y2250000D01*
X32715193Y2455836D01*
X32775233Y2653762D01*
X32775234Y2653765D01*
X32872732Y2836170D01*
X33003945Y2996055D01*
X33163830Y3127268D01*
X33346235Y3224766D01*
X33346238Y3224767D01*
X33544164Y3284807D01*
X33621293Y3292403D01*
X33698420Y3300000D01*
X33801580Y3300000D01*
X33878707Y3292403D01*
X33878707Y3292403D01*
G37*
G36*
X28798707Y3292403D02*
G01*
X28875836Y3284807D01*
X29073762Y3224767D01*
X29073765Y3224766D01*
X29256170Y3127268D01*
X29416055Y2996055D01*
X29547268Y2836170D01*
X29644766Y2653765D01*
X29644767Y2653762D01*
X29704807Y2455836D01*
X29725080Y2250000D01*
X29704807Y2044164D01*
X29685343Y1980000D01*
X29644766Y1846235D01*
X29547268Y1663830D01*
X29416055Y1503945D01*
X29256170Y1372732D01*
X29073765Y1275234D01*
X29073762Y1275233D01*
X28875836Y1215193D01*
X28798707Y1207596D01*
X28721580Y1200000D01*
X28618420Y1200000D01*
X28541293Y1207596D01*
X28464164Y1215193D01*
X28266238Y1275233D01*
X28266235Y1275234D01*
X28083830Y1372732D01*
X27923945Y1503945D01*
X27792732Y1663830D01*
X27695234Y1846235D01*
X27654657Y1980000D01*
X27635193Y2044164D01*
X27614920Y2250000D01*
X27635193Y2455836D01*
X27695233Y2653762D01*
X27695234Y2653765D01*
X27792732Y2836170D01*
X27923945Y2996055D01*
X28083830Y3127268D01*
X28266235Y3224766D01*
X28266238Y3224767D01*
X28464164Y3284807D01*
X28541293Y3292403D01*
X28618420Y3300000D01*
X28721580Y3300000D01*
X28798707Y3292403D01*
X28798707Y3292403D01*
G37*
G36*
X26258707Y3292403D02*
G01*
X26335836Y3284807D01*
X26533762Y3224767D01*
X26533765Y3224766D01*
X26716170Y3127268D01*
X26876055Y2996055D01*
X27007268Y2836170D01*
X27104766Y2653765D01*
X27104767Y2653762D01*
X27164807Y2455836D01*
X27185080Y2250000D01*
X27164807Y2044164D01*
X27145343Y1980000D01*
X27104766Y1846235D01*
X27007268Y1663830D01*
X26876055Y1503945D01*
X26716170Y1372732D01*
X26533765Y1275234D01*
X26533762Y1275233D01*
X26335836Y1215193D01*
X26258707Y1207596D01*
X26181580Y1200000D01*
X26078420Y1200000D01*
X26001293Y1207596D01*
X25924164Y1215193D01*
X25726238Y1275233D01*
X25726235Y1275234D01*
X25543830Y1372732D01*
X25383945Y1503945D01*
X25252732Y1663830D01*
X25155234Y1846235D01*
X25114657Y1980000D01*
X25095193Y2044164D01*
X25074920Y2250000D01*
X25095193Y2455836D01*
X25155233Y2653762D01*
X25155234Y2653765D01*
X25252732Y2836170D01*
X25383945Y2996055D01*
X25543830Y3127268D01*
X25726235Y3224766D01*
X25726238Y3224767D01*
X25924164Y3284807D01*
X26001293Y3292403D01*
X26078420Y3300000D01*
X26181580Y3300000D01*
X26258707Y3292403D01*
X26258707Y3292403D01*
G37*
G36*
X23718707Y3292403D02*
G01*
X23795836Y3284807D01*
X23993762Y3224767D01*
X23993765Y3224766D01*
X24176170Y3127268D01*
X24336055Y2996055D01*
X24467268Y2836170D01*
X24564766Y2653765D01*
X24564767Y2653762D01*
X24624807Y2455836D01*
X24645080Y2250000D01*
X24624807Y2044164D01*
X24605343Y1980000D01*
X24564766Y1846235D01*
X24467268Y1663830D01*
X24336055Y1503945D01*
X24176170Y1372732D01*
X23993765Y1275234D01*
X23993762Y1275233D01*
X23795836Y1215193D01*
X23718707Y1207596D01*
X23641580Y1200000D01*
X23538420Y1200000D01*
X23461293Y1207596D01*
X23384164Y1215193D01*
X23186238Y1275233D01*
X23186235Y1275234D01*
X23003830Y1372732D01*
X22843945Y1503945D01*
X22712732Y1663830D01*
X22615234Y1846235D01*
X22574657Y1980000D01*
X22555193Y2044164D01*
X22534920Y2250000D01*
X22555193Y2455836D01*
X22615233Y2653762D01*
X22615234Y2653765D01*
X22712732Y2836170D01*
X22843945Y2996055D01*
X23003830Y3127268D01*
X23186235Y3224766D01*
X23186238Y3224767D01*
X23384164Y3284807D01*
X23461293Y3292403D01*
X23538420Y3300000D01*
X23641580Y3300000D01*
X23718707Y3292403D01*
X23718707Y3292403D01*
G37*
G36*
X21178707Y3292403D02*
G01*
X21255836Y3284807D01*
X21453762Y3224767D01*
X21453765Y3224766D01*
X21636170Y3127268D01*
X21796055Y2996055D01*
X21927268Y2836170D01*
X22024766Y2653765D01*
X22024767Y2653762D01*
X22084807Y2455836D01*
X22105080Y2250000D01*
X22084807Y2044164D01*
X22065343Y1980000D01*
X22024766Y1846235D01*
X21927268Y1663830D01*
X21796055Y1503945D01*
X21636170Y1372732D01*
X21453765Y1275234D01*
X21453762Y1275233D01*
X21255836Y1215193D01*
X21178707Y1207596D01*
X21101580Y1200000D01*
X20998420Y1200000D01*
X20921293Y1207596D01*
X20844164Y1215193D01*
X20646238Y1275233D01*
X20646235Y1275234D01*
X20463830Y1372732D01*
X20303945Y1503945D01*
X20172732Y1663830D01*
X20075234Y1846235D01*
X20034657Y1980000D01*
X20015193Y2044164D01*
X19994920Y2250000D01*
X20015193Y2455836D01*
X20075233Y2653762D01*
X20075234Y2653765D01*
X20172732Y2836170D01*
X20303945Y2996055D01*
X20463830Y3127268D01*
X20646235Y3224766D01*
X20646238Y3224767D01*
X20844164Y3284807D01*
X20921293Y3292403D01*
X20998420Y3300000D01*
X21101580Y3300000D01*
X21178707Y3292403D01*
X21178707Y3292403D01*
G37*
G36*
X18638707Y3292403D02*
G01*
X18715836Y3284807D01*
X18913762Y3224767D01*
X18913765Y3224766D01*
X19096170Y3127268D01*
X19256055Y2996055D01*
X19387268Y2836170D01*
X19484766Y2653765D01*
X19484767Y2653762D01*
X19544807Y2455836D01*
X19565080Y2250000D01*
X19544807Y2044164D01*
X19525343Y1980000D01*
X19484766Y1846235D01*
X19387268Y1663830D01*
X19256055Y1503945D01*
X19096170Y1372732D01*
X18913765Y1275234D01*
X18913762Y1275233D01*
X18715836Y1215193D01*
X18638707Y1207596D01*
X18561580Y1200000D01*
X18458420Y1200000D01*
X18381293Y1207596D01*
X18304164Y1215193D01*
X18106238Y1275233D01*
X18106235Y1275234D01*
X17923830Y1372732D01*
X17763945Y1503945D01*
X17632732Y1663830D01*
X17535234Y1846235D01*
X17494657Y1980000D01*
X17475193Y2044164D01*
X17454920Y2250000D01*
X17475193Y2455836D01*
X17535233Y2653762D01*
X17535234Y2653765D01*
X17632732Y2836170D01*
X17763945Y2996055D01*
X17923830Y3127268D01*
X18106235Y3224766D01*
X18106238Y3224767D01*
X18304164Y3284807D01*
X18381293Y3292403D01*
X18458420Y3300000D01*
X18561580Y3300000D01*
X18638707Y3292403D01*
X18638707Y3292403D01*
G37*
G36*
X16098707Y3292403D02*
G01*
X16175836Y3284807D01*
X16373762Y3224767D01*
X16373765Y3224766D01*
X16556170Y3127268D01*
X16716055Y2996055D01*
X16847268Y2836170D01*
X16944766Y2653765D01*
X16944767Y2653762D01*
X17004807Y2455836D01*
X17025080Y2250000D01*
X17004807Y2044164D01*
X16985343Y1980000D01*
X16944766Y1846235D01*
X16847268Y1663830D01*
X16716055Y1503945D01*
X16556170Y1372732D01*
X16373765Y1275234D01*
X16373762Y1275233D01*
X16175836Y1215193D01*
X16098707Y1207596D01*
X16021580Y1200000D01*
X15918420Y1200000D01*
X15841293Y1207596D01*
X15764164Y1215193D01*
X15566238Y1275233D01*
X15566235Y1275234D01*
X15383830Y1372732D01*
X15223945Y1503945D01*
X15092732Y1663830D01*
X14995234Y1846235D01*
X14954657Y1980000D01*
X14935193Y2044164D01*
X14914920Y2250000D01*
X14935193Y2455836D01*
X14995233Y2653762D01*
X14995234Y2653765D01*
X15092732Y2836170D01*
X15223945Y2996055D01*
X15383830Y3127268D01*
X15566235Y3224766D01*
X15566238Y3224767D01*
X15764164Y3284807D01*
X15841293Y3292403D01*
X15918420Y3300000D01*
X16021580Y3300000D01*
X16098707Y3292403D01*
X16098707Y3292403D01*
G37*
G36*
X13558707Y3292403D02*
G01*
X13635836Y3284807D01*
X13833762Y3224767D01*
X13833765Y3224766D01*
X14016170Y3127268D01*
X14176055Y2996055D01*
X14307268Y2836170D01*
X14404766Y2653765D01*
X14404767Y2653762D01*
X14464807Y2455836D01*
X14485080Y2250000D01*
X14464807Y2044164D01*
X14445343Y1980000D01*
X14404766Y1846235D01*
X14307268Y1663830D01*
X14176055Y1503945D01*
X14016170Y1372732D01*
X13833765Y1275234D01*
X13833762Y1275233D01*
X13635836Y1215193D01*
X13558707Y1207596D01*
X13481580Y1200000D01*
X13378420Y1200000D01*
X13301293Y1207596D01*
X13224164Y1215193D01*
X13026238Y1275233D01*
X13026235Y1275234D01*
X12843830Y1372732D01*
X12683945Y1503945D01*
X12552732Y1663830D01*
X12455234Y1846235D01*
X12414657Y1980000D01*
X12395193Y2044164D01*
X12374920Y2250000D01*
X12395193Y2455836D01*
X12455233Y2653762D01*
X12455234Y2653765D01*
X12552732Y2836170D01*
X12683945Y2996055D01*
X12843830Y3127268D01*
X13026235Y3224766D01*
X13026238Y3224767D01*
X13224164Y3284807D01*
X13301293Y3292403D01*
X13378420Y3300000D01*
X13481580Y3300000D01*
X13558707Y3292403D01*
X13558707Y3292403D01*
G37*
G36*
X11018707Y3292403D02*
G01*
X11095836Y3284807D01*
X11293762Y3224767D01*
X11293765Y3224766D01*
X11476170Y3127268D01*
X11636055Y2996055D01*
X11767268Y2836170D01*
X11864766Y2653765D01*
X11864767Y2653762D01*
X11924807Y2455836D01*
X11945080Y2250000D01*
X11924807Y2044164D01*
X11905343Y1980000D01*
X11864766Y1846235D01*
X11767268Y1663830D01*
X11636055Y1503945D01*
X11476170Y1372732D01*
X11293765Y1275234D01*
X11293762Y1275233D01*
X11095836Y1215193D01*
X11018707Y1207596D01*
X10941580Y1200000D01*
X10838420Y1200000D01*
X10761293Y1207596D01*
X10684164Y1215193D01*
X10486238Y1275233D01*
X10486235Y1275234D01*
X10303830Y1372732D01*
X10143945Y1503945D01*
X10012732Y1663830D01*
X9915234Y1846235D01*
X9874657Y1980000D01*
X9855193Y2044164D01*
X9834920Y2250000D01*
X9855193Y2455836D01*
X9915233Y2653762D01*
X9915234Y2653765D01*
X10012732Y2836170D01*
X10143945Y2996055D01*
X10303830Y3127268D01*
X10486235Y3224766D01*
X10486238Y3224767D01*
X10684164Y3284807D01*
X10761293Y3292403D01*
X10838420Y3300000D01*
X10941580Y3300000D01*
X11018707Y3292403D01*
X11018707Y3292403D01*
G37*
G36*
X8478707Y3292403D02*
G01*
X8555836Y3284807D01*
X8753762Y3224767D01*
X8753765Y3224766D01*
X8936170Y3127268D01*
X9096055Y2996055D01*
X9227268Y2836170D01*
X9324766Y2653765D01*
X9324767Y2653762D01*
X9384807Y2455836D01*
X9405080Y2250000D01*
X9384807Y2044164D01*
X9365343Y1980000D01*
X9324766Y1846235D01*
X9227268Y1663830D01*
X9096055Y1503945D01*
X8936170Y1372732D01*
X8753765Y1275234D01*
X8753762Y1275233D01*
X8555836Y1215193D01*
X8478707Y1207596D01*
X8401580Y1200000D01*
X8298420Y1200000D01*
X8221293Y1207596D01*
X8144164Y1215193D01*
X7946238Y1275233D01*
X7946235Y1275234D01*
X7763830Y1372732D01*
X7603945Y1503945D01*
X7472732Y1663830D01*
X7375234Y1846235D01*
X7334657Y1980000D01*
X7315193Y2044164D01*
X7294920Y2250000D01*
X7315193Y2455836D01*
X7375233Y2653762D01*
X7375234Y2653765D01*
X7472732Y2836170D01*
X7603945Y2996055D01*
X7763830Y3127268D01*
X7946235Y3224766D01*
X7946238Y3224767D01*
X8144164Y3284807D01*
X8221293Y3292403D01*
X8298420Y3300000D01*
X8401580Y3300000D01*
X8478707Y3292403D01*
X8478707Y3292403D01*
G37*
G36*
X36418707Y3292403D02*
G01*
X36495836Y3284807D01*
X36693762Y3224767D01*
X36693765Y3224766D01*
X36876170Y3127268D01*
X37036055Y2996055D01*
X37167268Y2836170D01*
X37264766Y2653765D01*
X37264767Y2653762D01*
X37324807Y2455836D01*
X37345080Y2250000D01*
X37324807Y2044164D01*
X37305343Y1980000D01*
X37264766Y1846235D01*
X37167268Y1663830D01*
X37036055Y1503945D01*
X36876170Y1372732D01*
X36693765Y1275234D01*
X36693762Y1275233D01*
X36495836Y1215193D01*
X36418707Y1207596D01*
X36341580Y1200000D01*
X36238420Y1200000D01*
X36161293Y1207596D01*
X36084164Y1215193D01*
X35886238Y1275233D01*
X35886235Y1275234D01*
X35703830Y1372732D01*
X35543945Y1503945D01*
X35412732Y1663830D01*
X35315234Y1846235D01*
X35274657Y1980000D01*
X35255193Y2044164D01*
X35234920Y2250000D01*
X35255193Y2455836D01*
X35315233Y2653762D01*
X35315234Y2653765D01*
X35412732Y2836170D01*
X35543945Y2996055D01*
X35703830Y3127268D01*
X35886235Y3224766D01*
X35886238Y3224767D01*
X36084164Y3284807D01*
X36161293Y3292403D01*
X36238420Y3300000D01*
X36341580Y3300000D01*
X36418707Y3292403D01*
X36418707Y3292403D01*
G37*
G36*
X38958707Y3292403D02*
G01*
X39035836Y3284807D01*
X39233762Y3224767D01*
X39233765Y3224766D01*
X39416170Y3127268D01*
X39576055Y2996055D01*
X39707268Y2836170D01*
X39804766Y2653765D01*
X39804767Y2653762D01*
X39864807Y2455836D01*
X39885080Y2250000D01*
X39864807Y2044164D01*
X39845343Y1980000D01*
X39804766Y1846235D01*
X39707268Y1663830D01*
X39576055Y1503945D01*
X39416170Y1372732D01*
X39233765Y1275234D01*
X39233762Y1275233D01*
X39035836Y1215193D01*
X38958707Y1207596D01*
X38881580Y1200000D01*
X38778420Y1200000D01*
X38701293Y1207596D01*
X38624164Y1215193D01*
X38426238Y1275233D01*
X38426235Y1275234D01*
X38243830Y1372732D01*
X38083945Y1503945D01*
X37952732Y1663830D01*
X37855234Y1846235D01*
X37814657Y1980000D01*
X37795193Y2044164D01*
X37774920Y2250000D01*
X37795193Y2455836D01*
X37855233Y2653762D01*
X37855234Y2653765D01*
X37952732Y2836170D01*
X38083945Y2996055D01*
X38243830Y3127268D01*
X38426235Y3224766D01*
X38426238Y3224767D01*
X38624164Y3284807D01*
X38701293Y3292403D01*
X38778420Y3300000D01*
X38881580Y3300000D01*
X38958707Y3292403D01*
X38958707Y3292403D01*
G37*
G36*
X41498707Y3292403D02*
G01*
X41575836Y3284807D01*
X41773762Y3224767D01*
X41773765Y3224766D01*
X41956170Y3127268D01*
X42116055Y2996055D01*
X42247268Y2836170D01*
X42344766Y2653765D01*
X42344767Y2653762D01*
X42404807Y2455836D01*
X42425080Y2250000D01*
X42404807Y2044164D01*
X42385343Y1980000D01*
X42344766Y1846235D01*
X42247268Y1663830D01*
X42116055Y1503945D01*
X41956170Y1372732D01*
X41773765Y1275234D01*
X41773762Y1275233D01*
X41575836Y1215193D01*
X41498707Y1207596D01*
X41421580Y1200000D01*
X41318420Y1200000D01*
X41241293Y1207596D01*
X41164164Y1215193D01*
X40966238Y1275233D01*
X40966235Y1275234D01*
X40783830Y1372732D01*
X40623945Y1503945D01*
X40492732Y1663830D01*
X40395234Y1846235D01*
X40354657Y1980000D01*
X40335193Y2044164D01*
X40314920Y2250000D01*
X40335193Y2455836D01*
X40395233Y2653762D01*
X40395234Y2653765D01*
X40492732Y2836170D01*
X40623945Y2996055D01*
X40783830Y3127268D01*
X40966235Y3224766D01*
X40966238Y3224767D01*
X41164164Y3284807D01*
X41241293Y3292403D01*
X41318420Y3300000D01*
X41421580Y3300000D01*
X41498707Y3292403D01*
X41498707Y3292403D01*
G37*
G36*
X44038707Y3292403D02*
G01*
X44115836Y3284807D01*
X44313762Y3224767D01*
X44313765Y3224766D01*
X44496170Y3127268D01*
X44656055Y2996055D01*
X44787268Y2836170D01*
X44884766Y2653765D01*
X44884767Y2653762D01*
X44944807Y2455836D01*
X44965080Y2250000D01*
X44944807Y2044164D01*
X44925343Y1980000D01*
X44884766Y1846235D01*
X44787268Y1663830D01*
X44656055Y1503945D01*
X44496170Y1372732D01*
X44313765Y1275234D01*
X44313762Y1275233D01*
X44115836Y1215193D01*
X44038707Y1207596D01*
X43961580Y1200000D01*
X43858420Y1200000D01*
X43781293Y1207596D01*
X43704164Y1215193D01*
X43506238Y1275233D01*
X43506235Y1275234D01*
X43323830Y1372732D01*
X43163945Y1503945D01*
X43032732Y1663830D01*
X42935234Y1846235D01*
X42894657Y1980000D01*
X42875193Y2044164D01*
X42854920Y2250000D01*
X42875193Y2455836D01*
X42935233Y2653762D01*
X42935234Y2653765D01*
X43032732Y2836170D01*
X43163945Y2996055D01*
X43323830Y3127268D01*
X43506235Y3224766D01*
X43506238Y3224767D01*
X43704164Y3284807D01*
X43781293Y3292403D01*
X43858420Y3300000D01*
X43961580Y3300000D01*
X44038707Y3292403D01*
X44038707Y3292403D01*
G37*
G36*
X46578707Y3292403D02*
G01*
X46655836Y3284807D01*
X46853762Y3224767D01*
X46853765Y3224766D01*
X47036170Y3127268D01*
X47196055Y2996055D01*
X47327268Y2836170D01*
X47424766Y2653765D01*
X47424767Y2653762D01*
X47484807Y2455836D01*
X47505080Y2250000D01*
X47484807Y2044164D01*
X47465343Y1980000D01*
X47424766Y1846235D01*
X47327268Y1663830D01*
X47196055Y1503945D01*
X47036170Y1372732D01*
X46853765Y1275234D01*
X46853762Y1275233D01*
X46655836Y1215193D01*
X46578707Y1207596D01*
X46501580Y1200000D01*
X46398420Y1200000D01*
X46321293Y1207596D01*
X46244164Y1215193D01*
X46046238Y1275233D01*
X46046235Y1275234D01*
X45863830Y1372732D01*
X45703945Y1503945D01*
X45572732Y1663830D01*
X45475234Y1846235D01*
X45434657Y1980000D01*
X45415193Y2044164D01*
X45394920Y2250000D01*
X45415193Y2455836D01*
X45475233Y2653762D01*
X45475234Y2653765D01*
X45572732Y2836170D01*
X45703945Y2996055D01*
X45863830Y3127268D01*
X46046235Y3224766D01*
X46046238Y3224767D01*
X46244164Y3284807D01*
X46321293Y3292403D01*
X46398420Y3300000D01*
X46501580Y3300000D01*
X46578707Y3292403D01*
X46578707Y3292403D01*
G37*
G36*
X49118707Y3292403D02*
G01*
X49195836Y3284807D01*
X49393762Y3224767D01*
X49393765Y3224766D01*
X49576170Y3127268D01*
X49736055Y2996055D01*
X49867268Y2836170D01*
X49964766Y2653765D01*
X49964767Y2653762D01*
X50024807Y2455836D01*
X50045080Y2250000D01*
X50024807Y2044164D01*
X50005343Y1980000D01*
X49964766Y1846235D01*
X49867268Y1663830D01*
X49736055Y1503945D01*
X49576170Y1372732D01*
X49393765Y1275234D01*
X49393762Y1275233D01*
X49195836Y1215193D01*
X49118707Y1207596D01*
X49041580Y1200000D01*
X48938420Y1200000D01*
X48861293Y1207596D01*
X48784164Y1215193D01*
X48586238Y1275233D01*
X48586235Y1275234D01*
X48403830Y1372732D01*
X48243945Y1503945D01*
X48112732Y1663830D01*
X48015234Y1846235D01*
X47974657Y1980000D01*
X47955193Y2044164D01*
X47934920Y2250000D01*
X47955193Y2455836D01*
X48015233Y2653762D01*
X48015234Y2653765D01*
X48112732Y2836170D01*
X48243945Y2996055D01*
X48403830Y3127268D01*
X48586235Y3224766D01*
X48586238Y3224767D01*
X48784164Y3284807D01*
X48861293Y3292403D01*
X48938420Y3300000D01*
X49041580Y3300000D01*
X49118707Y3292403D01*
X49118707Y3292403D01*
G37*
G36*
X51658707Y3292403D02*
G01*
X51735836Y3284807D01*
X51933762Y3224767D01*
X51933765Y3224766D01*
X52116170Y3127268D01*
X52276055Y2996055D01*
X52407268Y2836170D01*
X52504766Y2653765D01*
X52504767Y2653762D01*
X52564807Y2455836D01*
X52585080Y2250000D01*
X52564807Y2044164D01*
X52545343Y1980000D01*
X52504766Y1846235D01*
X52407268Y1663830D01*
X52276055Y1503945D01*
X52116170Y1372732D01*
X51933765Y1275234D01*
X51933762Y1275233D01*
X51735836Y1215193D01*
X51658707Y1207596D01*
X51581580Y1200000D01*
X51478420Y1200000D01*
X51401293Y1207596D01*
X51324164Y1215193D01*
X51126238Y1275233D01*
X51126235Y1275234D01*
X50943830Y1372732D01*
X50783945Y1503945D01*
X50652732Y1663830D01*
X50555234Y1846235D01*
X50514657Y1980000D01*
X50495193Y2044164D01*
X50474920Y2250000D01*
X50495193Y2455836D01*
X50555233Y2653762D01*
X50555234Y2653765D01*
X50652732Y2836170D01*
X50783945Y2996055D01*
X50943830Y3127268D01*
X51126235Y3224766D01*
X51126238Y3224767D01*
X51324164Y3284807D01*
X51401293Y3292403D01*
X51478420Y3300000D01*
X51581580Y3300000D01*
X51658707Y3292403D01*
X51658707Y3292403D01*
G37*
G36*
X54198707Y3292403D02*
G01*
X54275836Y3284807D01*
X54473762Y3224767D01*
X54473765Y3224766D01*
X54656170Y3127268D01*
X54816055Y2996055D01*
X54947268Y2836170D01*
X55044766Y2653765D01*
X55044767Y2653762D01*
X55104807Y2455836D01*
X55125080Y2250000D01*
X55104807Y2044164D01*
X55085343Y1980000D01*
X55044766Y1846235D01*
X54947268Y1663830D01*
X54816055Y1503945D01*
X54656170Y1372732D01*
X54473765Y1275234D01*
X54473762Y1275233D01*
X54275836Y1215193D01*
X54198707Y1207596D01*
X54121580Y1200000D01*
X54018420Y1200000D01*
X53941293Y1207596D01*
X53864164Y1215193D01*
X53666238Y1275233D01*
X53666235Y1275234D01*
X53483830Y1372732D01*
X53323945Y1503945D01*
X53192732Y1663830D01*
X53095234Y1846235D01*
X53054657Y1980000D01*
X53035193Y2044164D01*
X53014920Y2250000D01*
X53035193Y2455836D01*
X53095233Y2653762D01*
X53095234Y2653765D01*
X53192732Y2836170D01*
X53323945Y2996055D01*
X53483830Y3127268D01*
X53666235Y3224766D01*
X53666238Y3224767D01*
X53864164Y3284807D01*
X53941293Y3292403D01*
X54018420Y3300000D01*
X54121580Y3300000D01*
X54198707Y3292403D01*
X54198707Y3292403D01*
G37*
G36*
X31338707Y3292403D02*
G01*
X31415836Y3284807D01*
X31613762Y3224767D01*
X31613765Y3224766D01*
X31796170Y3127268D01*
X31956055Y2996055D01*
X32087268Y2836170D01*
X32184766Y2653765D01*
X32184767Y2653762D01*
X32244807Y2455836D01*
X32265080Y2250000D01*
X32244807Y2044164D01*
X32225343Y1980000D01*
X32184766Y1846235D01*
X32087268Y1663830D01*
X31956055Y1503945D01*
X31796170Y1372732D01*
X31613765Y1275234D01*
X31613762Y1275233D01*
X31415836Y1215193D01*
X31338707Y1207596D01*
X31261580Y1200000D01*
X31158420Y1200000D01*
X31081293Y1207596D01*
X31004164Y1215193D01*
X30806238Y1275233D01*
X30806235Y1275234D01*
X30623830Y1372732D01*
X30463945Y1503945D01*
X30332732Y1663830D01*
X30235234Y1846235D01*
X30194657Y1980000D01*
X30175193Y2044164D01*
X30154920Y2250000D01*
X30175193Y2455836D01*
X30235233Y2653762D01*
X30235234Y2653765D01*
X30332732Y2836170D01*
X30463945Y2996055D01*
X30623830Y3127268D01*
X30806235Y3224766D01*
X30806238Y3224767D01*
X31004164Y3284807D01*
X31081293Y3292403D01*
X31158420Y3300000D01*
X31261580Y3300000D01*
X31338707Y3292403D01*
X31338707Y3292403D01*
G37*
G36*
X61792390Y5030217D02*
G01*
X61942118Y5000435D01*
X62058960Y4952037D01*
X62224199Y4883593D01*
X62224200Y4883592D01*
X62478068Y4713964D01*
X62693964Y4498068D01*
X62768686Y4386238D01*
X62863593Y4244199D01*
X62932037Y4078960D01*
X62972151Y3982118D01*
X62980435Y3962117D01*
X63040000Y3662663D01*
X63040000Y3357337D01*
X62980435Y3057883D01*
X62863593Y2775801D01*
X62863592Y2775800D01*
X62693964Y2521932D01*
X62478068Y2306036D01*
X62308439Y2192694D01*
X62224199Y2136407D01*
X62058960Y2067963D01*
X61942118Y2019565D01*
X61792390Y1989782D01*
X61642663Y1960000D01*
X61337337Y1960000D01*
X61187610Y1989782D01*
X61037882Y2019565D01*
X60921040Y2067963D01*
X60755801Y2136407D01*
X60671561Y2192694D01*
X60501932Y2306036D01*
X60286036Y2521932D01*
X60116408Y2775800D01*
X60116407Y2775801D01*
X59999565Y3057883D01*
X59940000Y3357337D01*
X59940000Y3662663D01*
X59999565Y3962117D01*
X60007850Y3982118D01*
X60047963Y4078960D01*
X60116407Y4244199D01*
X60211314Y4386238D01*
X60286036Y4498068D01*
X60501932Y4713964D01*
X60755800Y4883592D01*
X60755801Y4883593D01*
X60921040Y4952037D01*
X61037882Y5000435D01*
X61187610Y5030217D01*
X61337337Y5060000D01*
X61642663Y5060000D01*
X61792390Y5030217D01*
X61792390Y5030217D01*
G37*
G36*
X3743210Y5060000D02*
G01*
X3942118Y5020435D01*
X4058960Y4972037D01*
X4224199Y4903593D01*
X4308439Y4847306D01*
X4478068Y4733964D01*
X4693964Y4518068D01*
X4707327Y4498068D01*
X4863593Y4264199D01*
X4888599Y4203829D01*
X4980435Y3982118D01*
X5040000Y3682662D01*
X5040000Y3377338D01*
X4980435Y3077882D01*
X4946541Y2996055D01*
X4863593Y2795801D01*
X4863592Y2795800D01*
X4693964Y2541932D01*
X4478068Y2326036D01*
X4364271Y2250000D01*
X4224199Y2156407D01*
X4058960Y2087963D01*
X3942118Y2039565D01*
X3841570Y2019565D01*
X3642663Y1980000D01*
X3337337Y1980000D01*
X3138430Y2019565D01*
X3037882Y2039565D01*
X2921040Y2087963D01*
X2755801Y2156407D01*
X2615729Y2250000D01*
X2501932Y2326036D01*
X2286036Y2541932D01*
X2116408Y2795800D01*
X2116407Y2795801D01*
X2033459Y2996055D01*
X1999565Y3077882D01*
X1940000Y3377338D01*
X1940000Y3682662D01*
X1999565Y3982118D01*
X2091401Y4203829D01*
X2116407Y4264199D01*
X2272673Y4498068D01*
X2286036Y4518068D01*
X2501932Y4733964D01*
X2671561Y4847306D01*
X2755801Y4903593D01*
X2921040Y4972037D01*
X3037882Y5020435D01*
X3236790Y5060000D01*
X3337337Y5080000D01*
X3642663Y5080000D01*
X3743210Y5060000D01*
X3743210Y5060000D01*
G37*
G36*
X41498707Y5832403D02*
G01*
X41575836Y5824807D01*
X41773762Y5764767D01*
X41773765Y5764766D01*
X41956170Y5667268D01*
X42116055Y5536055D01*
X42247268Y5376170D01*
X42344766Y5193765D01*
X42344767Y5193762D01*
X42404807Y4995836D01*
X42425080Y4790000D01*
X42404807Y4584164D01*
X42344767Y4386238D01*
X42344766Y4386235D01*
X42247268Y4203830D01*
X42116055Y4043945D01*
X41956170Y3912732D01*
X41773765Y3815234D01*
X41773762Y3815233D01*
X41575836Y3755193D01*
X41498707Y3747597D01*
X41421580Y3740000D01*
X41318420Y3740000D01*
X41241293Y3747597D01*
X41164164Y3755193D01*
X40966238Y3815233D01*
X40966235Y3815234D01*
X40783830Y3912732D01*
X40623945Y4043945D01*
X40492732Y4203830D01*
X40395234Y4386235D01*
X40395233Y4386238D01*
X40335193Y4584164D01*
X40314920Y4790000D01*
X40335193Y4995836D01*
X40395233Y5193762D01*
X40395234Y5193765D01*
X40492732Y5376170D01*
X40623945Y5536055D01*
X40783830Y5667268D01*
X40966235Y5764766D01*
X40966238Y5764767D01*
X41164164Y5824807D01*
X41241293Y5832403D01*
X41318420Y5840000D01*
X41421580Y5840000D01*
X41498707Y5832403D01*
X41498707Y5832403D01*
G37*
G36*
X46578707Y5832403D02*
G01*
X46655836Y5824807D01*
X46853762Y5764767D01*
X46853765Y5764766D01*
X47036170Y5667268D01*
X47196055Y5536055D01*
X47327268Y5376170D01*
X47424766Y5193765D01*
X47424767Y5193762D01*
X47484807Y4995836D01*
X47505080Y4790000D01*
X47484807Y4584164D01*
X47424767Y4386238D01*
X47424766Y4386235D01*
X47327268Y4203830D01*
X47196055Y4043945D01*
X47036170Y3912732D01*
X46853765Y3815234D01*
X46853762Y3815233D01*
X46655836Y3755193D01*
X46578707Y3747597D01*
X46501580Y3740000D01*
X46398420Y3740000D01*
X46321293Y3747597D01*
X46244164Y3755193D01*
X46046238Y3815233D01*
X46046235Y3815234D01*
X45863830Y3912732D01*
X45703945Y4043945D01*
X45572732Y4203830D01*
X45475234Y4386235D01*
X45475233Y4386238D01*
X45415193Y4584164D01*
X45394920Y4790000D01*
X45415193Y4995836D01*
X45475233Y5193762D01*
X45475234Y5193765D01*
X45572732Y5376170D01*
X45703945Y5536055D01*
X45863830Y5667268D01*
X46046235Y5764766D01*
X46046238Y5764767D01*
X46244164Y5824807D01*
X46321293Y5832403D01*
X46398420Y5840000D01*
X46501580Y5840000D01*
X46578707Y5832403D01*
X46578707Y5832403D01*
G37*
G36*
X49118707Y5832403D02*
G01*
X49195836Y5824807D01*
X49393762Y5764767D01*
X49393765Y5764766D01*
X49576170Y5667268D01*
X49736055Y5536055D01*
X49867268Y5376170D01*
X49964766Y5193765D01*
X49964767Y5193762D01*
X50024807Y4995836D01*
X50045080Y4790000D01*
X50024807Y4584164D01*
X49964767Y4386238D01*
X49964766Y4386235D01*
X49867268Y4203830D01*
X49736055Y4043945D01*
X49576170Y3912732D01*
X49393765Y3815234D01*
X49393762Y3815233D01*
X49195836Y3755193D01*
X49118707Y3747597D01*
X49041580Y3740000D01*
X48938420Y3740000D01*
X48861293Y3747597D01*
X48784164Y3755193D01*
X48586238Y3815233D01*
X48586235Y3815234D01*
X48403830Y3912732D01*
X48243945Y4043945D01*
X48112732Y4203830D01*
X48015234Y4386235D01*
X48015233Y4386238D01*
X47955193Y4584164D01*
X47934920Y4790000D01*
X47955193Y4995836D01*
X48015233Y5193762D01*
X48015234Y5193765D01*
X48112732Y5376170D01*
X48243945Y5536055D01*
X48403830Y5667268D01*
X48586235Y5764766D01*
X48586238Y5764767D01*
X48784164Y5824807D01*
X48861293Y5832403D01*
X48938420Y5840000D01*
X49041580Y5840000D01*
X49118707Y5832403D01*
X49118707Y5832403D01*
G37*
G36*
X51658707Y5832403D02*
G01*
X51735836Y5824807D01*
X51933762Y5764767D01*
X51933765Y5764766D01*
X52116170Y5667268D01*
X52276055Y5536055D01*
X52407268Y5376170D01*
X52504766Y5193765D01*
X52504767Y5193762D01*
X52564807Y4995836D01*
X52585080Y4790000D01*
X52564807Y4584164D01*
X52504767Y4386238D01*
X52504766Y4386235D01*
X52407268Y4203830D01*
X52276055Y4043945D01*
X52116170Y3912732D01*
X51933765Y3815234D01*
X51933762Y3815233D01*
X51735836Y3755193D01*
X51658707Y3747597D01*
X51581580Y3740000D01*
X51478420Y3740000D01*
X51401293Y3747597D01*
X51324164Y3755193D01*
X51126238Y3815233D01*
X51126235Y3815234D01*
X50943830Y3912732D01*
X50783945Y4043945D01*
X50652732Y4203830D01*
X50555234Y4386235D01*
X50555233Y4386238D01*
X50495193Y4584164D01*
X50474920Y4790000D01*
X50495193Y4995836D01*
X50555233Y5193762D01*
X50555234Y5193765D01*
X50652732Y5376170D01*
X50783945Y5536055D01*
X50943830Y5667268D01*
X51126235Y5764766D01*
X51126238Y5764767D01*
X51324164Y5824807D01*
X51401293Y5832403D01*
X51478420Y5840000D01*
X51581580Y5840000D01*
X51658707Y5832403D01*
X51658707Y5832403D01*
G37*
G36*
X57660000Y3740000D02*
G01*
X55560000Y3740000D01*
X55560000Y5840000D01*
X57660000Y5840000D01*
X57660000Y3740000D01*
X57660000Y3740000D01*
G37*
G36*
X44038707Y5832403D02*
G01*
X44115836Y5824807D01*
X44313762Y5764767D01*
X44313765Y5764766D01*
X44496170Y5667268D01*
X44656055Y5536055D01*
X44787268Y5376170D01*
X44884766Y5193765D01*
X44884767Y5193762D01*
X44944807Y4995836D01*
X44965080Y4790000D01*
X44944807Y4584164D01*
X44884767Y4386238D01*
X44884766Y4386235D01*
X44787268Y4203830D01*
X44656055Y4043945D01*
X44496170Y3912732D01*
X44313765Y3815234D01*
X44313762Y3815233D01*
X44115836Y3755193D01*
X44038707Y3747597D01*
X43961580Y3740000D01*
X43858420Y3740000D01*
X43781293Y3747597D01*
X43704164Y3755193D01*
X43506238Y3815233D01*
X43506235Y3815234D01*
X43323830Y3912732D01*
X43163945Y4043945D01*
X43032732Y4203830D01*
X42935234Y4386235D01*
X42935233Y4386238D01*
X42875193Y4584164D01*
X42854920Y4790000D01*
X42875193Y4995836D01*
X42935233Y5193762D01*
X42935234Y5193765D01*
X43032732Y5376170D01*
X43163945Y5536055D01*
X43323830Y5667268D01*
X43506235Y5764766D01*
X43506238Y5764767D01*
X43704164Y5824807D01*
X43781293Y5832403D01*
X43858420Y5840000D01*
X43961580Y5840000D01*
X44038707Y5832403D01*
X44038707Y5832403D01*
G37*
G36*
X11018707Y5832403D02*
G01*
X11095836Y5824807D01*
X11293762Y5764767D01*
X11293765Y5764766D01*
X11476170Y5667268D01*
X11636055Y5536055D01*
X11767268Y5376170D01*
X11864766Y5193765D01*
X11864767Y5193762D01*
X11924807Y4995836D01*
X11945080Y4790000D01*
X11924807Y4584164D01*
X11864767Y4386238D01*
X11864766Y4386235D01*
X11767268Y4203830D01*
X11636055Y4043945D01*
X11476170Y3912732D01*
X11293765Y3815234D01*
X11293762Y3815233D01*
X11095836Y3755193D01*
X11018707Y3747597D01*
X10941580Y3740000D01*
X10838420Y3740000D01*
X10761293Y3747597D01*
X10684164Y3755193D01*
X10486238Y3815233D01*
X10486235Y3815234D01*
X10303830Y3912732D01*
X10143945Y4043945D01*
X10012732Y4203830D01*
X9915234Y4386235D01*
X9915233Y4386238D01*
X9855193Y4584164D01*
X9834920Y4790000D01*
X9855193Y4995836D01*
X9915233Y5193762D01*
X9915234Y5193765D01*
X10012732Y5376170D01*
X10143945Y5536055D01*
X10303830Y5667268D01*
X10486235Y5764766D01*
X10486238Y5764767D01*
X10684164Y5824807D01*
X10761293Y5832403D01*
X10838420Y5840000D01*
X10941580Y5840000D01*
X11018707Y5832403D01*
X11018707Y5832403D01*
G37*
G36*
X13558707Y5832403D02*
G01*
X13635836Y5824807D01*
X13833762Y5764767D01*
X13833765Y5764766D01*
X14016170Y5667268D01*
X14176055Y5536055D01*
X14307268Y5376170D01*
X14404766Y5193765D01*
X14404767Y5193762D01*
X14464807Y4995836D01*
X14485080Y4790000D01*
X14464807Y4584164D01*
X14404767Y4386238D01*
X14404766Y4386235D01*
X14307268Y4203830D01*
X14176055Y4043945D01*
X14016170Y3912732D01*
X13833765Y3815234D01*
X13833762Y3815233D01*
X13635836Y3755193D01*
X13558707Y3747597D01*
X13481580Y3740000D01*
X13378420Y3740000D01*
X13301293Y3747597D01*
X13224164Y3755193D01*
X13026238Y3815233D01*
X13026235Y3815234D01*
X12843830Y3912732D01*
X12683945Y4043945D01*
X12552732Y4203830D01*
X12455234Y4386235D01*
X12455233Y4386238D01*
X12395193Y4584164D01*
X12374920Y4790000D01*
X12395193Y4995836D01*
X12455233Y5193762D01*
X12455234Y5193765D01*
X12552732Y5376170D01*
X12683945Y5536055D01*
X12843830Y5667268D01*
X13026235Y5764766D01*
X13026238Y5764767D01*
X13224164Y5824807D01*
X13301293Y5832403D01*
X13378420Y5840000D01*
X13481580Y5840000D01*
X13558707Y5832403D01*
X13558707Y5832403D01*
G37*
G36*
X8478707Y5832403D02*
G01*
X8555836Y5824807D01*
X8753762Y5764767D01*
X8753765Y5764766D01*
X8936170Y5667268D01*
X9096055Y5536055D01*
X9227268Y5376170D01*
X9324766Y5193765D01*
X9324767Y5193762D01*
X9384807Y4995836D01*
X9405080Y4790000D01*
X9384807Y4584164D01*
X9324767Y4386238D01*
X9324766Y4386235D01*
X9227268Y4203830D01*
X9096055Y4043945D01*
X8936170Y3912732D01*
X8753765Y3815234D01*
X8753762Y3815233D01*
X8555836Y3755193D01*
X8478707Y3747597D01*
X8401580Y3740000D01*
X8298420Y3740000D01*
X8221293Y3747597D01*
X8144164Y3755193D01*
X7946238Y3815233D01*
X7946235Y3815234D01*
X7763830Y3912732D01*
X7603945Y4043945D01*
X7472732Y4203830D01*
X7375234Y4386235D01*
X7375233Y4386238D01*
X7315193Y4584164D01*
X7294920Y4790000D01*
X7315193Y4995836D01*
X7375233Y5193762D01*
X7375234Y5193765D01*
X7472732Y5376170D01*
X7603945Y5536055D01*
X7763830Y5667268D01*
X7946235Y5764766D01*
X7946238Y5764767D01*
X8144164Y5824807D01*
X8221293Y5832403D01*
X8298420Y5840000D01*
X8401580Y5840000D01*
X8478707Y5832403D01*
X8478707Y5832403D01*
G37*
G36*
X28798707Y5832403D02*
G01*
X28875836Y5824807D01*
X29073762Y5764767D01*
X29073765Y5764766D01*
X29256170Y5667268D01*
X29416055Y5536055D01*
X29547268Y5376170D01*
X29644766Y5193765D01*
X29644767Y5193762D01*
X29704807Y4995836D01*
X29725080Y4790000D01*
X29704807Y4584164D01*
X29644767Y4386238D01*
X29644766Y4386235D01*
X29547268Y4203830D01*
X29416055Y4043945D01*
X29256170Y3912732D01*
X29073765Y3815234D01*
X29073762Y3815233D01*
X28875836Y3755193D01*
X28798707Y3747597D01*
X28721580Y3740000D01*
X28618420Y3740000D01*
X28541293Y3747597D01*
X28464164Y3755193D01*
X28266238Y3815233D01*
X28266235Y3815234D01*
X28083830Y3912732D01*
X27923945Y4043945D01*
X27792732Y4203830D01*
X27695234Y4386235D01*
X27695233Y4386238D01*
X27635193Y4584164D01*
X27614920Y4790000D01*
X27635193Y4995836D01*
X27695233Y5193762D01*
X27695234Y5193765D01*
X27792732Y5376170D01*
X27923945Y5536055D01*
X28083830Y5667268D01*
X28266235Y5764766D01*
X28266238Y5764767D01*
X28464164Y5824807D01*
X28541293Y5832403D01*
X28618420Y5840000D01*
X28721580Y5840000D01*
X28798707Y5832403D01*
X28798707Y5832403D01*
G37*
G36*
X31338707Y5832403D02*
G01*
X31415836Y5824807D01*
X31613762Y5764767D01*
X31613765Y5764766D01*
X31796170Y5667268D01*
X31956055Y5536055D01*
X32087268Y5376170D01*
X32184766Y5193765D01*
X32184767Y5193762D01*
X32244807Y4995836D01*
X32265080Y4790000D01*
X32244807Y4584164D01*
X32184767Y4386238D01*
X32184766Y4386235D01*
X32087268Y4203830D01*
X31956055Y4043945D01*
X31796170Y3912732D01*
X31613765Y3815234D01*
X31613762Y3815233D01*
X31415836Y3755193D01*
X31338707Y3747597D01*
X31261580Y3740000D01*
X31158420Y3740000D01*
X31081293Y3747597D01*
X31004164Y3755193D01*
X30806238Y3815233D01*
X30806235Y3815234D01*
X30623830Y3912732D01*
X30463945Y4043945D01*
X30332732Y4203830D01*
X30235234Y4386235D01*
X30235233Y4386238D01*
X30175193Y4584164D01*
X30154920Y4790000D01*
X30175193Y4995836D01*
X30235233Y5193762D01*
X30235234Y5193765D01*
X30332732Y5376170D01*
X30463945Y5536055D01*
X30623830Y5667268D01*
X30806235Y5764766D01*
X30806238Y5764767D01*
X31004164Y5824807D01*
X31081293Y5832403D01*
X31158420Y5840000D01*
X31261580Y5840000D01*
X31338707Y5832403D01*
X31338707Y5832403D01*
G37*
G36*
X16098707Y5832403D02*
G01*
X16175836Y5824807D01*
X16373762Y5764767D01*
X16373765Y5764766D01*
X16556170Y5667268D01*
X16716055Y5536055D01*
X16847268Y5376170D01*
X16944766Y5193765D01*
X16944767Y5193762D01*
X17004807Y4995836D01*
X17025080Y4790000D01*
X17004807Y4584164D01*
X16944767Y4386238D01*
X16944766Y4386235D01*
X16847268Y4203830D01*
X16716055Y4043945D01*
X16556170Y3912732D01*
X16373765Y3815234D01*
X16373762Y3815233D01*
X16175836Y3755193D01*
X16098707Y3747597D01*
X16021580Y3740000D01*
X15918420Y3740000D01*
X15841293Y3747597D01*
X15764164Y3755193D01*
X15566238Y3815233D01*
X15566235Y3815234D01*
X15383830Y3912732D01*
X15223945Y4043945D01*
X15092732Y4203830D01*
X14995234Y4386235D01*
X14995233Y4386238D01*
X14935193Y4584164D01*
X14914920Y4790000D01*
X14935193Y4995836D01*
X14995233Y5193762D01*
X14995234Y5193765D01*
X15092732Y5376170D01*
X15223945Y5536055D01*
X15383830Y5667268D01*
X15566235Y5764766D01*
X15566238Y5764767D01*
X15764164Y5824807D01*
X15841293Y5832403D01*
X15918420Y5840000D01*
X16021580Y5840000D01*
X16098707Y5832403D01*
X16098707Y5832403D01*
G37*
G36*
X33878707Y5832403D02*
G01*
X33955836Y5824807D01*
X34153762Y5764767D01*
X34153765Y5764766D01*
X34336170Y5667268D01*
X34496055Y5536055D01*
X34627268Y5376170D01*
X34724766Y5193765D01*
X34724767Y5193762D01*
X34784807Y4995836D01*
X34805080Y4790000D01*
X34784807Y4584164D01*
X34724767Y4386238D01*
X34724766Y4386235D01*
X34627268Y4203830D01*
X34496055Y4043945D01*
X34336170Y3912732D01*
X34153765Y3815234D01*
X34153762Y3815233D01*
X33955836Y3755193D01*
X33878707Y3747597D01*
X33801580Y3740000D01*
X33698420Y3740000D01*
X33621293Y3747597D01*
X33544164Y3755193D01*
X33346238Y3815233D01*
X33346235Y3815234D01*
X33163830Y3912732D01*
X33003945Y4043945D01*
X32872732Y4203830D01*
X32775234Y4386235D01*
X32775233Y4386238D01*
X32715193Y4584164D01*
X32694920Y4790000D01*
X32715193Y4995836D01*
X32775233Y5193762D01*
X32775234Y5193765D01*
X32872732Y5376170D01*
X33003945Y5536055D01*
X33163830Y5667268D01*
X33346235Y5764766D01*
X33346238Y5764767D01*
X33544164Y5824807D01*
X33621293Y5832403D01*
X33698420Y5840000D01*
X33801580Y5840000D01*
X33878707Y5832403D01*
X33878707Y5832403D01*
G37*
G36*
X36418707Y5832403D02*
G01*
X36495836Y5824807D01*
X36693762Y5764767D01*
X36693765Y5764766D01*
X36876170Y5667268D01*
X37036055Y5536055D01*
X37167268Y5376170D01*
X37264766Y5193765D01*
X37264767Y5193762D01*
X37324807Y4995836D01*
X37345080Y4790000D01*
X37324807Y4584164D01*
X37264767Y4386238D01*
X37264766Y4386235D01*
X37167268Y4203830D01*
X37036055Y4043945D01*
X36876170Y3912732D01*
X36693765Y3815234D01*
X36693762Y3815233D01*
X36495836Y3755193D01*
X36418707Y3747597D01*
X36341580Y3740000D01*
X36238420Y3740000D01*
X36161293Y3747597D01*
X36084164Y3755193D01*
X35886238Y3815233D01*
X35886235Y3815234D01*
X35703830Y3912732D01*
X35543945Y4043945D01*
X35412732Y4203830D01*
X35315234Y4386235D01*
X35315233Y4386238D01*
X35255193Y4584164D01*
X35234920Y4790000D01*
X35255193Y4995836D01*
X35315233Y5193762D01*
X35315234Y5193765D01*
X35412732Y5376170D01*
X35543945Y5536055D01*
X35703830Y5667268D01*
X35886235Y5764766D01*
X35886238Y5764767D01*
X36084164Y5824807D01*
X36161293Y5832403D01*
X36238420Y5840000D01*
X36341580Y5840000D01*
X36418707Y5832403D01*
X36418707Y5832403D01*
G37*
G36*
X18638707Y5832403D02*
G01*
X18715836Y5824807D01*
X18913762Y5764767D01*
X18913765Y5764766D01*
X19096170Y5667268D01*
X19256055Y5536055D01*
X19387268Y5376170D01*
X19484766Y5193765D01*
X19484767Y5193762D01*
X19544807Y4995836D01*
X19565080Y4790000D01*
X19544807Y4584164D01*
X19484767Y4386238D01*
X19484766Y4386235D01*
X19387268Y4203830D01*
X19256055Y4043945D01*
X19096170Y3912732D01*
X18913765Y3815234D01*
X18913762Y3815233D01*
X18715836Y3755193D01*
X18638707Y3747597D01*
X18561580Y3740000D01*
X18458420Y3740000D01*
X18381293Y3747597D01*
X18304164Y3755193D01*
X18106238Y3815233D01*
X18106235Y3815234D01*
X17923830Y3912732D01*
X17763945Y4043945D01*
X17632732Y4203830D01*
X17535234Y4386235D01*
X17535233Y4386238D01*
X17475193Y4584164D01*
X17454920Y4790000D01*
X17475193Y4995836D01*
X17535233Y5193762D01*
X17535234Y5193765D01*
X17632732Y5376170D01*
X17763945Y5536055D01*
X17923830Y5667268D01*
X18106235Y5764766D01*
X18106238Y5764767D01*
X18304164Y5824807D01*
X18381293Y5832403D01*
X18458420Y5840000D01*
X18561580Y5840000D01*
X18638707Y5832403D01*
X18638707Y5832403D01*
G37*
G36*
X21178707Y5832403D02*
G01*
X21255836Y5824807D01*
X21453762Y5764767D01*
X21453765Y5764766D01*
X21636170Y5667268D01*
X21796055Y5536055D01*
X21927268Y5376170D01*
X22024766Y5193765D01*
X22024767Y5193762D01*
X22084807Y4995836D01*
X22105080Y4790000D01*
X22084807Y4584164D01*
X22024767Y4386238D01*
X22024766Y4386235D01*
X21927268Y4203830D01*
X21796055Y4043945D01*
X21636170Y3912732D01*
X21453765Y3815234D01*
X21453762Y3815233D01*
X21255836Y3755193D01*
X21178707Y3747597D01*
X21101580Y3740000D01*
X20998420Y3740000D01*
X20921293Y3747597D01*
X20844164Y3755193D01*
X20646238Y3815233D01*
X20646235Y3815234D01*
X20463830Y3912732D01*
X20303945Y4043945D01*
X20172732Y4203830D01*
X20075234Y4386235D01*
X20075233Y4386238D01*
X20015193Y4584164D01*
X19994920Y4790000D01*
X20015193Y4995836D01*
X20075233Y5193762D01*
X20075234Y5193765D01*
X20172732Y5376170D01*
X20303945Y5536055D01*
X20463830Y5667268D01*
X20646235Y5764766D01*
X20646238Y5764767D01*
X20844164Y5824807D01*
X20921293Y5832403D01*
X20998420Y5840000D01*
X21101580Y5840000D01*
X21178707Y5832403D01*
X21178707Y5832403D01*
G37*
G36*
X23718707Y5832403D02*
G01*
X23795836Y5824807D01*
X23993762Y5764767D01*
X23993765Y5764766D01*
X24176170Y5667268D01*
X24336055Y5536055D01*
X24467268Y5376170D01*
X24564766Y5193765D01*
X24564767Y5193762D01*
X24624807Y4995836D01*
X24645080Y4790000D01*
X24624807Y4584164D01*
X24564767Y4386238D01*
X24564766Y4386235D01*
X24467268Y4203830D01*
X24336055Y4043945D01*
X24176170Y3912732D01*
X23993765Y3815234D01*
X23993762Y3815233D01*
X23795836Y3755193D01*
X23718707Y3747597D01*
X23641580Y3740000D01*
X23538420Y3740000D01*
X23461293Y3747597D01*
X23384164Y3755193D01*
X23186238Y3815233D01*
X23186235Y3815234D01*
X23003830Y3912732D01*
X22843945Y4043945D01*
X22712732Y4203830D01*
X22615234Y4386235D01*
X22615233Y4386238D01*
X22555193Y4584164D01*
X22534920Y4790000D01*
X22555193Y4995836D01*
X22615233Y5193762D01*
X22615234Y5193765D01*
X22712732Y5376170D01*
X22843945Y5536055D01*
X23003830Y5667268D01*
X23186235Y5764766D01*
X23186238Y5764767D01*
X23384164Y5824807D01*
X23461293Y5832403D01*
X23538420Y5840000D01*
X23641580Y5840000D01*
X23718707Y5832403D01*
X23718707Y5832403D01*
G37*
G36*
X38958707Y5832403D02*
G01*
X39035836Y5824807D01*
X39233762Y5764767D01*
X39233765Y5764766D01*
X39416170Y5667268D01*
X39576055Y5536055D01*
X39707268Y5376170D01*
X39804766Y5193765D01*
X39804767Y5193762D01*
X39864807Y4995836D01*
X39885080Y4790000D01*
X39864807Y4584164D01*
X39804767Y4386238D01*
X39804766Y4386235D01*
X39707268Y4203830D01*
X39576055Y4043945D01*
X39416170Y3912732D01*
X39233765Y3815234D01*
X39233762Y3815233D01*
X39035836Y3755193D01*
X38958707Y3747597D01*
X38881580Y3740000D01*
X38778420Y3740000D01*
X38701293Y3747597D01*
X38624164Y3755193D01*
X38426238Y3815233D01*
X38426235Y3815234D01*
X38243830Y3912732D01*
X38083945Y4043945D01*
X37952732Y4203830D01*
X37855234Y4386235D01*
X37855233Y4386238D01*
X37795193Y4584164D01*
X37774920Y4790000D01*
X37795193Y4995836D01*
X37855233Y5193762D01*
X37855234Y5193765D01*
X37952732Y5376170D01*
X38083945Y5536055D01*
X38243830Y5667268D01*
X38426235Y5764766D01*
X38426238Y5764767D01*
X38624164Y5824807D01*
X38701293Y5832403D01*
X38778420Y5840000D01*
X38881580Y5840000D01*
X38958707Y5832403D01*
X38958707Y5832403D01*
G37*
G36*
X26258707Y5832403D02*
G01*
X26335836Y5824807D01*
X26533762Y5764767D01*
X26533765Y5764766D01*
X26716170Y5667268D01*
X26876055Y5536055D01*
X27007268Y5376170D01*
X27104766Y5193765D01*
X27104767Y5193762D01*
X27164807Y4995836D01*
X27185080Y4790000D01*
X27164807Y4584164D01*
X27104767Y4386238D01*
X27104766Y4386235D01*
X27007268Y4203830D01*
X26876055Y4043945D01*
X26716170Y3912732D01*
X26533765Y3815234D01*
X26533762Y3815233D01*
X26335836Y3755193D01*
X26258707Y3747597D01*
X26181580Y3740000D01*
X26078420Y3740000D01*
X26001293Y3747597D01*
X25924164Y3755193D01*
X25726238Y3815233D01*
X25726235Y3815234D01*
X25543830Y3912732D01*
X25383945Y4043945D01*
X25252732Y4203830D01*
X25155234Y4386235D01*
X25155233Y4386238D01*
X25095193Y4584164D01*
X25074920Y4790000D01*
X25095193Y4995836D01*
X25155233Y5193762D01*
X25155234Y5193765D01*
X25252732Y5376170D01*
X25383945Y5536055D01*
X25543830Y5667268D01*
X25726235Y5764766D01*
X25726238Y5764767D01*
X25924164Y5824807D01*
X26001293Y5832403D01*
X26078420Y5840000D01*
X26181580Y5840000D01*
X26258707Y5832403D01*
X26258707Y5832403D01*
G37*
G36*
X54198707Y5832403D02*
G01*
X54275836Y5824807D01*
X54473762Y5764767D01*
X54473765Y5764766D01*
X54656170Y5667268D01*
X54816055Y5536055D01*
X54947268Y5376170D01*
X55044766Y5193765D01*
X55044767Y5193762D01*
X55104807Y4995836D01*
X55125080Y4790000D01*
X55104807Y4584164D01*
X55044767Y4386238D01*
X55044766Y4386235D01*
X54947268Y4203830D01*
X54816055Y4043945D01*
X54656170Y3912732D01*
X54473765Y3815234D01*
X54473762Y3815233D01*
X54275836Y3755193D01*
X54198707Y3747597D01*
X54121580Y3740000D01*
X54018420Y3740000D01*
X53941293Y3747597D01*
X53864164Y3755193D01*
X53666238Y3815233D01*
X53666235Y3815234D01*
X53483830Y3912732D01*
X53323945Y4043945D01*
X53192732Y4203830D01*
X53095234Y4386235D01*
X53095233Y4386238D01*
X53035193Y4584164D01*
X53014920Y4790000D01*
X53035193Y4995836D01*
X53095233Y5193762D01*
X53095234Y5193765D01*
X53192732Y5376170D01*
X53323945Y5536055D01*
X53483830Y5667268D01*
X53666235Y5764766D01*
X53666238Y5764767D01*
X53864164Y5824807D01*
X53941293Y5832403D01*
X54018420Y5840000D01*
X54121580Y5840000D01*
X54198707Y5832403D01*
X54198707Y5832403D01*
G37*
G36*
X8260026Y9333885D02*
G01*
X8478411Y9243427D01*
X8478413Y9243426D01*
X8674955Y9112101D01*
X8842101Y8944955D01*
X8973427Y8748411D01*
X9063885Y8530026D01*
X9110000Y8298191D01*
X9110000Y8061809D01*
X9063885Y7829974D01*
X8991127Y7654321D01*
X8973426Y7611587D01*
X8842101Y7415045D01*
X8674955Y7247899D01*
X8478413Y7116574D01*
X8478412Y7116573D01*
X8478411Y7116573D01*
X8260026Y7026115D01*
X8028191Y6980000D01*
X7791809Y6980000D01*
X7559974Y7026115D01*
X7341589Y7116573D01*
X7341588Y7116573D01*
X7341587Y7116574D01*
X7145045Y7247899D01*
X6977899Y7415045D01*
X6846574Y7611587D01*
X6828873Y7654321D01*
X6756115Y7829974D01*
X6710000Y8061809D01*
X6710000Y8298191D01*
X6756115Y8530026D01*
X6846573Y8748411D01*
X6977899Y8944955D01*
X7145045Y9112101D01*
X7341587Y9243426D01*
X7341589Y9243427D01*
X7559974Y9333885D01*
X7791809Y9380000D01*
X8028191Y9380000D01*
X8260026Y9333885D01*
X8260026Y9333885D01*
G37*
G36*
X3260026Y9333885D02*
G01*
X3478411Y9243427D01*
X3478413Y9243426D01*
X3674955Y9112101D01*
X3842101Y8944955D01*
X3973427Y8748411D01*
X4063885Y8530026D01*
X4110000Y8298191D01*
X4110000Y8061809D01*
X4063885Y7829974D01*
X3991127Y7654321D01*
X3973426Y7611587D01*
X3842101Y7415045D01*
X3674955Y7247899D01*
X3478413Y7116574D01*
X3478412Y7116573D01*
X3478411Y7116573D01*
X3260026Y7026115D01*
X3028191Y6980000D01*
X2791809Y6980000D01*
X2559974Y7026115D01*
X2341589Y7116573D01*
X2341588Y7116573D01*
X2341587Y7116574D01*
X2145045Y7247899D01*
X1977899Y7415045D01*
X1846574Y7611587D01*
X1828873Y7654321D01*
X1756115Y7829974D01*
X1710000Y8061809D01*
X1710000Y8298191D01*
X1756115Y8530026D01*
X1846573Y8748411D01*
X1977899Y8944955D01*
X2145045Y9112101D01*
X2341587Y9243426D01*
X2341589Y9243427D01*
X2559974Y9333885D01*
X2791809Y9380000D01*
X3028191Y9380000D01*
X3260026Y9333885D01*
X3260026Y9333885D01*
G37*
G36*
X35952000Y7148000D02*
G01*
X34028000Y7148000D01*
X34028000Y9072000D01*
X35952000Y9072000D01*
X35952000Y7148000D01*
X35952000Y7148000D01*
G37*
G36*
X27670604Y9035032D02*
G01*
X27845678Y8962514D01*
X27845679Y8962513D01*
X28003237Y8857237D01*
X28137237Y8723237D01*
X28225007Y8591879D01*
X28242514Y8565678D01*
X28257281Y8530027D01*
X28315032Y8390604D01*
X28352000Y8204750D01*
X28352000Y8015250D01*
X28315032Y7829396D01*
X28278772Y7741858D01*
X28242514Y7654322D01*
X28242513Y7654321D01*
X28137237Y7496763D01*
X28003237Y7362763D01*
X27871879Y7274993D01*
X27845678Y7257486D01*
X27758142Y7221228D01*
X27670604Y7184968D01*
X27484750Y7148000D01*
X27295250Y7148000D01*
X27109396Y7184968D01*
X27021858Y7221228D01*
X26934322Y7257486D01*
X26908121Y7274993D01*
X26776763Y7362763D01*
X26642763Y7496763D01*
X26537487Y7654321D01*
X26537486Y7654322D01*
X26501228Y7741858D01*
X26464968Y7829396D01*
X26428000Y8015250D01*
X26428000Y8204750D01*
X26464968Y8390604D01*
X26522719Y8530027D01*
X26537486Y8565678D01*
X26554993Y8591879D01*
X26642763Y8723237D01*
X26776763Y8857237D01*
X26934321Y8962513D01*
X26934322Y8962514D01*
X27109396Y9035032D01*
X27295250Y9072000D01*
X27484750Y9072000D01*
X27670604Y9035032D01*
X27670604Y9035032D01*
G37*
G36*
X30190604Y9035032D02*
G01*
X30365678Y8962514D01*
X30365679Y8962513D01*
X30523237Y8857237D01*
X30657237Y8723237D01*
X30745007Y8591879D01*
X30762514Y8565678D01*
X30777281Y8530027D01*
X30835032Y8390604D01*
X30872000Y8204750D01*
X30872000Y8015250D01*
X30835032Y7829396D01*
X30798772Y7741858D01*
X30762514Y7654322D01*
X30762513Y7654321D01*
X30657237Y7496763D01*
X30523237Y7362763D01*
X30391879Y7274993D01*
X30365678Y7257486D01*
X30278142Y7221228D01*
X30190604Y7184968D01*
X30004750Y7148000D01*
X29815250Y7148000D01*
X29629396Y7184968D01*
X29541858Y7221228D01*
X29454322Y7257486D01*
X29428121Y7274993D01*
X29296763Y7362763D01*
X29162763Y7496763D01*
X29057487Y7654321D01*
X29057486Y7654322D01*
X29021228Y7741858D01*
X28984968Y7829396D01*
X28948000Y8015250D01*
X28948000Y8204750D01*
X28984968Y8390604D01*
X29042719Y8530027D01*
X29057486Y8565678D01*
X29074993Y8591879D01*
X29162763Y8723237D01*
X29296763Y8857237D01*
X29454321Y8962513D01*
X29454322Y8962514D01*
X29629396Y9035032D01*
X29815250Y9072000D01*
X30004750Y9072000D01*
X30190604Y9035032D01*
X30190604Y9035032D01*
G37*
G36*
X32710604Y9035032D02*
G01*
X32885678Y8962514D01*
X32885679Y8962513D01*
X33043237Y8857237D01*
X33177237Y8723237D01*
X33265007Y8591879D01*
X33282514Y8565678D01*
X33297281Y8530027D01*
X33355032Y8390604D01*
X33392000Y8204750D01*
X33392000Y8015250D01*
X33355032Y7829396D01*
X33318772Y7741858D01*
X33282514Y7654322D01*
X33282513Y7654321D01*
X33177237Y7496763D01*
X33043237Y7362763D01*
X32911879Y7274993D01*
X32885678Y7257486D01*
X32798142Y7221228D01*
X32710604Y7184968D01*
X32524750Y7148000D01*
X32335250Y7148000D01*
X32149396Y7184968D01*
X32061858Y7221228D01*
X31974322Y7257486D01*
X31948121Y7274993D01*
X31816763Y7362763D01*
X31682763Y7496763D01*
X31577487Y7654321D01*
X31577486Y7654322D01*
X31541228Y7741858D01*
X31504968Y7829396D01*
X31468000Y8015250D01*
X31468000Y8204750D01*
X31504968Y8390604D01*
X31562719Y8530027D01*
X31577486Y8565678D01*
X31594993Y8591879D01*
X31682763Y8723237D01*
X31816763Y8857237D01*
X31974321Y8962513D01*
X31974322Y8962514D01*
X32149396Y9035032D01*
X32335250Y9072000D01*
X32524750Y9072000D01*
X32710604Y9035032D01*
X32710604Y9035032D01*
G37*
G36*
X61528707Y11116403D02*
G01*
X61605836Y11108807D01*
X61803762Y11048767D01*
X61803765Y11048766D01*
X61986170Y10951268D01*
X62146055Y10820055D01*
X62277268Y10660170D01*
X62374766Y10477765D01*
X62374767Y10477762D01*
X62434807Y10279836D01*
X62455080Y10074000D01*
X62434807Y9868164D01*
X62374767Y9670238D01*
X62374766Y9670235D01*
X62277268Y9487830D01*
X62146055Y9327945D01*
X61986170Y9196732D01*
X61803765Y9099234D01*
X61803762Y9099233D01*
X61605836Y9039193D01*
X61528707Y9031596D01*
X61451580Y9024000D01*
X61348420Y9024000D01*
X61271293Y9031596D01*
X61194164Y9039193D01*
X60996238Y9099233D01*
X60996235Y9099234D01*
X60813830Y9196732D01*
X60653945Y9327945D01*
X60522732Y9487830D01*
X60425234Y9670235D01*
X60425233Y9670238D01*
X60365193Y9868164D01*
X60344920Y10074000D01*
X60365193Y10279836D01*
X60425233Y10477762D01*
X60425234Y10477765D01*
X60522732Y10660170D01*
X60653945Y10820055D01*
X60813830Y10951268D01*
X60996235Y11048766D01*
X60996238Y11048767D01*
X61194164Y11108807D01*
X61271293Y11116403D01*
X61348420Y11124000D01*
X61451580Y11124000D01*
X61528707Y11116403D01*
X61528707Y11116403D01*
G37*
G36*
X3260026Y12333885D02*
G01*
X3478411Y12243427D01*
X3478413Y12243426D01*
X3528082Y12210238D01*
X3674955Y12112101D01*
X3842101Y11944955D01*
X3973427Y11748411D01*
X4063885Y11530026D01*
X4110000Y11298191D01*
X4110000Y11061809D01*
X4063885Y10829974D01*
X3993550Y10660171D01*
X3973426Y10611587D01*
X3842101Y10415045D01*
X3674955Y10247899D01*
X3478413Y10116574D01*
X3478412Y10116573D01*
X3478411Y10116573D01*
X3260026Y10026115D01*
X3028191Y9980000D01*
X2791809Y9980000D01*
X2559974Y10026115D01*
X2341589Y10116573D01*
X2341588Y10116573D01*
X2341587Y10116574D01*
X2145045Y10247899D01*
X1977899Y10415045D01*
X1846574Y10611587D01*
X1826450Y10660171D01*
X1756115Y10829974D01*
X1710000Y11061809D01*
X1710000Y11298191D01*
X1756115Y11530026D01*
X1846573Y11748411D01*
X1977899Y11944955D01*
X2145045Y12112101D01*
X2291918Y12210238D01*
X2341587Y12243426D01*
X2341589Y12243427D01*
X2559974Y12333885D01*
X2791809Y12380000D01*
X3028191Y12380000D01*
X3260026Y12333885D01*
X3260026Y12333885D01*
G37*
G36*
X8260026Y12333885D02*
G01*
X8478411Y12243427D01*
X8478413Y12243426D01*
X8528082Y12210238D01*
X8674955Y12112101D01*
X8842101Y11944955D01*
X8973427Y11748411D01*
X9063885Y11530026D01*
X9110000Y11298191D01*
X9110000Y11061809D01*
X9063885Y10829974D01*
X8993550Y10660171D01*
X8973426Y10611587D01*
X8842101Y10415045D01*
X8674955Y10247899D01*
X8478413Y10116574D01*
X8478412Y10116573D01*
X8478411Y10116573D01*
X8260026Y10026115D01*
X8028191Y9980000D01*
X7791809Y9980000D01*
X7559974Y10026115D01*
X7341589Y10116573D01*
X7341588Y10116573D01*
X7341587Y10116574D01*
X7145045Y10247899D01*
X6977899Y10415045D01*
X6846574Y10611587D01*
X6826450Y10660171D01*
X6756115Y10829974D01*
X6710000Y11061809D01*
X6710000Y11298191D01*
X6756115Y11530026D01*
X6846573Y11748411D01*
X6977899Y11944955D01*
X7145045Y12112101D01*
X7291918Y12210238D01*
X7341587Y12243426D01*
X7341589Y12243427D01*
X7559974Y12333885D01*
X7791809Y12380000D01*
X8028191Y12380000D01*
X8260026Y12333885D01*
X8260026Y12333885D01*
G37*
G36*
X61528707Y13656404D02*
G01*
X61605836Y13648807D01*
X61803762Y13588767D01*
X61803765Y13588766D01*
X61986170Y13491268D01*
X62146055Y13360055D01*
X62277268Y13200170D01*
X62374766Y13017765D01*
X62374767Y13017762D01*
X62434807Y12819836D01*
X62455080Y12614000D01*
X62434807Y12408164D01*
X62412274Y12333884D01*
X62374766Y12210235D01*
X62277268Y12027830D01*
X62146055Y11867945D01*
X61986170Y11736732D01*
X61803765Y11639234D01*
X61803762Y11639233D01*
X61605836Y11579193D01*
X61528707Y11571596D01*
X61451580Y11564000D01*
X61348420Y11564000D01*
X61271293Y11571596D01*
X61194164Y11579193D01*
X60996238Y11639233D01*
X60996235Y11639234D01*
X60813830Y11736732D01*
X60653945Y11867945D01*
X60522732Y12027830D01*
X60425234Y12210235D01*
X60387726Y12333884D01*
X60365193Y12408164D01*
X60344920Y12614000D01*
X60365193Y12819836D01*
X60425233Y13017762D01*
X60425234Y13017765D01*
X60522732Y13200170D01*
X60653945Y13360055D01*
X60813830Y13491268D01*
X60996235Y13588766D01*
X60996238Y13588767D01*
X61194164Y13648807D01*
X61271293Y13656404D01*
X61348420Y13664000D01*
X61451580Y13664000D01*
X61528707Y13656404D01*
X61528707Y13656404D01*
G37*
G36*
X14142000Y11932000D02*
G01*
X12218000Y11932000D01*
X12218000Y13856000D01*
X14142000Y13856000D01*
X14142000Y11932000D01*
X14142000Y11932000D01*
G37*
G36*
X3260026Y15533885D02*
G01*
X3478411Y15443427D01*
X3478413Y15443426D01*
X3674955Y15312101D01*
X3842101Y15144955D01*
X3973427Y14948411D01*
X4063885Y14730026D01*
X4110000Y14498191D01*
X4110000Y14261809D01*
X4063885Y14029974D01*
X3973427Y13811589D01*
X3973426Y13811587D01*
X3842101Y13615045D01*
X3674955Y13447899D01*
X3478413Y13316574D01*
X3478412Y13316573D01*
X3478411Y13316573D01*
X3260026Y13226115D01*
X3028191Y13180000D01*
X2791809Y13180000D01*
X2559974Y13226115D01*
X2341589Y13316573D01*
X2341588Y13316573D01*
X2341587Y13316574D01*
X2145045Y13447899D01*
X1977899Y13615045D01*
X1846574Y13811587D01*
X1846573Y13811589D01*
X1756115Y14029974D01*
X1710000Y14261809D01*
X1710000Y14498191D01*
X1756115Y14730026D01*
X1846573Y14948411D01*
X1977899Y15144955D01*
X2145045Y15312101D01*
X2341587Y15443426D01*
X2341589Y15443427D01*
X2559974Y15533885D01*
X2791809Y15580000D01*
X3028191Y15580000D01*
X3260026Y15533885D01*
X3260026Y15533885D01*
G37*
G36*
X8260026Y15533885D02*
G01*
X8478411Y15443427D01*
X8478413Y15443426D01*
X8674955Y15312101D01*
X8842101Y15144955D01*
X8973427Y14948411D01*
X9063885Y14730026D01*
X9110000Y14498191D01*
X9110000Y14261809D01*
X9063885Y14029974D01*
X8973427Y13811589D01*
X8973426Y13811587D01*
X8842101Y13615045D01*
X8674955Y13447899D01*
X8478413Y13316574D01*
X8478412Y13316573D01*
X8478411Y13316573D01*
X8260026Y13226115D01*
X8028191Y13180000D01*
X7791809Y13180000D01*
X7559974Y13226115D01*
X7341589Y13316573D01*
X7341588Y13316573D01*
X7341587Y13316574D01*
X7145045Y13447899D01*
X6977899Y13615045D01*
X6846574Y13811587D01*
X6846573Y13811589D01*
X6756115Y14029974D01*
X6710000Y14261809D01*
X6710000Y14498191D01*
X6756115Y14730026D01*
X6846573Y14948411D01*
X6977899Y15144955D01*
X7145045Y15312101D01*
X7341587Y15443426D01*
X7341589Y15443427D01*
X7559974Y15533885D01*
X7791809Y15580000D01*
X8028191Y15580000D01*
X8260026Y15533885D01*
X8260026Y15533885D01*
G37*
G36*
X62450000Y14104000D02*
G01*
X60350000Y14104000D01*
X60350000Y16204000D01*
X62450000Y16204000D01*
X62450000Y14104000D01*
X62450000Y14104000D01*
G37*
G36*
X13460604Y16359032D02*
G01*
X13635678Y16286514D01*
X13635679Y16286513D01*
X13793237Y16181237D01*
X13927237Y16047237D01*
X14015007Y15915879D01*
X14032514Y15889678D01*
X14068772Y15802142D01*
X14105032Y15714604D01*
X14142000Y15528750D01*
X14142000Y15339250D01*
X14105032Y15153396D01*
X14068772Y15065858D01*
X14032514Y14978322D01*
X14032513Y14978321D01*
X13927237Y14820763D01*
X13793237Y14686763D01*
X13661879Y14598993D01*
X13635678Y14581486D01*
X13548142Y14545228D01*
X13460604Y14508968D01*
X13274750Y14472000D01*
X13085250Y14472000D01*
X12899396Y14508968D01*
X12811858Y14545228D01*
X12724322Y14581486D01*
X12698121Y14598993D01*
X12566763Y14686763D01*
X12432763Y14820763D01*
X12327487Y14978321D01*
X12327486Y14978322D01*
X12291228Y15065858D01*
X12254968Y15153396D01*
X12218000Y15339250D01*
X12218000Y15528750D01*
X12254968Y15714604D01*
X12291228Y15802142D01*
X12327486Y15889678D01*
X12344993Y15915879D01*
X12432763Y16047237D01*
X12566763Y16181237D01*
X12724321Y16286513D01*
X12724322Y16286514D01*
X12899396Y16359032D01*
X13085250Y16396000D01*
X13274750Y16396000D01*
X13460604Y16359032D01*
X13460604Y16359032D01*
G37*
G36*
X3260026Y18533885D02*
G01*
X3478411Y18443427D01*
X3478413Y18443426D01*
X3513953Y18419679D01*
X3674955Y18312101D01*
X3842101Y18144955D01*
X3973427Y17948411D01*
X4063885Y17730026D01*
X4110000Y17498191D01*
X4110000Y17261809D01*
X4063885Y17029974D01*
X3973427Y16811589D01*
X3973426Y16811587D01*
X3842101Y16615045D01*
X3674955Y16447899D01*
X3478413Y16316574D01*
X3478412Y16316573D01*
X3478411Y16316573D01*
X3260026Y16226115D01*
X3028191Y16180000D01*
X2791809Y16180000D01*
X2559974Y16226115D01*
X2341589Y16316573D01*
X2341588Y16316573D01*
X2341587Y16316574D01*
X2145045Y16447899D01*
X1977899Y16615045D01*
X1846574Y16811587D01*
X1846573Y16811589D01*
X1756115Y17029974D01*
X1710000Y17261809D01*
X1710000Y17498191D01*
X1756115Y17730026D01*
X1846573Y17948411D01*
X1977899Y18144955D01*
X2145045Y18312101D01*
X2306047Y18419679D01*
X2341587Y18443426D01*
X2341589Y18443427D01*
X2559974Y18533885D01*
X2791809Y18580000D01*
X3028191Y18580000D01*
X3260026Y18533885D01*
X3260026Y18533885D01*
G37*
G36*
X8260026Y18533885D02*
G01*
X8478411Y18443427D01*
X8478413Y18443426D01*
X8513953Y18419679D01*
X8674955Y18312101D01*
X8842101Y18144955D01*
X8973427Y17948411D01*
X9063885Y17730026D01*
X9110000Y17498191D01*
X9110000Y17261809D01*
X9063885Y17029974D01*
X8973427Y16811589D01*
X8973426Y16811587D01*
X8842101Y16615045D01*
X8674955Y16447899D01*
X8478413Y16316574D01*
X8478412Y16316573D01*
X8478411Y16316573D01*
X8260026Y16226115D01*
X8028191Y16180000D01*
X7791809Y16180000D01*
X7559974Y16226115D01*
X7341589Y16316573D01*
X7341588Y16316573D01*
X7341587Y16316574D01*
X7145045Y16447899D01*
X6977899Y16615045D01*
X6846574Y16811587D01*
X6846573Y16811589D01*
X6756115Y17029974D01*
X6710000Y17261809D01*
X6710000Y17498191D01*
X6756115Y17730026D01*
X6846573Y17948411D01*
X6977899Y18144955D01*
X7145045Y18312101D01*
X7306047Y18419679D01*
X7341587Y18443426D01*
X7341589Y18443427D01*
X7559974Y18533885D01*
X7791809Y18580000D01*
X8028191Y18580000D01*
X8260026Y18533885D01*
X8260026Y18533885D01*
G37*
G36*
X13460604Y18889032D02*
G01*
X13548142Y18852772D01*
X13635678Y18816514D01*
X13635679Y18816513D01*
X13793237Y18711237D01*
X13927237Y18577237D01*
X14015007Y18445879D01*
X14032514Y18419678D01*
X14068772Y18332142D01*
X14105032Y18244604D01*
X14142000Y18058750D01*
X14142000Y17869250D01*
X14105032Y17683396D01*
X14068772Y17595858D01*
X14032514Y17508322D01*
X14025744Y17498190D01*
X13927237Y17350763D01*
X13793237Y17216763D01*
X13661879Y17128993D01*
X13635678Y17111486D01*
X13548142Y17075228D01*
X13460604Y17038968D01*
X13274750Y17002000D01*
X13085250Y17002000D01*
X12899396Y17038968D01*
X12811858Y17075228D01*
X12724322Y17111486D01*
X12698121Y17128993D01*
X12566763Y17216763D01*
X12432763Y17350763D01*
X12334256Y17498190D01*
X12327486Y17508322D01*
X12291228Y17595858D01*
X12254968Y17683396D01*
X12218000Y17869250D01*
X12218000Y18058750D01*
X12254968Y18244604D01*
X12327486Y18419678D01*
X12344993Y18445879D01*
X12432763Y18577237D01*
X12566763Y18711237D01*
X12724321Y18816513D01*
X12724322Y18816514D01*
X12811858Y18852772D01*
X12899396Y18889032D01*
X13085250Y18926000D01*
X13274750Y18926000D01*
X13460604Y18889032D01*
X13460604Y18889032D01*
G37*
G36*
X13460604Y21429032D02*
G01*
X13635678Y21356514D01*
X13635679Y21356513D01*
X13793237Y21251237D01*
X13927237Y21117237D01*
X14015007Y20985879D01*
X14032514Y20959678D01*
X14068772Y20872142D01*
X14105032Y20784604D01*
X14142000Y20598750D01*
X14142000Y20409250D01*
X14105032Y20223396D01*
X14068772Y20135858D01*
X14032514Y20048322D01*
X14032513Y20048321D01*
X13927237Y19890763D01*
X13793237Y19756763D01*
X13661879Y19668993D01*
X13635678Y19651486D01*
X13548142Y19615228D01*
X13460604Y19578968D01*
X13274750Y19542000D01*
X13085250Y19542000D01*
X12899396Y19578968D01*
X12811858Y19615228D01*
X12724322Y19651486D01*
X12698121Y19668993D01*
X12566763Y19756763D01*
X12432763Y19890763D01*
X12327487Y20048321D01*
X12327486Y20048322D01*
X12291228Y20135858D01*
X12254968Y20223396D01*
X12218000Y20409250D01*
X12218000Y20598750D01*
X12254968Y20784604D01*
X12291228Y20872142D01*
X12327486Y20959678D01*
X12344993Y20985879D01*
X12432763Y21117237D01*
X12566763Y21251237D01*
X12724321Y21356513D01*
X12724322Y21356514D01*
X12899396Y21429032D01*
X13085250Y21466000D01*
X13274750Y21466000D01*
X13460604Y21429032D01*
X13460604Y21429032D01*
G37*
G36*
X22190707Y22558403D02*
G01*
X22267836Y22550807D01*
X22465762Y22490767D01*
X22465765Y22490766D01*
X22648170Y22393268D01*
X22808055Y22262055D01*
X22939268Y22102170D01*
X23036766Y21919765D01*
X23036767Y21919762D01*
X23096807Y21721836D01*
X23117080Y21516000D01*
X23096807Y21310164D01*
X23038284Y21117239D01*
X23036766Y21112235D01*
X22939268Y20929830D01*
X22808055Y20769945D01*
X22648170Y20638732D01*
X22465765Y20541234D01*
X22465762Y20541233D01*
X22267836Y20481193D01*
X22190707Y20473596D01*
X22113580Y20466000D01*
X22010420Y20466000D01*
X21933293Y20473596D01*
X21856164Y20481193D01*
X21658238Y20541233D01*
X21658235Y20541234D01*
X21475830Y20638732D01*
X21315945Y20769945D01*
X21184732Y20929830D01*
X21087234Y21112235D01*
X21085716Y21117239D01*
X21027193Y21310164D01*
X21006920Y21516000D01*
X21027193Y21721836D01*
X21087233Y21919762D01*
X21087234Y21919765D01*
X21184732Y22102170D01*
X21315945Y22262055D01*
X21475830Y22393268D01*
X21658235Y22490766D01*
X21658238Y22490767D01*
X21856164Y22550807D01*
X21933293Y22558403D01*
X22010420Y22566000D01*
X22113580Y22566000D01*
X22190707Y22558403D01*
X22190707Y22558403D01*
G37*
G36*
X40892000Y20466000D02*
G01*
X38792000Y20466000D01*
X38792000Y22566000D01*
X40892000Y22566000D01*
X40892000Y20466000D01*
X40892000Y20466000D01*
G37*
G36*
X24730707Y22558403D02*
G01*
X24807836Y22550807D01*
X25005762Y22490767D01*
X25005765Y22490766D01*
X25188170Y22393268D01*
X25348055Y22262055D01*
X25479268Y22102170D01*
X25576766Y21919765D01*
X25576767Y21919762D01*
X25636807Y21721836D01*
X25657080Y21516000D01*
X25636807Y21310164D01*
X25578284Y21117239D01*
X25576766Y21112235D01*
X25479268Y20929830D01*
X25348055Y20769945D01*
X25188170Y20638732D01*
X25005765Y20541234D01*
X25005762Y20541233D01*
X24807836Y20481193D01*
X24730707Y20473596D01*
X24653580Y20466000D01*
X24550420Y20466000D01*
X24473293Y20473596D01*
X24396164Y20481193D01*
X24198238Y20541233D01*
X24198235Y20541234D01*
X24015830Y20638732D01*
X23855945Y20769945D01*
X23724732Y20929830D01*
X23627234Y21112235D01*
X23625716Y21117239D01*
X23567193Y21310164D01*
X23546920Y21516000D01*
X23567193Y21721836D01*
X23627233Y21919762D01*
X23627234Y21919765D01*
X23724732Y22102170D01*
X23855945Y22262055D01*
X24015830Y22393268D01*
X24198235Y22490766D01*
X24198238Y22490767D01*
X24396164Y22550807D01*
X24473293Y22558403D01*
X24550420Y22566000D01*
X24653580Y22566000D01*
X24730707Y22558403D01*
X24730707Y22558403D01*
G37*
G36*
X27270707Y22558403D02*
G01*
X27347836Y22550807D01*
X27545762Y22490767D01*
X27545765Y22490766D01*
X27728170Y22393268D01*
X27888055Y22262055D01*
X28019268Y22102170D01*
X28116766Y21919765D01*
X28116767Y21919762D01*
X28176807Y21721836D01*
X28197080Y21516000D01*
X28176807Y21310164D01*
X28118284Y21117239D01*
X28116766Y21112235D01*
X28019268Y20929830D01*
X27888055Y20769945D01*
X27728170Y20638732D01*
X27545765Y20541234D01*
X27545762Y20541233D01*
X27347836Y20481193D01*
X27270707Y20473596D01*
X27193580Y20466000D01*
X27090420Y20466000D01*
X27013293Y20473596D01*
X26936164Y20481193D01*
X26738238Y20541233D01*
X26738235Y20541234D01*
X26555830Y20638732D01*
X26395945Y20769945D01*
X26264732Y20929830D01*
X26167234Y21112235D01*
X26165716Y21117239D01*
X26107193Y21310164D01*
X26086920Y21516000D01*
X26107193Y21721836D01*
X26167233Y21919762D01*
X26167234Y21919765D01*
X26264732Y22102170D01*
X26395945Y22262055D01*
X26555830Y22393268D01*
X26738235Y22490766D01*
X26738238Y22490767D01*
X26936164Y22550807D01*
X27013293Y22558403D01*
X27090420Y22566000D01*
X27193580Y22566000D01*
X27270707Y22558403D01*
X27270707Y22558403D01*
G37*
G36*
X29810707Y22558403D02*
G01*
X29887836Y22550807D01*
X30085762Y22490767D01*
X30085765Y22490766D01*
X30268170Y22393268D01*
X30428055Y22262055D01*
X30559268Y22102170D01*
X30656766Y21919765D01*
X30656767Y21919762D01*
X30716807Y21721836D01*
X30737080Y21516000D01*
X30716807Y21310164D01*
X30658284Y21117239D01*
X30656766Y21112235D01*
X30559268Y20929830D01*
X30428055Y20769945D01*
X30268170Y20638732D01*
X30085765Y20541234D01*
X30085762Y20541233D01*
X29887836Y20481193D01*
X29810707Y20473596D01*
X29733580Y20466000D01*
X29630420Y20466000D01*
X29553293Y20473596D01*
X29476164Y20481193D01*
X29278238Y20541233D01*
X29278235Y20541234D01*
X29095830Y20638732D01*
X28935945Y20769945D01*
X28804732Y20929830D01*
X28707234Y21112235D01*
X28705716Y21117239D01*
X28647193Y21310164D01*
X28626920Y21516000D01*
X28647193Y21721836D01*
X28707233Y21919762D01*
X28707234Y21919765D01*
X28804732Y22102170D01*
X28935945Y22262055D01*
X29095830Y22393268D01*
X29278235Y22490766D01*
X29278238Y22490767D01*
X29476164Y22550807D01*
X29553293Y22558403D01*
X29630420Y22566000D01*
X29733580Y22566000D01*
X29810707Y22558403D01*
X29810707Y22558403D01*
G37*
G36*
X32350707Y22558403D02*
G01*
X32427836Y22550807D01*
X32625762Y22490767D01*
X32625765Y22490766D01*
X32808170Y22393268D01*
X32968055Y22262055D01*
X33099268Y22102170D01*
X33196766Y21919765D01*
X33196767Y21919762D01*
X33256807Y21721836D01*
X33277080Y21516000D01*
X33256807Y21310164D01*
X33198284Y21117239D01*
X33196766Y21112235D01*
X33099268Y20929830D01*
X32968055Y20769945D01*
X32808170Y20638732D01*
X32625765Y20541234D01*
X32625762Y20541233D01*
X32427836Y20481193D01*
X32350707Y20473596D01*
X32273580Y20466000D01*
X32170420Y20466000D01*
X32093293Y20473596D01*
X32016164Y20481193D01*
X31818238Y20541233D01*
X31818235Y20541234D01*
X31635830Y20638732D01*
X31475945Y20769945D01*
X31344732Y20929830D01*
X31247234Y21112235D01*
X31245716Y21117239D01*
X31187193Y21310164D01*
X31166920Y21516000D01*
X31187193Y21721836D01*
X31247233Y21919762D01*
X31247234Y21919765D01*
X31344732Y22102170D01*
X31475945Y22262055D01*
X31635830Y22393268D01*
X31818235Y22490766D01*
X31818238Y22490767D01*
X32016164Y22550807D01*
X32093293Y22558403D01*
X32170420Y22566000D01*
X32273580Y22566000D01*
X32350707Y22558403D01*
X32350707Y22558403D01*
G37*
G36*
X34890707Y22558403D02*
G01*
X34967836Y22550807D01*
X35165762Y22490767D01*
X35165765Y22490766D01*
X35348170Y22393268D01*
X35508055Y22262055D01*
X35639268Y22102170D01*
X35736766Y21919765D01*
X35736767Y21919762D01*
X35796807Y21721836D01*
X35817080Y21516000D01*
X35796807Y21310164D01*
X35738284Y21117239D01*
X35736766Y21112235D01*
X35639268Y20929830D01*
X35508055Y20769945D01*
X35348170Y20638732D01*
X35165765Y20541234D01*
X35165762Y20541233D01*
X34967836Y20481193D01*
X34890707Y20473596D01*
X34813580Y20466000D01*
X34710420Y20466000D01*
X34633293Y20473596D01*
X34556164Y20481193D01*
X34358238Y20541233D01*
X34358235Y20541234D01*
X34175830Y20638732D01*
X34015945Y20769945D01*
X33884732Y20929830D01*
X33787234Y21112235D01*
X33785716Y21117239D01*
X33727193Y21310164D01*
X33706920Y21516000D01*
X33727193Y21721836D01*
X33787233Y21919762D01*
X33787234Y21919765D01*
X33884732Y22102170D01*
X34015945Y22262055D01*
X34175830Y22393268D01*
X34358235Y22490766D01*
X34358238Y22490767D01*
X34556164Y22550807D01*
X34633293Y22558403D01*
X34710420Y22566000D01*
X34813580Y22566000D01*
X34890707Y22558403D01*
X34890707Y22558403D01*
G37*
G36*
X37430707Y22558403D02*
G01*
X37507836Y22550807D01*
X37705762Y22490767D01*
X37705765Y22490766D01*
X37888170Y22393268D01*
X38048055Y22262055D01*
X38179268Y22102170D01*
X38276766Y21919765D01*
X38276767Y21919762D01*
X38336807Y21721836D01*
X38357080Y21516000D01*
X38336807Y21310164D01*
X38278284Y21117239D01*
X38276766Y21112235D01*
X38179268Y20929830D01*
X38048055Y20769945D01*
X37888170Y20638732D01*
X37705765Y20541234D01*
X37705762Y20541233D01*
X37507836Y20481193D01*
X37430707Y20473596D01*
X37353580Y20466000D01*
X37250420Y20466000D01*
X37173293Y20473596D01*
X37096164Y20481193D01*
X36898238Y20541233D01*
X36898235Y20541234D01*
X36715830Y20638732D01*
X36555945Y20769945D01*
X36424732Y20929830D01*
X36327234Y21112235D01*
X36325716Y21117239D01*
X36267193Y21310164D01*
X36246920Y21516000D01*
X36267193Y21721836D01*
X36327233Y21919762D01*
X36327234Y21919765D01*
X36424732Y22102170D01*
X36555945Y22262055D01*
X36715830Y22393268D01*
X36898235Y22490766D01*
X36898238Y22490767D01*
X37096164Y22550807D01*
X37173293Y22558403D01*
X37250420Y22566000D01*
X37353580Y22566000D01*
X37430707Y22558403D01*
X37430707Y22558403D01*
G37*
G36*
X8518707Y25082403D02*
G01*
X8595836Y25074807D01*
X8793762Y25014767D01*
X8793765Y25014766D01*
X8976170Y24917268D01*
X9136055Y24786055D01*
X9267268Y24626170D01*
X9364766Y24443765D01*
X9364767Y24443762D01*
X9424807Y24245836D01*
X9445080Y24040000D01*
X9424807Y23834164D01*
X9364767Y23636238D01*
X9364766Y23636235D01*
X9267268Y23453830D01*
X9136055Y23293945D01*
X8976170Y23162732D01*
X8793765Y23065234D01*
X8793762Y23065233D01*
X8595836Y23005193D01*
X8518707Y22997596D01*
X8441580Y22990000D01*
X8338420Y22990000D01*
X8261293Y22997596D01*
X8184164Y23005193D01*
X7986238Y23065233D01*
X7986235Y23065234D01*
X7803830Y23162732D01*
X7643945Y23293945D01*
X7512732Y23453830D01*
X7415234Y23636235D01*
X7415233Y23636238D01*
X7355193Y23834164D01*
X7334920Y24040000D01*
X7355193Y24245836D01*
X7415233Y24443762D01*
X7415234Y24443765D01*
X7512732Y24626170D01*
X7643945Y24786055D01*
X7803830Y24917268D01*
X7986235Y25014766D01*
X7986238Y25014767D01*
X8184164Y25074807D01*
X8261293Y25082403D01*
X8338420Y25090000D01*
X8441580Y25090000D01*
X8518707Y25082403D01*
X8518707Y25082403D01*
G37*
G36*
X11058707Y25082403D02*
G01*
X11135836Y25074807D01*
X11333762Y25014767D01*
X11333765Y25014766D01*
X11516170Y24917268D01*
X11676055Y24786055D01*
X11807268Y24626170D01*
X11904766Y24443765D01*
X11904767Y24443762D01*
X11964807Y24245836D01*
X11985080Y24040000D01*
X11964807Y23834164D01*
X11904767Y23636238D01*
X11904766Y23636235D01*
X11807268Y23453830D01*
X11676055Y23293945D01*
X11516170Y23162732D01*
X11333765Y23065234D01*
X11333762Y23065233D01*
X11135836Y23005193D01*
X11058707Y22997596D01*
X10981580Y22990000D01*
X10878420Y22990000D01*
X10801293Y22997596D01*
X10724164Y23005193D01*
X10526238Y23065233D01*
X10526235Y23065234D01*
X10343830Y23162732D01*
X10183945Y23293945D01*
X10052732Y23453830D01*
X9955234Y23636235D01*
X9955233Y23636238D01*
X9895193Y23834164D01*
X9874920Y24040000D01*
X9895193Y24245836D01*
X9955233Y24443762D01*
X9955234Y24443765D01*
X10052732Y24626170D01*
X10183945Y24786055D01*
X10343830Y24917268D01*
X10526235Y25014766D01*
X10526238Y25014767D01*
X10724164Y25074807D01*
X10801293Y25082403D01*
X10878420Y25090000D01*
X10981580Y25090000D01*
X11058707Y25082403D01*
X11058707Y25082403D01*
G37*
G36*
X5978707Y25082403D02*
G01*
X6055836Y25074807D01*
X6253762Y25014767D01*
X6253765Y25014766D01*
X6436170Y24917268D01*
X6596055Y24786055D01*
X6727268Y24626170D01*
X6824766Y24443765D01*
X6824767Y24443762D01*
X6884807Y24245836D01*
X6905080Y24040000D01*
X6884807Y23834164D01*
X6824767Y23636238D01*
X6824766Y23636235D01*
X6727268Y23453830D01*
X6596055Y23293945D01*
X6436170Y23162732D01*
X6253765Y23065234D01*
X6253762Y23065233D01*
X6055836Y23005193D01*
X5978707Y22997596D01*
X5901580Y22990000D01*
X5798420Y22990000D01*
X5721293Y22997596D01*
X5644164Y23005193D01*
X5446238Y23065233D01*
X5446235Y23065234D01*
X5263830Y23162732D01*
X5103945Y23293945D01*
X4972732Y23453830D01*
X4875234Y23636235D01*
X4875233Y23636238D01*
X4815193Y23834164D01*
X4794920Y24040000D01*
X4815193Y24245836D01*
X4875233Y24443762D01*
X4875234Y24443765D01*
X4972732Y24626170D01*
X5103945Y24786055D01*
X5263830Y24917268D01*
X5446235Y25014766D01*
X5446238Y25014767D01*
X5644164Y25074807D01*
X5721293Y25082403D01*
X5798420Y25090000D01*
X5901580Y25090000D01*
X5978707Y25082403D01*
X5978707Y25082403D01*
G37*
G36*
X4360000Y22990000D02*
G01*
X2260000Y22990000D01*
X2260000Y25090000D01*
X4360000Y25090000D01*
X4360000Y22990000D01*
X4360000Y22990000D01*
G37*
G36*
X58960000Y24894000D02*
G01*
X56860000Y24894000D01*
X56860000Y26994000D01*
X58960000Y26994000D01*
X58960000Y24894000D01*
X58960000Y24894000D01*
G37*
G36*
X63118707Y26986403D02*
G01*
X63195836Y26978807D01*
X63393762Y26918767D01*
X63393765Y26918766D01*
X63576170Y26821268D01*
X63736055Y26690055D01*
X63867268Y26530170D01*
X63964766Y26347765D01*
X63964767Y26347762D01*
X64024807Y26149836D01*
X64045080Y25944000D01*
X64024807Y25738164D01*
X63964767Y25540238D01*
X63964766Y25540235D01*
X63867268Y25357830D01*
X63736055Y25197945D01*
X63576170Y25066732D01*
X63393765Y24969234D01*
X63393762Y24969233D01*
X63195836Y24909193D01*
X63118707Y24901597D01*
X63041580Y24894000D01*
X62938420Y24894000D01*
X62861293Y24901597D01*
X62784164Y24909193D01*
X62586238Y24969233D01*
X62586235Y24969234D01*
X62403830Y25066732D01*
X62243945Y25197945D01*
X62112732Y25357830D01*
X62015234Y25540235D01*
X62015233Y25540238D01*
X61955193Y25738164D01*
X61934920Y25944000D01*
X61955193Y26149836D01*
X62015233Y26347762D01*
X62015234Y26347765D01*
X62112732Y26530170D01*
X62243945Y26690055D01*
X62403830Y26821268D01*
X62586235Y26918766D01*
X62586238Y26918767D01*
X62784164Y26978807D01*
X62861293Y26986403D01*
X62938420Y26994000D01*
X63041580Y26994000D01*
X63118707Y26986403D01*
X63118707Y26986403D01*
G37*
G36*
X60578707Y26986403D02*
G01*
X60655836Y26978807D01*
X60853762Y26918767D01*
X60853765Y26918766D01*
X61036170Y26821268D01*
X61196055Y26690055D01*
X61327268Y26530170D01*
X61424766Y26347765D01*
X61424767Y26347762D01*
X61484807Y26149836D01*
X61505080Y25944000D01*
X61484807Y25738164D01*
X61424767Y25540238D01*
X61424766Y25540235D01*
X61327268Y25357830D01*
X61196055Y25197945D01*
X61036170Y25066732D01*
X60853765Y24969234D01*
X60853762Y24969233D01*
X60655836Y24909193D01*
X60578707Y24901597D01*
X60501580Y24894000D01*
X60398420Y24894000D01*
X60321293Y24901597D01*
X60244164Y24909193D01*
X60046238Y24969233D01*
X60046235Y24969234D01*
X59863830Y25066732D01*
X59703945Y25197945D01*
X59572732Y25357830D01*
X59475234Y25540235D01*
X59475233Y25540238D01*
X59415193Y25738164D01*
X59394920Y25944000D01*
X59415193Y26149836D01*
X59475233Y26347762D01*
X59475234Y26347765D01*
X59572732Y26530170D01*
X59703945Y26690055D01*
X59863830Y26821268D01*
X60046235Y26918766D01*
X60046238Y26918767D01*
X60244164Y26978807D01*
X60321293Y26986403D01*
X60398420Y26994000D01*
X60501580Y26994000D01*
X60578707Y26986403D01*
X60578707Y26986403D01*
G37*
G36*
X60578707Y29526404D02*
G01*
X60655836Y29518807D01*
X60853762Y29458767D01*
X60853765Y29458766D01*
X61036170Y29361268D01*
X61196055Y29230055D01*
X61327268Y29070170D01*
X61424766Y28887765D01*
X61424767Y28887762D01*
X61484807Y28689836D01*
X61505080Y28484000D01*
X61484807Y28278164D01*
X61424767Y28080238D01*
X61424766Y28080235D01*
X61327268Y27897830D01*
X61196055Y27737945D01*
X61036170Y27606732D01*
X60853765Y27509234D01*
X60853762Y27509233D01*
X60655836Y27449193D01*
X60578707Y27441596D01*
X60501580Y27434000D01*
X60398420Y27434000D01*
X60321293Y27441596D01*
X60244164Y27449193D01*
X60046238Y27509233D01*
X60046235Y27509234D01*
X59863830Y27606732D01*
X59703945Y27737945D01*
X59572732Y27897830D01*
X59475234Y28080235D01*
X59475233Y28080238D01*
X59415193Y28278164D01*
X59394920Y28484000D01*
X59415193Y28689836D01*
X59475233Y28887762D01*
X59475234Y28887765D01*
X59572732Y29070170D01*
X59703945Y29230055D01*
X59863830Y29361268D01*
X60046235Y29458766D01*
X60046238Y29458767D01*
X60244164Y29518807D01*
X60321293Y29526403D01*
X60398420Y29534000D01*
X60501580Y29534000D01*
X60578707Y29526404D01*
X60578707Y29526404D01*
G37*
G36*
X58960000Y27434000D02*
G01*
X56860000Y27434000D01*
X56860000Y29534000D01*
X58960000Y29534000D01*
X58960000Y27434000D01*
X58960000Y27434000D01*
G37*
G36*
X63118707Y29526404D02*
G01*
X63195836Y29518807D01*
X63393762Y29458767D01*
X63393765Y29458766D01*
X63576170Y29361268D01*
X63736055Y29230055D01*
X63867268Y29070170D01*
X63964766Y28887765D01*
X63964767Y28887762D01*
X64024807Y28689836D01*
X64045080Y28484000D01*
X64024807Y28278164D01*
X63964767Y28080238D01*
X63964766Y28080235D01*
X63867268Y27897830D01*
X63736055Y27737945D01*
X63576170Y27606732D01*
X63393765Y27509234D01*
X63393762Y27509233D01*
X63195836Y27449193D01*
X63118707Y27441596D01*
X63041580Y27434000D01*
X62938420Y27434000D01*
X62861293Y27441596D01*
X62784164Y27449193D01*
X62586238Y27509233D01*
X62586235Y27509234D01*
X62403830Y27606732D01*
X62243945Y27737945D01*
X62112732Y27897830D01*
X62015234Y28080235D01*
X62015233Y28080238D01*
X61955193Y28278164D01*
X61934920Y28484000D01*
X61955193Y28689836D01*
X62015233Y28887762D01*
X62015234Y28887765D01*
X62112732Y29070170D01*
X62243945Y29230055D01*
X62403830Y29361268D01*
X62586235Y29458766D01*
X62586238Y29458767D01*
X62784164Y29518807D01*
X62861293Y29526403D01*
X62938420Y29534000D01*
X63041580Y29534000D01*
X63118707Y29526404D01*
X63118707Y29526404D01*
G37*
G36*
X63118707Y32066403D02*
G01*
X63195836Y32058807D01*
X63393762Y31998767D01*
X63393765Y31998766D01*
X63576170Y31901268D01*
X63736055Y31770055D01*
X63867268Y31610170D01*
X63964766Y31427765D01*
X63964767Y31427762D01*
X64024807Y31229836D01*
X64045080Y31024000D01*
X64024807Y30818164D01*
X63964767Y30620238D01*
X63964766Y30620235D01*
X63867268Y30437830D01*
X63736055Y30277945D01*
X63576170Y30146732D01*
X63393765Y30049234D01*
X63393762Y30049233D01*
X63195836Y29989193D01*
X63118707Y29981596D01*
X63041580Y29974000D01*
X62938420Y29974000D01*
X62861293Y29981596D01*
X62784164Y29989193D01*
X62586238Y30049233D01*
X62586235Y30049234D01*
X62403830Y30146732D01*
X62243945Y30277945D01*
X62112732Y30437830D01*
X62015234Y30620235D01*
X62015233Y30620238D01*
X61955193Y30818164D01*
X61934920Y31024000D01*
X61955193Y31229836D01*
X62015233Y31427762D01*
X62015234Y31427765D01*
X62112732Y31610170D01*
X62243945Y31770055D01*
X62403830Y31901268D01*
X62586235Y31998766D01*
X62586238Y31998767D01*
X62784164Y32058807D01*
X62861293Y32066404D01*
X62938420Y32074000D01*
X63041580Y32074000D01*
X63118707Y32066403D01*
X63118707Y32066403D01*
G37*
G36*
X60578707Y32066403D02*
G01*
X60655836Y32058807D01*
X60853762Y31998767D01*
X60853765Y31998766D01*
X61036170Y31901268D01*
X61196055Y31770055D01*
X61327268Y31610170D01*
X61424766Y31427765D01*
X61424767Y31427762D01*
X61484807Y31229836D01*
X61505080Y31024000D01*
X61484807Y30818164D01*
X61424767Y30620238D01*
X61424766Y30620235D01*
X61327268Y30437830D01*
X61196055Y30277945D01*
X61036170Y30146732D01*
X60853765Y30049234D01*
X60853762Y30049233D01*
X60655836Y29989193D01*
X60578707Y29981596D01*
X60501580Y29974000D01*
X60398420Y29974000D01*
X60321293Y29981596D01*
X60244164Y29989193D01*
X60046238Y30049233D01*
X60046235Y30049234D01*
X59863830Y30146732D01*
X59703945Y30277945D01*
X59572732Y30437830D01*
X59475234Y30620235D01*
X59475233Y30620238D01*
X59415193Y30818164D01*
X59394920Y31024000D01*
X59415193Y31229836D01*
X59475233Y31427762D01*
X59475234Y31427765D01*
X59572732Y31610170D01*
X59703945Y31770055D01*
X59863830Y31901268D01*
X60046235Y31998766D01*
X60046238Y31998767D01*
X60244164Y32058807D01*
X60321293Y32066404D01*
X60398420Y32074000D01*
X60501580Y32074000D01*
X60578707Y32066403D01*
X60578707Y32066403D01*
G37*
G36*
X58960000Y29974000D02*
G01*
X56860000Y29974000D01*
X56860000Y32074000D01*
X58960000Y32074000D01*
X58960000Y29974000D01*
X58960000Y29974000D01*
G37*
G36*
X63118707Y34606404D02*
G01*
X63195836Y34598807D01*
X63393762Y34538767D01*
X63393765Y34538766D01*
X63576170Y34441268D01*
X63736055Y34310055D01*
X63867268Y34150170D01*
X63964766Y33967765D01*
X63964767Y33967762D01*
X64024807Y33769836D01*
X64045080Y33564000D01*
X64024807Y33358164D01*
X63989917Y33243147D01*
X63964766Y33160235D01*
X63867268Y32977830D01*
X63736055Y32817945D01*
X63576170Y32686732D01*
X63393765Y32589234D01*
X63393762Y32589233D01*
X63195836Y32529193D01*
X63118707Y32521597D01*
X63041580Y32514000D01*
X62938420Y32514000D01*
X62861293Y32521597D01*
X62784164Y32529193D01*
X62586238Y32589233D01*
X62586235Y32589234D01*
X62403830Y32686732D01*
X62243945Y32817945D01*
X62112732Y32977830D01*
X62015234Y33160235D01*
X61990083Y33243147D01*
X61955193Y33358164D01*
X61934920Y33564000D01*
X61955193Y33769836D01*
X62015233Y33967762D01*
X62015234Y33967765D01*
X62112732Y34150170D01*
X62243945Y34310055D01*
X62403830Y34441268D01*
X62586235Y34538766D01*
X62586238Y34538767D01*
X62784164Y34598807D01*
X62861293Y34606404D01*
X62938420Y34614000D01*
X63041580Y34614000D01*
X63118707Y34606404D01*
X63118707Y34606404D01*
G37*
G36*
X58960000Y32514000D02*
G01*
X56860000Y32514000D01*
X56860000Y34614000D01*
X58960000Y34614000D01*
X58960000Y32514000D01*
X58960000Y32514000D01*
G37*
G36*
X60578707Y34606404D02*
G01*
X60655836Y34598807D01*
X60853762Y34538767D01*
X60853765Y34538766D01*
X61036170Y34441268D01*
X61196055Y34310055D01*
X61327268Y34150170D01*
X61424766Y33967765D01*
X61424767Y33967762D01*
X61484807Y33769836D01*
X61505080Y33564000D01*
X61484807Y33358164D01*
X61449917Y33243147D01*
X61424766Y33160235D01*
X61327268Y32977830D01*
X61196055Y32817945D01*
X61036170Y32686732D01*
X60853765Y32589234D01*
X60853762Y32589233D01*
X60655836Y32529193D01*
X60578707Y32521597D01*
X60501580Y32514000D01*
X60398420Y32514000D01*
X60321293Y32521597D01*
X60244164Y32529193D01*
X60046238Y32589233D01*
X60046235Y32589234D01*
X59863830Y32686732D01*
X59703945Y32817945D01*
X59572732Y32977830D01*
X59475234Y33160235D01*
X59450083Y33243147D01*
X59415193Y33358164D01*
X59394920Y33564000D01*
X59415193Y33769836D01*
X59475233Y33967762D01*
X59475234Y33967765D01*
X59572732Y34150170D01*
X59703945Y34310055D01*
X59863830Y34441268D01*
X60046235Y34538766D01*
X60046238Y34538767D01*
X60244164Y34598807D01*
X60321293Y34606404D01*
X60398420Y34614000D01*
X60501580Y34614000D01*
X60578707Y34606404D01*
X60578707Y34606404D01*
G37*
G36*
X9904845Y38331190D02*
G01*
X10149896Y38256855D01*
X10375736Y38136140D01*
X10573687Y37973687D01*
X10736140Y37775736D01*
X10856855Y37549896D01*
X10931190Y37304845D01*
X10950000Y37113864D01*
X10950000Y34386136D01*
X10931190Y34195155D01*
X10856855Y33950104D01*
X10736140Y33724264D01*
X10573687Y33526313D01*
X10375735Y33363860D01*
X10149895Y33243145D01*
X9904844Y33168810D01*
X9650000Y33143710D01*
X9395155Y33168810D01*
X9150104Y33243145D01*
X8924264Y33363860D01*
X8726313Y33526313D01*
X8563860Y33724265D01*
X8443145Y33950105D01*
X8368810Y34195156D01*
X8350000Y34386137D01*
X8350001Y37113864D01*
X8368811Y37304845D01*
X8443146Y37549896D01*
X8563861Y37775736D01*
X8726314Y37973687D01*
X8924265Y38136140D01*
X9150105Y38256855D01*
X9395156Y38331190D01*
X9650000Y38356290D01*
X9904845Y38331190D01*
X9904845Y38331190D01*
G37*
G36*
X63118707Y37146403D02*
G01*
X63195836Y37138807D01*
X63393762Y37078767D01*
X63393765Y37078766D01*
X63576170Y36981268D01*
X63736055Y36850055D01*
X63867268Y36690170D01*
X63964766Y36507765D01*
X63964767Y36507762D01*
X64024807Y36309836D01*
X64045080Y36104000D01*
X64024807Y35898164D01*
X63964767Y35700238D01*
X63964766Y35700235D01*
X63867268Y35517830D01*
X63736055Y35357945D01*
X63576170Y35226732D01*
X63393765Y35129234D01*
X63393762Y35129233D01*
X63195836Y35069193D01*
X63118707Y35061596D01*
X63041580Y35054000D01*
X62938420Y35054000D01*
X62861293Y35061596D01*
X62784164Y35069193D01*
X62586238Y35129233D01*
X62586235Y35129234D01*
X62403830Y35226732D01*
X62243945Y35357945D01*
X62112732Y35517830D01*
X62015234Y35700235D01*
X62015233Y35700238D01*
X61955193Y35898164D01*
X61934920Y36104000D01*
X61955193Y36309836D01*
X62015233Y36507762D01*
X62015234Y36507765D01*
X62112732Y36690170D01*
X62243945Y36850055D01*
X62403830Y36981268D01*
X62586235Y37078766D01*
X62586238Y37078767D01*
X62784164Y37138807D01*
X62861293Y37146403D01*
X62938420Y37154000D01*
X63041580Y37154000D01*
X63118707Y37146403D01*
X63118707Y37146403D01*
G37*
G36*
X58960000Y35054000D02*
G01*
X56860000Y35054000D01*
X56860000Y37154000D01*
X58960000Y37154000D01*
X58960000Y35054000D01*
X58960000Y35054000D01*
G37*
G36*
X60578707Y37146403D02*
G01*
X60655836Y37138807D01*
X60853762Y37078767D01*
X60853765Y37078766D01*
X61036170Y36981268D01*
X61196055Y36850055D01*
X61327268Y36690170D01*
X61424766Y36507765D01*
X61424767Y36507762D01*
X61484807Y36309836D01*
X61505080Y36104000D01*
X61484807Y35898164D01*
X61424767Y35700238D01*
X61424766Y35700235D01*
X61327268Y35517830D01*
X61196055Y35357945D01*
X61036170Y35226732D01*
X60853765Y35129234D01*
X60853762Y35129233D01*
X60655836Y35069193D01*
X60578707Y35061596D01*
X60501580Y35054000D01*
X60398420Y35054000D01*
X60321293Y35061596D01*
X60244164Y35069193D01*
X60046238Y35129233D01*
X60046235Y35129234D01*
X59863830Y35226732D01*
X59703945Y35357945D01*
X59572732Y35517830D01*
X59475234Y35700235D01*
X59475233Y35700238D01*
X59415193Y35898164D01*
X59394920Y36104000D01*
X59415193Y36309836D01*
X59475233Y36507762D01*
X59475234Y36507765D01*
X59572732Y36690170D01*
X59703945Y36850055D01*
X59863830Y36981268D01*
X60046235Y37078766D01*
X60046238Y37078767D01*
X60244164Y37138807D01*
X60321293Y37146403D01*
X60398420Y37154000D01*
X60501580Y37154000D01*
X60578707Y37146403D01*
X60578707Y37146403D01*
G37*
G36*
X7904845Y42831190D02*
G01*
X8149896Y42756855D01*
X8375736Y42636140D01*
X8573687Y42473687D01*
X8736140Y42275736D01*
X8856855Y42049896D01*
X8931190Y41804845D01*
X8956290Y41550000D01*
X8931190Y41295155D01*
X8856855Y41050104D01*
X8736140Y40824264D01*
X8573687Y40626313D01*
X8375736Y40463860D01*
X8149896Y40343145D01*
X7904845Y40268810D01*
X7713864Y40250000D01*
X5126198Y40250000D01*
X5101812Y40247598D01*
X5078363Y40240485D01*
X5056752Y40228934D01*
X5037810Y40213389D01*
X5022265Y40194447D01*
X5010714Y40172836D01*
X5003601Y40149387D01*
X5001199Y40125001D01*
X5003601Y40100615D01*
X5010714Y40077166D01*
X5022265Y40055555D01*
X5037810Y40036613D01*
X5056752Y40021068D01*
X5078363Y40009517D01*
X5089894Y40005391D01*
X5249896Y39956855D01*
X5475736Y39836140D01*
X5673687Y39673687D01*
X5836140Y39475736D01*
X5956855Y39249896D01*
X6031190Y39004845D01*
X6056290Y38750000D01*
X6031190Y38495155D01*
X5956855Y38250104D01*
X5836140Y38024264D01*
X5673687Y37826313D01*
X5475736Y37663860D01*
X5249896Y37543145D01*
X5004845Y37468810D01*
X4813864Y37450000D01*
X1886136Y37450000D01*
X1695155Y37468810D01*
X1450104Y37543145D01*
X1224264Y37663860D01*
X1026313Y37826313D01*
X863860Y38024264D01*
X743145Y38250104D01*
X668810Y38495155D01*
X643710Y38750000D01*
X668810Y39004845D01*
X743145Y39249896D01*
X863860Y39475736D01*
X1026313Y39673687D01*
X1224264Y39836140D01*
X1450104Y39956855D01*
X1695155Y40031190D01*
X1886136Y40050000D01*
X4473802Y40050000D01*
X4498188Y40052402D01*
X4521637Y40059515D01*
X4543248Y40071066D01*
X4562190Y40086611D01*
X4577735Y40105553D01*
X4589286Y40127164D01*
X4596399Y40150613D01*
X4598801Y40174999D01*
X4596399Y40199385D01*
X4589286Y40222834D01*
X4577735Y40244445D01*
X4562190Y40263387D01*
X4543248Y40278932D01*
X4521637Y40290483D01*
X4510106Y40294609D01*
X4350104Y40343145D01*
X4124264Y40463860D01*
X3926313Y40626313D01*
X3763860Y40824264D01*
X3643145Y41050104D01*
X3568810Y41295155D01*
X3543710Y41550000D01*
X3568810Y41804845D01*
X3643145Y42049896D01*
X3763860Y42275736D01*
X3926313Y42473687D01*
X4124264Y42636140D01*
X4350104Y42756855D01*
X4595155Y42831190D01*
X4786136Y42850000D01*
X7713864Y42850000D01*
X7904845Y42831190D01*
X7904845Y42831190D01*
G37*
G36*
X60578707Y39686404D02*
G01*
X60655836Y39678807D01*
X60853762Y39618767D01*
X60853765Y39618766D01*
X61036170Y39521268D01*
X61196055Y39390055D01*
X61327268Y39230170D01*
X61424766Y39047765D01*
X61424767Y39047762D01*
X61484807Y38849836D01*
X61505080Y38644000D01*
X61484807Y38438164D01*
X61452357Y38331190D01*
X61424766Y38240235D01*
X61327268Y38057830D01*
X61196055Y37897945D01*
X61036170Y37766732D01*
X60853765Y37669234D01*
X60853762Y37669233D01*
X60655836Y37609193D01*
X60578707Y37601596D01*
X60501580Y37594000D01*
X60398420Y37594000D01*
X60321293Y37601597D01*
X60244164Y37609193D01*
X60046238Y37669233D01*
X60046235Y37669234D01*
X59863830Y37766732D01*
X59703945Y37897945D01*
X59572732Y38057830D01*
X59475234Y38240235D01*
X59447643Y38331190D01*
X59415193Y38438164D01*
X59394920Y38644000D01*
X59415193Y38849836D01*
X59475233Y39047762D01*
X59475234Y39047765D01*
X59572732Y39230170D01*
X59703945Y39390055D01*
X59863830Y39521268D01*
X60046235Y39618766D01*
X60046238Y39618767D01*
X60244164Y39678807D01*
X60321293Y39686404D01*
X60398420Y39694000D01*
X60501580Y39694000D01*
X60578707Y39686404D01*
X60578707Y39686404D01*
G37*
G36*
X63118707Y39686404D02*
G01*
X63195836Y39678807D01*
X63393762Y39618767D01*
X63393765Y39618766D01*
X63576170Y39521268D01*
X63736055Y39390055D01*
X63867268Y39230170D01*
X63964766Y39047765D01*
X63964767Y39047762D01*
X64024807Y38849836D01*
X64045080Y38644000D01*
X64024807Y38438164D01*
X63992357Y38331190D01*
X63964766Y38240235D01*
X63867268Y38057830D01*
X63736055Y37897945D01*
X63576170Y37766732D01*
X63393765Y37669234D01*
X63393762Y37669233D01*
X63195836Y37609193D01*
X63118707Y37601596D01*
X63041580Y37594000D01*
X62938420Y37594000D01*
X62861293Y37601597D01*
X62784164Y37609193D01*
X62586238Y37669233D01*
X62586235Y37669234D01*
X62403830Y37766732D01*
X62243945Y37897945D01*
X62112732Y38057830D01*
X62015234Y38240235D01*
X61987643Y38331190D01*
X61955193Y38438164D01*
X61934920Y38644000D01*
X61955193Y38849836D01*
X62015233Y39047762D01*
X62015234Y39047765D01*
X62112732Y39230170D01*
X62243945Y39390055D01*
X62403830Y39521268D01*
X62586235Y39618766D01*
X62586238Y39618767D01*
X62784164Y39678807D01*
X62861293Y39686404D01*
X62938420Y39694000D01*
X63041580Y39694000D01*
X63118707Y39686404D01*
X63118707Y39686404D01*
G37*
G36*
X58960000Y37594000D02*
G01*
X56860000Y37594000D01*
X56860000Y39694000D01*
X58960000Y39694000D01*
X58960000Y37594000D01*
X58960000Y37594000D01*
G37*
G36*
X60578707Y42226403D02*
G01*
X60655836Y42218807D01*
X60853762Y42158767D01*
X60853765Y42158766D01*
X61036170Y42061268D01*
X61196055Y41930055D01*
X61327268Y41770170D01*
X61424766Y41587765D01*
X61424767Y41587762D01*
X61484807Y41389836D01*
X61505080Y41184000D01*
X61484807Y40978164D01*
X61438122Y40824264D01*
X61424766Y40780235D01*
X61327268Y40597830D01*
X61196055Y40437945D01*
X61036170Y40306732D01*
X60853765Y40209234D01*
X60853762Y40209233D01*
X60655836Y40149193D01*
X60578707Y40141596D01*
X60501580Y40134000D01*
X60398420Y40134000D01*
X60321293Y40141596D01*
X60244164Y40149193D01*
X60046238Y40209233D01*
X60046235Y40209234D01*
X59863830Y40306732D01*
X59703945Y40437945D01*
X59572732Y40597830D01*
X59475234Y40780235D01*
X59461878Y40824264D01*
X59415193Y40978164D01*
X59394920Y41184000D01*
X59415193Y41389836D01*
X59475233Y41587762D01*
X59475234Y41587765D01*
X59572732Y41770170D01*
X59703945Y41930055D01*
X59863830Y42061268D01*
X60046235Y42158766D01*
X60046238Y42158767D01*
X60244164Y42218807D01*
X60321293Y42226403D01*
X60398420Y42234000D01*
X60501580Y42234000D01*
X60578707Y42226403D01*
X60578707Y42226403D01*
G37*
G36*
X58960000Y40134000D02*
G01*
X56860000Y40134000D01*
X56860000Y42234000D01*
X58960000Y42234000D01*
X58960000Y40134000D01*
X58960000Y40134000D01*
G37*
G36*
X63118707Y42226403D02*
G01*
X63195836Y42218807D01*
X63393762Y42158767D01*
X63393765Y42158766D01*
X63576170Y42061268D01*
X63736055Y41930055D01*
X63867268Y41770170D01*
X63964766Y41587765D01*
X63964767Y41587762D01*
X64024807Y41389836D01*
X64045080Y41184000D01*
X64024807Y40978164D01*
X63978122Y40824264D01*
X63964766Y40780235D01*
X63867268Y40597830D01*
X63736055Y40437945D01*
X63576170Y40306732D01*
X63393765Y40209234D01*
X63393762Y40209233D01*
X63195836Y40149193D01*
X63118707Y40141596D01*
X63041580Y40134000D01*
X62938420Y40134000D01*
X62861293Y40141596D01*
X62784164Y40149193D01*
X62586238Y40209233D01*
X62586235Y40209234D01*
X62403830Y40306732D01*
X62243945Y40437945D01*
X62112732Y40597830D01*
X62015234Y40780235D01*
X62001878Y40824264D01*
X61955193Y40978164D01*
X61934920Y41184000D01*
X61955193Y41389836D01*
X62015233Y41587762D01*
X62015234Y41587765D01*
X62112732Y41770170D01*
X62243945Y41930055D01*
X62403830Y42061268D01*
X62586235Y42158766D01*
X62586238Y42158767D01*
X62784164Y42218807D01*
X62861293Y42226403D01*
X62938420Y42234000D01*
X63041580Y42234000D01*
X63118707Y42226403D01*
X63118707Y42226403D01*
G37*
G36*
X58960000Y42674000D02*
G01*
X56860000Y42674000D01*
X56860000Y44774000D01*
X58960000Y44774000D01*
X58960000Y42674000D01*
X58960000Y42674000D01*
G37*
G36*
X60578707Y44766404D02*
G01*
X60655836Y44758807D01*
X60853762Y44698767D01*
X60853765Y44698766D01*
X61036170Y44601268D01*
X61196055Y44470055D01*
X61327268Y44310170D01*
X61424766Y44127765D01*
X61424767Y44127762D01*
X61484807Y43929836D01*
X61505080Y43724000D01*
X61484807Y43518164D01*
X61424767Y43320238D01*
X61424766Y43320235D01*
X61327268Y43137830D01*
X61196055Y42977945D01*
X61036170Y42846732D01*
X60853765Y42749234D01*
X60853762Y42749233D01*
X60655836Y42689193D01*
X60578707Y42681596D01*
X60501580Y42674000D01*
X60398420Y42674000D01*
X60321293Y42681597D01*
X60244164Y42689193D01*
X60046238Y42749233D01*
X60046235Y42749234D01*
X59863830Y42846732D01*
X59703945Y42977945D01*
X59572732Y43137830D01*
X59475234Y43320235D01*
X59475233Y43320238D01*
X59415193Y43518164D01*
X59394920Y43724000D01*
X59415193Y43929836D01*
X59475233Y44127762D01*
X59475234Y44127765D01*
X59572732Y44310170D01*
X59703945Y44470055D01*
X59863830Y44601268D01*
X60046235Y44698766D01*
X60046238Y44698767D01*
X60244164Y44758807D01*
X60321293Y44766404D01*
X60398420Y44774000D01*
X60501580Y44774000D01*
X60578707Y44766404D01*
X60578707Y44766404D01*
G37*
G36*
X63118707Y44766404D02*
G01*
X63195836Y44758807D01*
X63393762Y44698767D01*
X63393765Y44698766D01*
X63576170Y44601268D01*
X63736055Y44470055D01*
X63867268Y44310170D01*
X63964766Y44127765D01*
X63964767Y44127762D01*
X64024807Y43929836D01*
X64045080Y43724000D01*
X64024807Y43518164D01*
X63964767Y43320238D01*
X63964766Y43320235D01*
X63867268Y43137830D01*
X63736055Y42977945D01*
X63576170Y42846732D01*
X63393765Y42749234D01*
X63393762Y42749233D01*
X63195836Y42689193D01*
X63118707Y42681596D01*
X63041580Y42674000D01*
X62938420Y42674000D01*
X62861293Y42681597D01*
X62784164Y42689193D01*
X62586238Y42749233D01*
X62586235Y42749234D01*
X62403830Y42846732D01*
X62243945Y42977945D01*
X62112732Y43137830D01*
X62015234Y43320235D01*
X62015233Y43320238D01*
X61955193Y43518164D01*
X61934920Y43724000D01*
X61955193Y43929836D01*
X62015233Y44127762D01*
X62015234Y44127765D01*
X62112732Y44310170D01*
X62243945Y44470055D01*
X62403830Y44601268D01*
X62586235Y44698766D01*
X62586238Y44698767D01*
X62784164Y44758807D01*
X62861293Y44766404D01*
X62938420Y44774000D01*
X63041580Y44774000D01*
X63118707Y44766404D01*
X63118707Y44766404D01*
G37*
G36*
X25356983Y55640240D02*
G01*
X25543999Y55583510D01*
X25716344Y55491389D01*
X25867412Y55367412D01*
X25991389Y55216344D01*
X26083510Y55043999D01*
X26140240Y54856983D01*
X26160000Y54656360D01*
X26160000Y48643640D01*
X26140240Y48443017D01*
X26083510Y48256001D01*
X25991389Y48083656D01*
X25867412Y47932588D01*
X25716344Y47808611D01*
X25543999Y47716490D01*
X25356983Y47659760D01*
X25156360Y47640000D01*
X22923640Y47640000D01*
X22723017Y47659760D01*
X22536001Y47716490D01*
X22363656Y47808611D01*
X22212588Y47932588D01*
X22088611Y48083656D01*
X21996490Y48256001D01*
X21939760Y48443017D01*
X21920000Y48643640D01*
X21920000Y54656360D01*
X21939760Y54856983D01*
X21996490Y55043999D01*
X22088611Y55216344D01*
X22212588Y55367412D01*
X22363656Y55491389D01*
X22536001Y55583510D01*
X22723017Y55640240D01*
X22923640Y55660000D01*
X25156360Y55660000D01*
X25356983Y55640240D01*
X25356983Y55640240D01*
G37*
G36*
X55842983Y55640240D02*
G01*
X56029999Y55583510D01*
X56202344Y55491389D01*
X56353412Y55367412D01*
X56477389Y55216344D01*
X56569510Y55043999D01*
X56626240Y54856983D01*
X56646000Y54656360D01*
X56646000Y48643640D01*
X56626240Y48443017D01*
X56569510Y48256001D01*
X56477389Y48083656D01*
X56353412Y47932588D01*
X56202344Y47808611D01*
X56029999Y47716490D01*
X55842983Y47659760D01*
X55642360Y47640000D01*
X53409640Y47640000D01*
X53209017Y47659760D01*
X53022001Y47716490D01*
X52849656Y47808611D01*
X52698588Y47932588D01*
X52574611Y48083656D01*
X52482490Y48256001D01*
X52425760Y48443017D01*
X52406000Y48643640D01*
X52406000Y54656360D01*
X52425760Y54856983D01*
X52482490Y55043999D01*
X52574611Y55216344D01*
X52698588Y55367412D01*
X52849656Y55491389D01*
X53022001Y55583510D01*
X53209017Y55640240D01*
X53409640Y55660000D01*
X55642360Y55660000D01*
X55842983Y55640240D01*
X55842983Y55640240D01*
G37*
G36*
X50762983Y55640240D02*
G01*
X50949999Y55583510D01*
X51122344Y55491389D01*
X51273412Y55367412D01*
X51397389Y55216344D01*
X51489510Y55043999D01*
X51546240Y54856983D01*
X51566000Y54656360D01*
X51566000Y48643640D01*
X51546240Y48443017D01*
X51489510Y48256001D01*
X51397389Y48083656D01*
X51273412Y47932588D01*
X51122344Y47808611D01*
X50949999Y47716490D01*
X50762983Y47659760D01*
X50562360Y47640000D01*
X48329640Y47640000D01*
X48129017Y47659760D01*
X47942001Y47716490D01*
X47769656Y47808611D01*
X47618588Y47932588D01*
X47494611Y48083656D01*
X47402490Y48256001D01*
X47345760Y48443017D01*
X47326000Y48643640D01*
X47326000Y54656360D01*
X47345760Y54856983D01*
X47402490Y55043999D01*
X47494611Y55216344D01*
X47618588Y55367412D01*
X47769656Y55491389D01*
X47942001Y55583510D01*
X48129017Y55640240D01*
X48329640Y55660000D01*
X50562360Y55660000D01*
X50762983Y55640240D01*
X50762983Y55640240D01*
G37*
G36*
X30436983Y55640240D02*
G01*
X30623999Y55583510D01*
X30796344Y55491389D01*
X30947412Y55367412D01*
X31071389Y55216344D01*
X31163510Y55043999D01*
X31220240Y54856983D01*
X31240000Y54656360D01*
X31240000Y48643640D01*
X31220240Y48443017D01*
X31163510Y48256001D01*
X31071389Y48083656D01*
X30947412Y47932588D01*
X30796344Y47808611D01*
X30623999Y47716490D01*
X30436983Y47659760D01*
X30236360Y47640000D01*
X28003640Y47640000D01*
X27803017Y47659760D01*
X27616001Y47716490D01*
X27443656Y47808611D01*
X27292588Y47932588D01*
X27168611Y48083656D01*
X27076490Y48256001D01*
X27019760Y48443017D01*
X27000000Y48643640D01*
X27000000Y54656360D01*
X27019760Y54856983D01*
X27076490Y55043999D01*
X27168611Y55216344D01*
X27292588Y55367412D01*
X27443656Y55491389D01*
X27616001Y55583510D01*
X27803017Y55640240D01*
X28003640Y55660000D01*
X30236360Y55660000D01*
X30436983Y55640240D01*
X30436983Y55640240D01*
G37*
G36*
X38059983Y55640240D02*
G01*
X38246999Y55583510D01*
X38419344Y55491389D01*
X38570412Y55367412D01*
X38694389Y55216344D01*
X38786510Y55043999D01*
X38843240Y54856983D01*
X38863000Y54656360D01*
X38863000Y48643640D01*
X38843240Y48443017D01*
X38786510Y48256001D01*
X38694389Y48083656D01*
X38570412Y47932588D01*
X38419344Y47808611D01*
X38246999Y47716490D01*
X38059983Y47659760D01*
X37859360Y47640000D01*
X35626640Y47640000D01*
X35426017Y47659760D01*
X35239001Y47716490D01*
X35066656Y47808611D01*
X34915588Y47932588D01*
X34791611Y48083656D01*
X34699490Y48256001D01*
X34642760Y48443017D01*
X34623000Y48643640D01*
X34623000Y54656360D01*
X34642760Y54856983D01*
X34699490Y55043999D01*
X34791611Y55216344D01*
X34915588Y55367412D01*
X35066656Y55491389D01*
X35239001Y55583510D01*
X35426017Y55640240D01*
X35626640Y55660000D01*
X37859360Y55660000D01*
X38059983Y55640240D01*
X38059983Y55640240D01*
G37*
G36*
X43139983Y55640240D02*
G01*
X43326999Y55583510D01*
X43499344Y55491389D01*
X43650412Y55367412D01*
X43774389Y55216344D01*
X43866510Y55043999D01*
X43923240Y54856983D01*
X43943000Y54656360D01*
X43943000Y48643640D01*
X43923240Y48443017D01*
X43866510Y48256001D01*
X43774389Y48083656D01*
X43650412Y47932588D01*
X43499344Y47808611D01*
X43326999Y47716490D01*
X43139983Y47659760D01*
X42939360Y47640000D01*
X40706640Y47640000D01*
X40506017Y47659760D01*
X40319001Y47716490D01*
X40146656Y47808611D01*
X39995588Y47932588D01*
X39871611Y48083656D01*
X39779490Y48256001D01*
X39722760Y48443017D01*
X39703000Y48643640D01*
X39703000Y54656360D01*
X39722760Y54856983D01*
X39779490Y55043999D01*
X39871611Y55216344D01*
X39995588Y55367412D01*
X40146656Y55491389D01*
X40319001Y55583510D01*
X40506017Y55640240D01*
X40706640Y55660000D01*
X42939360Y55660000D01*
X43139983Y55640240D01*
X43139983Y55640240D01*
G37*
G36*
X15209722Y52554344D02*
G01*
X15313566Y52533688D01*
X15370866Y52509953D01*
X15509203Y52452653D01*
X15685272Y52335007D01*
X15835007Y52185272D01*
X15952653Y52009203D01*
X16033688Y51813565D01*
X16075000Y51605879D01*
X16075000Y51394121D01*
X16054344Y51290278D01*
X16033688Y51186434D01*
X16017108Y51146407D01*
X15952653Y50990797D01*
X15835007Y50814728D01*
X15685272Y50664993D01*
X15509203Y50547347D01*
X15370866Y50490047D01*
X15313566Y50466312D01*
X15209722Y50445656D01*
X15105879Y50425000D01*
X14894121Y50425000D01*
X14790278Y50445656D01*
X14686434Y50466312D01*
X14629134Y50490047D01*
X14490797Y50547347D01*
X14314728Y50664993D01*
X14164993Y50814728D01*
X14047347Y50990797D01*
X13982892Y51146407D01*
X13966312Y51186434D01*
X13945656Y51290278D01*
X13925000Y51394121D01*
X13925000Y51605879D01*
X13966312Y51813565D01*
X14047347Y52009203D01*
X14164993Y52185272D01*
X14314728Y52335007D01*
X14490797Y52452653D01*
X14629134Y52509953D01*
X14686434Y52533688D01*
X14790278Y52554344D01*
X14894121Y52575000D01*
X15105879Y52575000D01*
X15209722Y52554344D01*
X15209722Y52554344D01*
G37*
G36*
X12709722Y52554344D02*
G01*
X12813566Y52533688D01*
X12870866Y52509953D01*
X13009203Y52452653D01*
X13185272Y52335007D01*
X13335007Y52185272D01*
X13452653Y52009203D01*
X13533688Y51813565D01*
X13575000Y51605879D01*
X13575000Y51394121D01*
X13554344Y51290278D01*
X13533688Y51186434D01*
X13517108Y51146407D01*
X13452653Y50990797D01*
X13335007Y50814728D01*
X13185272Y50664993D01*
X13009203Y50547347D01*
X12870866Y50490047D01*
X12813566Y50466312D01*
X12709722Y50445656D01*
X12605879Y50425000D01*
X12394121Y50425000D01*
X12290278Y50445656D01*
X12186434Y50466312D01*
X12129134Y50490047D01*
X11990797Y50547347D01*
X11814728Y50664993D01*
X11664993Y50814728D01*
X11547347Y50990797D01*
X11482892Y51146407D01*
X11466312Y51186434D01*
X11445656Y51290278D01*
X11425000Y51394121D01*
X11425000Y51605879D01*
X11466312Y51813565D01*
X11547347Y52009203D01*
X11664993Y52185272D01*
X11814728Y52335007D01*
X11990797Y52452653D01*
X12129134Y52509953D01*
X12186434Y52533688D01*
X12290278Y52554344D01*
X12394121Y52575000D01*
X12605879Y52575000D01*
X12709722Y52554344D01*
X12709722Y52554344D01*
G37*
G36*
X11075000Y50425000D02*
G01*
X8925000Y50425000D01*
X8925000Y52575000D01*
X11075000Y52575000D01*
X11075000Y50425000D01*
X11075000Y50425000D01*
G37*
G36*
X3802390Y54030218D02*
G01*
X3952118Y54000435D01*
X4068960Y53952037D01*
X4234199Y53883593D01*
X4234200Y53883592D01*
X4488068Y53713964D01*
X4703964Y53498068D01*
X4817306Y53328439D01*
X4873593Y53244199D01*
X4942037Y53078960D01*
X4986293Y52972118D01*
X4990435Y52962117D01*
X5050000Y52662663D01*
X5050000Y52357337D01*
X4990435Y52057883D01*
X4873593Y51775801D01*
X4873592Y51775800D01*
X4703964Y51521932D01*
X4488068Y51306036D01*
X4318439Y51192694D01*
X4234199Y51136407D01*
X4068960Y51067963D01*
X3952118Y51019565D01*
X3807490Y50990797D01*
X3652663Y50960000D01*
X3347337Y50960000D01*
X3192510Y50990797D01*
X3047882Y51019565D01*
X2931040Y51067963D01*
X2765801Y51136407D01*
X2681561Y51192694D01*
X2511932Y51306036D01*
X2296036Y51521932D01*
X2126408Y51775800D01*
X2126407Y51775801D01*
X2009565Y52057883D01*
X1950000Y52357337D01*
X1950000Y52662663D01*
X2009565Y52962117D01*
X2013708Y52972118D01*
X2057963Y53078960D01*
X2126407Y53244199D01*
X2182694Y53328439D01*
X2296036Y53498068D01*
X2511932Y53713964D01*
X2765800Y53883592D01*
X2765801Y53883593D01*
X2931040Y53952037D01*
X3047882Y54000435D01*
X3197610Y54030218D01*
X3347337Y54060000D01*
X3652663Y54060000D01*
X3802390Y54030218D01*
X3802390Y54030218D01*
G37*
G36*
X61692936Y54060000D02*
G01*
X61942118Y54010435D01*
X62058960Y53962037D01*
X62224199Y53893593D01*
X62308439Y53837306D01*
X62478068Y53723964D01*
X62693964Y53508068D01*
X62700646Y53498067D01*
X62863593Y53254199D01*
X62867735Y53244199D01*
X62980435Y52972118D01*
X63040000Y52672662D01*
X63040000Y52367338D01*
X62980435Y52067882D01*
X62956129Y52009203D01*
X62863593Y51785801D01*
X62807306Y51701561D01*
X62693964Y51531932D01*
X62478068Y51316036D01*
X62308439Y51202694D01*
X62224199Y51146407D01*
X62058960Y51077963D01*
X61942118Y51029565D01*
X61891844Y51019565D01*
X61642663Y50970000D01*
X61337337Y50970000D01*
X61088156Y51019565D01*
X61037882Y51029565D01*
X60921040Y51077963D01*
X60755801Y51146407D01*
X60671561Y51202694D01*
X60501932Y51316036D01*
X60286036Y51531932D01*
X60172694Y51701561D01*
X60116407Y51785801D01*
X60023871Y52009203D01*
X59999565Y52067882D01*
X59940000Y52367338D01*
X59940000Y52672662D01*
X59999565Y52972118D01*
X60112265Y53244199D01*
X60116407Y53254199D01*
X60279354Y53498067D01*
X60286036Y53508068D01*
X60501932Y53723964D01*
X60671561Y53837306D01*
X60755801Y53893593D01*
X60921040Y53962037D01*
X61037882Y54010435D01*
X61287064Y54060000D01*
X61337337Y54070000D01*
X61642663Y54070000D01*
X61692936Y54060000D01*
X61692936Y54060000D01*
G37*
M02*
