G04 #@! TF.GenerationSoftware,KiCad,Pcbnew,(5.1.4)-1*
G04 #@! TF.CreationDate,2019-12-09T00:56:35+11:00*
G04 #@! TF.ProjectId,dingo-hat,64696e67-6f2d-4686-9174-2e6b69636164,rev?*
G04 #@! TF.SameCoordinates,Original*
G04 #@! TF.FileFunction,Paste,Top*
G04 #@! TF.FilePolarity,Positive*
%FSLAX46Y46*%
G04 Gerber Fmt 4.6, Leading zero omitted, Abs format (unit mm)*
G04 Created by KiCad (PCBNEW (5.1.4)-1) date 2019-12-09 00:56:35*
%MOMM*%
%LPD*%
G04 APERTURE LIST*
%ADD10R,0.800000X0.500000*%
%ADD11R,0.800000X0.400000*%
%ADD12R,0.500000X0.800000*%
%ADD13R,0.400000X0.800000*%
%ADD14C,0.100000*%
%ADD15C,0.950000*%
%ADD16R,1.200000X0.900000*%
%ADD17R,0.900000X0.800000*%
%ADD18R,0.650000X0.300000*%
%ADD19R,1.550000X2.480000*%
%ADD20R,1.100000X1.100000*%
%ADD21C,1.425000*%
%ADD22R,0.400000X1.100000*%
%ADD23R,0.800000X2.200000*%
%ADD24R,3.700000X2.710000*%
%ADD25R,2.400000X1.650000*%
%ADD26R,0.300000X0.800000*%
%ADD27R,1.060000X0.650000*%
%ADD28R,2.000000X3.500000*%
%ADD29R,3.200000X1.600000*%
G04 APERTURE END LIST*
D10*
X195300000Y-111000000D03*
D11*
X195300000Y-110200000D03*
D10*
X195300000Y-108600000D03*
D11*
X195300000Y-109400000D03*
D10*
X193500000Y-111000000D03*
D11*
X193500000Y-109400000D03*
X193500000Y-110200000D03*
D10*
X193500000Y-108600000D03*
D12*
X179300000Y-114500000D03*
D13*
X178500000Y-114500000D03*
D12*
X176900000Y-114500000D03*
D13*
X177700000Y-114500000D03*
D12*
X179300000Y-116300000D03*
D13*
X177700000Y-116300000D03*
X178500000Y-116300000D03*
D12*
X176900000Y-116300000D03*
D14*
G36*
X144020779Y-82342144D02*
G01*
X144043834Y-82345563D01*
X144066443Y-82351227D01*
X144088387Y-82359079D01*
X144109457Y-82369044D01*
X144129448Y-82381026D01*
X144148168Y-82394910D01*
X144165438Y-82410562D01*
X144181090Y-82427832D01*
X144194974Y-82446552D01*
X144206956Y-82466543D01*
X144216921Y-82487613D01*
X144224773Y-82509557D01*
X144230437Y-82532166D01*
X144233856Y-82555221D01*
X144235000Y-82578500D01*
X144235000Y-83153500D01*
X144233856Y-83176779D01*
X144230437Y-83199834D01*
X144224773Y-83222443D01*
X144216921Y-83244387D01*
X144206956Y-83265457D01*
X144194974Y-83285448D01*
X144181090Y-83304168D01*
X144165438Y-83321438D01*
X144148168Y-83337090D01*
X144129448Y-83350974D01*
X144109457Y-83362956D01*
X144088387Y-83372921D01*
X144066443Y-83380773D01*
X144043834Y-83386437D01*
X144020779Y-83389856D01*
X143997500Y-83391000D01*
X143522500Y-83391000D01*
X143499221Y-83389856D01*
X143476166Y-83386437D01*
X143453557Y-83380773D01*
X143431613Y-83372921D01*
X143410543Y-83362956D01*
X143390552Y-83350974D01*
X143371832Y-83337090D01*
X143354562Y-83321438D01*
X143338910Y-83304168D01*
X143325026Y-83285448D01*
X143313044Y-83265457D01*
X143303079Y-83244387D01*
X143295227Y-83222443D01*
X143289563Y-83199834D01*
X143286144Y-83176779D01*
X143285000Y-83153500D01*
X143285000Y-82578500D01*
X143286144Y-82555221D01*
X143289563Y-82532166D01*
X143295227Y-82509557D01*
X143303079Y-82487613D01*
X143313044Y-82466543D01*
X143325026Y-82446552D01*
X143338910Y-82427832D01*
X143354562Y-82410562D01*
X143371832Y-82394910D01*
X143390552Y-82381026D01*
X143410543Y-82369044D01*
X143431613Y-82359079D01*
X143453557Y-82351227D01*
X143476166Y-82345563D01*
X143499221Y-82342144D01*
X143522500Y-82341000D01*
X143997500Y-82341000D01*
X144020779Y-82342144D01*
X144020779Y-82342144D01*
G37*
D15*
X143760000Y-82866000D03*
D14*
G36*
X144020779Y-84092144D02*
G01*
X144043834Y-84095563D01*
X144066443Y-84101227D01*
X144088387Y-84109079D01*
X144109457Y-84119044D01*
X144129448Y-84131026D01*
X144148168Y-84144910D01*
X144165438Y-84160562D01*
X144181090Y-84177832D01*
X144194974Y-84196552D01*
X144206956Y-84216543D01*
X144216921Y-84237613D01*
X144224773Y-84259557D01*
X144230437Y-84282166D01*
X144233856Y-84305221D01*
X144235000Y-84328500D01*
X144235000Y-84903500D01*
X144233856Y-84926779D01*
X144230437Y-84949834D01*
X144224773Y-84972443D01*
X144216921Y-84994387D01*
X144206956Y-85015457D01*
X144194974Y-85035448D01*
X144181090Y-85054168D01*
X144165438Y-85071438D01*
X144148168Y-85087090D01*
X144129448Y-85100974D01*
X144109457Y-85112956D01*
X144088387Y-85122921D01*
X144066443Y-85130773D01*
X144043834Y-85136437D01*
X144020779Y-85139856D01*
X143997500Y-85141000D01*
X143522500Y-85141000D01*
X143499221Y-85139856D01*
X143476166Y-85136437D01*
X143453557Y-85130773D01*
X143431613Y-85122921D01*
X143410543Y-85112956D01*
X143390552Y-85100974D01*
X143371832Y-85087090D01*
X143354562Y-85071438D01*
X143338910Y-85054168D01*
X143325026Y-85035448D01*
X143313044Y-85015457D01*
X143303079Y-84994387D01*
X143295227Y-84972443D01*
X143289563Y-84949834D01*
X143286144Y-84926779D01*
X143285000Y-84903500D01*
X143285000Y-84328500D01*
X143286144Y-84305221D01*
X143289563Y-84282166D01*
X143295227Y-84259557D01*
X143303079Y-84237613D01*
X143313044Y-84216543D01*
X143325026Y-84196552D01*
X143338910Y-84177832D01*
X143354562Y-84160562D01*
X143371832Y-84144910D01*
X143390552Y-84131026D01*
X143410543Y-84119044D01*
X143431613Y-84109079D01*
X143453557Y-84101227D01*
X143476166Y-84095563D01*
X143499221Y-84092144D01*
X143522500Y-84091000D01*
X143997500Y-84091000D01*
X144020779Y-84092144D01*
X144020779Y-84092144D01*
G37*
D15*
X143760000Y-84616000D03*
D14*
G36*
X148592779Y-84092144D02*
G01*
X148615834Y-84095563D01*
X148638443Y-84101227D01*
X148660387Y-84109079D01*
X148681457Y-84119044D01*
X148701448Y-84131026D01*
X148720168Y-84144910D01*
X148737438Y-84160562D01*
X148753090Y-84177832D01*
X148766974Y-84196552D01*
X148778956Y-84216543D01*
X148788921Y-84237613D01*
X148796773Y-84259557D01*
X148802437Y-84282166D01*
X148805856Y-84305221D01*
X148807000Y-84328500D01*
X148807000Y-84903500D01*
X148805856Y-84926779D01*
X148802437Y-84949834D01*
X148796773Y-84972443D01*
X148788921Y-84994387D01*
X148778956Y-85015457D01*
X148766974Y-85035448D01*
X148753090Y-85054168D01*
X148737438Y-85071438D01*
X148720168Y-85087090D01*
X148701448Y-85100974D01*
X148681457Y-85112956D01*
X148660387Y-85122921D01*
X148638443Y-85130773D01*
X148615834Y-85136437D01*
X148592779Y-85139856D01*
X148569500Y-85141000D01*
X148094500Y-85141000D01*
X148071221Y-85139856D01*
X148048166Y-85136437D01*
X148025557Y-85130773D01*
X148003613Y-85122921D01*
X147982543Y-85112956D01*
X147962552Y-85100974D01*
X147943832Y-85087090D01*
X147926562Y-85071438D01*
X147910910Y-85054168D01*
X147897026Y-85035448D01*
X147885044Y-85015457D01*
X147875079Y-84994387D01*
X147867227Y-84972443D01*
X147861563Y-84949834D01*
X147858144Y-84926779D01*
X147857000Y-84903500D01*
X147857000Y-84328500D01*
X147858144Y-84305221D01*
X147861563Y-84282166D01*
X147867227Y-84259557D01*
X147875079Y-84237613D01*
X147885044Y-84216543D01*
X147897026Y-84196552D01*
X147910910Y-84177832D01*
X147926562Y-84160562D01*
X147943832Y-84144910D01*
X147962552Y-84131026D01*
X147982543Y-84119044D01*
X148003613Y-84109079D01*
X148025557Y-84101227D01*
X148048166Y-84095563D01*
X148071221Y-84092144D01*
X148094500Y-84091000D01*
X148569500Y-84091000D01*
X148592779Y-84092144D01*
X148592779Y-84092144D01*
G37*
D15*
X148332000Y-84616000D03*
D14*
G36*
X148592779Y-82342144D02*
G01*
X148615834Y-82345563D01*
X148638443Y-82351227D01*
X148660387Y-82359079D01*
X148681457Y-82369044D01*
X148701448Y-82381026D01*
X148720168Y-82394910D01*
X148737438Y-82410562D01*
X148753090Y-82427832D01*
X148766974Y-82446552D01*
X148778956Y-82466543D01*
X148788921Y-82487613D01*
X148796773Y-82509557D01*
X148802437Y-82532166D01*
X148805856Y-82555221D01*
X148807000Y-82578500D01*
X148807000Y-83153500D01*
X148805856Y-83176779D01*
X148802437Y-83199834D01*
X148796773Y-83222443D01*
X148788921Y-83244387D01*
X148778956Y-83265457D01*
X148766974Y-83285448D01*
X148753090Y-83304168D01*
X148737438Y-83321438D01*
X148720168Y-83337090D01*
X148701448Y-83350974D01*
X148681457Y-83362956D01*
X148660387Y-83372921D01*
X148638443Y-83380773D01*
X148615834Y-83386437D01*
X148592779Y-83389856D01*
X148569500Y-83391000D01*
X148094500Y-83391000D01*
X148071221Y-83389856D01*
X148048166Y-83386437D01*
X148025557Y-83380773D01*
X148003613Y-83372921D01*
X147982543Y-83362956D01*
X147962552Y-83350974D01*
X147943832Y-83337090D01*
X147926562Y-83321438D01*
X147910910Y-83304168D01*
X147897026Y-83285448D01*
X147885044Y-83265457D01*
X147875079Y-83244387D01*
X147867227Y-83222443D01*
X147861563Y-83199834D01*
X147858144Y-83176779D01*
X147857000Y-83153500D01*
X147857000Y-82578500D01*
X147858144Y-82555221D01*
X147861563Y-82532166D01*
X147867227Y-82509557D01*
X147875079Y-82487613D01*
X147885044Y-82466543D01*
X147897026Y-82446552D01*
X147910910Y-82427832D01*
X147926562Y-82410562D01*
X147943832Y-82394910D01*
X147962552Y-82381026D01*
X147982543Y-82369044D01*
X148003613Y-82359079D01*
X148025557Y-82351227D01*
X148048166Y-82345563D01*
X148071221Y-82342144D01*
X148094500Y-82341000D01*
X148569500Y-82341000D01*
X148592779Y-82342144D01*
X148592779Y-82342144D01*
G37*
D15*
X148332000Y-82866000D03*
D14*
G36*
X142496779Y-84092144D02*
G01*
X142519834Y-84095563D01*
X142542443Y-84101227D01*
X142564387Y-84109079D01*
X142585457Y-84119044D01*
X142605448Y-84131026D01*
X142624168Y-84144910D01*
X142641438Y-84160562D01*
X142657090Y-84177832D01*
X142670974Y-84196552D01*
X142682956Y-84216543D01*
X142692921Y-84237613D01*
X142700773Y-84259557D01*
X142706437Y-84282166D01*
X142709856Y-84305221D01*
X142711000Y-84328500D01*
X142711000Y-84903500D01*
X142709856Y-84926779D01*
X142706437Y-84949834D01*
X142700773Y-84972443D01*
X142692921Y-84994387D01*
X142682956Y-85015457D01*
X142670974Y-85035448D01*
X142657090Y-85054168D01*
X142641438Y-85071438D01*
X142624168Y-85087090D01*
X142605448Y-85100974D01*
X142585457Y-85112956D01*
X142564387Y-85122921D01*
X142542443Y-85130773D01*
X142519834Y-85136437D01*
X142496779Y-85139856D01*
X142473500Y-85141000D01*
X141998500Y-85141000D01*
X141975221Y-85139856D01*
X141952166Y-85136437D01*
X141929557Y-85130773D01*
X141907613Y-85122921D01*
X141886543Y-85112956D01*
X141866552Y-85100974D01*
X141847832Y-85087090D01*
X141830562Y-85071438D01*
X141814910Y-85054168D01*
X141801026Y-85035448D01*
X141789044Y-85015457D01*
X141779079Y-84994387D01*
X141771227Y-84972443D01*
X141765563Y-84949834D01*
X141762144Y-84926779D01*
X141761000Y-84903500D01*
X141761000Y-84328500D01*
X141762144Y-84305221D01*
X141765563Y-84282166D01*
X141771227Y-84259557D01*
X141779079Y-84237613D01*
X141789044Y-84216543D01*
X141801026Y-84196552D01*
X141814910Y-84177832D01*
X141830562Y-84160562D01*
X141847832Y-84144910D01*
X141866552Y-84131026D01*
X141886543Y-84119044D01*
X141907613Y-84109079D01*
X141929557Y-84101227D01*
X141952166Y-84095563D01*
X141975221Y-84092144D01*
X141998500Y-84091000D01*
X142473500Y-84091000D01*
X142496779Y-84092144D01*
X142496779Y-84092144D01*
G37*
D15*
X142236000Y-84616000D03*
D14*
G36*
X142496779Y-82342144D02*
G01*
X142519834Y-82345563D01*
X142542443Y-82351227D01*
X142564387Y-82359079D01*
X142585457Y-82369044D01*
X142605448Y-82381026D01*
X142624168Y-82394910D01*
X142641438Y-82410562D01*
X142657090Y-82427832D01*
X142670974Y-82446552D01*
X142682956Y-82466543D01*
X142692921Y-82487613D01*
X142700773Y-82509557D01*
X142706437Y-82532166D01*
X142709856Y-82555221D01*
X142711000Y-82578500D01*
X142711000Y-83153500D01*
X142709856Y-83176779D01*
X142706437Y-83199834D01*
X142700773Y-83222443D01*
X142692921Y-83244387D01*
X142682956Y-83265457D01*
X142670974Y-83285448D01*
X142657090Y-83304168D01*
X142641438Y-83321438D01*
X142624168Y-83337090D01*
X142605448Y-83350974D01*
X142585457Y-83362956D01*
X142564387Y-83372921D01*
X142542443Y-83380773D01*
X142519834Y-83386437D01*
X142496779Y-83389856D01*
X142473500Y-83391000D01*
X141998500Y-83391000D01*
X141975221Y-83389856D01*
X141952166Y-83386437D01*
X141929557Y-83380773D01*
X141907613Y-83372921D01*
X141886543Y-83362956D01*
X141866552Y-83350974D01*
X141847832Y-83337090D01*
X141830562Y-83321438D01*
X141814910Y-83304168D01*
X141801026Y-83285448D01*
X141789044Y-83265457D01*
X141779079Y-83244387D01*
X141771227Y-83222443D01*
X141765563Y-83199834D01*
X141762144Y-83176779D01*
X141761000Y-83153500D01*
X141761000Y-82578500D01*
X141762144Y-82555221D01*
X141765563Y-82532166D01*
X141771227Y-82509557D01*
X141779079Y-82487613D01*
X141789044Y-82466543D01*
X141801026Y-82446552D01*
X141814910Y-82427832D01*
X141830562Y-82410562D01*
X141847832Y-82394910D01*
X141866552Y-82381026D01*
X141886543Y-82369044D01*
X141907613Y-82359079D01*
X141929557Y-82351227D01*
X141952166Y-82345563D01*
X141975221Y-82342144D01*
X141998500Y-82341000D01*
X142473500Y-82341000D01*
X142496779Y-82342144D01*
X142496779Y-82342144D01*
G37*
D15*
X142236000Y-82866000D03*
D14*
G36*
X151640779Y-84092144D02*
G01*
X151663834Y-84095563D01*
X151686443Y-84101227D01*
X151708387Y-84109079D01*
X151729457Y-84119044D01*
X151749448Y-84131026D01*
X151768168Y-84144910D01*
X151785438Y-84160562D01*
X151801090Y-84177832D01*
X151814974Y-84196552D01*
X151826956Y-84216543D01*
X151836921Y-84237613D01*
X151844773Y-84259557D01*
X151850437Y-84282166D01*
X151853856Y-84305221D01*
X151855000Y-84328500D01*
X151855000Y-84903500D01*
X151853856Y-84926779D01*
X151850437Y-84949834D01*
X151844773Y-84972443D01*
X151836921Y-84994387D01*
X151826956Y-85015457D01*
X151814974Y-85035448D01*
X151801090Y-85054168D01*
X151785438Y-85071438D01*
X151768168Y-85087090D01*
X151749448Y-85100974D01*
X151729457Y-85112956D01*
X151708387Y-85122921D01*
X151686443Y-85130773D01*
X151663834Y-85136437D01*
X151640779Y-85139856D01*
X151617500Y-85141000D01*
X151142500Y-85141000D01*
X151119221Y-85139856D01*
X151096166Y-85136437D01*
X151073557Y-85130773D01*
X151051613Y-85122921D01*
X151030543Y-85112956D01*
X151010552Y-85100974D01*
X150991832Y-85087090D01*
X150974562Y-85071438D01*
X150958910Y-85054168D01*
X150945026Y-85035448D01*
X150933044Y-85015457D01*
X150923079Y-84994387D01*
X150915227Y-84972443D01*
X150909563Y-84949834D01*
X150906144Y-84926779D01*
X150905000Y-84903500D01*
X150905000Y-84328500D01*
X150906144Y-84305221D01*
X150909563Y-84282166D01*
X150915227Y-84259557D01*
X150923079Y-84237613D01*
X150933044Y-84216543D01*
X150945026Y-84196552D01*
X150958910Y-84177832D01*
X150974562Y-84160562D01*
X150991832Y-84144910D01*
X151010552Y-84131026D01*
X151030543Y-84119044D01*
X151051613Y-84109079D01*
X151073557Y-84101227D01*
X151096166Y-84095563D01*
X151119221Y-84092144D01*
X151142500Y-84091000D01*
X151617500Y-84091000D01*
X151640779Y-84092144D01*
X151640779Y-84092144D01*
G37*
D15*
X151380000Y-84616000D03*
D14*
G36*
X151640779Y-82342144D02*
G01*
X151663834Y-82345563D01*
X151686443Y-82351227D01*
X151708387Y-82359079D01*
X151729457Y-82369044D01*
X151749448Y-82381026D01*
X151768168Y-82394910D01*
X151785438Y-82410562D01*
X151801090Y-82427832D01*
X151814974Y-82446552D01*
X151826956Y-82466543D01*
X151836921Y-82487613D01*
X151844773Y-82509557D01*
X151850437Y-82532166D01*
X151853856Y-82555221D01*
X151855000Y-82578500D01*
X151855000Y-83153500D01*
X151853856Y-83176779D01*
X151850437Y-83199834D01*
X151844773Y-83222443D01*
X151836921Y-83244387D01*
X151826956Y-83265457D01*
X151814974Y-83285448D01*
X151801090Y-83304168D01*
X151785438Y-83321438D01*
X151768168Y-83337090D01*
X151749448Y-83350974D01*
X151729457Y-83362956D01*
X151708387Y-83372921D01*
X151686443Y-83380773D01*
X151663834Y-83386437D01*
X151640779Y-83389856D01*
X151617500Y-83391000D01*
X151142500Y-83391000D01*
X151119221Y-83389856D01*
X151096166Y-83386437D01*
X151073557Y-83380773D01*
X151051613Y-83372921D01*
X151030543Y-83362956D01*
X151010552Y-83350974D01*
X150991832Y-83337090D01*
X150974562Y-83321438D01*
X150958910Y-83304168D01*
X150945026Y-83285448D01*
X150933044Y-83265457D01*
X150923079Y-83244387D01*
X150915227Y-83222443D01*
X150909563Y-83199834D01*
X150906144Y-83176779D01*
X150905000Y-83153500D01*
X150905000Y-82578500D01*
X150906144Y-82555221D01*
X150909563Y-82532166D01*
X150915227Y-82509557D01*
X150923079Y-82487613D01*
X150933044Y-82466543D01*
X150945026Y-82446552D01*
X150958910Y-82427832D01*
X150974562Y-82410562D01*
X150991832Y-82394910D01*
X151010552Y-82381026D01*
X151030543Y-82369044D01*
X151051613Y-82359079D01*
X151073557Y-82351227D01*
X151096166Y-82345563D01*
X151119221Y-82342144D01*
X151142500Y-82341000D01*
X151617500Y-82341000D01*
X151640779Y-82342144D01*
X151640779Y-82342144D01*
G37*
D15*
X151380000Y-82866000D03*
D14*
G36*
X147068779Y-84092144D02*
G01*
X147091834Y-84095563D01*
X147114443Y-84101227D01*
X147136387Y-84109079D01*
X147157457Y-84119044D01*
X147177448Y-84131026D01*
X147196168Y-84144910D01*
X147213438Y-84160562D01*
X147229090Y-84177832D01*
X147242974Y-84196552D01*
X147254956Y-84216543D01*
X147264921Y-84237613D01*
X147272773Y-84259557D01*
X147278437Y-84282166D01*
X147281856Y-84305221D01*
X147283000Y-84328500D01*
X147283000Y-84903500D01*
X147281856Y-84926779D01*
X147278437Y-84949834D01*
X147272773Y-84972443D01*
X147264921Y-84994387D01*
X147254956Y-85015457D01*
X147242974Y-85035448D01*
X147229090Y-85054168D01*
X147213438Y-85071438D01*
X147196168Y-85087090D01*
X147177448Y-85100974D01*
X147157457Y-85112956D01*
X147136387Y-85122921D01*
X147114443Y-85130773D01*
X147091834Y-85136437D01*
X147068779Y-85139856D01*
X147045500Y-85141000D01*
X146570500Y-85141000D01*
X146547221Y-85139856D01*
X146524166Y-85136437D01*
X146501557Y-85130773D01*
X146479613Y-85122921D01*
X146458543Y-85112956D01*
X146438552Y-85100974D01*
X146419832Y-85087090D01*
X146402562Y-85071438D01*
X146386910Y-85054168D01*
X146373026Y-85035448D01*
X146361044Y-85015457D01*
X146351079Y-84994387D01*
X146343227Y-84972443D01*
X146337563Y-84949834D01*
X146334144Y-84926779D01*
X146333000Y-84903500D01*
X146333000Y-84328500D01*
X146334144Y-84305221D01*
X146337563Y-84282166D01*
X146343227Y-84259557D01*
X146351079Y-84237613D01*
X146361044Y-84216543D01*
X146373026Y-84196552D01*
X146386910Y-84177832D01*
X146402562Y-84160562D01*
X146419832Y-84144910D01*
X146438552Y-84131026D01*
X146458543Y-84119044D01*
X146479613Y-84109079D01*
X146501557Y-84101227D01*
X146524166Y-84095563D01*
X146547221Y-84092144D01*
X146570500Y-84091000D01*
X147045500Y-84091000D01*
X147068779Y-84092144D01*
X147068779Y-84092144D01*
G37*
D15*
X146808000Y-84616000D03*
D14*
G36*
X147068779Y-82342144D02*
G01*
X147091834Y-82345563D01*
X147114443Y-82351227D01*
X147136387Y-82359079D01*
X147157457Y-82369044D01*
X147177448Y-82381026D01*
X147196168Y-82394910D01*
X147213438Y-82410562D01*
X147229090Y-82427832D01*
X147242974Y-82446552D01*
X147254956Y-82466543D01*
X147264921Y-82487613D01*
X147272773Y-82509557D01*
X147278437Y-82532166D01*
X147281856Y-82555221D01*
X147283000Y-82578500D01*
X147283000Y-83153500D01*
X147281856Y-83176779D01*
X147278437Y-83199834D01*
X147272773Y-83222443D01*
X147264921Y-83244387D01*
X147254956Y-83265457D01*
X147242974Y-83285448D01*
X147229090Y-83304168D01*
X147213438Y-83321438D01*
X147196168Y-83337090D01*
X147177448Y-83350974D01*
X147157457Y-83362956D01*
X147136387Y-83372921D01*
X147114443Y-83380773D01*
X147091834Y-83386437D01*
X147068779Y-83389856D01*
X147045500Y-83391000D01*
X146570500Y-83391000D01*
X146547221Y-83389856D01*
X146524166Y-83386437D01*
X146501557Y-83380773D01*
X146479613Y-83372921D01*
X146458543Y-83362956D01*
X146438552Y-83350974D01*
X146419832Y-83337090D01*
X146402562Y-83321438D01*
X146386910Y-83304168D01*
X146373026Y-83285448D01*
X146361044Y-83265457D01*
X146351079Y-83244387D01*
X146343227Y-83222443D01*
X146337563Y-83199834D01*
X146334144Y-83176779D01*
X146333000Y-83153500D01*
X146333000Y-82578500D01*
X146334144Y-82555221D01*
X146337563Y-82532166D01*
X146343227Y-82509557D01*
X146351079Y-82487613D01*
X146361044Y-82466543D01*
X146373026Y-82446552D01*
X146386910Y-82427832D01*
X146402562Y-82410562D01*
X146419832Y-82394910D01*
X146438552Y-82381026D01*
X146458543Y-82369044D01*
X146479613Y-82359079D01*
X146501557Y-82351227D01*
X146524166Y-82345563D01*
X146547221Y-82342144D01*
X146570500Y-82341000D01*
X147045500Y-82341000D01*
X147068779Y-82342144D01*
X147068779Y-82342144D01*
G37*
D15*
X146808000Y-82866000D03*
D14*
G36*
X150116779Y-82342144D02*
G01*
X150139834Y-82345563D01*
X150162443Y-82351227D01*
X150184387Y-82359079D01*
X150205457Y-82369044D01*
X150225448Y-82381026D01*
X150244168Y-82394910D01*
X150261438Y-82410562D01*
X150277090Y-82427832D01*
X150290974Y-82446552D01*
X150302956Y-82466543D01*
X150312921Y-82487613D01*
X150320773Y-82509557D01*
X150326437Y-82532166D01*
X150329856Y-82555221D01*
X150331000Y-82578500D01*
X150331000Y-83153500D01*
X150329856Y-83176779D01*
X150326437Y-83199834D01*
X150320773Y-83222443D01*
X150312921Y-83244387D01*
X150302956Y-83265457D01*
X150290974Y-83285448D01*
X150277090Y-83304168D01*
X150261438Y-83321438D01*
X150244168Y-83337090D01*
X150225448Y-83350974D01*
X150205457Y-83362956D01*
X150184387Y-83372921D01*
X150162443Y-83380773D01*
X150139834Y-83386437D01*
X150116779Y-83389856D01*
X150093500Y-83391000D01*
X149618500Y-83391000D01*
X149595221Y-83389856D01*
X149572166Y-83386437D01*
X149549557Y-83380773D01*
X149527613Y-83372921D01*
X149506543Y-83362956D01*
X149486552Y-83350974D01*
X149467832Y-83337090D01*
X149450562Y-83321438D01*
X149434910Y-83304168D01*
X149421026Y-83285448D01*
X149409044Y-83265457D01*
X149399079Y-83244387D01*
X149391227Y-83222443D01*
X149385563Y-83199834D01*
X149382144Y-83176779D01*
X149381000Y-83153500D01*
X149381000Y-82578500D01*
X149382144Y-82555221D01*
X149385563Y-82532166D01*
X149391227Y-82509557D01*
X149399079Y-82487613D01*
X149409044Y-82466543D01*
X149421026Y-82446552D01*
X149434910Y-82427832D01*
X149450562Y-82410562D01*
X149467832Y-82394910D01*
X149486552Y-82381026D01*
X149506543Y-82369044D01*
X149527613Y-82359079D01*
X149549557Y-82351227D01*
X149572166Y-82345563D01*
X149595221Y-82342144D01*
X149618500Y-82341000D01*
X150093500Y-82341000D01*
X150116779Y-82342144D01*
X150116779Y-82342144D01*
G37*
D15*
X149856000Y-82866000D03*
D14*
G36*
X150116779Y-84092144D02*
G01*
X150139834Y-84095563D01*
X150162443Y-84101227D01*
X150184387Y-84109079D01*
X150205457Y-84119044D01*
X150225448Y-84131026D01*
X150244168Y-84144910D01*
X150261438Y-84160562D01*
X150277090Y-84177832D01*
X150290974Y-84196552D01*
X150302956Y-84216543D01*
X150312921Y-84237613D01*
X150320773Y-84259557D01*
X150326437Y-84282166D01*
X150329856Y-84305221D01*
X150331000Y-84328500D01*
X150331000Y-84903500D01*
X150329856Y-84926779D01*
X150326437Y-84949834D01*
X150320773Y-84972443D01*
X150312921Y-84994387D01*
X150302956Y-85015457D01*
X150290974Y-85035448D01*
X150277090Y-85054168D01*
X150261438Y-85071438D01*
X150244168Y-85087090D01*
X150225448Y-85100974D01*
X150205457Y-85112956D01*
X150184387Y-85122921D01*
X150162443Y-85130773D01*
X150139834Y-85136437D01*
X150116779Y-85139856D01*
X150093500Y-85141000D01*
X149618500Y-85141000D01*
X149595221Y-85139856D01*
X149572166Y-85136437D01*
X149549557Y-85130773D01*
X149527613Y-85122921D01*
X149506543Y-85112956D01*
X149486552Y-85100974D01*
X149467832Y-85087090D01*
X149450562Y-85071438D01*
X149434910Y-85054168D01*
X149421026Y-85035448D01*
X149409044Y-85015457D01*
X149399079Y-84994387D01*
X149391227Y-84972443D01*
X149385563Y-84949834D01*
X149382144Y-84926779D01*
X149381000Y-84903500D01*
X149381000Y-84328500D01*
X149382144Y-84305221D01*
X149385563Y-84282166D01*
X149391227Y-84259557D01*
X149399079Y-84237613D01*
X149409044Y-84216543D01*
X149421026Y-84196552D01*
X149434910Y-84177832D01*
X149450562Y-84160562D01*
X149467832Y-84144910D01*
X149486552Y-84131026D01*
X149506543Y-84119044D01*
X149527613Y-84109079D01*
X149549557Y-84101227D01*
X149572166Y-84095563D01*
X149595221Y-84092144D01*
X149618500Y-84091000D01*
X150093500Y-84091000D01*
X150116779Y-84092144D01*
X150116779Y-84092144D01*
G37*
D15*
X149856000Y-84616000D03*
D16*
X152258000Y-105056000D03*
X150058000Y-105056000D03*
X137290000Y-110050000D03*
X135090000Y-110050000D03*
X141370000Y-110050000D03*
X139170000Y-110050000D03*
D17*
X152285000Y-103466000D03*
X152285000Y-101566000D03*
X150285000Y-102516000D03*
D18*
X155420100Y-103781000D03*
X155420100Y-103281000D03*
X155420100Y-102281000D03*
X155420100Y-101781000D03*
X158520100Y-101781000D03*
X158520100Y-102281000D03*
X158520100Y-102781000D03*
X158520100Y-103281000D03*
D19*
X156970100Y-102781000D03*
D18*
X155420100Y-102781000D03*
X158520100Y-103781000D03*
D20*
X184832000Y-87678000D03*
X187632000Y-87678000D03*
D14*
G36*
X182905779Y-121896144D02*
G01*
X182928834Y-121899563D01*
X182951443Y-121905227D01*
X182973387Y-121913079D01*
X182994457Y-121923044D01*
X183014448Y-121935026D01*
X183033168Y-121948910D01*
X183050438Y-121964562D01*
X183066090Y-121981832D01*
X183079974Y-122000552D01*
X183091956Y-122020543D01*
X183101921Y-122041613D01*
X183109773Y-122063557D01*
X183115437Y-122086166D01*
X183118856Y-122109221D01*
X183120000Y-122132500D01*
X183120000Y-122607500D01*
X183118856Y-122630779D01*
X183115437Y-122653834D01*
X183109773Y-122676443D01*
X183101921Y-122698387D01*
X183091956Y-122719457D01*
X183079974Y-122739448D01*
X183066090Y-122758168D01*
X183050438Y-122775438D01*
X183033168Y-122791090D01*
X183014448Y-122804974D01*
X182994457Y-122816956D01*
X182973387Y-122826921D01*
X182951443Y-122834773D01*
X182928834Y-122840437D01*
X182905779Y-122843856D01*
X182882500Y-122845000D01*
X182307500Y-122845000D01*
X182284221Y-122843856D01*
X182261166Y-122840437D01*
X182238557Y-122834773D01*
X182216613Y-122826921D01*
X182195543Y-122816956D01*
X182175552Y-122804974D01*
X182156832Y-122791090D01*
X182139562Y-122775438D01*
X182123910Y-122758168D01*
X182110026Y-122739448D01*
X182098044Y-122719457D01*
X182088079Y-122698387D01*
X182080227Y-122676443D01*
X182074563Y-122653834D01*
X182071144Y-122630779D01*
X182070000Y-122607500D01*
X182070000Y-122132500D01*
X182071144Y-122109221D01*
X182074563Y-122086166D01*
X182080227Y-122063557D01*
X182088079Y-122041613D01*
X182098044Y-122020543D01*
X182110026Y-122000552D01*
X182123910Y-121981832D01*
X182139562Y-121964562D01*
X182156832Y-121948910D01*
X182175552Y-121935026D01*
X182195543Y-121923044D01*
X182216613Y-121913079D01*
X182238557Y-121905227D01*
X182261166Y-121899563D01*
X182284221Y-121896144D01*
X182307500Y-121895000D01*
X182882500Y-121895000D01*
X182905779Y-121896144D01*
X182905779Y-121896144D01*
G37*
D15*
X182595000Y-122370000D03*
D14*
G36*
X184655779Y-121896144D02*
G01*
X184678834Y-121899563D01*
X184701443Y-121905227D01*
X184723387Y-121913079D01*
X184744457Y-121923044D01*
X184764448Y-121935026D01*
X184783168Y-121948910D01*
X184800438Y-121964562D01*
X184816090Y-121981832D01*
X184829974Y-122000552D01*
X184841956Y-122020543D01*
X184851921Y-122041613D01*
X184859773Y-122063557D01*
X184865437Y-122086166D01*
X184868856Y-122109221D01*
X184870000Y-122132500D01*
X184870000Y-122607500D01*
X184868856Y-122630779D01*
X184865437Y-122653834D01*
X184859773Y-122676443D01*
X184851921Y-122698387D01*
X184841956Y-122719457D01*
X184829974Y-122739448D01*
X184816090Y-122758168D01*
X184800438Y-122775438D01*
X184783168Y-122791090D01*
X184764448Y-122804974D01*
X184744457Y-122816956D01*
X184723387Y-122826921D01*
X184701443Y-122834773D01*
X184678834Y-122840437D01*
X184655779Y-122843856D01*
X184632500Y-122845000D01*
X184057500Y-122845000D01*
X184034221Y-122843856D01*
X184011166Y-122840437D01*
X183988557Y-122834773D01*
X183966613Y-122826921D01*
X183945543Y-122816956D01*
X183925552Y-122804974D01*
X183906832Y-122791090D01*
X183889562Y-122775438D01*
X183873910Y-122758168D01*
X183860026Y-122739448D01*
X183848044Y-122719457D01*
X183838079Y-122698387D01*
X183830227Y-122676443D01*
X183824563Y-122653834D01*
X183821144Y-122630779D01*
X183820000Y-122607500D01*
X183820000Y-122132500D01*
X183821144Y-122109221D01*
X183824563Y-122086166D01*
X183830227Y-122063557D01*
X183838079Y-122041613D01*
X183848044Y-122020543D01*
X183860026Y-122000552D01*
X183873910Y-121981832D01*
X183889562Y-121964562D01*
X183906832Y-121948910D01*
X183925552Y-121935026D01*
X183945543Y-121923044D01*
X183966613Y-121913079D01*
X183988557Y-121905227D01*
X184011166Y-121899563D01*
X184034221Y-121896144D01*
X184057500Y-121895000D01*
X184632500Y-121895000D01*
X184655779Y-121896144D01*
X184655779Y-121896144D01*
G37*
D15*
X184345000Y-122370000D03*
D14*
G36*
X148995779Y-94426144D02*
G01*
X149018834Y-94429563D01*
X149041443Y-94435227D01*
X149063387Y-94443079D01*
X149084457Y-94453044D01*
X149104448Y-94465026D01*
X149123168Y-94478910D01*
X149140438Y-94494562D01*
X149156090Y-94511832D01*
X149169974Y-94530552D01*
X149181956Y-94550543D01*
X149191921Y-94571613D01*
X149199773Y-94593557D01*
X149205437Y-94616166D01*
X149208856Y-94639221D01*
X149210000Y-94662500D01*
X149210000Y-95137500D01*
X149208856Y-95160779D01*
X149205437Y-95183834D01*
X149199773Y-95206443D01*
X149191921Y-95228387D01*
X149181956Y-95249457D01*
X149169974Y-95269448D01*
X149156090Y-95288168D01*
X149140438Y-95305438D01*
X149123168Y-95321090D01*
X149104448Y-95334974D01*
X149084457Y-95346956D01*
X149063387Y-95356921D01*
X149041443Y-95364773D01*
X149018834Y-95370437D01*
X148995779Y-95373856D01*
X148972500Y-95375000D01*
X148397500Y-95375000D01*
X148374221Y-95373856D01*
X148351166Y-95370437D01*
X148328557Y-95364773D01*
X148306613Y-95356921D01*
X148285543Y-95346956D01*
X148265552Y-95334974D01*
X148246832Y-95321090D01*
X148229562Y-95305438D01*
X148213910Y-95288168D01*
X148200026Y-95269448D01*
X148188044Y-95249457D01*
X148178079Y-95228387D01*
X148170227Y-95206443D01*
X148164563Y-95183834D01*
X148161144Y-95160779D01*
X148160000Y-95137500D01*
X148160000Y-94662500D01*
X148161144Y-94639221D01*
X148164563Y-94616166D01*
X148170227Y-94593557D01*
X148178079Y-94571613D01*
X148188044Y-94550543D01*
X148200026Y-94530552D01*
X148213910Y-94511832D01*
X148229562Y-94494562D01*
X148246832Y-94478910D01*
X148265552Y-94465026D01*
X148285543Y-94453044D01*
X148306613Y-94443079D01*
X148328557Y-94435227D01*
X148351166Y-94429563D01*
X148374221Y-94426144D01*
X148397500Y-94425000D01*
X148972500Y-94425000D01*
X148995779Y-94426144D01*
X148995779Y-94426144D01*
G37*
D15*
X148685000Y-94900000D03*
D14*
G36*
X150745779Y-94426144D02*
G01*
X150768834Y-94429563D01*
X150791443Y-94435227D01*
X150813387Y-94443079D01*
X150834457Y-94453044D01*
X150854448Y-94465026D01*
X150873168Y-94478910D01*
X150890438Y-94494562D01*
X150906090Y-94511832D01*
X150919974Y-94530552D01*
X150931956Y-94550543D01*
X150941921Y-94571613D01*
X150949773Y-94593557D01*
X150955437Y-94616166D01*
X150958856Y-94639221D01*
X150960000Y-94662500D01*
X150960000Y-95137500D01*
X150958856Y-95160779D01*
X150955437Y-95183834D01*
X150949773Y-95206443D01*
X150941921Y-95228387D01*
X150931956Y-95249457D01*
X150919974Y-95269448D01*
X150906090Y-95288168D01*
X150890438Y-95305438D01*
X150873168Y-95321090D01*
X150854448Y-95334974D01*
X150834457Y-95346956D01*
X150813387Y-95356921D01*
X150791443Y-95364773D01*
X150768834Y-95370437D01*
X150745779Y-95373856D01*
X150722500Y-95375000D01*
X150147500Y-95375000D01*
X150124221Y-95373856D01*
X150101166Y-95370437D01*
X150078557Y-95364773D01*
X150056613Y-95356921D01*
X150035543Y-95346956D01*
X150015552Y-95334974D01*
X149996832Y-95321090D01*
X149979562Y-95305438D01*
X149963910Y-95288168D01*
X149950026Y-95269448D01*
X149938044Y-95249457D01*
X149928079Y-95228387D01*
X149920227Y-95206443D01*
X149914563Y-95183834D01*
X149911144Y-95160779D01*
X149910000Y-95137500D01*
X149910000Y-94662500D01*
X149911144Y-94639221D01*
X149914563Y-94616166D01*
X149920227Y-94593557D01*
X149928079Y-94571613D01*
X149938044Y-94550543D01*
X149950026Y-94530552D01*
X149963910Y-94511832D01*
X149979562Y-94494562D01*
X149996832Y-94478910D01*
X150015552Y-94465026D01*
X150035543Y-94453044D01*
X150056613Y-94443079D01*
X150078557Y-94435227D01*
X150101166Y-94429563D01*
X150124221Y-94426144D01*
X150147500Y-94425000D01*
X150722500Y-94425000D01*
X150745779Y-94426144D01*
X150745779Y-94426144D01*
G37*
D15*
X150435000Y-94900000D03*
D14*
G36*
X187936779Y-107651144D02*
G01*
X187959834Y-107654563D01*
X187982443Y-107660227D01*
X188004387Y-107668079D01*
X188025457Y-107678044D01*
X188045448Y-107690026D01*
X188064168Y-107703910D01*
X188081438Y-107719562D01*
X188097090Y-107736832D01*
X188110974Y-107755552D01*
X188122956Y-107775543D01*
X188132921Y-107796613D01*
X188140773Y-107818557D01*
X188146437Y-107841166D01*
X188149856Y-107864221D01*
X188151000Y-107887500D01*
X188151000Y-108462500D01*
X188149856Y-108485779D01*
X188146437Y-108508834D01*
X188140773Y-108531443D01*
X188132921Y-108553387D01*
X188122956Y-108574457D01*
X188110974Y-108594448D01*
X188097090Y-108613168D01*
X188081438Y-108630438D01*
X188064168Y-108646090D01*
X188045448Y-108659974D01*
X188025457Y-108671956D01*
X188004387Y-108681921D01*
X187982443Y-108689773D01*
X187959834Y-108695437D01*
X187936779Y-108698856D01*
X187913500Y-108700000D01*
X187438500Y-108700000D01*
X187415221Y-108698856D01*
X187392166Y-108695437D01*
X187369557Y-108689773D01*
X187347613Y-108681921D01*
X187326543Y-108671956D01*
X187306552Y-108659974D01*
X187287832Y-108646090D01*
X187270562Y-108630438D01*
X187254910Y-108613168D01*
X187241026Y-108594448D01*
X187229044Y-108574457D01*
X187219079Y-108553387D01*
X187211227Y-108531443D01*
X187205563Y-108508834D01*
X187202144Y-108485779D01*
X187201000Y-108462500D01*
X187201000Y-107887500D01*
X187202144Y-107864221D01*
X187205563Y-107841166D01*
X187211227Y-107818557D01*
X187219079Y-107796613D01*
X187229044Y-107775543D01*
X187241026Y-107755552D01*
X187254910Y-107736832D01*
X187270562Y-107719562D01*
X187287832Y-107703910D01*
X187306552Y-107690026D01*
X187326543Y-107678044D01*
X187347613Y-107668079D01*
X187369557Y-107660227D01*
X187392166Y-107654563D01*
X187415221Y-107651144D01*
X187438500Y-107650000D01*
X187913500Y-107650000D01*
X187936779Y-107651144D01*
X187936779Y-107651144D01*
G37*
D15*
X187676000Y-108175000D03*
D14*
G36*
X187936779Y-105901144D02*
G01*
X187959834Y-105904563D01*
X187982443Y-105910227D01*
X188004387Y-105918079D01*
X188025457Y-105928044D01*
X188045448Y-105940026D01*
X188064168Y-105953910D01*
X188081438Y-105969562D01*
X188097090Y-105986832D01*
X188110974Y-106005552D01*
X188122956Y-106025543D01*
X188132921Y-106046613D01*
X188140773Y-106068557D01*
X188146437Y-106091166D01*
X188149856Y-106114221D01*
X188151000Y-106137500D01*
X188151000Y-106712500D01*
X188149856Y-106735779D01*
X188146437Y-106758834D01*
X188140773Y-106781443D01*
X188132921Y-106803387D01*
X188122956Y-106824457D01*
X188110974Y-106844448D01*
X188097090Y-106863168D01*
X188081438Y-106880438D01*
X188064168Y-106896090D01*
X188045448Y-106909974D01*
X188025457Y-106921956D01*
X188004387Y-106931921D01*
X187982443Y-106939773D01*
X187959834Y-106945437D01*
X187936779Y-106948856D01*
X187913500Y-106950000D01*
X187438500Y-106950000D01*
X187415221Y-106948856D01*
X187392166Y-106945437D01*
X187369557Y-106939773D01*
X187347613Y-106931921D01*
X187326543Y-106921956D01*
X187306552Y-106909974D01*
X187287832Y-106896090D01*
X187270562Y-106880438D01*
X187254910Y-106863168D01*
X187241026Y-106844448D01*
X187229044Y-106824457D01*
X187219079Y-106803387D01*
X187211227Y-106781443D01*
X187205563Y-106758834D01*
X187202144Y-106735779D01*
X187201000Y-106712500D01*
X187201000Y-106137500D01*
X187202144Y-106114221D01*
X187205563Y-106091166D01*
X187211227Y-106068557D01*
X187219079Y-106046613D01*
X187229044Y-106025543D01*
X187241026Y-106005552D01*
X187254910Y-105986832D01*
X187270562Y-105969562D01*
X187287832Y-105953910D01*
X187306552Y-105940026D01*
X187326543Y-105928044D01*
X187347613Y-105918079D01*
X187369557Y-105910227D01*
X187392166Y-105904563D01*
X187415221Y-105901144D01*
X187438500Y-105900000D01*
X187913500Y-105900000D01*
X187936779Y-105901144D01*
X187936779Y-105901144D01*
G37*
D15*
X187676000Y-106425000D03*
D14*
G36*
X186412779Y-105901144D02*
G01*
X186435834Y-105904563D01*
X186458443Y-105910227D01*
X186480387Y-105918079D01*
X186501457Y-105928044D01*
X186521448Y-105940026D01*
X186540168Y-105953910D01*
X186557438Y-105969562D01*
X186573090Y-105986832D01*
X186586974Y-106005552D01*
X186598956Y-106025543D01*
X186608921Y-106046613D01*
X186616773Y-106068557D01*
X186622437Y-106091166D01*
X186625856Y-106114221D01*
X186627000Y-106137500D01*
X186627000Y-106712500D01*
X186625856Y-106735779D01*
X186622437Y-106758834D01*
X186616773Y-106781443D01*
X186608921Y-106803387D01*
X186598956Y-106824457D01*
X186586974Y-106844448D01*
X186573090Y-106863168D01*
X186557438Y-106880438D01*
X186540168Y-106896090D01*
X186521448Y-106909974D01*
X186501457Y-106921956D01*
X186480387Y-106931921D01*
X186458443Y-106939773D01*
X186435834Y-106945437D01*
X186412779Y-106948856D01*
X186389500Y-106950000D01*
X185914500Y-106950000D01*
X185891221Y-106948856D01*
X185868166Y-106945437D01*
X185845557Y-106939773D01*
X185823613Y-106931921D01*
X185802543Y-106921956D01*
X185782552Y-106909974D01*
X185763832Y-106896090D01*
X185746562Y-106880438D01*
X185730910Y-106863168D01*
X185717026Y-106844448D01*
X185705044Y-106824457D01*
X185695079Y-106803387D01*
X185687227Y-106781443D01*
X185681563Y-106758834D01*
X185678144Y-106735779D01*
X185677000Y-106712500D01*
X185677000Y-106137500D01*
X185678144Y-106114221D01*
X185681563Y-106091166D01*
X185687227Y-106068557D01*
X185695079Y-106046613D01*
X185705044Y-106025543D01*
X185717026Y-106005552D01*
X185730910Y-105986832D01*
X185746562Y-105969562D01*
X185763832Y-105953910D01*
X185782552Y-105940026D01*
X185802543Y-105928044D01*
X185823613Y-105918079D01*
X185845557Y-105910227D01*
X185868166Y-105904563D01*
X185891221Y-105901144D01*
X185914500Y-105900000D01*
X186389500Y-105900000D01*
X186412779Y-105901144D01*
X186412779Y-105901144D01*
G37*
D15*
X186152000Y-106425000D03*
D14*
G36*
X186412779Y-107651144D02*
G01*
X186435834Y-107654563D01*
X186458443Y-107660227D01*
X186480387Y-107668079D01*
X186501457Y-107678044D01*
X186521448Y-107690026D01*
X186540168Y-107703910D01*
X186557438Y-107719562D01*
X186573090Y-107736832D01*
X186586974Y-107755552D01*
X186598956Y-107775543D01*
X186608921Y-107796613D01*
X186616773Y-107818557D01*
X186622437Y-107841166D01*
X186625856Y-107864221D01*
X186627000Y-107887500D01*
X186627000Y-108462500D01*
X186625856Y-108485779D01*
X186622437Y-108508834D01*
X186616773Y-108531443D01*
X186608921Y-108553387D01*
X186598956Y-108574457D01*
X186586974Y-108594448D01*
X186573090Y-108613168D01*
X186557438Y-108630438D01*
X186540168Y-108646090D01*
X186521448Y-108659974D01*
X186501457Y-108671956D01*
X186480387Y-108681921D01*
X186458443Y-108689773D01*
X186435834Y-108695437D01*
X186412779Y-108698856D01*
X186389500Y-108700000D01*
X185914500Y-108700000D01*
X185891221Y-108698856D01*
X185868166Y-108695437D01*
X185845557Y-108689773D01*
X185823613Y-108681921D01*
X185802543Y-108671956D01*
X185782552Y-108659974D01*
X185763832Y-108646090D01*
X185746562Y-108630438D01*
X185730910Y-108613168D01*
X185717026Y-108594448D01*
X185705044Y-108574457D01*
X185695079Y-108553387D01*
X185687227Y-108531443D01*
X185681563Y-108508834D01*
X185678144Y-108485779D01*
X185677000Y-108462500D01*
X185677000Y-107887500D01*
X185678144Y-107864221D01*
X185681563Y-107841166D01*
X185687227Y-107818557D01*
X185695079Y-107796613D01*
X185705044Y-107775543D01*
X185717026Y-107755552D01*
X185730910Y-107736832D01*
X185746562Y-107719562D01*
X185763832Y-107703910D01*
X185782552Y-107690026D01*
X185802543Y-107678044D01*
X185823613Y-107668079D01*
X185845557Y-107660227D01*
X185868166Y-107654563D01*
X185891221Y-107651144D01*
X185914500Y-107650000D01*
X186389500Y-107650000D01*
X186412779Y-107651144D01*
X186412779Y-107651144D01*
G37*
D15*
X186152000Y-108175000D03*
D14*
G36*
X184888779Y-105901144D02*
G01*
X184911834Y-105904563D01*
X184934443Y-105910227D01*
X184956387Y-105918079D01*
X184977457Y-105928044D01*
X184997448Y-105940026D01*
X185016168Y-105953910D01*
X185033438Y-105969562D01*
X185049090Y-105986832D01*
X185062974Y-106005552D01*
X185074956Y-106025543D01*
X185084921Y-106046613D01*
X185092773Y-106068557D01*
X185098437Y-106091166D01*
X185101856Y-106114221D01*
X185103000Y-106137500D01*
X185103000Y-106712500D01*
X185101856Y-106735779D01*
X185098437Y-106758834D01*
X185092773Y-106781443D01*
X185084921Y-106803387D01*
X185074956Y-106824457D01*
X185062974Y-106844448D01*
X185049090Y-106863168D01*
X185033438Y-106880438D01*
X185016168Y-106896090D01*
X184997448Y-106909974D01*
X184977457Y-106921956D01*
X184956387Y-106931921D01*
X184934443Y-106939773D01*
X184911834Y-106945437D01*
X184888779Y-106948856D01*
X184865500Y-106950000D01*
X184390500Y-106950000D01*
X184367221Y-106948856D01*
X184344166Y-106945437D01*
X184321557Y-106939773D01*
X184299613Y-106931921D01*
X184278543Y-106921956D01*
X184258552Y-106909974D01*
X184239832Y-106896090D01*
X184222562Y-106880438D01*
X184206910Y-106863168D01*
X184193026Y-106844448D01*
X184181044Y-106824457D01*
X184171079Y-106803387D01*
X184163227Y-106781443D01*
X184157563Y-106758834D01*
X184154144Y-106735779D01*
X184153000Y-106712500D01*
X184153000Y-106137500D01*
X184154144Y-106114221D01*
X184157563Y-106091166D01*
X184163227Y-106068557D01*
X184171079Y-106046613D01*
X184181044Y-106025543D01*
X184193026Y-106005552D01*
X184206910Y-105986832D01*
X184222562Y-105969562D01*
X184239832Y-105953910D01*
X184258552Y-105940026D01*
X184278543Y-105928044D01*
X184299613Y-105918079D01*
X184321557Y-105910227D01*
X184344166Y-105904563D01*
X184367221Y-105901144D01*
X184390500Y-105900000D01*
X184865500Y-105900000D01*
X184888779Y-105901144D01*
X184888779Y-105901144D01*
G37*
D15*
X184628000Y-106425000D03*
D14*
G36*
X184888779Y-107651144D02*
G01*
X184911834Y-107654563D01*
X184934443Y-107660227D01*
X184956387Y-107668079D01*
X184977457Y-107678044D01*
X184997448Y-107690026D01*
X185016168Y-107703910D01*
X185033438Y-107719562D01*
X185049090Y-107736832D01*
X185062974Y-107755552D01*
X185074956Y-107775543D01*
X185084921Y-107796613D01*
X185092773Y-107818557D01*
X185098437Y-107841166D01*
X185101856Y-107864221D01*
X185103000Y-107887500D01*
X185103000Y-108462500D01*
X185101856Y-108485779D01*
X185098437Y-108508834D01*
X185092773Y-108531443D01*
X185084921Y-108553387D01*
X185074956Y-108574457D01*
X185062974Y-108594448D01*
X185049090Y-108613168D01*
X185033438Y-108630438D01*
X185016168Y-108646090D01*
X184997448Y-108659974D01*
X184977457Y-108671956D01*
X184956387Y-108681921D01*
X184934443Y-108689773D01*
X184911834Y-108695437D01*
X184888779Y-108698856D01*
X184865500Y-108700000D01*
X184390500Y-108700000D01*
X184367221Y-108698856D01*
X184344166Y-108695437D01*
X184321557Y-108689773D01*
X184299613Y-108681921D01*
X184278543Y-108671956D01*
X184258552Y-108659974D01*
X184239832Y-108646090D01*
X184222562Y-108630438D01*
X184206910Y-108613168D01*
X184193026Y-108594448D01*
X184181044Y-108574457D01*
X184171079Y-108553387D01*
X184163227Y-108531443D01*
X184157563Y-108508834D01*
X184154144Y-108485779D01*
X184153000Y-108462500D01*
X184153000Y-107887500D01*
X184154144Y-107864221D01*
X184157563Y-107841166D01*
X184163227Y-107818557D01*
X184171079Y-107796613D01*
X184181044Y-107775543D01*
X184193026Y-107755552D01*
X184206910Y-107736832D01*
X184222562Y-107719562D01*
X184239832Y-107703910D01*
X184258552Y-107690026D01*
X184278543Y-107678044D01*
X184299613Y-107668079D01*
X184321557Y-107660227D01*
X184344166Y-107654563D01*
X184367221Y-107651144D01*
X184390500Y-107650000D01*
X184865500Y-107650000D01*
X184888779Y-107651144D01*
X184888779Y-107651144D01*
G37*
D15*
X184628000Y-108175000D03*
D14*
G36*
X180102779Y-105362144D02*
G01*
X180125834Y-105365563D01*
X180148443Y-105371227D01*
X180170387Y-105379079D01*
X180191457Y-105389044D01*
X180211448Y-105401026D01*
X180230168Y-105414910D01*
X180247438Y-105430562D01*
X180263090Y-105447832D01*
X180276974Y-105466552D01*
X180288956Y-105486543D01*
X180298921Y-105507613D01*
X180306773Y-105529557D01*
X180312437Y-105552166D01*
X180315856Y-105575221D01*
X180317000Y-105598500D01*
X180317000Y-106173500D01*
X180315856Y-106196779D01*
X180312437Y-106219834D01*
X180306773Y-106242443D01*
X180298921Y-106264387D01*
X180288956Y-106285457D01*
X180276974Y-106305448D01*
X180263090Y-106324168D01*
X180247438Y-106341438D01*
X180230168Y-106357090D01*
X180211448Y-106370974D01*
X180191457Y-106382956D01*
X180170387Y-106392921D01*
X180148443Y-106400773D01*
X180125834Y-106406437D01*
X180102779Y-106409856D01*
X180079500Y-106411000D01*
X179604500Y-106411000D01*
X179581221Y-106409856D01*
X179558166Y-106406437D01*
X179535557Y-106400773D01*
X179513613Y-106392921D01*
X179492543Y-106382956D01*
X179472552Y-106370974D01*
X179453832Y-106357090D01*
X179436562Y-106341438D01*
X179420910Y-106324168D01*
X179407026Y-106305448D01*
X179395044Y-106285457D01*
X179385079Y-106264387D01*
X179377227Y-106242443D01*
X179371563Y-106219834D01*
X179368144Y-106196779D01*
X179367000Y-106173500D01*
X179367000Y-105598500D01*
X179368144Y-105575221D01*
X179371563Y-105552166D01*
X179377227Y-105529557D01*
X179385079Y-105507613D01*
X179395044Y-105486543D01*
X179407026Y-105466552D01*
X179420910Y-105447832D01*
X179436562Y-105430562D01*
X179453832Y-105414910D01*
X179472552Y-105401026D01*
X179492543Y-105389044D01*
X179513613Y-105379079D01*
X179535557Y-105371227D01*
X179558166Y-105365563D01*
X179581221Y-105362144D01*
X179604500Y-105361000D01*
X180079500Y-105361000D01*
X180102779Y-105362144D01*
X180102779Y-105362144D01*
G37*
D15*
X179842000Y-105886000D03*
D14*
G36*
X180102779Y-107112144D02*
G01*
X180125834Y-107115563D01*
X180148443Y-107121227D01*
X180170387Y-107129079D01*
X180191457Y-107139044D01*
X180211448Y-107151026D01*
X180230168Y-107164910D01*
X180247438Y-107180562D01*
X180263090Y-107197832D01*
X180276974Y-107216552D01*
X180288956Y-107236543D01*
X180298921Y-107257613D01*
X180306773Y-107279557D01*
X180312437Y-107302166D01*
X180315856Y-107325221D01*
X180317000Y-107348500D01*
X180317000Y-107923500D01*
X180315856Y-107946779D01*
X180312437Y-107969834D01*
X180306773Y-107992443D01*
X180298921Y-108014387D01*
X180288956Y-108035457D01*
X180276974Y-108055448D01*
X180263090Y-108074168D01*
X180247438Y-108091438D01*
X180230168Y-108107090D01*
X180211448Y-108120974D01*
X180191457Y-108132956D01*
X180170387Y-108142921D01*
X180148443Y-108150773D01*
X180125834Y-108156437D01*
X180102779Y-108159856D01*
X180079500Y-108161000D01*
X179604500Y-108161000D01*
X179581221Y-108159856D01*
X179558166Y-108156437D01*
X179535557Y-108150773D01*
X179513613Y-108142921D01*
X179492543Y-108132956D01*
X179472552Y-108120974D01*
X179453832Y-108107090D01*
X179436562Y-108091438D01*
X179420910Y-108074168D01*
X179407026Y-108055448D01*
X179395044Y-108035457D01*
X179385079Y-108014387D01*
X179377227Y-107992443D01*
X179371563Y-107969834D01*
X179368144Y-107946779D01*
X179367000Y-107923500D01*
X179367000Y-107348500D01*
X179368144Y-107325221D01*
X179371563Y-107302166D01*
X179377227Y-107279557D01*
X179385079Y-107257613D01*
X179395044Y-107236543D01*
X179407026Y-107216552D01*
X179420910Y-107197832D01*
X179436562Y-107180562D01*
X179453832Y-107164910D01*
X179472552Y-107151026D01*
X179492543Y-107139044D01*
X179513613Y-107129079D01*
X179535557Y-107121227D01*
X179558166Y-107115563D01*
X179581221Y-107112144D01*
X179604500Y-107111000D01*
X180079500Y-107111000D01*
X180102779Y-107112144D01*
X180102779Y-107112144D01*
G37*
D15*
X179842000Y-107636000D03*
D14*
G36*
X145544779Y-82342144D02*
G01*
X145567834Y-82345563D01*
X145590443Y-82351227D01*
X145612387Y-82359079D01*
X145633457Y-82369044D01*
X145653448Y-82381026D01*
X145672168Y-82394910D01*
X145689438Y-82410562D01*
X145705090Y-82427832D01*
X145718974Y-82446552D01*
X145730956Y-82466543D01*
X145740921Y-82487613D01*
X145748773Y-82509557D01*
X145754437Y-82532166D01*
X145757856Y-82555221D01*
X145759000Y-82578500D01*
X145759000Y-83153500D01*
X145757856Y-83176779D01*
X145754437Y-83199834D01*
X145748773Y-83222443D01*
X145740921Y-83244387D01*
X145730956Y-83265457D01*
X145718974Y-83285448D01*
X145705090Y-83304168D01*
X145689438Y-83321438D01*
X145672168Y-83337090D01*
X145653448Y-83350974D01*
X145633457Y-83362956D01*
X145612387Y-83372921D01*
X145590443Y-83380773D01*
X145567834Y-83386437D01*
X145544779Y-83389856D01*
X145521500Y-83391000D01*
X145046500Y-83391000D01*
X145023221Y-83389856D01*
X145000166Y-83386437D01*
X144977557Y-83380773D01*
X144955613Y-83372921D01*
X144934543Y-83362956D01*
X144914552Y-83350974D01*
X144895832Y-83337090D01*
X144878562Y-83321438D01*
X144862910Y-83304168D01*
X144849026Y-83285448D01*
X144837044Y-83265457D01*
X144827079Y-83244387D01*
X144819227Y-83222443D01*
X144813563Y-83199834D01*
X144810144Y-83176779D01*
X144809000Y-83153500D01*
X144809000Y-82578500D01*
X144810144Y-82555221D01*
X144813563Y-82532166D01*
X144819227Y-82509557D01*
X144827079Y-82487613D01*
X144837044Y-82466543D01*
X144849026Y-82446552D01*
X144862910Y-82427832D01*
X144878562Y-82410562D01*
X144895832Y-82394910D01*
X144914552Y-82381026D01*
X144934543Y-82369044D01*
X144955613Y-82359079D01*
X144977557Y-82351227D01*
X145000166Y-82345563D01*
X145023221Y-82342144D01*
X145046500Y-82341000D01*
X145521500Y-82341000D01*
X145544779Y-82342144D01*
X145544779Y-82342144D01*
G37*
D15*
X145284000Y-82866000D03*
D14*
G36*
X145544779Y-84092144D02*
G01*
X145567834Y-84095563D01*
X145590443Y-84101227D01*
X145612387Y-84109079D01*
X145633457Y-84119044D01*
X145653448Y-84131026D01*
X145672168Y-84144910D01*
X145689438Y-84160562D01*
X145705090Y-84177832D01*
X145718974Y-84196552D01*
X145730956Y-84216543D01*
X145740921Y-84237613D01*
X145748773Y-84259557D01*
X145754437Y-84282166D01*
X145757856Y-84305221D01*
X145759000Y-84328500D01*
X145759000Y-84903500D01*
X145757856Y-84926779D01*
X145754437Y-84949834D01*
X145748773Y-84972443D01*
X145740921Y-84994387D01*
X145730956Y-85015457D01*
X145718974Y-85035448D01*
X145705090Y-85054168D01*
X145689438Y-85071438D01*
X145672168Y-85087090D01*
X145653448Y-85100974D01*
X145633457Y-85112956D01*
X145612387Y-85122921D01*
X145590443Y-85130773D01*
X145567834Y-85136437D01*
X145544779Y-85139856D01*
X145521500Y-85141000D01*
X145046500Y-85141000D01*
X145023221Y-85139856D01*
X145000166Y-85136437D01*
X144977557Y-85130773D01*
X144955613Y-85122921D01*
X144934543Y-85112956D01*
X144914552Y-85100974D01*
X144895832Y-85087090D01*
X144878562Y-85071438D01*
X144862910Y-85054168D01*
X144849026Y-85035448D01*
X144837044Y-85015457D01*
X144827079Y-84994387D01*
X144819227Y-84972443D01*
X144813563Y-84949834D01*
X144810144Y-84926779D01*
X144809000Y-84903500D01*
X144809000Y-84328500D01*
X144810144Y-84305221D01*
X144813563Y-84282166D01*
X144819227Y-84259557D01*
X144827079Y-84237613D01*
X144837044Y-84216543D01*
X144849026Y-84196552D01*
X144862910Y-84177832D01*
X144878562Y-84160562D01*
X144895832Y-84144910D01*
X144914552Y-84131026D01*
X144934543Y-84119044D01*
X144955613Y-84109079D01*
X144977557Y-84101227D01*
X145000166Y-84095563D01*
X145023221Y-84092144D01*
X145046500Y-84091000D01*
X145521500Y-84091000D01*
X145544779Y-84092144D01*
X145544779Y-84092144D01*
G37*
D15*
X145284000Y-84616000D03*
D14*
G36*
X150390779Y-97541144D02*
G01*
X150413834Y-97544563D01*
X150436443Y-97550227D01*
X150458387Y-97558079D01*
X150479457Y-97568044D01*
X150499448Y-97580026D01*
X150518168Y-97593910D01*
X150535438Y-97609562D01*
X150551090Y-97626832D01*
X150564974Y-97645552D01*
X150576956Y-97665543D01*
X150586921Y-97686613D01*
X150594773Y-97708557D01*
X150600437Y-97731166D01*
X150603856Y-97754221D01*
X150605000Y-97777500D01*
X150605000Y-98352500D01*
X150603856Y-98375779D01*
X150600437Y-98398834D01*
X150594773Y-98421443D01*
X150586921Y-98443387D01*
X150576956Y-98464457D01*
X150564974Y-98484448D01*
X150551090Y-98503168D01*
X150535438Y-98520438D01*
X150518168Y-98536090D01*
X150499448Y-98549974D01*
X150479457Y-98561956D01*
X150458387Y-98571921D01*
X150436443Y-98579773D01*
X150413834Y-98585437D01*
X150390779Y-98588856D01*
X150367500Y-98590000D01*
X149892500Y-98590000D01*
X149869221Y-98588856D01*
X149846166Y-98585437D01*
X149823557Y-98579773D01*
X149801613Y-98571921D01*
X149780543Y-98561956D01*
X149760552Y-98549974D01*
X149741832Y-98536090D01*
X149724562Y-98520438D01*
X149708910Y-98503168D01*
X149695026Y-98484448D01*
X149683044Y-98464457D01*
X149673079Y-98443387D01*
X149665227Y-98421443D01*
X149659563Y-98398834D01*
X149656144Y-98375779D01*
X149655000Y-98352500D01*
X149655000Y-97777500D01*
X149656144Y-97754221D01*
X149659563Y-97731166D01*
X149665227Y-97708557D01*
X149673079Y-97686613D01*
X149683044Y-97665543D01*
X149695026Y-97645552D01*
X149708910Y-97626832D01*
X149724562Y-97609562D01*
X149741832Y-97593910D01*
X149760552Y-97580026D01*
X149780543Y-97568044D01*
X149801613Y-97558079D01*
X149823557Y-97550227D01*
X149846166Y-97544563D01*
X149869221Y-97541144D01*
X149892500Y-97540000D01*
X150367500Y-97540000D01*
X150390779Y-97541144D01*
X150390779Y-97541144D01*
G37*
D15*
X150130000Y-98065000D03*
D14*
G36*
X150390779Y-99291144D02*
G01*
X150413834Y-99294563D01*
X150436443Y-99300227D01*
X150458387Y-99308079D01*
X150479457Y-99318044D01*
X150499448Y-99330026D01*
X150518168Y-99343910D01*
X150535438Y-99359562D01*
X150551090Y-99376832D01*
X150564974Y-99395552D01*
X150576956Y-99415543D01*
X150586921Y-99436613D01*
X150594773Y-99458557D01*
X150600437Y-99481166D01*
X150603856Y-99504221D01*
X150605000Y-99527500D01*
X150605000Y-100102500D01*
X150603856Y-100125779D01*
X150600437Y-100148834D01*
X150594773Y-100171443D01*
X150586921Y-100193387D01*
X150576956Y-100214457D01*
X150564974Y-100234448D01*
X150551090Y-100253168D01*
X150535438Y-100270438D01*
X150518168Y-100286090D01*
X150499448Y-100299974D01*
X150479457Y-100311956D01*
X150458387Y-100321921D01*
X150436443Y-100329773D01*
X150413834Y-100335437D01*
X150390779Y-100338856D01*
X150367500Y-100340000D01*
X149892500Y-100340000D01*
X149869221Y-100338856D01*
X149846166Y-100335437D01*
X149823557Y-100329773D01*
X149801613Y-100321921D01*
X149780543Y-100311956D01*
X149760552Y-100299974D01*
X149741832Y-100286090D01*
X149724562Y-100270438D01*
X149708910Y-100253168D01*
X149695026Y-100234448D01*
X149683044Y-100214457D01*
X149673079Y-100193387D01*
X149665227Y-100171443D01*
X149659563Y-100148834D01*
X149656144Y-100125779D01*
X149655000Y-100102500D01*
X149655000Y-99527500D01*
X149656144Y-99504221D01*
X149659563Y-99481166D01*
X149665227Y-99458557D01*
X149673079Y-99436613D01*
X149683044Y-99415543D01*
X149695026Y-99395552D01*
X149708910Y-99376832D01*
X149724562Y-99359562D01*
X149741832Y-99343910D01*
X149760552Y-99330026D01*
X149780543Y-99318044D01*
X149801613Y-99308079D01*
X149823557Y-99300227D01*
X149846166Y-99294563D01*
X149869221Y-99291144D01*
X149892500Y-99290000D01*
X150367500Y-99290000D01*
X150390779Y-99291144D01*
X150390779Y-99291144D01*
G37*
D15*
X150130000Y-99815000D03*
D14*
G36*
X154905779Y-98186144D02*
G01*
X154928834Y-98189563D01*
X154951443Y-98195227D01*
X154973387Y-98203079D01*
X154994457Y-98213044D01*
X155014448Y-98225026D01*
X155033168Y-98238910D01*
X155050438Y-98254562D01*
X155066090Y-98271832D01*
X155079974Y-98290552D01*
X155091956Y-98310543D01*
X155101921Y-98331613D01*
X155109773Y-98353557D01*
X155115437Y-98376166D01*
X155118856Y-98399221D01*
X155120000Y-98422500D01*
X155120000Y-98897500D01*
X155118856Y-98920779D01*
X155115437Y-98943834D01*
X155109773Y-98966443D01*
X155101921Y-98988387D01*
X155091956Y-99009457D01*
X155079974Y-99029448D01*
X155066090Y-99048168D01*
X155050438Y-99065438D01*
X155033168Y-99081090D01*
X155014448Y-99094974D01*
X154994457Y-99106956D01*
X154973387Y-99116921D01*
X154951443Y-99124773D01*
X154928834Y-99130437D01*
X154905779Y-99133856D01*
X154882500Y-99135000D01*
X154307500Y-99135000D01*
X154284221Y-99133856D01*
X154261166Y-99130437D01*
X154238557Y-99124773D01*
X154216613Y-99116921D01*
X154195543Y-99106956D01*
X154175552Y-99094974D01*
X154156832Y-99081090D01*
X154139562Y-99065438D01*
X154123910Y-99048168D01*
X154110026Y-99029448D01*
X154098044Y-99009457D01*
X154088079Y-98988387D01*
X154080227Y-98966443D01*
X154074563Y-98943834D01*
X154071144Y-98920779D01*
X154070000Y-98897500D01*
X154070000Y-98422500D01*
X154071144Y-98399221D01*
X154074563Y-98376166D01*
X154080227Y-98353557D01*
X154088079Y-98331613D01*
X154098044Y-98310543D01*
X154110026Y-98290552D01*
X154123910Y-98271832D01*
X154139562Y-98254562D01*
X154156832Y-98238910D01*
X154175552Y-98225026D01*
X154195543Y-98213044D01*
X154216613Y-98203079D01*
X154238557Y-98195227D01*
X154261166Y-98189563D01*
X154284221Y-98186144D01*
X154307500Y-98185000D01*
X154882500Y-98185000D01*
X154905779Y-98186144D01*
X154905779Y-98186144D01*
G37*
D15*
X154595000Y-98660000D03*
D14*
G36*
X153155779Y-98186144D02*
G01*
X153178834Y-98189563D01*
X153201443Y-98195227D01*
X153223387Y-98203079D01*
X153244457Y-98213044D01*
X153264448Y-98225026D01*
X153283168Y-98238910D01*
X153300438Y-98254562D01*
X153316090Y-98271832D01*
X153329974Y-98290552D01*
X153341956Y-98310543D01*
X153351921Y-98331613D01*
X153359773Y-98353557D01*
X153365437Y-98376166D01*
X153368856Y-98399221D01*
X153370000Y-98422500D01*
X153370000Y-98897500D01*
X153368856Y-98920779D01*
X153365437Y-98943834D01*
X153359773Y-98966443D01*
X153351921Y-98988387D01*
X153341956Y-99009457D01*
X153329974Y-99029448D01*
X153316090Y-99048168D01*
X153300438Y-99065438D01*
X153283168Y-99081090D01*
X153264448Y-99094974D01*
X153244457Y-99106956D01*
X153223387Y-99116921D01*
X153201443Y-99124773D01*
X153178834Y-99130437D01*
X153155779Y-99133856D01*
X153132500Y-99135000D01*
X152557500Y-99135000D01*
X152534221Y-99133856D01*
X152511166Y-99130437D01*
X152488557Y-99124773D01*
X152466613Y-99116921D01*
X152445543Y-99106956D01*
X152425552Y-99094974D01*
X152406832Y-99081090D01*
X152389562Y-99065438D01*
X152373910Y-99048168D01*
X152360026Y-99029448D01*
X152348044Y-99009457D01*
X152338079Y-98988387D01*
X152330227Y-98966443D01*
X152324563Y-98943834D01*
X152321144Y-98920779D01*
X152320000Y-98897500D01*
X152320000Y-98422500D01*
X152321144Y-98399221D01*
X152324563Y-98376166D01*
X152330227Y-98353557D01*
X152338079Y-98331613D01*
X152348044Y-98310543D01*
X152360026Y-98290552D01*
X152373910Y-98271832D01*
X152389562Y-98254562D01*
X152406832Y-98238910D01*
X152425552Y-98225026D01*
X152445543Y-98213044D01*
X152466613Y-98203079D01*
X152488557Y-98195227D01*
X152511166Y-98189563D01*
X152534221Y-98186144D01*
X152557500Y-98185000D01*
X153132500Y-98185000D01*
X153155779Y-98186144D01*
X153155779Y-98186144D01*
G37*
D15*
X152845000Y-98660000D03*
D14*
G36*
X197668779Y-113683144D02*
G01*
X197691834Y-113686563D01*
X197714443Y-113692227D01*
X197736387Y-113700079D01*
X197757457Y-113710044D01*
X197777448Y-113722026D01*
X197796168Y-113735910D01*
X197813438Y-113751562D01*
X197829090Y-113768832D01*
X197842974Y-113787552D01*
X197854956Y-113807543D01*
X197864921Y-113828613D01*
X197872773Y-113850557D01*
X197878437Y-113873166D01*
X197881856Y-113896221D01*
X197883000Y-113919500D01*
X197883000Y-114494500D01*
X197881856Y-114517779D01*
X197878437Y-114540834D01*
X197872773Y-114563443D01*
X197864921Y-114585387D01*
X197854956Y-114606457D01*
X197842974Y-114626448D01*
X197829090Y-114645168D01*
X197813438Y-114662438D01*
X197796168Y-114678090D01*
X197777448Y-114691974D01*
X197757457Y-114703956D01*
X197736387Y-114713921D01*
X197714443Y-114721773D01*
X197691834Y-114727437D01*
X197668779Y-114730856D01*
X197645500Y-114732000D01*
X197170500Y-114732000D01*
X197147221Y-114730856D01*
X197124166Y-114727437D01*
X197101557Y-114721773D01*
X197079613Y-114713921D01*
X197058543Y-114703956D01*
X197038552Y-114691974D01*
X197019832Y-114678090D01*
X197002562Y-114662438D01*
X196986910Y-114645168D01*
X196973026Y-114626448D01*
X196961044Y-114606457D01*
X196951079Y-114585387D01*
X196943227Y-114563443D01*
X196937563Y-114540834D01*
X196934144Y-114517779D01*
X196933000Y-114494500D01*
X196933000Y-113919500D01*
X196934144Y-113896221D01*
X196937563Y-113873166D01*
X196943227Y-113850557D01*
X196951079Y-113828613D01*
X196961044Y-113807543D01*
X196973026Y-113787552D01*
X196986910Y-113768832D01*
X197002562Y-113751562D01*
X197019832Y-113735910D01*
X197038552Y-113722026D01*
X197058543Y-113710044D01*
X197079613Y-113700079D01*
X197101557Y-113692227D01*
X197124166Y-113686563D01*
X197147221Y-113683144D01*
X197170500Y-113682000D01*
X197645500Y-113682000D01*
X197668779Y-113683144D01*
X197668779Y-113683144D01*
G37*
D15*
X197408000Y-114207000D03*
D14*
G36*
X197668779Y-111933144D02*
G01*
X197691834Y-111936563D01*
X197714443Y-111942227D01*
X197736387Y-111950079D01*
X197757457Y-111960044D01*
X197777448Y-111972026D01*
X197796168Y-111985910D01*
X197813438Y-112001562D01*
X197829090Y-112018832D01*
X197842974Y-112037552D01*
X197854956Y-112057543D01*
X197864921Y-112078613D01*
X197872773Y-112100557D01*
X197878437Y-112123166D01*
X197881856Y-112146221D01*
X197883000Y-112169500D01*
X197883000Y-112744500D01*
X197881856Y-112767779D01*
X197878437Y-112790834D01*
X197872773Y-112813443D01*
X197864921Y-112835387D01*
X197854956Y-112856457D01*
X197842974Y-112876448D01*
X197829090Y-112895168D01*
X197813438Y-112912438D01*
X197796168Y-112928090D01*
X197777448Y-112941974D01*
X197757457Y-112953956D01*
X197736387Y-112963921D01*
X197714443Y-112971773D01*
X197691834Y-112977437D01*
X197668779Y-112980856D01*
X197645500Y-112982000D01*
X197170500Y-112982000D01*
X197147221Y-112980856D01*
X197124166Y-112977437D01*
X197101557Y-112971773D01*
X197079613Y-112963921D01*
X197058543Y-112953956D01*
X197038552Y-112941974D01*
X197019832Y-112928090D01*
X197002562Y-112912438D01*
X196986910Y-112895168D01*
X196973026Y-112876448D01*
X196961044Y-112856457D01*
X196951079Y-112835387D01*
X196943227Y-112813443D01*
X196937563Y-112790834D01*
X196934144Y-112767779D01*
X196933000Y-112744500D01*
X196933000Y-112169500D01*
X196934144Y-112146221D01*
X196937563Y-112123166D01*
X196943227Y-112100557D01*
X196951079Y-112078613D01*
X196961044Y-112057543D01*
X196973026Y-112037552D01*
X196986910Y-112018832D01*
X197002562Y-112001562D01*
X197019832Y-111985910D01*
X197038552Y-111972026D01*
X197058543Y-111960044D01*
X197079613Y-111950079D01*
X197101557Y-111942227D01*
X197124166Y-111936563D01*
X197147221Y-111933144D01*
X197170500Y-111932000D01*
X197645500Y-111932000D01*
X197668779Y-111933144D01*
X197668779Y-111933144D01*
G37*
D15*
X197408000Y-112457000D03*
D14*
G36*
X163056779Y-91493144D02*
G01*
X163079834Y-91496563D01*
X163102443Y-91502227D01*
X163124387Y-91510079D01*
X163145457Y-91520044D01*
X163165448Y-91532026D01*
X163184168Y-91545910D01*
X163201438Y-91561562D01*
X163217090Y-91578832D01*
X163230974Y-91597552D01*
X163242956Y-91617543D01*
X163252921Y-91638613D01*
X163260773Y-91660557D01*
X163266437Y-91683166D01*
X163269856Y-91706221D01*
X163271000Y-91729500D01*
X163271000Y-92204500D01*
X163269856Y-92227779D01*
X163266437Y-92250834D01*
X163260773Y-92273443D01*
X163252921Y-92295387D01*
X163242956Y-92316457D01*
X163230974Y-92336448D01*
X163217090Y-92355168D01*
X163201438Y-92372438D01*
X163184168Y-92388090D01*
X163165448Y-92401974D01*
X163145457Y-92413956D01*
X163124387Y-92423921D01*
X163102443Y-92431773D01*
X163079834Y-92437437D01*
X163056779Y-92440856D01*
X163033500Y-92442000D01*
X162458500Y-92442000D01*
X162435221Y-92440856D01*
X162412166Y-92437437D01*
X162389557Y-92431773D01*
X162367613Y-92423921D01*
X162346543Y-92413956D01*
X162326552Y-92401974D01*
X162307832Y-92388090D01*
X162290562Y-92372438D01*
X162274910Y-92355168D01*
X162261026Y-92336448D01*
X162249044Y-92316457D01*
X162239079Y-92295387D01*
X162231227Y-92273443D01*
X162225563Y-92250834D01*
X162222144Y-92227779D01*
X162221000Y-92204500D01*
X162221000Y-91729500D01*
X162222144Y-91706221D01*
X162225563Y-91683166D01*
X162231227Y-91660557D01*
X162239079Y-91638613D01*
X162249044Y-91617543D01*
X162261026Y-91597552D01*
X162274910Y-91578832D01*
X162290562Y-91561562D01*
X162307832Y-91545910D01*
X162326552Y-91532026D01*
X162346543Y-91520044D01*
X162367613Y-91510079D01*
X162389557Y-91502227D01*
X162412166Y-91496563D01*
X162435221Y-91493144D01*
X162458500Y-91492000D01*
X163033500Y-91492000D01*
X163056779Y-91493144D01*
X163056779Y-91493144D01*
G37*
D15*
X162746000Y-91967000D03*
D14*
G36*
X161306779Y-91493144D02*
G01*
X161329834Y-91496563D01*
X161352443Y-91502227D01*
X161374387Y-91510079D01*
X161395457Y-91520044D01*
X161415448Y-91532026D01*
X161434168Y-91545910D01*
X161451438Y-91561562D01*
X161467090Y-91578832D01*
X161480974Y-91597552D01*
X161492956Y-91617543D01*
X161502921Y-91638613D01*
X161510773Y-91660557D01*
X161516437Y-91683166D01*
X161519856Y-91706221D01*
X161521000Y-91729500D01*
X161521000Y-92204500D01*
X161519856Y-92227779D01*
X161516437Y-92250834D01*
X161510773Y-92273443D01*
X161502921Y-92295387D01*
X161492956Y-92316457D01*
X161480974Y-92336448D01*
X161467090Y-92355168D01*
X161451438Y-92372438D01*
X161434168Y-92388090D01*
X161415448Y-92401974D01*
X161395457Y-92413956D01*
X161374387Y-92423921D01*
X161352443Y-92431773D01*
X161329834Y-92437437D01*
X161306779Y-92440856D01*
X161283500Y-92442000D01*
X160708500Y-92442000D01*
X160685221Y-92440856D01*
X160662166Y-92437437D01*
X160639557Y-92431773D01*
X160617613Y-92423921D01*
X160596543Y-92413956D01*
X160576552Y-92401974D01*
X160557832Y-92388090D01*
X160540562Y-92372438D01*
X160524910Y-92355168D01*
X160511026Y-92336448D01*
X160499044Y-92316457D01*
X160489079Y-92295387D01*
X160481227Y-92273443D01*
X160475563Y-92250834D01*
X160472144Y-92227779D01*
X160471000Y-92204500D01*
X160471000Y-91729500D01*
X160472144Y-91706221D01*
X160475563Y-91683166D01*
X160481227Y-91660557D01*
X160489079Y-91638613D01*
X160499044Y-91617543D01*
X160511026Y-91597552D01*
X160524910Y-91578832D01*
X160540562Y-91561562D01*
X160557832Y-91545910D01*
X160576552Y-91532026D01*
X160596543Y-91520044D01*
X160617613Y-91510079D01*
X160639557Y-91502227D01*
X160662166Y-91496563D01*
X160685221Y-91493144D01*
X160708500Y-91492000D01*
X161283500Y-91492000D01*
X161306779Y-91493144D01*
X161306779Y-91493144D01*
G37*
D15*
X160996000Y-91967000D03*
D14*
G36*
X164686779Y-91503144D02*
G01*
X164709834Y-91506563D01*
X164732443Y-91512227D01*
X164754387Y-91520079D01*
X164775457Y-91530044D01*
X164795448Y-91542026D01*
X164814168Y-91555910D01*
X164831438Y-91571562D01*
X164847090Y-91588832D01*
X164860974Y-91607552D01*
X164872956Y-91627543D01*
X164882921Y-91648613D01*
X164890773Y-91670557D01*
X164896437Y-91693166D01*
X164899856Y-91716221D01*
X164901000Y-91739500D01*
X164901000Y-92214500D01*
X164899856Y-92237779D01*
X164896437Y-92260834D01*
X164890773Y-92283443D01*
X164882921Y-92305387D01*
X164872956Y-92326457D01*
X164860974Y-92346448D01*
X164847090Y-92365168D01*
X164831438Y-92382438D01*
X164814168Y-92398090D01*
X164795448Y-92411974D01*
X164775457Y-92423956D01*
X164754387Y-92433921D01*
X164732443Y-92441773D01*
X164709834Y-92447437D01*
X164686779Y-92450856D01*
X164663500Y-92452000D01*
X164088500Y-92452000D01*
X164065221Y-92450856D01*
X164042166Y-92447437D01*
X164019557Y-92441773D01*
X163997613Y-92433921D01*
X163976543Y-92423956D01*
X163956552Y-92411974D01*
X163937832Y-92398090D01*
X163920562Y-92382438D01*
X163904910Y-92365168D01*
X163891026Y-92346448D01*
X163879044Y-92326457D01*
X163869079Y-92305387D01*
X163861227Y-92283443D01*
X163855563Y-92260834D01*
X163852144Y-92237779D01*
X163851000Y-92214500D01*
X163851000Y-91739500D01*
X163852144Y-91716221D01*
X163855563Y-91693166D01*
X163861227Y-91670557D01*
X163869079Y-91648613D01*
X163879044Y-91627543D01*
X163891026Y-91607552D01*
X163904910Y-91588832D01*
X163920562Y-91571562D01*
X163937832Y-91555910D01*
X163956552Y-91542026D01*
X163976543Y-91530044D01*
X163997613Y-91520079D01*
X164019557Y-91512227D01*
X164042166Y-91506563D01*
X164065221Y-91503144D01*
X164088500Y-91502000D01*
X164663500Y-91502000D01*
X164686779Y-91503144D01*
X164686779Y-91503144D01*
G37*
D15*
X164376000Y-91977000D03*
D14*
G36*
X166436779Y-91503144D02*
G01*
X166459834Y-91506563D01*
X166482443Y-91512227D01*
X166504387Y-91520079D01*
X166525457Y-91530044D01*
X166545448Y-91542026D01*
X166564168Y-91555910D01*
X166581438Y-91571562D01*
X166597090Y-91588832D01*
X166610974Y-91607552D01*
X166622956Y-91627543D01*
X166632921Y-91648613D01*
X166640773Y-91670557D01*
X166646437Y-91693166D01*
X166649856Y-91716221D01*
X166651000Y-91739500D01*
X166651000Y-92214500D01*
X166649856Y-92237779D01*
X166646437Y-92260834D01*
X166640773Y-92283443D01*
X166632921Y-92305387D01*
X166622956Y-92326457D01*
X166610974Y-92346448D01*
X166597090Y-92365168D01*
X166581438Y-92382438D01*
X166564168Y-92398090D01*
X166545448Y-92411974D01*
X166525457Y-92423956D01*
X166504387Y-92433921D01*
X166482443Y-92441773D01*
X166459834Y-92447437D01*
X166436779Y-92450856D01*
X166413500Y-92452000D01*
X165838500Y-92452000D01*
X165815221Y-92450856D01*
X165792166Y-92447437D01*
X165769557Y-92441773D01*
X165747613Y-92433921D01*
X165726543Y-92423956D01*
X165706552Y-92411974D01*
X165687832Y-92398090D01*
X165670562Y-92382438D01*
X165654910Y-92365168D01*
X165641026Y-92346448D01*
X165629044Y-92326457D01*
X165619079Y-92305387D01*
X165611227Y-92283443D01*
X165605563Y-92260834D01*
X165602144Y-92237779D01*
X165601000Y-92214500D01*
X165601000Y-91739500D01*
X165602144Y-91716221D01*
X165605563Y-91693166D01*
X165611227Y-91670557D01*
X165619079Y-91648613D01*
X165629044Y-91627543D01*
X165641026Y-91607552D01*
X165654910Y-91588832D01*
X165670562Y-91571562D01*
X165687832Y-91555910D01*
X165706552Y-91542026D01*
X165726543Y-91530044D01*
X165747613Y-91520079D01*
X165769557Y-91512227D01*
X165792166Y-91506563D01*
X165815221Y-91503144D01*
X165838500Y-91502000D01*
X166413500Y-91502000D01*
X166436779Y-91503144D01*
X166436779Y-91503144D01*
G37*
D15*
X166126000Y-91977000D03*
D14*
G36*
X167565779Y-116066144D02*
G01*
X167588834Y-116069563D01*
X167611443Y-116075227D01*
X167633387Y-116083079D01*
X167654457Y-116093044D01*
X167674448Y-116105026D01*
X167693168Y-116118910D01*
X167710438Y-116134562D01*
X167726090Y-116151832D01*
X167739974Y-116170552D01*
X167751956Y-116190543D01*
X167761921Y-116211613D01*
X167769773Y-116233557D01*
X167775437Y-116256166D01*
X167778856Y-116279221D01*
X167780000Y-116302500D01*
X167780000Y-116777500D01*
X167778856Y-116800779D01*
X167775437Y-116823834D01*
X167769773Y-116846443D01*
X167761921Y-116868387D01*
X167751956Y-116889457D01*
X167739974Y-116909448D01*
X167726090Y-116928168D01*
X167710438Y-116945438D01*
X167693168Y-116961090D01*
X167674448Y-116974974D01*
X167654457Y-116986956D01*
X167633387Y-116996921D01*
X167611443Y-117004773D01*
X167588834Y-117010437D01*
X167565779Y-117013856D01*
X167542500Y-117015000D01*
X166967500Y-117015000D01*
X166944221Y-117013856D01*
X166921166Y-117010437D01*
X166898557Y-117004773D01*
X166876613Y-116996921D01*
X166855543Y-116986956D01*
X166835552Y-116974974D01*
X166816832Y-116961090D01*
X166799562Y-116945438D01*
X166783910Y-116928168D01*
X166770026Y-116909448D01*
X166758044Y-116889457D01*
X166748079Y-116868387D01*
X166740227Y-116846443D01*
X166734563Y-116823834D01*
X166731144Y-116800779D01*
X166730000Y-116777500D01*
X166730000Y-116302500D01*
X166731144Y-116279221D01*
X166734563Y-116256166D01*
X166740227Y-116233557D01*
X166748079Y-116211613D01*
X166758044Y-116190543D01*
X166770026Y-116170552D01*
X166783910Y-116151832D01*
X166799562Y-116134562D01*
X166816832Y-116118910D01*
X166835552Y-116105026D01*
X166855543Y-116093044D01*
X166876613Y-116083079D01*
X166898557Y-116075227D01*
X166921166Y-116069563D01*
X166944221Y-116066144D01*
X166967500Y-116065000D01*
X167542500Y-116065000D01*
X167565779Y-116066144D01*
X167565779Y-116066144D01*
G37*
D15*
X167255000Y-116540000D03*
D14*
G36*
X169315779Y-116066144D02*
G01*
X169338834Y-116069563D01*
X169361443Y-116075227D01*
X169383387Y-116083079D01*
X169404457Y-116093044D01*
X169424448Y-116105026D01*
X169443168Y-116118910D01*
X169460438Y-116134562D01*
X169476090Y-116151832D01*
X169489974Y-116170552D01*
X169501956Y-116190543D01*
X169511921Y-116211613D01*
X169519773Y-116233557D01*
X169525437Y-116256166D01*
X169528856Y-116279221D01*
X169530000Y-116302500D01*
X169530000Y-116777500D01*
X169528856Y-116800779D01*
X169525437Y-116823834D01*
X169519773Y-116846443D01*
X169511921Y-116868387D01*
X169501956Y-116889457D01*
X169489974Y-116909448D01*
X169476090Y-116928168D01*
X169460438Y-116945438D01*
X169443168Y-116961090D01*
X169424448Y-116974974D01*
X169404457Y-116986956D01*
X169383387Y-116996921D01*
X169361443Y-117004773D01*
X169338834Y-117010437D01*
X169315779Y-117013856D01*
X169292500Y-117015000D01*
X168717500Y-117015000D01*
X168694221Y-117013856D01*
X168671166Y-117010437D01*
X168648557Y-117004773D01*
X168626613Y-116996921D01*
X168605543Y-116986956D01*
X168585552Y-116974974D01*
X168566832Y-116961090D01*
X168549562Y-116945438D01*
X168533910Y-116928168D01*
X168520026Y-116909448D01*
X168508044Y-116889457D01*
X168498079Y-116868387D01*
X168490227Y-116846443D01*
X168484563Y-116823834D01*
X168481144Y-116800779D01*
X168480000Y-116777500D01*
X168480000Y-116302500D01*
X168481144Y-116279221D01*
X168484563Y-116256166D01*
X168490227Y-116233557D01*
X168498079Y-116211613D01*
X168508044Y-116190543D01*
X168520026Y-116170552D01*
X168533910Y-116151832D01*
X168549562Y-116134562D01*
X168566832Y-116118910D01*
X168585552Y-116105026D01*
X168605543Y-116093044D01*
X168626613Y-116083079D01*
X168648557Y-116075227D01*
X168671166Y-116069563D01*
X168694221Y-116066144D01*
X168717500Y-116065000D01*
X169292500Y-116065000D01*
X169315779Y-116066144D01*
X169315779Y-116066144D01*
G37*
D15*
X169005000Y-116540000D03*
D14*
G36*
X167555779Y-113476144D02*
G01*
X167578834Y-113479563D01*
X167601443Y-113485227D01*
X167623387Y-113493079D01*
X167644457Y-113503044D01*
X167664448Y-113515026D01*
X167683168Y-113528910D01*
X167700438Y-113544562D01*
X167716090Y-113561832D01*
X167729974Y-113580552D01*
X167741956Y-113600543D01*
X167751921Y-113621613D01*
X167759773Y-113643557D01*
X167765437Y-113666166D01*
X167768856Y-113689221D01*
X167770000Y-113712500D01*
X167770000Y-114187500D01*
X167768856Y-114210779D01*
X167765437Y-114233834D01*
X167759773Y-114256443D01*
X167751921Y-114278387D01*
X167741956Y-114299457D01*
X167729974Y-114319448D01*
X167716090Y-114338168D01*
X167700438Y-114355438D01*
X167683168Y-114371090D01*
X167664448Y-114384974D01*
X167644457Y-114396956D01*
X167623387Y-114406921D01*
X167601443Y-114414773D01*
X167578834Y-114420437D01*
X167555779Y-114423856D01*
X167532500Y-114425000D01*
X166957500Y-114425000D01*
X166934221Y-114423856D01*
X166911166Y-114420437D01*
X166888557Y-114414773D01*
X166866613Y-114406921D01*
X166845543Y-114396956D01*
X166825552Y-114384974D01*
X166806832Y-114371090D01*
X166789562Y-114355438D01*
X166773910Y-114338168D01*
X166760026Y-114319448D01*
X166748044Y-114299457D01*
X166738079Y-114278387D01*
X166730227Y-114256443D01*
X166724563Y-114233834D01*
X166721144Y-114210779D01*
X166720000Y-114187500D01*
X166720000Y-113712500D01*
X166721144Y-113689221D01*
X166724563Y-113666166D01*
X166730227Y-113643557D01*
X166738079Y-113621613D01*
X166748044Y-113600543D01*
X166760026Y-113580552D01*
X166773910Y-113561832D01*
X166789562Y-113544562D01*
X166806832Y-113528910D01*
X166825552Y-113515026D01*
X166845543Y-113503044D01*
X166866613Y-113493079D01*
X166888557Y-113485227D01*
X166911166Y-113479563D01*
X166934221Y-113476144D01*
X166957500Y-113475000D01*
X167532500Y-113475000D01*
X167555779Y-113476144D01*
X167555779Y-113476144D01*
G37*
D15*
X167245000Y-113950000D03*
D14*
G36*
X169305779Y-113476144D02*
G01*
X169328834Y-113479563D01*
X169351443Y-113485227D01*
X169373387Y-113493079D01*
X169394457Y-113503044D01*
X169414448Y-113515026D01*
X169433168Y-113528910D01*
X169450438Y-113544562D01*
X169466090Y-113561832D01*
X169479974Y-113580552D01*
X169491956Y-113600543D01*
X169501921Y-113621613D01*
X169509773Y-113643557D01*
X169515437Y-113666166D01*
X169518856Y-113689221D01*
X169520000Y-113712500D01*
X169520000Y-114187500D01*
X169518856Y-114210779D01*
X169515437Y-114233834D01*
X169509773Y-114256443D01*
X169501921Y-114278387D01*
X169491956Y-114299457D01*
X169479974Y-114319448D01*
X169466090Y-114338168D01*
X169450438Y-114355438D01*
X169433168Y-114371090D01*
X169414448Y-114384974D01*
X169394457Y-114396956D01*
X169373387Y-114406921D01*
X169351443Y-114414773D01*
X169328834Y-114420437D01*
X169305779Y-114423856D01*
X169282500Y-114425000D01*
X168707500Y-114425000D01*
X168684221Y-114423856D01*
X168661166Y-114420437D01*
X168638557Y-114414773D01*
X168616613Y-114406921D01*
X168595543Y-114396956D01*
X168575552Y-114384974D01*
X168556832Y-114371090D01*
X168539562Y-114355438D01*
X168523910Y-114338168D01*
X168510026Y-114319448D01*
X168498044Y-114299457D01*
X168488079Y-114278387D01*
X168480227Y-114256443D01*
X168474563Y-114233834D01*
X168471144Y-114210779D01*
X168470000Y-114187500D01*
X168470000Y-113712500D01*
X168471144Y-113689221D01*
X168474563Y-113666166D01*
X168480227Y-113643557D01*
X168488079Y-113621613D01*
X168498044Y-113600543D01*
X168510026Y-113580552D01*
X168523910Y-113561832D01*
X168539562Y-113544562D01*
X168556832Y-113528910D01*
X168575552Y-113515026D01*
X168595543Y-113503044D01*
X168616613Y-113493079D01*
X168638557Y-113485227D01*
X168661166Y-113479563D01*
X168684221Y-113476144D01*
X168707500Y-113475000D01*
X169282500Y-113475000D01*
X169305779Y-113476144D01*
X169305779Y-113476144D01*
G37*
D15*
X168995000Y-113950000D03*
D14*
G36*
X157450779Y-121701144D02*
G01*
X157473834Y-121704563D01*
X157496443Y-121710227D01*
X157518387Y-121718079D01*
X157539457Y-121728044D01*
X157559448Y-121740026D01*
X157578168Y-121753910D01*
X157595438Y-121769562D01*
X157611090Y-121786832D01*
X157624974Y-121805552D01*
X157636956Y-121825543D01*
X157646921Y-121846613D01*
X157654773Y-121868557D01*
X157660437Y-121891166D01*
X157663856Y-121914221D01*
X157665000Y-121937500D01*
X157665000Y-122512500D01*
X157663856Y-122535779D01*
X157660437Y-122558834D01*
X157654773Y-122581443D01*
X157646921Y-122603387D01*
X157636956Y-122624457D01*
X157624974Y-122644448D01*
X157611090Y-122663168D01*
X157595438Y-122680438D01*
X157578168Y-122696090D01*
X157559448Y-122709974D01*
X157539457Y-122721956D01*
X157518387Y-122731921D01*
X157496443Y-122739773D01*
X157473834Y-122745437D01*
X157450779Y-122748856D01*
X157427500Y-122750000D01*
X156952500Y-122750000D01*
X156929221Y-122748856D01*
X156906166Y-122745437D01*
X156883557Y-122739773D01*
X156861613Y-122731921D01*
X156840543Y-122721956D01*
X156820552Y-122709974D01*
X156801832Y-122696090D01*
X156784562Y-122680438D01*
X156768910Y-122663168D01*
X156755026Y-122644448D01*
X156743044Y-122624457D01*
X156733079Y-122603387D01*
X156725227Y-122581443D01*
X156719563Y-122558834D01*
X156716144Y-122535779D01*
X156715000Y-122512500D01*
X156715000Y-121937500D01*
X156716144Y-121914221D01*
X156719563Y-121891166D01*
X156725227Y-121868557D01*
X156733079Y-121846613D01*
X156743044Y-121825543D01*
X156755026Y-121805552D01*
X156768910Y-121786832D01*
X156784562Y-121769562D01*
X156801832Y-121753910D01*
X156820552Y-121740026D01*
X156840543Y-121728044D01*
X156861613Y-121718079D01*
X156883557Y-121710227D01*
X156906166Y-121704563D01*
X156929221Y-121701144D01*
X156952500Y-121700000D01*
X157427500Y-121700000D01*
X157450779Y-121701144D01*
X157450779Y-121701144D01*
G37*
D15*
X157190000Y-122225000D03*
D14*
G36*
X157450779Y-119951144D02*
G01*
X157473834Y-119954563D01*
X157496443Y-119960227D01*
X157518387Y-119968079D01*
X157539457Y-119978044D01*
X157559448Y-119990026D01*
X157578168Y-120003910D01*
X157595438Y-120019562D01*
X157611090Y-120036832D01*
X157624974Y-120055552D01*
X157636956Y-120075543D01*
X157646921Y-120096613D01*
X157654773Y-120118557D01*
X157660437Y-120141166D01*
X157663856Y-120164221D01*
X157665000Y-120187500D01*
X157665000Y-120762500D01*
X157663856Y-120785779D01*
X157660437Y-120808834D01*
X157654773Y-120831443D01*
X157646921Y-120853387D01*
X157636956Y-120874457D01*
X157624974Y-120894448D01*
X157611090Y-120913168D01*
X157595438Y-120930438D01*
X157578168Y-120946090D01*
X157559448Y-120959974D01*
X157539457Y-120971956D01*
X157518387Y-120981921D01*
X157496443Y-120989773D01*
X157473834Y-120995437D01*
X157450779Y-120998856D01*
X157427500Y-121000000D01*
X156952500Y-121000000D01*
X156929221Y-120998856D01*
X156906166Y-120995437D01*
X156883557Y-120989773D01*
X156861613Y-120981921D01*
X156840543Y-120971956D01*
X156820552Y-120959974D01*
X156801832Y-120946090D01*
X156784562Y-120930438D01*
X156768910Y-120913168D01*
X156755026Y-120894448D01*
X156743044Y-120874457D01*
X156733079Y-120853387D01*
X156725227Y-120831443D01*
X156719563Y-120808834D01*
X156716144Y-120785779D01*
X156715000Y-120762500D01*
X156715000Y-120187500D01*
X156716144Y-120164221D01*
X156719563Y-120141166D01*
X156725227Y-120118557D01*
X156733079Y-120096613D01*
X156743044Y-120075543D01*
X156755026Y-120055552D01*
X156768910Y-120036832D01*
X156784562Y-120019562D01*
X156801832Y-120003910D01*
X156820552Y-119990026D01*
X156840543Y-119978044D01*
X156861613Y-119968079D01*
X156883557Y-119960227D01*
X156906166Y-119954563D01*
X156929221Y-119951144D01*
X156952500Y-119950000D01*
X157427500Y-119950000D01*
X157450779Y-119951144D01*
X157450779Y-119951144D01*
G37*
D15*
X157190000Y-120475000D03*
D14*
G36*
X155950779Y-121707144D02*
G01*
X155973834Y-121710563D01*
X155996443Y-121716227D01*
X156018387Y-121724079D01*
X156039457Y-121734044D01*
X156059448Y-121746026D01*
X156078168Y-121759910D01*
X156095438Y-121775562D01*
X156111090Y-121792832D01*
X156124974Y-121811552D01*
X156136956Y-121831543D01*
X156146921Y-121852613D01*
X156154773Y-121874557D01*
X156160437Y-121897166D01*
X156163856Y-121920221D01*
X156165000Y-121943500D01*
X156165000Y-122518500D01*
X156163856Y-122541779D01*
X156160437Y-122564834D01*
X156154773Y-122587443D01*
X156146921Y-122609387D01*
X156136956Y-122630457D01*
X156124974Y-122650448D01*
X156111090Y-122669168D01*
X156095438Y-122686438D01*
X156078168Y-122702090D01*
X156059448Y-122715974D01*
X156039457Y-122727956D01*
X156018387Y-122737921D01*
X155996443Y-122745773D01*
X155973834Y-122751437D01*
X155950779Y-122754856D01*
X155927500Y-122756000D01*
X155452500Y-122756000D01*
X155429221Y-122754856D01*
X155406166Y-122751437D01*
X155383557Y-122745773D01*
X155361613Y-122737921D01*
X155340543Y-122727956D01*
X155320552Y-122715974D01*
X155301832Y-122702090D01*
X155284562Y-122686438D01*
X155268910Y-122669168D01*
X155255026Y-122650448D01*
X155243044Y-122630457D01*
X155233079Y-122609387D01*
X155225227Y-122587443D01*
X155219563Y-122564834D01*
X155216144Y-122541779D01*
X155215000Y-122518500D01*
X155215000Y-121943500D01*
X155216144Y-121920221D01*
X155219563Y-121897166D01*
X155225227Y-121874557D01*
X155233079Y-121852613D01*
X155243044Y-121831543D01*
X155255026Y-121811552D01*
X155268910Y-121792832D01*
X155284562Y-121775562D01*
X155301832Y-121759910D01*
X155320552Y-121746026D01*
X155340543Y-121734044D01*
X155361613Y-121724079D01*
X155383557Y-121716227D01*
X155406166Y-121710563D01*
X155429221Y-121707144D01*
X155452500Y-121706000D01*
X155927500Y-121706000D01*
X155950779Y-121707144D01*
X155950779Y-121707144D01*
G37*
D15*
X155690000Y-122231000D03*
D14*
G36*
X155950779Y-119957144D02*
G01*
X155973834Y-119960563D01*
X155996443Y-119966227D01*
X156018387Y-119974079D01*
X156039457Y-119984044D01*
X156059448Y-119996026D01*
X156078168Y-120009910D01*
X156095438Y-120025562D01*
X156111090Y-120042832D01*
X156124974Y-120061552D01*
X156136956Y-120081543D01*
X156146921Y-120102613D01*
X156154773Y-120124557D01*
X156160437Y-120147166D01*
X156163856Y-120170221D01*
X156165000Y-120193500D01*
X156165000Y-120768500D01*
X156163856Y-120791779D01*
X156160437Y-120814834D01*
X156154773Y-120837443D01*
X156146921Y-120859387D01*
X156136956Y-120880457D01*
X156124974Y-120900448D01*
X156111090Y-120919168D01*
X156095438Y-120936438D01*
X156078168Y-120952090D01*
X156059448Y-120965974D01*
X156039457Y-120977956D01*
X156018387Y-120987921D01*
X155996443Y-120995773D01*
X155973834Y-121001437D01*
X155950779Y-121004856D01*
X155927500Y-121006000D01*
X155452500Y-121006000D01*
X155429221Y-121004856D01*
X155406166Y-121001437D01*
X155383557Y-120995773D01*
X155361613Y-120987921D01*
X155340543Y-120977956D01*
X155320552Y-120965974D01*
X155301832Y-120952090D01*
X155284562Y-120936438D01*
X155268910Y-120919168D01*
X155255026Y-120900448D01*
X155243044Y-120880457D01*
X155233079Y-120859387D01*
X155225227Y-120837443D01*
X155219563Y-120814834D01*
X155216144Y-120791779D01*
X155215000Y-120768500D01*
X155215000Y-120193500D01*
X155216144Y-120170221D01*
X155219563Y-120147166D01*
X155225227Y-120124557D01*
X155233079Y-120102613D01*
X155243044Y-120081543D01*
X155255026Y-120061552D01*
X155268910Y-120042832D01*
X155284562Y-120025562D01*
X155301832Y-120009910D01*
X155320552Y-119996026D01*
X155340543Y-119984044D01*
X155361613Y-119974079D01*
X155383557Y-119966227D01*
X155406166Y-119960563D01*
X155429221Y-119957144D01*
X155452500Y-119956000D01*
X155927500Y-119956000D01*
X155950779Y-119957144D01*
X155950779Y-119957144D01*
G37*
D15*
X155690000Y-120481000D03*
D14*
G36*
X195795779Y-123466144D02*
G01*
X195818834Y-123469563D01*
X195841443Y-123475227D01*
X195863387Y-123483079D01*
X195884457Y-123493044D01*
X195904448Y-123505026D01*
X195923168Y-123518910D01*
X195940438Y-123534562D01*
X195956090Y-123551832D01*
X195969974Y-123570552D01*
X195981956Y-123590543D01*
X195991921Y-123611613D01*
X195999773Y-123633557D01*
X196005437Y-123656166D01*
X196008856Y-123679221D01*
X196010000Y-123702500D01*
X196010000Y-124177500D01*
X196008856Y-124200779D01*
X196005437Y-124223834D01*
X195999773Y-124246443D01*
X195991921Y-124268387D01*
X195981956Y-124289457D01*
X195969974Y-124309448D01*
X195956090Y-124328168D01*
X195940438Y-124345438D01*
X195923168Y-124361090D01*
X195904448Y-124374974D01*
X195884457Y-124386956D01*
X195863387Y-124396921D01*
X195841443Y-124404773D01*
X195818834Y-124410437D01*
X195795779Y-124413856D01*
X195772500Y-124415000D01*
X195197500Y-124415000D01*
X195174221Y-124413856D01*
X195151166Y-124410437D01*
X195128557Y-124404773D01*
X195106613Y-124396921D01*
X195085543Y-124386956D01*
X195065552Y-124374974D01*
X195046832Y-124361090D01*
X195029562Y-124345438D01*
X195013910Y-124328168D01*
X195000026Y-124309448D01*
X194988044Y-124289457D01*
X194978079Y-124268387D01*
X194970227Y-124246443D01*
X194964563Y-124223834D01*
X194961144Y-124200779D01*
X194960000Y-124177500D01*
X194960000Y-123702500D01*
X194961144Y-123679221D01*
X194964563Y-123656166D01*
X194970227Y-123633557D01*
X194978079Y-123611613D01*
X194988044Y-123590543D01*
X195000026Y-123570552D01*
X195013910Y-123551832D01*
X195029562Y-123534562D01*
X195046832Y-123518910D01*
X195065552Y-123505026D01*
X195085543Y-123493044D01*
X195106613Y-123483079D01*
X195128557Y-123475227D01*
X195151166Y-123469563D01*
X195174221Y-123466144D01*
X195197500Y-123465000D01*
X195772500Y-123465000D01*
X195795779Y-123466144D01*
X195795779Y-123466144D01*
G37*
D15*
X195485000Y-123940000D03*
D14*
G36*
X194045779Y-123466144D02*
G01*
X194068834Y-123469563D01*
X194091443Y-123475227D01*
X194113387Y-123483079D01*
X194134457Y-123493044D01*
X194154448Y-123505026D01*
X194173168Y-123518910D01*
X194190438Y-123534562D01*
X194206090Y-123551832D01*
X194219974Y-123570552D01*
X194231956Y-123590543D01*
X194241921Y-123611613D01*
X194249773Y-123633557D01*
X194255437Y-123656166D01*
X194258856Y-123679221D01*
X194260000Y-123702500D01*
X194260000Y-124177500D01*
X194258856Y-124200779D01*
X194255437Y-124223834D01*
X194249773Y-124246443D01*
X194241921Y-124268387D01*
X194231956Y-124289457D01*
X194219974Y-124309448D01*
X194206090Y-124328168D01*
X194190438Y-124345438D01*
X194173168Y-124361090D01*
X194154448Y-124374974D01*
X194134457Y-124386956D01*
X194113387Y-124396921D01*
X194091443Y-124404773D01*
X194068834Y-124410437D01*
X194045779Y-124413856D01*
X194022500Y-124415000D01*
X193447500Y-124415000D01*
X193424221Y-124413856D01*
X193401166Y-124410437D01*
X193378557Y-124404773D01*
X193356613Y-124396921D01*
X193335543Y-124386956D01*
X193315552Y-124374974D01*
X193296832Y-124361090D01*
X193279562Y-124345438D01*
X193263910Y-124328168D01*
X193250026Y-124309448D01*
X193238044Y-124289457D01*
X193228079Y-124268387D01*
X193220227Y-124246443D01*
X193214563Y-124223834D01*
X193211144Y-124200779D01*
X193210000Y-124177500D01*
X193210000Y-123702500D01*
X193211144Y-123679221D01*
X193214563Y-123656166D01*
X193220227Y-123633557D01*
X193228079Y-123611613D01*
X193238044Y-123590543D01*
X193250026Y-123570552D01*
X193263910Y-123551832D01*
X193279562Y-123534562D01*
X193296832Y-123518910D01*
X193315552Y-123505026D01*
X193335543Y-123493044D01*
X193356613Y-123483079D01*
X193378557Y-123475227D01*
X193401166Y-123469563D01*
X193424221Y-123466144D01*
X193447500Y-123465000D01*
X194022500Y-123465000D01*
X194045779Y-123466144D01*
X194045779Y-123466144D01*
G37*
D15*
X193735000Y-123940000D03*
D14*
G36*
X150645779Y-121942144D02*
G01*
X150668834Y-121945563D01*
X150691443Y-121951227D01*
X150713387Y-121959079D01*
X150734457Y-121969044D01*
X150754448Y-121981026D01*
X150773168Y-121994910D01*
X150790438Y-122010562D01*
X150806090Y-122027832D01*
X150819974Y-122046552D01*
X150831956Y-122066543D01*
X150841921Y-122087613D01*
X150849773Y-122109557D01*
X150855437Y-122132166D01*
X150858856Y-122155221D01*
X150860000Y-122178500D01*
X150860000Y-122653500D01*
X150858856Y-122676779D01*
X150855437Y-122699834D01*
X150849773Y-122722443D01*
X150841921Y-122744387D01*
X150831956Y-122765457D01*
X150819974Y-122785448D01*
X150806090Y-122804168D01*
X150790438Y-122821438D01*
X150773168Y-122837090D01*
X150754448Y-122850974D01*
X150734457Y-122862956D01*
X150713387Y-122872921D01*
X150691443Y-122880773D01*
X150668834Y-122886437D01*
X150645779Y-122889856D01*
X150622500Y-122891000D01*
X150047500Y-122891000D01*
X150024221Y-122889856D01*
X150001166Y-122886437D01*
X149978557Y-122880773D01*
X149956613Y-122872921D01*
X149935543Y-122862956D01*
X149915552Y-122850974D01*
X149896832Y-122837090D01*
X149879562Y-122821438D01*
X149863910Y-122804168D01*
X149850026Y-122785448D01*
X149838044Y-122765457D01*
X149828079Y-122744387D01*
X149820227Y-122722443D01*
X149814563Y-122699834D01*
X149811144Y-122676779D01*
X149810000Y-122653500D01*
X149810000Y-122178500D01*
X149811144Y-122155221D01*
X149814563Y-122132166D01*
X149820227Y-122109557D01*
X149828079Y-122087613D01*
X149838044Y-122066543D01*
X149850026Y-122046552D01*
X149863910Y-122027832D01*
X149879562Y-122010562D01*
X149896832Y-121994910D01*
X149915552Y-121981026D01*
X149935543Y-121969044D01*
X149956613Y-121959079D01*
X149978557Y-121951227D01*
X150001166Y-121945563D01*
X150024221Y-121942144D01*
X150047500Y-121941000D01*
X150622500Y-121941000D01*
X150645779Y-121942144D01*
X150645779Y-121942144D01*
G37*
D15*
X150335000Y-122416000D03*
D14*
G36*
X148895779Y-121942144D02*
G01*
X148918834Y-121945563D01*
X148941443Y-121951227D01*
X148963387Y-121959079D01*
X148984457Y-121969044D01*
X149004448Y-121981026D01*
X149023168Y-121994910D01*
X149040438Y-122010562D01*
X149056090Y-122027832D01*
X149069974Y-122046552D01*
X149081956Y-122066543D01*
X149091921Y-122087613D01*
X149099773Y-122109557D01*
X149105437Y-122132166D01*
X149108856Y-122155221D01*
X149110000Y-122178500D01*
X149110000Y-122653500D01*
X149108856Y-122676779D01*
X149105437Y-122699834D01*
X149099773Y-122722443D01*
X149091921Y-122744387D01*
X149081956Y-122765457D01*
X149069974Y-122785448D01*
X149056090Y-122804168D01*
X149040438Y-122821438D01*
X149023168Y-122837090D01*
X149004448Y-122850974D01*
X148984457Y-122862956D01*
X148963387Y-122872921D01*
X148941443Y-122880773D01*
X148918834Y-122886437D01*
X148895779Y-122889856D01*
X148872500Y-122891000D01*
X148297500Y-122891000D01*
X148274221Y-122889856D01*
X148251166Y-122886437D01*
X148228557Y-122880773D01*
X148206613Y-122872921D01*
X148185543Y-122862956D01*
X148165552Y-122850974D01*
X148146832Y-122837090D01*
X148129562Y-122821438D01*
X148113910Y-122804168D01*
X148100026Y-122785448D01*
X148088044Y-122765457D01*
X148078079Y-122744387D01*
X148070227Y-122722443D01*
X148064563Y-122699834D01*
X148061144Y-122676779D01*
X148060000Y-122653500D01*
X148060000Y-122178500D01*
X148061144Y-122155221D01*
X148064563Y-122132166D01*
X148070227Y-122109557D01*
X148078079Y-122087613D01*
X148088044Y-122066543D01*
X148100026Y-122046552D01*
X148113910Y-122027832D01*
X148129562Y-122010562D01*
X148146832Y-121994910D01*
X148165552Y-121981026D01*
X148185543Y-121969044D01*
X148206613Y-121959079D01*
X148228557Y-121951227D01*
X148251166Y-121945563D01*
X148274221Y-121942144D01*
X148297500Y-121941000D01*
X148872500Y-121941000D01*
X148895779Y-121942144D01*
X148895779Y-121942144D01*
G37*
D15*
X148585000Y-122416000D03*
D14*
G36*
X182591779Y-84410144D02*
G01*
X182614834Y-84413563D01*
X182637443Y-84419227D01*
X182659387Y-84427079D01*
X182680457Y-84437044D01*
X182700448Y-84449026D01*
X182719168Y-84462910D01*
X182736438Y-84478562D01*
X182752090Y-84495832D01*
X182765974Y-84514552D01*
X182777956Y-84534543D01*
X182787921Y-84555613D01*
X182795773Y-84577557D01*
X182801437Y-84600166D01*
X182804856Y-84623221D01*
X182806000Y-84646500D01*
X182806000Y-85121500D01*
X182804856Y-85144779D01*
X182801437Y-85167834D01*
X182795773Y-85190443D01*
X182787921Y-85212387D01*
X182777956Y-85233457D01*
X182765974Y-85253448D01*
X182752090Y-85272168D01*
X182736438Y-85289438D01*
X182719168Y-85305090D01*
X182700448Y-85318974D01*
X182680457Y-85330956D01*
X182659387Y-85340921D01*
X182637443Y-85348773D01*
X182614834Y-85354437D01*
X182591779Y-85357856D01*
X182568500Y-85359000D01*
X181993500Y-85359000D01*
X181970221Y-85357856D01*
X181947166Y-85354437D01*
X181924557Y-85348773D01*
X181902613Y-85340921D01*
X181881543Y-85330956D01*
X181861552Y-85318974D01*
X181842832Y-85305090D01*
X181825562Y-85289438D01*
X181809910Y-85272168D01*
X181796026Y-85253448D01*
X181784044Y-85233457D01*
X181774079Y-85212387D01*
X181766227Y-85190443D01*
X181760563Y-85167834D01*
X181757144Y-85144779D01*
X181756000Y-85121500D01*
X181756000Y-84646500D01*
X181757144Y-84623221D01*
X181760563Y-84600166D01*
X181766227Y-84577557D01*
X181774079Y-84555613D01*
X181784044Y-84534543D01*
X181796026Y-84514552D01*
X181809910Y-84495832D01*
X181825562Y-84478562D01*
X181842832Y-84462910D01*
X181861552Y-84449026D01*
X181881543Y-84437044D01*
X181902613Y-84427079D01*
X181924557Y-84419227D01*
X181947166Y-84413563D01*
X181970221Y-84410144D01*
X181993500Y-84409000D01*
X182568500Y-84409000D01*
X182591779Y-84410144D01*
X182591779Y-84410144D01*
G37*
D15*
X182281000Y-84884000D03*
D14*
G36*
X180841779Y-84410144D02*
G01*
X180864834Y-84413563D01*
X180887443Y-84419227D01*
X180909387Y-84427079D01*
X180930457Y-84437044D01*
X180950448Y-84449026D01*
X180969168Y-84462910D01*
X180986438Y-84478562D01*
X181002090Y-84495832D01*
X181015974Y-84514552D01*
X181027956Y-84534543D01*
X181037921Y-84555613D01*
X181045773Y-84577557D01*
X181051437Y-84600166D01*
X181054856Y-84623221D01*
X181056000Y-84646500D01*
X181056000Y-85121500D01*
X181054856Y-85144779D01*
X181051437Y-85167834D01*
X181045773Y-85190443D01*
X181037921Y-85212387D01*
X181027956Y-85233457D01*
X181015974Y-85253448D01*
X181002090Y-85272168D01*
X180986438Y-85289438D01*
X180969168Y-85305090D01*
X180950448Y-85318974D01*
X180930457Y-85330956D01*
X180909387Y-85340921D01*
X180887443Y-85348773D01*
X180864834Y-85354437D01*
X180841779Y-85357856D01*
X180818500Y-85359000D01*
X180243500Y-85359000D01*
X180220221Y-85357856D01*
X180197166Y-85354437D01*
X180174557Y-85348773D01*
X180152613Y-85340921D01*
X180131543Y-85330956D01*
X180111552Y-85318974D01*
X180092832Y-85305090D01*
X180075562Y-85289438D01*
X180059910Y-85272168D01*
X180046026Y-85253448D01*
X180034044Y-85233457D01*
X180024079Y-85212387D01*
X180016227Y-85190443D01*
X180010563Y-85167834D01*
X180007144Y-85144779D01*
X180006000Y-85121500D01*
X180006000Y-84646500D01*
X180007144Y-84623221D01*
X180010563Y-84600166D01*
X180016227Y-84577557D01*
X180024079Y-84555613D01*
X180034044Y-84534543D01*
X180046026Y-84514552D01*
X180059910Y-84495832D01*
X180075562Y-84478562D01*
X180092832Y-84462910D01*
X180111552Y-84449026D01*
X180131543Y-84437044D01*
X180152613Y-84427079D01*
X180174557Y-84419227D01*
X180197166Y-84413563D01*
X180220221Y-84410144D01*
X180243500Y-84409000D01*
X180818500Y-84409000D01*
X180841779Y-84410144D01*
X180841779Y-84410144D01*
G37*
D15*
X180531000Y-84884000D03*
D14*
G36*
X166690779Y-82767144D02*
G01*
X166713834Y-82770563D01*
X166736443Y-82776227D01*
X166758387Y-82784079D01*
X166779457Y-82794044D01*
X166799448Y-82806026D01*
X166818168Y-82819910D01*
X166835438Y-82835562D01*
X166851090Y-82852832D01*
X166864974Y-82871552D01*
X166876956Y-82891543D01*
X166886921Y-82912613D01*
X166894773Y-82934557D01*
X166900437Y-82957166D01*
X166903856Y-82980221D01*
X166905000Y-83003500D01*
X166905000Y-83578500D01*
X166903856Y-83601779D01*
X166900437Y-83624834D01*
X166894773Y-83647443D01*
X166886921Y-83669387D01*
X166876956Y-83690457D01*
X166864974Y-83710448D01*
X166851090Y-83729168D01*
X166835438Y-83746438D01*
X166818168Y-83762090D01*
X166799448Y-83775974D01*
X166779457Y-83787956D01*
X166758387Y-83797921D01*
X166736443Y-83805773D01*
X166713834Y-83811437D01*
X166690779Y-83814856D01*
X166667500Y-83816000D01*
X166192500Y-83816000D01*
X166169221Y-83814856D01*
X166146166Y-83811437D01*
X166123557Y-83805773D01*
X166101613Y-83797921D01*
X166080543Y-83787956D01*
X166060552Y-83775974D01*
X166041832Y-83762090D01*
X166024562Y-83746438D01*
X166008910Y-83729168D01*
X165995026Y-83710448D01*
X165983044Y-83690457D01*
X165973079Y-83669387D01*
X165965227Y-83647443D01*
X165959563Y-83624834D01*
X165956144Y-83601779D01*
X165955000Y-83578500D01*
X165955000Y-83003500D01*
X165956144Y-82980221D01*
X165959563Y-82957166D01*
X165965227Y-82934557D01*
X165973079Y-82912613D01*
X165983044Y-82891543D01*
X165995026Y-82871552D01*
X166008910Y-82852832D01*
X166024562Y-82835562D01*
X166041832Y-82819910D01*
X166060552Y-82806026D01*
X166080543Y-82794044D01*
X166101613Y-82784079D01*
X166123557Y-82776227D01*
X166146166Y-82770563D01*
X166169221Y-82767144D01*
X166192500Y-82766000D01*
X166667500Y-82766000D01*
X166690779Y-82767144D01*
X166690779Y-82767144D01*
G37*
D15*
X166430000Y-83291000D03*
D14*
G36*
X166690779Y-84517144D02*
G01*
X166713834Y-84520563D01*
X166736443Y-84526227D01*
X166758387Y-84534079D01*
X166779457Y-84544044D01*
X166799448Y-84556026D01*
X166818168Y-84569910D01*
X166835438Y-84585562D01*
X166851090Y-84602832D01*
X166864974Y-84621552D01*
X166876956Y-84641543D01*
X166886921Y-84662613D01*
X166894773Y-84684557D01*
X166900437Y-84707166D01*
X166903856Y-84730221D01*
X166905000Y-84753500D01*
X166905000Y-85328500D01*
X166903856Y-85351779D01*
X166900437Y-85374834D01*
X166894773Y-85397443D01*
X166886921Y-85419387D01*
X166876956Y-85440457D01*
X166864974Y-85460448D01*
X166851090Y-85479168D01*
X166835438Y-85496438D01*
X166818168Y-85512090D01*
X166799448Y-85525974D01*
X166779457Y-85537956D01*
X166758387Y-85547921D01*
X166736443Y-85555773D01*
X166713834Y-85561437D01*
X166690779Y-85564856D01*
X166667500Y-85566000D01*
X166192500Y-85566000D01*
X166169221Y-85564856D01*
X166146166Y-85561437D01*
X166123557Y-85555773D01*
X166101613Y-85547921D01*
X166080543Y-85537956D01*
X166060552Y-85525974D01*
X166041832Y-85512090D01*
X166024562Y-85496438D01*
X166008910Y-85479168D01*
X165995026Y-85460448D01*
X165983044Y-85440457D01*
X165973079Y-85419387D01*
X165965227Y-85397443D01*
X165959563Y-85374834D01*
X165956144Y-85351779D01*
X165955000Y-85328500D01*
X165955000Y-84753500D01*
X165956144Y-84730221D01*
X165959563Y-84707166D01*
X165965227Y-84684557D01*
X165973079Y-84662613D01*
X165983044Y-84641543D01*
X165995026Y-84621552D01*
X166008910Y-84602832D01*
X166024562Y-84585562D01*
X166041832Y-84569910D01*
X166060552Y-84556026D01*
X166080543Y-84544044D01*
X166101613Y-84534079D01*
X166123557Y-84526227D01*
X166146166Y-84520563D01*
X166169221Y-84517144D01*
X166192500Y-84516000D01*
X166667500Y-84516000D01*
X166690779Y-84517144D01*
X166690779Y-84517144D01*
G37*
D15*
X166430000Y-85041000D03*
D14*
G36*
X188104504Y-84202204D02*
G01*
X188128773Y-84205804D01*
X188152571Y-84211765D01*
X188175671Y-84220030D01*
X188197849Y-84230520D01*
X188218893Y-84243133D01*
X188238598Y-84257747D01*
X188256777Y-84274223D01*
X188273253Y-84292402D01*
X188287867Y-84312107D01*
X188300480Y-84333151D01*
X188310970Y-84355329D01*
X188319235Y-84378429D01*
X188325196Y-84402227D01*
X188328796Y-84426496D01*
X188330000Y-84451000D01*
X188330000Y-85701000D01*
X188328796Y-85725504D01*
X188325196Y-85749773D01*
X188319235Y-85773571D01*
X188310970Y-85796671D01*
X188300480Y-85818849D01*
X188287867Y-85839893D01*
X188273253Y-85859598D01*
X188256777Y-85877777D01*
X188238598Y-85894253D01*
X188218893Y-85908867D01*
X188197849Y-85921480D01*
X188175671Y-85931970D01*
X188152571Y-85940235D01*
X188128773Y-85946196D01*
X188104504Y-85949796D01*
X188080000Y-85951000D01*
X187155000Y-85951000D01*
X187130496Y-85949796D01*
X187106227Y-85946196D01*
X187082429Y-85940235D01*
X187059329Y-85931970D01*
X187037151Y-85921480D01*
X187016107Y-85908867D01*
X186996402Y-85894253D01*
X186978223Y-85877777D01*
X186961747Y-85859598D01*
X186947133Y-85839893D01*
X186934520Y-85818849D01*
X186924030Y-85796671D01*
X186915765Y-85773571D01*
X186909804Y-85749773D01*
X186906204Y-85725504D01*
X186905000Y-85701000D01*
X186905000Y-84451000D01*
X186906204Y-84426496D01*
X186909804Y-84402227D01*
X186915765Y-84378429D01*
X186924030Y-84355329D01*
X186934520Y-84333151D01*
X186947133Y-84312107D01*
X186961747Y-84292402D01*
X186978223Y-84274223D01*
X186996402Y-84257747D01*
X187016107Y-84243133D01*
X187037151Y-84230520D01*
X187059329Y-84220030D01*
X187082429Y-84211765D01*
X187106227Y-84205804D01*
X187130496Y-84202204D01*
X187155000Y-84201000D01*
X188080000Y-84201000D01*
X188104504Y-84202204D01*
X188104504Y-84202204D01*
G37*
D21*
X187617500Y-85076000D03*
D14*
G36*
X185129504Y-84202204D02*
G01*
X185153773Y-84205804D01*
X185177571Y-84211765D01*
X185200671Y-84220030D01*
X185222849Y-84230520D01*
X185243893Y-84243133D01*
X185263598Y-84257747D01*
X185281777Y-84274223D01*
X185298253Y-84292402D01*
X185312867Y-84312107D01*
X185325480Y-84333151D01*
X185335970Y-84355329D01*
X185344235Y-84378429D01*
X185350196Y-84402227D01*
X185353796Y-84426496D01*
X185355000Y-84451000D01*
X185355000Y-85701000D01*
X185353796Y-85725504D01*
X185350196Y-85749773D01*
X185344235Y-85773571D01*
X185335970Y-85796671D01*
X185325480Y-85818849D01*
X185312867Y-85839893D01*
X185298253Y-85859598D01*
X185281777Y-85877777D01*
X185263598Y-85894253D01*
X185243893Y-85908867D01*
X185222849Y-85921480D01*
X185200671Y-85931970D01*
X185177571Y-85940235D01*
X185153773Y-85946196D01*
X185129504Y-85949796D01*
X185105000Y-85951000D01*
X184180000Y-85951000D01*
X184155496Y-85949796D01*
X184131227Y-85946196D01*
X184107429Y-85940235D01*
X184084329Y-85931970D01*
X184062151Y-85921480D01*
X184041107Y-85908867D01*
X184021402Y-85894253D01*
X184003223Y-85877777D01*
X183986747Y-85859598D01*
X183972133Y-85839893D01*
X183959520Y-85818849D01*
X183949030Y-85796671D01*
X183940765Y-85773571D01*
X183934804Y-85749773D01*
X183931204Y-85725504D01*
X183930000Y-85701000D01*
X183930000Y-84451000D01*
X183931204Y-84426496D01*
X183934804Y-84402227D01*
X183940765Y-84378429D01*
X183949030Y-84355329D01*
X183959520Y-84333151D01*
X183972133Y-84312107D01*
X183986747Y-84292402D01*
X184003223Y-84274223D01*
X184021402Y-84257747D01*
X184041107Y-84243133D01*
X184062151Y-84230520D01*
X184084329Y-84220030D01*
X184107429Y-84211765D01*
X184131227Y-84205804D01*
X184155496Y-84202204D01*
X184180000Y-84201000D01*
X185105000Y-84201000D01*
X185129504Y-84202204D01*
X185129504Y-84202204D01*
G37*
D21*
X184642500Y-85076000D03*
D14*
G36*
X167099504Y-77117204D02*
G01*
X167123773Y-77120804D01*
X167147571Y-77126765D01*
X167170671Y-77135030D01*
X167192849Y-77145520D01*
X167213893Y-77158133D01*
X167233598Y-77172747D01*
X167251777Y-77189223D01*
X167268253Y-77207402D01*
X167282867Y-77227107D01*
X167295480Y-77248151D01*
X167305970Y-77270329D01*
X167314235Y-77293429D01*
X167320196Y-77317227D01*
X167323796Y-77341496D01*
X167325000Y-77366000D01*
X167325000Y-78291000D01*
X167323796Y-78315504D01*
X167320196Y-78339773D01*
X167314235Y-78363571D01*
X167305970Y-78386671D01*
X167295480Y-78408849D01*
X167282867Y-78429893D01*
X167268253Y-78449598D01*
X167251777Y-78467777D01*
X167233598Y-78484253D01*
X167213893Y-78498867D01*
X167192849Y-78511480D01*
X167170671Y-78521970D01*
X167147571Y-78530235D01*
X167123773Y-78536196D01*
X167099504Y-78539796D01*
X167075000Y-78541000D01*
X165825000Y-78541000D01*
X165800496Y-78539796D01*
X165776227Y-78536196D01*
X165752429Y-78530235D01*
X165729329Y-78521970D01*
X165707151Y-78511480D01*
X165686107Y-78498867D01*
X165666402Y-78484253D01*
X165648223Y-78467777D01*
X165631747Y-78449598D01*
X165617133Y-78429893D01*
X165604520Y-78408849D01*
X165594030Y-78386671D01*
X165585765Y-78363571D01*
X165579804Y-78339773D01*
X165576204Y-78315504D01*
X165575000Y-78291000D01*
X165575000Y-77366000D01*
X165576204Y-77341496D01*
X165579804Y-77317227D01*
X165585765Y-77293429D01*
X165594030Y-77270329D01*
X165604520Y-77248151D01*
X165617133Y-77227107D01*
X165631747Y-77207402D01*
X165648223Y-77189223D01*
X165666402Y-77172747D01*
X165686107Y-77158133D01*
X165707151Y-77145520D01*
X165729329Y-77135030D01*
X165752429Y-77126765D01*
X165776227Y-77120804D01*
X165800496Y-77117204D01*
X165825000Y-77116000D01*
X167075000Y-77116000D01*
X167099504Y-77117204D01*
X167099504Y-77117204D01*
G37*
D21*
X166450000Y-77828500D03*
D14*
G36*
X167099504Y-80092204D02*
G01*
X167123773Y-80095804D01*
X167147571Y-80101765D01*
X167170671Y-80110030D01*
X167192849Y-80120520D01*
X167213893Y-80133133D01*
X167233598Y-80147747D01*
X167251777Y-80164223D01*
X167268253Y-80182402D01*
X167282867Y-80202107D01*
X167295480Y-80223151D01*
X167305970Y-80245329D01*
X167314235Y-80268429D01*
X167320196Y-80292227D01*
X167323796Y-80316496D01*
X167325000Y-80341000D01*
X167325000Y-81266000D01*
X167323796Y-81290504D01*
X167320196Y-81314773D01*
X167314235Y-81338571D01*
X167305970Y-81361671D01*
X167295480Y-81383849D01*
X167282867Y-81404893D01*
X167268253Y-81424598D01*
X167251777Y-81442777D01*
X167233598Y-81459253D01*
X167213893Y-81473867D01*
X167192849Y-81486480D01*
X167170671Y-81496970D01*
X167147571Y-81505235D01*
X167123773Y-81511196D01*
X167099504Y-81514796D01*
X167075000Y-81516000D01*
X165825000Y-81516000D01*
X165800496Y-81514796D01*
X165776227Y-81511196D01*
X165752429Y-81505235D01*
X165729329Y-81496970D01*
X165707151Y-81486480D01*
X165686107Y-81473867D01*
X165666402Y-81459253D01*
X165648223Y-81442777D01*
X165631747Y-81424598D01*
X165617133Y-81404893D01*
X165604520Y-81383849D01*
X165594030Y-81361671D01*
X165585765Y-81338571D01*
X165579804Y-81314773D01*
X165576204Y-81290504D01*
X165575000Y-81266000D01*
X165575000Y-80341000D01*
X165576204Y-80316496D01*
X165579804Y-80292227D01*
X165585765Y-80268429D01*
X165594030Y-80245329D01*
X165604520Y-80223151D01*
X165617133Y-80202107D01*
X165631747Y-80182402D01*
X165648223Y-80164223D01*
X165666402Y-80147747D01*
X165686107Y-80133133D01*
X165707151Y-80120520D01*
X165729329Y-80110030D01*
X165752429Y-80101765D01*
X165776227Y-80095804D01*
X165800496Y-80092204D01*
X165825000Y-80091000D01*
X167075000Y-80091000D01*
X167099504Y-80092204D01*
X167099504Y-80092204D01*
G37*
D21*
X166450000Y-80803500D03*
D14*
G36*
X154925779Y-96586144D02*
G01*
X154948834Y-96589563D01*
X154971443Y-96595227D01*
X154993387Y-96603079D01*
X155014457Y-96613044D01*
X155034448Y-96625026D01*
X155053168Y-96638910D01*
X155070438Y-96654562D01*
X155086090Y-96671832D01*
X155099974Y-96690552D01*
X155111956Y-96710543D01*
X155121921Y-96731613D01*
X155129773Y-96753557D01*
X155135437Y-96776166D01*
X155138856Y-96799221D01*
X155140000Y-96822500D01*
X155140000Y-97297500D01*
X155138856Y-97320779D01*
X155135437Y-97343834D01*
X155129773Y-97366443D01*
X155121921Y-97388387D01*
X155111956Y-97409457D01*
X155099974Y-97429448D01*
X155086090Y-97448168D01*
X155070438Y-97465438D01*
X155053168Y-97481090D01*
X155034448Y-97494974D01*
X155014457Y-97506956D01*
X154993387Y-97516921D01*
X154971443Y-97524773D01*
X154948834Y-97530437D01*
X154925779Y-97533856D01*
X154902500Y-97535000D01*
X154327500Y-97535000D01*
X154304221Y-97533856D01*
X154281166Y-97530437D01*
X154258557Y-97524773D01*
X154236613Y-97516921D01*
X154215543Y-97506956D01*
X154195552Y-97494974D01*
X154176832Y-97481090D01*
X154159562Y-97465438D01*
X154143910Y-97448168D01*
X154130026Y-97429448D01*
X154118044Y-97409457D01*
X154108079Y-97388387D01*
X154100227Y-97366443D01*
X154094563Y-97343834D01*
X154091144Y-97320779D01*
X154090000Y-97297500D01*
X154090000Y-96822500D01*
X154091144Y-96799221D01*
X154094563Y-96776166D01*
X154100227Y-96753557D01*
X154108079Y-96731613D01*
X154118044Y-96710543D01*
X154130026Y-96690552D01*
X154143910Y-96671832D01*
X154159562Y-96654562D01*
X154176832Y-96638910D01*
X154195552Y-96625026D01*
X154215543Y-96613044D01*
X154236613Y-96603079D01*
X154258557Y-96595227D01*
X154281166Y-96589563D01*
X154304221Y-96586144D01*
X154327500Y-96585000D01*
X154902500Y-96585000D01*
X154925779Y-96586144D01*
X154925779Y-96586144D01*
G37*
D15*
X154615000Y-97060000D03*
D14*
G36*
X153175779Y-96586144D02*
G01*
X153198834Y-96589563D01*
X153221443Y-96595227D01*
X153243387Y-96603079D01*
X153264457Y-96613044D01*
X153284448Y-96625026D01*
X153303168Y-96638910D01*
X153320438Y-96654562D01*
X153336090Y-96671832D01*
X153349974Y-96690552D01*
X153361956Y-96710543D01*
X153371921Y-96731613D01*
X153379773Y-96753557D01*
X153385437Y-96776166D01*
X153388856Y-96799221D01*
X153390000Y-96822500D01*
X153390000Y-97297500D01*
X153388856Y-97320779D01*
X153385437Y-97343834D01*
X153379773Y-97366443D01*
X153371921Y-97388387D01*
X153361956Y-97409457D01*
X153349974Y-97429448D01*
X153336090Y-97448168D01*
X153320438Y-97465438D01*
X153303168Y-97481090D01*
X153284448Y-97494974D01*
X153264457Y-97506956D01*
X153243387Y-97516921D01*
X153221443Y-97524773D01*
X153198834Y-97530437D01*
X153175779Y-97533856D01*
X153152500Y-97535000D01*
X152577500Y-97535000D01*
X152554221Y-97533856D01*
X152531166Y-97530437D01*
X152508557Y-97524773D01*
X152486613Y-97516921D01*
X152465543Y-97506956D01*
X152445552Y-97494974D01*
X152426832Y-97481090D01*
X152409562Y-97465438D01*
X152393910Y-97448168D01*
X152380026Y-97429448D01*
X152368044Y-97409457D01*
X152358079Y-97388387D01*
X152350227Y-97366443D01*
X152344563Y-97343834D01*
X152341144Y-97320779D01*
X152340000Y-97297500D01*
X152340000Y-96822500D01*
X152341144Y-96799221D01*
X152344563Y-96776166D01*
X152350227Y-96753557D01*
X152358079Y-96731613D01*
X152368044Y-96710543D01*
X152380026Y-96690552D01*
X152393910Y-96671832D01*
X152409562Y-96654562D01*
X152426832Y-96638910D01*
X152445552Y-96625026D01*
X152465543Y-96613044D01*
X152486613Y-96603079D01*
X152508557Y-96595227D01*
X152531166Y-96589563D01*
X152554221Y-96586144D01*
X152577500Y-96585000D01*
X153152500Y-96585000D01*
X153175779Y-96586144D01*
X153175779Y-96586144D01*
G37*
D15*
X152865000Y-97060000D03*
D14*
G36*
X170244504Y-105091204D02*
G01*
X170268773Y-105094804D01*
X170292571Y-105100765D01*
X170315671Y-105109030D01*
X170337849Y-105119520D01*
X170358893Y-105132133D01*
X170378598Y-105146747D01*
X170396777Y-105163223D01*
X170413253Y-105181402D01*
X170427867Y-105201107D01*
X170440480Y-105222151D01*
X170450970Y-105244329D01*
X170459235Y-105267429D01*
X170465196Y-105291227D01*
X170468796Y-105315496D01*
X170470000Y-105340000D01*
X170470000Y-106265000D01*
X170468796Y-106289504D01*
X170465196Y-106313773D01*
X170459235Y-106337571D01*
X170450970Y-106360671D01*
X170440480Y-106382849D01*
X170427867Y-106403893D01*
X170413253Y-106423598D01*
X170396777Y-106441777D01*
X170378598Y-106458253D01*
X170358893Y-106472867D01*
X170337849Y-106485480D01*
X170315671Y-106495970D01*
X170292571Y-106504235D01*
X170268773Y-106510196D01*
X170244504Y-106513796D01*
X170220000Y-106515000D01*
X168970000Y-106515000D01*
X168945496Y-106513796D01*
X168921227Y-106510196D01*
X168897429Y-106504235D01*
X168874329Y-106495970D01*
X168852151Y-106485480D01*
X168831107Y-106472867D01*
X168811402Y-106458253D01*
X168793223Y-106441777D01*
X168776747Y-106423598D01*
X168762133Y-106403893D01*
X168749520Y-106382849D01*
X168739030Y-106360671D01*
X168730765Y-106337571D01*
X168724804Y-106313773D01*
X168721204Y-106289504D01*
X168720000Y-106265000D01*
X168720000Y-105340000D01*
X168721204Y-105315496D01*
X168724804Y-105291227D01*
X168730765Y-105267429D01*
X168739030Y-105244329D01*
X168749520Y-105222151D01*
X168762133Y-105201107D01*
X168776747Y-105181402D01*
X168793223Y-105163223D01*
X168811402Y-105146747D01*
X168831107Y-105132133D01*
X168852151Y-105119520D01*
X168874329Y-105109030D01*
X168897429Y-105100765D01*
X168921227Y-105094804D01*
X168945496Y-105091204D01*
X168970000Y-105090000D01*
X170220000Y-105090000D01*
X170244504Y-105091204D01*
X170244504Y-105091204D01*
G37*
D21*
X169595000Y-105802500D03*
D14*
G36*
X170244504Y-102116204D02*
G01*
X170268773Y-102119804D01*
X170292571Y-102125765D01*
X170315671Y-102134030D01*
X170337849Y-102144520D01*
X170358893Y-102157133D01*
X170378598Y-102171747D01*
X170396777Y-102188223D01*
X170413253Y-102206402D01*
X170427867Y-102226107D01*
X170440480Y-102247151D01*
X170450970Y-102269329D01*
X170459235Y-102292429D01*
X170465196Y-102316227D01*
X170468796Y-102340496D01*
X170470000Y-102365000D01*
X170470000Y-103290000D01*
X170468796Y-103314504D01*
X170465196Y-103338773D01*
X170459235Y-103362571D01*
X170450970Y-103385671D01*
X170440480Y-103407849D01*
X170427867Y-103428893D01*
X170413253Y-103448598D01*
X170396777Y-103466777D01*
X170378598Y-103483253D01*
X170358893Y-103497867D01*
X170337849Y-103510480D01*
X170315671Y-103520970D01*
X170292571Y-103529235D01*
X170268773Y-103535196D01*
X170244504Y-103538796D01*
X170220000Y-103540000D01*
X168970000Y-103540000D01*
X168945496Y-103538796D01*
X168921227Y-103535196D01*
X168897429Y-103529235D01*
X168874329Y-103520970D01*
X168852151Y-103510480D01*
X168831107Y-103497867D01*
X168811402Y-103483253D01*
X168793223Y-103466777D01*
X168776747Y-103448598D01*
X168762133Y-103428893D01*
X168749520Y-103407849D01*
X168739030Y-103385671D01*
X168730765Y-103362571D01*
X168724804Y-103338773D01*
X168721204Y-103314504D01*
X168720000Y-103290000D01*
X168720000Y-102365000D01*
X168721204Y-102340496D01*
X168724804Y-102316227D01*
X168730765Y-102292429D01*
X168739030Y-102269329D01*
X168749520Y-102247151D01*
X168762133Y-102226107D01*
X168776747Y-102206402D01*
X168793223Y-102188223D01*
X168811402Y-102171747D01*
X168831107Y-102157133D01*
X168852151Y-102144520D01*
X168874329Y-102134030D01*
X168897429Y-102125765D01*
X168921227Y-102119804D01*
X168945496Y-102116204D01*
X168970000Y-102115000D01*
X170220000Y-102115000D01*
X170244504Y-102116204D01*
X170244504Y-102116204D01*
G37*
D21*
X169595000Y-102827500D03*
D14*
G36*
X178635779Y-110326144D02*
G01*
X178658834Y-110329563D01*
X178681443Y-110335227D01*
X178703387Y-110343079D01*
X178724457Y-110353044D01*
X178744448Y-110365026D01*
X178763168Y-110378910D01*
X178780438Y-110394562D01*
X178796090Y-110411832D01*
X178809974Y-110430552D01*
X178821956Y-110450543D01*
X178831921Y-110471613D01*
X178839773Y-110493557D01*
X178845437Y-110516166D01*
X178848856Y-110539221D01*
X178850000Y-110562500D01*
X178850000Y-111037500D01*
X178848856Y-111060779D01*
X178845437Y-111083834D01*
X178839773Y-111106443D01*
X178831921Y-111128387D01*
X178821956Y-111149457D01*
X178809974Y-111169448D01*
X178796090Y-111188168D01*
X178780438Y-111205438D01*
X178763168Y-111221090D01*
X178744448Y-111234974D01*
X178724457Y-111246956D01*
X178703387Y-111256921D01*
X178681443Y-111264773D01*
X178658834Y-111270437D01*
X178635779Y-111273856D01*
X178612500Y-111275000D01*
X178037500Y-111275000D01*
X178014221Y-111273856D01*
X177991166Y-111270437D01*
X177968557Y-111264773D01*
X177946613Y-111256921D01*
X177925543Y-111246956D01*
X177905552Y-111234974D01*
X177886832Y-111221090D01*
X177869562Y-111205438D01*
X177853910Y-111188168D01*
X177840026Y-111169448D01*
X177828044Y-111149457D01*
X177818079Y-111128387D01*
X177810227Y-111106443D01*
X177804563Y-111083834D01*
X177801144Y-111060779D01*
X177800000Y-111037500D01*
X177800000Y-110562500D01*
X177801144Y-110539221D01*
X177804563Y-110516166D01*
X177810227Y-110493557D01*
X177818079Y-110471613D01*
X177828044Y-110450543D01*
X177840026Y-110430552D01*
X177853910Y-110411832D01*
X177869562Y-110394562D01*
X177886832Y-110378910D01*
X177905552Y-110365026D01*
X177925543Y-110353044D01*
X177946613Y-110343079D01*
X177968557Y-110335227D01*
X177991166Y-110329563D01*
X178014221Y-110326144D01*
X178037500Y-110325000D01*
X178612500Y-110325000D01*
X178635779Y-110326144D01*
X178635779Y-110326144D01*
G37*
D15*
X178325000Y-110800000D03*
D14*
G36*
X180385779Y-110326144D02*
G01*
X180408834Y-110329563D01*
X180431443Y-110335227D01*
X180453387Y-110343079D01*
X180474457Y-110353044D01*
X180494448Y-110365026D01*
X180513168Y-110378910D01*
X180530438Y-110394562D01*
X180546090Y-110411832D01*
X180559974Y-110430552D01*
X180571956Y-110450543D01*
X180581921Y-110471613D01*
X180589773Y-110493557D01*
X180595437Y-110516166D01*
X180598856Y-110539221D01*
X180600000Y-110562500D01*
X180600000Y-111037500D01*
X180598856Y-111060779D01*
X180595437Y-111083834D01*
X180589773Y-111106443D01*
X180581921Y-111128387D01*
X180571956Y-111149457D01*
X180559974Y-111169448D01*
X180546090Y-111188168D01*
X180530438Y-111205438D01*
X180513168Y-111221090D01*
X180494448Y-111234974D01*
X180474457Y-111246956D01*
X180453387Y-111256921D01*
X180431443Y-111264773D01*
X180408834Y-111270437D01*
X180385779Y-111273856D01*
X180362500Y-111275000D01*
X179787500Y-111275000D01*
X179764221Y-111273856D01*
X179741166Y-111270437D01*
X179718557Y-111264773D01*
X179696613Y-111256921D01*
X179675543Y-111246956D01*
X179655552Y-111234974D01*
X179636832Y-111221090D01*
X179619562Y-111205438D01*
X179603910Y-111188168D01*
X179590026Y-111169448D01*
X179578044Y-111149457D01*
X179568079Y-111128387D01*
X179560227Y-111106443D01*
X179554563Y-111083834D01*
X179551144Y-111060779D01*
X179550000Y-111037500D01*
X179550000Y-110562500D01*
X179551144Y-110539221D01*
X179554563Y-110516166D01*
X179560227Y-110493557D01*
X179568079Y-110471613D01*
X179578044Y-110450543D01*
X179590026Y-110430552D01*
X179603910Y-110411832D01*
X179619562Y-110394562D01*
X179636832Y-110378910D01*
X179655552Y-110365026D01*
X179675543Y-110353044D01*
X179696613Y-110343079D01*
X179718557Y-110335227D01*
X179741166Y-110329563D01*
X179764221Y-110326144D01*
X179787500Y-110325000D01*
X180362500Y-110325000D01*
X180385779Y-110326144D01*
X180385779Y-110326144D01*
G37*
D15*
X180075000Y-110800000D03*
D14*
G36*
X168375779Y-97382144D02*
G01*
X168398834Y-97385563D01*
X168421443Y-97391227D01*
X168443387Y-97399079D01*
X168464457Y-97409044D01*
X168484448Y-97421026D01*
X168503168Y-97434910D01*
X168520438Y-97450562D01*
X168536090Y-97467832D01*
X168549974Y-97486552D01*
X168561956Y-97506543D01*
X168571921Y-97527613D01*
X168579773Y-97549557D01*
X168585437Y-97572166D01*
X168588856Y-97595221D01*
X168590000Y-97618500D01*
X168590000Y-98093500D01*
X168588856Y-98116779D01*
X168585437Y-98139834D01*
X168579773Y-98162443D01*
X168571921Y-98184387D01*
X168561956Y-98205457D01*
X168549974Y-98225448D01*
X168536090Y-98244168D01*
X168520438Y-98261438D01*
X168503168Y-98277090D01*
X168484448Y-98290974D01*
X168464457Y-98302956D01*
X168443387Y-98312921D01*
X168421443Y-98320773D01*
X168398834Y-98326437D01*
X168375779Y-98329856D01*
X168352500Y-98331000D01*
X167777500Y-98331000D01*
X167754221Y-98329856D01*
X167731166Y-98326437D01*
X167708557Y-98320773D01*
X167686613Y-98312921D01*
X167665543Y-98302956D01*
X167645552Y-98290974D01*
X167626832Y-98277090D01*
X167609562Y-98261438D01*
X167593910Y-98244168D01*
X167580026Y-98225448D01*
X167568044Y-98205457D01*
X167558079Y-98184387D01*
X167550227Y-98162443D01*
X167544563Y-98139834D01*
X167541144Y-98116779D01*
X167540000Y-98093500D01*
X167540000Y-97618500D01*
X167541144Y-97595221D01*
X167544563Y-97572166D01*
X167550227Y-97549557D01*
X167558079Y-97527613D01*
X167568044Y-97506543D01*
X167580026Y-97486552D01*
X167593910Y-97467832D01*
X167609562Y-97450562D01*
X167626832Y-97434910D01*
X167645552Y-97421026D01*
X167665543Y-97409044D01*
X167686613Y-97399079D01*
X167708557Y-97391227D01*
X167731166Y-97385563D01*
X167754221Y-97382144D01*
X167777500Y-97381000D01*
X168352500Y-97381000D01*
X168375779Y-97382144D01*
X168375779Y-97382144D01*
G37*
D15*
X168065000Y-97856000D03*
D14*
G36*
X170125779Y-97382144D02*
G01*
X170148834Y-97385563D01*
X170171443Y-97391227D01*
X170193387Y-97399079D01*
X170214457Y-97409044D01*
X170234448Y-97421026D01*
X170253168Y-97434910D01*
X170270438Y-97450562D01*
X170286090Y-97467832D01*
X170299974Y-97486552D01*
X170311956Y-97506543D01*
X170321921Y-97527613D01*
X170329773Y-97549557D01*
X170335437Y-97572166D01*
X170338856Y-97595221D01*
X170340000Y-97618500D01*
X170340000Y-98093500D01*
X170338856Y-98116779D01*
X170335437Y-98139834D01*
X170329773Y-98162443D01*
X170321921Y-98184387D01*
X170311956Y-98205457D01*
X170299974Y-98225448D01*
X170286090Y-98244168D01*
X170270438Y-98261438D01*
X170253168Y-98277090D01*
X170234448Y-98290974D01*
X170214457Y-98302956D01*
X170193387Y-98312921D01*
X170171443Y-98320773D01*
X170148834Y-98326437D01*
X170125779Y-98329856D01*
X170102500Y-98331000D01*
X169527500Y-98331000D01*
X169504221Y-98329856D01*
X169481166Y-98326437D01*
X169458557Y-98320773D01*
X169436613Y-98312921D01*
X169415543Y-98302956D01*
X169395552Y-98290974D01*
X169376832Y-98277090D01*
X169359562Y-98261438D01*
X169343910Y-98244168D01*
X169330026Y-98225448D01*
X169318044Y-98205457D01*
X169308079Y-98184387D01*
X169300227Y-98162443D01*
X169294563Y-98139834D01*
X169291144Y-98116779D01*
X169290000Y-98093500D01*
X169290000Y-97618500D01*
X169291144Y-97595221D01*
X169294563Y-97572166D01*
X169300227Y-97549557D01*
X169308079Y-97527613D01*
X169318044Y-97506543D01*
X169330026Y-97486552D01*
X169343910Y-97467832D01*
X169359562Y-97450562D01*
X169376832Y-97434910D01*
X169395552Y-97421026D01*
X169415543Y-97409044D01*
X169436613Y-97399079D01*
X169458557Y-97391227D01*
X169481166Y-97385563D01*
X169504221Y-97382144D01*
X169527500Y-97381000D01*
X170102500Y-97381000D01*
X170125779Y-97382144D01*
X170125779Y-97382144D01*
G37*
D15*
X169815000Y-97856000D03*
D14*
G36*
X183364779Y-107651144D02*
G01*
X183387834Y-107654563D01*
X183410443Y-107660227D01*
X183432387Y-107668079D01*
X183453457Y-107678044D01*
X183473448Y-107690026D01*
X183492168Y-107703910D01*
X183509438Y-107719562D01*
X183525090Y-107736832D01*
X183538974Y-107755552D01*
X183550956Y-107775543D01*
X183560921Y-107796613D01*
X183568773Y-107818557D01*
X183574437Y-107841166D01*
X183577856Y-107864221D01*
X183579000Y-107887500D01*
X183579000Y-108462500D01*
X183577856Y-108485779D01*
X183574437Y-108508834D01*
X183568773Y-108531443D01*
X183560921Y-108553387D01*
X183550956Y-108574457D01*
X183538974Y-108594448D01*
X183525090Y-108613168D01*
X183509438Y-108630438D01*
X183492168Y-108646090D01*
X183473448Y-108659974D01*
X183453457Y-108671956D01*
X183432387Y-108681921D01*
X183410443Y-108689773D01*
X183387834Y-108695437D01*
X183364779Y-108698856D01*
X183341500Y-108700000D01*
X182866500Y-108700000D01*
X182843221Y-108698856D01*
X182820166Y-108695437D01*
X182797557Y-108689773D01*
X182775613Y-108681921D01*
X182754543Y-108671956D01*
X182734552Y-108659974D01*
X182715832Y-108646090D01*
X182698562Y-108630438D01*
X182682910Y-108613168D01*
X182669026Y-108594448D01*
X182657044Y-108574457D01*
X182647079Y-108553387D01*
X182639227Y-108531443D01*
X182633563Y-108508834D01*
X182630144Y-108485779D01*
X182629000Y-108462500D01*
X182629000Y-107887500D01*
X182630144Y-107864221D01*
X182633563Y-107841166D01*
X182639227Y-107818557D01*
X182647079Y-107796613D01*
X182657044Y-107775543D01*
X182669026Y-107755552D01*
X182682910Y-107736832D01*
X182698562Y-107719562D01*
X182715832Y-107703910D01*
X182734552Y-107690026D01*
X182754543Y-107678044D01*
X182775613Y-107668079D01*
X182797557Y-107660227D01*
X182820166Y-107654563D01*
X182843221Y-107651144D01*
X182866500Y-107650000D01*
X183341500Y-107650000D01*
X183364779Y-107651144D01*
X183364779Y-107651144D01*
G37*
D15*
X183104000Y-108175000D03*
D14*
G36*
X183364779Y-105901144D02*
G01*
X183387834Y-105904563D01*
X183410443Y-105910227D01*
X183432387Y-105918079D01*
X183453457Y-105928044D01*
X183473448Y-105940026D01*
X183492168Y-105953910D01*
X183509438Y-105969562D01*
X183525090Y-105986832D01*
X183538974Y-106005552D01*
X183550956Y-106025543D01*
X183560921Y-106046613D01*
X183568773Y-106068557D01*
X183574437Y-106091166D01*
X183577856Y-106114221D01*
X183579000Y-106137500D01*
X183579000Y-106712500D01*
X183577856Y-106735779D01*
X183574437Y-106758834D01*
X183568773Y-106781443D01*
X183560921Y-106803387D01*
X183550956Y-106824457D01*
X183538974Y-106844448D01*
X183525090Y-106863168D01*
X183509438Y-106880438D01*
X183492168Y-106896090D01*
X183473448Y-106909974D01*
X183453457Y-106921956D01*
X183432387Y-106931921D01*
X183410443Y-106939773D01*
X183387834Y-106945437D01*
X183364779Y-106948856D01*
X183341500Y-106950000D01*
X182866500Y-106950000D01*
X182843221Y-106948856D01*
X182820166Y-106945437D01*
X182797557Y-106939773D01*
X182775613Y-106931921D01*
X182754543Y-106921956D01*
X182734552Y-106909974D01*
X182715832Y-106896090D01*
X182698562Y-106880438D01*
X182682910Y-106863168D01*
X182669026Y-106844448D01*
X182657044Y-106824457D01*
X182647079Y-106803387D01*
X182639227Y-106781443D01*
X182633563Y-106758834D01*
X182630144Y-106735779D01*
X182629000Y-106712500D01*
X182629000Y-106137500D01*
X182630144Y-106114221D01*
X182633563Y-106091166D01*
X182639227Y-106068557D01*
X182647079Y-106046613D01*
X182657044Y-106025543D01*
X182669026Y-106005552D01*
X182682910Y-105986832D01*
X182698562Y-105969562D01*
X182715832Y-105953910D01*
X182734552Y-105940026D01*
X182754543Y-105928044D01*
X182775613Y-105918079D01*
X182797557Y-105910227D01*
X182820166Y-105904563D01*
X182843221Y-105901144D01*
X182866500Y-105900000D01*
X183341500Y-105900000D01*
X183364779Y-105901144D01*
X183364779Y-105901144D01*
G37*
D15*
X183104000Y-106425000D03*
D14*
G36*
X178578779Y-105362144D02*
G01*
X178601834Y-105365563D01*
X178624443Y-105371227D01*
X178646387Y-105379079D01*
X178667457Y-105389044D01*
X178687448Y-105401026D01*
X178706168Y-105414910D01*
X178723438Y-105430562D01*
X178739090Y-105447832D01*
X178752974Y-105466552D01*
X178764956Y-105486543D01*
X178774921Y-105507613D01*
X178782773Y-105529557D01*
X178788437Y-105552166D01*
X178791856Y-105575221D01*
X178793000Y-105598500D01*
X178793000Y-106173500D01*
X178791856Y-106196779D01*
X178788437Y-106219834D01*
X178782773Y-106242443D01*
X178774921Y-106264387D01*
X178764956Y-106285457D01*
X178752974Y-106305448D01*
X178739090Y-106324168D01*
X178723438Y-106341438D01*
X178706168Y-106357090D01*
X178687448Y-106370974D01*
X178667457Y-106382956D01*
X178646387Y-106392921D01*
X178624443Y-106400773D01*
X178601834Y-106406437D01*
X178578779Y-106409856D01*
X178555500Y-106411000D01*
X178080500Y-106411000D01*
X178057221Y-106409856D01*
X178034166Y-106406437D01*
X178011557Y-106400773D01*
X177989613Y-106392921D01*
X177968543Y-106382956D01*
X177948552Y-106370974D01*
X177929832Y-106357090D01*
X177912562Y-106341438D01*
X177896910Y-106324168D01*
X177883026Y-106305448D01*
X177871044Y-106285457D01*
X177861079Y-106264387D01*
X177853227Y-106242443D01*
X177847563Y-106219834D01*
X177844144Y-106196779D01*
X177843000Y-106173500D01*
X177843000Y-105598500D01*
X177844144Y-105575221D01*
X177847563Y-105552166D01*
X177853227Y-105529557D01*
X177861079Y-105507613D01*
X177871044Y-105486543D01*
X177883026Y-105466552D01*
X177896910Y-105447832D01*
X177912562Y-105430562D01*
X177929832Y-105414910D01*
X177948552Y-105401026D01*
X177968543Y-105389044D01*
X177989613Y-105379079D01*
X178011557Y-105371227D01*
X178034166Y-105365563D01*
X178057221Y-105362144D01*
X178080500Y-105361000D01*
X178555500Y-105361000D01*
X178578779Y-105362144D01*
X178578779Y-105362144D01*
G37*
D15*
X178318000Y-105886000D03*
D14*
G36*
X178578779Y-107112144D02*
G01*
X178601834Y-107115563D01*
X178624443Y-107121227D01*
X178646387Y-107129079D01*
X178667457Y-107139044D01*
X178687448Y-107151026D01*
X178706168Y-107164910D01*
X178723438Y-107180562D01*
X178739090Y-107197832D01*
X178752974Y-107216552D01*
X178764956Y-107236543D01*
X178774921Y-107257613D01*
X178782773Y-107279557D01*
X178788437Y-107302166D01*
X178791856Y-107325221D01*
X178793000Y-107348500D01*
X178793000Y-107923500D01*
X178791856Y-107946779D01*
X178788437Y-107969834D01*
X178782773Y-107992443D01*
X178774921Y-108014387D01*
X178764956Y-108035457D01*
X178752974Y-108055448D01*
X178739090Y-108074168D01*
X178723438Y-108091438D01*
X178706168Y-108107090D01*
X178687448Y-108120974D01*
X178667457Y-108132956D01*
X178646387Y-108142921D01*
X178624443Y-108150773D01*
X178601834Y-108156437D01*
X178578779Y-108159856D01*
X178555500Y-108161000D01*
X178080500Y-108161000D01*
X178057221Y-108159856D01*
X178034166Y-108156437D01*
X178011557Y-108150773D01*
X177989613Y-108142921D01*
X177968543Y-108132956D01*
X177948552Y-108120974D01*
X177929832Y-108107090D01*
X177912562Y-108091438D01*
X177896910Y-108074168D01*
X177883026Y-108055448D01*
X177871044Y-108035457D01*
X177861079Y-108014387D01*
X177853227Y-107992443D01*
X177847563Y-107969834D01*
X177844144Y-107946779D01*
X177843000Y-107923500D01*
X177843000Y-107348500D01*
X177844144Y-107325221D01*
X177847563Y-107302166D01*
X177853227Y-107279557D01*
X177861079Y-107257613D01*
X177871044Y-107236543D01*
X177883026Y-107216552D01*
X177896910Y-107197832D01*
X177912562Y-107180562D01*
X177929832Y-107164910D01*
X177948552Y-107151026D01*
X177968543Y-107139044D01*
X177989613Y-107129079D01*
X178011557Y-107121227D01*
X178034166Y-107115563D01*
X178057221Y-107112144D01*
X178080500Y-107111000D01*
X178555500Y-107111000D01*
X178578779Y-107112144D01*
X178578779Y-107112144D01*
G37*
D15*
X178318000Y-107636000D03*
D14*
G36*
X187085779Y-94726144D02*
G01*
X187108834Y-94729563D01*
X187131443Y-94735227D01*
X187153387Y-94743079D01*
X187174457Y-94753044D01*
X187194448Y-94765026D01*
X187213168Y-94778910D01*
X187230438Y-94794562D01*
X187246090Y-94811832D01*
X187259974Y-94830552D01*
X187271956Y-94850543D01*
X187281921Y-94871613D01*
X187289773Y-94893557D01*
X187295437Y-94916166D01*
X187298856Y-94939221D01*
X187300000Y-94962500D01*
X187300000Y-95437500D01*
X187298856Y-95460779D01*
X187295437Y-95483834D01*
X187289773Y-95506443D01*
X187281921Y-95528387D01*
X187271956Y-95549457D01*
X187259974Y-95569448D01*
X187246090Y-95588168D01*
X187230438Y-95605438D01*
X187213168Y-95621090D01*
X187194448Y-95634974D01*
X187174457Y-95646956D01*
X187153387Y-95656921D01*
X187131443Y-95664773D01*
X187108834Y-95670437D01*
X187085779Y-95673856D01*
X187062500Y-95675000D01*
X186487500Y-95675000D01*
X186464221Y-95673856D01*
X186441166Y-95670437D01*
X186418557Y-95664773D01*
X186396613Y-95656921D01*
X186375543Y-95646956D01*
X186355552Y-95634974D01*
X186336832Y-95621090D01*
X186319562Y-95605438D01*
X186303910Y-95588168D01*
X186290026Y-95569448D01*
X186278044Y-95549457D01*
X186268079Y-95528387D01*
X186260227Y-95506443D01*
X186254563Y-95483834D01*
X186251144Y-95460779D01*
X186250000Y-95437500D01*
X186250000Y-94962500D01*
X186251144Y-94939221D01*
X186254563Y-94916166D01*
X186260227Y-94893557D01*
X186268079Y-94871613D01*
X186278044Y-94850543D01*
X186290026Y-94830552D01*
X186303910Y-94811832D01*
X186319562Y-94794562D01*
X186336832Y-94778910D01*
X186355552Y-94765026D01*
X186375543Y-94753044D01*
X186396613Y-94743079D01*
X186418557Y-94735227D01*
X186441166Y-94729563D01*
X186464221Y-94726144D01*
X186487500Y-94725000D01*
X187062500Y-94725000D01*
X187085779Y-94726144D01*
X187085779Y-94726144D01*
G37*
D15*
X186775000Y-95200000D03*
D14*
G36*
X185335779Y-94726144D02*
G01*
X185358834Y-94729563D01*
X185381443Y-94735227D01*
X185403387Y-94743079D01*
X185424457Y-94753044D01*
X185444448Y-94765026D01*
X185463168Y-94778910D01*
X185480438Y-94794562D01*
X185496090Y-94811832D01*
X185509974Y-94830552D01*
X185521956Y-94850543D01*
X185531921Y-94871613D01*
X185539773Y-94893557D01*
X185545437Y-94916166D01*
X185548856Y-94939221D01*
X185550000Y-94962500D01*
X185550000Y-95437500D01*
X185548856Y-95460779D01*
X185545437Y-95483834D01*
X185539773Y-95506443D01*
X185531921Y-95528387D01*
X185521956Y-95549457D01*
X185509974Y-95569448D01*
X185496090Y-95588168D01*
X185480438Y-95605438D01*
X185463168Y-95621090D01*
X185444448Y-95634974D01*
X185424457Y-95646956D01*
X185403387Y-95656921D01*
X185381443Y-95664773D01*
X185358834Y-95670437D01*
X185335779Y-95673856D01*
X185312500Y-95675000D01*
X184737500Y-95675000D01*
X184714221Y-95673856D01*
X184691166Y-95670437D01*
X184668557Y-95664773D01*
X184646613Y-95656921D01*
X184625543Y-95646956D01*
X184605552Y-95634974D01*
X184586832Y-95621090D01*
X184569562Y-95605438D01*
X184553910Y-95588168D01*
X184540026Y-95569448D01*
X184528044Y-95549457D01*
X184518079Y-95528387D01*
X184510227Y-95506443D01*
X184504563Y-95483834D01*
X184501144Y-95460779D01*
X184500000Y-95437500D01*
X184500000Y-94962500D01*
X184501144Y-94939221D01*
X184504563Y-94916166D01*
X184510227Y-94893557D01*
X184518079Y-94871613D01*
X184528044Y-94850543D01*
X184540026Y-94830552D01*
X184553910Y-94811832D01*
X184569562Y-94794562D01*
X184586832Y-94778910D01*
X184605552Y-94765026D01*
X184625543Y-94753044D01*
X184646613Y-94743079D01*
X184668557Y-94735227D01*
X184691166Y-94729563D01*
X184714221Y-94726144D01*
X184737500Y-94725000D01*
X185312500Y-94725000D01*
X185335779Y-94726144D01*
X185335779Y-94726144D01*
G37*
D15*
X185025000Y-95200000D03*
D14*
G36*
X187085779Y-93213144D02*
G01*
X187108834Y-93216563D01*
X187131443Y-93222227D01*
X187153387Y-93230079D01*
X187174457Y-93240044D01*
X187194448Y-93252026D01*
X187213168Y-93265910D01*
X187230438Y-93281562D01*
X187246090Y-93298832D01*
X187259974Y-93317552D01*
X187271956Y-93337543D01*
X187281921Y-93358613D01*
X187289773Y-93380557D01*
X187295437Y-93403166D01*
X187298856Y-93426221D01*
X187300000Y-93449500D01*
X187300000Y-93924500D01*
X187298856Y-93947779D01*
X187295437Y-93970834D01*
X187289773Y-93993443D01*
X187281921Y-94015387D01*
X187271956Y-94036457D01*
X187259974Y-94056448D01*
X187246090Y-94075168D01*
X187230438Y-94092438D01*
X187213168Y-94108090D01*
X187194448Y-94121974D01*
X187174457Y-94133956D01*
X187153387Y-94143921D01*
X187131443Y-94151773D01*
X187108834Y-94157437D01*
X187085779Y-94160856D01*
X187062500Y-94162000D01*
X186487500Y-94162000D01*
X186464221Y-94160856D01*
X186441166Y-94157437D01*
X186418557Y-94151773D01*
X186396613Y-94143921D01*
X186375543Y-94133956D01*
X186355552Y-94121974D01*
X186336832Y-94108090D01*
X186319562Y-94092438D01*
X186303910Y-94075168D01*
X186290026Y-94056448D01*
X186278044Y-94036457D01*
X186268079Y-94015387D01*
X186260227Y-93993443D01*
X186254563Y-93970834D01*
X186251144Y-93947779D01*
X186250000Y-93924500D01*
X186250000Y-93449500D01*
X186251144Y-93426221D01*
X186254563Y-93403166D01*
X186260227Y-93380557D01*
X186268079Y-93358613D01*
X186278044Y-93337543D01*
X186290026Y-93317552D01*
X186303910Y-93298832D01*
X186319562Y-93281562D01*
X186336832Y-93265910D01*
X186355552Y-93252026D01*
X186375543Y-93240044D01*
X186396613Y-93230079D01*
X186418557Y-93222227D01*
X186441166Y-93216563D01*
X186464221Y-93213144D01*
X186487500Y-93212000D01*
X187062500Y-93212000D01*
X187085779Y-93213144D01*
X187085779Y-93213144D01*
G37*
D15*
X186775000Y-93687000D03*
D14*
G36*
X185335779Y-93213144D02*
G01*
X185358834Y-93216563D01*
X185381443Y-93222227D01*
X185403387Y-93230079D01*
X185424457Y-93240044D01*
X185444448Y-93252026D01*
X185463168Y-93265910D01*
X185480438Y-93281562D01*
X185496090Y-93298832D01*
X185509974Y-93317552D01*
X185521956Y-93337543D01*
X185531921Y-93358613D01*
X185539773Y-93380557D01*
X185545437Y-93403166D01*
X185548856Y-93426221D01*
X185550000Y-93449500D01*
X185550000Y-93924500D01*
X185548856Y-93947779D01*
X185545437Y-93970834D01*
X185539773Y-93993443D01*
X185531921Y-94015387D01*
X185521956Y-94036457D01*
X185509974Y-94056448D01*
X185496090Y-94075168D01*
X185480438Y-94092438D01*
X185463168Y-94108090D01*
X185444448Y-94121974D01*
X185424457Y-94133956D01*
X185403387Y-94143921D01*
X185381443Y-94151773D01*
X185358834Y-94157437D01*
X185335779Y-94160856D01*
X185312500Y-94162000D01*
X184737500Y-94162000D01*
X184714221Y-94160856D01*
X184691166Y-94157437D01*
X184668557Y-94151773D01*
X184646613Y-94143921D01*
X184625543Y-94133956D01*
X184605552Y-94121974D01*
X184586832Y-94108090D01*
X184569562Y-94092438D01*
X184553910Y-94075168D01*
X184540026Y-94056448D01*
X184528044Y-94036457D01*
X184518079Y-94015387D01*
X184510227Y-93993443D01*
X184504563Y-93970834D01*
X184501144Y-93947779D01*
X184500000Y-93924500D01*
X184500000Y-93449500D01*
X184501144Y-93426221D01*
X184504563Y-93403166D01*
X184510227Y-93380557D01*
X184518079Y-93358613D01*
X184528044Y-93337543D01*
X184540026Y-93317552D01*
X184553910Y-93298832D01*
X184569562Y-93281562D01*
X184586832Y-93265910D01*
X184605552Y-93252026D01*
X184625543Y-93240044D01*
X184646613Y-93230079D01*
X184668557Y-93222227D01*
X184691166Y-93216563D01*
X184714221Y-93213144D01*
X184737500Y-93212000D01*
X185312500Y-93212000D01*
X185335779Y-93213144D01*
X185335779Y-93213144D01*
G37*
D15*
X185025000Y-93687000D03*
D14*
G36*
X187774504Y-90868204D02*
G01*
X187798773Y-90871804D01*
X187822571Y-90877765D01*
X187845671Y-90886030D01*
X187867849Y-90896520D01*
X187888893Y-90909133D01*
X187908598Y-90923747D01*
X187926777Y-90940223D01*
X187943253Y-90958402D01*
X187957867Y-90978107D01*
X187970480Y-90999151D01*
X187980970Y-91021329D01*
X187989235Y-91044429D01*
X187995196Y-91068227D01*
X187998796Y-91092496D01*
X188000000Y-91117000D01*
X188000000Y-92367000D01*
X187998796Y-92391504D01*
X187995196Y-92415773D01*
X187989235Y-92439571D01*
X187980970Y-92462671D01*
X187970480Y-92484849D01*
X187957867Y-92505893D01*
X187943253Y-92525598D01*
X187926777Y-92543777D01*
X187908598Y-92560253D01*
X187888893Y-92574867D01*
X187867849Y-92587480D01*
X187845671Y-92597970D01*
X187822571Y-92606235D01*
X187798773Y-92612196D01*
X187774504Y-92615796D01*
X187750000Y-92617000D01*
X186825000Y-92617000D01*
X186800496Y-92615796D01*
X186776227Y-92612196D01*
X186752429Y-92606235D01*
X186729329Y-92597970D01*
X186707151Y-92587480D01*
X186686107Y-92574867D01*
X186666402Y-92560253D01*
X186648223Y-92543777D01*
X186631747Y-92525598D01*
X186617133Y-92505893D01*
X186604520Y-92484849D01*
X186594030Y-92462671D01*
X186585765Y-92439571D01*
X186579804Y-92415773D01*
X186576204Y-92391504D01*
X186575000Y-92367000D01*
X186575000Y-91117000D01*
X186576204Y-91092496D01*
X186579804Y-91068227D01*
X186585765Y-91044429D01*
X186594030Y-91021329D01*
X186604520Y-90999151D01*
X186617133Y-90978107D01*
X186631747Y-90958402D01*
X186648223Y-90940223D01*
X186666402Y-90923747D01*
X186686107Y-90909133D01*
X186707151Y-90896520D01*
X186729329Y-90886030D01*
X186752429Y-90877765D01*
X186776227Y-90871804D01*
X186800496Y-90868204D01*
X186825000Y-90867000D01*
X187750000Y-90867000D01*
X187774504Y-90868204D01*
X187774504Y-90868204D01*
G37*
D21*
X187287500Y-91742000D03*
D14*
G36*
X184799504Y-90868204D02*
G01*
X184823773Y-90871804D01*
X184847571Y-90877765D01*
X184870671Y-90886030D01*
X184892849Y-90896520D01*
X184913893Y-90909133D01*
X184933598Y-90923747D01*
X184951777Y-90940223D01*
X184968253Y-90958402D01*
X184982867Y-90978107D01*
X184995480Y-90999151D01*
X185005970Y-91021329D01*
X185014235Y-91044429D01*
X185020196Y-91068227D01*
X185023796Y-91092496D01*
X185025000Y-91117000D01*
X185025000Y-92367000D01*
X185023796Y-92391504D01*
X185020196Y-92415773D01*
X185014235Y-92439571D01*
X185005970Y-92462671D01*
X184995480Y-92484849D01*
X184982867Y-92505893D01*
X184968253Y-92525598D01*
X184951777Y-92543777D01*
X184933598Y-92560253D01*
X184913893Y-92574867D01*
X184892849Y-92587480D01*
X184870671Y-92597970D01*
X184847571Y-92606235D01*
X184823773Y-92612196D01*
X184799504Y-92615796D01*
X184775000Y-92617000D01*
X183850000Y-92617000D01*
X183825496Y-92615796D01*
X183801227Y-92612196D01*
X183777429Y-92606235D01*
X183754329Y-92597970D01*
X183732151Y-92587480D01*
X183711107Y-92574867D01*
X183691402Y-92560253D01*
X183673223Y-92543777D01*
X183656747Y-92525598D01*
X183642133Y-92505893D01*
X183629520Y-92484849D01*
X183619030Y-92462671D01*
X183610765Y-92439571D01*
X183604804Y-92415773D01*
X183601204Y-92391504D01*
X183600000Y-92367000D01*
X183600000Y-91117000D01*
X183601204Y-91092496D01*
X183604804Y-91068227D01*
X183610765Y-91044429D01*
X183619030Y-91021329D01*
X183629520Y-90999151D01*
X183642133Y-90978107D01*
X183656747Y-90958402D01*
X183673223Y-90940223D01*
X183691402Y-90923747D01*
X183711107Y-90909133D01*
X183732151Y-90896520D01*
X183754329Y-90886030D01*
X183777429Y-90877765D01*
X183801227Y-90871804D01*
X183825496Y-90868204D01*
X183850000Y-90867000D01*
X184775000Y-90867000D01*
X184799504Y-90868204D01*
X184799504Y-90868204D01*
G37*
D21*
X184312500Y-91742000D03*
D14*
G36*
X163499504Y-87926204D02*
G01*
X163523773Y-87929804D01*
X163547571Y-87935765D01*
X163570671Y-87944030D01*
X163592849Y-87954520D01*
X163613893Y-87967133D01*
X163633598Y-87981747D01*
X163651777Y-87998223D01*
X163668253Y-88016402D01*
X163682867Y-88036107D01*
X163695480Y-88057151D01*
X163705970Y-88079329D01*
X163714235Y-88102429D01*
X163720196Y-88126227D01*
X163723796Y-88150496D01*
X163725000Y-88175000D01*
X163725000Y-89425000D01*
X163723796Y-89449504D01*
X163720196Y-89473773D01*
X163714235Y-89497571D01*
X163705970Y-89520671D01*
X163695480Y-89542849D01*
X163682867Y-89563893D01*
X163668253Y-89583598D01*
X163651777Y-89601777D01*
X163633598Y-89618253D01*
X163613893Y-89632867D01*
X163592849Y-89645480D01*
X163570671Y-89655970D01*
X163547571Y-89664235D01*
X163523773Y-89670196D01*
X163499504Y-89673796D01*
X163475000Y-89675000D01*
X162550000Y-89675000D01*
X162525496Y-89673796D01*
X162501227Y-89670196D01*
X162477429Y-89664235D01*
X162454329Y-89655970D01*
X162432151Y-89645480D01*
X162411107Y-89632867D01*
X162391402Y-89618253D01*
X162373223Y-89601777D01*
X162356747Y-89583598D01*
X162342133Y-89563893D01*
X162329520Y-89542849D01*
X162319030Y-89520671D01*
X162310765Y-89497571D01*
X162304804Y-89473773D01*
X162301204Y-89449504D01*
X162300000Y-89425000D01*
X162300000Y-88175000D01*
X162301204Y-88150496D01*
X162304804Y-88126227D01*
X162310765Y-88102429D01*
X162319030Y-88079329D01*
X162329520Y-88057151D01*
X162342133Y-88036107D01*
X162356747Y-88016402D01*
X162373223Y-87998223D01*
X162391402Y-87981747D01*
X162411107Y-87967133D01*
X162432151Y-87954520D01*
X162454329Y-87944030D01*
X162477429Y-87935765D01*
X162501227Y-87929804D01*
X162525496Y-87926204D01*
X162550000Y-87925000D01*
X163475000Y-87925000D01*
X163499504Y-87926204D01*
X163499504Y-87926204D01*
G37*
D21*
X163012500Y-88800000D03*
D14*
G36*
X166474504Y-87926204D02*
G01*
X166498773Y-87929804D01*
X166522571Y-87935765D01*
X166545671Y-87944030D01*
X166567849Y-87954520D01*
X166588893Y-87967133D01*
X166608598Y-87981747D01*
X166626777Y-87998223D01*
X166643253Y-88016402D01*
X166657867Y-88036107D01*
X166670480Y-88057151D01*
X166680970Y-88079329D01*
X166689235Y-88102429D01*
X166695196Y-88126227D01*
X166698796Y-88150496D01*
X166700000Y-88175000D01*
X166700000Y-89425000D01*
X166698796Y-89449504D01*
X166695196Y-89473773D01*
X166689235Y-89497571D01*
X166680970Y-89520671D01*
X166670480Y-89542849D01*
X166657867Y-89563893D01*
X166643253Y-89583598D01*
X166626777Y-89601777D01*
X166608598Y-89618253D01*
X166588893Y-89632867D01*
X166567849Y-89645480D01*
X166545671Y-89655970D01*
X166522571Y-89664235D01*
X166498773Y-89670196D01*
X166474504Y-89673796D01*
X166450000Y-89675000D01*
X165525000Y-89675000D01*
X165500496Y-89673796D01*
X165476227Y-89670196D01*
X165452429Y-89664235D01*
X165429329Y-89655970D01*
X165407151Y-89645480D01*
X165386107Y-89632867D01*
X165366402Y-89618253D01*
X165348223Y-89601777D01*
X165331747Y-89583598D01*
X165317133Y-89563893D01*
X165304520Y-89542849D01*
X165294030Y-89520671D01*
X165285765Y-89497571D01*
X165279804Y-89473773D01*
X165276204Y-89449504D01*
X165275000Y-89425000D01*
X165275000Y-88175000D01*
X165276204Y-88150496D01*
X165279804Y-88126227D01*
X165285765Y-88102429D01*
X165294030Y-88079329D01*
X165304520Y-88057151D01*
X165317133Y-88036107D01*
X165331747Y-88016402D01*
X165348223Y-87998223D01*
X165366402Y-87981747D01*
X165386107Y-87967133D01*
X165407151Y-87954520D01*
X165429329Y-87944030D01*
X165452429Y-87935765D01*
X165476227Y-87929804D01*
X165500496Y-87926204D01*
X165525000Y-87925000D01*
X166450000Y-87925000D01*
X166474504Y-87926204D01*
X166474504Y-87926204D01*
G37*
D21*
X165987500Y-88800000D03*
D14*
G36*
X187976779Y-100889144D02*
G01*
X187999834Y-100892563D01*
X188022443Y-100898227D01*
X188044387Y-100906079D01*
X188065457Y-100916044D01*
X188085448Y-100928026D01*
X188104168Y-100941910D01*
X188121438Y-100957562D01*
X188137090Y-100974832D01*
X188150974Y-100993552D01*
X188162956Y-101013543D01*
X188172921Y-101034613D01*
X188180773Y-101056557D01*
X188186437Y-101079166D01*
X188189856Y-101102221D01*
X188191000Y-101125500D01*
X188191000Y-101700500D01*
X188189856Y-101723779D01*
X188186437Y-101746834D01*
X188180773Y-101769443D01*
X188172921Y-101791387D01*
X188162956Y-101812457D01*
X188150974Y-101832448D01*
X188137090Y-101851168D01*
X188121438Y-101868438D01*
X188104168Y-101884090D01*
X188085448Y-101897974D01*
X188065457Y-101909956D01*
X188044387Y-101919921D01*
X188022443Y-101927773D01*
X187999834Y-101933437D01*
X187976779Y-101936856D01*
X187953500Y-101938000D01*
X187478500Y-101938000D01*
X187455221Y-101936856D01*
X187432166Y-101933437D01*
X187409557Y-101927773D01*
X187387613Y-101919921D01*
X187366543Y-101909956D01*
X187346552Y-101897974D01*
X187327832Y-101884090D01*
X187310562Y-101868438D01*
X187294910Y-101851168D01*
X187281026Y-101832448D01*
X187269044Y-101812457D01*
X187259079Y-101791387D01*
X187251227Y-101769443D01*
X187245563Y-101746834D01*
X187242144Y-101723779D01*
X187241000Y-101700500D01*
X187241000Y-101125500D01*
X187242144Y-101102221D01*
X187245563Y-101079166D01*
X187251227Y-101056557D01*
X187259079Y-101034613D01*
X187269044Y-101013543D01*
X187281026Y-100993552D01*
X187294910Y-100974832D01*
X187310562Y-100957562D01*
X187327832Y-100941910D01*
X187346552Y-100928026D01*
X187366543Y-100916044D01*
X187387613Y-100906079D01*
X187409557Y-100898227D01*
X187432166Y-100892563D01*
X187455221Y-100889144D01*
X187478500Y-100888000D01*
X187953500Y-100888000D01*
X187976779Y-100889144D01*
X187976779Y-100889144D01*
G37*
D15*
X187716000Y-101413000D03*
D14*
G36*
X187976779Y-99139144D02*
G01*
X187999834Y-99142563D01*
X188022443Y-99148227D01*
X188044387Y-99156079D01*
X188065457Y-99166044D01*
X188085448Y-99178026D01*
X188104168Y-99191910D01*
X188121438Y-99207562D01*
X188137090Y-99224832D01*
X188150974Y-99243552D01*
X188162956Y-99263543D01*
X188172921Y-99284613D01*
X188180773Y-99306557D01*
X188186437Y-99329166D01*
X188189856Y-99352221D01*
X188191000Y-99375500D01*
X188191000Y-99950500D01*
X188189856Y-99973779D01*
X188186437Y-99996834D01*
X188180773Y-100019443D01*
X188172921Y-100041387D01*
X188162956Y-100062457D01*
X188150974Y-100082448D01*
X188137090Y-100101168D01*
X188121438Y-100118438D01*
X188104168Y-100134090D01*
X188085448Y-100147974D01*
X188065457Y-100159956D01*
X188044387Y-100169921D01*
X188022443Y-100177773D01*
X187999834Y-100183437D01*
X187976779Y-100186856D01*
X187953500Y-100188000D01*
X187478500Y-100188000D01*
X187455221Y-100186856D01*
X187432166Y-100183437D01*
X187409557Y-100177773D01*
X187387613Y-100169921D01*
X187366543Y-100159956D01*
X187346552Y-100147974D01*
X187327832Y-100134090D01*
X187310562Y-100118438D01*
X187294910Y-100101168D01*
X187281026Y-100082448D01*
X187269044Y-100062457D01*
X187259079Y-100041387D01*
X187251227Y-100019443D01*
X187245563Y-99996834D01*
X187242144Y-99973779D01*
X187241000Y-99950500D01*
X187241000Y-99375500D01*
X187242144Y-99352221D01*
X187245563Y-99329166D01*
X187251227Y-99306557D01*
X187259079Y-99284613D01*
X187269044Y-99263543D01*
X187281026Y-99243552D01*
X187294910Y-99224832D01*
X187310562Y-99207562D01*
X187327832Y-99191910D01*
X187346552Y-99178026D01*
X187366543Y-99166044D01*
X187387613Y-99156079D01*
X187409557Y-99148227D01*
X187432166Y-99142563D01*
X187455221Y-99139144D01*
X187478500Y-99138000D01*
X187953500Y-99138000D01*
X187976779Y-99139144D01*
X187976779Y-99139144D01*
G37*
D15*
X187716000Y-99663000D03*
D14*
G36*
X147515779Y-91722144D02*
G01*
X147538834Y-91725563D01*
X147561443Y-91731227D01*
X147583387Y-91739079D01*
X147604457Y-91749044D01*
X147624448Y-91761026D01*
X147643168Y-91774910D01*
X147660438Y-91790562D01*
X147676090Y-91807832D01*
X147689974Y-91826552D01*
X147701956Y-91846543D01*
X147711921Y-91867613D01*
X147719773Y-91889557D01*
X147725437Y-91912166D01*
X147728856Y-91935221D01*
X147730000Y-91958500D01*
X147730000Y-92433500D01*
X147728856Y-92456779D01*
X147725437Y-92479834D01*
X147719773Y-92502443D01*
X147711921Y-92524387D01*
X147701956Y-92545457D01*
X147689974Y-92565448D01*
X147676090Y-92584168D01*
X147660438Y-92601438D01*
X147643168Y-92617090D01*
X147624448Y-92630974D01*
X147604457Y-92642956D01*
X147583387Y-92652921D01*
X147561443Y-92660773D01*
X147538834Y-92666437D01*
X147515779Y-92669856D01*
X147492500Y-92671000D01*
X146917500Y-92671000D01*
X146894221Y-92669856D01*
X146871166Y-92666437D01*
X146848557Y-92660773D01*
X146826613Y-92652921D01*
X146805543Y-92642956D01*
X146785552Y-92630974D01*
X146766832Y-92617090D01*
X146749562Y-92601438D01*
X146733910Y-92584168D01*
X146720026Y-92565448D01*
X146708044Y-92545457D01*
X146698079Y-92524387D01*
X146690227Y-92502443D01*
X146684563Y-92479834D01*
X146681144Y-92456779D01*
X146680000Y-92433500D01*
X146680000Y-91958500D01*
X146681144Y-91935221D01*
X146684563Y-91912166D01*
X146690227Y-91889557D01*
X146698079Y-91867613D01*
X146708044Y-91846543D01*
X146720026Y-91826552D01*
X146733910Y-91807832D01*
X146749562Y-91790562D01*
X146766832Y-91774910D01*
X146785552Y-91761026D01*
X146805543Y-91749044D01*
X146826613Y-91739079D01*
X146848557Y-91731227D01*
X146871166Y-91725563D01*
X146894221Y-91722144D01*
X146917500Y-91721000D01*
X147492500Y-91721000D01*
X147515779Y-91722144D01*
X147515779Y-91722144D01*
G37*
D15*
X147205000Y-92196000D03*
D14*
G36*
X149265779Y-91722144D02*
G01*
X149288834Y-91725563D01*
X149311443Y-91731227D01*
X149333387Y-91739079D01*
X149354457Y-91749044D01*
X149374448Y-91761026D01*
X149393168Y-91774910D01*
X149410438Y-91790562D01*
X149426090Y-91807832D01*
X149439974Y-91826552D01*
X149451956Y-91846543D01*
X149461921Y-91867613D01*
X149469773Y-91889557D01*
X149475437Y-91912166D01*
X149478856Y-91935221D01*
X149480000Y-91958500D01*
X149480000Y-92433500D01*
X149478856Y-92456779D01*
X149475437Y-92479834D01*
X149469773Y-92502443D01*
X149461921Y-92524387D01*
X149451956Y-92545457D01*
X149439974Y-92565448D01*
X149426090Y-92584168D01*
X149410438Y-92601438D01*
X149393168Y-92617090D01*
X149374448Y-92630974D01*
X149354457Y-92642956D01*
X149333387Y-92652921D01*
X149311443Y-92660773D01*
X149288834Y-92666437D01*
X149265779Y-92669856D01*
X149242500Y-92671000D01*
X148667500Y-92671000D01*
X148644221Y-92669856D01*
X148621166Y-92666437D01*
X148598557Y-92660773D01*
X148576613Y-92652921D01*
X148555543Y-92642956D01*
X148535552Y-92630974D01*
X148516832Y-92617090D01*
X148499562Y-92601438D01*
X148483910Y-92584168D01*
X148470026Y-92565448D01*
X148458044Y-92545457D01*
X148448079Y-92524387D01*
X148440227Y-92502443D01*
X148434563Y-92479834D01*
X148431144Y-92456779D01*
X148430000Y-92433500D01*
X148430000Y-91958500D01*
X148431144Y-91935221D01*
X148434563Y-91912166D01*
X148440227Y-91889557D01*
X148448079Y-91867613D01*
X148458044Y-91846543D01*
X148470026Y-91826552D01*
X148483910Y-91807832D01*
X148499562Y-91790562D01*
X148516832Y-91774910D01*
X148535552Y-91761026D01*
X148555543Y-91749044D01*
X148576613Y-91739079D01*
X148598557Y-91731227D01*
X148621166Y-91725563D01*
X148644221Y-91722144D01*
X148667500Y-91721000D01*
X149242500Y-91721000D01*
X149265779Y-91722144D01*
X149265779Y-91722144D01*
G37*
D15*
X148955000Y-92196000D03*
D14*
G36*
X161207779Y-100438144D02*
G01*
X161230834Y-100441563D01*
X161253443Y-100447227D01*
X161275387Y-100455079D01*
X161296457Y-100465044D01*
X161316448Y-100477026D01*
X161335168Y-100490910D01*
X161352438Y-100506562D01*
X161368090Y-100523832D01*
X161381974Y-100542552D01*
X161393956Y-100562543D01*
X161403921Y-100583613D01*
X161411773Y-100605557D01*
X161417437Y-100628166D01*
X161420856Y-100651221D01*
X161422000Y-100674500D01*
X161422000Y-101249500D01*
X161420856Y-101272779D01*
X161417437Y-101295834D01*
X161411773Y-101318443D01*
X161403921Y-101340387D01*
X161393956Y-101361457D01*
X161381974Y-101381448D01*
X161368090Y-101400168D01*
X161352438Y-101417438D01*
X161335168Y-101433090D01*
X161316448Y-101446974D01*
X161296457Y-101458956D01*
X161275387Y-101468921D01*
X161253443Y-101476773D01*
X161230834Y-101482437D01*
X161207779Y-101485856D01*
X161184500Y-101487000D01*
X160709500Y-101487000D01*
X160686221Y-101485856D01*
X160663166Y-101482437D01*
X160640557Y-101476773D01*
X160618613Y-101468921D01*
X160597543Y-101458956D01*
X160577552Y-101446974D01*
X160558832Y-101433090D01*
X160541562Y-101417438D01*
X160525910Y-101400168D01*
X160512026Y-101381448D01*
X160500044Y-101361457D01*
X160490079Y-101340387D01*
X160482227Y-101318443D01*
X160476563Y-101295834D01*
X160473144Y-101272779D01*
X160472000Y-101249500D01*
X160472000Y-100674500D01*
X160473144Y-100651221D01*
X160476563Y-100628166D01*
X160482227Y-100605557D01*
X160490079Y-100583613D01*
X160500044Y-100562543D01*
X160512026Y-100542552D01*
X160525910Y-100523832D01*
X160541562Y-100506562D01*
X160558832Y-100490910D01*
X160577552Y-100477026D01*
X160597543Y-100465044D01*
X160618613Y-100455079D01*
X160640557Y-100447227D01*
X160663166Y-100441563D01*
X160686221Y-100438144D01*
X160709500Y-100437000D01*
X161184500Y-100437000D01*
X161207779Y-100438144D01*
X161207779Y-100438144D01*
G37*
D15*
X160947000Y-100962000D03*
D14*
G36*
X161207779Y-102188144D02*
G01*
X161230834Y-102191563D01*
X161253443Y-102197227D01*
X161275387Y-102205079D01*
X161296457Y-102215044D01*
X161316448Y-102227026D01*
X161335168Y-102240910D01*
X161352438Y-102256562D01*
X161368090Y-102273832D01*
X161381974Y-102292552D01*
X161393956Y-102312543D01*
X161403921Y-102333613D01*
X161411773Y-102355557D01*
X161417437Y-102378166D01*
X161420856Y-102401221D01*
X161422000Y-102424500D01*
X161422000Y-102999500D01*
X161420856Y-103022779D01*
X161417437Y-103045834D01*
X161411773Y-103068443D01*
X161403921Y-103090387D01*
X161393956Y-103111457D01*
X161381974Y-103131448D01*
X161368090Y-103150168D01*
X161352438Y-103167438D01*
X161335168Y-103183090D01*
X161316448Y-103196974D01*
X161296457Y-103208956D01*
X161275387Y-103218921D01*
X161253443Y-103226773D01*
X161230834Y-103232437D01*
X161207779Y-103235856D01*
X161184500Y-103237000D01*
X160709500Y-103237000D01*
X160686221Y-103235856D01*
X160663166Y-103232437D01*
X160640557Y-103226773D01*
X160618613Y-103218921D01*
X160597543Y-103208956D01*
X160577552Y-103196974D01*
X160558832Y-103183090D01*
X160541562Y-103167438D01*
X160525910Y-103150168D01*
X160512026Y-103131448D01*
X160500044Y-103111457D01*
X160490079Y-103090387D01*
X160482227Y-103068443D01*
X160476563Y-103045834D01*
X160473144Y-103022779D01*
X160472000Y-102999500D01*
X160472000Y-102424500D01*
X160473144Y-102401221D01*
X160476563Y-102378166D01*
X160482227Y-102355557D01*
X160490079Y-102333613D01*
X160500044Y-102312543D01*
X160512026Y-102292552D01*
X160525910Y-102273832D01*
X160541562Y-102256562D01*
X160558832Y-102240910D01*
X160577552Y-102227026D01*
X160597543Y-102215044D01*
X160618613Y-102205079D01*
X160640557Y-102197227D01*
X160663166Y-102191563D01*
X160686221Y-102188144D01*
X160709500Y-102187000D01*
X161184500Y-102187000D01*
X161207779Y-102188144D01*
X161207779Y-102188144D01*
G37*
D15*
X160947000Y-102712000D03*
D14*
G36*
X156492779Y-105263144D02*
G01*
X156515834Y-105266563D01*
X156538443Y-105272227D01*
X156560387Y-105280079D01*
X156581457Y-105290044D01*
X156601448Y-105302026D01*
X156620168Y-105315910D01*
X156637438Y-105331562D01*
X156653090Y-105348832D01*
X156666974Y-105367552D01*
X156678956Y-105387543D01*
X156688921Y-105408613D01*
X156696773Y-105430557D01*
X156702437Y-105453166D01*
X156705856Y-105476221D01*
X156707000Y-105499500D01*
X156707000Y-105974500D01*
X156705856Y-105997779D01*
X156702437Y-106020834D01*
X156696773Y-106043443D01*
X156688921Y-106065387D01*
X156678956Y-106086457D01*
X156666974Y-106106448D01*
X156653090Y-106125168D01*
X156637438Y-106142438D01*
X156620168Y-106158090D01*
X156601448Y-106171974D01*
X156581457Y-106183956D01*
X156560387Y-106193921D01*
X156538443Y-106201773D01*
X156515834Y-106207437D01*
X156492779Y-106210856D01*
X156469500Y-106212000D01*
X155894500Y-106212000D01*
X155871221Y-106210856D01*
X155848166Y-106207437D01*
X155825557Y-106201773D01*
X155803613Y-106193921D01*
X155782543Y-106183956D01*
X155762552Y-106171974D01*
X155743832Y-106158090D01*
X155726562Y-106142438D01*
X155710910Y-106125168D01*
X155697026Y-106106448D01*
X155685044Y-106086457D01*
X155675079Y-106065387D01*
X155667227Y-106043443D01*
X155661563Y-106020834D01*
X155658144Y-105997779D01*
X155657000Y-105974500D01*
X155657000Y-105499500D01*
X155658144Y-105476221D01*
X155661563Y-105453166D01*
X155667227Y-105430557D01*
X155675079Y-105408613D01*
X155685044Y-105387543D01*
X155697026Y-105367552D01*
X155710910Y-105348832D01*
X155726562Y-105331562D01*
X155743832Y-105315910D01*
X155762552Y-105302026D01*
X155782543Y-105290044D01*
X155803613Y-105280079D01*
X155825557Y-105272227D01*
X155848166Y-105266563D01*
X155871221Y-105263144D01*
X155894500Y-105262000D01*
X156469500Y-105262000D01*
X156492779Y-105263144D01*
X156492779Y-105263144D01*
G37*
D15*
X156182000Y-105737000D03*
D14*
G36*
X158242779Y-105263144D02*
G01*
X158265834Y-105266563D01*
X158288443Y-105272227D01*
X158310387Y-105280079D01*
X158331457Y-105290044D01*
X158351448Y-105302026D01*
X158370168Y-105315910D01*
X158387438Y-105331562D01*
X158403090Y-105348832D01*
X158416974Y-105367552D01*
X158428956Y-105387543D01*
X158438921Y-105408613D01*
X158446773Y-105430557D01*
X158452437Y-105453166D01*
X158455856Y-105476221D01*
X158457000Y-105499500D01*
X158457000Y-105974500D01*
X158455856Y-105997779D01*
X158452437Y-106020834D01*
X158446773Y-106043443D01*
X158438921Y-106065387D01*
X158428956Y-106086457D01*
X158416974Y-106106448D01*
X158403090Y-106125168D01*
X158387438Y-106142438D01*
X158370168Y-106158090D01*
X158351448Y-106171974D01*
X158331457Y-106183956D01*
X158310387Y-106193921D01*
X158288443Y-106201773D01*
X158265834Y-106207437D01*
X158242779Y-106210856D01*
X158219500Y-106212000D01*
X157644500Y-106212000D01*
X157621221Y-106210856D01*
X157598166Y-106207437D01*
X157575557Y-106201773D01*
X157553613Y-106193921D01*
X157532543Y-106183956D01*
X157512552Y-106171974D01*
X157493832Y-106158090D01*
X157476562Y-106142438D01*
X157460910Y-106125168D01*
X157447026Y-106106448D01*
X157435044Y-106086457D01*
X157425079Y-106065387D01*
X157417227Y-106043443D01*
X157411563Y-106020834D01*
X157408144Y-105997779D01*
X157407000Y-105974500D01*
X157407000Y-105499500D01*
X157408144Y-105476221D01*
X157411563Y-105453166D01*
X157417227Y-105430557D01*
X157425079Y-105408613D01*
X157435044Y-105387543D01*
X157447026Y-105367552D01*
X157460910Y-105348832D01*
X157476562Y-105331562D01*
X157493832Y-105315910D01*
X157512552Y-105302026D01*
X157532543Y-105290044D01*
X157553613Y-105280079D01*
X157575557Y-105272227D01*
X157598166Y-105266563D01*
X157621221Y-105263144D01*
X157644500Y-105262000D01*
X158219500Y-105262000D01*
X158242779Y-105263144D01*
X158242779Y-105263144D01*
G37*
D15*
X157932000Y-105737000D03*
D14*
G36*
X154450779Y-121707144D02*
G01*
X154473834Y-121710563D01*
X154496443Y-121716227D01*
X154518387Y-121724079D01*
X154539457Y-121734044D01*
X154559448Y-121746026D01*
X154578168Y-121759910D01*
X154595438Y-121775562D01*
X154611090Y-121792832D01*
X154624974Y-121811552D01*
X154636956Y-121831543D01*
X154646921Y-121852613D01*
X154654773Y-121874557D01*
X154660437Y-121897166D01*
X154663856Y-121920221D01*
X154665000Y-121943500D01*
X154665000Y-122518500D01*
X154663856Y-122541779D01*
X154660437Y-122564834D01*
X154654773Y-122587443D01*
X154646921Y-122609387D01*
X154636956Y-122630457D01*
X154624974Y-122650448D01*
X154611090Y-122669168D01*
X154595438Y-122686438D01*
X154578168Y-122702090D01*
X154559448Y-122715974D01*
X154539457Y-122727956D01*
X154518387Y-122737921D01*
X154496443Y-122745773D01*
X154473834Y-122751437D01*
X154450779Y-122754856D01*
X154427500Y-122756000D01*
X153952500Y-122756000D01*
X153929221Y-122754856D01*
X153906166Y-122751437D01*
X153883557Y-122745773D01*
X153861613Y-122737921D01*
X153840543Y-122727956D01*
X153820552Y-122715974D01*
X153801832Y-122702090D01*
X153784562Y-122686438D01*
X153768910Y-122669168D01*
X153755026Y-122650448D01*
X153743044Y-122630457D01*
X153733079Y-122609387D01*
X153725227Y-122587443D01*
X153719563Y-122564834D01*
X153716144Y-122541779D01*
X153715000Y-122518500D01*
X153715000Y-121943500D01*
X153716144Y-121920221D01*
X153719563Y-121897166D01*
X153725227Y-121874557D01*
X153733079Y-121852613D01*
X153743044Y-121831543D01*
X153755026Y-121811552D01*
X153768910Y-121792832D01*
X153784562Y-121775562D01*
X153801832Y-121759910D01*
X153820552Y-121746026D01*
X153840543Y-121734044D01*
X153861613Y-121724079D01*
X153883557Y-121716227D01*
X153906166Y-121710563D01*
X153929221Y-121707144D01*
X153952500Y-121706000D01*
X154427500Y-121706000D01*
X154450779Y-121707144D01*
X154450779Y-121707144D01*
G37*
D15*
X154190000Y-122231000D03*
D14*
G36*
X154450779Y-119957144D02*
G01*
X154473834Y-119960563D01*
X154496443Y-119966227D01*
X154518387Y-119974079D01*
X154539457Y-119984044D01*
X154559448Y-119996026D01*
X154578168Y-120009910D01*
X154595438Y-120025562D01*
X154611090Y-120042832D01*
X154624974Y-120061552D01*
X154636956Y-120081543D01*
X154646921Y-120102613D01*
X154654773Y-120124557D01*
X154660437Y-120147166D01*
X154663856Y-120170221D01*
X154665000Y-120193500D01*
X154665000Y-120768500D01*
X154663856Y-120791779D01*
X154660437Y-120814834D01*
X154654773Y-120837443D01*
X154646921Y-120859387D01*
X154636956Y-120880457D01*
X154624974Y-120900448D01*
X154611090Y-120919168D01*
X154595438Y-120936438D01*
X154578168Y-120952090D01*
X154559448Y-120965974D01*
X154539457Y-120977956D01*
X154518387Y-120987921D01*
X154496443Y-120995773D01*
X154473834Y-121001437D01*
X154450779Y-121004856D01*
X154427500Y-121006000D01*
X153952500Y-121006000D01*
X153929221Y-121004856D01*
X153906166Y-121001437D01*
X153883557Y-120995773D01*
X153861613Y-120987921D01*
X153840543Y-120977956D01*
X153820552Y-120965974D01*
X153801832Y-120952090D01*
X153784562Y-120936438D01*
X153768910Y-120919168D01*
X153755026Y-120900448D01*
X153743044Y-120880457D01*
X153733079Y-120859387D01*
X153725227Y-120837443D01*
X153719563Y-120814834D01*
X153716144Y-120791779D01*
X153715000Y-120768500D01*
X153715000Y-120193500D01*
X153716144Y-120170221D01*
X153719563Y-120147166D01*
X153725227Y-120124557D01*
X153733079Y-120102613D01*
X153743044Y-120081543D01*
X153755026Y-120061552D01*
X153768910Y-120042832D01*
X153784562Y-120025562D01*
X153801832Y-120009910D01*
X153820552Y-119996026D01*
X153840543Y-119984044D01*
X153861613Y-119974079D01*
X153883557Y-119966227D01*
X153906166Y-119960563D01*
X153929221Y-119957144D01*
X153952500Y-119956000D01*
X154427500Y-119956000D01*
X154450779Y-119957144D01*
X154450779Y-119957144D01*
G37*
D15*
X154190000Y-120481000D03*
D14*
G36*
X152950779Y-121707144D02*
G01*
X152973834Y-121710563D01*
X152996443Y-121716227D01*
X153018387Y-121724079D01*
X153039457Y-121734044D01*
X153059448Y-121746026D01*
X153078168Y-121759910D01*
X153095438Y-121775562D01*
X153111090Y-121792832D01*
X153124974Y-121811552D01*
X153136956Y-121831543D01*
X153146921Y-121852613D01*
X153154773Y-121874557D01*
X153160437Y-121897166D01*
X153163856Y-121920221D01*
X153165000Y-121943500D01*
X153165000Y-122518500D01*
X153163856Y-122541779D01*
X153160437Y-122564834D01*
X153154773Y-122587443D01*
X153146921Y-122609387D01*
X153136956Y-122630457D01*
X153124974Y-122650448D01*
X153111090Y-122669168D01*
X153095438Y-122686438D01*
X153078168Y-122702090D01*
X153059448Y-122715974D01*
X153039457Y-122727956D01*
X153018387Y-122737921D01*
X152996443Y-122745773D01*
X152973834Y-122751437D01*
X152950779Y-122754856D01*
X152927500Y-122756000D01*
X152452500Y-122756000D01*
X152429221Y-122754856D01*
X152406166Y-122751437D01*
X152383557Y-122745773D01*
X152361613Y-122737921D01*
X152340543Y-122727956D01*
X152320552Y-122715974D01*
X152301832Y-122702090D01*
X152284562Y-122686438D01*
X152268910Y-122669168D01*
X152255026Y-122650448D01*
X152243044Y-122630457D01*
X152233079Y-122609387D01*
X152225227Y-122587443D01*
X152219563Y-122564834D01*
X152216144Y-122541779D01*
X152215000Y-122518500D01*
X152215000Y-121943500D01*
X152216144Y-121920221D01*
X152219563Y-121897166D01*
X152225227Y-121874557D01*
X152233079Y-121852613D01*
X152243044Y-121831543D01*
X152255026Y-121811552D01*
X152268910Y-121792832D01*
X152284562Y-121775562D01*
X152301832Y-121759910D01*
X152320552Y-121746026D01*
X152340543Y-121734044D01*
X152361613Y-121724079D01*
X152383557Y-121716227D01*
X152406166Y-121710563D01*
X152429221Y-121707144D01*
X152452500Y-121706000D01*
X152927500Y-121706000D01*
X152950779Y-121707144D01*
X152950779Y-121707144D01*
G37*
D15*
X152690000Y-122231000D03*
D14*
G36*
X152950779Y-119957144D02*
G01*
X152973834Y-119960563D01*
X152996443Y-119966227D01*
X153018387Y-119974079D01*
X153039457Y-119984044D01*
X153059448Y-119996026D01*
X153078168Y-120009910D01*
X153095438Y-120025562D01*
X153111090Y-120042832D01*
X153124974Y-120061552D01*
X153136956Y-120081543D01*
X153146921Y-120102613D01*
X153154773Y-120124557D01*
X153160437Y-120147166D01*
X153163856Y-120170221D01*
X153165000Y-120193500D01*
X153165000Y-120768500D01*
X153163856Y-120791779D01*
X153160437Y-120814834D01*
X153154773Y-120837443D01*
X153146921Y-120859387D01*
X153136956Y-120880457D01*
X153124974Y-120900448D01*
X153111090Y-120919168D01*
X153095438Y-120936438D01*
X153078168Y-120952090D01*
X153059448Y-120965974D01*
X153039457Y-120977956D01*
X153018387Y-120987921D01*
X152996443Y-120995773D01*
X152973834Y-121001437D01*
X152950779Y-121004856D01*
X152927500Y-121006000D01*
X152452500Y-121006000D01*
X152429221Y-121004856D01*
X152406166Y-121001437D01*
X152383557Y-120995773D01*
X152361613Y-120987921D01*
X152340543Y-120977956D01*
X152320552Y-120965974D01*
X152301832Y-120952090D01*
X152284562Y-120936438D01*
X152268910Y-120919168D01*
X152255026Y-120900448D01*
X152243044Y-120880457D01*
X152233079Y-120859387D01*
X152225227Y-120837443D01*
X152219563Y-120814834D01*
X152216144Y-120791779D01*
X152215000Y-120768500D01*
X152215000Y-120193500D01*
X152216144Y-120170221D01*
X152219563Y-120147166D01*
X152225227Y-120124557D01*
X152233079Y-120102613D01*
X152243044Y-120081543D01*
X152255026Y-120061552D01*
X152268910Y-120042832D01*
X152284562Y-120025562D01*
X152301832Y-120009910D01*
X152320552Y-119996026D01*
X152340543Y-119984044D01*
X152361613Y-119974079D01*
X152383557Y-119966227D01*
X152406166Y-119960563D01*
X152429221Y-119957144D01*
X152452500Y-119956000D01*
X152927500Y-119956000D01*
X152950779Y-119957144D01*
X152950779Y-119957144D01*
G37*
D15*
X152690000Y-120481000D03*
D14*
G36*
X165641779Y-94928144D02*
G01*
X165664834Y-94931563D01*
X165687443Y-94937227D01*
X165709387Y-94945079D01*
X165730457Y-94955044D01*
X165750448Y-94967026D01*
X165769168Y-94980910D01*
X165786438Y-94996562D01*
X165802090Y-95013832D01*
X165815974Y-95032552D01*
X165827956Y-95052543D01*
X165837921Y-95073613D01*
X165845773Y-95095557D01*
X165851437Y-95118166D01*
X165854856Y-95141221D01*
X165856000Y-95164500D01*
X165856000Y-95739500D01*
X165854856Y-95762779D01*
X165851437Y-95785834D01*
X165845773Y-95808443D01*
X165837921Y-95830387D01*
X165827956Y-95851457D01*
X165815974Y-95871448D01*
X165802090Y-95890168D01*
X165786438Y-95907438D01*
X165769168Y-95923090D01*
X165750448Y-95936974D01*
X165730457Y-95948956D01*
X165709387Y-95958921D01*
X165687443Y-95966773D01*
X165664834Y-95972437D01*
X165641779Y-95975856D01*
X165618500Y-95977000D01*
X165143500Y-95977000D01*
X165120221Y-95975856D01*
X165097166Y-95972437D01*
X165074557Y-95966773D01*
X165052613Y-95958921D01*
X165031543Y-95948956D01*
X165011552Y-95936974D01*
X164992832Y-95923090D01*
X164975562Y-95907438D01*
X164959910Y-95890168D01*
X164946026Y-95871448D01*
X164934044Y-95851457D01*
X164924079Y-95830387D01*
X164916227Y-95808443D01*
X164910563Y-95785834D01*
X164907144Y-95762779D01*
X164906000Y-95739500D01*
X164906000Y-95164500D01*
X164907144Y-95141221D01*
X164910563Y-95118166D01*
X164916227Y-95095557D01*
X164924079Y-95073613D01*
X164934044Y-95052543D01*
X164946026Y-95032552D01*
X164959910Y-95013832D01*
X164975562Y-94996562D01*
X164992832Y-94980910D01*
X165011552Y-94967026D01*
X165031543Y-94955044D01*
X165052613Y-94945079D01*
X165074557Y-94937227D01*
X165097166Y-94931563D01*
X165120221Y-94928144D01*
X165143500Y-94927000D01*
X165618500Y-94927000D01*
X165641779Y-94928144D01*
X165641779Y-94928144D01*
G37*
D15*
X165381000Y-95452000D03*
D14*
G36*
X165641779Y-93178144D02*
G01*
X165664834Y-93181563D01*
X165687443Y-93187227D01*
X165709387Y-93195079D01*
X165730457Y-93205044D01*
X165750448Y-93217026D01*
X165769168Y-93230910D01*
X165786438Y-93246562D01*
X165802090Y-93263832D01*
X165815974Y-93282552D01*
X165827956Y-93302543D01*
X165837921Y-93323613D01*
X165845773Y-93345557D01*
X165851437Y-93368166D01*
X165854856Y-93391221D01*
X165856000Y-93414500D01*
X165856000Y-93989500D01*
X165854856Y-94012779D01*
X165851437Y-94035834D01*
X165845773Y-94058443D01*
X165837921Y-94080387D01*
X165827956Y-94101457D01*
X165815974Y-94121448D01*
X165802090Y-94140168D01*
X165786438Y-94157438D01*
X165769168Y-94173090D01*
X165750448Y-94186974D01*
X165730457Y-94198956D01*
X165709387Y-94208921D01*
X165687443Y-94216773D01*
X165664834Y-94222437D01*
X165641779Y-94225856D01*
X165618500Y-94227000D01*
X165143500Y-94227000D01*
X165120221Y-94225856D01*
X165097166Y-94222437D01*
X165074557Y-94216773D01*
X165052613Y-94208921D01*
X165031543Y-94198956D01*
X165011552Y-94186974D01*
X164992832Y-94173090D01*
X164975562Y-94157438D01*
X164959910Y-94140168D01*
X164946026Y-94121448D01*
X164934044Y-94101457D01*
X164924079Y-94080387D01*
X164916227Y-94058443D01*
X164910563Y-94035834D01*
X164907144Y-94012779D01*
X164906000Y-93989500D01*
X164906000Y-93414500D01*
X164907144Y-93391221D01*
X164910563Y-93368166D01*
X164916227Y-93345557D01*
X164924079Y-93323613D01*
X164934044Y-93302543D01*
X164946026Y-93282552D01*
X164959910Y-93263832D01*
X164975562Y-93246562D01*
X164992832Y-93230910D01*
X165011552Y-93217026D01*
X165031543Y-93205044D01*
X165052613Y-93195079D01*
X165074557Y-93187227D01*
X165097166Y-93181563D01*
X165120221Y-93178144D01*
X165143500Y-93177000D01*
X165618500Y-93177000D01*
X165641779Y-93178144D01*
X165641779Y-93178144D01*
G37*
D15*
X165381000Y-93702000D03*
D22*
X190711000Y-114680000D03*
X190061000Y-114680000D03*
X189411000Y-114680000D03*
X188761000Y-114680000D03*
X188111000Y-114680000D03*
X187461000Y-114680000D03*
X186811000Y-114680000D03*
X186161000Y-114680000D03*
X185511000Y-114680000D03*
X184861000Y-114680000D03*
X184211000Y-114680000D03*
X183561000Y-114680000D03*
X182911000Y-114680000D03*
X182261000Y-114680000D03*
X182261000Y-120380000D03*
X182911000Y-120380000D03*
X183561000Y-120380000D03*
X184211000Y-120380000D03*
X184861000Y-120380000D03*
X185511000Y-120380000D03*
X186161000Y-120380000D03*
X186811000Y-120380000D03*
X187461000Y-120380000D03*
X188111000Y-120380000D03*
X188761000Y-120380000D03*
X189411000Y-120380000D03*
X190061000Y-120380000D03*
X190711000Y-120380000D03*
D23*
X185975000Y-103440000D03*
X185975000Y-97700000D03*
X184705000Y-103440000D03*
X184705000Y-97700000D03*
X183435000Y-103440000D03*
X183435000Y-97700000D03*
X182165000Y-103440000D03*
X182165000Y-97700000D03*
D24*
X184070000Y-100570000D03*
D25*
X148480000Y-88796000D03*
D26*
X149430000Y-90296000D03*
X148780000Y-90296000D03*
X148180000Y-90296000D03*
X147530000Y-90296000D03*
X147530000Y-87296000D03*
X148180000Y-87296000D03*
X148780000Y-87296000D03*
X149430000Y-87296000D03*
D27*
X162881000Y-95827000D03*
X162881000Y-94877000D03*
X162881000Y-93927000D03*
X160681000Y-93927000D03*
X160681000Y-95827000D03*
D28*
X178220000Y-100570000D03*
X172320000Y-100570000D03*
D20*
X161340000Y-84656000D03*
X158540000Y-84656000D03*
D29*
X174643000Y-93213000D03*
X179643000Y-93213000D03*
D14*
G36*
X190247779Y-121956144D02*
G01*
X190270834Y-121959563D01*
X190293443Y-121965227D01*
X190315387Y-121973079D01*
X190336457Y-121983044D01*
X190356448Y-121995026D01*
X190375168Y-122008910D01*
X190392438Y-122024562D01*
X190408090Y-122041832D01*
X190421974Y-122060552D01*
X190433956Y-122080543D01*
X190443921Y-122101613D01*
X190451773Y-122123557D01*
X190457437Y-122146166D01*
X190460856Y-122169221D01*
X190462000Y-122192500D01*
X190462000Y-122667500D01*
X190460856Y-122690779D01*
X190457437Y-122713834D01*
X190451773Y-122736443D01*
X190443921Y-122758387D01*
X190433956Y-122779457D01*
X190421974Y-122799448D01*
X190408090Y-122818168D01*
X190392438Y-122835438D01*
X190375168Y-122851090D01*
X190356448Y-122864974D01*
X190336457Y-122876956D01*
X190315387Y-122886921D01*
X190293443Y-122894773D01*
X190270834Y-122900437D01*
X190247779Y-122903856D01*
X190224500Y-122905000D01*
X189649500Y-122905000D01*
X189626221Y-122903856D01*
X189603166Y-122900437D01*
X189580557Y-122894773D01*
X189558613Y-122886921D01*
X189537543Y-122876956D01*
X189517552Y-122864974D01*
X189498832Y-122851090D01*
X189481562Y-122835438D01*
X189465910Y-122818168D01*
X189452026Y-122799448D01*
X189440044Y-122779457D01*
X189430079Y-122758387D01*
X189422227Y-122736443D01*
X189416563Y-122713834D01*
X189413144Y-122690779D01*
X189412000Y-122667500D01*
X189412000Y-122192500D01*
X189413144Y-122169221D01*
X189416563Y-122146166D01*
X189422227Y-122123557D01*
X189430079Y-122101613D01*
X189440044Y-122080543D01*
X189452026Y-122060552D01*
X189465910Y-122041832D01*
X189481562Y-122024562D01*
X189498832Y-122008910D01*
X189517552Y-121995026D01*
X189537543Y-121983044D01*
X189558613Y-121973079D01*
X189580557Y-121965227D01*
X189603166Y-121959563D01*
X189626221Y-121956144D01*
X189649500Y-121955000D01*
X190224500Y-121955000D01*
X190247779Y-121956144D01*
X190247779Y-121956144D01*
G37*
D15*
X189937000Y-122430000D03*
D14*
G36*
X191997779Y-121956144D02*
G01*
X192020834Y-121959563D01*
X192043443Y-121965227D01*
X192065387Y-121973079D01*
X192086457Y-121983044D01*
X192106448Y-121995026D01*
X192125168Y-122008910D01*
X192142438Y-122024562D01*
X192158090Y-122041832D01*
X192171974Y-122060552D01*
X192183956Y-122080543D01*
X192193921Y-122101613D01*
X192201773Y-122123557D01*
X192207437Y-122146166D01*
X192210856Y-122169221D01*
X192212000Y-122192500D01*
X192212000Y-122667500D01*
X192210856Y-122690779D01*
X192207437Y-122713834D01*
X192201773Y-122736443D01*
X192193921Y-122758387D01*
X192183956Y-122779457D01*
X192171974Y-122799448D01*
X192158090Y-122818168D01*
X192142438Y-122835438D01*
X192125168Y-122851090D01*
X192106448Y-122864974D01*
X192086457Y-122876956D01*
X192065387Y-122886921D01*
X192043443Y-122894773D01*
X192020834Y-122900437D01*
X191997779Y-122903856D01*
X191974500Y-122905000D01*
X191399500Y-122905000D01*
X191376221Y-122903856D01*
X191353166Y-122900437D01*
X191330557Y-122894773D01*
X191308613Y-122886921D01*
X191287543Y-122876956D01*
X191267552Y-122864974D01*
X191248832Y-122851090D01*
X191231562Y-122835438D01*
X191215910Y-122818168D01*
X191202026Y-122799448D01*
X191190044Y-122779457D01*
X191180079Y-122758387D01*
X191172227Y-122736443D01*
X191166563Y-122713834D01*
X191163144Y-122690779D01*
X191162000Y-122667500D01*
X191162000Y-122192500D01*
X191163144Y-122169221D01*
X191166563Y-122146166D01*
X191172227Y-122123557D01*
X191180079Y-122101613D01*
X191190044Y-122080543D01*
X191202026Y-122060552D01*
X191215910Y-122041832D01*
X191231562Y-122024562D01*
X191248832Y-122008910D01*
X191267552Y-121995026D01*
X191287543Y-121983044D01*
X191308613Y-121973079D01*
X191330557Y-121965227D01*
X191353166Y-121959563D01*
X191376221Y-121956144D01*
X191399500Y-121955000D01*
X191974500Y-121955000D01*
X191997779Y-121956144D01*
X191997779Y-121956144D01*
G37*
D15*
X191687000Y-122430000D03*
D14*
G36*
X191997779Y-123480144D02*
G01*
X192020834Y-123483563D01*
X192043443Y-123489227D01*
X192065387Y-123497079D01*
X192086457Y-123507044D01*
X192106448Y-123519026D01*
X192125168Y-123532910D01*
X192142438Y-123548562D01*
X192158090Y-123565832D01*
X192171974Y-123584552D01*
X192183956Y-123604543D01*
X192193921Y-123625613D01*
X192201773Y-123647557D01*
X192207437Y-123670166D01*
X192210856Y-123693221D01*
X192212000Y-123716500D01*
X192212000Y-124191500D01*
X192210856Y-124214779D01*
X192207437Y-124237834D01*
X192201773Y-124260443D01*
X192193921Y-124282387D01*
X192183956Y-124303457D01*
X192171974Y-124323448D01*
X192158090Y-124342168D01*
X192142438Y-124359438D01*
X192125168Y-124375090D01*
X192106448Y-124388974D01*
X192086457Y-124400956D01*
X192065387Y-124410921D01*
X192043443Y-124418773D01*
X192020834Y-124424437D01*
X191997779Y-124427856D01*
X191974500Y-124429000D01*
X191399500Y-124429000D01*
X191376221Y-124427856D01*
X191353166Y-124424437D01*
X191330557Y-124418773D01*
X191308613Y-124410921D01*
X191287543Y-124400956D01*
X191267552Y-124388974D01*
X191248832Y-124375090D01*
X191231562Y-124359438D01*
X191215910Y-124342168D01*
X191202026Y-124323448D01*
X191190044Y-124303457D01*
X191180079Y-124282387D01*
X191172227Y-124260443D01*
X191166563Y-124237834D01*
X191163144Y-124214779D01*
X191162000Y-124191500D01*
X191162000Y-123716500D01*
X191163144Y-123693221D01*
X191166563Y-123670166D01*
X191172227Y-123647557D01*
X191180079Y-123625613D01*
X191190044Y-123604543D01*
X191202026Y-123584552D01*
X191215910Y-123565832D01*
X191231562Y-123548562D01*
X191248832Y-123532910D01*
X191267552Y-123519026D01*
X191287543Y-123507044D01*
X191308613Y-123497079D01*
X191330557Y-123489227D01*
X191353166Y-123483563D01*
X191376221Y-123480144D01*
X191399500Y-123479000D01*
X191974500Y-123479000D01*
X191997779Y-123480144D01*
X191997779Y-123480144D01*
G37*
D15*
X191687000Y-123954000D03*
D14*
G36*
X190247779Y-123480144D02*
G01*
X190270834Y-123483563D01*
X190293443Y-123489227D01*
X190315387Y-123497079D01*
X190336457Y-123507044D01*
X190356448Y-123519026D01*
X190375168Y-123532910D01*
X190392438Y-123548562D01*
X190408090Y-123565832D01*
X190421974Y-123584552D01*
X190433956Y-123604543D01*
X190443921Y-123625613D01*
X190451773Y-123647557D01*
X190457437Y-123670166D01*
X190460856Y-123693221D01*
X190462000Y-123716500D01*
X190462000Y-124191500D01*
X190460856Y-124214779D01*
X190457437Y-124237834D01*
X190451773Y-124260443D01*
X190443921Y-124282387D01*
X190433956Y-124303457D01*
X190421974Y-124323448D01*
X190408090Y-124342168D01*
X190392438Y-124359438D01*
X190375168Y-124375090D01*
X190356448Y-124388974D01*
X190336457Y-124400956D01*
X190315387Y-124410921D01*
X190293443Y-124418773D01*
X190270834Y-124424437D01*
X190247779Y-124427856D01*
X190224500Y-124429000D01*
X189649500Y-124429000D01*
X189626221Y-124427856D01*
X189603166Y-124424437D01*
X189580557Y-124418773D01*
X189558613Y-124410921D01*
X189537543Y-124400956D01*
X189517552Y-124388974D01*
X189498832Y-124375090D01*
X189481562Y-124359438D01*
X189465910Y-124342168D01*
X189452026Y-124323448D01*
X189440044Y-124303457D01*
X189430079Y-124282387D01*
X189422227Y-124260443D01*
X189416563Y-124237834D01*
X189413144Y-124214779D01*
X189412000Y-124191500D01*
X189412000Y-123716500D01*
X189413144Y-123693221D01*
X189416563Y-123670166D01*
X189422227Y-123647557D01*
X189430079Y-123625613D01*
X189440044Y-123604543D01*
X189452026Y-123584552D01*
X189465910Y-123565832D01*
X189481562Y-123548562D01*
X189498832Y-123532910D01*
X189517552Y-123519026D01*
X189537543Y-123507044D01*
X189558613Y-123497079D01*
X189580557Y-123489227D01*
X189603166Y-123483563D01*
X189626221Y-123480144D01*
X189649500Y-123479000D01*
X190224500Y-123479000D01*
X190247779Y-123480144D01*
X190247779Y-123480144D01*
G37*
D15*
X189937000Y-123954000D03*
D14*
G36*
X146955779Y-121922144D02*
G01*
X146978834Y-121925563D01*
X147001443Y-121931227D01*
X147023387Y-121939079D01*
X147044457Y-121949044D01*
X147064448Y-121961026D01*
X147083168Y-121974910D01*
X147100438Y-121990562D01*
X147116090Y-122007832D01*
X147129974Y-122026552D01*
X147141956Y-122046543D01*
X147151921Y-122067613D01*
X147159773Y-122089557D01*
X147165437Y-122112166D01*
X147168856Y-122135221D01*
X147170000Y-122158500D01*
X147170000Y-122633500D01*
X147168856Y-122656779D01*
X147165437Y-122679834D01*
X147159773Y-122702443D01*
X147151921Y-122724387D01*
X147141956Y-122745457D01*
X147129974Y-122765448D01*
X147116090Y-122784168D01*
X147100438Y-122801438D01*
X147083168Y-122817090D01*
X147064448Y-122830974D01*
X147044457Y-122842956D01*
X147023387Y-122852921D01*
X147001443Y-122860773D01*
X146978834Y-122866437D01*
X146955779Y-122869856D01*
X146932500Y-122871000D01*
X146357500Y-122871000D01*
X146334221Y-122869856D01*
X146311166Y-122866437D01*
X146288557Y-122860773D01*
X146266613Y-122852921D01*
X146245543Y-122842956D01*
X146225552Y-122830974D01*
X146206832Y-122817090D01*
X146189562Y-122801438D01*
X146173910Y-122784168D01*
X146160026Y-122765448D01*
X146148044Y-122745457D01*
X146138079Y-122724387D01*
X146130227Y-122702443D01*
X146124563Y-122679834D01*
X146121144Y-122656779D01*
X146120000Y-122633500D01*
X146120000Y-122158500D01*
X146121144Y-122135221D01*
X146124563Y-122112166D01*
X146130227Y-122089557D01*
X146138079Y-122067613D01*
X146148044Y-122046543D01*
X146160026Y-122026552D01*
X146173910Y-122007832D01*
X146189562Y-121990562D01*
X146206832Y-121974910D01*
X146225552Y-121961026D01*
X146245543Y-121949044D01*
X146266613Y-121939079D01*
X146288557Y-121931227D01*
X146311166Y-121925563D01*
X146334221Y-121922144D01*
X146357500Y-121921000D01*
X146932500Y-121921000D01*
X146955779Y-121922144D01*
X146955779Y-121922144D01*
G37*
D15*
X146645000Y-122396000D03*
D14*
G36*
X145205779Y-121922144D02*
G01*
X145228834Y-121925563D01*
X145251443Y-121931227D01*
X145273387Y-121939079D01*
X145294457Y-121949044D01*
X145314448Y-121961026D01*
X145333168Y-121974910D01*
X145350438Y-121990562D01*
X145366090Y-122007832D01*
X145379974Y-122026552D01*
X145391956Y-122046543D01*
X145401921Y-122067613D01*
X145409773Y-122089557D01*
X145415437Y-122112166D01*
X145418856Y-122135221D01*
X145420000Y-122158500D01*
X145420000Y-122633500D01*
X145418856Y-122656779D01*
X145415437Y-122679834D01*
X145409773Y-122702443D01*
X145401921Y-122724387D01*
X145391956Y-122745457D01*
X145379974Y-122765448D01*
X145366090Y-122784168D01*
X145350438Y-122801438D01*
X145333168Y-122817090D01*
X145314448Y-122830974D01*
X145294457Y-122842956D01*
X145273387Y-122852921D01*
X145251443Y-122860773D01*
X145228834Y-122866437D01*
X145205779Y-122869856D01*
X145182500Y-122871000D01*
X144607500Y-122871000D01*
X144584221Y-122869856D01*
X144561166Y-122866437D01*
X144538557Y-122860773D01*
X144516613Y-122852921D01*
X144495543Y-122842956D01*
X144475552Y-122830974D01*
X144456832Y-122817090D01*
X144439562Y-122801438D01*
X144423910Y-122784168D01*
X144410026Y-122765448D01*
X144398044Y-122745457D01*
X144388079Y-122724387D01*
X144380227Y-122702443D01*
X144374563Y-122679834D01*
X144371144Y-122656779D01*
X144370000Y-122633500D01*
X144370000Y-122158500D01*
X144371144Y-122135221D01*
X144374563Y-122112166D01*
X144380227Y-122089557D01*
X144388079Y-122067613D01*
X144398044Y-122046543D01*
X144410026Y-122026552D01*
X144423910Y-122007832D01*
X144439562Y-121990562D01*
X144456832Y-121974910D01*
X144475552Y-121961026D01*
X144495543Y-121949044D01*
X144516613Y-121939079D01*
X144538557Y-121931227D01*
X144561166Y-121925563D01*
X144584221Y-121922144D01*
X144607500Y-121921000D01*
X145182500Y-121921000D01*
X145205779Y-121922144D01*
X145205779Y-121922144D01*
G37*
D15*
X144895000Y-122396000D03*
M02*
