M48
; DRILL file {KiCad (5.1.4)-1} date 09-Dec-19 9:40:29 AM
; FORMAT={2:4/ absolute / inch / suppress trailing zeros}
; #@! TF.CreationDate,2019-12-09T09:40:29+11:00
; #@! TF.GenerationSoftware,Kicad,Pcbnew,(5.1.4)-1
; #@! TF.FileFunction,Plated,1,2,PTH
FMAT,2
INCH,LZ
T1C0.0118
T2C0.0157
T3C0.0300
T4C0.0394
T5C0.0433
T6C0.0787
%
G90
G05
T1
X002761Y019274
X005361Y019674
X005871Y010332
X006591Y015669
X006761Y019774
X007098Y013638
X00817Y011031
X00843Y010064
X009058Y011245
X009058Y010903
X009066Y011548
X009424Y011237
X009424Y010907
X009428Y011548
X009865Y012505
X009993Y015481
X010314Y010068
X011276Y007075
X012303Y006327
X012689Y004576
X013028Y006327
X01478Y004736
X017696Y015579
X017696Y014398
X017696Y013611
X017744Y003638
X017893Y014004
X017893Y013217
X01809Y015579
X01809Y014398
X01809Y013611
X018287Y014004
X018287Y013217
X018483Y015579
X018483Y014398
X018483Y013611
X018622Y006299
X01868Y014004
X01868Y013217
X018877Y015579
X020744Y003276
X021501Y003295
X021535Y004839
X022287Y005961
X023154Y021399
X02437Y015709
X024882Y008937
X024882Y008622
T2
X000748Y011976
X002283Y000709
X002634Y021433
X005079Y011969
X006378Y004409
X006803Y021362
X007689Y008449
X007933Y006496
X008189Y002756
X008862Y014374
X009228Y01676
X009291Y018268
X010772Y005185
X010776Y012524
X010811Y006496
X010866Y016693
X011012Y009508
X011654Y017677
X012205Y005579
X013354Y01411
X013445Y012193
X013457Y010028
X013705Y00485
X014244Y009437
X014927Y010848
X01532Y010848
X015622Y009634
X015714Y010848
X016106Y003543
X016142Y00626
X016571Y011835
X017039Y008071
X018858Y008701
X018898Y010079
X020039Y008071
X020539Y008571
X021339Y008543
X021382Y01639
X021417Y005433
X021457Y013543
X021457Y011181
X021457Y010748
X02185Y01748
X02185Y017087
X02185Y016693
X02185Y016299
X02185Y015906
X02185Y015512
X02185Y015118
X02185Y014724
X02185Y014331
X02185Y013543
X02185Y012756
X02185Y011969
X023323Y004075
X024764Y01874
X025039Y002252
T3
X010783Y003193
X011776Y003193
X012768Y003193
X013776Y003193
X005189Y008072
X005189Y007072
X005189Y006076
X005189Y005076
T4
X022799Y016214
X023799Y016214
X024799Y016214
X022799Y011214
X023799Y011214
X024799Y011214
X003937Y020276
X004921Y020276
X005906Y020276
X022799Y013214
X023799Y013214
X024799Y013214
X022799Y017214
X023799Y017214
X024799Y017214
X003287Y001886
X003287Y000886
X004287Y001886
X004287Y000886
X005287Y001886
X005287Y000886
X006287Y001886
X006287Y000886
X007287Y001886
X007287Y000886
X008287Y001886
X008287Y000886
X009287Y001886
X009287Y000886
X010287Y001886
X010287Y000886
X011287Y001886
X011287Y000886
X012287Y001886
X012287Y000886
X013287Y001886
X013287Y000886
X014287Y001886
X014287Y000886
X015287Y001886
X015287Y000886
X016287Y001886
X016287Y000886
X017287Y001886
X017287Y000886
X018287Y001886
X018287Y000886
X019287Y001886
X019287Y000886
X020287Y001886
X020287Y000886
X021287Y001886
X021287Y000886
X022287Y001886
X022287Y000886
X008686Y008471
X009686Y008471
X010686Y008471
X011686Y008471
X012686Y008471
X013686Y008471
X014686Y008471
X015686Y008471
X001303Y009465
X002303Y009465
X003303Y009465
X004303Y009465
X024173Y005966
X024173Y004966
X024173Y003966
X022799Y014214
X023799Y014214
X024799Y014214
X022799Y015214
X023799Y015214
X024799Y015214
X022799Y010214
X023799Y010214
X024799Y010214
X022799Y012214
X023799Y012214
X024799Y012214
T5
X001146Y004402
X001146Y00322
X003114Y004402
X003114Y00322
X001146Y006843
X001146Y005661
X003114Y006843
X003114Y005661
T6
X009465Y020335
X011465Y020335
X019467Y020335
X021467Y020335
X014466Y020335
X016466Y020335
T5
G00X000768Y015256
M15
G01X00187Y015256
M16
G05
G00X001909Y016358
M15
G01X003012Y016358
M16
G05
G00X003799Y014626
M15
G01X003799Y013524
M16
G05
T0
M30
