M48
; DRILL file {KiCad (5.1.4)-1} date 6/11/2019 9:38:25 PM
; FORMAT={-:-/ absolute / metric / decimal}
; #@! TF.CreationDate,2019-11-06T21:38:25+11:00
; #@! TF.GenerationSoftware,Kicad,Pcbnew,(5.1.4)-1
; #@! TF.FileFunction,Plated,1,2,PTH
FMAT,2
METRIC
T1C0.300
T2C0.650
T3C1.000
T4C2.000
%
G90
G05
T1
X1.22Y48.55
X1.97Y41.05
X4.413Y41.993
X5.02Y42.8
X5.97Y44.05
X5.97Y42.8
X6.02Y21.14
X6.35Y2.14
X6.363Y41.993
X9.75Y19.7
X12.02Y31.75
X12.15Y19.09
X12.213Y38.807
X12.22Y48.05
X12.97Y16.55
X12.97Y14.55
X13.13Y26.27
X13.47Y17.55
X13.47Y15.55
X13.97Y16.55
X13.97Y14.55
X14.43Y41.46
X14.47Y17.55
X14.97Y16.55
X15.07Y48.75
X15.27Y44.55
X15.47Y23.8
X15.47Y17.55
X18.89Y39.36
X19.71Y46.15
X20.22Y32.05
X23.22Y21.05
X23.22Y19.05
X23.72Y20.05
X23.72Y18.05
X24.22Y21.05
X24.22Y19.05
X24.72Y20.05
X24.72Y18.05
X24.72Y15.05
X25.22Y21.05
X25.22Y19.05
X25.72Y20.05
X25.72Y18.05
X25.72Y15.05
X26.22Y21.05
X26.22Y19.05
X26.72Y20.05
X26.72Y18.05
X26.72Y15.05
X27.22Y21.05
X27.22Y19.05
X27.72Y20.05
X27.72Y18.05
X27.72Y15.05
X28.19Y29.76
X31.36Y39.33
X32.22Y11.8
X34.22Y12.55
X34.72Y13.55
X34.72Y11.55
X35.22Y12.55
X35.67Y17.1
X35.72Y13.55
X35.72Y11.55
X36.22Y12.55
X36.29Y32.45
X36.47Y21.05
X36.72Y13.55
X36.72Y11.55
X37.22Y17.3
X37.22Y12.55
X37.72Y26.55
X39.97Y44.65
X42.35Y27.3
X42.42Y25.27
X42.82Y42.23
X44.32Y33.6
X44.47Y48.55
X44.47Y21.25
X45.97Y48.5
X46.15Y25.95
X47.02Y27.3
X47.12Y19.033
X48.02Y42.55
X48.26Y18.59
X48.64Y35.83
X49.47Y23.55
X49.47Y22.55
X49.97Y23.05
X49.97Y22.05
X52.17Y25.95
X52.17Y6.6
X52.414Y23.494
X52.67Y28.95
X52.79Y35.54
X53.68Y19.65
X54.66Y35.89
X55.32Y6.6
X56.47Y48.05
X57.16Y30.01
X57.17Y22.85
X59.51Y43.27
X60.17Y34.85
X60.41Y19.94
X61.4Y10.51
T2
X38.476Y12.36
X39.746Y12.36
T3
X49.98Y3.544
X52.48Y3.544
X54.98Y3.544
X1.855Y15.004
X4.395Y15.004
X6.935Y15.004
X48.71Y46.57
X51.25Y46.57
X53.79Y46.57
X46.17Y38.95
X48.71Y38.95
X51.25Y38.95
X53.79Y38.95
X8.55Y54.244
X8.55Y51.704
X11.09Y54.244
X11.09Y51.704
X13.63Y54.244
X13.63Y51.704
X16.17Y54.244
X16.17Y51.704
X18.71Y54.244
X18.71Y51.704
X21.25Y54.244
X21.25Y51.704
X23.79Y54.244
X23.79Y51.704
X26.33Y54.244
X26.33Y51.704
X28.87Y54.244
X28.87Y51.704
X31.41Y54.244
X31.41Y51.704
X33.95Y54.244
X33.95Y51.704
X36.49Y54.244
X36.49Y51.704
X39.03Y54.244
X39.03Y51.704
X41.57Y54.244
X41.57Y51.704
X44.11Y54.244
X44.11Y51.704
X46.65Y54.244
X46.65Y51.704
X49.19Y54.244
X49.19Y51.704
X51.73Y54.244
X51.73Y51.704
X54.27Y54.244
X54.27Y51.704
X56.81Y54.244
X56.81Y51.704
X62.45Y46.57
X62.45Y44.03
X62.45Y41.49
X62.45Y38.95
X1.865Y12.464
X4.405Y12.464
X6.945Y12.464
X62.47Y33.87
X62.47Y31.33
X62.47Y28.79
X62.47Y26.25
X1.855Y17.544
X4.395Y17.544
X6.935Y17.544
X19.588Y48.208
X22.128Y48.208
X24.668Y48.208
X27.208Y48.208
X29.748Y48.208
X32.288Y48.208
X34.828Y48.208
X37.368Y48.208
X1.865Y9.924
X4.405Y9.924
X6.945Y9.924
T4
X23.337Y4.344
X28.417Y4.344
X10.634Y4.344
X15.714Y4.344
X36.04Y4.344
X41.12Y4.344
T3
G00X57.47Y14.8
M15
G01X57.47Y17.3
M16
G05
G00X63.47Y14.8
M15
G01X63.47Y17.3
M16
G05
T0
M30
