G04 #@! TF.GenerationSoftware,KiCad,Pcbnew,(5.1.4)-1*
G04 #@! TF.CreationDate,2019-11-06T21:38:22+11:00*
G04 #@! TF.ProjectId,dingo-hat,64696e67-6f2d-4686-9174-2e6b69636164,rev?*
G04 #@! TF.SameCoordinates,PX5f37000PY5f5c990*
G04 #@! TF.FileFunction,Soldermask,Top*
G04 #@! TF.FilePolarity,Negative*
%FSLAX46Y46*%
G04 Gerber Fmt 4.6, Leading zero omitted, Abs format (unit mm)*
G04 Created by KiCad (PCBNEW (5.1.4)-1) date 2019-11-06 21:38:22*
%MOMM*%
%LPD*%
G04 APERTURE LIST*
%ADD10C,0.100000*%
G04 APERTURE END LIST*
D10*
G36*
X42436983Y8334240D02*
G01*
X42623999Y8277510D01*
X42796344Y8185389D01*
X42947412Y8061412D01*
X43071389Y7910344D01*
X43163510Y7737999D01*
X43220240Y7550983D01*
X43240000Y7350360D01*
X43240000Y1337640D01*
X43220240Y1137017D01*
X43163510Y950001D01*
X43071389Y777656D01*
X42947412Y626588D01*
X42796344Y502611D01*
X42623999Y410490D01*
X42436983Y353760D01*
X42236360Y334000D01*
X40003640Y334000D01*
X39803017Y353760D01*
X39616001Y410490D01*
X39443656Y502611D01*
X39292588Y626588D01*
X39168611Y777656D01*
X39076490Y950001D01*
X39019760Y1137017D01*
X39000000Y1337640D01*
X39000000Y7350360D01*
X39019760Y7550983D01*
X39076490Y7737999D01*
X39168611Y7910344D01*
X39292588Y8061412D01*
X39443656Y8185389D01*
X39616001Y8277510D01*
X39803017Y8334240D01*
X40003640Y8354000D01*
X42236360Y8354000D01*
X42436983Y8334240D01*
X42436983Y8334240D01*
G37*
G36*
X37356983Y8334240D02*
G01*
X37543999Y8277510D01*
X37716344Y8185389D01*
X37867412Y8061412D01*
X37991389Y7910344D01*
X38083510Y7737999D01*
X38140240Y7550983D01*
X38160000Y7350360D01*
X38160000Y1337640D01*
X38140240Y1137017D01*
X38083510Y950001D01*
X37991389Y777656D01*
X37867412Y626588D01*
X37716344Y502611D01*
X37543999Y410490D01*
X37356983Y353760D01*
X37156360Y334000D01*
X34923640Y334000D01*
X34723017Y353760D01*
X34536001Y410490D01*
X34363656Y502611D01*
X34212588Y626588D01*
X34088611Y777656D01*
X33996490Y950001D01*
X33939760Y1137017D01*
X33920000Y1337640D01*
X33920000Y7350360D01*
X33939760Y7550983D01*
X33996490Y7737999D01*
X34088611Y7910344D01*
X34212588Y8061412D01*
X34363656Y8185389D01*
X34536001Y8277510D01*
X34723017Y8334240D01*
X34923640Y8354000D01*
X37156360Y8354000D01*
X37356983Y8334240D01*
X37356983Y8334240D01*
G37*
G36*
X11950983Y8334240D02*
G01*
X12137999Y8277510D01*
X12310344Y8185389D01*
X12461412Y8061412D01*
X12585389Y7910344D01*
X12677510Y7737999D01*
X12734240Y7550983D01*
X12754000Y7350360D01*
X12754000Y1337640D01*
X12734240Y1137017D01*
X12677510Y950001D01*
X12585389Y777656D01*
X12461412Y626588D01*
X12310344Y502611D01*
X12137999Y410490D01*
X11950983Y353760D01*
X11750360Y334000D01*
X9517640Y334000D01*
X9317017Y353760D01*
X9130001Y410490D01*
X8957656Y502611D01*
X8806588Y626588D01*
X8682611Y777656D01*
X8590490Y950001D01*
X8533760Y1137017D01*
X8514000Y1337640D01*
X8514000Y7350360D01*
X8533760Y7550983D01*
X8590490Y7737999D01*
X8682611Y7910344D01*
X8806588Y8061412D01*
X8957656Y8185389D01*
X9130001Y8277510D01*
X9317017Y8334240D01*
X9517640Y8354000D01*
X11750360Y8354000D01*
X11950983Y8334240D01*
X11950983Y8334240D01*
G37*
G36*
X17030983Y8334240D02*
G01*
X17217999Y8277510D01*
X17390344Y8185389D01*
X17541412Y8061412D01*
X17665389Y7910344D01*
X17757510Y7737999D01*
X17814240Y7550983D01*
X17834000Y7350360D01*
X17834000Y1337640D01*
X17814240Y1137017D01*
X17757510Y950001D01*
X17665389Y777656D01*
X17541412Y626588D01*
X17390344Y502611D01*
X17217999Y410490D01*
X17030983Y353760D01*
X16830360Y334000D01*
X14597640Y334000D01*
X14397017Y353760D01*
X14210001Y410490D01*
X14037656Y502611D01*
X13886588Y626588D01*
X13762611Y777656D01*
X13670490Y950001D01*
X13613760Y1137017D01*
X13594000Y1337640D01*
X13594000Y7350360D01*
X13613760Y7550983D01*
X13670490Y7737999D01*
X13762611Y7910344D01*
X13886588Y8061412D01*
X14037656Y8185389D01*
X14210001Y8277510D01*
X14397017Y8334240D01*
X14597640Y8354000D01*
X16830360Y8354000D01*
X17030983Y8334240D01*
X17030983Y8334240D01*
G37*
G36*
X29733983Y8334240D02*
G01*
X29920999Y8277510D01*
X30093344Y8185389D01*
X30244412Y8061412D01*
X30368389Y7910344D01*
X30460510Y7737999D01*
X30517240Y7550983D01*
X30537000Y7350360D01*
X30537000Y1337640D01*
X30517240Y1137017D01*
X30460510Y950001D01*
X30368389Y777656D01*
X30244412Y626588D01*
X30093344Y502611D01*
X29920999Y410490D01*
X29733983Y353760D01*
X29533360Y334000D01*
X27300640Y334000D01*
X27100017Y353760D01*
X26913001Y410490D01*
X26740656Y502611D01*
X26589588Y626588D01*
X26465611Y777656D01*
X26373490Y950001D01*
X26316760Y1137017D01*
X26297000Y1337640D01*
X26297000Y7350360D01*
X26316760Y7550983D01*
X26373490Y7737999D01*
X26465611Y7910344D01*
X26589588Y8061412D01*
X26740656Y8185389D01*
X26913001Y8277510D01*
X27100017Y8334240D01*
X27300640Y8354000D01*
X29533360Y8354000D01*
X29733983Y8334240D01*
X29733983Y8334240D01*
G37*
G36*
X24653983Y8334240D02*
G01*
X24840999Y8277510D01*
X25013344Y8185389D01*
X25164412Y8061412D01*
X25288389Y7910344D01*
X25380510Y7737999D01*
X25437240Y7550983D01*
X25457000Y7350360D01*
X25457000Y1337640D01*
X25437240Y1137017D01*
X25380510Y950001D01*
X25288389Y777656D01*
X25164412Y626588D01*
X25013344Y502611D01*
X24840999Y410490D01*
X24653983Y353760D01*
X24453360Y334000D01*
X22220640Y334000D01*
X22020017Y353760D01*
X21833001Y410490D01*
X21660656Y502611D01*
X21509588Y626588D01*
X21385611Y777656D01*
X21293490Y950001D01*
X21236760Y1137017D01*
X21217000Y1337640D01*
X21217000Y7350360D01*
X21236760Y7550983D01*
X21293490Y7737999D01*
X21385611Y7910344D01*
X21509588Y8061412D01*
X21660656Y8185389D01*
X21833001Y8277510D01*
X22020017Y8334240D01*
X22220640Y8354000D01*
X24453360Y8354000D01*
X24653983Y8334240D01*
X24653983Y8334240D01*
G37*
G36*
X45270000Y475000D02*
G01*
X44070000Y475000D01*
X44070000Y1625000D01*
X45270000Y1625000D01*
X45270000Y475000D01*
X45270000Y475000D01*
G37*
G36*
X46770000Y475000D02*
G01*
X45570000Y475000D01*
X45570000Y1625000D01*
X46770000Y1625000D01*
X46770000Y475000D01*
X46770000Y475000D01*
G37*
G36*
X4021163Y5739413D02*
G01*
X4195041Y5704827D01*
X4522620Y5569139D01*
X4817433Y5372151D01*
X5068151Y5121433D01*
X5265139Y4826620D01*
X5400827Y4499041D01*
X5400827Y4499039D01*
X5468011Y4161286D01*
X5470000Y4151284D01*
X5470000Y3796716D01*
X5400827Y3448959D01*
X5265139Y3121380D01*
X5068151Y2826567D01*
X4817433Y2575849D01*
X4522620Y2378861D01*
X4195041Y2243173D01*
X4021163Y2208587D01*
X3847286Y2174000D01*
X3492714Y2174000D01*
X3318837Y2208587D01*
X3144959Y2243173D01*
X2817380Y2378861D01*
X2522567Y2575849D01*
X2271849Y2826567D01*
X2074861Y3121380D01*
X1939173Y3448959D01*
X1870000Y3796716D01*
X1870000Y4151284D01*
X1871990Y4161286D01*
X1939173Y4499039D01*
X1939173Y4499041D01*
X2074861Y4826620D01*
X2271849Y5121433D01*
X2522567Y5372151D01*
X2817380Y5569139D01*
X3144959Y5704827D01*
X3318837Y5739413D01*
X3492714Y5774000D01*
X3847286Y5774000D01*
X4021163Y5739413D01*
X4021163Y5739413D01*
G37*
G36*
X62011162Y5749414D02*
G01*
X62185041Y5714827D01*
X62512620Y5579139D01*
X62807433Y5382151D01*
X63058151Y5131433D01*
X63255139Y4836620D01*
X63390827Y4509041D01*
X63393291Y4496653D01*
X63460000Y4161286D01*
X63460000Y3806714D01*
X63428803Y3649879D01*
X63390827Y3458959D01*
X63255139Y3131380D01*
X63058151Y2836567D01*
X62807433Y2585849D01*
X62512620Y2388861D01*
X62185041Y2253173D01*
X62011162Y2218586D01*
X61837286Y2184000D01*
X61482714Y2184000D01*
X61308838Y2218586D01*
X61134959Y2253173D01*
X60807380Y2388861D01*
X60512567Y2585849D01*
X60261849Y2836567D01*
X60064861Y3131380D01*
X59929173Y3458959D01*
X59891197Y3649879D01*
X59860000Y3806714D01*
X59860000Y4161286D01*
X59926709Y4496653D01*
X59929173Y4509041D01*
X60064861Y4836620D01*
X60261849Y5131433D01*
X60512567Y5382151D01*
X60807380Y5579139D01*
X61134959Y5714827D01*
X61308838Y5749414D01*
X61482714Y5784000D01*
X61837286Y5784000D01*
X62011162Y5749414D01*
X62011162Y5749414D01*
G37*
G36*
X51055000Y2469000D02*
G01*
X48905000Y2469000D01*
X48905000Y4619000D01*
X51055000Y4619000D01*
X51055000Y2469000D01*
X51055000Y2469000D01*
G37*
G36*
X52689722Y4598344D02*
G01*
X52793566Y4577688D01*
X52850866Y4553953D01*
X52989203Y4496653D01*
X53165272Y4379007D01*
X53315007Y4229272D01*
X53432653Y4053203D01*
X53513688Y3857565D01*
X53555000Y3649879D01*
X53555000Y3438121D01*
X53513688Y3230435D01*
X53432653Y3034797D01*
X53315007Y2858728D01*
X53165272Y2708993D01*
X52989203Y2591347D01*
X52850866Y2534047D01*
X52793566Y2510312D01*
X52689722Y2489656D01*
X52585879Y2469000D01*
X52374121Y2469000D01*
X52270278Y2489656D01*
X52166434Y2510312D01*
X52109134Y2534047D01*
X51970797Y2591347D01*
X51794728Y2708993D01*
X51644993Y2858728D01*
X51527347Y3034797D01*
X51446312Y3230435D01*
X51405000Y3438121D01*
X51405000Y3649879D01*
X51446312Y3857565D01*
X51527347Y4053203D01*
X51644993Y4229272D01*
X51794728Y4379007D01*
X51970797Y4496653D01*
X52109134Y4553953D01*
X52166434Y4577688D01*
X52270278Y4598344D01*
X52374121Y4619000D01*
X52585879Y4619000D01*
X52689722Y4598344D01*
X52689722Y4598344D01*
G37*
G36*
X55189722Y4598344D02*
G01*
X55293566Y4577688D01*
X55350866Y4553953D01*
X55489203Y4496653D01*
X55665272Y4379007D01*
X55815007Y4229272D01*
X55932653Y4053203D01*
X56013688Y3857565D01*
X56055000Y3649879D01*
X56055000Y3438121D01*
X56013688Y3230435D01*
X55932653Y3034797D01*
X55815007Y2858728D01*
X55665272Y2708993D01*
X55489203Y2591347D01*
X55350866Y2534047D01*
X55293566Y2510312D01*
X55189722Y2489656D01*
X55085879Y2469000D01*
X54874121Y2469000D01*
X54770278Y2489656D01*
X54666434Y2510312D01*
X54609134Y2534047D01*
X54470797Y2591347D01*
X54294728Y2708993D01*
X54144993Y2858728D01*
X54027347Y3034797D01*
X53946312Y3230435D01*
X53905000Y3438121D01*
X53905000Y3649879D01*
X53946312Y3857565D01*
X54027347Y4053203D01*
X54144993Y4229272D01*
X54294728Y4379007D01*
X54470797Y4496653D01*
X54609134Y4553953D01*
X54666434Y4577688D01*
X54770278Y4598344D01*
X54874121Y4619000D01*
X55085879Y4619000D01*
X55189722Y4598344D01*
X55189722Y4598344D01*
G37*
G36*
X33270000Y2700000D02*
G01*
X31170000Y2700000D01*
X31170000Y4000000D01*
X33270000Y4000000D01*
X33270000Y2700000D01*
X33270000Y2700000D01*
G37*
G36*
X32870000Y7024999D02*
G01*
X32872402Y7000613D01*
X32879515Y6977164D01*
X32891066Y6955553D01*
X32906611Y6936611D01*
X32925553Y6921066D01*
X32947164Y6909515D01*
X32970613Y6902402D01*
X32994999Y6900000D01*
X33270000Y6900000D01*
X33270000Y5600000D01*
X31170000Y5600000D01*
X31170000Y6900000D01*
X31445001Y6900000D01*
X31469387Y6902402D01*
X31492836Y6909515D01*
X31514447Y6921066D01*
X31533389Y6936611D01*
X31548934Y6955553D01*
X31560485Y6977164D01*
X31567598Y7000613D01*
X31570000Y7024999D01*
X31570000Y8000000D01*
X32870000Y8000000D01*
X32870000Y7024999D01*
X32870000Y7024999D01*
G37*
G36*
X52620000Y7650000D02*
G01*
X51720000Y7650000D01*
X51720000Y8950000D01*
X52620000Y8950000D01*
X52620000Y7650000D01*
X52620000Y7650000D01*
G37*
G36*
X54120000Y7650000D02*
G01*
X53220000Y7650000D01*
X53220000Y8950000D01*
X54120000Y8950000D01*
X54120000Y7650000D01*
X54120000Y7650000D01*
G37*
G36*
X49480000Y7694000D02*
G01*
X48580000Y7694000D01*
X48580000Y8994000D01*
X49480000Y8994000D01*
X49480000Y7694000D01*
X49480000Y7694000D01*
G37*
G36*
X50980000Y7694000D02*
G01*
X50080000Y7694000D01*
X50080000Y8994000D01*
X50980000Y8994000D01*
X50980000Y7694000D01*
X50980000Y7694000D01*
G37*
G36*
X57380000Y7769000D02*
G01*
X56180000Y7769000D01*
X56180000Y8919000D01*
X57380000Y8919000D01*
X57380000Y7769000D01*
X57380000Y7769000D01*
G37*
G36*
X55880000Y7769000D02*
G01*
X54680000Y7769000D01*
X54680000Y8919000D01*
X55880000Y8919000D01*
X55880000Y7769000D01*
X55880000Y7769000D01*
G37*
G36*
X48130000Y7944000D02*
G01*
X46830000Y7944000D01*
X46830000Y8844000D01*
X48130000Y8844000D01*
X48130000Y7944000D01*
X48130000Y7944000D01*
G37*
G36*
X32870000Y8600000D02*
G01*
X31570000Y8600000D01*
X31570000Y9500000D01*
X32870000Y9500000D01*
X32870000Y8600000D01*
X32870000Y8600000D01*
G37*
G36*
X11320000Y8700000D02*
G01*
X10020000Y8700000D01*
X10020000Y10800000D01*
X11320000Y10800000D01*
X11320000Y8700000D01*
X11320000Y8700000D01*
G37*
G36*
X14220000Y8700000D02*
G01*
X12920000Y8700000D01*
X12920000Y10800000D01*
X14220000Y10800000D01*
X14220000Y8700000D01*
X14220000Y8700000D01*
G37*
G36*
X7073707Y10966403D02*
G01*
X7150836Y10958807D01*
X7348762Y10898767D01*
X7348765Y10898766D01*
X7531170Y10801268D01*
X7691055Y10670055D01*
X7822268Y10510170D01*
X7919766Y10327765D01*
X7919767Y10327762D01*
X7979807Y10129836D01*
X8000080Y9924000D01*
X7979807Y9718164D01*
X7919767Y9520238D01*
X7919766Y9520235D01*
X7822268Y9337830D01*
X7691055Y9177945D01*
X7531170Y9046732D01*
X7348765Y8949234D01*
X7348762Y8949233D01*
X7150836Y8889193D01*
X7073707Y8881597D01*
X6996580Y8874000D01*
X6893420Y8874000D01*
X6816293Y8881597D01*
X6739164Y8889193D01*
X6541238Y8949233D01*
X6541235Y8949234D01*
X6358830Y9046732D01*
X6198945Y9177945D01*
X6067732Y9337830D01*
X5970234Y9520235D01*
X5970233Y9520238D01*
X5910193Y9718164D01*
X5889920Y9924000D01*
X5910193Y10129836D01*
X5970233Y10327762D01*
X5970234Y10327765D01*
X6067732Y10510170D01*
X6198945Y10670055D01*
X6358830Y10801268D01*
X6541235Y10898766D01*
X6541238Y10898767D01*
X6739164Y10958807D01*
X6816293Y10966403D01*
X6893420Y10974000D01*
X6996580Y10974000D01*
X7073707Y10966403D01*
X7073707Y10966403D01*
G37*
G36*
X4533707Y10966403D02*
G01*
X4610836Y10958807D01*
X4808762Y10898767D01*
X4808765Y10898766D01*
X4991170Y10801268D01*
X5151055Y10670055D01*
X5282268Y10510170D01*
X5379766Y10327765D01*
X5379767Y10327762D01*
X5439807Y10129836D01*
X5460080Y9924000D01*
X5439807Y9718164D01*
X5379767Y9520238D01*
X5379766Y9520235D01*
X5282268Y9337830D01*
X5151055Y9177945D01*
X4991170Y9046732D01*
X4808765Y8949234D01*
X4808762Y8949233D01*
X4610836Y8889193D01*
X4533707Y8881597D01*
X4456580Y8874000D01*
X4353420Y8874000D01*
X4276293Y8881597D01*
X4199164Y8889193D01*
X4001238Y8949233D01*
X4001235Y8949234D01*
X3818830Y9046732D01*
X3658945Y9177945D01*
X3527732Y9337830D01*
X3430234Y9520235D01*
X3430233Y9520238D01*
X3370193Y9718164D01*
X3349920Y9924000D01*
X3370193Y10129836D01*
X3430233Y10327762D01*
X3430234Y10327765D01*
X3527732Y10510170D01*
X3658945Y10670055D01*
X3818830Y10801268D01*
X4001235Y10898766D01*
X4001238Y10898767D01*
X4199164Y10958807D01*
X4276293Y10966403D01*
X4353420Y10974000D01*
X4456580Y10974000D01*
X4533707Y10966403D01*
X4533707Y10966403D01*
G37*
G36*
X2915000Y8874000D02*
G01*
X815000Y8874000D01*
X815000Y10974000D01*
X2915000Y10974000D01*
X2915000Y8874000D01*
X2915000Y8874000D01*
G37*
G36*
X17420000Y9000000D02*
G01*
X16520000Y9000000D01*
X16520000Y10300000D01*
X17420000Y10300000D01*
X17420000Y9000000D01*
X17420000Y9000000D01*
G37*
G36*
X18920000Y9000000D02*
G01*
X18020000Y9000000D01*
X18020000Y10300000D01*
X18920000Y10300000D01*
X18920000Y9000000D01*
X18920000Y9000000D01*
G37*
G36*
X38070000Y9100000D02*
G01*
X36570000Y9100000D01*
X36570000Y10600000D01*
X38070000Y10600000D01*
X38070000Y9100000D01*
X38070000Y9100000D01*
G37*
G36*
X40870000Y9100000D02*
G01*
X39370000Y9100000D01*
X39370000Y10600000D01*
X40870000Y10600000D01*
X40870000Y9100000D01*
X40870000Y9100000D01*
G37*
G36*
X54120000Y9394000D02*
G01*
X53220000Y9394000D01*
X53220000Y10694000D01*
X54120000Y10694000D01*
X54120000Y9394000D01*
X54120000Y9394000D01*
G37*
G36*
X52620000Y9394000D02*
G01*
X51720000Y9394000D01*
X51720000Y10694000D01*
X52620000Y10694000D01*
X52620000Y9394000D01*
X52620000Y9394000D01*
G37*
G36*
X48130000Y9444000D02*
G01*
X46830000Y9444000D01*
X46830000Y10344000D01*
X48130000Y10344000D01*
X48130000Y9444000D01*
X48130000Y9444000D01*
G37*
G36*
X55930000Y9469000D02*
G01*
X54730000Y9469000D01*
X54730000Y10619000D01*
X55930000Y10619000D01*
X55930000Y9469000D01*
X55930000Y9469000D01*
G37*
G36*
X49730000Y9469000D02*
G01*
X48530000Y9469000D01*
X48530000Y10619000D01*
X49730000Y10619000D01*
X49730000Y9469000D01*
X49730000Y9469000D01*
G37*
G36*
X51230000Y9469000D02*
G01*
X50030000Y9469000D01*
X50030000Y10619000D01*
X51230000Y10619000D01*
X51230000Y9469000D01*
X51230000Y9469000D01*
G37*
G36*
X57430000Y9469000D02*
G01*
X56230000Y9469000D01*
X56230000Y10619000D01*
X57430000Y10619000D01*
X57430000Y9469000D01*
X57430000Y9469000D01*
G37*
G36*
X7073707Y13506403D02*
G01*
X7150836Y13498807D01*
X7348762Y13438767D01*
X7348765Y13438766D01*
X7531170Y13341268D01*
X7691055Y13210055D01*
X7822268Y13050170D01*
X7919766Y12867765D01*
X7919767Y12867762D01*
X7979807Y12669836D01*
X8000080Y12464000D01*
X7979807Y12258164D01*
X7969072Y12222776D01*
X7919766Y12060235D01*
X7822268Y11877830D01*
X7691055Y11717945D01*
X7531170Y11586732D01*
X7348765Y11489234D01*
X7348762Y11489233D01*
X7150836Y11429193D01*
X7073707Y11421596D01*
X6996580Y11414000D01*
X6893420Y11414000D01*
X6816293Y11421596D01*
X6739164Y11429193D01*
X6541238Y11489233D01*
X6541235Y11489234D01*
X6358830Y11586732D01*
X6198945Y11717945D01*
X6067732Y11877830D01*
X5970234Y12060235D01*
X5920928Y12222776D01*
X5910193Y12258164D01*
X5889920Y12464000D01*
X5910193Y12669836D01*
X5970233Y12867762D01*
X5970234Y12867765D01*
X6067732Y13050170D01*
X6198945Y13210055D01*
X6358830Y13341268D01*
X6541235Y13438766D01*
X6541238Y13438767D01*
X6739164Y13498807D01*
X6816293Y13506403D01*
X6893420Y13514000D01*
X6996580Y13514000D01*
X7073707Y13506403D01*
X7073707Y13506403D01*
G37*
G36*
X4533707Y13506403D02*
G01*
X4610836Y13498807D01*
X4808762Y13438767D01*
X4808765Y13438766D01*
X4991170Y13341268D01*
X5151055Y13210055D01*
X5282268Y13050170D01*
X5379766Y12867765D01*
X5379767Y12867762D01*
X5439807Y12669836D01*
X5460080Y12464000D01*
X5439807Y12258164D01*
X5429072Y12222776D01*
X5379766Y12060235D01*
X5282268Y11877830D01*
X5151055Y11717945D01*
X4991170Y11586732D01*
X4808765Y11489234D01*
X4808762Y11489233D01*
X4610836Y11429193D01*
X4533707Y11421596D01*
X4456580Y11414000D01*
X4353420Y11414000D01*
X4276293Y11421596D01*
X4199164Y11429193D01*
X4001238Y11489233D01*
X4001235Y11489234D01*
X3818830Y11586732D01*
X3658945Y11717945D01*
X3527732Y11877830D01*
X3430234Y12060235D01*
X3380928Y12222776D01*
X3370193Y12258164D01*
X3349920Y12464000D01*
X3370193Y12669836D01*
X3430233Y12867762D01*
X3430234Y12867765D01*
X3527732Y13050170D01*
X3658945Y13210055D01*
X3818830Y13341268D01*
X4001235Y13438766D01*
X4001238Y13438767D01*
X4199164Y13498807D01*
X4276293Y13506403D01*
X4353420Y13514000D01*
X4456580Y13514000D01*
X4533707Y13506403D01*
X4533707Y13506403D01*
G37*
G36*
X2915000Y11414000D02*
G01*
X815000Y11414000D01*
X815000Y13514000D01*
X2915000Y13514000D01*
X2915000Y11414000D01*
X2915000Y11414000D01*
G37*
G36*
X14270000Y11500000D02*
G01*
X12770000Y11500000D01*
X12770000Y13000000D01*
X14270000Y13000000D01*
X14270000Y11500000D01*
X14270000Y11500000D01*
G37*
G36*
X11470000Y11500000D02*
G01*
X9970000Y11500000D01*
X9970000Y13000000D01*
X11470000Y13000000D01*
X11470000Y11500000D01*
X11470000Y11500000D01*
G37*
G36*
X39176000Y13057598D02*
G01*
X39178402Y13033212D01*
X39185515Y13009763D01*
X39197066Y12988152D01*
X39212611Y12969210D01*
X39231553Y12953665D01*
X39253164Y12942114D01*
X39276613Y12935001D01*
X39300999Y12932599D01*
X39325385Y12935001D01*
X39359921Y12947358D01*
X39476825Y13009845D01*
X39608776Y13049872D01*
X39711610Y13060000D01*
X39780390Y13060000D01*
X39883224Y13049872D01*
X40015175Y13009845D01*
X40136781Y12944845D01*
X40243370Y12857370D01*
X40330845Y12750781D01*
X40395845Y12629175D01*
X40435872Y12497224D01*
X40449387Y12360000D01*
X40435872Y12222776D01*
X40395845Y12090825D01*
X40330845Y11969219D01*
X40243370Y11862630D01*
X40136781Y11775155D01*
X40015175Y11710155D01*
X39883224Y11670128D01*
X39780390Y11660000D01*
X39711610Y11660000D01*
X39608776Y11670128D01*
X39476825Y11710155D01*
X39359920Y11772642D01*
X39337284Y11782019D01*
X39313251Y11786799D01*
X39288747Y11786799D01*
X39264714Y11782019D01*
X39242075Y11772641D01*
X39221700Y11759027D01*
X39204373Y11741700D01*
X39190760Y11721326D01*
X39181382Y11698687D01*
X39176000Y11662402D01*
X39176000Y11660000D01*
X37776000Y11660000D01*
X37776000Y13060000D01*
X39176000Y13060000D01*
X39176000Y13057598D01*
X39176000Y13057598D01*
G37*
G36*
X51480000Y15393999D02*
G01*
X51482402Y15369613D01*
X51489515Y15346164D01*
X51501066Y15324553D01*
X51516611Y15305611D01*
X51535553Y15290066D01*
X51557164Y15278515D01*
X51580000Y15271588D01*
X51580000Y13216412D01*
X51557164Y13209485D01*
X51535553Y13197934D01*
X51516611Y13182389D01*
X51501066Y13163447D01*
X51489515Y13141836D01*
X51482402Y13118387D01*
X51480000Y13094001D01*
X51480000Y12144000D01*
X48880000Y12144000D01*
X48880000Y13094001D01*
X48877598Y13118387D01*
X48870485Y13141836D01*
X48858934Y13163447D01*
X48843389Y13182389D01*
X48824447Y13197934D01*
X48802836Y13209485D01*
X48780000Y13216412D01*
X48780000Y15271588D01*
X48802836Y15278515D01*
X48824447Y15290066D01*
X48843389Y15305611D01*
X48858934Y15324553D01*
X48870485Y15346164D01*
X48877598Y15369613D01*
X48880000Y15393999D01*
X48880000Y16344000D01*
X51480000Y16344000D01*
X51480000Y15393999D01*
X51480000Y15393999D01*
G37*
G36*
X57754249Y18729019D02*
G01*
X58027575Y18646106D01*
X58027578Y18646105D01*
X58279472Y18511465D01*
X58500266Y18330266D01*
X58681465Y18109473D01*
X58816105Y17857579D01*
X58816105Y17857578D01*
X58816106Y17857576D01*
X58899019Y17584250D01*
X58920000Y17371225D01*
X58920000Y14728775D01*
X58899019Y14515750D01*
X58820814Y14257945D01*
X58816105Y14242421D01*
X58681465Y13990527D01*
X58500266Y13769734D01*
X58279473Y13588535D01*
X58027579Y13453895D01*
X58027576Y13453894D01*
X57754250Y13370981D01*
X57470000Y13342985D01*
X57185751Y13370981D01*
X56912425Y13453894D01*
X56912422Y13453895D01*
X56660528Y13588535D01*
X56439735Y13769734D01*
X56258536Y13990527D01*
X56123896Y14242421D01*
X56119187Y14257945D01*
X56040982Y14515750D01*
X56020001Y14728775D01*
X56020000Y17371224D01*
X56040981Y17584249D01*
X56123894Y17857575D01*
X56123895Y17857578D01*
X56258535Y18109472D01*
X56439734Y18330266D01*
X56660527Y18511465D01*
X56912421Y18646105D01*
X56912424Y18646106D01*
X57185750Y18729019D01*
X57470000Y18757015D01*
X57754249Y18729019D01*
X57754249Y18729019D01*
G37*
G36*
X63729744Y18480828D02*
G01*
X63979508Y18405063D01*
X64209691Y18282028D01*
X64411450Y18116450D01*
X64577028Y17914692D01*
X64700063Y17684509D01*
X64775828Y17434745D01*
X64795000Y17240091D01*
X64795000Y14859909D01*
X64775828Y14665255D01*
X64700063Y14415491D01*
X64577028Y14185308D01*
X64411450Y13983550D01*
X64209692Y13817972D01*
X63979509Y13694937D01*
X63729745Y13619172D01*
X63470000Y13593589D01*
X63210256Y13619172D01*
X62960492Y13694937D01*
X62730309Y13817972D01*
X62528551Y13983550D01*
X62362973Y14185308D01*
X62239938Y14415491D01*
X62164173Y14665255D01*
X62145001Y14859909D01*
X62145000Y17240090D01*
X62164172Y17434744D01*
X62239937Y17684508D01*
X62362972Y17914691D01*
X62528550Y18116450D01*
X62730308Y18282028D01*
X62960491Y18405063D01*
X63210255Y18480828D01*
X63470000Y18506411D01*
X63729744Y18480828D01*
X63729744Y18480828D01*
G37*
G36*
X43145000Y13750000D02*
G01*
X41995000Y13750000D01*
X41995000Y14950000D01*
X43145000Y14950000D01*
X43145000Y13750000D01*
X43145000Y13750000D01*
G37*
G36*
X36320000Y13850000D02*
G01*
X35020000Y13850000D01*
X35020000Y14750000D01*
X36320000Y14750000D01*
X36320000Y13850000D01*
X36320000Y13850000D01*
G37*
G36*
X38085515Y16237164D02*
G01*
X38097066Y16215553D01*
X38112611Y16196611D01*
X38131553Y16181066D01*
X38153164Y16169515D01*
X38176613Y16162402D01*
X38200999Y16160000D01*
X39751001Y16160000D01*
X39775387Y16162402D01*
X39798836Y16169515D01*
X39820447Y16181066D01*
X39839389Y16196611D01*
X39854934Y16215553D01*
X39866485Y16237164D01*
X39873412Y16260000D01*
X40776000Y16260000D01*
X40776000Y13910000D01*
X39850377Y13910000D01*
X39839389Y13923389D01*
X39820447Y13938934D01*
X39798836Y13950485D01*
X39775387Y13957598D01*
X39751001Y13960000D01*
X38200999Y13960000D01*
X38176613Y13957598D01*
X38153164Y13950485D01*
X38131553Y13938934D01*
X38112611Y13923389D01*
X38101623Y13910000D01*
X37176000Y13910000D01*
X37176000Y16260000D01*
X38078588Y16260000D01*
X38085515Y16237164D01*
X38085515Y16237164D01*
G37*
G36*
X2905000Y13954000D02*
G01*
X805000Y13954000D01*
X805000Y16054000D01*
X2905000Y16054000D01*
X2905000Y13954000D01*
X2905000Y13954000D01*
G37*
G36*
X4523707Y16046403D02*
G01*
X4600836Y16038807D01*
X4798762Y15978767D01*
X4798765Y15978766D01*
X4981170Y15881268D01*
X5141055Y15750055D01*
X5272268Y15590170D01*
X5369766Y15407765D01*
X5369767Y15407762D01*
X5429807Y15209836D01*
X5450080Y15004000D01*
X5429807Y14798164D01*
X5369767Y14600238D01*
X5369766Y14600235D01*
X5272268Y14417830D01*
X5141055Y14257945D01*
X4981170Y14126732D01*
X4798765Y14029234D01*
X4798762Y14029233D01*
X4600836Y13969193D01*
X4523707Y13961597D01*
X4446580Y13954000D01*
X4343420Y13954000D01*
X4266293Y13961597D01*
X4189164Y13969193D01*
X3991238Y14029233D01*
X3991235Y14029234D01*
X3808830Y14126732D01*
X3648945Y14257945D01*
X3517732Y14417830D01*
X3420234Y14600235D01*
X3420233Y14600238D01*
X3360193Y14798164D01*
X3339920Y15004000D01*
X3360193Y15209836D01*
X3420233Y15407762D01*
X3420234Y15407765D01*
X3517732Y15590170D01*
X3648945Y15750055D01*
X3808830Y15881268D01*
X3991235Y15978766D01*
X3991238Y15978767D01*
X4189164Y16038807D01*
X4266293Y16046403D01*
X4343420Y16054000D01*
X4446580Y16054000D01*
X4523707Y16046403D01*
X4523707Y16046403D01*
G37*
G36*
X7063707Y16046403D02*
G01*
X7140836Y16038807D01*
X7338762Y15978767D01*
X7338765Y15978766D01*
X7521170Y15881268D01*
X7681055Y15750055D01*
X7812268Y15590170D01*
X7909766Y15407765D01*
X7909767Y15407762D01*
X7969807Y15209836D01*
X7990080Y15004000D01*
X7969807Y14798164D01*
X7909767Y14600238D01*
X7909766Y14600235D01*
X7812268Y14417830D01*
X7681055Y14257945D01*
X7521170Y14126732D01*
X7338765Y14029234D01*
X7338762Y14029233D01*
X7140836Y13969193D01*
X7063707Y13961597D01*
X6986580Y13954000D01*
X6883420Y13954000D01*
X6806293Y13961597D01*
X6729164Y13969193D01*
X6531238Y14029233D01*
X6531235Y14029234D01*
X6348830Y14126732D01*
X6188945Y14257945D01*
X6057732Y14417830D01*
X5960234Y14600235D01*
X5960233Y14600238D01*
X5900193Y14798164D01*
X5879920Y15004000D01*
X5900193Y15209836D01*
X5960233Y15407762D01*
X5960234Y15407765D01*
X6057732Y15590170D01*
X6188945Y15750055D01*
X6348830Y15881268D01*
X6531235Y15978766D01*
X6531238Y15978767D01*
X6729164Y16038807D01*
X6806293Y16046403D01*
X6883420Y16054000D01*
X6986580Y16054000D01*
X7063707Y16046403D01*
X7063707Y16046403D01*
G37*
G36*
X20986000Y14223000D02*
G01*
X19586000Y14223000D01*
X19586000Y16223000D01*
X20986000Y16223000D01*
X20986000Y14223000D01*
X20986000Y14223000D01*
G37*
G36*
X23986000Y14223000D02*
G01*
X22586000Y14223000D01*
X22586000Y16223000D01*
X23986000Y16223000D01*
X23986000Y14223000D01*
X23986000Y14223000D01*
G37*
G36*
X19160000Y14223000D02*
G01*
X17760000Y14223000D01*
X17760000Y16223000D01*
X19160000Y16223000D01*
X19160000Y14223000D01*
X19160000Y14223000D01*
G37*
G36*
X16160000Y14223000D02*
G01*
X14760000Y14223000D01*
X14760000Y16223000D01*
X16160000Y16223000D01*
X16160000Y14223000D01*
X16160000Y14223000D01*
G37*
G36*
X43145000Y15250000D02*
G01*
X41995000Y15250000D01*
X41995000Y16450000D01*
X43145000Y16450000D01*
X43145000Y15250000D01*
X43145000Y15250000D01*
G37*
G36*
X36320000Y15350000D02*
G01*
X35020000Y15350000D01*
X35020000Y16250000D01*
X36320000Y16250000D01*
X36320000Y15350000D01*
X36320000Y15350000D01*
G37*
G36*
X33325000Y15534000D02*
G01*
X29725000Y15534000D01*
X29725000Y17534000D01*
X33325000Y17534000D01*
X33325000Y15534000D01*
X33325000Y15534000D01*
G37*
G36*
X28325000Y15534000D02*
G01*
X24725000Y15534000D01*
X24725000Y17534000D01*
X28325000Y17534000D01*
X28325000Y15534000D01*
X28325000Y15534000D01*
G37*
G36*
X7063707Y18586403D02*
G01*
X7140836Y18578807D01*
X7338762Y18518767D01*
X7338765Y18518766D01*
X7521170Y18421268D01*
X7681055Y18290055D01*
X7812268Y18130170D01*
X7909766Y17947765D01*
X7909767Y17947762D01*
X7969807Y17749836D01*
X7990080Y17544000D01*
X7969807Y17338164D01*
X7940055Y17240085D01*
X7909766Y17140235D01*
X7812268Y16957830D01*
X7681055Y16797945D01*
X7521170Y16666732D01*
X7338765Y16569234D01*
X7338762Y16569233D01*
X7140836Y16509193D01*
X7063707Y16501596D01*
X6986580Y16494000D01*
X6883420Y16494000D01*
X6806293Y16501596D01*
X6729164Y16509193D01*
X6531238Y16569233D01*
X6531235Y16569234D01*
X6348830Y16666732D01*
X6188945Y16797945D01*
X6057732Y16957830D01*
X5960234Y17140235D01*
X5929945Y17240085D01*
X5900193Y17338164D01*
X5879920Y17544000D01*
X5900193Y17749836D01*
X5960233Y17947762D01*
X5960234Y17947765D01*
X6057732Y18130170D01*
X6188945Y18290055D01*
X6348830Y18421268D01*
X6531235Y18518766D01*
X6531238Y18518767D01*
X6729164Y18578807D01*
X6806293Y18586403D01*
X6883420Y18594000D01*
X6986580Y18594000D01*
X7063707Y18586403D01*
X7063707Y18586403D01*
G37*
G36*
X4523707Y18586403D02*
G01*
X4600836Y18578807D01*
X4798762Y18518767D01*
X4798765Y18518766D01*
X4981170Y18421268D01*
X5141055Y18290055D01*
X5272268Y18130170D01*
X5369766Y17947765D01*
X5369767Y17947762D01*
X5429807Y17749836D01*
X5450080Y17544000D01*
X5429807Y17338164D01*
X5400055Y17240085D01*
X5369766Y17140235D01*
X5272268Y16957830D01*
X5141055Y16797945D01*
X4981170Y16666732D01*
X4798765Y16569234D01*
X4798762Y16569233D01*
X4600836Y16509193D01*
X4523707Y16501596D01*
X4446580Y16494000D01*
X4343420Y16494000D01*
X4266293Y16501596D01*
X4189164Y16509193D01*
X3991238Y16569233D01*
X3991235Y16569234D01*
X3808830Y16666732D01*
X3648945Y16797945D01*
X3517732Y16957830D01*
X3420234Y17140235D01*
X3389945Y17240085D01*
X3360193Y17338164D01*
X3339920Y17544000D01*
X3360193Y17749836D01*
X3420233Y17947762D01*
X3420234Y17947765D01*
X3517732Y18130170D01*
X3648945Y18290055D01*
X3808830Y18421268D01*
X3991235Y18518766D01*
X3991238Y18518767D01*
X4189164Y18578807D01*
X4266293Y18586403D01*
X4343420Y18594000D01*
X4446580Y18594000D01*
X4523707Y18586403D01*
X4523707Y18586403D01*
G37*
G36*
X2905000Y16494000D02*
G01*
X805000Y16494000D01*
X805000Y18594000D01*
X2905000Y18594000D01*
X2905000Y16494000D01*
X2905000Y16494000D01*
G37*
G36*
X55330000Y16844000D02*
G01*
X54030000Y16844000D01*
X54030000Y17744000D01*
X55330000Y17744000D01*
X55330000Y16844000D01*
X55330000Y16844000D01*
G37*
G36*
X22374000Y16934000D02*
G01*
X21174000Y16934000D01*
X21174000Y18084000D01*
X22374000Y18084000D01*
X22374000Y16934000D01*
X22374000Y16934000D01*
G37*
G36*
X19072000Y16934000D02*
G01*
X17872000Y16934000D01*
X17872000Y18084000D01*
X19072000Y18084000D01*
X19072000Y16934000D01*
X19072000Y16934000D01*
G37*
G36*
X17572000Y16934000D02*
G01*
X16372000Y16934000D01*
X16372000Y18084000D01*
X17572000Y18084000D01*
X17572000Y16934000D01*
X17572000Y16934000D01*
G37*
G36*
X20874000Y16934000D02*
G01*
X19674000Y16934000D01*
X19674000Y18084000D01*
X20874000Y18084000D01*
X20874000Y16934000D01*
X20874000Y16934000D01*
G37*
G36*
X50430000Y17069000D02*
G01*
X49230000Y17069000D01*
X49230000Y18219000D01*
X50430000Y18219000D01*
X50430000Y17069000D01*
X50430000Y17069000D01*
G37*
G36*
X51930000Y17069000D02*
G01*
X50730000Y17069000D01*
X50730000Y18219000D01*
X51930000Y18219000D01*
X51930000Y17069000D01*
X51930000Y17069000D01*
G37*
G36*
X55330000Y18344000D02*
G01*
X54030000Y18344000D01*
X54030000Y19244000D01*
X55330000Y19244000D01*
X55330000Y18344000D01*
X55330000Y18344000D01*
G37*
G36*
X40350000Y18770000D02*
G01*
X39450000Y18770000D01*
X39450000Y20070000D01*
X40350000Y20070000D01*
X40350000Y18770000D01*
X40350000Y18770000D01*
G37*
G36*
X38850000Y18770000D02*
G01*
X37950000Y18770000D01*
X37950000Y20070000D01*
X38850000Y20070000D01*
X38850000Y18770000D01*
X38850000Y18770000D01*
G37*
G36*
X22095000Y25334000D02*
G01*
X21764999Y25334000D01*
X21740613Y25331598D01*
X21717164Y25324485D01*
X21695553Y25312934D01*
X21676611Y25297389D01*
X21661066Y25278447D01*
X21649515Y25256836D01*
X21642402Y25233387D01*
X21640000Y25209001D01*
X21640000Y22318999D01*
X21642402Y22294613D01*
X21649515Y22271164D01*
X21661066Y22249553D01*
X21676611Y22230611D01*
X21695553Y22215066D01*
X21717164Y22203515D01*
X21740613Y22196402D01*
X21764999Y22194000D01*
X22095000Y22194000D01*
X22095000Y19594000D01*
X17085000Y19594000D01*
X17085000Y22194000D01*
X17415001Y22194000D01*
X17439387Y22196402D01*
X17462836Y22203515D01*
X17484447Y22215066D01*
X17503389Y22230611D01*
X17518934Y22249553D01*
X17530485Y22271164D01*
X17537598Y22294613D01*
X17540000Y22318999D01*
X17540000Y25209001D01*
X17537598Y25233387D01*
X17530485Y25256836D01*
X17518934Y25278447D01*
X17503389Y25297389D01*
X17484447Y25312934D01*
X17462836Y25324485D01*
X17439387Y25331598D01*
X17415001Y25334000D01*
X17085000Y25334000D01*
X17085000Y27934000D01*
X22095000Y27934000D01*
X22095000Y25334000D01*
X22095000Y25334000D01*
G37*
G36*
X16011000Y20350000D02*
G01*
X14861000Y20350000D01*
X14861000Y21550000D01*
X16011000Y21550000D01*
X16011000Y20350000D01*
X16011000Y20350000D01*
G37*
G36*
X34570000Y20475000D02*
G01*
X33370000Y20475000D01*
X33370000Y21625000D01*
X34570000Y21625000D01*
X34570000Y20475000D01*
X34570000Y20475000D01*
G37*
G36*
X36070000Y20475000D02*
G01*
X34870000Y20475000D01*
X34870000Y21625000D01*
X36070000Y21625000D01*
X36070000Y20475000D01*
X36070000Y20475000D01*
G37*
G36*
X55830000Y20680000D02*
G01*
X54630000Y20680000D01*
X54630000Y21880000D01*
X55830000Y21880000D01*
X55830000Y20680000D01*
X55830000Y20680000D01*
G37*
G36*
X54230000Y20680000D02*
G01*
X53030000Y20680000D01*
X53030000Y21880000D01*
X54230000Y21880000D01*
X54230000Y20680000D01*
X54230000Y20680000D01*
G37*
G36*
X46295000Y20700000D02*
G01*
X45145000Y20700000D01*
X45145000Y21900000D01*
X46295000Y21900000D01*
X46295000Y20700000D01*
X46295000Y20700000D01*
G37*
G36*
X50773200Y24420600D02*
G01*
X50775602Y24396214D01*
X50782715Y24372765D01*
X50794266Y24351154D01*
X50809811Y24332212D01*
X50828753Y24316667D01*
X50850364Y24305116D01*
X50873813Y24298003D01*
X50898199Y24295601D01*
X51700300Y24295601D01*
X51700300Y21692399D01*
X50898199Y21692399D01*
X50873813Y21689997D01*
X50850364Y21682884D01*
X50828753Y21671333D01*
X50809811Y21655788D01*
X50794266Y21636846D01*
X50782715Y21615235D01*
X50775602Y21591786D01*
X50773200Y21567400D01*
X50773200Y21549400D01*
X48620600Y21549400D01*
X48620600Y21567400D01*
X48618198Y21591786D01*
X48611085Y21615235D01*
X48599534Y21636846D01*
X48583989Y21655788D01*
X48565047Y21671333D01*
X48543436Y21682884D01*
X48519987Y21689997D01*
X48495601Y21692399D01*
X47693500Y21692399D01*
X47693500Y24295601D01*
X48495601Y24295601D01*
X48519987Y24298003D01*
X48543436Y24305116D01*
X48565047Y24316667D01*
X48583989Y24332212D01*
X48599534Y24351154D01*
X48611085Y24372765D01*
X48618198Y24396214D01*
X48620600Y24420600D01*
X48620600Y24438600D01*
X50773200Y24438600D01*
X50773200Y24420600D01*
X50773200Y24420600D01*
G37*
G36*
X26640000Y21814000D02*
G01*
X24240000Y21814000D01*
X24240000Y25714000D01*
X26640000Y25714000D01*
X26640000Y21814000D01*
X26640000Y21814000D01*
G37*
G36*
X32540000Y21814000D02*
G01*
X30140000Y21814000D01*
X30140000Y25714000D01*
X32540000Y25714000D01*
X32540000Y21814000D01*
X32540000Y21814000D01*
G37*
G36*
X16011000Y21850000D02*
G01*
X14861000Y21850000D01*
X14861000Y23050000D01*
X16011000Y23050000D01*
X16011000Y21850000D01*
X16011000Y21850000D01*
G37*
G36*
X63974530Y23479123D02*
G01*
X64026010Y23463507D01*
X64073445Y23438152D01*
X64115027Y23404027D01*
X64149152Y23362445D01*
X64174507Y23315010D01*
X64190123Y23263530D01*
X64196000Y23203860D01*
X64196000Y22416140D01*
X64190123Y22356470D01*
X64174507Y22304990D01*
X64149152Y22257555D01*
X64115027Y22215973D01*
X64073445Y22181848D01*
X64026010Y22156493D01*
X63974530Y22140877D01*
X63914860Y22135000D01*
X63027140Y22135000D01*
X62967470Y22140877D01*
X62915990Y22156493D01*
X62868555Y22181848D01*
X62826973Y22215973D01*
X62792848Y22257555D01*
X62767493Y22304990D01*
X62751877Y22356470D01*
X62746000Y22416140D01*
X62746000Y23203860D01*
X62751877Y23263530D01*
X62767493Y23315010D01*
X62792848Y23362445D01*
X62826973Y23404027D01*
X62868555Y23438152D01*
X62915990Y23463507D01*
X62967470Y23479123D01*
X63027140Y23485000D01*
X63914860Y23485000D01*
X63974530Y23479123D01*
X63974530Y23479123D01*
G37*
G36*
X62224530Y23479123D02*
G01*
X62276010Y23463507D01*
X62323445Y23438152D01*
X62365027Y23404027D01*
X62399152Y23362445D01*
X62424507Y23315010D01*
X62440123Y23263530D01*
X62446000Y23203860D01*
X62446000Y22416140D01*
X62440123Y22356470D01*
X62424507Y22304990D01*
X62399152Y22257555D01*
X62365027Y22215973D01*
X62323445Y22181848D01*
X62276010Y22156493D01*
X62224530Y22140877D01*
X62164860Y22135000D01*
X61277140Y22135000D01*
X61217470Y22140877D01*
X61165990Y22156493D01*
X61118555Y22181848D01*
X61076973Y22215973D01*
X61042848Y22257555D01*
X61017493Y22304990D01*
X61001877Y22356470D01*
X60996000Y22416140D01*
X60996000Y23203860D01*
X61001877Y23263530D01*
X61017493Y23315010D01*
X61042848Y23362445D01*
X61076973Y23404027D01*
X61118555Y23438152D01*
X61165990Y23463507D01*
X61217470Y23479123D01*
X61277140Y23485000D01*
X62164860Y23485000D01*
X62224530Y23479123D01*
X62224530Y23479123D01*
G37*
G36*
X60106000Y22180000D02*
G01*
X59206000Y22180000D01*
X59206000Y23480000D01*
X60106000Y23480000D01*
X60106000Y22180000D01*
X60106000Y22180000D01*
G37*
G36*
X58606000Y22180000D02*
G01*
X57706000Y22180000D01*
X57706000Y23480000D01*
X58606000Y23480000D01*
X58606000Y22180000D01*
X58606000Y22180000D01*
G37*
G36*
X46295000Y22200000D02*
G01*
X45145000Y22200000D01*
X45145000Y23400000D01*
X46295000Y23400000D01*
X46295000Y22200000D01*
X46295000Y22200000D01*
G37*
G36*
X55630000Y22950000D02*
G01*
X54730000Y22950000D01*
X54730000Y24250000D01*
X55630000Y24250000D01*
X55630000Y22950000D01*
X55630000Y22950000D01*
G37*
G36*
X54130000Y22950000D02*
G01*
X53230000Y22950000D01*
X53230000Y24250000D01*
X54130000Y24250000D01*
X54130000Y22950000D01*
X54130000Y22950000D01*
G37*
G36*
X62598707Y27292404D02*
G01*
X62675836Y27284807D01*
X62873762Y27224767D01*
X62873765Y27224766D01*
X63056170Y27127268D01*
X63216055Y26996055D01*
X63347268Y26836170D01*
X63444766Y26653765D01*
X63444767Y26653762D01*
X63504807Y26455836D01*
X63525080Y26250000D01*
X63504807Y26044164D01*
X63444767Y25846238D01*
X63444766Y25846235D01*
X63347268Y25663830D01*
X63216055Y25503945D01*
X63056170Y25372732D01*
X62873765Y25275234D01*
X62873762Y25275233D01*
X62675836Y25215193D01*
X62612967Y25209001D01*
X62521580Y25200000D01*
X62418420Y25200000D01*
X62327033Y25209001D01*
X62264164Y25215193D01*
X62066238Y25275233D01*
X62066235Y25275234D01*
X61883830Y25372732D01*
X61723945Y25503945D01*
X61592732Y25663830D01*
X61495234Y25846235D01*
X61495233Y25846238D01*
X61435193Y26044164D01*
X61414920Y26250000D01*
X61435193Y26455836D01*
X61495233Y26653762D01*
X61495234Y26653765D01*
X61592732Y26836170D01*
X61723945Y26996055D01*
X61883830Y27127268D01*
X62066235Y27224766D01*
X62066238Y27224767D01*
X62264164Y27284807D01*
X62341293Y27292404D01*
X62418420Y27300000D01*
X62521580Y27300000D01*
X62598707Y27292404D01*
X62598707Y27292404D01*
G37*
G36*
X54080000Y25310000D02*
G01*
X53180000Y25310000D01*
X53180000Y26610000D01*
X54080000Y26610000D01*
X54080000Y25310000D01*
X54080000Y25310000D01*
G37*
G36*
X55580000Y25310000D02*
G01*
X54680000Y25310000D01*
X54680000Y26610000D01*
X55580000Y26610000D01*
X55580000Y25310000D01*
X55580000Y25310000D01*
G37*
G36*
X49460000Y25375000D02*
G01*
X48260000Y25375000D01*
X48260000Y26525000D01*
X49460000Y26525000D01*
X49460000Y25375000D01*
X49460000Y25375000D01*
G37*
G36*
X50960000Y25375000D02*
G01*
X49760000Y25375000D01*
X49760000Y26525000D01*
X50960000Y26525000D01*
X50960000Y25375000D01*
X50960000Y25375000D01*
G37*
G36*
X37420000Y25550000D02*
G01*
X36020000Y25550000D01*
X36020000Y27550000D01*
X37420000Y27550000D01*
X37420000Y25550000D01*
X37420000Y25550000D01*
G37*
G36*
X34420000Y25550000D02*
G01*
X33020000Y25550000D01*
X33020000Y27550000D01*
X34420000Y27550000D01*
X34420000Y25550000D01*
X34420000Y25550000D01*
G37*
G36*
X13580000Y28393743D02*
G01*
X13579515Y28392836D01*
X13572402Y28369387D01*
X13570000Y28345001D01*
X13570000Y26930000D01*
X12670000Y26930000D01*
X12670000Y28306257D01*
X12670485Y28307164D01*
X12677598Y28330613D01*
X12680000Y28354999D01*
X12680000Y29770000D01*
X13580000Y29770000D01*
X13580000Y28393743D01*
X13580000Y28393743D01*
G37*
G36*
X15080000Y28393743D02*
G01*
X15079515Y28392836D01*
X15072402Y28369387D01*
X15070000Y28345001D01*
X15070000Y26930000D01*
X14170000Y26930000D01*
X14170000Y28306257D01*
X14170485Y28307164D01*
X14177598Y28330613D01*
X14180000Y28354999D01*
X14180000Y29770000D01*
X15080000Y29770000D01*
X15080000Y28393743D01*
X15080000Y28393743D01*
G37*
G36*
X62598707Y29832403D02*
G01*
X62675836Y29824807D01*
X62856511Y29770000D01*
X62873765Y29764766D01*
X63056170Y29667268D01*
X63216055Y29536055D01*
X63347268Y29376170D01*
X63444766Y29193765D01*
X63444767Y29193762D01*
X63504807Y28995836D01*
X63525080Y28790000D01*
X63504807Y28584164D01*
X63446768Y28392836D01*
X63444766Y28386235D01*
X63347268Y28203830D01*
X63216055Y28043945D01*
X63056170Y27912732D01*
X62873765Y27815234D01*
X62873762Y27815233D01*
X62675836Y27755193D01*
X62598707Y27747596D01*
X62521580Y27740000D01*
X62418420Y27740000D01*
X62341293Y27747596D01*
X62264164Y27755193D01*
X62066238Y27815233D01*
X62066235Y27815234D01*
X61883830Y27912732D01*
X61723945Y28043945D01*
X61592732Y28203830D01*
X61495234Y28386235D01*
X61493232Y28392836D01*
X61435193Y28584164D01*
X61414920Y28790000D01*
X61435193Y28995836D01*
X61495233Y29193762D01*
X61495234Y29193765D01*
X61592732Y29376170D01*
X61723945Y29536055D01*
X61883830Y29667268D01*
X62066235Y29764766D01*
X62083489Y29770000D01*
X62264164Y29824807D01*
X62341293Y29832403D01*
X62418420Y29840000D01*
X62521580Y29840000D01*
X62598707Y29832403D01*
X62598707Y29832403D01*
G37*
G36*
X46570000Y28300000D02*
G01*
X45670000Y28300000D01*
X45670000Y29600000D01*
X46570000Y29600000D01*
X46570000Y28300000D01*
X46570000Y28300000D01*
G37*
G36*
X50670000Y28300000D02*
G01*
X49770000Y28300000D01*
X49770000Y29600000D01*
X50670000Y29600000D01*
X50670000Y28300000D01*
X50670000Y28300000D01*
G37*
G36*
X49170000Y28300000D02*
G01*
X47170000Y28300000D01*
X47170000Y29600000D01*
X49170000Y29600000D01*
X49170000Y28300000D01*
X49170000Y28300000D01*
G37*
G36*
X25917000Y28605000D02*
G01*
X24767000Y28605000D01*
X24767000Y29805000D01*
X25917000Y29805000D01*
X25917000Y28605000D01*
X25917000Y28605000D01*
G37*
G36*
X24468000Y28755000D02*
G01*
X23168000Y28755000D01*
X23168000Y29655000D01*
X24468000Y29655000D01*
X24468000Y28755000D01*
X24468000Y28755000D01*
G37*
G36*
X20795000Y28950000D02*
G01*
X19645000Y28950000D01*
X19645000Y30150000D01*
X20795000Y30150000D01*
X20795000Y28950000D01*
X20795000Y28950000D01*
G37*
G36*
X25917000Y30105000D02*
G01*
X24767000Y30105000D01*
X24767000Y31305000D01*
X25917000Y31305000D01*
X25917000Y30105000D01*
X25917000Y30105000D01*
G37*
G36*
X46745000Y30200000D02*
G01*
X45595000Y30200000D01*
X45595000Y31400000D01*
X46745000Y31400000D01*
X46745000Y30200000D01*
X46745000Y30200000D01*
G37*
G36*
X24468000Y30255000D02*
G01*
X23168000Y30255000D01*
X23168000Y31155000D01*
X24468000Y31155000D01*
X24468000Y30255000D01*
X24468000Y30255000D01*
G37*
G36*
X62598707Y32372404D02*
G01*
X62675836Y32364807D01*
X62873762Y32304767D01*
X62873765Y32304766D01*
X63056170Y32207268D01*
X63216055Y32076055D01*
X63347268Y31916170D01*
X63444766Y31733765D01*
X63444767Y31733762D01*
X63504807Y31535836D01*
X63525080Y31330000D01*
X63504807Y31124164D01*
X63444767Y30926238D01*
X63444766Y30926235D01*
X63347268Y30743830D01*
X63216055Y30583945D01*
X63056170Y30452732D01*
X62873765Y30355234D01*
X62873762Y30355233D01*
X62675836Y30295193D01*
X62598707Y30287597D01*
X62521580Y30280000D01*
X62418420Y30280000D01*
X62341293Y30287597D01*
X62264164Y30295193D01*
X62066238Y30355233D01*
X62066235Y30355234D01*
X61883830Y30452732D01*
X61723945Y30583945D01*
X61592732Y30743830D01*
X61495234Y30926235D01*
X61495233Y30926238D01*
X61435193Y31124164D01*
X61414920Y31330000D01*
X61435193Y31535836D01*
X61495233Y31733762D01*
X61495234Y31733765D01*
X61592732Y31916170D01*
X61723945Y32076055D01*
X61883830Y32207268D01*
X62066235Y32304766D01*
X62066238Y32304767D01*
X62264164Y32364807D01*
X62341293Y32372404D01*
X62418420Y32380000D01*
X62521580Y32380000D01*
X62598707Y32372404D01*
X62598707Y32372404D01*
G37*
G36*
X49400000Y30375000D02*
G01*
X47940000Y30375000D01*
X47940000Y33325000D01*
X49400000Y33325000D01*
X49400000Y30375000D01*
X49400000Y30375000D01*
G37*
G36*
X51600000Y30375000D02*
G01*
X50140000Y30375000D01*
X50140000Y31425000D01*
X51600000Y31425000D01*
X51600000Y30375000D01*
X51600000Y30375000D01*
G37*
G36*
X20795000Y30450000D02*
G01*
X19645000Y30450000D01*
X19645000Y31650000D01*
X20795000Y31650000D01*
X20795000Y30450000D01*
X20795000Y30450000D01*
G37*
G36*
X16850000Y31100000D02*
G01*
X15950000Y31100000D01*
X15950000Y32400000D01*
X16850000Y32400000D01*
X16850000Y31100000D01*
X16850000Y31100000D01*
G37*
G36*
X18350000Y31100000D02*
G01*
X17450000Y31100000D01*
X17450000Y32400000D01*
X18350000Y32400000D01*
X18350000Y31100000D01*
X18350000Y31100000D01*
G37*
G36*
X13920000Y31175000D02*
G01*
X12720000Y31175000D01*
X12720000Y32325000D01*
X13920000Y32325000D01*
X13920000Y31175000D01*
X13920000Y31175000D01*
G37*
G36*
X15420000Y31175000D02*
G01*
X14220000Y31175000D01*
X14220000Y32325000D01*
X15420000Y32325000D01*
X15420000Y31175000D01*
X15420000Y31175000D01*
G37*
G36*
X46745000Y31700000D02*
G01*
X45595000Y31700000D01*
X45595000Y32900000D01*
X46745000Y32900000D01*
X46745000Y31700000D01*
X46745000Y31700000D01*
G37*
G36*
X51600000Y32275000D02*
G01*
X50140000Y32275000D01*
X50140000Y33325000D01*
X51600000Y33325000D01*
X51600000Y32275000D01*
X51600000Y32275000D01*
G37*
G36*
X63520000Y32820000D02*
G01*
X61420000Y32820000D01*
X61420000Y34920000D01*
X63520000Y34920000D01*
X63520000Y32820000D01*
X63520000Y32820000D01*
G37*
G36*
X57920000Y34144000D02*
G01*
X57020000Y34144000D01*
X57020000Y35444000D01*
X57920000Y35444000D01*
X57920000Y34144000D01*
X57920000Y34144000D01*
G37*
G36*
X59420000Y34144000D02*
G01*
X58520000Y34144000D01*
X58520000Y35444000D01*
X59420000Y35444000D01*
X59420000Y34144000D01*
X59420000Y34144000D01*
G37*
G36*
X11120000Y35050000D02*
G01*
X7820000Y35050000D01*
X7820000Y36250000D01*
X11120000Y36250000D01*
X11120000Y35050000D01*
X11120000Y35050000D01*
G37*
G36*
X11120000Y36850000D02*
G01*
X7820000Y36850000D01*
X7820000Y38050000D01*
X11120000Y38050000D01*
X11120000Y36850000D01*
X11120000Y36850000D01*
G37*
G36*
X2877205Y38841107D02*
G01*
X2914908Y38829670D01*
X2929078Y38822096D01*
X2951717Y38812720D01*
X2975751Y38807940D01*
X3000255Y38807940D01*
X3024288Y38812721D01*
X3046922Y38822096D01*
X3061092Y38829670D01*
X3098795Y38841107D01*
X3144140Y38845573D01*
X3631860Y38845573D01*
X3650197Y38843767D01*
X3662449Y38843165D01*
X3680869Y38843165D01*
X3732358Y38838094D01*
X3816439Y38821369D01*
X3832403Y38816526D01*
X3860048Y38808141D01*
X3860054Y38808139D01*
X3865960Y38806347D01*
X3945158Y38773543D01*
X3990791Y38749152D01*
X4062076Y38701521D01*
X4066847Y38697605D01*
X4066849Y38697604D01*
X4097303Y38672611D01*
X4097309Y38672605D01*
X4102072Y38668696D01*
X4162696Y38608072D01*
X4166605Y38603309D01*
X4166611Y38603303D01*
X4191604Y38572849D01*
X4195521Y38568076D01*
X4243152Y38496791D01*
X4267543Y38451158D01*
X4300347Y38371960D01*
X4302139Y38366054D01*
X4302141Y38366048D01*
X4302814Y38363829D01*
X4315369Y38322439D01*
X4332094Y38238358D01*
X4337165Y38186869D01*
X4337165Y38168449D01*
X4337767Y38156197D01*
X4339573Y38137860D01*
X4339573Y37650140D01*
X4337767Y37631803D01*
X4337165Y37619551D01*
X4337165Y37601131D01*
X4332094Y37549642D01*
X4315369Y37465561D01*
X4313576Y37459651D01*
X4302141Y37421952D01*
X4302139Y37421946D01*
X4300347Y37416040D01*
X4267543Y37336842D01*
X4243152Y37291209D01*
X4195521Y37219924D01*
X4191605Y37215153D01*
X4191604Y37215151D01*
X4166611Y37184697D01*
X4166605Y37184691D01*
X4162696Y37179928D01*
X4102072Y37119304D01*
X4097309Y37115395D01*
X4097303Y37115389D01*
X4066849Y37090396D01*
X4062076Y37086479D01*
X3990791Y37038848D01*
X3945158Y37014457D01*
X3865960Y36981653D01*
X3860054Y36979861D01*
X3860048Y36979859D01*
X3832403Y36971474D01*
X3816439Y36966631D01*
X3732358Y36949906D01*
X3680869Y36944835D01*
X3662449Y36944835D01*
X3650197Y36944233D01*
X3631860Y36942427D01*
X3144140Y36942427D01*
X3098795Y36946893D01*
X3061092Y36958330D01*
X3046922Y36965904D01*
X3024283Y36975280D01*
X3000249Y36980060D01*
X2975745Y36980060D01*
X2951712Y36975279D01*
X2929078Y36965904D01*
X2914908Y36958330D01*
X2877205Y36946893D01*
X2831860Y36942427D01*
X2344140Y36942427D01*
X2325803Y36944233D01*
X2313551Y36944835D01*
X2295131Y36944835D01*
X2243642Y36949906D01*
X2159561Y36966631D01*
X2143597Y36971474D01*
X2115952Y36979859D01*
X2115946Y36979861D01*
X2110040Y36981653D01*
X2030842Y37014457D01*
X1985209Y37038848D01*
X1913924Y37086479D01*
X1909151Y37090396D01*
X1878697Y37115389D01*
X1878691Y37115395D01*
X1873928Y37119304D01*
X1813304Y37179928D01*
X1809395Y37184691D01*
X1809389Y37184697D01*
X1784396Y37215151D01*
X1784395Y37215153D01*
X1780479Y37219924D01*
X1732848Y37291209D01*
X1708457Y37336842D01*
X1675653Y37416040D01*
X1673861Y37421946D01*
X1673859Y37421952D01*
X1662424Y37459651D01*
X1660631Y37465561D01*
X1643906Y37549642D01*
X1638835Y37601131D01*
X1638835Y37619551D01*
X1638233Y37631803D01*
X1636427Y37650140D01*
X1636427Y38137860D01*
X1638233Y38156197D01*
X1638835Y38168449D01*
X1638835Y38186869D01*
X1643906Y38238358D01*
X1660631Y38322439D01*
X1673186Y38363829D01*
X1673859Y38366048D01*
X1673861Y38366054D01*
X1675653Y38371960D01*
X1708457Y38451158D01*
X1732848Y38496791D01*
X1780479Y38568076D01*
X1784396Y38572849D01*
X1809389Y38603303D01*
X1809395Y38603309D01*
X1813304Y38608072D01*
X1873928Y38668696D01*
X1878691Y38672605D01*
X1878697Y38672611D01*
X1909151Y38697604D01*
X1909153Y38697605D01*
X1913924Y38701521D01*
X1985209Y38749152D01*
X2030842Y38773543D01*
X2110040Y38806347D01*
X2115946Y38808139D01*
X2115952Y38808141D01*
X2143597Y38816526D01*
X2159561Y38821369D01*
X2243642Y38838094D01*
X2295131Y38843165D01*
X2313551Y38843165D01*
X2325803Y38843767D01*
X2344140Y38845573D01*
X2831860Y38845573D01*
X2877205Y38841107D01*
X2877205Y38841107D01*
G37*
G36*
X7188000Y37244000D02*
G01*
X6288000Y37244000D01*
X6288000Y38544000D01*
X7188000Y38544000D01*
X7188000Y37244000D01*
X7188000Y37244000D01*
G37*
G36*
X5688000Y37244000D02*
G01*
X4788000Y37244000D01*
X4788000Y38544000D01*
X5688000Y38544000D01*
X5688000Y37244000D01*
X5688000Y37244000D01*
G37*
G36*
X57920000Y37394000D02*
G01*
X57020000Y37394000D01*
X57020000Y38694000D01*
X57920000Y38694000D01*
X57920000Y37394000D01*
X57920000Y37394000D01*
G37*
G36*
X59420000Y37394000D02*
G01*
X58520000Y37394000D01*
X58520000Y38694000D01*
X59420000Y38694000D01*
X59420000Y37394000D01*
X59420000Y37394000D01*
G37*
G36*
X51378707Y39992404D02*
G01*
X51455836Y39984807D01*
X51653762Y39924767D01*
X51653765Y39924766D01*
X51836170Y39827268D01*
X51996055Y39696055D01*
X52127268Y39536170D01*
X52224766Y39353765D01*
X52224767Y39353762D01*
X52284807Y39155836D01*
X52305080Y38950000D01*
X52284807Y38744164D01*
X52243524Y38608072D01*
X52224766Y38546235D01*
X52127268Y38363830D01*
X51996055Y38203945D01*
X51836170Y38072732D01*
X51653765Y37975234D01*
X51653762Y37975233D01*
X51455836Y37915193D01*
X51378707Y37907597D01*
X51301580Y37900000D01*
X51198420Y37900000D01*
X51121293Y37907597D01*
X51044164Y37915193D01*
X50846238Y37975233D01*
X50846235Y37975234D01*
X50663830Y38072732D01*
X50503945Y38203945D01*
X50372732Y38363830D01*
X50275234Y38546235D01*
X50256476Y38608072D01*
X50215193Y38744164D01*
X50194920Y38950000D01*
X50215193Y39155836D01*
X50275233Y39353762D01*
X50275234Y39353765D01*
X50372732Y39536170D01*
X50503945Y39696055D01*
X50663830Y39827268D01*
X50846235Y39924766D01*
X50846238Y39924767D01*
X51044164Y39984807D01*
X51121293Y39992404D01*
X51198420Y40000000D01*
X51301580Y40000000D01*
X51378707Y39992404D01*
X51378707Y39992404D01*
G37*
G36*
X54840000Y37900000D02*
G01*
X52740000Y37900000D01*
X52740000Y40000000D01*
X54840000Y40000000D01*
X54840000Y37900000D01*
X54840000Y37900000D01*
G37*
G36*
X48838707Y39992404D02*
G01*
X48915836Y39984807D01*
X49113762Y39924767D01*
X49113765Y39924766D01*
X49296170Y39827268D01*
X49456055Y39696055D01*
X49587268Y39536170D01*
X49684766Y39353765D01*
X49684767Y39353762D01*
X49744807Y39155836D01*
X49765080Y38950000D01*
X49744807Y38744164D01*
X49703524Y38608072D01*
X49684766Y38546235D01*
X49587268Y38363830D01*
X49456055Y38203945D01*
X49296170Y38072732D01*
X49113765Y37975234D01*
X49113762Y37975233D01*
X48915836Y37915193D01*
X48838707Y37907597D01*
X48761580Y37900000D01*
X48658420Y37900000D01*
X48581293Y37907597D01*
X48504164Y37915193D01*
X48306238Y37975233D01*
X48306235Y37975234D01*
X48123830Y38072732D01*
X47963945Y38203945D01*
X47832732Y38363830D01*
X47735234Y38546235D01*
X47716476Y38608072D01*
X47675193Y38744164D01*
X47654920Y38950000D01*
X47675193Y39155836D01*
X47735233Y39353762D01*
X47735234Y39353765D01*
X47832732Y39536170D01*
X47963945Y39696055D01*
X48123830Y39827268D01*
X48306235Y39924766D01*
X48306238Y39924767D01*
X48504164Y39984807D01*
X48581293Y39992404D01*
X48658420Y40000000D01*
X48761580Y40000000D01*
X48838707Y39992404D01*
X48838707Y39992404D01*
G37*
G36*
X46298707Y39992404D02*
G01*
X46375836Y39984807D01*
X46573762Y39924767D01*
X46573765Y39924766D01*
X46756170Y39827268D01*
X46916055Y39696055D01*
X47047268Y39536170D01*
X47144766Y39353765D01*
X47144767Y39353762D01*
X47204807Y39155836D01*
X47225080Y38950000D01*
X47204807Y38744164D01*
X47163524Y38608072D01*
X47144766Y38546235D01*
X47047268Y38363830D01*
X46916055Y38203945D01*
X46756170Y38072732D01*
X46573765Y37975234D01*
X46573762Y37975233D01*
X46375836Y37915193D01*
X46298707Y37907597D01*
X46221580Y37900000D01*
X46118420Y37900000D01*
X46041293Y37907597D01*
X45964164Y37915193D01*
X45766238Y37975233D01*
X45766235Y37975234D01*
X45583830Y38072732D01*
X45423945Y38203945D01*
X45292732Y38363830D01*
X45195234Y38546235D01*
X45176476Y38608072D01*
X45135193Y38744164D01*
X45114920Y38950000D01*
X45135193Y39155836D01*
X45195233Y39353762D01*
X45195234Y39353765D01*
X45292732Y39536170D01*
X45423945Y39696055D01*
X45583830Y39827268D01*
X45766235Y39924766D01*
X45766238Y39924767D01*
X45964164Y39984807D01*
X46041293Y39992404D01*
X46118420Y40000000D01*
X46221580Y40000000D01*
X46298707Y39992404D01*
X46298707Y39992404D01*
G37*
G36*
X62578707Y39992404D02*
G01*
X62655836Y39984807D01*
X62853762Y39924767D01*
X62853765Y39924766D01*
X63036170Y39827268D01*
X63196055Y39696055D01*
X63327268Y39536170D01*
X63424766Y39353765D01*
X63424767Y39353762D01*
X63484807Y39155836D01*
X63505080Y38950000D01*
X63484807Y38744164D01*
X63443524Y38608072D01*
X63424766Y38546235D01*
X63327268Y38363830D01*
X63196055Y38203945D01*
X63036170Y38072732D01*
X62853765Y37975234D01*
X62853762Y37975233D01*
X62655836Y37915193D01*
X62578707Y37907597D01*
X62501580Y37900000D01*
X62398420Y37900000D01*
X62321293Y37907597D01*
X62244164Y37915193D01*
X62046238Y37975233D01*
X62046235Y37975234D01*
X61863830Y38072732D01*
X61703945Y38203945D01*
X61572732Y38363830D01*
X61475234Y38546235D01*
X61456476Y38608072D01*
X61415193Y38744164D01*
X61394920Y38950000D01*
X61415193Y39155836D01*
X61475233Y39353762D01*
X61475234Y39353765D01*
X61572732Y39536170D01*
X61703945Y39696055D01*
X61863830Y39827268D01*
X62046235Y39924766D01*
X62046238Y39924767D01*
X62244164Y39984807D01*
X62321293Y39992404D01*
X62398420Y40000000D01*
X62501580Y40000000D01*
X62578707Y39992404D01*
X62578707Y39992404D01*
G37*
G36*
X12613000Y39594000D02*
G01*
X3363000Y39594000D01*
X3363000Y41094000D01*
X12613000Y41094000D01*
X12613000Y39594000D01*
X12613000Y39594000D01*
G37*
G36*
X62578707Y42532403D02*
G01*
X62655836Y42524807D01*
X62853762Y42464767D01*
X62853765Y42464766D01*
X63036170Y42367268D01*
X63196055Y42236055D01*
X63327268Y42076170D01*
X63424766Y41893765D01*
X63424767Y41893762D01*
X63484807Y41695836D01*
X63505080Y41490000D01*
X63484807Y41284164D01*
X63424767Y41086238D01*
X63424766Y41086235D01*
X63327268Y40903830D01*
X63196055Y40743945D01*
X63036170Y40612732D01*
X62853765Y40515234D01*
X62853762Y40515233D01*
X62655836Y40455193D01*
X62578707Y40447596D01*
X62501580Y40440000D01*
X62398420Y40440000D01*
X62321293Y40447596D01*
X62244164Y40455193D01*
X62046238Y40515233D01*
X62046235Y40515234D01*
X61863830Y40612732D01*
X61703945Y40743945D01*
X61572732Y40903830D01*
X61475234Y41086235D01*
X61475233Y41086238D01*
X61415193Y41284164D01*
X61394920Y41490000D01*
X61415193Y41695836D01*
X61475233Y41893762D01*
X61475234Y41893765D01*
X61572732Y42076170D01*
X61703945Y42236055D01*
X61863830Y42367268D01*
X62046235Y42464766D01*
X62046238Y42464767D01*
X62244164Y42524807D01*
X62321293Y42532403D01*
X62398420Y42540000D01*
X62501580Y42540000D01*
X62578707Y42532403D01*
X62578707Y42532403D01*
G37*
G36*
X2443530Y43078123D02*
G01*
X2495010Y43062507D01*
X2542445Y43037152D01*
X2584027Y43003027D01*
X2618152Y42961445D01*
X2643507Y42914010D01*
X2659123Y42862530D01*
X2665000Y42802860D01*
X2665000Y41915140D01*
X2659123Y41855470D01*
X2643507Y41803990D01*
X2618152Y41756555D01*
X2584027Y41714973D01*
X2542445Y41680848D01*
X2495010Y41655493D01*
X2443530Y41639877D01*
X2383860Y41634000D01*
X1596140Y41634000D01*
X1536470Y41639877D01*
X1484990Y41655493D01*
X1437555Y41680848D01*
X1395973Y41714973D01*
X1361848Y41756555D01*
X1336493Y41803990D01*
X1320877Y41855470D01*
X1315000Y41915140D01*
X1315000Y42802860D01*
X1320877Y42862530D01*
X1336493Y42914010D01*
X1361848Y42961445D01*
X1395973Y43003027D01*
X1437555Y43037152D01*
X1484990Y43062507D01*
X1536470Y43078123D01*
X1596140Y43084000D01*
X2383860Y43084000D01*
X2443530Y43078123D01*
X2443530Y43078123D01*
G37*
G36*
X62578707Y45072404D02*
G01*
X62655836Y45064807D01*
X62853762Y45004767D01*
X62853765Y45004766D01*
X63036170Y44907268D01*
X63196055Y44776055D01*
X63327268Y44616170D01*
X63424766Y44433765D01*
X63424767Y44433762D01*
X63484807Y44235836D01*
X63505080Y44030000D01*
X63484807Y43824164D01*
X63453664Y43721500D01*
X63424766Y43626235D01*
X63327268Y43443830D01*
X63196055Y43283945D01*
X63036170Y43152732D01*
X62853765Y43055234D01*
X62853762Y43055233D01*
X62655836Y42995193D01*
X62578707Y42987597D01*
X62501580Y42980000D01*
X62398420Y42980000D01*
X62321293Y42987597D01*
X62244164Y42995193D01*
X62046238Y43055233D01*
X62046235Y43055234D01*
X61863830Y43152732D01*
X61703945Y43283945D01*
X61572732Y43443830D01*
X61475234Y43626235D01*
X61446336Y43721500D01*
X61415193Y43824164D01*
X61394920Y44030000D01*
X61415193Y44235836D01*
X61475233Y44433762D01*
X61475234Y44433765D01*
X61572732Y44616170D01*
X61703945Y44776055D01*
X61863830Y44907268D01*
X62046235Y45004766D01*
X62046238Y45004767D01*
X62244164Y45064807D01*
X62321293Y45072404D01*
X62398420Y45080000D01*
X62501580Y45080000D01*
X62578707Y45072404D01*
X62578707Y45072404D01*
G37*
G36*
X2443530Y44828123D02*
G01*
X2495010Y44812507D01*
X2542445Y44787152D01*
X2584027Y44753027D01*
X2618152Y44711445D01*
X2643507Y44664010D01*
X2659123Y44612530D01*
X2665000Y44552860D01*
X2665000Y43665140D01*
X2659123Y43605470D01*
X2643507Y43553990D01*
X2618152Y43506555D01*
X2584027Y43464973D01*
X2542445Y43430848D01*
X2495010Y43405493D01*
X2443530Y43389877D01*
X2383860Y43384000D01*
X1596140Y43384000D01*
X1536470Y43389877D01*
X1484990Y43405493D01*
X1437555Y43430848D01*
X1395973Y43464973D01*
X1361848Y43506555D01*
X1336493Y43553990D01*
X1320877Y43605470D01*
X1315000Y43665140D01*
X1315000Y44552860D01*
X1320877Y44612530D01*
X1336493Y44664010D01*
X1361848Y44711445D01*
X1395973Y44753027D01*
X1437555Y44787152D01*
X1484990Y44812507D01*
X1536470Y44828123D01*
X1596140Y44834000D01*
X2383860Y44834000D01*
X2443530Y44828123D01*
X2443530Y44828123D01*
G37*
G36*
X57920000Y44750000D02*
G01*
X57020000Y44750000D01*
X57020000Y46050000D01*
X57920000Y46050000D01*
X57920000Y44750000D01*
X57920000Y44750000D01*
G37*
G36*
X59420000Y44750000D02*
G01*
X58520000Y44750000D01*
X58520000Y46050000D01*
X59420000Y46050000D01*
X59420000Y44750000D01*
X59420000Y44750000D01*
G37*
G36*
X12613000Y45294000D02*
G01*
X3363000Y45294000D01*
X3363000Y46794000D01*
X12613000Y46794000D01*
X12613000Y45294000D01*
X12613000Y45294000D01*
G37*
G36*
X17372000Y45344000D02*
G01*
X14548000Y45344000D01*
X14548000Y46244000D01*
X17372000Y46244000D01*
X17372000Y45344000D01*
X17372000Y45344000D01*
G37*
G36*
X40720613Y46246402D02*
G01*
X40744999Y46244000D01*
X42195001Y46244000D01*
X42219387Y46246402D01*
X42231248Y46250000D01*
X46620000Y46250000D01*
X46620000Y45350000D01*
X42244999Y45350000D01*
X42220613Y45347598D01*
X42208752Y45344000D01*
X40731248Y45344000D01*
X40719387Y45347598D01*
X40695001Y45350000D01*
X39320000Y45350000D01*
X39320000Y46250000D01*
X40708752Y46250000D01*
X40720613Y46246402D01*
X40720613Y46246402D01*
G37*
G36*
X51378707Y47612404D02*
G01*
X51455836Y47604807D01*
X51653762Y47544767D01*
X51653765Y47544766D01*
X51836170Y47447268D01*
X51996055Y47316055D01*
X52127268Y47156170D01*
X52224766Y46973765D01*
X52224767Y46973762D01*
X52284807Y46775836D01*
X52305080Y46570000D01*
X52284807Y46364164D01*
X52224767Y46166238D01*
X52224766Y46166235D01*
X52127268Y45983830D01*
X51996055Y45823945D01*
X51836170Y45692732D01*
X51653765Y45595234D01*
X51653762Y45595233D01*
X51455836Y45535193D01*
X51378707Y45527596D01*
X51301580Y45520000D01*
X51198420Y45520000D01*
X51121293Y45527596D01*
X51044164Y45535193D01*
X50846238Y45595233D01*
X50846235Y45595234D01*
X50663830Y45692732D01*
X50503945Y45823945D01*
X50372732Y45983830D01*
X50275234Y46166235D01*
X50275233Y46166238D01*
X50215193Y46364164D01*
X50194920Y46570000D01*
X50215193Y46775836D01*
X50275233Y46973762D01*
X50275234Y46973765D01*
X50372732Y47156170D01*
X50503945Y47316055D01*
X50663830Y47447268D01*
X50846235Y47544766D01*
X50846238Y47544767D01*
X51044164Y47604807D01*
X51121293Y47612404D01*
X51198420Y47620000D01*
X51301580Y47620000D01*
X51378707Y47612404D01*
X51378707Y47612404D01*
G37*
G36*
X49760000Y45520000D02*
G01*
X47660000Y45520000D01*
X47660000Y47620000D01*
X49760000Y47620000D01*
X49760000Y45520000D01*
X49760000Y45520000D01*
G37*
G36*
X53918707Y47612404D02*
G01*
X53995836Y47604807D01*
X54193762Y47544767D01*
X54193765Y47544766D01*
X54376170Y47447268D01*
X54536055Y47316055D01*
X54667268Y47156170D01*
X54764766Y46973765D01*
X54764767Y46973762D01*
X54824807Y46775836D01*
X54845080Y46570000D01*
X54824807Y46364164D01*
X54764767Y46166238D01*
X54764766Y46166235D01*
X54667268Y45983830D01*
X54536055Y45823945D01*
X54376170Y45692732D01*
X54193765Y45595234D01*
X54193762Y45595233D01*
X53995836Y45535193D01*
X53918707Y45527596D01*
X53841580Y45520000D01*
X53738420Y45520000D01*
X53661293Y45527596D01*
X53584164Y45535193D01*
X53386238Y45595233D01*
X53386235Y45595234D01*
X53203830Y45692732D01*
X53043945Y45823945D01*
X52912732Y45983830D01*
X52815234Y46166235D01*
X52815233Y46166238D01*
X52755193Y46364164D01*
X52734920Y46570000D01*
X52755193Y46775836D01*
X52815233Y46973762D01*
X52815234Y46973765D01*
X52912732Y47156170D01*
X53043945Y47316055D01*
X53203830Y47447268D01*
X53386235Y47544766D01*
X53386238Y47544767D01*
X53584164Y47604807D01*
X53661293Y47612404D01*
X53738420Y47620000D01*
X53841580Y47620000D01*
X53918707Y47612404D01*
X53918707Y47612404D01*
G37*
G36*
X63500000Y45520000D02*
G01*
X61400000Y45520000D01*
X61400000Y47620000D01*
X63500000Y47620000D01*
X63500000Y45520000D01*
X63500000Y45520000D01*
G37*
G36*
X40720613Y47746402D02*
G01*
X40744999Y47744000D01*
X42195001Y47744000D01*
X42219387Y47746402D01*
X42231248Y47750000D01*
X46620000Y47750000D01*
X46620000Y46850000D01*
X42244999Y46850000D01*
X42220613Y46847598D01*
X42208752Y46844000D01*
X40731248Y46844000D01*
X40719387Y46847598D01*
X40695001Y46850000D01*
X39320000Y46850000D01*
X39320000Y47750000D01*
X40708752Y47750000D01*
X40720613Y47746402D01*
X40720613Y47746402D01*
G37*
G36*
X17372000Y46844000D02*
G01*
X14548000Y46844000D01*
X14548000Y47744000D01*
X17372000Y47744000D01*
X17372000Y46844000D01*
X17372000Y46844000D01*
G37*
G36*
X38418000Y47158000D02*
G01*
X36318000Y47158000D01*
X36318000Y49258000D01*
X38418000Y49258000D01*
X38418000Y47158000D01*
X38418000Y47158000D01*
G37*
G36*
X24796707Y49250403D02*
G01*
X24873836Y49242807D01*
X25071762Y49182767D01*
X25071765Y49182766D01*
X25254170Y49085268D01*
X25414055Y48954055D01*
X25545268Y48794170D01*
X25642766Y48611765D01*
X25642767Y48611762D01*
X25702807Y48413836D01*
X25723080Y48208000D01*
X25702807Y48002164D01*
X25666015Y47880877D01*
X25642766Y47804235D01*
X25545268Y47621830D01*
X25414055Y47461945D01*
X25254170Y47330732D01*
X25071765Y47233234D01*
X25071762Y47233233D01*
X24873836Y47173193D01*
X24796707Y47165596D01*
X24719580Y47158000D01*
X24616420Y47158000D01*
X24539293Y47165596D01*
X24462164Y47173193D01*
X24264238Y47233233D01*
X24264235Y47233234D01*
X24081830Y47330732D01*
X23921945Y47461945D01*
X23790732Y47621830D01*
X23693234Y47804235D01*
X23669985Y47880877D01*
X23633193Y48002164D01*
X23612920Y48208000D01*
X23633193Y48413836D01*
X23693233Y48611762D01*
X23693234Y48611765D01*
X23790732Y48794170D01*
X23921945Y48954055D01*
X24081830Y49085268D01*
X24264235Y49182766D01*
X24264238Y49182767D01*
X24462164Y49242807D01*
X24539293Y49250404D01*
X24616420Y49258000D01*
X24719580Y49258000D01*
X24796707Y49250403D01*
X24796707Y49250403D01*
G37*
G36*
X22256707Y49250403D02*
G01*
X22333836Y49242807D01*
X22531762Y49182767D01*
X22531765Y49182766D01*
X22714170Y49085268D01*
X22874055Y48954055D01*
X23005268Y48794170D01*
X23102766Y48611765D01*
X23102767Y48611762D01*
X23162807Y48413836D01*
X23183080Y48208000D01*
X23162807Y48002164D01*
X23126015Y47880877D01*
X23102766Y47804235D01*
X23005268Y47621830D01*
X22874055Y47461945D01*
X22714170Y47330732D01*
X22531765Y47233234D01*
X22531762Y47233233D01*
X22333836Y47173193D01*
X22256707Y47165596D01*
X22179580Y47158000D01*
X22076420Y47158000D01*
X21999293Y47165596D01*
X21922164Y47173193D01*
X21724238Y47233233D01*
X21724235Y47233234D01*
X21541830Y47330732D01*
X21381945Y47461945D01*
X21250732Y47621830D01*
X21153234Y47804235D01*
X21129985Y47880877D01*
X21093193Y48002164D01*
X21072920Y48208000D01*
X21093193Y48413836D01*
X21153233Y48611762D01*
X21153234Y48611765D01*
X21250732Y48794170D01*
X21381945Y48954055D01*
X21541830Y49085268D01*
X21724235Y49182766D01*
X21724238Y49182767D01*
X21922164Y49242807D01*
X21999293Y49250404D01*
X22076420Y49258000D01*
X22179580Y49258000D01*
X22256707Y49250403D01*
X22256707Y49250403D01*
G37*
G36*
X19716707Y49250403D02*
G01*
X19793836Y49242807D01*
X19991762Y49182767D01*
X19991765Y49182766D01*
X20174170Y49085268D01*
X20334055Y48954055D01*
X20465268Y48794170D01*
X20562766Y48611765D01*
X20562767Y48611762D01*
X20622807Y48413836D01*
X20643080Y48208000D01*
X20622807Y48002164D01*
X20586015Y47880877D01*
X20562766Y47804235D01*
X20465268Y47621830D01*
X20334055Y47461945D01*
X20174170Y47330732D01*
X19991765Y47233234D01*
X19991762Y47233233D01*
X19793836Y47173193D01*
X19716707Y47165596D01*
X19639580Y47158000D01*
X19536420Y47158000D01*
X19459293Y47165596D01*
X19382164Y47173193D01*
X19184238Y47233233D01*
X19184235Y47233234D01*
X19001830Y47330732D01*
X18841945Y47461945D01*
X18710732Y47621830D01*
X18613234Y47804235D01*
X18589985Y47880877D01*
X18553193Y48002164D01*
X18532920Y48208000D01*
X18553193Y48413836D01*
X18613233Y48611762D01*
X18613234Y48611765D01*
X18710732Y48794170D01*
X18841945Y48954055D01*
X19001830Y49085268D01*
X19184235Y49182766D01*
X19184238Y49182767D01*
X19382164Y49242807D01*
X19459293Y49250404D01*
X19536420Y49258000D01*
X19639580Y49258000D01*
X19716707Y49250403D01*
X19716707Y49250403D01*
G37*
G36*
X32416707Y49250403D02*
G01*
X32493836Y49242807D01*
X32691762Y49182767D01*
X32691765Y49182766D01*
X32874170Y49085268D01*
X33034055Y48954055D01*
X33165268Y48794170D01*
X33262766Y48611765D01*
X33262767Y48611762D01*
X33322807Y48413836D01*
X33343080Y48208000D01*
X33322807Y48002164D01*
X33286015Y47880877D01*
X33262766Y47804235D01*
X33165268Y47621830D01*
X33034055Y47461945D01*
X32874170Y47330732D01*
X32691765Y47233234D01*
X32691762Y47233233D01*
X32493836Y47173193D01*
X32416707Y47165596D01*
X32339580Y47158000D01*
X32236420Y47158000D01*
X32159293Y47165596D01*
X32082164Y47173193D01*
X31884238Y47233233D01*
X31884235Y47233234D01*
X31701830Y47330732D01*
X31541945Y47461945D01*
X31410732Y47621830D01*
X31313234Y47804235D01*
X31289985Y47880877D01*
X31253193Y48002164D01*
X31232920Y48208000D01*
X31253193Y48413836D01*
X31313233Y48611762D01*
X31313234Y48611765D01*
X31410732Y48794170D01*
X31541945Y48954055D01*
X31701830Y49085268D01*
X31884235Y49182766D01*
X31884238Y49182767D01*
X32082164Y49242807D01*
X32159293Y49250404D01*
X32236420Y49258000D01*
X32339580Y49258000D01*
X32416707Y49250403D01*
X32416707Y49250403D01*
G37*
G36*
X29876707Y49250403D02*
G01*
X29953836Y49242807D01*
X30151762Y49182767D01*
X30151765Y49182766D01*
X30334170Y49085268D01*
X30494055Y48954055D01*
X30625268Y48794170D01*
X30722766Y48611765D01*
X30722767Y48611762D01*
X30782807Y48413836D01*
X30803080Y48208000D01*
X30782807Y48002164D01*
X30746015Y47880877D01*
X30722766Y47804235D01*
X30625268Y47621830D01*
X30494055Y47461945D01*
X30334170Y47330732D01*
X30151765Y47233234D01*
X30151762Y47233233D01*
X29953836Y47173193D01*
X29876707Y47165596D01*
X29799580Y47158000D01*
X29696420Y47158000D01*
X29619293Y47165596D01*
X29542164Y47173193D01*
X29344238Y47233233D01*
X29344235Y47233234D01*
X29161830Y47330732D01*
X29001945Y47461945D01*
X28870732Y47621830D01*
X28773234Y47804235D01*
X28749985Y47880877D01*
X28713193Y48002164D01*
X28692920Y48208000D01*
X28713193Y48413836D01*
X28773233Y48611762D01*
X28773234Y48611765D01*
X28870732Y48794170D01*
X29001945Y48954055D01*
X29161830Y49085268D01*
X29344235Y49182766D01*
X29344238Y49182767D01*
X29542164Y49242807D01*
X29619293Y49250404D01*
X29696420Y49258000D01*
X29799580Y49258000D01*
X29876707Y49250403D01*
X29876707Y49250403D01*
G37*
G36*
X27336707Y49250403D02*
G01*
X27413836Y49242807D01*
X27611762Y49182767D01*
X27611765Y49182766D01*
X27794170Y49085268D01*
X27954055Y48954055D01*
X28085268Y48794170D01*
X28182766Y48611765D01*
X28182767Y48611762D01*
X28242807Y48413836D01*
X28263080Y48208000D01*
X28242807Y48002164D01*
X28206015Y47880877D01*
X28182766Y47804235D01*
X28085268Y47621830D01*
X27954055Y47461945D01*
X27794170Y47330732D01*
X27611765Y47233234D01*
X27611762Y47233233D01*
X27413836Y47173193D01*
X27336707Y47165596D01*
X27259580Y47158000D01*
X27156420Y47158000D01*
X27079293Y47165596D01*
X27002164Y47173193D01*
X26804238Y47233233D01*
X26804235Y47233234D01*
X26621830Y47330732D01*
X26461945Y47461945D01*
X26330732Y47621830D01*
X26233234Y47804235D01*
X26209985Y47880877D01*
X26173193Y48002164D01*
X26152920Y48208000D01*
X26173193Y48413836D01*
X26233233Y48611762D01*
X26233234Y48611765D01*
X26330732Y48794170D01*
X26461945Y48954055D01*
X26621830Y49085268D01*
X26804235Y49182766D01*
X26804238Y49182767D01*
X27002164Y49242807D01*
X27079293Y49250404D01*
X27156420Y49258000D01*
X27259580Y49258000D01*
X27336707Y49250403D01*
X27336707Y49250403D01*
G37*
G36*
X34956707Y49250403D02*
G01*
X35033836Y49242807D01*
X35231762Y49182767D01*
X35231765Y49182766D01*
X35414170Y49085268D01*
X35574055Y48954055D01*
X35705268Y48794170D01*
X35802766Y48611765D01*
X35802767Y48611762D01*
X35862807Y48413836D01*
X35883080Y48208000D01*
X35862807Y48002164D01*
X35826015Y47880877D01*
X35802766Y47804235D01*
X35705268Y47621830D01*
X35574055Y47461945D01*
X35414170Y47330732D01*
X35231765Y47233234D01*
X35231762Y47233233D01*
X35033836Y47173193D01*
X34956707Y47165596D01*
X34879580Y47158000D01*
X34776420Y47158000D01*
X34699293Y47165596D01*
X34622164Y47173193D01*
X34424238Y47233233D01*
X34424235Y47233234D01*
X34241830Y47330732D01*
X34081945Y47461945D01*
X33950732Y47621830D01*
X33853234Y47804235D01*
X33829985Y47880877D01*
X33793193Y48002164D01*
X33772920Y48208000D01*
X33793193Y48413836D01*
X33853233Y48611762D01*
X33853234Y48611765D01*
X33950732Y48794170D01*
X34081945Y48954055D01*
X34241830Y49085268D01*
X34424235Y49182766D01*
X34424238Y49182767D01*
X34622164Y49242807D01*
X34699293Y49250404D01*
X34776420Y49258000D01*
X34879580Y49258000D01*
X34956707Y49250403D01*
X34956707Y49250403D01*
G37*
G36*
X57920000Y47400000D02*
G01*
X57020000Y47400000D01*
X57020000Y48700000D01*
X57920000Y48700000D01*
X57920000Y47400000D01*
X57920000Y47400000D01*
G37*
G36*
X59420000Y47400000D02*
G01*
X58520000Y47400000D01*
X58520000Y48700000D01*
X59420000Y48700000D01*
X59420000Y47400000D01*
X59420000Y47400000D01*
G37*
G36*
X10072000Y47410000D02*
G01*
X9172000Y47410000D01*
X9172000Y48710000D01*
X10072000Y48710000D01*
X10072000Y47410000D01*
X10072000Y47410000D01*
G37*
G36*
X11572000Y47410000D02*
G01*
X10672000Y47410000D01*
X10672000Y48710000D01*
X11572000Y48710000D01*
X11572000Y47410000D01*
X11572000Y47410000D01*
G37*
G36*
X2888530Y49219123D02*
G01*
X2940010Y49203507D01*
X2987445Y49178152D01*
X3029027Y49144027D01*
X3063152Y49102445D01*
X3088507Y49055010D01*
X3104123Y49003530D01*
X3110000Y48943860D01*
X3110000Y48156140D01*
X3104123Y48096470D01*
X3088507Y48044990D01*
X3063152Y47997555D01*
X3029027Y47955973D01*
X2987445Y47921848D01*
X2940010Y47896493D01*
X2888530Y47880877D01*
X2828860Y47875000D01*
X1941140Y47875000D01*
X1881470Y47880877D01*
X1829990Y47896493D01*
X1782555Y47921848D01*
X1740973Y47955973D01*
X1706848Y47997555D01*
X1681493Y48044990D01*
X1665877Y48096470D01*
X1660000Y48156140D01*
X1660000Y48943860D01*
X1665877Y49003530D01*
X1681493Y49055010D01*
X1706848Y49102445D01*
X1740973Y49144027D01*
X1782555Y49178152D01*
X1829990Y49203507D01*
X1881470Y49219123D01*
X1941140Y49225000D01*
X2828860Y49225000D01*
X2888530Y49219123D01*
X2888530Y49219123D01*
G37*
G36*
X4638530Y49219123D02*
G01*
X4690010Y49203507D01*
X4737445Y49178152D01*
X4779027Y49144027D01*
X4813152Y49102445D01*
X4838507Y49055010D01*
X4854123Y49003530D01*
X4860000Y48943860D01*
X4860000Y48156140D01*
X4854123Y48096470D01*
X4838507Y48044990D01*
X4813152Y47997555D01*
X4779027Y47955973D01*
X4737445Y47921848D01*
X4690010Y47896493D01*
X4638530Y47880877D01*
X4578860Y47875000D01*
X3691140Y47875000D01*
X3631470Y47880877D01*
X3579990Y47896493D01*
X3532555Y47921848D01*
X3490973Y47955973D01*
X3456848Y47997555D01*
X3431493Y48044990D01*
X3415877Y48096470D01*
X3410000Y48156140D01*
X3410000Y48943860D01*
X3415877Y49003530D01*
X3431493Y49055010D01*
X3456848Y49102445D01*
X3490973Y49144027D01*
X3532555Y49178152D01*
X3579990Y49203507D01*
X3631470Y49219123D01*
X3691140Y49225000D01*
X4578860Y49225000D01*
X4638530Y49219123D01*
X4638530Y49219123D01*
G37*
G36*
X34078707Y52746403D02*
G01*
X34155836Y52738807D01*
X34353762Y52678767D01*
X34353765Y52678766D01*
X34536170Y52581268D01*
X34696055Y52450055D01*
X34827268Y52290170D01*
X34924766Y52107765D01*
X34924767Y52107762D01*
X34984807Y51909836D01*
X35005080Y51704000D01*
X34984807Y51498164D01*
X34951650Y51388861D01*
X34924766Y51300235D01*
X34827268Y51117830D01*
X34696055Y50957945D01*
X34536170Y50826732D01*
X34353765Y50729234D01*
X34353762Y50729233D01*
X34155836Y50669193D01*
X34078707Y50661596D01*
X34001580Y50654000D01*
X33898420Y50654000D01*
X33821293Y50661596D01*
X33744164Y50669193D01*
X33546238Y50729233D01*
X33546235Y50729234D01*
X33363830Y50826732D01*
X33203945Y50957945D01*
X33072732Y51117830D01*
X32975234Y51300235D01*
X32948350Y51388861D01*
X32915193Y51498164D01*
X32894920Y51704000D01*
X32915193Y51909836D01*
X32975233Y52107762D01*
X32975234Y52107765D01*
X33072732Y52290170D01*
X33203945Y52450055D01*
X33363830Y52581268D01*
X33546235Y52678766D01*
X33546238Y52678767D01*
X33744164Y52738807D01*
X33821293Y52746403D01*
X33898420Y52754000D01*
X34001580Y52754000D01*
X34078707Y52746403D01*
X34078707Y52746403D01*
G37*
G36*
X26458707Y52746403D02*
G01*
X26535836Y52738807D01*
X26733762Y52678767D01*
X26733765Y52678766D01*
X26916170Y52581268D01*
X27076055Y52450055D01*
X27207268Y52290170D01*
X27304766Y52107765D01*
X27304767Y52107762D01*
X27364807Y51909836D01*
X27385080Y51704000D01*
X27364807Y51498164D01*
X27331650Y51388861D01*
X27304766Y51300235D01*
X27207268Y51117830D01*
X27076055Y50957945D01*
X26916170Y50826732D01*
X26733765Y50729234D01*
X26733762Y50729233D01*
X26535836Y50669193D01*
X26458707Y50661596D01*
X26381580Y50654000D01*
X26278420Y50654000D01*
X26201293Y50661596D01*
X26124164Y50669193D01*
X25926238Y50729233D01*
X25926235Y50729234D01*
X25743830Y50826732D01*
X25583945Y50957945D01*
X25452732Y51117830D01*
X25355234Y51300235D01*
X25328350Y51388861D01*
X25295193Y51498164D01*
X25274920Y51704000D01*
X25295193Y51909836D01*
X25355233Y52107762D01*
X25355234Y52107765D01*
X25452732Y52290170D01*
X25583945Y52450055D01*
X25743830Y52581268D01*
X25926235Y52678766D01*
X25926238Y52678767D01*
X26124164Y52738807D01*
X26201293Y52746403D01*
X26278420Y52754000D01*
X26381580Y52754000D01*
X26458707Y52746403D01*
X26458707Y52746403D01*
G37*
G36*
X21378707Y52746403D02*
G01*
X21455836Y52738807D01*
X21653762Y52678767D01*
X21653765Y52678766D01*
X21836170Y52581268D01*
X21996055Y52450055D01*
X22127268Y52290170D01*
X22224766Y52107765D01*
X22224767Y52107762D01*
X22284807Y51909836D01*
X22305080Y51704000D01*
X22284807Y51498164D01*
X22251650Y51388861D01*
X22224766Y51300235D01*
X22127268Y51117830D01*
X21996055Y50957945D01*
X21836170Y50826732D01*
X21653765Y50729234D01*
X21653762Y50729233D01*
X21455836Y50669193D01*
X21378707Y50661596D01*
X21301580Y50654000D01*
X21198420Y50654000D01*
X21121293Y50661596D01*
X21044164Y50669193D01*
X20846238Y50729233D01*
X20846235Y50729234D01*
X20663830Y50826732D01*
X20503945Y50957945D01*
X20372732Y51117830D01*
X20275234Y51300235D01*
X20248350Y51388861D01*
X20215193Y51498164D01*
X20194920Y51704000D01*
X20215193Y51909836D01*
X20275233Y52107762D01*
X20275234Y52107765D01*
X20372732Y52290170D01*
X20503945Y52450055D01*
X20663830Y52581268D01*
X20846235Y52678766D01*
X20846238Y52678767D01*
X21044164Y52738807D01*
X21121293Y52746403D01*
X21198420Y52754000D01*
X21301580Y52754000D01*
X21378707Y52746403D01*
X21378707Y52746403D01*
G37*
G36*
X9600000Y50654000D02*
G01*
X7500000Y50654000D01*
X7500000Y52754000D01*
X9600000Y52754000D01*
X9600000Y50654000D01*
X9600000Y50654000D01*
G37*
G36*
X11218707Y52746403D02*
G01*
X11295836Y52738807D01*
X11493762Y52678767D01*
X11493765Y52678766D01*
X11676170Y52581268D01*
X11836055Y52450055D01*
X11967268Y52290170D01*
X12064766Y52107765D01*
X12064767Y52107762D01*
X12124807Y51909836D01*
X12145080Y51704000D01*
X12124807Y51498164D01*
X12091650Y51388861D01*
X12064766Y51300235D01*
X11967268Y51117830D01*
X11836055Y50957945D01*
X11676170Y50826732D01*
X11493765Y50729234D01*
X11493762Y50729233D01*
X11295836Y50669193D01*
X11218707Y50661596D01*
X11141580Y50654000D01*
X11038420Y50654000D01*
X10961293Y50661596D01*
X10884164Y50669193D01*
X10686238Y50729233D01*
X10686235Y50729234D01*
X10503830Y50826732D01*
X10343945Y50957945D01*
X10212732Y51117830D01*
X10115234Y51300235D01*
X10088350Y51388861D01*
X10055193Y51498164D01*
X10034920Y51704000D01*
X10055193Y51909836D01*
X10115233Y52107762D01*
X10115234Y52107765D01*
X10212732Y52290170D01*
X10343945Y52450055D01*
X10503830Y52581268D01*
X10686235Y52678766D01*
X10686238Y52678767D01*
X10884164Y52738807D01*
X10961293Y52746403D01*
X11038420Y52754000D01*
X11141580Y52754000D01*
X11218707Y52746403D01*
X11218707Y52746403D01*
G37*
G36*
X16298707Y52746403D02*
G01*
X16375836Y52738807D01*
X16573762Y52678767D01*
X16573765Y52678766D01*
X16756170Y52581268D01*
X16916055Y52450055D01*
X17047268Y52290170D01*
X17144766Y52107765D01*
X17144767Y52107762D01*
X17204807Y51909836D01*
X17225080Y51704000D01*
X17204807Y51498164D01*
X17171650Y51388861D01*
X17144766Y51300235D01*
X17047268Y51117830D01*
X16916055Y50957945D01*
X16756170Y50826732D01*
X16573765Y50729234D01*
X16573762Y50729233D01*
X16375836Y50669193D01*
X16298707Y50661596D01*
X16221580Y50654000D01*
X16118420Y50654000D01*
X16041293Y50661596D01*
X15964164Y50669193D01*
X15766238Y50729233D01*
X15766235Y50729234D01*
X15583830Y50826732D01*
X15423945Y50957945D01*
X15292732Y51117830D01*
X15195234Y51300235D01*
X15168350Y51388861D01*
X15135193Y51498164D01*
X15114920Y51704000D01*
X15135193Y51909836D01*
X15195233Y52107762D01*
X15195234Y52107765D01*
X15292732Y52290170D01*
X15423945Y52450055D01*
X15583830Y52581268D01*
X15766235Y52678766D01*
X15766238Y52678767D01*
X15964164Y52738807D01*
X16041293Y52746403D01*
X16118420Y52754000D01*
X16221580Y52754000D01*
X16298707Y52746403D01*
X16298707Y52746403D01*
G37*
G36*
X18838707Y52746403D02*
G01*
X18915836Y52738807D01*
X19113762Y52678767D01*
X19113765Y52678766D01*
X19296170Y52581268D01*
X19456055Y52450055D01*
X19587268Y52290170D01*
X19684766Y52107765D01*
X19684767Y52107762D01*
X19744807Y51909836D01*
X19765080Y51704000D01*
X19744807Y51498164D01*
X19711650Y51388861D01*
X19684766Y51300235D01*
X19587268Y51117830D01*
X19456055Y50957945D01*
X19296170Y50826732D01*
X19113765Y50729234D01*
X19113762Y50729233D01*
X18915836Y50669193D01*
X18838707Y50661596D01*
X18761580Y50654000D01*
X18658420Y50654000D01*
X18581293Y50661596D01*
X18504164Y50669193D01*
X18306238Y50729233D01*
X18306235Y50729234D01*
X18123830Y50826732D01*
X17963945Y50957945D01*
X17832732Y51117830D01*
X17735234Y51300235D01*
X17708350Y51388861D01*
X17675193Y51498164D01*
X17654920Y51704000D01*
X17675193Y51909836D01*
X17735233Y52107762D01*
X17735234Y52107765D01*
X17832732Y52290170D01*
X17963945Y52450055D01*
X18123830Y52581268D01*
X18306235Y52678766D01*
X18306238Y52678767D01*
X18504164Y52738807D01*
X18581293Y52746403D01*
X18658420Y52754000D01*
X18761580Y52754000D01*
X18838707Y52746403D01*
X18838707Y52746403D01*
G37*
G36*
X31538707Y52746403D02*
G01*
X31615836Y52738807D01*
X31813762Y52678767D01*
X31813765Y52678766D01*
X31996170Y52581268D01*
X32156055Y52450055D01*
X32287268Y52290170D01*
X32384766Y52107765D01*
X32384767Y52107762D01*
X32444807Y51909836D01*
X32465080Y51704000D01*
X32444807Y51498164D01*
X32411650Y51388861D01*
X32384766Y51300235D01*
X32287268Y51117830D01*
X32156055Y50957945D01*
X31996170Y50826732D01*
X31813765Y50729234D01*
X31813762Y50729233D01*
X31615836Y50669193D01*
X31538707Y50661596D01*
X31461580Y50654000D01*
X31358420Y50654000D01*
X31281293Y50661596D01*
X31204164Y50669193D01*
X31006238Y50729233D01*
X31006235Y50729234D01*
X30823830Y50826732D01*
X30663945Y50957945D01*
X30532732Y51117830D01*
X30435234Y51300235D01*
X30408350Y51388861D01*
X30375193Y51498164D01*
X30354920Y51704000D01*
X30375193Y51909836D01*
X30435233Y52107762D01*
X30435234Y52107765D01*
X30532732Y52290170D01*
X30663945Y52450055D01*
X30823830Y52581268D01*
X31006235Y52678766D01*
X31006238Y52678767D01*
X31204164Y52738807D01*
X31281293Y52746403D01*
X31358420Y52754000D01*
X31461580Y52754000D01*
X31538707Y52746403D01*
X31538707Y52746403D01*
G37*
G36*
X28998707Y52746403D02*
G01*
X29075836Y52738807D01*
X29273762Y52678767D01*
X29273765Y52678766D01*
X29456170Y52581268D01*
X29616055Y52450055D01*
X29747268Y52290170D01*
X29844766Y52107765D01*
X29844767Y52107762D01*
X29904807Y51909836D01*
X29925080Y51704000D01*
X29904807Y51498164D01*
X29871650Y51388861D01*
X29844766Y51300235D01*
X29747268Y51117830D01*
X29616055Y50957945D01*
X29456170Y50826732D01*
X29273765Y50729234D01*
X29273762Y50729233D01*
X29075836Y50669193D01*
X28998707Y50661596D01*
X28921580Y50654000D01*
X28818420Y50654000D01*
X28741293Y50661596D01*
X28664164Y50669193D01*
X28466238Y50729233D01*
X28466235Y50729234D01*
X28283830Y50826732D01*
X28123945Y50957945D01*
X27992732Y51117830D01*
X27895234Y51300235D01*
X27868350Y51388861D01*
X27835193Y51498164D01*
X27814920Y51704000D01*
X27835193Y51909836D01*
X27895233Y52107762D01*
X27895234Y52107765D01*
X27992732Y52290170D01*
X28123945Y52450055D01*
X28283830Y52581268D01*
X28466235Y52678766D01*
X28466238Y52678767D01*
X28664164Y52738807D01*
X28741293Y52746403D01*
X28818420Y52754000D01*
X28921580Y52754000D01*
X28998707Y52746403D01*
X28998707Y52746403D01*
G37*
G36*
X23918707Y52746403D02*
G01*
X23995836Y52738807D01*
X24193762Y52678767D01*
X24193765Y52678766D01*
X24376170Y52581268D01*
X24536055Y52450055D01*
X24667268Y52290170D01*
X24764766Y52107765D01*
X24764767Y52107762D01*
X24824807Y51909836D01*
X24845080Y51704000D01*
X24824807Y51498164D01*
X24791650Y51388861D01*
X24764766Y51300235D01*
X24667268Y51117830D01*
X24536055Y50957945D01*
X24376170Y50826732D01*
X24193765Y50729234D01*
X24193762Y50729233D01*
X23995836Y50669193D01*
X23918707Y50661596D01*
X23841580Y50654000D01*
X23738420Y50654000D01*
X23661293Y50661596D01*
X23584164Y50669193D01*
X23386238Y50729233D01*
X23386235Y50729234D01*
X23203830Y50826732D01*
X23043945Y50957945D01*
X22912732Y51117830D01*
X22815234Y51300235D01*
X22788350Y51388861D01*
X22755193Y51498164D01*
X22734920Y51704000D01*
X22755193Y51909836D01*
X22815233Y52107762D01*
X22815234Y52107765D01*
X22912732Y52290170D01*
X23043945Y52450055D01*
X23203830Y52581268D01*
X23386235Y52678766D01*
X23386238Y52678767D01*
X23584164Y52738807D01*
X23661293Y52746403D01*
X23738420Y52754000D01*
X23841580Y52754000D01*
X23918707Y52746403D01*
X23918707Y52746403D01*
G37*
G36*
X39158707Y52746403D02*
G01*
X39235836Y52738807D01*
X39433762Y52678767D01*
X39433765Y52678766D01*
X39616170Y52581268D01*
X39776055Y52450055D01*
X39907268Y52290170D01*
X40004766Y52107765D01*
X40004767Y52107762D01*
X40064807Y51909836D01*
X40085080Y51704000D01*
X40064807Y51498164D01*
X40031650Y51388861D01*
X40004766Y51300235D01*
X39907268Y51117830D01*
X39776055Y50957945D01*
X39616170Y50826732D01*
X39433765Y50729234D01*
X39433762Y50729233D01*
X39235836Y50669193D01*
X39158707Y50661596D01*
X39081580Y50654000D01*
X38978420Y50654000D01*
X38901293Y50661596D01*
X38824164Y50669193D01*
X38626238Y50729233D01*
X38626235Y50729234D01*
X38443830Y50826732D01*
X38283945Y50957945D01*
X38152732Y51117830D01*
X38055234Y51300235D01*
X38028350Y51388861D01*
X37995193Y51498164D01*
X37974920Y51704000D01*
X37995193Y51909836D01*
X38055233Y52107762D01*
X38055234Y52107765D01*
X38152732Y52290170D01*
X38283945Y52450055D01*
X38443830Y52581268D01*
X38626235Y52678766D01*
X38626238Y52678767D01*
X38824164Y52738807D01*
X38901293Y52746403D01*
X38978420Y52754000D01*
X39081580Y52754000D01*
X39158707Y52746403D01*
X39158707Y52746403D01*
G37*
G36*
X41698707Y52746403D02*
G01*
X41775836Y52738807D01*
X41973762Y52678767D01*
X41973765Y52678766D01*
X42156170Y52581268D01*
X42316055Y52450055D01*
X42447268Y52290170D01*
X42544766Y52107765D01*
X42544767Y52107762D01*
X42604807Y51909836D01*
X42625080Y51704000D01*
X42604807Y51498164D01*
X42571650Y51388861D01*
X42544766Y51300235D01*
X42447268Y51117830D01*
X42316055Y50957945D01*
X42156170Y50826732D01*
X41973765Y50729234D01*
X41973762Y50729233D01*
X41775836Y50669193D01*
X41698707Y50661596D01*
X41621580Y50654000D01*
X41518420Y50654000D01*
X41441293Y50661596D01*
X41364164Y50669193D01*
X41166238Y50729233D01*
X41166235Y50729234D01*
X40983830Y50826732D01*
X40823945Y50957945D01*
X40692732Y51117830D01*
X40595234Y51300235D01*
X40568350Y51388861D01*
X40535193Y51498164D01*
X40514920Y51704000D01*
X40535193Y51909836D01*
X40595233Y52107762D01*
X40595234Y52107765D01*
X40692732Y52290170D01*
X40823945Y52450055D01*
X40983830Y52581268D01*
X41166235Y52678766D01*
X41166238Y52678767D01*
X41364164Y52738807D01*
X41441293Y52746403D01*
X41518420Y52754000D01*
X41621580Y52754000D01*
X41698707Y52746403D01*
X41698707Y52746403D01*
G37*
G36*
X44238707Y52746403D02*
G01*
X44315836Y52738807D01*
X44513762Y52678767D01*
X44513765Y52678766D01*
X44696170Y52581268D01*
X44856055Y52450055D01*
X44987268Y52290170D01*
X45084766Y52107765D01*
X45084767Y52107762D01*
X45144807Y51909836D01*
X45165080Y51704000D01*
X45144807Y51498164D01*
X45111650Y51388861D01*
X45084766Y51300235D01*
X44987268Y51117830D01*
X44856055Y50957945D01*
X44696170Y50826732D01*
X44513765Y50729234D01*
X44513762Y50729233D01*
X44315836Y50669193D01*
X44238707Y50661596D01*
X44161580Y50654000D01*
X44058420Y50654000D01*
X43981293Y50661596D01*
X43904164Y50669193D01*
X43706238Y50729233D01*
X43706235Y50729234D01*
X43523830Y50826732D01*
X43363945Y50957945D01*
X43232732Y51117830D01*
X43135234Y51300235D01*
X43108350Y51388861D01*
X43075193Y51498164D01*
X43054920Y51704000D01*
X43075193Y51909836D01*
X43135233Y52107762D01*
X43135234Y52107765D01*
X43232732Y52290170D01*
X43363945Y52450055D01*
X43523830Y52581268D01*
X43706235Y52678766D01*
X43706238Y52678767D01*
X43904164Y52738807D01*
X43981293Y52746403D01*
X44058420Y52754000D01*
X44161580Y52754000D01*
X44238707Y52746403D01*
X44238707Y52746403D01*
G37*
G36*
X46778707Y52746403D02*
G01*
X46855836Y52738807D01*
X47053762Y52678767D01*
X47053765Y52678766D01*
X47236170Y52581268D01*
X47396055Y52450055D01*
X47527268Y52290170D01*
X47624766Y52107765D01*
X47624767Y52107762D01*
X47684807Y51909836D01*
X47705080Y51704000D01*
X47684807Y51498164D01*
X47651650Y51388861D01*
X47624766Y51300235D01*
X47527268Y51117830D01*
X47396055Y50957945D01*
X47236170Y50826732D01*
X47053765Y50729234D01*
X47053762Y50729233D01*
X46855836Y50669193D01*
X46778707Y50661596D01*
X46701580Y50654000D01*
X46598420Y50654000D01*
X46521293Y50661596D01*
X46444164Y50669193D01*
X46246238Y50729233D01*
X46246235Y50729234D01*
X46063830Y50826732D01*
X45903945Y50957945D01*
X45772732Y51117830D01*
X45675234Y51300235D01*
X45648350Y51388861D01*
X45615193Y51498164D01*
X45594920Y51704000D01*
X45615193Y51909836D01*
X45675233Y52107762D01*
X45675234Y52107765D01*
X45772732Y52290170D01*
X45903945Y52450055D01*
X46063830Y52581268D01*
X46246235Y52678766D01*
X46246238Y52678767D01*
X46444164Y52738807D01*
X46521293Y52746403D01*
X46598420Y52754000D01*
X46701580Y52754000D01*
X46778707Y52746403D01*
X46778707Y52746403D01*
G37*
G36*
X49318707Y52746403D02*
G01*
X49395836Y52738807D01*
X49593762Y52678767D01*
X49593765Y52678766D01*
X49776170Y52581268D01*
X49936055Y52450055D01*
X50067268Y52290170D01*
X50164766Y52107765D01*
X50164767Y52107762D01*
X50224807Y51909836D01*
X50245080Y51704000D01*
X50224807Y51498164D01*
X50191650Y51388861D01*
X50164766Y51300235D01*
X50067268Y51117830D01*
X49936055Y50957945D01*
X49776170Y50826732D01*
X49593765Y50729234D01*
X49593762Y50729233D01*
X49395836Y50669193D01*
X49318707Y50661596D01*
X49241580Y50654000D01*
X49138420Y50654000D01*
X49061293Y50661596D01*
X48984164Y50669193D01*
X48786238Y50729233D01*
X48786235Y50729234D01*
X48603830Y50826732D01*
X48443945Y50957945D01*
X48312732Y51117830D01*
X48215234Y51300235D01*
X48188350Y51388861D01*
X48155193Y51498164D01*
X48134920Y51704000D01*
X48155193Y51909836D01*
X48215233Y52107762D01*
X48215234Y52107765D01*
X48312732Y52290170D01*
X48443945Y52450055D01*
X48603830Y52581268D01*
X48786235Y52678766D01*
X48786238Y52678767D01*
X48984164Y52738807D01*
X49061293Y52746403D01*
X49138420Y52754000D01*
X49241580Y52754000D01*
X49318707Y52746403D01*
X49318707Y52746403D01*
G37*
G36*
X51858707Y52746403D02*
G01*
X51935836Y52738807D01*
X52133762Y52678767D01*
X52133765Y52678766D01*
X52316170Y52581268D01*
X52476055Y52450055D01*
X52607268Y52290170D01*
X52704766Y52107765D01*
X52704767Y52107762D01*
X52764807Y51909836D01*
X52785080Y51704000D01*
X52764807Y51498164D01*
X52731650Y51388861D01*
X52704766Y51300235D01*
X52607268Y51117830D01*
X52476055Y50957945D01*
X52316170Y50826732D01*
X52133765Y50729234D01*
X52133762Y50729233D01*
X51935836Y50669193D01*
X51858707Y50661596D01*
X51781580Y50654000D01*
X51678420Y50654000D01*
X51601293Y50661596D01*
X51524164Y50669193D01*
X51326238Y50729233D01*
X51326235Y50729234D01*
X51143830Y50826732D01*
X50983945Y50957945D01*
X50852732Y51117830D01*
X50755234Y51300235D01*
X50728350Y51388861D01*
X50695193Y51498164D01*
X50674920Y51704000D01*
X50695193Y51909836D01*
X50755233Y52107762D01*
X50755234Y52107765D01*
X50852732Y52290170D01*
X50983945Y52450055D01*
X51143830Y52581268D01*
X51326235Y52678766D01*
X51326238Y52678767D01*
X51524164Y52738807D01*
X51601293Y52746403D01*
X51678420Y52754000D01*
X51781580Y52754000D01*
X51858707Y52746403D01*
X51858707Y52746403D01*
G37*
G36*
X54398707Y52746403D02*
G01*
X54475836Y52738807D01*
X54673762Y52678767D01*
X54673765Y52678766D01*
X54856170Y52581268D01*
X55016055Y52450055D01*
X55147268Y52290170D01*
X55244766Y52107765D01*
X55244767Y52107762D01*
X55304807Y51909836D01*
X55325080Y51704000D01*
X55304807Y51498164D01*
X55271650Y51388861D01*
X55244766Y51300235D01*
X55147268Y51117830D01*
X55016055Y50957945D01*
X54856170Y50826732D01*
X54673765Y50729234D01*
X54673762Y50729233D01*
X54475836Y50669193D01*
X54398707Y50661596D01*
X54321580Y50654000D01*
X54218420Y50654000D01*
X54141293Y50661596D01*
X54064164Y50669193D01*
X53866238Y50729233D01*
X53866235Y50729234D01*
X53683830Y50826732D01*
X53523945Y50957945D01*
X53392732Y51117830D01*
X53295234Y51300235D01*
X53268350Y51388861D01*
X53235193Y51498164D01*
X53214920Y51704000D01*
X53235193Y51909836D01*
X53295233Y52107762D01*
X53295234Y52107765D01*
X53392732Y52290170D01*
X53523945Y52450055D01*
X53683830Y52581268D01*
X53866235Y52678766D01*
X53866238Y52678767D01*
X54064164Y52738807D01*
X54141293Y52746403D01*
X54218420Y52754000D01*
X54321580Y52754000D01*
X54398707Y52746403D01*
X54398707Y52746403D01*
G37*
G36*
X56938707Y52746403D02*
G01*
X57015836Y52738807D01*
X57213762Y52678767D01*
X57213765Y52678766D01*
X57396170Y52581268D01*
X57556055Y52450055D01*
X57687268Y52290170D01*
X57784766Y52107765D01*
X57784767Y52107762D01*
X57844807Y51909836D01*
X57865080Y51704000D01*
X57844807Y51498164D01*
X57811650Y51388861D01*
X57784766Y51300235D01*
X57687268Y51117830D01*
X57556055Y50957945D01*
X57396170Y50826732D01*
X57213765Y50729234D01*
X57213762Y50729233D01*
X57015836Y50669193D01*
X56938707Y50661596D01*
X56861580Y50654000D01*
X56758420Y50654000D01*
X56681293Y50661596D01*
X56604164Y50669193D01*
X56406238Y50729233D01*
X56406235Y50729234D01*
X56223830Y50826732D01*
X56063945Y50957945D01*
X55932732Y51117830D01*
X55835234Y51300235D01*
X55808350Y51388861D01*
X55775193Y51498164D01*
X55754920Y51704000D01*
X55775193Y51909836D01*
X55835233Y52107762D01*
X55835234Y52107765D01*
X55932732Y52290170D01*
X56063945Y52450055D01*
X56223830Y52581268D01*
X56406235Y52678766D01*
X56406238Y52678767D01*
X56604164Y52738807D01*
X56681293Y52746403D01*
X56758420Y52754000D01*
X56861580Y52754000D01*
X56938707Y52746403D01*
X56938707Y52746403D01*
G37*
G36*
X13758707Y52746403D02*
G01*
X13835836Y52738807D01*
X14033762Y52678767D01*
X14033765Y52678766D01*
X14216170Y52581268D01*
X14376055Y52450055D01*
X14507268Y52290170D01*
X14604766Y52107765D01*
X14604767Y52107762D01*
X14664807Y51909836D01*
X14685080Y51704000D01*
X14664807Y51498164D01*
X14631650Y51388861D01*
X14604766Y51300235D01*
X14507268Y51117830D01*
X14376055Y50957945D01*
X14216170Y50826732D01*
X14033765Y50729234D01*
X14033762Y50729233D01*
X13835836Y50669193D01*
X13758707Y50661596D01*
X13681580Y50654000D01*
X13578420Y50654000D01*
X13501293Y50661596D01*
X13424164Y50669193D01*
X13226238Y50729233D01*
X13226235Y50729234D01*
X13043830Y50826732D01*
X12883945Y50957945D01*
X12752732Y51117830D01*
X12655234Y51300235D01*
X12628350Y51388861D01*
X12595193Y51498164D01*
X12574920Y51704000D01*
X12595193Y51909836D01*
X12655233Y52107762D01*
X12655234Y52107765D01*
X12752732Y52290170D01*
X12883945Y52450055D01*
X13043830Y52581268D01*
X13226235Y52678766D01*
X13226238Y52678767D01*
X13424164Y52738807D01*
X13501293Y52746403D01*
X13578420Y52754000D01*
X13681580Y52754000D01*
X13758707Y52746403D01*
X13758707Y52746403D01*
G37*
G36*
X36618707Y52746403D02*
G01*
X36695836Y52738807D01*
X36893762Y52678767D01*
X36893765Y52678766D01*
X37076170Y52581268D01*
X37236055Y52450055D01*
X37367268Y52290170D01*
X37464766Y52107765D01*
X37464767Y52107762D01*
X37524807Y51909836D01*
X37545080Y51704000D01*
X37524807Y51498164D01*
X37491650Y51388861D01*
X37464766Y51300235D01*
X37367268Y51117830D01*
X37236055Y50957945D01*
X37076170Y50826732D01*
X36893765Y50729234D01*
X36893762Y50729233D01*
X36695836Y50669193D01*
X36618707Y50661596D01*
X36541580Y50654000D01*
X36438420Y50654000D01*
X36361293Y50661596D01*
X36284164Y50669193D01*
X36086238Y50729233D01*
X36086235Y50729234D01*
X35903830Y50826732D01*
X35743945Y50957945D01*
X35612732Y51117830D01*
X35515234Y51300235D01*
X35488350Y51388861D01*
X35455193Y51498164D01*
X35434920Y51704000D01*
X35455193Y51909836D01*
X35515233Y52107762D01*
X35515234Y52107765D01*
X35612732Y52290170D01*
X35743945Y52450055D01*
X35903830Y52581268D01*
X36086235Y52678766D01*
X36086238Y52678767D01*
X36284164Y52738807D01*
X36361293Y52746403D01*
X36438420Y52754000D01*
X36541580Y52754000D01*
X36618707Y52746403D01*
X36618707Y52746403D01*
G37*
G36*
X62021163Y54729413D02*
G01*
X62195041Y54694827D01*
X62522620Y54559139D01*
X62817433Y54362151D01*
X63068151Y54111433D01*
X63265139Y53816620D01*
X63400827Y53489041D01*
X63425156Y53366732D01*
X63470000Y53141286D01*
X63470000Y52786714D01*
X63435414Y52612838D01*
X63400827Y52438959D01*
X63265139Y52111380D01*
X63068151Y51816567D01*
X62817433Y51565849D01*
X62522620Y51368861D01*
X62195041Y51233173D01*
X62021163Y51198587D01*
X61847286Y51164000D01*
X61492714Y51164000D01*
X61318837Y51198587D01*
X61144959Y51233173D01*
X60817380Y51368861D01*
X60522567Y51565849D01*
X60271849Y51816567D01*
X60074861Y52111380D01*
X59939173Y52438959D01*
X59904586Y52612838D01*
X59870000Y52786714D01*
X59870000Y53141286D01*
X59914844Y53366732D01*
X59939173Y53489041D01*
X60074861Y53816620D01*
X60271849Y54111433D01*
X60522567Y54362151D01*
X60817380Y54559139D01*
X61144959Y54694827D01*
X61318838Y54729414D01*
X61492714Y54764000D01*
X61847286Y54764000D01*
X62021163Y54729413D01*
X62021163Y54729413D01*
G37*
G36*
X4021162Y54749414D02*
G01*
X4195041Y54714827D01*
X4522620Y54579139D01*
X4817433Y54382151D01*
X5068151Y54131433D01*
X5265139Y53836620D01*
X5400827Y53509041D01*
X5429134Y53366733D01*
X5470000Y53161286D01*
X5470000Y52806714D01*
X5444549Y52678766D01*
X5400827Y52458959D01*
X5265139Y52131380D01*
X5068151Y51836567D01*
X4817433Y51585849D01*
X4522620Y51388861D01*
X4195041Y51253173D01*
X4021162Y51218586D01*
X3847286Y51184000D01*
X3492714Y51184000D01*
X3318838Y51218586D01*
X3144959Y51253173D01*
X2817380Y51388861D01*
X2522567Y51585849D01*
X2271849Y51836567D01*
X2074861Y52131380D01*
X1939173Y52458959D01*
X1895451Y52678766D01*
X1870000Y52806714D01*
X1870000Y53161286D01*
X1910866Y53366733D01*
X1939173Y53509041D01*
X2074861Y53836620D01*
X2271849Y54131433D01*
X2522567Y54382151D01*
X2817380Y54579139D01*
X3144959Y54714827D01*
X3318837Y54749413D01*
X3492714Y54784000D01*
X3847286Y54784000D01*
X4021162Y54749414D01*
X4021162Y54749414D01*
G37*
G36*
X18838707Y55286403D02*
G01*
X18915836Y55278807D01*
X19113762Y55218767D01*
X19113765Y55218766D01*
X19296170Y55121268D01*
X19456055Y54990055D01*
X19587268Y54830170D01*
X19684766Y54647765D01*
X19684767Y54647762D01*
X19744807Y54449836D01*
X19765080Y54244000D01*
X19744807Y54038164D01*
X19684767Y53840238D01*
X19684766Y53840235D01*
X19587268Y53657830D01*
X19456055Y53497945D01*
X19296170Y53366732D01*
X19113765Y53269234D01*
X19113762Y53269233D01*
X18915836Y53209193D01*
X18838707Y53201597D01*
X18761580Y53194000D01*
X18658420Y53194000D01*
X18581293Y53201596D01*
X18504164Y53209193D01*
X18306238Y53269233D01*
X18306235Y53269234D01*
X18123830Y53366732D01*
X17963945Y53497945D01*
X17832732Y53657830D01*
X17735234Y53840235D01*
X17735233Y53840238D01*
X17675193Y54038164D01*
X17654920Y54244000D01*
X17675193Y54449836D01*
X17735233Y54647762D01*
X17735234Y54647765D01*
X17832732Y54830170D01*
X17963945Y54990055D01*
X18123830Y55121268D01*
X18306235Y55218766D01*
X18306238Y55218767D01*
X18504164Y55278807D01*
X18581293Y55286403D01*
X18658420Y55294000D01*
X18761580Y55294000D01*
X18838707Y55286403D01*
X18838707Y55286403D01*
G37*
G36*
X54398707Y55286403D02*
G01*
X54475836Y55278807D01*
X54673762Y55218767D01*
X54673765Y55218766D01*
X54856170Y55121268D01*
X55016055Y54990055D01*
X55147268Y54830170D01*
X55244766Y54647765D01*
X55244767Y54647762D01*
X55304807Y54449836D01*
X55325080Y54244000D01*
X55304807Y54038164D01*
X55244767Y53840238D01*
X55244766Y53840235D01*
X55147268Y53657830D01*
X55016055Y53497945D01*
X54856170Y53366732D01*
X54673765Y53269234D01*
X54673762Y53269233D01*
X54475836Y53209193D01*
X54398707Y53201597D01*
X54321580Y53194000D01*
X54218420Y53194000D01*
X54141293Y53201596D01*
X54064164Y53209193D01*
X53866238Y53269233D01*
X53866235Y53269234D01*
X53683830Y53366732D01*
X53523945Y53497945D01*
X53392732Y53657830D01*
X53295234Y53840235D01*
X53295233Y53840238D01*
X53235193Y54038164D01*
X53214920Y54244000D01*
X53235193Y54449836D01*
X53295233Y54647762D01*
X53295234Y54647765D01*
X53392732Y54830170D01*
X53523945Y54990055D01*
X53683830Y55121268D01*
X53866235Y55218766D01*
X53866238Y55218767D01*
X54064164Y55278807D01*
X54141293Y55286403D01*
X54218420Y55294000D01*
X54321580Y55294000D01*
X54398707Y55286403D01*
X54398707Y55286403D01*
G37*
G36*
X51858707Y55286403D02*
G01*
X51935836Y55278807D01*
X52133762Y55218767D01*
X52133765Y55218766D01*
X52316170Y55121268D01*
X52476055Y54990055D01*
X52607268Y54830170D01*
X52704766Y54647765D01*
X52704767Y54647762D01*
X52764807Y54449836D01*
X52785080Y54244000D01*
X52764807Y54038164D01*
X52704767Y53840238D01*
X52704766Y53840235D01*
X52607268Y53657830D01*
X52476055Y53497945D01*
X52316170Y53366732D01*
X52133765Y53269234D01*
X52133762Y53269233D01*
X51935836Y53209193D01*
X51858707Y53201597D01*
X51781580Y53194000D01*
X51678420Y53194000D01*
X51601293Y53201596D01*
X51524164Y53209193D01*
X51326238Y53269233D01*
X51326235Y53269234D01*
X51143830Y53366732D01*
X50983945Y53497945D01*
X50852732Y53657830D01*
X50755234Y53840235D01*
X50755233Y53840238D01*
X50695193Y54038164D01*
X50674920Y54244000D01*
X50695193Y54449836D01*
X50755233Y54647762D01*
X50755234Y54647765D01*
X50852732Y54830170D01*
X50983945Y54990055D01*
X51143830Y55121268D01*
X51326235Y55218766D01*
X51326238Y55218767D01*
X51524164Y55278807D01*
X51601293Y55286403D01*
X51678420Y55294000D01*
X51781580Y55294000D01*
X51858707Y55286403D01*
X51858707Y55286403D01*
G37*
G36*
X49318707Y55286403D02*
G01*
X49395836Y55278807D01*
X49593762Y55218767D01*
X49593765Y55218766D01*
X49776170Y55121268D01*
X49936055Y54990055D01*
X50067268Y54830170D01*
X50164766Y54647765D01*
X50164767Y54647762D01*
X50224807Y54449836D01*
X50245080Y54244000D01*
X50224807Y54038164D01*
X50164767Y53840238D01*
X50164766Y53840235D01*
X50067268Y53657830D01*
X49936055Y53497945D01*
X49776170Y53366732D01*
X49593765Y53269234D01*
X49593762Y53269233D01*
X49395836Y53209193D01*
X49318707Y53201597D01*
X49241580Y53194000D01*
X49138420Y53194000D01*
X49061293Y53201596D01*
X48984164Y53209193D01*
X48786238Y53269233D01*
X48786235Y53269234D01*
X48603830Y53366732D01*
X48443945Y53497945D01*
X48312732Y53657830D01*
X48215234Y53840235D01*
X48215233Y53840238D01*
X48155193Y54038164D01*
X48134920Y54244000D01*
X48155193Y54449836D01*
X48215233Y54647762D01*
X48215234Y54647765D01*
X48312732Y54830170D01*
X48443945Y54990055D01*
X48603830Y55121268D01*
X48786235Y55218766D01*
X48786238Y55218767D01*
X48984164Y55278807D01*
X49061293Y55286403D01*
X49138420Y55294000D01*
X49241580Y55294000D01*
X49318707Y55286403D01*
X49318707Y55286403D01*
G37*
G36*
X46778707Y55286403D02*
G01*
X46855836Y55278807D01*
X47053762Y55218767D01*
X47053765Y55218766D01*
X47236170Y55121268D01*
X47396055Y54990055D01*
X47527268Y54830170D01*
X47624766Y54647765D01*
X47624767Y54647762D01*
X47684807Y54449836D01*
X47705080Y54244000D01*
X47684807Y54038164D01*
X47624767Y53840238D01*
X47624766Y53840235D01*
X47527268Y53657830D01*
X47396055Y53497945D01*
X47236170Y53366732D01*
X47053765Y53269234D01*
X47053762Y53269233D01*
X46855836Y53209193D01*
X46778707Y53201597D01*
X46701580Y53194000D01*
X46598420Y53194000D01*
X46521293Y53201596D01*
X46444164Y53209193D01*
X46246238Y53269233D01*
X46246235Y53269234D01*
X46063830Y53366732D01*
X45903945Y53497945D01*
X45772732Y53657830D01*
X45675234Y53840235D01*
X45675233Y53840238D01*
X45615193Y54038164D01*
X45594920Y54244000D01*
X45615193Y54449836D01*
X45675233Y54647762D01*
X45675234Y54647765D01*
X45772732Y54830170D01*
X45903945Y54990055D01*
X46063830Y55121268D01*
X46246235Y55218766D01*
X46246238Y55218767D01*
X46444164Y55278807D01*
X46521293Y55286403D01*
X46598420Y55294000D01*
X46701580Y55294000D01*
X46778707Y55286403D01*
X46778707Y55286403D01*
G37*
G36*
X44238707Y55286403D02*
G01*
X44315836Y55278807D01*
X44513762Y55218767D01*
X44513765Y55218766D01*
X44696170Y55121268D01*
X44856055Y54990055D01*
X44987268Y54830170D01*
X45084766Y54647765D01*
X45084767Y54647762D01*
X45144807Y54449836D01*
X45165080Y54244000D01*
X45144807Y54038164D01*
X45084767Y53840238D01*
X45084766Y53840235D01*
X44987268Y53657830D01*
X44856055Y53497945D01*
X44696170Y53366732D01*
X44513765Y53269234D01*
X44513762Y53269233D01*
X44315836Y53209193D01*
X44238707Y53201597D01*
X44161580Y53194000D01*
X44058420Y53194000D01*
X43981293Y53201596D01*
X43904164Y53209193D01*
X43706238Y53269233D01*
X43706235Y53269234D01*
X43523830Y53366732D01*
X43363945Y53497945D01*
X43232732Y53657830D01*
X43135234Y53840235D01*
X43135233Y53840238D01*
X43075193Y54038164D01*
X43054920Y54244000D01*
X43075193Y54449836D01*
X43135233Y54647762D01*
X43135234Y54647765D01*
X43232732Y54830170D01*
X43363945Y54990055D01*
X43523830Y55121268D01*
X43706235Y55218766D01*
X43706238Y55218767D01*
X43904164Y55278807D01*
X43981293Y55286403D01*
X44058420Y55294000D01*
X44161580Y55294000D01*
X44238707Y55286403D01*
X44238707Y55286403D01*
G37*
G36*
X41698707Y55286403D02*
G01*
X41775836Y55278807D01*
X41973762Y55218767D01*
X41973765Y55218766D01*
X42156170Y55121268D01*
X42316055Y54990055D01*
X42447268Y54830170D01*
X42544766Y54647765D01*
X42544767Y54647762D01*
X42604807Y54449836D01*
X42625080Y54244000D01*
X42604807Y54038164D01*
X42544767Y53840238D01*
X42544766Y53840235D01*
X42447268Y53657830D01*
X42316055Y53497945D01*
X42156170Y53366732D01*
X41973765Y53269234D01*
X41973762Y53269233D01*
X41775836Y53209193D01*
X41698707Y53201597D01*
X41621580Y53194000D01*
X41518420Y53194000D01*
X41441293Y53201596D01*
X41364164Y53209193D01*
X41166238Y53269233D01*
X41166235Y53269234D01*
X40983830Y53366732D01*
X40823945Y53497945D01*
X40692732Y53657830D01*
X40595234Y53840235D01*
X40595233Y53840238D01*
X40535193Y54038164D01*
X40514920Y54244000D01*
X40535193Y54449836D01*
X40595233Y54647762D01*
X40595234Y54647765D01*
X40692732Y54830170D01*
X40823945Y54990055D01*
X40983830Y55121268D01*
X41166235Y55218766D01*
X41166238Y55218767D01*
X41364164Y55278807D01*
X41441293Y55286403D01*
X41518420Y55294000D01*
X41621580Y55294000D01*
X41698707Y55286403D01*
X41698707Y55286403D01*
G37*
G36*
X39158707Y55286403D02*
G01*
X39235836Y55278807D01*
X39433762Y55218767D01*
X39433765Y55218766D01*
X39616170Y55121268D01*
X39776055Y54990055D01*
X39907268Y54830170D01*
X40004766Y54647765D01*
X40004767Y54647762D01*
X40064807Y54449836D01*
X40085080Y54244000D01*
X40064807Y54038164D01*
X40004767Y53840238D01*
X40004766Y53840235D01*
X39907268Y53657830D01*
X39776055Y53497945D01*
X39616170Y53366732D01*
X39433765Y53269234D01*
X39433762Y53269233D01*
X39235836Y53209193D01*
X39158707Y53201597D01*
X39081580Y53194000D01*
X38978420Y53194000D01*
X38901293Y53201596D01*
X38824164Y53209193D01*
X38626238Y53269233D01*
X38626235Y53269234D01*
X38443830Y53366732D01*
X38283945Y53497945D01*
X38152732Y53657830D01*
X38055234Y53840235D01*
X38055233Y53840238D01*
X37995193Y54038164D01*
X37974920Y54244000D01*
X37995193Y54449836D01*
X38055233Y54647762D01*
X38055234Y54647765D01*
X38152732Y54830170D01*
X38283945Y54990055D01*
X38443830Y55121268D01*
X38626235Y55218766D01*
X38626238Y55218767D01*
X38824164Y55278807D01*
X38901293Y55286403D01*
X38978420Y55294000D01*
X39081580Y55294000D01*
X39158707Y55286403D01*
X39158707Y55286403D01*
G37*
G36*
X36618707Y55286403D02*
G01*
X36695836Y55278807D01*
X36893762Y55218767D01*
X36893765Y55218766D01*
X37076170Y55121268D01*
X37236055Y54990055D01*
X37367268Y54830170D01*
X37464766Y54647765D01*
X37464767Y54647762D01*
X37524807Y54449836D01*
X37545080Y54244000D01*
X37524807Y54038164D01*
X37464767Y53840238D01*
X37464766Y53840235D01*
X37367268Y53657830D01*
X37236055Y53497945D01*
X37076170Y53366732D01*
X36893765Y53269234D01*
X36893762Y53269233D01*
X36695836Y53209193D01*
X36618707Y53201597D01*
X36541580Y53194000D01*
X36438420Y53194000D01*
X36361293Y53201596D01*
X36284164Y53209193D01*
X36086238Y53269233D01*
X36086235Y53269234D01*
X35903830Y53366732D01*
X35743945Y53497945D01*
X35612732Y53657830D01*
X35515234Y53840235D01*
X35515233Y53840238D01*
X35455193Y54038164D01*
X35434920Y54244000D01*
X35455193Y54449836D01*
X35515233Y54647762D01*
X35515234Y54647765D01*
X35612732Y54830170D01*
X35743945Y54990055D01*
X35903830Y55121268D01*
X36086235Y55218766D01*
X36086238Y55218767D01*
X36284164Y55278807D01*
X36361293Y55286403D01*
X36438420Y55294000D01*
X36541580Y55294000D01*
X36618707Y55286403D01*
X36618707Y55286403D01*
G37*
G36*
X34078707Y55286403D02*
G01*
X34155836Y55278807D01*
X34353762Y55218767D01*
X34353765Y55218766D01*
X34536170Y55121268D01*
X34696055Y54990055D01*
X34827268Y54830170D01*
X34924766Y54647765D01*
X34924767Y54647762D01*
X34984807Y54449836D01*
X35005080Y54244000D01*
X34984807Y54038164D01*
X34924767Y53840238D01*
X34924766Y53840235D01*
X34827268Y53657830D01*
X34696055Y53497945D01*
X34536170Y53366732D01*
X34353765Y53269234D01*
X34353762Y53269233D01*
X34155836Y53209193D01*
X34078707Y53201597D01*
X34001580Y53194000D01*
X33898420Y53194000D01*
X33821293Y53201596D01*
X33744164Y53209193D01*
X33546238Y53269233D01*
X33546235Y53269234D01*
X33363830Y53366732D01*
X33203945Y53497945D01*
X33072732Y53657830D01*
X32975234Y53840235D01*
X32975233Y53840238D01*
X32915193Y54038164D01*
X32894920Y54244000D01*
X32915193Y54449836D01*
X32975233Y54647762D01*
X32975234Y54647765D01*
X33072732Y54830170D01*
X33203945Y54990055D01*
X33363830Y55121268D01*
X33546235Y55218766D01*
X33546238Y55218767D01*
X33744164Y55278807D01*
X33821293Y55286403D01*
X33898420Y55294000D01*
X34001580Y55294000D01*
X34078707Y55286403D01*
X34078707Y55286403D01*
G37*
G36*
X31538707Y55286403D02*
G01*
X31615836Y55278807D01*
X31813762Y55218767D01*
X31813765Y55218766D01*
X31996170Y55121268D01*
X32156055Y54990055D01*
X32287268Y54830170D01*
X32384766Y54647765D01*
X32384767Y54647762D01*
X32444807Y54449836D01*
X32465080Y54244000D01*
X32444807Y54038164D01*
X32384767Y53840238D01*
X32384766Y53840235D01*
X32287268Y53657830D01*
X32156055Y53497945D01*
X31996170Y53366732D01*
X31813765Y53269234D01*
X31813762Y53269233D01*
X31615836Y53209193D01*
X31538707Y53201597D01*
X31461580Y53194000D01*
X31358420Y53194000D01*
X31281293Y53201596D01*
X31204164Y53209193D01*
X31006238Y53269233D01*
X31006235Y53269234D01*
X30823830Y53366732D01*
X30663945Y53497945D01*
X30532732Y53657830D01*
X30435234Y53840235D01*
X30435233Y53840238D01*
X30375193Y54038164D01*
X30354920Y54244000D01*
X30375193Y54449836D01*
X30435233Y54647762D01*
X30435234Y54647765D01*
X30532732Y54830170D01*
X30663945Y54990055D01*
X30823830Y55121268D01*
X31006235Y55218766D01*
X31006238Y55218767D01*
X31204164Y55278807D01*
X31281293Y55286403D01*
X31358420Y55294000D01*
X31461580Y55294000D01*
X31538707Y55286403D01*
X31538707Y55286403D01*
G37*
G36*
X28998707Y55286403D02*
G01*
X29075836Y55278807D01*
X29273762Y55218767D01*
X29273765Y55218766D01*
X29456170Y55121268D01*
X29616055Y54990055D01*
X29747268Y54830170D01*
X29844766Y54647765D01*
X29844767Y54647762D01*
X29904807Y54449836D01*
X29925080Y54244000D01*
X29904807Y54038164D01*
X29844767Y53840238D01*
X29844766Y53840235D01*
X29747268Y53657830D01*
X29616055Y53497945D01*
X29456170Y53366732D01*
X29273765Y53269234D01*
X29273762Y53269233D01*
X29075836Y53209193D01*
X28998707Y53201597D01*
X28921580Y53194000D01*
X28818420Y53194000D01*
X28741293Y53201596D01*
X28664164Y53209193D01*
X28466238Y53269233D01*
X28466235Y53269234D01*
X28283830Y53366732D01*
X28123945Y53497945D01*
X27992732Y53657830D01*
X27895234Y53840235D01*
X27895233Y53840238D01*
X27835193Y54038164D01*
X27814920Y54244000D01*
X27835193Y54449836D01*
X27895233Y54647762D01*
X27895234Y54647765D01*
X27992732Y54830170D01*
X28123945Y54990055D01*
X28283830Y55121268D01*
X28466235Y55218766D01*
X28466238Y55218767D01*
X28664164Y55278807D01*
X28741293Y55286403D01*
X28818420Y55294000D01*
X28921580Y55294000D01*
X28998707Y55286403D01*
X28998707Y55286403D01*
G37*
G36*
X8678707Y55286403D02*
G01*
X8755836Y55278807D01*
X8953762Y55218767D01*
X8953765Y55218766D01*
X9136170Y55121268D01*
X9296055Y54990055D01*
X9427268Y54830170D01*
X9524766Y54647765D01*
X9524767Y54647762D01*
X9584807Y54449836D01*
X9605080Y54244000D01*
X9584807Y54038164D01*
X9524767Y53840238D01*
X9524766Y53840235D01*
X9427268Y53657830D01*
X9296055Y53497945D01*
X9136170Y53366732D01*
X8953765Y53269234D01*
X8953762Y53269233D01*
X8755836Y53209193D01*
X8678707Y53201597D01*
X8601580Y53194000D01*
X8498420Y53194000D01*
X8421293Y53201596D01*
X8344164Y53209193D01*
X8146238Y53269233D01*
X8146235Y53269234D01*
X7963830Y53366732D01*
X7803945Y53497945D01*
X7672732Y53657830D01*
X7575234Y53840235D01*
X7575233Y53840238D01*
X7515193Y54038164D01*
X7494920Y54244000D01*
X7515193Y54449836D01*
X7575233Y54647762D01*
X7575234Y54647765D01*
X7672732Y54830170D01*
X7803945Y54990055D01*
X7963830Y55121268D01*
X8146235Y55218766D01*
X8146238Y55218767D01*
X8344164Y55278807D01*
X8421293Y55286403D01*
X8498420Y55294000D01*
X8601580Y55294000D01*
X8678707Y55286403D01*
X8678707Y55286403D01*
G37*
G36*
X11218707Y55286403D02*
G01*
X11295836Y55278807D01*
X11493762Y55218767D01*
X11493765Y55218766D01*
X11676170Y55121268D01*
X11836055Y54990055D01*
X11967268Y54830170D01*
X12064766Y54647765D01*
X12064767Y54647762D01*
X12124807Y54449836D01*
X12145080Y54244000D01*
X12124807Y54038164D01*
X12064767Y53840238D01*
X12064766Y53840235D01*
X11967268Y53657830D01*
X11836055Y53497945D01*
X11676170Y53366732D01*
X11493765Y53269234D01*
X11493762Y53269233D01*
X11295836Y53209193D01*
X11218707Y53201597D01*
X11141580Y53194000D01*
X11038420Y53194000D01*
X10961293Y53201596D01*
X10884164Y53209193D01*
X10686238Y53269233D01*
X10686235Y53269234D01*
X10503830Y53366732D01*
X10343945Y53497945D01*
X10212732Y53657830D01*
X10115234Y53840235D01*
X10115233Y53840238D01*
X10055193Y54038164D01*
X10034920Y54244000D01*
X10055193Y54449836D01*
X10115233Y54647762D01*
X10115234Y54647765D01*
X10212732Y54830170D01*
X10343945Y54990055D01*
X10503830Y55121268D01*
X10686235Y55218766D01*
X10686238Y55218767D01*
X10884164Y55278807D01*
X10961293Y55286403D01*
X11038420Y55294000D01*
X11141580Y55294000D01*
X11218707Y55286403D01*
X11218707Y55286403D01*
G37*
G36*
X13758707Y55286403D02*
G01*
X13835836Y55278807D01*
X14033762Y55218767D01*
X14033765Y55218766D01*
X14216170Y55121268D01*
X14376055Y54990055D01*
X14507268Y54830170D01*
X14604766Y54647765D01*
X14604767Y54647762D01*
X14664807Y54449836D01*
X14685080Y54244000D01*
X14664807Y54038164D01*
X14604767Y53840238D01*
X14604766Y53840235D01*
X14507268Y53657830D01*
X14376055Y53497945D01*
X14216170Y53366732D01*
X14033765Y53269234D01*
X14033762Y53269233D01*
X13835836Y53209193D01*
X13758707Y53201597D01*
X13681580Y53194000D01*
X13578420Y53194000D01*
X13501293Y53201596D01*
X13424164Y53209193D01*
X13226238Y53269233D01*
X13226235Y53269234D01*
X13043830Y53366732D01*
X12883945Y53497945D01*
X12752732Y53657830D01*
X12655234Y53840235D01*
X12655233Y53840238D01*
X12595193Y54038164D01*
X12574920Y54244000D01*
X12595193Y54449836D01*
X12655233Y54647762D01*
X12655234Y54647765D01*
X12752732Y54830170D01*
X12883945Y54990055D01*
X13043830Y55121268D01*
X13226235Y55218766D01*
X13226238Y55218767D01*
X13424164Y55278807D01*
X13501293Y55286403D01*
X13578420Y55294000D01*
X13681580Y55294000D01*
X13758707Y55286403D01*
X13758707Y55286403D01*
G37*
G36*
X16298707Y55286403D02*
G01*
X16375836Y55278807D01*
X16573762Y55218767D01*
X16573765Y55218766D01*
X16756170Y55121268D01*
X16916055Y54990055D01*
X17047268Y54830170D01*
X17144766Y54647765D01*
X17144767Y54647762D01*
X17204807Y54449836D01*
X17225080Y54244000D01*
X17204807Y54038164D01*
X17144767Y53840238D01*
X17144766Y53840235D01*
X17047268Y53657830D01*
X16916055Y53497945D01*
X16756170Y53366732D01*
X16573765Y53269234D01*
X16573762Y53269233D01*
X16375836Y53209193D01*
X16298707Y53201597D01*
X16221580Y53194000D01*
X16118420Y53194000D01*
X16041293Y53201596D01*
X15964164Y53209193D01*
X15766238Y53269233D01*
X15766235Y53269234D01*
X15583830Y53366732D01*
X15423945Y53497945D01*
X15292732Y53657830D01*
X15195234Y53840235D01*
X15195233Y53840238D01*
X15135193Y54038164D01*
X15114920Y54244000D01*
X15135193Y54449836D01*
X15195233Y54647762D01*
X15195234Y54647765D01*
X15292732Y54830170D01*
X15423945Y54990055D01*
X15583830Y55121268D01*
X15766235Y55218766D01*
X15766238Y55218767D01*
X15964164Y55278807D01*
X16041293Y55286403D01*
X16118420Y55294000D01*
X16221580Y55294000D01*
X16298707Y55286403D01*
X16298707Y55286403D01*
G37*
G36*
X26458707Y55286403D02*
G01*
X26535836Y55278807D01*
X26733762Y55218767D01*
X26733765Y55218766D01*
X26916170Y55121268D01*
X27076055Y54990055D01*
X27207268Y54830170D01*
X27304766Y54647765D01*
X27304767Y54647762D01*
X27364807Y54449836D01*
X27385080Y54244000D01*
X27364807Y54038164D01*
X27304767Y53840238D01*
X27304766Y53840235D01*
X27207268Y53657830D01*
X27076055Y53497945D01*
X26916170Y53366732D01*
X26733765Y53269234D01*
X26733762Y53269233D01*
X26535836Y53209193D01*
X26458707Y53201597D01*
X26381580Y53194000D01*
X26278420Y53194000D01*
X26201293Y53201596D01*
X26124164Y53209193D01*
X25926238Y53269233D01*
X25926235Y53269234D01*
X25743830Y53366732D01*
X25583945Y53497945D01*
X25452732Y53657830D01*
X25355234Y53840235D01*
X25355233Y53840238D01*
X25295193Y54038164D01*
X25274920Y54244000D01*
X25295193Y54449836D01*
X25355233Y54647762D01*
X25355234Y54647765D01*
X25452732Y54830170D01*
X25583945Y54990055D01*
X25743830Y55121268D01*
X25926235Y55218766D01*
X25926238Y55218767D01*
X26124164Y55278807D01*
X26201293Y55286403D01*
X26278420Y55294000D01*
X26381580Y55294000D01*
X26458707Y55286403D01*
X26458707Y55286403D01*
G37*
G36*
X23918707Y55286403D02*
G01*
X23995836Y55278807D01*
X24193762Y55218767D01*
X24193765Y55218766D01*
X24376170Y55121268D01*
X24536055Y54990055D01*
X24667268Y54830170D01*
X24764766Y54647765D01*
X24764767Y54647762D01*
X24824807Y54449836D01*
X24845080Y54244000D01*
X24824807Y54038164D01*
X24764767Y53840238D01*
X24764766Y53840235D01*
X24667268Y53657830D01*
X24536055Y53497945D01*
X24376170Y53366732D01*
X24193765Y53269234D01*
X24193762Y53269233D01*
X23995836Y53209193D01*
X23918707Y53201597D01*
X23841580Y53194000D01*
X23738420Y53194000D01*
X23661293Y53201596D01*
X23584164Y53209193D01*
X23386238Y53269233D01*
X23386235Y53269234D01*
X23203830Y53366732D01*
X23043945Y53497945D01*
X22912732Y53657830D01*
X22815234Y53840235D01*
X22815233Y53840238D01*
X22755193Y54038164D01*
X22734920Y54244000D01*
X22755193Y54449836D01*
X22815233Y54647762D01*
X22815234Y54647765D01*
X22912732Y54830170D01*
X23043945Y54990055D01*
X23203830Y55121268D01*
X23386235Y55218766D01*
X23386238Y55218767D01*
X23584164Y55278807D01*
X23661293Y55286403D01*
X23738420Y55294000D01*
X23841580Y55294000D01*
X23918707Y55286403D01*
X23918707Y55286403D01*
G37*
G36*
X56938707Y55286403D02*
G01*
X57015836Y55278807D01*
X57213762Y55218767D01*
X57213765Y55218766D01*
X57396170Y55121268D01*
X57556055Y54990055D01*
X57687268Y54830170D01*
X57784766Y54647765D01*
X57784767Y54647762D01*
X57844807Y54449836D01*
X57865080Y54244000D01*
X57844807Y54038164D01*
X57784767Y53840238D01*
X57784766Y53840235D01*
X57687268Y53657830D01*
X57556055Y53497945D01*
X57396170Y53366732D01*
X57213765Y53269234D01*
X57213762Y53269233D01*
X57015836Y53209193D01*
X56938707Y53201597D01*
X56861580Y53194000D01*
X56758420Y53194000D01*
X56681293Y53201596D01*
X56604164Y53209193D01*
X56406238Y53269233D01*
X56406235Y53269234D01*
X56223830Y53366732D01*
X56063945Y53497945D01*
X55932732Y53657830D01*
X55835234Y53840235D01*
X55835233Y53840238D01*
X55775193Y54038164D01*
X55754920Y54244000D01*
X55775193Y54449836D01*
X55835233Y54647762D01*
X55835234Y54647765D01*
X55932732Y54830170D01*
X56063945Y54990055D01*
X56223830Y55121268D01*
X56406235Y55218766D01*
X56406238Y55218767D01*
X56604164Y55278807D01*
X56681293Y55286403D01*
X56758420Y55294000D01*
X56861580Y55294000D01*
X56938707Y55286403D01*
X56938707Y55286403D01*
G37*
G36*
X21378707Y55286403D02*
G01*
X21455836Y55278807D01*
X21653762Y55218767D01*
X21653765Y55218766D01*
X21836170Y55121268D01*
X21996055Y54990055D01*
X22127268Y54830170D01*
X22224766Y54647765D01*
X22224767Y54647762D01*
X22284807Y54449836D01*
X22305080Y54244000D01*
X22284807Y54038164D01*
X22224767Y53840238D01*
X22224766Y53840235D01*
X22127268Y53657830D01*
X21996055Y53497945D01*
X21836170Y53366732D01*
X21653765Y53269234D01*
X21653762Y53269233D01*
X21455836Y53209193D01*
X21378707Y53201597D01*
X21301580Y53194000D01*
X21198420Y53194000D01*
X21121293Y53201596D01*
X21044164Y53209193D01*
X20846238Y53269233D01*
X20846235Y53269234D01*
X20663830Y53366732D01*
X20503945Y53497945D01*
X20372732Y53657830D01*
X20275234Y53840235D01*
X20275233Y53840238D01*
X20215193Y54038164D01*
X20194920Y54244000D01*
X20215193Y54449836D01*
X20275233Y54647762D01*
X20275234Y54647765D01*
X20372732Y54830170D01*
X20503945Y54990055D01*
X20663830Y55121268D01*
X20846235Y55218766D01*
X20846238Y55218767D01*
X21044164Y55278807D01*
X21121293Y55286403D01*
X21198420Y55294000D01*
X21301580Y55294000D01*
X21378707Y55286403D01*
X21378707Y55286403D01*
G37*
M02*
