G04 #@! TF.GenerationSoftware,KiCad,Pcbnew,(5.1.4)-1*
G04 #@! TF.CreationDate,2019-11-05T20:08:47+11:00*
G04 #@! TF.ProjectId,dingo-hat,64696e67-6f2d-4686-9174-2e6b69636164,rev?*
G04 #@! TF.SameCoordinates,PX4af3030PY6fd0060*
G04 #@! TF.FileFunction,Soldermask,Bot*
G04 #@! TF.FilePolarity,Negative*
%FSLAX46Y46*%
G04 Gerber Fmt 4.6, Leading zero omitted, Abs format (unit mm)*
G04 Created by KiCad (PCBNEW (5.1.4)-1) date 2019-11-05 20:08:47*
%MOMM*%
%LPD*%
G04 APERTURE LIST*
%ADD10C,0.010000*%
%ADD11C,0.100000*%
G04 APERTURE END LIST*
D10*
G36*
X41089045Y36851150D02*
G01*
X41086900Y35638300D01*
X40339717Y35636138D01*
X39592533Y35633975D01*
X39592533Y35481667D01*
X41268933Y35481667D01*
X41268933Y38064000D01*
X41091191Y38064000D01*
X41089045Y36851150D01*
X41089045Y36851150D01*
G37*
X41089045Y36851150D02*
X41086900Y35638300D01*
X40339717Y35636138D01*
X39592533Y35633975D01*
X39592533Y35481667D01*
X41268933Y35481667D01*
X41268933Y38064000D01*
X41091191Y38064000D01*
X41089045Y36851150D01*
G36*
X17277975Y36776234D02*
G01*
X17213785Y36636596D01*
X17151503Y36501088D01*
X17091496Y36370515D01*
X17034134Y36245678D01*
X16979784Y36127379D01*
X16928816Y36016422D01*
X16881597Y35913608D01*
X16838497Y35819741D01*
X16799884Y35735622D01*
X16766125Y35662055D01*
X16737591Y35599841D01*
X16714648Y35549784D01*
X16697667Y35512685D01*
X16687014Y35489347D01*
X16683059Y35480573D01*
X16683049Y35480549D01*
X16689710Y35477309D01*
X16710933Y35475281D01*
X16744383Y35474607D01*
X16774419Y35475032D01*
X16868705Y35477434D01*
X17028762Y35828800D01*
X17061875Y35901388D01*
X17093066Y35969557D01*
X17121587Y36031692D01*
X17146694Y36086177D01*
X17167639Y36131396D01*
X17183678Y36165733D01*
X17194063Y36187573D01*
X17197814Y36194983D01*
X17200118Y36197549D01*
X17204411Y36199801D01*
X17211738Y36201760D01*
X17223142Y36203446D01*
X17239666Y36204880D01*
X17262356Y36206081D01*
X17292254Y36207071D01*
X17330405Y36207869D01*
X17377852Y36208496D01*
X17435639Y36208972D01*
X17504809Y36209317D01*
X17586408Y36209552D01*
X17681478Y36209697D01*
X17791063Y36209773D01*
X17916207Y36209799D01*
X17959235Y36209800D01*
X18094304Y36209756D01*
X18213336Y36209614D01*
X18317229Y36209363D01*
X18406878Y36208989D01*
X18483182Y36208479D01*
X18547036Y36207822D01*
X18599338Y36207005D01*
X18640983Y36206014D01*
X18672869Y36204837D01*
X18695893Y36203461D01*
X18710951Y36201875D01*
X18718940Y36200064D01*
X18720587Y36199043D01*
X18725808Y36189324D01*
X18737229Y36165743D01*
X18754117Y36129887D01*
X18775739Y36083343D01*
X18801360Y36027697D01*
X18830245Y35964536D01*
X18861662Y35895445D01*
X18889982Y35832860D01*
X19050448Y35477434D01*
X19141344Y35475020D01*
X19181399Y35474157D01*
X19207283Y35474390D01*
X19221746Y35476131D01*
X19227534Y35479786D01*
X19227398Y35485764D01*
X19226742Y35487720D01*
X19222673Y35496949D01*
X19211924Y35520762D01*
X19194867Y35558348D01*
X19171871Y35608895D01*
X19143308Y35671591D01*
X19109548Y35745624D01*
X19070961Y35830184D01*
X19027919Y35924457D01*
X18980791Y36027633D01*
X18929949Y36138900D01*
X18875762Y36257446D01*
X18828332Y36361179D01*
X18641135Y36361179D01*
X18632048Y36359825D01*
X18607581Y36358609D01*
X18569286Y36357529D01*
X18518715Y36356584D01*
X18457421Y36355775D01*
X18386956Y36355101D01*
X18308873Y36354560D01*
X18224723Y36354152D01*
X18136060Y36353877D01*
X18044436Y36353733D01*
X17951402Y36353721D01*
X17858512Y36353838D01*
X17767318Y36354086D01*
X17679372Y36354463D01*
X17596226Y36354968D01*
X17519434Y36355600D01*
X17450547Y36356360D01*
X17391117Y36357246D01*
X17342698Y36358257D01*
X17306841Y36359394D01*
X17285100Y36360655D01*
X17278897Y36361774D01*
X17281649Y36370358D01*
X17290881Y36393048D01*
X17306012Y36428559D01*
X17326462Y36475606D01*
X17351647Y36532904D01*
X17380988Y36599168D01*
X17413903Y36673114D01*
X17449810Y36753455D01*
X17488129Y36838908D01*
X17528277Y36928188D01*
X17569675Y37020009D01*
X17611740Y37113087D01*
X17653891Y37206137D01*
X17695547Y37297874D01*
X17736127Y37387012D01*
X17775049Y37472268D01*
X17811732Y37552356D01*
X17845595Y37625991D01*
X17876057Y37691889D01*
X17902536Y37748764D01*
X17924450Y37795332D01*
X17941220Y37830308D01*
X17952262Y37852406D01*
X17956753Y37860150D01*
X17965863Y37866675D01*
X17972601Y37859608D01*
X17975969Y37851683D01*
X17980549Y37841152D01*
X17991619Y37816297D01*
X18008682Y37778217D01*
X18031243Y37728013D01*
X18058805Y37666786D01*
X18090873Y37595636D01*
X18126950Y37515664D01*
X18166541Y37427969D01*
X18209148Y37333653D01*
X18254277Y37233816D01*
X18301431Y37129558D01*
X18314852Y37099895D01*
X18362240Y36994983D01*
X18407504Y36894420D01*
X18450168Y36799280D01*
X18489760Y36710637D01*
X18525804Y36629563D01*
X18557826Y36557134D01*
X18585353Y36494422D01*
X18607909Y36442502D01*
X18625021Y36402446D01*
X18636215Y36375329D01*
X18641016Y36362223D01*
X18641135Y36361179D01*
X18828332Y36361179D01*
X18818602Y36382459D01*
X18758839Y36513128D01*
X18696844Y36648642D01*
X18635173Y36783411D01*
X18049100Y38063989D01*
X17959542Y38063995D01*
X17869984Y38064000D01*
X17277975Y36776234D01*
X17277975Y36776234D01*
G37*
X17277975Y36776234D02*
X17213785Y36636596D01*
X17151503Y36501088D01*
X17091496Y36370515D01*
X17034134Y36245678D01*
X16979784Y36127379D01*
X16928816Y36016422D01*
X16881597Y35913608D01*
X16838497Y35819741D01*
X16799884Y35735622D01*
X16766125Y35662055D01*
X16737591Y35599841D01*
X16714648Y35549784D01*
X16697667Y35512685D01*
X16687014Y35489347D01*
X16683059Y35480573D01*
X16683049Y35480549D01*
X16689710Y35477309D01*
X16710933Y35475281D01*
X16744383Y35474607D01*
X16774419Y35475032D01*
X16868705Y35477434D01*
X17028762Y35828800D01*
X17061875Y35901388D01*
X17093066Y35969557D01*
X17121587Y36031692D01*
X17146694Y36086177D01*
X17167639Y36131396D01*
X17183678Y36165733D01*
X17194063Y36187573D01*
X17197814Y36194983D01*
X17200118Y36197549D01*
X17204411Y36199801D01*
X17211738Y36201760D01*
X17223142Y36203446D01*
X17239666Y36204880D01*
X17262356Y36206081D01*
X17292254Y36207071D01*
X17330405Y36207869D01*
X17377852Y36208496D01*
X17435639Y36208972D01*
X17504809Y36209317D01*
X17586408Y36209552D01*
X17681478Y36209697D01*
X17791063Y36209773D01*
X17916207Y36209799D01*
X17959235Y36209800D01*
X18094304Y36209756D01*
X18213336Y36209614D01*
X18317229Y36209363D01*
X18406878Y36208989D01*
X18483182Y36208479D01*
X18547036Y36207822D01*
X18599338Y36207005D01*
X18640983Y36206014D01*
X18672869Y36204837D01*
X18695893Y36203461D01*
X18710951Y36201875D01*
X18718940Y36200064D01*
X18720587Y36199043D01*
X18725808Y36189324D01*
X18737229Y36165743D01*
X18754117Y36129887D01*
X18775739Y36083343D01*
X18801360Y36027697D01*
X18830245Y35964536D01*
X18861662Y35895445D01*
X18889982Y35832860D01*
X19050448Y35477434D01*
X19141344Y35475020D01*
X19181399Y35474157D01*
X19207283Y35474390D01*
X19221746Y35476131D01*
X19227534Y35479786D01*
X19227398Y35485764D01*
X19226742Y35487720D01*
X19222673Y35496949D01*
X19211924Y35520762D01*
X19194867Y35558348D01*
X19171871Y35608895D01*
X19143308Y35671591D01*
X19109548Y35745624D01*
X19070961Y35830184D01*
X19027919Y35924457D01*
X18980791Y36027633D01*
X18929949Y36138900D01*
X18875762Y36257446D01*
X18828332Y36361179D01*
X18641135Y36361179D01*
X18632048Y36359825D01*
X18607581Y36358609D01*
X18569286Y36357529D01*
X18518715Y36356584D01*
X18457421Y36355775D01*
X18386956Y36355101D01*
X18308873Y36354560D01*
X18224723Y36354152D01*
X18136060Y36353877D01*
X18044436Y36353733D01*
X17951402Y36353721D01*
X17858512Y36353838D01*
X17767318Y36354086D01*
X17679372Y36354463D01*
X17596226Y36354968D01*
X17519434Y36355600D01*
X17450547Y36356360D01*
X17391117Y36357246D01*
X17342698Y36358257D01*
X17306841Y36359394D01*
X17285100Y36360655D01*
X17278897Y36361774D01*
X17281649Y36370358D01*
X17290881Y36393048D01*
X17306012Y36428559D01*
X17326462Y36475606D01*
X17351647Y36532904D01*
X17380988Y36599168D01*
X17413903Y36673114D01*
X17449810Y36753455D01*
X17488129Y36838908D01*
X17528277Y36928188D01*
X17569675Y37020009D01*
X17611740Y37113087D01*
X17653891Y37206137D01*
X17695547Y37297874D01*
X17736127Y37387012D01*
X17775049Y37472268D01*
X17811732Y37552356D01*
X17845595Y37625991D01*
X17876057Y37691889D01*
X17902536Y37748764D01*
X17924450Y37795332D01*
X17941220Y37830308D01*
X17952262Y37852406D01*
X17956753Y37860150D01*
X17965863Y37866675D01*
X17972601Y37859608D01*
X17975969Y37851683D01*
X17980549Y37841152D01*
X17991619Y37816297D01*
X18008682Y37778217D01*
X18031243Y37728013D01*
X18058805Y37666786D01*
X18090873Y37595636D01*
X18126950Y37515664D01*
X18166541Y37427969D01*
X18209148Y37333653D01*
X18254277Y37233816D01*
X18301431Y37129558D01*
X18314852Y37099895D01*
X18362240Y36994983D01*
X18407504Y36894420D01*
X18450168Y36799280D01*
X18489760Y36710637D01*
X18525804Y36629563D01*
X18557826Y36557134D01*
X18585353Y36494422D01*
X18607909Y36442502D01*
X18625021Y36402446D01*
X18636215Y36375329D01*
X18641016Y36362223D01*
X18641135Y36361179D01*
X18828332Y36361179D01*
X18818602Y36382459D01*
X18758839Y36513128D01*
X18696844Y36648642D01*
X18635173Y36783411D01*
X18049100Y38063989D01*
X17959542Y38063995D01*
X17869984Y38064000D01*
X17277975Y36776234D01*
G36*
X30356635Y38063566D02*
G01*
X30328751Y38062179D01*
X30313613Y38059553D01*
X30309133Y38055442D01*
X30309806Y38053417D01*
X30315647Y38045184D01*
X30330827Y38024315D01*
X30354622Y37991792D01*
X30386311Y37948599D01*
X30425169Y37895719D01*
X30470474Y37834134D01*
X30521501Y37764828D01*
X30577529Y37688784D01*
X30637834Y37606985D01*
X30701692Y37520413D01*
X30768381Y37430052D01*
X30768650Y37429688D01*
X30846687Y37323938D01*
X30915226Y37230942D01*
X30974856Y37149860D01*
X31026168Y37079847D01*
X31069752Y37020061D01*
X31106200Y36969657D01*
X31136101Y36927793D01*
X31160047Y36893625D01*
X31178627Y36866311D01*
X31192432Y36845007D01*
X31202054Y36828869D01*
X31208081Y36817055D01*
X31211106Y36808721D01*
X31211718Y36803025D01*
X31210507Y36799121D01*
X31210387Y36798922D01*
X31203820Y36789638D01*
X31188008Y36767923D01*
X31163810Y36734934D01*
X31132085Y36691829D01*
X31093691Y36639766D01*
X31049485Y36579903D01*
X31000328Y36513397D01*
X30947077Y36441408D01*
X30890590Y36365091D01*
X30831725Y36285606D01*
X30771342Y36204110D01*
X30710299Y36121762D01*
X30649454Y36039718D01*
X30589665Y35959136D01*
X30531790Y35881176D01*
X30476689Y35806994D01*
X30425220Y35737748D01*
X30378240Y35674596D01*
X30336609Y35618697D01*
X30301184Y35571207D01*
X30272825Y35533285D01*
X30252389Y35506089D01*
X30240735Y35490776D01*
X30238538Y35488017D01*
X30234214Y35481869D01*
X30235368Y35477717D01*
X30244397Y35475182D01*
X30263700Y35473886D01*
X30295673Y35473450D01*
X30330804Y35473464D01*
X30435833Y35473729D01*
X30660088Y35776148D01*
X30755763Y35905159D01*
X30841874Y36021235D01*
X30918936Y36125050D01*
X30987464Y36217274D01*
X31047974Y36298581D01*
X31100981Y36369642D01*
X31146999Y36431131D01*
X31186544Y36483719D01*
X31220132Y36528080D01*
X31248276Y36564884D01*
X31271493Y36594805D01*
X31290297Y36618515D01*
X31305204Y36636687D01*
X31316729Y36649992D01*
X31325387Y36659103D01*
X31331693Y36664693D01*
X31336162Y36667433D01*
X31339309Y36667997D01*
X31341650Y36667056D01*
X31342297Y36666560D01*
X31349111Y36658330D01*
X31365235Y36637478D01*
X31389917Y36605007D01*
X31422408Y36561918D01*
X31461960Y36509213D01*
X31507823Y36447893D01*
X31559247Y36378960D01*
X31615484Y36303415D01*
X31675783Y36222261D01*
X31739396Y36136499D01*
X31792581Y36064687D01*
X32230350Y35473200D01*
X32330042Y35473200D01*
X32368866Y35473576D01*
X32400625Y35474597D01*
X32422014Y35476109D01*
X32429733Y35477928D01*
X32424785Y35485241D01*
X32410399Y35505196D01*
X32387264Y35536861D01*
X32356069Y35579307D01*
X32317500Y35631603D01*
X32272247Y35692819D01*
X32220997Y35762022D01*
X32164440Y35838284D01*
X32103263Y35920674D01*
X32038154Y36008260D01*
X31969802Y36100112D01*
X31938666Y36141922D01*
X31869067Y36235449D01*
X31802409Y36325198D01*
X31739382Y36410232D01*
X31680674Y36489611D01*
X31626975Y36562399D01*
X31578974Y36627658D01*
X31537361Y36684451D01*
X31502823Y36731839D01*
X31476052Y36768885D01*
X31457735Y36794652D01*
X31448562Y36808201D01*
X31447600Y36810048D01*
X31452516Y36818014D01*
X31466791Y36838622D01*
X31489720Y36870901D01*
X31520595Y36913876D01*
X31558709Y36966575D01*
X31603355Y37028025D01*
X31653826Y37097252D01*
X31709415Y37173284D01*
X31769414Y37255148D01*
X31833117Y37341870D01*
X31899817Y37432478D01*
X31904873Y37439338D01*
X32362146Y38059767D01*
X32263107Y38062166D01*
X32219660Y38062904D01*
X32189879Y38062386D01*
X32170520Y38060249D01*
X32158339Y38056129D01*
X32150094Y38049662D01*
X32149909Y38049466D01*
X32142739Y38040400D01*
X32126317Y38018774D01*
X32101438Y37985657D01*
X32068898Y37942121D01*
X32029494Y37889233D01*
X31984021Y37828065D01*
X31933274Y37759686D01*
X31878051Y37685165D01*
X31819146Y37605573D01*
X31757356Y37521980D01*
X31741298Y37500238D01*
X31678980Y37415933D01*
X31619387Y37335469D01*
X31563309Y37259903D01*
X31511535Y37190292D01*
X31464857Y37127694D01*
X31424062Y37073166D01*
X31389942Y37027765D01*
X31363287Y36992549D01*
X31344886Y36968574D01*
X31335529Y36956899D01*
X31334669Y36956004D01*
X31331074Y36955997D01*
X31324636Y36960442D01*
X31314749Y36970118D01*
X31300806Y36985806D01*
X31282203Y37008288D01*
X31258334Y37038343D01*
X31228592Y37076754D01*
X31192372Y37124300D01*
X31149068Y37181763D01*
X31098074Y37249923D01*
X31038784Y37329562D01*
X30970593Y37421460D01*
X30908796Y37504907D01*
X30495100Y38063918D01*
X30399350Y38063959D01*
X30356635Y38063566D01*
X30356635Y38063566D01*
G37*
X30356635Y38063566D02*
X30328751Y38062179D01*
X30313613Y38059553D01*
X30309133Y38055442D01*
X30309806Y38053417D01*
X30315647Y38045184D01*
X30330827Y38024315D01*
X30354622Y37991792D01*
X30386311Y37948599D01*
X30425169Y37895719D01*
X30470474Y37834134D01*
X30521501Y37764828D01*
X30577529Y37688784D01*
X30637834Y37606985D01*
X30701692Y37520413D01*
X30768381Y37430052D01*
X30768650Y37429688D01*
X30846687Y37323938D01*
X30915226Y37230942D01*
X30974856Y37149860D01*
X31026168Y37079847D01*
X31069752Y37020061D01*
X31106200Y36969657D01*
X31136101Y36927793D01*
X31160047Y36893625D01*
X31178627Y36866311D01*
X31192432Y36845007D01*
X31202054Y36828869D01*
X31208081Y36817055D01*
X31211106Y36808721D01*
X31211718Y36803025D01*
X31210507Y36799121D01*
X31210387Y36798922D01*
X31203820Y36789638D01*
X31188008Y36767923D01*
X31163810Y36734934D01*
X31132085Y36691829D01*
X31093691Y36639766D01*
X31049485Y36579903D01*
X31000328Y36513397D01*
X30947077Y36441408D01*
X30890590Y36365091D01*
X30831725Y36285606D01*
X30771342Y36204110D01*
X30710299Y36121762D01*
X30649454Y36039718D01*
X30589665Y35959136D01*
X30531790Y35881176D01*
X30476689Y35806994D01*
X30425220Y35737748D01*
X30378240Y35674596D01*
X30336609Y35618697D01*
X30301184Y35571207D01*
X30272825Y35533285D01*
X30252389Y35506089D01*
X30240735Y35490776D01*
X30238538Y35488017D01*
X30234214Y35481869D01*
X30235368Y35477717D01*
X30244397Y35475182D01*
X30263700Y35473886D01*
X30295673Y35473450D01*
X30330804Y35473464D01*
X30435833Y35473729D01*
X30660088Y35776148D01*
X30755763Y35905159D01*
X30841874Y36021235D01*
X30918936Y36125050D01*
X30987464Y36217274D01*
X31047974Y36298581D01*
X31100981Y36369642D01*
X31146999Y36431131D01*
X31186544Y36483719D01*
X31220132Y36528080D01*
X31248276Y36564884D01*
X31271493Y36594805D01*
X31290297Y36618515D01*
X31305204Y36636687D01*
X31316729Y36649992D01*
X31325387Y36659103D01*
X31331693Y36664693D01*
X31336162Y36667433D01*
X31339309Y36667997D01*
X31341650Y36667056D01*
X31342297Y36666560D01*
X31349111Y36658330D01*
X31365235Y36637478D01*
X31389917Y36605007D01*
X31422408Y36561918D01*
X31461960Y36509213D01*
X31507823Y36447893D01*
X31559247Y36378960D01*
X31615484Y36303415D01*
X31675783Y36222261D01*
X31739396Y36136499D01*
X31792581Y36064687D01*
X32230350Y35473200D01*
X32330042Y35473200D01*
X32368866Y35473576D01*
X32400625Y35474597D01*
X32422014Y35476109D01*
X32429733Y35477928D01*
X32424785Y35485241D01*
X32410399Y35505196D01*
X32387264Y35536861D01*
X32356069Y35579307D01*
X32317500Y35631603D01*
X32272247Y35692819D01*
X32220997Y35762022D01*
X32164440Y35838284D01*
X32103263Y35920674D01*
X32038154Y36008260D01*
X31969802Y36100112D01*
X31938666Y36141922D01*
X31869067Y36235449D01*
X31802409Y36325198D01*
X31739382Y36410232D01*
X31680674Y36489611D01*
X31626975Y36562399D01*
X31578974Y36627658D01*
X31537361Y36684451D01*
X31502823Y36731839D01*
X31476052Y36768885D01*
X31457735Y36794652D01*
X31448562Y36808201D01*
X31447600Y36810048D01*
X31452516Y36818014D01*
X31466791Y36838622D01*
X31489720Y36870901D01*
X31520595Y36913876D01*
X31558709Y36966575D01*
X31603355Y37028025D01*
X31653826Y37097252D01*
X31709415Y37173284D01*
X31769414Y37255148D01*
X31833117Y37341870D01*
X31899817Y37432478D01*
X31904873Y37439338D01*
X32362146Y38059767D01*
X32263107Y38062166D01*
X32219660Y38062904D01*
X32189879Y38062386D01*
X32170520Y38060249D01*
X32158339Y38056129D01*
X32150094Y38049662D01*
X32149909Y38049466D01*
X32142739Y38040400D01*
X32126317Y38018774D01*
X32101438Y37985657D01*
X32068898Y37942121D01*
X32029494Y37889233D01*
X31984021Y37828065D01*
X31933274Y37759686D01*
X31878051Y37685165D01*
X31819146Y37605573D01*
X31757356Y37521980D01*
X31741298Y37500238D01*
X31678980Y37415933D01*
X31619387Y37335469D01*
X31563309Y37259903D01*
X31511535Y37190292D01*
X31464857Y37127694D01*
X31424062Y37073166D01*
X31389942Y37027765D01*
X31363287Y36992549D01*
X31344886Y36968574D01*
X31335529Y36956899D01*
X31334669Y36956004D01*
X31331074Y36955997D01*
X31324636Y36960442D01*
X31314749Y36970118D01*
X31300806Y36985806D01*
X31282203Y37008288D01*
X31258334Y37038343D01*
X31228592Y37076754D01*
X31192372Y37124300D01*
X31149068Y37181763D01*
X31098074Y37249923D01*
X31038784Y37329562D01*
X30970593Y37421460D01*
X30908796Y37504907D01*
X30495100Y38063918D01*
X30399350Y38063959D01*
X30356635Y38063566D01*
G36*
X37844645Y38059767D02*
G01*
X36965339Y36935719D01*
X36870355Y36814384D01*
X36778140Y36696756D01*
X36689237Y36583520D01*
X36604189Y36475359D01*
X36523538Y36372960D01*
X36447828Y36277007D01*
X36377601Y36188185D01*
X36313400Y36107178D01*
X36255768Y36034672D01*
X36205248Y35971352D01*
X36162382Y35917902D01*
X36127714Y35875008D01*
X36101787Y35843353D01*
X36085142Y35823624D01*
X36078324Y35816505D01*
X36078216Y35816502D01*
X36077120Y35825557D01*
X36076091Y35850891D01*
X36075131Y35891852D01*
X36074247Y35947787D01*
X36073442Y36018043D01*
X36072721Y36101965D01*
X36072089Y36198902D01*
X36071550Y36308200D01*
X36071109Y36429205D01*
X36070770Y36561264D01*
X36070538Y36703725D01*
X36070417Y36855934D01*
X36070400Y36942667D01*
X36070400Y38064000D01*
X35892600Y38064000D01*
X35892600Y35473200D01*
X36040766Y35474102D01*
X36925243Y36603322D01*
X37020538Y36724913D01*
X37113050Y36842810D01*
X37202237Y36956329D01*
X37287559Y37064788D01*
X37368474Y37167501D01*
X37444440Y37263788D01*
X37514918Y37352964D01*
X37579365Y37434345D01*
X37637241Y37507250D01*
X37688005Y37570994D01*
X37731115Y37624894D01*
X37766029Y37668268D01*
X37792208Y37700431D01*
X37809110Y37720700D01*
X37816193Y37728393D01*
X37816360Y37728438D01*
X37817166Y37719630D01*
X37817944Y37694877D01*
X37818688Y37655167D01*
X37819393Y37601486D01*
X37820052Y37534824D01*
X37820660Y37456168D01*
X37821211Y37366507D01*
X37821699Y37266827D01*
X37822118Y37158117D01*
X37822463Y37041364D01*
X37822727Y36917557D01*
X37822906Y36787684D01*
X37822992Y36652732D01*
X37823000Y36598767D01*
X37823000Y35473200D01*
X37992333Y35473200D01*
X37992333Y38064659D01*
X37844645Y38059767D01*
X37844645Y38059767D01*
G37*
X37844645Y38059767D02*
X36965339Y36935719D01*
X36870355Y36814384D01*
X36778140Y36696756D01*
X36689237Y36583520D01*
X36604189Y36475359D01*
X36523538Y36372960D01*
X36447828Y36277007D01*
X36377601Y36188185D01*
X36313400Y36107178D01*
X36255768Y36034672D01*
X36205248Y35971352D01*
X36162382Y35917902D01*
X36127714Y35875008D01*
X36101787Y35843353D01*
X36085142Y35823624D01*
X36078324Y35816505D01*
X36078216Y35816502D01*
X36077120Y35825557D01*
X36076091Y35850891D01*
X36075131Y35891852D01*
X36074247Y35947787D01*
X36073442Y36018043D01*
X36072721Y36101965D01*
X36072089Y36198902D01*
X36071550Y36308200D01*
X36071109Y36429205D01*
X36070770Y36561264D01*
X36070538Y36703725D01*
X36070417Y36855934D01*
X36070400Y36942667D01*
X36070400Y38064000D01*
X35892600Y38064000D01*
X35892600Y35473200D01*
X36040766Y35474102D01*
X36925243Y36603322D01*
X37020538Y36724913D01*
X37113050Y36842810D01*
X37202237Y36956329D01*
X37287559Y37064788D01*
X37368474Y37167501D01*
X37444440Y37263788D01*
X37514918Y37352964D01*
X37579365Y37434345D01*
X37637241Y37507250D01*
X37688005Y37570994D01*
X37731115Y37624894D01*
X37766029Y37668268D01*
X37792208Y37700431D01*
X37809110Y37720700D01*
X37816193Y37728393D01*
X37816360Y37728438D01*
X37817166Y37719630D01*
X37817944Y37694877D01*
X37818688Y37655167D01*
X37819393Y37601486D01*
X37820052Y37534824D01*
X37820660Y37456168D01*
X37821211Y37366507D01*
X37821699Y37266827D01*
X37822118Y37158117D01*
X37822463Y37041364D01*
X37822727Y36917557D01*
X37822906Y36787684D01*
X37822992Y36652732D01*
X37823000Y36598767D01*
X37823000Y35473200D01*
X37992333Y35473200D01*
X37992333Y38064659D01*
X37844645Y38059767D01*
G36*
X38915200Y35473200D02*
G01*
X39093000Y35473200D01*
X39093000Y38064000D01*
X38915200Y38064000D01*
X38915200Y35473200D01*
X38915200Y35473200D01*
G37*
X38915200Y35473200D02*
X39093000Y35473200D01*
X39093000Y38064000D01*
X38915200Y38064000D01*
X38915200Y35473200D01*
G36*
X16097225Y37342217D02*
G01*
X16097086Y37229377D01*
X16096772Y37118702D01*
X16096301Y37011747D01*
X16095685Y36910064D01*
X16094940Y36815209D01*
X16094080Y36728735D01*
X16093120Y36652198D01*
X16092074Y36587151D01*
X16090957Y36535149D01*
X16089784Y36497746D01*
X16089178Y36484967D01*
X16077095Y36352653D01*
X16056462Y36233978D01*
X16026786Y36127684D01*
X15987576Y36032517D01*
X15938339Y35947220D01*
X15878582Y35870538D01*
X15828151Y35819386D01*
X15742700Y35751899D01*
X15646990Y35697830D01*
X15541222Y35657279D01*
X15466767Y35638131D01*
X15414279Y35629664D01*
X15350205Y35623446D01*
X15279765Y35619650D01*
X15208180Y35618451D01*
X15140669Y35620023D01*
X15082452Y35624541D01*
X15077582Y35625131D01*
X14958208Y35647511D01*
X14849277Y35683151D01*
X14750991Y35731831D01*
X14663548Y35793329D01*
X14587148Y35867424D01*
X14521991Y35953894D01*
X14468277Y36052518D01*
X14426205Y36163073D01*
X14395975Y36285338D01*
X14379603Y36399654D01*
X14377793Y36427025D01*
X14376169Y36470932D01*
X14374735Y36530980D01*
X14373495Y36606773D01*
X14372454Y36697915D01*
X14371615Y36804010D01*
X14370982Y36924663D01*
X14370561Y37059477D01*
X14370355Y37208057D01*
X14370333Y37278071D01*
X14370333Y38064000D01*
X14201000Y38064000D01*
X14201000Y37247400D01*
X14201038Y37106195D01*
X14201161Y36980857D01*
X14201384Y36870323D01*
X14201722Y36773526D01*
X14202189Y36689403D01*
X14202802Y36616887D01*
X14203573Y36554913D01*
X14204519Y36502417D01*
X14205654Y36458334D01*
X14206992Y36421597D01*
X14208549Y36391143D01*
X14210339Y36365907D01*
X14212378Y36344822D01*
X14213698Y36333935D01*
X14238853Y36193621D01*
X14275941Y36065273D01*
X14324927Y35948932D01*
X14385776Y35844637D01*
X14458451Y35752428D01*
X14542919Y35672344D01*
X14639143Y35604424D01*
X14747088Y35548709D01*
X14866718Y35505238D01*
X14980559Y35477353D01*
X15011796Y35472796D01*
X15055179Y35468604D01*
X15106909Y35464933D01*
X15163185Y35461938D01*
X15220208Y35459774D01*
X15274177Y35458594D01*
X15321293Y35458554D01*
X15357757Y35459809D01*
X15373633Y35461346D01*
X15489122Y35480813D01*
X15590267Y35503966D01*
X15679450Y35531870D01*
X15759055Y35565588D01*
X15831467Y35606185D01*
X15899070Y35654723D01*
X15964247Y35712267D01*
X15987467Y35735281D01*
X16053994Y35811481D01*
X16110600Y35895133D01*
X16158104Y35988016D01*
X16197328Y36091907D01*
X16229091Y36208586D01*
X16247303Y36298700D01*
X16249577Y36313295D01*
X16251608Y36330744D01*
X16253414Y36352087D01*
X16255016Y36378364D01*
X16256433Y36410615D01*
X16257683Y36449880D01*
X16258786Y36497198D01*
X16259761Y36553611D01*
X16260628Y36620158D01*
X16261405Y36697878D01*
X16262113Y36787813D01*
X16262770Y36891001D01*
X16263395Y37008483D01*
X16264008Y37141300D01*
X16264339Y37219450D01*
X16267833Y38064000D01*
X16097533Y38064000D01*
X16097225Y37342217D01*
X16097225Y37342217D01*
G37*
X16097225Y37342217D02*
X16097086Y37229377D01*
X16096772Y37118702D01*
X16096301Y37011747D01*
X16095685Y36910064D01*
X16094940Y36815209D01*
X16094080Y36728735D01*
X16093120Y36652198D01*
X16092074Y36587151D01*
X16090957Y36535149D01*
X16089784Y36497746D01*
X16089178Y36484967D01*
X16077095Y36352653D01*
X16056462Y36233978D01*
X16026786Y36127684D01*
X15987576Y36032517D01*
X15938339Y35947220D01*
X15878582Y35870538D01*
X15828151Y35819386D01*
X15742700Y35751899D01*
X15646990Y35697830D01*
X15541222Y35657279D01*
X15466767Y35638131D01*
X15414279Y35629664D01*
X15350205Y35623446D01*
X15279765Y35619650D01*
X15208180Y35618451D01*
X15140669Y35620023D01*
X15082452Y35624541D01*
X15077582Y35625131D01*
X14958208Y35647511D01*
X14849277Y35683151D01*
X14750991Y35731831D01*
X14663548Y35793329D01*
X14587148Y35867424D01*
X14521991Y35953894D01*
X14468277Y36052518D01*
X14426205Y36163073D01*
X14395975Y36285338D01*
X14379603Y36399654D01*
X14377793Y36427025D01*
X14376169Y36470932D01*
X14374735Y36530980D01*
X14373495Y36606773D01*
X14372454Y36697915D01*
X14371615Y36804010D01*
X14370982Y36924663D01*
X14370561Y37059477D01*
X14370355Y37208057D01*
X14370333Y37278071D01*
X14370333Y38064000D01*
X14201000Y38064000D01*
X14201000Y37247400D01*
X14201038Y37106195D01*
X14201161Y36980857D01*
X14201384Y36870323D01*
X14201722Y36773526D01*
X14202189Y36689403D01*
X14202802Y36616887D01*
X14203573Y36554913D01*
X14204519Y36502417D01*
X14205654Y36458334D01*
X14206992Y36421597D01*
X14208549Y36391143D01*
X14210339Y36365907D01*
X14212378Y36344822D01*
X14213698Y36333935D01*
X14238853Y36193621D01*
X14275941Y36065273D01*
X14324927Y35948932D01*
X14385776Y35844637D01*
X14458451Y35752428D01*
X14542919Y35672344D01*
X14639143Y35604424D01*
X14747088Y35548709D01*
X14866718Y35505238D01*
X14980559Y35477353D01*
X15011796Y35472796D01*
X15055179Y35468604D01*
X15106909Y35464933D01*
X15163185Y35461938D01*
X15220208Y35459774D01*
X15274177Y35458594D01*
X15321293Y35458554D01*
X15357757Y35459809D01*
X15373633Y35461346D01*
X15489122Y35480813D01*
X15590267Y35503966D01*
X15679450Y35531870D01*
X15759055Y35565588D01*
X15831467Y35606185D01*
X15899070Y35654723D01*
X15964247Y35712267D01*
X15987467Y35735281D01*
X16053994Y35811481D01*
X16110600Y35895133D01*
X16158104Y35988016D01*
X16197328Y36091907D01*
X16229091Y36208586D01*
X16247303Y36298700D01*
X16249577Y36313295D01*
X16251608Y36330744D01*
X16253414Y36352087D01*
X16255016Y36378364D01*
X16256433Y36410615D01*
X16257683Y36449880D01*
X16258786Y36497198D01*
X16259761Y36553611D01*
X16260628Y36620158D01*
X16261405Y36697878D01*
X16262113Y36787813D01*
X16262770Y36891001D01*
X16263395Y37008483D01*
X16264008Y37141300D01*
X16264339Y37219450D01*
X16267833Y38064000D01*
X16097533Y38064000D01*
X16097225Y37342217D01*
G36*
X34817333Y37245937D02*
G01*
X34817317Y37102469D01*
X34817234Y36974809D01*
X34817035Y36861833D01*
X34816670Y36762417D01*
X34816090Y36675434D01*
X34815244Y36599762D01*
X34814082Y36534274D01*
X34812556Y36477845D01*
X34810614Y36429353D01*
X34808208Y36387670D01*
X34805287Y36351674D01*
X34801801Y36320238D01*
X34797701Y36292239D01*
X34792937Y36266551D01*
X34787459Y36242049D01*
X34781217Y36217610D01*
X34774162Y36192108D01*
X34770006Y36177534D01*
X34730178Y36066291D01*
X34677886Y35966354D01*
X34613546Y35878113D01*
X34537578Y35801962D01*
X34450399Y35738291D01*
X34352427Y35687494D01*
X34244079Y35649961D01*
X34195033Y35638131D01*
X34142545Y35629664D01*
X34078472Y35623446D01*
X34008032Y35619650D01*
X33936447Y35618451D01*
X33868936Y35620023D01*
X33810719Y35624541D01*
X33805849Y35625131D01*
X33686445Y35647496D01*
X33577531Y35683096D01*
X33479287Y35731732D01*
X33391892Y35793208D01*
X33315524Y35867327D01*
X33250363Y35953891D01*
X33196588Y36052703D01*
X33154376Y36163567D01*
X33123909Y36286284D01*
X33107956Y36394282D01*
X33106078Y36421147D01*
X33104405Y36464745D01*
X33102939Y36524876D01*
X33101683Y36601343D01*
X33100637Y36693945D01*
X33099805Y36802484D01*
X33099189Y36926761D01*
X33098790Y37066576D01*
X33098610Y37221731D01*
X33098600Y37272699D01*
X33098600Y38064000D01*
X32928591Y38064000D01*
X32931665Y37198283D01*
X32932164Y37055284D01*
X32932624Y36928107D01*
X32933097Y36815646D01*
X32933640Y36716789D01*
X32934306Y36630427D01*
X32935150Y36555452D01*
X32936225Y36490754D01*
X32937588Y36435223D01*
X32939292Y36387750D01*
X32941391Y36347225D01*
X32943940Y36312540D01*
X32946994Y36282585D01*
X32950606Y36256250D01*
X32954831Y36232427D01*
X32959725Y36210005D01*
X32965340Y36187875D01*
X32971732Y36164929D01*
X32978954Y36140056D01*
X32984521Y36120947D01*
X33027447Y36000467D01*
X33082968Y35891216D01*
X33150750Y35793489D01*
X33230460Y35707581D01*
X33321762Y35633787D01*
X33424323Y35572403D01*
X33537808Y35523722D01*
X33661882Y35488041D01*
X33713504Y35477635D01*
X33761125Y35471108D01*
X33820723Y35465934D01*
X33887384Y35462268D01*
X33956195Y35460266D01*
X34022243Y35460082D01*
X34080613Y35461870D01*
X34118833Y35464864D01*
X34253887Y35487104D01*
X34378226Y35522340D01*
X34491690Y35570441D01*
X34594121Y35631276D01*
X34685357Y35704716D01*
X34765238Y35790629D01*
X34833606Y35888884D01*
X34890299Y35999351D01*
X34935158Y36121898D01*
X34939209Y36135579D01*
X34947147Y36163110D01*
X34954207Y36188511D01*
X34960445Y36212902D01*
X34965916Y36237401D01*
X34970675Y36263127D01*
X34974778Y36291201D01*
X34978279Y36322740D01*
X34981235Y36358864D01*
X34983700Y36400692D01*
X34985730Y36449343D01*
X34987379Y36505936D01*
X34988704Y36571590D01*
X34989760Y36647425D01*
X34990600Y36734559D01*
X34991282Y36834111D01*
X34991860Y36947202D01*
X34992390Y37074948D01*
X34992927Y37218471D01*
X34992946Y37223683D01*
X34996036Y38064000D01*
X34817333Y38064000D01*
X34817333Y37245937D01*
X34817333Y37245937D01*
G37*
X34817333Y37245937D02*
X34817317Y37102469D01*
X34817234Y36974809D01*
X34817035Y36861833D01*
X34816670Y36762417D01*
X34816090Y36675434D01*
X34815244Y36599762D01*
X34814082Y36534274D01*
X34812556Y36477845D01*
X34810614Y36429353D01*
X34808208Y36387670D01*
X34805287Y36351674D01*
X34801801Y36320238D01*
X34797701Y36292239D01*
X34792937Y36266551D01*
X34787459Y36242049D01*
X34781217Y36217610D01*
X34774162Y36192108D01*
X34770006Y36177534D01*
X34730178Y36066291D01*
X34677886Y35966354D01*
X34613546Y35878113D01*
X34537578Y35801962D01*
X34450399Y35738291D01*
X34352427Y35687494D01*
X34244079Y35649961D01*
X34195033Y35638131D01*
X34142545Y35629664D01*
X34078472Y35623446D01*
X34008032Y35619650D01*
X33936447Y35618451D01*
X33868936Y35620023D01*
X33810719Y35624541D01*
X33805849Y35625131D01*
X33686445Y35647496D01*
X33577531Y35683096D01*
X33479287Y35731732D01*
X33391892Y35793208D01*
X33315524Y35867327D01*
X33250363Y35953891D01*
X33196588Y36052703D01*
X33154376Y36163567D01*
X33123909Y36286284D01*
X33107956Y36394282D01*
X33106078Y36421147D01*
X33104405Y36464745D01*
X33102939Y36524876D01*
X33101683Y36601343D01*
X33100637Y36693945D01*
X33099805Y36802484D01*
X33099189Y36926761D01*
X33098790Y37066576D01*
X33098610Y37221731D01*
X33098600Y37272699D01*
X33098600Y38064000D01*
X32928591Y38064000D01*
X32931665Y37198283D01*
X32932164Y37055284D01*
X32932624Y36928107D01*
X32933097Y36815646D01*
X32933640Y36716789D01*
X32934306Y36630427D01*
X32935150Y36555452D01*
X32936225Y36490754D01*
X32937588Y36435223D01*
X32939292Y36387750D01*
X32941391Y36347225D01*
X32943940Y36312540D01*
X32946994Y36282585D01*
X32950606Y36256250D01*
X32954831Y36232427D01*
X32959725Y36210005D01*
X32965340Y36187875D01*
X32971732Y36164929D01*
X32978954Y36140056D01*
X32984521Y36120947D01*
X33027447Y36000467D01*
X33082968Y35891216D01*
X33150750Y35793489D01*
X33230460Y35707581D01*
X33321762Y35633787D01*
X33424323Y35572403D01*
X33537808Y35523722D01*
X33661882Y35488041D01*
X33713504Y35477635D01*
X33761125Y35471108D01*
X33820723Y35465934D01*
X33887384Y35462268D01*
X33956195Y35460266D01*
X34022243Y35460082D01*
X34080613Y35461870D01*
X34118833Y35464864D01*
X34253887Y35487104D01*
X34378226Y35522340D01*
X34491690Y35570441D01*
X34594121Y35631276D01*
X34685357Y35704716D01*
X34765238Y35790629D01*
X34833606Y35888884D01*
X34890299Y35999351D01*
X34935158Y36121898D01*
X34939209Y36135579D01*
X34947147Y36163110D01*
X34954207Y36188511D01*
X34960445Y36212902D01*
X34965916Y36237401D01*
X34970675Y36263127D01*
X34974778Y36291201D01*
X34978279Y36322740D01*
X34981235Y36358864D01*
X34983700Y36400692D01*
X34985730Y36449343D01*
X34987379Y36505936D01*
X34988704Y36571590D01*
X34989760Y36647425D01*
X34990600Y36734559D01*
X34991282Y36834111D01*
X34991860Y36947202D01*
X34992390Y37074948D01*
X34992927Y37218471D01*
X34992946Y37223683D01*
X34996036Y38064000D01*
X34817333Y38064000D01*
X34817333Y37245937D01*
D11*
G36*
X11730983Y8284240D02*
G01*
X11917999Y8227510D01*
X12090344Y8135389D01*
X12241412Y8011412D01*
X12365389Y7860344D01*
X12457510Y7687999D01*
X12514240Y7500983D01*
X12534000Y7300360D01*
X12534000Y1287640D01*
X12514240Y1087017D01*
X12457510Y900001D01*
X12365389Y727656D01*
X12241412Y576588D01*
X12090344Y452611D01*
X11917999Y360490D01*
X11730983Y303760D01*
X11530360Y284000D01*
X9297640Y284000D01*
X9097017Y303760D01*
X8910001Y360490D01*
X8737656Y452611D01*
X8586588Y576588D01*
X8462611Y727656D01*
X8370490Y900001D01*
X8313760Y1087017D01*
X8294000Y1287640D01*
X8294000Y7300360D01*
X8313760Y7500983D01*
X8370490Y7687999D01*
X8462611Y7860344D01*
X8586588Y8011412D01*
X8737656Y8135389D01*
X8910001Y8227510D01*
X9097017Y8284240D01*
X9297640Y8304000D01*
X11530360Y8304000D01*
X11730983Y8284240D01*
X11730983Y8284240D01*
G37*
G36*
X37136983Y8284240D02*
G01*
X37323999Y8227510D01*
X37496344Y8135389D01*
X37647412Y8011412D01*
X37771389Y7860344D01*
X37863510Y7687999D01*
X37920240Y7500983D01*
X37940000Y7300360D01*
X37940000Y1287640D01*
X37920240Y1087017D01*
X37863510Y900001D01*
X37771389Y727656D01*
X37647412Y576588D01*
X37496344Y452611D01*
X37323999Y360490D01*
X37136983Y303760D01*
X36936360Y284000D01*
X34703640Y284000D01*
X34503017Y303760D01*
X34316001Y360490D01*
X34143656Y452611D01*
X33992588Y576588D01*
X33868611Y727656D01*
X33776490Y900001D01*
X33719760Y1087017D01*
X33700000Y1287640D01*
X33700000Y7300360D01*
X33719760Y7500983D01*
X33776490Y7687999D01*
X33868611Y7860344D01*
X33992588Y8011412D01*
X34143656Y8135389D01*
X34316001Y8227510D01*
X34503017Y8284240D01*
X34703640Y8304000D01*
X36936360Y8304000D01*
X37136983Y8284240D01*
X37136983Y8284240D01*
G37*
G36*
X29513983Y8284240D02*
G01*
X29700999Y8227510D01*
X29873344Y8135389D01*
X30024412Y8011412D01*
X30148389Y7860344D01*
X30240510Y7687999D01*
X30297240Y7500983D01*
X30317000Y7300360D01*
X30317000Y1287640D01*
X30297240Y1087017D01*
X30240510Y900001D01*
X30148389Y727656D01*
X30024412Y576588D01*
X29873344Y452611D01*
X29700999Y360490D01*
X29513983Y303760D01*
X29313360Y284000D01*
X27080640Y284000D01*
X26880017Y303760D01*
X26693001Y360490D01*
X26520656Y452611D01*
X26369588Y576588D01*
X26245611Y727656D01*
X26153490Y900001D01*
X26096760Y1087017D01*
X26077000Y1287640D01*
X26077000Y7300360D01*
X26096760Y7500983D01*
X26153490Y7687999D01*
X26245611Y7860344D01*
X26369588Y8011412D01*
X26520656Y8135389D01*
X26693001Y8227510D01*
X26880017Y8284240D01*
X27080640Y8304000D01*
X29313360Y8304000D01*
X29513983Y8284240D01*
X29513983Y8284240D01*
G37*
G36*
X24433983Y8284240D02*
G01*
X24620999Y8227510D01*
X24793344Y8135389D01*
X24944412Y8011412D01*
X25068389Y7860344D01*
X25160510Y7687999D01*
X25217240Y7500983D01*
X25237000Y7300360D01*
X25237000Y1287640D01*
X25217240Y1087017D01*
X25160510Y900001D01*
X25068389Y727656D01*
X24944412Y576588D01*
X24793344Y452611D01*
X24620999Y360490D01*
X24433983Y303760D01*
X24233360Y284000D01*
X22000640Y284000D01*
X21800017Y303760D01*
X21613001Y360490D01*
X21440656Y452611D01*
X21289588Y576588D01*
X21165611Y727656D01*
X21073490Y900001D01*
X21016760Y1087017D01*
X20997000Y1287640D01*
X20997000Y7300360D01*
X21016760Y7500983D01*
X21073490Y7687999D01*
X21165611Y7860344D01*
X21289588Y8011412D01*
X21440656Y8135389D01*
X21613001Y8227510D01*
X21800017Y8284240D01*
X22000640Y8304000D01*
X24233360Y8304000D01*
X24433983Y8284240D01*
X24433983Y8284240D01*
G37*
G36*
X16810983Y8284240D02*
G01*
X16997999Y8227510D01*
X17170344Y8135389D01*
X17321412Y8011412D01*
X17445389Y7860344D01*
X17537510Y7687999D01*
X17594240Y7500983D01*
X17614000Y7300360D01*
X17614000Y1287640D01*
X17594240Y1087017D01*
X17537510Y900001D01*
X17445389Y727656D01*
X17321412Y576588D01*
X17170344Y452611D01*
X16997999Y360490D01*
X16810983Y303760D01*
X16610360Y284000D01*
X14377640Y284000D01*
X14177017Y303760D01*
X13990001Y360490D01*
X13817656Y452611D01*
X13666588Y576588D01*
X13542611Y727656D01*
X13450490Y900001D01*
X13393760Y1087017D01*
X13374000Y1287640D01*
X13374000Y7300360D01*
X13393760Y7500983D01*
X13450490Y7687999D01*
X13542611Y7860344D01*
X13666588Y8011412D01*
X13817656Y8135389D01*
X13990001Y8227510D01*
X14177017Y8284240D01*
X14377640Y8304000D01*
X16610360Y8304000D01*
X16810983Y8284240D01*
X16810983Y8284240D01*
G37*
G36*
X42216983Y8284240D02*
G01*
X42403999Y8227510D01*
X42576344Y8135389D01*
X42727412Y8011412D01*
X42851389Y7860344D01*
X42943510Y7687999D01*
X43000240Y7500983D01*
X43020000Y7300360D01*
X43020000Y1287640D01*
X43000240Y1087017D01*
X42943510Y900001D01*
X42851389Y727656D01*
X42727412Y576588D01*
X42576344Y452611D01*
X42403999Y360490D01*
X42216983Y303760D01*
X42016360Y284000D01*
X39783640Y284000D01*
X39583017Y303760D01*
X39396001Y360490D01*
X39223656Y452611D01*
X39072588Y576588D01*
X38948611Y727656D01*
X38856490Y900001D01*
X38799760Y1087017D01*
X38780000Y1287640D01*
X38780000Y7300360D01*
X38799760Y7500983D01*
X38856490Y7687999D01*
X38948611Y7860344D01*
X39072588Y8011412D01*
X39223656Y8135389D01*
X39396001Y8227510D01*
X39583017Y8284240D01*
X39783640Y8304000D01*
X42016360Y8304000D01*
X42216983Y8284240D01*
X42216983Y8284240D01*
G37*
G36*
X3801162Y5689414D02*
G01*
X3975041Y5654827D01*
X4302620Y5519139D01*
X4597433Y5322151D01*
X4848151Y5071433D01*
X5045139Y4776620D01*
X5180827Y4449041D01*
X5180827Y4449039D01*
X5248011Y4111286D01*
X5250000Y4101284D01*
X5250000Y3746716D01*
X5180827Y3398959D01*
X5045139Y3071380D01*
X4848151Y2776567D01*
X4597433Y2525849D01*
X4302620Y2328861D01*
X3975041Y2193173D01*
X3801163Y2158587D01*
X3627286Y2124000D01*
X3272714Y2124000D01*
X3098837Y2158587D01*
X2924959Y2193173D01*
X2597380Y2328861D01*
X2302567Y2525849D01*
X2051849Y2776567D01*
X1854861Y3071380D01*
X1719173Y3398959D01*
X1650000Y3746716D01*
X1650000Y4101284D01*
X1651990Y4111286D01*
X1719173Y4449039D01*
X1719173Y4449041D01*
X1854861Y4776620D01*
X2051849Y5071433D01*
X2302567Y5322151D01*
X2597380Y5519139D01*
X2924959Y5654827D01*
X3098838Y5689414D01*
X3272714Y5724000D01*
X3627286Y5724000D01*
X3801162Y5689414D01*
X3801162Y5689414D01*
G37*
G36*
X61791162Y5699414D02*
G01*
X61965041Y5664827D01*
X62292620Y5529139D01*
X62587433Y5332151D01*
X62838151Y5081433D01*
X63035139Y4786620D01*
X63170827Y4459041D01*
X63173291Y4446653D01*
X63240000Y4111286D01*
X63240000Y3756714D01*
X63223869Y3675619D01*
X63170827Y3408959D01*
X63035139Y3081380D01*
X62838151Y2786567D01*
X62587433Y2535849D01*
X62292620Y2338861D01*
X61965041Y2203173D01*
X61818378Y2174000D01*
X61617286Y2134000D01*
X61262714Y2134000D01*
X61061622Y2174000D01*
X60914959Y2203173D01*
X60587380Y2338861D01*
X60292567Y2535849D01*
X60041849Y2786567D01*
X59844861Y3081380D01*
X59709173Y3408959D01*
X59656131Y3675619D01*
X59640000Y3756714D01*
X59640000Y4111286D01*
X59706709Y4446653D01*
X59709173Y4459041D01*
X59844861Y4786620D01*
X60041849Y5081433D01*
X60292567Y5332151D01*
X60587380Y5529139D01*
X60914959Y5664827D01*
X61088838Y5699414D01*
X61262714Y5734000D01*
X61617286Y5734000D01*
X61791162Y5699414D01*
X61791162Y5699414D01*
G37*
G36*
X54969722Y4548344D02*
G01*
X55073566Y4527688D01*
X55130866Y4503953D01*
X55269203Y4446653D01*
X55445272Y4329007D01*
X55595007Y4179272D01*
X55712653Y4003203D01*
X55793688Y3807565D01*
X55835000Y3599879D01*
X55835000Y3388121D01*
X55793688Y3180435D01*
X55712653Y2984797D01*
X55595007Y2808728D01*
X55445272Y2658993D01*
X55269203Y2541347D01*
X55130866Y2484047D01*
X55073566Y2460312D01*
X54969722Y2439656D01*
X54865879Y2419000D01*
X54654121Y2419000D01*
X54550278Y2439656D01*
X54446434Y2460312D01*
X54389134Y2484047D01*
X54250797Y2541347D01*
X54074728Y2658993D01*
X53924993Y2808728D01*
X53807347Y2984797D01*
X53726312Y3180435D01*
X53685000Y3388121D01*
X53685000Y3599879D01*
X53726312Y3807565D01*
X53807347Y4003203D01*
X53924993Y4179272D01*
X54074728Y4329007D01*
X54250797Y4446653D01*
X54389134Y4503953D01*
X54446434Y4527688D01*
X54550278Y4548344D01*
X54654121Y4569000D01*
X54865879Y4569000D01*
X54969722Y4548344D01*
X54969722Y4548344D01*
G37*
G36*
X50835000Y2419000D02*
G01*
X48685000Y2419000D01*
X48685000Y4569000D01*
X50835000Y4569000D01*
X50835000Y2419000D01*
X50835000Y2419000D01*
G37*
G36*
X52469722Y4548344D02*
G01*
X52573566Y4527688D01*
X52630866Y4503953D01*
X52769203Y4446653D01*
X52945272Y4329007D01*
X53095007Y4179272D01*
X53212653Y4003203D01*
X53293688Y3807565D01*
X53335000Y3599879D01*
X53335000Y3388121D01*
X53293688Y3180435D01*
X53212653Y2984797D01*
X53095007Y2808728D01*
X52945272Y2658993D01*
X52769203Y2541347D01*
X52630866Y2484047D01*
X52573566Y2460312D01*
X52469722Y2439656D01*
X52365879Y2419000D01*
X52154121Y2419000D01*
X52050278Y2439656D01*
X51946434Y2460312D01*
X51889134Y2484047D01*
X51750797Y2541347D01*
X51574728Y2658993D01*
X51424993Y2808728D01*
X51307347Y2984797D01*
X51226312Y3180435D01*
X51185000Y3388121D01*
X51185000Y3599879D01*
X51226312Y3807565D01*
X51307347Y4003203D01*
X51424993Y4179272D01*
X51574728Y4329007D01*
X51750797Y4446653D01*
X51889134Y4503953D01*
X51946434Y4527688D01*
X52050278Y4548344D01*
X52154121Y4569000D01*
X52365879Y4569000D01*
X52469722Y4548344D01*
X52469722Y4548344D01*
G37*
G36*
X6853707Y10916403D02*
G01*
X6930836Y10908807D01*
X7128762Y10848767D01*
X7128765Y10848766D01*
X7311170Y10751268D01*
X7471055Y10620055D01*
X7602268Y10460170D01*
X7699766Y10277765D01*
X7699767Y10277762D01*
X7759807Y10079836D01*
X7780080Y9874000D01*
X7759807Y9668164D01*
X7699767Y9470238D01*
X7699766Y9470235D01*
X7602268Y9287830D01*
X7471055Y9127945D01*
X7311170Y8996732D01*
X7128765Y8899234D01*
X7128762Y8899233D01*
X6930836Y8839193D01*
X6853707Y8831596D01*
X6776580Y8824000D01*
X6673420Y8824000D01*
X6596293Y8831596D01*
X6519164Y8839193D01*
X6321238Y8899233D01*
X6321235Y8899234D01*
X6138830Y8996732D01*
X5978945Y9127945D01*
X5847732Y9287830D01*
X5750234Y9470235D01*
X5750233Y9470238D01*
X5690193Y9668164D01*
X5669920Y9874000D01*
X5690193Y10079836D01*
X5750233Y10277762D01*
X5750234Y10277765D01*
X5847732Y10460170D01*
X5978945Y10620055D01*
X6138830Y10751268D01*
X6321235Y10848766D01*
X6321238Y10848767D01*
X6519164Y10908807D01*
X6596293Y10916403D01*
X6673420Y10924000D01*
X6776580Y10924000D01*
X6853707Y10916403D01*
X6853707Y10916403D01*
G37*
G36*
X2695000Y8824000D02*
G01*
X595000Y8824000D01*
X595000Y10924000D01*
X2695000Y10924000D01*
X2695000Y8824000D01*
X2695000Y8824000D01*
G37*
G36*
X4313707Y10916403D02*
G01*
X4390836Y10908807D01*
X4588762Y10848767D01*
X4588765Y10848766D01*
X4771170Y10751268D01*
X4931055Y10620055D01*
X5062268Y10460170D01*
X5159766Y10277765D01*
X5159767Y10277762D01*
X5219807Y10079836D01*
X5240080Y9874000D01*
X5219807Y9668164D01*
X5159767Y9470238D01*
X5159766Y9470235D01*
X5062268Y9287830D01*
X4931055Y9127945D01*
X4771170Y8996732D01*
X4588765Y8899234D01*
X4588762Y8899233D01*
X4390836Y8839193D01*
X4313707Y8831596D01*
X4236580Y8824000D01*
X4133420Y8824000D01*
X4056293Y8831596D01*
X3979164Y8839193D01*
X3781238Y8899233D01*
X3781235Y8899234D01*
X3598830Y8996732D01*
X3438945Y9127945D01*
X3307732Y9287830D01*
X3210234Y9470235D01*
X3210233Y9470238D01*
X3150193Y9668164D01*
X3129920Y9874000D01*
X3150193Y10079836D01*
X3210233Y10277762D01*
X3210234Y10277765D01*
X3307732Y10460170D01*
X3438945Y10620055D01*
X3598830Y10751268D01*
X3781235Y10848766D01*
X3781238Y10848767D01*
X3979164Y10908807D01*
X4056293Y10916403D01*
X4133420Y10924000D01*
X4236580Y10924000D01*
X4313707Y10916403D01*
X4313707Y10916403D01*
G37*
G36*
X4313707Y13456403D02*
G01*
X4390836Y13448807D01*
X4588762Y13388767D01*
X4588765Y13388766D01*
X4771170Y13291268D01*
X4931055Y13160055D01*
X5062268Y13000170D01*
X5159766Y12817765D01*
X5159767Y12817762D01*
X5219807Y12619836D01*
X5240080Y12414000D01*
X5219807Y12208164D01*
X5209072Y12172776D01*
X5159766Y12010235D01*
X5062268Y11827830D01*
X4931055Y11667945D01*
X4771170Y11536732D01*
X4588765Y11439234D01*
X4588762Y11439233D01*
X4390836Y11379193D01*
X4313707Y11371597D01*
X4236580Y11364000D01*
X4133420Y11364000D01*
X4056293Y11371597D01*
X3979164Y11379193D01*
X3781238Y11439233D01*
X3781235Y11439234D01*
X3598830Y11536732D01*
X3438945Y11667945D01*
X3307732Y11827830D01*
X3210234Y12010235D01*
X3160928Y12172776D01*
X3150193Y12208164D01*
X3129920Y12414000D01*
X3150193Y12619836D01*
X3210233Y12817762D01*
X3210234Y12817765D01*
X3307732Y13000170D01*
X3438945Y13160055D01*
X3598830Y13291268D01*
X3781235Y13388766D01*
X3781238Y13388767D01*
X3979164Y13448807D01*
X4056293Y13456403D01*
X4133420Y13464000D01*
X4236580Y13464000D01*
X4313707Y13456403D01*
X4313707Y13456403D01*
G37*
G36*
X6853707Y13456403D02*
G01*
X6930836Y13448807D01*
X7128762Y13388767D01*
X7128765Y13388766D01*
X7311170Y13291268D01*
X7471055Y13160055D01*
X7602268Y13000170D01*
X7699766Y12817765D01*
X7699767Y12817762D01*
X7759807Y12619836D01*
X7780080Y12414000D01*
X7759807Y12208164D01*
X7749072Y12172776D01*
X7699766Y12010235D01*
X7602268Y11827830D01*
X7471055Y11667945D01*
X7311170Y11536732D01*
X7128765Y11439234D01*
X7128762Y11439233D01*
X6930836Y11379193D01*
X6853707Y11371597D01*
X6776580Y11364000D01*
X6673420Y11364000D01*
X6596293Y11371597D01*
X6519164Y11379193D01*
X6321238Y11439233D01*
X6321235Y11439234D01*
X6138830Y11536732D01*
X5978945Y11667945D01*
X5847732Y11827830D01*
X5750234Y12010235D01*
X5700928Y12172776D01*
X5690193Y12208164D01*
X5669920Y12414000D01*
X5690193Y12619836D01*
X5750233Y12817762D01*
X5750234Y12817765D01*
X5847732Y13000170D01*
X5978945Y13160055D01*
X6138830Y13291268D01*
X6321235Y13388766D01*
X6321238Y13388767D01*
X6519164Y13448807D01*
X6596293Y13456403D01*
X6673420Y13464000D01*
X6776580Y13464000D01*
X6853707Y13456403D01*
X6853707Y13456403D01*
G37*
G36*
X2695000Y11364000D02*
G01*
X595000Y11364000D01*
X595000Y13464000D01*
X2695000Y13464000D01*
X2695000Y11364000D01*
X2695000Y11364000D01*
G37*
G36*
X38956000Y13007598D02*
G01*
X38958402Y12983212D01*
X38965515Y12959763D01*
X38977066Y12938152D01*
X38992611Y12919210D01*
X39011553Y12903665D01*
X39033164Y12892114D01*
X39056613Y12885001D01*
X39080999Y12882599D01*
X39105385Y12885001D01*
X39139921Y12897358D01*
X39256825Y12959845D01*
X39388776Y12999872D01*
X39491610Y13010000D01*
X39560390Y13010000D01*
X39663224Y12999872D01*
X39795175Y12959845D01*
X39916781Y12894845D01*
X40023370Y12807370D01*
X40110845Y12700781D01*
X40175845Y12579175D01*
X40215872Y12447224D01*
X40229387Y12310000D01*
X40215872Y12172776D01*
X40175845Y12040825D01*
X40110845Y11919219D01*
X40023370Y11812630D01*
X39916781Y11725155D01*
X39795175Y11660155D01*
X39663224Y11620128D01*
X39560390Y11610000D01*
X39491610Y11610000D01*
X39388776Y11620128D01*
X39256825Y11660155D01*
X39139920Y11722642D01*
X39117284Y11732019D01*
X39093251Y11736799D01*
X39068747Y11736799D01*
X39044714Y11732019D01*
X39022075Y11722641D01*
X39001700Y11709027D01*
X38984373Y11691700D01*
X38970760Y11671326D01*
X38961382Y11648687D01*
X38956000Y11612402D01*
X38956000Y11610000D01*
X37556000Y11610000D01*
X37556000Y13010000D01*
X38956000Y13010000D01*
X38956000Y13007598D01*
X38956000Y13007598D01*
G37*
G36*
X57534249Y18679019D02*
G01*
X57807575Y18596106D01*
X57807578Y18596105D01*
X58059472Y18461465D01*
X58280266Y18280266D01*
X58461465Y18059473D01*
X58596105Y17807579D01*
X58596105Y17807578D01*
X58596106Y17807576D01*
X58679019Y17534250D01*
X58700000Y17321225D01*
X58700000Y14678775D01*
X58679019Y14465750D01*
X58600814Y14207945D01*
X58596105Y14192421D01*
X58461465Y13940527D01*
X58280266Y13719734D01*
X58059473Y13538535D01*
X57807579Y13403895D01*
X57807576Y13403894D01*
X57534250Y13320981D01*
X57250000Y13292985D01*
X56965751Y13320981D01*
X56692425Y13403894D01*
X56692422Y13403895D01*
X56440528Y13538535D01*
X56219735Y13719734D01*
X56038536Y13940527D01*
X55903896Y14192421D01*
X55899187Y14207945D01*
X55820982Y14465750D01*
X55800001Y14678775D01*
X55800000Y17321224D01*
X55820981Y17534249D01*
X55903894Y17807575D01*
X55903895Y17807578D01*
X56038535Y18059472D01*
X56219734Y18280266D01*
X56440527Y18461465D01*
X56692421Y18596105D01*
X56692424Y18596106D01*
X56965750Y18679019D01*
X57250000Y18707015D01*
X57534249Y18679019D01*
X57534249Y18679019D01*
G37*
G36*
X63509744Y18430828D02*
G01*
X63759508Y18355063D01*
X63989691Y18232028D01*
X64191450Y18066450D01*
X64357028Y17864692D01*
X64480063Y17634509D01*
X64555828Y17384745D01*
X64575000Y17190091D01*
X64575000Y14809909D01*
X64555828Y14615255D01*
X64480063Y14365491D01*
X64357028Y14135308D01*
X64191450Y13933550D01*
X63989692Y13767972D01*
X63759509Y13644937D01*
X63509745Y13569172D01*
X63250000Y13543589D01*
X62990256Y13569172D01*
X62740492Y13644937D01*
X62510309Y13767972D01*
X62308551Y13933550D01*
X62142973Y14135308D01*
X62019938Y14365491D01*
X61944173Y14615255D01*
X61925001Y14809909D01*
X61925000Y17190090D01*
X61944172Y17384744D01*
X62019937Y17634508D01*
X62142972Y17864691D01*
X62308550Y18066450D01*
X62510308Y18232028D01*
X62740491Y18355063D01*
X62990255Y18430828D01*
X63250000Y18456411D01*
X63509744Y18430828D01*
X63509744Y18430828D01*
G37*
G36*
X4303707Y15996403D02*
G01*
X4380836Y15988807D01*
X4578762Y15928767D01*
X4578765Y15928766D01*
X4761170Y15831268D01*
X4921055Y15700055D01*
X5052268Y15540170D01*
X5149766Y15357765D01*
X5149767Y15357762D01*
X5209807Y15159836D01*
X5230080Y14954000D01*
X5209807Y14748164D01*
X5149767Y14550238D01*
X5149766Y14550235D01*
X5052268Y14367830D01*
X4921055Y14207945D01*
X4761170Y14076732D01*
X4578765Y13979234D01*
X4578762Y13979233D01*
X4380836Y13919193D01*
X4303707Y13911596D01*
X4226580Y13904000D01*
X4123420Y13904000D01*
X4046293Y13911597D01*
X3969164Y13919193D01*
X3771238Y13979233D01*
X3771235Y13979234D01*
X3588830Y14076732D01*
X3428945Y14207945D01*
X3297732Y14367830D01*
X3200234Y14550235D01*
X3200233Y14550238D01*
X3140193Y14748164D01*
X3119920Y14954000D01*
X3140193Y15159836D01*
X3200233Y15357762D01*
X3200234Y15357765D01*
X3297732Y15540170D01*
X3428945Y15700055D01*
X3588830Y15831268D01*
X3771235Y15928766D01*
X3771238Y15928767D01*
X3969164Y15988807D01*
X4046293Y15996403D01*
X4123420Y16004000D01*
X4226580Y16004000D01*
X4303707Y15996403D01*
X4303707Y15996403D01*
G37*
G36*
X2685000Y13904000D02*
G01*
X585000Y13904000D01*
X585000Y16004000D01*
X2685000Y16004000D01*
X2685000Y13904000D01*
X2685000Y13904000D01*
G37*
G36*
X6843707Y15996403D02*
G01*
X6920836Y15988807D01*
X7118762Y15928767D01*
X7118765Y15928766D01*
X7301170Y15831268D01*
X7461055Y15700055D01*
X7592268Y15540170D01*
X7689766Y15357765D01*
X7689767Y15357762D01*
X7749807Y15159836D01*
X7770080Y14954000D01*
X7749807Y14748164D01*
X7689767Y14550238D01*
X7689766Y14550235D01*
X7592268Y14367830D01*
X7461055Y14207945D01*
X7301170Y14076732D01*
X7118765Y13979234D01*
X7118762Y13979233D01*
X6920836Y13919193D01*
X6843707Y13911596D01*
X6766580Y13904000D01*
X6663420Y13904000D01*
X6586293Y13911597D01*
X6509164Y13919193D01*
X6311238Y13979233D01*
X6311235Y13979234D01*
X6128830Y14076732D01*
X5968945Y14207945D01*
X5837732Y14367830D01*
X5740234Y14550235D01*
X5740233Y14550238D01*
X5680193Y14748164D01*
X5659920Y14954000D01*
X5680193Y15159836D01*
X5740233Y15357762D01*
X5740234Y15357765D01*
X5837732Y15540170D01*
X5968945Y15700055D01*
X6128830Y15831268D01*
X6311235Y15928766D01*
X6311238Y15928767D01*
X6509164Y15988807D01*
X6586293Y15996403D01*
X6663420Y16004000D01*
X6766580Y16004000D01*
X6843707Y15996403D01*
X6843707Y15996403D01*
G37*
G36*
X2685000Y16444000D02*
G01*
X585000Y16444000D01*
X585000Y18544000D01*
X2685000Y18544000D01*
X2685000Y16444000D01*
X2685000Y16444000D01*
G37*
G36*
X6843707Y18536403D02*
G01*
X6920836Y18528807D01*
X7118762Y18468767D01*
X7118765Y18468766D01*
X7301170Y18371268D01*
X7461055Y18240055D01*
X7592268Y18080170D01*
X7689766Y17897765D01*
X7689767Y17897762D01*
X7749807Y17699836D01*
X7770080Y17494000D01*
X7749807Y17288164D01*
X7720055Y17190085D01*
X7689766Y17090235D01*
X7592268Y16907830D01*
X7461055Y16747945D01*
X7301170Y16616732D01*
X7118765Y16519234D01*
X7118762Y16519233D01*
X6920836Y16459193D01*
X6843707Y16451596D01*
X6766580Y16444000D01*
X6663420Y16444000D01*
X6586293Y16451596D01*
X6509164Y16459193D01*
X6311238Y16519233D01*
X6311235Y16519234D01*
X6128830Y16616732D01*
X5968945Y16747945D01*
X5837732Y16907830D01*
X5740234Y17090235D01*
X5709945Y17190085D01*
X5680193Y17288164D01*
X5659920Y17494000D01*
X5680193Y17699836D01*
X5740233Y17897762D01*
X5740234Y17897765D01*
X5837732Y18080170D01*
X5968945Y18240055D01*
X6128830Y18371268D01*
X6311235Y18468766D01*
X6311238Y18468767D01*
X6509164Y18528807D01*
X6586293Y18536404D01*
X6663420Y18544000D01*
X6766580Y18544000D01*
X6843707Y18536403D01*
X6843707Y18536403D01*
G37*
G36*
X4303707Y18536403D02*
G01*
X4380836Y18528807D01*
X4578762Y18468767D01*
X4578765Y18468766D01*
X4761170Y18371268D01*
X4921055Y18240055D01*
X5052268Y18080170D01*
X5149766Y17897765D01*
X5149767Y17897762D01*
X5209807Y17699836D01*
X5230080Y17494000D01*
X5209807Y17288164D01*
X5180055Y17190085D01*
X5149766Y17090235D01*
X5052268Y16907830D01*
X4921055Y16747945D01*
X4761170Y16616732D01*
X4578765Y16519234D01*
X4578762Y16519233D01*
X4380836Y16459193D01*
X4303707Y16451596D01*
X4226580Y16444000D01*
X4123420Y16444000D01*
X4046293Y16451596D01*
X3969164Y16459193D01*
X3771238Y16519233D01*
X3771235Y16519234D01*
X3588830Y16616732D01*
X3428945Y16747945D01*
X3297732Y16907830D01*
X3200234Y17090235D01*
X3169945Y17190085D01*
X3140193Y17288164D01*
X3119920Y17494000D01*
X3140193Y17699836D01*
X3200233Y17897762D01*
X3200234Y17897765D01*
X3297732Y18080170D01*
X3428945Y18240055D01*
X3588830Y18371268D01*
X3771235Y18468766D01*
X3771238Y18468767D01*
X3969164Y18528807D01*
X4046293Y18536404D01*
X4123420Y18544000D01*
X4226580Y18544000D01*
X4303707Y18536403D01*
X4303707Y18536403D01*
G37*
G36*
X62378707Y27242404D02*
G01*
X62455836Y27234807D01*
X62653762Y27174767D01*
X62653765Y27174766D01*
X62836170Y27077268D01*
X62996055Y26946055D01*
X63127268Y26786170D01*
X63224766Y26603765D01*
X63224767Y26603762D01*
X63284807Y26405836D01*
X63305080Y26200000D01*
X63284807Y25994164D01*
X63224767Y25796238D01*
X63224766Y25796235D01*
X63127268Y25613830D01*
X62996055Y25453945D01*
X62836170Y25322732D01*
X62653765Y25225234D01*
X62653762Y25225233D01*
X62455836Y25165193D01*
X62378707Y25157596D01*
X62301580Y25150000D01*
X62198420Y25150000D01*
X62121293Y25157596D01*
X62044164Y25165193D01*
X61846238Y25225233D01*
X61846235Y25225234D01*
X61663830Y25322732D01*
X61503945Y25453945D01*
X61372732Y25613830D01*
X61275234Y25796235D01*
X61275233Y25796238D01*
X61215193Y25994164D01*
X61194920Y26200000D01*
X61215193Y26405836D01*
X61275233Y26603762D01*
X61275234Y26603765D01*
X61372732Y26786170D01*
X61503945Y26946055D01*
X61663830Y27077268D01*
X61846235Y27174766D01*
X61846238Y27174767D01*
X62044164Y27234807D01*
X62121293Y27242404D01*
X62198420Y27250000D01*
X62301580Y27250000D01*
X62378707Y27242404D01*
X62378707Y27242404D01*
G37*
G36*
X62378707Y29782404D02*
G01*
X62455836Y29774807D01*
X62653762Y29714767D01*
X62653765Y29714766D01*
X62836170Y29617268D01*
X62996055Y29486055D01*
X63127268Y29326170D01*
X63224766Y29143765D01*
X63224767Y29143762D01*
X63284807Y28945836D01*
X63305080Y28740000D01*
X63284807Y28534164D01*
X63224767Y28336238D01*
X63224766Y28336235D01*
X63127268Y28153830D01*
X62996055Y27993945D01*
X62836170Y27862732D01*
X62653765Y27765234D01*
X62653762Y27765233D01*
X62455836Y27705193D01*
X62378707Y27697596D01*
X62301580Y27690000D01*
X62198420Y27690000D01*
X62121293Y27697596D01*
X62044164Y27705193D01*
X61846238Y27765233D01*
X61846235Y27765234D01*
X61663830Y27862732D01*
X61503945Y27993945D01*
X61372732Y28153830D01*
X61275234Y28336235D01*
X61275233Y28336238D01*
X61215193Y28534164D01*
X61194920Y28740000D01*
X61215193Y28945836D01*
X61275233Y29143762D01*
X61275234Y29143765D01*
X61372732Y29326170D01*
X61503945Y29486055D01*
X61663830Y29617268D01*
X61846235Y29714766D01*
X61846238Y29714767D01*
X62044164Y29774807D01*
X62121293Y29782404D01*
X62198420Y29790000D01*
X62301580Y29790000D01*
X62378707Y29782404D01*
X62378707Y29782404D01*
G37*
G36*
X62378707Y32322403D02*
G01*
X62455836Y32314807D01*
X62653762Y32254767D01*
X62653765Y32254766D01*
X62836170Y32157268D01*
X62996055Y32026055D01*
X63127268Y31866170D01*
X63224766Y31683765D01*
X63224767Y31683762D01*
X63284807Y31485836D01*
X63305080Y31280000D01*
X63284807Y31074164D01*
X63224767Y30876238D01*
X63224766Y30876235D01*
X63127268Y30693830D01*
X62996055Y30533945D01*
X62836170Y30402732D01*
X62653765Y30305234D01*
X62653762Y30305233D01*
X62455836Y30245193D01*
X62378707Y30237596D01*
X62301580Y30230000D01*
X62198420Y30230000D01*
X62121293Y30237596D01*
X62044164Y30245193D01*
X61846238Y30305233D01*
X61846235Y30305234D01*
X61663830Y30402732D01*
X61503945Y30533945D01*
X61372732Y30693830D01*
X61275234Y30876235D01*
X61275233Y30876238D01*
X61215193Y31074164D01*
X61194920Y31280000D01*
X61215193Y31485836D01*
X61275233Y31683762D01*
X61275234Y31683765D01*
X61372732Y31866170D01*
X61503945Y32026055D01*
X61663830Y32157268D01*
X61846235Y32254766D01*
X61846238Y32254767D01*
X62044164Y32314807D01*
X62121293Y32322403D01*
X62198420Y32330000D01*
X62301580Y32330000D01*
X62378707Y32322403D01*
X62378707Y32322403D01*
G37*
G36*
X63300000Y32770000D02*
G01*
X61200000Y32770000D01*
X61200000Y34870000D01*
X63300000Y34870000D01*
X63300000Y32770000D01*
X63300000Y32770000D01*
G37*
G36*
X51158707Y39942404D02*
G01*
X51235836Y39934807D01*
X51433762Y39874767D01*
X51433765Y39874766D01*
X51616170Y39777268D01*
X51776055Y39646055D01*
X51907268Y39486170D01*
X52004766Y39303765D01*
X52004767Y39303762D01*
X52064807Y39105836D01*
X52085080Y38900000D01*
X52064807Y38694164D01*
X52004767Y38496238D01*
X52004766Y38496235D01*
X51907268Y38313830D01*
X51776055Y38153945D01*
X51616170Y38022732D01*
X51433765Y37925234D01*
X51433762Y37925233D01*
X51235836Y37865193D01*
X51158707Y37857597D01*
X51081580Y37850000D01*
X50978420Y37850000D01*
X50901293Y37857597D01*
X50824164Y37865193D01*
X50626238Y37925233D01*
X50626235Y37925234D01*
X50443830Y38022732D01*
X50283945Y38153945D01*
X50152732Y38313830D01*
X50055234Y38496235D01*
X50055233Y38496238D01*
X49995193Y38694164D01*
X49974920Y38900000D01*
X49995193Y39105836D01*
X50055233Y39303762D01*
X50055234Y39303765D01*
X50152732Y39486170D01*
X50283945Y39646055D01*
X50443830Y39777268D01*
X50626235Y39874766D01*
X50626238Y39874767D01*
X50824164Y39934807D01*
X50901293Y39942404D01*
X50978420Y39950000D01*
X51081580Y39950000D01*
X51158707Y39942404D01*
X51158707Y39942404D01*
G37*
G36*
X54620000Y37850000D02*
G01*
X52520000Y37850000D01*
X52520000Y39950000D01*
X54620000Y39950000D01*
X54620000Y37850000D01*
X54620000Y37850000D01*
G37*
G36*
X62358707Y39942404D02*
G01*
X62435836Y39934807D01*
X62633762Y39874767D01*
X62633765Y39874766D01*
X62816170Y39777268D01*
X62976055Y39646055D01*
X63107268Y39486170D01*
X63204766Y39303765D01*
X63204767Y39303762D01*
X63264807Y39105836D01*
X63285080Y38900000D01*
X63264807Y38694164D01*
X63204767Y38496238D01*
X63204766Y38496235D01*
X63107268Y38313830D01*
X62976055Y38153945D01*
X62816170Y38022732D01*
X62633765Y37925234D01*
X62633762Y37925233D01*
X62435836Y37865193D01*
X62358707Y37857597D01*
X62281580Y37850000D01*
X62178420Y37850000D01*
X62101293Y37857597D01*
X62024164Y37865193D01*
X61826238Y37925233D01*
X61826235Y37925234D01*
X61643830Y38022732D01*
X61483945Y38153945D01*
X61352732Y38313830D01*
X61255234Y38496235D01*
X61255233Y38496238D01*
X61195193Y38694164D01*
X61174920Y38900000D01*
X61195193Y39105836D01*
X61255233Y39303762D01*
X61255234Y39303765D01*
X61352732Y39486170D01*
X61483945Y39646055D01*
X61643830Y39777268D01*
X61826235Y39874766D01*
X61826238Y39874767D01*
X62024164Y39934807D01*
X62101293Y39942404D01*
X62178420Y39950000D01*
X62281580Y39950000D01*
X62358707Y39942404D01*
X62358707Y39942404D01*
G37*
G36*
X48618707Y39942404D02*
G01*
X48695836Y39934807D01*
X48893762Y39874767D01*
X48893765Y39874766D01*
X49076170Y39777268D01*
X49236055Y39646055D01*
X49367268Y39486170D01*
X49464766Y39303765D01*
X49464767Y39303762D01*
X49524807Y39105836D01*
X49545080Y38900000D01*
X49524807Y38694164D01*
X49464767Y38496238D01*
X49464766Y38496235D01*
X49367268Y38313830D01*
X49236055Y38153945D01*
X49076170Y38022732D01*
X48893765Y37925234D01*
X48893762Y37925233D01*
X48695836Y37865193D01*
X48618707Y37857597D01*
X48541580Y37850000D01*
X48438420Y37850000D01*
X48361293Y37857597D01*
X48284164Y37865193D01*
X48086238Y37925233D01*
X48086235Y37925234D01*
X47903830Y38022732D01*
X47743945Y38153945D01*
X47612732Y38313830D01*
X47515234Y38496235D01*
X47515233Y38496238D01*
X47455193Y38694164D01*
X47434920Y38900000D01*
X47455193Y39105836D01*
X47515233Y39303762D01*
X47515234Y39303765D01*
X47612732Y39486170D01*
X47743945Y39646055D01*
X47903830Y39777268D01*
X48086235Y39874766D01*
X48086238Y39874767D01*
X48284164Y39934807D01*
X48361293Y39942404D01*
X48438420Y39950000D01*
X48541580Y39950000D01*
X48618707Y39942404D01*
X48618707Y39942404D01*
G37*
G36*
X46078707Y39942404D02*
G01*
X46155836Y39934807D01*
X46353762Y39874767D01*
X46353765Y39874766D01*
X46536170Y39777268D01*
X46696055Y39646055D01*
X46827268Y39486170D01*
X46924766Y39303765D01*
X46924767Y39303762D01*
X46984807Y39105836D01*
X47005080Y38900000D01*
X46984807Y38694164D01*
X46924767Y38496238D01*
X46924766Y38496235D01*
X46827268Y38313830D01*
X46696055Y38153945D01*
X46536170Y38022732D01*
X46353765Y37925234D01*
X46353762Y37925233D01*
X46155836Y37865193D01*
X46078707Y37857597D01*
X46001580Y37850000D01*
X45898420Y37850000D01*
X45821293Y37857597D01*
X45744164Y37865193D01*
X45546238Y37925233D01*
X45546235Y37925234D01*
X45363830Y38022732D01*
X45203945Y38153945D01*
X45072732Y38313830D01*
X44975234Y38496235D01*
X44975233Y38496238D01*
X44915193Y38694164D01*
X44894920Y38900000D01*
X44915193Y39105836D01*
X44975233Y39303762D01*
X44975234Y39303765D01*
X45072732Y39486170D01*
X45203945Y39646055D01*
X45363830Y39777268D01*
X45546235Y39874766D01*
X45546238Y39874767D01*
X45744164Y39934807D01*
X45821293Y39942404D01*
X45898420Y39950000D01*
X46001580Y39950000D01*
X46078707Y39942404D01*
X46078707Y39942404D01*
G37*
G36*
X62358707Y42482403D02*
G01*
X62435836Y42474807D01*
X62633762Y42414767D01*
X62633765Y42414766D01*
X62816170Y42317268D01*
X62976055Y42186055D01*
X63107268Y42026170D01*
X63204766Y41843765D01*
X63204767Y41843762D01*
X63264807Y41645836D01*
X63285080Y41440000D01*
X63264807Y41234164D01*
X63204767Y41036238D01*
X63204766Y41036235D01*
X63107268Y40853830D01*
X62976055Y40693945D01*
X62816170Y40562732D01*
X62633765Y40465234D01*
X62633762Y40465233D01*
X62435836Y40405193D01*
X62358707Y40397596D01*
X62281580Y40390000D01*
X62178420Y40390000D01*
X62101293Y40397596D01*
X62024164Y40405193D01*
X61826238Y40465233D01*
X61826235Y40465234D01*
X61643830Y40562732D01*
X61483945Y40693945D01*
X61352732Y40853830D01*
X61255234Y41036235D01*
X61255233Y41036238D01*
X61195193Y41234164D01*
X61174920Y41440000D01*
X61195193Y41645836D01*
X61255233Y41843762D01*
X61255234Y41843765D01*
X61352732Y42026170D01*
X61483945Y42186055D01*
X61643830Y42317268D01*
X61826235Y42414766D01*
X61826238Y42414767D01*
X62024164Y42474807D01*
X62101293Y42482403D01*
X62178420Y42490000D01*
X62281580Y42490000D01*
X62358707Y42482403D01*
X62358707Y42482403D01*
G37*
G36*
X62358707Y45022404D02*
G01*
X62435836Y45014807D01*
X62633762Y44954767D01*
X62633765Y44954766D01*
X62816170Y44857268D01*
X62976055Y44726055D01*
X63107268Y44566170D01*
X63204766Y44383765D01*
X63204767Y44383762D01*
X63264807Y44185836D01*
X63285080Y43980000D01*
X63264807Y43774164D01*
X63204767Y43576238D01*
X63204766Y43576235D01*
X63107268Y43393830D01*
X62976055Y43233945D01*
X62816170Y43102732D01*
X62633765Y43005234D01*
X62633762Y43005233D01*
X62435836Y42945193D01*
X62358707Y42937597D01*
X62281580Y42930000D01*
X62178420Y42930000D01*
X62101293Y42937597D01*
X62024164Y42945193D01*
X61826238Y43005233D01*
X61826235Y43005234D01*
X61643830Y43102732D01*
X61483945Y43233945D01*
X61352732Y43393830D01*
X61255234Y43576235D01*
X61255233Y43576238D01*
X61195193Y43774164D01*
X61174920Y43980000D01*
X61195193Y44185836D01*
X61255233Y44383762D01*
X61255234Y44383765D01*
X61352732Y44566170D01*
X61483945Y44726055D01*
X61643830Y44857268D01*
X61826235Y44954766D01*
X61826238Y44954767D01*
X62024164Y45014807D01*
X62101293Y45022404D01*
X62178420Y45030000D01*
X62281580Y45030000D01*
X62358707Y45022404D01*
X62358707Y45022404D01*
G37*
G36*
X53698707Y47562403D02*
G01*
X53775836Y47554807D01*
X53973762Y47494767D01*
X53973765Y47494766D01*
X54156170Y47397268D01*
X54316055Y47266055D01*
X54447268Y47106170D01*
X54544766Y46923765D01*
X54544767Y46923762D01*
X54604807Y46725836D01*
X54625080Y46520000D01*
X54604807Y46314164D01*
X54544767Y46116238D01*
X54544766Y46116235D01*
X54447268Y45933830D01*
X54316055Y45773945D01*
X54156170Y45642732D01*
X53973765Y45545234D01*
X53973762Y45545233D01*
X53775836Y45485193D01*
X53698707Y45477596D01*
X53621580Y45470000D01*
X53518420Y45470000D01*
X53441293Y45477596D01*
X53364164Y45485193D01*
X53166238Y45545233D01*
X53166235Y45545234D01*
X52983830Y45642732D01*
X52823945Y45773945D01*
X52692732Y45933830D01*
X52595234Y46116235D01*
X52595233Y46116238D01*
X52535193Y46314164D01*
X52514920Y46520000D01*
X52535193Y46725836D01*
X52595233Y46923762D01*
X52595234Y46923765D01*
X52692732Y47106170D01*
X52823945Y47266055D01*
X52983830Y47397268D01*
X53166235Y47494766D01*
X53166238Y47494767D01*
X53364164Y47554807D01*
X53441293Y47562403D01*
X53518420Y47570000D01*
X53621580Y47570000D01*
X53698707Y47562403D01*
X53698707Y47562403D01*
G37*
G36*
X49540000Y45470000D02*
G01*
X47440000Y45470000D01*
X47440000Y47570000D01*
X49540000Y47570000D01*
X49540000Y45470000D01*
X49540000Y45470000D01*
G37*
G36*
X51158707Y47562403D02*
G01*
X51235836Y47554807D01*
X51433762Y47494767D01*
X51433765Y47494766D01*
X51616170Y47397268D01*
X51776055Y47266055D01*
X51907268Y47106170D01*
X52004766Y46923765D01*
X52004767Y46923762D01*
X52064807Y46725836D01*
X52085080Y46520000D01*
X52064807Y46314164D01*
X52004767Y46116238D01*
X52004766Y46116235D01*
X51907268Y45933830D01*
X51776055Y45773945D01*
X51616170Y45642732D01*
X51433765Y45545234D01*
X51433762Y45545233D01*
X51235836Y45485193D01*
X51158707Y45477596D01*
X51081580Y45470000D01*
X50978420Y45470000D01*
X50901293Y45477596D01*
X50824164Y45485193D01*
X50626238Y45545233D01*
X50626235Y45545234D01*
X50443830Y45642732D01*
X50283945Y45773945D01*
X50152732Y45933830D01*
X50055234Y46116235D01*
X50055233Y46116238D01*
X49995193Y46314164D01*
X49974920Y46520000D01*
X49995193Y46725836D01*
X50055233Y46923762D01*
X50055234Y46923765D01*
X50152732Y47106170D01*
X50283945Y47266055D01*
X50443830Y47397268D01*
X50626235Y47494766D01*
X50626238Y47494767D01*
X50824164Y47554807D01*
X50901293Y47562403D01*
X50978420Y47570000D01*
X51081580Y47570000D01*
X51158707Y47562403D01*
X51158707Y47562403D01*
G37*
G36*
X63280000Y45470000D02*
G01*
X61180000Y45470000D01*
X61180000Y47570000D01*
X63280000Y47570000D01*
X63280000Y45470000D01*
X63280000Y45470000D01*
G37*
G36*
X19496707Y49200404D02*
G01*
X19573836Y49192807D01*
X19771762Y49132767D01*
X19771765Y49132766D01*
X19954170Y49035268D01*
X20114055Y48904055D01*
X20245268Y48744170D01*
X20342766Y48561765D01*
X20342767Y48561762D01*
X20402807Y48363836D01*
X20423080Y48158000D01*
X20402807Y47952164D01*
X20342767Y47754238D01*
X20342766Y47754235D01*
X20245268Y47571830D01*
X20114055Y47411945D01*
X19954170Y47280732D01*
X19771765Y47183234D01*
X19771762Y47183233D01*
X19573836Y47123193D01*
X19496707Y47115597D01*
X19419580Y47108000D01*
X19316420Y47108000D01*
X19239293Y47115597D01*
X19162164Y47123193D01*
X18964238Y47183233D01*
X18964235Y47183234D01*
X18781830Y47280732D01*
X18621945Y47411945D01*
X18490732Y47571830D01*
X18393234Y47754235D01*
X18393233Y47754238D01*
X18333193Y47952164D01*
X18312920Y48158000D01*
X18333193Y48363836D01*
X18393233Y48561762D01*
X18393234Y48561765D01*
X18490732Y48744170D01*
X18621945Y48904055D01*
X18781830Y49035268D01*
X18964235Y49132766D01*
X18964238Y49132767D01*
X19162164Y49192807D01*
X19239293Y49200404D01*
X19316420Y49208000D01*
X19419580Y49208000D01*
X19496707Y49200404D01*
X19496707Y49200404D01*
G37*
G36*
X24576707Y49200404D02*
G01*
X24653836Y49192807D01*
X24851762Y49132767D01*
X24851765Y49132766D01*
X25034170Y49035268D01*
X25194055Y48904055D01*
X25325268Y48744170D01*
X25422766Y48561765D01*
X25422767Y48561762D01*
X25482807Y48363836D01*
X25503080Y48158000D01*
X25482807Y47952164D01*
X25422767Y47754238D01*
X25422766Y47754235D01*
X25325268Y47571830D01*
X25194055Y47411945D01*
X25034170Y47280732D01*
X24851765Y47183234D01*
X24851762Y47183233D01*
X24653836Y47123193D01*
X24576707Y47115597D01*
X24499580Y47108000D01*
X24396420Y47108000D01*
X24319293Y47115597D01*
X24242164Y47123193D01*
X24044238Y47183233D01*
X24044235Y47183234D01*
X23861830Y47280732D01*
X23701945Y47411945D01*
X23570732Y47571830D01*
X23473234Y47754235D01*
X23473233Y47754238D01*
X23413193Y47952164D01*
X23392920Y48158000D01*
X23413193Y48363836D01*
X23473233Y48561762D01*
X23473234Y48561765D01*
X23570732Y48744170D01*
X23701945Y48904055D01*
X23861830Y49035268D01*
X24044235Y49132766D01*
X24044238Y49132767D01*
X24242164Y49192807D01*
X24319293Y49200404D01*
X24396420Y49208000D01*
X24499580Y49208000D01*
X24576707Y49200404D01*
X24576707Y49200404D01*
G37*
G36*
X22036707Y49200404D02*
G01*
X22113836Y49192807D01*
X22311762Y49132767D01*
X22311765Y49132766D01*
X22494170Y49035268D01*
X22654055Y48904055D01*
X22785268Y48744170D01*
X22882766Y48561765D01*
X22882767Y48561762D01*
X22942807Y48363836D01*
X22963080Y48158000D01*
X22942807Y47952164D01*
X22882767Y47754238D01*
X22882766Y47754235D01*
X22785268Y47571830D01*
X22654055Y47411945D01*
X22494170Y47280732D01*
X22311765Y47183234D01*
X22311762Y47183233D01*
X22113836Y47123193D01*
X22036707Y47115597D01*
X21959580Y47108000D01*
X21856420Y47108000D01*
X21779293Y47115597D01*
X21702164Y47123193D01*
X21504238Y47183233D01*
X21504235Y47183234D01*
X21321830Y47280732D01*
X21161945Y47411945D01*
X21030732Y47571830D01*
X20933234Y47754235D01*
X20933233Y47754238D01*
X20873193Y47952164D01*
X20852920Y48158000D01*
X20873193Y48363836D01*
X20933233Y48561762D01*
X20933234Y48561765D01*
X21030732Y48744170D01*
X21161945Y48904055D01*
X21321830Y49035268D01*
X21504235Y49132766D01*
X21504238Y49132767D01*
X21702164Y49192807D01*
X21779293Y49200404D01*
X21856420Y49208000D01*
X21959580Y49208000D01*
X22036707Y49200404D01*
X22036707Y49200404D01*
G37*
G36*
X34736707Y49200404D02*
G01*
X34813836Y49192807D01*
X35011762Y49132767D01*
X35011765Y49132766D01*
X35194170Y49035268D01*
X35354055Y48904055D01*
X35485268Y48744170D01*
X35582766Y48561765D01*
X35582767Y48561762D01*
X35642807Y48363836D01*
X35663080Y48158000D01*
X35642807Y47952164D01*
X35582767Y47754238D01*
X35582766Y47754235D01*
X35485268Y47571830D01*
X35354055Y47411945D01*
X35194170Y47280732D01*
X35011765Y47183234D01*
X35011762Y47183233D01*
X34813836Y47123193D01*
X34736707Y47115597D01*
X34659580Y47108000D01*
X34556420Y47108000D01*
X34479293Y47115597D01*
X34402164Y47123193D01*
X34204238Y47183233D01*
X34204235Y47183234D01*
X34021830Y47280732D01*
X33861945Y47411945D01*
X33730732Y47571830D01*
X33633234Y47754235D01*
X33633233Y47754238D01*
X33573193Y47952164D01*
X33552920Y48158000D01*
X33573193Y48363836D01*
X33633233Y48561762D01*
X33633234Y48561765D01*
X33730732Y48744170D01*
X33861945Y48904055D01*
X34021830Y49035268D01*
X34204235Y49132766D01*
X34204238Y49132767D01*
X34402164Y49192807D01*
X34479293Y49200404D01*
X34556420Y49208000D01*
X34659580Y49208000D01*
X34736707Y49200404D01*
X34736707Y49200404D01*
G37*
G36*
X32196707Y49200404D02*
G01*
X32273836Y49192807D01*
X32471762Y49132767D01*
X32471765Y49132766D01*
X32654170Y49035268D01*
X32814055Y48904055D01*
X32945268Y48744170D01*
X33042766Y48561765D01*
X33042767Y48561762D01*
X33102807Y48363836D01*
X33123080Y48158000D01*
X33102807Y47952164D01*
X33042767Y47754238D01*
X33042766Y47754235D01*
X32945268Y47571830D01*
X32814055Y47411945D01*
X32654170Y47280732D01*
X32471765Y47183234D01*
X32471762Y47183233D01*
X32273836Y47123193D01*
X32196707Y47115597D01*
X32119580Y47108000D01*
X32016420Y47108000D01*
X31939293Y47115597D01*
X31862164Y47123193D01*
X31664238Y47183233D01*
X31664235Y47183234D01*
X31481830Y47280732D01*
X31321945Y47411945D01*
X31190732Y47571830D01*
X31093234Y47754235D01*
X31093233Y47754238D01*
X31033193Y47952164D01*
X31012920Y48158000D01*
X31033193Y48363836D01*
X31093233Y48561762D01*
X31093234Y48561765D01*
X31190732Y48744170D01*
X31321945Y48904055D01*
X31481830Y49035268D01*
X31664235Y49132766D01*
X31664238Y49132767D01*
X31862164Y49192807D01*
X31939293Y49200404D01*
X32016420Y49208000D01*
X32119580Y49208000D01*
X32196707Y49200404D01*
X32196707Y49200404D01*
G37*
G36*
X29656707Y49200404D02*
G01*
X29733836Y49192807D01*
X29931762Y49132767D01*
X29931765Y49132766D01*
X30114170Y49035268D01*
X30274055Y48904055D01*
X30405268Y48744170D01*
X30502766Y48561765D01*
X30502767Y48561762D01*
X30562807Y48363836D01*
X30583080Y48158000D01*
X30562807Y47952164D01*
X30502767Y47754238D01*
X30502766Y47754235D01*
X30405268Y47571830D01*
X30274055Y47411945D01*
X30114170Y47280732D01*
X29931765Y47183234D01*
X29931762Y47183233D01*
X29733836Y47123193D01*
X29656707Y47115597D01*
X29579580Y47108000D01*
X29476420Y47108000D01*
X29399293Y47115597D01*
X29322164Y47123193D01*
X29124238Y47183233D01*
X29124235Y47183234D01*
X28941830Y47280732D01*
X28781945Y47411945D01*
X28650732Y47571830D01*
X28553234Y47754235D01*
X28553233Y47754238D01*
X28493193Y47952164D01*
X28472920Y48158000D01*
X28493193Y48363836D01*
X28553233Y48561762D01*
X28553234Y48561765D01*
X28650732Y48744170D01*
X28781945Y48904055D01*
X28941830Y49035268D01*
X29124235Y49132766D01*
X29124238Y49132767D01*
X29322164Y49192807D01*
X29399293Y49200404D01*
X29476420Y49208000D01*
X29579580Y49208000D01*
X29656707Y49200404D01*
X29656707Y49200404D01*
G37*
G36*
X27116707Y49200404D02*
G01*
X27193836Y49192807D01*
X27391762Y49132767D01*
X27391765Y49132766D01*
X27574170Y49035268D01*
X27734055Y48904055D01*
X27865268Y48744170D01*
X27962766Y48561765D01*
X27962767Y48561762D01*
X28022807Y48363836D01*
X28043080Y48158000D01*
X28022807Y47952164D01*
X27962767Y47754238D01*
X27962766Y47754235D01*
X27865268Y47571830D01*
X27734055Y47411945D01*
X27574170Y47280732D01*
X27391765Y47183234D01*
X27391762Y47183233D01*
X27193836Y47123193D01*
X27116707Y47115597D01*
X27039580Y47108000D01*
X26936420Y47108000D01*
X26859293Y47115597D01*
X26782164Y47123193D01*
X26584238Y47183233D01*
X26584235Y47183234D01*
X26401830Y47280732D01*
X26241945Y47411945D01*
X26110732Y47571830D01*
X26013234Y47754235D01*
X26013233Y47754238D01*
X25953193Y47952164D01*
X25932920Y48158000D01*
X25953193Y48363836D01*
X26013233Y48561762D01*
X26013234Y48561765D01*
X26110732Y48744170D01*
X26241945Y48904055D01*
X26401830Y49035268D01*
X26584235Y49132766D01*
X26584238Y49132767D01*
X26782164Y49192807D01*
X26859293Y49200404D01*
X26936420Y49208000D01*
X27039580Y49208000D01*
X27116707Y49200404D01*
X27116707Y49200404D01*
G37*
G36*
X38198000Y47108000D02*
G01*
X36098000Y47108000D01*
X36098000Y49208000D01*
X38198000Y49208000D01*
X38198000Y47108000D01*
X38198000Y47108000D01*
G37*
G36*
X13538707Y52696403D02*
G01*
X13615836Y52688807D01*
X13813762Y52628767D01*
X13813765Y52628766D01*
X13996170Y52531268D01*
X14156055Y52400055D01*
X14287268Y52240170D01*
X14384766Y52057765D01*
X14384767Y52057762D01*
X14444807Y51859836D01*
X14465080Y51654000D01*
X14444807Y51448164D01*
X14411650Y51338861D01*
X14384766Y51250235D01*
X14287268Y51067830D01*
X14156055Y50907945D01*
X13996170Y50776732D01*
X13813765Y50679234D01*
X13813762Y50679233D01*
X13615836Y50619193D01*
X13538707Y50611596D01*
X13461580Y50604000D01*
X13358420Y50604000D01*
X13281293Y50611596D01*
X13204164Y50619193D01*
X13006238Y50679233D01*
X13006235Y50679234D01*
X12823830Y50776732D01*
X12663945Y50907945D01*
X12532732Y51067830D01*
X12435234Y51250235D01*
X12408350Y51338861D01*
X12375193Y51448164D01*
X12354920Y51654000D01*
X12375193Y51859836D01*
X12435233Y52057762D01*
X12435234Y52057765D01*
X12532732Y52240170D01*
X12663945Y52400055D01*
X12823830Y52531268D01*
X13006235Y52628766D01*
X13006238Y52628767D01*
X13204164Y52688807D01*
X13281293Y52696403D01*
X13358420Y52704000D01*
X13461580Y52704000D01*
X13538707Y52696403D01*
X13538707Y52696403D01*
G37*
G36*
X10998707Y52696403D02*
G01*
X11075836Y52688807D01*
X11273762Y52628767D01*
X11273765Y52628766D01*
X11456170Y52531268D01*
X11616055Y52400055D01*
X11747268Y52240170D01*
X11844766Y52057765D01*
X11844767Y52057762D01*
X11904807Y51859836D01*
X11925080Y51654000D01*
X11904807Y51448164D01*
X11871650Y51338861D01*
X11844766Y51250235D01*
X11747268Y51067830D01*
X11616055Y50907945D01*
X11456170Y50776732D01*
X11273765Y50679234D01*
X11273762Y50679233D01*
X11075836Y50619193D01*
X10998707Y50611596D01*
X10921580Y50604000D01*
X10818420Y50604000D01*
X10741293Y50611596D01*
X10664164Y50619193D01*
X10466238Y50679233D01*
X10466235Y50679234D01*
X10283830Y50776732D01*
X10123945Y50907945D01*
X9992732Y51067830D01*
X9895234Y51250235D01*
X9868350Y51338861D01*
X9835193Y51448164D01*
X9814920Y51654000D01*
X9835193Y51859836D01*
X9895233Y52057762D01*
X9895234Y52057765D01*
X9992732Y52240170D01*
X10123945Y52400055D01*
X10283830Y52531268D01*
X10466235Y52628766D01*
X10466238Y52628767D01*
X10664164Y52688807D01*
X10741293Y52696403D01*
X10818420Y52704000D01*
X10921580Y52704000D01*
X10998707Y52696403D01*
X10998707Y52696403D01*
G37*
G36*
X9380000Y50604000D02*
G01*
X7280000Y50604000D01*
X7280000Y52704000D01*
X9380000Y52704000D01*
X9380000Y50604000D01*
X9380000Y50604000D01*
G37*
G36*
X56718707Y52696403D02*
G01*
X56795836Y52688807D01*
X56993762Y52628767D01*
X56993765Y52628766D01*
X57176170Y52531268D01*
X57336055Y52400055D01*
X57467268Y52240170D01*
X57564766Y52057765D01*
X57564767Y52057762D01*
X57624807Y51859836D01*
X57645080Y51654000D01*
X57624807Y51448164D01*
X57591650Y51338861D01*
X57564766Y51250235D01*
X57467268Y51067830D01*
X57336055Y50907945D01*
X57176170Y50776732D01*
X56993765Y50679234D01*
X56993762Y50679233D01*
X56795836Y50619193D01*
X56718707Y50611596D01*
X56641580Y50604000D01*
X56538420Y50604000D01*
X56461293Y50611596D01*
X56384164Y50619193D01*
X56186238Y50679233D01*
X56186235Y50679234D01*
X56003830Y50776732D01*
X55843945Y50907945D01*
X55712732Y51067830D01*
X55615234Y51250235D01*
X55588350Y51338861D01*
X55555193Y51448164D01*
X55534920Y51654000D01*
X55555193Y51859836D01*
X55615233Y52057762D01*
X55615234Y52057765D01*
X55712732Y52240170D01*
X55843945Y52400055D01*
X56003830Y52531268D01*
X56186235Y52628766D01*
X56186238Y52628767D01*
X56384164Y52688807D01*
X56461293Y52696403D01*
X56538420Y52704000D01*
X56641580Y52704000D01*
X56718707Y52696403D01*
X56718707Y52696403D01*
G37*
G36*
X54178707Y52696403D02*
G01*
X54255836Y52688807D01*
X54453762Y52628767D01*
X54453765Y52628766D01*
X54636170Y52531268D01*
X54796055Y52400055D01*
X54927268Y52240170D01*
X55024766Y52057765D01*
X55024767Y52057762D01*
X55084807Y51859836D01*
X55105080Y51654000D01*
X55084807Y51448164D01*
X55051650Y51338861D01*
X55024766Y51250235D01*
X54927268Y51067830D01*
X54796055Y50907945D01*
X54636170Y50776732D01*
X54453765Y50679234D01*
X54453762Y50679233D01*
X54255836Y50619193D01*
X54178707Y50611596D01*
X54101580Y50604000D01*
X53998420Y50604000D01*
X53921293Y50611596D01*
X53844164Y50619193D01*
X53646238Y50679233D01*
X53646235Y50679234D01*
X53463830Y50776732D01*
X53303945Y50907945D01*
X53172732Y51067830D01*
X53075234Y51250235D01*
X53048350Y51338861D01*
X53015193Y51448164D01*
X52994920Y51654000D01*
X53015193Y51859836D01*
X53075233Y52057762D01*
X53075234Y52057765D01*
X53172732Y52240170D01*
X53303945Y52400055D01*
X53463830Y52531268D01*
X53646235Y52628766D01*
X53646238Y52628767D01*
X53844164Y52688807D01*
X53921293Y52696403D01*
X53998420Y52704000D01*
X54101580Y52704000D01*
X54178707Y52696403D01*
X54178707Y52696403D01*
G37*
G36*
X51638707Y52696403D02*
G01*
X51715836Y52688807D01*
X51913762Y52628767D01*
X51913765Y52628766D01*
X52096170Y52531268D01*
X52256055Y52400055D01*
X52387268Y52240170D01*
X52484766Y52057765D01*
X52484767Y52057762D01*
X52544807Y51859836D01*
X52565080Y51654000D01*
X52544807Y51448164D01*
X52511650Y51338861D01*
X52484766Y51250235D01*
X52387268Y51067830D01*
X52256055Y50907945D01*
X52096170Y50776732D01*
X51913765Y50679234D01*
X51913762Y50679233D01*
X51715836Y50619193D01*
X51638707Y50611596D01*
X51561580Y50604000D01*
X51458420Y50604000D01*
X51381293Y50611596D01*
X51304164Y50619193D01*
X51106238Y50679233D01*
X51106235Y50679234D01*
X50923830Y50776732D01*
X50763945Y50907945D01*
X50632732Y51067830D01*
X50535234Y51250235D01*
X50508350Y51338861D01*
X50475193Y51448164D01*
X50454920Y51654000D01*
X50475193Y51859836D01*
X50535233Y52057762D01*
X50535234Y52057765D01*
X50632732Y52240170D01*
X50763945Y52400055D01*
X50923830Y52531268D01*
X51106235Y52628766D01*
X51106238Y52628767D01*
X51304164Y52688807D01*
X51381293Y52696403D01*
X51458420Y52704000D01*
X51561580Y52704000D01*
X51638707Y52696403D01*
X51638707Y52696403D01*
G37*
G36*
X49098707Y52696403D02*
G01*
X49175836Y52688807D01*
X49373762Y52628767D01*
X49373765Y52628766D01*
X49556170Y52531268D01*
X49716055Y52400055D01*
X49847268Y52240170D01*
X49944766Y52057765D01*
X49944767Y52057762D01*
X50004807Y51859836D01*
X50025080Y51654000D01*
X50004807Y51448164D01*
X49971650Y51338861D01*
X49944766Y51250235D01*
X49847268Y51067830D01*
X49716055Y50907945D01*
X49556170Y50776732D01*
X49373765Y50679234D01*
X49373762Y50679233D01*
X49175836Y50619193D01*
X49098707Y50611596D01*
X49021580Y50604000D01*
X48918420Y50604000D01*
X48841293Y50611596D01*
X48764164Y50619193D01*
X48566238Y50679233D01*
X48566235Y50679234D01*
X48383830Y50776732D01*
X48223945Y50907945D01*
X48092732Y51067830D01*
X47995234Y51250235D01*
X47968350Y51338861D01*
X47935193Y51448164D01*
X47914920Y51654000D01*
X47935193Y51859836D01*
X47995233Y52057762D01*
X47995234Y52057765D01*
X48092732Y52240170D01*
X48223945Y52400055D01*
X48383830Y52531268D01*
X48566235Y52628766D01*
X48566238Y52628767D01*
X48764164Y52688807D01*
X48841293Y52696403D01*
X48918420Y52704000D01*
X49021580Y52704000D01*
X49098707Y52696403D01*
X49098707Y52696403D01*
G37*
G36*
X46558707Y52696403D02*
G01*
X46635836Y52688807D01*
X46833762Y52628767D01*
X46833765Y52628766D01*
X47016170Y52531268D01*
X47176055Y52400055D01*
X47307268Y52240170D01*
X47404766Y52057765D01*
X47404767Y52057762D01*
X47464807Y51859836D01*
X47485080Y51654000D01*
X47464807Y51448164D01*
X47431650Y51338861D01*
X47404766Y51250235D01*
X47307268Y51067830D01*
X47176055Y50907945D01*
X47016170Y50776732D01*
X46833765Y50679234D01*
X46833762Y50679233D01*
X46635836Y50619193D01*
X46558707Y50611596D01*
X46481580Y50604000D01*
X46378420Y50604000D01*
X46301293Y50611596D01*
X46224164Y50619193D01*
X46026238Y50679233D01*
X46026235Y50679234D01*
X45843830Y50776732D01*
X45683945Y50907945D01*
X45552732Y51067830D01*
X45455234Y51250235D01*
X45428350Y51338861D01*
X45395193Y51448164D01*
X45374920Y51654000D01*
X45395193Y51859836D01*
X45455233Y52057762D01*
X45455234Y52057765D01*
X45552732Y52240170D01*
X45683945Y52400055D01*
X45843830Y52531268D01*
X46026235Y52628766D01*
X46026238Y52628767D01*
X46224164Y52688807D01*
X46301293Y52696403D01*
X46378420Y52704000D01*
X46481580Y52704000D01*
X46558707Y52696403D01*
X46558707Y52696403D01*
G37*
G36*
X44018707Y52696403D02*
G01*
X44095836Y52688807D01*
X44293762Y52628767D01*
X44293765Y52628766D01*
X44476170Y52531268D01*
X44636055Y52400055D01*
X44767268Y52240170D01*
X44864766Y52057765D01*
X44864767Y52057762D01*
X44924807Y51859836D01*
X44945080Y51654000D01*
X44924807Y51448164D01*
X44891650Y51338861D01*
X44864766Y51250235D01*
X44767268Y51067830D01*
X44636055Y50907945D01*
X44476170Y50776732D01*
X44293765Y50679234D01*
X44293762Y50679233D01*
X44095836Y50619193D01*
X44018707Y50611596D01*
X43941580Y50604000D01*
X43838420Y50604000D01*
X43761293Y50611596D01*
X43684164Y50619193D01*
X43486238Y50679233D01*
X43486235Y50679234D01*
X43303830Y50776732D01*
X43143945Y50907945D01*
X43012732Y51067830D01*
X42915234Y51250235D01*
X42888350Y51338861D01*
X42855193Y51448164D01*
X42834920Y51654000D01*
X42855193Y51859836D01*
X42915233Y52057762D01*
X42915234Y52057765D01*
X43012732Y52240170D01*
X43143945Y52400055D01*
X43303830Y52531268D01*
X43486235Y52628766D01*
X43486238Y52628767D01*
X43684164Y52688807D01*
X43761293Y52696403D01*
X43838420Y52704000D01*
X43941580Y52704000D01*
X44018707Y52696403D01*
X44018707Y52696403D01*
G37*
G36*
X41478707Y52696403D02*
G01*
X41555836Y52688807D01*
X41753762Y52628767D01*
X41753765Y52628766D01*
X41936170Y52531268D01*
X42096055Y52400055D01*
X42227268Y52240170D01*
X42324766Y52057765D01*
X42324767Y52057762D01*
X42384807Y51859836D01*
X42405080Y51654000D01*
X42384807Y51448164D01*
X42351650Y51338861D01*
X42324766Y51250235D01*
X42227268Y51067830D01*
X42096055Y50907945D01*
X41936170Y50776732D01*
X41753765Y50679234D01*
X41753762Y50679233D01*
X41555836Y50619193D01*
X41478707Y50611596D01*
X41401580Y50604000D01*
X41298420Y50604000D01*
X41221293Y50611596D01*
X41144164Y50619193D01*
X40946238Y50679233D01*
X40946235Y50679234D01*
X40763830Y50776732D01*
X40603945Y50907945D01*
X40472732Y51067830D01*
X40375234Y51250235D01*
X40348350Y51338861D01*
X40315193Y51448164D01*
X40294920Y51654000D01*
X40315193Y51859836D01*
X40375233Y52057762D01*
X40375234Y52057765D01*
X40472732Y52240170D01*
X40603945Y52400055D01*
X40763830Y52531268D01*
X40946235Y52628766D01*
X40946238Y52628767D01*
X41144164Y52688807D01*
X41221293Y52696403D01*
X41298420Y52704000D01*
X41401580Y52704000D01*
X41478707Y52696403D01*
X41478707Y52696403D01*
G37*
G36*
X36398707Y52696403D02*
G01*
X36475836Y52688807D01*
X36673762Y52628767D01*
X36673765Y52628766D01*
X36856170Y52531268D01*
X37016055Y52400055D01*
X37147268Y52240170D01*
X37244766Y52057765D01*
X37244767Y52057762D01*
X37304807Y51859836D01*
X37325080Y51654000D01*
X37304807Y51448164D01*
X37271650Y51338861D01*
X37244766Y51250235D01*
X37147268Y51067830D01*
X37016055Y50907945D01*
X36856170Y50776732D01*
X36673765Y50679234D01*
X36673762Y50679233D01*
X36475836Y50619193D01*
X36398707Y50611596D01*
X36321580Y50604000D01*
X36218420Y50604000D01*
X36141293Y50611596D01*
X36064164Y50619193D01*
X35866238Y50679233D01*
X35866235Y50679234D01*
X35683830Y50776732D01*
X35523945Y50907945D01*
X35392732Y51067830D01*
X35295234Y51250235D01*
X35268350Y51338861D01*
X35235193Y51448164D01*
X35214920Y51654000D01*
X35235193Y51859836D01*
X35295233Y52057762D01*
X35295234Y52057765D01*
X35392732Y52240170D01*
X35523945Y52400055D01*
X35683830Y52531268D01*
X35866235Y52628766D01*
X35866238Y52628767D01*
X36064164Y52688807D01*
X36141293Y52696403D01*
X36218420Y52704000D01*
X36321580Y52704000D01*
X36398707Y52696403D01*
X36398707Y52696403D01*
G37*
G36*
X33858707Y52696403D02*
G01*
X33935836Y52688807D01*
X34133762Y52628767D01*
X34133765Y52628766D01*
X34316170Y52531268D01*
X34476055Y52400055D01*
X34607268Y52240170D01*
X34704766Y52057765D01*
X34704767Y52057762D01*
X34764807Y51859836D01*
X34785080Y51654000D01*
X34764807Y51448164D01*
X34731650Y51338861D01*
X34704766Y51250235D01*
X34607268Y51067830D01*
X34476055Y50907945D01*
X34316170Y50776732D01*
X34133765Y50679234D01*
X34133762Y50679233D01*
X33935836Y50619193D01*
X33858707Y50611596D01*
X33781580Y50604000D01*
X33678420Y50604000D01*
X33601293Y50611596D01*
X33524164Y50619193D01*
X33326238Y50679233D01*
X33326235Y50679234D01*
X33143830Y50776732D01*
X32983945Y50907945D01*
X32852732Y51067830D01*
X32755234Y51250235D01*
X32728350Y51338861D01*
X32695193Y51448164D01*
X32674920Y51654000D01*
X32695193Y51859836D01*
X32755233Y52057762D01*
X32755234Y52057765D01*
X32852732Y52240170D01*
X32983945Y52400055D01*
X33143830Y52531268D01*
X33326235Y52628766D01*
X33326238Y52628767D01*
X33524164Y52688807D01*
X33601293Y52696403D01*
X33678420Y52704000D01*
X33781580Y52704000D01*
X33858707Y52696403D01*
X33858707Y52696403D01*
G37*
G36*
X31318707Y52696403D02*
G01*
X31395836Y52688807D01*
X31593762Y52628767D01*
X31593765Y52628766D01*
X31776170Y52531268D01*
X31936055Y52400055D01*
X32067268Y52240170D01*
X32164766Y52057765D01*
X32164767Y52057762D01*
X32224807Y51859836D01*
X32245080Y51654000D01*
X32224807Y51448164D01*
X32191650Y51338861D01*
X32164766Y51250235D01*
X32067268Y51067830D01*
X31936055Y50907945D01*
X31776170Y50776732D01*
X31593765Y50679234D01*
X31593762Y50679233D01*
X31395836Y50619193D01*
X31318707Y50611596D01*
X31241580Y50604000D01*
X31138420Y50604000D01*
X31061293Y50611596D01*
X30984164Y50619193D01*
X30786238Y50679233D01*
X30786235Y50679234D01*
X30603830Y50776732D01*
X30443945Y50907945D01*
X30312732Y51067830D01*
X30215234Y51250235D01*
X30188350Y51338861D01*
X30155193Y51448164D01*
X30134920Y51654000D01*
X30155193Y51859836D01*
X30215233Y52057762D01*
X30215234Y52057765D01*
X30312732Y52240170D01*
X30443945Y52400055D01*
X30603830Y52531268D01*
X30786235Y52628766D01*
X30786238Y52628767D01*
X30984164Y52688807D01*
X31061293Y52696403D01*
X31138420Y52704000D01*
X31241580Y52704000D01*
X31318707Y52696403D01*
X31318707Y52696403D01*
G37*
G36*
X28778707Y52696403D02*
G01*
X28855836Y52688807D01*
X29053762Y52628767D01*
X29053765Y52628766D01*
X29236170Y52531268D01*
X29396055Y52400055D01*
X29527268Y52240170D01*
X29624766Y52057765D01*
X29624767Y52057762D01*
X29684807Y51859836D01*
X29705080Y51654000D01*
X29684807Y51448164D01*
X29651650Y51338861D01*
X29624766Y51250235D01*
X29527268Y51067830D01*
X29396055Y50907945D01*
X29236170Y50776732D01*
X29053765Y50679234D01*
X29053762Y50679233D01*
X28855836Y50619193D01*
X28778707Y50611596D01*
X28701580Y50604000D01*
X28598420Y50604000D01*
X28521293Y50611596D01*
X28444164Y50619193D01*
X28246238Y50679233D01*
X28246235Y50679234D01*
X28063830Y50776732D01*
X27903945Y50907945D01*
X27772732Y51067830D01*
X27675234Y51250235D01*
X27648350Y51338861D01*
X27615193Y51448164D01*
X27594920Y51654000D01*
X27615193Y51859836D01*
X27675233Y52057762D01*
X27675234Y52057765D01*
X27772732Y52240170D01*
X27903945Y52400055D01*
X28063830Y52531268D01*
X28246235Y52628766D01*
X28246238Y52628767D01*
X28444164Y52688807D01*
X28521293Y52696403D01*
X28598420Y52704000D01*
X28701580Y52704000D01*
X28778707Y52696403D01*
X28778707Y52696403D01*
G37*
G36*
X26238707Y52696403D02*
G01*
X26315836Y52688807D01*
X26513762Y52628767D01*
X26513765Y52628766D01*
X26696170Y52531268D01*
X26856055Y52400055D01*
X26987268Y52240170D01*
X27084766Y52057765D01*
X27084767Y52057762D01*
X27144807Y51859836D01*
X27165080Y51654000D01*
X27144807Y51448164D01*
X27111650Y51338861D01*
X27084766Y51250235D01*
X26987268Y51067830D01*
X26856055Y50907945D01*
X26696170Y50776732D01*
X26513765Y50679234D01*
X26513762Y50679233D01*
X26315836Y50619193D01*
X26238707Y50611596D01*
X26161580Y50604000D01*
X26058420Y50604000D01*
X25981293Y50611596D01*
X25904164Y50619193D01*
X25706238Y50679233D01*
X25706235Y50679234D01*
X25523830Y50776732D01*
X25363945Y50907945D01*
X25232732Y51067830D01*
X25135234Y51250235D01*
X25108350Y51338861D01*
X25075193Y51448164D01*
X25054920Y51654000D01*
X25075193Y51859836D01*
X25135233Y52057762D01*
X25135234Y52057765D01*
X25232732Y52240170D01*
X25363945Y52400055D01*
X25523830Y52531268D01*
X25706235Y52628766D01*
X25706238Y52628767D01*
X25904164Y52688807D01*
X25981293Y52696403D01*
X26058420Y52704000D01*
X26161580Y52704000D01*
X26238707Y52696403D01*
X26238707Y52696403D01*
G37*
G36*
X18618707Y52696403D02*
G01*
X18695836Y52688807D01*
X18893762Y52628767D01*
X18893765Y52628766D01*
X19076170Y52531268D01*
X19236055Y52400055D01*
X19367268Y52240170D01*
X19464766Y52057765D01*
X19464767Y52057762D01*
X19524807Y51859836D01*
X19545080Y51654000D01*
X19524807Y51448164D01*
X19491650Y51338861D01*
X19464766Y51250235D01*
X19367268Y51067830D01*
X19236055Y50907945D01*
X19076170Y50776732D01*
X18893765Y50679234D01*
X18893762Y50679233D01*
X18695836Y50619193D01*
X18618707Y50611596D01*
X18541580Y50604000D01*
X18438420Y50604000D01*
X18361293Y50611596D01*
X18284164Y50619193D01*
X18086238Y50679233D01*
X18086235Y50679234D01*
X17903830Y50776732D01*
X17743945Y50907945D01*
X17612732Y51067830D01*
X17515234Y51250235D01*
X17488350Y51338861D01*
X17455193Y51448164D01*
X17434920Y51654000D01*
X17455193Y51859836D01*
X17515233Y52057762D01*
X17515234Y52057765D01*
X17612732Y52240170D01*
X17743945Y52400055D01*
X17903830Y52531268D01*
X18086235Y52628766D01*
X18086238Y52628767D01*
X18284164Y52688807D01*
X18361293Y52696403D01*
X18438420Y52704000D01*
X18541580Y52704000D01*
X18618707Y52696403D01*
X18618707Y52696403D01*
G37*
G36*
X16078707Y52696403D02*
G01*
X16155836Y52688807D01*
X16353762Y52628767D01*
X16353765Y52628766D01*
X16536170Y52531268D01*
X16696055Y52400055D01*
X16827268Y52240170D01*
X16924766Y52057765D01*
X16924767Y52057762D01*
X16984807Y51859836D01*
X17005080Y51654000D01*
X16984807Y51448164D01*
X16951650Y51338861D01*
X16924766Y51250235D01*
X16827268Y51067830D01*
X16696055Y50907945D01*
X16536170Y50776732D01*
X16353765Y50679234D01*
X16353762Y50679233D01*
X16155836Y50619193D01*
X16078707Y50611596D01*
X16001580Y50604000D01*
X15898420Y50604000D01*
X15821293Y50611596D01*
X15744164Y50619193D01*
X15546238Y50679233D01*
X15546235Y50679234D01*
X15363830Y50776732D01*
X15203945Y50907945D01*
X15072732Y51067830D01*
X14975234Y51250235D01*
X14948350Y51338861D01*
X14915193Y51448164D01*
X14894920Y51654000D01*
X14915193Y51859836D01*
X14975233Y52057762D01*
X14975234Y52057765D01*
X15072732Y52240170D01*
X15203945Y52400055D01*
X15363830Y52531268D01*
X15546235Y52628766D01*
X15546238Y52628767D01*
X15744164Y52688807D01*
X15821293Y52696403D01*
X15898420Y52704000D01*
X16001580Y52704000D01*
X16078707Y52696403D01*
X16078707Y52696403D01*
G37*
G36*
X21158707Y52696403D02*
G01*
X21235836Y52688807D01*
X21433762Y52628767D01*
X21433765Y52628766D01*
X21616170Y52531268D01*
X21776055Y52400055D01*
X21907268Y52240170D01*
X22004766Y52057765D01*
X22004767Y52057762D01*
X22064807Y51859836D01*
X22085080Y51654000D01*
X22064807Y51448164D01*
X22031650Y51338861D01*
X22004766Y51250235D01*
X21907268Y51067830D01*
X21776055Y50907945D01*
X21616170Y50776732D01*
X21433765Y50679234D01*
X21433762Y50679233D01*
X21235836Y50619193D01*
X21158707Y50611596D01*
X21081580Y50604000D01*
X20978420Y50604000D01*
X20901293Y50611596D01*
X20824164Y50619193D01*
X20626238Y50679233D01*
X20626235Y50679234D01*
X20443830Y50776732D01*
X20283945Y50907945D01*
X20152732Y51067830D01*
X20055234Y51250235D01*
X20028350Y51338861D01*
X19995193Y51448164D01*
X19974920Y51654000D01*
X19995193Y51859836D01*
X20055233Y52057762D01*
X20055234Y52057765D01*
X20152732Y52240170D01*
X20283945Y52400055D01*
X20443830Y52531268D01*
X20626235Y52628766D01*
X20626238Y52628767D01*
X20824164Y52688807D01*
X20901293Y52696403D01*
X20978420Y52704000D01*
X21081580Y52704000D01*
X21158707Y52696403D01*
X21158707Y52696403D01*
G37*
G36*
X23698707Y52696403D02*
G01*
X23775836Y52688807D01*
X23973762Y52628767D01*
X23973765Y52628766D01*
X24156170Y52531268D01*
X24316055Y52400055D01*
X24447268Y52240170D01*
X24544766Y52057765D01*
X24544767Y52057762D01*
X24604807Y51859836D01*
X24625080Y51654000D01*
X24604807Y51448164D01*
X24571650Y51338861D01*
X24544766Y51250235D01*
X24447268Y51067830D01*
X24316055Y50907945D01*
X24156170Y50776732D01*
X23973765Y50679234D01*
X23973762Y50679233D01*
X23775836Y50619193D01*
X23698707Y50611596D01*
X23621580Y50604000D01*
X23518420Y50604000D01*
X23441293Y50611596D01*
X23364164Y50619193D01*
X23166238Y50679233D01*
X23166235Y50679234D01*
X22983830Y50776732D01*
X22823945Y50907945D01*
X22692732Y51067830D01*
X22595234Y51250235D01*
X22568350Y51338861D01*
X22535193Y51448164D01*
X22514920Y51654000D01*
X22535193Y51859836D01*
X22595233Y52057762D01*
X22595234Y52057765D01*
X22692732Y52240170D01*
X22823945Y52400055D01*
X22983830Y52531268D01*
X23166235Y52628766D01*
X23166238Y52628767D01*
X23364164Y52688807D01*
X23441293Y52696403D01*
X23518420Y52704000D01*
X23621580Y52704000D01*
X23698707Y52696403D01*
X23698707Y52696403D01*
G37*
G36*
X38938707Y52696403D02*
G01*
X39015836Y52688807D01*
X39213762Y52628767D01*
X39213765Y52628766D01*
X39396170Y52531268D01*
X39556055Y52400055D01*
X39687268Y52240170D01*
X39784766Y52057765D01*
X39784767Y52057762D01*
X39844807Y51859836D01*
X39865080Y51654000D01*
X39844807Y51448164D01*
X39811650Y51338861D01*
X39784766Y51250235D01*
X39687268Y51067830D01*
X39556055Y50907945D01*
X39396170Y50776732D01*
X39213765Y50679234D01*
X39213762Y50679233D01*
X39015836Y50619193D01*
X38938707Y50611596D01*
X38861580Y50604000D01*
X38758420Y50604000D01*
X38681293Y50611596D01*
X38604164Y50619193D01*
X38406238Y50679233D01*
X38406235Y50679234D01*
X38223830Y50776732D01*
X38063945Y50907945D01*
X37932732Y51067830D01*
X37835234Y51250235D01*
X37808350Y51338861D01*
X37775193Y51448164D01*
X37754920Y51654000D01*
X37775193Y51859836D01*
X37835233Y52057762D01*
X37835234Y52057765D01*
X37932732Y52240170D01*
X38063945Y52400055D01*
X38223830Y52531268D01*
X38406235Y52628766D01*
X38406238Y52628767D01*
X38604164Y52688807D01*
X38681293Y52696403D01*
X38758420Y52704000D01*
X38861580Y52704000D01*
X38938707Y52696403D01*
X38938707Y52696403D01*
G37*
G36*
X61801162Y54679414D02*
G01*
X61975041Y54644827D01*
X62302620Y54509139D01*
X62597433Y54312151D01*
X62848151Y54061433D01*
X63045139Y53766620D01*
X63180827Y53439041D01*
X63205156Y53316732D01*
X63250000Y53091286D01*
X63250000Y52736714D01*
X63215413Y52562837D01*
X63180827Y52388959D01*
X63045139Y52061380D01*
X62848151Y51766567D01*
X62597433Y51515849D01*
X62302620Y51318861D01*
X61975041Y51183173D01*
X61801163Y51148587D01*
X61627286Y51114000D01*
X61272714Y51114000D01*
X61098837Y51148587D01*
X60924959Y51183173D01*
X60597380Y51318861D01*
X60302567Y51515849D01*
X60051849Y51766567D01*
X59854861Y52061380D01*
X59719173Y52388959D01*
X59684586Y52562838D01*
X59650000Y52736714D01*
X59650000Y53091286D01*
X59694844Y53316732D01*
X59719173Y53439041D01*
X59854861Y53766620D01*
X60051849Y54061433D01*
X60302567Y54312151D01*
X60597380Y54509139D01*
X60924959Y54644827D01*
X61098838Y54679414D01*
X61272714Y54714000D01*
X61627286Y54714000D01*
X61801162Y54679414D01*
X61801162Y54679414D01*
G37*
G36*
X3801162Y54699414D02*
G01*
X3975041Y54664827D01*
X4302620Y54529139D01*
X4597433Y54332151D01*
X4848151Y54081433D01*
X5045139Y53786620D01*
X5180827Y53459041D01*
X5209134Y53316733D01*
X5250000Y53111286D01*
X5250000Y52756714D01*
X5224549Y52628766D01*
X5180827Y52408959D01*
X5045139Y52081380D01*
X4848151Y51786567D01*
X4597433Y51535849D01*
X4302620Y51338861D01*
X3975041Y51203173D01*
X3801163Y51168587D01*
X3627286Y51134000D01*
X3272714Y51134000D01*
X3098837Y51168587D01*
X2924959Y51203173D01*
X2597380Y51338861D01*
X2302567Y51535849D01*
X2051849Y51786567D01*
X1854861Y52081380D01*
X1719173Y52408959D01*
X1675451Y52628766D01*
X1650000Y52756714D01*
X1650000Y53111286D01*
X1690866Y53316733D01*
X1719173Y53459041D01*
X1854861Y53786620D01*
X2051849Y54081433D01*
X2302567Y54332151D01*
X2597380Y54529139D01*
X2924959Y54664827D01*
X3098838Y54699414D01*
X3272714Y54734000D01*
X3627286Y54734000D01*
X3801162Y54699414D01*
X3801162Y54699414D01*
G37*
G36*
X16078707Y55236404D02*
G01*
X16155836Y55228807D01*
X16353762Y55168767D01*
X16353765Y55168766D01*
X16536170Y55071268D01*
X16696055Y54940055D01*
X16827268Y54780170D01*
X16924766Y54597765D01*
X16924767Y54597762D01*
X16984807Y54399836D01*
X17005080Y54194000D01*
X16984807Y53988164D01*
X16924767Y53790238D01*
X16924766Y53790235D01*
X16827268Y53607830D01*
X16696055Y53447945D01*
X16536170Y53316732D01*
X16353765Y53219234D01*
X16353762Y53219233D01*
X16155836Y53159193D01*
X16078707Y53151597D01*
X16001580Y53144000D01*
X15898420Y53144000D01*
X15821293Y53151597D01*
X15744164Y53159193D01*
X15546238Y53219233D01*
X15546235Y53219234D01*
X15363830Y53316732D01*
X15203945Y53447945D01*
X15072732Y53607830D01*
X14975234Y53790235D01*
X14975233Y53790238D01*
X14915193Y53988164D01*
X14894920Y54194000D01*
X14915193Y54399836D01*
X14975233Y54597762D01*
X14975234Y54597765D01*
X15072732Y54780170D01*
X15203945Y54940055D01*
X15363830Y55071268D01*
X15546235Y55168766D01*
X15546238Y55168767D01*
X15744164Y55228807D01*
X15821293Y55236404D01*
X15898420Y55244000D01*
X16001580Y55244000D01*
X16078707Y55236404D01*
X16078707Y55236404D01*
G37*
G36*
X33858707Y55236404D02*
G01*
X33935836Y55228807D01*
X34133762Y55168767D01*
X34133765Y55168766D01*
X34316170Y55071268D01*
X34476055Y54940055D01*
X34607268Y54780170D01*
X34704766Y54597765D01*
X34704767Y54597762D01*
X34764807Y54399836D01*
X34785080Y54194000D01*
X34764807Y53988164D01*
X34704767Y53790238D01*
X34704766Y53790235D01*
X34607268Y53607830D01*
X34476055Y53447945D01*
X34316170Y53316732D01*
X34133765Y53219234D01*
X34133762Y53219233D01*
X33935836Y53159193D01*
X33858707Y53151597D01*
X33781580Y53144000D01*
X33678420Y53144000D01*
X33601293Y53151597D01*
X33524164Y53159193D01*
X33326238Y53219233D01*
X33326235Y53219234D01*
X33143830Y53316732D01*
X32983945Y53447945D01*
X32852732Y53607830D01*
X32755234Y53790235D01*
X32755233Y53790238D01*
X32695193Y53988164D01*
X32674920Y54194000D01*
X32695193Y54399836D01*
X32755233Y54597762D01*
X32755234Y54597765D01*
X32852732Y54780170D01*
X32983945Y54940055D01*
X33143830Y55071268D01*
X33326235Y55168766D01*
X33326238Y55168767D01*
X33524164Y55228807D01*
X33601293Y55236404D01*
X33678420Y55244000D01*
X33781580Y55244000D01*
X33858707Y55236404D01*
X33858707Y55236404D01*
G37*
G36*
X8458707Y55236404D02*
G01*
X8535836Y55228807D01*
X8733762Y55168767D01*
X8733765Y55168766D01*
X8916170Y55071268D01*
X9076055Y54940055D01*
X9207268Y54780170D01*
X9304766Y54597765D01*
X9304767Y54597762D01*
X9364807Y54399836D01*
X9385080Y54194000D01*
X9364807Y53988164D01*
X9304767Y53790238D01*
X9304766Y53790235D01*
X9207268Y53607830D01*
X9076055Y53447945D01*
X8916170Y53316732D01*
X8733765Y53219234D01*
X8733762Y53219233D01*
X8535836Y53159193D01*
X8458707Y53151597D01*
X8381580Y53144000D01*
X8278420Y53144000D01*
X8201293Y53151597D01*
X8124164Y53159193D01*
X7926238Y53219233D01*
X7926235Y53219234D01*
X7743830Y53316732D01*
X7583945Y53447945D01*
X7452732Y53607830D01*
X7355234Y53790235D01*
X7355233Y53790238D01*
X7295193Y53988164D01*
X7274920Y54194000D01*
X7295193Y54399836D01*
X7355233Y54597762D01*
X7355234Y54597765D01*
X7452732Y54780170D01*
X7583945Y54940055D01*
X7743830Y55071268D01*
X7926235Y55168766D01*
X7926238Y55168767D01*
X8124164Y55228807D01*
X8201293Y55236404D01*
X8278420Y55244000D01*
X8381580Y55244000D01*
X8458707Y55236404D01*
X8458707Y55236404D01*
G37*
G36*
X31318707Y55236404D02*
G01*
X31395836Y55228807D01*
X31593762Y55168767D01*
X31593765Y55168766D01*
X31776170Y55071268D01*
X31936055Y54940055D01*
X32067268Y54780170D01*
X32164766Y54597765D01*
X32164767Y54597762D01*
X32224807Y54399836D01*
X32245080Y54194000D01*
X32224807Y53988164D01*
X32164767Y53790238D01*
X32164766Y53790235D01*
X32067268Y53607830D01*
X31936055Y53447945D01*
X31776170Y53316732D01*
X31593765Y53219234D01*
X31593762Y53219233D01*
X31395836Y53159193D01*
X31318707Y53151597D01*
X31241580Y53144000D01*
X31138420Y53144000D01*
X31061293Y53151597D01*
X30984164Y53159193D01*
X30786238Y53219233D01*
X30786235Y53219234D01*
X30603830Y53316732D01*
X30443945Y53447945D01*
X30312732Y53607830D01*
X30215234Y53790235D01*
X30215233Y53790238D01*
X30155193Y53988164D01*
X30134920Y54194000D01*
X30155193Y54399836D01*
X30215233Y54597762D01*
X30215234Y54597765D01*
X30312732Y54780170D01*
X30443945Y54940055D01*
X30603830Y55071268D01*
X30786235Y55168766D01*
X30786238Y55168767D01*
X30984164Y55228807D01*
X31061293Y55236404D01*
X31138420Y55244000D01*
X31241580Y55244000D01*
X31318707Y55236404D01*
X31318707Y55236404D01*
G37*
G36*
X28778707Y55236404D02*
G01*
X28855836Y55228807D01*
X29053762Y55168767D01*
X29053765Y55168766D01*
X29236170Y55071268D01*
X29396055Y54940055D01*
X29527268Y54780170D01*
X29624766Y54597765D01*
X29624767Y54597762D01*
X29684807Y54399836D01*
X29705080Y54194000D01*
X29684807Y53988164D01*
X29624767Y53790238D01*
X29624766Y53790235D01*
X29527268Y53607830D01*
X29396055Y53447945D01*
X29236170Y53316732D01*
X29053765Y53219234D01*
X29053762Y53219233D01*
X28855836Y53159193D01*
X28778707Y53151597D01*
X28701580Y53144000D01*
X28598420Y53144000D01*
X28521293Y53151597D01*
X28444164Y53159193D01*
X28246238Y53219233D01*
X28246235Y53219234D01*
X28063830Y53316732D01*
X27903945Y53447945D01*
X27772732Y53607830D01*
X27675234Y53790235D01*
X27675233Y53790238D01*
X27615193Y53988164D01*
X27594920Y54194000D01*
X27615193Y54399836D01*
X27675233Y54597762D01*
X27675234Y54597765D01*
X27772732Y54780170D01*
X27903945Y54940055D01*
X28063830Y55071268D01*
X28246235Y55168766D01*
X28246238Y55168767D01*
X28444164Y55228807D01*
X28521293Y55236404D01*
X28598420Y55244000D01*
X28701580Y55244000D01*
X28778707Y55236404D01*
X28778707Y55236404D01*
G37*
G36*
X10998707Y55236404D02*
G01*
X11075836Y55228807D01*
X11273762Y55168767D01*
X11273765Y55168766D01*
X11456170Y55071268D01*
X11616055Y54940055D01*
X11747268Y54780170D01*
X11844766Y54597765D01*
X11844767Y54597762D01*
X11904807Y54399836D01*
X11925080Y54194000D01*
X11904807Y53988164D01*
X11844767Y53790238D01*
X11844766Y53790235D01*
X11747268Y53607830D01*
X11616055Y53447945D01*
X11456170Y53316732D01*
X11273765Y53219234D01*
X11273762Y53219233D01*
X11075836Y53159193D01*
X10998707Y53151597D01*
X10921580Y53144000D01*
X10818420Y53144000D01*
X10741293Y53151597D01*
X10664164Y53159193D01*
X10466238Y53219233D01*
X10466235Y53219234D01*
X10283830Y53316732D01*
X10123945Y53447945D01*
X9992732Y53607830D01*
X9895234Y53790235D01*
X9895233Y53790238D01*
X9835193Y53988164D01*
X9814920Y54194000D01*
X9835193Y54399836D01*
X9895233Y54597762D01*
X9895234Y54597765D01*
X9992732Y54780170D01*
X10123945Y54940055D01*
X10283830Y55071268D01*
X10466235Y55168766D01*
X10466238Y55168767D01*
X10664164Y55228807D01*
X10741293Y55236404D01*
X10818420Y55244000D01*
X10921580Y55244000D01*
X10998707Y55236404D01*
X10998707Y55236404D01*
G37*
G36*
X23698707Y55236404D02*
G01*
X23775836Y55228807D01*
X23973762Y55168767D01*
X23973765Y55168766D01*
X24156170Y55071268D01*
X24316055Y54940055D01*
X24447268Y54780170D01*
X24544766Y54597765D01*
X24544767Y54597762D01*
X24604807Y54399836D01*
X24625080Y54194000D01*
X24604807Y53988164D01*
X24544767Y53790238D01*
X24544766Y53790235D01*
X24447268Y53607830D01*
X24316055Y53447945D01*
X24156170Y53316732D01*
X23973765Y53219234D01*
X23973762Y53219233D01*
X23775836Y53159193D01*
X23698707Y53151597D01*
X23621580Y53144000D01*
X23518420Y53144000D01*
X23441293Y53151597D01*
X23364164Y53159193D01*
X23166238Y53219233D01*
X23166235Y53219234D01*
X22983830Y53316732D01*
X22823945Y53447945D01*
X22692732Y53607830D01*
X22595234Y53790235D01*
X22595233Y53790238D01*
X22535193Y53988164D01*
X22514920Y54194000D01*
X22535193Y54399836D01*
X22595233Y54597762D01*
X22595234Y54597765D01*
X22692732Y54780170D01*
X22823945Y54940055D01*
X22983830Y55071268D01*
X23166235Y55168766D01*
X23166238Y55168767D01*
X23364164Y55228807D01*
X23441293Y55236404D01*
X23518420Y55244000D01*
X23621580Y55244000D01*
X23698707Y55236404D01*
X23698707Y55236404D01*
G37*
G36*
X13538707Y55236404D02*
G01*
X13615836Y55228807D01*
X13813762Y55168767D01*
X13813765Y55168766D01*
X13996170Y55071268D01*
X14156055Y54940055D01*
X14287268Y54780170D01*
X14384766Y54597765D01*
X14384767Y54597762D01*
X14444807Y54399836D01*
X14465080Y54194000D01*
X14444807Y53988164D01*
X14384767Y53790238D01*
X14384766Y53790235D01*
X14287268Y53607830D01*
X14156055Y53447945D01*
X13996170Y53316732D01*
X13813765Y53219234D01*
X13813762Y53219233D01*
X13615836Y53159193D01*
X13538707Y53151597D01*
X13461580Y53144000D01*
X13358420Y53144000D01*
X13281293Y53151597D01*
X13204164Y53159193D01*
X13006238Y53219233D01*
X13006235Y53219234D01*
X12823830Y53316732D01*
X12663945Y53447945D01*
X12532732Y53607830D01*
X12435234Y53790235D01*
X12435233Y53790238D01*
X12375193Y53988164D01*
X12354920Y54194000D01*
X12375193Y54399836D01*
X12435233Y54597762D01*
X12435234Y54597765D01*
X12532732Y54780170D01*
X12663945Y54940055D01*
X12823830Y55071268D01*
X13006235Y55168766D01*
X13006238Y55168767D01*
X13204164Y55228807D01*
X13281293Y55236404D01*
X13358420Y55244000D01*
X13461580Y55244000D01*
X13538707Y55236404D01*
X13538707Y55236404D01*
G37*
G36*
X21158707Y55236404D02*
G01*
X21235836Y55228807D01*
X21433762Y55168767D01*
X21433765Y55168766D01*
X21616170Y55071268D01*
X21776055Y54940055D01*
X21907268Y54780170D01*
X22004766Y54597765D01*
X22004767Y54597762D01*
X22064807Y54399836D01*
X22085080Y54194000D01*
X22064807Y53988164D01*
X22004767Y53790238D01*
X22004766Y53790235D01*
X21907268Y53607830D01*
X21776055Y53447945D01*
X21616170Y53316732D01*
X21433765Y53219234D01*
X21433762Y53219233D01*
X21235836Y53159193D01*
X21158707Y53151597D01*
X21081580Y53144000D01*
X20978420Y53144000D01*
X20901293Y53151597D01*
X20824164Y53159193D01*
X20626238Y53219233D01*
X20626235Y53219234D01*
X20443830Y53316732D01*
X20283945Y53447945D01*
X20152732Y53607830D01*
X20055234Y53790235D01*
X20055233Y53790238D01*
X19995193Y53988164D01*
X19974920Y54194000D01*
X19995193Y54399836D01*
X20055233Y54597762D01*
X20055234Y54597765D01*
X20152732Y54780170D01*
X20283945Y54940055D01*
X20443830Y55071268D01*
X20626235Y55168766D01*
X20626238Y55168767D01*
X20824164Y55228807D01*
X20901293Y55236404D01*
X20978420Y55244000D01*
X21081580Y55244000D01*
X21158707Y55236404D01*
X21158707Y55236404D01*
G37*
G36*
X18618707Y55236404D02*
G01*
X18695836Y55228807D01*
X18893762Y55168767D01*
X18893765Y55168766D01*
X19076170Y55071268D01*
X19236055Y54940055D01*
X19367268Y54780170D01*
X19464766Y54597765D01*
X19464767Y54597762D01*
X19524807Y54399836D01*
X19545080Y54194000D01*
X19524807Y53988164D01*
X19464767Y53790238D01*
X19464766Y53790235D01*
X19367268Y53607830D01*
X19236055Y53447945D01*
X19076170Y53316732D01*
X18893765Y53219234D01*
X18893762Y53219233D01*
X18695836Y53159193D01*
X18618707Y53151597D01*
X18541580Y53144000D01*
X18438420Y53144000D01*
X18361293Y53151597D01*
X18284164Y53159193D01*
X18086238Y53219233D01*
X18086235Y53219234D01*
X17903830Y53316732D01*
X17743945Y53447945D01*
X17612732Y53607830D01*
X17515234Y53790235D01*
X17515233Y53790238D01*
X17455193Y53988164D01*
X17434920Y54194000D01*
X17455193Y54399836D01*
X17515233Y54597762D01*
X17515234Y54597765D01*
X17612732Y54780170D01*
X17743945Y54940055D01*
X17903830Y55071268D01*
X18086235Y55168766D01*
X18086238Y55168767D01*
X18284164Y55228807D01*
X18361293Y55236404D01*
X18438420Y55244000D01*
X18541580Y55244000D01*
X18618707Y55236404D01*
X18618707Y55236404D01*
G37*
G36*
X36398707Y55236404D02*
G01*
X36475836Y55228807D01*
X36673762Y55168767D01*
X36673765Y55168766D01*
X36856170Y55071268D01*
X37016055Y54940055D01*
X37147268Y54780170D01*
X37244766Y54597765D01*
X37244767Y54597762D01*
X37304807Y54399836D01*
X37325080Y54194000D01*
X37304807Y53988164D01*
X37244767Y53790238D01*
X37244766Y53790235D01*
X37147268Y53607830D01*
X37016055Y53447945D01*
X36856170Y53316732D01*
X36673765Y53219234D01*
X36673762Y53219233D01*
X36475836Y53159193D01*
X36398707Y53151597D01*
X36321580Y53144000D01*
X36218420Y53144000D01*
X36141293Y53151597D01*
X36064164Y53159193D01*
X35866238Y53219233D01*
X35866235Y53219234D01*
X35683830Y53316732D01*
X35523945Y53447945D01*
X35392732Y53607830D01*
X35295234Y53790235D01*
X35295233Y53790238D01*
X35235193Y53988164D01*
X35214920Y54194000D01*
X35235193Y54399836D01*
X35295233Y54597762D01*
X35295234Y54597765D01*
X35392732Y54780170D01*
X35523945Y54940055D01*
X35683830Y55071268D01*
X35866235Y55168766D01*
X35866238Y55168767D01*
X36064164Y55228807D01*
X36141293Y55236404D01*
X36218420Y55244000D01*
X36321580Y55244000D01*
X36398707Y55236404D01*
X36398707Y55236404D01*
G37*
G36*
X38938707Y55236404D02*
G01*
X39015836Y55228807D01*
X39213762Y55168767D01*
X39213765Y55168766D01*
X39396170Y55071268D01*
X39556055Y54940055D01*
X39687268Y54780170D01*
X39784766Y54597765D01*
X39784767Y54597762D01*
X39844807Y54399836D01*
X39865080Y54194000D01*
X39844807Y53988164D01*
X39784767Y53790238D01*
X39784766Y53790235D01*
X39687268Y53607830D01*
X39556055Y53447945D01*
X39396170Y53316732D01*
X39213765Y53219234D01*
X39213762Y53219233D01*
X39015836Y53159193D01*
X38938707Y53151597D01*
X38861580Y53144000D01*
X38758420Y53144000D01*
X38681293Y53151597D01*
X38604164Y53159193D01*
X38406238Y53219233D01*
X38406235Y53219234D01*
X38223830Y53316732D01*
X38063945Y53447945D01*
X37932732Y53607830D01*
X37835234Y53790235D01*
X37835233Y53790238D01*
X37775193Y53988164D01*
X37754920Y54194000D01*
X37775193Y54399836D01*
X37835233Y54597762D01*
X37835234Y54597765D01*
X37932732Y54780170D01*
X38063945Y54940055D01*
X38223830Y55071268D01*
X38406235Y55168766D01*
X38406238Y55168767D01*
X38604164Y55228807D01*
X38681293Y55236404D01*
X38758420Y55244000D01*
X38861580Y55244000D01*
X38938707Y55236404D01*
X38938707Y55236404D01*
G37*
G36*
X41478707Y55236404D02*
G01*
X41555836Y55228807D01*
X41753762Y55168767D01*
X41753765Y55168766D01*
X41936170Y55071268D01*
X42096055Y54940055D01*
X42227268Y54780170D01*
X42324766Y54597765D01*
X42324767Y54597762D01*
X42384807Y54399836D01*
X42405080Y54194000D01*
X42384807Y53988164D01*
X42324767Y53790238D01*
X42324766Y53790235D01*
X42227268Y53607830D01*
X42096055Y53447945D01*
X41936170Y53316732D01*
X41753765Y53219234D01*
X41753762Y53219233D01*
X41555836Y53159193D01*
X41478707Y53151597D01*
X41401580Y53144000D01*
X41298420Y53144000D01*
X41221293Y53151597D01*
X41144164Y53159193D01*
X40946238Y53219233D01*
X40946235Y53219234D01*
X40763830Y53316732D01*
X40603945Y53447945D01*
X40472732Y53607830D01*
X40375234Y53790235D01*
X40375233Y53790238D01*
X40315193Y53988164D01*
X40294920Y54194000D01*
X40315193Y54399836D01*
X40375233Y54597762D01*
X40375234Y54597765D01*
X40472732Y54780170D01*
X40603945Y54940055D01*
X40763830Y55071268D01*
X40946235Y55168766D01*
X40946238Y55168767D01*
X41144164Y55228807D01*
X41221293Y55236404D01*
X41298420Y55244000D01*
X41401580Y55244000D01*
X41478707Y55236404D01*
X41478707Y55236404D01*
G37*
G36*
X44018707Y55236404D02*
G01*
X44095836Y55228807D01*
X44293762Y55168767D01*
X44293765Y55168766D01*
X44476170Y55071268D01*
X44636055Y54940055D01*
X44767268Y54780170D01*
X44864766Y54597765D01*
X44864767Y54597762D01*
X44924807Y54399836D01*
X44945080Y54194000D01*
X44924807Y53988164D01*
X44864767Y53790238D01*
X44864766Y53790235D01*
X44767268Y53607830D01*
X44636055Y53447945D01*
X44476170Y53316732D01*
X44293765Y53219234D01*
X44293762Y53219233D01*
X44095836Y53159193D01*
X44018707Y53151597D01*
X43941580Y53144000D01*
X43838420Y53144000D01*
X43761293Y53151597D01*
X43684164Y53159193D01*
X43486238Y53219233D01*
X43486235Y53219234D01*
X43303830Y53316732D01*
X43143945Y53447945D01*
X43012732Y53607830D01*
X42915234Y53790235D01*
X42915233Y53790238D01*
X42855193Y53988164D01*
X42834920Y54194000D01*
X42855193Y54399836D01*
X42915233Y54597762D01*
X42915234Y54597765D01*
X43012732Y54780170D01*
X43143945Y54940055D01*
X43303830Y55071268D01*
X43486235Y55168766D01*
X43486238Y55168767D01*
X43684164Y55228807D01*
X43761293Y55236404D01*
X43838420Y55244000D01*
X43941580Y55244000D01*
X44018707Y55236404D01*
X44018707Y55236404D01*
G37*
G36*
X46558707Y55236404D02*
G01*
X46635836Y55228807D01*
X46833762Y55168767D01*
X46833765Y55168766D01*
X47016170Y55071268D01*
X47176055Y54940055D01*
X47307268Y54780170D01*
X47404766Y54597765D01*
X47404767Y54597762D01*
X47464807Y54399836D01*
X47485080Y54194000D01*
X47464807Y53988164D01*
X47404767Y53790238D01*
X47404766Y53790235D01*
X47307268Y53607830D01*
X47176055Y53447945D01*
X47016170Y53316732D01*
X46833765Y53219234D01*
X46833762Y53219233D01*
X46635836Y53159193D01*
X46558707Y53151597D01*
X46481580Y53144000D01*
X46378420Y53144000D01*
X46301293Y53151597D01*
X46224164Y53159193D01*
X46026238Y53219233D01*
X46026235Y53219234D01*
X45843830Y53316732D01*
X45683945Y53447945D01*
X45552732Y53607830D01*
X45455234Y53790235D01*
X45455233Y53790238D01*
X45395193Y53988164D01*
X45374920Y54194000D01*
X45395193Y54399836D01*
X45455233Y54597762D01*
X45455234Y54597765D01*
X45552732Y54780170D01*
X45683945Y54940055D01*
X45843830Y55071268D01*
X46026235Y55168766D01*
X46026238Y55168767D01*
X46224164Y55228807D01*
X46301293Y55236404D01*
X46378420Y55244000D01*
X46481580Y55244000D01*
X46558707Y55236404D01*
X46558707Y55236404D01*
G37*
G36*
X49098707Y55236404D02*
G01*
X49175836Y55228807D01*
X49373762Y55168767D01*
X49373765Y55168766D01*
X49556170Y55071268D01*
X49716055Y54940055D01*
X49847268Y54780170D01*
X49944766Y54597765D01*
X49944767Y54597762D01*
X50004807Y54399836D01*
X50025080Y54194000D01*
X50004807Y53988164D01*
X49944767Y53790238D01*
X49944766Y53790235D01*
X49847268Y53607830D01*
X49716055Y53447945D01*
X49556170Y53316732D01*
X49373765Y53219234D01*
X49373762Y53219233D01*
X49175836Y53159193D01*
X49098707Y53151597D01*
X49021580Y53144000D01*
X48918420Y53144000D01*
X48841293Y53151597D01*
X48764164Y53159193D01*
X48566238Y53219233D01*
X48566235Y53219234D01*
X48383830Y53316732D01*
X48223945Y53447945D01*
X48092732Y53607830D01*
X47995234Y53790235D01*
X47995233Y53790238D01*
X47935193Y53988164D01*
X47914920Y54194000D01*
X47935193Y54399836D01*
X47995233Y54597762D01*
X47995234Y54597765D01*
X48092732Y54780170D01*
X48223945Y54940055D01*
X48383830Y55071268D01*
X48566235Y55168766D01*
X48566238Y55168767D01*
X48764164Y55228807D01*
X48841293Y55236404D01*
X48918420Y55244000D01*
X49021580Y55244000D01*
X49098707Y55236404D01*
X49098707Y55236404D01*
G37*
G36*
X51638707Y55236404D02*
G01*
X51715836Y55228807D01*
X51913762Y55168767D01*
X51913765Y55168766D01*
X52096170Y55071268D01*
X52256055Y54940055D01*
X52387268Y54780170D01*
X52484766Y54597765D01*
X52484767Y54597762D01*
X52544807Y54399836D01*
X52565080Y54194000D01*
X52544807Y53988164D01*
X52484767Y53790238D01*
X52484766Y53790235D01*
X52387268Y53607830D01*
X52256055Y53447945D01*
X52096170Y53316732D01*
X51913765Y53219234D01*
X51913762Y53219233D01*
X51715836Y53159193D01*
X51638707Y53151597D01*
X51561580Y53144000D01*
X51458420Y53144000D01*
X51381293Y53151597D01*
X51304164Y53159193D01*
X51106238Y53219233D01*
X51106235Y53219234D01*
X50923830Y53316732D01*
X50763945Y53447945D01*
X50632732Y53607830D01*
X50535234Y53790235D01*
X50535233Y53790238D01*
X50475193Y53988164D01*
X50454920Y54194000D01*
X50475193Y54399836D01*
X50535233Y54597762D01*
X50535234Y54597765D01*
X50632732Y54780170D01*
X50763945Y54940055D01*
X50923830Y55071268D01*
X51106235Y55168766D01*
X51106238Y55168767D01*
X51304164Y55228807D01*
X51381293Y55236404D01*
X51458420Y55244000D01*
X51561580Y55244000D01*
X51638707Y55236404D01*
X51638707Y55236404D01*
G37*
G36*
X54178707Y55236404D02*
G01*
X54255836Y55228807D01*
X54453762Y55168767D01*
X54453765Y55168766D01*
X54636170Y55071268D01*
X54796055Y54940055D01*
X54927268Y54780170D01*
X55024766Y54597765D01*
X55024767Y54597762D01*
X55084807Y54399836D01*
X55105080Y54194000D01*
X55084807Y53988164D01*
X55024767Y53790238D01*
X55024766Y53790235D01*
X54927268Y53607830D01*
X54796055Y53447945D01*
X54636170Y53316732D01*
X54453765Y53219234D01*
X54453762Y53219233D01*
X54255836Y53159193D01*
X54178707Y53151597D01*
X54101580Y53144000D01*
X53998420Y53144000D01*
X53921293Y53151597D01*
X53844164Y53159193D01*
X53646238Y53219233D01*
X53646235Y53219234D01*
X53463830Y53316732D01*
X53303945Y53447945D01*
X53172732Y53607830D01*
X53075234Y53790235D01*
X53075233Y53790238D01*
X53015193Y53988164D01*
X52994920Y54194000D01*
X53015193Y54399836D01*
X53075233Y54597762D01*
X53075234Y54597765D01*
X53172732Y54780170D01*
X53303945Y54940055D01*
X53463830Y55071268D01*
X53646235Y55168766D01*
X53646238Y55168767D01*
X53844164Y55228807D01*
X53921293Y55236404D01*
X53998420Y55244000D01*
X54101580Y55244000D01*
X54178707Y55236404D01*
X54178707Y55236404D01*
G37*
G36*
X56718707Y55236404D02*
G01*
X56795836Y55228807D01*
X56993762Y55168767D01*
X56993765Y55168766D01*
X57176170Y55071268D01*
X57336055Y54940055D01*
X57467268Y54780170D01*
X57564766Y54597765D01*
X57564767Y54597762D01*
X57624807Y54399836D01*
X57645080Y54194000D01*
X57624807Y53988164D01*
X57564767Y53790238D01*
X57564766Y53790235D01*
X57467268Y53607830D01*
X57336055Y53447945D01*
X57176170Y53316732D01*
X56993765Y53219234D01*
X56993762Y53219233D01*
X56795836Y53159193D01*
X56718707Y53151597D01*
X56641580Y53144000D01*
X56538420Y53144000D01*
X56461293Y53151597D01*
X56384164Y53159193D01*
X56186238Y53219233D01*
X56186235Y53219234D01*
X56003830Y53316732D01*
X55843945Y53447945D01*
X55712732Y53607830D01*
X55615234Y53790235D01*
X55615233Y53790238D01*
X55555193Y53988164D01*
X55534920Y54194000D01*
X55555193Y54399836D01*
X55615233Y54597762D01*
X55615234Y54597765D01*
X55712732Y54780170D01*
X55843945Y54940055D01*
X56003830Y55071268D01*
X56186235Y55168766D01*
X56186238Y55168767D01*
X56384164Y55228807D01*
X56461293Y55236404D01*
X56538420Y55244000D01*
X56641580Y55244000D01*
X56718707Y55236404D01*
X56718707Y55236404D01*
G37*
G36*
X26238707Y55236404D02*
G01*
X26315836Y55228807D01*
X26513762Y55168767D01*
X26513765Y55168766D01*
X26696170Y55071268D01*
X26856055Y54940055D01*
X26987268Y54780170D01*
X27084766Y54597765D01*
X27084767Y54597762D01*
X27144807Y54399836D01*
X27165080Y54194000D01*
X27144807Y53988164D01*
X27084767Y53790238D01*
X27084766Y53790235D01*
X26987268Y53607830D01*
X26856055Y53447945D01*
X26696170Y53316732D01*
X26513765Y53219234D01*
X26513762Y53219233D01*
X26315836Y53159193D01*
X26238707Y53151597D01*
X26161580Y53144000D01*
X26058420Y53144000D01*
X25981293Y53151597D01*
X25904164Y53159193D01*
X25706238Y53219233D01*
X25706235Y53219234D01*
X25523830Y53316732D01*
X25363945Y53447945D01*
X25232732Y53607830D01*
X25135234Y53790235D01*
X25135233Y53790238D01*
X25075193Y53988164D01*
X25054920Y54194000D01*
X25075193Y54399836D01*
X25135233Y54597762D01*
X25135234Y54597765D01*
X25232732Y54780170D01*
X25363945Y54940055D01*
X25523830Y55071268D01*
X25706235Y55168766D01*
X25706238Y55168767D01*
X25904164Y55228807D01*
X25981293Y55236404D01*
X26058420Y55244000D01*
X26161580Y55244000D01*
X26238707Y55236404D01*
X26238707Y55236404D01*
G37*
M02*
