G04 #@! TF.GenerationSoftware,KiCad,Pcbnew,(5.1.4)-1*
G04 #@! TF.CreationDate,2019-12-09T09:55:10+11:00*
G04 #@! TF.ProjectId,dingo-hat,64696e67-6f2d-4686-9174-2e6b69636164,rev?*
G04 #@! TF.SameCoordinates,PX7f50c60PY7d37aa0*
G04 #@! TF.FileFunction,Legend,Top*
G04 #@! TF.FilePolarity,Positive*
%FSLAX46Y46*%
G04 Gerber Fmt 4.6, Leading zero omitted, Abs format (unit mm)*
G04 Created by KiCad (PCBNEW (5.1.4)-1) date 2019-12-09 09:55:10*
%MOMM*%
%LPD*%
G04 APERTURE LIST*
%ADD10C,0.300000*%
%ADD11C,0.175000*%
%ADD12C,0.150000*%
%ADD13C,0.500000*%
%ADD14C,0.250000*%
%ADD15C,0.010000*%
%ADD16C,0.120000*%
%ADD17C,0.127000*%
%ADD18C,0.380000*%
%ADD19C,0.100000*%
%ADD20C,0.152400*%
G04 APERTURE END LIST*
D10*
X18607142Y54585715D02*
X20892857Y54585715D01*
X29107142Y46085715D02*
X31392857Y46085715D01*
X30250000Y44942858D02*
X30250000Y47228572D01*
X57357142Y49585715D02*
X59642857Y49585715D01*
X58500000Y48442858D02*
X58500000Y50728572D01*
X40857142Y46085715D02*
X43142857Y46085715D01*
X42000000Y44942858D02*
X42000000Y47228572D01*
X35357142Y46585715D02*
X37642857Y46585715D01*
X22978571Y43571429D02*
X22978571Y42857143D01*
X21478571Y42857143D01*
X22978571Y44071429D02*
X21978571Y44071429D01*
X21478571Y44071429D02*
X21550000Y44000000D01*
X21621428Y44071429D01*
X21550000Y44142858D01*
X21478571Y44071429D01*
X21621428Y44071429D01*
X22978571Y44785715D02*
X21478571Y44785715D01*
X21478571Y45357143D01*
X21550000Y45500000D01*
X21621428Y45571429D01*
X21764285Y45642858D01*
X21978571Y45642858D01*
X22121428Y45571429D01*
X22192857Y45500000D01*
X22264285Y45357143D01*
X22264285Y44785715D01*
X21478571Y46571429D02*
X21478571Y46857143D01*
X21550000Y47000000D01*
X21692857Y47142858D01*
X21978571Y47214286D01*
X22478571Y47214286D01*
X22764285Y47142858D01*
X22907142Y47000000D01*
X22978571Y46857143D01*
X22978571Y46571429D01*
X22907142Y46428572D01*
X22764285Y46285715D01*
X22478571Y46214286D01*
X21978571Y46214286D01*
X21692857Y46285715D01*
X21550000Y46428572D01*
X21478571Y46571429D01*
D11*
X9083333Y53983334D02*
X9316666Y53283334D01*
X9550000Y53983334D01*
X10183333Y53350000D02*
X10150000Y53316667D01*
X10050000Y53283334D01*
X9983333Y53283334D01*
X9883333Y53316667D01*
X9816666Y53383334D01*
X9783333Y53450000D01*
X9750000Y53583334D01*
X9750000Y53683334D01*
X9783333Y53816667D01*
X9816666Y53883334D01*
X9883333Y53950000D01*
X9983333Y53983334D01*
X10050000Y53983334D01*
X10150000Y53950000D01*
X10183333Y53916667D01*
X10450000Y53916667D02*
X10483333Y53950000D01*
X10550000Y53983334D01*
X10716666Y53983334D01*
X10783333Y53950000D01*
X10816666Y53916667D01*
X10850000Y53850000D01*
X10850000Y53783334D01*
X10816666Y53683334D01*
X10416666Y53283334D01*
X10850000Y53283334D01*
D12*
X4898571Y26480000D02*
X4841428Y26508572D01*
X4755714Y26508572D01*
X4670000Y26480000D01*
X4612857Y26422858D01*
X4584285Y26365715D01*
X4555714Y26251429D01*
X4555714Y26165715D01*
X4584285Y26051429D01*
X4612857Y25994286D01*
X4670000Y25937143D01*
X4755714Y25908572D01*
X4812857Y25908572D01*
X4898571Y25937143D01*
X4927142Y25965715D01*
X4927142Y26165715D01*
X4812857Y26165715D01*
X5184285Y25908572D02*
X5184285Y26508572D01*
X5412857Y26508572D01*
X5470000Y26480000D01*
X5498571Y26451429D01*
X5527142Y26394286D01*
X5527142Y26308572D01*
X5498571Y26251429D01*
X5470000Y26222858D01*
X5412857Y26194286D01*
X5184285Y26194286D01*
X5784285Y25908572D02*
X5784285Y26508572D01*
X6184285Y26508572D02*
X6298571Y26508572D01*
X6355714Y26480000D01*
X6412857Y26422858D01*
X6441428Y26308572D01*
X6441428Y26108572D01*
X6412857Y25994286D01*
X6355714Y25937143D01*
X6298571Y25908572D01*
X6184285Y25908572D01*
X6127142Y25937143D01*
X6070000Y25994286D01*
X6041428Y26108572D01*
X6041428Y26308572D01*
X6070000Y26422858D01*
X6127142Y26480000D01*
X6184285Y26508572D01*
X6670000Y26451429D02*
X6698571Y26480000D01*
X6755714Y26508572D01*
X6898571Y26508572D01*
X6955714Y26480000D01*
X6984285Y26451429D01*
X7012857Y26394286D01*
X7012857Y26337143D01*
X6984285Y26251429D01*
X6641428Y25908572D01*
X7012857Y25908572D01*
X7584285Y25908572D02*
X7241428Y25908572D01*
X7412857Y25908572D02*
X7412857Y26508572D01*
X7355714Y26422858D01*
X7298571Y26365715D01*
X7241428Y26337143D01*
X9110000Y28171429D02*
X9138571Y28228572D01*
X9138571Y28314286D01*
X9110000Y28400000D01*
X9052857Y28457143D01*
X8995714Y28485715D01*
X8881428Y28514286D01*
X8795714Y28514286D01*
X8681428Y28485715D01*
X8624285Y28457143D01*
X8567142Y28400000D01*
X8538571Y28314286D01*
X8538571Y28257143D01*
X8567142Y28171429D01*
X8595714Y28142858D01*
X8795714Y28142858D01*
X8795714Y28257143D01*
X8538571Y27885715D02*
X9138571Y27885715D01*
X9138571Y27657143D01*
X9110000Y27600000D01*
X9081428Y27571429D01*
X9024285Y27542858D01*
X8938571Y27542858D01*
X8881428Y27571429D01*
X8852857Y27600000D01*
X8824285Y27657143D01*
X8824285Y27885715D01*
X8538571Y27285715D02*
X9138571Y27285715D01*
X9138571Y26885715D02*
X9138571Y26771429D01*
X9110000Y26714286D01*
X9052857Y26657143D01*
X8938571Y26628572D01*
X8738571Y26628572D01*
X8624285Y26657143D01*
X8567142Y26714286D01*
X8538571Y26771429D01*
X8538571Y26885715D01*
X8567142Y26942858D01*
X8624285Y27000000D01*
X8738571Y27028572D01*
X8938571Y27028572D01*
X9052857Y27000000D01*
X9110000Y26942858D01*
X9138571Y26885715D01*
X9081428Y26400000D02*
X9110000Y26371429D01*
X9138571Y26314286D01*
X9138571Y26171429D01*
X9110000Y26114286D01*
X9081428Y26085715D01*
X9024285Y26057143D01*
X8967142Y26057143D01*
X8881428Y26085715D01*
X8538571Y26428572D01*
X8538571Y26057143D01*
X9138571Y25542858D02*
X9138571Y25657143D01*
X9110000Y25714286D01*
X9081428Y25742858D01*
X8995714Y25800000D01*
X8881428Y25828572D01*
X8652857Y25828572D01*
X8595714Y25800000D01*
X8567142Y25771429D01*
X8538571Y25714286D01*
X8538571Y25600000D01*
X8567142Y25542858D01*
X8595714Y25514286D01*
X8652857Y25485715D01*
X8795714Y25485715D01*
X8852857Y25514286D01*
X8881428Y25542858D01*
X8910000Y25600000D01*
X8910000Y25714286D01*
X8881428Y25771429D01*
X8852857Y25800000D01*
X8795714Y25828572D01*
D11*
X10060000Y25890000D02*
X10593333Y25890000D01*
X10326666Y25623334D02*
X10326666Y26156667D01*
X11260000Y26323334D02*
X10926666Y26323334D01*
X10893333Y25990000D01*
X10926666Y26023334D01*
X10993333Y26056667D01*
X11160000Y26056667D01*
X11226666Y26023334D01*
X11260000Y25990000D01*
X11293333Y25923334D01*
X11293333Y25756667D01*
X11260000Y25690000D01*
X11226666Y25656667D01*
X11160000Y25623334D01*
X10993333Y25623334D01*
X10926666Y25656667D01*
X10893333Y25690000D01*
X11493333Y26323334D02*
X11726666Y25623334D01*
X11960000Y26323334D01*
X2746666Y26190000D02*
X2680000Y26223334D01*
X2580000Y26223334D01*
X2480000Y26190000D01*
X2413333Y26123334D01*
X2380000Y26056667D01*
X2346666Y25923334D01*
X2346666Y25823334D01*
X2380000Y25690000D01*
X2413333Y25623334D01*
X2480000Y25556667D01*
X2580000Y25523334D01*
X2646666Y25523334D01*
X2746666Y25556667D01*
X2780000Y25590000D01*
X2780000Y25823334D01*
X2646666Y25823334D01*
X3080000Y25523334D02*
X3080000Y26223334D01*
X3480000Y25523334D01*
X3480000Y26223334D01*
X3813333Y25523334D02*
X3813333Y26223334D01*
X3980000Y26223334D01*
X4080000Y26190000D01*
X4146666Y26123334D01*
X4180000Y26056667D01*
X4213333Y25923334D01*
X4213333Y25823334D01*
X4180000Y25690000D01*
X4146666Y25623334D01*
X4080000Y25556667D01*
X3980000Y25523334D01*
X3813333Y25523334D01*
D13*
X33915476Y40995239D02*
X34582142Y38995239D01*
X35248809Y40995239D01*
X36963095Y38995239D02*
X35820238Y38995239D01*
X36391666Y38995239D02*
X36391666Y40995239D01*
X36201190Y40709524D01*
X36010714Y40519048D01*
X35820238Y40423810D01*
X37820238Y39185715D02*
X37915476Y39090477D01*
X37820238Y38995239D01*
X37725000Y39090477D01*
X37820238Y39185715D01*
X37820238Y38995239D01*
X39629761Y40328572D02*
X39629761Y38995239D01*
X39153571Y41090477D02*
X38677380Y39661905D01*
X39915476Y39661905D01*
D11*
X63388000Y14862667D02*
X63354666Y14796000D01*
X63354666Y14696000D01*
X63388000Y14596000D01*
X63454666Y14529334D01*
X63521333Y14496000D01*
X63654666Y14462667D01*
X63754666Y14462667D01*
X63888000Y14496000D01*
X63954666Y14529334D01*
X64021333Y14596000D01*
X64054666Y14696000D01*
X64054666Y14762667D01*
X64021333Y14862667D01*
X63988000Y14896000D01*
X63754666Y14896000D01*
X63754666Y14762667D01*
X64054666Y15196000D02*
X63354666Y15196000D01*
X64054666Y15596000D01*
X63354666Y15596000D01*
X64054666Y15929334D02*
X63354666Y15929334D01*
X63354666Y16096000D01*
X63388000Y16196000D01*
X63454666Y16262667D01*
X63521333Y16296000D01*
X63654666Y16329334D01*
X63754666Y16329334D01*
X63888000Y16296000D01*
X63954666Y16262667D01*
X64021333Y16196000D01*
X64054666Y16096000D01*
X64054666Y15929334D01*
X63800000Y8614000D02*
X63800000Y9147334D01*
X64066666Y8880667D02*
X63533333Y8880667D01*
X63366666Y9814000D02*
X63366666Y9480667D01*
X63700000Y9447334D01*
X63666666Y9480667D01*
X63633333Y9547334D01*
X63633333Y9714000D01*
X63666666Y9780667D01*
X63700000Y9814000D01*
X63766666Y9847334D01*
X63933333Y9847334D01*
X64000000Y9814000D01*
X64033333Y9780667D01*
X64066666Y9714000D01*
X64066666Y9547334D01*
X64033333Y9480667D01*
X64000000Y9447334D01*
X63366666Y10047334D02*
X64066666Y10280667D01*
X63366666Y10514000D01*
D12*
X63410000Y11192572D02*
X63381428Y11135429D01*
X63381428Y11049715D01*
X63410000Y10964000D01*
X63467142Y10906858D01*
X63524285Y10878286D01*
X63638571Y10849715D01*
X63724285Y10849715D01*
X63838571Y10878286D01*
X63895714Y10906858D01*
X63952857Y10964000D01*
X63981428Y11049715D01*
X63981428Y11106858D01*
X63952857Y11192572D01*
X63924285Y11221143D01*
X63724285Y11221143D01*
X63724285Y11106858D01*
X63981428Y11478286D02*
X63381428Y11478286D01*
X63381428Y11706858D01*
X63410000Y11764000D01*
X63438571Y11792572D01*
X63495714Y11821143D01*
X63581428Y11821143D01*
X63638571Y11792572D01*
X63667142Y11764000D01*
X63695714Y11706858D01*
X63695714Y11478286D01*
X63981428Y12078286D02*
X63381428Y12078286D01*
X63381428Y12478286D02*
X63381428Y12592572D01*
X63410000Y12649715D01*
X63467142Y12706858D01*
X63581428Y12735429D01*
X63781428Y12735429D01*
X63895714Y12706858D01*
X63952857Y12649715D01*
X63981428Y12592572D01*
X63981428Y12478286D01*
X63952857Y12421143D01*
X63895714Y12364000D01*
X63781428Y12335429D01*
X63581428Y12335429D01*
X63467142Y12364000D01*
X63410000Y12421143D01*
X63381428Y12478286D01*
X63981428Y13306858D02*
X63981428Y12964000D01*
X63981428Y13135429D02*
X63381428Y13135429D01*
X63467142Y13078286D01*
X63524285Y13021143D01*
X63552857Y12964000D01*
X63638571Y13649715D02*
X63610000Y13592572D01*
X63581428Y13564000D01*
X63524285Y13535429D01*
X63495714Y13535429D01*
X63438571Y13564000D01*
X63410000Y13592572D01*
X63381428Y13649715D01*
X63381428Y13764000D01*
X63410000Y13821143D01*
X63438571Y13849715D01*
X63495714Y13878286D01*
X63524285Y13878286D01*
X63581428Y13849715D01*
X63610000Y13821143D01*
X63638571Y13764000D01*
X63638571Y13649715D01*
X63667142Y13592572D01*
X63695714Y13564000D01*
X63752857Y13535429D01*
X63867142Y13535429D01*
X63924285Y13564000D01*
X63952857Y13592572D01*
X63981428Y13649715D01*
X63981428Y13764000D01*
X63952857Y13821143D01*
X63924285Y13849715D01*
X63867142Y13878286D01*
X63752857Y13878286D01*
X63695714Y13849715D01*
X63667142Y13821143D01*
X63638571Y13764000D01*
D11*
X11808333Y53958334D02*
X12041666Y53258334D01*
X12275000Y53958334D01*
X12908333Y53325000D02*
X12875000Y53291667D01*
X12775000Y53258334D01*
X12708333Y53258334D01*
X12608333Y53291667D01*
X12541666Y53358334D01*
X12508333Y53425000D01*
X12475000Y53558334D01*
X12475000Y53658334D01*
X12508333Y53791667D01*
X12541666Y53858334D01*
X12608333Y53925000D01*
X12708333Y53958334D01*
X12775000Y53958334D01*
X12875000Y53925000D01*
X12908333Y53891667D01*
X13575000Y53258334D02*
X13175000Y53258334D01*
X13375000Y53258334D02*
X13375000Y53958334D01*
X13308333Y53858334D01*
X13241666Y53791667D01*
X13175000Y53758334D01*
X14083333Y53933334D02*
X14316666Y53233334D01*
X14550000Y53933334D01*
X15183333Y53300000D02*
X15150000Y53266667D01*
X15050000Y53233334D01*
X14983333Y53233334D01*
X14883333Y53266667D01*
X14816666Y53333334D01*
X14783333Y53400000D01*
X14750000Y53533334D01*
X14750000Y53633334D01*
X14783333Y53766667D01*
X14816666Y53833334D01*
X14883333Y53900000D01*
X14983333Y53933334D01*
X15050000Y53933334D01*
X15150000Y53900000D01*
X15183333Y53866667D01*
X15616666Y53933334D02*
X15683333Y53933334D01*
X15750000Y53900000D01*
X15783333Y53866667D01*
X15816666Y53800000D01*
X15850000Y53666667D01*
X15850000Y53500000D01*
X15816666Y53366667D01*
X15783333Y53300000D01*
X15750000Y53266667D01*
X15683333Y53233334D01*
X15616666Y53233334D01*
X15550000Y53266667D01*
X15516666Y53300000D01*
X15483333Y53366667D01*
X15450000Y53500000D01*
X15450000Y53666667D01*
X15483333Y53800000D01*
X15516666Y53866667D01*
X15550000Y53900000D01*
X15616666Y53933334D01*
D12*
X52548571Y43044000D02*
X52548571Y44044000D01*
X53434285Y43744000D02*
X52977142Y43544000D01*
X53434285Y43344000D01*
X26871428Y47164000D02*
X26871428Y46164000D01*
X25985714Y46464000D02*
X26442857Y46664000D01*
X25985714Y46864000D01*
X22488571Y34292858D02*
X22031428Y34292858D01*
X22260000Y34521429D02*
X22260000Y34064286D01*
D11*
X22836666Y47654000D02*
X22303333Y47654000D01*
X45930000Y49250667D02*
X45896666Y49184000D01*
X45896666Y49084000D01*
X45930000Y48984000D01*
X45996666Y48917334D01*
X46063333Y48884000D01*
X46196666Y48850667D01*
X46296666Y48850667D01*
X46430000Y48884000D01*
X46496666Y48917334D01*
X46563333Y48984000D01*
X46596666Y49084000D01*
X46596666Y49150667D01*
X46563333Y49250667D01*
X46530000Y49284000D01*
X46296666Y49284000D01*
X46296666Y49150667D01*
X46596666Y49584000D02*
X45896666Y49584000D01*
X46596666Y49984000D01*
X45896666Y49984000D01*
X46596666Y50317334D02*
X45896666Y50317334D01*
X45896666Y50484000D01*
X45930000Y50584000D01*
X45996666Y50650667D01*
X46063333Y50684000D01*
X46196666Y50717334D01*
X46296666Y50717334D01*
X46430000Y50684000D01*
X46496666Y50650667D01*
X46563333Y50584000D01*
X46596666Y50484000D01*
X46596666Y50317334D01*
X35600000Y37250000D02*
X36133333Y37250000D01*
X35866666Y36983334D02*
X35866666Y37516667D01*
X36800000Y37683334D02*
X36466666Y37683334D01*
X36433333Y37350000D01*
X36466666Y37383334D01*
X36533333Y37416667D01*
X36700000Y37416667D01*
X36766666Y37383334D01*
X36800000Y37350000D01*
X36833333Y37283334D01*
X36833333Y37116667D01*
X36800000Y37050000D01*
X36766666Y37016667D01*
X36700000Y36983334D01*
X36533333Y36983334D01*
X36466666Y37016667D01*
X36433333Y37050000D01*
X37033333Y37683334D02*
X37266666Y36983334D01*
X37500000Y37683334D01*
D14*
X20109523Y23147620D02*
X20109523Y24147620D01*
X20538095Y23147620D02*
X20538095Y23671429D01*
X20490476Y23766667D01*
X20395238Y23814286D01*
X20252380Y23814286D01*
X20157142Y23766667D01*
X20109523Y23719048D01*
X20871428Y23814286D02*
X21252380Y23814286D01*
X21014285Y24147620D02*
X21014285Y23290477D01*
X21061904Y23195239D01*
X21157142Y23147620D01*
X21252380Y23147620D01*
X21442857Y23814286D02*
X21823809Y23814286D01*
X21585714Y24147620D02*
X21585714Y23290477D01*
X21633333Y23195239D01*
X21728571Y23147620D01*
X21823809Y23147620D01*
X22157142Y23814286D02*
X22157142Y22814286D01*
X22157142Y23766667D02*
X22252380Y23814286D01*
X22442857Y23814286D01*
X22538095Y23766667D01*
X22585714Y23719048D01*
X22633333Y23623810D01*
X22633333Y23338096D01*
X22585714Y23242858D01*
X22538095Y23195239D01*
X22442857Y23147620D01*
X22252380Y23147620D01*
X22157142Y23195239D01*
X23014285Y23195239D02*
X23109523Y23147620D01*
X23300000Y23147620D01*
X23395238Y23195239D01*
X23442857Y23290477D01*
X23442857Y23338096D01*
X23395238Y23433334D01*
X23300000Y23480953D01*
X23157142Y23480953D01*
X23061904Y23528572D01*
X23014285Y23623810D01*
X23014285Y23671429D01*
X23061904Y23766667D01*
X23157142Y23814286D01*
X23300000Y23814286D01*
X23395238Y23766667D01*
X23871428Y23242858D02*
X23919047Y23195239D01*
X23871428Y23147620D01*
X23823809Y23195239D01*
X23871428Y23242858D01*
X23871428Y23147620D01*
X23871428Y23766667D02*
X23919047Y23719048D01*
X23871428Y23671429D01*
X23823809Y23719048D01*
X23871428Y23766667D01*
X23871428Y23671429D01*
X25061904Y24195239D02*
X24204761Y22909524D01*
X26109523Y24195239D02*
X25252380Y22909524D01*
X26300000Y23814286D02*
X26680952Y23814286D01*
X26442857Y24147620D02*
X26442857Y23290477D01*
X26490476Y23195239D01*
X26585714Y23147620D01*
X26680952Y23147620D01*
X27014285Y23147620D02*
X27014285Y23814286D01*
X27014285Y24147620D02*
X26966666Y24100000D01*
X27014285Y24052381D01*
X27061904Y24100000D01*
X27014285Y24147620D01*
X27014285Y24052381D01*
X27490476Y23814286D02*
X27490476Y23147620D01*
X27490476Y23719048D02*
X27538095Y23766667D01*
X27633333Y23814286D01*
X27776190Y23814286D01*
X27871428Y23766667D01*
X27919047Y23671429D01*
X27919047Y23147620D01*
X28300000Y23814286D02*
X28538095Y23147620D01*
X28776190Y23814286D02*
X28538095Y23147620D01*
X28442857Y22909524D01*
X28395238Y22861905D01*
X28300000Y22814286D01*
X29585714Y23814286D02*
X29585714Y23147620D01*
X29157142Y23814286D02*
X29157142Y23290477D01*
X29204761Y23195239D01*
X29300000Y23147620D01*
X29442857Y23147620D01*
X29538095Y23195239D01*
X29585714Y23242858D01*
X30061904Y23147620D02*
X30061904Y23814286D01*
X30061904Y23623810D02*
X30109523Y23719048D01*
X30157142Y23766667D01*
X30252380Y23814286D01*
X30347619Y23814286D01*
X30823809Y23147620D02*
X30728571Y23195239D01*
X30680952Y23290477D01*
X30680952Y24147620D01*
X31204761Y23242858D02*
X31252380Y23195239D01*
X31204761Y23147620D01*
X31157142Y23195239D01*
X31204761Y23242858D01*
X31204761Y23147620D01*
X32109523Y23195239D02*
X32014285Y23147620D01*
X31823809Y23147620D01*
X31728571Y23195239D01*
X31680952Y23242858D01*
X31633333Y23338096D01*
X31633333Y23623810D01*
X31680952Y23719048D01*
X31728571Y23766667D01*
X31823809Y23814286D01*
X32014285Y23814286D01*
X32109523Y23766667D01*
X32680952Y23147620D02*
X32585714Y23195239D01*
X32538095Y23242858D01*
X32490476Y23338096D01*
X32490476Y23623810D01*
X32538095Y23719048D01*
X32585714Y23766667D01*
X32680952Y23814286D01*
X32823809Y23814286D01*
X32919047Y23766667D01*
X32966666Y23719048D01*
X33014285Y23623810D01*
X33014285Y23338096D01*
X32966666Y23242858D01*
X32919047Y23195239D01*
X32823809Y23147620D01*
X32680952Y23147620D01*
X33442857Y23147620D02*
X33442857Y23814286D01*
X33442857Y23719048D02*
X33490476Y23766667D01*
X33585714Y23814286D01*
X33728571Y23814286D01*
X33823809Y23766667D01*
X33871428Y23671429D01*
X33871428Y23147620D01*
X33871428Y23671429D02*
X33919047Y23766667D01*
X34014285Y23814286D01*
X34157142Y23814286D01*
X34252380Y23766667D01*
X34300000Y23671429D01*
X34300000Y23147620D01*
X35490476Y24195239D02*
X34633333Y22909524D01*
X35728571Y23814286D02*
X35966666Y23147620D01*
X36204761Y23814286D02*
X35966666Y23147620D01*
X35871428Y22909524D01*
X35823809Y22861905D01*
X35728571Y22814286D01*
X37014285Y23147620D02*
X37014285Y24147620D01*
X37014285Y23195239D02*
X36919047Y23147620D01*
X36728571Y23147620D01*
X36633333Y23195239D01*
X36585714Y23242858D01*
X36538095Y23338096D01*
X36538095Y23623810D01*
X36585714Y23719048D01*
X36633333Y23766667D01*
X36728571Y23814286D01*
X36919047Y23814286D01*
X37014285Y23766667D01*
X37919047Y23814286D02*
X37919047Y23147620D01*
X37680952Y24195239D02*
X37442857Y23480953D01*
X38061904Y23480953D01*
X38442857Y23147620D02*
X38442857Y24147620D01*
X38538095Y23528572D02*
X38823809Y23147620D01*
X38823809Y23814286D02*
X38442857Y23433334D01*
X39157142Y24147620D02*
X39823809Y24147620D01*
X39395238Y23147620D01*
X40680952Y24147620D02*
X40204761Y24147620D01*
X40157142Y23671429D01*
X40204761Y23719048D01*
X40300000Y23766667D01*
X40538095Y23766667D01*
X40633333Y23719048D01*
X40680952Y23671429D01*
X40728571Y23576191D01*
X40728571Y23338096D01*
X40680952Y23242858D01*
X40633333Y23195239D01*
X40538095Y23147620D01*
X40300000Y23147620D01*
X40204761Y23195239D01*
X40157142Y23242858D01*
X41157142Y23147620D02*
X41157142Y24147620D01*
X41585714Y23147620D02*
X41585714Y23671429D01*
X41538095Y23766667D01*
X41442857Y23814286D01*
X41300000Y23814286D01*
X41204761Y23766667D01*
X41157142Y23719048D01*
X42061904Y23814286D02*
X42061904Y22814286D01*
X42061904Y23766667D02*
X42157142Y23814286D01*
X42347619Y23814286D01*
X42442857Y23766667D01*
X42490476Y23719048D01*
X42538095Y23623810D01*
X42538095Y23338096D01*
X42490476Y23242858D01*
X42442857Y23195239D01*
X42347619Y23147620D01*
X42157142Y23147620D01*
X42061904Y23195239D01*
D11*
X59620000Y45784000D02*
X60153333Y45784000D01*
X59886666Y45517334D02*
X59886666Y46050667D01*
X60820000Y46217334D02*
X60486666Y46217334D01*
X60453333Y45884000D01*
X60486666Y45917334D01*
X60553333Y45950667D01*
X60720000Y45950667D01*
X60786666Y45917334D01*
X60820000Y45884000D01*
X60853333Y45817334D01*
X60853333Y45650667D01*
X60820000Y45584000D01*
X60786666Y45550667D01*
X60720000Y45517334D01*
X60553333Y45517334D01*
X60486666Y45550667D01*
X60453333Y45584000D01*
X61053333Y46217334D02*
X61286666Y45517334D01*
X61520000Y46217334D01*
X57196666Y46160000D02*
X57130000Y46193334D01*
X57030000Y46193334D01*
X56930000Y46160000D01*
X56863333Y46093334D01*
X56830000Y46026667D01*
X56796666Y45893334D01*
X56796666Y45793334D01*
X56830000Y45660000D01*
X56863333Y45593334D01*
X56930000Y45526667D01*
X57030000Y45493334D01*
X57096666Y45493334D01*
X57196666Y45526667D01*
X57230000Y45560000D01*
X57230000Y45793334D01*
X57096666Y45793334D01*
X57530000Y45493334D02*
X57530000Y46193334D01*
X57930000Y45493334D01*
X57930000Y46193334D01*
X58263333Y45493334D02*
X58263333Y46193334D01*
X58430000Y46193334D01*
X58530000Y46160000D01*
X58596666Y46093334D01*
X58630000Y46026667D01*
X58663333Y45893334D01*
X58663333Y45793334D01*
X58630000Y45660000D01*
X58596666Y45593334D01*
X58530000Y45526667D01*
X58430000Y45493334D01*
X58263333Y45493334D01*
X1946666Y41880000D02*
X1880000Y41913334D01*
X1780000Y41913334D01*
X1680000Y41880000D01*
X1613333Y41813334D01*
X1580000Y41746667D01*
X1546666Y41613334D01*
X1546666Y41513334D01*
X1580000Y41380000D01*
X1613333Y41313334D01*
X1680000Y41246667D01*
X1780000Y41213334D01*
X1846666Y41213334D01*
X1946666Y41246667D01*
X1980000Y41280000D01*
X1980000Y41513334D01*
X1846666Y41513334D01*
X2280000Y41213334D02*
X2280000Y41913334D01*
X2680000Y41213334D01*
X2680000Y41913334D01*
X3013333Y41213334D02*
X3013333Y41913334D01*
X3180000Y41913334D01*
X3280000Y41880000D01*
X3346666Y41813334D01*
X3380000Y41746667D01*
X3413333Y41613334D01*
X3413333Y41513334D01*
X3380000Y41380000D01*
X3346666Y41313334D01*
X3280000Y41246667D01*
X3180000Y41213334D01*
X3013333Y41213334D01*
X28595000Y19432667D02*
X28695000Y19399334D01*
X28861666Y19399334D01*
X28928333Y19432667D01*
X28961666Y19466000D01*
X28995000Y19532667D01*
X28995000Y19599334D01*
X28961666Y19666000D01*
X28928333Y19699334D01*
X28861666Y19732667D01*
X28728333Y19766000D01*
X28661666Y19799334D01*
X28628333Y19832667D01*
X28595000Y19899334D01*
X28595000Y19966000D01*
X28628333Y20032667D01*
X28661666Y20066000D01*
X28728333Y20099334D01*
X28895000Y20099334D01*
X28995000Y20066000D01*
X29295000Y19399334D02*
X29295000Y20099334D01*
X29461666Y20099334D01*
X29561666Y20066000D01*
X29628333Y19999334D01*
X29661666Y19932667D01*
X29695000Y19799334D01*
X29695000Y19699334D01*
X29661666Y19566000D01*
X29628333Y19499334D01*
X29561666Y19432667D01*
X29461666Y19399334D01*
X29295000Y19399334D01*
X29961666Y19599334D02*
X30295000Y19599334D01*
X29895000Y19399334D02*
X30128333Y20099334D01*
X30361666Y19399334D01*
X31151666Y19432667D02*
X31251666Y19399334D01*
X31418333Y19399334D01*
X31485000Y19432667D01*
X31518333Y19466000D01*
X31551666Y19532667D01*
X31551666Y19599334D01*
X31518333Y19666000D01*
X31485000Y19699334D01*
X31418333Y19732667D01*
X31285000Y19766000D01*
X31218333Y19799334D01*
X31185000Y19832667D01*
X31151666Y19899334D01*
X31151666Y19966000D01*
X31185000Y20032667D01*
X31218333Y20066000D01*
X31285000Y20099334D01*
X31451666Y20099334D01*
X31551666Y20066000D01*
X32251666Y19466000D02*
X32218333Y19432667D01*
X32118333Y19399334D01*
X32051666Y19399334D01*
X31951666Y19432667D01*
X31885000Y19499334D01*
X31851666Y19566000D01*
X31818333Y19699334D01*
X31818333Y19799334D01*
X31851666Y19932667D01*
X31885000Y19999334D01*
X31951666Y20066000D01*
X32051666Y20099334D01*
X32118333Y20099334D01*
X32218333Y20066000D01*
X32251666Y20032667D01*
X32885000Y19399334D02*
X32551666Y19399334D01*
X32551666Y20099334D01*
X36466666Y19656000D02*
X37000000Y19656000D01*
X36733333Y19389334D02*
X36733333Y19922667D01*
X37266666Y20089334D02*
X37700000Y20089334D01*
X37466666Y19822667D01*
X37566666Y19822667D01*
X37633333Y19789334D01*
X37666666Y19756000D01*
X37700000Y19689334D01*
X37700000Y19522667D01*
X37666666Y19456000D01*
X37633333Y19422667D01*
X37566666Y19389334D01*
X37366666Y19389334D01*
X37300000Y19422667D01*
X37266666Y19456000D01*
X37900000Y20089334D02*
X38133333Y19389334D01*
X38366666Y20089334D01*
X38533333Y20089334D02*
X38966666Y20089334D01*
X38733333Y19822667D01*
X38833333Y19822667D01*
X38900000Y19789334D01*
X38933333Y19756000D01*
X38966666Y19689334D01*
X38966666Y19522667D01*
X38933333Y19456000D01*
X38900000Y19422667D01*
X38833333Y19389334D01*
X38633333Y19389334D01*
X38566666Y19422667D01*
X38533333Y19456000D01*
X33991666Y20046000D02*
X33925000Y20079334D01*
X33825000Y20079334D01*
X33725000Y20046000D01*
X33658333Y19979334D01*
X33625000Y19912667D01*
X33591666Y19779334D01*
X33591666Y19679334D01*
X33625000Y19546000D01*
X33658333Y19479334D01*
X33725000Y19412667D01*
X33825000Y19379334D01*
X33891666Y19379334D01*
X33991666Y19412667D01*
X34025000Y19446000D01*
X34025000Y19679334D01*
X33891666Y19679334D01*
X34325000Y19379334D02*
X34325000Y20079334D01*
X34725000Y19379334D01*
X34725000Y20079334D01*
X35058333Y19379334D02*
X35058333Y20079334D01*
X35225000Y20079334D01*
X35325000Y20046000D01*
X35391666Y19979334D01*
X35425000Y19912667D01*
X35458333Y19779334D01*
X35458333Y19679334D01*
X35425000Y19546000D01*
X35391666Y19479334D01*
X35325000Y19412667D01*
X35225000Y19379334D01*
X35058333Y19379334D01*
D13*
X34401190Y42395239D02*
X34401190Y44395239D01*
X34877380Y44395239D01*
X35163095Y44300000D01*
X35353571Y44109524D01*
X35448809Y43919048D01*
X35544047Y43538096D01*
X35544047Y43252381D01*
X35448809Y42871429D01*
X35353571Y42680953D01*
X35163095Y42490477D01*
X34877380Y42395239D01*
X34401190Y42395239D01*
X36401190Y42395239D02*
X36401190Y43728572D01*
X36401190Y44395239D02*
X36305952Y44300000D01*
X36401190Y44204762D01*
X36496428Y44300000D01*
X36401190Y44395239D01*
X36401190Y44204762D01*
X37353571Y43728572D02*
X37353571Y42395239D01*
X37353571Y43538096D02*
X37448809Y43633334D01*
X37639285Y43728572D01*
X37925000Y43728572D01*
X38115476Y43633334D01*
X38210714Y43442858D01*
X38210714Y42395239D01*
X40020238Y43728572D02*
X40020238Y42109524D01*
X39925000Y41919048D01*
X39829761Y41823810D01*
X39639285Y41728572D01*
X39353571Y41728572D01*
X39163095Y41823810D01*
X40020238Y42490477D02*
X39829761Y42395239D01*
X39448809Y42395239D01*
X39258333Y42490477D01*
X39163095Y42585715D01*
X39067857Y42776191D01*
X39067857Y43347620D01*
X39163095Y43538096D01*
X39258333Y43633334D01*
X39448809Y43728572D01*
X39829761Y43728572D01*
X40020238Y43633334D01*
X41258333Y42395239D02*
X41067857Y42490477D01*
X40972619Y42585715D01*
X40877380Y42776191D01*
X40877380Y43347620D01*
X40972619Y43538096D01*
X41067857Y43633334D01*
X41258333Y43728572D01*
X41544047Y43728572D01*
X41734523Y43633334D01*
X41829761Y43538096D01*
X41925000Y43347620D01*
X41925000Y42776191D01*
X41829761Y42585715D01*
X41734523Y42490477D01*
X41544047Y42395239D01*
X41258333Y42395239D01*
X42782142Y43157143D02*
X44305952Y43157143D01*
X46401190Y42585715D02*
X46305952Y42490477D01*
X46020238Y42395239D01*
X45829761Y42395239D01*
X45544047Y42490477D01*
X45353571Y42680953D01*
X45258333Y42871429D01*
X45163095Y43252381D01*
X45163095Y43538096D01*
X45258333Y43919048D01*
X45353571Y44109524D01*
X45544047Y44300000D01*
X45829761Y44395239D01*
X46020238Y44395239D01*
X46305952Y44300000D01*
X46401190Y44204762D01*
X48115476Y42395239D02*
X48115476Y43442858D01*
X48020238Y43633334D01*
X47829761Y43728572D01*
X47448809Y43728572D01*
X47258333Y43633334D01*
X48115476Y42490477D02*
X47925000Y42395239D01*
X47448809Y42395239D01*
X47258333Y42490477D01*
X47163095Y42680953D01*
X47163095Y42871429D01*
X47258333Y43061905D01*
X47448809Y43157143D01*
X47925000Y43157143D01*
X48115476Y43252381D01*
X49067857Y43728572D02*
X49067857Y41728572D01*
X49067857Y43633334D02*
X49258333Y43728572D01*
X49639285Y43728572D01*
X49829761Y43633334D01*
X49925000Y43538096D01*
X50020238Y43347620D01*
X50020238Y42776191D01*
X49925000Y42585715D01*
X49829761Y42490477D01*
X49639285Y42395239D01*
X49258333Y42395239D01*
X49067857Y42490477D01*
D15*
G36*
X13793686Y33708807D02*
G01*
X13808123Y33701952D01*
X13901682Y33647175D01*
X13996966Y33578964D01*
X14090492Y33499999D01*
X14165767Y33426677D01*
X14261143Y33316267D01*
X14341091Y33199384D01*
X14406168Y33074986D01*
X14456928Y32942027D01*
X14489906Y32818448D01*
X14496185Y32779240D01*
X14500730Y32729587D01*
X14503513Y32673598D01*
X14504503Y32615381D01*
X14503673Y32559046D01*
X14500991Y32508700D01*
X14496430Y32468452D01*
X14492533Y32449967D01*
X14457411Y32355273D01*
X14408244Y32268482D01*
X14346376Y32190425D01*
X14273147Y32121934D01*
X14189899Y32063841D01*
X14097975Y32016976D01*
X13998717Y31982172D01*
X13893466Y31960261D01*
X13783565Y31952074D01*
X13695100Y31955785D01*
X13599291Y31972060D01*
X13503350Y32002117D01*
X13410604Y32044232D01*
X13324381Y32096682D01*
X13248006Y32157745D01*
X13192539Y32216074D01*
X13134185Y32299107D01*
X13091884Y32387281D01*
X13065311Y32481452D01*
X13054347Y32576967D01*
X13057298Y32704097D01*
X13076205Y32831859D01*
X13110260Y32958496D01*
X13158656Y33082251D01*
X13220585Y33201368D01*
X13295239Y33314089D01*
X13381810Y33418659D01*
X13479490Y33513320D01*
X13488453Y33521000D01*
X13534693Y33558274D01*
X13586851Y33597126D01*
X13640474Y33634472D01*
X13691105Y33667225D01*
X13734290Y33692300D01*
X13740390Y33695484D01*
X13764447Y33707137D01*
X13780059Y33711372D01*
X13793686Y33708807D01*
X13793686Y33708807D01*
G37*
X13793686Y33708807D02*
X13808123Y33701952D01*
X13901682Y33647175D01*
X13996966Y33578964D01*
X14090492Y33499999D01*
X14165767Y33426677D01*
X14261143Y33316267D01*
X14341091Y33199384D01*
X14406168Y33074986D01*
X14456928Y32942027D01*
X14489906Y32818448D01*
X14496185Y32779240D01*
X14500730Y32729587D01*
X14503513Y32673598D01*
X14504503Y32615381D01*
X14503673Y32559046D01*
X14500991Y32508700D01*
X14496430Y32468452D01*
X14492533Y32449967D01*
X14457411Y32355273D01*
X14408244Y32268482D01*
X14346376Y32190425D01*
X14273147Y32121934D01*
X14189899Y32063841D01*
X14097975Y32016976D01*
X13998717Y31982172D01*
X13893466Y31960261D01*
X13783565Y31952074D01*
X13695100Y31955785D01*
X13599291Y31972060D01*
X13503350Y32002117D01*
X13410604Y32044232D01*
X13324381Y32096682D01*
X13248006Y32157745D01*
X13192539Y32216074D01*
X13134185Y32299107D01*
X13091884Y32387281D01*
X13065311Y32481452D01*
X13054347Y32576967D01*
X13057298Y32704097D01*
X13076205Y32831859D01*
X13110260Y32958496D01*
X13158656Y33082251D01*
X13220585Y33201368D01*
X13295239Y33314089D01*
X13381810Y33418659D01*
X13479490Y33513320D01*
X13488453Y33521000D01*
X13534693Y33558274D01*
X13586851Y33597126D01*
X13640474Y33634472D01*
X13691105Y33667225D01*
X13734290Y33692300D01*
X13740390Y33695484D01*
X13764447Y33707137D01*
X13780059Y33711372D01*
X13793686Y33708807D01*
G36*
X12081385Y33694268D02*
G01*
X12109732Y33678100D01*
X12145310Y33656482D01*
X12181381Y33633530D01*
X12188800Y33628653D01*
X12307260Y33541063D01*
X12413574Y33443633D01*
X12507131Y33337435D01*
X12587320Y33223539D01*
X12653530Y33103017D01*
X12705151Y32976941D01*
X12741570Y32846381D01*
X12762178Y32712409D01*
X12766879Y32615067D01*
X12764485Y32541102D01*
X12755778Y32477283D01*
X12739530Y32417603D01*
X12714509Y32356055D01*
X12713324Y32353502D01*
X12662556Y32264219D01*
X12598546Y32184398D01*
X12522625Y32114880D01*
X12436124Y32056507D01*
X12340375Y32010121D01*
X12236711Y31976562D01*
X12126461Y31956671D01*
X12078733Y31952608D01*
X12044452Y31951307D01*
X12012351Y31951203D01*
X11994067Y31951997D01*
X11874895Y31969025D01*
X11766477Y31998797D01*
X11668005Y32041685D01*
X11578669Y32098061D01*
X11497661Y32168297D01*
X11476652Y32190183D01*
X11413097Y32269143D01*
X11365065Y32352218D01*
X11332185Y32440625D01*
X11314085Y32535583D01*
X11310395Y32638309D01*
X11316271Y32716228D01*
X11341064Y32858205D01*
X11381533Y32994229D01*
X11437307Y33123750D01*
X11508015Y33246218D01*
X11593284Y33361083D01*
X11692745Y33467796D01*
X11806024Y33565807D01*
X11932751Y33654566D01*
X11962852Y33673068D01*
X12037471Y33717841D01*
X12081385Y33694268D01*
X12081385Y33694268D01*
G37*
X12081385Y33694268D02*
X12109732Y33678100D01*
X12145310Y33656482D01*
X12181381Y33633530D01*
X12188800Y33628653D01*
X12307260Y33541063D01*
X12413574Y33443633D01*
X12507131Y33337435D01*
X12587320Y33223539D01*
X12653530Y33103017D01*
X12705151Y32976941D01*
X12741570Y32846381D01*
X12762178Y32712409D01*
X12766879Y32615067D01*
X12764485Y32541102D01*
X12755778Y32477283D01*
X12739530Y32417603D01*
X12714509Y32356055D01*
X12713324Y32353502D01*
X12662556Y32264219D01*
X12598546Y32184398D01*
X12522625Y32114880D01*
X12436124Y32056507D01*
X12340375Y32010121D01*
X12236711Y31976562D01*
X12126461Y31956671D01*
X12078733Y31952608D01*
X12044452Y31951307D01*
X12012351Y31951203D01*
X11994067Y31951997D01*
X11874895Y31969025D01*
X11766477Y31998797D01*
X11668005Y32041685D01*
X11578669Y32098061D01*
X11497661Y32168297D01*
X11476652Y32190183D01*
X11413097Y32269143D01*
X11365065Y32352218D01*
X11332185Y32440625D01*
X11314085Y32535583D01*
X11310395Y32638309D01*
X11316271Y32716228D01*
X11341064Y32858205D01*
X11381533Y32994229D01*
X11437307Y33123750D01*
X11508015Y33246218D01*
X11593284Y33361083D01*
X11692745Y33467796D01*
X11806024Y33565807D01*
X11932751Y33654566D01*
X11962852Y33673068D01*
X12037471Y33717841D01*
X12081385Y33694268D01*
G36*
X14940983Y32301537D02*
G01*
X15021956Y32254426D01*
X15106216Y32194929D01*
X15190267Y32126175D01*
X15270609Y32051291D01*
X15343745Y31973407D01*
X15406177Y31895651D01*
X15425231Y31868482D01*
X15495911Y31749673D01*
X15552855Y31624720D01*
X15595370Y31495812D01*
X15622760Y31365138D01*
X15634329Y31234886D01*
X15634683Y31208838D01*
X15626587Y31110045D01*
X15602785Y31015613D01*
X15564195Y30926669D01*
X15511734Y30844345D01*
X15446320Y30769770D01*
X15368868Y30704074D01*
X15280297Y30648385D01*
X15181523Y30603834D01*
X15129244Y30586282D01*
X15095701Y30576956D01*
X15064632Y30570381D01*
X15031425Y30565981D01*
X14991463Y30563179D01*
X14940133Y30561398D01*
X14927767Y30561106D01*
X14854744Y30560709D01*
X14796964Y30563189D01*
X14752973Y30568618D01*
X14745733Y30570057D01*
X14635059Y30601575D01*
X14533748Y30646349D01*
X14442638Y30703656D01*
X14362571Y30772767D01*
X14294385Y30852958D01*
X14238921Y30943504D01*
X14197018Y31043677D01*
X14196745Y31044500D01*
X14189934Y31076039D01*
X14185255Y31120469D01*
X14182693Y31173885D01*
X14182230Y31232380D01*
X14183851Y31292051D01*
X14187538Y31348990D01*
X14193276Y31399294D01*
X14198353Y31427771D01*
X14236840Y31567406D01*
X14290271Y31699483D01*
X14358827Y31824308D01*
X14442691Y31942189D01*
X14542043Y32053431D01*
X14605310Y32113657D01*
X14648269Y32149958D01*
X14698872Y32188978D01*
X14752631Y32227551D01*
X14805055Y32262510D01*
X14851659Y32290687D01*
X14870617Y32300861D01*
X14906600Y32319078D01*
X14940983Y32301537D01*
X14940983Y32301537D01*
G37*
X14940983Y32301537D02*
X15021956Y32254426D01*
X15106216Y32194929D01*
X15190267Y32126175D01*
X15270609Y32051291D01*
X15343745Y31973407D01*
X15406177Y31895651D01*
X15425231Y31868482D01*
X15495911Y31749673D01*
X15552855Y31624720D01*
X15595370Y31495812D01*
X15622760Y31365138D01*
X15634329Y31234886D01*
X15634683Y31208838D01*
X15626587Y31110045D01*
X15602785Y31015613D01*
X15564195Y30926669D01*
X15511734Y30844345D01*
X15446320Y30769770D01*
X15368868Y30704074D01*
X15280297Y30648385D01*
X15181523Y30603834D01*
X15129244Y30586282D01*
X15095701Y30576956D01*
X15064632Y30570381D01*
X15031425Y30565981D01*
X14991463Y30563179D01*
X14940133Y30561398D01*
X14927767Y30561106D01*
X14854744Y30560709D01*
X14796964Y30563189D01*
X14752973Y30568618D01*
X14745733Y30570057D01*
X14635059Y30601575D01*
X14533748Y30646349D01*
X14442638Y30703656D01*
X14362571Y30772767D01*
X14294385Y30852958D01*
X14238921Y30943504D01*
X14197018Y31043677D01*
X14196745Y31044500D01*
X14189934Y31076039D01*
X14185255Y31120469D01*
X14182693Y31173885D01*
X14182230Y31232380D01*
X14183851Y31292051D01*
X14187538Y31348990D01*
X14193276Y31399294D01*
X14198353Y31427771D01*
X14236840Y31567406D01*
X14290271Y31699483D01*
X14358827Y31824308D01*
X14442691Y31942189D01*
X14542043Y32053431D01*
X14605310Y32113657D01*
X14648269Y32149958D01*
X14698872Y32188978D01*
X14752631Y32227551D01*
X14805055Y32262510D01*
X14851659Y32290687D01*
X14870617Y32300861D01*
X14906600Y32319078D01*
X14940983Y32301537D01*
G36*
X10956217Y32297494D02*
G01*
X11082845Y32218588D01*
X11198297Y32129309D01*
X11301914Y32030697D01*
X11393035Y31923796D01*
X11471002Y31809648D01*
X11535157Y31689295D01*
X11584838Y31563779D01*
X11619389Y31434141D01*
X11638149Y31301425D01*
X11641563Y31213833D01*
X11639149Y31142043D01*
X11631337Y31081092D01*
X11616905Y31025410D01*
X11594633Y30969426D01*
X11582426Y30944041D01*
X11528781Y30855597D01*
X11461765Y30776369D01*
X11382868Y30707459D01*
X11293582Y30649969D01*
X11195398Y30605003D01*
X11089806Y30573661D01*
X11077907Y30571114D01*
X11027289Y30563768D01*
X10966164Y30559620D01*
X10900333Y30558660D01*
X10835597Y30560877D01*
X10777758Y30566261D01*
X10745365Y30571717D01*
X10642203Y30601528D01*
X10545757Y30644649D01*
X10457499Y30699762D01*
X10378904Y30765550D01*
X10311446Y30840695D01*
X10256599Y30923880D01*
X10215838Y31013788D01*
X10202180Y31057200D01*
X10193890Y31101585D01*
X10189066Y31157981D01*
X10187705Y31221823D01*
X10189799Y31288550D01*
X10195347Y31353597D01*
X10202531Y31402830D01*
X10235443Y31537844D01*
X10284139Y31668102D01*
X10347892Y31792607D01*
X10425973Y31910360D01*
X10517655Y32020363D01*
X10622210Y32121615D01*
X10738911Y32213119D01*
X10840695Y32278731D01*
X10913200Y32321405D01*
X10956217Y32297494D01*
X10956217Y32297494D01*
G37*
X10956217Y32297494D02*
X11082845Y32218588D01*
X11198297Y32129309D01*
X11301914Y32030697D01*
X11393035Y31923796D01*
X11471002Y31809648D01*
X11535157Y31689295D01*
X11584838Y31563779D01*
X11619389Y31434141D01*
X11638149Y31301425D01*
X11641563Y31213833D01*
X11639149Y31142043D01*
X11631337Y31081092D01*
X11616905Y31025410D01*
X11594633Y30969426D01*
X11582426Y30944041D01*
X11528781Y30855597D01*
X11461765Y30776369D01*
X11382868Y30707459D01*
X11293582Y30649969D01*
X11195398Y30605003D01*
X11089806Y30573661D01*
X11077907Y30571114D01*
X11027289Y30563768D01*
X10966164Y30559620D01*
X10900333Y30558660D01*
X10835597Y30560877D01*
X10777758Y30566261D01*
X10745365Y30571717D01*
X10642203Y30601528D01*
X10545757Y30644649D01*
X10457499Y30699762D01*
X10378904Y30765550D01*
X10311446Y30840695D01*
X10256599Y30923880D01*
X10215838Y31013788D01*
X10202180Y31057200D01*
X10193890Y31101585D01*
X10189066Y31157981D01*
X10187705Y31221823D01*
X10189799Y31288550D01*
X10195347Y31353597D01*
X10202531Y31402830D01*
X10235443Y31537844D01*
X10284139Y31668102D01*
X10347892Y31792607D01*
X10425973Y31910360D01*
X10517655Y32020363D01*
X10622210Y32121615D01*
X10738911Y32213119D01*
X10840695Y32278731D01*
X10913200Y32321405D01*
X10956217Y32297494D01*
G36*
X12974021Y31864543D02*
G01*
X13027871Y31861821D01*
X13075192Y31856250D01*
X13121158Y31847084D01*
X13170944Y31833574D01*
X13209033Y31821713D01*
X13315735Y31779191D01*
X13414890Y31723349D01*
X13504866Y31655600D01*
X13584030Y31577359D01*
X13650749Y31490040D01*
X13703390Y31395057D01*
X13704519Y31392582D01*
X13716269Y31363044D01*
X13730302Y31322198D01*
X13744945Y31275202D01*
X13758523Y31227211D01*
X13759881Y31222087D01*
X13790815Y31114137D01*
X13824032Y31018941D01*
X13861483Y30932322D01*
X13905121Y30850103D01*
X13956895Y30768109D01*
X14001068Y30705833D01*
X14052680Y30639395D01*
X14106328Y30577969D01*
X14165444Y30518020D01*
X14233460Y30456013D01*
X14290596Y30407505D01*
X14361931Y30345484D01*
X14420345Y30287944D01*
X14468245Y30232178D01*
X14508043Y30175479D01*
X14529245Y30139506D01*
X14574484Y30041054D01*
X14603384Y29940352D01*
X14616168Y29838686D01*
X14613058Y29737341D01*
X14594276Y29637602D01*
X14560043Y29540753D01*
X14510582Y29448079D01*
X14446115Y29360866D01*
X14383398Y29295434D01*
X14290281Y29219864D01*
X14188318Y29158559D01*
X14078237Y29111817D01*
X13960767Y29079938D01*
X13836638Y29063221D01*
X13813879Y29061857D01*
X13745325Y29060158D01*
X13682165Y29062606D01*
X13619478Y29069813D01*
X13552342Y29082394D01*
X13475836Y29100960D01*
X13454566Y29106637D01*
X13273653Y29148234D01*
X13096857Y29173739D01*
X12923038Y29183153D01*
X12751052Y29176480D01*
X12579756Y29153722D01*
X12408008Y29114882D01*
X12386866Y29109014D01*
X12252992Y29077834D01*
X12124876Y29061635D01*
X12003157Y29060464D01*
X11898014Y29072586D01*
X11804097Y29095250D01*
X11709124Y29128610D01*
X11619107Y29170254D01*
X11545333Y29214150D01*
X11512488Y29239249D01*
X11473374Y29273398D01*
X11432303Y29312426D01*
X11393589Y29352164D01*
X11361542Y29388439D01*
X11350133Y29402941D01*
X11294260Y29490280D01*
X11253948Y29582002D01*
X11228536Y29680013D01*
X11217366Y29786220D01*
X11217329Y29787200D01*
X11218101Y29876331D01*
X11228328Y29956180D01*
X11249157Y30032225D01*
X11281737Y30109939D01*
X11287486Y30121634D01*
X11313171Y30169523D01*
X11340605Y30212603D01*
X11372096Y30253541D01*
X11409955Y30295007D01*
X11456492Y30339668D01*
X11514016Y30390193D01*
X11536073Y30408834D01*
X11650474Y30511218D01*
X11749484Y30614208D01*
X11834561Y30720071D01*
X11907167Y30831076D01*
X11968759Y30949489D01*
X12020799Y31077580D01*
X12064746Y31217615D01*
X12070583Y31239233D01*
X12099812Y31335236D01*
X12133826Y31417989D01*
X12174580Y31490937D01*
X12224030Y31557525D01*
X12284133Y31621200D01*
X12291269Y31627978D01*
X12377869Y31700003D01*
X12471321Y31758947D01*
X12573989Y31806062D01*
X12688235Y31842600D01*
X12703511Y31846501D01*
X12738735Y31854326D01*
X12773559Y31859693D01*
X12812524Y31863015D01*
X12860168Y31864707D01*
X12908467Y31865166D01*
X12974021Y31864543D01*
X12974021Y31864543D01*
G37*
X12974021Y31864543D02*
X13027871Y31861821D01*
X13075192Y31856250D01*
X13121158Y31847084D01*
X13170944Y31833574D01*
X13209033Y31821713D01*
X13315735Y31779191D01*
X13414890Y31723349D01*
X13504866Y31655600D01*
X13584030Y31577359D01*
X13650749Y31490040D01*
X13703390Y31395057D01*
X13704519Y31392582D01*
X13716269Y31363044D01*
X13730302Y31322198D01*
X13744945Y31275202D01*
X13758523Y31227211D01*
X13759881Y31222087D01*
X13790815Y31114137D01*
X13824032Y31018941D01*
X13861483Y30932322D01*
X13905121Y30850103D01*
X13956895Y30768109D01*
X14001068Y30705833D01*
X14052680Y30639395D01*
X14106328Y30577969D01*
X14165444Y30518020D01*
X14233460Y30456013D01*
X14290596Y30407505D01*
X14361931Y30345484D01*
X14420345Y30287944D01*
X14468245Y30232178D01*
X14508043Y30175479D01*
X14529245Y30139506D01*
X14574484Y30041054D01*
X14603384Y29940352D01*
X14616168Y29838686D01*
X14613058Y29737341D01*
X14594276Y29637602D01*
X14560043Y29540753D01*
X14510582Y29448079D01*
X14446115Y29360866D01*
X14383398Y29295434D01*
X14290281Y29219864D01*
X14188318Y29158559D01*
X14078237Y29111817D01*
X13960767Y29079938D01*
X13836638Y29063221D01*
X13813879Y29061857D01*
X13745325Y29060158D01*
X13682165Y29062606D01*
X13619478Y29069813D01*
X13552342Y29082394D01*
X13475836Y29100960D01*
X13454566Y29106637D01*
X13273653Y29148234D01*
X13096857Y29173739D01*
X12923038Y29183153D01*
X12751052Y29176480D01*
X12579756Y29153722D01*
X12408008Y29114882D01*
X12386866Y29109014D01*
X12252992Y29077834D01*
X12124876Y29061635D01*
X12003157Y29060464D01*
X11898014Y29072586D01*
X11804097Y29095250D01*
X11709124Y29128610D01*
X11619107Y29170254D01*
X11545333Y29214150D01*
X11512488Y29239249D01*
X11473374Y29273398D01*
X11432303Y29312426D01*
X11393589Y29352164D01*
X11361542Y29388439D01*
X11350133Y29402941D01*
X11294260Y29490280D01*
X11253948Y29582002D01*
X11228536Y29680013D01*
X11217366Y29786220D01*
X11217329Y29787200D01*
X11218101Y29876331D01*
X11228328Y29956180D01*
X11249157Y30032225D01*
X11281737Y30109939D01*
X11287486Y30121634D01*
X11313171Y30169523D01*
X11340605Y30212603D01*
X11372096Y30253541D01*
X11409955Y30295007D01*
X11456492Y30339668D01*
X11514016Y30390193D01*
X11536073Y30408834D01*
X11650474Y30511218D01*
X11749484Y30614208D01*
X11834561Y30720071D01*
X11907167Y30831076D01*
X11968759Y30949489D01*
X12020799Y31077580D01*
X12064746Y31217615D01*
X12070583Y31239233D01*
X12099812Y31335236D01*
X12133826Y31417989D01*
X12174580Y31490937D01*
X12224030Y31557525D01*
X12284133Y31621200D01*
X12291269Y31627978D01*
X12377869Y31700003D01*
X12471321Y31758947D01*
X12573989Y31806062D01*
X12688235Y31842600D01*
X12703511Y31846501D01*
X12738735Y31854326D01*
X12773559Y31859693D01*
X12812524Y31863015D01*
X12860168Y31864707D01*
X12908467Y31865166D01*
X12974021Y31864543D01*
G36*
X10851067Y28652667D02*
G01*
X10690200Y28652667D01*
X10690200Y28779667D01*
X10851067Y28779667D01*
X10851067Y28652667D01*
X10851067Y28652667D01*
G37*
X10851067Y28652667D02*
X10690200Y28652667D01*
X10690200Y28779667D01*
X10851067Y28779667D01*
X10851067Y28652667D01*
G36*
X15753475Y28661368D02*
G01*
X15834744Y28643481D01*
X15911016Y28613760D01*
X15977976Y28573164D01*
X15979686Y28571872D01*
X16015606Y28544557D01*
X15961452Y28497012D01*
X15935777Y28475336D01*
X15914360Y28458839D01*
X15900708Y28450165D01*
X15898391Y28449467D01*
X15886365Y28453895D01*
X15866871Y28465000D01*
X15859126Y28470069D01*
X15806673Y28497912D01*
X15748789Y28512921D01*
X15681950Y28515961D01*
X15673854Y28515600D01*
X15606507Y28505467D01*
X15548108Y28481869D01*
X15495873Y28443556D01*
X15480706Y28428711D01*
X15448467Y28395256D01*
X15448467Y27992267D01*
X15287600Y27992267D01*
X15287600Y28534133D01*
X15317925Y28534133D01*
X15344841Y28538894D01*
X15372942Y28554827D01*
X15384022Y28563446D01*
X15432515Y28596213D01*
X15491901Y28625446D01*
X15556157Y28648427D01*
X15593196Y28657803D01*
X15671521Y28666462D01*
X15753475Y28661368D01*
X15753475Y28661368D01*
G37*
X15753475Y28661368D02*
X15834744Y28643481D01*
X15911016Y28613760D01*
X15977976Y28573164D01*
X15979686Y28571872D01*
X16015606Y28544557D01*
X15961452Y28497012D01*
X15935777Y28475336D01*
X15914360Y28458839D01*
X15900708Y28450165D01*
X15898391Y28449467D01*
X15886365Y28453895D01*
X15866871Y28465000D01*
X15859126Y28470069D01*
X15806673Y28497912D01*
X15748789Y28512921D01*
X15681950Y28515961D01*
X15673854Y28515600D01*
X15606507Y28505467D01*
X15548108Y28481869D01*
X15495873Y28443556D01*
X15480706Y28428711D01*
X15448467Y28395256D01*
X15448467Y27992267D01*
X15287600Y27992267D01*
X15287600Y28534133D01*
X15317925Y28534133D01*
X15344841Y28538894D01*
X15372942Y28554827D01*
X15384022Y28563446D01*
X15432515Y28596213D01*
X15491901Y28625446D01*
X15556157Y28648427D01*
X15593196Y28657803D01*
X15671521Y28666462D01*
X15753475Y28661368D01*
G36*
X11378628Y28664779D02*
G01*
X11467575Y28647819D01*
X11480072Y28644119D01*
X11543792Y28617948D01*
X11603730Y28581192D01*
X11655781Y28536917D01*
X11695844Y28488191D01*
X11702081Y28478141D01*
X11719456Y28446879D01*
X11732775Y28417933D01*
X11742562Y28388340D01*
X11749344Y28355135D01*
X11753646Y28315354D01*
X11755993Y28266034D01*
X11756912Y28204210D01*
X11757000Y28168435D01*
X11757000Y27991654D01*
X11591900Y27996500D01*
X11587666Y28178533D01*
X11585984Y28243661D01*
X11583902Y28294437D01*
X11580766Y28333443D01*
X11575920Y28363259D01*
X11568709Y28386466D01*
X11558478Y28405643D01*
X11544571Y28423372D01*
X11526333Y28442233D01*
X11518846Y28449541D01*
X11470719Y28484726D01*
X11412681Y28507522D01*
X11347305Y28516980D01*
X11335466Y28517193D01*
X11270017Y28510471D01*
X11212007Y28489480D01*
X11158032Y28452960D01*
X11154878Y28450275D01*
X11113533Y28414661D01*
X11113533Y27992267D01*
X10944200Y27992267D01*
X10944200Y28534133D01*
X10975168Y28534133D01*
X10999116Y28537762D01*
X11024805Y28550178D01*
X11050450Y28568322D01*
X11126273Y28616714D01*
X11206937Y28649043D01*
X11291402Y28665126D01*
X11378628Y28664779D01*
X11378628Y28664779D01*
G37*
X11378628Y28664779D02*
X11467575Y28647819D01*
X11480072Y28644119D01*
X11543792Y28617948D01*
X11603730Y28581192D01*
X11655781Y28536917D01*
X11695844Y28488191D01*
X11702081Y28478141D01*
X11719456Y28446879D01*
X11732775Y28417933D01*
X11742562Y28388340D01*
X11749344Y28355135D01*
X11753646Y28315354D01*
X11755993Y28266034D01*
X11756912Y28204210D01*
X11757000Y28168435D01*
X11757000Y27991654D01*
X11591900Y27996500D01*
X11587666Y28178533D01*
X11585984Y28243661D01*
X11583902Y28294437D01*
X11580766Y28333443D01*
X11575920Y28363259D01*
X11568709Y28386466D01*
X11558478Y28405643D01*
X11544571Y28423372D01*
X11526333Y28442233D01*
X11518846Y28449541D01*
X11470719Y28484726D01*
X11412681Y28507522D01*
X11347305Y28516980D01*
X11335466Y28517193D01*
X11270017Y28510471D01*
X11212007Y28489480D01*
X11158032Y28452960D01*
X11154878Y28450275D01*
X11113533Y28414661D01*
X11113533Y27992267D01*
X10944200Y27992267D01*
X10944200Y28534133D01*
X10975168Y28534133D01*
X10999116Y28537762D01*
X11024805Y28550178D01*
X11050450Y28568322D01*
X11126273Y28616714D01*
X11206937Y28649043D01*
X11291402Y28665126D01*
X11378628Y28664779D01*
G36*
X10851067Y27992267D02*
G01*
X10690200Y27992267D01*
X10690200Y28534133D01*
X10851067Y28534133D01*
X10851067Y27992267D01*
X10851067Y27992267D01*
G37*
X10851067Y27992267D02*
X10690200Y27992267D01*
X10690200Y28534133D01*
X10851067Y28534133D01*
X10851067Y27992267D01*
G36*
X14914803Y28653381D02*
G01*
X14996307Y28624254D01*
X15074053Y28579297D01*
X15090264Y28567512D01*
X15122720Y28545960D01*
X15149250Y28535707D01*
X15164470Y28534133D01*
X15194467Y28534133D01*
X15194467Y27992267D01*
X15122218Y27992267D01*
X15082533Y27991367D01*
X15053618Y27987911D01*
X15029372Y27980762D01*
X15008061Y27971030D01*
X14974335Y27956209D01*
X14935812Y27942459D01*
X14917663Y27937163D01*
X14870982Y27929045D01*
X14815861Y27925629D01*
X14758742Y27926818D01*
X14706066Y27932517D01*
X14669533Y27940856D01*
X14612574Y27962186D01*
X14564562Y27988473D01*
X14518283Y28023940D01*
X14500882Y28039560D01*
X14449085Y28097408D01*
X14412595Y28159438D01*
X14390792Y28224079D01*
X14383058Y28289756D01*
X14385893Y28322057D01*
X14546359Y28322057D01*
X14547045Y28271438D01*
X14560410Y28222052D01*
X14586213Y28176084D01*
X14624214Y28135718D01*
X14674171Y28103140D01*
X14720278Y28084844D01*
X14757750Y28078446D01*
X14803933Y28077706D01*
X14851718Y28082249D01*
X14893993Y28091700D01*
X14901953Y28094439D01*
X14948153Y28118576D01*
X14986937Y28150141D01*
X15025133Y28188337D01*
X15025133Y28410504D01*
X14982432Y28450594D01*
X14934197Y28487144D01*
X14880653Y28509985D01*
X14818568Y28520315D01*
X14792122Y28521210D01*
X14756492Y28520042D01*
X14727842Y28514925D01*
X14698064Y28503915D01*
X14675234Y28493154D01*
X14622791Y28459456D01*
X14583991Y28418251D01*
X14558594Y28371723D01*
X14546359Y28322057D01*
X14385893Y28322057D01*
X14388776Y28354897D01*
X14407325Y28417927D01*
X14438089Y28477275D01*
X14480448Y28531366D01*
X14533785Y28578627D01*
X14597479Y28617485D01*
X14670914Y28646366D01*
X14745834Y28662674D01*
X14830870Y28666310D01*
X14914803Y28653381D01*
X14914803Y28653381D01*
G37*
X14914803Y28653381D02*
X14996307Y28624254D01*
X15074053Y28579297D01*
X15090264Y28567512D01*
X15122720Y28545960D01*
X15149250Y28535707D01*
X15164470Y28534133D01*
X15194467Y28534133D01*
X15194467Y27992267D01*
X15122218Y27992267D01*
X15082533Y27991367D01*
X15053618Y27987911D01*
X15029372Y27980762D01*
X15008061Y27971030D01*
X14974335Y27956209D01*
X14935812Y27942459D01*
X14917663Y27937163D01*
X14870982Y27929045D01*
X14815861Y27925629D01*
X14758742Y27926818D01*
X14706066Y27932517D01*
X14669533Y27940856D01*
X14612574Y27962186D01*
X14564562Y27988473D01*
X14518283Y28023940D01*
X14500882Y28039560D01*
X14449085Y28097408D01*
X14412595Y28159438D01*
X14390792Y28224079D01*
X14383058Y28289756D01*
X14385893Y28322057D01*
X14546359Y28322057D01*
X14547045Y28271438D01*
X14560410Y28222052D01*
X14586213Y28176084D01*
X14624214Y28135718D01*
X14674171Y28103140D01*
X14720278Y28084844D01*
X14757750Y28078446D01*
X14803933Y28077706D01*
X14851718Y28082249D01*
X14893993Y28091700D01*
X14901953Y28094439D01*
X14948153Y28118576D01*
X14986937Y28150141D01*
X15025133Y28188337D01*
X15025133Y28410504D01*
X14982432Y28450594D01*
X14934197Y28487144D01*
X14880653Y28509985D01*
X14818568Y28520315D01*
X14792122Y28521210D01*
X14756492Y28520042D01*
X14727842Y28514925D01*
X14698064Y28503915D01*
X14675234Y28493154D01*
X14622791Y28459456D01*
X14583991Y28418251D01*
X14558594Y28371723D01*
X14546359Y28322057D01*
X14385893Y28322057D01*
X14388776Y28354897D01*
X14407325Y28417927D01*
X14438089Y28477275D01*
X14480448Y28531366D01*
X14533785Y28578627D01*
X14597479Y28617485D01*
X14670914Y28646366D01*
X14745834Y28662674D01*
X14830870Y28666310D01*
X14914803Y28653381D01*
G36*
X14059314Y28659683D02*
G01*
X14138159Y28645521D01*
X14215663Y28616897D01*
X14227208Y28611232D01*
X14254030Y28595991D01*
X14281814Y28577602D01*
X14307327Y28558590D01*
X14327333Y28541482D01*
X14338598Y28528801D01*
X14339333Y28523687D01*
X14330899Y28517430D01*
X14312121Y28503963D01*
X14286518Y28485801D01*
X14276838Y28478972D01*
X14248268Y28459139D01*
X14229670Y28447862D01*
X14217228Y28443863D01*
X14207129Y28445866D01*
X14196405Y28452054D01*
X14145559Y28481584D01*
X14101051Y28500327D01*
X14057796Y28509998D01*
X14017600Y28512368D01*
X13950468Y28505127D01*
X13890590Y28484089D01*
X13839766Y28450281D01*
X13799793Y28404728D01*
X13785425Y28379872D01*
X13767250Y28326223D01*
X13764596Y28272474D01*
X13776199Y28220747D01*
X13800793Y28173165D01*
X13837113Y28131848D01*
X13883892Y28098917D01*
X13939866Y28076494D01*
X13970269Y28069986D01*
X14031340Y28067317D01*
X14091903Y28077226D01*
X14147305Y28098467D01*
X14192656Y28129575D01*
X14211078Y28146439D01*
X14275206Y28101666D01*
X14303258Y28081377D01*
X14325081Y28064256D01*
X14337565Y28052811D01*
X14339333Y28049962D01*
X14332458Y28039965D01*
X14314223Y28024394D01*
X14288212Y28005637D01*
X14258009Y27986081D01*
X14227200Y27968115D01*
X14199367Y27954126D01*
X14189121Y27949895D01*
X14109499Y27926293D01*
X14032951Y27917210D01*
X13954496Y27922271D01*
X13916000Y27929331D01*
X13842265Y27952475D01*
X13775508Y27987428D01*
X13717133Y28032337D01*
X13668540Y28085349D01*
X13631131Y28144612D01*
X13606307Y28208273D01*
X13595471Y28274478D01*
X13600025Y28341375D01*
X13600912Y28345824D01*
X13624295Y28419313D01*
X13661046Y28484573D01*
X13709326Y28540824D01*
X13767297Y28587288D01*
X13833119Y28623185D01*
X13904956Y28647736D01*
X13980967Y28660161D01*
X14059314Y28659683D01*
X14059314Y28659683D01*
G37*
X14059314Y28659683D02*
X14138159Y28645521D01*
X14215663Y28616897D01*
X14227208Y28611232D01*
X14254030Y28595991D01*
X14281814Y28577602D01*
X14307327Y28558590D01*
X14327333Y28541482D01*
X14338598Y28528801D01*
X14339333Y28523687D01*
X14330899Y28517430D01*
X14312121Y28503963D01*
X14286518Y28485801D01*
X14276838Y28478972D01*
X14248268Y28459139D01*
X14229670Y28447862D01*
X14217228Y28443863D01*
X14207129Y28445866D01*
X14196405Y28452054D01*
X14145559Y28481584D01*
X14101051Y28500327D01*
X14057796Y28509998D01*
X14017600Y28512368D01*
X13950468Y28505127D01*
X13890590Y28484089D01*
X13839766Y28450281D01*
X13799793Y28404728D01*
X13785425Y28379872D01*
X13767250Y28326223D01*
X13764596Y28272474D01*
X13776199Y28220747D01*
X13800793Y28173165D01*
X13837113Y28131848D01*
X13883892Y28098917D01*
X13939866Y28076494D01*
X13970269Y28069986D01*
X14031340Y28067317D01*
X14091903Y28077226D01*
X14147305Y28098467D01*
X14192656Y28129575D01*
X14211078Y28146439D01*
X14275206Y28101666D01*
X14303258Y28081377D01*
X14325081Y28064256D01*
X14337565Y28052811D01*
X14339333Y28049962D01*
X14332458Y28039965D01*
X14314223Y28024394D01*
X14288212Y28005637D01*
X14258009Y27986081D01*
X14227200Y27968115D01*
X14199367Y27954126D01*
X14189121Y27949895D01*
X14109499Y27926293D01*
X14032951Y27917210D01*
X13954496Y27922271D01*
X13916000Y27929331D01*
X13842265Y27952475D01*
X13775508Y27987428D01*
X13717133Y28032337D01*
X13668540Y28085349D01*
X13631131Y28144612D01*
X13606307Y28208273D01*
X13595471Y28274478D01*
X13600025Y28341375D01*
X13600912Y28345824D01*
X13624295Y28419313D01*
X13661046Y28484573D01*
X13709326Y28540824D01*
X13767297Y28587288D01*
X13833119Y28623185D01*
X13904956Y28647736D01*
X13980967Y28660161D01*
X14059314Y28659683D01*
G36*
X13197116Y28654098D02*
G01*
X13271325Y28634003D01*
X13338979Y28602362D01*
X13398723Y28560690D01*
X13449207Y28510502D01*
X13489078Y28453313D01*
X13516985Y28390638D01*
X13531574Y28323991D01*
X13531495Y28254887D01*
X13522475Y28207645D01*
X13494503Y28135687D01*
X13452487Y28071729D01*
X13397968Y28017147D01*
X13332484Y27973317D01*
X13257577Y27941612D01*
X13211006Y27929443D01*
X13146560Y27919283D01*
X13089062Y27917878D01*
X13030982Y27925197D01*
X13014300Y27928648D01*
X12937321Y27952834D01*
X12868868Y27988496D01*
X12810022Y28033955D01*
X12761865Y28087532D01*
X12725479Y28147549D01*
X12701946Y28212327D01*
X12694021Y28268365D01*
X12860301Y28268365D01*
X12873975Y28215201D01*
X12882295Y28196979D01*
X12905710Y28162923D01*
X12938978Y28128992D01*
X12975955Y28100864D01*
X13000418Y28087809D01*
X13062334Y28069771D01*
X13127651Y28066622D01*
X13197710Y28077921D01*
X13238062Y28094380D01*
X13279363Y28121879D01*
X13315727Y28155963D01*
X13335689Y28182309D01*
X13358186Y28233333D01*
X13365504Y28286675D01*
X13358672Y28339745D01*
X13338719Y28389956D01*
X13306672Y28434717D01*
X13263561Y28471440D01*
X13210477Y28497514D01*
X13148708Y28511802D01*
X13088919Y28512734D01*
X13032712Y28501773D01*
X12981687Y28480387D01*
X12937443Y28450041D01*
X12901583Y28412200D01*
X12875705Y28368330D01*
X12861411Y28319896D01*
X12860301Y28268365D01*
X12694021Y28268365D01*
X12692349Y28280186D01*
X12697769Y28349449D01*
X12711367Y28398667D01*
X12745508Y28468610D01*
X12792871Y28529444D01*
X12851757Y28580074D01*
X12920472Y28619403D01*
X12997318Y28646335D01*
X13080599Y28659775D01*
X13117702Y28661133D01*
X13197116Y28654098D01*
X13197116Y28654098D01*
G37*
X13197116Y28654098D02*
X13271325Y28634003D01*
X13338979Y28602362D01*
X13398723Y28560690D01*
X13449207Y28510502D01*
X13489078Y28453313D01*
X13516985Y28390638D01*
X13531574Y28323991D01*
X13531495Y28254887D01*
X13522475Y28207645D01*
X13494503Y28135687D01*
X13452487Y28071729D01*
X13397968Y28017147D01*
X13332484Y27973317D01*
X13257577Y27941612D01*
X13211006Y27929443D01*
X13146560Y27919283D01*
X13089062Y27917878D01*
X13030982Y27925197D01*
X13014300Y27928648D01*
X12937321Y27952834D01*
X12868868Y27988496D01*
X12810022Y28033955D01*
X12761865Y28087532D01*
X12725479Y28147549D01*
X12701946Y28212327D01*
X12694021Y28268365D01*
X12860301Y28268365D01*
X12873975Y28215201D01*
X12882295Y28196979D01*
X12905710Y28162923D01*
X12938978Y28128992D01*
X12975955Y28100864D01*
X13000418Y28087809D01*
X13062334Y28069771D01*
X13127651Y28066622D01*
X13197710Y28077921D01*
X13238062Y28094380D01*
X13279363Y28121879D01*
X13315727Y28155963D01*
X13335689Y28182309D01*
X13358186Y28233333D01*
X13365504Y28286675D01*
X13358672Y28339745D01*
X13338719Y28389956D01*
X13306672Y28434717D01*
X13263561Y28471440D01*
X13210477Y28497514D01*
X13148708Y28511802D01*
X13088919Y28512734D01*
X13032712Y28501773D01*
X12981687Y28480387D01*
X12937443Y28450041D01*
X12901583Y28412200D01*
X12875705Y28368330D01*
X12861411Y28319896D01*
X12860301Y28268365D01*
X12694021Y28268365D01*
X12692349Y28280186D01*
X12697769Y28349449D01*
X12711367Y28398667D01*
X12745508Y28468610D01*
X12792871Y28529444D01*
X12851757Y28580074D01*
X12920472Y28619403D01*
X12997318Y28646335D01*
X13080599Y28659775D01*
X13117702Y28661133D01*
X13197116Y28654098D01*
G36*
X10597067Y28026133D02*
G01*
X10549602Y28026133D01*
X10518018Y28024405D01*
X10495123Y28017559D01*
X10472874Y28003102D01*
X10471285Y28001860D01*
X10409575Y27963435D01*
X10338025Y27936196D01*
X10260153Y27920923D01*
X10179478Y27918395D01*
X10122933Y27924676D01*
X10045183Y27945532D01*
X9974893Y27978860D01*
X9913507Y28023002D01*
X9862470Y28076302D01*
X9823227Y28137102D01*
X9797222Y28203746D01*
X9787054Y28267362D01*
X9954373Y28267362D01*
X9966999Y28215191D01*
X9992763Y28167728D01*
X10030422Y28127038D01*
X10078733Y28095189D01*
X10136452Y28074246D01*
X10158637Y28069877D01*
X10208054Y28065616D01*
X10254260Y28070209D01*
X10304247Y28084001D01*
X10333903Y28097844D01*
X10366504Y28118670D01*
X10386797Y28134868D01*
X10427733Y28171636D01*
X10427733Y28406569D01*
X10398731Y28435571D01*
X10349934Y28473016D01*
X10292019Y28498928D01*
X10229339Y28512033D01*
X10166249Y28511057D01*
X10150222Y28508320D01*
X10085696Y28487927D01*
X10033339Y28455800D01*
X9993012Y28411837D01*
X9973508Y28377562D01*
X9956128Y28322174D01*
X9954373Y28267362D01*
X9787054Y28267362D01*
X9785900Y28274576D01*
X9786187Y28310897D01*
X9799010Y28383225D01*
X9827158Y28450326D01*
X9869496Y28510952D01*
X9924892Y28563861D01*
X9992213Y28607807D01*
X10070323Y28641545D01*
X10094124Y28649037D01*
X10126628Y28656445D01*
X10162477Y28659940D01*
X10207260Y28659940D01*
X10228169Y28659093D01*
X10269793Y28656403D01*
X10303276Y28652004D01*
X10334488Y28644487D01*
X10369301Y28632443D01*
X10412917Y28614744D01*
X10417740Y28613693D01*
X10421388Y28616455D01*
X10424025Y28625016D01*
X10425813Y28641363D01*
X10426915Y28667482D01*
X10427492Y28705360D01*
X10427709Y28756983D01*
X10427733Y28795694D01*
X10427733Y28982867D01*
X10597067Y28982867D01*
X10597067Y28026133D01*
X10597067Y28026133D01*
G37*
X10597067Y28026133D02*
X10549602Y28026133D01*
X10518018Y28024405D01*
X10495123Y28017559D01*
X10472874Y28003102D01*
X10471285Y28001860D01*
X10409575Y27963435D01*
X10338025Y27936196D01*
X10260153Y27920923D01*
X10179478Y27918395D01*
X10122933Y27924676D01*
X10045183Y27945532D01*
X9974893Y27978860D01*
X9913507Y28023002D01*
X9862470Y28076302D01*
X9823227Y28137102D01*
X9797222Y28203746D01*
X9787054Y28267362D01*
X9954373Y28267362D01*
X9966999Y28215191D01*
X9992763Y28167728D01*
X10030422Y28127038D01*
X10078733Y28095189D01*
X10136452Y28074246D01*
X10158637Y28069877D01*
X10208054Y28065616D01*
X10254260Y28070209D01*
X10304247Y28084001D01*
X10333903Y28097844D01*
X10366504Y28118670D01*
X10386797Y28134868D01*
X10427733Y28171636D01*
X10427733Y28406569D01*
X10398731Y28435571D01*
X10349934Y28473016D01*
X10292019Y28498928D01*
X10229339Y28512033D01*
X10166249Y28511057D01*
X10150222Y28508320D01*
X10085696Y28487927D01*
X10033339Y28455800D01*
X9993012Y28411837D01*
X9973508Y28377562D01*
X9956128Y28322174D01*
X9954373Y28267362D01*
X9787054Y28267362D01*
X9785900Y28274576D01*
X9786187Y28310897D01*
X9799010Y28383225D01*
X9827158Y28450326D01*
X9869496Y28510952D01*
X9924892Y28563861D01*
X9992213Y28607807D01*
X10070323Y28641545D01*
X10094124Y28649037D01*
X10126628Y28656445D01*
X10162477Y28659940D01*
X10207260Y28659940D01*
X10228169Y28659093D01*
X10269793Y28656403D01*
X10303276Y28652004D01*
X10334488Y28644487D01*
X10369301Y28632443D01*
X10412917Y28614744D01*
X10417740Y28613693D01*
X10421388Y28616455D01*
X10424025Y28625016D01*
X10425813Y28641363D01*
X10426915Y28667482D01*
X10427492Y28705360D01*
X10427709Y28756983D01*
X10427733Y28795694D01*
X10427733Y28982867D01*
X10597067Y28982867D01*
X10597067Y28026133D01*
G36*
X12327345Y28657043D02*
G01*
X12406838Y28636368D01*
X12480397Y28601039D01*
X12512669Y28579821D01*
X12542418Y28561334D01*
X12568580Y28552727D01*
X12590986Y28551067D01*
X12629067Y28551067D01*
X12629067Y28175837D01*
X12629013Y28079986D01*
X12628732Y27999400D01*
X12628046Y27932408D01*
X12626775Y27877342D01*
X12624742Y27832533D01*
X12621766Y27796312D01*
X12617669Y27767009D01*
X12612272Y27742955D01*
X12605397Y27722482D01*
X12596864Y27703920D01*
X12586496Y27685599D01*
X12574490Y27666443D01*
X12526442Y27606554D01*
X12466691Y27556855D01*
X12397693Y27518254D01*
X12321909Y27491658D01*
X12241795Y27477973D01*
X12159810Y27478108D01*
X12093635Y27488990D01*
X12023437Y27512999D01*
X11957809Y27548787D01*
X11900927Y27593688D01*
X11863249Y27636100D01*
X11847192Y27659257D01*
X11836288Y27677433D01*
X11833200Y27685263D01*
X11840482Y27691990D01*
X11859962Y27703027D01*
X11888092Y27716457D01*
X11902668Y27722788D01*
X11972136Y27752086D01*
X12019085Y27704184D01*
X12064979Y27665103D01*
X12113790Y27640193D01*
X12169513Y27627864D01*
X12215955Y27625884D01*
X12280394Y27634258D01*
X12338922Y27656663D01*
X12389064Y27691639D01*
X12428345Y27737726D01*
X12439981Y27757991D01*
X12450731Y27782206D01*
X12457952Y27807484D01*
X12462646Y27838846D01*
X12465817Y27881311D01*
X12466252Y27889522D01*
X12468100Y27928894D01*
X12468548Y27954124D01*
X12467207Y27967973D01*
X12463685Y27973201D01*
X12457593Y27972571D01*
X12454671Y27971430D01*
X12362551Y27940703D01*
X12272729Y27925800D01*
X12186200Y27926600D01*
X12103960Y27942978D01*
X12027002Y27974811D01*
X11956322Y28021976D01*
X11940743Y28035259D01*
X11891322Y28089137D01*
X11853538Y28150941D01*
X11828746Y28217430D01*
X11819572Y28277094D01*
X11983068Y28277094D01*
X11995025Y28226919D01*
X12019879Y28179999D01*
X12057507Y28138549D01*
X12107784Y28104785D01*
X12143949Y28089145D01*
X12169026Y28083259D01*
X12203425Y28078993D01*
X12238389Y28077305D01*
X12276621Y28078431D01*
X12306694Y28083600D01*
X12337245Y28094693D01*
X12354378Y28102562D01*
X12389755Y28122650D01*
X12420308Y28145736D01*
X12433905Y28159524D01*
X12459733Y28190858D01*
X12459733Y28413444D01*
X12421377Y28448799D01*
X12375864Y28484419D01*
X12328924Y28506855D01*
X12275445Y28518073D01*
X12235367Y28520272D01*
X12195846Y28519581D01*
X12166047Y28515609D01*
X12138872Y28507054D01*
X12121067Y28499268D01*
X12066684Y28466044D01*
X12025816Y28425000D01*
X11998340Y28378350D01*
X11984132Y28328310D01*
X11983068Y28277094D01*
X11819572Y28277094D01*
X11818299Y28285366D01*
X11819500Y28325678D01*
X11834118Y28390024D01*
X11863086Y28453581D01*
X11904021Y28512967D01*
X11954540Y28564796D01*
X12012259Y28605687D01*
X12019525Y28609682D01*
X12077015Y28636802D01*
X12131028Y28653679D01*
X12188617Y28662044D01*
X12239600Y28663776D01*
X12327345Y28657043D01*
X12327345Y28657043D01*
G37*
X12327345Y28657043D02*
X12406838Y28636368D01*
X12480397Y28601039D01*
X12512669Y28579821D01*
X12542418Y28561334D01*
X12568580Y28552727D01*
X12590986Y28551067D01*
X12629067Y28551067D01*
X12629067Y28175837D01*
X12629013Y28079986D01*
X12628732Y27999400D01*
X12628046Y27932408D01*
X12626775Y27877342D01*
X12624742Y27832533D01*
X12621766Y27796312D01*
X12617669Y27767009D01*
X12612272Y27742955D01*
X12605397Y27722482D01*
X12596864Y27703920D01*
X12586496Y27685599D01*
X12574490Y27666443D01*
X12526442Y27606554D01*
X12466691Y27556855D01*
X12397693Y27518254D01*
X12321909Y27491658D01*
X12241795Y27477973D01*
X12159810Y27478108D01*
X12093635Y27488990D01*
X12023437Y27512999D01*
X11957809Y27548787D01*
X11900927Y27593688D01*
X11863249Y27636100D01*
X11847192Y27659257D01*
X11836288Y27677433D01*
X11833200Y27685263D01*
X11840482Y27691990D01*
X11859962Y27703027D01*
X11888092Y27716457D01*
X11902668Y27722788D01*
X11972136Y27752086D01*
X12019085Y27704184D01*
X12064979Y27665103D01*
X12113790Y27640193D01*
X12169513Y27627864D01*
X12215955Y27625884D01*
X12280394Y27634258D01*
X12338922Y27656663D01*
X12389064Y27691639D01*
X12428345Y27737726D01*
X12439981Y27757991D01*
X12450731Y27782206D01*
X12457952Y27807484D01*
X12462646Y27838846D01*
X12465817Y27881311D01*
X12466252Y27889522D01*
X12468100Y27928894D01*
X12468548Y27954124D01*
X12467207Y27967973D01*
X12463685Y27973201D01*
X12457593Y27972571D01*
X12454671Y27971430D01*
X12362551Y27940703D01*
X12272729Y27925800D01*
X12186200Y27926600D01*
X12103960Y27942978D01*
X12027002Y27974811D01*
X11956322Y28021976D01*
X11940743Y28035259D01*
X11891322Y28089137D01*
X11853538Y28150941D01*
X11828746Y28217430D01*
X11819572Y28277094D01*
X11983068Y28277094D01*
X11995025Y28226919D01*
X12019879Y28179999D01*
X12057507Y28138549D01*
X12107784Y28104785D01*
X12143949Y28089145D01*
X12169026Y28083259D01*
X12203425Y28078993D01*
X12238389Y28077305D01*
X12276621Y28078431D01*
X12306694Y28083600D01*
X12337245Y28094693D01*
X12354378Y28102562D01*
X12389755Y28122650D01*
X12420308Y28145736D01*
X12433905Y28159524D01*
X12459733Y28190858D01*
X12459733Y28413444D01*
X12421377Y28448799D01*
X12375864Y28484419D01*
X12328924Y28506855D01*
X12275445Y28518073D01*
X12235367Y28520272D01*
X12195846Y28519581D01*
X12166047Y28515609D01*
X12138872Y28507054D01*
X12121067Y28499268D01*
X12066684Y28466044D01*
X12025816Y28425000D01*
X11998340Y28378350D01*
X11984132Y28328310D01*
X11983068Y28277094D01*
X11819572Y28277094D01*
X11818299Y28285366D01*
X11819500Y28325678D01*
X11834118Y28390024D01*
X11863086Y28453581D01*
X11904021Y28512967D01*
X11954540Y28564796D01*
X12012259Y28605687D01*
X12019525Y28609682D01*
X12077015Y28636802D01*
X12131028Y28653679D01*
X12188617Y28662044D01*
X12239600Y28663776D01*
X12327345Y28657043D01*
D16*
X61400000Y23180000D02*
X60400000Y23180000D01*
X61400000Y19820000D02*
X60400000Y19820000D01*
X42920000Y16400000D02*
X42920000Y15400000D01*
X46280000Y16400000D02*
X46280000Y15400000D01*
X56580000Y34774000D02*
X56580000Y36104000D01*
X57910000Y34774000D02*
X56580000Y34774000D01*
X59180000Y34774000D02*
X59180000Y37434000D01*
X59180000Y37434000D02*
X64320000Y37434000D01*
X59180000Y34774000D02*
X64320000Y34774000D01*
X64320000Y34774000D02*
X64320000Y37434000D01*
X56580000Y37314000D02*
X56580000Y38644000D01*
X57910000Y37314000D02*
X56580000Y37314000D01*
X59180000Y37314000D02*
X59180000Y39974000D01*
X59180000Y39974000D02*
X64320000Y39974000D01*
X59180000Y37314000D02*
X64320000Y37314000D01*
X64320000Y37314000D02*
X64320000Y39974000D01*
X56580000Y39854000D02*
X56580000Y41184000D01*
X57910000Y39854000D02*
X56580000Y39854000D01*
X59180000Y39854000D02*
X59180000Y42514000D01*
X59180000Y42514000D02*
X64320000Y42514000D01*
X59180000Y39854000D02*
X64320000Y39854000D01*
X64320000Y39854000D02*
X64320000Y42514000D01*
X56580000Y42394000D02*
X56580000Y43724000D01*
X57910000Y42394000D02*
X56580000Y42394000D01*
X59180000Y42394000D02*
X59180000Y45054000D01*
X59180000Y45054000D02*
X64320000Y45054000D01*
X59180000Y42394000D02*
X64320000Y42394000D01*
X64320000Y42394000D02*
X64320000Y45054000D01*
D17*
X9150000Y42600000D02*
X9150000Y38400000D01*
X4750000Y47000000D02*
G75*
G02X9150000Y42600000I0J-4400000D01*
G01*
X350000Y42600000D02*
G75*
G02X4750000Y47000000I4400000J0D01*
G01*
X350000Y31400000D02*
X350000Y42600000D01*
X4750000Y27000000D02*
G75*
G02X350000Y31400000I0J4400000D01*
G01*
X9150000Y31400000D02*
G75*
G02X4750000Y27000000I-4400000J0D01*
G01*
X9150000Y33200000D02*
X9150000Y31400000D01*
D18*
X11910000Y35070000D02*
G75*
G03X11910000Y35070000I-190000J0D01*
G01*
D19*
X18580000Y6540000D02*
X18580000Y32540000D01*
X43780000Y6540000D02*
X18580000Y6540000D01*
X43780000Y32540000D02*
X18580000Y32540000D01*
X43780000Y6540000D02*
X43780000Y32540000D01*
D16*
X2810000Y9980000D02*
X2810000Y9380000D01*
X3810000Y7180000D02*
X6910000Y7180000D01*
X8210000Y9380000D02*
X8210000Y9980000D01*
X6810000Y12180000D02*
X3810000Y12180000D01*
X2810000Y16180000D02*
X2810000Y15580000D01*
X3810000Y13380000D02*
X6910000Y13380000D01*
X8210000Y15580000D02*
X8210000Y16180000D01*
X6810000Y18380000D02*
X3810000Y18380000D01*
X10770000Y47387733D02*
X10770000Y47730267D01*
X9750000Y47387733D02*
X9750000Y47730267D01*
X14322000Y47730267D02*
X14322000Y47387733D01*
X15342000Y47730267D02*
X15342000Y47387733D01*
X8226000Y47730267D02*
X8226000Y47387733D01*
X9246000Y47730267D02*
X9246000Y47387733D01*
X17370000Y47730267D02*
X17370000Y47387733D01*
X18390000Y47730267D02*
X18390000Y47387733D01*
X12798000Y47730267D02*
X12798000Y47387733D01*
X13818000Y47730267D02*
X13818000Y47387733D01*
X16866000Y47387733D02*
X16866000Y47730267D01*
X15846000Y47387733D02*
X15846000Y47730267D01*
X17158000Y26924000D02*
X18158000Y26924000D01*
X18158000Y25564000D02*
X17158000Y25564000D01*
X2190000Y21930000D02*
X3190000Y21930000D01*
X3190000Y20570000D02*
X2190000Y20570000D01*
X6270000Y21930000D02*
X7270000Y21930000D01*
X7270000Y20570000D02*
X6270000Y20570000D01*
X12260000Y22710000D02*
X12260000Y25370000D01*
X4580000Y22710000D02*
X12260000Y22710000D01*
X4580000Y25370000D02*
X12260000Y25370000D01*
X4580000Y22710000D02*
X4580000Y25370000D01*
X3310000Y22710000D02*
X1980000Y22710000D01*
X1980000Y22710000D02*
X1980000Y24040000D01*
D19*
X48640000Y10700280D02*
X38640000Y10700280D01*
X10640000Y22700280D02*
X15720000Y22700280D01*
X10640000Y10700280D02*
X10640000Y22700280D01*
X48640000Y22700280D02*
X48640000Y10700280D01*
X15720000Y22700280D02*
X38640000Y22700280D01*
X38640000Y22700280D02*
X48640000Y22700280D01*
X15720000Y10700280D02*
X10640000Y10700280D01*
X38640000Y10700280D02*
X15720000Y10700280D01*
D16*
X17025000Y30364000D02*
X17025000Y29434000D01*
X17025000Y27204000D02*
X17025000Y28134000D01*
X17025000Y27204000D02*
X19185000Y27204000D01*
X17025000Y30364000D02*
X18485000Y30364000D01*
D20*
X25701300Y27519000D02*
G75*
G03X25701300Y27519000I-76200J0D01*
G01*
X21844500Y27084659D02*
X21844500Y26893400D01*
X25095700Y29953341D02*
X25095700Y30144600D01*
X25095700Y26893400D02*
X25095700Y27084659D01*
X21844500Y26893400D02*
X25095700Y26893400D01*
X21844500Y30144600D02*
X21844500Y29953341D01*
X25095700Y30144600D02*
X21844500Y30144600D01*
D16*
X50532000Y44622000D02*
X50532000Y42622000D01*
X50532000Y42622000D02*
X54382000Y42622000D01*
X50532000Y44622000D02*
X54382000Y44622000D01*
X50141267Y9440000D02*
X49798733Y9440000D01*
X50141267Y8420000D02*
X49798733Y8420000D01*
X16231267Y36910000D02*
X15888733Y36910000D01*
X16231267Y35890000D02*
X15888733Y35890000D01*
X53666000Y24171267D02*
X53666000Y23828733D01*
X54686000Y24171267D02*
X54686000Y23828733D01*
X53162000Y23828733D02*
X53162000Y24171267D01*
X52142000Y23828733D02*
X52142000Y24171267D01*
X51638000Y23828733D02*
X51638000Y24171267D01*
X50618000Y23828733D02*
X50618000Y24171267D01*
X46852000Y24367733D02*
X46852000Y24710267D01*
X45832000Y24367733D02*
X45832000Y24710267D01*
X12294000Y47387733D02*
X12294000Y47730267D01*
X11274000Y47387733D02*
X11274000Y47730267D01*
X17140000Y32188733D02*
X17140000Y32531267D01*
X16120000Y32188733D02*
X16120000Y32531267D01*
X20048733Y32130000D02*
X20391267Y32130000D01*
X20048733Y33150000D02*
X20391267Y33150000D01*
X63398000Y18139267D02*
X63398000Y17796733D01*
X64418000Y18139267D02*
X64418000Y17796733D01*
X28199733Y38823000D02*
X28542267Y38823000D01*
X28199733Y39843000D02*
X28542267Y39843000D01*
X31922267Y39833000D02*
X31579733Y39833000D01*
X31922267Y38813000D02*
X31579733Y38813000D01*
X34801267Y15270000D02*
X34458733Y15270000D01*
X34801267Y14250000D02*
X34458733Y14250000D01*
X34791267Y17860000D02*
X34448733Y17860000D01*
X34791267Y16840000D02*
X34448733Y16840000D01*
X23180000Y10121267D02*
X23180000Y9778733D01*
X24200000Y10121267D02*
X24200000Y9778733D01*
X21680000Y10115267D02*
X21680000Y9772733D01*
X22700000Y10115267D02*
X22700000Y9772733D01*
X60938733Y6850000D02*
X61281267Y6850000D01*
X60938733Y7870000D02*
X61281267Y7870000D01*
X15788733Y8374000D02*
X16131267Y8374000D01*
X15788733Y9394000D02*
X16131267Y9394000D01*
X47734733Y45906000D02*
X48077267Y45906000D01*
X47734733Y46926000D02*
X48077267Y46926000D01*
X33440000Y46962733D02*
X33440000Y47305267D01*
X32420000Y46962733D02*
X32420000Y47305267D01*
X52027936Y45314000D02*
X53232064Y45314000D01*
X52027936Y47134000D02*
X53232064Y47134000D01*
X33860000Y51381936D02*
X33860000Y52586064D01*
X32040000Y51381936D02*
X32040000Y52586064D01*
X18580000Y33505000D02*
X21040000Y33505000D01*
X18580000Y34975000D02*
X18580000Y33505000D01*
X21040000Y34975000D02*
X18580000Y34975000D01*
X35185000Y27587064D02*
X35185000Y26382936D01*
X37005000Y27587064D02*
X37005000Y26382936D01*
X45871267Y21010000D02*
X45528733Y21010000D01*
X45871267Y19990000D02*
X45528733Y19990000D01*
X35611267Y33954000D02*
X35268733Y33954000D01*
X35611267Y32934000D02*
X35268733Y32934000D01*
X49094000Y24171267D02*
X49094000Y23828733D01*
X50114000Y24171267D02*
X50114000Y23828733D01*
X45328000Y24367733D02*
X45328000Y24710267D01*
X44308000Y24367733D02*
X44308000Y24710267D01*
X52228733Y35590000D02*
X52571267Y35590000D01*
X52228733Y36610000D02*
X52571267Y36610000D01*
X52228733Y37103000D02*
X52571267Y37103000D01*
X52228733Y38123000D02*
X52571267Y38123000D01*
X51697936Y38648000D02*
X52902064Y38648000D01*
X51697936Y40468000D02*
X52902064Y40468000D01*
X31602064Y43410000D02*
X30397936Y43410000D01*
X31602064Y41590000D02*
X30397936Y41590000D01*
X53706000Y30933267D02*
X53706000Y30590733D01*
X54726000Y30933267D02*
X54726000Y30590733D01*
X14751267Y39614000D02*
X14408733Y39614000D01*
X14751267Y38594000D02*
X14408733Y38594000D01*
X27957000Y29291733D02*
X27957000Y29634267D01*
X26937000Y29291733D02*
X26937000Y29634267D01*
X23728267Y26073000D02*
X23385733Y26073000D01*
X23728267Y25053000D02*
X23385733Y25053000D01*
X20180000Y10115267D02*
X20180000Y9772733D01*
X21200000Y10115267D02*
X21200000Y9772733D01*
X18680000Y10115267D02*
X18680000Y9772733D01*
X19700000Y10115267D02*
X19700000Y9772733D01*
X31371000Y36894267D02*
X31371000Y36551733D01*
X32391000Y36894267D02*
X32391000Y36551733D01*
X60070000Y8744000D02*
X62730000Y8744000D01*
X60070000Y13884000D02*
X60070000Y8744000D01*
X62730000Y13884000D02*
X62730000Y8744000D01*
X60070000Y13884000D02*
X62730000Y13884000D01*
X60070000Y15154000D02*
X60070000Y16484000D01*
X60070000Y16484000D02*
X61400000Y16484000D01*
D12*
X31660000Y47650000D02*
X31660000Y55460000D01*
X21500000Y47650000D02*
X31660000Y47650000D01*
X21500000Y55460000D02*
X21500000Y47650000D01*
X44363000Y47650000D02*
X44363000Y55460000D01*
X34203000Y47650000D02*
X44363000Y47650000D01*
X34203000Y55460000D02*
X34203000Y47650000D01*
X57066000Y47650000D02*
X57066000Y55460000D01*
X46906000Y47650000D02*
X57066000Y47650000D01*
X46906000Y55460000D02*
X46906000Y47650000D01*
X57961000Y16095000D02*
X57736000Y16095000D01*
X57961000Y11445000D02*
X57636000Y11445000D01*
X48011000Y11445000D02*
X48336000Y11445000D01*
X48011000Y16095000D02*
X48336000Y16095000D01*
X57961000Y16095000D02*
X57961000Y11445000D01*
X48011000Y16095000D02*
X48011000Y11445000D01*
X57736000Y16095000D02*
X57736000Y17170000D01*
D16*
X52625000Y35250000D02*
X53425000Y34450000D01*
X53425000Y34450000D02*
X53425000Y26210000D01*
X53425000Y26210000D02*
X47715000Y26210000D01*
X47715000Y26210000D02*
X47715000Y35250000D01*
X47715000Y35250000D02*
X52625000Y35250000D01*
D20*
X16462739Y40802001D02*
X16681999Y40802001D01*
X13497261Y44205999D02*
X13278001Y44205999D01*
X16681999Y44205999D02*
X16462739Y44205999D01*
X16681999Y40802001D02*
X16681999Y44205999D01*
X13278001Y40802001D02*
X13497261Y40802001D01*
X13278001Y44205999D02*
X13278001Y40802001D01*
D16*
X29181000Y38033000D02*
X27381000Y38033000D01*
X27381000Y34813000D02*
X29831000Y34813000D01*
D12*
X46020000Y26980000D02*
X46020000Y34480000D01*
X46020000Y34480000D02*
X37520000Y34480000D01*
X37520000Y34480000D02*
X37520000Y26980000D01*
X37520000Y26980000D02*
X46020000Y26980000D01*
D16*
X28640000Y45644000D02*
X28640000Y47644000D01*
X28640000Y47644000D02*
X24790000Y47644000D01*
X28640000Y45644000D02*
X24790000Y45644000D01*
X46943000Y34787000D02*
X46943000Y36967000D01*
X46943000Y41387000D02*
X46943000Y39207000D01*
X40343000Y35547000D02*
X40343000Y36967000D01*
X40343000Y40627000D02*
X40343000Y39207000D01*
X46943000Y34787000D02*
X41103000Y34787000D01*
X41103000Y34787000D02*
X40343000Y35547000D01*
X40343000Y40627000D02*
X41103000Y41387000D01*
X41103000Y41387000D02*
X46943000Y41387000D01*
X57140733Y9380000D02*
X57483267Y9380000D01*
X57140733Y8360000D02*
X57483267Y8360000D01*
X57140733Y6836000D02*
X57483267Y6836000D01*
X57140733Y7856000D02*
X57483267Y7856000D01*
X11470000Y8169000D02*
X13930000Y8169000D01*
X13930000Y8169000D02*
X13930000Y9639000D01*
X13930000Y9639000D02*
X11470000Y9639000D01*
X64320000Y24614000D02*
X64320000Y27274000D01*
X59180000Y24614000D02*
X64320000Y24614000D01*
X59180000Y27274000D02*
X64320000Y27274000D01*
X59180000Y24614000D02*
X59180000Y27274000D01*
X57910000Y24614000D02*
X56580000Y24614000D01*
X56580000Y24614000D02*
X56580000Y25944000D01*
X64320000Y27154000D02*
X64320000Y29814000D01*
X59180000Y27154000D02*
X64320000Y27154000D01*
X59180000Y29814000D02*
X64320000Y29814000D01*
X59180000Y27154000D02*
X59180000Y29814000D01*
X57910000Y27154000D02*
X56580000Y27154000D01*
X56580000Y27154000D02*
X56580000Y28484000D01*
X56580000Y29694000D02*
X56580000Y31024000D01*
X57910000Y29694000D02*
X56580000Y29694000D01*
X59180000Y29694000D02*
X59180000Y32354000D01*
X59180000Y32354000D02*
X64320000Y32354000D01*
X59180000Y29694000D02*
X64320000Y29694000D01*
X64320000Y29694000D02*
X64320000Y32354000D01*
X56580000Y32234000D02*
X56580000Y33564000D01*
X57910000Y32234000D02*
X56580000Y32234000D01*
X59180000Y32234000D02*
X59180000Y34894000D01*
X59180000Y34894000D02*
X64320000Y34894000D01*
X59180000Y32234000D02*
X64320000Y32234000D01*
X64320000Y32234000D02*
X64320000Y34894000D01*
X59920000Y19280000D02*
X61320000Y19280000D01*
X62020000Y18580000D02*
X62020000Y17980000D01*
X61320000Y17280000D02*
X59920000Y17280000D01*
X59220000Y17980000D02*
X59220000Y18580000D01*
X59220000Y18580000D02*
G75*
G02X59920000Y19280000I700000J0D01*
G01*
X59920000Y17280000D02*
G75*
G02X59220000Y17980000I0J700000D01*
G01*
X62020000Y17980000D02*
G75*
G02X61320000Y17280000I-700000J0D01*
G01*
X61320000Y19280000D02*
G75*
G02X62020000Y18580000I0J-700000D01*
G01*
D12*
X59416666Y24216667D02*
X59450000Y24250000D01*
X59516666Y24283334D01*
X59683333Y24283334D01*
X59750000Y24250000D01*
X59783333Y24216667D01*
X59816666Y24150000D01*
X59816666Y24083334D01*
X59783333Y23983334D01*
X59383333Y23583334D01*
X59816666Y23583334D01*
X60083333Y24216667D02*
X60116666Y24250000D01*
X60183333Y24283334D01*
X60350000Y24283334D01*
X60416666Y24250000D01*
X60450000Y24216667D01*
X60483333Y24150000D01*
X60483333Y24083334D01*
X60450000Y23983334D01*
X60050000Y23583334D01*
X60483333Y23583334D01*
X60916666Y24283334D02*
X60983333Y24283334D01*
X61050000Y24250000D01*
X61083333Y24216667D01*
X61116666Y24150000D01*
X61150000Y24016667D01*
X61150000Y23850000D01*
X61116666Y23716667D01*
X61083333Y23650000D01*
X61050000Y23616667D01*
X60983333Y23583334D01*
X60916666Y23583334D01*
X60850000Y23616667D01*
X60816666Y23650000D01*
X60783333Y23716667D01*
X60750000Y23850000D01*
X60750000Y24016667D01*
X60783333Y24150000D01*
X60816666Y24216667D01*
X60850000Y24250000D01*
X60916666Y24283334D01*
X61383333Y23583334D02*
X61750000Y24050000D01*
X61383333Y24050000D02*
X61750000Y23583334D01*
X62316666Y24050000D02*
X62316666Y23583334D01*
X62150000Y24316667D02*
X61983333Y23816667D01*
X62416666Y23816667D01*
X43116666Y14216667D02*
X43150000Y14250000D01*
X43216666Y14283334D01*
X43383333Y14283334D01*
X43450000Y14250000D01*
X43483333Y14216667D01*
X43516666Y14150000D01*
X43516666Y14083334D01*
X43483333Y13983334D01*
X43083333Y13583334D01*
X43516666Y13583334D01*
X43783333Y14216667D02*
X43816666Y14250000D01*
X43883333Y14283334D01*
X44050000Y14283334D01*
X44116666Y14250000D01*
X44150000Y14216667D01*
X44183333Y14150000D01*
X44183333Y14083334D01*
X44150000Y13983334D01*
X43750000Y13583334D01*
X44183333Y13583334D01*
X44616666Y14283334D02*
X44683333Y14283334D01*
X44750000Y14250000D01*
X44783333Y14216667D01*
X44816666Y14150000D01*
X44850000Y14016667D01*
X44850000Y13850000D01*
X44816666Y13716667D01*
X44783333Y13650000D01*
X44750000Y13616667D01*
X44683333Y13583334D01*
X44616666Y13583334D01*
X44550000Y13616667D01*
X44516666Y13650000D01*
X44483333Y13716667D01*
X44450000Y13850000D01*
X44450000Y14016667D01*
X44483333Y14150000D01*
X44516666Y14216667D01*
X44550000Y14250000D01*
X44616666Y14283334D01*
X45083333Y13583334D02*
X45450000Y14050000D01*
X45083333Y14050000D02*
X45450000Y13583334D01*
X46016666Y14050000D02*
X46016666Y13583334D01*
X45850000Y14316667D02*
X45683333Y13816667D01*
X46116666Y13816667D01*
X55304714Y36294477D02*
X55971380Y36294477D01*
X54923761Y36056381D02*
X55638047Y35818286D01*
X55638047Y36437334D01*
X54971380Y38882096D02*
X54971380Y38405905D01*
X55447571Y38358286D01*
X55399952Y38405905D01*
X55352333Y38501143D01*
X55352333Y38739239D01*
X55399952Y38834477D01*
X55447571Y38882096D01*
X55542809Y38929715D01*
X55780904Y38929715D01*
X55876142Y38882096D01*
X55923761Y38834477D01*
X55971380Y38739239D01*
X55971380Y38501143D01*
X55923761Y38405905D01*
X55876142Y38358286D01*
X54971380Y41374477D02*
X54971380Y41184000D01*
X55019000Y41088762D01*
X55066619Y41041143D01*
X55209476Y40945905D01*
X55399952Y40898286D01*
X55780904Y40898286D01*
X55876142Y40945905D01*
X55923761Y40993524D01*
X55971380Y41088762D01*
X55971380Y41279239D01*
X55923761Y41374477D01*
X55876142Y41422096D01*
X55780904Y41469715D01*
X55542809Y41469715D01*
X55447571Y41422096D01*
X55399952Y41374477D01*
X55352333Y41279239D01*
X55352333Y41088762D01*
X55399952Y40993524D01*
X55447571Y40945905D01*
X55542809Y40898286D01*
X54971380Y43390667D02*
X54971380Y44057334D01*
X55971380Y43628762D01*
D11*
X2050000Y43483334D02*
X2050000Y44183334D01*
X2316666Y44183334D01*
X2383333Y44150000D01*
X2416666Y44116667D01*
X2450000Y44050000D01*
X2450000Y43950000D01*
X2416666Y43883334D01*
X2383333Y43850000D01*
X2316666Y43816667D01*
X2050000Y43816667D01*
X2950000Y44183334D02*
X2950000Y43683334D01*
X2916666Y43583334D01*
X2850000Y43516667D01*
X2750000Y43483334D01*
X2683333Y43483334D01*
X3283333Y43750000D02*
X3816666Y43750000D01*
X4283333Y44183334D02*
X4350000Y44183334D01*
X4416666Y44150000D01*
X4450000Y44116667D01*
X4483333Y44050000D01*
X4516666Y43916667D01*
X4516666Y43750000D01*
X4483333Y43616667D01*
X4450000Y43550000D01*
X4416666Y43516667D01*
X4350000Y43483334D01*
X4283333Y43483334D01*
X4216666Y43516667D01*
X4183333Y43550000D01*
X4150000Y43616667D01*
X4116666Y43750000D01*
X4116666Y43916667D01*
X4150000Y44050000D01*
X4183333Y44116667D01*
X4216666Y44150000D01*
X4283333Y44183334D01*
X4750000Y44183334D02*
X5183333Y44183334D01*
X4950000Y43916667D01*
X5050000Y43916667D01*
X5116666Y43883334D01*
X5150000Y43850000D01*
X5183333Y43783334D01*
X5183333Y43616667D01*
X5150000Y43550000D01*
X5116666Y43516667D01*
X5050000Y43483334D01*
X4850000Y43483334D01*
X4783333Y43516667D01*
X4750000Y43550000D01*
X5583333Y43883334D02*
X5516666Y43916667D01*
X5483333Y43950000D01*
X5450000Y44016667D01*
X5450000Y44050000D01*
X5483333Y44116667D01*
X5516666Y44150000D01*
X5583333Y44183334D01*
X5716666Y44183334D01*
X5783333Y44150000D01*
X5816666Y44116667D01*
X5850000Y44050000D01*
X5850000Y44016667D01*
X5816666Y43950000D01*
X5783333Y43916667D01*
X5716666Y43883334D01*
X5583333Y43883334D01*
X5516666Y43850000D01*
X5483333Y43816667D01*
X5450000Y43750000D01*
X5450000Y43616667D01*
X5483333Y43550000D01*
X5516666Y43516667D01*
X5583333Y43483334D01*
X5716666Y43483334D01*
X5783333Y43516667D01*
X5816666Y43550000D01*
X5850000Y43616667D01*
X5850000Y43750000D01*
X5816666Y43816667D01*
X5783333Y43850000D01*
X5716666Y43883334D01*
X6116666Y43683334D02*
X6450000Y43683334D01*
X6050000Y43483334D02*
X6283333Y44183334D01*
X6516666Y43483334D01*
X6750000Y43483334D02*
X6750000Y44183334D01*
X6750000Y43850000D02*
X7150000Y43850000D01*
X7150000Y43483334D02*
X7150000Y44183334D01*
D12*
X26804285Y11457620D02*
X26232857Y11457620D01*
X26518571Y11457620D02*
X26518571Y12457620D01*
X26423333Y12314762D01*
X26328095Y12219524D01*
X26232857Y12171905D01*
X27185238Y12362381D02*
X27232857Y12410000D01*
X27328095Y12457620D01*
X27566190Y12457620D01*
X27661428Y12410000D01*
X27709047Y12362381D01*
X27756666Y12267143D01*
X27756666Y12171905D01*
X27709047Y12029048D01*
X27137619Y11457620D01*
X27756666Y11457620D01*
X28328095Y12029048D02*
X28232857Y12076667D01*
X28185238Y12124286D01*
X28137619Y12219524D01*
X28137619Y12267143D01*
X28185238Y12362381D01*
X28232857Y12410000D01*
X28328095Y12457620D01*
X28518571Y12457620D01*
X28613809Y12410000D01*
X28661428Y12362381D01*
X28709047Y12267143D01*
X28709047Y12219524D01*
X28661428Y12124286D01*
X28613809Y12076667D01*
X28518571Y12029048D01*
X28328095Y12029048D01*
X28232857Y11981429D01*
X28185238Y11933810D01*
X28137619Y11838572D01*
X28137619Y11648096D01*
X28185238Y11552858D01*
X28232857Y11505239D01*
X28328095Y11457620D01*
X28518571Y11457620D01*
X28613809Y11505239D01*
X28661428Y11552858D01*
X28709047Y11648096D01*
X28709047Y11838572D01*
X28661428Y11933810D01*
X28613809Y11981429D01*
X28518571Y12029048D01*
X29042380Y11457620D02*
X29566190Y12124286D01*
X29042380Y12124286D02*
X29566190Y11457620D01*
X30375714Y12457620D02*
X30185238Y12457620D01*
X30090000Y12410000D01*
X30042380Y12362381D01*
X29947142Y12219524D01*
X29899523Y12029048D01*
X29899523Y11648096D01*
X29947142Y11552858D01*
X29994761Y11505239D01*
X30090000Y11457620D01*
X30280476Y11457620D01*
X30375714Y11505239D01*
X30423333Y11552858D01*
X30470952Y11648096D01*
X30470952Y11886191D01*
X30423333Y11981429D01*
X30375714Y12029048D01*
X30280476Y12076667D01*
X30090000Y12076667D01*
X29994761Y12029048D01*
X29947142Y11981429D01*
X29899523Y11886191D01*
X31328095Y12124286D02*
X31328095Y11457620D01*
X31090000Y12505239D02*
X30851904Y11790953D01*
X31470952Y11790953D01*
X31613809Y11362381D02*
X32375714Y11362381D01*
X32804285Y12457620D02*
X32994761Y12457620D01*
X33090000Y12410000D01*
X33185238Y12314762D01*
X33232857Y12124286D01*
X33232857Y11790953D01*
X33185238Y11600477D01*
X33090000Y11505239D01*
X32994761Y11457620D01*
X32804285Y11457620D01*
X32709047Y11505239D01*
X32613809Y11600477D01*
X32566190Y11790953D01*
X32566190Y12124286D01*
X32613809Y12314762D01*
X32709047Y12410000D01*
X32804285Y12457620D01*
X34137619Y11457620D02*
X33661428Y11457620D01*
X33661428Y12457620D01*
X34470952Y11981429D02*
X34804285Y11981429D01*
X34947142Y11457620D02*
X34470952Y11457620D01*
X34470952Y12457620D01*
X34947142Y12457620D01*
X35375714Y11457620D02*
X35375714Y12457620D01*
X35613809Y12457620D01*
X35756666Y12410000D01*
X35851904Y12314762D01*
X35899523Y12219524D01*
X35947142Y12029048D01*
X35947142Y11886191D01*
X35899523Y11695715D01*
X35851904Y11600477D01*
X35756666Y11505239D01*
X35613809Y11457620D01*
X35375714Y11457620D01*
X34300476Y10150000D02*
X34224285Y10188096D01*
X34110000Y10188096D01*
X33995714Y10150000D01*
X33919523Y10073810D01*
X33881428Y9997620D01*
X33843333Y9845239D01*
X33843333Y9730953D01*
X33881428Y9578572D01*
X33919523Y9502381D01*
X33995714Y9426191D01*
X34110000Y9388096D01*
X34186190Y9388096D01*
X34300476Y9426191D01*
X34338571Y9464286D01*
X34338571Y9730953D01*
X34186190Y9730953D01*
X34681428Y9388096D02*
X34681428Y10188096D01*
X35138571Y9388096D01*
X35138571Y10188096D01*
X35519523Y9388096D02*
X35519523Y10188096D01*
X35710000Y10188096D01*
X35824285Y10150000D01*
X35900476Y10073810D01*
X35938571Y9997620D01*
X35976666Y9845239D01*
X35976666Y9730953D01*
X35938571Y9578572D01*
X35900476Y9502381D01*
X35824285Y9426191D01*
X35710000Y9388096D01*
X35519523Y9388096D01*
X28867619Y9406191D02*
X28981904Y9368096D01*
X29172380Y9368096D01*
X29248571Y9406191D01*
X29286666Y9444286D01*
X29324761Y9520477D01*
X29324761Y9596667D01*
X29286666Y9672858D01*
X29248571Y9710953D01*
X29172380Y9749048D01*
X29020000Y9787143D01*
X28943809Y9825239D01*
X28905714Y9863334D01*
X28867619Y9939524D01*
X28867619Y10015715D01*
X28905714Y10091905D01*
X28943809Y10130000D01*
X29020000Y10168096D01*
X29210476Y10168096D01*
X29324761Y10130000D01*
X30124761Y9444286D02*
X30086666Y9406191D01*
X29972380Y9368096D01*
X29896190Y9368096D01*
X29781904Y9406191D01*
X29705714Y9482381D01*
X29667619Y9558572D01*
X29629523Y9710953D01*
X29629523Y9825239D01*
X29667619Y9977620D01*
X29705714Y10053810D01*
X29781904Y10130000D01*
X29896190Y10168096D01*
X29972380Y10168096D01*
X30086666Y10130000D01*
X30124761Y10091905D01*
X30848571Y9368096D02*
X30467619Y9368096D01*
X30467619Y10168096D01*
X26308571Y9406191D02*
X26422857Y9368096D01*
X26613333Y9368096D01*
X26689523Y9406191D01*
X26727619Y9444286D01*
X26765714Y9520477D01*
X26765714Y9596667D01*
X26727619Y9672858D01*
X26689523Y9710953D01*
X26613333Y9749048D01*
X26460952Y9787143D01*
X26384761Y9825239D01*
X26346666Y9863334D01*
X26308571Y9939524D01*
X26308571Y10015715D01*
X26346666Y10091905D01*
X26384761Y10130000D01*
X26460952Y10168096D01*
X26651428Y10168096D01*
X26765714Y10130000D01*
X27108571Y9368096D02*
X27108571Y10168096D01*
X27299047Y10168096D01*
X27413333Y10130000D01*
X27489523Y10053810D01*
X27527619Y9977620D01*
X27565714Y9825239D01*
X27565714Y9710953D01*
X27527619Y9558572D01*
X27489523Y9482381D01*
X27413333Y9406191D01*
X27299047Y9368096D01*
X27108571Y9368096D01*
X27870476Y9596667D02*
X28251428Y9596667D01*
X27794285Y9368096D02*
X28060952Y10168096D01*
X28327619Y9368096D01*
X31283333Y10208096D02*
X31550000Y9408096D01*
X31816666Y10208096D01*
X32540476Y9484286D02*
X32502380Y9446191D01*
X32388095Y9408096D01*
X32311904Y9408096D01*
X32197619Y9446191D01*
X32121428Y9522381D01*
X32083333Y9598572D01*
X32045238Y9750953D01*
X32045238Y9865239D01*
X32083333Y10017620D01*
X32121428Y10093810D01*
X32197619Y10170000D01*
X32311904Y10208096D01*
X32388095Y10208096D01*
X32502380Y10170000D01*
X32540476Y10131905D01*
X33340476Y9484286D02*
X33302380Y9446191D01*
X33188095Y9408096D01*
X33111904Y9408096D01*
X32997619Y9446191D01*
X32921428Y9522381D01*
X32883333Y9598572D01*
X32845238Y9750953D01*
X32845238Y9865239D01*
X32883333Y10017620D01*
X32921428Y10093810D01*
X32997619Y10170000D01*
X33111904Y10208096D01*
X33188095Y10208096D01*
X33302380Y10170000D01*
X33340476Y10131905D01*
X530000Y8313334D02*
X496666Y8246667D01*
X496666Y8146667D01*
X530000Y8046667D01*
X596666Y7980000D01*
X663333Y7946667D01*
X796666Y7913334D01*
X896666Y7913334D01*
X1030000Y7946667D01*
X1096666Y7980000D01*
X1163333Y8046667D01*
X1196666Y8146667D01*
X1196666Y8213334D01*
X1163333Y8313334D01*
X1130000Y8346667D01*
X896666Y8346667D01*
X896666Y8213334D01*
X1196666Y8646667D02*
X496666Y8646667D01*
X496666Y8913334D01*
X530000Y8980000D01*
X563333Y9013334D01*
X630000Y9046667D01*
X730000Y9046667D01*
X796666Y9013334D01*
X830000Y8980000D01*
X863333Y8913334D01*
X863333Y8646667D01*
X1196666Y9346667D02*
X496666Y9346667D01*
X496666Y9813334D02*
X496666Y9946667D01*
X530000Y10013334D01*
X596666Y10080000D01*
X730000Y10113334D01*
X963333Y10113334D01*
X1096666Y10080000D01*
X1163333Y10013334D01*
X1196666Y9946667D01*
X1196666Y9813334D01*
X1163333Y9746667D01*
X1096666Y9680000D01*
X963333Y9646667D01*
X730000Y9646667D01*
X596666Y9680000D01*
X530000Y9746667D01*
X496666Y9813334D01*
X1196666Y10780000D02*
X1196666Y10380000D01*
X1196666Y10580000D02*
X496666Y10580000D01*
X596666Y10513334D01*
X663333Y10446667D01*
X696666Y10380000D01*
X496666Y11013334D02*
X496666Y11446667D01*
X763333Y11213334D01*
X763333Y11313334D01*
X796666Y11380000D01*
X830000Y11413334D01*
X896666Y11446667D01*
X1063333Y11446667D01*
X1130000Y11413334D01*
X1163333Y11380000D01*
X1196666Y11313334D01*
X1196666Y11113334D01*
X1163333Y11046667D01*
X1130000Y11013334D01*
X4476666Y9396667D02*
X4576666Y9363334D01*
X4743333Y9363334D01*
X4810000Y9396667D01*
X4843333Y9430000D01*
X4876666Y9496667D01*
X4876666Y9563334D01*
X4843333Y9630000D01*
X4810000Y9663334D01*
X4743333Y9696667D01*
X4610000Y9730000D01*
X4543333Y9763334D01*
X4510000Y9796667D01*
X4476666Y9863334D01*
X4476666Y9930000D01*
X4510000Y9996667D01*
X4543333Y10030000D01*
X4610000Y10063334D01*
X4776666Y10063334D01*
X4876666Y10030000D01*
X5110000Y10063334D02*
X5276666Y9363334D01*
X5410000Y9863334D01*
X5543333Y9363334D01*
X5710000Y10063334D01*
X6343333Y9363334D02*
X5943333Y9363334D01*
X6143333Y9363334D02*
X6143333Y10063334D01*
X6076666Y9963334D01*
X6010000Y9896667D01*
X5943333Y9863334D01*
X530000Y14523334D02*
X496666Y14456667D01*
X496666Y14356667D01*
X530000Y14256667D01*
X596666Y14190000D01*
X663333Y14156667D01*
X796666Y14123334D01*
X896666Y14123334D01*
X1030000Y14156667D01*
X1096666Y14190000D01*
X1163333Y14256667D01*
X1196666Y14356667D01*
X1196666Y14423334D01*
X1163333Y14523334D01*
X1130000Y14556667D01*
X896666Y14556667D01*
X896666Y14423334D01*
X1196666Y14856667D02*
X496666Y14856667D01*
X496666Y15123334D01*
X530000Y15190000D01*
X563333Y15223334D01*
X630000Y15256667D01*
X730000Y15256667D01*
X796666Y15223334D01*
X830000Y15190000D01*
X863333Y15123334D01*
X863333Y14856667D01*
X1196666Y15556667D02*
X496666Y15556667D01*
X496666Y16023334D02*
X496666Y16156667D01*
X530000Y16223334D01*
X596666Y16290000D01*
X730000Y16323334D01*
X963333Y16323334D01*
X1096666Y16290000D01*
X1163333Y16223334D01*
X1196666Y16156667D01*
X1196666Y16023334D01*
X1163333Y15956667D01*
X1096666Y15890000D01*
X963333Y15856667D01*
X730000Y15856667D01*
X596666Y15890000D01*
X530000Y15956667D01*
X496666Y16023334D01*
X496666Y16756667D02*
X496666Y16823334D01*
X530000Y16890000D01*
X563333Y16923334D01*
X630000Y16956667D01*
X763333Y16990000D01*
X930000Y16990000D01*
X1063333Y16956667D01*
X1130000Y16923334D01*
X1163333Y16890000D01*
X1196666Y16823334D01*
X1196666Y16756667D01*
X1163333Y16690000D01*
X1130000Y16656667D01*
X1063333Y16623334D01*
X930000Y16590000D01*
X763333Y16590000D01*
X630000Y16623334D01*
X563333Y16656667D01*
X530000Y16690000D01*
X496666Y16756667D01*
X496666Y17590000D02*
X496666Y17456667D01*
X530000Y17390000D01*
X563333Y17356667D01*
X663333Y17290000D01*
X796666Y17256667D01*
X1063333Y17256667D01*
X1130000Y17290000D01*
X1163333Y17323334D01*
X1196666Y17390000D01*
X1196666Y17523334D01*
X1163333Y17590000D01*
X1130000Y17623334D01*
X1063333Y17656667D01*
X896666Y17656667D01*
X830000Y17623334D01*
X796666Y17590000D01*
X763333Y17523334D01*
X763333Y17390000D01*
X796666Y17323334D01*
X830000Y17290000D01*
X896666Y17256667D01*
X4476666Y15596667D02*
X4576666Y15563334D01*
X4743333Y15563334D01*
X4810000Y15596667D01*
X4843333Y15630000D01*
X4876666Y15696667D01*
X4876666Y15763334D01*
X4843333Y15830000D01*
X4810000Y15863334D01*
X4743333Y15896667D01*
X4610000Y15930000D01*
X4543333Y15963334D01*
X4510000Y15996667D01*
X4476666Y16063334D01*
X4476666Y16130000D01*
X4510000Y16196667D01*
X4543333Y16230000D01*
X4610000Y16263334D01*
X4776666Y16263334D01*
X4876666Y16230000D01*
X5110000Y16263334D02*
X5276666Y15563334D01*
X5410000Y16063334D01*
X5543333Y15563334D01*
X5710000Y16263334D01*
X5943333Y16196667D02*
X5976666Y16230000D01*
X6043333Y16263334D01*
X6210000Y16263334D01*
X6276666Y16230000D01*
X6310000Y16196667D01*
X6343333Y16130000D01*
X6343333Y16063334D01*
X6310000Y15963334D01*
X5910000Y15563334D01*
X6343333Y15563334D01*
X9858333Y45083334D02*
X9458333Y45083334D01*
X9658333Y45083334D02*
X9658333Y45783334D01*
X9591666Y45683334D01*
X9525000Y45616667D01*
X9458333Y45583334D01*
X10458333Y45550000D02*
X10458333Y45083334D01*
X10158333Y45550000D02*
X10158333Y45183334D01*
X10191666Y45116667D01*
X10258333Y45083334D01*
X10358333Y45083334D01*
X10425000Y45116667D01*
X10458333Y45150000D01*
X11025000Y45450000D02*
X10791666Y45450000D01*
X10791666Y45083334D02*
X10791666Y45783334D01*
X11125000Y45783334D01*
X14308333Y49458334D02*
X13908333Y49458334D01*
X14108333Y49458334D02*
X14108333Y50158334D01*
X14041666Y50058334D01*
X13975000Y49991667D01*
X13908333Y49958334D01*
X14908333Y49925000D02*
X14908333Y49458334D01*
X14608333Y49925000D02*
X14608333Y49558334D01*
X14641666Y49491667D01*
X14708333Y49458334D01*
X14808333Y49458334D01*
X14875000Y49491667D01*
X14908333Y49525000D01*
X15475000Y49825000D02*
X15241666Y49825000D01*
X15241666Y49458334D02*
X15241666Y50158334D01*
X15575000Y50158334D01*
X8283333Y49358334D02*
X7883333Y49358334D01*
X8083333Y49358334D02*
X8083333Y50058334D01*
X8016666Y49958334D01*
X7950000Y49891667D01*
X7883333Y49858334D01*
X8883333Y49825000D02*
X8883333Y49358334D01*
X8583333Y49825000D02*
X8583333Y49458334D01*
X8616666Y49391667D01*
X8683333Y49358334D01*
X8783333Y49358334D01*
X8850000Y49391667D01*
X8883333Y49425000D01*
X9450000Y49725000D02*
X9216666Y49725000D01*
X9216666Y49358334D02*
X9216666Y50058334D01*
X9550000Y50058334D01*
X17358333Y49433334D02*
X16958333Y49433334D01*
X17158333Y49433334D02*
X17158333Y50133334D01*
X17091666Y50033334D01*
X17025000Y49966667D01*
X16958333Y49933334D01*
X17991666Y50133334D02*
X17658333Y50133334D01*
X17625000Y49800000D01*
X17658333Y49833334D01*
X17725000Y49866667D01*
X17891666Y49866667D01*
X17958333Y49833334D01*
X17991666Y49800000D01*
X18025000Y49733334D01*
X18025000Y49566667D01*
X17991666Y49500000D01*
X17958333Y49466667D01*
X17891666Y49433334D01*
X17725000Y49433334D01*
X17658333Y49466667D01*
X17625000Y49500000D01*
X18458333Y50133334D02*
X18525000Y50133334D01*
X18591666Y50100000D01*
X18625000Y50066667D01*
X18658333Y50000000D01*
X18691666Y49866667D01*
X18691666Y49700000D01*
X18658333Y49566667D01*
X18625000Y49500000D01*
X18591666Y49466667D01*
X18525000Y49433334D01*
X18458333Y49433334D01*
X18391666Y49466667D01*
X18358333Y49500000D01*
X18325000Y49566667D01*
X18291666Y49700000D01*
X18291666Y49866667D01*
X18325000Y50000000D01*
X18358333Y50066667D01*
X18391666Y50100000D01*
X18458333Y50133334D01*
X12458333Y45666667D02*
X12491666Y45700000D01*
X12558333Y45733334D01*
X12725000Y45733334D01*
X12791666Y45700000D01*
X12825000Y45666667D01*
X12858333Y45600000D01*
X12858333Y45533334D01*
X12825000Y45433334D01*
X12425000Y45033334D01*
X12858333Y45033334D01*
X13458333Y45500000D02*
X13458333Y45033334D01*
X13291666Y45766667D02*
X13125000Y45266667D01*
X13558333Y45266667D01*
X13958333Y45733334D02*
X14025000Y45733334D01*
X14091666Y45700000D01*
X14125000Y45666667D01*
X14158333Y45600000D01*
X14191666Y45466667D01*
X14191666Y45300000D01*
X14158333Y45166667D01*
X14125000Y45100000D01*
X14091666Y45066667D01*
X14025000Y45033334D01*
X13958333Y45033334D01*
X13891666Y45066667D01*
X13858333Y45100000D01*
X13825000Y45166667D01*
X13791666Y45300000D01*
X13791666Y45466667D01*
X13825000Y45600000D01*
X13858333Y45666667D01*
X13891666Y45700000D01*
X13958333Y45733334D01*
X15758333Y45158334D02*
X15358333Y45158334D01*
X15558333Y45158334D02*
X15558333Y45858334D01*
X15491666Y45758334D01*
X15425000Y45691667D01*
X15358333Y45658334D01*
X16391666Y45858334D02*
X16058333Y45858334D01*
X16025000Y45525000D01*
X16058333Y45558334D01*
X16125000Y45591667D01*
X16291666Y45591667D01*
X16358333Y45558334D01*
X16391666Y45525000D01*
X16425000Y45458334D01*
X16425000Y45291667D01*
X16391666Y45225000D01*
X16358333Y45191667D01*
X16291666Y45158334D01*
X16125000Y45158334D01*
X16058333Y45191667D01*
X16025000Y45225000D01*
X16858333Y45858334D02*
X16925000Y45858334D01*
X16991666Y45825000D01*
X17025000Y45791667D01*
X17058333Y45725000D01*
X17091666Y45591667D01*
X17091666Y45425000D01*
X17058333Y45291667D01*
X17025000Y45225000D01*
X16991666Y45191667D01*
X16925000Y45158334D01*
X16858333Y45158334D01*
X16791666Y45191667D01*
X16758333Y45225000D01*
X16725000Y45291667D01*
X16691666Y45425000D01*
X16691666Y45591667D01*
X16725000Y45725000D01*
X16758333Y45791667D01*
X16791666Y45825000D01*
X16858333Y45858334D01*
X16996666Y24743334D02*
X16596666Y24743334D01*
X16796666Y24743334D02*
X16796666Y25443334D01*
X16730000Y25343334D01*
X16663333Y25276667D01*
X16596666Y25243334D01*
X17430000Y25443334D02*
X17496666Y25443334D01*
X17563333Y25410000D01*
X17596666Y25376667D01*
X17630000Y25310000D01*
X17663333Y25176667D01*
X17663333Y25010000D01*
X17630000Y24876667D01*
X17596666Y24810000D01*
X17563333Y24776667D01*
X17496666Y24743334D01*
X17430000Y24743334D01*
X17363333Y24776667D01*
X17330000Y24810000D01*
X17296666Y24876667D01*
X17263333Y25010000D01*
X17263333Y25176667D01*
X17296666Y25310000D01*
X17330000Y25376667D01*
X17363333Y25410000D01*
X17430000Y25443334D01*
X17963333Y24743334D02*
X17963333Y25443334D01*
X18363333Y24743334D02*
X18063333Y25143334D01*
X18363333Y25443334D02*
X17963333Y25043334D01*
X2166666Y20070000D02*
X2166666Y19603334D01*
X2000000Y20336667D02*
X1833333Y19836667D01*
X2266666Y19836667D01*
X2466666Y20303334D02*
X2933333Y20303334D01*
X2633333Y19603334D01*
X3333333Y20303334D02*
X3400000Y20303334D01*
X3466666Y20270000D01*
X3500000Y20236667D01*
X3533333Y20170000D01*
X3566666Y20036667D01*
X3566666Y19870000D01*
X3533333Y19736667D01*
X3500000Y19670000D01*
X3466666Y19636667D01*
X3400000Y19603334D01*
X3333333Y19603334D01*
X3266666Y19636667D01*
X3233333Y19670000D01*
X3200000Y19736667D01*
X3166666Y19870000D01*
X3166666Y20036667D01*
X3200000Y20170000D01*
X3233333Y20236667D01*
X3266666Y20270000D01*
X3333333Y20303334D01*
X5930000Y20343334D02*
X6363333Y20343334D01*
X6130000Y20076667D01*
X6230000Y20076667D01*
X6296666Y20043334D01*
X6330000Y20010000D01*
X6363333Y19943334D01*
X6363333Y19776667D01*
X6330000Y19710000D01*
X6296666Y19676667D01*
X6230000Y19643334D01*
X6030000Y19643334D01*
X5963333Y19676667D01*
X5930000Y19710000D01*
X6596666Y20343334D02*
X7030000Y20343334D01*
X6796666Y20076667D01*
X6896666Y20076667D01*
X6963333Y20043334D01*
X6996666Y20010000D01*
X7030000Y19943334D01*
X7030000Y19776667D01*
X6996666Y19710000D01*
X6963333Y19676667D01*
X6896666Y19643334D01*
X6696666Y19643334D01*
X6630000Y19676667D01*
X6596666Y19710000D01*
X7463333Y20343334D02*
X7530000Y20343334D01*
X7596666Y20310000D01*
X7630000Y20276667D01*
X7663333Y20210000D01*
X7696666Y20076667D01*
X7696666Y19910000D01*
X7663333Y19776667D01*
X7630000Y19710000D01*
X7596666Y19676667D01*
X7530000Y19643334D01*
X7463333Y19643334D01*
X7396666Y19676667D01*
X7363333Y19710000D01*
X7330000Y19776667D01*
X7296666Y19910000D01*
X7296666Y20076667D01*
X7330000Y20210000D01*
X7363333Y20276667D01*
X7396666Y20310000D01*
X7463333Y20343334D01*
X446666Y22160000D02*
X1013333Y22160000D01*
X1080000Y22193334D01*
X1113333Y22226667D01*
X1146666Y22293334D01*
X1146666Y22426667D01*
X1113333Y22493334D01*
X1080000Y22526667D01*
X1013333Y22560000D01*
X446666Y22560000D01*
X1146666Y23226667D02*
X1146666Y22893334D01*
X446666Y22893334D01*
X446666Y23360000D02*
X446666Y23760000D01*
X1146666Y23560000D02*
X446666Y23560000D01*
X1146666Y24393334D02*
X813333Y24160000D01*
X1146666Y23993334D02*
X446666Y23993334D01*
X446666Y24260000D01*
X480000Y24326667D01*
X513333Y24360000D01*
X580000Y24393334D01*
X680000Y24393334D01*
X746666Y24360000D01*
X780000Y24326667D01*
X813333Y24260000D01*
X813333Y23993334D01*
X946666Y24660000D02*
X946666Y24993334D01*
X1146666Y24593334D02*
X446666Y24826667D01*
X1146666Y25060000D01*
X1213333Y25126667D02*
X1213333Y25660000D01*
X446666Y25960000D02*
X446666Y26026667D01*
X480000Y26093334D01*
X513333Y26126667D01*
X580000Y26160000D01*
X713333Y26193334D01*
X880000Y26193334D01*
X1013333Y26160000D01*
X1080000Y26126667D01*
X1113333Y26093334D01*
X1146666Y26026667D01*
X1146666Y25960000D01*
X1113333Y25893334D01*
X1080000Y25860000D01*
X1013333Y25826667D01*
X880000Y25793334D01*
X713333Y25793334D01*
X580000Y25826667D01*
X513333Y25860000D01*
X480000Y25893334D01*
X446666Y25960000D01*
X11952380Y12414286D02*
X11952380Y11842858D01*
X11952380Y12128572D02*
X10952380Y12128572D01*
X11095238Y12033334D01*
X11190476Y11938096D01*
X11238095Y11842858D01*
X11047619Y12795239D02*
X11000000Y12842858D01*
X10952380Y12938096D01*
X10952380Y13176191D01*
X11000000Y13271429D01*
X11047619Y13319048D01*
X11142857Y13366667D01*
X11238095Y13366667D01*
X11380952Y13319048D01*
X11952380Y12747620D01*
X11952380Y13366667D01*
X11380952Y13938096D02*
X11333333Y13842858D01*
X11285714Y13795239D01*
X11190476Y13747620D01*
X11142857Y13747620D01*
X11047619Y13795239D01*
X11000000Y13842858D01*
X10952380Y13938096D01*
X10952380Y14128572D01*
X11000000Y14223810D01*
X11047619Y14271429D01*
X11142857Y14319048D01*
X11190476Y14319048D01*
X11285714Y14271429D01*
X11333333Y14223810D01*
X11380952Y14128572D01*
X11380952Y13938096D01*
X11428571Y13842858D01*
X11476190Y13795239D01*
X11571428Y13747620D01*
X11761904Y13747620D01*
X11857142Y13795239D01*
X11904761Y13842858D01*
X11952380Y13938096D01*
X11952380Y14128572D01*
X11904761Y14223810D01*
X11857142Y14271429D01*
X11761904Y14319048D01*
X11571428Y14319048D01*
X11476190Y14271429D01*
X11428571Y14223810D01*
X11380952Y14128572D01*
X11952380Y14652381D02*
X11285714Y15176191D01*
X11285714Y14652381D02*
X11952380Y15176191D01*
X10952380Y15461905D02*
X10952380Y16080953D01*
X11333333Y15747620D01*
X11333333Y15890477D01*
X11380952Y15985715D01*
X11428571Y16033334D01*
X11523809Y16080953D01*
X11761904Y16080953D01*
X11857142Y16033334D01*
X11904761Y15985715D01*
X11952380Y15890477D01*
X11952380Y15604762D01*
X11904761Y15509524D01*
X11857142Y15461905D01*
X11047619Y16461905D02*
X11000000Y16509524D01*
X10952380Y16604762D01*
X10952380Y16842858D01*
X11000000Y16938096D01*
X11047619Y16985715D01*
X11142857Y17033334D01*
X11238095Y17033334D01*
X11380952Y16985715D01*
X11952380Y16414286D01*
X11952380Y17033334D01*
X12047619Y17223810D02*
X12047619Y17985715D01*
X10952380Y18414286D02*
X10952380Y18604762D01*
X11000000Y18700000D01*
X11095238Y18795239D01*
X11285714Y18842858D01*
X11619047Y18842858D01*
X11809523Y18795239D01*
X11904761Y18700000D01*
X11952380Y18604762D01*
X11952380Y18414286D01*
X11904761Y18319048D01*
X11809523Y18223810D01*
X11619047Y18176191D01*
X11285714Y18176191D01*
X11095238Y18223810D01*
X11000000Y18319048D01*
X10952380Y18414286D01*
X11952380Y19747620D02*
X11952380Y19271429D01*
X10952380Y19271429D01*
X11428571Y20080953D02*
X11428571Y20414286D01*
X11952380Y20557143D02*
X11952380Y20080953D01*
X10952380Y20080953D01*
X10952380Y20557143D01*
X11952380Y20985715D02*
X10952380Y20985715D01*
X10952380Y21223810D01*
X11000000Y21366667D01*
X11095238Y21461905D01*
X11190476Y21509524D01*
X11380952Y21557143D01*
X11523809Y21557143D01*
X11714285Y21509524D01*
X11809523Y21461905D01*
X11904761Y21366667D01*
X11952380Y21223810D01*
X11952380Y20985715D01*
X14450000Y12254477D02*
X14411904Y12178286D01*
X14411904Y12064000D01*
X14450000Y11949715D01*
X14526190Y11873524D01*
X14602380Y11835429D01*
X14754761Y11797334D01*
X14869047Y11797334D01*
X15021428Y11835429D01*
X15097619Y11873524D01*
X15173809Y11949715D01*
X15211904Y12064000D01*
X15211904Y12140191D01*
X15173809Y12254477D01*
X15135714Y12292572D01*
X14869047Y12292572D01*
X14869047Y12140191D01*
X15211904Y12635429D02*
X14411904Y12635429D01*
X15211904Y13092572D01*
X14411904Y13092572D01*
X15211904Y13473524D02*
X14411904Y13473524D01*
X14411904Y13664000D01*
X14450000Y13778286D01*
X14526190Y13854477D01*
X14602380Y13892572D01*
X14754761Y13930667D01*
X14869047Y13930667D01*
X15021428Y13892572D01*
X15097619Y13854477D01*
X15173809Y13778286D01*
X15211904Y13664000D01*
X15211904Y13473524D01*
X14431904Y14357334D02*
X15231904Y14624000D01*
X14431904Y14890667D01*
X15155714Y15614477D02*
X15193809Y15576381D01*
X15231904Y15462096D01*
X15231904Y15385905D01*
X15193809Y15271620D01*
X15117619Y15195429D01*
X15041428Y15157334D01*
X14889047Y15119239D01*
X14774761Y15119239D01*
X14622380Y15157334D01*
X14546190Y15195429D01*
X14470000Y15271620D01*
X14431904Y15385905D01*
X14431904Y15462096D01*
X14470000Y15576381D01*
X14508095Y15614477D01*
X15155714Y16414477D02*
X15193809Y16376381D01*
X15231904Y16262096D01*
X15231904Y16185905D01*
X15193809Y16071620D01*
X15117619Y15995429D01*
X15041428Y15957334D01*
X14889047Y15919239D01*
X14774761Y15919239D01*
X14622380Y15957334D01*
X14546190Y15995429D01*
X14470000Y16071620D01*
X14431904Y16185905D01*
X14431904Y16262096D01*
X14470000Y16376381D01*
X14508095Y16414477D01*
X15153809Y17001620D02*
X15191904Y17115905D01*
X15191904Y17306381D01*
X15153809Y17382572D01*
X15115714Y17420667D01*
X15039523Y17458762D01*
X14963333Y17458762D01*
X14887142Y17420667D01*
X14849047Y17382572D01*
X14810952Y17306381D01*
X14772857Y17154000D01*
X14734761Y17077810D01*
X14696666Y17039715D01*
X14620476Y17001620D01*
X14544285Y17001620D01*
X14468095Y17039715D01*
X14430000Y17077810D01*
X14391904Y17154000D01*
X14391904Y17344477D01*
X14430000Y17458762D01*
X15115714Y18258762D02*
X15153809Y18220667D01*
X15191904Y18106381D01*
X15191904Y18030191D01*
X15153809Y17915905D01*
X15077619Y17839715D01*
X15001428Y17801620D01*
X14849047Y17763524D01*
X14734761Y17763524D01*
X14582380Y17801620D01*
X14506190Y17839715D01*
X14430000Y17915905D01*
X14391904Y18030191D01*
X14391904Y18106381D01*
X14430000Y18220667D01*
X14468095Y18258762D01*
X15191904Y18982572D02*
X15191904Y18601620D01*
X14391904Y18601620D01*
X15153809Y19522572D02*
X15191904Y19636858D01*
X15191904Y19827334D01*
X15153809Y19903524D01*
X15115714Y19941620D01*
X15039523Y19979715D01*
X14963333Y19979715D01*
X14887142Y19941620D01*
X14849047Y19903524D01*
X14810952Y19827334D01*
X14772857Y19674953D01*
X14734761Y19598762D01*
X14696666Y19560667D01*
X14620476Y19522572D01*
X14544285Y19522572D01*
X14468095Y19560667D01*
X14430000Y19598762D01*
X14391904Y19674953D01*
X14391904Y19865429D01*
X14430000Y19979715D01*
X15191904Y20322572D02*
X14391904Y20322572D01*
X14391904Y20513048D01*
X14430000Y20627334D01*
X14506190Y20703524D01*
X14582380Y20741620D01*
X14734761Y20779715D01*
X14849047Y20779715D01*
X15001428Y20741620D01*
X15077619Y20703524D01*
X15153809Y20627334D01*
X15191904Y20513048D01*
X15191904Y20322572D01*
X14963333Y21084477D02*
X14963333Y21465429D01*
X15191904Y21008286D02*
X14391904Y21274953D01*
X15191904Y21541620D01*
X20020000Y27496667D02*
X20053333Y27596667D01*
X20086666Y27630000D01*
X20153333Y27663334D01*
X20253333Y27663334D01*
X20320000Y27630000D01*
X20353333Y27596667D01*
X20386666Y27530000D01*
X20386666Y27263334D01*
X19686666Y27263334D01*
X19686666Y27496667D01*
X19720000Y27563334D01*
X19753333Y27596667D01*
X19820000Y27630000D01*
X19886666Y27630000D01*
X19953333Y27596667D01*
X19986666Y27563334D01*
X20020000Y27496667D01*
X20020000Y27263334D01*
X20353333Y27930000D02*
X20386666Y28030000D01*
X20386666Y28196667D01*
X20353333Y28263334D01*
X20320000Y28296667D01*
X20253333Y28330000D01*
X20186666Y28330000D01*
X20120000Y28296667D01*
X20086666Y28263334D01*
X20053333Y28196667D01*
X20020000Y28063334D01*
X19986666Y27996667D01*
X19953333Y27963334D01*
X19886666Y27930000D01*
X19820000Y27930000D01*
X19753333Y27963334D01*
X19720000Y27996667D01*
X19686666Y28063334D01*
X19686666Y28230000D01*
X19720000Y28330000D01*
X20353333Y28596667D02*
X20386666Y28696667D01*
X20386666Y28863334D01*
X20353333Y28930000D01*
X20320000Y28963334D01*
X20253333Y28996667D01*
X20186666Y28996667D01*
X20120000Y28963334D01*
X20086666Y28930000D01*
X20053333Y28863334D01*
X20020000Y28730000D01*
X19986666Y28663334D01*
X19953333Y28630000D01*
X19886666Y28596667D01*
X19820000Y28596667D01*
X19753333Y28630000D01*
X19720000Y28663334D01*
X19686666Y28730000D01*
X19686666Y28896667D01*
X19720000Y28996667D01*
X19986666Y29396667D02*
X19953333Y29330000D01*
X19920000Y29296667D01*
X19853333Y29263334D01*
X19820000Y29263334D01*
X19753333Y29296667D01*
X19720000Y29330000D01*
X19686666Y29396667D01*
X19686666Y29530000D01*
X19720000Y29596667D01*
X19753333Y29630000D01*
X19820000Y29663334D01*
X19853333Y29663334D01*
X19920000Y29630000D01*
X19953333Y29596667D01*
X19986666Y29530000D01*
X19986666Y29396667D01*
X20020000Y29330000D01*
X20053333Y29296667D01*
X20120000Y29263334D01*
X20253333Y29263334D01*
X20320000Y29296667D01*
X20353333Y29330000D01*
X20386666Y29396667D01*
X20386666Y29530000D01*
X20353333Y29596667D01*
X20320000Y29630000D01*
X20253333Y29663334D01*
X20120000Y29663334D01*
X20053333Y29630000D01*
X20020000Y29596667D01*
X19986666Y29530000D01*
X19920000Y30263334D02*
X20386666Y30263334D01*
X19653333Y30096667D02*
X20153333Y29930000D01*
X20153333Y30363334D01*
X21987000Y31236334D02*
X21987000Y30669667D01*
X22020333Y30603000D01*
X22053666Y30569667D01*
X22120333Y30536334D01*
X22253666Y30536334D01*
X22320333Y30569667D01*
X22353666Y30603000D01*
X22387000Y30669667D01*
X22387000Y31236334D01*
X22687000Y31169667D02*
X22720333Y31203000D01*
X22787000Y31236334D01*
X22953666Y31236334D01*
X23020333Y31203000D01*
X23053666Y31169667D01*
X23087000Y31103000D01*
X23087000Y31036334D01*
X23053666Y30936334D01*
X22653666Y30536334D01*
X23087000Y30536334D01*
X23520333Y31236334D02*
X23587000Y31236334D01*
X23653666Y31203000D01*
X23687000Y31169667D01*
X23720333Y31103000D01*
X23753666Y30969667D01*
X23753666Y30803000D01*
X23720333Y30669667D01*
X23687000Y30603000D01*
X23653666Y30569667D01*
X23587000Y30536334D01*
X23520333Y30536334D01*
X23453666Y30569667D01*
X23420333Y30603000D01*
X23387000Y30669667D01*
X23353666Y30803000D01*
X23353666Y30969667D01*
X23387000Y31103000D01*
X23420333Y31169667D01*
X23453666Y31203000D01*
X23520333Y31236334D01*
X24020333Y31169667D02*
X24053666Y31203000D01*
X24120333Y31236334D01*
X24287000Y31236334D01*
X24353666Y31203000D01*
X24387000Y31169667D01*
X24420333Y31103000D01*
X24420333Y31036334D01*
X24387000Y30936334D01*
X23987000Y30536334D01*
X24420333Y30536334D01*
X50933333Y42445334D02*
X51366666Y42445334D01*
X51133333Y42178667D01*
X51233333Y42178667D01*
X51300000Y42145334D01*
X51333333Y42112000D01*
X51366666Y42045334D01*
X51366666Y41878667D01*
X51333333Y41812000D01*
X51300000Y41778667D01*
X51233333Y41745334D01*
X51033333Y41745334D01*
X50966666Y41778667D01*
X50933333Y41812000D01*
X51800000Y42445334D02*
X51866666Y42445334D01*
X51933333Y42412000D01*
X51966666Y42378667D01*
X52000000Y42312000D01*
X52033333Y42178667D01*
X52033333Y42012000D01*
X52000000Y41878667D01*
X51966666Y41812000D01*
X51933333Y41778667D01*
X51866666Y41745334D01*
X51800000Y41745334D01*
X51733333Y41778667D01*
X51700000Y41812000D01*
X51666666Y41878667D01*
X51633333Y42012000D01*
X51633333Y42178667D01*
X51666666Y42312000D01*
X51700000Y42378667D01*
X51733333Y42412000D01*
X51800000Y42445334D01*
X52233333Y42445334D02*
X52466666Y41745334D01*
X52700000Y42445334D01*
X53833333Y41745334D02*
X53433333Y41745334D01*
X53633333Y41745334D02*
X53633333Y42445334D01*
X53566666Y42345334D01*
X53500000Y42278667D01*
X53433333Y42245334D01*
X54100000Y41945334D02*
X54433333Y41945334D01*
X54033333Y41745334D02*
X54266666Y42445334D01*
X54500000Y41745334D01*
X49496666Y7393334D02*
X49096666Y7393334D01*
X49296666Y7393334D02*
X49296666Y8093334D01*
X49230000Y7993334D01*
X49163333Y7926667D01*
X49096666Y7893334D01*
X49930000Y8093334D02*
X49996666Y8093334D01*
X50063333Y8060000D01*
X50096666Y8026667D01*
X50130000Y7960000D01*
X50163333Y7826667D01*
X50163333Y7660000D01*
X50130000Y7526667D01*
X50096666Y7460000D01*
X50063333Y7426667D01*
X49996666Y7393334D01*
X49930000Y7393334D01*
X49863333Y7426667D01*
X49830000Y7460000D01*
X49796666Y7526667D01*
X49763333Y7660000D01*
X49763333Y7826667D01*
X49796666Y7960000D01*
X49830000Y8026667D01*
X49863333Y8060000D01*
X49930000Y8093334D01*
X50463333Y7393334D02*
X50463333Y8093334D01*
X50863333Y7393334D02*
X50563333Y7793334D01*
X50863333Y8093334D02*
X50463333Y7693334D01*
X12826666Y36490000D02*
X12593333Y36490000D01*
X12593333Y36123334D02*
X12593333Y36823334D01*
X12926666Y36823334D01*
X13426666Y36490000D02*
X13526666Y36456667D01*
X13560000Y36423334D01*
X13593333Y36356667D01*
X13593333Y36256667D01*
X13560000Y36190000D01*
X13526666Y36156667D01*
X13460000Y36123334D01*
X13193333Y36123334D01*
X13193333Y36823334D01*
X13426666Y36823334D01*
X13493333Y36790000D01*
X13526666Y36756667D01*
X13560000Y36690000D01*
X13560000Y36623334D01*
X13526666Y36556667D01*
X13493333Y36523334D01*
X13426666Y36490000D01*
X13193333Y36490000D01*
X14260000Y36123334D02*
X13860000Y36123334D01*
X14060000Y36123334D02*
X14060000Y36823334D01*
X13993333Y36723334D01*
X13926666Y36656667D01*
X13860000Y36623334D01*
X54486666Y20200000D02*
X54486666Y19800000D01*
X54486666Y20000000D02*
X53786666Y20000000D01*
X53886666Y19933334D01*
X53953333Y19866667D01*
X53986666Y19800000D01*
X54486666Y20866667D02*
X54486666Y20466667D01*
X54486666Y20666667D02*
X53786666Y20666667D01*
X53886666Y20600000D01*
X53953333Y20533334D01*
X53986666Y20466667D01*
X53786666Y21300000D02*
X53786666Y21366667D01*
X53820000Y21433334D01*
X53853333Y21466667D01*
X53920000Y21500000D01*
X54053333Y21533334D01*
X54220000Y21533334D01*
X54353333Y21500000D01*
X54420000Y21466667D01*
X54453333Y21433334D01*
X54486666Y21366667D01*
X54486666Y21300000D01*
X54453333Y21233334D01*
X54420000Y21200000D01*
X54353333Y21166667D01*
X54220000Y21133334D01*
X54053333Y21133334D01*
X53920000Y21166667D01*
X53853333Y21200000D01*
X53820000Y21233334D01*
X53786666Y21300000D01*
X54486666Y21833334D02*
X53786666Y21833334D01*
X54220000Y21900000D02*
X54486666Y22100000D01*
X54020000Y22100000D02*
X54286666Y21833334D01*
X52916666Y20863334D02*
X52916666Y20463334D01*
X52916666Y20663334D02*
X52216666Y20663334D01*
X52316666Y20596667D01*
X52383333Y20530000D01*
X52416666Y20463334D01*
X52216666Y21496667D02*
X52216666Y21163334D01*
X52550000Y21130000D01*
X52516666Y21163334D01*
X52483333Y21230000D01*
X52483333Y21396667D01*
X52516666Y21463334D01*
X52550000Y21496667D01*
X52616666Y21530000D01*
X52783333Y21530000D01*
X52850000Y21496667D01*
X52883333Y21463334D01*
X52916666Y21396667D01*
X52916666Y21230000D01*
X52883333Y21163334D01*
X52850000Y21130000D01*
X52916666Y21830000D02*
X52216666Y21830000D01*
X52650000Y21896667D02*
X52916666Y22096667D01*
X52450000Y22096667D02*
X52716666Y21830000D01*
X50756666Y20830000D02*
X50756666Y20496667D01*
X51090000Y20463334D01*
X51056666Y20496667D01*
X51023333Y20563334D01*
X51023333Y20730000D01*
X51056666Y20796667D01*
X51090000Y20830000D01*
X51156666Y20863334D01*
X51323333Y20863334D01*
X51390000Y20830000D01*
X51423333Y20796667D01*
X51456666Y20730000D01*
X51456666Y20563334D01*
X51423333Y20496667D01*
X51390000Y20463334D01*
X50756666Y21296667D02*
X50756666Y21363334D01*
X50790000Y21430000D01*
X50823333Y21463334D01*
X50890000Y21496667D01*
X51023333Y21530000D01*
X51190000Y21530000D01*
X51323333Y21496667D01*
X51390000Y21463334D01*
X51423333Y21430000D01*
X51456666Y21363334D01*
X51456666Y21296667D01*
X51423333Y21230000D01*
X51390000Y21196667D01*
X51323333Y21163334D01*
X51190000Y21130000D01*
X51023333Y21130000D01*
X50890000Y21163334D01*
X50823333Y21196667D01*
X50790000Y21230000D01*
X50756666Y21296667D01*
X51456666Y21830000D02*
X50756666Y21830000D01*
X51190000Y21896667D02*
X51456666Y22096667D01*
X50990000Y22096667D02*
X51256666Y21830000D01*
X47156666Y24140667D02*
X47156666Y24207334D01*
X47190000Y24274000D01*
X47223333Y24307334D01*
X47290000Y24340667D01*
X47423333Y24374000D01*
X47590000Y24374000D01*
X47723333Y24340667D01*
X47790000Y24307334D01*
X47823333Y24274000D01*
X47856666Y24207334D01*
X47856666Y24140667D01*
X47823333Y24074000D01*
X47790000Y24040667D01*
X47723333Y24007334D01*
X47590000Y23974000D01*
X47423333Y23974000D01*
X47290000Y24007334D01*
X47223333Y24040667D01*
X47190000Y24074000D01*
X47156666Y24140667D01*
X47856666Y25074000D02*
X47523333Y24840667D01*
X47856666Y24674000D02*
X47156666Y24674000D01*
X47156666Y24940667D01*
X47190000Y25007334D01*
X47223333Y25040667D01*
X47290000Y25074000D01*
X47390000Y25074000D01*
X47456666Y25040667D01*
X47490000Y25007334D01*
X47523333Y24940667D01*
X47523333Y24674000D01*
X11283333Y49383334D02*
X10883333Y49383334D01*
X11083333Y49383334D02*
X11083333Y50083334D01*
X11016666Y49983334D01*
X10950000Y49916667D01*
X10883333Y49883334D01*
X11916666Y50083334D02*
X11583333Y50083334D01*
X11550000Y49750000D01*
X11583333Y49783334D01*
X11650000Y49816667D01*
X11816666Y49816667D01*
X11883333Y49783334D01*
X11916666Y49750000D01*
X11950000Y49683334D01*
X11950000Y49516667D01*
X11916666Y49450000D01*
X11883333Y49416667D01*
X11816666Y49383334D01*
X11650000Y49383334D01*
X11583333Y49416667D01*
X11550000Y49450000D01*
X12383333Y50083334D02*
X12450000Y50083334D01*
X12516666Y50050000D01*
X12550000Y50016667D01*
X12583333Y49950000D01*
X12616666Y49816667D01*
X12616666Y49650000D01*
X12583333Y49516667D01*
X12550000Y49450000D01*
X12516666Y49416667D01*
X12450000Y49383334D01*
X12383333Y49383334D01*
X12316666Y49416667D01*
X12283333Y49450000D01*
X12250000Y49516667D01*
X12216666Y49650000D01*
X12216666Y49816667D01*
X12250000Y49950000D01*
X12283333Y50016667D01*
X12316666Y50050000D01*
X12383333Y50083334D01*
X18226666Y31776667D02*
X18226666Y31376667D01*
X18226666Y31576667D02*
X17526666Y31576667D01*
X17626666Y31510000D01*
X17693333Y31443334D01*
X17726666Y31376667D01*
X18160000Y32076667D02*
X18193333Y32110000D01*
X18226666Y32076667D01*
X18193333Y32043334D01*
X18160000Y32076667D01*
X18226666Y32076667D01*
X17526666Y32743334D02*
X17526666Y32410000D01*
X17860000Y32376667D01*
X17826666Y32410000D01*
X17793333Y32476667D01*
X17793333Y32643334D01*
X17826666Y32710000D01*
X17860000Y32743334D01*
X17926666Y32776667D01*
X18093333Y32776667D01*
X18160000Y32743334D01*
X18193333Y32710000D01*
X18226666Y32643334D01*
X18226666Y32476667D01*
X18193333Y32410000D01*
X18160000Y32376667D01*
X18226666Y33076667D02*
X17526666Y33076667D01*
X17960000Y33143334D02*
X18226666Y33343334D01*
X17760000Y33343334D02*
X18026666Y33076667D01*
X19676666Y31610000D02*
X19676666Y31143334D01*
X19510000Y31876667D02*
X19343333Y31376667D01*
X19776666Y31376667D01*
X19976666Y31843334D02*
X20443333Y31843334D01*
X20143333Y31143334D01*
X20843333Y31843334D02*
X20910000Y31843334D01*
X20976666Y31810000D01*
X21010000Y31776667D01*
X21043333Y31710000D01*
X21076666Y31576667D01*
X21076666Y31410000D01*
X21043333Y31276667D01*
X21010000Y31210000D01*
X20976666Y31176667D01*
X20910000Y31143334D01*
X20843333Y31143334D01*
X20776666Y31176667D01*
X20743333Y31210000D01*
X20710000Y31276667D01*
X20676666Y31410000D01*
X20676666Y31576667D01*
X20710000Y31710000D01*
X20743333Y31776667D01*
X20776666Y31810000D01*
X20843333Y31843334D01*
X62996666Y17616667D02*
X62996666Y17216667D01*
X62996666Y17416667D02*
X62296666Y17416667D01*
X62396666Y17350000D01*
X62463333Y17283334D01*
X62496666Y17216667D01*
X62296666Y18050000D02*
X62296666Y18116667D01*
X62330000Y18183334D01*
X62363333Y18216667D01*
X62430000Y18250000D01*
X62563333Y18283334D01*
X62730000Y18283334D01*
X62863333Y18250000D01*
X62930000Y18216667D01*
X62963333Y18183334D01*
X62996666Y18116667D01*
X62996666Y18050000D01*
X62963333Y17983334D01*
X62930000Y17950000D01*
X62863333Y17916667D01*
X62730000Y17883334D01*
X62563333Y17883334D01*
X62430000Y17916667D01*
X62363333Y17950000D01*
X62330000Y17983334D01*
X62296666Y18050000D01*
X62996666Y18583334D02*
X62296666Y18583334D01*
X62996666Y18983334D02*
X62596666Y18683334D01*
X62296666Y18983334D02*
X62696666Y18583334D01*
X27631000Y40386334D02*
X27231000Y40386334D01*
X27431000Y40386334D02*
X27431000Y41086334D01*
X27364333Y40986334D01*
X27297666Y40919667D01*
X27231000Y40886334D01*
X28064333Y41086334D02*
X28131000Y41086334D01*
X28197666Y41053000D01*
X28231000Y41019667D01*
X28264333Y40953000D01*
X28297666Y40819667D01*
X28297666Y40653000D01*
X28264333Y40519667D01*
X28231000Y40453000D01*
X28197666Y40419667D01*
X28131000Y40386334D01*
X28064333Y40386334D01*
X27997666Y40419667D01*
X27964333Y40453000D01*
X27931000Y40519667D01*
X27897666Y40653000D01*
X27897666Y40819667D01*
X27931000Y40953000D01*
X27964333Y41019667D01*
X27997666Y41053000D01*
X28064333Y41086334D01*
X28731000Y41086334D02*
X28797666Y41086334D01*
X28864333Y41053000D01*
X28897666Y41019667D01*
X28931000Y40953000D01*
X28964333Y40819667D01*
X28964333Y40653000D01*
X28931000Y40519667D01*
X28897666Y40453000D01*
X28864333Y40419667D01*
X28797666Y40386334D01*
X28731000Y40386334D01*
X28664333Y40419667D01*
X28631000Y40453000D01*
X28597666Y40519667D01*
X28564333Y40653000D01*
X28564333Y40819667D01*
X28597666Y40953000D01*
X28631000Y41019667D01*
X28664333Y41053000D01*
X28731000Y41086334D01*
X29264333Y40386334D02*
X29264333Y41086334D01*
X29331000Y40653000D02*
X29531000Y40386334D01*
X29531000Y40853000D02*
X29264333Y40586334D01*
X30601000Y41069667D02*
X30634333Y41103000D01*
X30701000Y41136334D01*
X30867666Y41136334D01*
X30934333Y41103000D01*
X30967666Y41069667D01*
X31001000Y41003000D01*
X31001000Y40936334D01*
X30967666Y40836334D01*
X30567666Y40436334D01*
X31001000Y40436334D01*
X31434333Y41136334D02*
X31501000Y41136334D01*
X31567666Y41103000D01*
X31601000Y41069667D01*
X31634333Y41003000D01*
X31667666Y40869667D01*
X31667666Y40703000D01*
X31634333Y40569667D01*
X31601000Y40503000D01*
X31567666Y40469667D01*
X31501000Y40436334D01*
X31434333Y40436334D01*
X31367666Y40469667D01*
X31334333Y40503000D01*
X31301000Y40569667D01*
X31267666Y40703000D01*
X31267666Y40869667D01*
X31301000Y41003000D01*
X31334333Y41069667D01*
X31367666Y41103000D01*
X31434333Y41136334D01*
X32101000Y41136334D02*
X32167666Y41136334D01*
X32234333Y41103000D01*
X32267666Y41069667D01*
X32301000Y41003000D01*
X32334333Y40869667D01*
X32334333Y40703000D01*
X32301000Y40569667D01*
X32267666Y40503000D01*
X32234333Y40469667D01*
X32167666Y40436334D01*
X32101000Y40436334D01*
X32034333Y40469667D01*
X32001000Y40503000D01*
X31967666Y40569667D01*
X31934333Y40703000D01*
X31934333Y40869667D01*
X31967666Y41003000D01*
X32001000Y41069667D01*
X32034333Y41103000D01*
X32101000Y41136334D01*
X32634333Y40436334D02*
X32634333Y41136334D01*
X32701000Y40703000D02*
X32901000Y40436334D01*
X32901000Y40903000D02*
X32634333Y40636334D01*
X33496666Y13913334D02*
X33930000Y13913334D01*
X33696666Y13646667D01*
X33796666Y13646667D01*
X33863333Y13613334D01*
X33896666Y13580000D01*
X33930000Y13513334D01*
X33930000Y13346667D01*
X33896666Y13280000D01*
X33863333Y13246667D01*
X33796666Y13213334D01*
X33596666Y13213334D01*
X33530000Y13246667D01*
X33496666Y13280000D01*
X34230000Y13280000D02*
X34263333Y13246667D01*
X34230000Y13213334D01*
X34196666Y13246667D01*
X34230000Y13280000D01*
X34230000Y13213334D01*
X34596666Y13213334D02*
X34730000Y13213334D01*
X34796666Y13246667D01*
X34830000Y13280000D01*
X34896666Y13380000D01*
X34930000Y13513334D01*
X34930000Y13780000D01*
X34896666Y13846667D01*
X34863333Y13880000D01*
X34796666Y13913334D01*
X34663333Y13913334D01*
X34596666Y13880000D01*
X34563333Y13846667D01*
X34530000Y13780000D01*
X34530000Y13613334D01*
X34563333Y13546667D01*
X34596666Y13513334D01*
X34663333Y13480000D01*
X34796666Y13480000D01*
X34863333Y13513334D01*
X34896666Y13546667D01*
X34930000Y13613334D01*
X35230000Y13213334D02*
X35230000Y13913334D01*
X35630000Y13213334D02*
X35330000Y13613334D01*
X35630000Y13913334D02*
X35230000Y13513334D01*
X33536666Y16523334D02*
X33970000Y16523334D01*
X33736666Y16256667D01*
X33836666Y16256667D01*
X33903333Y16223334D01*
X33936666Y16190000D01*
X33970000Y16123334D01*
X33970000Y15956667D01*
X33936666Y15890000D01*
X33903333Y15856667D01*
X33836666Y15823334D01*
X33636666Y15823334D01*
X33570000Y15856667D01*
X33536666Y15890000D01*
X34270000Y15890000D02*
X34303333Y15856667D01*
X34270000Y15823334D01*
X34236666Y15856667D01*
X34270000Y15890000D01*
X34270000Y15823334D01*
X34636666Y15823334D02*
X34770000Y15823334D01*
X34836666Y15856667D01*
X34870000Y15890000D01*
X34936666Y15990000D01*
X34970000Y16123334D01*
X34970000Y16390000D01*
X34936666Y16456667D01*
X34903333Y16490000D01*
X34836666Y16523334D01*
X34703333Y16523334D01*
X34636666Y16490000D01*
X34603333Y16456667D01*
X34570000Y16390000D01*
X34570000Y16223334D01*
X34603333Y16156667D01*
X34636666Y16123334D01*
X34703333Y16090000D01*
X34836666Y16090000D01*
X34903333Y16123334D01*
X34936666Y16156667D01*
X34970000Y16223334D01*
X35270000Y15823334D02*
X35270000Y16523334D01*
X35670000Y15823334D02*
X35370000Y16223334D01*
X35670000Y16523334D02*
X35270000Y16123334D01*
X23316666Y11680667D02*
X23316666Y12114000D01*
X23583333Y11880667D01*
X23583333Y11980667D01*
X23616666Y12047334D01*
X23650000Y12080667D01*
X23716666Y12114000D01*
X23883333Y12114000D01*
X23950000Y12080667D01*
X23983333Y12047334D01*
X24016666Y11980667D01*
X24016666Y11780667D01*
X23983333Y11714000D01*
X23950000Y11680667D01*
X23950000Y12414000D02*
X23983333Y12447334D01*
X24016666Y12414000D01*
X23983333Y12380667D01*
X23950000Y12414000D01*
X24016666Y12414000D01*
X24016666Y12780667D02*
X24016666Y12914000D01*
X23983333Y12980667D01*
X23950000Y13014000D01*
X23850000Y13080667D01*
X23716666Y13114000D01*
X23450000Y13114000D01*
X23383333Y13080667D01*
X23350000Y13047334D01*
X23316666Y12980667D01*
X23316666Y12847334D01*
X23350000Y12780667D01*
X23383333Y12747334D01*
X23450000Y12714000D01*
X23616666Y12714000D01*
X23683333Y12747334D01*
X23716666Y12780667D01*
X23750000Y12847334D01*
X23750000Y12980667D01*
X23716666Y13047334D01*
X23683333Y13080667D01*
X23616666Y13114000D01*
X24016666Y13414000D02*
X23316666Y13414000D01*
X24016666Y13814000D02*
X23616666Y13514000D01*
X23316666Y13814000D02*
X23716666Y13414000D01*
X21826666Y11680667D02*
X21826666Y12114000D01*
X22093333Y11880667D01*
X22093333Y11980667D01*
X22126666Y12047334D01*
X22160000Y12080667D01*
X22226666Y12114000D01*
X22393333Y12114000D01*
X22460000Y12080667D01*
X22493333Y12047334D01*
X22526666Y11980667D01*
X22526666Y11780667D01*
X22493333Y11714000D01*
X22460000Y11680667D01*
X22460000Y12414000D02*
X22493333Y12447334D01*
X22526666Y12414000D01*
X22493333Y12380667D01*
X22460000Y12414000D01*
X22526666Y12414000D01*
X22526666Y12780667D02*
X22526666Y12914000D01*
X22493333Y12980667D01*
X22460000Y13014000D01*
X22360000Y13080667D01*
X22226666Y13114000D01*
X21960000Y13114000D01*
X21893333Y13080667D01*
X21860000Y13047334D01*
X21826666Y12980667D01*
X21826666Y12847334D01*
X21860000Y12780667D01*
X21893333Y12747334D01*
X21960000Y12714000D01*
X22126666Y12714000D01*
X22193333Y12747334D01*
X22226666Y12780667D01*
X22260000Y12847334D01*
X22260000Y12980667D01*
X22226666Y13047334D01*
X22193333Y13080667D01*
X22126666Y13114000D01*
X22526666Y13414000D02*
X21826666Y13414000D01*
X22526666Y13814000D02*
X22126666Y13514000D01*
X21826666Y13814000D02*
X22226666Y13414000D01*
X63280000Y7500000D02*
X63280000Y7033334D01*
X63113333Y7766667D02*
X62946666Y7266667D01*
X63380000Y7266667D01*
X63580000Y7733334D02*
X64046666Y7733334D01*
X63746666Y7033334D01*
X64713333Y7033334D02*
X64480000Y7366667D01*
X64313333Y7033334D02*
X64313333Y7733334D01*
X64580000Y7733334D01*
X64646666Y7700000D01*
X64680000Y7666667D01*
X64713333Y7600000D01*
X64713333Y7500000D01*
X64680000Y7433334D01*
X64646666Y7400000D01*
X64580000Y7366667D01*
X64313333Y7366667D01*
X15362666Y7884000D02*
X15362666Y7417334D01*
X15196000Y8150667D02*
X15029333Y7650667D01*
X15462666Y7650667D01*
X15662666Y8117334D02*
X16129333Y8117334D01*
X15829333Y7417334D01*
X16529333Y8117334D02*
X16596000Y8117334D01*
X16662666Y8084000D01*
X16696000Y8050667D01*
X16729333Y7984000D01*
X16762666Y7850667D01*
X16762666Y7684000D01*
X16729333Y7550667D01*
X16696000Y7484000D01*
X16662666Y7450667D01*
X16596000Y7417334D01*
X16529333Y7417334D01*
X16462666Y7450667D01*
X16429333Y7484000D01*
X16396000Y7550667D01*
X16362666Y7684000D01*
X16362666Y7850667D01*
X16396000Y7984000D01*
X16429333Y8050667D01*
X16462666Y8084000D01*
X16529333Y8117334D01*
X44302666Y46556000D02*
X44069333Y46556000D01*
X44069333Y46189334D02*
X44069333Y46889334D01*
X44402666Y46889334D01*
X44902666Y46556000D02*
X45002666Y46522667D01*
X45036000Y46489334D01*
X45069333Y46422667D01*
X45069333Y46322667D01*
X45036000Y46256000D01*
X45002666Y46222667D01*
X44936000Y46189334D01*
X44669333Y46189334D01*
X44669333Y46889334D01*
X44902666Y46889334D01*
X44969333Y46856000D01*
X45002666Y46822667D01*
X45036000Y46756000D01*
X45036000Y46689334D01*
X45002666Y46622667D01*
X44969333Y46589334D01*
X44902666Y46556000D01*
X44669333Y46556000D01*
X45302666Y46889334D02*
X45736000Y46889334D01*
X45502666Y46622667D01*
X45602666Y46622667D01*
X45669333Y46589334D01*
X45702666Y46556000D01*
X45736000Y46489334D01*
X45736000Y46322667D01*
X45702666Y46256000D01*
X45669333Y46222667D01*
X45602666Y46189334D01*
X45402666Y46189334D01*
X45336000Y46222667D01*
X45302666Y46256000D01*
X34200000Y45716667D02*
X34200000Y45483334D01*
X34566666Y45483334D02*
X33866666Y45483334D01*
X33866666Y45816667D01*
X34200000Y46316667D02*
X34233333Y46416667D01*
X34266666Y46450000D01*
X34333333Y46483334D01*
X34433333Y46483334D01*
X34500000Y46450000D01*
X34533333Y46416667D01*
X34566666Y46350000D01*
X34566666Y46083334D01*
X33866666Y46083334D01*
X33866666Y46316667D01*
X33900000Y46383334D01*
X33933333Y46416667D01*
X34000000Y46450000D01*
X34066666Y46450000D01*
X34133333Y46416667D01*
X34166666Y46383334D01*
X34200000Y46316667D01*
X34200000Y46083334D01*
X33933333Y46750000D02*
X33900000Y46783334D01*
X33866666Y46850000D01*
X33866666Y47016667D01*
X33900000Y47083334D01*
X33933333Y47116667D01*
X34000000Y47150000D01*
X34066666Y47150000D01*
X34166666Y47116667D01*
X34566666Y46716667D01*
X34566666Y47150000D01*
X52426666Y46224000D02*
X52193333Y46224000D01*
X52193333Y45857334D02*
X52193333Y46557334D01*
X52526666Y46557334D01*
X52760000Y46490667D02*
X52793333Y46524000D01*
X52860000Y46557334D01*
X53026666Y46557334D01*
X53093333Y46524000D01*
X53126666Y46490667D01*
X53160000Y46424000D01*
X53160000Y46357334D01*
X53126666Y46257334D01*
X52726666Y45857334D01*
X53160000Y45857334D01*
X32940000Y54840667D02*
X32940000Y54607334D01*
X33306666Y54607334D02*
X32606666Y54607334D01*
X32606666Y54940667D01*
X33306666Y55574000D02*
X33306666Y55174000D01*
X33306666Y55374000D02*
X32606666Y55374000D01*
X32706666Y55307334D01*
X32773333Y55240667D01*
X32806666Y55174000D01*
X19410000Y35330000D02*
X19376666Y35296667D01*
X19276666Y35263334D01*
X19210000Y35263334D01*
X19110000Y35296667D01*
X19043333Y35363334D01*
X19010000Y35430000D01*
X18976666Y35563334D01*
X18976666Y35663334D01*
X19010000Y35796667D01*
X19043333Y35863334D01*
X19110000Y35930000D01*
X19210000Y35963334D01*
X19276666Y35963334D01*
X19376666Y35930000D01*
X19410000Y35896667D01*
X19710000Y35263334D02*
X19710000Y35963334D01*
X19710000Y35630000D02*
X20110000Y35630000D01*
X20110000Y35263334D02*
X20110000Y35963334D01*
X20843333Y35263334D02*
X20610000Y35596667D01*
X20443333Y35263334D02*
X20443333Y35963334D01*
X20710000Y35963334D01*
X20776666Y35930000D01*
X20810000Y35896667D01*
X20843333Y35830000D01*
X20843333Y35730000D01*
X20810000Y35663334D01*
X20776666Y35630000D01*
X20710000Y35596667D01*
X20443333Y35596667D01*
X21510000Y35930000D02*
X21443333Y35963334D01*
X21343333Y35963334D01*
X21243333Y35930000D01*
X21176666Y35863334D01*
X21143333Y35796667D01*
X21110000Y35663334D01*
X21110000Y35563334D01*
X21143333Y35430000D01*
X21176666Y35363334D01*
X21243333Y35296667D01*
X21343333Y35263334D01*
X21410000Y35263334D01*
X21510000Y35296667D01*
X21543333Y35330000D01*
X21543333Y35563334D01*
X21410000Y35563334D01*
X34456666Y26156000D02*
X34456666Y25756000D01*
X34456666Y25956000D02*
X33756666Y25956000D01*
X33856666Y25889334D01*
X33923333Y25822667D01*
X33956666Y25756000D01*
X33756666Y26589334D02*
X33756666Y26656000D01*
X33790000Y26722667D01*
X33823333Y26756000D01*
X33890000Y26789334D01*
X34023333Y26822667D01*
X34190000Y26822667D01*
X34323333Y26789334D01*
X34390000Y26756000D01*
X34423333Y26722667D01*
X34456666Y26656000D01*
X34456666Y26589334D01*
X34423333Y26522667D01*
X34390000Y26489334D01*
X34323333Y26456000D01*
X34190000Y26422667D01*
X34023333Y26422667D01*
X33890000Y26456000D01*
X33823333Y26489334D01*
X33790000Y26522667D01*
X33756666Y26589334D01*
X33990000Y27422667D02*
X34456666Y27422667D01*
X33990000Y27122667D02*
X34356666Y27122667D01*
X34423333Y27156000D01*
X34456666Y27222667D01*
X34456666Y27322667D01*
X34423333Y27389334D01*
X34390000Y27422667D01*
X34090000Y27989334D02*
X34090000Y27756000D01*
X34456666Y27756000D02*
X33756666Y27756000D01*
X33756666Y28089334D01*
X44873333Y19556667D02*
X44906666Y19590000D01*
X44973333Y19623334D01*
X45140000Y19623334D01*
X45206666Y19590000D01*
X45240000Y19556667D01*
X45273333Y19490000D01*
X45273333Y19423334D01*
X45240000Y19323334D01*
X44840000Y18923334D01*
X45273333Y18923334D01*
X45573333Y19390000D02*
X45573333Y18923334D01*
X45573333Y19323334D02*
X45606666Y19356667D01*
X45673333Y19390000D01*
X45773333Y19390000D01*
X45840000Y19356667D01*
X45873333Y19290000D01*
X45873333Y18923334D01*
X46440000Y19290000D02*
X46206666Y19290000D01*
X46206666Y18923334D02*
X46206666Y19623334D01*
X46540000Y19623334D01*
X34346666Y31697334D02*
X33946666Y31697334D01*
X34146666Y31697334D02*
X34146666Y32397334D01*
X34080000Y32297334D01*
X34013333Y32230667D01*
X33946666Y32197334D01*
X34780000Y32397334D02*
X34846666Y32397334D01*
X34913333Y32364000D01*
X34946666Y32330667D01*
X34980000Y32264000D01*
X35013333Y32130667D01*
X35013333Y31964000D01*
X34980000Y31830667D01*
X34946666Y31764000D01*
X34913333Y31730667D01*
X34846666Y31697334D01*
X34780000Y31697334D01*
X34713333Y31730667D01*
X34680000Y31764000D01*
X34646666Y31830667D01*
X34613333Y31964000D01*
X34613333Y32130667D01*
X34646666Y32264000D01*
X34680000Y32330667D01*
X34713333Y32364000D01*
X34780000Y32397334D01*
X35446666Y32397334D02*
X35513333Y32397334D01*
X35580000Y32364000D01*
X35613333Y32330667D01*
X35646666Y32264000D01*
X35680000Y32130667D01*
X35680000Y31964000D01*
X35646666Y31830667D01*
X35613333Y31764000D01*
X35580000Y31730667D01*
X35513333Y31697334D01*
X35446666Y31697334D01*
X35380000Y31730667D01*
X35346666Y31764000D01*
X35313333Y31830667D01*
X35280000Y31964000D01*
X35280000Y32130667D01*
X35313333Y32264000D01*
X35346666Y32330667D01*
X35380000Y32364000D01*
X35446666Y32397334D01*
X35980000Y32164000D02*
X35980000Y31697334D01*
X35980000Y32097334D02*
X36013333Y32130667D01*
X36080000Y32164000D01*
X36180000Y32164000D01*
X36246666Y32130667D01*
X36280000Y32064000D01*
X36280000Y31697334D01*
X36846666Y32064000D02*
X36613333Y32064000D01*
X36613333Y31697334D02*
X36613333Y32397334D01*
X36946666Y32397334D01*
X49886666Y19536667D02*
X49886666Y19136667D01*
X49886666Y19336667D02*
X49186666Y19336667D01*
X49286666Y19270000D01*
X49353333Y19203334D01*
X49386666Y19136667D01*
X49186666Y19970000D02*
X49186666Y20036667D01*
X49220000Y20103334D01*
X49253333Y20136667D01*
X49320000Y20170000D01*
X49453333Y20203334D01*
X49620000Y20203334D01*
X49753333Y20170000D01*
X49820000Y20136667D01*
X49853333Y20103334D01*
X49886666Y20036667D01*
X49886666Y19970000D01*
X49853333Y19903334D01*
X49820000Y19870000D01*
X49753333Y19836667D01*
X49620000Y19803334D01*
X49453333Y19803334D01*
X49320000Y19836667D01*
X49253333Y19870000D01*
X49220000Y19903334D01*
X49186666Y19970000D01*
X49186666Y20636667D02*
X49186666Y20703334D01*
X49220000Y20770000D01*
X49253333Y20803334D01*
X49320000Y20836667D01*
X49453333Y20870000D01*
X49620000Y20870000D01*
X49753333Y20836667D01*
X49820000Y20803334D01*
X49853333Y20770000D01*
X49886666Y20703334D01*
X49886666Y20636667D01*
X49853333Y20570000D01*
X49820000Y20536667D01*
X49753333Y20503334D01*
X49620000Y20470000D01*
X49453333Y20470000D01*
X49320000Y20503334D01*
X49253333Y20536667D01*
X49220000Y20570000D01*
X49186666Y20636667D01*
X49420000Y21170000D02*
X49886666Y21170000D01*
X49486666Y21170000D02*
X49453333Y21203334D01*
X49420000Y21270000D01*
X49420000Y21370000D01*
X49453333Y21436667D01*
X49520000Y21470000D01*
X49886666Y21470000D01*
X49520000Y22036667D02*
X49520000Y21803334D01*
X49886666Y21803334D02*
X49186666Y21803334D01*
X49186666Y22136667D01*
X43886666Y23282667D02*
X43886666Y22882667D01*
X43886666Y23082667D02*
X43186666Y23082667D01*
X43286666Y23016000D01*
X43353333Y22949334D01*
X43386666Y22882667D01*
X43186666Y23716000D02*
X43186666Y23782667D01*
X43220000Y23849334D01*
X43253333Y23882667D01*
X43320000Y23916000D01*
X43453333Y23949334D01*
X43620000Y23949334D01*
X43753333Y23916000D01*
X43820000Y23882667D01*
X43853333Y23849334D01*
X43886666Y23782667D01*
X43886666Y23716000D01*
X43853333Y23649334D01*
X43820000Y23616000D01*
X43753333Y23582667D01*
X43620000Y23549334D01*
X43453333Y23549334D01*
X43320000Y23582667D01*
X43253333Y23616000D01*
X43220000Y23649334D01*
X43186666Y23716000D01*
X43186666Y24382667D02*
X43186666Y24449334D01*
X43220000Y24516000D01*
X43253333Y24549334D01*
X43320000Y24582667D01*
X43453333Y24616000D01*
X43620000Y24616000D01*
X43753333Y24582667D01*
X43820000Y24549334D01*
X43853333Y24516000D01*
X43886666Y24449334D01*
X43886666Y24382667D01*
X43853333Y24316000D01*
X43820000Y24282667D01*
X43753333Y24249334D01*
X43620000Y24216000D01*
X43453333Y24216000D01*
X43320000Y24249334D01*
X43253333Y24282667D01*
X43220000Y24316000D01*
X43186666Y24382667D01*
X43420000Y24916000D02*
X43886666Y24916000D01*
X43486666Y24916000D02*
X43453333Y24949334D01*
X43420000Y25016000D01*
X43420000Y25116000D01*
X43453333Y25182667D01*
X43520000Y25216000D01*
X43886666Y25216000D01*
X43520000Y25782667D02*
X43520000Y25549334D01*
X43886666Y25549334D02*
X43186666Y25549334D01*
X43186666Y25882667D01*
X48571428Y35828572D02*
X48228571Y35828572D01*
X48400000Y35828572D02*
X48400000Y36428572D01*
X48342857Y36342858D01*
X48285714Y36285715D01*
X48228571Y36257143D01*
X48942857Y36428572D02*
X49000000Y36428572D01*
X49057142Y36400000D01*
X49085714Y36371429D01*
X49114285Y36314286D01*
X49142857Y36200000D01*
X49142857Y36057143D01*
X49114285Y35942858D01*
X49085714Y35885715D01*
X49057142Y35857143D01*
X49000000Y35828572D01*
X48942857Y35828572D01*
X48885714Y35857143D01*
X48857142Y35885715D01*
X48828571Y35942858D01*
X48800000Y36057143D01*
X48800000Y36200000D01*
X48828571Y36314286D01*
X48857142Y36371429D01*
X48885714Y36400000D01*
X48942857Y36428572D01*
X49514285Y36428572D02*
X49571428Y36428572D01*
X49628571Y36400000D01*
X49657142Y36371429D01*
X49685714Y36314286D01*
X49714285Y36200000D01*
X49714285Y36057143D01*
X49685714Y35942858D01*
X49657142Y35885715D01*
X49628571Y35857143D01*
X49571428Y35828572D01*
X49514285Y35828572D01*
X49457142Y35857143D01*
X49428571Y35885715D01*
X49400000Y35942858D01*
X49371428Y36057143D01*
X49371428Y36200000D01*
X49400000Y36314286D01*
X49428571Y36371429D01*
X49457142Y36400000D01*
X49514285Y36428572D01*
X49971428Y36228572D02*
X49971428Y35828572D01*
X49971428Y36171429D02*
X50000000Y36200000D01*
X50057142Y36228572D01*
X50142857Y36228572D01*
X50200000Y36200000D01*
X50228571Y36142858D01*
X50228571Y35828572D01*
X50714285Y36142858D02*
X50514285Y36142858D01*
X50514285Y35828572D02*
X50514285Y36428572D01*
X50800000Y36428572D01*
X49375333Y37383334D02*
X48975333Y37383334D01*
X49175333Y37383334D02*
X49175333Y38083334D01*
X49108666Y37983334D01*
X49042000Y37916667D01*
X48975333Y37883334D01*
X49975333Y37850000D02*
X49975333Y37383334D01*
X49675333Y37850000D02*
X49675333Y37483334D01*
X49708666Y37416667D01*
X49775333Y37383334D01*
X49875333Y37383334D01*
X49942000Y37416667D01*
X49975333Y37450000D01*
X50542000Y37750000D02*
X50308666Y37750000D01*
X50308666Y37383334D02*
X50308666Y38083334D01*
X50642000Y38083334D01*
X51540000Y40854334D02*
X51140000Y40854334D01*
X51340000Y40854334D02*
X51340000Y41554334D01*
X51273333Y41454334D01*
X51206666Y41387667D01*
X51140000Y41354334D01*
X51973333Y41554334D02*
X52040000Y41554334D01*
X52106666Y41521000D01*
X52140000Y41487667D01*
X52173333Y41421000D01*
X52206666Y41287667D01*
X52206666Y41121000D01*
X52173333Y40987667D01*
X52140000Y40921000D01*
X52106666Y40887667D01*
X52040000Y40854334D01*
X51973333Y40854334D01*
X51906666Y40887667D01*
X51873333Y40921000D01*
X51840000Y40987667D01*
X51806666Y41121000D01*
X51806666Y41287667D01*
X51840000Y41421000D01*
X51873333Y41487667D01*
X51906666Y41521000D01*
X51973333Y41554334D01*
X52806666Y41321000D02*
X52806666Y40854334D01*
X52506666Y41321000D02*
X52506666Y40954334D01*
X52540000Y40887667D01*
X52606666Y40854334D01*
X52706666Y40854334D01*
X52773333Y40887667D01*
X52806666Y40921000D01*
X53373333Y41221000D02*
X53140000Y41221000D01*
X53140000Y40854334D02*
X53140000Y41554334D01*
X53473333Y41554334D01*
X30250000Y43816334D02*
X29850000Y43816334D01*
X30050000Y43816334D02*
X30050000Y44516334D01*
X29983333Y44416334D01*
X29916666Y44349667D01*
X29850000Y44316334D01*
X30683333Y44516334D02*
X30750000Y44516334D01*
X30816666Y44483000D01*
X30850000Y44449667D01*
X30883333Y44383000D01*
X30916666Y44249667D01*
X30916666Y44083000D01*
X30883333Y43949667D01*
X30850000Y43883000D01*
X30816666Y43849667D01*
X30750000Y43816334D01*
X30683333Y43816334D01*
X30616666Y43849667D01*
X30583333Y43883000D01*
X30550000Y43949667D01*
X30516666Y44083000D01*
X30516666Y44249667D01*
X30550000Y44383000D01*
X30583333Y44449667D01*
X30616666Y44483000D01*
X30683333Y44516334D01*
X31516666Y44283000D02*
X31516666Y43816334D01*
X31216666Y44283000D02*
X31216666Y43916334D01*
X31250000Y43849667D01*
X31316666Y43816334D01*
X31416666Y43816334D01*
X31483333Y43849667D01*
X31516666Y43883000D01*
X32083333Y44183000D02*
X31850000Y44183000D01*
X31850000Y43816334D02*
X31850000Y44516334D01*
X32183333Y44516334D01*
X53883333Y26550000D02*
X53850000Y26583334D01*
X53816666Y26650000D01*
X53816666Y26816667D01*
X53850000Y26883334D01*
X53883333Y26916667D01*
X53950000Y26950000D01*
X54016666Y26950000D01*
X54116666Y26916667D01*
X54516666Y26516667D01*
X54516666Y26950000D01*
X53883333Y27216667D02*
X53850000Y27250000D01*
X53816666Y27316667D01*
X53816666Y27483334D01*
X53850000Y27550000D01*
X53883333Y27583334D01*
X53950000Y27616667D01*
X54016666Y27616667D01*
X54116666Y27583334D01*
X54516666Y27183334D01*
X54516666Y27616667D01*
X54050000Y27916667D02*
X54516666Y27916667D01*
X54116666Y27916667D02*
X54083333Y27950000D01*
X54050000Y28016667D01*
X54050000Y28116667D01*
X54083333Y28183334D01*
X54150000Y28216667D01*
X54516666Y28216667D01*
X54150000Y28783334D02*
X54150000Y28550000D01*
X54516666Y28550000D02*
X53816666Y28550000D01*
X53816666Y28883334D01*
X14153333Y37621334D02*
X13753333Y37621334D01*
X13953333Y37621334D02*
X13953333Y38321334D01*
X13886666Y38221334D01*
X13820000Y38154667D01*
X13753333Y38121334D01*
X14753333Y38088000D02*
X14753333Y37621334D01*
X14453333Y38088000D02*
X14453333Y37721334D01*
X14486666Y37654667D01*
X14553333Y37621334D01*
X14653333Y37621334D01*
X14720000Y37654667D01*
X14753333Y37688000D01*
X15320000Y37988000D02*
X15086666Y37988000D01*
X15086666Y37621334D02*
X15086666Y38321334D01*
X15420000Y38321334D01*
X29033666Y28526334D02*
X29033666Y28126334D01*
X29033666Y28326334D02*
X28333666Y28326334D01*
X28433666Y28259667D01*
X28500333Y28193000D01*
X28533666Y28126334D01*
X28567000Y29126334D02*
X29033666Y29126334D01*
X28567000Y28826334D02*
X28933666Y28826334D01*
X29000333Y28859667D01*
X29033666Y28926334D01*
X29033666Y29026334D01*
X29000333Y29093000D01*
X28967000Y29126334D01*
X28667000Y29693000D02*
X28667000Y29459667D01*
X29033666Y29459667D02*
X28333666Y29459667D01*
X28333666Y29793000D01*
X20483333Y25283334D02*
X20083333Y25283334D01*
X20283333Y25283334D02*
X20283333Y25983334D01*
X20216666Y25883334D01*
X20150000Y25816667D01*
X20083333Y25783334D01*
X21083333Y25750000D02*
X21083333Y25283334D01*
X20783333Y25750000D02*
X20783333Y25383334D01*
X20816666Y25316667D01*
X20883333Y25283334D01*
X20983333Y25283334D01*
X21050000Y25316667D01*
X21083333Y25350000D01*
X21650000Y25650000D02*
X21416666Y25650000D01*
X21416666Y25283334D02*
X21416666Y25983334D01*
X21750000Y25983334D01*
X21006666Y12204000D02*
X21006666Y11804000D01*
X21006666Y12004000D02*
X20306666Y12004000D01*
X20406666Y11937334D01*
X20473333Y11870667D01*
X20506666Y11804000D01*
X20306666Y12637334D02*
X20306666Y12704000D01*
X20340000Y12770667D01*
X20373333Y12804000D01*
X20440000Y12837334D01*
X20573333Y12870667D01*
X20740000Y12870667D01*
X20873333Y12837334D01*
X20940000Y12804000D01*
X20973333Y12770667D01*
X21006666Y12704000D01*
X21006666Y12637334D01*
X20973333Y12570667D01*
X20940000Y12537334D01*
X20873333Y12504000D01*
X20740000Y12470667D01*
X20573333Y12470667D01*
X20440000Y12504000D01*
X20373333Y12537334D01*
X20340000Y12570667D01*
X20306666Y12637334D01*
X20540000Y13470667D02*
X21006666Y13470667D01*
X20540000Y13170667D02*
X20906666Y13170667D01*
X20973333Y13204000D01*
X21006666Y13270667D01*
X21006666Y13370667D01*
X20973333Y13437334D01*
X20940000Y13470667D01*
X20640000Y14037334D02*
X20640000Y13804000D01*
X21006666Y13804000D02*
X20306666Y13804000D01*
X20306666Y14137334D01*
X19506666Y12150667D02*
X19506666Y11750667D01*
X19506666Y11950667D02*
X18806666Y11950667D01*
X18906666Y11884000D01*
X18973333Y11817334D01*
X19006666Y11750667D01*
X18806666Y12584000D02*
X18806666Y12650667D01*
X18840000Y12717334D01*
X18873333Y12750667D01*
X18940000Y12784000D01*
X19073333Y12817334D01*
X19240000Y12817334D01*
X19373333Y12784000D01*
X19440000Y12750667D01*
X19473333Y12717334D01*
X19506666Y12650667D01*
X19506666Y12584000D01*
X19473333Y12517334D01*
X19440000Y12484000D01*
X19373333Y12450667D01*
X19240000Y12417334D01*
X19073333Y12417334D01*
X18940000Y12450667D01*
X18873333Y12484000D01*
X18840000Y12517334D01*
X18806666Y12584000D01*
X18806666Y13250667D02*
X18806666Y13317334D01*
X18840000Y13384000D01*
X18873333Y13417334D01*
X18940000Y13450667D01*
X19073333Y13484000D01*
X19240000Y13484000D01*
X19373333Y13450667D01*
X19440000Y13417334D01*
X19473333Y13384000D01*
X19506666Y13317334D01*
X19506666Y13250667D01*
X19473333Y13184000D01*
X19440000Y13150667D01*
X19373333Y13117334D01*
X19240000Y13084000D01*
X19073333Y13084000D01*
X18940000Y13117334D01*
X18873333Y13150667D01*
X18840000Y13184000D01*
X18806666Y13250667D01*
X19040000Y13784000D02*
X19506666Y13784000D01*
X19106666Y13784000D02*
X19073333Y13817334D01*
X19040000Y13884000D01*
X19040000Y13984000D01*
X19073333Y14050667D01*
X19140000Y14084000D01*
X19506666Y14084000D01*
X19140000Y14650667D02*
X19140000Y14417334D01*
X19506666Y14417334D02*
X18806666Y14417334D01*
X18806666Y14750667D01*
X33387666Y35863000D02*
X32687666Y35863000D01*
X32687666Y36029667D01*
X32721000Y36129667D01*
X32787666Y36196334D01*
X32854333Y36229667D01*
X32987666Y36263000D01*
X33087666Y36263000D01*
X33221000Y36229667D01*
X33287666Y36196334D01*
X33354333Y36129667D01*
X33387666Y36029667D01*
X33387666Y35863000D01*
X33387666Y36563000D02*
X32687666Y36563000D01*
X33387666Y36963000D01*
X32687666Y36963000D01*
X33021000Y37529667D02*
X33021000Y37296334D01*
X33387666Y37296334D02*
X32687666Y37296334D01*
X32687666Y37629667D01*
X59776666Y10236667D02*
X59076666Y10236667D01*
X59776666Y10636667D01*
X59076666Y10636667D01*
X59410000Y10970000D02*
X59410000Y11203334D01*
X59776666Y11303334D02*
X59776666Y10970000D01*
X59076666Y10970000D01*
X59076666Y11303334D01*
X59076666Y11736667D02*
X59076666Y11870000D01*
X59110000Y11936667D01*
X59176666Y12003334D01*
X59310000Y12036667D01*
X59543333Y12036667D01*
X59676666Y12003334D01*
X59743333Y11936667D01*
X59776666Y11870000D01*
X59776666Y11736667D01*
X59743333Y11670000D01*
X59676666Y11603334D01*
X59543333Y11570000D01*
X59310000Y11570000D01*
X59176666Y11603334D01*
X59110000Y11670000D01*
X59076666Y11736667D01*
X59776666Y12336667D02*
X59076666Y12336667D01*
X59076666Y12603334D01*
X59110000Y12670000D01*
X59143333Y12703334D01*
X59210000Y12736667D01*
X59310000Y12736667D01*
X59376666Y12703334D01*
X59410000Y12670000D01*
X59443333Y12603334D01*
X59443333Y12336667D01*
X59776666Y13036667D02*
X59076666Y13036667D01*
X59076666Y13303334D02*
X59776666Y13770000D01*
X59076666Y13770000D02*
X59776666Y13303334D01*
X59410000Y14036667D02*
X59410000Y14270000D01*
X59776666Y14370000D02*
X59776666Y14036667D01*
X59076666Y14036667D01*
X59076666Y14370000D01*
X59776666Y15003334D02*
X59776666Y14670000D01*
X59076666Y14670000D01*
X45266666Y48924000D02*
X44566666Y48924000D01*
X44566666Y49190667D01*
X44600000Y49257334D01*
X44633333Y49290667D01*
X44700000Y49324000D01*
X44800000Y49324000D01*
X44866666Y49290667D01*
X44900000Y49257334D01*
X44933333Y49190667D01*
X44933333Y48924000D01*
X45266666Y49724000D02*
X45233333Y49657334D01*
X45200000Y49624000D01*
X45133333Y49590667D01*
X44933333Y49590667D01*
X44866666Y49624000D01*
X44833333Y49657334D01*
X44800000Y49724000D01*
X44800000Y49824000D01*
X44833333Y49890667D01*
X44866666Y49924000D01*
X44933333Y49957334D01*
X45133333Y49957334D01*
X45200000Y49924000D01*
X45233333Y49890667D01*
X45266666Y49824000D01*
X45266666Y49724000D01*
X44800000Y50190667D02*
X45266666Y50324000D01*
X44933333Y50457334D01*
X45266666Y50590667D01*
X44800000Y50724000D01*
X45233333Y51257334D02*
X45266666Y51190667D01*
X45266666Y51057334D01*
X45233333Y50990667D01*
X45166666Y50957334D01*
X44900000Y50957334D01*
X44833333Y50990667D01*
X44800000Y51057334D01*
X44800000Y51190667D01*
X44833333Y51257334D01*
X44900000Y51290667D01*
X44966666Y51290667D01*
X45033333Y50957334D01*
X45266666Y51590667D02*
X44800000Y51590667D01*
X44933333Y51590667D02*
X44866666Y51624000D01*
X44833333Y51657334D01*
X44800000Y51724000D01*
X44800000Y51790667D01*
X45000000Y52024000D02*
X45000000Y52557334D01*
X44566666Y53024000D02*
X44566666Y53157334D01*
X44600000Y53224000D01*
X44666666Y53290667D01*
X44800000Y53324000D01*
X45033333Y53324000D01*
X45166666Y53290667D01*
X45233333Y53224000D01*
X45266666Y53157334D01*
X45266666Y53024000D01*
X45233333Y52957334D01*
X45166666Y52890667D01*
X45033333Y52857334D01*
X44800000Y52857334D01*
X44666666Y52890667D01*
X44600000Y52957334D01*
X44566666Y53024000D01*
X44800000Y53924000D02*
X45266666Y53924000D01*
X44800000Y53624000D02*
X45166666Y53624000D01*
X45233333Y53657334D01*
X45266666Y53724000D01*
X45266666Y53824000D01*
X45233333Y53890667D01*
X45200000Y53924000D01*
X44800000Y54157334D02*
X44800000Y54424000D01*
X44566666Y54257334D02*
X45166666Y54257334D01*
X45233333Y54290667D01*
X45266666Y54357334D01*
X45266666Y54424000D01*
X58126666Y51046667D02*
X57426666Y51046667D01*
X58126666Y51446667D01*
X57426666Y51446667D01*
X58126666Y51780000D02*
X57660000Y51780000D01*
X57426666Y51780000D02*
X57460000Y51746667D01*
X57493333Y51780000D01*
X57460000Y51813334D01*
X57426666Y51780000D01*
X57493333Y51780000D01*
X58126666Y52113334D02*
X57426666Y52113334D01*
X57926666Y52346667D01*
X57426666Y52580000D01*
X58126666Y52580000D01*
X58126666Y52913334D02*
X57426666Y52913334D01*
X57760000Y52913334D02*
X57760000Y53313334D01*
X58126666Y53313334D02*
X57426666Y53313334D01*
X49129000Y13254715D02*
X49129000Y14004715D01*
X49414714Y14004715D01*
X49486142Y13969000D01*
X49521857Y13933286D01*
X49557571Y13861858D01*
X49557571Y13754715D01*
X49521857Y13683286D01*
X49486142Y13647572D01*
X49414714Y13611858D01*
X49129000Y13611858D01*
X50307571Y13326143D02*
X50271857Y13290429D01*
X50164714Y13254715D01*
X50093285Y13254715D01*
X49986142Y13290429D01*
X49914714Y13361858D01*
X49879000Y13433286D01*
X49843285Y13576143D01*
X49843285Y13683286D01*
X49879000Y13826143D01*
X49914714Y13897572D01*
X49986142Y13969000D01*
X50093285Y14004715D01*
X50164714Y14004715D01*
X50271857Y13969000D01*
X50307571Y13933286D01*
X50593285Y13469000D02*
X50950428Y13469000D01*
X50521857Y13254715D02*
X50771857Y14004715D01*
X51021857Y13254715D01*
X51307571Y13254715D02*
X51450428Y13254715D01*
X51521857Y13290429D01*
X51557571Y13326143D01*
X51629000Y13433286D01*
X51664714Y13576143D01*
X51664714Y13861858D01*
X51629000Y13933286D01*
X51593285Y13969000D01*
X51521857Y14004715D01*
X51379000Y14004715D01*
X51307571Y13969000D01*
X51271857Y13933286D01*
X51236142Y13861858D01*
X51236142Y13683286D01*
X51271857Y13611858D01*
X51307571Y13576143D01*
X51379000Y13540429D01*
X51521857Y13540429D01*
X51593285Y13576143D01*
X51629000Y13611858D01*
X51664714Y13683286D01*
X52307571Y14004715D02*
X52164714Y14004715D01*
X52093285Y13969000D01*
X52057571Y13933286D01*
X51986142Y13826143D01*
X51950428Y13683286D01*
X51950428Y13397572D01*
X51986142Y13326143D01*
X52021857Y13290429D01*
X52093285Y13254715D01*
X52236142Y13254715D01*
X52307571Y13290429D01*
X52343285Y13326143D01*
X52379000Y13397572D01*
X52379000Y13576143D01*
X52343285Y13647572D01*
X52307571Y13683286D01*
X52236142Y13719000D01*
X52093285Y13719000D01*
X52021857Y13683286D01*
X51986142Y13647572D01*
X51950428Y13576143D01*
X52807571Y13683286D02*
X52736142Y13719000D01*
X52700428Y13754715D01*
X52664714Y13826143D01*
X52664714Y13861858D01*
X52700428Y13933286D01*
X52736142Y13969000D01*
X52807571Y14004715D01*
X52950428Y14004715D01*
X53021857Y13969000D01*
X53057571Y13933286D01*
X53093285Y13861858D01*
X53093285Y13826143D01*
X53057571Y13754715D01*
X53021857Y13719000D01*
X52950428Y13683286D01*
X52807571Y13683286D01*
X52736142Y13647572D01*
X52700428Y13611858D01*
X52664714Y13540429D01*
X52664714Y13397572D01*
X52700428Y13326143D01*
X52736142Y13290429D01*
X52807571Y13254715D01*
X52950428Y13254715D01*
X53021857Y13290429D01*
X53057571Y13326143D01*
X53093285Y13397572D01*
X53093285Y13540429D01*
X53057571Y13611858D01*
X53021857Y13647572D01*
X52950428Y13683286D01*
X53771857Y14004715D02*
X53414714Y14004715D01*
X53379000Y13647572D01*
X53414714Y13683286D01*
X53486142Y13719000D01*
X53664714Y13719000D01*
X53736142Y13683286D01*
X53771857Y13647572D01*
X53807571Y13576143D01*
X53807571Y13397572D01*
X53771857Y13326143D01*
X53736142Y13290429D01*
X53664714Y13254715D01*
X53486142Y13254715D01*
X53414714Y13290429D01*
X53379000Y13326143D01*
X54129000Y13254715D02*
X54129000Y14004715D01*
X54414714Y14004715D01*
X54486142Y13969000D01*
X54521857Y13933286D01*
X54557571Y13861858D01*
X54557571Y13754715D01*
X54521857Y13683286D01*
X54486142Y13647572D01*
X54414714Y13611858D01*
X54129000Y13611858D01*
X54807571Y14004715D02*
X54986142Y13254715D01*
X55129000Y13790429D01*
X55271857Y13254715D01*
X55450428Y14004715D01*
X47216666Y27440667D02*
X47216666Y27774000D01*
X47416666Y27374000D02*
X46716666Y27607334D01*
X47416666Y27840667D01*
X46716666Y28207334D02*
X46716666Y28340667D01*
X46750000Y28407334D01*
X46816666Y28474000D01*
X46950000Y28507334D01*
X47183333Y28507334D01*
X47316666Y28474000D01*
X47383333Y28407334D01*
X47416666Y28340667D01*
X47416666Y28207334D01*
X47383333Y28140667D01*
X47316666Y28074000D01*
X47183333Y28040667D01*
X46950000Y28040667D01*
X46816666Y28074000D01*
X46750000Y28140667D01*
X46716666Y28207334D01*
X46716666Y28740667D02*
X46716666Y29207334D01*
X47416666Y28740667D01*
X47416666Y29207334D01*
X46716666Y29774000D02*
X46716666Y29640667D01*
X46750000Y29574000D01*
X46783333Y29540667D01*
X46883333Y29474000D01*
X47016666Y29440667D01*
X47283333Y29440667D01*
X47350000Y29474000D01*
X47383333Y29507334D01*
X47416666Y29574000D01*
X47416666Y29707334D01*
X47383333Y29774000D01*
X47350000Y29807334D01*
X47283333Y29840667D01*
X47116666Y29840667D01*
X47050000Y29807334D01*
X47016666Y29774000D01*
X46983333Y29707334D01*
X46983333Y29574000D01*
X47016666Y29507334D01*
X47050000Y29474000D01*
X47116666Y29440667D01*
X46716666Y30440667D02*
X46716666Y30307334D01*
X46750000Y30240667D01*
X46783333Y30207334D01*
X46883333Y30140667D01*
X47016666Y30107334D01*
X47283333Y30107334D01*
X47350000Y30140667D01*
X47383333Y30174000D01*
X47416666Y30240667D01*
X47416666Y30374000D01*
X47383333Y30440667D01*
X47350000Y30474000D01*
X47283333Y30507334D01*
X47116666Y30507334D01*
X47050000Y30474000D01*
X47016666Y30440667D01*
X46983333Y30374000D01*
X46983333Y30240667D01*
X47016666Y30174000D01*
X47050000Y30140667D01*
X47116666Y30107334D01*
X46716666Y30940667D02*
X46716666Y31007334D01*
X46750000Y31074000D01*
X46783333Y31107334D01*
X46850000Y31140667D01*
X46983333Y31174000D01*
X47150000Y31174000D01*
X47283333Y31140667D01*
X47350000Y31107334D01*
X47383333Y31074000D01*
X47416666Y31007334D01*
X47416666Y30940667D01*
X47383333Y30874000D01*
X47350000Y30840667D01*
X47283333Y30807334D01*
X47150000Y30774000D01*
X46983333Y30774000D01*
X46850000Y30807334D01*
X46783333Y30840667D01*
X46750000Y30874000D01*
X46716666Y30940667D01*
X46716666Y31807334D02*
X46716666Y31474000D01*
X47050000Y31440667D01*
X47016666Y31474000D01*
X46983333Y31540667D01*
X46983333Y31707334D01*
X47016666Y31774000D01*
X47050000Y31807334D01*
X47116666Y31840667D01*
X47283333Y31840667D01*
X47350000Y31807334D01*
X47383333Y31774000D01*
X47416666Y31707334D01*
X47416666Y31540667D01*
X47383333Y31474000D01*
X47350000Y31440667D01*
X47416666Y32140667D02*
X46716666Y32140667D01*
X46716666Y32407334D01*
X46750000Y32474000D01*
X46783333Y32507334D01*
X46850000Y32540667D01*
X46950000Y32540667D01*
X47016666Y32507334D01*
X47050000Y32474000D01*
X47083333Y32407334D01*
X47083333Y32140667D01*
X47416666Y32840667D02*
X46716666Y32840667D01*
X47150000Y33174000D02*
X47150000Y33707334D01*
X47416666Y34407334D02*
X47416666Y34007334D01*
X47416666Y34207334D02*
X46716666Y34207334D01*
X46816666Y34140667D01*
X46883333Y34074000D01*
X46916666Y34007334D01*
X17527142Y39268000D02*
X17555714Y39353715D01*
X17584285Y39382286D01*
X17641428Y39410858D01*
X17727142Y39410858D01*
X17784285Y39382286D01*
X17812857Y39353715D01*
X17841428Y39296572D01*
X17841428Y39068000D01*
X17241428Y39068000D01*
X17241428Y39268000D01*
X17270000Y39325143D01*
X17298571Y39353715D01*
X17355714Y39382286D01*
X17412857Y39382286D01*
X17470000Y39353715D01*
X17498571Y39325143D01*
X17527142Y39268000D01*
X17527142Y39068000D01*
X17898571Y40068000D02*
X17870000Y40010858D01*
X17812857Y39953715D01*
X17727142Y39868000D01*
X17698571Y39810858D01*
X17698571Y39753715D01*
X17841428Y39782286D02*
X17812857Y39725143D01*
X17755714Y39668000D01*
X17641428Y39639429D01*
X17441428Y39639429D01*
X17327142Y39668000D01*
X17270000Y39725143D01*
X17241428Y39782286D01*
X17241428Y39896572D01*
X17270000Y39953715D01*
X17327142Y40010858D01*
X17441428Y40039429D01*
X17641428Y40039429D01*
X17755714Y40010858D01*
X17812857Y39953715D01*
X17841428Y39896572D01*
X17841428Y39782286D01*
X17298571Y40268000D02*
X17270000Y40296572D01*
X17241428Y40353715D01*
X17241428Y40496572D01*
X17270000Y40553715D01*
X17298571Y40582286D01*
X17355714Y40610858D01*
X17412857Y40610858D01*
X17498571Y40582286D01*
X17841428Y40239429D01*
X17841428Y40610858D01*
X17841428Y40896572D02*
X17841428Y41010858D01*
X17812857Y41068000D01*
X17784285Y41096572D01*
X17698571Y41153715D01*
X17584285Y41182286D01*
X17355714Y41182286D01*
X17298571Y41153715D01*
X17270000Y41125143D01*
X17241428Y41068000D01*
X17241428Y40953715D01*
X17270000Y40896572D01*
X17298571Y40868000D01*
X17355714Y40839429D01*
X17498571Y40839429D01*
X17555714Y40868000D01*
X17584285Y40896572D01*
X17612857Y40953715D01*
X17612857Y41068000D01*
X17584285Y41125143D01*
X17555714Y41153715D01*
X17498571Y41182286D01*
X17298571Y41410858D02*
X17270000Y41439429D01*
X17241428Y41496572D01*
X17241428Y41639429D01*
X17270000Y41696572D01*
X17298571Y41725143D01*
X17355714Y41753715D01*
X17412857Y41753715D01*
X17498571Y41725143D01*
X17841428Y41382286D01*
X17841428Y41753715D01*
X17241428Y42125143D02*
X17241428Y42182286D01*
X17270000Y42239429D01*
X17298571Y42268000D01*
X17355714Y42296572D01*
X17470000Y42325143D01*
X17612857Y42325143D01*
X17727142Y42296572D01*
X17784285Y42268000D01*
X17812857Y42239429D01*
X17841428Y42182286D01*
X17841428Y42125143D01*
X17812857Y42068000D01*
X17784285Y42039429D01*
X17727142Y42010858D01*
X17612857Y41982286D01*
X17470000Y41982286D01*
X17355714Y42010858D01*
X17298571Y42039429D01*
X17270000Y42068000D01*
X17241428Y42125143D01*
X17841428Y42610858D02*
X17841428Y42725143D01*
X17812857Y42782286D01*
X17784285Y42810858D01*
X17698571Y42868000D01*
X17584285Y42896572D01*
X17355714Y42896572D01*
X17298571Y42868000D01*
X17270000Y42839429D01*
X17241428Y42782286D01*
X17241428Y42668000D01*
X17270000Y42610858D01*
X17298571Y42582286D01*
X17355714Y42553715D01*
X17498571Y42553715D01*
X17555714Y42582286D01*
X17584285Y42610858D01*
X17612857Y42668000D01*
X17612857Y42782286D01*
X17584285Y42839429D01*
X17555714Y42868000D01*
X17498571Y42896572D01*
X17841428Y43153715D02*
X17241428Y43153715D01*
X17241428Y43296572D01*
X17270000Y43382286D01*
X17327142Y43439429D01*
X17384285Y43468000D01*
X17498571Y43496572D01*
X17584285Y43496572D01*
X17698571Y43468000D01*
X17755714Y43439429D01*
X17812857Y43382286D01*
X17841428Y43296572D01*
X17841428Y43153715D01*
X17841428Y44096572D02*
X17555714Y43896572D01*
X17841428Y43753715D02*
X17241428Y43753715D01*
X17241428Y43982286D01*
X17270000Y44039429D01*
X17298571Y44068000D01*
X17355714Y44096572D01*
X17441428Y44096572D01*
X17498571Y44068000D01*
X17527142Y44039429D01*
X17555714Y43982286D01*
X17555714Y43753715D01*
X17527142Y44553715D02*
X17555714Y44639429D01*
X17584285Y44668000D01*
X17641428Y44696572D01*
X17727142Y44696572D01*
X17784285Y44668000D01*
X17812857Y44639429D01*
X17841428Y44582286D01*
X17841428Y44353715D01*
X17241428Y44353715D01*
X17241428Y44553715D01*
X17270000Y44610858D01*
X17298571Y44639429D01*
X17355714Y44668000D01*
X17412857Y44668000D01*
X17470000Y44639429D01*
X17498571Y44610858D01*
X17527142Y44553715D01*
X17527142Y44353715D01*
X17841428Y45296572D02*
X17555714Y45096572D01*
X17841428Y44953715D02*
X17241428Y44953715D01*
X17241428Y45182286D01*
X17270000Y45239429D01*
X17298571Y45268000D01*
X17355714Y45296572D01*
X17441428Y45296572D01*
X17498571Y45268000D01*
X17527142Y45239429D01*
X17555714Y45182286D01*
X17555714Y44953715D01*
X15962380Y44738000D02*
X16200476Y44738000D01*
X16105238Y44499905D02*
X16200476Y44738000D01*
X16105238Y44976096D01*
X16390952Y44595143D02*
X16200476Y44738000D01*
X16390952Y44880858D01*
X26117666Y34166334D02*
X25417666Y34166334D01*
X25917666Y34399667D01*
X25417666Y34633000D01*
X26117666Y34633000D01*
X26051000Y35366334D02*
X26084333Y35333000D01*
X26117666Y35233000D01*
X26117666Y35166334D01*
X26084333Y35066334D01*
X26017666Y34999667D01*
X25951000Y34966334D01*
X25817666Y34933000D01*
X25717666Y34933000D01*
X25584333Y34966334D01*
X25517666Y34999667D01*
X25451000Y35066334D01*
X25417666Y35166334D01*
X25417666Y35233000D01*
X25451000Y35333000D01*
X25484333Y35366334D01*
X26117666Y35666334D02*
X25417666Y35666334D01*
X25417666Y35933000D01*
X25451000Y35999667D01*
X25484333Y36033000D01*
X25551000Y36066334D01*
X25651000Y36066334D01*
X25717666Y36033000D01*
X25751000Y35999667D01*
X25784333Y35933000D01*
X25784333Y35666334D01*
X25417666Y36299667D02*
X25417666Y36733000D01*
X25684333Y36499667D01*
X25684333Y36599667D01*
X25717666Y36666334D01*
X25751000Y36699667D01*
X25817666Y36733000D01*
X25984333Y36733000D01*
X26051000Y36699667D01*
X26084333Y36666334D01*
X26117666Y36599667D01*
X26117666Y36399667D01*
X26084333Y36333000D01*
X26051000Y36299667D01*
X25417666Y37166334D02*
X25417666Y37233000D01*
X25451000Y37299667D01*
X25484333Y37333000D01*
X25551000Y37366334D01*
X25684333Y37399667D01*
X25851000Y37399667D01*
X25984333Y37366334D01*
X26051000Y37333000D01*
X26084333Y37299667D01*
X26117666Y37233000D01*
X26117666Y37166334D01*
X26084333Y37099667D01*
X26051000Y37066334D01*
X25984333Y37033000D01*
X25851000Y36999667D01*
X25684333Y36999667D01*
X25551000Y37033000D01*
X25484333Y37066334D01*
X25451000Y37099667D01*
X25417666Y37166334D01*
X25484333Y37666334D02*
X25451000Y37699667D01*
X25417666Y37766334D01*
X25417666Y37933000D01*
X25451000Y37999667D01*
X25484333Y38033000D01*
X25551000Y38066334D01*
X25617666Y38066334D01*
X25717666Y38033000D01*
X26117666Y37633000D01*
X26117666Y38066334D01*
X26117666Y38733000D02*
X26117666Y38333000D01*
X26117666Y38533000D02*
X25417666Y38533000D01*
X25517666Y38466334D01*
X25584333Y38399667D01*
X25617666Y38333000D01*
X41230666Y26081334D02*
X40897333Y26081334D01*
X40897333Y26781334D01*
X41397333Y26781334D02*
X41830666Y26781334D01*
X41597333Y26514667D01*
X41697333Y26514667D01*
X41764000Y26481334D01*
X41797333Y26448000D01*
X41830666Y26381334D01*
X41830666Y26214667D01*
X41797333Y26148000D01*
X41764000Y26114667D01*
X41697333Y26081334D01*
X41497333Y26081334D01*
X41430666Y26114667D01*
X41397333Y26148000D01*
X42264000Y26781334D02*
X42330666Y26781334D01*
X42397333Y26748000D01*
X42430666Y26714667D01*
X42464000Y26648000D01*
X42497333Y26514667D01*
X42497333Y26348000D01*
X42464000Y26214667D01*
X42430666Y26148000D01*
X42397333Y26114667D01*
X42330666Y26081334D01*
X42264000Y26081334D01*
X42197333Y26114667D01*
X42164000Y26148000D01*
X42130666Y26214667D01*
X42097333Y26348000D01*
X42097333Y26514667D01*
X42130666Y26648000D01*
X42164000Y26714667D01*
X42197333Y26748000D01*
X42264000Y26781334D01*
X43164000Y26081334D02*
X42764000Y26081334D01*
X42964000Y26081334D02*
X42964000Y26781334D01*
X42897333Y26681334D01*
X42830666Y26614667D01*
X42764000Y26581334D01*
X37549333Y26877334D02*
X37982666Y26877334D01*
X37749333Y26610667D01*
X37849333Y26610667D01*
X37916000Y26577334D01*
X37949333Y26544000D01*
X37982666Y26477334D01*
X37982666Y26310667D01*
X37949333Y26244000D01*
X37916000Y26210667D01*
X37849333Y26177334D01*
X37649333Y26177334D01*
X37582666Y26210667D01*
X37549333Y26244000D01*
X38282666Y26244000D02*
X38316000Y26210667D01*
X38282666Y26177334D01*
X38249333Y26210667D01*
X38282666Y26244000D01*
X38282666Y26177334D01*
X38549333Y26877334D02*
X38982666Y26877334D01*
X38749333Y26610667D01*
X38849333Y26610667D01*
X38916000Y26577334D01*
X38949333Y26544000D01*
X38982666Y26477334D01*
X38982666Y26310667D01*
X38949333Y26244000D01*
X38916000Y26210667D01*
X38849333Y26177334D01*
X38649333Y26177334D01*
X38582666Y26210667D01*
X38549333Y26244000D01*
X39582666Y26644000D02*
X39582666Y26177334D01*
X39282666Y26644000D02*
X39282666Y26277334D01*
X39316000Y26210667D01*
X39382666Y26177334D01*
X39482666Y26177334D01*
X39549333Y26210667D01*
X39582666Y26244000D01*
X39916000Y26177334D02*
X39916000Y26877334D01*
X39916000Y26544000D02*
X40316000Y26544000D01*
X40316000Y26177334D02*
X40316000Y26877334D01*
X24733333Y45483334D02*
X25166666Y45483334D01*
X24933333Y45216667D01*
X25033333Y45216667D01*
X25100000Y45183334D01*
X25133333Y45150000D01*
X25166666Y45083334D01*
X25166666Y44916667D01*
X25133333Y44850000D01*
X25100000Y44816667D01*
X25033333Y44783334D01*
X24833333Y44783334D01*
X24766666Y44816667D01*
X24733333Y44850000D01*
X25600000Y45483334D02*
X25666666Y45483334D01*
X25733333Y45450000D01*
X25766666Y45416667D01*
X25800000Y45350000D01*
X25833333Y45216667D01*
X25833333Y45050000D01*
X25800000Y44916667D01*
X25766666Y44850000D01*
X25733333Y44816667D01*
X25666666Y44783334D01*
X25600000Y44783334D01*
X25533333Y44816667D01*
X25500000Y44850000D01*
X25466666Y44916667D01*
X25433333Y45050000D01*
X25433333Y45216667D01*
X25466666Y45350000D01*
X25500000Y45416667D01*
X25533333Y45450000D01*
X25600000Y45483334D01*
X26033333Y45483334D02*
X26266666Y44783334D01*
X26500000Y45483334D01*
X27633333Y44783334D02*
X27233333Y44783334D01*
X27433333Y44783334D02*
X27433333Y45483334D01*
X27366666Y45383334D01*
X27300000Y45316667D01*
X27233333Y45283334D01*
X27900000Y44983334D02*
X28233333Y44983334D01*
X27833333Y44783334D02*
X28066666Y45483334D01*
X28300000Y44783334D01*
X43850000Y37316667D02*
X43883333Y37283334D01*
X43916666Y37183334D01*
X43916666Y37116667D01*
X43883333Y37016667D01*
X43816666Y36950000D01*
X43750000Y36916667D01*
X43616666Y36883334D01*
X43516666Y36883334D01*
X43383333Y36916667D01*
X43316666Y36950000D01*
X43250000Y37016667D01*
X43216666Y37116667D01*
X43216666Y37183334D01*
X43250000Y37283334D01*
X43283333Y37316667D01*
X43216666Y37550000D02*
X43216666Y37983334D01*
X43483333Y37750000D01*
X43483333Y37850000D01*
X43516666Y37916667D01*
X43550000Y37950000D01*
X43616666Y37983334D01*
X43783333Y37983334D01*
X43850000Y37950000D01*
X43883333Y37916667D01*
X43916666Y37850000D01*
X43916666Y37650000D01*
X43883333Y37583334D01*
X43850000Y37550000D01*
X43916666Y38650000D02*
X43916666Y38250000D01*
X43916666Y38450000D02*
X43216666Y38450000D01*
X43316666Y38383334D01*
X43383333Y38316667D01*
X43416666Y38250000D01*
X43283333Y38916667D02*
X43250000Y38950000D01*
X43216666Y39016667D01*
X43216666Y39183334D01*
X43250000Y39250000D01*
X43283333Y39283334D01*
X43350000Y39316667D01*
X43416666Y39316667D01*
X43516666Y39283334D01*
X43916666Y38883334D01*
X43916666Y39316667D01*
X38183333Y36150000D02*
X38183333Y35683334D01*
X38016666Y36416667D02*
X37850000Y35916667D01*
X38283333Y35916667D01*
X38483333Y36383334D02*
X38950000Y36383334D01*
X38650000Y35683334D01*
X39516666Y36150000D02*
X39516666Y35683334D01*
X39216666Y36150000D02*
X39216666Y35783334D01*
X39250000Y35716667D01*
X39316666Y35683334D01*
X39416666Y35683334D01*
X39483333Y35716667D01*
X39516666Y35750000D01*
X40083333Y36050000D02*
X39850000Y36050000D01*
X39850000Y35683334D02*
X39850000Y36383334D01*
X40183333Y36383334D01*
X38982047Y35005572D02*
X39743952Y35005572D01*
X39363000Y34624620D02*
X39363000Y35386524D01*
X53380000Y8603334D02*
X52980000Y8603334D01*
X53180000Y8603334D02*
X53180000Y9303334D01*
X53113333Y9203334D01*
X53046666Y9136667D01*
X52980000Y9103334D01*
X53813333Y9303334D02*
X53880000Y9303334D01*
X53946666Y9270000D01*
X53980000Y9236667D01*
X54013333Y9170000D01*
X54046666Y9036667D01*
X54046666Y8870000D01*
X54013333Y8736667D01*
X53980000Y8670000D01*
X53946666Y8636667D01*
X53880000Y8603334D01*
X53813333Y8603334D01*
X53746666Y8636667D01*
X53713333Y8670000D01*
X53680000Y8736667D01*
X53646666Y8870000D01*
X53646666Y9036667D01*
X53680000Y9170000D01*
X53713333Y9236667D01*
X53746666Y9270000D01*
X53813333Y9303334D01*
X54646666Y9070000D02*
X54646666Y8603334D01*
X54346666Y9070000D02*
X54346666Y8703334D01*
X54380000Y8636667D01*
X54446666Y8603334D01*
X54546666Y8603334D01*
X54613333Y8636667D01*
X54646666Y8670000D01*
X55213333Y8970000D02*
X54980000Y8970000D01*
X54980000Y8603334D02*
X54980000Y9303334D01*
X55313333Y9303334D01*
X52956666Y7023334D02*
X52556666Y7023334D01*
X52756666Y7023334D02*
X52756666Y7723334D01*
X52690000Y7623334D01*
X52623333Y7556667D01*
X52556666Y7523334D01*
X53390000Y7723334D02*
X53456666Y7723334D01*
X53523333Y7690000D01*
X53556666Y7656667D01*
X53590000Y7590000D01*
X53623333Y7456667D01*
X53623333Y7290000D01*
X53590000Y7156667D01*
X53556666Y7090000D01*
X53523333Y7056667D01*
X53456666Y7023334D01*
X53390000Y7023334D01*
X53323333Y7056667D01*
X53290000Y7090000D01*
X53256666Y7156667D01*
X53223333Y7290000D01*
X53223333Y7456667D01*
X53256666Y7590000D01*
X53290000Y7656667D01*
X53323333Y7690000D01*
X53390000Y7723334D01*
X54056666Y7723334D02*
X54123333Y7723334D01*
X54190000Y7690000D01*
X54223333Y7656667D01*
X54256666Y7590000D01*
X54290000Y7456667D01*
X54290000Y7290000D01*
X54256666Y7156667D01*
X54223333Y7090000D01*
X54190000Y7056667D01*
X54123333Y7023334D01*
X54056666Y7023334D01*
X53990000Y7056667D01*
X53956666Y7090000D01*
X53923333Y7156667D01*
X53890000Y7290000D01*
X53890000Y7456667D01*
X53923333Y7590000D01*
X53956666Y7656667D01*
X53990000Y7690000D01*
X54056666Y7723334D01*
X54590000Y7490000D02*
X54590000Y7023334D01*
X54590000Y7423334D02*
X54623333Y7456667D01*
X54690000Y7490000D01*
X54790000Y7490000D01*
X54856666Y7456667D01*
X54890000Y7390000D01*
X54890000Y7023334D01*
X55456666Y7390000D02*
X55223333Y7390000D01*
X55223333Y7023334D02*
X55223333Y7723334D01*
X55556666Y7723334D01*
X11392666Y7397334D02*
X11392666Y8097334D01*
X11659333Y8097334D01*
X11726000Y8064000D01*
X11759333Y8030667D01*
X11792666Y7964000D01*
X11792666Y7864000D01*
X11759333Y7797334D01*
X11726000Y7764000D01*
X11659333Y7730667D01*
X11392666Y7730667D01*
X12026000Y8097334D02*
X12192666Y7397334D01*
X12326000Y7897334D01*
X12459333Y7397334D01*
X12626000Y8097334D01*
X13292666Y7397334D02*
X13059333Y7730667D01*
X12892666Y7397334D02*
X12892666Y8097334D01*
X13159333Y8097334D01*
X13226000Y8064000D01*
X13259333Y8030667D01*
X13292666Y7964000D01*
X13292666Y7864000D01*
X13259333Y7797334D01*
X13226000Y7764000D01*
X13159333Y7730667D01*
X12892666Y7730667D01*
X54981380Y25896381D02*
X54981380Y25991620D01*
X55029000Y26086858D01*
X55076619Y26134477D01*
X55171857Y26182096D01*
X55362333Y26229715D01*
X55600428Y26229715D01*
X55790904Y26182096D01*
X55886142Y26134477D01*
X55933761Y26086858D01*
X55981380Y25991620D01*
X55981380Y25896381D01*
X55933761Y25801143D01*
X55886142Y25753524D01*
X55790904Y25705905D01*
X55600428Y25658286D01*
X55362333Y25658286D01*
X55171857Y25705905D01*
X55076619Y25753524D01*
X55029000Y25801143D01*
X54981380Y25896381D01*
X55981380Y28669715D02*
X55981380Y28098286D01*
X55981380Y28384000D02*
X54981380Y28384000D01*
X55124238Y28288762D01*
X55219476Y28193524D01*
X55267095Y28098286D01*
X55066619Y30892286D02*
X55019000Y30939905D01*
X54971380Y31035143D01*
X54971380Y31273239D01*
X55019000Y31368477D01*
X55066619Y31416096D01*
X55161857Y31463715D01*
X55257095Y31463715D01*
X55399952Y31416096D01*
X55971380Y30844667D01*
X55971380Y31463715D01*
X54971380Y33230667D02*
X54971380Y33849715D01*
X55352333Y33516381D01*
X55352333Y33659239D01*
X55399952Y33754477D01*
X55447571Y33802096D01*
X55542809Y33849715D01*
X55780904Y33849715D01*
X55876142Y33802096D01*
X55923761Y33754477D01*
X55971380Y33659239D01*
X55971380Y33373524D01*
X55923761Y33278286D01*
X55876142Y33230667D01*
X58800000Y16703334D02*
X59133333Y16703334D01*
X58733333Y16503334D02*
X58966666Y17203334D01*
X59200000Y16503334D01*
X59566666Y17203334D02*
X59633333Y17203334D01*
X59700000Y17170000D01*
X59733333Y17136667D01*
X59766666Y17070000D01*
X59800000Y16936667D01*
X59800000Y16770000D01*
X59766666Y16636667D01*
X59733333Y16570000D01*
X59700000Y16536667D01*
X59633333Y16503334D01*
X59566666Y16503334D01*
X59500000Y16536667D01*
X59466666Y16570000D01*
X59433333Y16636667D01*
X59400000Y16770000D01*
X59400000Y16936667D01*
X59433333Y17070000D01*
X59466666Y17136667D01*
X59500000Y17170000D01*
X59566666Y17203334D01*
M02*
