M48
; DRILL file {KiCad (5.1.4)-1} date 27/11/2019 12:40:17 AM
; FORMAT={-:-/ absolute / metric / decimal}
; #@! TF.CreationDate,2019-11-27T00:40:17+11:00
; #@! TF.GenerationSoftware,Kicad,Pcbnew,(5.1.4)-1
; #@! TF.FileFunction,Plated,1,2,PTH
FMAT,2
METRIC
T1C0.300
T2C0.400
T3C0.650
T4C0.762
T5C1.000
T6C1.100
T7C2.000
%
G90
G05
T1
X6.35Y2.14
X9.54Y45.42
X12.02Y31.75
X12.97Y16.55
X12.97Y14.55
X13.13Y26.27
X13.47Y17.55
X13.47Y15.55
X13.97Y16.55
X13.97Y14.55
X14.47Y17.55
X14.965Y47.54
X14.97Y16.55
X15.47Y23.8
X15.47Y17.55
X15.62Y44.12
X17.81Y43.7
X20.22Y32.05
X21.513Y38.337
X23.22Y21.05
X23.22Y19.05
X23.25Y45.86
X23.72Y20.05
X23.72Y18.05
X24.22Y21.05
X24.22Y19.05
X24.72Y20.05
X24.72Y18.05
X24.72Y15.05
X25.22Y21.05
X25.22Y19.05
X25.72Y20.05
X25.72Y18.05
X25.72Y15.05
X26.22Y21.05
X26.22Y19.05
X26.72Y20.05
X26.72Y18.05
X26.72Y15.05
X27.13Y45.88
X27.22Y21.05
X27.22Y19.05
X27.32Y48.1
X27.72Y20.05
X27.72Y18.05
X27.72Y15.05
X31.22Y26.94
X32.09Y46.71
X32.22Y11.8
X32.52Y45.24
X33.57Y40.94
X33.58Y42.27
X34.19Y38.39
X34.22Y12.55
X34.72Y13.55
X34.72Y11.55
X35.22Y12.55
X35.67Y17.1
X35.72Y13.55
X35.72Y11.55
X36.22Y12.55
X36.47Y21.05
X36.72Y13.55
X36.72Y11.55
X36.87Y46.09
X37.22Y17.3
X37.22Y12.55
X37.78Y41.66
X38.77Y18.02
X39.37Y24.58
X41.82Y18.2
X41.87Y29.27
X41.9Y20.41
X42.66Y41.73
X43.01Y23.08
X43.43Y40.94
X43.77Y39.37
X44.12Y25.51
X44.13Y27.14
X44.13Y26.3
X44.47Y48.55
X44.54Y21.75
X45.04Y25.51
X45.06Y27.15
X45.06Y26.28
X45.97Y48.5
X47.07Y29.28
X47.314Y26.824
X48.0Y39.37
X48.54Y19.36
X54.13Y32.03
X54.46Y7.61
X56.31Y34.97
X57.68Y7.61
X59.98Y27.26
X62.62Y12.17
T2
X6.39Y33.11
X7.26Y47.83
X10.73Y29.09
X13.35Y42.45
X15.44Y41.64
X15.75Y33.08
X18.7Y34.85
X18.73Y41.69
X25.15Y50.32
X27.64Y32.38
X28.58Y38.37
X35.65Y30.22
X43.16Y43.53
X45.43Y35.32
T3
X38.476Y12.36
X39.746Y12.36
T4
X51.59Y47.39
X51.59Y44.85
X51.59Y42.32
X51.59Y39.78
T5
X1.855Y17.544
X4.395Y17.544
X6.935Y17.544
X49.98Y3.544
X52.48Y3.544
X54.98Y3.544
X1.855Y15.004
X4.395Y15.004
X6.935Y15.004
X3.76Y46.42
X3.76Y43.88
X3.76Y41.34
X25.318Y34.978
X27.858Y34.978
X30.398Y34.978
X32.938Y34.978
X35.478Y34.978
X38.018Y34.978
X40.558Y34.978
X43.098Y34.978
X1.865Y12.464
X4.405Y12.464
X6.945Y12.464
X53.77Y24.14
X57.17Y18.34
X60.07Y21.14
X8.55Y54.244
X8.55Y51.704
X11.09Y54.244
X11.09Y51.704
X13.63Y54.244
X13.63Y51.704
X16.17Y54.244
X16.17Y51.704
X18.71Y54.244
X18.71Y51.704
X21.25Y54.244
X21.25Y51.704
X23.79Y54.244
X23.79Y51.704
X26.33Y54.244
X26.33Y51.704
X28.87Y54.244
X28.87Y51.704
X31.41Y54.244
X31.41Y51.704
X33.95Y54.244
X33.95Y51.704
X36.49Y54.244
X36.49Y51.704
X39.03Y54.244
X39.03Y51.704
X41.57Y54.244
X41.57Y51.704
X44.11Y54.244
X44.11Y51.704
X46.65Y54.244
X46.65Y51.704
X49.19Y54.244
X49.19Y51.704
X51.73Y54.244
X51.73Y51.704
X54.27Y54.244
X54.27Y51.704
X56.81Y54.244
X56.81Y51.704
X1.865Y9.924
X4.405Y9.924
X6.945Y9.924
T6
X56.35Y46.01
X56.35Y41.51
X62.85Y46.01
X62.85Y41.51
T7
X36.04Y4.844
X41.12Y4.844
X23.337Y4.844
X28.417Y4.844
X10.634Y4.844
X15.714Y4.844
T0
M30
