G04 #@! TF.GenerationSoftware,KiCad,Pcbnew,(5.1.4)-1*
G04 #@! TF.CreationDate,2019-11-04T18:42:31+11:00*
G04 #@! TF.ProjectId,dingo-hat,64696e67-6f2d-4686-9174-2e6b69636164,rev?*
G04 #@! TF.SameCoordinates,Original*
G04 #@! TF.FileFunction,Soldermask,Bot*
G04 #@! TF.FilePolarity,Negative*
%FSLAX46Y46*%
G04 Gerber Fmt 4.6, Leading zero omitted, Abs format (unit mm)*
G04 Created by KiCad (PCBNEW (5.1.4)-1) date 2019-11-04 18:42:31*
%MOMM*%
%LPD*%
G04 APERTURE LIST*
%ADD10C,0.200000*%
%ADD11C,0.010000*%
%ADD12C,0.100000*%
G04 APERTURE END LIST*
D10*
X124530000Y-113300000D02*
G75*
G02X122530000Y-113300000I-1000000J0D01*
G01*
X79530000Y-80800000D02*
G75*
G02X78530000Y-79800000I0J1000000D01*
G01*
X122530000Y-98300000D02*
X122530000Y-113300000D01*
X122530000Y-98300000D02*
G75*
G02X124530000Y-98300000I1000000J0D01*
G01*
X82530000Y-80800000D02*
G75*
G02X83530000Y-81800000I125000J-875000D01*
G01*
X124530000Y-98300000D02*
X124530000Y-113300000D01*
X83530000Y-96800000D02*
X83530000Y-81800000D01*
X79530000Y-80800000D02*
X82530000Y-80800000D01*
X79530000Y-97800000D02*
X82530000Y-97800000D01*
X78530000Y-63800000D02*
G75*
G02X81530000Y-60800000I3000000J0D01*
G01*
X140530000Y-60800000D02*
X81530000Y-60800000D01*
X78530000Y-98800000D02*
X78530000Y-114300000D01*
X78530000Y-98800000D02*
G75*
G02X79530000Y-97800000I1000000J0D01*
G01*
X140530000Y-60800000D02*
G75*
G02X143530000Y-63800000I0J-3000000D01*
G01*
X81530000Y-117300000D02*
X140530000Y-117300000D01*
X78530000Y-63800000D02*
X78530000Y-79800000D01*
X81530000Y-117300000D02*
G75*
G02X78530000Y-114300000I0J3000000D01*
G01*
X83530000Y-96800000D02*
G75*
G02X82530000Y-97800000I-875000J-125000D01*
G01*
X143530000Y-114300000D02*
X143530000Y-63800000D01*
X143530000Y-114300000D02*
G75*
G02X140530000Y-117300000I-3000000J0D01*
G01*
D11*
G36*
X119679045Y-80392850D02*
G01*
X119676900Y-81605700D01*
X118929717Y-81607862D01*
X118182533Y-81610025D01*
X118182533Y-81762333D01*
X119858933Y-81762333D01*
X119858933Y-79180000D01*
X119681191Y-79180000D01*
X119679045Y-80392850D01*
X119679045Y-80392850D01*
G37*
X119679045Y-80392850D02*
X119676900Y-81605700D01*
X118929717Y-81607862D01*
X118182533Y-81610025D01*
X118182533Y-81762333D01*
X119858933Y-81762333D01*
X119858933Y-79180000D01*
X119681191Y-79180000D01*
X119679045Y-80392850D01*
G36*
X95867975Y-80467766D02*
G01*
X95803785Y-80607404D01*
X95741503Y-80742912D01*
X95681496Y-80873485D01*
X95624134Y-80998322D01*
X95569784Y-81116621D01*
X95518816Y-81227578D01*
X95471597Y-81330392D01*
X95428497Y-81424259D01*
X95389884Y-81508378D01*
X95356125Y-81581945D01*
X95327591Y-81644159D01*
X95304648Y-81694216D01*
X95287667Y-81731315D01*
X95277014Y-81754653D01*
X95273059Y-81763427D01*
X95273049Y-81763451D01*
X95279710Y-81766691D01*
X95300933Y-81768719D01*
X95334383Y-81769393D01*
X95364419Y-81768968D01*
X95458705Y-81766566D01*
X95618762Y-81415200D01*
X95651875Y-81342612D01*
X95683066Y-81274443D01*
X95711587Y-81212308D01*
X95736694Y-81157823D01*
X95757639Y-81112604D01*
X95773678Y-81078267D01*
X95784063Y-81056427D01*
X95787814Y-81049017D01*
X95790118Y-81046451D01*
X95794411Y-81044199D01*
X95801738Y-81042240D01*
X95813142Y-81040554D01*
X95829666Y-81039120D01*
X95852356Y-81037919D01*
X95882254Y-81036929D01*
X95920405Y-81036131D01*
X95967852Y-81035504D01*
X96025639Y-81035028D01*
X96094809Y-81034683D01*
X96176408Y-81034448D01*
X96271478Y-81034303D01*
X96381063Y-81034227D01*
X96506207Y-81034201D01*
X96549235Y-81034200D01*
X96684304Y-81034244D01*
X96803336Y-81034386D01*
X96907229Y-81034637D01*
X96996878Y-81035011D01*
X97073182Y-81035521D01*
X97137036Y-81036178D01*
X97189338Y-81036995D01*
X97230983Y-81037986D01*
X97262869Y-81039163D01*
X97285893Y-81040539D01*
X97300951Y-81042125D01*
X97308940Y-81043936D01*
X97310587Y-81044957D01*
X97315808Y-81054676D01*
X97327229Y-81078257D01*
X97344117Y-81114113D01*
X97365739Y-81160657D01*
X97391360Y-81216303D01*
X97420245Y-81279464D01*
X97451662Y-81348555D01*
X97479982Y-81411140D01*
X97640448Y-81766566D01*
X97731344Y-81768980D01*
X97771399Y-81769843D01*
X97797283Y-81769610D01*
X97811746Y-81767869D01*
X97817534Y-81764214D01*
X97817398Y-81758236D01*
X97816742Y-81756280D01*
X97812673Y-81747051D01*
X97801924Y-81723238D01*
X97784867Y-81685652D01*
X97761871Y-81635105D01*
X97733308Y-81572409D01*
X97699548Y-81498376D01*
X97660961Y-81413816D01*
X97617919Y-81319543D01*
X97570791Y-81216367D01*
X97519949Y-81105100D01*
X97465762Y-80986554D01*
X97418332Y-80882821D01*
X97231135Y-80882821D01*
X97222048Y-80884175D01*
X97197581Y-80885391D01*
X97159286Y-80886471D01*
X97108715Y-80887416D01*
X97047421Y-80888225D01*
X96976956Y-80888899D01*
X96898873Y-80889440D01*
X96814723Y-80889848D01*
X96726060Y-80890123D01*
X96634436Y-80890267D01*
X96541402Y-80890279D01*
X96448512Y-80890162D01*
X96357318Y-80889914D01*
X96269372Y-80889537D01*
X96186226Y-80889032D01*
X96109434Y-80888400D01*
X96040547Y-80887640D01*
X95981117Y-80886754D01*
X95932698Y-80885743D01*
X95896841Y-80884606D01*
X95875100Y-80883345D01*
X95868897Y-80882226D01*
X95871649Y-80873642D01*
X95880881Y-80850952D01*
X95896012Y-80815441D01*
X95916462Y-80768394D01*
X95941647Y-80711096D01*
X95970988Y-80644832D01*
X96003903Y-80570886D01*
X96039810Y-80490545D01*
X96078129Y-80405092D01*
X96118277Y-80315812D01*
X96159675Y-80223991D01*
X96201740Y-80130913D01*
X96243891Y-80037863D01*
X96285547Y-79946126D01*
X96326127Y-79856988D01*
X96365049Y-79771732D01*
X96401732Y-79691644D01*
X96435595Y-79618009D01*
X96466057Y-79552111D01*
X96492536Y-79495236D01*
X96514450Y-79448668D01*
X96531220Y-79413692D01*
X96542262Y-79391594D01*
X96546753Y-79383850D01*
X96555863Y-79377325D01*
X96562601Y-79384392D01*
X96565969Y-79392317D01*
X96570549Y-79402848D01*
X96581619Y-79427703D01*
X96598682Y-79465783D01*
X96621243Y-79515987D01*
X96648805Y-79577214D01*
X96680873Y-79648364D01*
X96716950Y-79728336D01*
X96756541Y-79816031D01*
X96799148Y-79910347D01*
X96844277Y-80010184D01*
X96891431Y-80114442D01*
X96904852Y-80144105D01*
X96952240Y-80249017D01*
X96997504Y-80349580D01*
X97040168Y-80444720D01*
X97079760Y-80533363D01*
X97115804Y-80614437D01*
X97147826Y-80686866D01*
X97175353Y-80749578D01*
X97197909Y-80801498D01*
X97215021Y-80841554D01*
X97226215Y-80868671D01*
X97231016Y-80881777D01*
X97231135Y-80882821D01*
X97418332Y-80882821D01*
X97408602Y-80861541D01*
X97348839Y-80730872D01*
X97286844Y-80595358D01*
X97225173Y-80460589D01*
X96639100Y-79180011D01*
X96549542Y-79180005D01*
X96459984Y-79180000D01*
X95867975Y-80467766D01*
X95867975Y-80467766D01*
G37*
X95867975Y-80467766D02*
X95803785Y-80607404D01*
X95741503Y-80742912D01*
X95681496Y-80873485D01*
X95624134Y-80998322D01*
X95569784Y-81116621D01*
X95518816Y-81227578D01*
X95471597Y-81330392D01*
X95428497Y-81424259D01*
X95389884Y-81508378D01*
X95356125Y-81581945D01*
X95327591Y-81644159D01*
X95304648Y-81694216D01*
X95287667Y-81731315D01*
X95277014Y-81754653D01*
X95273059Y-81763427D01*
X95273049Y-81763451D01*
X95279710Y-81766691D01*
X95300933Y-81768719D01*
X95334383Y-81769393D01*
X95364419Y-81768968D01*
X95458705Y-81766566D01*
X95618762Y-81415200D01*
X95651875Y-81342612D01*
X95683066Y-81274443D01*
X95711587Y-81212308D01*
X95736694Y-81157823D01*
X95757639Y-81112604D01*
X95773678Y-81078267D01*
X95784063Y-81056427D01*
X95787814Y-81049017D01*
X95790118Y-81046451D01*
X95794411Y-81044199D01*
X95801738Y-81042240D01*
X95813142Y-81040554D01*
X95829666Y-81039120D01*
X95852356Y-81037919D01*
X95882254Y-81036929D01*
X95920405Y-81036131D01*
X95967852Y-81035504D01*
X96025639Y-81035028D01*
X96094809Y-81034683D01*
X96176408Y-81034448D01*
X96271478Y-81034303D01*
X96381063Y-81034227D01*
X96506207Y-81034201D01*
X96549235Y-81034200D01*
X96684304Y-81034244D01*
X96803336Y-81034386D01*
X96907229Y-81034637D01*
X96996878Y-81035011D01*
X97073182Y-81035521D01*
X97137036Y-81036178D01*
X97189338Y-81036995D01*
X97230983Y-81037986D01*
X97262869Y-81039163D01*
X97285893Y-81040539D01*
X97300951Y-81042125D01*
X97308940Y-81043936D01*
X97310587Y-81044957D01*
X97315808Y-81054676D01*
X97327229Y-81078257D01*
X97344117Y-81114113D01*
X97365739Y-81160657D01*
X97391360Y-81216303D01*
X97420245Y-81279464D01*
X97451662Y-81348555D01*
X97479982Y-81411140D01*
X97640448Y-81766566D01*
X97731344Y-81768980D01*
X97771399Y-81769843D01*
X97797283Y-81769610D01*
X97811746Y-81767869D01*
X97817534Y-81764214D01*
X97817398Y-81758236D01*
X97816742Y-81756280D01*
X97812673Y-81747051D01*
X97801924Y-81723238D01*
X97784867Y-81685652D01*
X97761871Y-81635105D01*
X97733308Y-81572409D01*
X97699548Y-81498376D01*
X97660961Y-81413816D01*
X97617919Y-81319543D01*
X97570791Y-81216367D01*
X97519949Y-81105100D01*
X97465762Y-80986554D01*
X97418332Y-80882821D01*
X97231135Y-80882821D01*
X97222048Y-80884175D01*
X97197581Y-80885391D01*
X97159286Y-80886471D01*
X97108715Y-80887416D01*
X97047421Y-80888225D01*
X96976956Y-80888899D01*
X96898873Y-80889440D01*
X96814723Y-80889848D01*
X96726060Y-80890123D01*
X96634436Y-80890267D01*
X96541402Y-80890279D01*
X96448512Y-80890162D01*
X96357318Y-80889914D01*
X96269372Y-80889537D01*
X96186226Y-80889032D01*
X96109434Y-80888400D01*
X96040547Y-80887640D01*
X95981117Y-80886754D01*
X95932698Y-80885743D01*
X95896841Y-80884606D01*
X95875100Y-80883345D01*
X95868897Y-80882226D01*
X95871649Y-80873642D01*
X95880881Y-80850952D01*
X95896012Y-80815441D01*
X95916462Y-80768394D01*
X95941647Y-80711096D01*
X95970988Y-80644832D01*
X96003903Y-80570886D01*
X96039810Y-80490545D01*
X96078129Y-80405092D01*
X96118277Y-80315812D01*
X96159675Y-80223991D01*
X96201740Y-80130913D01*
X96243891Y-80037863D01*
X96285547Y-79946126D01*
X96326127Y-79856988D01*
X96365049Y-79771732D01*
X96401732Y-79691644D01*
X96435595Y-79618009D01*
X96466057Y-79552111D01*
X96492536Y-79495236D01*
X96514450Y-79448668D01*
X96531220Y-79413692D01*
X96542262Y-79391594D01*
X96546753Y-79383850D01*
X96555863Y-79377325D01*
X96562601Y-79384392D01*
X96565969Y-79392317D01*
X96570549Y-79402848D01*
X96581619Y-79427703D01*
X96598682Y-79465783D01*
X96621243Y-79515987D01*
X96648805Y-79577214D01*
X96680873Y-79648364D01*
X96716950Y-79728336D01*
X96756541Y-79816031D01*
X96799148Y-79910347D01*
X96844277Y-80010184D01*
X96891431Y-80114442D01*
X96904852Y-80144105D01*
X96952240Y-80249017D01*
X96997504Y-80349580D01*
X97040168Y-80444720D01*
X97079760Y-80533363D01*
X97115804Y-80614437D01*
X97147826Y-80686866D01*
X97175353Y-80749578D01*
X97197909Y-80801498D01*
X97215021Y-80841554D01*
X97226215Y-80868671D01*
X97231016Y-80881777D01*
X97231135Y-80882821D01*
X97418332Y-80882821D01*
X97408602Y-80861541D01*
X97348839Y-80730872D01*
X97286844Y-80595358D01*
X97225173Y-80460589D01*
X96639100Y-79180011D01*
X96549542Y-79180005D01*
X96459984Y-79180000D01*
X95867975Y-80467766D01*
G36*
X108946635Y-79180434D02*
G01*
X108918751Y-79181821D01*
X108903613Y-79184447D01*
X108899133Y-79188558D01*
X108899806Y-79190583D01*
X108905647Y-79198816D01*
X108920827Y-79219685D01*
X108944622Y-79252208D01*
X108976311Y-79295401D01*
X109015169Y-79348281D01*
X109060474Y-79409866D01*
X109111501Y-79479172D01*
X109167529Y-79555216D01*
X109227834Y-79637015D01*
X109291692Y-79723587D01*
X109358381Y-79813948D01*
X109358650Y-79814312D01*
X109436687Y-79920062D01*
X109505226Y-80013058D01*
X109564856Y-80094140D01*
X109616168Y-80164153D01*
X109659752Y-80223939D01*
X109696200Y-80274343D01*
X109726101Y-80316207D01*
X109750047Y-80350375D01*
X109768627Y-80377689D01*
X109782432Y-80398993D01*
X109792054Y-80415131D01*
X109798081Y-80426945D01*
X109801106Y-80435279D01*
X109801718Y-80440975D01*
X109800507Y-80444879D01*
X109800387Y-80445078D01*
X109793820Y-80454362D01*
X109778008Y-80476077D01*
X109753810Y-80509066D01*
X109722085Y-80552171D01*
X109683691Y-80604234D01*
X109639485Y-80664097D01*
X109590328Y-80730603D01*
X109537077Y-80802592D01*
X109480590Y-80878909D01*
X109421725Y-80958394D01*
X109361342Y-81039890D01*
X109300299Y-81122238D01*
X109239454Y-81204282D01*
X109179665Y-81284864D01*
X109121790Y-81362824D01*
X109066689Y-81437006D01*
X109015220Y-81506252D01*
X108968240Y-81569404D01*
X108926609Y-81625303D01*
X108891184Y-81672793D01*
X108862825Y-81710715D01*
X108842389Y-81737911D01*
X108830735Y-81753224D01*
X108828538Y-81755983D01*
X108824214Y-81762131D01*
X108825368Y-81766283D01*
X108834397Y-81768818D01*
X108853700Y-81770114D01*
X108885673Y-81770550D01*
X108920804Y-81770536D01*
X109025833Y-81770271D01*
X109250088Y-81467852D01*
X109345763Y-81338841D01*
X109431874Y-81222765D01*
X109508936Y-81118950D01*
X109577464Y-81026726D01*
X109637974Y-80945419D01*
X109690981Y-80874358D01*
X109736999Y-80812869D01*
X109776544Y-80760281D01*
X109810132Y-80715920D01*
X109838276Y-80679116D01*
X109861493Y-80649195D01*
X109880297Y-80625485D01*
X109895204Y-80607313D01*
X109906729Y-80594008D01*
X109915387Y-80584897D01*
X109921693Y-80579307D01*
X109926162Y-80576567D01*
X109929309Y-80576003D01*
X109931650Y-80576944D01*
X109932297Y-80577440D01*
X109939111Y-80585670D01*
X109955235Y-80606522D01*
X109979917Y-80638993D01*
X110012408Y-80682082D01*
X110051960Y-80734787D01*
X110097823Y-80796107D01*
X110149247Y-80865040D01*
X110205484Y-80940585D01*
X110265783Y-81021739D01*
X110329396Y-81107501D01*
X110382581Y-81179313D01*
X110820350Y-81770800D01*
X110920042Y-81770800D01*
X110958866Y-81770424D01*
X110990625Y-81769403D01*
X111012014Y-81767891D01*
X111019733Y-81766072D01*
X111014785Y-81758759D01*
X111000399Y-81738804D01*
X110977264Y-81707139D01*
X110946069Y-81664693D01*
X110907500Y-81612397D01*
X110862247Y-81551181D01*
X110810997Y-81481978D01*
X110754440Y-81405716D01*
X110693263Y-81323326D01*
X110628154Y-81235740D01*
X110559802Y-81143888D01*
X110528666Y-81102078D01*
X110459067Y-81008551D01*
X110392409Y-80918802D01*
X110329382Y-80833768D01*
X110270674Y-80754389D01*
X110216975Y-80681601D01*
X110168974Y-80616342D01*
X110127361Y-80559549D01*
X110092823Y-80512161D01*
X110066052Y-80475115D01*
X110047735Y-80449348D01*
X110038562Y-80435799D01*
X110037600Y-80433952D01*
X110042516Y-80425986D01*
X110056791Y-80405378D01*
X110079720Y-80373099D01*
X110110595Y-80330124D01*
X110148709Y-80277425D01*
X110193355Y-80215975D01*
X110243826Y-80146748D01*
X110299415Y-80070716D01*
X110359414Y-79988852D01*
X110423117Y-79902130D01*
X110489817Y-79811522D01*
X110494873Y-79804662D01*
X110952146Y-79184233D01*
X110853107Y-79181834D01*
X110809660Y-79181096D01*
X110779879Y-79181614D01*
X110760520Y-79183751D01*
X110748339Y-79187871D01*
X110740094Y-79194338D01*
X110739909Y-79194534D01*
X110732739Y-79203600D01*
X110716317Y-79225226D01*
X110691438Y-79258343D01*
X110658898Y-79301879D01*
X110619494Y-79354767D01*
X110574021Y-79415935D01*
X110523274Y-79484314D01*
X110468051Y-79558835D01*
X110409146Y-79638427D01*
X110347356Y-79722020D01*
X110331298Y-79743762D01*
X110268980Y-79828067D01*
X110209387Y-79908531D01*
X110153309Y-79984097D01*
X110101535Y-80053708D01*
X110054857Y-80116306D01*
X110014062Y-80170834D01*
X109979942Y-80216235D01*
X109953287Y-80251451D01*
X109934886Y-80275426D01*
X109925529Y-80287101D01*
X109924669Y-80287996D01*
X109921074Y-80288003D01*
X109914636Y-80283558D01*
X109904749Y-80273882D01*
X109890806Y-80258194D01*
X109872203Y-80235712D01*
X109848334Y-80205657D01*
X109818592Y-80167246D01*
X109782372Y-80119700D01*
X109739068Y-80062237D01*
X109688074Y-79994077D01*
X109628784Y-79914438D01*
X109560593Y-79822540D01*
X109498796Y-79739093D01*
X109085100Y-79180082D01*
X108989350Y-79180041D01*
X108946635Y-79180434D01*
X108946635Y-79180434D01*
G37*
X108946635Y-79180434D02*
X108918751Y-79181821D01*
X108903613Y-79184447D01*
X108899133Y-79188558D01*
X108899806Y-79190583D01*
X108905647Y-79198816D01*
X108920827Y-79219685D01*
X108944622Y-79252208D01*
X108976311Y-79295401D01*
X109015169Y-79348281D01*
X109060474Y-79409866D01*
X109111501Y-79479172D01*
X109167529Y-79555216D01*
X109227834Y-79637015D01*
X109291692Y-79723587D01*
X109358381Y-79813948D01*
X109358650Y-79814312D01*
X109436687Y-79920062D01*
X109505226Y-80013058D01*
X109564856Y-80094140D01*
X109616168Y-80164153D01*
X109659752Y-80223939D01*
X109696200Y-80274343D01*
X109726101Y-80316207D01*
X109750047Y-80350375D01*
X109768627Y-80377689D01*
X109782432Y-80398993D01*
X109792054Y-80415131D01*
X109798081Y-80426945D01*
X109801106Y-80435279D01*
X109801718Y-80440975D01*
X109800507Y-80444879D01*
X109800387Y-80445078D01*
X109793820Y-80454362D01*
X109778008Y-80476077D01*
X109753810Y-80509066D01*
X109722085Y-80552171D01*
X109683691Y-80604234D01*
X109639485Y-80664097D01*
X109590328Y-80730603D01*
X109537077Y-80802592D01*
X109480590Y-80878909D01*
X109421725Y-80958394D01*
X109361342Y-81039890D01*
X109300299Y-81122238D01*
X109239454Y-81204282D01*
X109179665Y-81284864D01*
X109121790Y-81362824D01*
X109066689Y-81437006D01*
X109015220Y-81506252D01*
X108968240Y-81569404D01*
X108926609Y-81625303D01*
X108891184Y-81672793D01*
X108862825Y-81710715D01*
X108842389Y-81737911D01*
X108830735Y-81753224D01*
X108828538Y-81755983D01*
X108824214Y-81762131D01*
X108825368Y-81766283D01*
X108834397Y-81768818D01*
X108853700Y-81770114D01*
X108885673Y-81770550D01*
X108920804Y-81770536D01*
X109025833Y-81770271D01*
X109250088Y-81467852D01*
X109345763Y-81338841D01*
X109431874Y-81222765D01*
X109508936Y-81118950D01*
X109577464Y-81026726D01*
X109637974Y-80945419D01*
X109690981Y-80874358D01*
X109736999Y-80812869D01*
X109776544Y-80760281D01*
X109810132Y-80715920D01*
X109838276Y-80679116D01*
X109861493Y-80649195D01*
X109880297Y-80625485D01*
X109895204Y-80607313D01*
X109906729Y-80594008D01*
X109915387Y-80584897D01*
X109921693Y-80579307D01*
X109926162Y-80576567D01*
X109929309Y-80576003D01*
X109931650Y-80576944D01*
X109932297Y-80577440D01*
X109939111Y-80585670D01*
X109955235Y-80606522D01*
X109979917Y-80638993D01*
X110012408Y-80682082D01*
X110051960Y-80734787D01*
X110097823Y-80796107D01*
X110149247Y-80865040D01*
X110205484Y-80940585D01*
X110265783Y-81021739D01*
X110329396Y-81107501D01*
X110382581Y-81179313D01*
X110820350Y-81770800D01*
X110920042Y-81770800D01*
X110958866Y-81770424D01*
X110990625Y-81769403D01*
X111012014Y-81767891D01*
X111019733Y-81766072D01*
X111014785Y-81758759D01*
X111000399Y-81738804D01*
X110977264Y-81707139D01*
X110946069Y-81664693D01*
X110907500Y-81612397D01*
X110862247Y-81551181D01*
X110810997Y-81481978D01*
X110754440Y-81405716D01*
X110693263Y-81323326D01*
X110628154Y-81235740D01*
X110559802Y-81143888D01*
X110528666Y-81102078D01*
X110459067Y-81008551D01*
X110392409Y-80918802D01*
X110329382Y-80833768D01*
X110270674Y-80754389D01*
X110216975Y-80681601D01*
X110168974Y-80616342D01*
X110127361Y-80559549D01*
X110092823Y-80512161D01*
X110066052Y-80475115D01*
X110047735Y-80449348D01*
X110038562Y-80435799D01*
X110037600Y-80433952D01*
X110042516Y-80425986D01*
X110056791Y-80405378D01*
X110079720Y-80373099D01*
X110110595Y-80330124D01*
X110148709Y-80277425D01*
X110193355Y-80215975D01*
X110243826Y-80146748D01*
X110299415Y-80070716D01*
X110359414Y-79988852D01*
X110423117Y-79902130D01*
X110489817Y-79811522D01*
X110494873Y-79804662D01*
X110952146Y-79184233D01*
X110853107Y-79181834D01*
X110809660Y-79181096D01*
X110779879Y-79181614D01*
X110760520Y-79183751D01*
X110748339Y-79187871D01*
X110740094Y-79194338D01*
X110739909Y-79194534D01*
X110732739Y-79203600D01*
X110716317Y-79225226D01*
X110691438Y-79258343D01*
X110658898Y-79301879D01*
X110619494Y-79354767D01*
X110574021Y-79415935D01*
X110523274Y-79484314D01*
X110468051Y-79558835D01*
X110409146Y-79638427D01*
X110347356Y-79722020D01*
X110331298Y-79743762D01*
X110268980Y-79828067D01*
X110209387Y-79908531D01*
X110153309Y-79984097D01*
X110101535Y-80053708D01*
X110054857Y-80116306D01*
X110014062Y-80170834D01*
X109979942Y-80216235D01*
X109953287Y-80251451D01*
X109934886Y-80275426D01*
X109925529Y-80287101D01*
X109924669Y-80287996D01*
X109921074Y-80288003D01*
X109914636Y-80283558D01*
X109904749Y-80273882D01*
X109890806Y-80258194D01*
X109872203Y-80235712D01*
X109848334Y-80205657D01*
X109818592Y-80167246D01*
X109782372Y-80119700D01*
X109739068Y-80062237D01*
X109688074Y-79994077D01*
X109628784Y-79914438D01*
X109560593Y-79822540D01*
X109498796Y-79739093D01*
X109085100Y-79180082D01*
X108989350Y-79180041D01*
X108946635Y-79180434D01*
G36*
X116434645Y-79184233D02*
G01*
X115555339Y-80308281D01*
X115460355Y-80429616D01*
X115368140Y-80547244D01*
X115279237Y-80660480D01*
X115194189Y-80768641D01*
X115113538Y-80871040D01*
X115037828Y-80966993D01*
X114967601Y-81055815D01*
X114903400Y-81136822D01*
X114845768Y-81209328D01*
X114795248Y-81272648D01*
X114752382Y-81326098D01*
X114717714Y-81368992D01*
X114691787Y-81400647D01*
X114675142Y-81420376D01*
X114668324Y-81427495D01*
X114668216Y-81427498D01*
X114667120Y-81418443D01*
X114666091Y-81393109D01*
X114665131Y-81352148D01*
X114664247Y-81296213D01*
X114663442Y-81225957D01*
X114662721Y-81142035D01*
X114662089Y-81045098D01*
X114661550Y-80935800D01*
X114661109Y-80814795D01*
X114660770Y-80682736D01*
X114660538Y-80540275D01*
X114660417Y-80388066D01*
X114660400Y-80301333D01*
X114660400Y-79180000D01*
X114482600Y-79180000D01*
X114482600Y-81770800D01*
X114630766Y-81769898D01*
X115515243Y-80640678D01*
X115610538Y-80519087D01*
X115703050Y-80401190D01*
X115792237Y-80287671D01*
X115877559Y-80179212D01*
X115958474Y-80076499D01*
X116034440Y-79980212D01*
X116104918Y-79891036D01*
X116169365Y-79809655D01*
X116227241Y-79736750D01*
X116278005Y-79673006D01*
X116321115Y-79619106D01*
X116356029Y-79575732D01*
X116382208Y-79543569D01*
X116399110Y-79523300D01*
X116406193Y-79515607D01*
X116406360Y-79515562D01*
X116407166Y-79524370D01*
X116407944Y-79549123D01*
X116408688Y-79588833D01*
X116409393Y-79642514D01*
X116410052Y-79709176D01*
X116410660Y-79787832D01*
X116411211Y-79877493D01*
X116411699Y-79977173D01*
X116412118Y-80085883D01*
X116412463Y-80202636D01*
X116412727Y-80326443D01*
X116412906Y-80456316D01*
X116412992Y-80591268D01*
X116413000Y-80645233D01*
X116413000Y-81770800D01*
X116582333Y-81770800D01*
X116582333Y-79179341D01*
X116434645Y-79184233D01*
X116434645Y-79184233D01*
G37*
X116434645Y-79184233D02*
X115555339Y-80308281D01*
X115460355Y-80429616D01*
X115368140Y-80547244D01*
X115279237Y-80660480D01*
X115194189Y-80768641D01*
X115113538Y-80871040D01*
X115037828Y-80966993D01*
X114967601Y-81055815D01*
X114903400Y-81136822D01*
X114845768Y-81209328D01*
X114795248Y-81272648D01*
X114752382Y-81326098D01*
X114717714Y-81368992D01*
X114691787Y-81400647D01*
X114675142Y-81420376D01*
X114668324Y-81427495D01*
X114668216Y-81427498D01*
X114667120Y-81418443D01*
X114666091Y-81393109D01*
X114665131Y-81352148D01*
X114664247Y-81296213D01*
X114663442Y-81225957D01*
X114662721Y-81142035D01*
X114662089Y-81045098D01*
X114661550Y-80935800D01*
X114661109Y-80814795D01*
X114660770Y-80682736D01*
X114660538Y-80540275D01*
X114660417Y-80388066D01*
X114660400Y-80301333D01*
X114660400Y-79180000D01*
X114482600Y-79180000D01*
X114482600Y-81770800D01*
X114630766Y-81769898D01*
X115515243Y-80640678D01*
X115610538Y-80519087D01*
X115703050Y-80401190D01*
X115792237Y-80287671D01*
X115877559Y-80179212D01*
X115958474Y-80076499D01*
X116034440Y-79980212D01*
X116104918Y-79891036D01*
X116169365Y-79809655D01*
X116227241Y-79736750D01*
X116278005Y-79673006D01*
X116321115Y-79619106D01*
X116356029Y-79575732D01*
X116382208Y-79543569D01*
X116399110Y-79523300D01*
X116406193Y-79515607D01*
X116406360Y-79515562D01*
X116407166Y-79524370D01*
X116407944Y-79549123D01*
X116408688Y-79588833D01*
X116409393Y-79642514D01*
X116410052Y-79709176D01*
X116410660Y-79787832D01*
X116411211Y-79877493D01*
X116411699Y-79977173D01*
X116412118Y-80085883D01*
X116412463Y-80202636D01*
X116412727Y-80326443D01*
X116412906Y-80456316D01*
X116412992Y-80591268D01*
X116413000Y-80645233D01*
X116413000Y-81770800D01*
X116582333Y-81770800D01*
X116582333Y-79179341D01*
X116434645Y-79184233D01*
G36*
X117505200Y-81770800D02*
G01*
X117683000Y-81770800D01*
X117683000Y-79180000D01*
X117505200Y-79180000D01*
X117505200Y-81770800D01*
X117505200Y-81770800D01*
G37*
X117505200Y-81770800D02*
X117683000Y-81770800D01*
X117683000Y-79180000D01*
X117505200Y-79180000D01*
X117505200Y-81770800D01*
G36*
X94687225Y-79901783D02*
G01*
X94687086Y-80014623D01*
X94686772Y-80125298D01*
X94686301Y-80232253D01*
X94685685Y-80333936D01*
X94684940Y-80428791D01*
X94684080Y-80515265D01*
X94683120Y-80591802D01*
X94682074Y-80656849D01*
X94680957Y-80708851D01*
X94679784Y-80746254D01*
X94679178Y-80759033D01*
X94667095Y-80891347D01*
X94646462Y-81010022D01*
X94616786Y-81116316D01*
X94577576Y-81211483D01*
X94528339Y-81296780D01*
X94468582Y-81373462D01*
X94418151Y-81424614D01*
X94332700Y-81492101D01*
X94236990Y-81546170D01*
X94131222Y-81586721D01*
X94056767Y-81605869D01*
X94004279Y-81614336D01*
X93940205Y-81620554D01*
X93869765Y-81624350D01*
X93798180Y-81625549D01*
X93730669Y-81623977D01*
X93672452Y-81619459D01*
X93667582Y-81618869D01*
X93548208Y-81596489D01*
X93439277Y-81560849D01*
X93340991Y-81512169D01*
X93253548Y-81450671D01*
X93177148Y-81376576D01*
X93111991Y-81290106D01*
X93058277Y-81191482D01*
X93016205Y-81080927D01*
X92985975Y-80958662D01*
X92969603Y-80844346D01*
X92967793Y-80816975D01*
X92966169Y-80773068D01*
X92964735Y-80713020D01*
X92963495Y-80637227D01*
X92962454Y-80546085D01*
X92961615Y-80439990D01*
X92960982Y-80319337D01*
X92960561Y-80184523D01*
X92960355Y-80035943D01*
X92960333Y-79965929D01*
X92960333Y-79180000D01*
X92791000Y-79180000D01*
X92791000Y-79996600D01*
X92791038Y-80137805D01*
X92791161Y-80263143D01*
X92791384Y-80373677D01*
X92791722Y-80470474D01*
X92792189Y-80554597D01*
X92792802Y-80627113D01*
X92793573Y-80689087D01*
X92794519Y-80741583D01*
X92795654Y-80785666D01*
X92796992Y-80822403D01*
X92798549Y-80852857D01*
X92800339Y-80878093D01*
X92802378Y-80899178D01*
X92803698Y-80910065D01*
X92828853Y-81050379D01*
X92865941Y-81178727D01*
X92914927Y-81295068D01*
X92975776Y-81399363D01*
X93048451Y-81491572D01*
X93132919Y-81571656D01*
X93229143Y-81639576D01*
X93337088Y-81695291D01*
X93456718Y-81738762D01*
X93570559Y-81766647D01*
X93601796Y-81771204D01*
X93645179Y-81775396D01*
X93696909Y-81779067D01*
X93753185Y-81782062D01*
X93810208Y-81784226D01*
X93864177Y-81785406D01*
X93911293Y-81785446D01*
X93947757Y-81784191D01*
X93963633Y-81782654D01*
X94079122Y-81763187D01*
X94180267Y-81740034D01*
X94269450Y-81712130D01*
X94349055Y-81678412D01*
X94421467Y-81637815D01*
X94489070Y-81589277D01*
X94554247Y-81531733D01*
X94577467Y-81508719D01*
X94643994Y-81432519D01*
X94700600Y-81348867D01*
X94748104Y-81255984D01*
X94787328Y-81152093D01*
X94819091Y-81035414D01*
X94837303Y-80945300D01*
X94839577Y-80930705D01*
X94841608Y-80913256D01*
X94843414Y-80891913D01*
X94845016Y-80865636D01*
X94846433Y-80833385D01*
X94847683Y-80794120D01*
X94848786Y-80746802D01*
X94849761Y-80690389D01*
X94850628Y-80623842D01*
X94851405Y-80546122D01*
X94852113Y-80456187D01*
X94852770Y-80352999D01*
X94853395Y-80235517D01*
X94854008Y-80102700D01*
X94854339Y-80024550D01*
X94857833Y-79180000D01*
X94687533Y-79180000D01*
X94687225Y-79901783D01*
X94687225Y-79901783D01*
G37*
X94687225Y-79901783D02*
X94687086Y-80014623D01*
X94686772Y-80125298D01*
X94686301Y-80232253D01*
X94685685Y-80333936D01*
X94684940Y-80428791D01*
X94684080Y-80515265D01*
X94683120Y-80591802D01*
X94682074Y-80656849D01*
X94680957Y-80708851D01*
X94679784Y-80746254D01*
X94679178Y-80759033D01*
X94667095Y-80891347D01*
X94646462Y-81010022D01*
X94616786Y-81116316D01*
X94577576Y-81211483D01*
X94528339Y-81296780D01*
X94468582Y-81373462D01*
X94418151Y-81424614D01*
X94332700Y-81492101D01*
X94236990Y-81546170D01*
X94131222Y-81586721D01*
X94056767Y-81605869D01*
X94004279Y-81614336D01*
X93940205Y-81620554D01*
X93869765Y-81624350D01*
X93798180Y-81625549D01*
X93730669Y-81623977D01*
X93672452Y-81619459D01*
X93667582Y-81618869D01*
X93548208Y-81596489D01*
X93439277Y-81560849D01*
X93340991Y-81512169D01*
X93253548Y-81450671D01*
X93177148Y-81376576D01*
X93111991Y-81290106D01*
X93058277Y-81191482D01*
X93016205Y-81080927D01*
X92985975Y-80958662D01*
X92969603Y-80844346D01*
X92967793Y-80816975D01*
X92966169Y-80773068D01*
X92964735Y-80713020D01*
X92963495Y-80637227D01*
X92962454Y-80546085D01*
X92961615Y-80439990D01*
X92960982Y-80319337D01*
X92960561Y-80184523D01*
X92960355Y-80035943D01*
X92960333Y-79965929D01*
X92960333Y-79180000D01*
X92791000Y-79180000D01*
X92791000Y-79996600D01*
X92791038Y-80137805D01*
X92791161Y-80263143D01*
X92791384Y-80373677D01*
X92791722Y-80470474D01*
X92792189Y-80554597D01*
X92792802Y-80627113D01*
X92793573Y-80689087D01*
X92794519Y-80741583D01*
X92795654Y-80785666D01*
X92796992Y-80822403D01*
X92798549Y-80852857D01*
X92800339Y-80878093D01*
X92802378Y-80899178D01*
X92803698Y-80910065D01*
X92828853Y-81050379D01*
X92865941Y-81178727D01*
X92914927Y-81295068D01*
X92975776Y-81399363D01*
X93048451Y-81491572D01*
X93132919Y-81571656D01*
X93229143Y-81639576D01*
X93337088Y-81695291D01*
X93456718Y-81738762D01*
X93570559Y-81766647D01*
X93601796Y-81771204D01*
X93645179Y-81775396D01*
X93696909Y-81779067D01*
X93753185Y-81782062D01*
X93810208Y-81784226D01*
X93864177Y-81785406D01*
X93911293Y-81785446D01*
X93947757Y-81784191D01*
X93963633Y-81782654D01*
X94079122Y-81763187D01*
X94180267Y-81740034D01*
X94269450Y-81712130D01*
X94349055Y-81678412D01*
X94421467Y-81637815D01*
X94489070Y-81589277D01*
X94554247Y-81531733D01*
X94577467Y-81508719D01*
X94643994Y-81432519D01*
X94700600Y-81348867D01*
X94748104Y-81255984D01*
X94787328Y-81152093D01*
X94819091Y-81035414D01*
X94837303Y-80945300D01*
X94839577Y-80930705D01*
X94841608Y-80913256D01*
X94843414Y-80891913D01*
X94845016Y-80865636D01*
X94846433Y-80833385D01*
X94847683Y-80794120D01*
X94848786Y-80746802D01*
X94849761Y-80690389D01*
X94850628Y-80623842D01*
X94851405Y-80546122D01*
X94852113Y-80456187D01*
X94852770Y-80352999D01*
X94853395Y-80235517D01*
X94854008Y-80102700D01*
X94854339Y-80024550D01*
X94857833Y-79180000D01*
X94687533Y-79180000D01*
X94687225Y-79901783D01*
G36*
X113407333Y-79998063D02*
G01*
X113407317Y-80141531D01*
X113407234Y-80269191D01*
X113407035Y-80382167D01*
X113406670Y-80481583D01*
X113406090Y-80568566D01*
X113405244Y-80644238D01*
X113404082Y-80709726D01*
X113402556Y-80766155D01*
X113400614Y-80814647D01*
X113398208Y-80856330D01*
X113395287Y-80892326D01*
X113391801Y-80923762D01*
X113387701Y-80951761D01*
X113382937Y-80977449D01*
X113377459Y-81001951D01*
X113371217Y-81026390D01*
X113364162Y-81051892D01*
X113360006Y-81066466D01*
X113320178Y-81177709D01*
X113267886Y-81277646D01*
X113203546Y-81365887D01*
X113127578Y-81442038D01*
X113040399Y-81505709D01*
X112942427Y-81556506D01*
X112834079Y-81594039D01*
X112785033Y-81605869D01*
X112732545Y-81614336D01*
X112668472Y-81620554D01*
X112598032Y-81624350D01*
X112526447Y-81625549D01*
X112458936Y-81623977D01*
X112400719Y-81619459D01*
X112395849Y-81618869D01*
X112276445Y-81596504D01*
X112167531Y-81560904D01*
X112069287Y-81512268D01*
X111981892Y-81450792D01*
X111905524Y-81376673D01*
X111840363Y-81290109D01*
X111786588Y-81191297D01*
X111744376Y-81080433D01*
X111713909Y-80957716D01*
X111697956Y-80849718D01*
X111696078Y-80822853D01*
X111694405Y-80779255D01*
X111692939Y-80719124D01*
X111691683Y-80642657D01*
X111690637Y-80550055D01*
X111689805Y-80441516D01*
X111689189Y-80317239D01*
X111688790Y-80177424D01*
X111688610Y-80022269D01*
X111688600Y-79971301D01*
X111688600Y-79180000D01*
X111518591Y-79180000D01*
X111521665Y-80045717D01*
X111522164Y-80188716D01*
X111522624Y-80315893D01*
X111523097Y-80428354D01*
X111523640Y-80527211D01*
X111524306Y-80613573D01*
X111525150Y-80688548D01*
X111526225Y-80753246D01*
X111527588Y-80808777D01*
X111529292Y-80856250D01*
X111531391Y-80896775D01*
X111533940Y-80931460D01*
X111536994Y-80961415D01*
X111540606Y-80987750D01*
X111544831Y-81011573D01*
X111549725Y-81033995D01*
X111555340Y-81056125D01*
X111561732Y-81079071D01*
X111568954Y-81103944D01*
X111574521Y-81123053D01*
X111617447Y-81243533D01*
X111672968Y-81352784D01*
X111740750Y-81450511D01*
X111820460Y-81536419D01*
X111911762Y-81610213D01*
X112014323Y-81671597D01*
X112127808Y-81720278D01*
X112251882Y-81755959D01*
X112303504Y-81766365D01*
X112351125Y-81772892D01*
X112410723Y-81778066D01*
X112477384Y-81781732D01*
X112546195Y-81783734D01*
X112612243Y-81783918D01*
X112670613Y-81782130D01*
X112708833Y-81779136D01*
X112843887Y-81756896D01*
X112968226Y-81721660D01*
X113081690Y-81673559D01*
X113184121Y-81612724D01*
X113275357Y-81539284D01*
X113355238Y-81453371D01*
X113423606Y-81355116D01*
X113480299Y-81244649D01*
X113525158Y-81122102D01*
X113529209Y-81108421D01*
X113537147Y-81080890D01*
X113544207Y-81055489D01*
X113550445Y-81031098D01*
X113555916Y-81006599D01*
X113560675Y-80980873D01*
X113564778Y-80952799D01*
X113568279Y-80921260D01*
X113571235Y-80885136D01*
X113573700Y-80843308D01*
X113575730Y-80794657D01*
X113577379Y-80738064D01*
X113578704Y-80672410D01*
X113579760Y-80596575D01*
X113580600Y-80509441D01*
X113581282Y-80409889D01*
X113581860Y-80296798D01*
X113582390Y-80169052D01*
X113582927Y-80025529D01*
X113582946Y-80020317D01*
X113586036Y-79180000D01*
X113407333Y-79180000D01*
X113407333Y-79998063D01*
X113407333Y-79998063D01*
G37*
X113407333Y-79998063D02*
X113407317Y-80141531D01*
X113407234Y-80269191D01*
X113407035Y-80382167D01*
X113406670Y-80481583D01*
X113406090Y-80568566D01*
X113405244Y-80644238D01*
X113404082Y-80709726D01*
X113402556Y-80766155D01*
X113400614Y-80814647D01*
X113398208Y-80856330D01*
X113395287Y-80892326D01*
X113391801Y-80923762D01*
X113387701Y-80951761D01*
X113382937Y-80977449D01*
X113377459Y-81001951D01*
X113371217Y-81026390D01*
X113364162Y-81051892D01*
X113360006Y-81066466D01*
X113320178Y-81177709D01*
X113267886Y-81277646D01*
X113203546Y-81365887D01*
X113127578Y-81442038D01*
X113040399Y-81505709D01*
X112942427Y-81556506D01*
X112834079Y-81594039D01*
X112785033Y-81605869D01*
X112732545Y-81614336D01*
X112668472Y-81620554D01*
X112598032Y-81624350D01*
X112526447Y-81625549D01*
X112458936Y-81623977D01*
X112400719Y-81619459D01*
X112395849Y-81618869D01*
X112276445Y-81596504D01*
X112167531Y-81560904D01*
X112069287Y-81512268D01*
X111981892Y-81450792D01*
X111905524Y-81376673D01*
X111840363Y-81290109D01*
X111786588Y-81191297D01*
X111744376Y-81080433D01*
X111713909Y-80957716D01*
X111697956Y-80849718D01*
X111696078Y-80822853D01*
X111694405Y-80779255D01*
X111692939Y-80719124D01*
X111691683Y-80642657D01*
X111690637Y-80550055D01*
X111689805Y-80441516D01*
X111689189Y-80317239D01*
X111688790Y-80177424D01*
X111688610Y-80022269D01*
X111688600Y-79971301D01*
X111688600Y-79180000D01*
X111518591Y-79180000D01*
X111521665Y-80045717D01*
X111522164Y-80188716D01*
X111522624Y-80315893D01*
X111523097Y-80428354D01*
X111523640Y-80527211D01*
X111524306Y-80613573D01*
X111525150Y-80688548D01*
X111526225Y-80753246D01*
X111527588Y-80808777D01*
X111529292Y-80856250D01*
X111531391Y-80896775D01*
X111533940Y-80931460D01*
X111536994Y-80961415D01*
X111540606Y-80987750D01*
X111544831Y-81011573D01*
X111549725Y-81033995D01*
X111555340Y-81056125D01*
X111561732Y-81079071D01*
X111568954Y-81103944D01*
X111574521Y-81123053D01*
X111617447Y-81243533D01*
X111672968Y-81352784D01*
X111740750Y-81450511D01*
X111820460Y-81536419D01*
X111911762Y-81610213D01*
X112014323Y-81671597D01*
X112127808Y-81720278D01*
X112251882Y-81755959D01*
X112303504Y-81766365D01*
X112351125Y-81772892D01*
X112410723Y-81778066D01*
X112477384Y-81781732D01*
X112546195Y-81783734D01*
X112612243Y-81783918D01*
X112670613Y-81782130D01*
X112708833Y-81779136D01*
X112843887Y-81756896D01*
X112968226Y-81721660D01*
X113081690Y-81673559D01*
X113184121Y-81612724D01*
X113275357Y-81539284D01*
X113355238Y-81453371D01*
X113423606Y-81355116D01*
X113480299Y-81244649D01*
X113525158Y-81122102D01*
X113529209Y-81108421D01*
X113537147Y-81080890D01*
X113544207Y-81055489D01*
X113550445Y-81031098D01*
X113555916Y-81006599D01*
X113560675Y-80980873D01*
X113564778Y-80952799D01*
X113568279Y-80921260D01*
X113571235Y-80885136D01*
X113573700Y-80843308D01*
X113575730Y-80794657D01*
X113577379Y-80738064D01*
X113578704Y-80672410D01*
X113579760Y-80596575D01*
X113580600Y-80509441D01*
X113581282Y-80409889D01*
X113581860Y-80296798D01*
X113582390Y-80169052D01*
X113582927Y-80025529D01*
X113582946Y-80020317D01*
X113586036Y-79180000D01*
X113407333Y-79180000D01*
X113407333Y-79998063D01*
D12*
G36*
X90320983Y-108959760D02*
G01*
X90507999Y-109016490D01*
X90680344Y-109108611D01*
X90831412Y-109232588D01*
X90955389Y-109383656D01*
X91047510Y-109556001D01*
X91104240Y-109743017D01*
X91124000Y-109943640D01*
X91124000Y-115956360D01*
X91104240Y-116156983D01*
X91047510Y-116343999D01*
X90955389Y-116516344D01*
X90831412Y-116667412D01*
X90680344Y-116791389D01*
X90507999Y-116883510D01*
X90320983Y-116940240D01*
X90120360Y-116960000D01*
X87887640Y-116960000D01*
X87687017Y-116940240D01*
X87500001Y-116883510D01*
X87327656Y-116791389D01*
X87176588Y-116667412D01*
X87052611Y-116516344D01*
X86960490Y-116343999D01*
X86903760Y-116156983D01*
X86884000Y-115956360D01*
X86884000Y-109943640D01*
X86903760Y-109743017D01*
X86960490Y-109556001D01*
X87052611Y-109383656D01*
X87176588Y-109232588D01*
X87327656Y-109108611D01*
X87500001Y-109016490D01*
X87687017Y-108959760D01*
X87887640Y-108940000D01*
X90120360Y-108940000D01*
X90320983Y-108959760D01*
X90320983Y-108959760D01*
G37*
G36*
X115726983Y-108959760D02*
G01*
X115913999Y-109016490D01*
X116086344Y-109108611D01*
X116237412Y-109232588D01*
X116361389Y-109383656D01*
X116453510Y-109556001D01*
X116510240Y-109743017D01*
X116530000Y-109943640D01*
X116530000Y-115956360D01*
X116510240Y-116156983D01*
X116453510Y-116343999D01*
X116361389Y-116516344D01*
X116237412Y-116667412D01*
X116086344Y-116791389D01*
X115913999Y-116883510D01*
X115726983Y-116940240D01*
X115526360Y-116960000D01*
X113293640Y-116960000D01*
X113093017Y-116940240D01*
X112906001Y-116883510D01*
X112733656Y-116791389D01*
X112582588Y-116667412D01*
X112458611Y-116516344D01*
X112366490Y-116343999D01*
X112309760Y-116156983D01*
X112290000Y-115956360D01*
X112290000Y-109943640D01*
X112309760Y-109743017D01*
X112366490Y-109556001D01*
X112458611Y-109383656D01*
X112582588Y-109232588D01*
X112733656Y-109108611D01*
X112906001Y-109016490D01*
X113093017Y-108959760D01*
X113293640Y-108940000D01*
X115526360Y-108940000D01*
X115726983Y-108959760D01*
X115726983Y-108959760D01*
G37*
G36*
X108103983Y-108959760D02*
G01*
X108290999Y-109016490D01*
X108463344Y-109108611D01*
X108614412Y-109232588D01*
X108738389Y-109383656D01*
X108830510Y-109556001D01*
X108887240Y-109743017D01*
X108907000Y-109943640D01*
X108907000Y-115956360D01*
X108887240Y-116156983D01*
X108830510Y-116343999D01*
X108738389Y-116516344D01*
X108614412Y-116667412D01*
X108463344Y-116791389D01*
X108290999Y-116883510D01*
X108103983Y-116940240D01*
X107903360Y-116960000D01*
X105670640Y-116960000D01*
X105470017Y-116940240D01*
X105283001Y-116883510D01*
X105110656Y-116791389D01*
X104959588Y-116667412D01*
X104835611Y-116516344D01*
X104743490Y-116343999D01*
X104686760Y-116156983D01*
X104667000Y-115956360D01*
X104667000Y-109943640D01*
X104686760Y-109743017D01*
X104743490Y-109556001D01*
X104835611Y-109383656D01*
X104959588Y-109232588D01*
X105110656Y-109108611D01*
X105283001Y-109016490D01*
X105470017Y-108959760D01*
X105670640Y-108940000D01*
X107903360Y-108940000D01*
X108103983Y-108959760D01*
X108103983Y-108959760D01*
G37*
G36*
X103023983Y-108959760D02*
G01*
X103210999Y-109016490D01*
X103383344Y-109108611D01*
X103534412Y-109232588D01*
X103658389Y-109383656D01*
X103750510Y-109556001D01*
X103807240Y-109743017D01*
X103827000Y-109943640D01*
X103827000Y-115956360D01*
X103807240Y-116156983D01*
X103750510Y-116343999D01*
X103658389Y-116516344D01*
X103534412Y-116667412D01*
X103383344Y-116791389D01*
X103210999Y-116883510D01*
X103023983Y-116940240D01*
X102823360Y-116960000D01*
X100590640Y-116960000D01*
X100390017Y-116940240D01*
X100203001Y-116883510D01*
X100030656Y-116791389D01*
X99879588Y-116667412D01*
X99755611Y-116516344D01*
X99663490Y-116343999D01*
X99606760Y-116156983D01*
X99587000Y-115956360D01*
X99587000Y-109943640D01*
X99606760Y-109743017D01*
X99663490Y-109556001D01*
X99755611Y-109383656D01*
X99879588Y-109232588D01*
X100030656Y-109108611D01*
X100203001Y-109016490D01*
X100390017Y-108959760D01*
X100590640Y-108940000D01*
X102823360Y-108940000D01*
X103023983Y-108959760D01*
X103023983Y-108959760D01*
G37*
G36*
X95400983Y-108959760D02*
G01*
X95587999Y-109016490D01*
X95760344Y-109108611D01*
X95911412Y-109232588D01*
X96035389Y-109383656D01*
X96127510Y-109556001D01*
X96184240Y-109743017D01*
X96204000Y-109943640D01*
X96204000Y-115956360D01*
X96184240Y-116156983D01*
X96127510Y-116343999D01*
X96035389Y-116516344D01*
X95911412Y-116667412D01*
X95760344Y-116791389D01*
X95587999Y-116883510D01*
X95400983Y-116940240D01*
X95200360Y-116960000D01*
X92967640Y-116960000D01*
X92767017Y-116940240D01*
X92580001Y-116883510D01*
X92407656Y-116791389D01*
X92256588Y-116667412D01*
X92132611Y-116516344D01*
X92040490Y-116343999D01*
X91983760Y-116156983D01*
X91964000Y-115956360D01*
X91964000Y-109943640D01*
X91983760Y-109743017D01*
X92040490Y-109556001D01*
X92132611Y-109383656D01*
X92256588Y-109232588D01*
X92407656Y-109108611D01*
X92580001Y-109016490D01*
X92767017Y-108959760D01*
X92967640Y-108940000D01*
X95200360Y-108940000D01*
X95400983Y-108959760D01*
X95400983Y-108959760D01*
G37*
G36*
X120806983Y-108959760D02*
G01*
X120993999Y-109016490D01*
X121166344Y-109108611D01*
X121317412Y-109232588D01*
X121441389Y-109383656D01*
X121533510Y-109556001D01*
X121590240Y-109743017D01*
X121610000Y-109943640D01*
X121610000Y-115956360D01*
X121590240Y-116156983D01*
X121533510Y-116343999D01*
X121441389Y-116516344D01*
X121317412Y-116667412D01*
X121166344Y-116791389D01*
X120993999Y-116883510D01*
X120806983Y-116940240D01*
X120606360Y-116960000D01*
X118373640Y-116960000D01*
X118173017Y-116940240D01*
X117986001Y-116883510D01*
X117813656Y-116791389D01*
X117662588Y-116667412D01*
X117538611Y-116516344D01*
X117446490Y-116343999D01*
X117389760Y-116156983D01*
X117370000Y-115956360D01*
X117370000Y-109943640D01*
X117389760Y-109743017D01*
X117446490Y-109556001D01*
X117538611Y-109383656D01*
X117662588Y-109232588D01*
X117813656Y-109108611D01*
X117986001Y-109016490D01*
X118173017Y-108959760D01*
X118373640Y-108940000D01*
X120606360Y-108940000D01*
X120806983Y-108959760D01*
X120806983Y-108959760D01*
G37*
G36*
X82391162Y-111554586D02*
G01*
X82565041Y-111589173D01*
X82892620Y-111724861D01*
X83187433Y-111921849D01*
X83438151Y-112172567D01*
X83635139Y-112467380D01*
X83770827Y-112794959D01*
X83770827Y-112794961D01*
X83838011Y-113132714D01*
X83840000Y-113142716D01*
X83840000Y-113497284D01*
X83770827Y-113845041D01*
X83635139Y-114172620D01*
X83438151Y-114467433D01*
X83187433Y-114718151D01*
X82892620Y-114915139D01*
X82565041Y-115050827D01*
X82391163Y-115085413D01*
X82217286Y-115120000D01*
X81862714Y-115120000D01*
X81688837Y-115085413D01*
X81514959Y-115050827D01*
X81187380Y-114915139D01*
X80892567Y-114718151D01*
X80641849Y-114467433D01*
X80444861Y-114172620D01*
X80309173Y-113845041D01*
X80240000Y-113497284D01*
X80240000Y-113142716D01*
X80241990Y-113132714D01*
X80309173Y-112794961D01*
X80309173Y-112794959D01*
X80444861Y-112467380D01*
X80641849Y-112172567D01*
X80892567Y-111921849D01*
X81187380Y-111724861D01*
X81514959Y-111589173D01*
X81688838Y-111554586D01*
X81862714Y-111520000D01*
X82217286Y-111520000D01*
X82391162Y-111554586D01*
X82391162Y-111554586D01*
G37*
G36*
X140381162Y-111544586D02*
G01*
X140555041Y-111579173D01*
X140882620Y-111714861D01*
X141177433Y-111911849D01*
X141428151Y-112162567D01*
X141625139Y-112457380D01*
X141760827Y-112784959D01*
X141763291Y-112797347D01*
X141830000Y-113132714D01*
X141830000Y-113487286D01*
X141813869Y-113568381D01*
X141760827Y-113835041D01*
X141625139Y-114162620D01*
X141428151Y-114457433D01*
X141177433Y-114708151D01*
X140882620Y-114905139D01*
X140555041Y-115040827D01*
X140408378Y-115070000D01*
X140207286Y-115110000D01*
X139852714Y-115110000D01*
X139651622Y-115070000D01*
X139504959Y-115040827D01*
X139177380Y-114905139D01*
X138882567Y-114708151D01*
X138631849Y-114457433D01*
X138434861Y-114162620D01*
X138299173Y-113835041D01*
X138246131Y-113568381D01*
X138230000Y-113487286D01*
X138230000Y-113132714D01*
X138296709Y-112797347D01*
X138299173Y-112784959D01*
X138434861Y-112457380D01*
X138631849Y-112162567D01*
X138882567Y-111911849D01*
X139177380Y-111714861D01*
X139504959Y-111579173D01*
X139678838Y-111544586D01*
X139852714Y-111510000D01*
X140207286Y-111510000D01*
X140381162Y-111544586D01*
X140381162Y-111544586D01*
G37*
G36*
X133559722Y-112695656D02*
G01*
X133663566Y-112716312D01*
X133720866Y-112740047D01*
X133859203Y-112797347D01*
X134035272Y-112914993D01*
X134185007Y-113064728D01*
X134302653Y-113240797D01*
X134383688Y-113436435D01*
X134425000Y-113644121D01*
X134425000Y-113855879D01*
X134383688Y-114063565D01*
X134302653Y-114259203D01*
X134185007Y-114435272D01*
X134035272Y-114585007D01*
X133859203Y-114702653D01*
X133720866Y-114759953D01*
X133663566Y-114783688D01*
X133559722Y-114804344D01*
X133455879Y-114825000D01*
X133244121Y-114825000D01*
X133140278Y-114804344D01*
X133036434Y-114783688D01*
X132979134Y-114759953D01*
X132840797Y-114702653D01*
X132664728Y-114585007D01*
X132514993Y-114435272D01*
X132397347Y-114259203D01*
X132316312Y-114063565D01*
X132275000Y-113855879D01*
X132275000Y-113644121D01*
X132316312Y-113436435D01*
X132397347Y-113240797D01*
X132514993Y-113064728D01*
X132664728Y-112914993D01*
X132840797Y-112797347D01*
X132979134Y-112740047D01*
X133036434Y-112716312D01*
X133140278Y-112695656D01*
X133244121Y-112675000D01*
X133455879Y-112675000D01*
X133559722Y-112695656D01*
X133559722Y-112695656D01*
G37*
G36*
X129425000Y-114825000D02*
G01*
X127275000Y-114825000D01*
X127275000Y-112675000D01*
X129425000Y-112675000D01*
X129425000Y-114825000D01*
X129425000Y-114825000D01*
G37*
G36*
X131059722Y-112695656D02*
G01*
X131163566Y-112716312D01*
X131220866Y-112740047D01*
X131359203Y-112797347D01*
X131535272Y-112914993D01*
X131685007Y-113064728D01*
X131802653Y-113240797D01*
X131883688Y-113436435D01*
X131925000Y-113644121D01*
X131925000Y-113855879D01*
X131883688Y-114063565D01*
X131802653Y-114259203D01*
X131685007Y-114435272D01*
X131535272Y-114585007D01*
X131359203Y-114702653D01*
X131220866Y-114759953D01*
X131163566Y-114783688D01*
X131059722Y-114804344D01*
X130955879Y-114825000D01*
X130744121Y-114825000D01*
X130640278Y-114804344D01*
X130536434Y-114783688D01*
X130479134Y-114759953D01*
X130340797Y-114702653D01*
X130164728Y-114585007D01*
X130014993Y-114435272D01*
X129897347Y-114259203D01*
X129816312Y-114063565D01*
X129775000Y-113855879D01*
X129775000Y-113644121D01*
X129816312Y-113436435D01*
X129897347Y-113240797D01*
X130014993Y-113064728D01*
X130164728Y-112914993D01*
X130340797Y-112797347D01*
X130479134Y-112740047D01*
X130536434Y-112716312D01*
X130640278Y-112695656D01*
X130744121Y-112675000D01*
X130955879Y-112675000D01*
X131059722Y-112695656D01*
X131059722Y-112695656D01*
G37*
G36*
X85443707Y-106327597D02*
G01*
X85520836Y-106335193D01*
X85718762Y-106395233D01*
X85718765Y-106395234D01*
X85901170Y-106492732D01*
X86061055Y-106623945D01*
X86192268Y-106783830D01*
X86289766Y-106966235D01*
X86289767Y-106966238D01*
X86349807Y-107164164D01*
X86370080Y-107370000D01*
X86349807Y-107575836D01*
X86289767Y-107773762D01*
X86289766Y-107773765D01*
X86192268Y-107956170D01*
X86061055Y-108116055D01*
X85901170Y-108247268D01*
X85718765Y-108344766D01*
X85718762Y-108344767D01*
X85520836Y-108404807D01*
X85443707Y-108412404D01*
X85366580Y-108420000D01*
X85263420Y-108420000D01*
X85186293Y-108412404D01*
X85109164Y-108404807D01*
X84911238Y-108344767D01*
X84911235Y-108344766D01*
X84728830Y-108247268D01*
X84568945Y-108116055D01*
X84437732Y-107956170D01*
X84340234Y-107773765D01*
X84340233Y-107773762D01*
X84280193Y-107575836D01*
X84259920Y-107370000D01*
X84280193Y-107164164D01*
X84340233Y-106966238D01*
X84340234Y-106966235D01*
X84437732Y-106783830D01*
X84568945Y-106623945D01*
X84728830Y-106492732D01*
X84911235Y-106395234D01*
X84911238Y-106395233D01*
X85109164Y-106335193D01*
X85186293Y-106327597D01*
X85263420Y-106320000D01*
X85366580Y-106320000D01*
X85443707Y-106327597D01*
X85443707Y-106327597D01*
G37*
G36*
X81285000Y-108420000D02*
G01*
X79185000Y-108420000D01*
X79185000Y-106320000D01*
X81285000Y-106320000D01*
X81285000Y-108420000D01*
X81285000Y-108420000D01*
G37*
G36*
X82903707Y-106327597D02*
G01*
X82980836Y-106335193D01*
X83178762Y-106395233D01*
X83178765Y-106395234D01*
X83361170Y-106492732D01*
X83521055Y-106623945D01*
X83652268Y-106783830D01*
X83749766Y-106966235D01*
X83749767Y-106966238D01*
X83809807Y-107164164D01*
X83830080Y-107370000D01*
X83809807Y-107575836D01*
X83749767Y-107773762D01*
X83749766Y-107773765D01*
X83652268Y-107956170D01*
X83521055Y-108116055D01*
X83361170Y-108247268D01*
X83178765Y-108344766D01*
X83178762Y-108344767D01*
X82980836Y-108404807D01*
X82903707Y-108412404D01*
X82826580Y-108420000D01*
X82723420Y-108420000D01*
X82646293Y-108412404D01*
X82569164Y-108404807D01*
X82371238Y-108344767D01*
X82371235Y-108344766D01*
X82188830Y-108247268D01*
X82028945Y-108116055D01*
X81897732Y-107956170D01*
X81800234Y-107773765D01*
X81800233Y-107773762D01*
X81740193Y-107575836D01*
X81719920Y-107370000D01*
X81740193Y-107164164D01*
X81800233Y-106966238D01*
X81800234Y-106966235D01*
X81897732Y-106783830D01*
X82028945Y-106623945D01*
X82188830Y-106492732D01*
X82371235Y-106395234D01*
X82371238Y-106395233D01*
X82569164Y-106335193D01*
X82646293Y-106327597D01*
X82723420Y-106320000D01*
X82826580Y-106320000D01*
X82903707Y-106327597D01*
X82903707Y-106327597D01*
G37*
G36*
X82903707Y-103787597D02*
G01*
X82980836Y-103795193D01*
X83178762Y-103855233D01*
X83178765Y-103855234D01*
X83361170Y-103952732D01*
X83521055Y-104083945D01*
X83652268Y-104243830D01*
X83749766Y-104426235D01*
X83749767Y-104426238D01*
X83809807Y-104624164D01*
X83830080Y-104830000D01*
X83809807Y-105035836D01*
X83799072Y-105071224D01*
X83749766Y-105233765D01*
X83652268Y-105416170D01*
X83521055Y-105576055D01*
X83361170Y-105707268D01*
X83178765Y-105804766D01*
X83178762Y-105804767D01*
X82980836Y-105864807D01*
X82903707Y-105872403D01*
X82826580Y-105880000D01*
X82723420Y-105880000D01*
X82646293Y-105872403D01*
X82569164Y-105864807D01*
X82371238Y-105804767D01*
X82371235Y-105804766D01*
X82188830Y-105707268D01*
X82028945Y-105576055D01*
X81897732Y-105416170D01*
X81800234Y-105233765D01*
X81750928Y-105071224D01*
X81740193Y-105035836D01*
X81719920Y-104830000D01*
X81740193Y-104624164D01*
X81800233Y-104426238D01*
X81800234Y-104426235D01*
X81897732Y-104243830D01*
X82028945Y-104083945D01*
X82188830Y-103952732D01*
X82371235Y-103855234D01*
X82371238Y-103855233D01*
X82569164Y-103795193D01*
X82646293Y-103787597D01*
X82723420Y-103780000D01*
X82826580Y-103780000D01*
X82903707Y-103787597D01*
X82903707Y-103787597D01*
G37*
G36*
X85443707Y-103787597D02*
G01*
X85520836Y-103795193D01*
X85718762Y-103855233D01*
X85718765Y-103855234D01*
X85901170Y-103952732D01*
X86061055Y-104083945D01*
X86192268Y-104243830D01*
X86289766Y-104426235D01*
X86289767Y-104426238D01*
X86349807Y-104624164D01*
X86370080Y-104830000D01*
X86349807Y-105035836D01*
X86339072Y-105071224D01*
X86289766Y-105233765D01*
X86192268Y-105416170D01*
X86061055Y-105576055D01*
X85901170Y-105707268D01*
X85718765Y-105804766D01*
X85718762Y-105804767D01*
X85520836Y-105864807D01*
X85443707Y-105872403D01*
X85366580Y-105880000D01*
X85263420Y-105880000D01*
X85186293Y-105872403D01*
X85109164Y-105864807D01*
X84911238Y-105804767D01*
X84911235Y-105804766D01*
X84728830Y-105707268D01*
X84568945Y-105576055D01*
X84437732Y-105416170D01*
X84340234Y-105233765D01*
X84290928Y-105071224D01*
X84280193Y-105035836D01*
X84259920Y-104830000D01*
X84280193Y-104624164D01*
X84340233Y-104426238D01*
X84340234Y-104426235D01*
X84437732Y-104243830D01*
X84568945Y-104083945D01*
X84728830Y-103952732D01*
X84911235Y-103855234D01*
X84911238Y-103855233D01*
X85109164Y-103795193D01*
X85186293Y-103787597D01*
X85263420Y-103780000D01*
X85366580Y-103780000D01*
X85443707Y-103787597D01*
X85443707Y-103787597D01*
G37*
G36*
X81285000Y-105880000D02*
G01*
X79185000Y-105880000D01*
X79185000Y-103780000D01*
X81285000Y-103780000D01*
X81285000Y-105880000D01*
X81285000Y-105880000D01*
G37*
G36*
X117546000Y-104236402D02*
G01*
X117548402Y-104260788D01*
X117555515Y-104284237D01*
X117567066Y-104305848D01*
X117582611Y-104324790D01*
X117601553Y-104340335D01*
X117623164Y-104351886D01*
X117646613Y-104358999D01*
X117670999Y-104361401D01*
X117695385Y-104358999D01*
X117729921Y-104346642D01*
X117846825Y-104284155D01*
X117978776Y-104244128D01*
X118081610Y-104234000D01*
X118150390Y-104234000D01*
X118253224Y-104244128D01*
X118385175Y-104284155D01*
X118506781Y-104349155D01*
X118613370Y-104436630D01*
X118700845Y-104543219D01*
X118765845Y-104664825D01*
X118805872Y-104796776D01*
X118819387Y-104934000D01*
X118805872Y-105071224D01*
X118765845Y-105203175D01*
X118700845Y-105324781D01*
X118613370Y-105431370D01*
X118506781Y-105518845D01*
X118385175Y-105583845D01*
X118253224Y-105623872D01*
X118150390Y-105634000D01*
X118081610Y-105634000D01*
X117978776Y-105623872D01*
X117846825Y-105583845D01*
X117729920Y-105521358D01*
X117707284Y-105511981D01*
X117683251Y-105507201D01*
X117658747Y-105507201D01*
X117634714Y-105511981D01*
X117612075Y-105521359D01*
X117591700Y-105534973D01*
X117574373Y-105552300D01*
X117560760Y-105572674D01*
X117551382Y-105595313D01*
X117546000Y-105631598D01*
X117546000Y-105634000D01*
X116146000Y-105634000D01*
X116146000Y-104234000D01*
X117546000Y-104234000D01*
X117546000Y-104236402D01*
X117546000Y-104236402D01*
G37*
G36*
X136124249Y-98564981D02*
G01*
X136397575Y-98647894D01*
X136397578Y-98647895D01*
X136649472Y-98782535D01*
X136870266Y-98963734D01*
X137051465Y-99184527D01*
X137186105Y-99436421D01*
X137186105Y-99436422D01*
X137186106Y-99436424D01*
X137269019Y-99709750D01*
X137290000Y-99922775D01*
X137290000Y-102565225D01*
X137269019Y-102778250D01*
X137190814Y-103036055D01*
X137186105Y-103051579D01*
X137051465Y-103303473D01*
X136870266Y-103524266D01*
X136649473Y-103705465D01*
X136397579Y-103840105D01*
X136397576Y-103840106D01*
X136124250Y-103923019D01*
X135840000Y-103951015D01*
X135555751Y-103923019D01*
X135282425Y-103840106D01*
X135282422Y-103840105D01*
X135030528Y-103705465D01*
X134809735Y-103524266D01*
X134628536Y-103303473D01*
X134493896Y-103051579D01*
X134489187Y-103036055D01*
X134410982Y-102778250D01*
X134390001Y-102565225D01*
X134390000Y-99922776D01*
X134410981Y-99709751D01*
X134493894Y-99436425D01*
X134493895Y-99436422D01*
X134628535Y-99184528D01*
X134809734Y-98963734D01*
X135030527Y-98782535D01*
X135282421Y-98647895D01*
X135282424Y-98647894D01*
X135555750Y-98564981D01*
X135840000Y-98536985D01*
X136124249Y-98564981D01*
X136124249Y-98564981D01*
G37*
G36*
X142099744Y-98813172D02*
G01*
X142349508Y-98888937D01*
X142579691Y-99011972D01*
X142781450Y-99177550D01*
X142947028Y-99379308D01*
X143070063Y-99609491D01*
X143145828Y-99859255D01*
X143165000Y-100053909D01*
X143165000Y-102434091D01*
X143145828Y-102628745D01*
X143070063Y-102878509D01*
X142947028Y-103108692D01*
X142781450Y-103310450D01*
X142579692Y-103476028D01*
X142349509Y-103599063D01*
X142099745Y-103674828D01*
X141840000Y-103700411D01*
X141580256Y-103674828D01*
X141330492Y-103599063D01*
X141100309Y-103476028D01*
X140898551Y-103310450D01*
X140732973Y-103108692D01*
X140609938Y-102878509D01*
X140534173Y-102628745D01*
X140515001Y-102434091D01*
X140515000Y-100053910D01*
X140534172Y-99859256D01*
X140609937Y-99609492D01*
X140732972Y-99379309D01*
X140898550Y-99177550D01*
X141100308Y-99011972D01*
X141330491Y-98888937D01*
X141580255Y-98813172D01*
X141840000Y-98787589D01*
X142099744Y-98813172D01*
X142099744Y-98813172D01*
G37*
G36*
X82893707Y-101247597D02*
G01*
X82970836Y-101255193D01*
X83168762Y-101315233D01*
X83168765Y-101315234D01*
X83351170Y-101412732D01*
X83511055Y-101543945D01*
X83642268Y-101703830D01*
X83739766Y-101886235D01*
X83739767Y-101886238D01*
X83799807Y-102084164D01*
X83820080Y-102290000D01*
X83799807Y-102495836D01*
X83739767Y-102693762D01*
X83739766Y-102693765D01*
X83642268Y-102876170D01*
X83511055Y-103036055D01*
X83351170Y-103167268D01*
X83168765Y-103264766D01*
X83168762Y-103264767D01*
X82970836Y-103324807D01*
X82893707Y-103332404D01*
X82816580Y-103340000D01*
X82713420Y-103340000D01*
X82636293Y-103332403D01*
X82559164Y-103324807D01*
X82361238Y-103264767D01*
X82361235Y-103264766D01*
X82178830Y-103167268D01*
X82018945Y-103036055D01*
X81887732Y-102876170D01*
X81790234Y-102693765D01*
X81790233Y-102693762D01*
X81730193Y-102495836D01*
X81709920Y-102290000D01*
X81730193Y-102084164D01*
X81790233Y-101886238D01*
X81790234Y-101886235D01*
X81887732Y-101703830D01*
X82018945Y-101543945D01*
X82178830Y-101412732D01*
X82361235Y-101315234D01*
X82361238Y-101315233D01*
X82559164Y-101255193D01*
X82636293Y-101247597D01*
X82713420Y-101240000D01*
X82816580Y-101240000D01*
X82893707Y-101247597D01*
X82893707Y-101247597D01*
G37*
G36*
X81275000Y-103340000D02*
G01*
X79175000Y-103340000D01*
X79175000Y-101240000D01*
X81275000Y-101240000D01*
X81275000Y-103340000D01*
X81275000Y-103340000D01*
G37*
G36*
X85433707Y-101247597D02*
G01*
X85510836Y-101255193D01*
X85708762Y-101315233D01*
X85708765Y-101315234D01*
X85891170Y-101412732D01*
X86051055Y-101543945D01*
X86182268Y-101703830D01*
X86279766Y-101886235D01*
X86279767Y-101886238D01*
X86339807Y-102084164D01*
X86360080Y-102290000D01*
X86339807Y-102495836D01*
X86279767Y-102693762D01*
X86279766Y-102693765D01*
X86182268Y-102876170D01*
X86051055Y-103036055D01*
X85891170Y-103167268D01*
X85708765Y-103264766D01*
X85708762Y-103264767D01*
X85510836Y-103324807D01*
X85433707Y-103332404D01*
X85356580Y-103340000D01*
X85253420Y-103340000D01*
X85176293Y-103332403D01*
X85099164Y-103324807D01*
X84901238Y-103264767D01*
X84901235Y-103264766D01*
X84718830Y-103167268D01*
X84558945Y-103036055D01*
X84427732Y-102876170D01*
X84330234Y-102693765D01*
X84330233Y-102693762D01*
X84270193Y-102495836D01*
X84249920Y-102290000D01*
X84270193Y-102084164D01*
X84330233Y-101886238D01*
X84330234Y-101886235D01*
X84427732Y-101703830D01*
X84558945Y-101543945D01*
X84718830Y-101412732D01*
X84901235Y-101315234D01*
X84901238Y-101315233D01*
X85099164Y-101255193D01*
X85176293Y-101247597D01*
X85253420Y-101240000D01*
X85356580Y-101240000D01*
X85433707Y-101247597D01*
X85433707Y-101247597D01*
G37*
G36*
X81275000Y-100800000D02*
G01*
X79175000Y-100800000D01*
X79175000Y-98700000D01*
X81275000Y-98700000D01*
X81275000Y-100800000D01*
X81275000Y-100800000D01*
G37*
G36*
X85433707Y-98707597D02*
G01*
X85510836Y-98715193D01*
X85708762Y-98775233D01*
X85708765Y-98775234D01*
X85891170Y-98872732D01*
X86051055Y-99003945D01*
X86182268Y-99163830D01*
X86279766Y-99346235D01*
X86279767Y-99346238D01*
X86339807Y-99544164D01*
X86360080Y-99750000D01*
X86339807Y-99955836D01*
X86310055Y-100053915D01*
X86279766Y-100153765D01*
X86182268Y-100336170D01*
X86051055Y-100496055D01*
X85891170Y-100627268D01*
X85708765Y-100724766D01*
X85708762Y-100724767D01*
X85510836Y-100784807D01*
X85433707Y-100792404D01*
X85356580Y-100800000D01*
X85253420Y-100800000D01*
X85176293Y-100792404D01*
X85099164Y-100784807D01*
X84901238Y-100724767D01*
X84901235Y-100724766D01*
X84718830Y-100627268D01*
X84558945Y-100496055D01*
X84427732Y-100336170D01*
X84330234Y-100153765D01*
X84299945Y-100053915D01*
X84270193Y-99955836D01*
X84249920Y-99750000D01*
X84270193Y-99544164D01*
X84330233Y-99346238D01*
X84330234Y-99346235D01*
X84427732Y-99163830D01*
X84558945Y-99003945D01*
X84718830Y-98872732D01*
X84901235Y-98775234D01*
X84901238Y-98775233D01*
X85099164Y-98715193D01*
X85176293Y-98707596D01*
X85253420Y-98700000D01*
X85356580Y-98700000D01*
X85433707Y-98707597D01*
X85433707Y-98707597D01*
G37*
G36*
X82893707Y-98707597D02*
G01*
X82970836Y-98715193D01*
X83168762Y-98775233D01*
X83168765Y-98775234D01*
X83351170Y-98872732D01*
X83511055Y-99003945D01*
X83642268Y-99163830D01*
X83739766Y-99346235D01*
X83739767Y-99346238D01*
X83799807Y-99544164D01*
X83820080Y-99750000D01*
X83799807Y-99955836D01*
X83770055Y-100053915D01*
X83739766Y-100153765D01*
X83642268Y-100336170D01*
X83511055Y-100496055D01*
X83351170Y-100627268D01*
X83168765Y-100724766D01*
X83168762Y-100724767D01*
X82970836Y-100784807D01*
X82893707Y-100792404D01*
X82816580Y-100800000D01*
X82713420Y-100800000D01*
X82636293Y-100792404D01*
X82559164Y-100784807D01*
X82361238Y-100724767D01*
X82361235Y-100724766D01*
X82178830Y-100627268D01*
X82018945Y-100496055D01*
X81887732Y-100336170D01*
X81790234Y-100153765D01*
X81759945Y-100053915D01*
X81730193Y-99955836D01*
X81709920Y-99750000D01*
X81730193Y-99544164D01*
X81790233Y-99346238D01*
X81790234Y-99346235D01*
X81887732Y-99163830D01*
X82018945Y-99003945D01*
X82178830Y-98872732D01*
X82361235Y-98775234D01*
X82361238Y-98775233D01*
X82559164Y-98715193D01*
X82636293Y-98707596D01*
X82713420Y-98700000D01*
X82816580Y-98700000D01*
X82893707Y-98707597D01*
X82893707Y-98707597D01*
G37*
G36*
X140968707Y-90001596D02*
G01*
X141045836Y-90009193D01*
X141243762Y-90069233D01*
X141243765Y-90069234D01*
X141426170Y-90166732D01*
X141586055Y-90297945D01*
X141717268Y-90457830D01*
X141814766Y-90640235D01*
X141814767Y-90640238D01*
X141874807Y-90838164D01*
X141895080Y-91044000D01*
X141874807Y-91249836D01*
X141814767Y-91447762D01*
X141814766Y-91447765D01*
X141717268Y-91630170D01*
X141586055Y-91790055D01*
X141426170Y-91921268D01*
X141243765Y-92018766D01*
X141243762Y-92018767D01*
X141045836Y-92078807D01*
X140968707Y-92086404D01*
X140891580Y-92094000D01*
X140788420Y-92094000D01*
X140711293Y-92086404D01*
X140634164Y-92078807D01*
X140436238Y-92018767D01*
X140436235Y-92018766D01*
X140253830Y-91921268D01*
X140093945Y-91790055D01*
X139962732Y-91630170D01*
X139865234Y-91447765D01*
X139865233Y-91447762D01*
X139805193Y-91249836D01*
X139784920Y-91044000D01*
X139805193Y-90838164D01*
X139865233Y-90640238D01*
X139865234Y-90640235D01*
X139962732Y-90457830D01*
X140093945Y-90297945D01*
X140253830Y-90166732D01*
X140436235Y-90069234D01*
X140436238Y-90069233D01*
X140634164Y-90009193D01*
X140711293Y-90001596D01*
X140788420Y-89994000D01*
X140891580Y-89994000D01*
X140968707Y-90001596D01*
X140968707Y-90001596D01*
G37*
G36*
X140968707Y-87461596D02*
G01*
X141045836Y-87469193D01*
X141243762Y-87529233D01*
X141243765Y-87529234D01*
X141426170Y-87626732D01*
X141586055Y-87757945D01*
X141717268Y-87917830D01*
X141814766Y-88100235D01*
X141814767Y-88100238D01*
X141874807Y-88298164D01*
X141895080Y-88504000D01*
X141874807Y-88709836D01*
X141814767Y-88907762D01*
X141814766Y-88907765D01*
X141717268Y-89090170D01*
X141586055Y-89250055D01*
X141426170Y-89381268D01*
X141243765Y-89478766D01*
X141243762Y-89478767D01*
X141045836Y-89538807D01*
X140968707Y-89546404D01*
X140891580Y-89554000D01*
X140788420Y-89554000D01*
X140711293Y-89546404D01*
X140634164Y-89538807D01*
X140436238Y-89478767D01*
X140436235Y-89478766D01*
X140253830Y-89381268D01*
X140093945Y-89250055D01*
X139962732Y-89090170D01*
X139865234Y-88907765D01*
X139865233Y-88907762D01*
X139805193Y-88709836D01*
X139784920Y-88504000D01*
X139805193Y-88298164D01*
X139865233Y-88100238D01*
X139865234Y-88100235D01*
X139962732Y-87917830D01*
X140093945Y-87757945D01*
X140253830Y-87626732D01*
X140436235Y-87529234D01*
X140436238Y-87529233D01*
X140634164Y-87469193D01*
X140711293Y-87461596D01*
X140788420Y-87454000D01*
X140891580Y-87454000D01*
X140968707Y-87461596D01*
X140968707Y-87461596D01*
G37*
G36*
X140968707Y-84921597D02*
G01*
X141045836Y-84929193D01*
X141243762Y-84989233D01*
X141243765Y-84989234D01*
X141426170Y-85086732D01*
X141586055Y-85217945D01*
X141717268Y-85377830D01*
X141814766Y-85560235D01*
X141814767Y-85560238D01*
X141874807Y-85758164D01*
X141895080Y-85964000D01*
X141874807Y-86169836D01*
X141814767Y-86367762D01*
X141814766Y-86367765D01*
X141717268Y-86550170D01*
X141586055Y-86710055D01*
X141426170Y-86841268D01*
X141243765Y-86938766D01*
X141243762Y-86938767D01*
X141045836Y-86998807D01*
X140968707Y-87006404D01*
X140891580Y-87014000D01*
X140788420Y-87014000D01*
X140711293Y-87006404D01*
X140634164Y-86998807D01*
X140436238Y-86938767D01*
X140436235Y-86938766D01*
X140253830Y-86841268D01*
X140093945Y-86710055D01*
X139962732Y-86550170D01*
X139865234Y-86367765D01*
X139865233Y-86367762D01*
X139805193Y-86169836D01*
X139784920Y-85964000D01*
X139805193Y-85758164D01*
X139865233Y-85560238D01*
X139865234Y-85560235D01*
X139962732Y-85377830D01*
X140093945Y-85217945D01*
X140253830Y-85086732D01*
X140436235Y-84989234D01*
X140436238Y-84989233D01*
X140634164Y-84929193D01*
X140711293Y-84921597D01*
X140788420Y-84914000D01*
X140891580Y-84914000D01*
X140968707Y-84921597D01*
X140968707Y-84921597D01*
G37*
G36*
X141890000Y-84474000D02*
G01*
X139790000Y-84474000D01*
X139790000Y-82374000D01*
X141890000Y-82374000D01*
X141890000Y-84474000D01*
X141890000Y-84474000D01*
G37*
G36*
X129748707Y-77301596D02*
G01*
X129825836Y-77309193D01*
X130023762Y-77369233D01*
X130023765Y-77369234D01*
X130206170Y-77466732D01*
X130366055Y-77597945D01*
X130497268Y-77757830D01*
X130594766Y-77940235D01*
X130594767Y-77940238D01*
X130654807Y-78138164D01*
X130675080Y-78344000D01*
X130654807Y-78549836D01*
X130594767Y-78747762D01*
X130594766Y-78747765D01*
X130497268Y-78930170D01*
X130366055Y-79090055D01*
X130206170Y-79221268D01*
X130023765Y-79318766D01*
X130023762Y-79318767D01*
X129825836Y-79378807D01*
X129748707Y-79386403D01*
X129671580Y-79394000D01*
X129568420Y-79394000D01*
X129491293Y-79386403D01*
X129414164Y-79378807D01*
X129216238Y-79318767D01*
X129216235Y-79318766D01*
X129033830Y-79221268D01*
X128873945Y-79090055D01*
X128742732Y-78930170D01*
X128645234Y-78747765D01*
X128645233Y-78747762D01*
X128585193Y-78549836D01*
X128564920Y-78344000D01*
X128585193Y-78138164D01*
X128645233Y-77940238D01*
X128645234Y-77940235D01*
X128742732Y-77757830D01*
X128873945Y-77597945D01*
X129033830Y-77466732D01*
X129216235Y-77369234D01*
X129216238Y-77369233D01*
X129414164Y-77309193D01*
X129491293Y-77301596D01*
X129568420Y-77294000D01*
X129671580Y-77294000D01*
X129748707Y-77301596D01*
X129748707Y-77301596D01*
G37*
G36*
X133210000Y-79394000D02*
G01*
X131110000Y-79394000D01*
X131110000Y-77294000D01*
X133210000Y-77294000D01*
X133210000Y-79394000D01*
X133210000Y-79394000D01*
G37*
G36*
X140948707Y-77301596D02*
G01*
X141025836Y-77309193D01*
X141223762Y-77369233D01*
X141223765Y-77369234D01*
X141406170Y-77466732D01*
X141566055Y-77597945D01*
X141697268Y-77757830D01*
X141794766Y-77940235D01*
X141794767Y-77940238D01*
X141854807Y-78138164D01*
X141875080Y-78344000D01*
X141854807Y-78549836D01*
X141794767Y-78747762D01*
X141794766Y-78747765D01*
X141697268Y-78930170D01*
X141566055Y-79090055D01*
X141406170Y-79221268D01*
X141223765Y-79318766D01*
X141223762Y-79318767D01*
X141025836Y-79378807D01*
X140948707Y-79386403D01*
X140871580Y-79394000D01*
X140768420Y-79394000D01*
X140691293Y-79386403D01*
X140614164Y-79378807D01*
X140416238Y-79318767D01*
X140416235Y-79318766D01*
X140233830Y-79221268D01*
X140073945Y-79090055D01*
X139942732Y-78930170D01*
X139845234Y-78747765D01*
X139845233Y-78747762D01*
X139785193Y-78549836D01*
X139764920Y-78344000D01*
X139785193Y-78138164D01*
X139845233Y-77940238D01*
X139845234Y-77940235D01*
X139942732Y-77757830D01*
X140073945Y-77597945D01*
X140233830Y-77466732D01*
X140416235Y-77369234D01*
X140416238Y-77369233D01*
X140614164Y-77309193D01*
X140691293Y-77301596D01*
X140768420Y-77294000D01*
X140871580Y-77294000D01*
X140948707Y-77301596D01*
X140948707Y-77301596D01*
G37*
G36*
X127208707Y-77301596D02*
G01*
X127285836Y-77309193D01*
X127483762Y-77369233D01*
X127483765Y-77369234D01*
X127666170Y-77466732D01*
X127826055Y-77597945D01*
X127957268Y-77757830D01*
X128054766Y-77940235D01*
X128054767Y-77940238D01*
X128114807Y-78138164D01*
X128135080Y-78344000D01*
X128114807Y-78549836D01*
X128054767Y-78747762D01*
X128054766Y-78747765D01*
X127957268Y-78930170D01*
X127826055Y-79090055D01*
X127666170Y-79221268D01*
X127483765Y-79318766D01*
X127483762Y-79318767D01*
X127285836Y-79378807D01*
X127208707Y-79386403D01*
X127131580Y-79394000D01*
X127028420Y-79394000D01*
X126951293Y-79386403D01*
X126874164Y-79378807D01*
X126676238Y-79318767D01*
X126676235Y-79318766D01*
X126493830Y-79221268D01*
X126333945Y-79090055D01*
X126202732Y-78930170D01*
X126105234Y-78747765D01*
X126105233Y-78747762D01*
X126045193Y-78549836D01*
X126024920Y-78344000D01*
X126045193Y-78138164D01*
X126105233Y-77940238D01*
X126105234Y-77940235D01*
X126202732Y-77757830D01*
X126333945Y-77597945D01*
X126493830Y-77466732D01*
X126676235Y-77369234D01*
X126676238Y-77369233D01*
X126874164Y-77309193D01*
X126951293Y-77301596D01*
X127028420Y-77294000D01*
X127131580Y-77294000D01*
X127208707Y-77301596D01*
X127208707Y-77301596D01*
G37*
G36*
X124668707Y-77301596D02*
G01*
X124745836Y-77309193D01*
X124943762Y-77369233D01*
X124943765Y-77369234D01*
X125126170Y-77466732D01*
X125286055Y-77597945D01*
X125417268Y-77757830D01*
X125514766Y-77940235D01*
X125514767Y-77940238D01*
X125574807Y-78138164D01*
X125595080Y-78344000D01*
X125574807Y-78549836D01*
X125514767Y-78747762D01*
X125514766Y-78747765D01*
X125417268Y-78930170D01*
X125286055Y-79090055D01*
X125126170Y-79221268D01*
X124943765Y-79318766D01*
X124943762Y-79318767D01*
X124745836Y-79378807D01*
X124668707Y-79386403D01*
X124591580Y-79394000D01*
X124488420Y-79394000D01*
X124411293Y-79386403D01*
X124334164Y-79378807D01*
X124136238Y-79318767D01*
X124136235Y-79318766D01*
X123953830Y-79221268D01*
X123793945Y-79090055D01*
X123662732Y-78930170D01*
X123565234Y-78747765D01*
X123565233Y-78747762D01*
X123505193Y-78549836D01*
X123484920Y-78344000D01*
X123505193Y-78138164D01*
X123565233Y-77940238D01*
X123565234Y-77940235D01*
X123662732Y-77757830D01*
X123793945Y-77597945D01*
X123953830Y-77466732D01*
X124136235Y-77369234D01*
X124136238Y-77369233D01*
X124334164Y-77309193D01*
X124411293Y-77301596D01*
X124488420Y-77294000D01*
X124591580Y-77294000D01*
X124668707Y-77301596D01*
X124668707Y-77301596D01*
G37*
G36*
X140948707Y-74761597D02*
G01*
X141025836Y-74769193D01*
X141223762Y-74829233D01*
X141223765Y-74829234D01*
X141406170Y-74926732D01*
X141566055Y-75057945D01*
X141697268Y-75217830D01*
X141794766Y-75400235D01*
X141794767Y-75400238D01*
X141854807Y-75598164D01*
X141875080Y-75804000D01*
X141854807Y-76009836D01*
X141794767Y-76207762D01*
X141794766Y-76207765D01*
X141697268Y-76390170D01*
X141566055Y-76550055D01*
X141406170Y-76681268D01*
X141223765Y-76778766D01*
X141223762Y-76778767D01*
X141025836Y-76838807D01*
X140948707Y-76846404D01*
X140871580Y-76854000D01*
X140768420Y-76854000D01*
X140691293Y-76846404D01*
X140614164Y-76838807D01*
X140416238Y-76778767D01*
X140416235Y-76778766D01*
X140233830Y-76681268D01*
X140073945Y-76550055D01*
X139942732Y-76390170D01*
X139845234Y-76207765D01*
X139845233Y-76207762D01*
X139785193Y-76009836D01*
X139764920Y-75804000D01*
X139785193Y-75598164D01*
X139845233Y-75400238D01*
X139845234Y-75400235D01*
X139942732Y-75217830D01*
X140073945Y-75057945D01*
X140233830Y-74926732D01*
X140416235Y-74829234D01*
X140416238Y-74829233D01*
X140614164Y-74769193D01*
X140691293Y-74761597D01*
X140768420Y-74754000D01*
X140871580Y-74754000D01*
X140948707Y-74761597D01*
X140948707Y-74761597D01*
G37*
G36*
X140948707Y-72221596D02*
G01*
X141025836Y-72229193D01*
X141223762Y-72289233D01*
X141223765Y-72289234D01*
X141406170Y-72386732D01*
X141566055Y-72517945D01*
X141697268Y-72677830D01*
X141794766Y-72860235D01*
X141794767Y-72860238D01*
X141854807Y-73058164D01*
X141875080Y-73264000D01*
X141854807Y-73469836D01*
X141794767Y-73667762D01*
X141794766Y-73667765D01*
X141697268Y-73850170D01*
X141566055Y-74010055D01*
X141406170Y-74141268D01*
X141223765Y-74238766D01*
X141223762Y-74238767D01*
X141025836Y-74298807D01*
X140948707Y-74306403D01*
X140871580Y-74314000D01*
X140768420Y-74314000D01*
X140691293Y-74306403D01*
X140614164Y-74298807D01*
X140416238Y-74238767D01*
X140416235Y-74238766D01*
X140233830Y-74141268D01*
X140073945Y-74010055D01*
X139942732Y-73850170D01*
X139845234Y-73667765D01*
X139845233Y-73667762D01*
X139785193Y-73469836D01*
X139764920Y-73264000D01*
X139785193Y-73058164D01*
X139845233Y-72860238D01*
X139845234Y-72860235D01*
X139942732Y-72677830D01*
X140073945Y-72517945D01*
X140233830Y-72386732D01*
X140416235Y-72289234D01*
X140416238Y-72289233D01*
X140614164Y-72229193D01*
X140691293Y-72221596D01*
X140768420Y-72214000D01*
X140871580Y-72214000D01*
X140948707Y-72221596D01*
X140948707Y-72221596D01*
G37*
G36*
X132288707Y-69681597D02*
G01*
X132365836Y-69689193D01*
X132563762Y-69749233D01*
X132563765Y-69749234D01*
X132746170Y-69846732D01*
X132906055Y-69977945D01*
X133037268Y-70137830D01*
X133134766Y-70320235D01*
X133134767Y-70320238D01*
X133194807Y-70518164D01*
X133215080Y-70724000D01*
X133194807Y-70929836D01*
X133134767Y-71127762D01*
X133134766Y-71127765D01*
X133037268Y-71310170D01*
X132906055Y-71470055D01*
X132746170Y-71601268D01*
X132563765Y-71698766D01*
X132563762Y-71698767D01*
X132365836Y-71758807D01*
X132288707Y-71766404D01*
X132211580Y-71774000D01*
X132108420Y-71774000D01*
X132031293Y-71766404D01*
X131954164Y-71758807D01*
X131756238Y-71698767D01*
X131756235Y-71698766D01*
X131573830Y-71601268D01*
X131413945Y-71470055D01*
X131282732Y-71310170D01*
X131185234Y-71127765D01*
X131185233Y-71127762D01*
X131125193Y-70929836D01*
X131104920Y-70724000D01*
X131125193Y-70518164D01*
X131185233Y-70320238D01*
X131185234Y-70320235D01*
X131282732Y-70137830D01*
X131413945Y-69977945D01*
X131573830Y-69846732D01*
X131756235Y-69749234D01*
X131756238Y-69749233D01*
X131954164Y-69689193D01*
X132031293Y-69681597D01*
X132108420Y-69674000D01*
X132211580Y-69674000D01*
X132288707Y-69681597D01*
X132288707Y-69681597D01*
G37*
G36*
X128130000Y-71774000D02*
G01*
X126030000Y-71774000D01*
X126030000Y-69674000D01*
X128130000Y-69674000D01*
X128130000Y-71774000D01*
X128130000Y-71774000D01*
G37*
G36*
X129748707Y-69681597D02*
G01*
X129825836Y-69689193D01*
X130023762Y-69749233D01*
X130023765Y-69749234D01*
X130206170Y-69846732D01*
X130366055Y-69977945D01*
X130497268Y-70137830D01*
X130594766Y-70320235D01*
X130594767Y-70320238D01*
X130654807Y-70518164D01*
X130675080Y-70724000D01*
X130654807Y-70929836D01*
X130594767Y-71127762D01*
X130594766Y-71127765D01*
X130497268Y-71310170D01*
X130366055Y-71470055D01*
X130206170Y-71601268D01*
X130023765Y-71698766D01*
X130023762Y-71698767D01*
X129825836Y-71758807D01*
X129748707Y-71766404D01*
X129671580Y-71774000D01*
X129568420Y-71774000D01*
X129491293Y-71766404D01*
X129414164Y-71758807D01*
X129216238Y-71698767D01*
X129216235Y-71698766D01*
X129033830Y-71601268D01*
X128873945Y-71470055D01*
X128742732Y-71310170D01*
X128645234Y-71127765D01*
X128645233Y-71127762D01*
X128585193Y-70929836D01*
X128564920Y-70724000D01*
X128585193Y-70518164D01*
X128645233Y-70320238D01*
X128645234Y-70320235D01*
X128742732Y-70137830D01*
X128873945Y-69977945D01*
X129033830Y-69846732D01*
X129216235Y-69749234D01*
X129216238Y-69749233D01*
X129414164Y-69689193D01*
X129491293Y-69681597D01*
X129568420Y-69674000D01*
X129671580Y-69674000D01*
X129748707Y-69681597D01*
X129748707Y-69681597D01*
G37*
G36*
X141870000Y-71774000D02*
G01*
X139770000Y-71774000D01*
X139770000Y-69674000D01*
X141870000Y-69674000D01*
X141870000Y-71774000D01*
X141870000Y-71774000D01*
G37*
G36*
X98086707Y-68043596D02*
G01*
X98163836Y-68051193D01*
X98361762Y-68111233D01*
X98361765Y-68111234D01*
X98544170Y-68208732D01*
X98704055Y-68339945D01*
X98835268Y-68499830D01*
X98932766Y-68682235D01*
X98932767Y-68682238D01*
X98992807Y-68880164D01*
X99013080Y-69086000D01*
X98992807Y-69291836D01*
X98932767Y-69489762D01*
X98932766Y-69489765D01*
X98835268Y-69672170D01*
X98704055Y-69832055D01*
X98544170Y-69963268D01*
X98361765Y-70060766D01*
X98361762Y-70060767D01*
X98163836Y-70120807D01*
X98086707Y-70128403D01*
X98009580Y-70136000D01*
X97906420Y-70136000D01*
X97829293Y-70128403D01*
X97752164Y-70120807D01*
X97554238Y-70060767D01*
X97554235Y-70060766D01*
X97371830Y-69963268D01*
X97211945Y-69832055D01*
X97080732Y-69672170D01*
X96983234Y-69489765D01*
X96983233Y-69489762D01*
X96923193Y-69291836D01*
X96902920Y-69086000D01*
X96923193Y-68880164D01*
X96983233Y-68682238D01*
X96983234Y-68682235D01*
X97080732Y-68499830D01*
X97211945Y-68339945D01*
X97371830Y-68208732D01*
X97554235Y-68111234D01*
X97554238Y-68111233D01*
X97752164Y-68051193D01*
X97829293Y-68043596D01*
X97906420Y-68036000D01*
X98009580Y-68036000D01*
X98086707Y-68043596D01*
X98086707Y-68043596D01*
G37*
G36*
X103166707Y-68043596D02*
G01*
X103243836Y-68051193D01*
X103441762Y-68111233D01*
X103441765Y-68111234D01*
X103624170Y-68208732D01*
X103784055Y-68339945D01*
X103915268Y-68499830D01*
X104012766Y-68682235D01*
X104012767Y-68682238D01*
X104072807Y-68880164D01*
X104093080Y-69086000D01*
X104072807Y-69291836D01*
X104012767Y-69489762D01*
X104012766Y-69489765D01*
X103915268Y-69672170D01*
X103784055Y-69832055D01*
X103624170Y-69963268D01*
X103441765Y-70060766D01*
X103441762Y-70060767D01*
X103243836Y-70120807D01*
X103166707Y-70128403D01*
X103089580Y-70136000D01*
X102986420Y-70136000D01*
X102909293Y-70128403D01*
X102832164Y-70120807D01*
X102634238Y-70060767D01*
X102634235Y-70060766D01*
X102451830Y-69963268D01*
X102291945Y-69832055D01*
X102160732Y-69672170D01*
X102063234Y-69489765D01*
X102063233Y-69489762D01*
X102003193Y-69291836D01*
X101982920Y-69086000D01*
X102003193Y-68880164D01*
X102063233Y-68682238D01*
X102063234Y-68682235D01*
X102160732Y-68499830D01*
X102291945Y-68339945D01*
X102451830Y-68208732D01*
X102634235Y-68111234D01*
X102634238Y-68111233D01*
X102832164Y-68051193D01*
X102909293Y-68043596D01*
X102986420Y-68036000D01*
X103089580Y-68036000D01*
X103166707Y-68043596D01*
X103166707Y-68043596D01*
G37*
G36*
X100626707Y-68043596D02*
G01*
X100703836Y-68051193D01*
X100901762Y-68111233D01*
X100901765Y-68111234D01*
X101084170Y-68208732D01*
X101244055Y-68339945D01*
X101375268Y-68499830D01*
X101472766Y-68682235D01*
X101472767Y-68682238D01*
X101532807Y-68880164D01*
X101553080Y-69086000D01*
X101532807Y-69291836D01*
X101472767Y-69489762D01*
X101472766Y-69489765D01*
X101375268Y-69672170D01*
X101244055Y-69832055D01*
X101084170Y-69963268D01*
X100901765Y-70060766D01*
X100901762Y-70060767D01*
X100703836Y-70120807D01*
X100626707Y-70128403D01*
X100549580Y-70136000D01*
X100446420Y-70136000D01*
X100369293Y-70128403D01*
X100292164Y-70120807D01*
X100094238Y-70060767D01*
X100094235Y-70060766D01*
X99911830Y-69963268D01*
X99751945Y-69832055D01*
X99620732Y-69672170D01*
X99523234Y-69489765D01*
X99523233Y-69489762D01*
X99463193Y-69291836D01*
X99442920Y-69086000D01*
X99463193Y-68880164D01*
X99523233Y-68682238D01*
X99523234Y-68682235D01*
X99620732Y-68499830D01*
X99751945Y-68339945D01*
X99911830Y-68208732D01*
X100094235Y-68111234D01*
X100094238Y-68111233D01*
X100292164Y-68051193D01*
X100369293Y-68043596D01*
X100446420Y-68036000D01*
X100549580Y-68036000D01*
X100626707Y-68043596D01*
X100626707Y-68043596D01*
G37*
G36*
X113326707Y-68043596D02*
G01*
X113403836Y-68051193D01*
X113601762Y-68111233D01*
X113601765Y-68111234D01*
X113784170Y-68208732D01*
X113944055Y-68339945D01*
X114075268Y-68499830D01*
X114172766Y-68682235D01*
X114172767Y-68682238D01*
X114232807Y-68880164D01*
X114253080Y-69086000D01*
X114232807Y-69291836D01*
X114172767Y-69489762D01*
X114172766Y-69489765D01*
X114075268Y-69672170D01*
X113944055Y-69832055D01*
X113784170Y-69963268D01*
X113601765Y-70060766D01*
X113601762Y-70060767D01*
X113403836Y-70120807D01*
X113326707Y-70128403D01*
X113249580Y-70136000D01*
X113146420Y-70136000D01*
X113069293Y-70128403D01*
X112992164Y-70120807D01*
X112794238Y-70060767D01*
X112794235Y-70060766D01*
X112611830Y-69963268D01*
X112451945Y-69832055D01*
X112320732Y-69672170D01*
X112223234Y-69489765D01*
X112223233Y-69489762D01*
X112163193Y-69291836D01*
X112142920Y-69086000D01*
X112163193Y-68880164D01*
X112223233Y-68682238D01*
X112223234Y-68682235D01*
X112320732Y-68499830D01*
X112451945Y-68339945D01*
X112611830Y-68208732D01*
X112794235Y-68111234D01*
X112794238Y-68111233D01*
X112992164Y-68051193D01*
X113069293Y-68043596D01*
X113146420Y-68036000D01*
X113249580Y-68036000D01*
X113326707Y-68043596D01*
X113326707Y-68043596D01*
G37*
G36*
X110786707Y-68043596D02*
G01*
X110863836Y-68051193D01*
X111061762Y-68111233D01*
X111061765Y-68111234D01*
X111244170Y-68208732D01*
X111404055Y-68339945D01*
X111535268Y-68499830D01*
X111632766Y-68682235D01*
X111632767Y-68682238D01*
X111692807Y-68880164D01*
X111713080Y-69086000D01*
X111692807Y-69291836D01*
X111632767Y-69489762D01*
X111632766Y-69489765D01*
X111535268Y-69672170D01*
X111404055Y-69832055D01*
X111244170Y-69963268D01*
X111061765Y-70060766D01*
X111061762Y-70060767D01*
X110863836Y-70120807D01*
X110786707Y-70128403D01*
X110709580Y-70136000D01*
X110606420Y-70136000D01*
X110529293Y-70128403D01*
X110452164Y-70120807D01*
X110254238Y-70060767D01*
X110254235Y-70060766D01*
X110071830Y-69963268D01*
X109911945Y-69832055D01*
X109780732Y-69672170D01*
X109683234Y-69489765D01*
X109683233Y-69489762D01*
X109623193Y-69291836D01*
X109602920Y-69086000D01*
X109623193Y-68880164D01*
X109683233Y-68682238D01*
X109683234Y-68682235D01*
X109780732Y-68499830D01*
X109911945Y-68339945D01*
X110071830Y-68208732D01*
X110254235Y-68111234D01*
X110254238Y-68111233D01*
X110452164Y-68051193D01*
X110529293Y-68043596D01*
X110606420Y-68036000D01*
X110709580Y-68036000D01*
X110786707Y-68043596D01*
X110786707Y-68043596D01*
G37*
G36*
X108246707Y-68043596D02*
G01*
X108323836Y-68051193D01*
X108521762Y-68111233D01*
X108521765Y-68111234D01*
X108704170Y-68208732D01*
X108864055Y-68339945D01*
X108995268Y-68499830D01*
X109092766Y-68682235D01*
X109092767Y-68682238D01*
X109152807Y-68880164D01*
X109173080Y-69086000D01*
X109152807Y-69291836D01*
X109092767Y-69489762D01*
X109092766Y-69489765D01*
X108995268Y-69672170D01*
X108864055Y-69832055D01*
X108704170Y-69963268D01*
X108521765Y-70060766D01*
X108521762Y-70060767D01*
X108323836Y-70120807D01*
X108246707Y-70128403D01*
X108169580Y-70136000D01*
X108066420Y-70136000D01*
X107989293Y-70128403D01*
X107912164Y-70120807D01*
X107714238Y-70060767D01*
X107714235Y-70060766D01*
X107531830Y-69963268D01*
X107371945Y-69832055D01*
X107240732Y-69672170D01*
X107143234Y-69489765D01*
X107143233Y-69489762D01*
X107083193Y-69291836D01*
X107062920Y-69086000D01*
X107083193Y-68880164D01*
X107143233Y-68682238D01*
X107143234Y-68682235D01*
X107240732Y-68499830D01*
X107371945Y-68339945D01*
X107531830Y-68208732D01*
X107714235Y-68111234D01*
X107714238Y-68111233D01*
X107912164Y-68051193D01*
X107989293Y-68043596D01*
X108066420Y-68036000D01*
X108169580Y-68036000D01*
X108246707Y-68043596D01*
X108246707Y-68043596D01*
G37*
G36*
X105706707Y-68043596D02*
G01*
X105783836Y-68051193D01*
X105981762Y-68111233D01*
X105981765Y-68111234D01*
X106164170Y-68208732D01*
X106324055Y-68339945D01*
X106455268Y-68499830D01*
X106552766Y-68682235D01*
X106552767Y-68682238D01*
X106612807Y-68880164D01*
X106633080Y-69086000D01*
X106612807Y-69291836D01*
X106552767Y-69489762D01*
X106552766Y-69489765D01*
X106455268Y-69672170D01*
X106324055Y-69832055D01*
X106164170Y-69963268D01*
X105981765Y-70060766D01*
X105981762Y-70060767D01*
X105783836Y-70120807D01*
X105706707Y-70128403D01*
X105629580Y-70136000D01*
X105526420Y-70136000D01*
X105449293Y-70128403D01*
X105372164Y-70120807D01*
X105174238Y-70060767D01*
X105174235Y-70060766D01*
X104991830Y-69963268D01*
X104831945Y-69832055D01*
X104700732Y-69672170D01*
X104603234Y-69489765D01*
X104603233Y-69489762D01*
X104543193Y-69291836D01*
X104522920Y-69086000D01*
X104543193Y-68880164D01*
X104603233Y-68682238D01*
X104603234Y-68682235D01*
X104700732Y-68499830D01*
X104831945Y-68339945D01*
X104991830Y-68208732D01*
X105174235Y-68111234D01*
X105174238Y-68111233D01*
X105372164Y-68051193D01*
X105449293Y-68043596D01*
X105526420Y-68036000D01*
X105629580Y-68036000D01*
X105706707Y-68043596D01*
X105706707Y-68043596D01*
G37*
G36*
X116788000Y-70136000D02*
G01*
X114688000Y-70136000D01*
X114688000Y-68036000D01*
X116788000Y-68036000D01*
X116788000Y-70136000D01*
X116788000Y-70136000D01*
G37*
G36*
X92128707Y-64547597D02*
G01*
X92205836Y-64555193D01*
X92403762Y-64615233D01*
X92403765Y-64615234D01*
X92586170Y-64712732D01*
X92746055Y-64843945D01*
X92877268Y-65003830D01*
X92974766Y-65186235D01*
X92974767Y-65186238D01*
X93034807Y-65384164D01*
X93055080Y-65590000D01*
X93034807Y-65795836D01*
X93001650Y-65905139D01*
X92974766Y-65993765D01*
X92877268Y-66176170D01*
X92746055Y-66336055D01*
X92586170Y-66467268D01*
X92403765Y-66564766D01*
X92403762Y-66564767D01*
X92205836Y-66624807D01*
X92128707Y-66632404D01*
X92051580Y-66640000D01*
X91948420Y-66640000D01*
X91871293Y-66632404D01*
X91794164Y-66624807D01*
X91596238Y-66564767D01*
X91596235Y-66564766D01*
X91413830Y-66467268D01*
X91253945Y-66336055D01*
X91122732Y-66176170D01*
X91025234Y-65993765D01*
X90998350Y-65905139D01*
X90965193Y-65795836D01*
X90944920Y-65590000D01*
X90965193Y-65384164D01*
X91025233Y-65186238D01*
X91025234Y-65186235D01*
X91122732Y-65003830D01*
X91253945Y-64843945D01*
X91413830Y-64712732D01*
X91596235Y-64615234D01*
X91596238Y-64615233D01*
X91794164Y-64555193D01*
X91871293Y-64547597D01*
X91948420Y-64540000D01*
X92051580Y-64540000D01*
X92128707Y-64547597D01*
X92128707Y-64547597D01*
G37*
G36*
X89588707Y-64547597D02*
G01*
X89665836Y-64555193D01*
X89863762Y-64615233D01*
X89863765Y-64615234D01*
X90046170Y-64712732D01*
X90206055Y-64843945D01*
X90337268Y-65003830D01*
X90434766Y-65186235D01*
X90434767Y-65186238D01*
X90494807Y-65384164D01*
X90515080Y-65590000D01*
X90494807Y-65795836D01*
X90461650Y-65905139D01*
X90434766Y-65993765D01*
X90337268Y-66176170D01*
X90206055Y-66336055D01*
X90046170Y-66467268D01*
X89863765Y-66564766D01*
X89863762Y-66564767D01*
X89665836Y-66624807D01*
X89588707Y-66632404D01*
X89511580Y-66640000D01*
X89408420Y-66640000D01*
X89331293Y-66632404D01*
X89254164Y-66624807D01*
X89056238Y-66564767D01*
X89056235Y-66564766D01*
X88873830Y-66467268D01*
X88713945Y-66336055D01*
X88582732Y-66176170D01*
X88485234Y-65993765D01*
X88458350Y-65905139D01*
X88425193Y-65795836D01*
X88404920Y-65590000D01*
X88425193Y-65384164D01*
X88485233Y-65186238D01*
X88485234Y-65186235D01*
X88582732Y-65003830D01*
X88713945Y-64843945D01*
X88873830Y-64712732D01*
X89056235Y-64615234D01*
X89056238Y-64615233D01*
X89254164Y-64555193D01*
X89331293Y-64547597D01*
X89408420Y-64540000D01*
X89511580Y-64540000D01*
X89588707Y-64547597D01*
X89588707Y-64547597D01*
G37*
G36*
X87970000Y-66640000D02*
G01*
X85870000Y-66640000D01*
X85870000Y-64540000D01*
X87970000Y-64540000D01*
X87970000Y-66640000D01*
X87970000Y-66640000D01*
G37*
G36*
X135308707Y-64547597D02*
G01*
X135385836Y-64555193D01*
X135583762Y-64615233D01*
X135583765Y-64615234D01*
X135766170Y-64712732D01*
X135926055Y-64843945D01*
X136057268Y-65003830D01*
X136154766Y-65186235D01*
X136154767Y-65186238D01*
X136214807Y-65384164D01*
X136235080Y-65590000D01*
X136214807Y-65795836D01*
X136181650Y-65905139D01*
X136154766Y-65993765D01*
X136057268Y-66176170D01*
X135926055Y-66336055D01*
X135766170Y-66467268D01*
X135583765Y-66564766D01*
X135583762Y-66564767D01*
X135385836Y-66624807D01*
X135308707Y-66632404D01*
X135231580Y-66640000D01*
X135128420Y-66640000D01*
X135051293Y-66632404D01*
X134974164Y-66624807D01*
X134776238Y-66564767D01*
X134776235Y-66564766D01*
X134593830Y-66467268D01*
X134433945Y-66336055D01*
X134302732Y-66176170D01*
X134205234Y-65993765D01*
X134178350Y-65905139D01*
X134145193Y-65795836D01*
X134124920Y-65590000D01*
X134145193Y-65384164D01*
X134205233Y-65186238D01*
X134205234Y-65186235D01*
X134302732Y-65003830D01*
X134433945Y-64843945D01*
X134593830Y-64712732D01*
X134776235Y-64615234D01*
X134776238Y-64615233D01*
X134974164Y-64555193D01*
X135051293Y-64547597D01*
X135128420Y-64540000D01*
X135231580Y-64540000D01*
X135308707Y-64547597D01*
X135308707Y-64547597D01*
G37*
G36*
X132768707Y-64547597D02*
G01*
X132845836Y-64555193D01*
X133043762Y-64615233D01*
X133043765Y-64615234D01*
X133226170Y-64712732D01*
X133386055Y-64843945D01*
X133517268Y-65003830D01*
X133614766Y-65186235D01*
X133614767Y-65186238D01*
X133674807Y-65384164D01*
X133695080Y-65590000D01*
X133674807Y-65795836D01*
X133641650Y-65905139D01*
X133614766Y-65993765D01*
X133517268Y-66176170D01*
X133386055Y-66336055D01*
X133226170Y-66467268D01*
X133043765Y-66564766D01*
X133043762Y-66564767D01*
X132845836Y-66624807D01*
X132768707Y-66632404D01*
X132691580Y-66640000D01*
X132588420Y-66640000D01*
X132511293Y-66632404D01*
X132434164Y-66624807D01*
X132236238Y-66564767D01*
X132236235Y-66564766D01*
X132053830Y-66467268D01*
X131893945Y-66336055D01*
X131762732Y-66176170D01*
X131665234Y-65993765D01*
X131638350Y-65905139D01*
X131605193Y-65795836D01*
X131584920Y-65590000D01*
X131605193Y-65384164D01*
X131665233Y-65186238D01*
X131665234Y-65186235D01*
X131762732Y-65003830D01*
X131893945Y-64843945D01*
X132053830Y-64712732D01*
X132236235Y-64615234D01*
X132236238Y-64615233D01*
X132434164Y-64555193D01*
X132511293Y-64547597D01*
X132588420Y-64540000D01*
X132691580Y-64540000D01*
X132768707Y-64547597D01*
X132768707Y-64547597D01*
G37*
G36*
X130228707Y-64547597D02*
G01*
X130305836Y-64555193D01*
X130503762Y-64615233D01*
X130503765Y-64615234D01*
X130686170Y-64712732D01*
X130846055Y-64843945D01*
X130977268Y-65003830D01*
X131074766Y-65186235D01*
X131074767Y-65186238D01*
X131134807Y-65384164D01*
X131155080Y-65590000D01*
X131134807Y-65795836D01*
X131101650Y-65905139D01*
X131074766Y-65993765D01*
X130977268Y-66176170D01*
X130846055Y-66336055D01*
X130686170Y-66467268D01*
X130503765Y-66564766D01*
X130503762Y-66564767D01*
X130305836Y-66624807D01*
X130228707Y-66632404D01*
X130151580Y-66640000D01*
X130048420Y-66640000D01*
X129971293Y-66632404D01*
X129894164Y-66624807D01*
X129696238Y-66564767D01*
X129696235Y-66564766D01*
X129513830Y-66467268D01*
X129353945Y-66336055D01*
X129222732Y-66176170D01*
X129125234Y-65993765D01*
X129098350Y-65905139D01*
X129065193Y-65795836D01*
X129044920Y-65590000D01*
X129065193Y-65384164D01*
X129125233Y-65186238D01*
X129125234Y-65186235D01*
X129222732Y-65003830D01*
X129353945Y-64843945D01*
X129513830Y-64712732D01*
X129696235Y-64615234D01*
X129696238Y-64615233D01*
X129894164Y-64555193D01*
X129971293Y-64547597D01*
X130048420Y-64540000D01*
X130151580Y-64540000D01*
X130228707Y-64547597D01*
X130228707Y-64547597D01*
G37*
G36*
X127688707Y-64547597D02*
G01*
X127765836Y-64555193D01*
X127963762Y-64615233D01*
X127963765Y-64615234D01*
X128146170Y-64712732D01*
X128306055Y-64843945D01*
X128437268Y-65003830D01*
X128534766Y-65186235D01*
X128534767Y-65186238D01*
X128594807Y-65384164D01*
X128615080Y-65590000D01*
X128594807Y-65795836D01*
X128561650Y-65905139D01*
X128534766Y-65993765D01*
X128437268Y-66176170D01*
X128306055Y-66336055D01*
X128146170Y-66467268D01*
X127963765Y-66564766D01*
X127963762Y-66564767D01*
X127765836Y-66624807D01*
X127688707Y-66632404D01*
X127611580Y-66640000D01*
X127508420Y-66640000D01*
X127431293Y-66632404D01*
X127354164Y-66624807D01*
X127156238Y-66564767D01*
X127156235Y-66564766D01*
X126973830Y-66467268D01*
X126813945Y-66336055D01*
X126682732Y-66176170D01*
X126585234Y-65993765D01*
X126558350Y-65905139D01*
X126525193Y-65795836D01*
X126504920Y-65590000D01*
X126525193Y-65384164D01*
X126585233Y-65186238D01*
X126585234Y-65186235D01*
X126682732Y-65003830D01*
X126813945Y-64843945D01*
X126973830Y-64712732D01*
X127156235Y-64615234D01*
X127156238Y-64615233D01*
X127354164Y-64555193D01*
X127431293Y-64547597D01*
X127508420Y-64540000D01*
X127611580Y-64540000D01*
X127688707Y-64547597D01*
X127688707Y-64547597D01*
G37*
G36*
X125148707Y-64547597D02*
G01*
X125225836Y-64555193D01*
X125423762Y-64615233D01*
X125423765Y-64615234D01*
X125606170Y-64712732D01*
X125766055Y-64843945D01*
X125897268Y-65003830D01*
X125994766Y-65186235D01*
X125994767Y-65186238D01*
X126054807Y-65384164D01*
X126075080Y-65590000D01*
X126054807Y-65795836D01*
X126021650Y-65905139D01*
X125994766Y-65993765D01*
X125897268Y-66176170D01*
X125766055Y-66336055D01*
X125606170Y-66467268D01*
X125423765Y-66564766D01*
X125423762Y-66564767D01*
X125225836Y-66624807D01*
X125148707Y-66632404D01*
X125071580Y-66640000D01*
X124968420Y-66640000D01*
X124891293Y-66632404D01*
X124814164Y-66624807D01*
X124616238Y-66564767D01*
X124616235Y-66564766D01*
X124433830Y-66467268D01*
X124273945Y-66336055D01*
X124142732Y-66176170D01*
X124045234Y-65993765D01*
X124018350Y-65905139D01*
X123985193Y-65795836D01*
X123964920Y-65590000D01*
X123985193Y-65384164D01*
X124045233Y-65186238D01*
X124045234Y-65186235D01*
X124142732Y-65003830D01*
X124273945Y-64843945D01*
X124433830Y-64712732D01*
X124616235Y-64615234D01*
X124616238Y-64615233D01*
X124814164Y-64555193D01*
X124891293Y-64547597D01*
X124968420Y-64540000D01*
X125071580Y-64540000D01*
X125148707Y-64547597D01*
X125148707Y-64547597D01*
G37*
G36*
X122608707Y-64547597D02*
G01*
X122685836Y-64555193D01*
X122883762Y-64615233D01*
X122883765Y-64615234D01*
X123066170Y-64712732D01*
X123226055Y-64843945D01*
X123357268Y-65003830D01*
X123454766Y-65186235D01*
X123454767Y-65186238D01*
X123514807Y-65384164D01*
X123535080Y-65590000D01*
X123514807Y-65795836D01*
X123481650Y-65905139D01*
X123454766Y-65993765D01*
X123357268Y-66176170D01*
X123226055Y-66336055D01*
X123066170Y-66467268D01*
X122883765Y-66564766D01*
X122883762Y-66564767D01*
X122685836Y-66624807D01*
X122608707Y-66632404D01*
X122531580Y-66640000D01*
X122428420Y-66640000D01*
X122351293Y-66632404D01*
X122274164Y-66624807D01*
X122076238Y-66564767D01*
X122076235Y-66564766D01*
X121893830Y-66467268D01*
X121733945Y-66336055D01*
X121602732Y-66176170D01*
X121505234Y-65993765D01*
X121478350Y-65905139D01*
X121445193Y-65795836D01*
X121424920Y-65590000D01*
X121445193Y-65384164D01*
X121505233Y-65186238D01*
X121505234Y-65186235D01*
X121602732Y-65003830D01*
X121733945Y-64843945D01*
X121893830Y-64712732D01*
X122076235Y-64615234D01*
X122076238Y-64615233D01*
X122274164Y-64555193D01*
X122351293Y-64547597D01*
X122428420Y-64540000D01*
X122531580Y-64540000D01*
X122608707Y-64547597D01*
X122608707Y-64547597D01*
G37*
G36*
X120068707Y-64547597D02*
G01*
X120145836Y-64555193D01*
X120343762Y-64615233D01*
X120343765Y-64615234D01*
X120526170Y-64712732D01*
X120686055Y-64843945D01*
X120817268Y-65003830D01*
X120914766Y-65186235D01*
X120914767Y-65186238D01*
X120974807Y-65384164D01*
X120995080Y-65590000D01*
X120974807Y-65795836D01*
X120941650Y-65905139D01*
X120914766Y-65993765D01*
X120817268Y-66176170D01*
X120686055Y-66336055D01*
X120526170Y-66467268D01*
X120343765Y-66564766D01*
X120343762Y-66564767D01*
X120145836Y-66624807D01*
X120068707Y-66632404D01*
X119991580Y-66640000D01*
X119888420Y-66640000D01*
X119811293Y-66632404D01*
X119734164Y-66624807D01*
X119536238Y-66564767D01*
X119536235Y-66564766D01*
X119353830Y-66467268D01*
X119193945Y-66336055D01*
X119062732Y-66176170D01*
X118965234Y-65993765D01*
X118938350Y-65905139D01*
X118905193Y-65795836D01*
X118884920Y-65590000D01*
X118905193Y-65384164D01*
X118965233Y-65186238D01*
X118965234Y-65186235D01*
X119062732Y-65003830D01*
X119193945Y-64843945D01*
X119353830Y-64712732D01*
X119536235Y-64615234D01*
X119536238Y-64615233D01*
X119734164Y-64555193D01*
X119811293Y-64547597D01*
X119888420Y-64540000D01*
X119991580Y-64540000D01*
X120068707Y-64547597D01*
X120068707Y-64547597D01*
G37*
G36*
X114988707Y-64547597D02*
G01*
X115065836Y-64555193D01*
X115263762Y-64615233D01*
X115263765Y-64615234D01*
X115446170Y-64712732D01*
X115606055Y-64843945D01*
X115737268Y-65003830D01*
X115834766Y-65186235D01*
X115834767Y-65186238D01*
X115894807Y-65384164D01*
X115915080Y-65590000D01*
X115894807Y-65795836D01*
X115861650Y-65905139D01*
X115834766Y-65993765D01*
X115737268Y-66176170D01*
X115606055Y-66336055D01*
X115446170Y-66467268D01*
X115263765Y-66564766D01*
X115263762Y-66564767D01*
X115065836Y-66624807D01*
X114988707Y-66632404D01*
X114911580Y-66640000D01*
X114808420Y-66640000D01*
X114731293Y-66632404D01*
X114654164Y-66624807D01*
X114456238Y-66564767D01*
X114456235Y-66564766D01*
X114273830Y-66467268D01*
X114113945Y-66336055D01*
X113982732Y-66176170D01*
X113885234Y-65993765D01*
X113858350Y-65905139D01*
X113825193Y-65795836D01*
X113804920Y-65590000D01*
X113825193Y-65384164D01*
X113885233Y-65186238D01*
X113885234Y-65186235D01*
X113982732Y-65003830D01*
X114113945Y-64843945D01*
X114273830Y-64712732D01*
X114456235Y-64615234D01*
X114456238Y-64615233D01*
X114654164Y-64555193D01*
X114731293Y-64547597D01*
X114808420Y-64540000D01*
X114911580Y-64540000D01*
X114988707Y-64547597D01*
X114988707Y-64547597D01*
G37*
G36*
X112448707Y-64547597D02*
G01*
X112525836Y-64555193D01*
X112723762Y-64615233D01*
X112723765Y-64615234D01*
X112906170Y-64712732D01*
X113066055Y-64843945D01*
X113197268Y-65003830D01*
X113294766Y-65186235D01*
X113294767Y-65186238D01*
X113354807Y-65384164D01*
X113375080Y-65590000D01*
X113354807Y-65795836D01*
X113321650Y-65905139D01*
X113294766Y-65993765D01*
X113197268Y-66176170D01*
X113066055Y-66336055D01*
X112906170Y-66467268D01*
X112723765Y-66564766D01*
X112723762Y-66564767D01*
X112525836Y-66624807D01*
X112448707Y-66632404D01*
X112371580Y-66640000D01*
X112268420Y-66640000D01*
X112191293Y-66632404D01*
X112114164Y-66624807D01*
X111916238Y-66564767D01*
X111916235Y-66564766D01*
X111733830Y-66467268D01*
X111573945Y-66336055D01*
X111442732Y-66176170D01*
X111345234Y-65993765D01*
X111318350Y-65905139D01*
X111285193Y-65795836D01*
X111264920Y-65590000D01*
X111285193Y-65384164D01*
X111345233Y-65186238D01*
X111345234Y-65186235D01*
X111442732Y-65003830D01*
X111573945Y-64843945D01*
X111733830Y-64712732D01*
X111916235Y-64615234D01*
X111916238Y-64615233D01*
X112114164Y-64555193D01*
X112191293Y-64547597D01*
X112268420Y-64540000D01*
X112371580Y-64540000D01*
X112448707Y-64547597D01*
X112448707Y-64547597D01*
G37*
G36*
X109908707Y-64547597D02*
G01*
X109985836Y-64555193D01*
X110183762Y-64615233D01*
X110183765Y-64615234D01*
X110366170Y-64712732D01*
X110526055Y-64843945D01*
X110657268Y-65003830D01*
X110754766Y-65186235D01*
X110754767Y-65186238D01*
X110814807Y-65384164D01*
X110835080Y-65590000D01*
X110814807Y-65795836D01*
X110781650Y-65905139D01*
X110754766Y-65993765D01*
X110657268Y-66176170D01*
X110526055Y-66336055D01*
X110366170Y-66467268D01*
X110183765Y-66564766D01*
X110183762Y-66564767D01*
X109985836Y-66624807D01*
X109908707Y-66632404D01*
X109831580Y-66640000D01*
X109728420Y-66640000D01*
X109651293Y-66632404D01*
X109574164Y-66624807D01*
X109376238Y-66564767D01*
X109376235Y-66564766D01*
X109193830Y-66467268D01*
X109033945Y-66336055D01*
X108902732Y-66176170D01*
X108805234Y-65993765D01*
X108778350Y-65905139D01*
X108745193Y-65795836D01*
X108724920Y-65590000D01*
X108745193Y-65384164D01*
X108805233Y-65186238D01*
X108805234Y-65186235D01*
X108902732Y-65003830D01*
X109033945Y-64843945D01*
X109193830Y-64712732D01*
X109376235Y-64615234D01*
X109376238Y-64615233D01*
X109574164Y-64555193D01*
X109651293Y-64547597D01*
X109728420Y-64540000D01*
X109831580Y-64540000D01*
X109908707Y-64547597D01*
X109908707Y-64547597D01*
G37*
G36*
X107368707Y-64547597D02*
G01*
X107445836Y-64555193D01*
X107643762Y-64615233D01*
X107643765Y-64615234D01*
X107826170Y-64712732D01*
X107986055Y-64843945D01*
X108117268Y-65003830D01*
X108214766Y-65186235D01*
X108214767Y-65186238D01*
X108274807Y-65384164D01*
X108295080Y-65590000D01*
X108274807Y-65795836D01*
X108241650Y-65905139D01*
X108214766Y-65993765D01*
X108117268Y-66176170D01*
X107986055Y-66336055D01*
X107826170Y-66467268D01*
X107643765Y-66564766D01*
X107643762Y-66564767D01*
X107445836Y-66624807D01*
X107368707Y-66632404D01*
X107291580Y-66640000D01*
X107188420Y-66640000D01*
X107111293Y-66632404D01*
X107034164Y-66624807D01*
X106836238Y-66564767D01*
X106836235Y-66564766D01*
X106653830Y-66467268D01*
X106493945Y-66336055D01*
X106362732Y-66176170D01*
X106265234Y-65993765D01*
X106238350Y-65905139D01*
X106205193Y-65795836D01*
X106184920Y-65590000D01*
X106205193Y-65384164D01*
X106265233Y-65186238D01*
X106265234Y-65186235D01*
X106362732Y-65003830D01*
X106493945Y-64843945D01*
X106653830Y-64712732D01*
X106836235Y-64615234D01*
X106836238Y-64615233D01*
X107034164Y-64555193D01*
X107111293Y-64547597D01*
X107188420Y-64540000D01*
X107291580Y-64540000D01*
X107368707Y-64547597D01*
X107368707Y-64547597D01*
G37*
G36*
X104828707Y-64547597D02*
G01*
X104905836Y-64555193D01*
X105103762Y-64615233D01*
X105103765Y-64615234D01*
X105286170Y-64712732D01*
X105446055Y-64843945D01*
X105577268Y-65003830D01*
X105674766Y-65186235D01*
X105674767Y-65186238D01*
X105734807Y-65384164D01*
X105755080Y-65590000D01*
X105734807Y-65795836D01*
X105701650Y-65905139D01*
X105674766Y-65993765D01*
X105577268Y-66176170D01*
X105446055Y-66336055D01*
X105286170Y-66467268D01*
X105103765Y-66564766D01*
X105103762Y-66564767D01*
X104905836Y-66624807D01*
X104828707Y-66632404D01*
X104751580Y-66640000D01*
X104648420Y-66640000D01*
X104571293Y-66632404D01*
X104494164Y-66624807D01*
X104296238Y-66564767D01*
X104296235Y-66564766D01*
X104113830Y-66467268D01*
X103953945Y-66336055D01*
X103822732Y-66176170D01*
X103725234Y-65993765D01*
X103698350Y-65905139D01*
X103665193Y-65795836D01*
X103644920Y-65590000D01*
X103665193Y-65384164D01*
X103725233Y-65186238D01*
X103725234Y-65186235D01*
X103822732Y-65003830D01*
X103953945Y-64843945D01*
X104113830Y-64712732D01*
X104296235Y-64615234D01*
X104296238Y-64615233D01*
X104494164Y-64555193D01*
X104571293Y-64547597D01*
X104648420Y-64540000D01*
X104751580Y-64540000D01*
X104828707Y-64547597D01*
X104828707Y-64547597D01*
G37*
G36*
X97208707Y-64547597D02*
G01*
X97285836Y-64555193D01*
X97483762Y-64615233D01*
X97483765Y-64615234D01*
X97666170Y-64712732D01*
X97826055Y-64843945D01*
X97957268Y-65003830D01*
X98054766Y-65186235D01*
X98054767Y-65186238D01*
X98114807Y-65384164D01*
X98135080Y-65590000D01*
X98114807Y-65795836D01*
X98081650Y-65905139D01*
X98054766Y-65993765D01*
X97957268Y-66176170D01*
X97826055Y-66336055D01*
X97666170Y-66467268D01*
X97483765Y-66564766D01*
X97483762Y-66564767D01*
X97285836Y-66624807D01*
X97208707Y-66632404D01*
X97131580Y-66640000D01*
X97028420Y-66640000D01*
X96951293Y-66632404D01*
X96874164Y-66624807D01*
X96676238Y-66564767D01*
X96676235Y-66564766D01*
X96493830Y-66467268D01*
X96333945Y-66336055D01*
X96202732Y-66176170D01*
X96105234Y-65993765D01*
X96078350Y-65905139D01*
X96045193Y-65795836D01*
X96024920Y-65590000D01*
X96045193Y-65384164D01*
X96105233Y-65186238D01*
X96105234Y-65186235D01*
X96202732Y-65003830D01*
X96333945Y-64843945D01*
X96493830Y-64712732D01*
X96676235Y-64615234D01*
X96676238Y-64615233D01*
X96874164Y-64555193D01*
X96951293Y-64547597D01*
X97028420Y-64540000D01*
X97131580Y-64540000D01*
X97208707Y-64547597D01*
X97208707Y-64547597D01*
G37*
G36*
X94668707Y-64547597D02*
G01*
X94745836Y-64555193D01*
X94943762Y-64615233D01*
X94943765Y-64615234D01*
X95126170Y-64712732D01*
X95286055Y-64843945D01*
X95417268Y-65003830D01*
X95514766Y-65186235D01*
X95514767Y-65186238D01*
X95574807Y-65384164D01*
X95595080Y-65590000D01*
X95574807Y-65795836D01*
X95541650Y-65905139D01*
X95514766Y-65993765D01*
X95417268Y-66176170D01*
X95286055Y-66336055D01*
X95126170Y-66467268D01*
X94943765Y-66564766D01*
X94943762Y-66564767D01*
X94745836Y-66624807D01*
X94668707Y-66632404D01*
X94591580Y-66640000D01*
X94488420Y-66640000D01*
X94411293Y-66632404D01*
X94334164Y-66624807D01*
X94136238Y-66564767D01*
X94136235Y-66564766D01*
X93953830Y-66467268D01*
X93793945Y-66336055D01*
X93662732Y-66176170D01*
X93565234Y-65993765D01*
X93538350Y-65905139D01*
X93505193Y-65795836D01*
X93484920Y-65590000D01*
X93505193Y-65384164D01*
X93565233Y-65186238D01*
X93565234Y-65186235D01*
X93662732Y-65003830D01*
X93793945Y-64843945D01*
X93953830Y-64712732D01*
X94136235Y-64615234D01*
X94136238Y-64615233D01*
X94334164Y-64555193D01*
X94411293Y-64547597D01*
X94488420Y-64540000D01*
X94591580Y-64540000D01*
X94668707Y-64547597D01*
X94668707Y-64547597D01*
G37*
G36*
X99748707Y-64547597D02*
G01*
X99825836Y-64555193D01*
X100023762Y-64615233D01*
X100023765Y-64615234D01*
X100206170Y-64712732D01*
X100366055Y-64843945D01*
X100497268Y-65003830D01*
X100594766Y-65186235D01*
X100594767Y-65186238D01*
X100654807Y-65384164D01*
X100675080Y-65590000D01*
X100654807Y-65795836D01*
X100621650Y-65905139D01*
X100594766Y-65993765D01*
X100497268Y-66176170D01*
X100366055Y-66336055D01*
X100206170Y-66467268D01*
X100023765Y-66564766D01*
X100023762Y-66564767D01*
X99825836Y-66624807D01*
X99748707Y-66632404D01*
X99671580Y-66640000D01*
X99568420Y-66640000D01*
X99491293Y-66632404D01*
X99414164Y-66624807D01*
X99216238Y-66564767D01*
X99216235Y-66564766D01*
X99033830Y-66467268D01*
X98873945Y-66336055D01*
X98742732Y-66176170D01*
X98645234Y-65993765D01*
X98618350Y-65905139D01*
X98585193Y-65795836D01*
X98564920Y-65590000D01*
X98585193Y-65384164D01*
X98645233Y-65186238D01*
X98645234Y-65186235D01*
X98742732Y-65003830D01*
X98873945Y-64843945D01*
X99033830Y-64712732D01*
X99216235Y-64615234D01*
X99216238Y-64615233D01*
X99414164Y-64555193D01*
X99491293Y-64547597D01*
X99568420Y-64540000D01*
X99671580Y-64540000D01*
X99748707Y-64547597D01*
X99748707Y-64547597D01*
G37*
G36*
X102288707Y-64547597D02*
G01*
X102365836Y-64555193D01*
X102563762Y-64615233D01*
X102563765Y-64615234D01*
X102746170Y-64712732D01*
X102906055Y-64843945D01*
X103037268Y-65003830D01*
X103134766Y-65186235D01*
X103134767Y-65186238D01*
X103194807Y-65384164D01*
X103215080Y-65590000D01*
X103194807Y-65795836D01*
X103161650Y-65905139D01*
X103134766Y-65993765D01*
X103037268Y-66176170D01*
X102906055Y-66336055D01*
X102746170Y-66467268D01*
X102563765Y-66564766D01*
X102563762Y-66564767D01*
X102365836Y-66624807D01*
X102288707Y-66632404D01*
X102211580Y-66640000D01*
X102108420Y-66640000D01*
X102031293Y-66632404D01*
X101954164Y-66624807D01*
X101756238Y-66564767D01*
X101756235Y-66564766D01*
X101573830Y-66467268D01*
X101413945Y-66336055D01*
X101282732Y-66176170D01*
X101185234Y-65993765D01*
X101158350Y-65905139D01*
X101125193Y-65795836D01*
X101104920Y-65590000D01*
X101125193Y-65384164D01*
X101185233Y-65186238D01*
X101185234Y-65186235D01*
X101282732Y-65003830D01*
X101413945Y-64843945D01*
X101573830Y-64712732D01*
X101756235Y-64615234D01*
X101756238Y-64615233D01*
X101954164Y-64555193D01*
X102031293Y-64547597D01*
X102108420Y-64540000D01*
X102211580Y-64540000D01*
X102288707Y-64547597D01*
X102288707Y-64547597D01*
G37*
G36*
X117528707Y-64547597D02*
G01*
X117605836Y-64555193D01*
X117803762Y-64615233D01*
X117803765Y-64615234D01*
X117986170Y-64712732D01*
X118146055Y-64843945D01*
X118277268Y-65003830D01*
X118374766Y-65186235D01*
X118374767Y-65186238D01*
X118434807Y-65384164D01*
X118455080Y-65590000D01*
X118434807Y-65795836D01*
X118401650Y-65905139D01*
X118374766Y-65993765D01*
X118277268Y-66176170D01*
X118146055Y-66336055D01*
X117986170Y-66467268D01*
X117803765Y-66564766D01*
X117803762Y-66564767D01*
X117605836Y-66624807D01*
X117528707Y-66632404D01*
X117451580Y-66640000D01*
X117348420Y-66640000D01*
X117271293Y-66632404D01*
X117194164Y-66624807D01*
X116996238Y-66564767D01*
X116996235Y-66564766D01*
X116813830Y-66467268D01*
X116653945Y-66336055D01*
X116522732Y-66176170D01*
X116425234Y-65993765D01*
X116398350Y-65905139D01*
X116365193Y-65795836D01*
X116344920Y-65590000D01*
X116365193Y-65384164D01*
X116425233Y-65186238D01*
X116425234Y-65186235D01*
X116522732Y-65003830D01*
X116653945Y-64843945D01*
X116813830Y-64712732D01*
X116996235Y-64615234D01*
X116996238Y-64615233D01*
X117194164Y-64555193D01*
X117271293Y-64547597D01*
X117348420Y-64540000D01*
X117451580Y-64540000D01*
X117528707Y-64547597D01*
X117528707Y-64547597D01*
G37*
G36*
X140391162Y-62564586D02*
G01*
X140565041Y-62599173D01*
X140892620Y-62734861D01*
X141187433Y-62931849D01*
X141438151Y-63182567D01*
X141635139Y-63477380D01*
X141770827Y-63804959D01*
X141795156Y-63927268D01*
X141840000Y-64152714D01*
X141840000Y-64507286D01*
X141805413Y-64681163D01*
X141770827Y-64855041D01*
X141635139Y-65182620D01*
X141438151Y-65477433D01*
X141187433Y-65728151D01*
X140892620Y-65925139D01*
X140565041Y-66060827D01*
X140391163Y-66095413D01*
X140217286Y-66130000D01*
X139862714Y-66130000D01*
X139688837Y-66095413D01*
X139514959Y-66060827D01*
X139187380Y-65925139D01*
X138892567Y-65728151D01*
X138641849Y-65477433D01*
X138444861Y-65182620D01*
X138309173Y-64855041D01*
X138274586Y-64681162D01*
X138240000Y-64507286D01*
X138240000Y-64152714D01*
X138284844Y-63927268D01*
X138309173Y-63804959D01*
X138444861Y-63477380D01*
X138641849Y-63182567D01*
X138892567Y-62931849D01*
X139187380Y-62734861D01*
X139514959Y-62599173D01*
X139688838Y-62564586D01*
X139862714Y-62530000D01*
X140217286Y-62530000D01*
X140391162Y-62564586D01*
X140391162Y-62564586D01*
G37*
G36*
X82391162Y-62544586D02*
G01*
X82565041Y-62579173D01*
X82892620Y-62714861D01*
X83187433Y-62911849D01*
X83438151Y-63162567D01*
X83635139Y-63457380D01*
X83770827Y-63784959D01*
X83799134Y-63927267D01*
X83840000Y-64132714D01*
X83840000Y-64487286D01*
X83814549Y-64615234D01*
X83770827Y-64835041D01*
X83635139Y-65162620D01*
X83438151Y-65457433D01*
X83187433Y-65708151D01*
X82892620Y-65905139D01*
X82565041Y-66040827D01*
X82391163Y-66075413D01*
X82217286Y-66110000D01*
X81862714Y-66110000D01*
X81688837Y-66075413D01*
X81514959Y-66040827D01*
X81187380Y-65905139D01*
X80892567Y-65708151D01*
X80641849Y-65457433D01*
X80444861Y-65162620D01*
X80309173Y-64835041D01*
X80265451Y-64615234D01*
X80240000Y-64487286D01*
X80240000Y-64132714D01*
X80280866Y-63927267D01*
X80309173Y-63784959D01*
X80444861Y-63457380D01*
X80641849Y-63162567D01*
X80892567Y-62911849D01*
X81187380Y-62714861D01*
X81514959Y-62579173D01*
X81688838Y-62544586D01*
X81862714Y-62510000D01*
X82217286Y-62510000D01*
X82391162Y-62544586D01*
X82391162Y-62544586D01*
G37*
G36*
X94668707Y-62007596D02*
G01*
X94745836Y-62015193D01*
X94943762Y-62075233D01*
X94943765Y-62075234D01*
X95126170Y-62172732D01*
X95286055Y-62303945D01*
X95417268Y-62463830D01*
X95514766Y-62646235D01*
X95514767Y-62646238D01*
X95574807Y-62844164D01*
X95595080Y-63050000D01*
X95574807Y-63255836D01*
X95514767Y-63453762D01*
X95514766Y-63453765D01*
X95417268Y-63636170D01*
X95286055Y-63796055D01*
X95126170Y-63927268D01*
X94943765Y-64024766D01*
X94943762Y-64024767D01*
X94745836Y-64084807D01*
X94668707Y-64092403D01*
X94591580Y-64100000D01*
X94488420Y-64100000D01*
X94411293Y-64092403D01*
X94334164Y-64084807D01*
X94136238Y-64024767D01*
X94136235Y-64024766D01*
X93953830Y-63927268D01*
X93793945Y-63796055D01*
X93662732Y-63636170D01*
X93565234Y-63453765D01*
X93565233Y-63453762D01*
X93505193Y-63255836D01*
X93484920Y-63050000D01*
X93505193Y-62844164D01*
X93565233Y-62646238D01*
X93565234Y-62646235D01*
X93662732Y-62463830D01*
X93793945Y-62303945D01*
X93953830Y-62172732D01*
X94136235Y-62075234D01*
X94136238Y-62075233D01*
X94334164Y-62015193D01*
X94411293Y-62007596D01*
X94488420Y-62000000D01*
X94591580Y-62000000D01*
X94668707Y-62007596D01*
X94668707Y-62007596D01*
G37*
G36*
X112448707Y-62007596D02*
G01*
X112525836Y-62015193D01*
X112723762Y-62075233D01*
X112723765Y-62075234D01*
X112906170Y-62172732D01*
X113066055Y-62303945D01*
X113197268Y-62463830D01*
X113294766Y-62646235D01*
X113294767Y-62646238D01*
X113354807Y-62844164D01*
X113375080Y-63050000D01*
X113354807Y-63255836D01*
X113294767Y-63453762D01*
X113294766Y-63453765D01*
X113197268Y-63636170D01*
X113066055Y-63796055D01*
X112906170Y-63927268D01*
X112723765Y-64024766D01*
X112723762Y-64024767D01*
X112525836Y-64084807D01*
X112448707Y-64092403D01*
X112371580Y-64100000D01*
X112268420Y-64100000D01*
X112191293Y-64092403D01*
X112114164Y-64084807D01*
X111916238Y-64024767D01*
X111916235Y-64024766D01*
X111733830Y-63927268D01*
X111573945Y-63796055D01*
X111442732Y-63636170D01*
X111345234Y-63453765D01*
X111345233Y-63453762D01*
X111285193Y-63255836D01*
X111264920Y-63050000D01*
X111285193Y-62844164D01*
X111345233Y-62646238D01*
X111345234Y-62646235D01*
X111442732Y-62463830D01*
X111573945Y-62303945D01*
X111733830Y-62172732D01*
X111916235Y-62075234D01*
X111916238Y-62075233D01*
X112114164Y-62015193D01*
X112191293Y-62007596D01*
X112268420Y-62000000D01*
X112371580Y-62000000D01*
X112448707Y-62007596D01*
X112448707Y-62007596D01*
G37*
G36*
X87048707Y-62007596D02*
G01*
X87125836Y-62015193D01*
X87323762Y-62075233D01*
X87323765Y-62075234D01*
X87506170Y-62172732D01*
X87666055Y-62303945D01*
X87797268Y-62463830D01*
X87894766Y-62646235D01*
X87894767Y-62646238D01*
X87954807Y-62844164D01*
X87975080Y-63050000D01*
X87954807Y-63255836D01*
X87894767Y-63453762D01*
X87894766Y-63453765D01*
X87797268Y-63636170D01*
X87666055Y-63796055D01*
X87506170Y-63927268D01*
X87323765Y-64024766D01*
X87323762Y-64024767D01*
X87125836Y-64084807D01*
X87048707Y-64092403D01*
X86971580Y-64100000D01*
X86868420Y-64100000D01*
X86791293Y-64092403D01*
X86714164Y-64084807D01*
X86516238Y-64024767D01*
X86516235Y-64024766D01*
X86333830Y-63927268D01*
X86173945Y-63796055D01*
X86042732Y-63636170D01*
X85945234Y-63453765D01*
X85945233Y-63453762D01*
X85885193Y-63255836D01*
X85864920Y-63050000D01*
X85885193Y-62844164D01*
X85945233Y-62646238D01*
X85945234Y-62646235D01*
X86042732Y-62463830D01*
X86173945Y-62303945D01*
X86333830Y-62172732D01*
X86516235Y-62075234D01*
X86516238Y-62075233D01*
X86714164Y-62015193D01*
X86791293Y-62007596D01*
X86868420Y-62000000D01*
X86971580Y-62000000D01*
X87048707Y-62007596D01*
X87048707Y-62007596D01*
G37*
G36*
X109908707Y-62007596D02*
G01*
X109985836Y-62015193D01*
X110183762Y-62075233D01*
X110183765Y-62075234D01*
X110366170Y-62172732D01*
X110526055Y-62303945D01*
X110657268Y-62463830D01*
X110754766Y-62646235D01*
X110754767Y-62646238D01*
X110814807Y-62844164D01*
X110835080Y-63050000D01*
X110814807Y-63255836D01*
X110754767Y-63453762D01*
X110754766Y-63453765D01*
X110657268Y-63636170D01*
X110526055Y-63796055D01*
X110366170Y-63927268D01*
X110183765Y-64024766D01*
X110183762Y-64024767D01*
X109985836Y-64084807D01*
X109908707Y-64092403D01*
X109831580Y-64100000D01*
X109728420Y-64100000D01*
X109651293Y-64092403D01*
X109574164Y-64084807D01*
X109376238Y-64024767D01*
X109376235Y-64024766D01*
X109193830Y-63927268D01*
X109033945Y-63796055D01*
X108902732Y-63636170D01*
X108805234Y-63453765D01*
X108805233Y-63453762D01*
X108745193Y-63255836D01*
X108724920Y-63050000D01*
X108745193Y-62844164D01*
X108805233Y-62646238D01*
X108805234Y-62646235D01*
X108902732Y-62463830D01*
X109033945Y-62303945D01*
X109193830Y-62172732D01*
X109376235Y-62075234D01*
X109376238Y-62075233D01*
X109574164Y-62015193D01*
X109651293Y-62007596D01*
X109728420Y-62000000D01*
X109831580Y-62000000D01*
X109908707Y-62007596D01*
X109908707Y-62007596D01*
G37*
G36*
X107368707Y-62007596D02*
G01*
X107445836Y-62015193D01*
X107643762Y-62075233D01*
X107643765Y-62075234D01*
X107826170Y-62172732D01*
X107986055Y-62303945D01*
X108117268Y-62463830D01*
X108214766Y-62646235D01*
X108214767Y-62646238D01*
X108274807Y-62844164D01*
X108295080Y-63050000D01*
X108274807Y-63255836D01*
X108214767Y-63453762D01*
X108214766Y-63453765D01*
X108117268Y-63636170D01*
X107986055Y-63796055D01*
X107826170Y-63927268D01*
X107643765Y-64024766D01*
X107643762Y-64024767D01*
X107445836Y-64084807D01*
X107368707Y-64092403D01*
X107291580Y-64100000D01*
X107188420Y-64100000D01*
X107111293Y-64092403D01*
X107034164Y-64084807D01*
X106836238Y-64024767D01*
X106836235Y-64024766D01*
X106653830Y-63927268D01*
X106493945Y-63796055D01*
X106362732Y-63636170D01*
X106265234Y-63453765D01*
X106265233Y-63453762D01*
X106205193Y-63255836D01*
X106184920Y-63050000D01*
X106205193Y-62844164D01*
X106265233Y-62646238D01*
X106265234Y-62646235D01*
X106362732Y-62463830D01*
X106493945Y-62303945D01*
X106653830Y-62172732D01*
X106836235Y-62075234D01*
X106836238Y-62075233D01*
X107034164Y-62015193D01*
X107111293Y-62007596D01*
X107188420Y-62000000D01*
X107291580Y-62000000D01*
X107368707Y-62007596D01*
X107368707Y-62007596D01*
G37*
G36*
X89588707Y-62007596D02*
G01*
X89665836Y-62015193D01*
X89863762Y-62075233D01*
X89863765Y-62075234D01*
X90046170Y-62172732D01*
X90206055Y-62303945D01*
X90337268Y-62463830D01*
X90434766Y-62646235D01*
X90434767Y-62646238D01*
X90494807Y-62844164D01*
X90515080Y-63050000D01*
X90494807Y-63255836D01*
X90434767Y-63453762D01*
X90434766Y-63453765D01*
X90337268Y-63636170D01*
X90206055Y-63796055D01*
X90046170Y-63927268D01*
X89863765Y-64024766D01*
X89863762Y-64024767D01*
X89665836Y-64084807D01*
X89588707Y-64092403D01*
X89511580Y-64100000D01*
X89408420Y-64100000D01*
X89331293Y-64092403D01*
X89254164Y-64084807D01*
X89056238Y-64024767D01*
X89056235Y-64024766D01*
X88873830Y-63927268D01*
X88713945Y-63796055D01*
X88582732Y-63636170D01*
X88485234Y-63453765D01*
X88485233Y-63453762D01*
X88425193Y-63255836D01*
X88404920Y-63050000D01*
X88425193Y-62844164D01*
X88485233Y-62646238D01*
X88485234Y-62646235D01*
X88582732Y-62463830D01*
X88713945Y-62303945D01*
X88873830Y-62172732D01*
X89056235Y-62075234D01*
X89056238Y-62075233D01*
X89254164Y-62015193D01*
X89331293Y-62007596D01*
X89408420Y-62000000D01*
X89511580Y-62000000D01*
X89588707Y-62007596D01*
X89588707Y-62007596D01*
G37*
G36*
X102288707Y-62007596D02*
G01*
X102365836Y-62015193D01*
X102563762Y-62075233D01*
X102563765Y-62075234D01*
X102746170Y-62172732D01*
X102906055Y-62303945D01*
X103037268Y-62463830D01*
X103134766Y-62646235D01*
X103134767Y-62646238D01*
X103194807Y-62844164D01*
X103215080Y-63050000D01*
X103194807Y-63255836D01*
X103134767Y-63453762D01*
X103134766Y-63453765D01*
X103037268Y-63636170D01*
X102906055Y-63796055D01*
X102746170Y-63927268D01*
X102563765Y-64024766D01*
X102563762Y-64024767D01*
X102365836Y-64084807D01*
X102288707Y-64092403D01*
X102211580Y-64100000D01*
X102108420Y-64100000D01*
X102031293Y-64092403D01*
X101954164Y-64084807D01*
X101756238Y-64024767D01*
X101756235Y-64024766D01*
X101573830Y-63927268D01*
X101413945Y-63796055D01*
X101282732Y-63636170D01*
X101185234Y-63453765D01*
X101185233Y-63453762D01*
X101125193Y-63255836D01*
X101104920Y-63050000D01*
X101125193Y-62844164D01*
X101185233Y-62646238D01*
X101185234Y-62646235D01*
X101282732Y-62463830D01*
X101413945Y-62303945D01*
X101573830Y-62172732D01*
X101756235Y-62075234D01*
X101756238Y-62075233D01*
X101954164Y-62015193D01*
X102031293Y-62007596D01*
X102108420Y-62000000D01*
X102211580Y-62000000D01*
X102288707Y-62007596D01*
X102288707Y-62007596D01*
G37*
G36*
X92128707Y-62007596D02*
G01*
X92205836Y-62015193D01*
X92403762Y-62075233D01*
X92403765Y-62075234D01*
X92586170Y-62172732D01*
X92746055Y-62303945D01*
X92877268Y-62463830D01*
X92974766Y-62646235D01*
X92974767Y-62646238D01*
X93034807Y-62844164D01*
X93055080Y-63050000D01*
X93034807Y-63255836D01*
X92974767Y-63453762D01*
X92974766Y-63453765D01*
X92877268Y-63636170D01*
X92746055Y-63796055D01*
X92586170Y-63927268D01*
X92403765Y-64024766D01*
X92403762Y-64024767D01*
X92205836Y-64084807D01*
X92128707Y-64092403D01*
X92051580Y-64100000D01*
X91948420Y-64100000D01*
X91871293Y-64092403D01*
X91794164Y-64084807D01*
X91596238Y-64024767D01*
X91596235Y-64024766D01*
X91413830Y-63927268D01*
X91253945Y-63796055D01*
X91122732Y-63636170D01*
X91025234Y-63453765D01*
X91025233Y-63453762D01*
X90965193Y-63255836D01*
X90944920Y-63050000D01*
X90965193Y-62844164D01*
X91025233Y-62646238D01*
X91025234Y-62646235D01*
X91122732Y-62463830D01*
X91253945Y-62303945D01*
X91413830Y-62172732D01*
X91596235Y-62075234D01*
X91596238Y-62075233D01*
X91794164Y-62015193D01*
X91871293Y-62007596D01*
X91948420Y-62000000D01*
X92051580Y-62000000D01*
X92128707Y-62007596D01*
X92128707Y-62007596D01*
G37*
G36*
X99748707Y-62007596D02*
G01*
X99825836Y-62015193D01*
X100023762Y-62075233D01*
X100023765Y-62075234D01*
X100206170Y-62172732D01*
X100366055Y-62303945D01*
X100497268Y-62463830D01*
X100594766Y-62646235D01*
X100594767Y-62646238D01*
X100654807Y-62844164D01*
X100675080Y-63050000D01*
X100654807Y-63255836D01*
X100594767Y-63453762D01*
X100594766Y-63453765D01*
X100497268Y-63636170D01*
X100366055Y-63796055D01*
X100206170Y-63927268D01*
X100023765Y-64024766D01*
X100023762Y-64024767D01*
X99825836Y-64084807D01*
X99748707Y-64092403D01*
X99671580Y-64100000D01*
X99568420Y-64100000D01*
X99491293Y-64092403D01*
X99414164Y-64084807D01*
X99216238Y-64024767D01*
X99216235Y-64024766D01*
X99033830Y-63927268D01*
X98873945Y-63796055D01*
X98742732Y-63636170D01*
X98645234Y-63453765D01*
X98645233Y-63453762D01*
X98585193Y-63255836D01*
X98564920Y-63050000D01*
X98585193Y-62844164D01*
X98645233Y-62646238D01*
X98645234Y-62646235D01*
X98742732Y-62463830D01*
X98873945Y-62303945D01*
X99033830Y-62172732D01*
X99216235Y-62075234D01*
X99216238Y-62075233D01*
X99414164Y-62015193D01*
X99491293Y-62007596D01*
X99568420Y-62000000D01*
X99671580Y-62000000D01*
X99748707Y-62007596D01*
X99748707Y-62007596D01*
G37*
G36*
X97208707Y-62007596D02*
G01*
X97285836Y-62015193D01*
X97483762Y-62075233D01*
X97483765Y-62075234D01*
X97666170Y-62172732D01*
X97826055Y-62303945D01*
X97957268Y-62463830D01*
X98054766Y-62646235D01*
X98054767Y-62646238D01*
X98114807Y-62844164D01*
X98135080Y-63050000D01*
X98114807Y-63255836D01*
X98054767Y-63453762D01*
X98054766Y-63453765D01*
X97957268Y-63636170D01*
X97826055Y-63796055D01*
X97666170Y-63927268D01*
X97483765Y-64024766D01*
X97483762Y-64024767D01*
X97285836Y-64084807D01*
X97208707Y-64092403D01*
X97131580Y-64100000D01*
X97028420Y-64100000D01*
X96951293Y-64092403D01*
X96874164Y-64084807D01*
X96676238Y-64024767D01*
X96676235Y-64024766D01*
X96493830Y-63927268D01*
X96333945Y-63796055D01*
X96202732Y-63636170D01*
X96105234Y-63453765D01*
X96105233Y-63453762D01*
X96045193Y-63255836D01*
X96024920Y-63050000D01*
X96045193Y-62844164D01*
X96105233Y-62646238D01*
X96105234Y-62646235D01*
X96202732Y-62463830D01*
X96333945Y-62303945D01*
X96493830Y-62172732D01*
X96676235Y-62075234D01*
X96676238Y-62075233D01*
X96874164Y-62015193D01*
X96951293Y-62007596D01*
X97028420Y-62000000D01*
X97131580Y-62000000D01*
X97208707Y-62007596D01*
X97208707Y-62007596D01*
G37*
G36*
X114988707Y-62007596D02*
G01*
X115065836Y-62015193D01*
X115263762Y-62075233D01*
X115263765Y-62075234D01*
X115446170Y-62172732D01*
X115606055Y-62303945D01*
X115737268Y-62463830D01*
X115834766Y-62646235D01*
X115834767Y-62646238D01*
X115894807Y-62844164D01*
X115915080Y-63050000D01*
X115894807Y-63255836D01*
X115834767Y-63453762D01*
X115834766Y-63453765D01*
X115737268Y-63636170D01*
X115606055Y-63796055D01*
X115446170Y-63927268D01*
X115263765Y-64024766D01*
X115263762Y-64024767D01*
X115065836Y-64084807D01*
X114988707Y-64092403D01*
X114911580Y-64100000D01*
X114808420Y-64100000D01*
X114731293Y-64092403D01*
X114654164Y-64084807D01*
X114456238Y-64024767D01*
X114456235Y-64024766D01*
X114273830Y-63927268D01*
X114113945Y-63796055D01*
X113982732Y-63636170D01*
X113885234Y-63453765D01*
X113885233Y-63453762D01*
X113825193Y-63255836D01*
X113804920Y-63050000D01*
X113825193Y-62844164D01*
X113885233Y-62646238D01*
X113885234Y-62646235D01*
X113982732Y-62463830D01*
X114113945Y-62303945D01*
X114273830Y-62172732D01*
X114456235Y-62075234D01*
X114456238Y-62075233D01*
X114654164Y-62015193D01*
X114731293Y-62007596D01*
X114808420Y-62000000D01*
X114911580Y-62000000D01*
X114988707Y-62007596D01*
X114988707Y-62007596D01*
G37*
G36*
X117528707Y-62007596D02*
G01*
X117605836Y-62015193D01*
X117803762Y-62075233D01*
X117803765Y-62075234D01*
X117986170Y-62172732D01*
X118146055Y-62303945D01*
X118277268Y-62463830D01*
X118374766Y-62646235D01*
X118374767Y-62646238D01*
X118434807Y-62844164D01*
X118455080Y-63050000D01*
X118434807Y-63255836D01*
X118374767Y-63453762D01*
X118374766Y-63453765D01*
X118277268Y-63636170D01*
X118146055Y-63796055D01*
X117986170Y-63927268D01*
X117803765Y-64024766D01*
X117803762Y-64024767D01*
X117605836Y-64084807D01*
X117528707Y-64092403D01*
X117451580Y-64100000D01*
X117348420Y-64100000D01*
X117271293Y-64092403D01*
X117194164Y-64084807D01*
X116996238Y-64024767D01*
X116996235Y-64024766D01*
X116813830Y-63927268D01*
X116653945Y-63796055D01*
X116522732Y-63636170D01*
X116425234Y-63453765D01*
X116425233Y-63453762D01*
X116365193Y-63255836D01*
X116344920Y-63050000D01*
X116365193Y-62844164D01*
X116425233Y-62646238D01*
X116425234Y-62646235D01*
X116522732Y-62463830D01*
X116653945Y-62303945D01*
X116813830Y-62172732D01*
X116996235Y-62075234D01*
X116996238Y-62075233D01*
X117194164Y-62015193D01*
X117271293Y-62007596D01*
X117348420Y-62000000D01*
X117451580Y-62000000D01*
X117528707Y-62007596D01*
X117528707Y-62007596D01*
G37*
G36*
X120068707Y-62007596D02*
G01*
X120145836Y-62015193D01*
X120343762Y-62075233D01*
X120343765Y-62075234D01*
X120526170Y-62172732D01*
X120686055Y-62303945D01*
X120817268Y-62463830D01*
X120914766Y-62646235D01*
X120914767Y-62646238D01*
X120974807Y-62844164D01*
X120995080Y-63050000D01*
X120974807Y-63255836D01*
X120914767Y-63453762D01*
X120914766Y-63453765D01*
X120817268Y-63636170D01*
X120686055Y-63796055D01*
X120526170Y-63927268D01*
X120343765Y-64024766D01*
X120343762Y-64024767D01*
X120145836Y-64084807D01*
X120068707Y-64092403D01*
X119991580Y-64100000D01*
X119888420Y-64100000D01*
X119811293Y-64092403D01*
X119734164Y-64084807D01*
X119536238Y-64024767D01*
X119536235Y-64024766D01*
X119353830Y-63927268D01*
X119193945Y-63796055D01*
X119062732Y-63636170D01*
X118965234Y-63453765D01*
X118965233Y-63453762D01*
X118905193Y-63255836D01*
X118884920Y-63050000D01*
X118905193Y-62844164D01*
X118965233Y-62646238D01*
X118965234Y-62646235D01*
X119062732Y-62463830D01*
X119193945Y-62303945D01*
X119353830Y-62172732D01*
X119536235Y-62075234D01*
X119536238Y-62075233D01*
X119734164Y-62015193D01*
X119811293Y-62007596D01*
X119888420Y-62000000D01*
X119991580Y-62000000D01*
X120068707Y-62007596D01*
X120068707Y-62007596D01*
G37*
G36*
X122608707Y-62007596D02*
G01*
X122685836Y-62015193D01*
X122883762Y-62075233D01*
X122883765Y-62075234D01*
X123066170Y-62172732D01*
X123226055Y-62303945D01*
X123357268Y-62463830D01*
X123454766Y-62646235D01*
X123454767Y-62646238D01*
X123514807Y-62844164D01*
X123535080Y-63050000D01*
X123514807Y-63255836D01*
X123454767Y-63453762D01*
X123454766Y-63453765D01*
X123357268Y-63636170D01*
X123226055Y-63796055D01*
X123066170Y-63927268D01*
X122883765Y-64024766D01*
X122883762Y-64024767D01*
X122685836Y-64084807D01*
X122608707Y-64092403D01*
X122531580Y-64100000D01*
X122428420Y-64100000D01*
X122351293Y-64092403D01*
X122274164Y-64084807D01*
X122076238Y-64024767D01*
X122076235Y-64024766D01*
X121893830Y-63927268D01*
X121733945Y-63796055D01*
X121602732Y-63636170D01*
X121505234Y-63453765D01*
X121505233Y-63453762D01*
X121445193Y-63255836D01*
X121424920Y-63050000D01*
X121445193Y-62844164D01*
X121505233Y-62646238D01*
X121505234Y-62646235D01*
X121602732Y-62463830D01*
X121733945Y-62303945D01*
X121893830Y-62172732D01*
X122076235Y-62075234D01*
X122076238Y-62075233D01*
X122274164Y-62015193D01*
X122351293Y-62007596D01*
X122428420Y-62000000D01*
X122531580Y-62000000D01*
X122608707Y-62007596D01*
X122608707Y-62007596D01*
G37*
G36*
X125148707Y-62007596D02*
G01*
X125225836Y-62015193D01*
X125423762Y-62075233D01*
X125423765Y-62075234D01*
X125606170Y-62172732D01*
X125766055Y-62303945D01*
X125897268Y-62463830D01*
X125994766Y-62646235D01*
X125994767Y-62646238D01*
X126054807Y-62844164D01*
X126075080Y-63050000D01*
X126054807Y-63255836D01*
X125994767Y-63453762D01*
X125994766Y-63453765D01*
X125897268Y-63636170D01*
X125766055Y-63796055D01*
X125606170Y-63927268D01*
X125423765Y-64024766D01*
X125423762Y-64024767D01*
X125225836Y-64084807D01*
X125148707Y-64092403D01*
X125071580Y-64100000D01*
X124968420Y-64100000D01*
X124891293Y-64092403D01*
X124814164Y-64084807D01*
X124616238Y-64024767D01*
X124616235Y-64024766D01*
X124433830Y-63927268D01*
X124273945Y-63796055D01*
X124142732Y-63636170D01*
X124045234Y-63453765D01*
X124045233Y-63453762D01*
X123985193Y-63255836D01*
X123964920Y-63050000D01*
X123985193Y-62844164D01*
X124045233Y-62646238D01*
X124045234Y-62646235D01*
X124142732Y-62463830D01*
X124273945Y-62303945D01*
X124433830Y-62172732D01*
X124616235Y-62075234D01*
X124616238Y-62075233D01*
X124814164Y-62015193D01*
X124891293Y-62007596D01*
X124968420Y-62000000D01*
X125071580Y-62000000D01*
X125148707Y-62007596D01*
X125148707Y-62007596D01*
G37*
G36*
X127688707Y-62007596D02*
G01*
X127765836Y-62015193D01*
X127963762Y-62075233D01*
X127963765Y-62075234D01*
X128146170Y-62172732D01*
X128306055Y-62303945D01*
X128437268Y-62463830D01*
X128534766Y-62646235D01*
X128534767Y-62646238D01*
X128594807Y-62844164D01*
X128615080Y-63050000D01*
X128594807Y-63255836D01*
X128534767Y-63453762D01*
X128534766Y-63453765D01*
X128437268Y-63636170D01*
X128306055Y-63796055D01*
X128146170Y-63927268D01*
X127963765Y-64024766D01*
X127963762Y-64024767D01*
X127765836Y-64084807D01*
X127688707Y-64092403D01*
X127611580Y-64100000D01*
X127508420Y-64100000D01*
X127431293Y-64092403D01*
X127354164Y-64084807D01*
X127156238Y-64024767D01*
X127156235Y-64024766D01*
X126973830Y-63927268D01*
X126813945Y-63796055D01*
X126682732Y-63636170D01*
X126585234Y-63453765D01*
X126585233Y-63453762D01*
X126525193Y-63255836D01*
X126504920Y-63050000D01*
X126525193Y-62844164D01*
X126585233Y-62646238D01*
X126585234Y-62646235D01*
X126682732Y-62463830D01*
X126813945Y-62303945D01*
X126973830Y-62172732D01*
X127156235Y-62075234D01*
X127156238Y-62075233D01*
X127354164Y-62015193D01*
X127431293Y-62007596D01*
X127508420Y-62000000D01*
X127611580Y-62000000D01*
X127688707Y-62007596D01*
X127688707Y-62007596D01*
G37*
G36*
X130228707Y-62007596D02*
G01*
X130305836Y-62015193D01*
X130503762Y-62075233D01*
X130503765Y-62075234D01*
X130686170Y-62172732D01*
X130846055Y-62303945D01*
X130977268Y-62463830D01*
X131074766Y-62646235D01*
X131074767Y-62646238D01*
X131134807Y-62844164D01*
X131155080Y-63050000D01*
X131134807Y-63255836D01*
X131074767Y-63453762D01*
X131074766Y-63453765D01*
X130977268Y-63636170D01*
X130846055Y-63796055D01*
X130686170Y-63927268D01*
X130503765Y-64024766D01*
X130503762Y-64024767D01*
X130305836Y-64084807D01*
X130228707Y-64092403D01*
X130151580Y-64100000D01*
X130048420Y-64100000D01*
X129971293Y-64092403D01*
X129894164Y-64084807D01*
X129696238Y-64024767D01*
X129696235Y-64024766D01*
X129513830Y-63927268D01*
X129353945Y-63796055D01*
X129222732Y-63636170D01*
X129125234Y-63453765D01*
X129125233Y-63453762D01*
X129065193Y-63255836D01*
X129044920Y-63050000D01*
X129065193Y-62844164D01*
X129125233Y-62646238D01*
X129125234Y-62646235D01*
X129222732Y-62463830D01*
X129353945Y-62303945D01*
X129513830Y-62172732D01*
X129696235Y-62075234D01*
X129696238Y-62075233D01*
X129894164Y-62015193D01*
X129971293Y-62007596D01*
X130048420Y-62000000D01*
X130151580Y-62000000D01*
X130228707Y-62007596D01*
X130228707Y-62007596D01*
G37*
G36*
X132768707Y-62007596D02*
G01*
X132845836Y-62015193D01*
X133043762Y-62075233D01*
X133043765Y-62075234D01*
X133226170Y-62172732D01*
X133386055Y-62303945D01*
X133517268Y-62463830D01*
X133614766Y-62646235D01*
X133614767Y-62646238D01*
X133674807Y-62844164D01*
X133695080Y-63050000D01*
X133674807Y-63255836D01*
X133614767Y-63453762D01*
X133614766Y-63453765D01*
X133517268Y-63636170D01*
X133386055Y-63796055D01*
X133226170Y-63927268D01*
X133043765Y-64024766D01*
X133043762Y-64024767D01*
X132845836Y-64084807D01*
X132768707Y-64092403D01*
X132691580Y-64100000D01*
X132588420Y-64100000D01*
X132511293Y-64092403D01*
X132434164Y-64084807D01*
X132236238Y-64024767D01*
X132236235Y-64024766D01*
X132053830Y-63927268D01*
X131893945Y-63796055D01*
X131762732Y-63636170D01*
X131665234Y-63453765D01*
X131665233Y-63453762D01*
X131605193Y-63255836D01*
X131584920Y-63050000D01*
X131605193Y-62844164D01*
X131665233Y-62646238D01*
X131665234Y-62646235D01*
X131762732Y-62463830D01*
X131893945Y-62303945D01*
X132053830Y-62172732D01*
X132236235Y-62075234D01*
X132236238Y-62075233D01*
X132434164Y-62015193D01*
X132511293Y-62007596D01*
X132588420Y-62000000D01*
X132691580Y-62000000D01*
X132768707Y-62007596D01*
X132768707Y-62007596D01*
G37*
G36*
X135308707Y-62007596D02*
G01*
X135385836Y-62015193D01*
X135583762Y-62075233D01*
X135583765Y-62075234D01*
X135766170Y-62172732D01*
X135926055Y-62303945D01*
X136057268Y-62463830D01*
X136154766Y-62646235D01*
X136154767Y-62646238D01*
X136214807Y-62844164D01*
X136235080Y-63050000D01*
X136214807Y-63255836D01*
X136154767Y-63453762D01*
X136154766Y-63453765D01*
X136057268Y-63636170D01*
X135926055Y-63796055D01*
X135766170Y-63927268D01*
X135583765Y-64024766D01*
X135583762Y-64024767D01*
X135385836Y-64084807D01*
X135308707Y-64092403D01*
X135231580Y-64100000D01*
X135128420Y-64100000D01*
X135051293Y-64092403D01*
X134974164Y-64084807D01*
X134776238Y-64024767D01*
X134776235Y-64024766D01*
X134593830Y-63927268D01*
X134433945Y-63796055D01*
X134302732Y-63636170D01*
X134205234Y-63453765D01*
X134205233Y-63453762D01*
X134145193Y-63255836D01*
X134124920Y-63050000D01*
X134145193Y-62844164D01*
X134205233Y-62646238D01*
X134205234Y-62646235D01*
X134302732Y-62463830D01*
X134433945Y-62303945D01*
X134593830Y-62172732D01*
X134776235Y-62075234D01*
X134776238Y-62075233D01*
X134974164Y-62015193D01*
X135051293Y-62007596D01*
X135128420Y-62000000D01*
X135231580Y-62000000D01*
X135308707Y-62007596D01*
X135308707Y-62007596D01*
G37*
G36*
X104828707Y-62007596D02*
G01*
X104905836Y-62015193D01*
X105103762Y-62075233D01*
X105103765Y-62075234D01*
X105286170Y-62172732D01*
X105446055Y-62303945D01*
X105577268Y-62463830D01*
X105674766Y-62646235D01*
X105674767Y-62646238D01*
X105734807Y-62844164D01*
X105755080Y-63050000D01*
X105734807Y-63255836D01*
X105674767Y-63453762D01*
X105674766Y-63453765D01*
X105577268Y-63636170D01*
X105446055Y-63796055D01*
X105286170Y-63927268D01*
X105103765Y-64024766D01*
X105103762Y-64024767D01*
X104905836Y-64084807D01*
X104828707Y-64092403D01*
X104751580Y-64100000D01*
X104648420Y-64100000D01*
X104571293Y-64092403D01*
X104494164Y-64084807D01*
X104296238Y-64024767D01*
X104296235Y-64024766D01*
X104113830Y-63927268D01*
X103953945Y-63796055D01*
X103822732Y-63636170D01*
X103725234Y-63453765D01*
X103725233Y-63453762D01*
X103665193Y-63255836D01*
X103644920Y-63050000D01*
X103665193Y-62844164D01*
X103725233Y-62646238D01*
X103725234Y-62646235D01*
X103822732Y-62463830D01*
X103953945Y-62303945D01*
X104113830Y-62172732D01*
X104296235Y-62075234D01*
X104296238Y-62075233D01*
X104494164Y-62015193D01*
X104571293Y-62007596D01*
X104648420Y-62000000D01*
X104751580Y-62000000D01*
X104828707Y-62007596D01*
X104828707Y-62007596D01*
G37*
M02*
