G04 #@! TF.GenerationSoftware,KiCad,Pcbnew,(5.1.4)-1*
G04 #@! TF.CreationDate,2019-11-27T00:46:48+11:00*
G04 #@! TF.ProjectId,dingo-hat,64696e67-6f2d-4686-9174-2e6b69636164,rev?*
G04 #@! TF.SameCoordinates,Original*
G04 #@! TF.FileFunction,Legend,Top*
G04 #@! TF.FilePolarity,Positive*
%FSLAX46Y46*%
G04 Gerber Fmt 4.6, Leading zero omitted, Abs format (unit mm)*
G04 Created by KiCad (PCBNEW (5.1.4)-1) date 2019-11-27 00:46:48*
%MOMM*%
%LPD*%
G04 APERTURE LIST*
%ADD10C,0.150000*%
%ADD11C,0.175000*%
%ADD12C,0.525000*%
%ADD13C,0.100000*%
%ADD14C,0.120000*%
%ADD15C,0.152400*%
%ADD16C,0.127000*%
%ADD17C,0.380000*%
%ADD18C,0.050000*%
%ADD19C,0.200000*%
G04 APERTURE END LIST*
D10*
X135130000Y-90920666D02*
X134730000Y-90920666D01*
X134930000Y-90920666D02*
X134930000Y-90220666D01*
X134863333Y-90320666D01*
X134796666Y-90387333D01*
X134730000Y-90420666D01*
X135396666Y-90720666D02*
X135730000Y-90720666D01*
X135330000Y-90920666D02*
X135563333Y-90220666D01*
X135796666Y-90920666D01*
D11*
X100912000Y-59429333D02*
X100878666Y-59496000D01*
X100878666Y-59596000D01*
X100912000Y-59696000D01*
X100978666Y-59762666D01*
X101045333Y-59796000D01*
X101178666Y-59829333D01*
X101278666Y-59829333D01*
X101412000Y-59796000D01*
X101478666Y-59762666D01*
X101545333Y-59696000D01*
X101578666Y-59596000D01*
X101578666Y-59529333D01*
X101545333Y-59429333D01*
X101512000Y-59396000D01*
X101278666Y-59396000D01*
X101278666Y-59529333D01*
X101578666Y-59096000D02*
X100878666Y-59096000D01*
X101578666Y-58696000D01*
X100878666Y-58696000D01*
X101578666Y-58362666D02*
X100878666Y-58362666D01*
X100878666Y-58196000D01*
X100912000Y-58096000D01*
X100978666Y-58029333D01*
X101045333Y-57996000D01*
X101178666Y-57962666D01*
X101278666Y-57962666D01*
X101412000Y-57996000D01*
X101478666Y-58029333D01*
X101545333Y-58096000D01*
X101578666Y-58196000D01*
X101578666Y-58362666D01*
X101300000Y-53914000D02*
X101300000Y-53380666D01*
X101566666Y-53647333D02*
X101033333Y-53647333D01*
X100866666Y-52714000D02*
X100866666Y-53047333D01*
X101200000Y-53080666D01*
X101166666Y-53047333D01*
X101133333Y-52980666D01*
X101133333Y-52814000D01*
X101166666Y-52747333D01*
X101200000Y-52714000D01*
X101266666Y-52680666D01*
X101433333Y-52680666D01*
X101500000Y-52714000D01*
X101533333Y-52747333D01*
X101566666Y-52814000D01*
X101566666Y-52980666D01*
X101533333Y-53047333D01*
X101500000Y-53080666D01*
X100866666Y-52480666D02*
X101566666Y-52247333D01*
X100866666Y-52014000D01*
D10*
X100990000Y-57035428D02*
X100961428Y-57092571D01*
X100961428Y-57178285D01*
X100990000Y-57264000D01*
X101047142Y-57321142D01*
X101104285Y-57349714D01*
X101218571Y-57378285D01*
X101304285Y-57378285D01*
X101418571Y-57349714D01*
X101475714Y-57321142D01*
X101532857Y-57264000D01*
X101561428Y-57178285D01*
X101561428Y-57121142D01*
X101532857Y-57035428D01*
X101504285Y-57006857D01*
X101304285Y-57006857D01*
X101304285Y-57121142D01*
X101561428Y-56749714D02*
X100961428Y-56749714D01*
X100961428Y-56521142D01*
X100990000Y-56464000D01*
X101018571Y-56435428D01*
X101075714Y-56406857D01*
X101161428Y-56406857D01*
X101218571Y-56435428D01*
X101247142Y-56464000D01*
X101275714Y-56521142D01*
X101275714Y-56749714D01*
X101561428Y-56149714D02*
X100961428Y-56149714D01*
X100961428Y-55749714D02*
X100961428Y-55635428D01*
X100990000Y-55578285D01*
X101047142Y-55521142D01*
X101161428Y-55492571D01*
X101361428Y-55492571D01*
X101475714Y-55521142D01*
X101532857Y-55578285D01*
X101561428Y-55635428D01*
X101561428Y-55749714D01*
X101532857Y-55806857D01*
X101475714Y-55864000D01*
X101361428Y-55892571D01*
X101161428Y-55892571D01*
X101047142Y-55864000D01*
X100990000Y-55806857D01*
X100961428Y-55749714D01*
X101561428Y-54921142D02*
X101561428Y-55264000D01*
X101561428Y-55092571D02*
X100961428Y-55092571D01*
X101047142Y-55149714D01*
X101104285Y-55206857D01*
X101132857Y-55264000D01*
X101218571Y-54578285D02*
X101190000Y-54635428D01*
X101161428Y-54664000D01*
X101104285Y-54692571D01*
X101075714Y-54692571D01*
X101018571Y-54664000D01*
X100990000Y-54635428D01*
X100961428Y-54578285D01*
X100961428Y-54464000D01*
X100990000Y-54406857D01*
X101018571Y-54378285D01*
X101075714Y-54349714D01*
X101104285Y-54349714D01*
X101161428Y-54378285D01*
X101190000Y-54406857D01*
X101218571Y-54464000D01*
X101218571Y-54578285D01*
X101247142Y-54635428D01*
X101275714Y-54664000D01*
X101332857Y-54692571D01*
X101447142Y-54692571D01*
X101504285Y-54664000D01*
X101532857Y-54635428D01*
X101561428Y-54578285D01*
X101561428Y-54464000D01*
X101532857Y-54406857D01*
X101504285Y-54378285D01*
X101447142Y-54349714D01*
X101332857Y-54349714D01*
X101275714Y-54378285D01*
X101247142Y-54406857D01*
X101218571Y-54464000D01*
D11*
X151363333Y-94150666D02*
X151596666Y-94850666D01*
X151830000Y-94150666D01*
X152463333Y-94784000D02*
X152430000Y-94817333D01*
X152330000Y-94850666D01*
X152263333Y-94850666D01*
X152163333Y-94817333D01*
X152096666Y-94750666D01*
X152063333Y-94684000D01*
X152030000Y-94550666D01*
X152030000Y-94450666D01*
X152063333Y-94317333D01*
X152096666Y-94250666D01*
X152163333Y-94184000D01*
X152263333Y-94150666D01*
X152330000Y-94150666D01*
X152430000Y-94184000D01*
X152463333Y-94217333D01*
X153130000Y-94850666D02*
X152730000Y-94850666D01*
X152930000Y-94850666D02*
X152930000Y-94150666D01*
X152863333Y-94250666D01*
X152796666Y-94317333D01*
X152730000Y-94350666D01*
X153983333Y-94170666D02*
X154216666Y-94870666D01*
X154450000Y-94170666D01*
X155083333Y-94804000D02*
X155050000Y-94837333D01*
X154950000Y-94870666D01*
X154883333Y-94870666D01*
X154783333Y-94837333D01*
X154716666Y-94770666D01*
X154683333Y-94704000D01*
X154650000Y-94570666D01*
X154650000Y-94470666D01*
X154683333Y-94337333D01*
X154716666Y-94270666D01*
X154783333Y-94204000D01*
X154883333Y-94170666D01*
X154950000Y-94170666D01*
X155050000Y-94204000D01*
X155083333Y-94237333D01*
X155516666Y-94170666D02*
X155583333Y-94170666D01*
X155650000Y-94204000D01*
X155683333Y-94237333D01*
X155716666Y-94304000D01*
X155750000Y-94437333D01*
X155750000Y-94604000D01*
X155716666Y-94737333D01*
X155683333Y-94804000D01*
X155650000Y-94837333D01*
X155583333Y-94870666D01*
X155516666Y-94870666D01*
X155450000Y-94837333D01*
X155416666Y-94804000D01*
X155383333Y-94737333D01*
X155350000Y-94604000D01*
X155350000Y-94437333D01*
X155383333Y-94304000D01*
X155416666Y-94237333D01*
X155450000Y-94204000D01*
X155516666Y-94170666D01*
D10*
X112451428Y-86544000D02*
X112451428Y-87544000D01*
X111565714Y-87244000D02*
X112022857Y-87044000D01*
X111565714Y-86844000D01*
X138128571Y-90664000D02*
X138128571Y-89664000D01*
X139014285Y-89964000D02*
X138557142Y-90164000D01*
X139014285Y-90364000D01*
X148031428Y-76606857D02*
X148488571Y-76606857D01*
X148260000Y-76835428D02*
X148260000Y-76378285D01*
D11*
X142163333Y-91154000D02*
X142696666Y-91154000D01*
X141156666Y-87298166D02*
X141156666Y-86598166D01*
X141156666Y-86864833D02*
X141223333Y-86831500D01*
X141356666Y-86831500D01*
X141423333Y-86864833D01*
X141456666Y-86898166D01*
X141490000Y-86964833D01*
X141490000Y-87164833D01*
X141456666Y-87231500D01*
X141423333Y-87264833D01*
X141356666Y-87298166D01*
X141223333Y-87298166D01*
X141156666Y-87264833D01*
X141890000Y-87298166D02*
X141823333Y-87264833D01*
X141790000Y-87231500D01*
X141756666Y-87164833D01*
X141756666Y-86964833D01*
X141790000Y-86898166D01*
X141823333Y-86864833D01*
X141890000Y-86831500D01*
X141990000Y-86831500D01*
X142056666Y-86864833D01*
X142090000Y-86898166D01*
X142123333Y-86964833D01*
X142123333Y-87164833D01*
X142090000Y-87231500D01*
X142056666Y-87264833D01*
X141990000Y-87298166D01*
X141890000Y-87298166D01*
X142523333Y-87298166D02*
X142456666Y-87264833D01*
X142423333Y-87231500D01*
X142390000Y-87164833D01*
X142390000Y-86964833D01*
X142423333Y-86898166D01*
X142456666Y-86864833D01*
X142523333Y-86831500D01*
X142623333Y-86831500D01*
X142690000Y-86864833D01*
X142723333Y-86898166D01*
X142756666Y-86964833D01*
X142756666Y-87164833D01*
X142723333Y-87231500D01*
X142690000Y-87264833D01*
X142623333Y-87298166D01*
X142523333Y-87298166D01*
X142956666Y-86831500D02*
X143223333Y-86831500D01*
X143056666Y-86598166D02*
X143056666Y-87198166D01*
X143090000Y-87264833D01*
X143156666Y-87298166D01*
X143223333Y-87298166D01*
X140940000Y-88489833D02*
X141006666Y-88523166D01*
X141140000Y-88523166D01*
X141206666Y-88489833D01*
X141240000Y-88423166D01*
X141240000Y-88389833D01*
X141206666Y-88323166D01*
X141140000Y-88289833D01*
X141040000Y-88289833D01*
X140973333Y-88256500D01*
X140940000Y-88189833D01*
X140940000Y-88156500D01*
X140973333Y-88089833D01*
X141040000Y-88056500D01*
X141140000Y-88056500D01*
X141206666Y-88089833D01*
X141440000Y-88056500D02*
X141706666Y-88056500D01*
X141540000Y-87823166D02*
X141540000Y-88423166D01*
X141573333Y-88489833D01*
X141640000Y-88523166D01*
X141706666Y-88523166D01*
X141940000Y-88523166D02*
X141940000Y-88056500D01*
X141940000Y-88189833D02*
X141973333Y-88123166D01*
X142006666Y-88089833D01*
X142073333Y-88056500D01*
X142140000Y-88056500D01*
X142673333Y-88523166D02*
X142673333Y-88156500D01*
X142640000Y-88089833D01*
X142573333Y-88056500D01*
X142440000Y-88056500D01*
X142373333Y-88089833D01*
X142673333Y-88489833D02*
X142606666Y-88523166D01*
X142440000Y-88523166D01*
X142373333Y-88489833D01*
X142340000Y-88423166D01*
X142340000Y-88356500D01*
X142373333Y-88289833D01*
X142440000Y-88256500D01*
X142606666Y-88256500D01*
X142673333Y-88223166D01*
X143006666Y-88056500D02*
X143006666Y-88756500D01*
X143006666Y-88089833D02*
X143073333Y-88056500D01*
X143206666Y-88056500D01*
X143273333Y-88089833D01*
X143306666Y-88123166D01*
X143340000Y-88189833D01*
X143340000Y-88389833D01*
X143306666Y-88456500D01*
X143273333Y-88489833D01*
X143206666Y-88523166D01*
X143073333Y-88523166D01*
X143006666Y-88489833D01*
X118370000Y-93817333D02*
X118336666Y-93884000D01*
X118336666Y-93984000D01*
X118370000Y-94084000D01*
X118436666Y-94150666D01*
X118503333Y-94184000D01*
X118636666Y-94217333D01*
X118736666Y-94217333D01*
X118870000Y-94184000D01*
X118936666Y-94150666D01*
X119003333Y-94084000D01*
X119036666Y-93984000D01*
X119036666Y-93917333D01*
X119003333Y-93817333D01*
X118970000Y-93784000D01*
X118736666Y-93784000D01*
X118736666Y-93917333D01*
X119036666Y-93484000D02*
X118336666Y-93484000D01*
X119036666Y-93084000D01*
X118336666Y-93084000D01*
X119036666Y-92750666D02*
X118336666Y-92750666D01*
X118336666Y-92584000D01*
X118370000Y-92484000D01*
X118436666Y-92417333D01*
X118503333Y-92384000D01*
X118636666Y-92350666D01*
X118736666Y-92350666D01*
X118870000Y-92384000D01*
X118936666Y-92417333D01*
X119003333Y-92484000D01*
X119036666Y-92584000D01*
X119036666Y-92750666D01*
X127736666Y-90094000D02*
X127670000Y-90060666D01*
X127570000Y-90060666D01*
X127470000Y-90094000D01*
X127403333Y-90160666D01*
X127370000Y-90227333D01*
X127336666Y-90360666D01*
X127336666Y-90460666D01*
X127370000Y-90594000D01*
X127403333Y-90660666D01*
X127470000Y-90727333D01*
X127570000Y-90760666D01*
X127636666Y-90760666D01*
X127736666Y-90727333D01*
X127770000Y-90694000D01*
X127770000Y-90460666D01*
X127636666Y-90460666D01*
X128070000Y-90760666D02*
X128070000Y-90060666D01*
X128470000Y-90760666D01*
X128470000Y-90060666D01*
X128803333Y-90760666D02*
X128803333Y-90060666D01*
X128970000Y-90060666D01*
X129070000Y-90094000D01*
X129136666Y-90160666D01*
X129170000Y-90227333D01*
X129203333Y-90360666D01*
X129203333Y-90460666D01*
X129170000Y-90594000D01*
X129136666Y-90660666D01*
X129070000Y-90727333D01*
X128970000Y-90760666D01*
X128803333Y-90760666D01*
X130110000Y-73834000D02*
X130643333Y-73834000D01*
X130376666Y-74100666D02*
X130376666Y-73567333D01*
X131310000Y-73400666D02*
X130976666Y-73400666D01*
X130943333Y-73734000D01*
X130976666Y-73700666D01*
X131043333Y-73667333D01*
X131210000Y-73667333D01*
X131276666Y-73700666D01*
X131310000Y-73734000D01*
X131343333Y-73800666D01*
X131343333Y-73967333D01*
X131310000Y-74034000D01*
X131276666Y-74067333D01*
X131210000Y-74100666D01*
X131043333Y-74100666D01*
X130976666Y-74067333D01*
X130943333Y-74034000D01*
X131543333Y-73400666D02*
X131776666Y-74100666D01*
X132010000Y-73400666D01*
X103300000Y-92124000D02*
X103833333Y-92124000D01*
X103566666Y-92390666D02*
X103566666Y-91857333D01*
X104500000Y-91690666D02*
X104166666Y-91690666D01*
X104133333Y-92024000D01*
X104166666Y-91990666D01*
X104233333Y-91957333D01*
X104400000Y-91957333D01*
X104466666Y-91990666D01*
X104500000Y-92024000D01*
X104533333Y-92090666D01*
X104533333Y-92257333D01*
X104500000Y-92324000D01*
X104466666Y-92357333D01*
X104400000Y-92390666D01*
X104233333Y-92390666D01*
X104166666Y-92357333D01*
X104133333Y-92324000D01*
X104733333Y-91690666D02*
X104966666Y-92390666D01*
X105200000Y-91690666D01*
X101194666Y-91736000D02*
X101128000Y-91702666D01*
X101028000Y-91702666D01*
X100928000Y-91736000D01*
X100861333Y-91802666D01*
X100828000Y-91869333D01*
X100794666Y-92002666D01*
X100794666Y-92102666D01*
X100828000Y-92236000D01*
X100861333Y-92302666D01*
X100928000Y-92369333D01*
X101028000Y-92402666D01*
X101094666Y-92402666D01*
X101194666Y-92369333D01*
X101228000Y-92336000D01*
X101228000Y-92102666D01*
X101094666Y-92102666D01*
X101528000Y-92402666D02*
X101528000Y-91702666D01*
X101928000Y-92402666D01*
X101928000Y-91702666D01*
X102261333Y-92402666D02*
X102261333Y-91702666D01*
X102428000Y-91702666D01*
X102528000Y-91736000D01*
X102594666Y-91802666D01*
X102628000Y-91869333D01*
X102661333Y-92002666D01*
X102661333Y-92102666D01*
X102628000Y-92236000D01*
X102594666Y-92302666D01*
X102528000Y-92369333D01*
X102428000Y-92402666D01*
X102261333Y-92402666D01*
X160054666Y-81436000D02*
X159988000Y-81402666D01*
X159888000Y-81402666D01*
X159788000Y-81436000D01*
X159721333Y-81502666D01*
X159688000Y-81569333D01*
X159654666Y-81702666D01*
X159654666Y-81802666D01*
X159688000Y-81936000D01*
X159721333Y-82002666D01*
X159788000Y-82069333D01*
X159888000Y-82102666D01*
X159954666Y-82102666D01*
X160054666Y-82069333D01*
X160088000Y-82036000D01*
X160088000Y-81802666D01*
X159954666Y-81802666D01*
X160388000Y-82102666D02*
X160388000Y-81402666D01*
X160788000Y-82102666D01*
X160788000Y-81402666D01*
X161121333Y-82102666D02*
X161121333Y-81402666D01*
X161288000Y-81402666D01*
X161388000Y-81436000D01*
X161454666Y-81502666D01*
X161488000Y-81569333D01*
X161521333Y-81702666D01*
X161521333Y-81802666D01*
X161488000Y-81936000D01*
X161454666Y-82002666D01*
X161388000Y-82069333D01*
X161288000Y-82102666D01*
X161121333Y-82102666D01*
X131928000Y-67299333D02*
X132028000Y-67332666D01*
X132194666Y-67332666D01*
X132261333Y-67299333D01*
X132294666Y-67266000D01*
X132328000Y-67199333D01*
X132328000Y-67132666D01*
X132294666Y-67066000D01*
X132261333Y-67032666D01*
X132194666Y-66999333D01*
X132061333Y-66966000D01*
X131994666Y-66932666D01*
X131961333Y-66899333D01*
X131928000Y-66832666D01*
X131928000Y-66766000D01*
X131961333Y-66699333D01*
X131994666Y-66666000D01*
X132061333Y-66632666D01*
X132228000Y-66632666D01*
X132328000Y-66666000D01*
X132628000Y-67332666D02*
X132628000Y-66632666D01*
X132794666Y-66632666D01*
X132894666Y-66666000D01*
X132961333Y-66732666D01*
X132994666Y-66799333D01*
X133028000Y-66932666D01*
X133028000Y-67032666D01*
X132994666Y-67166000D01*
X132961333Y-67232666D01*
X132894666Y-67299333D01*
X132794666Y-67332666D01*
X132628000Y-67332666D01*
X133294666Y-67132666D02*
X133628000Y-67132666D01*
X133228000Y-67332666D02*
X133461333Y-66632666D01*
X133694666Y-67332666D01*
X134484666Y-67299333D02*
X134584666Y-67332666D01*
X134751333Y-67332666D01*
X134818000Y-67299333D01*
X134851333Y-67266000D01*
X134884666Y-67199333D01*
X134884666Y-67132666D01*
X134851333Y-67066000D01*
X134818000Y-67032666D01*
X134751333Y-66999333D01*
X134618000Y-66966000D01*
X134551333Y-66932666D01*
X134518000Y-66899333D01*
X134484666Y-66832666D01*
X134484666Y-66766000D01*
X134518000Y-66699333D01*
X134551333Y-66666000D01*
X134618000Y-66632666D01*
X134784666Y-66632666D01*
X134884666Y-66666000D01*
X135584666Y-67266000D02*
X135551333Y-67299333D01*
X135451333Y-67332666D01*
X135384666Y-67332666D01*
X135284666Y-67299333D01*
X135218000Y-67232666D01*
X135184666Y-67166000D01*
X135151333Y-67032666D01*
X135151333Y-66932666D01*
X135184666Y-66799333D01*
X135218000Y-66732666D01*
X135284666Y-66666000D01*
X135384666Y-66632666D01*
X135451333Y-66632666D01*
X135551333Y-66666000D01*
X135584666Y-66699333D01*
X136218000Y-67332666D02*
X135884666Y-67332666D01*
X135884666Y-66632666D01*
X139464666Y-67056000D02*
X139998000Y-67056000D01*
X139731333Y-67322666D02*
X139731333Y-66789333D01*
X140264666Y-66622666D02*
X140698000Y-66622666D01*
X140464666Y-66889333D01*
X140564666Y-66889333D01*
X140631333Y-66922666D01*
X140664666Y-66956000D01*
X140698000Y-67022666D01*
X140698000Y-67189333D01*
X140664666Y-67256000D01*
X140631333Y-67289333D01*
X140564666Y-67322666D01*
X140364666Y-67322666D01*
X140298000Y-67289333D01*
X140264666Y-67256000D01*
X140898000Y-66622666D02*
X141131333Y-67322666D01*
X141364666Y-66622666D01*
X141531333Y-66622666D02*
X141964666Y-66622666D01*
X141731333Y-66889333D01*
X141831333Y-66889333D01*
X141898000Y-66922666D01*
X141931333Y-66956000D01*
X141964666Y-67022666D01*
X141964666Y-67189333D01*
X141931333Y-67256000D01*
X141898000Y-67289333D01*
X141831333Y-67322666D01*
X141631333Y-67322666D01*
X141564666Y-67289333D01*
X141531333Y-67256000D01*
X137284666Y-66646000D02*
X137218000Y-66612666D01*
X137118000Y-66612666D01*
X137018000Y-66646000D01*
X136951333Y-66712666D01*
X136918000Y-66779333D01*
X136884666Y-66912666D01*
X136884666Y-67012666D01*
X136918000Y-67146000D01*
X136951333Y-67212666D01*
X137018000Y-67279333D01*
X137118000Y-67312666D01*
X137184666Y-67312666D01*
X137284666Y-67279333D01*
X137318000Y-67246000D01*
X137318000Y-67012666D01*
X137184666Y-67012666D01*
X137618000Y-67312666D02*
X137618000Y-66612666D01*
X138018000Y-67312666D01*
X138018000Y-66612666D01*
X138351333Y-67312666D02*
X138351333Y-66612666D01*
X138518000Y-66612666D01*
X138618000Y-66646000D01*
X138684666Y-66712666D01*
X138718000Y-66779333D01*
X138751333Y-66912666D01*
X138751333Y-67012666D01*
X138718000Y-67146000D01*
X138684666Y-67212666D01*
X138618000Y-67279333D01*
X138518000Y-67312666D01*
X138351333Y-67312666D01*
D12*
X108052500Y-80052750D02*
X105952500Y-80052750D01*
X105952500Y-79552750D01*
X106052500Y-79252750D01*
X106252500Y-79052750D01*
X106452500Y-78952750D01*
X106852500Y-78852750D01*
X107152500Y-78852750D01*
X107552500Y-78952750D01*
X107752500Y-79052750D01*
X107952500Y-79252750D01*
X108052500Y-79552750D01*
X108052500Y-80052750D01*
X108052500Y-77952750D02*
X106652500Y-77952750D01*
X105952500Y-77952750D02*
X106052500Y-78052750D01*
X106152500Y-77952750D01*
X106052500Y-77852750D01*
X105952500Y-77952750D01*
X106152500Y-77952750D01*
X106652500Y-76952750D02*
X108052500Y-76952750D01*
X106852500Y-76952750D02*
X106752500Y-76852750D01*
X106652500Y-76652750D01*
X106652500Y-76352750D01*
X106752500Y-76152750D01*
X106952500Y-76052750D01*
X108052500Y-76052750D01*
X106652500Y-74152750D02*
X108352500Y-74152750D01*
X108552500Y-74252750D01*
X108652500Y-74352750D01*
X108752500Y-74552750D01*
X108752500Y-74852750D01*
X108652500Y-75052750D01*
X107952500Y-74152750D02*
X108052500Y-74352750D01*
X108052500Y-74752750D01*
X107952500Y-74952750D01*
X107852500Y-75052750D01*
X107652500Y-75152750D01*
X107052500Y-75152750D01*
X106852500Y-75052750D01*
X106752500Y-74952750D01*
X106652500Y-74752750D01*
X106652500Y-74352750D01*
X106752500Y-74152750D01*
X108052500Y-72852750D02*
X107952500Y-73052750D01*
X107852500Y-73152750D01*
X107652500Y-73252750D01*
X107052500Y-73252750D01*
X106852500Y-73152750D01*
X106752500Y-73052750D01*
X106652500Y-72852750D01*
X106652500Y-72552750D01*
X106752500Y-72352750D01*
X106852500Y-72252750D01*
X107052500Y-72152750D01*
X107652500Y-72152750D01*
X107852500Y-72252750D01*
X107952500Y-72352750D01*
X108052500Y-72552750D01*
X108052500Y-72852750D01*
X107252500Y-71252750D02*
X107252500Y-69652750D01*
X108052500Y-68652750D02*
X105952500Y-68652750D01*
X106952500Y-68652750D02*
X106952500Y-67452750D01*
X108052500Y-67452750D02*
X105952500Y-67452750D01*
X108052500Y-65552750D02*
X106952500Y-65552750D01*
X106752500Y-65652750D01*
X106652500Y-65852750D01*
X106652500Y-66252750D01*
X106752500Y-66452750D01*
X107952500Y-65552750D02*
X108052500Y-65752750D01*
X108052500Y-66252750D01*
X107952500Y-66452750D01*
X107752500Y-66552750D01*
X107552500Y-66552750D01*
X107352500Y-66452750D01*
X107252500Y-66252750D01*
X107252500Y-65752750D01*
X107152500Y-65552750D01*
X106652500Y-64852750D02*
X106652500Y-64052750D01*
X105952500Y-64552750D02*
X107752500Y-64552750D01*
X107952500Y-64452750D01*
X108052500Y-64252750D01*
X108052500Y-64052750D01*
X109627500Y-80352750D02*
X111727500Y-79652750D01*
X109627500Y-78952750D01*
X111727500Y-77152750D02*
X111727500Y-78352750D01*
X111727500Y-77752750D02*
X109627500Y-77752750D01*
X109927500Y-77952750D01*
X110127500Y-78152750D01*
X110227500Y-78352750D01*
X111527500Y-76252750D02*
X111627500Y-76152750D01*
X111727500Y-76252750D01*
X111627500Y-76352750D01*
X111527500Y-76252750D01*
X111727500Y-76252750D01*
X109827500Y-75352750D02*
X109727500Y-75252750D01*
X109627500Y-75052750D01*
X109627500Y-74552750D01*
X109727500Y-74352750D01*
X109827500Y-74252750D01*
X110027500Y-74152750D01*
X110227500Y-74152750D01*
X110527500Y-74252750D01*
X111727500Y-75452750D01*
X111727500Y-74152750D01*
D13*
X115970000Y-50410280D02*
X125970000Y-50410280D01*
X153970000Y-62410280D02*
X148890000Y-62410280D01*
X153970000Y-50410280D02*
X153970000Y-62410280D01*
X115970000Y-62410280D02*
X115970000Y-50410280D01*
X148890000Y-62410280D02*
X125970000Y-62410280D01*
X125970000Y-62410280D02*
X115970000Y-62410280D01*
X148890000Y-50410280D02*
X153970000Y-50410280D01*
X125970000Y-50410280D02*
X148890000Y-50410280D01*
D10*
X140757421Y-86234000D02*
G75*
G03X140757421Y-86234000I-141421J0D01*
G01*
D14*
X140716000Y-83734000D02*
X140716000Y-85834000D01*
X136916000Y-83734000D02*
X140716000Y-83734000D01*
X136916000Y-86234000D02*
X136916000Y-83734000D01*
X140216000Y-86234000D02*
X136916000Y-86234000D01*
D15*
X142358100Y-72670000D02*
G75*
G03X142358100Y-72670000I-76200J0D01*
G01*
X146062500Y-72235659D02*
X146062500Y-72044400D01*
X142811300Y-75104341D02*
X142811300Y-75295600D01*
X142811300Y-72044400D02*
X142811300Y-72235659D01*
X146062500Y-72044400D02*
X142811300Y-72044400D01*
X146062500Y-75295600D02*
X146062500Y-75104341D01*
X142811300Y-75295600D02*
X146062500Y-75295600D01*
D14*
X162940000Y-56984000D02*
X162940000Y-55484000D01*
X161690000Y-52984000D02*
X157190000Y-52984000D01*
X155940000Y-55484000D02*
X155940000Y-56984000D01*
X157190000Y-59484000D02*
X161690000Y-59484000D01*
X114250000Y-88064000D02*
X114250000Y-86064000D01*
X114250000Y-86064000D02*
X110400000Y-86064000D01*
X114250000Y-88064000D02*
X110400000Y-88064000D01*
X125230000Y-54305267D02*
X125230000Y-53962733D01*
X124210000Y-54305267D02*
X124210000Y-53962733D01*
X148998733Y-78744000D02*
X149341267Y-78744000D01*
X148998733Y-77724000D02*
X149341267Y-77724000D01*
D16*
X154110000Y-82704000D02*
X154110000Y-78504000D01*
X158510000Y-87104000D02*
G75*
G02X154110000Y-82704000I0J4400000D01*
G01*
X162910000Y-82704000D02*
G75*
G02X158510000Y-87104000I-4400000J0D01*
G01*
X162910000Y-71504000D02*
X162910000Y-82704000D01*
X158510000Y-67104000D02*
G75*
G02X162910000Y-71504000I0J-4400000D01*
G01*
X154110000Y-71504000D02*
G75*
G02X158510000Y-67104000I4400000J0D01*
G01*
X154110000Y-73304000D02*
X154110000Y-71504000D01*
D17*
X151730000Y-75174000D02*
G75*
G03X151730000Y-75174000I-190000J0D01*
G01*
D14*
X113891267Y-70364000D02*
X113548733Y-70364000D01*
X113891267Y-71384000D02*
X113548733Y-71384000D01*
X113538733Y-72924000D02*
X113881267Y-72924000D01*
X113538733Y-71904000D02*
X113881267Y-71904000D01*
X117138733Y-68754000D02*
X117481267Y-68754000D01*
X117138733Y-67734000D02*
X117481267Y-67734000D01*
X123148000Y-69867733D02*
X123148000Y-70210267D01*
X124168000Y-69867733D02*
X124168000Y-70210267D01*
X148590000Y-90985267D02*
X148590000Y-90642733D01*
X147570000Y-90985267D02*
X147570000Y-90642733D01*
X151471267Y-90970000D02*
X151128733Y-90970000D01*
X151471267Y-91990000D02*
X151128733Y-91990000D01*
X155018733Y-89910000D02*
X155361267Y-89910000D01*
X155018733Y-88890000D02*
X155361267Y-88890000D01*
X155018733Y-91654000D02*
X155361267Y-91654000D01*
X155018733Y-90634000D02*
X155361267Y-90634000D01*
X149291267Y-70194000D02*
X148948733Y-70194000D01*
X149291267Y-71214000D02*
X148948733Y-71214000D01*
X135000000Y-84772733D02*
X135000000Y-85115267D01*
X136020000Y-84772733D02*
X136020000Y-85115267D01*
X149341267Y-72554000D02*
X148998733Y-72554000D01*
X149341267Y-73574000D02*
X148998733Y-73574000D01*
X138818733Y-81084000D02*
X139161267Y-81084000D01*
X138818733Y-80064000D02*
X139161267Y-80064000D01*
X108540000Y-61342733D02*
X108540000Y-61685267D01*
X109560000Y-61342733D02*
X109560000Y-61685267D01*
X151151267Y-67464000D02*
X150808733Y-67464000D01*
X151151267Y-68484000D02*
X150808733Y-68484000D01*
X147428733Y-68474000D02*
X147771267Y-68474000D01*
X147428733Y-67454000D02*
X147771267Y-67454000D01*
X133840000Y-52582733D02*
X133840000Y-52925267D01*
X134860000Y-52582733D02*
X134860000Y-52925267D01*
X129670000Y-52602733D02*
X129670000Y-52945267D01*
X130690000Y-52602733D02*
X130690000Y-52945267D01*
X141820000Y-53621267D02*
X141820000Y-53278733D01*
X140800000Y-53621267D02*
X140800000Y-53278733D01*
X143320000Y-53615267D02*
X143320000Y-53272733D01*
X142300000Y-53615267D02*
X142300000Y-53272733D01*
X117251267Y-51824000D02*
X116908733Y-51824000D01*
X117251267Y-52844000D02*
X116908733Y-52844000D01*
X158057267Y-64534000D02*
X157714733Y-64534000D01*
X158057267Y-65554000D02*
X157714733Y-65554000D01*
X117621267Y-88954000D02*
X117278733Y-88954000D01*
X117621267Y-89974000D02*
X117278733Y-89974000D01*
X131560000Y-90462733D02*
X131560000Y-90805267D01*
X132580000Y-90462733D02*
X132580000Y-90805267D01*
X112972064Y-88814000D02*
X111767936Y-88814000D01*
X112972064Y-90634000D02*
X111767936Y-90634000D01*
X131140000Y-94881936D02*
X131140000Y-96086064D01*
X132960000Y-94881936D02*
X132960000Y-96086064D01*
X150830000Y-74649000D02*
X148370000Y-74649000D01*
X150830000Y-76119000D02*
X150830000Y-74649000D01*
X148370000Y-76119000D02*
X150830000Y-76119000D01*
X134457936Y-74354000D02*
X135662064Y-74354000D01*
X134457936Y-72534000D02*
X135662064Y-72534000D01*
X114081267Y-67734000D02*
X113738733Y-67734000D01*
X114081267Y-68754000D02*
X113738733Y-68754000D01*
X134388733Y-79454000D02*
X134731267Y-79454000D01*
X134388733Y-78434000D02*
X134731267Y-78434000D01*
X120570000Y-69865267D02*
X120570000Y-69522733D01*
X119550000Y-69865267D02*
X119550000Y-69522733D01*
X124672000Y-69867733D02*
X124672000Y-70210267D01*
X125692000Y-69867733D02*
X125692000Y-70210267D01*
X120692733Y-82995000D02*
X121035267Y-82995000D01*
X120692733Y-81975000D02*
X121035267Y-81975000D01*
X117733267Y-81975000D02*
X117390733Y-81975000D01*
X117733267Y-82995000D02*
X117390733Y-82995000D01*
X117402064Y-83861000D02*
X116197936Y-83861000D01*
X117402064Y-85681000D02*
X116197936Y-85681000D01*
X121023936Y-85681000D02*
X122228064Y-85681000D01*
X121023936Y-83861000D02*
X122228064Y-83861000D01*
X115786000Y-78465267D02*
X115786000Y-78122733D01*
X114766000Y-78465267D02*
X114766000Y-78122733D01*
X150248733Y-82860000D02*
X150591267Y-82860000D01*
X150248733Y-81840000D02*
X150591267Y-81840000D01*
X158878733Y-89960000D02*
X159221267Y-89960000D01*
X158878733Y-88940000D02*
X159221267Y-88940000D01*
X158828733Y-91660000D02*
X159171267Y-91660000D01*
X158828733Y-90640000D02*
X159171267Y-90640000D01*
X151228733Y-90290000D02*
X151571267Y-90290000D01*
X151228733Y-89270000D02*
X151571267Y-89270000D01*
X139950000Y-74442733D02*
X139950000Y-74785267D01*
X140970000Y-74442733D02*
X140970000Y-74785267D01*
X144988733Y-98404000D02*
X145331267Y-98404000D01*
X144988733Y-97384000D02*
X145331267Y-97384000D01*
X144178733Y-71224000D02*
X144521267Y-71224000D01*
X144178733Y-70204000D02*
X144521267Y-70204000D01*
X141900000Y-84722733D02*
X141900000Y-85065267D01*
X142920000Y-84722733D02*
X142920000Y-85065267D01*
X144820000Y-53615267D02*
X144820000Y-53272733D01*
X143800000Y-53615267D02*
X143800000Y-53272733D01*
X146320000Y-53615267D02*
X146320000Y-53272733D01*
X145300000Y-53615267D02*
X145300000Y-53272733D01*
X147980000Y-65535267D02*
X147980000Y-65192733D01*
X146960000Y-65535267D02*
X146960000Y-65192733D01*
X104930000Y-52244000D02*
X102270000Y-52244000D01*
X104930000Y-57384000D02*
X104930000Y-52244000D01*
X102270000Y-57384000D02*
X102270000Y-52244000D01*
X104930000Y-57384000D02*
X102270000Y-57384000D01*
X104930000Y-58654000D02*
X104930000Y-59984000D01*
X104930000Y-59984000D02*
X103600000Y-59984000D01*
D10*
X133340000Y-91150000D02*
X133340000Y-98960000D01*
X143500000Y-91150000D02*
X133340000Y-91150000D01*
X143500000Y-98960000D02*
X143500000Y-91150000D01*
X120637000Y-91150000D02*
X120637000Y-98960000D01*
X130797000Y-91150000D02*
X120637000Y-91150000D01*
X130797000Y-98960000D02*
X130797000Y-91150000D01*
X107934000Y-91150000D02*
X107934000Y-98960000D01*
X118094000Y-91150000D02*
X107934000Y-91150000D01*
X118094000Y-98960000D02*
X118094000Y-91150000D01*
X112153000Y-59595000D02*
X112378000Y-59595000D01*
X112153000Y-54945000D02*
X112478000Y-54945000D01*
X122103000Y-54945000D02*
X121778000Y-54945000D01*
X122103000Y-59595000D02*
X121778000Y-59595000D01*
X112153000Y-59595000D02*
X112153000Y-54945000D01*
X122103000Y-59595000D02*
X122103000Y-54945000D01*
X112378000Y-59595000D02*
X112378000Y-60670000D01*
D14*
X140281000Y-88744000D02*
X140281000Y-87941530D01*
X140281000Y-87326470D02*
X140281000Y-86524000D01*
X139076000Y-88744000D02*
X140281000Y-88744000D01*
X139076000Y-86524000D02*
X140281000Y-86524000D01*
X139076000Y-88744000D02*
X139076000Y-88197471D01*
X139076000Y-87070529D02*
X139076000Y-86524000D01*
X138316000Y-88744000D02*
X137556000Y-88744000D01*
X137556000Y-88744000D02*
X137556000Y-87634000D01*
X117375000Y-80750000D02*
X116575000Y-79950000D01*
X116575000Y-79950000D02*
X116575000Y-71710000D01*
X116575000Y-71710000D02*
X122285000Y-71710000D01*
X122285000Y-71710000D02*
X122285000Y-80750000D01*
X122285000Y-80750000D02*
X117375000Y-80750000D01*
D15*
X148537261Y-84048001D02*
X148318001Y-84048001D01*
X151502739Y-87451999D02*
X151721999Y-87451999D01*
X148318001Y-87451999D02*
X148537261Y-87451999D01*
X148318001Y-84048001D02*
X148318001Y-87451999D01*
X151721999Y-84048001D02*
X151502739Y-84048001D01*
X151721999Y-87451999D02*
X151721999Y-84048001D01*
D14*
X150170000Y-66674000D02*
X151970000Y-66674000D01*
X151970000Y-63454000D02*
X149520000Y-63454000D01*
D10*
X123980000Y-72480000D02*
X123980000Y-79980000D01*
X123980000Y-79980000D02*
X132480000Y-79980000D01*
X132480000Y-79980000D02*
X132480000Y-72480000D01*
X132480000Y-72480000D02*
X123980000Y-72480000D01*
D14*
X152320000Y-105800000D02*
X147220000Y-105800000D01*
X147220000Y-105800000D02*
X147220000Y-94000000D01*
X147220000Y-94000000D02*
X148420000Y-94000000D01*
X148420000Y-94000000D02*
X148420000Y-98500000D01*
X148420000Y-98500000D02*
X152320000Y-98500000D01*
X152320000Y-105800000D02*
X157420000Y-105800000D01*
X157420000Y-105800000D02*
X157420000Y-94000000D01*
X157420000Y-94000000D02*
X156220000Y-94000000D01*
X156220000Y-94000000D02*
X156220000Y-98500000D01*
X156220000Y-98500000D02*
X152320000Y-98500000D01*
X149820000Y-94950000D02*
X149520000Y-94350000D01*
X149520000Y-94350000D02*
X150120000Y-94350000D01*
X150120000Y-94350000D02*
X149820000Y-94950000D01*
X136360000Y-89144000D02*
X136360000Y-91144000D01*
X136360000Y-91144000D02*
X140210000Y-91144000D01*
X136360000Y-89144000D02*
X140210000Y-89144000D01*
X125565000Y-80160000D02*
X125565000Y-82340000D01*
X125565000Y-86760000D02*
X125565000Y-84580000D01*
X132165000Y-80920000D02*
X132165000Y-82340000D01*
X132165000Y-86000000D02*
X132165000Y-84580000D01*
X125565000Y-80160000D02*
X131405000Y-80160000D01*
X131405000Y-80160000D02*
X132165000Y-80920000D01*
X132165000Y-86000000D02*
X131405000Y-86760000D01*
X131405000Y-86760000D02*
X125565000Y-86760000D01*
X111640000Y-57058733D02*
X111640000Y-57401267D01*
X110620000Y-57058733D02*
X110620000Y-57401267D01*
X109571267Y-51444000D02*
X109228733Y-51444000D01*
X109571267Y-52464000D02*
X109228733Y-52464000D01*
X162376000Y-64329000D02*
X159916000Y-64329000D01*
X159916000Y-64329000D02*
X159916000Y-65799000D01*
X159916000Y-65799000D02*
X162376000Y-65799000D01*
X108105000Y-83780000D02*
X108105000Y-81120000D01*
X102965000Y-83780000D02*
X108105000Y-83780000D01*
X102965000Y-81120000D02*
X108105000Y-81120000D01*
X102965000Y-83780000D02*
X102965000Y-81120000D01*
X101695000Y-83780000D02*
X100365000Y-83780000D01*
X100365000Y-83780000D02*
X100365000Y-82450000D01*
X108105000Y-86320000D02*
X108105000Y-83660000D01*
X102965000Y-86320000D02*
X108105000Y-86320000D01*
X102965000Y-83660000D02*
X108105000Y-83660000D01*
X102965000Y-86320000D02*
X102965000Y-83660000D01*
X101695000Y-86320000D02*
X100365000Y-86320000D01*
X100365000Y-86320000D02*
X100365000Y-84990000D01*
X100375000Y-88860000D02*
X100375000Y-87530000D01*
X101705000Y-88860000D02*
X100375000Y-88860000D01*
X102975000Y-88860000D02*
X102975000Y-86200000D01*
X102975000Y-86200000D02*
X108115000Y-86200000D01*
X102975000Y-88860000D02*
X108115000Y-88860000D01*
X108115000Y-88860000D02*
X108115000Y-86200000D01*
X100375000Y-91400000D02*
X100375000Y-90070000D01*
X101705000Y-91400000D02*
X100375000Y-91400000D01*
X102975000Y-91400000D02*
X102975000Y-88740000D01*
X102975000Y-88740000D02*
X108115000Y-88740000D01*
X102975000Y-91400000D02*
X108115000Y-91400000D01*
X108115000Y-91400000D02*
X108115000Y-88740000D01*
X110040000Y-57414000D02*
X110040000Y-58814000D01*
X109340000Y-59514000D02*
X108740000Y-59514000D01*
X108040000Y-58814000D02*
X108040000Y-57414000D01*
X108740000Y-56714000D02*
X109340000Y-56714000D01*
X109340000Y-56714000D02*
G75*
G02X110040000Y-57414000I0J-700000D01*
G01*
X108040000Y-57414000D02*
G75*
G02X108740000Y-56714000I700000J0D01*
G01*
X108740000Y-59514000D02*
G75*
G02X108040000Y-58814000I0J700000D01*
G01*
X110040000Y-58814000D02*
G75*
G02X109340000Y-59514000I-700000J0D01*
G01*
X114250000Y-64294000D02*
X114250000Y-63294000D01*
X110890000Y-64294000D02*
X110890000Y-63294000D01*
X123828000Y-63686000D02*
X123828000Y-66346000D01*
X141668000Y-63686000D02*
X123828000Y-63686000D01*
X141668000Y-66346000D02*
X123828000Y-66346000D01*
X141668000Y-63686000D02*
X141668000Y-66346000D01*
X142938000Y-63686000D02*
X144268000Y-63686000D01*
X144268000Y-63686000D02*
X144268000Y-65016000D01*
D13*
X148995000Y-95625000D02*
X148995000Y-97275000D01*
X150645000Y-97275000D01*
X150645000Y-95625000D01*
X148995000Y-95625000D01*
X153145000Y-96450000D02*
G75*
G03X153145000Y-96450000I-825000J0D01*
G01*
X155645000Y-96450000D02*
G75*
G03X155645000Y-96450000I-825000J0D01*
G01*
D10*
X148342380Y-60462571D02*
X147675714Y-60462571D01*
X147342380Y-60462571D02*
X147390000Y-60510190D01*
X147437619Y-60462571D01*
X147390000Y-60414952D01*
X147342380Y-60462571D01*
X147437619Y-60462571D01*
X147437619Y-60034000D02*
X147390000Y-59986380D01*
X147342380Y-59891142D01*
X147342380Y-59653047D01*
X147390000Y-59557809D01*
X147437619Y-59510190D01*
X147532857Y-59462571D01*
X147628095Y-59462571D01*
X147770952Y-59510190D01*
X148342380Y-60081619D01*
X148342380Y-59462571D01*
X148294761Y-58605428D02*
X148342380Y-58700666D01*
X148342380Y-58891142D01*
X148294761Y-58986380D01*
X148247142Y-59034000D01*
X148151904Y-59081619D01*
X147866190Y-59081619D01*
X147770952Y-59034000D01*
X147723333Y-58986380D01*
X147675714Y-58891142D01*
X147675714Y-58700666D01*
X147723333Y-58605428D01*
X148437619Y-58414952D02*
X148437619Y-57653047D01*
X148342380Y-56986380D02*
X147342380Y-56986380D01*
X148294761Y-56986380D02*
X148342380Y-57081619D01*
X148342380Y-57272095D01*
X148294761Y-57367333D01*
X148247142Y-57414952D01*
X148151904Y-57462571D01*
X147866190Y-57462571D01*
X147770952Y-57414952D01*
X147723333Y-57367333D01*
X147675714Y-57272095D01*
X147675714Y-57081619D01*
X147723333Y-56986380D01*
X148342380Y-56510190D02*
X147675714Y-56510190D01*
X147342380Y-56510190D02*
X147390000Y-56557809D01*
X147437619Y-56510190D01*
X147390000Y-56462571D01*
X147342380Y-56510190D01*
X147437619Y-56510190D01*
X148294761Y-56081619D02*
X148342380Y-55986380D01*
X148342380Y-55795904D01*
X148294761Y-55700666D01*
X148199523Y-55653047D01*
X148151904Y-55653047D01*
X148056666Y-55700666D01*
X148009047Y-55795904D01*
X148009047Y-55938761D01*
X147961428Y-56034000D01*
X147866190Y-56081619D01*
X147818571Y-56081619D01*
X147723333Y-56034000D01*
X147675714Y-55938761D01*
X147675714Y-55795904D01*
X147723333Y-55700666D01*
X147675714Y-55224476D02*
X148675714Y-55224476D01*
X147723333Y-55224476D02*
X147675714Y-55129238D01*
X147675714Y-54938761D01*
X147723333Y-54843523D01*
X147770952Y-54795904D01*
X147866190Y-54748285D01*
X148151904Y-54748285D01*
X148247142Y-54795904D01*
X148294761Y-54843523D01*
X148342380Y-54938761D01*
X148342380Y-55129238D01*
X148294761Y-55224476D01*
X148342380Y-54176857D02*
X148294761Y-54272095D01*
X148199523Y-54319714D01*
X147342380Y-54319714D01*
X148342380Y-53367333D02*
X147818571Y-53367333D01*
X147723333Y-53414952D01*
X147675714Y-53510190D01*
X147675714Y-53700666D01*
X147723333Y-53795904D01*
X148294761Y-53367333D02*
X148342380Y-53462571D01*
X148342380Y-53700666D01*
X148294761Y-53795904D01*
X148199523Y-53843523D01*
X148104285Y-53843523D01*
X148009047Y-53795904D01*
X147961428Y-53700666D01*
X147961428Y-53462571D01*
X147913809Y-53367333D01*
X147675714Y-52986380D02*
X148342380Y-52748285D01*
X147675714Y-52510190D02*
X148342380Y-52748285D01*
X148580476Y-52843523D01*
X148628095Y-52891142D01*
X148675714Y-52986380D01*
X149360000Y-53183523D02*
X149321904Y-53259714D01*
X149321904Y-53374000D01*
X149360000Y-53488285D01*
X149436190Y-53564476D01*
X149512380Y-53602571D01*
X149664761Y-53640666D01*
X149779047Y-53640666D01*
X149931428Y-53602571D01*
X150007619Y-53564476D01*
X150083809Y-53488285D01*
X150121904Y-53374000D01*
X150121904Y-53297809D01*
X150083809Y-53183523D01*
X150045714Y-53145428D01*
X149779047Y-53145428D01*
X149779047Y-53297809D01*
X150121904Y-52802571D02*
X149321904Y-52802571D01*
X150121904Y-52345428D01*
X149321904Y-52345428D01*
X150121904Y-51964476D02*
X149321904Y-51964476D01*
X149321904Y-51774000D01*
X149360000Y-51659714D01*
X149436190Y-51583523D01*
X149512380Y-51545428D01*
X149664761Y-51507333D01*
X149779047Y-51507333D01*
X149931428Y-51545428D01*
X150007619Y-51583523D01*
X150083809Y-51659714D01*
X150121904Y-51774000D01*
X150121904Y-51964476D01*
X149301904Y-56200666D02*
X150101904Y-55934000D01*
X149301904Y-55667333D01*
X150025714Y-54943523D02*
X150063809Y-54981619D01*
X150101904Y-55095904D01*
X150101904Y-55172095D01*
X150063809Y-55286380D01*
X149987619Y-55362571D01*
X149911428Y-55400666D01*
X149759047Y-55438761D01*
X149644761Y-55438761D01*
X149492380Y-55400666D01*
X149416190Y-55362571D01*
X149340000Y-55286380D01*
X149301904Y-55172095D01*
X149301904Y-55095904D01*
X149340000Y-54981619D01*
X149378095Y-54943523D01*
X150025714Y-54143523D02*
X150063809Y-54181619D01*
X150101904Y-54295904D01*
X150101904Y-54372095D01*
X150063809Y-54486380D01*
X149987619Y-54562571D01*
X149911428Y-54600666D01*
X149759047Y-54638761D01*
X149644761Y-54638761D01*
X149492380Y-54600666D01*
X149416190Y-54562571D01*
X149340000Y-54486380D01*
X149301904Y-54372095D01*
X149301904Y-54295904D01*
X149340000Y-54181619D01*
X149378095Y-54143523D01*
X150103809Y-58616380D02*
X150141904Y-58502095D01*
X150141904Y-58311619D01*
X150103809Y-58235428D01*
X150065714Y-58197333D01*
X149989523Y-58159238D01*
X149913333Y-58159238D01*
X149837142Y-58197333D01*
X149799047Y-58235428D01*
X149760952Y-58311619D01*
X149722857Y-58464000D01*
X149684761Y-58540190D01*
X149646666Y-58578285D01*
X149570476Y-58616380D01*
X149494285Y-58616380D01*
X149418095Y-58578285D01*
X149380000Y-58540190D01*
X149341904Y-58464000D01*
X149341904Y-58273523D01*
X149380000Y-58159238D01*
X150065714Y-57359238D02*
X150103809Y-57397333D01*
X150141904Y-57511619D01*
X150141904Y-57587809D01*
X150103809Y-57702095D01*
X150027619Y-57778285D01*
X149951428Y-57816380D01*
X149799047Y-57854476D01*
X149684761Y-57854476D01*
X149532380Y-57816380D01*
X149456190Y-57778285D01*
X149380000Y-57702095D01*
X149341904Y-57587809D01*
X149341904Y-57511619D01*
X149380000Y-57397333D01*
X149418095Y-57359238D01*
X150141904Y-56635428D02*
X150141904Y-57016380D01*
X149341904Y-57016380D01*
X150103809Y-61175428D02*
X150141904Y-61061142D01*
X150141904Y-60870666D01*
X150103809Y-60794476D01*
X150065714Y-60756380D01*
X149989523Y-60718285D01*
X149913333Y-60718285D01*
X149837142Y-60756380D01*
X149799047Y-60794476D01*
X149760952Y-60870666D01*
X149722857Y-61023047D01*
X149684761Y-61099238D01*
X149646666Y-61137333D01*
X149570476Y-61175428D01*
X149494285Y-61175428D01*
X149418095Y-61137333D01*
X149380000Y-61099238D01*
X149341904Y-61023047D01*
X149341904Y-60832571D01*
X149380000Y-60718285D01*
X150141904Y-60375428D02*
X149341904Y-60375428D01*
X149341904Y-60184952D01*
X149380000Y-60070666D01*
X149456190Y-59994476D01*
X149532380Y-59956380D01*
X149684761Y-59918285D01*
X149799047Y-59918285D01*
X149951428Y-59956380D01*
X150027619Y-59994476D01*
X150103809Y-60070666D01*
X150141904Y-60184952D01*
X150141904Y-60375428D01*
X149913333Y-59613523D02*
X149913333Y-59232571D01*
X150141904Y-59689714D02*
X149341904Y-59423047D01*
X150141904Y-59156380D01*
X137040000Y-83100666D02*
X137373333Y-83100666D01*
X136973333Y-83300666D02*
X137206666Y-82600666D01*
X137440000Y-83300666D01*
X137673333Y-83300666D02*
X137673333Y-82600666D01*
X137940000Y-82600666D01*
X138006666Y-82634000D01*
X138040000Y-82667333D01*
X138073333Y-82734000D01*
X138073333Y-82834000D01*
X138040000Y-82900666D01*
X138006666Y-82934000D01*
X137940000Y-82967333D01*
X137673333Y-82967333D01*
X138406666Y-83300666D02*
X138540000Y-83300666D01*
X138606666Y-83267333D01*
X138640000Y-83234000D01*
X138706666Y-83134000D01*
X138740000Y-83000666D01*
X138740000Y-82734000D01*
X138706666Y-82667333D01*
X138673333Y-82634000D01*
X138606666Y-82600666D01*
X138473333Y-82600666D01*
X138406666Y-82634000D01*
X138373333Y-82667333D01*
X138340000Y-82734000D01*
X138340000Y-82900666D01*
X138373333Y-82967333D01*
X138406666Y-83000666D01*
X138473333Y-83034000D01*
X138606666Y-83034000D01*
X138673333Y-83000666D01*
X138706666Y-82967333D01*
X138740000Y-82900666D01*
X139006666Y-82667333D02*
X139040000Y-82634000D01*
X139106666Y-82600666D01*
X139273333Y-82600666D01*
X139340000Y-82634000D01*
X139373333Y-82667333D01*
X139406666Y-82734000D01*
X139406666Y-82800666D01*
X139373333Y-82900666D01*
X138973333Y-83300666D01*
X139406666Y-83300666D01*
X140073333Y-83300666D02*
X139673333Y-83300666D01*
X139873333Y-83300666D02*
X139873333Y-82600666D01*
X139806666Y-82700666D01*
X139740000Y-82767333D01*
X139673333Y-82800666D01*
X140740000Y-83300666D02*
X140340000Y-83300666D01*
X140540000Y-83300666D02*
X140540000Y-82600666D01*
X140473333Y-82700666D01*
X140406666Y-82767333D01*
X140340000Y-82800666D01*
X141383333Y-76480666D02*
X141383333Y-75780666D01*
X141616666Y-76280666D01*
X141850000Y-75780666D01*
X141850000Y-76480666D01*
X142583333Y-76414000D02*
X142550000Y-76447333D01*
X142450000Y-76480666D01*
X142383333Y-76480666D01*
X142283333Y-76447333D01*
X142216666Y-76380666D01*
X142183333Y-76314000D01*
X142150000Y-76180666D01*
X142150000Y-76080666D01*
X142183333Y-75947333D01*
X142216666Y-75880666D01*
X142283333Y-75814000D01*
X142383333Y-75780666D01*
X142450000Y-75780666D01*
X142550000Y-75814000D01*
X142583333Y-75847333D01*
X142883333Y-76480666D02*
X142883333Y-75780666D01*
X143150000Y-75780666D01*
X143216666Y-75814000D01*
X143250000Y-75847333D01*
X143283333Y-75914000D01*
X143283333Y-76014000D01*
X143250000Y-76080666D01*
X143216666Y-76114000D01*
X143150000Y-76147333D01*
X142883333Y-76147333D01*
X143516666Y-75780666D02*
X143983333Y-75780666D01*
X143683333Y-76480666D01*
X144183333Y-75780666D02*
X144616666Y-75780666D01*
X144383333Y-76047333D01*
X144483333Y-76047333D01*
X144550000Y-76080666D01*
X144583333Y-76114000D01*
X144616666Y-76180666D01*
X144616666Y-76347333D01*
X144583333Y-76414000D01*
X144550000Y-76447333D01*
X144483333Y-76480666D01*
X144283333Y-76480666D01*
X144216666Y-76447333D01*
X144183333Y-76414000D01*
X144883333Y-75847333D02*
X144916666Y-75814000D01*
X144983333Y-75780666D01*
X145150000Y-75780666D01*
X145216666Y-75814000D01*
X145250000Y-75847333D01*
X145283333Y-75914000D01*
X145283333Y-75980666D01*
X145250000Y-76080666D01*
X144850000Y-76480666D01*
X145283333Y-76480666D01*
X145950000Y-76480666D02*
X145550000Y-76480666D01*
X145750000Y-76480666D02*
X145750000Y-75780666D01*
X145683333Y-75880666D01*
X145616666Y-75947333D01*
X145550000Y-75980666D01*
X146183333Y-75780666D02*
X146616666Y-75780666D01*
X146383333Y-76047333D01*
X146483333Y-76047333D01*
X146550000Y-76080666D01*
X146583333Y-76114000D01*
X146616666Y-76180666D01*
X146616666Y-76347333D01*
X146583333Y-76414000D01*
X146550000Y-76447333D01*
X146483333Y-76480666D01*
X146283333Y-76480666D01*
X146216666Y-76447333D01*
X146183333Y-76414000D01*
X146816666Y-75780666D02*
X147216666Y-75780666D01*
X147016666Y-76480666D02*
X147016666Y-75780666D01*
X158153333Y-60264000D02*
X158086666Y-60230666D01*
X157986666Y-60230666D01*
X157886666Y-60264000D01*
X157820000Y-60330666D01*
X157786666Y-60397333D01*
X157753333Y-60530666D01*
X157753333Y-60630666D01*
X157786666Y-60764000D01*
X157820000Y-60830666D01*
X157886666Y-60897333D01*
X157986666Y-60930666D01*
X158053333Y-60930666D01*
X158153333Y-60897333D01*
X158186666Y-60864000D01*
X158186666Y-60630666D01*
X158053333Y-60630666D01*
X158486666Y-60930666D02*
X158486666Y-60230666D01*
X158753333Y-60230666D01*
X158820000Y-60264000D01*
X158853333Y-60297333D01*
X158886666Y-60364000D01*
X158886666Y-60464000D01*
X158853333Y-60530666D01*
X158820000Y-60564000D01*
X158753333Y-60597333D01*
X158486666Y-60597333D01*
X159186666Y-60930666D02*
X159186666Y-60230666D01*
X159653333Y-60230666D02*
X159786666Y-60230666D01*
X159853333Y-60264000D01*
X159920000Y-60330666D01*
X159953333Y-60464000D01*
X159953333Y-60697333D01*
X159920000Y-60830666D01*
X159853333Y-60897333D01*
X159786666Y-60930666D01*
X159653333Y-60930666D01*
X159586666Y-60897333D01*
X159520000Y-60830666D01*
X159486666Y-60697333D01*
X159486666Y-60464000D01*
X159520000Y-60330666D01*
X159586666Y-60264000D01*
X159653333Y-60230666D01*
X160620000Y-60930666D02*
X160220000Y-60930666D01*
X160420000Y-60930666D02*
X160420000Y-60230666D01*
X160353333Y-60330666D01*
X160286666Y-60397333D01*
X160220000Y-60430666D01*
X160853333Y-60230666D02*
X161286666Y-60230666D01*
X161053333Y-60497333D01*
X161153333Y-60497333D01*
X161220000Y-60530666D01*
X161253333Y-60564000D01*
X161286666Y-60630666D01*
X161286666Y-60797333D01*
X161253333Y-60864000D01*
X161220000Y-60897333D01*
X161153333Y-60930666D01*
X160953333Y-60930666D01*
X160886666Y-60897333D01*
X160853333Y-60864000D01*
X158106666Y-56638761D02*
X158249523Y-56686380D01*
X158487619Y-56686380D01*
X158582857Y-56638761D01*
X158630476Y-56591142D01*
X158678095Y-56495904D01*
X158678095Y-56400666D01*
X158630476Y-56305428D01*
X158582857Y-56257809D01*
X158487619Y-56210190D01*
X158297142Y-56162571D01*
X158201904Y-56114952D01*
X158154285Y-56067333D01*
X158106666Y-55972095D01*
X158106666Y-55876857D01*
X158154285Y-55781619D01*
X158201904Y-55734000D01*
X158297142Y-55686380D01*
X158535238Y-55686380D01*
X158678095Y-55734000D01*
X159011428Y-55686380D02*
X159249523Y-56686380D01*
X159440000Y-55972095D01*
X159630476Y-56686380D01*
X159868571Y-55686380D01*
X160773333Y-56686380D02*
X160201904Y-56686380D01*
X160487619Y-56686380D02*
X160487619Y-55686380D01*
X160392380Y-55829238D01*
X160297142Y-55924476D01*
X160201904Y-55972095D01*
X110073333Y-85120666D02*
X110506666Y-85120666D01*
X110273333Y-85387333D01*
X110373333Y-85387333D01*
X110440000Y-85420666D01*
X110473333Y-85454000D01*
X110506666Y-85520666D01*
X110506666Y-85687333D01*
X110473333Y-85754000D01*
X110440000Y-85787333D01*
X110373333Y-85820666D01*
X110173333Y-85820666D01*
X110106666Y-85787333D01*
X110073333Y-85754000D01*
X110940000Y-85120666D02*
X111006666Y-85120666D01*
X111073333Y-85154000D01*
X111106666Y-85187333D01*
X111140000Y-85254000D01*
X111173333Y-85387333D01*
X111173333Y-85554000D01*
X111140000Y-85687333D01*
X111106666Y-85754000D01*
X111073333Y-85787333D01*
X111006666Y-85820666D01*
X110940000Y-85820666D01*
X110873333Y-85787333D01*
X110840000Y-85754000D01*
X110806666Y-85687333D01*
X110773333Y-85554000D01*
X110773333Y-85387333D01*
X110806666Y-85254000D01*
X110840000Y-85187333D01*
X110873333Y-85154000D01*
X110940000Y-85120666D01*
X111373333Y-85120666D02*
X111606666Y-85820666D01*
X111840000Y-85120666D01*
X112973333Y-85820666D02*
X112573333Y-85820666D01*
X112773333Y-85820666D02*
X112773333Y-85120666D01*
X112706666Y-85220666D01*
X112640000Y-85287333D01*
X112573333Y-85320666D01*
X113240000Y-85620666D02*
X113573333Y-85620666D01*
X113173333Y-85820666D02*
X113406666Y-85120666D01*
X113640000Y-85820666D01*
X126266666Y-54647333D02*
X126266666Y-55047333D01*
X126266666Y-54847333D02*
X125566666Y-54847333D01*
X125666666Y-54914000D01*
X125733333Y-54980666D01*
X125766666Y-55047333D01*
X125566666Y-54214000D02*
X125566666Y-54147333D01*
X125600000Y-54080666D01*
X125633333Y-54047333D01*
X125700000Y-54014000D01*
X125833333Y-53980666D01*
X126000000Y-53980666D01*
X126133333Y-54014000D01*
X126200000Y-54047333D01*
X126233333Y-54080666D01*
X126266666Y-54147333D01*
X126266666Y-54214000D01*
X126233333Y-54280666D01*
X126200000Y-54314000D01*
X126133333Y-54347333D01*
X126000000Y-54380666D01*
X125833333Y-54380666D01*
X125700000Y-54347333D01*
X125633333Y-54314000D01*
X125600000Y-54280666D01*
X125566666Y-54214000D01*
X126266666Y-53680666D02*
X125566666Y-53680666D01*
X126266666Y-53280666D02*
X125866666Y-53580666D01*
X125566666Y-53280666D02*
X125966666Y-53680666D01*
X148596666Y-79504000D02*
X148363333Y-79504000D01*
X148363333Y-79870666D02*
X148363333Y-79170666D01*
X148696666Y-79170666D01*
X149196666Y-79504000D02*
X149296666Y-79537333D01*
X149330000Y-79570666D01*
X149363333Y-79637333D01*
X149363333Y-79737333D01*
X149330000Y-79804000D01*
X149296666Y-79837333D01*
X149230000Y-79870666D01*
X148963333Y-79870666D01*
X148963333Y-79170666D01*
X149196666Y-79170666D01*
X149263333Y-79204000D01*
X149296666Y-79237333D01*
X149330000Y-79304000D01*
X149330000Y-79370666D01*
X149296666Y-79437333D01*
X149263333Y-79470666D01*
X149196666Y-79504000D01*
X148963333Y-79504000D01*
X150030000Y-79870666D02*
X149630000Y-79870666D01*
X149830000Y-79870666D02*
X149830000Y-79170666D01*
X149763333Y-79270666D01*
X149696666Y-79337333D01*
X149630000Y-79370666D01*
D18*
X155119504Y-69495723D02*
X155119504Y-70210866D01*
X155071828Y-70353895D01*
X154976476Y-70449247D01*
X154833447Y-70496923D01*
X154738095Y-70496923D01*
X156120704Y-70496923D02*
X155548590Y-70496923D01*
X155834647Y-70496923D02*
X155834647Y-69495723D01*
X155739295Y-69638752D01*
X155643942Y-69734104D01*
X155548590Y-69781780D01*
X156740495Y-69495723D02*
X156835847Y-69495723D01*
X156931200Y-69543400D01*
X156978876Y-69591076D01*
X157026552Y-69686428D01*
X157074228Y-69877133D01*
X157074228Y-70115514D01*
X157026552Y-70306219D01*
X156978876Y-70401571D01*
X156931200Y-70449247D01*
X156835847Y-70496923D01*
X156740495Y-70496923D01*
X156645142Y-70449247D01*
X156597466Y-70401571D01*
X156549790Y-70306219D01*
X156502114Y-70115514D01*
X156502114Y-69877133D01*
X156549790Y-69686428D01*
X156597466Y-69591076D01*
X156645142Y-69543400D01*
X156740495Y-69495723D01*
X156352457Y-79778917D02*
X155352287Y-79778917D01*
X155352287Y-79397900D01*
X155399915Y-79302645D01*
X155447542Y-79255018D01*
X155542796Y-79207391D01*
X155685677Y-79207391D01*
X155780932Y-79255018D01*
X155828559Y-79302645D01*
X155876186Y-79397900D01*
X155876186Y-79778917D01*
X155352287Y-78492984D02*
X156066695Y-78492984D01*
X156209576Y-78540611D01*
X156304830Y-78635865D01*
X156352457Y-78778747D01*
X156352457Y-78874001D01*
X155971440Y-78016712D02*
X155971440Y-77254678D01*
X155352287Y-76587898D02*
X155352287Y-76492644D01*
X155399915Y-76397390D01*
X155447542Y-76349762D01*
X155542796Y-76302135D01*
X155733305Y-76254508D01*
X155971440Y-76254508D01*
X156161949Y-76302135D01*
X156257203Y-76349762D01*
X156304830Y-76397390D01*
X156352457Y-76492644D01*
X156352457Y-76587898D01*
X156304830Y-76683152D01*
X156257203Y-76730780D01*
X156161949Y-76778407D01*
X155971440Y-76826034D01*
X155733305Y-76826034D01*
X155542796Y-76778407D01*
X155447542Y-76730780D01*
X155399915Y-76683152D01*
X155352287Y-76587898D01*
X155352287Y-75921118D02*
X155352287Y-75301965D01*
X155733305Y-75635355D01*
X155733305Y-75492474D01*
X155780932Y-75397220D01*
X155828559Y-75349592D01*
X155923813Y-75301965D01*
X156161949Y-75301965D01*
X156257203Y-75349592D01*
X156304830Y-75397220D01*
X156352457Y-75492474D01*
X156352457Y-75778237D01*
X156304830Y-75873491D01*
X156257203Y-75921118D01*
X155780932Y-74730440D02*
X155733305Y-74825694D01*
X155685677Y-74873321D01*
X155590423Y-74920948D01*
X155542796Y-74920948D01*
X155447542Y-74873321D01*
X155399915Y-74825694D01*
X155352287Y-74730440D01*
X155352287Y-74539931D01*
X155399915Y-74444677D01*
X155447542Y-74397050D01*
X155542796Y-74349422D01*
X155590423Y-74349422D01*
X155685677Y-74397050D01*
X155733305Y-74444677D01*
X155780932Y-74539931D01*
X155780932Y-74730440D01*
X155828559Y-74825694D01*
X155876186Y-74873321D01*
X155971440Y-74920948D01*
X156161949Y-74920948D01*
X156257203Y-74873321D01*
X156304830Y-74825694D01*
X156352457Y-74730440D01*
X156352457Y-74539931D01*
X156304830Y-74444677D01*
X156257203Y-74397050D01*
X156161949Y-74349422D01*
X155971440Y-74349422D01*
X155876186Y-74397050D01*
X155828559Y-74444677D01*
X155780932Y-74539931D01*
X155828559Y-73587388D02*
X155876186Y-73444507D01*
X155923813Y-73396880D01*
X156019067Y-73349252D01*
X156161949Y-73349252D01*
X156257203Y-73396880D01*
X156304830Y-73444507D01*
X156352457Y-73539761D01*
X156352457Y-73920778D01*
X155352287Y-73920778D01*
X155352287Y-73587388D01*
X155399915Y-73492134D01*
X155447542Y-73444507D01*
X155542796Y-73396880D01*
X155638050Y-73396880D01*
X155733305Y-73444507D01*
X155780932Y-73492134D01*
X155828559Y-73587388D01*
X155828559Y-73920778D01*
X156352457Y-72920608D02*
X155352287Y-72920608D01*
X155828559Y-72920608D02*
X155828559Y-72349082D01*
X156352457Y-72349082D02*
X155352287Y-72349082D01*
D10*
X112970000Y-69950666D02*
X112570000Y-69950666D01*
X112770000Y-69950666D02*
X112770000Y-69250666D01*
X112703333Y-69350666D01*
X112636666Y-69417333D01*
X112570000Y-69450666D01*
X113636666Y-69950666D02*
X113236666Y-69950666D01*
X113436666Y-69950666D02*
X113436666Y-69250666D01*
X113370000Y-69350666D01*
X113303333Y-69417333D01*
X113236666Y-69450666D01*
X114070000Y-69250666D02*
X114136666Y-69250666D01*
X114203333Y-69284000D01*
X114236666Y-69317333D01*
X114270000Y-69384000D01*
X114303333Y-69517333D01*
X114303333Y-69684000D01*
X114270000Y-69817333D01*
X114236666Y-69884000D01*
X114203333Y-69917333D01*
X114136666Y-69950666D01*
X114070000Y-69950666D01*
X114003333Y-69917333D01*
X113970000Y-69884000D01*
X113936666Y-69817333D01*
X113903333Y-69684000D01*
X113903333Y-69517333D01*
X113936666Y-69384000D01*
X113970000Y-69317333D01*
X114003333Y-69284000D01*
X114070000Y-69250666D01*
X114603333Y-69950666D02*
X114603333Y-69250666D01*
X114670000Y-69684000D02*
X114870000Y-69950666D01*
X114870000Y-69484000D02*
X114603333Y-69750666D01*
X113773333Y-74020666D02*
X113373333Y-74020666D01*
X113573333Y-74020666D02*
X113573333Y-73320666D01*
X113506666Y-73420666D01*
X113440000Y-73487333D01*
X113373333Y-73520666D01*
X114406666Y-73320666D02*
X114073333Y-73320666D01*
X114040000Y-73654000D01*
X114073333Y-73620666D01*
X114140000Y-73587333D01*
X114306666Y-73587333D01*
X114373333Y-73620666D01*
X114406666Y-73654000D01*
X114440000Y-73720666D01*
X114440000Y-73887333D01*
X114406666Y-73954000D01*
X114373333Y-73987333D01*
X114306666Y-74020666D01*
X114140000Y-74020666D01*
X114073333Y-73987333D01*
X114040000Y-73954000D01*
X114740000Y-74020666D02*
X114740000Y-73320666D01*
X114806666Y-73754000D02*
X115006666Y-74020666D01*
X115006666Y-73554000D02*
X114740000Y-73820666D01*
X116450000Y-67320666D02*
X116450000Y-66620666D01*
X116616666Y-66620666D01*
X116716666Y-66654000D01*
X116783333Y-66720666D01*
X116816666Y-66787333D01*
X116850000Y-66920666D01*
X116850000Y-67020666D01*
X116816666Y-67154000D01*
X116783333Y-67220666D01*
X116716666Y-67287333D01*
X116616666Y-67320666D01*
X116450000Y-67320666D01*
X117150000Y-67320666D02*
X117150000Y-66620666D01*
X117550000Y-67320666D01*
X117550000Y-66620666D01*
X118116666Y-66954000D02*
X117883333Y-66954000D01*
X117883333Y-67320666D02*
X117883333Y-66620666D01*
X118216666Y-66620666D01*
X122076666Y-70407333D02*
X122076666Y-70340666D01*
X122110000Y-70274000D01*
X122143333Y-70240666D01*
X122210000Y-70207333D01*
X122343333Y-70174000D01*
X122510000Y-70174000D01*
X122643333Y-70207333D01*
X122710000Y-70240666D01*
X122743333Y-70274000D01*
X122776666Y-70340666D01*
X122776666Y-70407333D01*
X122743333Y-70474000D01*
X122710000Y-70507333D01*
X122643333Y-70540666D01*
X122510000Y-70574000D01*
X122343333Y-70574000D01*
X122210000Y-70540666D01*
X122143333Y-70507333D01*
X122110000Y-70474000D01*
X122076666Y-70407333D01*
X122776666Y-69474000D02*
X122443333Y-69707333D01*
X122776666Y-69874000D02*
X122076666Y-69874000D01*
X122076666Y-69607333D01*
X122110000Y-69540666D01*
X122143333Y-69507333D01*
X122210000Y-69474000D01*
X122310000Y-69474000D01*
X122376666Y-69507333D01*
X122410000Y-69540666D01*
X122443333Y-69607333D01*
X122443333Y-69874000D01*
X149656666Y-91274666D02*
X149656666Y-91674666D01*
X149656666Y-91474666D02*
X148956666Y-91474666D01*
X149056666Y-91541333D01*
X149123333Y-91608000D01*
X149156666Y-91674666D01*
X148956666Y-90641333D02*
X148956666Y-90974666D01*
X149290000Y-91008000D01*
X149256666Y-90974666D01*
X149223333Y-90908000D01*
X149223333Y-90741333D01*
X149256666Y-90674666D01*
X149290000Y-90641333D01*
X149356666Y-90608000D01*
X149523333Y-90608000D01*
X149590000Y-90641333D01*
X149623333Y-90674666D01*
X149656666Y-90741333D01*
X149656666Y-90908000D01*
X149623333Y-90974666D01*
X149590000Y-91008000D01*
X148956666Y-90174666D02*
X148956666Y-90108000D01*
X148990000Y-90041333D01*
X149023333Y-90008000D01*
X149090000Y-89974666D01*
X149223333Y-89941333D01*
X149390000Y-89941333D01*
X149523333Y-89974666D01*
X149590000Y-90008000D01*
X149623333Y-90041333D01*
X149656666Y-90108000D01*
X149656666Y-90174666D01*
X149623333Y-90241333D01*
X149590000Y-90274666D01*
X149523333Y-90308000D01*
X149390000Y-90341333D01*
X149223333Y-90341333D01*
X149090000Y-90308000D01*
X149023333Y-90274666D01*
X148990000Y-90241333D01*
X148956666Y-90174666D01*
X150833333Y-93060666D02*
X150433333Y-93060666D01*
X150633333Y-93060666D02*
X150633333Y-92360666D01*
X150566666Y-92460666D01*
X150500000Y-92527333D01*
X150433333Y-92560666D01*
X151466666Y-92360666D02*
X151133333Y-92360666D01*
X151100000Y-92694000D01*
X151133333Y-92660666D01*
X151200000Y-92627333D01*
X151366666Y-92627333D01*
X151433333Y-92660666D01*
X151466666Y-92694000D01*
X151500000Y-92760666D01*
X151500000Y-92927333D01*
X151466666Y-92994000D01*
X151433333Y-93027333D01*
X151366666Y-93060666D01*
X151200000Y-93060666D01*
X151133333Y-93027333D01*
X151100000Y-92994000D01*
X151933333Y-92360666D02*
X152000000Y-92360666D01*
X152066666Y-92394000D01*
X152100000Y-92427333D01*
X152133333Y-92494000D01*
X152166666Y-92627333D01*
X152166666Y-92794000D01*
X152133333Y-92927333D01*
X152100000Y-92994000D01*
X152066666Y-93027333D01*
X152000000Y-93060666D01*
X151933333Y-93060666D01*
X151866666Y-93027333D01*
X151833333Y-92994000D01*
X151800000Y-92927333D01*
X151766666Y-92794000D01*
X151766666Y-92627333D01*
X151800000Y-92494000D01*
X151833333Y-92427333D01*
X151866666Y-92394000D01*
X151933333Y-92360666D01*
X154723333Y-88540666D02*
X154323333Y-88540666D01*
X154523333Y-88540666D02*
X154523333Y-87840666D01*
X154456666Y-87940666D01*
X154390000Y-88007333D01*
X154323333Y-88040666D01*
X155356666Y-87840666D02*
X155023333Y-87840666D01*
X154990000Y-88174000D01*
X155023333Y-88140666D01*
X155090000Y-88107333D01*
X155256666Y-88107333D01*
X155323333Y-88140666D01*
X155356666Y-88174000D01*
X155390000Y-88240666D01*
X155390000Y-88407333D01*
X155356666Y-88474000D01*
X155323333Y-88507333D01*
X155256666Y-88540666D01*
X155090000Y-88540666D01*
X155023333Y-88507333D01*
X154990000Y-88474000D01*
X155823333Y-87840666D02*
X155890000Y-87840666D01*
X155956666Y-87874000D01*
X155990000Y-87907333D01*
X156023333Y-87974000D01*
X156056666Y-88107333D01*
X156056666Y-88274000D01*
X156023333Y-88407333D01*
X155990000Y-88474000D01*
X155956666Y-88507333D01*
X155890000Y-88540666D01*
X155823333Y-88540666D01*
X155756666Y-88507333D01*
X155723333Y-88474000D01*
X155690000Y-88407333D01*
X155656666Y-88274000D01*
X155656666Y-88107333D01*
X155690000Y-87974000D01*
X155723333Y-87907333D01*
X155756666Y-87874000D01*
X155823333Y-87840666D01*
X154323333Y-92257333D02*
X154356666Y-92224000D01*
X154423333Y-92190666D01*
X154590000Y-92190666D01*
X154656666Y-92224000D01*
X154690000Y-92257333D01*
X154723333Y-92324000D01*
X154723333Y-92390666D01*
X154690000Y-92490666D01*
X154290000Y-92890666D01*
X154723333Y-92890666D01*
X155323333Y-92424000D02*
X155323333Y-92890666D01*
X155156666Y-92157333D02*
X154990000Y-92657333D01*
X155423333Y-92657333D01*
X155823333Y-92190666D02*
X155890000Y-92190666D01*
X155956666Y-92224000D01*
X155990000Y-92257333D01*
X156023333Y-92324000D01*
X156056666Y-92457333D01*
X156056666Y-92624000D01*
X156023333Y-92757333D01*
X155990000Y-92824000D01*
X155956666Y-92857333D01*
X155890000Y-92890666D01*
X155823333Y-92890666D01*
X155756666Y-92857333D01*
X155723333Y-92824000D01*
X155690000Y-92757333D01*
X155656666Y-92624000D01*
X155656666Y-92457333D01*
X155690000Y-92324000D01*
X155723333Y-92257333D01*
X155756666Y-92224000D01*
X155823333Y-92190666D01*
X151326666Y-71040666D02*
X150926666Y-71040666D01*
X151126666Y-71040666D02*
X151126666Y-70340666D01*
X151060000Y-70440666D01*
X150993333Y-70507333D01*
X150926666Y-70540666D01*
X151626666Y-71040666D02*
X151626666Y-70340666D01*
X151693333Y-70774000D02*
X151893333Y-71040666D01*
X151893333Y-70574000D02*
X151626666Y-70840666D01*
X133953333Y-85760666D02*
X133920000Y-85727333D01*
X133886666Y-85660666D01*
X133886666Y-85494000D01*
X133920000Y-85427333D01*
X133953333Y-85394000D01*
X134020000Y-85360666D01*
X134086666Y-85360666D01*
X134186666Y-85394000D01*
X134586666Y-85794000D01*
X134586666Y-85360666D01*
X134586666Y-85060666D02*
X133886666Y-85060666D01*
X134320000Y-84994000D02*
X134586666Y-84794000D01*
X134120000Y-84794000D02*
X134386666Y-85060666D01*
X133886666Y-84560666D02*
X133886666Y-84094000D01*
X134586666Y-84394000D01*
X151306666Y-72924000D02*
X151306666Y-73390666D01*
X151140000Y-72657333D02*
X150973333Y-73157333D01*
X151406666Y-73157333D01*
X151606666Y-72690666D02*
X152073333Y-72690666D01*
X151773333Y-73390666D01*
X152473333Y-72690666D02*
X152540000Y-72690666D01*
X152606666Y-72724000D01*
X152640000Y-72757333D01*
X152673333Y-72824000D01*
X152706666Y-72957333D01*
X152706666Y-73124000D01*
X152673333Y-73257333D01*
X152640000Y-73324000D01*
X152606666Y-73357333D01*
X152540000Y-73390666D01*
X152473333Y-73390666D01*
X152406666Y-73357333D01*
X152373333Y-73324000D01*
X152340000Y-73257333D01*
X152306666Y-73124000D01*
X152306666Y-72957333D01*
X152340000Y-72824000D01*
X152373333Y-72757333D01*
X152406666Y-72724000D01*
X152473333Y-72690666D01*
X138456666Y-79184000D02*
X138456666Y-79650666D01*
X138290000Y-78917333D02*
X138123333Y-79417333D01*
X138556666Y-79417333D01*
X138756666Y-78950666D02*
X139223333Y-78950666D01*
X138923333Y-79650666D01*
X139623333Y-78950666D02*
X139690000Y-78950666D01*
X139756666Y-78984000D01*
X139790000Y-79017333D01*
X139823333Y-79084000D01*
X139856666Y-79217333D01*
X139856666Y-79384000D01*
X139823333Y-79517333D01*
X139790000Y-79584000D01*
X139756666Y-79617333D01*
X139690000Y-79650666D01*
X139623333Y-79650666D01*
X139556666Y-79617333D01*
X139523333Y-79584000D01*
X139490000Y-79517333D01*
X139456666Y-79384000D01*
X139456666Y-79217333D01*
X139490000Y-79084000D01*
X139523333Y-79017333D01*
X139556666Y-78984000D01*
X139623333Y-78950666D01*
X107996666Y-62017333D02*
X107996666Y-62417333D01*
X107996666Y-62217333D02*
X107296666Y-62217333D01*
X107396666Y-62284000D01*
X107463333Y-62350666D01*
X107496666Y-62417333D01*
X107296666Y-61584000D02*
X107296666Y-61517333D01*
X107330000Y-61450666D01*
X107363333Y-61417333D01*
X107430000Y-61384000D01*
X107563333Y-61350666D01*
X107730000Y-61350666D01*
X107863333Y-61384000D01*
X107930000Y-61417333D01*
X107963333Y-61450666D01*
X107996666Y-61517333D01*
X107996666Y-61584000D01*
X107963333Y-61650666D01*
X107930000Y-61684000D01*
X107863333Y-61717333D01*
X107730000Y-61750666D01*
X107563333Y-61750666D01*
X107430000Y-61717333D01*
X107363333Y-61684000D01*
X107330000Y-61650666D01*
X107296666Y-61584000D01*
X107996666Y-61050666D02*
X107296666Y-61050666D01*
X107996666Y-60650666D02*
X107596666Y-60950666D01*
X107296666Y-60650666D02*
X107696666Y-61050666D01*
X150220000Y-69660666D02*
X149820000Y-69660666D01*
X150020000Y-69660666D02*
X150020000Y-68960666D01*
X149953333Y-69060666D01*
X149886666Y-69127333D01*
X149820000Y-69160666D01*
X150653333Y-68960666D02*
X150720000Y-68960666D01*
X150786666Y-68994000D01*
X150820000Y-69027333D01*
X150853333Y-69094000D01*
X150886666Y-69227333D01*
X150886666Y-69394000D01*
X150853333Y-69527333D01*
X150820000Y-69594000D01*
X150786666Y-69627333D01*
X150720000Y-69660666D01*
X150653333Y-69660666D01*
X150586666Y-69627333D01*
X150553333Y-69594000D01*
X150520000Y-69527333D01*
X150486666Y-69394000D01*
X150486666Y-69227333D01*
X150520000Y-69094000D01*
X150553333Y-69027333D01*
X150586666Y-68994000D01*
X150653333Y-68960666D01*
X151320000Y-68960666D02*
X151386666Y-68960666D01*
X151453333Y-68994000D01*
X151486666Y-69027333D01*
X151520000Y-69094000D01*
X151553333Y-69227333D01*
X151553333Y-69394000D01*
X151520000Y-69527333D01*
X151486666Y-69594000D01*
X151453333Y-69627333D01*
X151386666Y-69660666D01*
X151320000Y-69660666D01*
X151253333Y-69627333D01*
X151220000Y-69594000D01*
X151186666Y-69527333D01*
X151153333Y-69394000D01*
X151153333Y-69227333D01*
X151186666Y-69094000D01*
X151220000Y-69027333D01*
X151253333Y-68994000D01*
X151320000Y-68960666D01*
X151853333Y-69660666D02*
X151853333Y-68960666D01*
X151920000Y-69394000D02*
X152120000Y-69660666D01*
X152120000Y-69194000D02*
X151853333Y-69460666D01*
X146450000Y-69077333D02*
X146483333Y-69044000D01*
X146550000Y-69010666D01*
X146716666Y-69010666D01*
X146783333Y-69044000D01*
X146816666Y-69077333D01*
X146850000Y-69144000D01*
X146850000Y-69210666D01*
X146816666Y-69310666D01*
X146416666Y-69710666D01*
X146850000Y-69710666D01*
X147283333Y-69010666D02*
X147350000Y-69010666D01*
X147416666Y-69044000D01*
X147450000Y-69077333D01*
X147483333Y-69144000D01*
X147516666Y-69277333D01*
X147516666Y-69444000D01*
X147483333Y-69577333D01*
X147450000Y-69644000D01*
X147416666Y-69677333D01*
X147350000Y-69710666D01*
X147283333Y-69710666D01*
X147216666Y-69677333D01*
X147183333Y-69644000D01*
X147150000Y-69577333D01*
X147116666Y-69444000D01*
X147116666Y-69277333D01*
X147150000Y-69144000D01*
X147183333Y-69077333D01*
X147216666Y-69044000D01*
X147283333Y-69010666D01*
X147950000Y-69010666D02*
X148016666Y-69010666D01*
X148083333Y-69044000D01*
X148116666Y-69077333D01*
X148150000Y-69144000D01*
X148183333Y-69277333D01*
X148183333Y-69444000D01*
X148150000Y-69577333D01*
X148116666Y-69644000D01*
X148083333Y-69677333D01*
X148016666Y-69710666D01*
X147950000Y-69710666D01*
X147883333Y-69677333D01*
X147850000Y-69644000D01*
X147816666Y-69577333D01*
X147783333Y-69444000D01*
X147783333Y-69277333D01*
X147816666Y-69144000D01*
X147850000Y-69077333D01*
X147883333Y-69044000D01*
X147950000Y-69010666D01*
X148483333Y-69710666D02*
X148483333Y-69010666D01*
X148550000Y-69444000D02*
X148750000Y-69710666D01*
X148750000Y-69244000D02*
X148483333Y-69510666D01*
X132646666Y-53847333D02*
X132646666Y-53414000D01*
X132913333Y-53647333D01*
X132913333Y-53547333D01*
X132946666Y-53480666D01*
X132980000Y-53447333D01*
X133046666Y-53414000D01*
X133213333Y-53414000D01*
X133280000Y-53447333D01*
X133313333Y-53480666D01*
X133346666Y-53547333D01*
X133346666Y-53747333D01*
X133313333Y-53814000D01*
X133280000Y-53847333D01*
X133280000Y-53114000D02*
X133313333Y-53080666D01*
X133346666Y-53114000D01*
X133313333Y-53147333D01*
X133280000Y-53114000D01*
X133346666Y-53114000D01*
X133346666Y-52747333D02*
X133346666Y-52614000D01*
X133313333Y-52547333D01*
X133280000Y-52514000D01*
X133180000Y-52447333D01*
X133046666Y-52414000D01*
X132780000Y-52414000D01*
X132713333Y-52447333D01*
X132680000Y-52480666D01*
X132646666Y-52547333D01*
X132646666Y-52680666D01*
X132680000Y-52747333D01*
X132713333Y-52780666D01*
X132780000Y-52814000D01*
X132946666Y-52814000D01*
X133013333Y-52780666D01*
X133046666Y-52747333D01*
X133080000Y-52680666D01*
X133080000Y-52547333D01*
X133046666Y-52480666D01*
X133013333Y-52447333D01*
X132946666Y-52414000D01*
X133346666Y-52114000D02*
X132646666Y-52114000D01*
X133346666Y-51714000D02*
X132946666Y-52014000D01*
X132646666Y-51714000D02*
X133046666Y-52114000D01*
X128606666Y-53847333D02*
X128606666Y-53414000D01*
X128873333Y-53647333D01*
X128873333Y-53547333D01*
X128906666Y-53480666D01*
X128940000Y-53447333D01*
X129006666Y-53414000D01*
X129173333Y-53414000D01*
X129240000Y-53447333D01*
X129273333Y-53480666D01*
X129306666Y-53547333D01*
X129306666Y-53747333D01*
X129273333Y-53814000D01*
X129240000Y-53847333D01*
X129240000Y-53114000D02*
X129273333Y-53080666D01*
X129306666Y-53114000D01*
X129273333Y-53147333D01*
X129240000Y-53114000D01*
X129306666Y-53114000D01*
X129306666Y-52747333D02*
X129306666Y-52614000D01*
X129273333Y-52547333D01*
X129240000Y-52514000D01*
X129140000Y-52447333D01*
X129006666Y-52414000D01*
X128740000Y-52414000D01*
X128673333Y-52447333D01*
X128640000Y-52480666D01*
X128606666Y-52547333D01*
X128606666Y-52680666D01*
X128640000Y-52747333D01*
X128673333Y-52780666D01*
X128740000Y-52814000D01*
X128906666Y-52814000D01*
X128973333Y-52780666D01*
X129006666Y-52747333D01*
X129040000Y-52680666D01*
X129040000Y-52547333D01*
X129006666Y-52480666D01*
X128973333Y-52447333D01*
X128906666Y-52414000D01*
X129306666Y-52114000D02*
X128606666Y-52114000D01*
X129306666Y-51714000D02*
X128906666Y-52014000D01*
X128606666Y-51714000D02*
X129006666Y-52114000D01*
X140916666Y-57347333D02*
X140916666Y-56914000D01*
X141183333Y-57147333D01*
X141183333Y-57047333D01*
X141216666Y-56980666D01*
X141250000Y-56947333D01*
X141316666Y-56914000D01*
X141483333Y-56914000D01*
X141550000Y-56947333D01*
X141583333Y-56980666D01*
X141616666Y-57047333D01*
X141616666Y-57247333D01*
X141583333Y-57314000D01*
X141550000Y-57347333D01*
X141550000Y-56614000D02*
X141583333Y-56580666D01*
X141616666Y-56614000D01*
X141583333Y-56647333D01*
X141550000Y-56614000D01*
X141616666Y-56614000D01*
X141616666Y-56247333D02*
X141616666Y-56114000D01*
X141583333Y-56047333D01*
X141550000Y-56014000D01*
X141450000Y-55947333D01*
X141316666Y-55914000D01*
X141050000Y-55914000D01*
X140983333Y-55947333D01*
X140950000Y-55980666D01*
X140916666Y-56047333D01*
X140916666Y-56180666D01*
X140950000Y-56247333D01*
X140983333Y-56280666D01*
X141050000Y-56314000D01*
X141216666Y-56314000D01*
X141283333Y-56280666D01*
X141316666Y-56247333D01*
X141350000Y-56180666D01*
X141350000Y-56047333D01*
X141316666Y-55980666D01*
X141283333Y-55947333D01*
X141216666Y-55914000D01*
X141616666Y-55614000D02*
X140916666Y-55614000D01*
X141616666Y-55214000D02*
X141216666Y-55514000D01*
X140916666Y-55214000D02*
X141316666Y-55614000D01*
X142406666Y-57347333D02*
X142406666Y-56914000D01*
X142673333Y-57147333D01*
X142673333Y-57047333D01*
X142706666Y-56980666D01*
X142740000Y-56947333D01*
X142806666Y-56914000D01*
X142973333Y-56914000D01*
X143040000Y-56947333D01*
X143073333Y-56980666D01*
X143106666Y-57047333D01*
X143106666Y-57247333D01*
X143073333Y-57314000D01*
X143040000Y-57347333D01*
X143040000Y-56614000D02*
X143073333Y-56580666D01*
X143106666Y-56614000D01*
X143073333Y-56647333D01*
X143040000Y-56614000D01*
X143106666Y-56614000D01*
X143106666Y-56247333D02*
X143106666Y-56114000D01*
X143073333Y-56047333D01*
X143040000Y-56014000D01*
X142940000Y-55947333D01*
X142806666Y-55914000D01*
X142540000Y-55914000D01*
X142473333Y-55947333D01*
X142440000Y-55980666D01*
X142406666Y-56047333D01*
X142406666Y-56180666D01*
X142440000Y-56247333D01*
X142473333Y-56280666D01*
X142540000Y-56314000D01*
X142706666Y-56314000D01*
X142773333Y-56280666D01*
X142806666Y-56247333D01*
X142840000Y-56180666D01*
X142840000Y-56047333D01*
X142806666Y-55980666D01*
X142773333Y-55947333D01*
X142706666Y-55914000D01*
X143106666Y-55614000D02*
X142406666Y-55614000D01*
X143106666Y-55214000D02*
X142706666Y-55514000D01*
X142406666Y-55214000D02*
X142806666Y-55614000D01*
X116520000Y-50974000D02*
X116520000Y-51440666D01*
X116353333Y-50707333D02*
X116186666Y-51207333D01*
X116620000Y-51207333D01*
X116820000Y-50740666D02*
X117286666Y-50740666D01*
X116986666Y-51440666D01*
X117953333Y-51440666D02*
X117720000Y-51107333D01*
X117553333Y-51440666D02*
X117553333Y-50740666D01*
X117820000Y-50740666D01*
X117886666Y-50774000D01*
X117920000Y-50807333D01*
X117953333Y-50874000D01*
X117953333Y-50974000D01*
X117920000Y-51040666D01*
X117886666Y-51074000D01*
X117820000Y-51107333D01*
X117553333Y-51107333D01*
X157416666Y-63744000D02*
X157416666Y-64210666D01*
X157250000Y-63477333D02*
X157083333Y-63977333D01*
X157516666Y-63977333D01*
X157716666Y-63510666D02*
X158183333Y-63510666D01*
X157883333Y-64210666D01*
X158583333Y-63510666D02*
X158650000Y-63510666D01*
X158716666Y-63544000D01*
X158750000Y-63577333D01*
X158783333Y-63644000D01*
X158816666Y-63777333D01*
X158816666Y-63944000D01*
X158783333Y-64077333D01*
X158750000Y-64144000D01*
X158716666Y-64177333D01*
X158650000Y-64210666D01*
X158583333Y-64210666D01*
X158516666Y-64177333D01*
X158483333Y-64144000D01*
X158450000Y-64077333D01*
X158416666Y-63944000D01*
X158416666Y-63777333D01*
X158450000Y-63644000D01*
X158483333Y-63577333D01*
X158516666Y-63544000D01*
X158583333Y-63510666D01*
X119886666Y-89504000D02*
X119653333Y-89504000D01*
X119653333Y-89870666D02*
X119653333Y-89170666D01*
X119986666Y-89170666D01*
X120486666Y-89504000D02*
X120586666Y-89537333D01*
X120620000Y-89570666D01*
X120653333Y-89637333D01*
X120653333Y-89737333D01*
X120620000Y-89804000D01*
X120586666Y-89837333D01*
X120520000Y-89870666D01*
X120253333Y-89870666D01*
X120253333Y-89170666D01*
X120486666Y-89170666D01*
X120553333Y-89204000D01*
X120586666Y-89237333D01*
X120620000Y-89304000D01*
X120620000Y-89370666D01*
X120586666Y-89437333D01*
X120553333Y-89470666D01*
X120486666Y-89504000D01*
X120253333Y-89504000D01*
X120886666Y-89170666D02*
X121320000Y-89170666D01*
X121086666Y-89437333D01*
X121186666Y-89437333D01*
X121253333Y-89470666D01*
X121286666Y-89504000D01*
X121320000Y-89570666D01*
X121320000Y-89737333D01*
X121286666Y-89804000D01*
X121253333Y-89837333D01*
X121186666Y-89870666D01*
X120986666Y-89870666D01*
X120920000Y-89837333D01*
X120886666Y-89804000D01*
X133310000Y-90477333D02*
X133310000Y-90710666D01*
X133676666Y-90710666D02*
X132976666Y-90710666D01*
X132976666Y-90377333D01*
X133310000Y-89877333D02*
X133343333Y-89777333D01*
X133376666Y-89744000D01*
X133443333Y-89710666D01*
X133543333Y-89710666D01*
X133610000Y-89744000D01*
X133643333Y-89777333D01*
X133676666Y-89844000D01*
X133676666Y-90110666D01*
X132976666Y-90110666D01*
X132976666Y-89877333D01*
X133010000Y-89810666D01*
X133043333Y-89777333D01*
X133110000Y-89744000D01*
X133176666Y-89744000D01*
X133243333Y-89777333D01*
X133276666Y-89810666D01*
X133310000Y-89877333D01*
X133310000Y-90110666D01*
X133043333Y-89444000D02*
X133010000Y-89410666D01*
X132976666Y-89344000D01*
X132976666Y-89177333D01*
X133010000Y-89110666D01*
X133043333Y-89077333D01*
X133110000Y-89044000D01*
X133176666Y-89044000D01*
X133276666Y-89077333D01*
X133676666Y-89477333D01*
X133676666Y-89044000D01*
X112106666Y-89624000D02*
X111873333Y-89624000D01*
X111873333Y-89990666D02*
X111873333Y-89290666D01*
X112206666Y-89290666D01*
X112440000Y-89357333D02*
X112473333Y-89324000D01*
X112540000Y-89290666D01*
X112706666Y-89290666D01*
X112773333Y-89324000D01*
X112806666Y-89357333D01*
X112840000Y-89424000D01*
X112840000Y-89490666D01*
X112806666Y-89590666D01*
X112406666Y-89990666D01*
X112840000Y-89990666D01*
X131960000Y-98807333D02*
X131960000Y-99040666D01*
X132326666Y-99040666D02*
X131626666Y-99040666D01*
X131626666Y-98707333D01*
X132326666Y-98074000D02*
X132326666Y-98474000D01*
X132326666Y-98274000D02*
X131626666Y-98274000D01*
X131726666Y-98340666D01*
X131793333Y-98407333D01*
X131826666Y-98474000D01*
X149210000Y-76934000D02*
X149176666Y-76967333D01*
X149076666Y-77000666D01*
X149010000Y-77000666D01*
X148910000Y-76967333D01*
X148843333Y-76900666D01*
X148810000Y-76834000D01*
X148776666Y-76700666D01*
X148776666Y-76600666D01*
X148810000Y-76467333D01*
X148843333Y-76400666D01*
X148910000Y-76334000D01*
X149010000Y-76300666D01*
X149076666Y-76300666D01*
X149176666Y-76334000D01*
X149210000Y-76367333D01*
X149510000Y-77000666D02*
X149510000Y-76300666D01*
X149510000Y-76634000D02*
X149910000Y-76634000D01*
X149910000Y-77000666D02*
X149910000Y-76300666D01*
X150643333Y-77000666D02*
X150410000Y-76667333D01*
X150243333Y-77000666D02*
X150243333Y-76300666D01*
X150510000Y-76300666D01*
X150576666Y-76334000D01*
X150610000Y-76367333D01*
X150643333Y-76434000D01*
X150643333Y-76534000D01*
X150610000Y-76600666D01*
X150576666Y-76634000D01*
X150510000Y-76667333D01*
X150243333Y-76667333D01*
X151310000Y-76334000D02*
X151243333Y-76300666D01*
X151143333Y-76300666D01*
X151043333Y-76334000D01*
X150976666Y-76400666D01*
X150943333Y-76467333D01*
X150910000Y-76600666D01*
X150910000Y-76700666D01*
X150943333Y-76834000D01*
X150976666Y-76900666D01*
X151043333Y-76967333D01*
X151143333Y-77000666D01*
X151210000Y-77000666D01*
X151310000Y-76967333D01*
X151343333Y-76934000D01*
X151343333Y-76700666D01*
X151210000Y-76700666D01*
X134300000Y-72130666D02*
X133900000Y-72130666D01*
X134100000Y-72130666D02*
X134100000Y-71430666D01*
X134033333Y-71530666D01*
X133966666Y-71597333D01*
X133900000Y-71630666D01*
X134733333Y-71430666D02*
X134800000Y-71430666D01*
X134866666Y-71464000D01*
X134900000Y-71497333D01*
X134933333Y-71564000D01*
X134966666Y-71697333D01*
X134966666Y-71864000D01*
X134933333Y-71997333D01*
X134900000Y-72064000D01*
X134866666Y-72097333D01*
X134800000Y-72130666D01*
X134733333Y-72130666D01*
X134666666Y-72097333D01*
X134633333Y-72064000D01*
X134600000Y-71997333D01*
X134566666Y-71864000D01*
X134566666Y-71697333D01*
X134600000Y-71564000D01*
X134633333Y-71497333D01*
X134666666Y-71464000D01*
X134733333Y-71430666D01*
X135566666Y-71664000D02*
X135566666Y-72130666D01*
X135266666Y-71664000D02*
X135266666Y-72030666D01*
X135300000Y-72097333D01*
X135366666Y-72130666D01*
X135466666Y-72130666D01*
X135533333Y-72097333D01*
X135566666Y-72064000D01*
X136133333Y-71764000D02*
X135900000Y-71764000D01*
X135900000Y-72130666D02*
X135900000Y-71430666D01*
X136233333Y-71430666D01*
X113060000Y-67370666D02*
X113060000Y-66670666D01*
X113226666Y-66670666D01*
X113326666Y-66704000D01*
X113393333Y-66770666D01*
X113426666Y-66837333D01*
X113460000Y-66970666D01*
X113460000Y-67070666D01*
X113426666Y-67204000D01*
X113393333Y-67270666D01*
X113326666Y-67337333D01*
X113226666Y-67370666D01*
X113060000Y-67370666D01*
X113760000Y-67370666D02*
X113760000Y-66670666D01*
X114160000Y-67370666D01*
X114160000Y-66670666D01*
X114726666Y-67004000D02*
X114493333Y-67004000D01*
X114493333Y-67370666D02*
X114493333Y-66670666D01*
X114826666Y-66670666D01*
X133486666Y-77830666D02*
X133086666Y-77830666D01*
X133286666Y-77830666D02*
X133286666Y-77130666D01*
X133220000Y-77230666D01*
X133153333Y-77297333D01*
X133086666Y-77330666D01*
X133920000Y-77130666D02*
X133986666Y-77130666D01*
X134053333Y-77164000D01*
X134086666Y-77197333D01*
X134120000Y-77264000D01*
X134153333Y-77397333D01*
X134153333Y-77564000D01*
X134120000Y-77697333D01*
X134086666Y-77764000D01*
X134053333Y-77797333D01*
X133986666Y-77830666D01*
X133920000Y-77830666D01*
X133853333Y-77797333D01*
X133820000Y-77764000D01*
X133786666Y-77697333D01*
X133753333Y-77564000D01*
X133753333Y-77397333D01*
X133786666Y-77264000D01*
X133820000Y-77197333D01*
X133853333Y-77164000D01*
X133920000Y-77130666D01*
X134586666Y-77130666D02*
X134653333Y-77130666D01*
X134720000Y-77164000D01*
X134753333Y-77197333D01*
X134786666Y-77264000D01*
X134820000Y-77397333D01*
X134820000Y-77564000D01*
X134786666Y-77697333D01*
X134753333Y-77764000D01*
X134720000Y-77797333D01*
X134653333Y-77830666D01*
X134586666Y-77830666D01*
X134520000Y-77797333D01*
X134486666Y-77764000D01*
X134453333Y-77697333D01*
X134420000Y-77564000D01*
X134420000Y-77397333D01*
X134453333Y-77264000D01*
X134486666Y-77197333D01*
X134520000Y-77164000D01*
X134586666Y-77130666D01*
X135120000Y-77364000D02*
X135120000Y-77830666D01*
X135120000Y-77430666D02*
X135153333Y-77397333D01*
X135220000Y-77364000D01*
X135320000Y-77364000D01*
X135386666Y-77397333D01*
X135420000Y-77464000D01*
X135420000Y-77830666D01*
X135986666Y-77464000D02*
X135753333Y-77464000D01*
X135753333Y-77830666D02*
X135753333Y-77130666D01*
X136086666Y-77130666D01*
X121636666Y-70787333D02*
X121636666Y-71187333D01*
X121636666Y-70987333D02*
X120936666Y-70987333D01*
X121036666Y-71054000D01*
X121103333Y-71120666D01*
X121136666Y-71187333D01*
X120936666Y-70354000D02*
X120936666Y-70287333D01*
X120970000Y-70220666D01*
X121003333Y-70187333D01*
X121070000Y-70154000D01*
X121203333Y-70120666D01*
X121370000Y-70120666D01*
X121503333Y-70154000D01*
X121570000Y-70187333D01*
X121603333Y-70220666D01*
X121636666Y-70287333D01*
X121636666Y-70354000D01*
X121603333Y-70420666D01*
X121570000Y-70454000D01*
X121503333Y-70487333D01*
X121370000Y-70520666D01*
X121203333Y-70520666D01*
X121070000Y-70487333D01*
X121003333Y-70454000D01*
X120970000Y-70420666D01*
X120936666Y-70354000D01*
X120936666Y-69687333D02*
X120936666Y-69620666D01*
X120970000Y-69554000D01*
X121003333Y-69520666D01*
X121070000Y-69487333D01*
X121203333Y-69454000D01*
X121370000Y-69454000D01*
X121503333Y-69487333D01*
X121570000Y-69520666D01*
X121603333Y-69554000D01*
X121636666Y-69620666D01*
X121636666Y-69687333D01*
X121603333Y-69754000D01*
X121570000Y-69787333D01*
X121503333Y-69820666D01*
X121370000Y-69854000D01*
X121203333Y-69854000D01*
X121070000Y-69820666D01*
X121003333Y-69787333D01*
X120970000Y-69754000D01*
X120936666Y-69687333D01*
X121170000Y-69154000D02*
X121636666Y-69154000D01*
X121236666Y-69154000D02*
X121203333Y-69120666D01*
X121170000Y-69054000D01*
X121170000Y-68954000D01*
X121203333Y-68887333D01*
X121270000Y-68854000D01*
X121636666Y-68854000D01*
X121270000Y-68287333D02*
X121270000Y-68520666D01*
X121636666Y-68520666D02*
X120936666Y-68520666D01*
X120936666Y-68187333D01*
X126746666Y-71087333D02*
X126746666Y-71487333D01*
X126746666Y-71287333D02*
X126046666Y-71287333D01*
X126146666Y-71354000D01*
X126213333Y-71420666D01*
X126246666Y-71487333D01*
X126046666Y-70654000D02*
X126046666Y-70587333D01*
X126080000Y-70520666D01*
X126113333Y-70487333D01*
X126180000Y-70454000D01*
X126313333Y-70420666D01*
X126480000Y-70420666D01*
X126613333Y-70454000D01*
X126680000Y-70487333D01*
X126713333Y-70520666D01*
X126746666Y-70587333D01*
X126746666Y-70654000D01*
X126713333Y-70720666D01*
X126680000Y-70754000D01*
X126613333Y-70787333D01*
X126480000Y-70820666D01*
X126313333Y-70820666D01*
X126180000Y-70787333D01*
X126113333Y-70754000D01*
X126080000Y-70720666D01*
X126046666Y-70654000D01*
X126046666Y-69987333D02*
X126046666Y-69920666D01*
X126080000Y-69854000D01*
X126113333Y-69820666D01*
X126180000Y-69787333D01*
X126313333Y-69754000D01*
X126480000Y-69754000D01*
X126613333Y-69787333D01*
X126680000Y-69820666D01*
X126713333Y-69854000D01*
X126746666Y-69920666D01*
X126746666Y-69987333D01*
X126713333Y-70054000D01*
X126680000Y-70087333D01*
X126613333Y-70120666D01*
X126480000Y-70154000D01*
X126313333Y-70154000D01*
X126180000Y-70120666D01*
X126113333Y-70087333D01*
X126080000Y-70054000D01*
X126046666Y-69987333D01*
X126280000Y-69454000D02*
X126746666Y-69454000D01*
X126346666Y-69454000D02*
X126313333Y-69420666D01*
X126280000Y-69354000D01*
X126280000Y-69254000D01*
X126313333Y-69187333D01*
X126380000Y-69154000D01*
X126746666Y-69154000D01*
X126380000Y-68587333D02*
X126380000Y-68820666D01*
X126746666Y-68820666D02*
X126046666Y-68820666D01*
X126046666Y-68487333D01*
X119776666Y-81630666D02*
X119376666Y-81630666D01*
X119576666Y-81630666D02*
X119576666Y-80930666D01*
X119510000Y-81030666D01*
X119443333Y-81097333D01*
X119376666Y-81130666D01*
X120210000Y-80930666D02*
X120276666Y-80930666D01*
X120343333Y-80964000D01*
X120376666Y-80997333D01*
X120410000Y-81064000D01*
X120443333Y-81197333D01*
X120443333Y-81364000D01*
X120410000Y-81497333D01*
X120376666Y-81564000D01*
X120343333Y-81597333D01*
X120276666Y-81630666D01*
X120210000Y-81630666D01*
X120143333Y-81597333D01*
X120110000Y-81564000D01*
X120076666Y-81497333D01*
X120043333Y-81364000D01*
X120043333Y-81197333D01*
X120076666Y-81064000D01*
X120110000Y-80997333D01*
X120143333Y-80964000D01*
X120210000Y-80930666D01*
X120876666Y-80930666D02*
X120943333Y-80930666D01*
X121010000Y-80964000D01*
X121043333Y-80997333D01*
X121076666Y-81064000D01*
X121110000Y-81197333D01*
X121110000Y-81364000D01*
X121076666Y-81497333D01*
X121043333Y-81564000D01*
X121010000Y-81597333D01*
X120943333Y-81630666D01*
X120876666Y-81630666D01*
X120810000Y-81597333D01*
X120776666Y-81564000D01*
X120743333Y-81497333D01*
X120710000Y-81364000D01*
X120710000Y-81197333D01*
X120743333Y-81064000D01*
X120776666Y-80997333D01*
X120810000Y-80964000D01*
X120876666Y-80930666D01*
X121410000Y-81164000D02*
X121410000Y-81630666D01*
X121410000Y-81230666D02*
X121443333Y-81197333D01*
X121510000Y-81164000D01*
X121610000Y-81164000D01*
X121676666Y-81197333D01*
X121710000Y-81264000D01*
X121710000Y-81630666D01*
X122276666Y-81264000D02*
X122043333Y-81264000D01*
X122043333Y-81630666D02*
X122043333Y-80930666D01*
X122376666Y-80930666D01*
X117153333Y-81610666D02*
X116753333Y-81610666D01*
X116953333Y-81610666D02*
X116953333Y-80910666D01*
X116886666Y-81010666D01*
X116820000Y-81077333D01*
X116753333Y-81110666D01*
X117753333Y-81144000D02*
X117753333Y-81610666D01*
X117453333Y-81144000D02*
X117453333Y-81510666D01*
X117486666Y-81577333D01*
X117553333Y-81610666D01*
X117653333Y-81610666D01*
X117720000Y-81577333D01*
X117753333Y-81544000D01*
X118320000Y-81244000D02*
X118086666Y-81244000D01*
X118086666Y-81610666D02*
X118086666Y-80910666D01*
X118420000Y-80910666D01*
X116060000Y-86700666D02*
X115660000Y-86700666D01*
X115860000Y-86700666D02*
X115860000Y-86000666D01*
X115793333Y-86100666D01*
X115726666Y-86167333D01*
X115660000Y-86200666D01*
X116493333Y-86000666D02*
X116560000Y-86000666D01*
X116626666Y-86034000D01*
X116660000Y-86067333D01*
X116693333Y-86134000D01*
X116726666Y-86267333D01*
X116726666Y-86434000D01*
X116693333Y-86567333D01*
X116660000Y-86634000D01*
X116626666Y-86667333D01*
X116560000Y-86700666D01*
X116493333Y-86700666D01*
X116426666Y-86667333D01*
X116393333Y-86634000D01*
X116360000Y-86567333D01*
X116326666Y-86434000D01*
X116326666Y-86267333D01*
X116360000Y-86134000D01*
X116393333Y-86067333D01*
X116426666Y-86034000D01*
X116493333Y-86000666D01*
X117326666Y-86234000D02*
X117326666Y-86700666D01*
X117026666Y-86234000D02*
X117026666Y-86600666D01*
X117060000Y-86667333D01*
X117126666Y-86700666D01*
X117226666Y-86700666D01*
X117293333Y-86667333D01*
X117326666Y-86634000D01*
X117893333Y-86334000D02*
X117660000Y-86334000D01*
X117660000Y-86700666D02*
X117660000Y-86000666D01*
X117993333Y-86000666D01*
X120876000Y-86720666D02*
X120476000Y-86720666D01*
X120676000Y-86720666D02*
X120676000Y-86020666D01*
X120609333Y-86120666D01*
X120542666Y-86187333D01*
X120476000Y-86220666D01*
X121309333Y-86020666D02*
X121376000Y-86020666D01*
X121442666Y-86054000D01*
X121476000Y-86087333D01*
X121509333Y-86154000D01*
X121542666Y-86287333D01*
X121542666Y-86454000D01*
X121509333Y-86587333D01*
X121476000Y-86654000D01*
X121442666Y-86687333D01*
X121376000Y-86720666D01*
X121309333Y-86720666D01*
X121242666Y-86687333D01*
X121209333Y-86654000D01*
X121176000Y-86587333D01*
X121142666Y-86454000D01*
X121142666Y-86287333D01*
X121176000Y-86154000D01*
X121209333Y-86087333D01*
X121242666Y-86054000D01*
X121309333Y-86020666D01*
X122142666Y-86254000D02*
X122142666Y-86720666D01*
X121842666Y-86254000D02*
X121842666Y-86620666D01*
X121876000Y-86687333D01*
X121942666Y-86720666D01*
X122042666Y-86720666D01*
X122109333Y-86687333D01*
X122142666Y-86654000D01*
X122709333Y-86354000D02*
X122476000Y-86354000D01*
X122476000Y-86720666D02*
X122476000Y-86020666D01*
X122809333Y-86020666D01*
X113673333Y-79434000D02*
X113640000Y-79400666D01*
X113606666Y-79334000D01*
X113606666Y-79167333D01*
X113640000Y-79100666D01*
X113673333Y-79067333D01*
X113740000Y-79034000D01*
X113806666Y-79034000D01*
X113906666Y-79067333D01*
X114306666Y-79467333D01*
X114306666Y-79034000D01*
X113673333Y-78767333D02*
X113640000Y-78734000D01*
X113606666Y-78667333D01*
X113606666Y-78500666D01*
X113640000Y-78434000D01*
X113673333Y-78400666D01*
X113740000Y-78367333D01*
X113806666Y-78367333D01*
X113906666Y-78400666D01*
X114306666Y-78800666D01*
X114306666Y-78367333D01*
X113840000Y-78067333D02*
X114306666Y-78067333D01*
X113906666Y-78067333D02*
X113873333Y-78034000D01*
X113840000Y-77967333D01*
X113840000Y-77867333D01*
X113873333Y-77800666D01*
X113940000Y-77767333D01*
X114306666Y-77767333D01*
X113940000Y-77200666D02*
X113940000Y-77434000D01*
X114306666Y-77434000D02*
X113606666Y-77434000D01*
X113606666Y-77100666D01*
X150013333Y-81500666D02*
X149613333Y-81500666D01*
X149813333Y-81500666D02*
X149813333Y-80800666D01*
X149746666Y-80900666D01*
X149680000Y-80967333D01*
X149613333Y-81000666D01*
X150613333Y-81034000D02*
X150613333Y-81500666D01*
X150313333Y-81034000D02*
X150313333Y-81400666D01*
X150346666Y-81467333D01*
X150413333Y-81500666D01*
X150513333Y-81500666D01*
X150580000Y-81467333D01*
X150613333Y-81434000D01*
X151180000Y-81134000D02*
X150946666Y-81134000D01*
X150946666Y-81500666D02*
X150946666Y-80800666D01*
X151280000Y-80800666D01*
X158633333Y-88560666D02*
X158233333Y-88560666D01*
X158433333Y-88560666D02*
X158433333Y-87860666D01*
X158366666Y-87960666D01*
X158300000Y-88027333D01*
X158233333Y-88060666D01*
X159233333Y-88094000D02*
X159233333Y-88560666D01*
X158933333Y-88094000D02*
X158933333Y-88460666D01*
X158966666Y-88527333D01*
X159033333Y-88560666D01*
X159133333Y-88560666D01*
X159200000Y-88527333D01*
X159233333Y-88494000D01*
X159800000Y-88194000D02*
X159566666Y-88194000D01*
X159566666Y-88560666D02*
X159566666Y-87860666D01*
X159900000Y-87860666D01*
X158593333Y-92700666D02*
X158193333Y-92700666D01*
X158393333Y-92700666D02*
X158393333Y-92000666D01*
X158326666Y-92100666D01*
X158260000Y-92167333D01*
X158193333Y-92200666D01*
X159193333Y-92234000D02*
X159193333Y-92700666D01*
X158893333Y-92234000D02*
X158893333Y-92600666D01*
X158926666Y-92667333D01*
X158993333Y-92700666D01*
X159093333Y-92700666D01*
X159160000Y-92667333D01*
X159193333Y-92634000D01*
X159760000Y-92334000D02*
X159526666Y-92334000D01*
X159526666Y-92700666D02*
X159526666Y-92000666D01*
X159860000Y-92000666D01*
X150963333Y-88890666D02*
X150563333Y-88890666D01*
X150763333Y-88890666D02*
X150763333Y-88190666D01*
X150696666Y-88290666D01*
X150630000Y-88357333D01*
X150563333Y-88390666D01*
X151563333Y-88424000D02*
X151563333Y-88890666D01*
X151263333Y-88424000D02*
X151263333Y-88790666D01*
X151296666Y-88857333D01*
X151363333Y-88890666D01*
X151463333Y-88890666D01*
X151530000Y-88857333D01*
X151563333Y-88824000D01*
X152130000Y-88524000D02*
X151896666Y-88524000D01*
X151896666Y-88890666D02*
X151896666Y-88190666D01*
X152230000Y-88190666D01*
X139506666Y-74510666D02*
X139506666Y-74910666D01*
X139506666Y-74710666D02*
X138806666Y-74710666D01*
X138906666Y-74777333D01*
X138973333Y-74844000D01*
X139006666Y-74910666D01*
X139040000Y-73910666D02*
X139506666Y-73910666D01*
X139040000Y-74210666D02*
X139406666Y-74210666D01*
X139473333Y-74177333D01*
X139506666Y-74110666D01*
X139506666Y-74010666D01*
X139473333Y-73944000D01*
X139440000Y-73910666D01*
X139140000Y-73344000D02*
X139140000Y-73577333D01*
X139506666Y-73577333D02*
X138806666Y-73577333D01*
X138806666Y-73244000D01*
X144823333Y-99330666D02*
X144423333Y-99330666D01*
X144623333Y-99330666D02*
X144623333Y-98630666D01*
X144556666Y-98730666D01*
X144490000Y-98797333D01*
X144423333Y-98830666D01*
X145423333Y-98864000D02*
X145423333Y-99330666D01*
X145123333Y-98864000D02*
X145123333Y-99230666D01*
X145156666Y-99297333D01*
X145223333Y-99330666D01*
X145323333Y-99330666D01*
X145390000Y-99297333D01*
X145423333Y-99264000D01*
X145990000Y-98964000D02*
X145756666Y-98964000D01*
X145756666Y-99330666D02*
X145756666Y-98630666D01*
X146090000Y-98630666D01*
X141223333Y-70400666D02*
X140823333Y-70400666D01*
X141023333Y-70400666D02*
X141023333Y-69700666D01*
X140956666Y-69800666D01*
X140890000Y-69867333D01*
X140823333Y-69900666D01*
X141823333Y-69934000D02*
X141823333Y-70400666D01*
X141523333Y-69934000D02*
X141523333Y-70300666D01*
X141556666Y-70367333D01*
X141623333Y-70400666D01*
X141723333Y-70400666D01*
X141790000Y-70367333D01*
X141823333Y-70334000D01*
X142390000Y-70034000D02*
X142156666Y-70034000D01*
X142156666Y-70400666D02*
X142156666Y-69700666D01*
X142490000Y-69700666D01*
X142726666Y-82657333D02*
X142726666Y-83057333D01*
X142726666Y-82857333D02*
X142026666Y-82857333D01*
X142126666Y-82924000D01*
X142193333Y-82990666D01*
X142226666Y-83057333D01*
X142026666Y-82224000D02*
X142026666Y-82157333D01*
X142060000Y-82090666D01*
X142093333Y-82057333D01*
X142160000Y-82024000D01*
X142293333Y-81990666D01*
X142460000Y-81990666D01*
X142593333Y-82024000D01*
X142660000Y-82057333D01*
X142693333Y-82090666D01*
X142726666Y-82157333D01*
X142726666Y-82224000D01*
X142693333Y-82290666D01*
X142660000Y-82324000D01*
X142593333Y-82357333D01*
X142460000Y-82390666D01*
X142293333Y-82390666D01*
X142160000Y-82357333D01*
X142093333Y-82324000D01*
X142060000Y-82290666D01*
X142026666Y-82224000D01*
X142026666Y-81557333D02*
X142026666Y-81490666D01*
X142060000Y-81424000D01*
X142093333Y-81390666D01*
X142160000Y-81357333D01*
X142293333Y-81324000D01*
X142460000Y-81324000D01*
X142593333Y-81357333D01*
X142660000Y-81390666D01*
X142693333Y-81424000D01*
X142726666Y-81490666D01*
X142726666Y-81557333D01*
X142693333Y-81624000D01*
X142660000Y-81657333D01*
X142593333Y-81690666D01*
X142460000Y-81724000D01*
X142293333Y-81724000D01*
X142160000Y-81690666D01*
X142093333Y-81657333D01*
X142060000Y-81624000D01*
X142026666Y-81557333D01*
X142260000Y-81024000D02*
X142726666Y-81024000D01*
X142326666Y-81024000D02*
X142293333Y-80990666D01*
X142260000Y-80924000D01*
X142260000Y-80824000D01*
X142293333Y-80757333D01*
X142360000Y-80724000D01*
X142726666Y-80724000D01*
X142360000Y-80157333D02*
X142360000Y-80390666D01*
X142726666Y-80390666D02*
X142026666Y-80390666D01*
X142026666Y-80057333D01*
X144626666Y-57204000D02*
X144626666Y-57604000D01*
X144626666Y-57404000D02*
X143926666Y-57404000D01*
X144026666Y-57470666D01*
X144093333Y-57537333D01*
X144126666Y-57604000D01*
X143926666Y-56770666D02*
X143926666Y-56704000D01*
X143960000Y-56637333D01*
X143993333Y-56604000D01*
X144060000Y-56570666D01*
X144193333Y-56537333D01*
X144360000Y-56537333D01*
X144493333Y-56570666D01*
X144560000Y-56604000D01*
X144593333Y-56637333D01*
X144626666Y-56704000D01*
X144626666Y-56770666D01*
X144593333Y-56837333D01*
X144560000Y-56870666D01*
X144493333Y-56904000D01*
X144360000Y-56937333D01*
X144193333Y-56937333D01*
X144060000Y-56904000D01*
X143993333Y-56870666D01*
X143960000Y-56837333D01*
X143926666Y-56770666D01*
X144160000Y-55937333D02*
X144626666Y-55937333D01*
X144160000Y-56237333D02*
X144526666Y-56237333D01*
X144593333Y-56204000D01*
X144626666Y-56137333D01*
X144626666Y-56037333D01*
X144593333Y-55970666D01*
X144560000Y-55937333D01*
X144260000Y-55370666D02*
X144260000Y-55604000D01*
X144626666Y-55604000D02*
X143926666Y-55604000D01*
X143926666Y-55270666D01*
X146126666Y-57817333D02*
X146126666Y-58217333D01*
X146126666Y-58017333D02*
X145426666Y-58017333D01*
X145526666Y-58084000D01*
X145593333Y-58150666D01*
X145626666Y-58217333D01*
X145426666Y-57384000D02*
X145426666Y-57317333D01*
X145460000Y-57250666D01*
X145493333Y-57217333D01*
X145560000Y-57184000D01*
X145693333Y-57150666D01*
X145860000Y-57150666D01*
X145993333Y-57184000D01*
X146060000Y-57217333D01*
X146093333Y-57250666D01*
X146126666Y-57317333D01*
X146126666Y-57384000D01*
X146093333Y-57450666D01*
X146060000Y-57484000D01*
X145993333Y-57517333D01*
X145860000Y-57550666D01*
X145693333Y-57550666D01*
X145560000Y-57517333D01*
X145493333Y-57484000D01*
X145460000Y-57450666D01*
X145426666Y-57384000D01*
X145426666Y-56717333D02*
X145426666Y-56650666D01*
X145460000Y-56584000D01*
X145493333Y-56550666D01*
X145560000Y-56517333D01*
X145693333Y-56484000D01*
X145860000Y-56484000D01*
X145993333Y-56517333D01*
X146060000Y-56550666D01*
X146093333Y-56584000D01*
X146126666Y-56650666D01*
X146126666Y-56717333D01*
X146093333Y-56784000D01*
X146060000Y-56817333D01*
X145993333Y-56850666D01*
X145860000Y-56884000D01*
X145693333Y-56884000D01*
X145560000Y-56850666D01*
X145493333Y-56817333D01*
X145460000Y-56784000D01*
X145426666Y-56717333D01*
X145660000Y-56184000D02*
X146126666Y-56184000D01*
X145726666Y-56184000D02*
X145693333Y-56150666D01*
X145660000Y-56084000D01*
X145660000Y-55984000D01*
X145693333Y-55917333D01*
X145760000Y-55884000D01*
X146126666Y-55884000D01*
X145760000Y-55317333D02*
X145760000Y-55550666D01*
X146126666Y-55550666D02*
X145426666Y-55550666D01*
X145426666Y-55217333D01*
X146596666Y-66204000D02*
X145896666Y-66204000D01*
X145896666Y-66037333D01*
X145930000Y-65937333D01*
X145996666Y-65870666D01*
X146063333Y-65837333D01*
X146196666Y-65804000D01*
X146296666Y-65804000D01*
X146430000Y-65837333D01*
X146496666Y-65870666D01*
X146563333Y-65937333D01*
X146596666Y-66037333D01*
X146596666Y-66204000D01*
X146596666Y-65504000D02*
X145896666Y-65504000D01*
X146596666Y-65104000D01*
X145896666Y-65104000D01*
X146230000Y-64537333D02*
X146230000Y-64770666D01*
X146596666Y-64770666D02*
X145896666Y-64770666D01*
X145896666Y-64437333D01*
X106266666Y-58417333D02*
X105566666Y-58417333D01*
X106266666Y-58017333D01*
X105566666Y-58017333D01*
X105900000Y-57684000D02*
X105900000Y-57450666D01*
X106266666Y-57350666D02*
X106266666Y-57684000D01*
X105566666Y-57684000D01*
X105566666Y-57350666D01*
X105566666Y-56917333D02*
X105566666Y-56784000D01*
X105600000Y-56717333D01*
X105666666Y-56650666D01*
X105800000Y-56617333D01*
X106033333Y-56617333D01*
X106166666Y-56650666D01*
X106233333Y-56717333D01*
X106266666Y-56784000D01*
X106266666Y-56917333D01*
X106233333Y-56984000D01*
X106166666Y-57050666D01*
X106033333Y-57084000D01*
X105800000Y-57084000D01*
X105666666Y-57050666D01*
X105600000Y-56984000D01*
X105566666Y-56917333D01*
X106266666Y-56317333D02*
X105566666Y-56317333D01*
X105566666Y-56050666D01*
X105600000Y-55984000D01*
X105633333Y-55950666D01*
X105700000Y-55917333D01*
X105800000Y-55917333D01*
X105866666Y-55950666D01*
X105900000Y-55984000D01*
X105933333Y-56050666D01*
X105933333Y-56317333D01*
X106266666Y-55617333D02*
X105566666Y-55617333D01*
X105566666Y-55350666D02*
X106266666Y-54884000D01*
X105566666Y-54884000D02*
X106266666Y-55350666D01*
X105900000Y-54617333D02*
X105900000Y-54384000D01*
X106266666Y-54284000D02*
X106266666Y-54617333D01*
X105566666Y-54617333D01*
X105566666Y-54284000D01*
X106266666Y-53650666D02*
X106266666Y-53984000D01*
X105566666Y-53984000D01*
X120300000Y-97874000D02*
X120333333Y-97907333D01*
X120366666Y-98007333D01*
X120366666Y-98074000D01*
X120333333Y-98174000D01*
X120266666Y-98240666D01*
X120200000Y-98274000D01*
X120066666Y-98307333D01*
X119966666Y-98307333D01*
X119833333Y-98274000D01*
X119766666Y-98240666D01*
X119700000Y-98174000D01*
X119666666Y-98074000D01*
X119666666Y-98007333D01*
X119700000Y-97907333D01*
X119733333Y-97874000D01*
X120366666Y-97574000D02*
X119666666Y-97574000D01*
X120366666Y-97274000D02*
X120000000Y-97274000D01*
X119933333Y-97307333D01*
X119900000Y-97374000D01*
X119900000Y-97474000D01*
X119933333Y-97540666D01*
X119966666Y-97574000D01*
X120366666Y-96640666D02*
X120000000Y-96640666D01*
X119933333Y-96674000D01*
X119900000Y-96740666D01*
X119900000Y-96874000D01*
X119933333Y-96940666D01*
X120333333Y-96640666D02*
X120366666Y-96707333D01*
X120366666Y-96874000D01*
X120333333Y-96940666D01*
X120266666Y-96974000D01*
X120200000Y-96974000D01*
X120133333Y-96940666D01*
X120100000Y-96874000D01*
X120100000Y-96707333D01*
X120066666Y-96640666D01*
X120333333Y-96340666D02*
X120366666Y-96274000D01*
X120366666Y-96140666D01*
X120333333Y-96074000D01*
X120266666Y-96040666D01*
X120233333Y-96040666D01*
X120166666Y-96074000D01*
X120133333Y-96140666D01*
X120133333Y-96240666D01*
X120100000Y-96307333D01*
X120033333Y-96340666D01*
X120000000Y-96340666D01*
X119933333Y-96307333D01*
X119900000Y-96240666D01*
X119900000Y-96140666D01*
X119933333Y-96074000D01*
X120333333Y-95774000D02*
X120366666Y-95707333D01*
X120366666Y-95574000D01*
X120333333Y-95507333D01*
X120266666Y-95474000D01*
X120233333Y-95474000D01*
X120166666Y-95507333D01*
X120133333Y-95574000D01*
X120133333Y-95674000D01*
X120100000Y-95740666D01*
X120033333Y-95774000D01*
X120000000Y-95774000D01*
X119933333Y-95740666D01*
X119900000Y-95674000D01*
X119900000Y-95574000D01*
X119933333Y-95507333D01*
X120366666Y-95174000D02*
X119900000Y-95174000D01*
X119666666Y-95174000D02*
X119700000Y-95207333D01*
X119733333Y-95174000D01*
X119700000Y-95140666D01*
X119666666Y-95174000D01*
X119733333Y-95174000D01*
X120333333Y-94874000D02*
X120366666Y-94807333D01*
X120366666Y-94674000D01*
X120333333Y-94607333D01*
X120266666Y-94574000D01*
X120233333Y-94574000D01*
X120166666Y-94607333D01*
X120133333Y-94674000D01*
X120133333Y-94774000D01*
X120100000Y-94840666D01*
X120033333Y-94874000D01*
X120000000Y-94874000D01*
X119933333Y-94840666D01*
X119900000Y-94774000D01*
X119900000Y-94674000D01*
X119933333Y-94607333D01*
X120100000Y-94274000D02*
X120100000Y-93740666D01*
X119666666Y-93274000D02*
X119666666Y-93140666D01*
X119700000Y-93074000D01*
X119766666Y-93007333D01*
X119900000Y-92974000D01*
X120133333Y-92974000D01*
X120266666Y-93007333D01*
X120333333Y-93074000D01*
X120366666Y-93140666D01*
X120366666Y-93274000D01*
X120333333Y-93340666D01*
X120266666Y-93407333D01*
X120133333Y-93440666D01*
X119900000Y-93440666D01*
X119766666Y-93407333D01*
X119700000Y-93340666D01*
X119666666Y-93274000D01*
X119900000Y-92374000D02*
X120366666Y-92374000D01*
X119900000Y-92674000D02*
X120266666Y-92674000D01*
X120333333Y-92640666D01*
X120366666Y-92574000D01*
X120366666Y-92474000D01*
X120333333Y-92407333D01*
X120300000Y-92374000D01*
X119900000Y-92140666D02*
X119900000Y-91874000D01*
X119666666Y-92040666D02*
X120266666Y-92040666D01*
X120333333Y-92007333D01*
X120366666Y-91940666D01*
X120366666Y-91874000D01*
X107150000Y-98494000D02*
X107183333Y-98394000D01*
X107216666Y-98360666D01*
X107283333Y-98327333D01*
X107383333Y-98327333D01*
X107450000Y-98360666D01*
X107483333Y-98394000D01*
X107516666Y-98460666D01*
X107516666Y-98727333D01*
X106816666Y-98727333D01*
X106816666Y-98494000D01*
X106850000Y-98427333D01*
X106883333Y-98394000D01*
X106950000Y-98360666D01*
X107016666Y-98360666D01*
X107083333Y-98394000D01*
X107116666Y-98427333D01*
X107150000Y-98494000D01*
X107150000Y-98727333D01*
X107050000Y-98094000D02*
X107516666Y-97927333D01*
X107050000Y-97760666D02*
X107516666Y-97927333D01*
X107683333Y-97994000D01*
X107716666Y-98027333D01*
X107750000Y-98094000D01*
X107050000Y-97494000D02*
X107750000Y-97494000D01*
X107083333Y-97494000D02*
X107050000Y-97427333D01*
X107050000Y-97294000D01*
X107083333Y-97227333D01*
X107116666Y-97194000D01*
X107183333Y-97160666D01*
X107383333Y-97160666D01*
X107450000Y-97194000D01*
X107483333Y-97227333D01*
X107516666Y-97294000D01*
X107516666Y-97427333D01*
X107483333Y-97494000D01*
X107516666Y-96560666D02*
X107150000Y-96560666D01*
X107083333Y-96594000D01*
X107050000Y-96660666D01*
X107050000Y-96794000D01*
X107083333Y-96860666D01*
X107483333Y-96560666D02*
X107516666Y-96627333D01*
X107516666Y-96794000D01*
X107483333Y-96860666D01*
X107416666Y-96894000D01*
X107350000Y-96894000D01*
X107283333Y-96860666D01*
X107250000Y-96794000D01*
X107250000Y-96627333D01*
X107216666Y-96560666D01*
X107483333Y-96260666D02*
X107516666Y-96194000D01*
X107516666Y-96060666D01*
X107483333Y-95994000D01*
X107416666Y-95960666D01*
X107383333Y-95960666D01*
X107316666Y-95994000D01*
X107283333Y-96060666D01*
X107283333Y-96160666D01*
X107250000Y-96227333D01*
X107183333Y-96260666D01*
X107150000Y-96260666D01*
X107083333Y-96227333D01*
X107050000Y-96160666D01*
X107050000Y-96060666D01*
X107083333Y-95994000D01*
X107483333Y-95694000D02*
X107516666Y-95627333D01*
X107516666Y-95494000D01*
X107483333Y-95427333D01*
X107416666Y-95394000D01*
X107383333Y-95394000D01*
X107316666Y-95427333D01*
X107283333Y-95494000D01*
X107283333Y-95594000D01*
X107250000Y-95660666D01*
X107183333Y-95694000D01*
X107150000Y-95694000D01*
X107083333Y-95660666D01*
X107050000Y-95594000D01*
X107050000Y-95494000D01*
X107083333Y-95427333D01*
X107250000Y-95094000D02*
X107250000Y-94560666D01*
X107516666Y-94227333D02*
X106816666Y-94227333D01*
X106816666Y-93960666D01*
X106850000Y-93894000D01*
X106883333Y-93860666D01*
X106950000Y-93827333D01*
X107050000Y-93827333D01*
X107116666Y-93860666D01*
X107150000Y-93894000D01*
X107183333Y-93960666D01*
X107183333Y-94227333D01*
X107516666Y-93427333D02*
X107483333Y-93494000D01*
X107450000Y-93527333D01*
X107383333Y-93560666D01*
X107183333Y-93560666D01*
X107116666Y-93527333D01*
X107083333Y-93494000D01*
X107050000Y-93427333D01*
X107050000Y-93327333D01*
X107083333Y-93260666D01*
X107116666Y-93227333D01*
X107183333Y-93194000D01*
X107383333Y-93194000D01*
X107450000Y-93227333D01*
X107483333Y-93260666D01*
X107516666Y-93327333D01*
X107516666Y-93427333D01*
X107050000Y-92960666D02*
X107516666Y-92827333D01*
X107183333Y-92694000D01*
X107516666Y-92560666D01*
X107050000Y-92427333D01*
X107483333Y-91894000D02*
X107516666Y-91960666D01*
X107516666Y-92094000D01*
X107483333Y-92160666D01*
X107416666Y-92194000D01*
X107150000Y-92194000D01*
X107083333Y-92160666D01*
X107050000Y-92094000D01*
X107050000Y-91960666D01*
X107083333Y-91894000D01*
X107150000Y-91860666D01*
X107216666Y-91860666D01*
X107283333Y-92194000D01*
X107516666Y-91560666D02*
X107050000Y-91560666D01*
X107183333Y-91560666D02*
X107116666Y-91527333D01*
X107083333Y-91494000D01*
X107050000Y-91427333D01*
X107050000Y-91360666D01*
X114735000Y-57433285D02*
X114735000Y-56683285D01*
X115020714Y-56683285D01*
X115092142Y-56719000D01*
X115127857Y-56754714D01*
X115163571Y-56826142D01*
X115163571Y-56933285D01*
X115127857Y-57004714D01*
X115092142Y-57040428D01*
X115020714Y-57076142D01*
X114735000Y-57076142D01*
X115913571Y-57361857D02*
X115877857Y-57397571D01*
X115770714Y-57433285D01*
X115699285Y-57433285D01*
X115592142Y-57397571D01*
X115520714Y-57326142D01*
X115485000Y-57254714D01*
X115449285Y-57111857D01*
X115449285Y-57004714D01*
X115485000Y-56861857D01*
X115520714Y-56790428D01*
X115592142Y-56719000D01*
X115699285Y-56683285D01*
X115770714Y-56683285D01*
X115877857Y-56719000D01*
X115913571Y-56754714D01*
X116199285Y-57219000D02*
X116556428Y-57219000D01*
X116127857Y-57433285D02*
X116377857Y-56683285D01*
X116627857Y-57433285D01*
X116913571Y-57433285D02*
X117056428Y-57433285D01*
X117127857Y-57397571D01*
X117163571Y-57361857D01*
X117235000Y-57254714D01*
X117270714Y-57111857D01*
X117270714Y-56826142D01*
X117235000Y-56754714D01*
X117199285Y-56719000D01*
X117127857Y-56683285D01*
X116985000Y-56683285D01*
X116913571Y-56719000D01*
X116877857Y-56754714D01*
X116842142Y-56826142D01*
X116842142Y-57004714D01*
X116877857Y-57076142D01*
X116913571Y-57111857D01*
X116985000Y-57147571D01*
X117127857Y-57147571D01*
X117199285Y-57111857D01*
X117235000Y-57076142D01*
X117270714Y-57004714D01*
X117913571Y-56683285D02*
X117770714Y-56683285D01*
X117699285Y-56719000D01*
X117663571Y-56754714D01*
X117592142Y-56861857D01*
X117556428Y-57004714D01*
X117556428Y-57290428D01*
X117592142Y-57361857D01*
X117627857Y-57397571D01*
X117699285Y-57433285D01*
X117842142Y-57433285D01*
X117913571Y-57397571D01*
X117949285Y-57361857D01*
X117985000Y-57290428D01*
X117985000Y-57111857D01*
X117949285Y-57040428D01*
X117913571Y-57004714D01*
X117842142Y-56969000D01*
X117699285Y-56969000D01*
X117627857Y-57004714D01*
X117592142Y-57040428D01*
X117556428Y-57111857D01*
X118413571Y-57004714D02*
X118342142Y-56969000D01*
X118306428Y-56933285D01*
X118270714Y-56861857D01*
X118270714Y-56826142D01*
X118306428Y-56754714D01*
X118342142Y-56719000D01*
X118413571Y-56683285D01*
X118556428Y-56683285D01*
X118627857Y-56719000D01*
X118663571Y-56754714D01*
X118699285Y-56826142D01*
X118699285Y-56861857D01*
X118663571Y-56933285D01*
X118627857Y-56969000D01*
X118556428Y-57004714D01*
X118413571Y-57004714D01*
X118342142Y-57040428D01*
X118306428Y-57076142D01*
X118270714Y-57147571D01*
X118270714Y-57290428D01*
X118306428Y-57361857D01*
X118342142Y-57397571D01*
X118413571Y-57433285D01*
X118556428Y-57433285D01*
X118627857Y-57397571D01*
X118663571Y-57361857D01*
X118699285Y-57290428D01*
X118699285Y-57147571D01*
X118663571Y-57076142D01*
X118627857Y-57040428D01*
X118556428Y-57004714D01*
X119377857Y-56683285D02*
X119020714Y-56683285D01*
X118985000Y-57040428D01*
X119020714Y-57004714D01*
X119092142Y-56969000D01*
X119270714Y-56969000D01*
X119342142Y-57004714D01*
X119377857Y-57040428D01*
X119413571Y-57111857D01*
X119413571Y-57290428D01*
X119377857Y-57361857D01*
X119342142Y-57397571D01*
X119270714Y-57433285D01*
X119092142Y-57433285D01*
X119020714Y-57397571D01*
X118985000Y-57361857D01*
X119735000Y-57433285D02*
X119735000Y-56683285D01*
X120020714Y-56683285D01*
X120092142Y-56719000D01*
X120127857Y-56754714D01*
X120163571Y-56826142D01*
X120163571Y-56933285D01*
X120127857Y-57004714D01*
X120092142Y-57040428D01*
X120020714Y-57076142D01*
X119735000Y-57076142D01*
X120413571Y-56683285D02*
X120592142Y-57433285D01*
X120735000Y-56897571D01*
X120877857Y-57433285D01*
X121056428Y-56683285D01*
X123016666Y-79907333D02*
X123016666Y-79574000D01*
X123216666Y-79974000D02*
X122516666Y-79740666D01*
X123216666Y-79507333D01*
X122516666Y-79140666D02*
X122516666Y-79007333D01*
X122550000Y-78940666D01*
X122616666Y-78874000D01*
X122750000Y-78840666D01*
X122983333Y-78840666D01*
X123116666Y-78874000D01*
X123183333Y-78940666D01*
X123216666Y-79007333D01*
X123216666Y-79140666D01*
X123183333Y-79207333D01*
X123116666Y-79274000D01*
X122983333Y-79307333D01*
X122750000Y-79307333D01*
X122616666Y-79274000D01*
X122550000Y-79207333D01*
X122516666Y-79140666D01*
X122516666Y-78607333D02*
X122516666Y-78140666D01*
X123216666Y-78607333D01*
X123216666Y-78140666D01*
X122516666Y-77574000D02*
X122516666Y-77707333D01*
X122550000Y-77774000D01*
X122583333Y-77807333D01*
X122683333Y-77874000D01*
X122816666Y-77907333D01*
X123083333Y-77907333D01*
X123150000Y-77874000D01*
X123183333Y-77840666D01*
X123216666Y-77774000D01*
X123216666Y-77640666D01*
X123183333Y-77574000D01*
X123150000Y-77540666D01*
X123083333Y-77507333D01*
X122916666Y-77507333D01*
X122850000Y-77540666D01*
X122816666Y-77574000D01*
X122783333Y-77640666D01*
X122783333Y-77774000D01*
X122816666Y-77840666D01*
X122850000Y-77874000D01*
X122916666Y-77907333D01*
X122516666Y-76907333D02*
X122516666Y-77040666D01*
X122550000Y-77107333D01*
X122583333Y-77140666D01*
X122683333Y-77207333D01*
X122816666Y-77240666D01*
X123083333Y-77240666D01*
X123150000Y-77207333D01*
X123183333Y-77174000D01*
X123216666Y-77107333D01*
X123216666Y-76974000D01*
X123183333Y-76907333D01*
X123150000Y-76874000D01*
X123083333Y-76840666D01*
X122916666Y-76840666D01*
X122850000Y-76874000D01*
X122816666Y-76907333D01*
X122783333Y-76974000D01*
X122783333Y-77107333D01*
X122816666Y-77174000D01*
X122850000Y-77207333D01*
X122916666Y-77240666D01*
X122516666Y-76407333D02*
X122516666Y-76340666D01*
X122550000Y-76274000D01*
X122583333Y-76240666D01*
X122650000Y-76207333D01*
X122783333Y-76174000D01*
X122950000Y-76174000D01*
X123083333Y-76207333D01*
X123150000Y-76240666D01*
X123183333Y-76274000D01*
X123216666Y-76340666D01*
X123216666Y-76407333D01*
X123183333Y-76474000D01*
X123150000Y-76507333D01*
X123083333Y-76540666D01*
X122950000Y-76574000D01*
X122783333Y-76574000D01*
X122650000Y-76540666D01*
X122583333Y-76507333D01*
X122550000Y-76474000D01*
X122516666Y-76407333D01*
X122516666Y-75540666D02*
X122516666Y-75874000D01*
X122850000Y-75907333D01*
X122816666Y-75874000D01*
X122783333Y-75807333D01*
X122783333Y-75640666D01*
X122816666Y-75574000D01*
X122850000Y-75540666D01*
X122916666Y-75507333D01*
X123083333Y-75507333D01*
X123150000Y-75540666D01*
X123183333Y-75574000D01*
X123216666Y-75640666D01*
X123216666Y-75807333D01*
X123183333Y-75874000D01*
X123150000Y-75907333D01*
X123216666Y-75207333D02*
X122516666Y-75207333D01*
X122516666Y-74940666D01*
X122550000Y-74874000D01*
X122583333Y-74840666D01*
X122650000Y-74807333D01*
X122750000Y-74807333D01*
X122816666Y-74840666D01*
X122850000Y-74874000D01*
X122883333Y-74940666D01*
X122883333Y-75207333D01*
X123216666Y-74507333D02*
X122516666Y-74507333D01*
X122950000Y-74174000D02*
X122950000Y-73640666D01*
X123216666Y-72940666D02*
X123216666Y-73340666D01*
X123216666Y-73140666D02*
X122516666Y-73140666D01*
X122616666Y-73207333D01*
X122683333Y-73274000D01*
X122716666Y-73340666D01*
X147387142Y-88314000D02*
X147415714Y-88228285D01*
X147444285Y-88199714D01*
X147501428Y-88171142D01*
X147587142Y-88171142D01*
X147644285Y-88199714D01*
X147672857Y-88228285D01*
X147701428Y-88285428D01*
X147701428Y-88514000D01*
X147101428Y-88514000D01*
X147101428Y-88314000D01*
X147130000Y-88256857D01*
X147158571Y-88228285D01*
X147215714Y-88199714D01*
X147272857Y-88199714D01*
X147330000Y-88228285D01*
X147358571Y-88256857D01*
X147387142Y-88314000D01*
X147387142Y-88514000D01*
X147758571Y-87514000D02*
X147730000Y-87571142D01*
X147672857Y-87628285D01*
X147587142Y-87714000D01*
X147558571Y-87771142D01*
X147558571Y-87828285D01*
X147701428Y-87799714D02*
X147672857Y-87856857D01*
X147615714Y-87914000D01*
X147501428Y-87942571D01*
X147301428Y-87942571D01*
X147187142Y-87914000D01*
X147130000Y-87856857D01*
X147101428Y-87799714D01*
X147101428Y-87685428D01*
X147130000Y-87628285D01*
X147187142Y-87571142D01*
X147301428Y-87542571D01*
X147501428Y-87542571D01*
X147615714Y-87571142D01*
X147672857Y-87628285D01*
X147701428Y-87685428D01*
X147701428Y-87799714D01*
X147158571Y-87314000D02*
X147130000Y-87285428D01*
X147101428Y-87228285D01*
X147101428Y-87085428D01*
X147130000Y-87028285D01*
X147158571Y-86999714D01*
X147215714Y-86971142D01*
X147272857Y-86971142D01*
X147358571Y-86999714D01*
X147701428Y-87342571D01*
X147701428Y-86971142D01*
X147701428Y-86685428D02*
X147701428Y-86571142D01*
X147672857Y-86514000D01*
X147644285Y-86485428D01*
X147558571Y-86428285D01*
X147444285Y-86399714D01*
X147215714Y-86399714D01*
X147158571Y-86428285D01*
X147130000Y-86456857D01*
X147101428Y-86514000D01*
X147101428Y-86628285D01*
X147130000Y-86685428D01*
X147158571Y-86714000D01*
X147215714Y-86742571D01*
X147358571Y-86742571D01*
X147415714Y-86714000D01*
X147444285Y-86685428D01*
X147472857Y-86628285D01*
X147472857Y-86514000D01*
X147444285Y-86456857D01*
X147415714Y-86428285D01*
X147358571Y-86399714D01*
X147158571Y-86171142D02*
X147130000Y-86142571D01*
X147101428Y-86085428D01*
X147101428Y-85942571D01*
X147130000Y-85885428D01*
X147158571Y-85856857D01*
X147215714Y-85828285D01*
X147272857Y-85828285D01*
X147358571Y-85856857D01*
X147701428Y-86199714D01*
X147701428Y-85828285D01*
X147101428Y-85456857D02*
X147101428Y-85399714D01*
X147130000Y-85342571D01*
X147158571Y-85314000D01*
X147215714Y-85285428D01*
X147330000Y-85256857D01*
X147472857Y-85256857D01*
X147587142Y-85285428D01*
X147644285Y-85314000D01*
X147672857Y-85342571D01*
X147701428Y-85399714D01*
X147701428Y-85456857D01*
X147672857Y-85514000D01*
X147644285Y-85542571D01*
X147587142Y-85571142D01*
X147472857Y-85599714D01*
X147330000Y-85599714D01*
X147215714Y-85571142D01*
X147158571Y-85542571D01*
X147130000Y-85514000D01*
X147101428Y-85456857D01*
X147701428Y-84971142D02*
X147701428Y-84856857D01*
X147672857Y-84799714D01*
X147644285Y-84771142D01*
X147558571Y-84714000D01*
X147444285Y-84685428D01*
X147215714Y-84685428D01*
X147158571Y-84714000D01*
X147130000Y-84742571D01*
X147101428Y-84799714D01*
X147101428Y-84914000D01*
X147130000Y-84971142D01*
X147158571Y-84999714D01*
X147215714Y-85028285D01*
X147358571Y-85028285D01*
X147415714Y-84999714D01*
X147444285Y-84971142D01*
X147472857Y-84914000D01*
X147472857Y-84799714D01*
X147444285Y-84742571D01*
X147415714Y-84714000D01*
X147358571Y-84685428D01*
X147701428Y-84428285D02*
X147101428Y-84428285D01*
X147101428Y-84285428D01*
X147130000Y-84199714D01*
X147187142Y-84142571D01*
X147244285Y-84114000D01*
X147358571Y-84085428D01*
X147444285Y-84085428D01*
X147558571Y-84114000D01*
X147615714Y-84142571D01*
X147672857Y-84199714D01*
X147701428Y-84285428D01*
X147701428Y-84428285D01*
X147701428Y-83485428D02*
X147415714Y-83685428D01*
X147701428Y-83828285D02*
X147101428Y-83828285D01*
X147101428Y-83599714D01*
X147130000Y-83542571D01*
X147158571Y-83514000D01*
X147215714Y-83485428D01*
X147301428Y-83485428D01*
X147358571Y-83514000D01*
X147387142Y-83542571D01*
X147415714Y-83599714D01*
X147415714Y-83828285D01*
X147387142Y-83028285D02*
X147415714Y-82942571D01*
X147444285Y-82914000D01*
X147501428Y-82885428D01*
X147587142Y-82885428D01*
X147644285Y-82914000D01*
X147672857Y-82942571D01*
X147701428Y-82999714D01*
X147701428Y-83228285D01*
X147101428Y-83228285D01*
X147101428Y-83028285D01*
X147130000Y-82971142D01*
X147158571Y-82942571D01*
X147215714Y-82914000D01*
X147272857Y-82914000D01*
X147330000Y-82942571D01*
X147358571Y-82971142D01*
X147387142Y-83028285D01*
X147387142Y-83228285D01*
X147701428Y-82285428D02*
X147415714Y-82485428D01*
X147701428Y-82628285D02*
X147101428Y-82628285D01*
X147101428Y-82399714D01*
X147130000Y-82342571D01*
X147158571Y-82314000D01*
X147215714Y-82285428D01*
X147301428Y-82285428D01*
X147358571Y-82314000D01*
X147387142Y-82342571D01*
X147415714Y-82399714D01*
X147415714Y-82628285D01*
X147942380Y-87984000D02*
X148180476Y-87984000D01*
X148085238Y-88222095D02*
X148180476Y-87984000D01*
X148085238Y-87745904D01*
X148370952Y-88126857D02*
X148180476Y-87984000D01*
X148370952Y-87841142D01*
X153866666Y-67340666D02*
X153166666Y-67340666D01*
X153666666Y-67107333D01*
X153166666Y-66874000D01*
X153866666Y-66874000D01*
X153800000Y-66140666D02*
X153833333Y-66174000D01*
X153866666Y-66274000D01*
X153866666Y-66340666D01*
X153833333Y-66440666D01*
X153766666Y-66507333D01*
X153700000Y-66540666D01*
X153566666Y-66574000D01*
X153466666Y-66574000D01*
X153333333Y-66540666D01*
X153266666Y-66507333D01*
X153200000Y-66440666D01*
X153166666Y-66340666D01*
X153166666Y-66274000D01*
X153200000Y-66174000D01*
X153233333Y-66140666D01*
X153866666Y-65840666D02*
X153166666Y-65840666D01*
X153166666Y-65574000D01*
X153200000Y-65507333D01*
X153233333Y-65474000D01*
X153300000Y-65440666D01*
X153400000Y-65440666D01*
X153466666Y-65474000D01*
X153500000Y-65507333D01*
X153533333Y-65574000D01*
X153533333Y-65840666D01*
X153166666Y-65207333D02*
X153166666Y-64774000D01*
X153433333Y-65007333D01*
X153433333Y-64907333D01*
X153466666Y-64840666D01*
X153500000Y-64807333D01*
X153566666Y-64774000D01*
X153733333Y-64774000D01*
X153800000Y-64807333D01*
X153833333Y-64840666D01*
X153866666Y-64907333D01*
X153866666Y-65107333D01*
X153833333Y-65174000D01*
X153800000Y-65207333D01*
X153166666Y-64340666D02*
X153166666Y-64274000D01*
X153200000Y-64207333D01*
X153233333Y-64174000D01*
X153300000Y-64140666D01*
X153433333Y-64107333D01*
X153600000Y-64107333D01*
X153733333Y-64140666D01*
X153800000Y-64174000D01*
X153833333Y-64207333D01*
X153866666Y-64274000D01*
X153866666Y-64340666D01*
X153833333Y-64407333D01*
X153800000Y-64440666D01*
X153733333Y-64474000D01*
X153600000Y-64507333D01*
X153433333Y-64507333D01*
X153300000Y-64474000D01*
X153233333Y-64440666D01*
X153200000Y-64407333D01*
X153166666Y-64340666D01*
X153233333Y-63840666D02*
X153200000Y-63807333D01*
X153166666Y-63740666D01*
X153166666Y-63574000D01*
X153200000Y-63507333D01*
X153233333Y-63474000D01*
X153300000Y-63440666D01*
X153366666Y-63440666D01*
X153466666Y-63474000D01*
X153866666Y-63874000D01*
X153866666Y-63440666D01*
X153866666Y-62774000D02*
X153866666Y-63174000D01*
X153866666Y-62974000D02*
X153166666Y-62974000D01*
X153266666Y-63040666D01*
X153333333Y-63107333D01*
X153366666Y-63174000D01*
X125286666Y-73810666D02*
X124953333Y-73810666D01*
X124953333Y-73110666D01*
X125453333Y-73110666D02*
X125886666Y-73110666D01*
X125653333Y-73377333D01*
X125753333Y-73377333D01*
X125820000Y-73410666D01*
X125853333Y-73444000D01*
X125886666Y-73510666D01*
X125886666Y-73677333D01*
X125853333Y-73744000D01*
X125820000Y-73777333D01*
X125753333Y-73810666D01*
X125553333Y-73810666D01*
X125486666Y-73777333D01*
X125453333Y-73744000D01*
X126320000Y-73110666D02*
X126386666Y-73110666D01*
X126453333Y-73144000D01*
X126486666Y-73177333D01*
X126520000Y-73244000D01*
X126553333Y-73377333D01*
X126553333Y-73544000D01*
X126520000Y-73677333D01*
X126486666Y-73744000D01*
X126453333Y-73777333D01*
X126386666Y-73810666D01*
X126320000Y-73810666D01*
X126253333Y-73777333D01*
X126220000Y-73744000D01*
X126186666Y-73677333D01*
X126153333Y-73544000D01*
X126153333Y-73377333D01*
X126186666Y-73244000D01*
X126220000Y-73177333D01*
X126253333Y-73144000D01*
X126320000Y-73110666D01*
X127220000Y-73810666D02*
X126820000Y-73810666D01*
X127020000Y-73810666D02*
X127020000Y-73110666D01*
X126953333Y-73210666D01*
X126886666Y-73277333D01*
X126820000Y-73310666D01*
X126813333Y-77320666D02*
X127246666Y-77320666D01*
X127013333Y-77587333D01*
X127113333Y-77587333D01*
X127180000Y-77620666D01*
X127213333Y-77654000D01*
X127246666Y-77720666D01*
X127246666Y-77887333D01*
X127213333Y-77954000D01*
X127180000Y-77987333D01*
X127113333Y-78020666D01*
X126913333Y-78020666D01*
X126846666Y-77987333D01*
X126813333Y-77954000D01*
X127546666Y-77954000D02*
X127580000Y-77987333D01*
X127546666Y-78020666D01*
X127513333Y-77987333D01*
X127546666Y-77954000D01*
X127546666Y-78020666D01*
X127813333Y-77320666D02*
X128246666Y-77320666D01*
X128013333Y-77587333D01*
X128113333Y-77587333D01*
X128180000Y-77620666D01*
X128213333Y-77654000D01*
X128246666Y-77720666D01*
X128246666Y-77887333D01*
X128213333Y-77954000D01*
X128180000Y-77987333D01*
X128113333Y-78020666D01*
X127913333Y-78020666D01*
X127846666Y-77987333D01*
X127813333Y-77954000D01*
X128846666Y-77554000D02*
X128846666Y-78020666D01*
X128546666Y-77554000D02*
X128546666Y-77920666D01*
X128580000Y-77987333D01*
X128646666Y-78020666D01*
X128746666Y-78020666D01*
X128813333Y-77987333D01*
X128846666Y-77954000D01*
X129180000Y-78020666D02*
X129180000Y-77320666D01*
X129180000Y-77654000D02*
X129580000Y-77654000D01*
X129580000Y-78020666D02*
X129580000Y-77320666D01*
X151976666Y-98636380D02*
X151976666Y-99350666D01*
X151929047Y-99493523D01*
X151833809Y-99588761D01*
X151690952Y-99636380D01*
X151595714Y-99636380D01*
X152929047Y-98636380D02*
X152452857Y-98636380D01*
X152405238Y-99112571D01*
X152452857Y-99064952D01*
X152548095Y-99017333D01*
X152786190Y-99017333D01*
X152881428Y-99064952D01*
X152929047Y-99112571D01*
X152976666Y-99207809D01*
X152976666Y-99445904D01*
X152929047Y-99541142D01*
X152881428Y-99588761D01*
X152786190Y-99636380D01*
X152548095Y-99636380D01*
X152452857Y-99588761D01*
X152405238Y-99541142D01*
X134433333Y-89170666D02*
X134866666Y-89170666D01*
X134633333Y-89437333D01*
X134733333Y-89437333D01*
X134800000Y-89470666D01*
X134833333Y-89504000D01*
X134866666Y-89570666D01*
X134866666Y-89737333D01*
X134833333Y-89804000D01*
X134800000Y-89837333D01*
X134733333Y-89870666D01*
X134533333Y-89870666D01*
X134466666Y-89837333D01*
X134433333Y-89804000D01*
X135300000Y-89170666D02*
X135366666Y-89170666D01*
X135433333Y-89204000D01*
X135466666Y-89237333D01*
X135500000Y-89304000D01*
X135533333Y-89437333D01*
X135533333Y-89604000D01*
X135500000Y-89737333D01*
X135466666Y-89804000D01*
X135433333Y-89837333D01*
X135366666Y-89870666D01*
X135300000Y-89870666D01*
X135233333Y-89837333D01*
X135200000Y-89804000D01*
X135166666Y-89737333D01*
X135133333Y-89604000D01*
X135133333Y-89437333D01*
X135166666Y-89304000D01*
X135200000Y-89237333D01*
X135233333Y-89204000D01*
X135300000Y-89170666D01*
X135733333Y-89170666D02*
X135966666Y-89870666D01*
X136200000Y-89170666D01*
X129326666Y-81544000D02*
X129293333Y-81577333D01*
X129193333Y-81610666D01*
X129126666Y-81610666D01*
X129026666Y-81577333D01*
X128960000Y-81510666D01*
X128926666Y-81444000D01*
X128893333Y-81310666D01*
X128893333Y-81210666D01*
X128926666Y-81077333D01*
X128960000Y-81010666D01*
X129026666Y-80944000D01*
X129126666Y-80910666D01*
X129193333Y-80910666D01*
X129293333Y-80944000D01*
X129326666Y-80977333D01*
X129560000Y-80910666D02*
X129993333Y-80910666D01*
X129760000Y-81177333D01*
X129860000Y-81177333D01*
X129926666Y-81210666D01*
X129960000Y-81244000D01*
X129993333Y-81310666D01*
X129993333Y-81477333D01*
X129960000Y-81544000D01*
X129926666Y-81577333D01*
X129860000Y-81610666D01*
X129660000Y-81610666D01*
X129593333Y-81577333D01*
X129560000Y-81544000D01*
X130660000Y-81610666D02*
X130260000Y-81610666D01*
X130460000Y-81610666D02*
X130460000Y-80910666D01*
X130393333Y-81010666D01*
X130326666Y-81077333D01*
X130260000Y-81110666D01*
X130926666Y-80977333D02*
X130960000Y-80944000D01*
X131026666Y-80910666D01*
X131193333Y-80910666D01*
X131260000Y-80944000D01*
X131293333Y-80977333D01*
X131326666Y-81044000D01*
X131326666Y-81110666D01*
X131293333Y-81210666D01*
X130893333Y-81610666D01*
X131326666Y-81610666D01*
X128063333Y-85914000D02*
X128063333Y-86380666D01*
X127896666Y-85647333D02*
X127730000Y-86147333D01*
X128163333Y-86147333D01*
X128363333Y-85680666D02*
X128830000Y-85680666D01*
X128530000Y-86380666D01*
X129396666Y-85914000D02*
X129396666Y-86380666D01*
X129096666Y-85914000D02*
X129096666Y-86280666D01*
X129130000Y-86347333D01*
X129196666Y-86380666D01*
X129296666Y-86380666D01*
X129363333Y-86347333D01*
X129396666Y-86314000D01*
X129963333Y-86014000D02*
X129730000Y-86014000D01*
X129730000Y-86380666D02*
X129730000Y-85680666D01*
X130063333Y-85680666D01*
X132764047Y-80521428D02*
X133525952Y-80521428D01*
X133145000Y-80902380D02*
X133145000Y-80140476D01*
X111426666Y-60924000D02*
X111426666Y-61324000D01*
X111426666Y-61124000D02*
X110726666Y-61124000D01*
X110826666Y-61190666D01*
X110893333Y-61257333D01*
X110926666Y-61324000D01*
X110726666Y-60490666D02*
X110726666Y-60424000D01*
X110760000Y-60357333D01*
X110793333Y-60324000D01*
X110860000Y-60290666D01*
X110993333Y-60257333D01*
X111160000Y-60257333D01*
X111293333Y-60290666D01*
X111360000Y-60324000D01*
X111393333Y-60357333D01*
X111426666Y-60424000D01*
X111426666Y-60490666D01*
X111393333Y-60557333D01*
X111360000Y-60590666D01*
X111293333Y-60624000D01*
X111160000Y-60657333D01*
X110993333Y-60657333D01*
X110860000Y-60624000D01*
X110793333Y-60590666D01*
X110760000Y-60557333D01*
X110726666Y-60490666D01*
X110960000Y-59657333D02*
X111426666Y-59657333D01*
X110960000Y-59957333D02*
X111326666Y-59957333D01*
X111393333Y-59924000D01*
X111426666Y-59857333D01*
X111426666Y-59757333D01*
X111393333Y-59690666D01*
X111360000Y-59657333D01*
X111060000Y-59090666D02*
X111060000Y-59324000D01*
X111426666Y-59324000D02*
X110726666Y-59324000D01*
X110726666Y-58990666D01*
X108336666Y-50960666D02*
X107936666Y-50960666D01*
X108136666Y-50960666D02*
X108136666Y-50260666D01*
X108070000Y-50360666D01*
X108003333Y-50427333D01*
X107936666Y-50460666D01*
X108770000Y-50260666D02*
X108836666Y-50260666D01*
X108903333Y-50294000D01*
X108936666Y-50327333D01*
X108970000Y-50394000D01*
X109003333Y-50527333D01*
X109003333Y-50694000D01*
X108970000Y-50827333D01*
X108936666Y-50894000D01*
X108903333Y-50927333D01*
X108836666Y-50960666D01*
X108770000Y-50960666D01*
X108703333Y-50927333D01*
X108670000Y-50894000D01*
X108636666Y-50827333D01*
X108603333Y-50694000D01*
X108603333Y-50527333D01*
X108636666Y-50394000D01*
X108670000Y-50327333D01*
X108703333Y-50294000D01*
X108770000Y-50260666D01*
X109436666Y-50260666D02*
X109503333Y-50260666D01*
X109570000Y-50294000D01*
X109603333Y-50327333D01*
X109636666Y-50394000D01*
X109670000Y-50527333D01*
X109670000Y-50694000D01*
X109636666Y-50827333D01*
X109603333Y-50894000D01*
X109570000Y-50927333D01*
X109503333Y-50960666D01*
X109436666Y-50960666D01*
X109370000Y-50927333D01*
X109336666Y-50894000D01*
X109303333Y-50827333D01*
X109270000Y-50694000D01*
X109270000Y-50527333D01*
X109303333Y-50394000D01*
X109336666Y-50327333D01*
X109370000Y-50294000D01*
X109436666Y-50260666D01*
X109970000Y-50494000D02*
X109970000Y-50960666D01*
X109970000Y-50560666D02*
X110003333Y-50527333D01*
X110070000Y-50494000D01*
X110170000Y-50494000D01*
X110236666Y-50527333D01*
X110270000Y-50594000D01*
X110270000Y-50960666D01*
X110836666Y-50594000D02*
X110603333Y-50594000D01*
X110603333Y-50960666D02*
X110603333Y-50260666D01*
X110936666Y-50260666D01*
X160586666Y-64190666D02*
X160586666Y-63490666D01*
X160853333Y-63490666D01*
X160920000Y-63524000D01*
X160953333Y-63557333D01*
X160986666Y-63624000D01*
X160986666Y-63724000D01*
X160953333Y-63790666D01*
X160920000Y-63824000D01*
X160853333Y-63857333D01*
X160586666Y-63857333D01*
X161220000Y-63490666D02*
X161386666Y-64190666D01*
X161520000Y-63690666D01*
X161653333Y-64190666D01*
X161820000Y-63490666D01*
X162486666Y-64190666D02*
X162253333Y-63857333D01*
X162086666Y-64190666D02*
X162086666Y-63490666D01*
X162353333Y-63490666D01*
X162420000Y-63524000D01*
X162453333Y-63557333D01*
X162486666Y-63624000D01*
X162486666Y-63724000D01*
X162453333Y-63790666D01*
X162420000Y-63824000D01*
X162353333Y-63857333D01*
X162086666Y-63857333D01*
X108557380Y-82497619D02*
X108557380Y-82402380D01*
X108605000Y-82307142D01*
X108652619Y-82259523D01*
X108747857Y-82211904D01*
X108938333Y-82164285D01*
X109176428Y-82164285D01*
X109366904Y-82211904D01*
X109462142Y-82259523D01*
X109509761Y-82307142D01*
X109557380Y-82402380D01*
X109557380Y-82497619D01*
X109509761Y-82592857D01*
X109462142Y-82640476D01*
X109366904Y-82688095D01*
X109176428Y-82735714D01*
X108938333Y-82735714D01*
X108747857Y-82688095D01*
X108652619Y-82640476D01*
X108605000Y-82592857D01*
X108557380Y-82497619D01*
X109557380Y-84704285D02*
X109557380Y-85275714D01*
X109557380Y-84990000D02*
X108557380Y-84990000D01*
X108700238Y-85085238D01*
X108795476Y-85180476D01*
X108843095Y-85275714D01*
X108662619Y-87815714D02*
X108615000Y-87768095D01*
X108567380Y-87672857D01*
X108567380Y-87434761D01*
X108615000Y-87339523D01*
X108662619Y-87291904D01*
X108757857Y-87244285D01*
X108853095Y-87244285D01*
X108995952Y-87291904D01*
X109567380Y-87863333D01*
X109567380Y-87244285D01*
X108567380Y-90403333D02*
X108567380Y-89784285D01*
X108948333Y-90117619D01*
X108948333Y-89974761D01*
X108995952Y-89879523D01*
X109043571Y-89831904D01*
X109138809Y-89784285D01*
X109376904Y-89784285D01*
X109472142Y-89831904D01*
X109519761Y-89879523D01*
X109567380Y-89974761D01*
X109567380Y-90260476D01*
X109519761Y-90355714D01*
X109472142Y-90403333D01*
X108080000Y-56120666D02*
X108413333Y-56120666D01*
X108013333Y-56320666D02*
X108246666Y-55620666D01*
X108480000Y-56320666D01*
X108846666Y-55620666D02*
X108913333Y-55620666D01*
X108980000Y-55654000D01*
X109013333Y-55687333D01*
X109046666Y-55754000D01*
X109080000Y-55887333D01*
X109080000Y-56054000D01*
X109046666Y-56187333D01*
X109013333Y-56254000D01*
X108980000Y-56287333D01*
X108913333Y-56320666D01*
X108846666Y-56320666D01*
X108780000Y-56287333D01*
X108746666Y-56254000D01*
X108713333Y-56187333D01*
X108680000Y-56054000D01*
X108680000Y-55887333D01*
X108713333Y-55754000D01*
X108746666Y-55687333D01*
X108780000Y-55654000D01*
X108846666Y-55620666D01*
X110093333Y-65197333D02*
X110060000Y-65164000D01*
X110026666Y-65097333D01*
X110026666Y-64930666D01*
X110060000Y-64864000D01*
X110093333Y-64830666D01*
X110160000Y-64797333D01*
X110226666Y-64797333D01*
X110326666Y-64830666D01*
X110726666Y-65230666D01*
X110726666Y-64797333D01*
X110093333Y-64530666D02*
X110060000Y-64497333D01*
X110026666Y-64430666D01*
X110026666Y-64264000D01*
X110060000Y-64197333D01*
X110093333Y-64164000D01*
X110160000Y-64130666D01*
X110226666Y-64130666D01*
X110326666Y-64164000D01*
X110726666Y-64564000D01*
X110726666Y-64130666D01*
X110026666Y-63697333D02*
X110026666Y-63630666D01*
X110060000Y-63564000D01*
X110093333Y-63530666D01*
X110160000Y-63497333D01*
X110293333Y-63464000D01*
X110460000Y-63464000D01*
X110593333Y-63497333D01*
X110660000Y-63530666D01*
X110693333Y-63564000D01*
X110726666Y-63630666D01*
X110726666Y-63697333D01*
X110693333Y-63764000D01*
X110660000Y-63797333D01*
X110593333Y-63830666D01*
X110460000Y-63864000D01*
X110293333Y-63864000D01*
X110160000Y-63830666D01*
X110093333Y-63797333D01*
X110060000Y-63764000D01*
X110026666Y-63697333D01*
X110726666Y-63230666D02*
X110260000Y-62864000D01*
X110260000Y-63230666D02*
X110726666Y-62864000D01*
X110260000Y-62297333D02*
X110726666Y-62297333D01*
X109993333Y-62464000D02*
X110493333Y-62630666D01*
X110493333Y-62197333D01*
D19*
X130599047Y-69056380D02*
X130599047Y-68056380D01*
X130932380Y-68770666D01*
X131265714Y-68056380D01*
X131265714Y-69056380D01*
X131741904Y-69056380D02*
X131741904Y-68056380D01*
X132122857Y-68056380D01*
X132218095Y-68104000D01*
X132265714Y-68151619D01*
X132313333Y-68246857D01*
X132313333Y-68389714D01*
X132265714Y-68484952D01*
X132218095Y-68532571D01*
X132122857Y-68580190D01*
X131741904Y-68580190D01*
X132741904Y-68056380D02*
X132741904Y-68865904D01*
X132789523Y-68961142D01*
X132837142Y-69008761D01*
X132932380Y-69056380D01*
X133122857Y-69056380D01*
X133218095Y-69008761D01*
X133265714Y-68961142D01*
X133313333Y-68865904D01*
X133313333Y-68056380D01*
X133789523Y-68675428D02*
X134551428Y-68675428D01*
X135075238Y-69056380D02*
X135265714Y-69056380D01*
X135360952Y-69008761D01*
X135408571Y-68961142D01*
X135503809Y-68818285D01*
X135551428Y-68627809D01*
X135551428Y-68246857D01*
X135503809Y-68151619D01*
X135456190Y-68104000D01*
X135360952Y-68056380D01*
X135170476Y-68056380D01*
X135075238Y-68104000D01*
X135027619Y-68151619D01*
X134980000Y-68246857D01*
X134980000Y-68484952D01*
X135027619Y-68580190D01*
X135075238Y-68627809D01*
X135170476Y-68675428D01*
X135360952Y-68675428D01*
X135456190Y-68627809D01*
X135503809Y-68580190D01*
X135551428Y-68484952D01*
X135932380Y-68151619D02*
X135980000Y-68104000D01*
X136075238Y-68056380D01*
X136313333Y-68056380D01*
X136408571Y-68104000D01*
X136456190Y-68151619D01*
X136503809Y-68246857D01*
X136503809Y-68342095D01*
X136456190Y-68484952D01*
X135884761Y-69056380D01*
X136503809Y-69056380D01*
X137408571Y-68056380D02*
X136932380Y-68056380D01*
X136884761Y-68532571D01*
X136932380Y-68484952D01*
X137027619Y-68437333D01*
X137265714Y-68437333D01*
X137360952Y-68484952D01*
X137408571Y-68532571D01*
X137456190Y-68627809D01*
X137456190Y-68865904D01*
X137408571Y-68961142D01*
X137360952Y-69008761D01*
X137265714Y-69056380D01*
X137027619Y-69056380D01*
X136932380Y-69008761D01*
X136884761Y-68961142D01*
X138075238Y-68056380D02*
X138170476Y-68056380D01*
X138265714Y-68104000D01*
X138313333Y-68151619D01*
X138360952Y-68246857D01*
X138408571Y-68437333D01*
X138408571Y-68675428D01*
X138360952Y-68865904D01*
X138313333Y-68961142D01*
X138265714Y-69008761D01*
X138170476Y-69056380D01*
X138075238Y-69056380D01*
X137980000Y-69008761D01*
X137932380Y-68961142D01*
X137884761Y-68865904D01*
X137837142Y-68675428D01*
X137837142Y-68437333D01*
X137884761Y-68246857D01*
X137932380Y-68151619D01*
X137980000Y-68104000D01*
X138075238Y-68056380D01*
M02*
