G04 #@! TF.GenerationSoftware,KiCad,Pcbnew,(5.1.4)-1*
G04 #@! TF.CreationDate,2019-12-09T00:56:35+11:00*
G04 #@! TF.ProjectId,dingo-hat,64696e67-6f2d-4686-9174-2e6b69636164,rev?*
G04 #@! TF.SameCoordinates,Original*
G04 #@! TF.FileFunction,Soldermask,Bot*
G04 #@! TF.FilePolarity,Negative*
%FSLAX46Y46*%
G04 Gerber Fmt 4.6, Leading zero omitted, Abs format (unit mm)*
G04 Created by KiCad (PCBNEW (5.1.4)-1) date 2019-12-09 00:56:35*
%MOMM*%
%LPD*%
G04 APERTURE LIST*
%ADD10C,0.010000*%
%ADD11C,0.100000*%
G04 APERTURE END LIST*
D10*
G36*
X150856464Y-112051257D02*
G01*
X150839021Y-112065693D01*
X150813661Y-112089627D01*
X150781967Y-112121407D01*
X150745521Y-112159381D01*
X150705905Y-112201895D01*
X150664702Y-112247296D01*
X150623495Y-112293933D01*
X150583865Y-112340152D01*
X150578221Y-112346867D01*
X150399488Y-112573144D01*
X150235073Y-112808208D01*
X150085227Y-113051499D01*
X149950200Y-113302456D01*
X149830244Y-113560520D01*
X149725610Y-113825130D01*
X149636547Y-114095726D01*
X149563307Y-114371750D01*
X149506141Y-114652639D01*
X149484416Y-114789500D01*
X149471982Y-114878971D01*
X149461922Y-114959916D01*
X149454007Y-115035841D01*
X149448008Y-115110249D01*
X149443697Y-115186646D01*
X149440845Y-115268535D01*
X149439224Y-115359420D01*
X149438606Y-115462806D01*
X149438581Y-115492233D01*
X149439654Y-115633933D01*
X149443127Y-115762726D01*
X149449382Y-115882517D01*
X149458799Y-115997213D01*
X149471759Y-116110719D01*
X149488643Y-116226941D01*
X149509831Y-116349783D01*
X149534785Y-116478600D01*
X149597986Y-116749421D01*
X149677310Y-117017188D01*
X149772180Y-117280658D01*
X149882015Y-117538589D01*
X150006235Y-117789739D01*
X150144262Y-118032864D01*
X150295515Y-118266722D01*
X150459415Y-118490071D01*
X150492378Y-118531767D01*
X150680692Y-118753820D01*
X150879767Y-118962900D01*
X151089188Y-119158755D01*
X151308541Y-119341133D01*
X151537411Y-119509784D01*
X151775384Y-119664455D01*
X152022045Y-119804896D01*
X152276979Y-119930854D01*
X152539773Y-120042077D01*
X152810010Y-120138315D01*
X153087277Y-120219316D01*
X153371159Y-120284829D01*
X153387067Y-120287999D01*
X153471665Y-120303380D01*
X153565779Y-120318161D01*
X153665917Y-120331961D01*
X153768590Y-120344398D01*
X153870305Y-120355091D01*
X153967571Y-120363657D01*
X154056897Y-120369715D01*
X154134793Y-120372883D01*
X154166726Y-120373265D01*
X154239418Y-120373267D01*
X154316926Y-120563767D01*
X154434080Y-120564427D01*
X154481732Y-120564465D01*
X154527748Y-120564093D01*
X154567236Y-120563378D01*
X154595303Y-120562384D01*
X154597800Y-120562241D01*
X154892229Y-120535987D01*
X155183216Y-120493541D01*
X155470083Y-120435118D01*
X155752150Y-120360932D01*
X156028740Y-120271199D01*
X156299173Y-120166134D01*
X156562771Y-120045950D01*
X156818856Y-119910863D01*
X157005422Y-119799997D01*
X157247932Y-119638846D01*
X157479036Y-119465551D01*
X157698455Y-119280717D01*
X157905907Y-119084951D01*
X158101114Y-118878858D01*
X158283796Y-118663043D01*
X158453671Y-118438111D01*
X158610461Y-118204668D01*
X158753884Y-117963319D01*
X158883662Y-117714671D01*
X158999514Y-117459327D01*
X159101160Y-117197894D01*
X159188320Y-116930978D01*
X159260715Y-116659183D01*
X159318063Y-116383115D01*
X159360085Y-116103379D01*
X159386501Y-115820581D01*
X159397031Y-115535327D01*
X159391396Y-115248221D01*
X159369314Y-114959870D01*
X159342387Y-114747167D01*
X159292893Y-114468248D01*
X159227433Y-114190959D01*
X159146633Y-113917336D01*
X159051120Y-113649416D01*
X158941519Y-113389234D01*
X158893541Y-113287094D01*
X158870117Y-113239364D01*
X158844358Y-113187960D01*
X158817549Y-113135334D01*
X158790975Y-113083939D01*
X158765919Y-113036227D01*
X158743667Y-112994652D01*
X158725504Y-112961666D01*
X158712713Y-112939722D01*
X158707734Y-112932350D01*
X158699983Y-112935078D01*
X158681433Y-112944664D01*
X158655657Y-112959011D01*
X158626226Y-112976018D01*
X158596712Y-112993587D01*
X158570685Y-113009619D01*
X158551719Y-113022015D01*
X158543384Y-113028676D01*
X158543267Y-113029004D01*
X158547181Y-113037741D01*
X158557688Y-113057699D01*
X158572941Y-113085418D01*
X158582707Y-113102761D01*
X158610588Y-113153786D01*
X158643196Y-113216543D01*
X158678658Y-113287168D01*
X158715105Y-113361798D01*
X158750662Y-113436569D01*
X158783460Y-113507618D01*
X158811625Y-113571081D01*
X158825628Y-113604167D01*
X158926898Y-113870001D01*
X159012200Y-114138510D01*
X159081818Y-114410918D01*
X159136032Y-114688448D01*
X159175126Y-114972323D01*
X159195959Y-115208600D01*
X159201689Y-115332761D01*
X159203391Y-115468879D01*
X159201246Y-115612507D01*
X159195433Y-115759199D01*
X159186133Y-115904511D01*
X159173527Y-116043995D01*
X159157793Y-116173207D01*
X159156505Y-116182267D01*
X159108425Y-116458019D01*
X159043915Y-116731808D01*
X158963461Y-117002451D01*
X158867549Y-117268766D01*
X158756665Y-117529569D01*
X158631295Y-117783679D01*
X158491924Y-118029912D01*
X158339038Y-118267085D01*
X158247114Y-118396300D01*
X158081684Y-118607689D01*
X157902964Y-118811350D01*
X157712588Y-119005769D01*
X157512191Y-119189431D01*
X157303406Y-119360820D01*
X157087868Y-119518421D01*
X156914968Y-119631513D01*
X156669052Y-119775301D01*
X156420472Y-119902849D01*
X156167691Y-120014812D01*
X155909171Y-120111847D01*
X155643375Y-120194608D01*
X155512494Y-120229523D01*
X155344789Y-120268302D01*
X155171180Y-120301632D01*
X154995254Y-120329069D01*
X154820603Y-120350165D01*
X154650814Y-120364474D01*
X154489477Y-120371550D01*
X154369200Y-120371709D01*
X154237967Y-120369034D01*
X154160905Y-120178534D01*
X154138239Y-120122532D01*
X154110710Y-120054563D01*
X154079825Y-119978346D01*
X154047093Y-119897603D01*
X154014022Y-119816053D01*
X153982120Y-119737418D01*
X153968720Y-119704400D01*
X153939735Y-119632963D01*
X153905054Y-119547449D01*
X153865334Y-119449474D01*
X153821230Y-119340660D01*
X153773397Y-119222624D01*
X153722492Y-119096985D01*
X153669170Y-118965363D01*
X153614086Y-118829377D01*
X153557897Y-118690645D01*
X153501257Y-118550787D01*
X153444824Y-118411421D01*
X153389251Y-118274166D01*
X153335195Y-118140642D01*
X153283312Y-118012467D01*
X153234256Y-117891261D01*
X153188685Y-117778641D01*
X153147253Y-117676228D01*
X153110616Y-117585640D01*
X153080657Y-117511534D01*
X153044552Y-117422234D01*
X153005710Y-117326225D01*
X152965563Y-117227045D01*
X152925544Y-117128233D01*
X152887087Y-117033325D01*
X152851625Y-116945862D01*
X152820591Y-116869381D01*
X152811462Y-116846900D01*
X152787714Y-116788405D01*
X152758001Y-116715176D01*
X152722713Y-116628175D01*
X152682240Y-116528363D01*
X152636971Y-116416702D01*
X152587297Y-116294155D01*
X152533606Y-116161682D01*
X152476288Y-116020246D01*
X152415732Y-115870809D01*
X152352329Y-115714332D01*
X152286468Y-115551778D01*
X152218538Y-115384107D01*
X152148929Y-115212282D01*
X152078031Y-115037265D01*
X152006233Y-114860018D01*
X151933925Y-114681502D01*
X151861496Y-114502679D01*
X151789336Y-114324511D01*
X151717834Y-114147960D01*
X151647381Y-113973988D01*
X151578365Y-113803556D01*
X151511176Y-113637627D01*
X151446205Y-113477162D01*
X151383840Y-113323122D01*
X151324470Y-113176471D01*
X151268487Y-113038169D01*
X151216278Y-112909178D01*
X151168234Y-112790461D01*
X151124745Y-112682979D01*
X151086199Y-112587693D01*
X151052987Y-112505567D01*
X151033328Y-112456933D01*
X151001694Y-112378835D01*
X150971847Y-112305477D01*
X150944408Y-112238364D01*
X150919998Y-112178997D01*
X150899238Y-112128881D01*
X150882748Y-112089518D01*
X150871149Y-112062412D01*
X150865063Y-112049065D01*
X150864407Y-112047972D01*
X150856464Y-112051257D01*
X150856464Y-112051257D01*
G37*
X150856464Y-112051257D02*
X150839021Y-112065693D01*
X150813661Y-112089627D01*
X150781967Y-112121407D01*
X150745521Y-112159381D01*
X150705905Y-112201895D01*
X150664702Y-112247296D01*
X150623495Y-112293933D01*
X150583865Y-112340152D01*
X150578221Y-112346867D01*
X150399488Y-112573144D01*
X150235073Y-112808208D01*
X150085227Y-113051499D01*
X149950200Y-113302456D01*
X149830244Y-113560520D01*
X149725610Y-113825130D01*
X149636547Y-114095726D01*
X149563307Y-114371750D01*
X149506141Y-114652639D01*
X149484416Y-114789500D01*
X149471982Y-114878971D01*
X149461922Y-114959916D01*
X149454007Y-115035841D01*
X149448008Y-115110249D01*
X149443697Y-115186646D01*
X149440845Y-115268535D01*
X149439224Y-115359420D01*
X149438606Y-115462806D01*
X149438581Y-115492233D01*
X149439654Y-115633933D01*
X149443127Y-115762726D01*
X149449382Y-115882517D01*
X149458799Y-115997213D01*
X149471759Y-116110719D01*
X149488643Y-116226941D01*
X149509831Y-116349783D01*
X149534785Y-116478600D01*
X149597986Y-116749421D01*
X149677310Y-117017188D01*
X149772180Y-117280658D01*
X149882015Y-117538589D01*
X150006235Y-117789739D01*
X150144262Y-118032864D01*
X150295515Y-118266722D01*
X150459415Y-118490071D01*
X150492378Y-118531767D01*
X150680692Y-118753820D01*
X150879767Y-118962900D01*
X151089188Y-119158755D01*
X151308541Y-119341133D01*
X151537411Y-119509784D01*
X151775384Y-119664455D01*
X152022045Y-119804896D01*
X152276979Y-119930854D01*
X152539773Y-120042077D01*
X152810010Y-120138315D01*
X153087277Y-120219316D01*
X153371159Y-120284829D01*
X153387067Y-120287999D01*
X153471665Y-120303380D01*
X153565779Y-120318161D01*
X153665917Y-120331961D01*
X153768590Y-120344398D01*
X153870305Y-120355091D01*
X153967571Y-120363657D01*
X154056897Y-120369715D01*
X154134793Y-120372883D01*
X154166726Y-120373265D01*
X154239418Y-120373267D01*
X154316926Y-120563767D01*
X154434080Y-120564427D01*
X154481732Y-120564465D01*
X154527748Y-120564093D01*
X154567236Y-120563378D01*
X154595303Y-120562384D01*
X154597800Y-120562241D01*
X154892229Y-120535987D01*
X155183216Y-120493541D01*
X155470083Y-120435118D01*
X155752150Y-120360932D01*
X156028740Y-120271199D01*
X156299173Y-120166134D01*
X156562771Y-120045950D01*
X156818856Y-119910863D01*
X157005422Y-119799997D01*
X157247932Y-119638846D01*
X157479036Y-119465551D01*
X157698455Y-119280717D01*
X157905907Y-119084951D01*
X158101114Y-118878858D01*
X158283796Y-118663043D01*
X158453671Y-118438111D01*
X158610461Y-118204668D01*
X158753884Y-117963319D01*
X158883662Y-117714671D01*
X158999514Y-117459327D01*
X159101160Y-117197894D01*
X159188320Y-116930978D01*
X159260715Y-116659183D01*
X159318063Y-116383115D01*
X159360085Y-116103379D01*
X159386501Y-115820581D01*
X159397031Y-115535327D01*
X159391396Y-115248221D01*
X159369314Y-114959870D01*
X159342387Y-114747167D01*
X159292893Y-114468248D01*
X159227433Y-114190959D01*
X159146633Y-113917336D01*
X159051120Y-113649416D01*
X158941519Y-113389234D01*
X158893541Y-113287094D01*
X158870117Y-113239364D01*
X158844358Y-113187960D01*
X158817549Y-113135334D01*
X158790975Y-113083939D01*
X158765919Y-113036227D01*
X158743667Y-112994652D01*
X158725504Y-112961666D01*
X158712713Y-112939722D01*
X158707734Y-112932350D01*
X158699983Y-112935078D01*
X158681433Y-112944664D01*
X158655657Y-112959011D01*
X158626226Y-112976018D01*
X158596712Y-112993587D01*
X158570685Y-113009619D01*
X158551719Y-113022015D01*
X158543384Y-113028676D01*
X158543267Y-113029004D01*
X158547181Y-113037741D01*
X158557688Y-113057699D01*
X158572941Y-113085418D01*
X158582707Y-113102761D01*
X158610588Y-113153786D01*
X158643196Y-113216543D01*
X158678658Y-113287168D01*
X158715105Y-113361798D01*
X158750662Y-113436569D01*
X158783460Y-113507618D01*
X158811625Y-113571081D01*
X158825628Y-113604167D01*
X158926898Y-113870001D01*
X159012200Y-114138510D01*
X159081818Y-114410918D01*
X159136032Y-114688448D01*
X159175126Y-114972323D01*
X159195959Y-115208600D01*
X159201689Y-115332761D01*
X159203391Y-115468879D01*
X159201246Y-115612507D01*
X159195433Y-115759199D01*
X159186133Y-115904511D01*
X159173527Y-116043995D01*
X159157793Y-116173207D01*
X159156505Y-116182267D01*
X159108425Y-116458019D01*
X159043915Y-116731808D01*
X158963461Y-117002451D01*
X158867549Y-117268766D01*
X158756665Y-117529569D01*
X158631295Y-117783679D01*
X158491924Y-118029912D01*
X158339038Y-118267085D01*
X158247114Y-118396300D01*
X158081684Y-118607689D01*
X157902964Y-118811350D01*
X157712588Y-119005769D01*
X157512191Y-119189431D01*
X157303406Y-119360820D01*
X157087868Y-119518421D01*
X156914968Y-119631513D01*
X156669052Y-119775301D01*
X156420472Y-119902849D01*
X156167691Y-120014812D01*
X155909171Y-120111847D01*
X155643375Y-120194608D01*
X155512494Y-120229523D01*
X155344789Y-120268302D01*
X155171180Y-120301632D01*
X154995254Y-120329069D01*
X154820603Y-120350165D01*
X154650814Y-120364474D01*
X154489477Y-120371550D01*
X154369200Y-120371709D01*
X154237967Y-120369034D01*
X154160905Y-120178534D01*
X154138239Y-120122532D01*
X154110710Y-120054563D01*
X154079825Y-119978346D01*
X154047093Y-119897603D01*
X154014022Y-119816053D01*
X153982120Y-119737418D01*
X153968720Y-119704400D01*
X153939735Y-119632963D01*
X153905054Y-119547449D01*
X153865334Y-119449474D01*
X153821230Y-119340660D01*
X153773397Y-119222624D01*
X153722492Y-119096985D01*
X153669170Y-118965363D01*
X153614086Y-118829377D01*
X153557897Y-118690645D01*
X153501257Y-118550787D01*
X153444824Y-118411421D01*
X153389251Y-118274166D01*
X153335195Y-118140642D01*
X153283312Y-118012467D01*
X153234256Y-117891261D01*
X153188685Y-117778641D01*
X153147253Y-117676228D01*
X153110616Y-117585640D01*
X153080657Y-117511534D01*
X153044552Y-117422234D01*
X153005710Y-117326225D01*
X152965563Y-117227045D01*
X152925544Y-117128233D01*
X152887087Y-117033325D01*
X152851625Y-116945862D01*
X152820591Y-116869381D01*
X152811462Y-116846900D01*
X152787714Y-116788405D01*
X152758001Y-116715176D01*
X152722713Y-116628175D01*
X152682240Y-116528363D01*
X152636971Y-116416702D01*
X152587297Y-116294155D01*
X152533606Y-116161682D01*
X152476288Y-116020246D01*
X152415732Y-115870809D01*
X152352329Y-115714332D01*
X152286468Y-115551778D01*
X152218538Y-115384107D01*
X152148929Y-115212282D01*
X152078031Y-115037265D01*
X152006233Y-114860018D01*
X151933925Y-114681502D01*
X151861496Y-114502679D01*
X151789336Y-114324511D01*
X151717834Y-114147960D01*
X151647381Y-113973988D01*
X151578365Y-113803556D01*
X151511176Y-113637627D01*
X151446205Y-113477162D01*
X151383840Y-113323122D01*
X151324470Y-113176471D01*
X151268487Y-113038169D01*
X151216278Y-112909178D01*
X151168234Y-112790461D01*
X151124745Y-112682979D01*
X151086199Y-112587693D01*
X151052987Y-112505567D01*
X151033328Y-112456933D01*
X151001694Y-112378835D01*
X150971847Y-112305477D01*
X150944408Y-112238364D01*
X150919998Y-112178997D01*
X150899238Y-112128881D01*
X150882748Y-112089518D01*
X150871149Y-112062412D01*
X150865063Y-112049065D01*
X150864407Y-112047972D01*
X150856464Y-112051257D01*
D11*
G36*
X190238707Y-128007597D02*
G01*
X190315836Y-128015193D01*
X190513762Y-128075233D01*
X190513765Y-128075234D01*
X190696170Y-128172732D01*
X190856055Y-128303945D01*
X190987268Y-128463830D01*
X191084766Y-128646235D01*
X191084767Y-128646238D01*
X191144807Y-128844164D01*
X191165080Y-129050000D01*
X191144807Y-129255836D01*
X191125343Y-129320000D01*
X191084766Y-129453765D01*
X190987268Y-129636170D01*
X190856055Y-129796055D01*
X190696170Y-129927268D01*
X190513765Y-130024766D01*
X190513762Y-130024767D01*
X190315836Y-130084807D01*
X190238707Y-130092404D01*
X190161580Y-130100000D01*
X190058420Y-130100000D01*
X189981293Y-130092404D01*
X189904164Y-130084807D01*
X189706238Y-130024767D01*
X189706235Y-130024766D01*
X189523830Y-129927268D01*
X189363945Y-129796055D01*
X189232732Y-129636170D01*
X189135234Y-129453765D01*
X189094657Y-129320000D01*
X189075193Y-129255836D01*
X189054920Y-129050000D01*
X189075193Y-128844164D01*
X189135233Y-128646238D01*
X189135234Y-128646235D01*
X189232732Y-128463830D01*
X189363945Y-128303945D01*
X189523830Y-128172732D01*
X189706235Y-128075234D01*
X189706238Y-128075233D01*
X189904164Y-128015193D01*
X189981293Y-128007597D01*
X190058420Y-128000000D01*
X190161580Y-128000000D01*
X190238707Y-128007597D01*
X190238707Y-128007597D01*
G37*
G36*
X167378707Y-128007597D02*
G01*
X167455836Y-128015193D01*
X167653762Y-128075233D01*
X167653765Y-128075234D01*
X167836170Y-128172732D01*
X167996055Y-128303945D01*
X168127268Y-128463830D01*
X168224766Y-128646235D01*
X168224767Y-128646238D01*
X168284807Y-128844164D01*
X168305080Y-129050000D01*
X168284807Y-129255836D01*
X168265343Y-129320000D01*
X168224766Y-129453765D01*
X168127268Y-129636170D01*
X167996055Y-129796055D01*
X167836170Y-129927268D01*
X167653765Y-130024766D01*
X167653762Y-130024767D01*
X167455836Y-130084807D01*
X167378707Y-130092404D01*
X167301580Y-130100000D01*
X167198420Y-130100000D01*
X167121293Y-130092404D01*
X167044164Y-130084807D01*
X166846238Y-130024767D01*
X166846235Y-130024766D01*
X166663830Y-129927268D01*
X166503945Y-129796055D01*
X166372732Y-129636170D01*
X166275234Y-129453765D01*
X166234657Y-129320000D01*
X166215193Y-129255836D01*
X166194920Y-129050000D01*
X166215193Y-128844164D01*
X166275233Y-128646238D01*
X166275234Y-128646235D01*
X166372732Y-128463830D01*
X166503945Y-128303945D01*
X166663830Y-128172732D01*
X166846235Y-128075234D01*
X166846238Y-128075233D01*
X167044164Y-128015193D01*
X167121293Y-128007597D01*
X167198420Y-128000000D01*
X167301580Y-128000000D01*
X167378707Y-128007597D01*
X167378707Y-128007597D01*
G37*
G36*
X162298707Y-128007597D02*
G01*
X162375836Y-128015193D01*
X162573762Y-128075233D01*
X162573765Y-128075234D01*
X162756170Y-128172732D01*
X162916055Y-128303945D01*
X163047268Y-128463830D01*
X163144766Y-128646235D01*
X163144767Y-128646238D01*
X163204807Y-128844164D01*
X163225080Y-129050000D01*
X163204807Y-129255836D01*
X163185343Y-129320000D01*
X163144766Y-129453765D01*
X163047268Y-129636170D01*
X162916055Y-129796055D01*
X162756170Y-129927268D01*
X162573765Y-130024766D01*
X162573762Y-130024767D01*
X162375836Y-130084807D01*
X162298707Y-130092404D01*
X162221580Y-130100000D01*
X162118420Y-130100000D01*
X162041293Y-130092404D01*
X161964164Y-130084807D01*
X161766238Y-130024767D01*
X161766235Y-130024766D01*
X161583830Y-129927268D01*
X161423945Y-129796055D01*
X161292732Y-129636170D01*
X161195234Y-129453765D01*
X161154657Y-129320000D01*
X161135193Y-129255836D01*
X161114920Y-129050000D01*
X161135193Y-128844164D01*
X161195233Y-128646238D01*
X161195234Y-128646235D01*
X161292732Y-128463830D01*
X161423945Y-128303945D01*
X161583830Y-128172732D01*
X161766235Y-128075234D01*
X161766238Y-128075233D01*
X161964164Y-128015193D01*
X162041293Y-128007597D01*
X162118420Y-128000000D01*
X162221580Y-128000000D01*
X162298707Y-128007597D01*
X162298707Y-128007597D01*
G37*
G36*
X159758707Y-128007597D02*
G01*
X159835836Y-128015193D01*
X160033762Y-128075233D01*
X160033765Y-128075234D01*
X160216170Y-128172732D01*
X160376055Y-128303945D01*
X160507268Y-128463830D01*
X160604766Y-128646235D01*
X160604767Y-128646238D01*
X160664807Y-128844164D01*
X160685080Y-129050000D01*
X160664807Y-129255836D01*
X160645343Y-129320000D01*
X160604766Y-129453765D01*
X160507268Y-129636170D01*
X160376055Y-129796055D01*
X160216170Y-129927268D01*
X160033765Y-130024766D01*
X160033762Y-130024767D01*
X159835836Y-130084807D01*
X159758707Y-130092404D01*
X159681580Y-130100000D01*
X159578420Y-130100000D01*
X159501293Y-130092404D01*
X159424164Y-130084807D01*
X159226238Y-130024767D01*
X159226235Y-130024766D01*
X159043830Y-129927268D01*
X158883945Y-129796055D01*
X158752732Y-129636170D01*
X158655234Y-129453765D01*
X158614657Y-129320000D01*
X158595193Y-129255836D01*
X158574920Y-129050000D01*
X158595193Y-128844164D01*
X158655233Y-128646238D01*
X158655234Y-128646235D01*
X158752732Y-128463830D01*
X158883945Y-128303945D01*
X159043830Y-128172732D01*
X159226235Y-128075234D01*
X159226238Y-128075233D01*
X159424164Y-128015193D01*
X159501293Y-128007597D01*
X159578420Y-128000000D01*
X159681580Y-128000000D01*
X159758707Y-128007597D01*
X159758707Y-128007597D01*
G37*
G36*
X157218707Y-128007597D02*
G01*
X157295836Y-128015193D01*
X157493762Y-128075233D01*
X157493765Y-128075234D01*
X157676170Y-128172732D01*
X157836055Y-128303945D01*
X157967268Y-128463830D01*
X158064766Y-128646235D01*
X158064767Y-128646238D01*
X158124807Y-128844164D01*
X158145080Y-129050000D01*
X158124807Y-129255836D01*
X158105343Y-129320000D01*
X158064766Y-129453765D01*
X157967268Y-129636170D01*
X157836055Y-129796055D01*
X157676170Y-129927268D01*
X157493765Y-130024766D01*
X157493762Y-130024767D01*
X157295836Y-130084807D01*
X157218707Y-130092404D01*
X157141580Y-130100000D01*
X157038420Y-130100000D01*
X156961293Y-130092404D01*
X156884164Y-130084807D01*
X156686238Y-130024767D01*
X156686235Y-130024766D01*
X156503830Y-129927268D01*
X156343945Y-129796055D01*
X156212732Y-129636170D01*
X156115234Y-129453765D01*
X156074657Y-129320000D01*
X156055193Y-129255836D01*
X156034920Y-129050000D01*
X156055193Y-128844164D01*
X156115233Y-128646238D01*
X156115234Y-128646235D01*
X156212732Y-128463830D01*
X156343945Y-128303945D01*
X156503830Y-128172732D01*
X156686235Y-128075234D01*
X156686238Y-128075233D01*
X156884164Y-128015193D01*
X156961293Y-128007597D01*
X157038420Y-128000000D01*
X157141580Y-128000000D01*
X157218707Y-128007597D01*
X157218707Y-128007597D01*
G37*
G36*
X154678707Y-128007597D02*
G01*
X154755836Y-128015193D01*
X154953762Y-128075233D01*
X154953765Y-128075234D01*
X155136170Y-128172732D01*
X155296055Y-128303945D01*
X155427268Y-128463830D01*
X155524766Y-128646235D01*
X155524767Y-128646238D01*
X155584807Y-128844164D01*
X155605080Y-129050000D01*
X155584807Y-129255836D01*
X155565343Y-129320000D01*
X155524766Y-129453765D01*
X155427268Y-129636170D01*
X155296055Y-129796055D01*
X155136170Y-129927268D01*
X154953765Y-130024766D01*
X154953762Y-130024767D01*
X154755836Y-130084807D01*
X154678707Y-130092404D01*
X154601580Y-130100000D01*
X154498420Y-130100000D01*
X154421293Y-130092404D01*
X154344164Y-130084807D01*
X154146238Y-130024767D01*
X154146235Y-130024766D01*
X153963830Y-129927268D01*
X153803945Y-129796055D01*
X153672732Y-129636170D01*
X153575234Y-129453765D01*
X153534657Y-129320000D01*
X153515193Y-129255836D01*
X153494920Y-129050000D01*
X153515193Y-128844164D01*
X153575233Y-128646238D01*
X153575234Y-128646235D01*
X153672732Y-128463830D01*
X153803945Y-128303945D01*
X153963830Y-128172732D01*
X154146235Y-128075234D01*
X154146238Y-128075233D01*
X154344164Y-128015193D01*
X154421293Y-128007597D01*
X154498420Y-128000000D01*
X154601580Y-128000000D01*
X154678707Y-128007597D01*
X154678707Y-128007597D01*
G37*
G36*
X152138707Y-128007597D02*
G01*
X152215836Y-128015193D01*
X152413762Y-128075233D01*
X152413765Y-128075234D01*
X152596170Y-128172732D01*
X152756055Y-128303945D01*
X152887268Y-128463830D01*
X152984766Y-128646235D01*
X152984767Y-128646238D01*
X153044807Y-128844164D01*
X153065080Y-129050000D01*
X153044807Y-129255836D01*
X153025343Y-129320000D01*
X152984766Y-129453765D01*
X152887268Y-129636170D01*
X152756055Y-129796055D01*
X152596170Y-129927268D01*
X152413765Y-130024766D01*
X152413762Y-130024767D01*
X152215836Y-130084807D01*
X152138707Y-130092404D01*
X152061580Y-130100000D01*
X151958420Y-130100000D01*
X151881293Y-130092404D01*
X151804164Y-130084807D01*
X151606238Y-130024767D01*
X151606235Y-130024766D01*
X151423830Y-129927268D01*
X151263945Y-129796055D01*
X151132732Y-129636170D01*
X151035234Y-129453765D01*
X150994657Y-129320000D01*
X150975193Y-129255836D01*
X150954920Y-129050000D01*
X150975193Y-128844164D01*
X151035233Y-128646238D01*
X151035234Y-128646235D01*
X151132732Y-128463830D01*
X151263945Y-128303945D01*
X151423830Y-128172732D01*
X151606235Y-128075234D01*
X151606238Y-128075233D01*
X151804164Y-128015193D01*
X151881293Y-128007597D01*
X151958420Y-128000000D01*
X152061580Y-128000000D01*
X152138707Y-128007597D01*
X152138707Y-128007597D01*
G37*
G36*
X149598707Y-128007597D02*
G01*
X149675836Y-128015193D01*
X149873762Y-128075233D01*
X149873765Y-128075234D01*
X150056170Y-128172732D01*
X150216055Y-128303945D01*
X150347268Y-128463830D01*
X150444766Y-128646235D01*
X150444767Y-128646238D01*
X150504807Y-128844164D01*
X150525080Y-129050000D01*
X150504807Y-129255836D01*
X150485343Y-129320000D01*
X150444766Y-129453765D01*
X150347268Y-129636170D01*
X150216055Y-129796055D01*
X150056170Y-129927268D01*
X149873765Y-130024766D01*
X149873762Y-130024767D01*
X149675836Y-130084807D01*
X149598707Y-130092404D01*
X149521580Y-130100000D01*
X149418420Y-130100000D01*
X149341293Y-130092404D01*
X149264164Y-130084807D01*
X149066238Y-130024767D01*
X149066235Y-130024766D01*
X148883830Y-129927268D01*
X148723945Y-129796055D01*
X148592732Y-129636170D01*
X148495234Y-129453765D01*
X148454657Y-129320000D01*
X148435193Y-129255836D01*
X148414920Y-129050000D01*
X148435193Y-128844164D01*
X148495233Y-128646238D01*
X148495234Y-128646235D01*
X148592732Y-128463830D01*
X148723945Y-128303945D01*
X148883830Y-128172732D01*
X149066235Y-128075234D01*
X149066238Y-128075233D01*
X149264164Y-128015193D01*
X149341293Y-128007597D01*
X149418420Y-128000000D01*
X149521580Y-128000000D01*
X149598707Y-128007597D01*
X149598707Y-128007597D01*
G37*
G36*
X147058707Y-128007597D02*
G01*
X147135836Y-128015193D01*
X147333762Y-128075233D01*
X147333765Y-128075234D01*
X147516170Y-128172732D01*
X147676055Y-128303945D01*
X147807268Y-128463830D01*
X147904766Y-128646235D01*
X147904767Y-128646238D01*
X147964807Y-128844164D01*
X147985080Y-129050000D01*
X147964807Y-129255836D01*
X147945343Y-129320000D01*
X147904766Y-129453765D01*
X147807268Y-129636170D01*
X147676055Y-129796055D01*
X147516170Y-129927268D01*
X147333765Y-130024766D01*
X147333762Y-130024767D01*
X147135836Y-130084807D01*
X147058707Y-130092404D01*
X146981580Y-130100000D01*
X146878420Y-130100000D01*
X146801293Y-130092404D01*
X146724164Y-130084807D01*
X146526238Y-130024767D01*
X146526235Y-130024766D01*
X146343830Y-129927268D01*
X146183945Y-129796055D01*
X146052732Y-129636170D01*
X145955234Y-129453765D01*
X145914657Y-129320000D01*
X145895193Y-129255836D01*
X145874920Y-129050000D01*
X145895193Y-128844164D01*
X145955233Y-128646238D01*
X145955234Y-128646235D01*
X146052732Y-128463830D01*
X146183945Y-128303945D01*
X146343830Y-128172732D01*
X146526235Y-128075234D01*
X146526238Y-128075233D01*
X146724164Y-128015193D01*
X146801293Y-128007597D01*
X146878420Y-128000000D01*
X146981580Y-128000000D01*
X147058707Y-128007597D01*
X147058707Y-128007597D01*
G37*
G36*
X144518707Y-128007597D02*
G01*
X144595836Y-128015193D01*
X144793762Y-128075233D01*
X144793765Y-128075234D01*
X144976170Y-128172732D01*
X145136055Y-128303945D01*
X145267268Y-128463830D01*
X145364766Y-128646235D01*
X145364767Y-128646238D01*
X145424807Y-128844164D01*
X145445080Y-129050000D01*
X145424807Y-129255836D01*
X145405343Y-129320000D01*
X145364766Y-129453765D01*
X145267268Y-129636170D01*
X145136055Y-129796055D01*
X144976170Y-129927268D01*
X144793765Y-130024766D01*
X144793762Y-130024767D01*
X144595836Y-130084807D01*
X144518707Y-130092404D01*
X144441580Y-130100000D01*
X144338420Y-130100000D01*
X144261293Y-130092404D01*
X144184164Y-130084807D01*
X143986238Y-130024767D01*
X143986235Y-130024766D01*
X143803830Y-129927268D01*
X143643945Y-129796055D01*
X143512732Y-129636170D01*
X143415234Y-129453765D01*
X143374657Y-129320000D01*
X143355193Y-129255836D01*
X143334920Y-129050000D01*
X143355193Y-128844164D01*
X143415233Y-128646238D01*
X143415234Y-128646235D01*
X143512732Y-128463830D01*
X143643945Y-128303945D01*
X143803830Y-128172732D01*
X143986235Y-128075234D01*
X143986238Y-128075233D01*
X144184164Y-128015193D01*
X144261293Y-128007597D01*
X144338420Y-128000000D01*
X144441580Y-128000000D01*
X144518707Y-128007597D01*
X144518707Y-128007597D01*
G37*
G36*
X141978707Y-128007597D02*
G01*
X142055836Y-128015193D01*
X142253762Y-128075233D01*
X142253765Y-128075234D01*
X142436170Y-128172732D01*
X142596055Y-128303945D01*
X142727268Y-128463830D01*
X142824766Y-128646235D01*
X142824767Y-128646238D01*
X142884807Y-128844164D01*
X142905080Y-129050000D01*
X142884807Y-129255836D01*
X142865343Y-129320000D01*
X142824766Y-129453765D01*
X142727268Y-129636170D01*
X142596055Y-129796055D01*
X142436170Y-129927268D01*
X142253765Y-130024766D01*
X142253762Y-130024767D01*
X142055836Y-130084807D01*
X141978707Y-130092404D01*
X141901580Y-130100000D01*
X141798420Y-130100000D01*
X141721293Y-130092404D01*
X141644164Y-130084807D01*
X141446238Y-130024767D01*
X141446235Y-130024766D01*
X141263830Y-129927268D01*
X141103945Y-129796055D01*
X140972732Y-129636170D01*
X140875234Y-129453765D01*
X140834657Y-129320000D01*
X140815193Y-129255836D01*
X140794920Y-129050000D01*
X140815193Y-128844164D01*
X140875233Y-128646238D01*
X140875234Y-128646235D01*
X140972732Y-128463830D01*
X141103945Y-128303945D01*
X141263830Y-128172732D01*
X141446235Y-128075234D01*
X141446238Y-128075233D01*
X141644164Y-128015193D01*
X141721293Y-128007597D01*
X141798420Y-128000000D01*
X141901580Y-128000000D01*
X141978707Y-128007597D01*
X141978707Y-128007597D01*
G37*
G36*
X169918707Y-128007597D02*
G01*
X169995836Y-128015193D01*
X170193762Y-128075233D01*
X170193765Y-128075234D01*
X170376170Y-128172732D01*
X170536055Y-128303945D01*
X170667268Y-128463830D01*
X170764766Y-128646235D01*
X170764767Y-128646238D01*
X170824807Y-128844164D01*
X170845080Y-129050000D01*
X170824807Y-129255836D01*
X170805343Y-129320000D01*
X170764766Y-129453765D01*
X170667268Y-129636170D01*
X170536055Y-129796055D01*
X170376170Y-129927268D01*
X170193765Y-130024766D01*
X170193762Y-130024767D01*
X169995836Y-130084807D01*
X169918707Y-130092404D01*
X169841580Y-130100000D01*
X169738420Y-130100000D01*
X169661293Y-130092404D01*
X169584164Y-130084807D01*
X169386238Y-130024767D01*
X169386235Y-130024766D01*
X169203830Y-129927268D01*
X169043945Y-129796055D01*
X168912732Y-129636170D01*
X168815234Y-129453765D01*
X168774657Y-129320000D01*
X168755193Y-129255836D01*
X168734920Y-129050000D01*
X168755193Y-128844164D01*
X168815233Y-128646238D01*
X168815234Y-128646235D01*
X168912732Y-128463830D01*
X169043945Y-128303945D01*
X169203830Y-128172732D01*
X169386235Y-128075234D01*
X169386238Y-128075233D01*
X169584164Y-128015193D01*
X169661293Y-128007597D01*
X169738420Y-128000000D01*
X169841580Y-128000000D01*
X169918707Y-128007597D01*
X169918707Y-128007597D01*
G37*
G36*
X172458707Y-128007597D02*
G01*
X172535836Y-128015193D01*
X172733762Y-128075233D01*
X172733765Y-128075234D01*
X172916170Y-128172732D01*
X173076055Y-128303945D01*
X173207268Y-128463830D01*
X173304766Y-128646235D01*
X173304767Y-128646238D01*
X173364807Y-128844164D01*
X173385080Y-129050000D01*
X173364807Y-129255836D01*
X173345343Y-129320000D01*
X173304766Y-129453765D01*
X173207268Y-129636170D01*
X173076055Y-129796055D01*
X172916170Y-129927268D01*
X172733765Y-130024766D01*
X172733762Y-130024767D01*
X172535836Y-130084807D01*
X172458707Y-130092404D01*
X172381580Y-130100000D01*
X172278420Y-130100000D01*
X172201293Y-130092404D01*
X172124164Y-130084807D01*
X171926238Y-130024767D01*
X171926235Y-130024766D01*
X171743830Y-129927268D01*
X171583945Y-129796055D01*
X171452732Y-129636170D01*
X171355234Y-129453765D01*
X171314657Y-129320000D01*
X171295193Y-129255836D01*
X171274920Y-129050000D01*
X171295193Y-128844164D01*
X171355233Y-128646238D01*
X171355234Y-128646235D01*
X171452732Y-128463830D01*
X171583945Y-128303945D01*
X171743830Y-128172732D01*
X171926235Y-128075234D01*
X171926238Y-128075233D01*
X172124164Y-128015193D01*
X172201293Y-128007597D01*
X172278420Y-128000000D01*
X172381580Y-128000000D01*
X172458707Y-128007597D01*
X172458707Y-128007597D01*
G37*
G36*
X174998707Y-128007597D02*
G01*
X175075836Y-128015193D01*
X175273762Y-128075233D01*
X175273765Y-128075234D01*
X175456170Y-128172732D01*
X175616055Y-128303945D01*
X175747268Y-128463830D01*
X175844766Y-128646235D01*
X175844767Y-128646238D01*
X175904807Y-128844164D01*
X175925080Y-129050000D01*
X175904807Y-129255836D01*
X175885343Y-129320000D01*
X175844766Y-129453765D01*
X175747268Y-129636170D01*
X175616055Y-129796055D01*
X175456170Y-129927268D01*
X175273765Y-130024766D01*
X175273762Y-130024767D01*
X175075836Y-130084807D01*
X174998707Y-130092404D01*
X174921580Y-130100000D01*
X174818420Y-130100000D01*
X174741293Y-130092404D01*
X174664164Y-130084807D01*
X174466238Y-130024767D01*
X174466235Y-130024766D01*
X174283830Y-129927268D01*
X174123945Y-129796055D01*
X173992732Y-129636170D01*
X173895234Y-129453765D01*
X173854657Y-129320000D01*
X173835193Y-129255836D01*
X173814920Y-129050000D01*
X173835193Y-128844164D01*
X173895233Y-128646238D01*
X173895234Y-128646235D01*
X173992732Y-128463830D01*
X174123945Y-128303945D01*
X174283830Y-128172732D01*
X174466235Y-128075234D01*
X174466238Y-128075233D01*
X174664164Y-128015193D01*
X174741293Y-128007597D01*
X174818420Y-128000000D01*
X174921580Y-128000000D01*
X174998707Y-128007597D01*
X174998707Y-128007597D01*
G37*
G36*
X177538707Y-128007597D02*
G01*
X177615836Y-128015193D01*
X177813762Y-128075233D01*
X177813765Y-128075234D01*
X177996170Y-128172732D01*
X178156055Y-128303945D01*
X178287268Y-128463830D01*
X178384766Y-128646235D01*
X178384767Y-128646238D01*
X178444807Y-128844164D01*
X178465080Y-129050000D01*
X178444807Y-129255836D01*
X178425343Y-129320000D01*
X178384766Y-129453765D01*
X178287268Y-129636170D01*
X178156055Y-129796055D01*
X177996170Y-129927268D01*
X177813765Y-130024766D01*
X177813762Y-130024767D01*
X177615836Y-130084807D01*
X177538707Y-130092404D01*
X177461580Y-130100000D01*
X177358420Y-130100000D01*
X177281293Y-130092404D01*
X177204164Y-130084807D01*
X177006238Y-130024767D01*
X177006235Y-130024766D01*
X176823830Y-129927268D01*
X176663945Y-129796055D01*
X176532732Y-129636170D01*
X176435234Y-129453765D01*
X176394657Y-129320000D01*
X176375193Y-129255836D01*
X176354920Y-129050000D01*
X176375193Y-128844164D01*
X176435233Y-128646238D01*
X176435234Y-128646235D01*
X176532732Y-128463830D01*
X176663945Y-128303945D01*
X176823830Y-128172732D01*
X177006235Y-128075234D01*
X177006238Y-128075233D01*
X177204164Y-128015193D01*
X177281293Y-128007597D01*
X177358420Y-128000000D01*
X177461580Y-128000000D01*
X177538707Y-128007597D01*
X177538707Y-128007597D01*
G37*
G36*
X180078707Y-128007597D02*
G01*
X180155836Y-128015193D01*
X180353762Y-128075233D01*
X180353765Y-128075234D01*
X180536170Y-128172732D01*
X180696055Y-128303945D01*
X180827268Y-128463830D01*
X180924766Y-128646235D01*
X180924767Y-128646238D01*
X180984807Y-128844164D01*
X181005080Y-129050000D01*
X180984807Y-129255836D01*
X180965343Y-129320000D01*
X180924766Y-129453765D01*
X180827268Y-129636170D01*
X180696055Y-129796055D01*
X180536170Y-129927268D01*
X180353765Y-130024766D01*
X180353762Y-130024767D01*
X180155836Y-130084807D01*
X180078707Y-130092404D01*
X180001580Y-130100000D01*
X179898420Y-130100000D01*
X179821293Y-130092404D01*
X179744164Y-130084807D01*
X179546238Y-130024767D01*
X179546235Y-130024766D01*
X179363830Y-129927268D01*
X179203945Y-129796055D01*
X179072732Y-129636170D01*
X178975234Y-129453765D01*
X178934657Y-129320000D01*
X178915193Y-129255836D01*
X178894920Y-129050000D01*
X178915193Y-128844164D01*
X178975233Y-128646238D01*
X178975234Y-128646235D01*
X179072732Y-128463830D01*
X179203945Y-128303945D01*
X179363830Y-128172732D01*
X179546235Y-128075234D01*
X179546238Y-128075233D01*
X179744164Y-128015193D01*
X179821293Y-128007597D01*
X179898420Y-128000000D01*
X180001580Y-128000000D01*
X180078707Y-128007597D01*
X180078707Y-128007597D01*
G37*
G36*
X182618707Y-128007597D02*
G01*
X182695836Y-128015193D01*
X182893762Y-128075233D01*
X182893765Y-128075234D01*
X183076170Y-128172732D01*
X183236055Y-128303945D01*
X183367268Y-128463830D01*
X183464766Y-128646235D01*
X183464767Y-128646238D01*
X183524807Y-128844164D01*
X183545080Y-129050000D01*
X183524807Y-129255836D01*
X183505343Y-129320000D01*
X183464766Y-129453765D01*
X183367268Y-129636170D01*
X183236055Y-129796055D01*
X183076170Y-129927268D01*
X182893765Y-130024766D01*
X182893762Y-130024767D01*
X182695836Y-130084807D01*
X182618707Y-130092404D01*
X182541580Y-130100000D01*
X182438420Y-130100000D01*
X182361293Y-130092404D01*
X182284164Y-130084807D01*
X182086238Y-130024767D01*
X182086235Y-130024766D01*
X181903830Y-129927268D01*
X181743945Y-129796055D01*
X181612732Y-129636170D01*
X181515234Y-129453765D01*
X181474657Y-129320000D01*
X181455193Y-129255836D01*
X181434920Y-129050000D01*
X181455193Y-128844164D01*
X181515233Y-128646238D01*
X181515234Y-128646235D01*
X181612732Y-128463830D01*
X181743945Y-128303945D01*
X181903830Y-128172732D01*
X182086235Y-128075234D01*
X182086238Y-128075233D01*
X182284164Y-128015193D01*
X182361293Y-128007597D01*
X182438420Y-128000000D01*
X182541580Y-128000000D01*
X182618707Y-128007597D01*
X182618707Y-128007597D01*
G37*
G36*
X185158707Y-128007597D02*
G01*
X185235836Y-128015193D01*
X185433762Y-128075233D01*
X185433765Y-128075234D01*
X185616170Y-128172732D01*
X185776055Y-128303945D01*
X185907268Y-128463830D01*
X186004766Y-128646235D01*
X186004767Y-128646238D01*
X186064807Y-128844164D01*
X186085080Y-129050000D01*
X186064807Y-129255836D01*
X186045343Y-129320000D01*
X186004766Y-129453765D01*
X185907268Y-129636170D01*
X185776055Y-129796055D01*
X185616170Y-129927268D01*
X185433765Y-130024766D01*
X185433762Y-130024767D01*
X185235836Y-130084807D01*
X185158707Y-130092404D01*
X185081580Y-130100000D01*
X184978420Y-130100000D01*
X184901293Y-130092404D01*
X184824164Y-130084807D01*
X184626238Y-130024767D01*
X184626235Y-130024766D01*
X184443830Y-129927268D01*
X184283945Y-129796055D01*
X184152732Y-129636170D01*
X184055234Y-129453765D01*
X184014657Y-129320000D01*
X183995193Y-129255836D01*
X183974920Y-129050000D01*
X183995193Y-128844164D01*
X184055233Y-128646238D01*
X184055234Y-128646235D01*
X184152732Y-128463830D01*
X184283945Y-128303945D01*
X184443830Y-128172732D01*
X184626235Y-128075234D01*
X184626238Y-128075233D01*
X184824164Y-128015193D01*
X184901293Y-128007597D01*
X184978420Y-128000000D01*
X185081580Y-128000000D01*
X185158707Y-128007597D01*
X185158707Y-128007597D01*
G37*
G36*
X187698707Y-128007597D02*
G01*
X187775836Y-128015193D01*
X187973762Y-128075233D01*
X187973765Y-128075234D01*
X188156170Y-128172732D01*
X188316055Y-128303945D01*
X188447268Y-128463830D01*
X188544766Y-128646235D01*
X188544767Y-128646238D01*
X188604807Y-128844164D01*
X188625080Y-129050000D01*
X188604807Y-129255836D01*
X188585343Y-129320000D01*
X188544766Y-129453765D01*
X188447268Y-129636170D01*
X188316055Y-129796055D01*
X188156170Y-129927268D01*
X187973765Y-130024766D01*
X187973762Y-130024767D01*
X187775836Y-130084807D01*
X187698707Y-130092404D01*
X187621580Y-130100000D01*
X187518420Y-130100000D01*
X187441293Y-130092404D01*
X187364164Y-130084807D01*
X187166238Y-130024767D01*
X187166235Y-130024766D01*
X186983830Y-129927268D01*
X186823945Y-129796055D01*
X186692732Y-129636170D01*
X186595234Y-129453765D01*
X186554657Y-129320000D01*
X186535193Y-129255836D01*
X186514920Y-129050000D01*
X186535193Y-128844164D01*
X186595233Y-128646238D01*
X186595234Y-128646235D01*
X186692732Y-128463830D01*
X186823945Y-128303945D01*
X186983830Y-128172732D01*
X187166235Y-128075234D01*
X187166238Y-128075233D01*
X187364164Y-128015193D01*
X187441293Y-128007597D01*
X187518420Y-128000000D01*
X187621580Y-128000000D01*
X187698707Y-128007597D01*
X187698707Y-128007597D01*
G37*
G36*
X164838707Y-128007597D02*
G01*
X164915836Y-128015193D01*
X165113762Y-128075233D01*
X165113765Y-128075234D01*
X165296170Y-128172732D01*
X165456055Y-128303945D01*
X165587268Y-128463830D01*
X165684766Y-128646235D01*
X165684767Y-128646238D01*
X165744807Y-128844164D01*
X165765080Y-129050000D01*
X165744807Y-129255836D01*
X165725343Y-129320000D01*
X165684766Y-129453765D01*
X165587268Y-129636170D01*
X165456055Y-129796055D01*
X165296170Y-129927268D01*
X165113765Y-130024766D01*
X165113762Y-130024767D01*
X164915836Y-130084807D01*
X164838707Y-130092404D01*
X164761580Y-130100000D01*
X164658420Y-130100000D01*
X164581293Y-130092404D01*
X164504164Y-130084807D01*
X164306238Y-130024767D01*
X164306235Y-130024766D01*
X164123830Y-129927268D01*
X163963945Y-129796055D01*
X163832732Y-129636170D01*
X163735234Y-129453765D01*
X163694657Y-129320000D01*
X163675193Y-129255836D01*
X163654920Y-129050000D01*
X163675193Y-128844164D01*
X163735233Y-128646238D01*
X163735234Y-128646235D01*
X163832732Y-128463830D01*
X163963945Y-128303945D01*
X164123830Y-128172732D01*
X164306235Y-128075234D01*
X164306238Y-128075233D01*
X164504164Y-128015193D01*
X164581293Y-128007597D01*
X164658420Y-128000000D01*
X164761580Y-128000000D01*
X164838707Y-128007597D01*
X164838707Y-128007597D01*
G37*
G36*
X195292390Y-126269783D02*
G01*
X195442118Y-126299565D01*
X195558960Y-126347963D01*
X195724199Y-126416407D01*
X195724200Y-126416408D01*
X195978068Y-126586036D01*
X196193964Y-126801932D01*
X196268686Y-126913762D01*
X196363593Y-127055801D01*
X196432037Y-127221040D01*
X196472151Y-127317882D01*
X196480435Y-127337883D01*
X196540000Y-127637337D01*
X196540000Y-127942663D01*
X196480435Y-128242117D01*
X196363593Y-128524199D01*
X196363592Y-128524200D01*
X196193964Y-128778068D01*
X195978068Y-128993964D01*
X195808439Y-129107306D01*
X195724199Y-129163593D01*
X195558960Y-129232037D01*
X195442118Y-129280435D01*
X195292390Y-129310218D01*
X195142663Y-129340000D01*
X194837337Y-129340000D01*
X194687610Y-129310218D01*
X194537882Y-129280435D01*
X194421040Y-129232037D01*
X194255801Y-129163593D01*
X194171561Y-129107306D01*
X194001932Y-128993964D01*
X193786036Y-128778068D01*
X193616408Y-128524200D01*
X193616407Y-128524199D01*
X193499565Y-128242117D01*
X193440000Y-127942663D01*
X193440000Y-127637337D01*
X193499565Y-127337883D01*
X193507850Y-127317882D01*
X193547963Y-127221040D01*
X193616407Y-127055801D01*
X193711314Y-126913762D01*
X193786036Y-126801932D01*
X194001932Y-126586036D01*
X194255800Y-126416408D01*
X194255801Y-126416407D01*
X194421040Y-126347963D01*
X194537882Y-126299565D01*
X194687610Y-126269783D01*
X194837337Y-126240000D01*
X195142663Y-126240000D01*
X195292390Y-126269783D01*
X195292390Y-126269783D01*
G37*
G36*
X137243210Y-126240000D02*
G01*
X137442118Y-126279565D01*
X137558960Y-126327963D01*
X137724199Y-126396407D01*
X137808439Y-126452694D01*
X137978068Y-126566036D01*
X138193964Y-126781932D01*
X138207327Y-126801932D01*
X138363593Y-127035801D01*
X138388599Y-127096171D01*
X138480435Y-127317882D01*
X138540000Y-127617338D01*
X138540000Y-127922662D01*
X138480435Y-128222118D01*
X138446541Y-128303945D01*
X138363593Y-128504199D01*
X138363592Y-128504200D01*
X138193964Y-128758068D01*
X137978068Y-128973964D01*
X137864271Y-129050000D01*
X137724199Y-129143593D01*
X137558960Y-129212037D01*
X137442118Y-129260435D01*
X137341570Y-129280435D01*
X137142663Y-129320000D01*
X136837337Y-129320000D01*
X136638430Y-129280435D01*
X136537882Y-129260435D01*
X136421040Y-129212037D01*
X136255801Y-129143593D01*
X136115729Y-129050000D01*
X136001932Y-128973964D01*
X135786036Y-128758068D01*
X135616408Y-128504200D01*
X135616407Y-128504199D01*
X135533459Y-128303945D01*
X135499565Y-128222118D01*
X135440000Y-127922662D01*
X135440000Y-127617338D01*
X135499565Y-127317882D01*
X135591401Y-127096171D01*
X135616407Y-127035801D01*
X135772673Y-126801932D01*
X135786036Y-126781932D01*
X136001932Y-126566036D01*
X136171561Y-126452694D01*
X136255801Y-126396407D01*
X136421040Y-126327963D01*
X136537882Y-126279565D01*
X136736790Y-126240000D01*
X136837337Y-126220000D01*
X137142663Y-126220000D01*
X137243210Y-126240000D01*
X137243210Y-126240000D01*
G37*
G36*
X174998707Y-125467597D02*
G01*
X175075836Y-125475193D01*
X175273762Y-125535233D01*
X175273765Y-125535234D01*
X175456170Y-125632732D01*
X175616055Y-125763945D01*
X175747268Y-125923830D01*
X175844766Y-126106235D01*
X175844767Y-126106238D01*
X175904807Y-126304164D01*
X175925080Y-126510000D01*
X175904807Y-126715836D01*
X175844767Y-126913762D01*
X175844766Y-126913765D01*
X175747268Y-127096170D01*
X175616055Y-127256055D01*
X175456170Y-127387268D01*
X175273765Y-127484766D01*
X175273762Y-127484767D01*
X175075836Y-127544807D01*
X174998707Y-127552403D01*
X174921580Y-127560000D01*
X174818420Y-127560000D01*
X174741293Y-127552403D01*
X174664164Y-127544807D01*
X174466238Y-127484767D01*
X174466235Y-127484766D01*
X174283830Y-127387268D01*
X174123945Y-127256055D01*
X173992732Y-127096170D01*
X173895234Y-126913765D01*
X173895233Y-126913762D01*
X173835193Y-126715836D01*
X173814920Y-126510000D01*
X173835193Y-126304164D01*
X173895233Y-126106238D01*
X173895234Y-126106235D01*
X173992732Y-125923830D01*
X174123945Y-125763945D01*
X174283830Y-125632732D01*
X174466235Y-125535234D01*
X174466238Y-125535233D01*
X174664164Y-125475193D01*
X174741293Y-125467597D01*
X174818420Y-125460000D01*
X174921580Y-125460000D01*
X174998707Y-125467597D01*
X174998707Y-125467597D01*
G37*
G36*
X180078707Y-125467597D02*
G01*
X180155836Y-125475193D01*
X180353762Y-125535233D01*
X180353765Y-125535234D01*
X180536170Y-125632732D01*
X180696055Y-125763945D01*
X180827268Y-125923830D01*
X180924766Y-126106235D01*
X180924767Y-126106238D01*
X180984807Y-126304164D01*
X181005080Y-126510000D01*
X180984807Y-126715836D01*
X180924767Y-126913762D01*
X180924766Y-126913765D01*
X180827268Y-127096170D01*
X180696055Y-127256055D01*
X180536170Y-127387268D01*
X180353765Y-127484766D01*
X180353762Y-127484767D01*
X180155836Y-127544807D01*
X180078707Y-127552403D01*
X180001580Y-127560000D01*
X179898420Y-127560000D01*
X179821293Y-127552403D01*
X179744164Y-127544807D01*
X179546238Y-127484767D01*
X179546235Y-127484766D01*
X179363830Y-127387268D01*
X179203945Y-127256055D01*
X179072732Y-127096170D01*
X178975234Y-126913765D01*
X178975233Y-126913762D01*
X178915193Y-126715836D01*
X178894920Y-126510000D01*
X178915193Y-126304164D01*
X178975233Y-126106238D01*
X178975234Y-126106235D01*
X179072732Y-125923830D01*
X179203945Y-125763945D01*
X179363830Y-125632732D01*
X179546235Y-125535234D01*
X179546238Y-125535233D01*
X179744164Y-125475193D01*
X179821293Y-125467597D01*
X179898420Y-125460000D01*
X180001580Y-125460000D01*
X180078707Y-125467597D01*
X180078707Y-125467597D01*
G37*
G36*
X182618707Y-125467597D02*
G01*
X182695836Y-125475193D01*
X182893762Y-125535233D01*
X182893765Y-125535234D01*
X183076170Y-125632732D01*
X183236055Y-125763945D01*
X183367268Y-125923830D01*
X183464766Y-126106235D01*
X183464767Y-126106238D01*
X183524807Y-126304164D01*
X183545080Y-126510000D01*
X183524807Y-126715836D01*
X183464767Y-126913762D01*
X183464766Y-126913765D01*
X183367268Y-127096170D01*
X183236055Y-127256055D01*
X183076170Y-127387268D01*
X182893765Y-127484766D01*
X182893762Y-127484767D01*
X182695836Y-127544807D01*
X182618707Y-127552403D01*
X182541580Y-127560000D01*
X182438420Y-127560000D01*
X182361293Y-127552403D01*
X182284164Y-127544807D01*
X182086238Y-127484767D01*
X182086235Y-127484766D01*
X181903830Y-127387268D01*
X181743945Y-127256055D01*
X181612732Y-127096170D01*
X181515234Y-126913765D01*
X181515233Y-126913762D01*
X181455193Y-126715836D01*
X181434920Y-126510000D01*
X181455193Y-126304164D01*
X181515233Y-126106238D01*
X181515234Y-126106235D01*
X181612732Y-125923830D01*
X181743945Y-125763945D01*
X181903830Y-125632732D01*
X182086235Y-125535234D01*
X182086238Y-125535233D01*
X182284164Y-125475193D01*
X182361293Y-125467597D01*
X182438420Y-125460000D01*
X182541580Y-125460000D01*
X182618707Y-125467597D01*
X182618707Y-125467597D01*
G37*
G36*
X185158707Y-125467597D02*
G01*
X185235836Y-125475193D01*
X185433762Y-125535233D01*
X185433765Y-125535234D01*
X185616170Y-125632732D01*
X185776055Y-125763945D01*
X185907268Y-125923830D01*
X186004766Y-126106235D01*
X186004767Y-126106238D01*
X186064807Y-126304164D01*
X186085080Y-126510000D01*
X186064807Y-126715836D01*
X186004767Y-126913762D01*
X186004766Y-126913765D01*
X185907268Y-127096170D01*
X185776055Y-127256055D01*
X185616170Y-127387268D01*
X185433765Y-127484766D01*
X185433762Y-127484767D01*
X185235836Y-127544807D01*
X185158707Y-127552403D01*
X185081580Y-127560000D01*
X184978420Y-127560000D01*
X184901293Y-127552403D01*
X184824164Y-127544807D01*
X184626238Y-127484767D01*
X184626235Y-127484766D01*
X184443830Y-127387268D01*
X184283945Y-127256055D01*
X184152732Y-127096170D01*
X184055234Y-126913765D01*
X184055233Y-126913762D01*
X183995193Y-126715836D01*
X183974920Y-126510000D01*
X183995193Y-126304164D01*
X184055233Y-126106238D01*
X184055234Y-126106235D01*
X184152732Y-125923830D01*
X184283945Y-125763945D01*
X184443830Y-125632732D01*
X184626235Y-125535234D01*
X184626238Y-125535233D01*
X184824164Y-125475193D01*
X184901293Y-125467597D01*
X184978420Y-125460000D01*
X185081580Y-125460000D01*
X185158707Y-125467597D01*
X185158707Y-125467597D01*
G37*
G36*
X191160000Y-127560000D02*
G01*
X189060000Y-127560000D01*
X189060000Y-125460000D01*
X191160000Y-125460000D01*
X191160000Y-127560000D01*
X191160000Y-127560000D01*
G37*
G36*
X177538707Y-125467597D02*
G01*
X177615836Y-125475193D01*
X177813762Y-125535233D01*
X177813765Y-125535234D01*
X177996170Y-125632732D01*
X178156055Y-125763945D01*
X178287268Y-125923830D01*
X178384766Y-126106235D01*
X178384767Y-126106238D01*
X178444807Y-126304164D01*
X178465080Y-126510000D01*
X178444807Y-126715836D01*
X178384767Y-126913762D01*
X178384766Y-126913765D01*
X178287268Y-127096170D01*
X178156055Y-127256055D01*
X177996170Y-127387268D01*
X177813765Y-127484766D01*
X177813762Y-127484767D01*
X177615836Y-127544807D01*
X177538707Y-127552403D01*
X177461580Y-127560000D01*
X177358420Y-127560000D01*
X177281293Y-127552403D01*
X177204164Y-127544807D01*
X177006238Y-127484767D01*
X177006235Y-127484766D01*
X176823830Y-127387268D01*
X176663945Y-127256055D01*
X176532732Y-127096170D01*
X176435234Y-126913765D01*
X176435233Y-126913762D01*
X176375193Y-126715836D01*
X176354920Y-126510000D01*
X176375193Y-126304164D01*
X176435233Y-126106238D01*
X176435234Y-126106235D01*
X176532732Y-125923830D01*
X176663945Y-125763945D01*
X176823830Y-125632732D01*
X177006235Y-125535234D01*
X177006238Y-125535233D01*
X177204164Y-125475193D01*
X177281293Y-125467597D01*
X177358420Y-125460000D01*
X177461580Y-125460000D01*
X177538707Y-125467597D01*
X177538707Y-125467597D01*
G37*
G36*
X144518707Y-125467597D02*
G01*
X144595836Y-125475193D01*
X144793762Y-125535233D01*
X144793765Y-125535234D01*
X144976170Y-125632732D01*
X145136055Y-125763945D01*
X145267268Y-125923830D01*
X145364766Y-126106235D01*
X145364767Y-126106238D01*
X145424807Y-126304164D01*
X145445080Y-126510000D01*
X145424807Y-126715836D01*
X145364767Y-126913762D01*
X145364766Y-126913765D01*
X145267268Y-127096170D01*
X145136055Y-127256055D01*
X144976170Y-127387268D01*
X144793765Y-127484766D01*
X144793762Y-127484767D01*
X144595836Y-127544807D01*
X144518707Y-127552403D01*
X144441580Y-127560000D01*
X144338420Y-127560000D01*
X144261293Y-127552403D01*
X144184164Y-127544807D01*
X143986238Y-127484767D01*
X143986235Y-127484766D01*
X143803830Y-127387268D01*
X143643945Y-127256055D01*
X143512732Y-127096170D01*
X143415234Y-126913765D01*
X143415233Y-126913762D01*
X143355193Y-126715836D01*
X143334920Y-126510000D01*
X143355193Y-126304164D01*
X143415233Y-126106238D01*
X143415234Y-126106235D01*
X143512732Y-125923830D01*
X143643945Y-125763945D01*
X143803830Y-125632732D01*
X143986235Y-125535234D01*
X143986238Y-125535233D01*
X144184164Y-125475193D01*
X144261293Y-125467597D01*
X144338420Y-125460000D01*
X144441580Y-125460000D01*
X144518707Y-125467597D01*
X144518707Y-125467597D01*
G37*
G36*
X147058707Y-125467597D02*
G01*
X147135836Y-125475193D01*
X147333762Y-125535233D01*
X147333765Y-125535234D01*
X147516170Y-125632732D01*
X147676055Y-125763945D01*
X147807268Y-125923830D01*
X147904766Y-126106235D01*
X147904767Y-126106238D01*
X147964807Y-126304164D01*
X147985080Y-126510000D01*
X147964807Y-126715836D01*
X147904767Y-126913762D01*
X147904766Y-126913765D01*
X147807268Y-127096170D01*
X147676055Y-127256055D01*
X147516170Y-127387268D01*
X147333765Y-127484766D01*
X147333762Y-127484767D01*
X147135836Y-127544807D01*
X147058707Y-127552403D01*
X146981580Y-127560000D01*
X146878420Y-127560000D01*
X146801293Y-127552403D01*
X146724164Y-127544807D01*
X146526238Y-127484767D01*
X146526235Y-127484766D01*
X146343830Y-127387268D01*
X146183945Y-127256055D01*
X146052732Y-127096170D01*
X145955234Y-126913765D01*
X145955233Y-126913762D01*
X145895193Y-126715836D01*
X145874920Y-126510000D01*
X145895193Y-126304164D01*
X145955233Y-126106238D01*
X145955234Y-126106235D01*
X146052732Y-125923830D01*
X146183945Y-125763945D01*
X146343830Y-125632732D01*
X146526235Y-125535234D01*
X146526238Y-125535233D01*
X146724164Y-125475193D01*
X146801293Y-125467597D01*
X146878420Y-125460000D01*
X146981580Y-125460000D01*
X147058707Y-125467597D01*
X147058707Y-125467597D01*
G37*
G36*
X141978707Y-125467597D02*
G01*
X142055836Y-125475193D01*
X142253762Y-125535233D01*
X142253765Y-125535234D01*
X142436170Y-125632732D01*
X142596055Y-125763945D01*
X142727268Y-125923830D01*
X142824766Y-126106235D01*
X142824767Y-126106238D01*
X142884807Y-126304164D01*
X142905080Y-126510000D01*
X142884807Y-126715836D01*
X142824767Y-126913762D01*
X142824766Y-126913765D01*
X142727268Y-127096170D01*
X142596055Y-127256055D01*
X142436170Y-127387268D01*
X142253765Y-127484766D01*
X142253762Y-127484767D01*
X142055836Y-127544807D01*
X141978707Y-127552403D01*
X141901580Y-127560000D01*
X141798420Y-127560000D01*
X141721293Y-127552403D01*
X141644164Y-127544807D01*
X141446238Y-127484767D01*
X141446235Y-127484766D01*
X141263830Y-127387268D01*
X141103945Y-127256055D01*
X140972732Y-127096170D01*
X140875234Y-126913765D01*
X140875233Y-126913762D01*
X140815193Y-126715836D01*
X140794920Y-126510000D01*
X140815193Y-126304164D01*
X140875233Y-126106238D01*
X140875234Y-126106235D01*
X140972732Y-125923830D01*
X141103945Y-125763945D01*
X141263830Y-125632732D01*
X141446235Y-125535234D01*
X141446238Y-125535233D01*
X141644164Y-125475193D01*
X141721293Y-125467597D01*
X141798420Y-125460000D01*
X141901580Y-125460000D01*
X141978707Y-125467597D01*
X141978707Y-125467597D01*
G37*
G36*
X162298707Y-125467597D02*
G01*
X162375836Y-125475193D01*
X162573762Y-125535233D01*
X162573765Y-125535234D01*
X162756170Y-125632732D01*
X162916055Y-125763945D01*
X163047268Y-125923830D01*
X163144766Y-126106235D01*
X163144767Y-126106238D01*
X163204807Y-126304164D01*
X163225080Y-126510000D01*
X163204807Y-126715836D01*
X163144767Y-126913762D01*
X163144766Y-126913765D01*
X163047268Y-127096170D01*
X162916055Y-127256055D01*
X162756170Y-127387268D01*
X162573765Y-127484766D01*
X162573762Y-127484767D01*
X162375836Y-127544807D01*
X162298707Y-127552403D01*
X162221580Y-127560000D01*
X162118420Y-127560000D01*
X162041293Y-127552403D01*
X161964164Y-127544807D01*
X161766238Y-127484767D01*
X161766235Y-127484766D01*
X161583830Y-127387268D01*
X161423945Y-127256055D01*
X161292732Y-127096170D01*
X161195234Y-126913765D01*
X161195233Y-126913762D01*
X161135193Y-126715836D01*
X161114920Y-126510000D01*
X161135193Y-126304164D01*
X161195233Y-126106238D01*
X161195234Y-126106235D01*
X161292732Y-125923830D01*
X161423945Y-125763945D01*
X161583830Y-125632732D01*
X161766235Y-125535234D01*
X161766238Y-125535233D01*
X161964164Y-125475193D01*
X162041293Y-125467597D01*
X162118420Y-125460000D01*
X162221580Y-125460000D01*
X162298707Y-125467597D01*
X162298707Y-125467597D01*
G37*
G36*
X164838707Y-125467597D02*
G01*
X164915836Y-125475193D01*
X165113762Y-125535233D01*
X165113765Y-125535234D01*
X165296170Y-125632732D01*
X165456055Y-125763945D01*
X165587268Y-125923830D01*
X165684766Y-126106235D01*
X165684767Y-126106238D01*
X165744807Y-126304164D01*
X165765080Y-126510000D01*
X165744807Y-126715836D01*
X165684767Y-126913762D01*
X165684766Y-126913765D01*
X165587268Y-127096170D01*
X165456055Y-127256055D01*
X165296170Y-127387268D01*
X165113765Y-127484766D01*
X165113762Y-127484767D01*
X164915836Y-127544807D01*
X164838707Y-127552403D01*
X164761580Y-127560000D01*
X164658420Y-127560000D01*
X164581293Y-127552403D01*
X164504164Y-127544807D01*
X164306238Y-127484767D01*
X164306235Y-127484766D01*
X164123830Y-127387268D01*
X163963945Y-127256055D01*
X163832732Y-127096170D01*
X163735234Y-126913765D01*
X163735233Y-126913762D01*
X163675193Y-126715836D01*
X163654920Y-126510000D01*
X163675193Y-126304164D01*
X163735233Y-126106238D01*
X163735234Y-126106235D01*
X163832732Y-125923830D01*
X163963945Y-125763945D01*
X164123830Y-125632732D01*
X164306235Y-125535234D01*
X164306238Y-125535233D01*
X164504164Y-125475193D01*
X164581293Y-125467597D01*
X164658420Y-125460000D01*
X164761580Y-125460000D01*
X164838707Y-125467597D01*
X164838707Y-125467597D01*
G37*
G36*
X149598707Y-125467597D02*
G01*
X149675836Y-125475193D01*
X149873762Y-125535233D01*
X149873765Y-125535234D01*
X150056170Y-125632732D01*
X150216055Y-125763945D01*
X150347268Y-125923830D01*
X150444766Y-126106235D01*
X150444767Y-126106238D01*
X150504807Y-126304164D01*
X150525080Y-126510000D01*
X150504807Y-126715836D01*
X150444767Y-126913762D01*
X150444766Y-126913765D01*
X150347268Y-127096170D01*
X150216055Y-127256055D01*
X150056170Y-127387268D01*
X149873765Y-127484766D01*
X149873762Y-127484767D01*
X149675836Y-127544807D01*
X149598707Y-127552403D01*
X149521580Y-127560000D01*
X149418420Y-127560000D01*
X149341293Y-127552403D01*
X149264164Y-127544807D01*
X149066238Y-127484767D01*
X149066235Y-127484766D01*
X148883830Y-127387268D01*
X148723945Y-127256055D01*
X148592732Y-127096170D01*
X148495234Y-126913765D01*
X148495233Y-126913762D01*
X148435193Y-126715836D01*
X148414920Y-126510000D01*
X148435193Y-126304164D01*
X148495233Y-126106238D01*
X148495234Y-126106235D01*
X148592732Y-125923830D01*
X148723945Y-125763945D01*
X148883830Y-125632732D01*
X149066235Y-125535234D01*
X149066238Y-125535233D01*
X149264164Y-125475193D01*
X149341293Y-125467597D01*
X149418420Y-125460000D01*
X149521580Y-125460000D01*
X149598707Y-125467597D01*
X149598707Y-125467597D01*
G37*
G36*
X167378707Y-125467597D02*
G01*
X167455836Y-125475193D01*
X167653762Y-125535233D01*
X167653765Y-125535234D01*
X167836170Y-125632732D01*
X167996055Y-125763945D01*
X168127268Y-125923830D01*
X168224766Y-126106235D01*
X168224767Y-126106238D01*
X168284807Y-126304164D01*
X168305080Y-126510000D01*
X168284807Y-126715836D01*
X168224767Y-126913762D01*
X168224766Y-126913765D01*
X168127268Y-127096170D01*
X167996055Y-127256055D01*
X167836170Y-127387268D01*
X167653765Y-127484766D01*
X167653762Y-127484767D01*
X167455836Y-127544807D01*
X167378707Y-127552403D01*
X167301580Y-127560000D01*
X167198420Y-127560000D01*
X167121293Y-127552403D01*
X167044164Y-127544807D01*
X166846238Y-127484767D01*
X166846235Y-127484766D01*
X166663830Y-127387268D01*
X166503945Y-127256055D01*
X166372732Y-127096170D01*
X166275234Y-126913765D01*
X166275233Y-126913762D01*
X166215193Y-126715836D01*
X166194920Y-126510000D01*
X166215193Y-126304164D01*
X166275233Y-126106238D01*
X166275234Y-126106235D01*
X166372732Y-125923830D01*
X166503945Y-125763945D01*
X166663830Y-125632732D01*
X166846235Y-125535234D01*
X166846238Y-125535233D01*
X167044164Y-125475193D01*
X167121293Y-125467597D01*
X167198420Y-125460000D01*
X167301580Y-125460000D01*
X167378707Y-125467597D01*
X167378707Y-125467597D01*
G37*
G36*
X169918707Y-125467597D02*
G01*
X169995836Y-125475193D01*
X170193762Y-125535233D01*
X170193765Y-125535234D01*
X170376170Y-125632732D01*
X170536055Y-125763945D01*
X170667268Y-125923830D01*
X170764766Y-126106235D01*
X170764767Y-126106238D01*
X170824807Y-126304164D01*
X170845080Y-126510000D01*
X170824807Y-126715836D01*
X170764767Y-126913762D01*
X170764766Y-126913765D01*
X170667268Y-127096170D01*
X170536055Y-127256055D01*
X170376170Y-127387268D01*
X170193765Y-127484766D01*
X170193762Y-127484767D01*
X169995836Y-127544807D01*
X169918707Y-127552403D01*
X169841580Y-127560000D01*
X169738420Y-127560000D01*
X169661293Y-127552403D01*
X169584164Y-127544807D01*
X169386238Y-127484767D01*
X169386235Y-127484766D01*
X169203830Y-127387268D01*
X169043945Y-127256055D01*
X168912732Y-127096170D01*
X168815234Y-126913765D01*
X168815233Y-126913762D01*
X168755193Y-126715836D01*
X168734920Y-126510000D01*
X168755193Y-126304164D01*
X168815233Y-126106238D01*
X168815234Y-126106235D01*
X168912732Y-125923830D01*
X169043945Y-125763945D01*
X169203830Y-125632732D01*
X169386235Y-125535234D01*
X169386238Y-125535233D01*
X169584164Y-125475193D01*
X169661293Y-125467597D01*
X169738420Y-125460000D01*
X169841580Y-125460000D01*
X169918707Y-125467597D01*
X169918707Y-125467597D01*
G37*
G36*
X152138707Y-125467597D02*
G01*
X152215836Y-125475193D01*
X152413762Y-125535233D01*
X152413765Y-125535234D01*
X152596170Y-125632732D01*
X152756055Y-125763945D01*
X152887268Y-125923830D01*
X152984766Y-126106235D01*
X152984767Y-126106238D01*
X153044807Y-126304164D01*
X153065080Y-126510000D01*
X153044807Y-126715836D01*
X152984767Y-126913762D01*
X152984766Y-126913765D01*
X152887268Y-127096170D01*
X152756055Y-127256055D01*
X152596170Y-127387268D01*
X152413765Y-127484766D01*
X152413762Y-127484767D01*
X152215836Y-127544807D01*
X152138707Y-127552403D01*
X152061580Y-127560000D01*
X151958420Y-127560000D01*
X151881293Y-127552403D01*
X151804164Y-127544807D01*
X151606238Y-127484767D01*
X151606235Y-127484766D01*
X151423830Y-127387268D01*
X151263945Y-127256055D01*
X151132732Y-127096170D01*
X151035234Y-126913765D01*
X151035233Y-126913762D01*
X150975193Y-126715836D01*
X150954920Y-126510000D01*
X150975193Y-126304164D01*
X151035233Y-126106238D01*
X151035234Y-126106235D01*
X151132732Y-125923830D01*
X151263945Y-125763945D01*
X151423830Y-125632732D01*
X151606235Y-125535234D01*
X151606238Y-125535233D01*
X151804164Y-125475193D01*
X151881293Y-125467597D01*
X151958420Y-125460000D01*
X152061580Y-125460000D01*
X152138707Y-125467597D01*
X152138707Y-125467597D01*
G37*
G36*
X154678707Y-125467597D02*
G01*
X154755836Y-125475193D01*
X154953762Y-125535233D01*
X154953765Y-125535234D01*
X155136170Y-125632732D01*
X155296055Y-125763945D01*
X155427268Y-125923830D01*
X155524766Y-126106235D01*
X155524767Y-126106238D01*
X155584807Y-126304164D01*
X155605080Y-126510000D01*
X155584807Y-126715836D01*
X155524767Y-126913762D01*
X155524766Y-126913765D01*
X155427268Y-127096170D01*
X155296055Y-127256055D01*
X155136170Y-127387268D01*
X154953765Y-127484766D01*
X154953762Y-127484767D01*
X154755836Y-127544807D01*
X154678707Y-127552403D01*
X154601580Y-127560000D01*
X154498420Y-127560000D01*
X154421293Y-127552403D01*
X154344164Y-127544807D01*
X154146238Y-127484767D01*
X154146235Y-127484766D01*
X153963830Y-127387268D01*
X153803945Y-127256055D01*
X153672732Y-127096170D01*
X153575234Y-126913765D01*
X153575233Y-126913762D01*
X153515193Y-126715836D01*
X153494920Y-126510000D01*
X153515193Y-126304164D01*
X153575233Y-126106238D01*
X153575234Y-126106235D01*
X153672732Y-125923830D01*
X153803945Y-125763945D01*
X153963830Y-125632732D01*
X154146235Y-125535234D01*
X154146238Y-125535233D01*
X154344164Y-125475193D01*
X154421293Y-125467597D01*
X154498420Y-125460000D01*
X154601580Y-125460000D01*
X154678707Y-125467597D01*
X154678707Y-125467597D01*
G37*
G36*
X157218707Y-125467597D02*
G01*
X157295836Y-125475193D01*
X157493762Y-125535233D01*
X157493765Y-125535234D01*
X157676170Y-125632732D01*
X157836055Y-125763945D01*
X157967268Y-125923830D01*
X158064766Y-126106235D01*
X158064767Y-126106238D01*
X158124807Y-126304164D01*
X158145080Y-126510000D01*
X158124807Y-126715836D01*
X158064767Y-126913762D01*
X158064766Y-126913765D01*
X157967268Y-127096170D01*
X157836055Y-127256055D01*
X157676170Y-127387268D01*
X157493765Y-127484766D01*
X157493762Y-127484767D01*
X157295836Y-127544807D01*
X157218707Y-127552403D01*
X157141580Y-127560000D01*
X157038420Y-127560000D01*
X156961293Y-127552403D01*
X156884164Y-127544807D01*
X156686238Y-127484767D01*
X156686235Y-127484766D01*
X156503830Y-127387268D01*
X156343945Y-127256055D01*
X156212732Y-127096170D01*
X156115234Y-126913765D01*
X156115233Y-126913762D01*
X156055193Y-126715836D01*
X156034920Y-126510000D01*
X156055193Y-126304164D01*
X156115233Y-126106238D01*
X156115234Y-126106235D01*
X156212732Y-125923830D01*
X156343945Y-125763945D01*
X156503830Y-125632732D01*
X156686235Y-125535234D01*
X156686238Y-125535233D01*
X156884164Y-125475193D01*
X156961293Y-125467597D01*
X157038420Y-125460000D01*
X157141580Y-125460000D01*
X157218707Y-125467597D01*
X157218707Y-125467597D01*
G37*
G36*
X172458707Y-125467597D02*
G01*
X172535836Y-125475193D01*
X172733762Y-125535233D01*
X172733765Y-125535234D01*
X172916170Y-125632732D01*
X173076055Y-125763945D01*
X173207268Y-125923830D01*
X173304766Y-126106235D01*
X173304767Y-126106238D01*
X173364807Y-126304164D01*
X173385080Y-126510000D01*
X173364807Y-126715836D01*
X173304767Y-126913762D01*
X173304766Y-126913765D01*
X173207268Y-127096170D01*
X173076055Y-127256055D01*
X172916170Y-127387268D01*
X172733765Y-127484766D01*
X172733762Y-127484767D01*
X172535836Y-127544807D01*
X172458707Y-127552403D01*
X172381580Y-127560000D01*
X172278420Y-127560000D01*
X172201293Y-127552403D01*
X172124164Y-127544807D01*
X171926238Y-127484767D01*
X171926235Y-127484766D01*
X171743830Y-127387268D01*
X171583945Y-127256055D01*
X171452732Y-127096170D01*
X171355234Y-126913765D01*
X171355233Y-126913762D01*
X171295193Y-126715836D01*
X171274920Y-126510000D01*
X171295193Y-126304164D01*
X171355233Y-126106238D01*
X171355234Y-126106235D01*
X171452732Y-125923830D01*
X171583945Y-125763945D01*
X171743830Y-125632732D01*
X171926235Y-125535234D01*
X171926238Y-125535233D01*
X172124164Y-125475193D01*
X172201293Y-125467597D01*
X172278420Y-125460000D01*
X172381580Y-125460000D01*
X172458707Y-125467597D01*
X172458707Y-125467597D01*
G37*
G36*
X159758707Y-125467597D02*
G01*
X159835836Y-125475193D01*
X160033762Y-125535233D01*
X160033765Y-125535234D01*
X160216170Y-125632732D01*
X160376055Y-125763945D01*
X160507268Y-125923830D01*
X160604766Y-126106235D01*
X160604767Y-126106238D01*
X160664807Y-126304164D01*
X160685080Y-126510000D01*
X160664807Y-126715836D01*
X160604767Y-126913762D01*
X160604766Y-126913765D01*
X160507268Y-127096170D01*
X160376055Y-127256055D01*
X160216170Y-127387268D01*
X160033765Y-127484766D01*
X160033762Y-127484767D01*
X159835836Y-127544807D01*
X159758707Y-127552403D01*
X159681580Y-127560000D01*
X159578420Y-127560000D01*
X159501293Y-127552403D01*
X159424164Y-127544807D01*
X159226238Y-127484767D01*
X159226235Y-127484766D01*
X159043830Y-127387268D01*
X158883945Y-127256055D01*
X158752732Y-127096170D01*
X158655234Y-126913765D01*
X158655233Y-126913762D01*
X158595193Y-126715836D01*
X158574920Y-126510000D01*
X158595193Y-126304164D01*
X158655233Y-126106238D01*
X158655234Y-126106235D01*
X158752732Y-125923830D01*
X158883945Y-125763945D01*
X159043830Y-125632732D01*
X159226235Y-125535234D01*
X159226238Y-125535233D01*
X159424164Y-125475193D01*
X159501293Y-125467597D01*
X159578420Y-125460000D01*
X159681580Y-125460000D01*
X159758707Y-125467597D01*
X159758707Y-125467597D01*
G37*
G36*
X187698707Y-125467597D02*
G01*
X187775836Y-125475193D01*
X187973762Y-125535233D01*
X187973765Y-125535234D01*
X188156170Y-125632732D01*
X188316055Y-125763945D01*
X188447268Y-125923830D01*
X188544766Y-126106235D01*
X188544767Y-126106238D01*
X188604807Y-126304164D01*
X188625080Y-126510000D01*
X188604807Y-126715836D01*
X188544767Y-126913762D01*
X188544766Y-126913765D01*
X188447268Y-127096170D01*
X188316055Y-127256055D01*
X188156170Y-127387268D01*
X187973765Y-127484766D01*
X187973762Y-127484767D01*
X187775836Y-127544807D01*
X187698707Y-127552403D01*
X187621580Y-127560000D01*
X187518420Y-127560000D01*
X187441293Y-127552403D01*
X187364164Y-127544807D01*
X187166238Y-127484767D01*
X187166235Y-127484766D01*
X186983830Y-127387268D01*
X186823945Y-127256055D01*
X186692732Y-127096170D01*
X186595234Y-126913765D01*
X186595233Y-126913762D01*
X186535193Y-126715836D01*
X186514920Y-126510000D01*
X186535193Y-126304164D01*
X186595233Y-126106238D01*
X186595234Y-126106235D01*
X186692732Y-125923830D01*
X186823945Y-125763945D01*
X186983830Y-125632732D01*
X187166235Y-125535234D01*
X187166238Y-125535233D01*
X187364164Y-125475193D01*
X187441293Y-125467597D01*
X187518420Y-125460000D01*
X187621580Y-125460000D01*
X187698707Y-125467597D01*
X187698707Y-125467597D01*
G37*
G36*
X141760026Y-121966115D02*
G01*
X141978411Y-122056573D01*
X141978413Y-122056574D01*
X142174955Y-122187899D01*
X142342101Y-122355045D01*
X142473427Y-122551589D01*
X142563885Y-122769974D01*
X142610000Y-123001809D01*
X142610000Y-123238191D01*
X142563885Y-123470026D01*
X142491127Y-123645679D01*
X142473426Y-123688413D01*
X142342101Y-123884955D01*
X142174955Y-124052101D01*
X141978413Y-124183426D01*
X141978412Y-124183427D01*
X141978411Y-124183427D01*
X141760026Y-124273885D01*
X141528191Y-124320000D01*
X141291809Y-124320000D01*
X141059974Y-124273885D01*
X140841589Y-124183427D01*
X140841588Y-124183427D01*
X140841587Y-124183426D01*
X140645045Y-124052101D01*
X140477899Y-123884955D01*
X140346574Y-123688413D01*
X140328873Y-123645679D01*
X140256115Y-123470026D01*
X140210000Y-123238191D01*
X140210000Y-123001809D01*
X140256115Y-122769974D01*
X140346573Y-122551589D01*
X140477899Y-122355045D01*
X140645045Y-122187899D01*
X140841587Y-122056574D01*
X140841589Y-122056573D01*
X141059974Y-121966115D01*
X141291809Y-121920000D01*
X141528191Y-121920000D01*
X141760026Y-121966115D01*
X141760026Y-121966115D01*
G37*
G36*
X136760026Y-121966115D02*
G01*
X136978411Y-122056573D01*
X136978413Y-122056574D01*
X137174955Y-122187899D01*
X137342101Y-122355045D01*
X137473427Y-122551589D01*
X137563885Y-122769974D01*
X137610000Y-123001809D01*
X137610000Y-123238191D01*
X137563885Y-123470026D01*
X137491127Y-123645679D01*
X137473426Y-123688413D01*
X137342101Y-123884955D01*
X137174955Y-124052101D01*
X136978413Y-124183426D01*
X136978412Y-124183427D01*
X136978411Y-124183427D01*
X136760026Y-124273885D01*
X136528191Y-124320000D01*
X136291809Y-124320000D01*
X136059974Y-124273885D01*
X135841589Y-124183427D01*
X135841588Y-124183427D01*
X135841587Y-124183426D01*
X135645045Y-124052101D01*
X135477899Y-123884955D01*
X135346574Y-123688413D01*
X135328873Y-123645679D01*
X135256115Y-123470026D01*
X135210000Y-123238191D01*
X135210000Y-123001809D01*
X135256115Y-122769974D01*
X135346573Y-122551589D01*
X135477899Y-122355045D01*
X135645045Y-122187899D01*
X135841587Y-122056574D01*
X135841589Y-122056573D01*
X136059974Y-121966115D01*
X136291809Y-121920000D01*
X136528191Y-121920000D01*
X136760026Y-121966115D01*
X136760026Y-121966115D01*
G37*
G36*
X169452000Y-124152000D02*
G01*
X167528000Y-124152000D01*
X167528000Y-122228000D01*
X169452000Y-122228000D01*
X169452000Y-124152000D01*
X169452000Y-124152000D01*
G37*
G36*
X161170604Y-122264968D02*
G01*
X161345678Y-122337486D01*
X161345679Y-122337487D01*
X161503237Y-122442763D01*
X161637237Y-122576763D01*
X161725007Y-122708121D01*
X161742514Y-122734322D01*
X161757281Y-122769973D01*
X161815032Y-122909396D01*
X161852000Y-123095250D01*
X161852000Y-123284750D01*
X161815032Y-123470604D01*
X161778772Y-123558142D01*
X161742514Y-123645678D01*
X161742513Y-123645679D01*
X161637237Y-123803237D01*
X161503237Y-123937237D01*
X161371879Y-124025007D01*
X161345678Y-124042514D01*
X161258142Y-124078772D01*
X161170604Y-124115032D01*
X160984750Y-124152000D01*
X160795250Y-124152000D01*
X160609396Y-124115032D01*
X160521858Y-124078772D01*
X160434322Y-124042514D01*
X160408121Y-124025007D01*
X160276763Y-123937237D01*
X160142763Y-123803237D01*
X160037487Y-123645679D01*
X160037486Y-123645678D01*
X160001228Y-123558142D01*
X159964968Y-123470604D01*
X159928000Y-123284750D01*
X159928000Y-123095250D01*
X159964968Y-122909396D01*
X160022719Y-122769973D01*
X160037486Y-122734322D01*
X160054993Y-122708121D01*
X160142763Y-122576763D01*
X160276763Y-122442763D01*
X160434321Y-122337487D01*
X160434322Y-122337486D01*
X160609396Y-122264968D01*
X160795250Y-122228000D01*
X160984750Y-122228000D01*
X161170604Y-122264968D01*
X161170604Y-122264968D01*
G37*
G36*
X163690604Y-122264968D02*
G01*
X163865678Y-122337486D01*
X163865679Y-122337487D01*
X164023237Y-122442763D01*
X164157237Y-122576763D01*
X164245007Y-122708121D01*
X164262514Y-122734322D01*
X164277281Y-122769973D01*
X164335032Y-122909396D01*
X164372000Y-123095250D01*
X164372000Y-123284750D01*
X164335032Y-123470604D01*
X164298772Y-123558142D01*
X164262514Y-123645678D01*
X164262513Y-123645679D01*
X164157237Y-123803237D01*
X164023237Y-123937237D01*
X163891879Y-124025007D01*
X163865678Y-124042514D01*
X163778142Y-124078772D01*
X163690604Y-124115032D01*
X163504750Y-124152000D01*
X163315250Y-124152000D01*
X163129396Y-124115032D01*
X163041858Y-124078772D01*
X162954322Y-124042514D01*
X162928121Y-124025007D01*
X162796763Y-123937237D01*
X162662763Y-123803237D01*
X162557487Y-123645679D01*
X162557486Y-123645678D01*
X162521228Y-123558142D01*
X162484968Y-123470604D01*
X162448000Y-123284750D01*
X162448000Y-123095250D01*
X162484968Y-122909396D01*
X162542719Y-122769973D01*
X162557486Y-122734322D01*
X162574993Y-122708121D01*
X162662763Y-122576763D01*
X162796763Y-122442763D01*
X162954321Y-122337487D01*
X162954322Y-122337486D01*
X163129396Y-122264968D01*
X163315250Y-122228000D01*
X163504750Y-122228000D01*
X163690604Y-122264968D01*
X163690604Y-122264968D01*
G37*
G36*
X166210604Y-122264968D02*
G01*
X166385678Y-122337486D01*
X166385679Y-122337487D01*
X166543237Y-122442763D01*
X166677237Y-122576763D01*
X166765007Y-122708121D01*
X166782514Y-122734322D01*
X166797281Y-122769973D01*
X166855032Y-122909396D01*
X166892000Y-123095250D01*
X166892000Y-123284750D01*
X166855032Y-123470604D01*
X166818772Y-123558142D01*
X166782514Y-123645678D01*
X166782513Y-123645679D01*
X166677237Y-123803237D01*
X166543237Y-123937237D01*
X166411879Y-124025007D01*
X166385678Y-124042514D01*
X166298142Y-124078772D01*
X166210604Y-124115032D01*
X166024750Y-124152000D01*
X165835250Y-124152000D01*
X165649396Y-124115032D01*
X165561858Y-124078772D01*
X165474322Y-124042514D01*
X165448121Y-124025007D01*
X165316763Y-123937237D01*
X165182763Y-123803237D01*
X165077487Y-123645679D01*
X165077486Y-123645678D01*
X165041228Y-123558142D01*
X165004968Y-123470604D01*
X164968000Y-123284750D01*
X164968000Y-123095250D01*
X165004968Y-122909396D01*
X165062719Y-122769973D01*
X165077486Y-122734322D01*
X165094993Y-122708121D01*
X165182763Y-122576763D01*
X165316763Y-122442763D01*
X165474321Y-122337487D01*
X165474322Y-122337486D01*
X165649396Y-122264968D01*
X165835250Y-122228000D01*
X166024750Y-122228000D01*
X166210604Y-122264968D01*
X166210604Y-122264968D01*
G37*
G36*
X195028707Y-120183597D02*
G01*
X195105836Y-120191193D01*
X195303762Y-120251233D01*
X195303765Y-120251234D01*
X195486170Y-120348732D01*
X195646055Y-120479945D01*
X195777268Y-120639830D01*
X195874766Y-120822235D01*
X195874767Y-120822238D01*
X195934807Y-121020164D01*
X195955080Y-121226000D01*
X195934807Y-121431836D01*
X195874767Y-121629762D01*
X195874766Y-121629765D01*
X195777268Y-121812170D01*
X195646055Y-121972055D01*
X195486170Y-122103268D01*
X195303765Y-122200766D01*
X195303762Y-122200767D01*
X195105836Y-122260807D01*
X195028707Y-122268404D01*
X194951580Y-122276000D01*
X194848420Y-122276000D01*
X194771293Y-122268404D01*
X194694164Y-122260807D01*
X194496238Y-122200767D01*
X194496235Y-122200766D01*
X194313830Y-122103268D01*
X194153945Y-121972055D01*
X194022732Y-121812170D01*
X193925234Y-121629765D01*
X193925233Y-121629762D01*
X193865193Y-121431836D01*
X193844920Y-121226000D01*
X193865193Y-121020164D01*
X193925233Y-120822238D01*
X193925234Y-120822235D01*
X194022732Y-120639830D01*
X194153945Y-120479945D01*
X194313830Y-120348732D01*
X194496235Y-120251234D01*
X194496238Y-120251233D01*
X194694164Y-120191193D01*
X194771293Y-120183597D01*
X194848420Y-120176000D01*
X194951580Y-120176000D01*
X195028707Y-120183597D01*
X195028707Y-120183597D01*
G37*
G36*
X136760026Y-118966115D02*
G01*
X136978411Y-119056573D01*
X136978413Y-119056574D01*
X137028082Y-119089762D01*
X137174955Y-119187899D01*
X137342101Y-119355045D01*
X137473427Y-119551589D01*
X137563885Y-119769974D01*
X137610000Y-120001809D01*
X137610000Y-120238191D01*
X137563885Y-120470026D01*
X137493550Y-120639829D01*
X137473426Y-120688413D01*
X137342101Y-120884955D01*
X137174955Y-121052101D01*
X136978413Y-121183426D01*
X136978412Y-121183427D01*
X136978411Y-121183427D01*
X136760026Y-121273885D01*
X136528191Y-121320000D01*
X136291809Y-121320000D01*
X136059974Y-121273885D01*
X135841589Y-121183427D01*
X135841588Y-121183427D01*
X135841587Y-121183426D01*
X135645045Y-121052101D01*
X135477899Y-120884955D01*
X135346574Y-120688413D01*
X135326450Y-120639829D01*
X135256115Y-120470026D01*
X135210000Y-120238191D01*
X135210000Y-120001809D01*
X135256115Y-119769974D01*
X135346573Y-119551589D01*
X135477899Y-119355045D01*
X135645045Y-119187899D01*
X135791918Y-119089762D01*
X135841587Y-119056574D01*
X135841589Y-119056573D01*
X136059974Y-118966115D01*
X136291809Y-118920000D01*
X136528191Y-118920000D01*
X136760026Y-118966115D01*
X136760026Y-118966115D01*
G37*
G36*
X141760026Y-118966115D02*
G01*
X141978411Y-119056573D01*
X141978413Y-119056574D01*
X142028082Y-119089762D01*
X142174955Y-119187899D01*
X142342101Y-119355045D01*
X142473427Y-119551589D01*
X142563885Y-119769974D01*
X142610000Y-120001809D01*
X142610000Y-120238191D01*
X142563885Y-120470026D01*
X142493550Y-120639829D01*
X142473426Y-120688413D01*
X142342101Y-120884955D01*
X142174955Y-121052101D01*
X141978413Y-121183426D01*
X141978412Y-121183427D01*
X141978411Y-121183427D01*
X141760026Y-121273885D01*
X141528191Y-121320000D01*
X141291809Y-121320000D01*
X141059974Y-121273885D01*
X140841589Y-121183427D01*
X140841588Y-121183427D01*
X140841587Y-121183426D01*
X140645045Y-121052101D01*
X140477899Y-120884955D01*
X140346574Y-120688413D01*
X140326450Y-120639829D01*
X140256115Y-120470026D01*
X140210000Y-120238191D01*
X140210000Y-120001809D01*
X140256115Y-119769974D01*
X140346573Y-119551589D01*
X140477899Y-119355045D01*
X140645045Y-119187899D01*
X140791918Y-119089762D01*
X140841587Y-119056574D01*
X140841589Y-119056573D01*
X141059974Y-118966115D01*
X141291809Y-118920000D01*
X141528191Y-118920000D01*
X141760026Y-118966115D01*
X141760026Y-118966115D01*
G37*
G36*
X195028707Y-117643596D02*
G01*
X195105836Y-117651193D01*
X195303762Y-117711233D01*
X195303765Y-117711234D01*
X195486170Y-117808732D01*
X195646055Y-117939945D01*
X195777268Y-118099830D01*
X195874766Y-118282235D01*
X195874767Y-118282238D01*
X195934807Y-118480164D01*
X195955080Y-118686000D01*
X195934807Y-118891836D01*
X195912274Y-118966116D01*
X195874766Y-119089765D01*
X195777268Y-119272170D01*
X195646055Y-119432055D01*
X195486170Y-119563268D01*
X195303765Y-119660766D01*
X195303762Y-119660767D01*
X195105836Y-119720807D01*
X195028707Y-119728404D01*
X194951580Y-119736000D01*
X194848420Y-119736000D01*
X194771293Y-119728404D01*
X194694164Y-119720807D01*
X194496238Y-119660767D01*
X194496235Y-119660766D01*
X194313830Y-119563268D01*
X194153945Y-119432055D01*
X194022732Y-119272170D01*
X193925234Y-119089765D01*
X193887726Y-118966116D01*
X193865193Y-118891836D01*
X193844920Y-118686000D01*
X193865193Y-118480164D01*
X193925233Y-118282238D01*
X193925234Y-118282235D01*
X194022732Y-118099830D01*
X194153945Y-117939945D01*
X194313830Y-117808732D01*
X194496235Y-117711234D01*
X194496238Y-117711233D01*
X194694164Y-117651193D01*
X194771293Y-117643596D01*
X194848420Y-117636000D01*
X194951580Y-117636000D01*
X195028707Y-117643596D01*
X195028707Y-117643596D01*
G37*
G36*
X147642000Y-119368000D02*
G01*
X145718000Y-119368000D01*
X145718000Y-117444000D01*
X147642000Y-117444000D01*
X147642000Y-119368000D01*
X147642000Y-119368000D01*
G37*
G36*
X136760026Y-115766115D02*
G01*
X136978411Y-115856573D01*
X136978413Y-115856574D01*
X137174955Y-115987899D01*
X137342101Y-116155045D01*
X137473427Y-116351589D01*
X137563885Y-116569974D01*
X137610000Y-116801809D01*
X137610000Y-117038191D01*
X137563885Y-117270026D01*
X137473427Y-117488411D01*
X137473426Y-117488413D01*
X137342101Y-117684955D01*
X137174955Y-117852101D01*
X136978413Y-117983426D01*
X136978412Y-117983427D01*
X136978411Y-117983427D01*
X136760026Y-118073885D01*
X136528191Y-118120000D01*
X136291809Y-118120000D01*
X136059974Y-118073885D01*
X135841589Y-117983427D01*
X135841588Y-117983427D01*
X135841587Y-117983426D01*
X135645045Y-117852101D01*
X135477899Y-117684955D01*
X135346574Y-117488413D01*
X135346573Y-117488411D01*
X135256115Y-117270026D01*
X135210000Y-117038191D01*
X135210000Y-116801809D01*
X135256115Y-116569974D01*
X135346573Y-116351589D01*
X135477899Y-116155045D01*
X135645045Y-115987899D01*
X135841587Y-115856574D01*
X135841589Y-115856573D01*
X136059974Y-115766115D01*
X136291809Y-115720000D01*
X136528191Y-115720000D01*
X136760026Y-115766115D01*
X136760026Y-115766115D01*
G37*
G36*
X141760026Y-115766115D02*
G01*
X141978411Y-115856573D01*
X141978413Y-115856574D01*
X142174955Y-115987899D01*
X142342101Y-116155045D01*
X142473427Y-116351589D01*
X142563885Y-116569974D01*
X142610000Y-116801809D01*
X142610000Y-117038191D01*
X142563885Y-117270026D01*
X142473427Y-117488411D01*
X142473426Y-117488413D01*
X142342101Y-117684955D01*
X142174955Y-117852101D01*
X141978413Y-117983426D01*
X141978412Y-117983427D01*
X141978411Y-117983427D01*
X141760026Y-118073885D01*
X141528191Y-118120000D01*
X141291809Y-118120000D01*
X141059974Y-118073885D01*
X140841589Y-117983427D01*
X140841588Y-117983427D01*
X140841587Y-117983426D01*
X140645045Y-117852101D01*
X140477899Y-117684955D01*
X140346574Y-117488413D01*
X140346573Y-117488411D01*
X140256115Y-117270026D01*
X140210000Y-117038191D01*
X140210000Y-116801809D01*
X140256115Y-116569974D01*
X140346573Y-116351589D01*
X140477899Y-116155045D01*
X140645045Y-115987899D01*
X140841587Y-115856574D01*
X140841589Y-115856573D01*
X141059974Y-115766115D01*
X141291809Y-115720000D01*
X141528191Y-115720000D01*
X141760026Y-115766115D01*
X141760026Y-115766115D01*
G37*
G36*
X195950000Y-117196000D02*
G01*
X193850000Y-117196000D01*
X193850000Y-115096000D01*
X195950000Y-115096000D01*
X195950000Y-117196000D01*
X195950000Y-117196000D01*
G37*
G36*
X146960604Y-114940968D02*
G01*
X147135678Y-115013486D01*
X147135679Y-115013487D01*
X147293237Y-115118763D01*
X147427237Y-115252763D01*
X147515007Y-115384121D01*
X147532514Y-115410322D01*
X147568772Y-115497858D01*
X147605032Y-115585396D01*
X147642000Y-115771250D01*
X147642000Y-115960750D01*
X147605032Y-116146604D01*
X147568772Y-116234142D01*
X147532514Y-116321678D01*
X147532513Y-116321679D01*
X147427237Y-116479237D01*
X147293237Y-116613237D01*
X147161879Y-116701007D01*
X147135678Y-116718514D01*
X147048142Y-116754772D01*
X146960604Y-116791032D01*
X146774750Y-116828000D01*
X146585250Y-116828000D01*
X146399396Y-116791032D01*
X146311858Y-116754772D01*
X146224322Y-116718514D01*
X146198121Y-116701007D01*
X146066763Y-116613237D01*
X145932763Y-116479237D01*
X145827487Y-116321679D01*
X145827486Y-116321678D01*
X145791228Y-116234142D01*
X145754968Y-116146604D01*
X145718000Y-115960750D01*
X145718000Y-115771250D01*
X145754968Y-115585396D01*
X145791228Y-115497858D01*
X145827486Y-115410322D01*
X145844993Y-115384121D01*
X145932763Y-115252763D01*
X146066763Y-115118763D01*
X146224321Y-115013487D01*
X146224322Y-115013486D01*
X146399396Y-114940968D01*
X146585250Y-114904000D01*
X146774750Y-114904000D01*
X146960604Y-114940968D01*
X146960604Y-114940968D01*
G37*
G36*
X136760026Y-112766115D02*
G01*
X136978411Y-112856573D01*
X136978413Y-112856574D01*
X137013953Y-112880321D01*
X137174955Y-112987899D01*
X137342101Y-113155045D01*
X137473427Y-113351589D01*
X137563885Y-113569974D01*
X137610000Y-113801809D01*
X137610000Y-114038191D01*
X137563885Y-114270026D01*
X137473427Y-114488411D01*
X137473426Y-114488413D01*
X137342101Y-114684955D01*
X137174955Y-114852101D01*
X136978413Y-114983426D01*
X136978412Y-114983427D01*
X136978411Y-114983427D01*
X136760026Y-115073885D01*
X136528191Y-115120000D01*
X136291809Y-115120000D01*
X136059974Y-115073885D01*
X135841589Y-114983427D01*
X135841588Y-114983427D01*
X135841587Y-114983426D01*
X135645045Y-114852101D01*
X135477899Y-114684955D01*
X135346574Y-114488413D01*
X135346573Y-114488411D01*
X135256115Y-114270026D01*
X135210000Y-114038191D01*
X135210000Y-113801809D01*
X135256115Y-113569974D01*
X135346573Y-113351589D01*
X135477899Y-113155045D01*
X135645045Y-112987899D01*
X135806047Y-112880321D01*
X135841587Y-112856574D01*
X135841589Y-112856573D01*
X136059974Y-112766115D01*
X136291809Y-112720000D01*
X136528191Y-112720000D01*
X136760026Y-112766115D01*
X136760026Y-112766115D01*
G37*
G36*
X141760026Y-112766115D02*
G01*
X141978411Y-112856573D01*
X141978413Y-112856574D01*
X142013953Y-112880321D01*
X142174955Y-112987899D01*
X142342101Y-113155045D01*
X142473427Y-113351589D01*
X142563885Y-113569974D01*
X142610000Y-113801809D01*
X142610000Y-114038191D01*
X142563885Y-114270026D01*
X142473427Y-114488411D01*
X142473426Y-114488413D01*
X142342101Y-114684955D01*
X142174955Y-114852101D01*
X141978413Y-114983426D01*
X141978412Y-114983427D01*
X141978411Y-114983427D01*
X141760026Y-115073885D01*
X141528191Y-115120000D01*
X141291809Y-115120000D01*
X141059974Y-115073885D01*
X140841589Y-114983427D01*
X140841588Y-114983427D01*
X140841587Y-114983426D01*
X140645045Y-114852101D01*
X140477899Y-114684955D01*
X140346574Y-114488413D01*
X140346573Y-114488411D01*
X140256115Y-114270026D01*
X140210000Y-114038191D01*
X140210000Y-113801809D01*
X140256115Y-113569974D01*
X140346573Y-113351589D01*
X140477899Y-113155045D01*
X140645045Y-112987899D01*
X140806047Y-112880321D01*
X140841587Y-112856574D01*
X140841589Y-112856573D01*
X141059974Y-112766115D01*
X141291809Y-112720000D01*
X141528191Y-112720000D01*
X141760026Y-112766115D01*
X141760026Y-112766115D01*
G37*
G36*
X146960604Y-112410968D02*
G01*
X147048142Y-112447228D01*
X147135678Y-112483486D01*
X147135679Y-112483487D01*
X147293237Y-112588763D01*
X147427237Y-112722763D01*
X147515007Y-112854121D01*
X147532514Y-112880322D01*
X147568772Y-112967858D01*
X147605032Y-113055396D01*
X147642000Y-113241250D01*
X147642000Y-113430750D01*
X147605032Y-113616604D01*
X147568772Y-113704142D01*
X147532514Y-113791678D01*
X147525744Y-113801810D01*
X147427237Y-113949237D01*
X147293237Y-114083237D01*
X147161879Y-114171007D01*
X147135678Y-114188514D01*
X147048142Y-114224772D01*
X146960604Y-114261032D01*
X146774750Y-114298000D01*
X146585250Y-114298000D01*
X146399396Y-114261032D01*
X146311858Y-114224772D01*
X146224322Y-114188514D01*
X146198121Y-114171007D01*
X146066763Y-114083237D01*
X145932763Y-113949237D01*
X145834256Y-113801810D01*
X145827486Y-113791678D01*
X145791228Y-113704142D01*
X145754968Y-113616604D01*
X145718000Y-113430750D01*
X145718000Y-113241250D01*
X145754968Y-113055396D01*
X145827486Y-112880322D01*
X145844993Y-112854121D01*
X145932763Y-112722763D01*
X146066763Y-112588763D01*
X146224321Y-112483487D01*
X146224322Y-112483486D01*
X146311858Y-112447228D01*
X146399396Y-112410968D01*
X146585250Y-112374000D01*
X146774750Y-112374000D01*
X146960604Y-112410968D01*
X146960604Y-112410968D01*
G37*
G36*
X146960604Y-109870968D02*
G01*
X147135678Y-109943486D01*
X147135679Y-109943487D01*
X147293237Y-110048763D01*
X147427237Y-110182763D01*
X147515007Y-110314121D01*
X147532514Y-110340322D01*
X147568772Y-110427858D01*
X147605032Y-110515396D01*
X147642000Y-110701250D01*
X147642000Y-110890750D01*
X147605032Y-111076604D01*
X147568772Y-111164142D01*
X147532514Y-111251678D01*
X147532513Y-111251679D01*
X147427237Y-111409237D01*
X147293237Y-111543237D01*
X147161879Y-111631007D01*
X147135678Y-111648514D01*
X147048142Y-111684772D01*
X146960604Y-111721032D01*
X146774750Y-111758000D01*
X146585250Y-111758000D01*
X146399396Y-111721032D01*
X146311858Y-111684772D01*
X146224322Y-111648514D01*
X146198121Y-111631007D01*
X146066763Y-111543237D01*
X145932763Y-111409237D01*
X145827487Y-111251679D01*
X145827486Y-111251678D01*
X145791228Y-111164142D01*
X145754968Y-111076604D01*
X145718000Y-110890750D01*
X145718000Y-110701250D01*
X145754968Y-110515396D01*
X145791228Y-110427858D01*
X145827486Y-110340322D01*
X145844993Y-110314121D01*
X145932763Y-110182763D01*
X146066763Y-110048763D01*
X146224321Y-109943487D01*
X146224322Y-109943486D01*
X146399396Y-109870968D01*
X146585250Y-109834000D01*
X146774750Y-109834000D01*
X146960604Y-109870968D01*
X146960604Y-109870968D01*
G37*
G36*
X155690707Y-108741597D02*
G01*
X155767836Y-108749193D01*
X155965762Y-108809233D01*
X155965765Y-108809234D01*
X156148170Y-108906732D01*
X156308055Y-109037945D01*
X156439268Y-109197830D01*
X156536766Y-109380235D01*
X156536767Y-109380238D01*
X156596807Y-109578164D01*
X156617080Y-109784000D01*
X156596807Y-109989836D01*
X156538284Y-110182761D01*
X156536766Y-110187765D01*
X156439268Y-110370170D01*
X156308055Y-110530055D01*
X156148170Y-110661268D01*
X155965765Y-110758766D01*
X155965762Y-110758767D01*
X155767836Y-110818807D01*
X155690707Y-110826404D01*
X155613580Y-110834000D01*
X155510420Y-110834000D01*
X155433293Y-110826404D01*
X155356164Y-110818807D01*
X155158238Y-110758767D01*
X155158235Y-110758766D01*
X154975830Y-110661268D01*
X154815945Y-110530055D01*
X154684732Y-110370170D01*
X154587234Y-110187765D01*
X154585716Y-110182761D01*
X154527193Y-109989836D01*
X154506920Y-109784000D01*
X154527193Y-109578164D01*
X154587233Y-109380238D01*
X154587234Y-109380235D01*
X154684732Y-109197830D01*
X154815945Y-109037945D01*
X154975830Y-108906732D01*
X155158235Y-108809234D01*
X155158238Y-108809233D01*
X155356164Y-108749193D01*
X155433293Y-108741597D01*
X155510420Y-108734000D01*
X155613580Y-108734000D01*
X155690707Y-108741597D01*
X155690707Y-108741597D01*
G37*
G36*
X174392000Y-110834000D02*
G01*
X172292000Y-110834000D01*
X172292000Y-108734000D01*
X174392000Y-108734000D01*
X174392000Y-110834000D01*
X174392000Y-110834000D01*
G37*
G36*
X158230707Y-108741597D02*
G01*
X158307836Y-108749193D01*
X158505762Y-108809233D01*
X158505765Y-108809234D01*
X158688170Y-108906732D01*
X158848055Y-109037945D01*
X158979268Y-109197830D01*
X159076766Y-109380235D01*
X159076767Y-109380238D01*
X159136807Y-109578164D01*
X159157080Y-109784000D01*
X159136807Y-109989836D01*
X159078284Y-110182761D01*
X159076766Y-110187765D01*
X158979268Y-110370170D01*
X158848055Y-110530055D01*
X158688170Y-110661268D01*
X158505765Y-110758766D01*
X158505762Y-110758767D01*
X158307836Y-110818807D01*
X158230707Y-110826404D01*
X158153580Y-110834000D01*
X158050420Y-110834000D01*
X157973293Y-110826404D01*
X157896164Y-110818807D01*
X157698238Y-110758767D01*
X157698235Y-110758766D01*
X157515830Y-110661268D01*
X157355945Y-110530055D01*
X157224732Y-110370170D01*
X157127234Y-110187765D01*
X157125716Y-110182761D01*
X157067193Y-109989836D01*
X157046920Y-109784000D01*
X157067193Y-109578164D01*
X157127233Y-109380238D01*
X157127234Y-109380235D01*
X157224732Y-109197830D01*
X157355945Y-109037945D01*
X157515830Y-108906732D01*
X157698235Y-108809234D01*
X157698238Y-108809233D01*
X157896164Y-108749193D01*
X157973293Y-108741597D01*
X158050420Y-108734000D01*
X158153580Y-108734000D01*
X158230707Y-108741597D01*
X158230707Y-108741597D01*
G37*
G36*
X160770707Y-108741597D02*
G01*
X160847836Y-108749193D01*
X161045762Y-108809233D01*
X161045765Y-108809234D01*
X161228170Y-108906732D01*
X161388055Y-109037945D01*
X161519268Y-109197830D01*
X161616766Y-109380235D01*
X161616767Y-109380238D01*
X161676807Y-109578164D01*
X161697080Y-109784000D01*
X161676807Y-109989836D01*
X161618284Y-110182761D01*
X161616766Y-110187765D01*
X161519268Y-110370170D01*
X161388055Y-110530055D01*
X161228170Y-110661268D01*
X161045765Y-110758766D01*
X161045762Y-110758767D01*
X160847836Y-110818807D01*
X160770707Y-110826404D01*
X160693580Y-110834000D01*
X160590420Y-110834000D01*
X160513293Y-110826404D01*
X160436164Y-110818807D01*
X160238238Y-110758767D01*
X160238235Y-110758766D01*
X160055830Y-110661268D01*
X159895945Y-110530055D01*
X159764732Y-110370170D01*
X159667234Y-110187765D01*
X159665716Y-110182761D01*
X159607193Y-109989836D01*
X159586920Y-109784000D01*
X159607193Y-109578164D01*
X159667233Y-109380238D01*
X159667234Y-109380235D01*
X159764732Y-109197830D01*
X159895945Y-109037945D01*
X160055830Y-108906732D01*
X160238235Y-108809234D01*
X160238238Y-108809233D01*
X160436164Y-108749193D01*
X160513293Y-108741597D01*
X160590420Y-108734000D01*
X160693580Y-108734000D01*
X160770707Y-108741597D01*
X160770707Y-108741597D01*
G37*
G36*
X163310707Y-108741597D02*
G01*
X163387836Y-108749193D01*
X163585762Y-108809233D01*
X163585765Y-108809234D01*
X163768170Y-108906732D01*
X163928055Y-109037945D01*
X164059268Y-109197830D01*
X164156766Y-109380235D01*
X164156767Y-109380238D01*
X164216807Y-109578164D01*
X164237080Y-109784000D01*
X164216807Y-109989836D01*
X164158284Y-110182761D01*
X164156766Y-110187765D01*
X164059268Y-110370170D01*
X163928055Y-110530055D01*
X163768170Y-110661268D01*
X163585765Y-110758766D01*
X163585762Y-110758767D01*
X163387836Y-110818807D01*
X163310707Y-110826404D01*
X163233580Y-110834000D01*
X163130420Y-110834000D01*
X163053293Y-110826404D01*
X162976164Y-110818807D01*
X162778238Y-110758767D01*
X162778235Y-110758766D01*
X162595830Y-110661268D01*
X162435945Y-110530055D01*
X162304732Y-110370170D01*
X162207234Y-110187765D01*
X162205716Y-110182761D01*
X162147193Y-109989836D01*
X162126920Y-109784000D01*
X162147193Y-109578164D01*
X162207233Y-109380238D01*
X162207234Y-109380235D01*
X162304732Y-109197830D01*
X162435945Y-109037945D01*
X162595830Y-108906732D01*
X162778235Y-108809234D01*
X162778238Y-108809233D01*
X162976164Y-108749193D01*
X163053293Y-108741597D01*
X163130420Y-108734000D01*
X163233580Y-108734000D01*
X163310707Y-108741597D01*
X163310707Y-108741597D01*
G37*
G36*
X165850707Y-108741597D02*
G01*
X165927836Y-108749193D01*
X166125762Y-108809233D01*
X166125765Y-108809234D01*
X166308170Y-108906732D01*
X166468055Y-109037945D01*
X166599268Y-109197830D01*
X166696766Y-109380235D01*
X166696767Y-109380238D01*
X166756807Y-109578164D01*
X166777080Y-109784000D01*
X166756807Y-109989836D01*
X166698284Y-110182761D01*
X166696766Y-110187765D01*
X166599268Y-110370170D01*
X166468055Y-110530055D01*
X166308170Y-110661268D01*
X166125765Y-110758766D01*
X166125762Y-110758767D01*
X165927836Y-110818807D01*
X165850707Y-110826404D01*
X165773580Y-110834000D01*
X165670420Y-110834000D01*
X165593293Y-110826404D01*
X165516164Y-110818807D01*
X165318238Y-110758767D01*
X165318235Y-110758766D01*
X165135830Y-110661268D01*
X164975945Y-110530055D01*
X164844732Y-110370170D01*
X164747234Y-110187765D01*
X164745716Y-110182761D01*
X164687193Y-109989836D01*
X164666920Y-109784000D01*
X164687193Y-109578164D01*
X164747233Y-109380238D01*
X164747234Y-109380235D01*
X164844732Y-109197830D01*
X164975945Y-109037945D01*
X165135830Y-108906732D01*
X165318235Y-108809234D01*
X165318238Y-108809233D01*
X165516164Y-108749193D01*
X165593293Y-108741597D01*
X165670420Y-108734000D01*
X165773580Y-108734000D01*
X165850707Y-108741597D01*
X165850707Y-108741597D01*
G37*
G36*
X168390707Y-108741597D02*
G01*
X168467836Y-108749193D01*
X168665762Y-108809233D01*
X168665765Y-108809234D01*
X168848170Y-108906732D01*
X169008055Y-109037945D01*
X169139268Y-109197830D01*
X169236766Y-109380235D01*
X169236767Y-109380238D01*
X169296807Y-109578164D01*
X169317080Y-109784000D01*
X169296807Y-109989836D01*
X169238284Y-110182761D01*
X169236766Y-110187765D01*
X169139268Y-110370170D01*
X169008055Y-110530055D01*
X168848170Y-110661268D01*
X168665765Y-110758766D01*
X168665762Y-110758767D01*
X168467836Y-110818807D01*
X168390707Y-110826404D01*
X168313580Y-110834000D01*
X168210420Y-110834000D01*
X168133293Y-110826404D01*
X168056164Y-110818807D01*
X167858238Y-110758767D01*
X167858235Y-110758766D01*
X167675830Y-110661268D01*
X167515945Y-110530055D01*
X167384732Y-110370170D01*
X167287234Y-110187765D01*
X167285716Y-110182761D01*
X167227193Y-109989836D01*
X167206920Y-109784000D01*
X167227193Y-109578164D01*
X167287233Y-109380238D01*
X167287234Y-109380235D01*
X167384732Y-109197830D01*
X167515945Y-109037945D01*
X167675830Y-108906732D01*
X167858235Y-108809234D01*
X167858238Y-108809233D01*
X168056164Y-108749193D01*
X168133293Y-108741597D01*
X168210420Y-108734000D01*
X168313580Y-108734000D01*
X168390707Y-108741597D01*
X168390707Y-108741597D01*
G37*
G36*
X170930707Y-108741597D02*
G01*
X171007836Y-108749193D01*
X171205762Y-108809233D01*
X171205765Y-108809234D01*
X171388170Y-108906732D01*
X171548055Y-109037945D01*
X171679268Y-109197830D01*
X171776766Y-109380235D01*
X171776767Y-109380238D01*
X171836807Y-109578164D01*
X171857080Y-109784000D01*
X171836807Y-109989836D01*
X171778284Y-110182761D01*
X171776766Y-110187765D01*
X171679268Y-110370170D01*
X171548055Y-110530055D01*
X171388170Y-110661268D01*
X171205765Y-110758766D01*
X171205762Y-110758767D01*
X171007836Y-110818807D01*
X170930707Y-110826404D01*
X170853580Y-110834000D01*
X170750420Y-110834000D01*
X170673293Y-110826404D01*
X170596164Y-110818807D01*
X170398238Y-110758767D01*
X170398235Y-110758766D01*
X170215830Y-110661268D01*
X170055945Y-110530055D01*
X169924732Y-110370170D01*
X169827234Y-110187765D01*
X169825716Y-110182761D01*
X169767193Y-109989836D01*
X169746920Y-109784000D01*
X169767193Y-109578164D01*
X169827233Y-109380238D01*
X169827234Y-109380235D01*
X169924732Y-109197830D01*
X170055945Y-109037945D01*
X170215830Y-108906732D01*
X170398235Y-108809234D01*
X170398238Y-108809233D01*
X170596164Y-108749193D01*
X170673293Y-108741597D01*
X170750420Y-108734000D01*
X170853580Y-108734000D01*
X170930707Y-108741597D01*
X170930707Y-108741597D01*
G37*
G36*
X142018707Y-106217597D02*
G01*
X142095836Y-106225193D01*
X142293762Y-106285233D01*
X142293765Y-106285234D01*
X142476170Y-106382732D01*
X142636055Y-106513945D01*
X142767268Y-106673830D01*
X142864766Y-106856235D01*
X142864767Y-106856238D01*
X142924807Y-107054164D01*
X142945080Y-107260000D01*
X142924807Y-107465836D01*
X142864767Y-107663762D01*
X142864766Y-107663765D01*
X142767268Y-107846170D01*
X142636055Y-108006055D01*
X142476170Y-108137268D01*
X142293765Y-108234766D01*
X142293762Y-108234767D01*
X142095836Y-108294807D01*
X142018707Y-108302404D01*
X141941580Y-108310000D01*
X141838420Y-108310000D01*
X141761293Y-108302404D01*
X141684164Y-108294807D01*
X141486238Y-108234767D01*
X141486235Y-108234766D01*
X141303830Y-108137268D01*
X141143945Y-108006055D01*
X141012732Y-107846170D01*
X140915234Y-107663765D01*
X140915233Y-107663762D01*
X140855193Y-107465836D01*
X140834920Y-107260000D01*
X140855193Y-107054164D01*
X140915233Y-106856238D01*
X140915234Y-106856235D01*
X141012732Y-106673830D01*
X141143945Y-106513945D01*
X141303830Y-106382732D01*
X141486235Y-106285234D01*
X141486238Y-106285233D01*
X141684164Y-106225193D01*
X141761293Y-106217597D01*
X141838420Y-106210000D01*
X141941580Y-106210000D01*
X142018707Y-106217597D01*
X142018707Y-106217597D01*
G37*
G36*
X144558707Y-106217597D02*
G01*
X144635836Y-106225193D01*
X144833762Y-106285233D01*
X144833765Y-106285234D01*
X145016170Y-106382732D01*
X145176055Y-106513945D01*
X145307268Y-106673830D01*
X145404766Y-106856235D01*
X145404767Y-106856238D01*
X145464807Y-107054164D01*
X145485080Y-107260000D01*
X145464807Y-107465836D01*
X145404767Y-107663762D01*
X145404766Y-107663765D01*
X145307268Y-107846170D01*
X145176055Y-108006055D01*
X145016170Y-108137268D01*
X144833765Y-108234766D01*
X144833762Y-108234767D01*
X144635836Y-108294807D01*
X144558707Y-108302404D01*
X144481580Y-108310000D01*
X144378420Y-108310000D01*
X144301293Y-108302404D01*
X144224164Y-108294807D01*
X144026238Y-108234767D01*
X144026235Y-108234766D01*
X143843830Y-108137268D01*
X143683945Y-108006055D01*
X143552732Y-107846170D01*
X143455234Y-107663765D01*
X143455233Y-107663762D01*
X143395193Y-107465836D01*
X143374920Y-107260000D01*
X143395193Y-107054164D01*
X143455233Y-106856238D01*
X143455234Y-106856235D01*
X143552732Y-106673830D01*
X143683945Y-106513945D01*
X143843830Y-106382732D01*
X144026235Y-106285234D01*
X144026238Y-106285233D01*
X144224164Y-106225193D01*
X144301293Y-106217597D01*
X144378420Y-106210000D01*
X144481580Y-106210000D01*
X144558707Y-106217597D01*
X144558707Y-106217597D01*
G37*
G36*
X139478707Y-106217597D02*
G01*
X139555836Y-106225193D01*
X139753762Y-106285233D01*
X139753765Y-106285234D01*
X139936170Y-106382732D01*
X140096055Y-106513945D01*
X140227268Y-106673830D01*
X140324766Y-106856235D01*
X140324767Y-106856238D01*
X140384807Y-107054164D01*
X140405080Y-107260000D01*
X140384807Y-107465836D01*
X140324767Y-107663762D01*
X140324766Y-107663765D01*
X140227268Y-107846170D01*
X140096055Y-108006055D01*
X139936170Y-108137268D01*
X139753765Y-108234766D01*
X139753762Y-108234767D01*
X139555836Y-108294807D01*
X139478707Y-108302404D01*
X139401580Y-108310000D01*
X139298420Y-108310000D01*
X139221293Y-108302404D01*
X139144164Y-108294807D01*
X138946238Y-108234767D01*
X138946235Y-108234766D01*
X138763830Y-108137268D01*
X138603945Y-108006055D01*
X138472732Y-107846170D01*
X138375234Y-107663765D01*
X138375233Y-107663762D01*
X138315193Y-107465836D01*
X138294920Y-107260000D01*
X138315193Y-107054164D01*
X138375233Y-106856238D01*
X138375234Y-106856235D01*
X138472732Y-106673830D01*
X138603945Y-106513945D01*
X138763830Y-106382732D01*
X138946235Y-106285234D01*
X138946238Y-106285233D01*
X139144164Y-106225193D01*
X139221293Y-106217597D01*
X139298420Y-106210000D01*
X139401580Y-106210000D01*
X139478707Y-106217597D01*
X139478707Y-106217597D01*
G37*
G36*
X137860000Y-108310000D02*
G01*
X135760000Y-108310000D01*
X135760000Y-106210000D01*
X137860000Y-106210000D01*
X137860000Y-108310000D01*
X137860000Y-108310000D01*
G37*
G36*
X192460000Y-106406000D02*
G01*
X190360000Y-106406000D01*
X190360000Y-104306000D01*
X192460000Y-104306000D01*
X192460000Y-106406000D01*
X192460000Y-106406000D01*
G37*
G36*
X196618707Y-104313597D02*
G01*
X196695836Y-104321193D01*
X196893762Y-104381233D01*
X196893765Y-104381234D01*
X197076170Y-104478732D01*
X197236055Y-104609945D01*
X197367268Y-104769830D01*
X197464766Y-104952235D01*
X197464767Y-104952238D01*
X197524807Y-105150164D01*
X197545080Y-105356000D01*
X197524807Y-105561836D01*
X197464767Y-105759762D01*
X197464766Y-105759765D01*
X197367268Y-105942170D01*
X197236055Y-106102055D01*
X197076170Y-106233268D01*
X196893765Y-106330766D01*
X196893762Y-106330767D01*
X196695836Y-106390807D01*
X196618707Y-106398403D01*
X196541580Y-106406000D01*
X196438420Y-106406000D01*
X196361293Y-106398403D01*
X196284164Y-106390807D01*
X196086238Y-106330767D01*
X196086235Y-106330766D01*
X195903830Y-106233268D01*
X195743945Y-106102055D01*
X195612732Y-105942170D01*
X195515234Y-105759765D01*
X195515233Y-105759762D01*
X195455193Y-105561836D01*
X195434920Y-105356000D01*
X195455193Y-105150164D01*
X195515233Y-104952238D01*
X195515234Y-104952235D01*
X195612732Y-104769830D01*
X195743945Y-104609945D01*
X195903830Y-104478732D01*
X196086235Y-104381234D01*
X196086238Y-104381233D01*
X196284164Y-104321193D01*
X196361293Y-104313597D01*
X196438420Y-104306000D01*
X196541580Y-104306000D01*
X196618707Y-104313597D01*
X196618707Y-104313597D01*
G37*
G36*
X194078707Y-104313597D02*
G01*
X194155836Y-104321193D01*
X194353762Y-104381233D01*
X194353765Y-104381234D01*
X194536170Y-104478732D01*
X194696055Y-104609945D01*
X194827268Y-104769830D01*
X194924766Y-104952235D01*
X194924767Y-104952238D01*
X194984807Y-105150164D01*
X195005080Y-105356000D01*
X194984807Y-105561836D01*
X194924767Y-105759762D01*
X194924766Y-105759765D01*
X194827268Y-105942170D01*
X194696055Y-106102055D01*
X194536170Y-106233268D01*
X194353765Y-106330766D01*
X194353762Y-106330767D01*
X194155836Y-106390807D01*
X194078707Y-106398403D01*
X194001580Y-106406000D01*
X193898420Y-106406000D01*
X193821293Y-106398403D01*
X193744164Y-106390807D01*
X193546238Y-106330767D01*
X193546235Y-106330766D01*
X193363830Y-106233268D01*
X193203945Y-106102055D01*
X193072732Y-105942170D01*
X192975234Y-105759765D01*
X192975233Y-105759762D01*
X192915193Y-105561836D01*
X192894920Y-105356000D01*
X192915193Y-105150164D01*
X192975233Y-104952238D01*
X192975234Y-104952235D01*
X193072732Y-104769830D01*
X193203945Y-104609945D01*
X193363830Y-104478732D01*
X193546235Y-104381234D01*
X193546238Y-104381233D01*
X193744164Y-104321193D01*
X193821293Y-104313597D01*
X193898420Y-104306000D01*
X194001580Y-104306000D01*
X194078707Y-104313597D01*
X194078707Y-104313597D01*
G37*
G36*
X194078707Y-101773596D02*
G01*
X194155836Y-101781193D01*
X194353762Y-101841233D01*
X194353765Y-101841234D01*
X194536170Y-101938732D01*
X194696055Y-102069945D01*
X194827268Y-102229830D01*
X194924766Y-102412235D01*
X194924767Y-102412238D01*
X194984807Y-102610164D01*
X195005080Y-102816000D01*
X194984807Y-103021836D01*
X194924767Y-103219762D01*
X194924766Y-103219765D01*
X194827268Y-103402170D01*
X194696055Y-103562055D01*
X194536170Y-103693268D01*
X194353765Y-103790766D01*
X194353762Y-103790767D01*
X194155836Y-103850807D01*
X194078707Y-103858404D01*
X194001580Y-103866000D01*
X193898420Y-103866000D01*
X193821293Y-103858404D01*
X193744164Y-103850807D01*
X193546238Y-103790767D01*
X193546235Y-103790766D01*
X193363830Y-103693268D01*
X193203945Y-103562055D01*
X193072732Y-103402170D01*
X192975234Y-103219765D01*
X192975233Y-103219762D01*
X192915193Y-103021836D01*
X192894920Y-102816000D01*
X192915193Y-102610164D01*
X192975233Y-102412238D01*
X192975234Y-102412235D01*
X193072732Y-102229830D01*
X193203945Y-102069945D01*
X193363830Y-101938732D01*
X193546235Y-101841234D01*
X193546238Y-101841233D01*
X193744164Y-101781193D01*
X193821293Y-101773597D01*
X193898420Y-101766000D01*
X194001580Y-101766000D01*
X194078707Y-101773596D01*
X194078707Y-101773596D01*
G37*
G36*
X192460000Y-103866000D02*
G01*
X190360000Y-103866000D01*
X190360000Y-101766000D01*
X192460000Y-101766000D01*
X192460000Y-103866000D01*
X192460000Y-103866000D01*
G37*
G36*
X196618707Y-101773596D02*
G01*
X196695836Y-101781193D01*
X196893762Y-101841233D01*
X196893765Y-101841234D01*
X197076170Y-101938732D01*
X197236055Y-102069945D01*
X197367268Y-102229830D01*
X197464766Y-102412235D01*
X197464767Y-102412238D01*
X197524807Y-102610164D01*
X197545080Y-102816000D01*
X197524807Y-103021836D01*
X197464767Y-103219762D01*
X197464766Y-103219765D01*
X197367268Y-103402170D01*
X197236055Y-103562055D01*
X197076170Y-103693268D01*
X196893765Y-103790766D01*
X196893762Y-103790767D01*
X196695836Y-103850807D01*
X196618707Y-103858404D01*
X196541580Y-103866000D01*
X196438420Y-103866000D01*
X196361293Y-103858404D01*
X196284164Y-103850807D01*
X196086238Y-103790767D01*
X196086235Y-103790766D01*
X195903830Y-103693268D01*
X195743945Y-103562055D01*
X195612732Y-103402170D01*
X195515234Y-103219765D01*
X195515233Y-103219762D01*
X195455193Y-103021836D01*
X195434920Y-102816000D01*
X195455193Y-102610164D01*
X195515233Y-102412238D01*
X195515234Y-102412235D01*
X195612732Y-102229830D01*
X195743945Y-102069945D01*
X195903830Y-101938732D01*
X196086235Y-101841234D01*
X196086238Y-101841233D01*
X196284164Y-101781193D01*
X196361293Y-101773597D01*
X196438420Y-101766000D01*
X196541580Y-101766000D01*
X196618707Y-101773596D01*
X196618707Y-101773596D01*
G37*
G36*
X196618707Y-99233597D02*
G01*
X196695836Y-99241193D01*
X196893762Y-99301233D01*
X196893765Y-99301234D01*
X197076170Y-99398732D01*
X197236055Y-99529945D01*
X197367268Y-99689830D01*
X197464766Y-99872235D01*
X197464767Y-99872238D01*
X197524807Y-100070164D01*
X197545080Y-100276000D01*
X197524807Y-100481836D01*
X197464767Y-100679762D01*
X197464766Y-100679765D01*
X197367268Y-100862170D01*
X197236055Y-101022055D01*
X197076170Y-101153268D01*
X196893765Y-101250766D01*
X196893762Y-101250767D01*
X196695836Y-101310807D01*
X196618707Y-101318404D01*
X196541580Y-101326000D01*
X196438420Y-101326000D01*
X196361293Y-101318404D01*
X196284164Y-101310807D01*
X196086238Y-101250767D01*
X196086235Y-101250766D01*
X195903830Y-101153268D01*
X195743945Y-101022055D01*
X195612732Y-100862170D01*
X195515234Y-100679765D01*
X195515233Y-100679762D01*
X195455193Y-100481836D01*
X195434920Y-100276000D01*
X195455193Y-100070164D01*
X195515233Y-99872238D01*
X195515234Y-99872235D01*
X195612732Y-99689830D01*
X195743945Y-99529945D01*
X195903830Y-99398732D01*
X196086235Y-99301234D01*
X196086238Y-99301233D01*
X196284164Y-99241193D01*
X196361293Y-99233596D01*
X196438420Y-99226000D01*
X196541580Y-99226000D01*
X196618707Y-99233597D01*
X196618707Y-99233597D01*
G37*
G36*
X194078707Y-99233597D02*
G01*
X194155836Y-99241193D01*
X194353762Y-99301233D01*
X194353765Y-99301234D01*
X194536170Y-99398732D01*
X194696055Y-99529945D01*
X194827268Y-99689830D01*
X194924766Y-99872235D01*
X194924767Y-99872238D01*
X194984807Y-100070164D01*
X195005080Y-100276000D01*
X194984807Y-100481836D01*
X194924767Y-100679762D01*
X194924766Y-100679765D01*
X194827268Y-100862170D01*
X194696055Y-101022055D01*
X194536170Y-101153268D01*
X194353765Y-101250766D01*
X194353762Y-101250767D01*
X194155836Y-101310807D01*
X194078707Y-101318404D01*
X194001580Y-101326000D01*
X193898420Y-101326000D01*
X193821293Y-101318404D01*
X193744164Y-101310807D01*
X193546238Y-101250767D01*
X193546235Y-101250766D01*
X193363830Y-101153268D01*
X193203945Y-101022055D01*
X193072732Y-100862170D01*
X192975234Y-100679765D01*
X192975233Y-100679762D01*
X192915193Y-100481836D01*
X192894920Y-100276000D01*
X192915193Y-100070164D01*
X192975233Y-99872238D01*
X192975234Y-99872235D01*
X193072732Y-99689830D01*
X193203945Y-99529945D01*
X193363830Y-99398732D01*
X193546235Y-99301234D01*
X193546238Y-99301233D01*
X193744164Y-99241193D01*
X193821293Y-99233596D01*
X193898420Y-99226000D01*
X194001580Y-99226000D01*
X194078707Y-99233597D01*
X194078707Y-99233597D01*
G37*
G36*
X192460000Y-101326000D02*
G01*
X190360000Y-101326000D01*
X190360000Y-99226000D01*
X192460000Y-99226000D01*
X192460000Y-101326000D01*
X192460000Y-101326000D01*
G37*
G36*
X196618707Y-96693596D02*
G01*
X196695836Y-96701193D01*
X196893762Y-96761233D01*
X196893765Y-96761234D01*
X197076170Y-96858732D01*
X197236055Y-96989945D01*
X197367268Y-97149830D01*
X197464766Y-97332235D01*
X197464767Y-97332238D01*
X197524807Y-97530164D01*
X197545080Y-97736000D01*
X197524807Y-97941836D01*
X197489917Y-98056853D01*
X197464766Y-98139765D01*
X197367268Y-98322170D01*
X197236055Y-98482055D01*
X197076170Y-98613268D01*
X196893765Y-98710766D01*
X196893762Y-98710767D01*
X196695836Y-98770807D01*
X196618707Y-98778403D01*
X196541580Y-98786000D01*
X196438420Y-98786000D01*
X196361293Y-98778403D01*
X196284164Y-98770807D01*
X196086238Y-98710767D01*
X196086235Y-98710766D01*
X195903830Y-98613268D01*
X195743945Y-98482055D01*
X195612732Y-98322170D01*
X195515234Y-98139765D01*
X195490083Y-98056853D01*
X195455193Y-97941836D01*
X195434920Y-97736000D01*
X195455193Y-97530164D01*
X195515233Y-97332238D01*
X195515234Y-97332235D01*
X195612732Y-97149830D01*
X195743945Y-96989945D01*
X195903830Y-96858732D01*
X196086235Y-96761234D01*
X196086238Y-96761233D01*
X196284164Y-96701193D01*
X196361293Y-96693596D01*
X196438420Y-96686000D01*
X196541580Y-96686000D01*
X196618707Y-96693596D01*
X196618707Y-96693596D01*
G37*
G36*
X192460000Y-98786000D02*
G01*
X190360000Y-98786000D01*
X190360000Y-96686000D01*
X192460000Y-96686000D01*
X192460000Y-98786000D01*
X192460000Y-98786000D01*
G37*
G36*
X194078707Y-96693596D02*
G01*
X194155836Y-96701193D01*
X194353762Y-96761233D01*
X194353765Y-96761234D01*
X194536170Y-96858732D01*
X194696055Y-96989945D01*
X194827268Y-97149830D01*
X194924766Y-97332235D01*
X194924767Y-97332238D01*
X194984807Y-97530164D01*
X195005080Y-97736000D01*
X194984807Y-97941836D01*
X194949917Y-98056853D01*
X194924766Y-98139765D01*
X194827268Y-98322170D01*
X194696055Y-98482055D01*
X194536170Y-98613268D01*
X194353765Y-98710766D01*
X194353762Y-98710767D01*
X194155836Y-98770807D01*
X194078707Y-98778403D01*
X194001580Y-98786000D01*
X193898420Y-98786000D01*
X193821293Y-98778403D01*
X193744164Y-98770807D01*
X193546238Y-98710767D01*
X193546235Y-98710766D01*
X193363830Y-98613268D01*
X193203945Y-98482055D01*
X193072732Y-98322170D01*
X192975234Y-98139765D01*
X192950083Y-98056853D01*
X192915193Y-97941836D01*
X192894920Y-97736000D01*
X192915193Y-97530164D01*
X192975233Y-97332238D01*
X192975234Y-97332235D01*
X193072732Y-97149830D01*
X193203945Y-96989945D01*
X193363830Y-96858732D01*
X193546235Y-96761234D01*
X193546238Y-96761233D01*
X193744164Y-96701193D01*
X193821293Y-96693596D01*
X193898420Y-96686000D01*
X194001580Y-96686000D01*
X194078707Y-96693596D01*
X194078707Y-96693596D01*
G37*
G36*
X143404845Y-92968810D02*
G01*
X143649896Y-93043145D01*
X143875736Y-93163860D01*
X144073687Y-93326313D01*
X144236140Y-93524264D01*
X144356855Y-93750104D01*
X144431190Y-93995155D01*
X144450000Y-94186136D01*
X144450000Y-96913864D01*
X144431190Y-97104845D01*
X144356855Y-97349896D01*
X144236140Y-97575736D01*
X144073687Y-97773687D01*
X143875735Y-97936140D01*
X143649895Y-98056855D01*
X143404844Y-98131190D01*
X143150000Y-98156290D01*
X142895155Y-98131190D01*
X142650104Y-98056855D01*
X142424264Y-97936140D01*
X142226313Y-97773687D01*
X142063860Y-97575735D01*
X141943145Y-97349895D01*
X141868810Y-97104844D01*
X141850000Y-96913863D01*
X141850001Y-94186136D01*
X141868811Y-93995155D01*
X141943146Y-93750104D01*
X142063861Y-93524264D01*
X142226314Y-93326313D01*
X142424265Y-93163860D01*
X142650105Y-93043145D01*
X142895156Y-92968810D01*
X143150000Y-92943710D01*
X143404845Y-92968810D01*
X143404845Y-92968810D01*
G37*
G36*
X196618707Y-94153597D02*
G01*
X196695836Y-94161193D01*
X196893762Y-94221233D01*
X196893765Y-94221234D01*
X197076170Y-94318732D01*
X197236055Y-94449945D01*
X197367268Y-94609830D01*
X197464766Y-94792235D01*
X197464767Y-94792238D01*
X197524807Y-94990164D01*
X197545080Y-95196000D01*
X197524807Y-95401836D01*
X197464767Y-95599762D01*
X197464766Y-95599765D01*
X197367268Y-95782170D01*
X197236055Y-95942055D01*
X197076170Y-96073268D01*
X196893765Y-96170766D01*
X196893762Y-96170767D01*
X196695836Y-96230807D01*
X196618707Y-96238404D01*
X196541580Y-96246000D01*
X196438420Y-96246000D01*
X196361293Y-96238404D01*
X196284164Y-96230807D01*
X196086238Y-96170767D01*
X196086235Y-96170766D01*
X195903830Y-96073268D01*
X195743945Y-95942055D01*
X195612732Y-95782170D01*
X195515234Y-95599765D01*
X195515233Y-95599762D01*
X195455193Y-95401836D01*
X195434920Y-95196000D01*
X195455193Y-94990164D01*
X195515233Y-94792238D01*
X195515234Y-94792235D01*
X195612732Y-94609830D01*
X195743945Y-94449945D01*
X195903830Y-94318732D01*
X196086235Y-94221234D01*
X196086238Y-94221233D01*
X196284164Y-94161193D01*
X196361293Y-94153597D01*
X196438420Y-94146000D01*
X196541580Y-94146000D01*
X196618707Y-94153597D01*
X196618707Y-94153597D01*
G37*
G36*
X192460000Y-96246000D02*
G01*
X190360000Y-96246000D01*
X190360000Y-94146000D01*
X192460000Y-94146000D01*
X192460000Y-96246000D01*
X192460000Y-96246000D01*
G37*
G36*
X194078707Y-94153597D02*
G01*
X194155836Y-94161193D01*
X194353762Y-94221233D01*
X194353765Y-94221234D01*
X194536170Y-94318732D01*
X194696055Y-94449945D01*
X194827268Y-94609830D01*
X194924766Y-94792235D01*
X194924767Y-94792238D01*
X194984807Y-94990164D01*
X195005080Y-95196000D01*
X194984807Y-95401836D01*
X194924767Y-95599762D01*
X194924766Y-95599765D01*
X194827268Y-95782170D01*
X194696055Y-95942055D01*
X194536170Y-96073268D01*
X194353765Y-96170766D01*
X194353762Y-96170767D01*
X194155836Y-96230807D01*
X194078707Y-96238404D01*
X194001580Y-96246000D01*
X193898420Y-96246000D01*
X193821293Y-96238404D01*
X193744164Y-96230807D01*
X193546238Y-96170767D01*
X193546235Y-96170766D01*
X193363830Y-96073268D01*
X193203945Y-95942055D01*
X193072732Y-95782170D01*
X192975234Y-95599765D01*
X192975233Y-95599762D01*
X192915193Y-95401836D01*
X192894920Y-95196000D01*
X192915193Y-94990164D01*
X192975233Y-94792238D01*
X192975234Y-94792235D01*
X193072732Y-94609830D01*
X193203945Y-94449945D01*
X193363830Y-94318732D01*
X193546235Y-94221234D01*
X193546238Y-94221233D01*
X193744164Y-94161193D01*
X193821293Y-94153597D01*
X193898420Y-94146000D01*
X194001580Y-94146000D01*
X194078707Y-94153597D01*
X194078707Y-94153597D01*
G37*
G36*
X141404845Y-88468810D02*
G01*
X141649896Y-88543145D01*
X141875736Y-88663860D01*
X142073687Y-88826313D01*
X142236140Y-89024264D01*
X142356855Y-89250104D01*
X142431190Y-89495155D01*
X142456290Y-89750000D01*
X142431190Y-90004845D01*
X142356855Y-90249896D01*
X142236140Y-90475736D01*
X142073687Y-90673687D01*
X141875736Y-90836140D01*
X141649896Y-90956855D01*
X141404845Y-91031190D01*
X141213864Y-91050000D01*
X138626198Y-91050000D01*
X138601812Y-91052402D01*
X138578363Y-91059515D01*
X138556752Y-91071066D01*
X138537810Y-91086611D01*
X138522265Y-91105553D01*
X138510714Y-91127164D01*
X138503601Y-91150613D01*
X138501199Y-91174999D01*
X138503601Y-91199385D01*
X138510714Y-91222834D01*
X138522265Y-91244445D01*
X138537810Y-91263387D01*
X138556752Y-91278932D01*
X138578363Y-91290483D01*
X138589894Y-91294609D01*
X138749896Y-91343145D01*
X138975736Y-91463860D01*
X139173687Y-91626313D01*
X139336140Y-91824264D01*
X139456855Y-92050104D01*
X139531190Y-92295155D01*
X139556290Y-92550000D01*
X139531190Y-92804845D01*
X139456855Y-93049896D01*
X139336140Y-93275736D01*
X139173687Y-93473687D01*
X138975736Y-93636140D01*
X138749896Y-93756855D01*
X138504845Y-93831190D01*
X138313864Y-93850000D01*
X135386136Y-93850000D01*
X135195155Y-93831190D01*
X134950104Y-93756855D01*
X134724264Y-93636140D01*
X134526313Y-93473687D01*
X134363860Y-93275736D01*
X134243145Y-93049896D01*
X134168810Y-92804845D01*
X134143710Y-92550000D01*
X134168810Y-92295155D01*
X134243145Y-92050104D01*
X134363860Y-91824264D01*
X134526313Y-91626313D01*
X134724264Y-91463860D01*
X134950104Y-91343145D01*
X135195155Y-91268810D01*
X135386136Y-91250000D01*
X137973802Y-91250000D01*
X137998188Y-91247598D01*
X138021637Y-91240485D01*
X138043248Y-91228934D01*
X138062190Y-91213389D01*
X138077735Y-91194447D01*
X138089286Y-91172836D01*
X138096399Y-91149387D01*
X138098801Y-91125001D01*
X138096399Y-91100615D01*
X138089286Y-91077166D01*
X138077735Y-91055555D01*
X138062190Y-91036613D01*
X138043248Y-91021068D01*
X138021637Y-91009517D01*
X138010106Y-91005391D01*
X137850104Y-90956855D01*
X137624264Y-90836140D01*
X137426313Y-90673687D01*
X137263860Y-90475736D01*
X137143145Y-90249896D01*
X137068810Y-90004845D01*
X137043710Y-89750000D01*
X137068810Y-89495155D01*
X137143145Y-89250104D01*
X137263860Y-89024264D01*
X137426313Y-88826313D01*
X137624264Y-88663860D01*
X137850104Y-88543145D01*
X138095155Y-88468810D01*
X138286136Y-88450000D01*
X141213864Y-88450000D01*
X141404845Y-88468810D01*
X141404845Y-88468810D01*
G37*
G36*
X194078707Y-91613596D02*
G01*
X194155836Y-91621193D01*
X194353762Y-91681233D01*
X194353765Y-91681234D01*
X194536170Y-91778732D01*
X194696055Y-91909945D01*
X194827268Y-92069830D01*
X194924766Y-92252235D01*
X194924767Y-92252238D01*
X194984807Y-92450164D01*
X195005080Y-92656000D01*
X194984807Y-92861836D01*
X194952357Y-92968810D01*
X194924766Y-93059765D01*
X194827268Y-93242170D01*
X194696055Y-93402055D01*
X194536170Y-93533268D01*
X194353765Y-93630766D01*
X194353762Y-93630767D01*
X194155836Y-93690807D01*
X194078707Y-93698404D01*
X194001580Y-93706000D01*
X193898420Y-93706000D01*
X193821293Y-93698403D01*
X193744164Y-93690807D01*
X193546238Y-93630767D01*
X193546235Y-93630766D01*
X193363830Y-93533268D01*
X193203945Y-93402055D01*
X193072732Y-93242170D01*
X192975234Y-93059765D01*
X192947643Y-92968810D01*
X192915193Y-92861836D01*
X192894920Y-92656000D01*
X192915193Y-92450164D01*
X192975233Y-92252238D01*
X192975234Y-92252235D01*
X193072732Y-92069830D01*
X193203945Y-91909945D01*
X193363830Y-91778732D01*
X193546235Y-91681234D01*
X193546238Y-91681233D01*
X193744164Y-91621193D01*
X193821293Y-91613596D01*
X193898420Y-91606000D01*
X194001580Y-91606000D01*
X194078707Y-91613596D01*
X194078707Y-91613596D01*
G37*
G36*
X196618707Y-91613596D02*
G01*
X196695836Y-91621193D01*
X196893762Y-91681233D01*
X196893765Y-91681234D01*
X197076170Y-91778732D01*
X197236055Y-91909945D01*
X197367268Y-92069830D01*
X197464766Y-92252235D01*
X197464767Y-92252238D01*
X197524807Y-92450164D01*
X197545080Y-92656000D01*
X197524807Y-92861836D01*
X197492357Y-92968810D01*
X197464766Y-93059765D01*
X197367268Y-93242170D01*
X197236055Y-93402055D01*
X197076170Y-93533268D01*
X196893765Y-93630766D01*
X196893762Y-93630767D01*
X196695836Y-93690807D01*
X196618707Y-93698404D01*
X196541580Y-93706000D01*
X196438420Y-93706000D01*
X196361293Y-93698403D01*
X196284164Y-93690807D01*
X196086238Y-93630767D01*
X196086235Y-93630766D01*
X195903830Y-93533268D01*
X195743945Y-93402055D01*
X195612732Y-93242170D01*
X195515234Y-93059765D01*
X195487643Y-92968810D01*
X195455193Y-92861836D01*
X195434920Y-92656000D01*
X195455193Y-92450164D01*
X195515233Y-92252238D01*
X195515234Y-92252235D01*
X195612732Y-92069830D01*
X195743945Y-91909945D01*
X195903830Y-91778732D01*
X196086235Y-91681234D01*
X196086238Y-91681233D01*
X196284164Y-91621193D01*
X196361293Y-91613596D01*
X196438420Y-91606000D01*
X196541580Y-91606000D01*
X196618707Y-91613596D01*
X196618707Y-91613596D01*
G37*
G36*
X192460000Y-93706000D02*
G01*
X190360000Y-93706000D01*
X190360000Y-91606000D01*
X192460000Y-91606000D01*
X192460000Y-93706000D01*
X192460000Y-93706000D01*
G37*
G36*
X194078707Y-89073597D02*
G01*
X194155836Y-89081193D01*
X194353762Y-89141233D01*
X194353765Y-89141234D01*
X194536170Y-89238732D01*
X194696055Y-89369945D01*
X194827268Y-89529830D01*
X194924766Y-89712235D01*
X194924767Y-89712238D01*
X194984807Y-89910164D01*
X195005080Y-90116000D01*
X194984807Y-90321836D01*
X194938122Y-90475736D01*
X194924766Y-90519765D01*
X194827268Y-90702170D01*
X194696055Y-90862055D01*
X194536170Y-90993268D01*
X194353765Y-91090766D01*
X194353762Y-91090767D01*
X194155836Y-91150807D01*
X194078707Y-91158404D01*
X194001580Y-91166000D01*
X193898420Y-91166000D01*
X193821293Y-91158404D01*
X193744164Y-91150807D01*
X193546238Y-91090767D01*
X193546235Y-91090766D01*
X193363830Y-90993268D01*
X193203945Y-90862055D01*
X193072732Y-90702170D01*
X192975234Y-90519765D01*
X192961878Y-90475736D01*
X192915193Y-90321836D01*
X192894920Y-90116000D01*
X192915193Y-89910164D01*
X192975233Y-89712238D01*
X192975234Y-89712235D01*
X193072732Y-89529830D01*
X193203945Y-89369945D01*
X193363830Y-89238732D01*
X193546235Y-89141234D01*
X193546238Y-89141233D01*
X193744164Y-89081193D01*
X193821293Y-89073597D01*
X193898420Y-89066000D01*
X194001580Y-89066000D01*
X194078707Y-89073597D01*
X194078707Y-89073597D01*
G37*
G36*
X192460000Y-91166000D02*
G01*
X190360000Y-91166000D01*
X190360000Y-89066000D01*
X192460000Y-89066000D01*
X192460000Y-91166000D01*
X192460000Y-91166000D01*
G37*
G36*
X196618707Y-89073597D02*
G01*
X196695836Y-89081193D01*
X196893762Y-89141233D01*
X196893765Y-89141234D01*
X197076170Y-89238732D01*
X197236055Y-89369945D01*
X197367268Y-89529830D01*
X197464766Y-89712235D01*
X197464767Y-89712238D01*
X197524807Y-89910164D01*
X197545080Y-90116000D01*
X197524807Y-90321836D01*
X197478122Y-90475736D01*
X197464766Y-90519765D01*
X197367268Y-90702170D01*
X197236055Y-90862055D01*
X197076170Y-90993268D01*
X196893765Y-91090766D01*
X196893762Y-91090767D01*
X196695836Y-91150807D01*
X196618707Y-91158404D01*
X196541580Y-91166000D01*
X196438420Y-91166000D01*
X196361293Y-91158404D01*
X196284164Y-91150807D01*
X196086238Y-91090767D01*
X196086235Y-91090766D01*
X195903830Y-90993268D01*
X195743945Y-90862055D01*
X195612732Y-90702170D01*
X195515234Y-90519765D01*
X195501878Y-90475736D01*
X195455193Y-90321836D01*
X195434920Y-90116000D01*
X195455193Y-89910164D01*
X195515233Y-89712238D01*
X195515234Y-89712235D01*
X195612732Y-89529830D01*
X195743945Y-89369945D01*
X195903830Y-89238732D01*
X196086235Y-89141234D01*
X196086238Y-89141233D01*
X196284164Y-89081193D01*
X196361293Y-89073597D01*
X196438420Y-89066000D01*
X196541580Y-89066000D01*
X196618707Y-89073597D01*
X196618707Y-89073597D01*
G37*
G36*
X192460000Y-88626000D02*
G01*
X190360000Y-88626000D01*
X190360000Y-86526000D01*
X192460000Y-86526000D01*
X192460000Y-88626000D01*
X192460000Y-88626000D01*
G37*
G36*
X194078707Y-86533596D02*
G01*
X194155836Y-86541193D01*
X194353762Y-86601233D01*
X194353765Y-86601234D01*
X194536170Y-86698732D01*
X194696055Y-86829945D01*
X194827268Y-86989830D01*
X194924766Y-87172235D01*
X194924767Y-87172238D01*
X194984807Y-87370164D01*
X195005080Y-87576000D01*
X194984807Y-87781836D01*
X194924767Y-87979762D01*
X194924766Y-87979765D01*
X194827268Y-88162170D01*
X194696055Y-88322055D01*
X194536170Y-88453268D01*
X194353765Y-88550766D01*
X194353762Y-88550767D01*
X194155836Y-88610807D01*
X194078707Y-88618404D01*
X194001580Y-88626000D01*
X193898420Y-88626000D01*
X193821293Y-88618403D01*
X193744164Y-88610807D01*
X193546238Y-88550767D01*
X193546235Y-88550766D01*
X193363830Y-88453268D01*
X193203945Y-88322055D01*
X193072732Y-88162170D01*
X192975234Y-87979765D01*
X192975233Y-87979762D01*
X192915193Y-87781836D01*
X192894920Y-87576000D01*
X192915193Y-87370164D01*
X192975233Y-87172238D01*
X192975234Y-87172235D01*
X193072732Y-86989830D01*
X193203945Y-86829945D01*
X193363830Y-86698732D01*
X193546235Y-86601234D01*
X193546238Y-86601233D01*
X193744164Y-86541193D01*
X193821293Y-86533596D01*
X193898420Y-86526000D01*
X194001580Y-86526000D01*
X194078707Y-86533596D01*
X194078707Y-86533596D01*
G37*
G36*
X196618707Y-86533596D02*
G01*
X196695836Y-86541193D01*
X196893762Y-86601233D01*
X196893765Y-86601234D01*
X197076170Y-86698732D01*
X197236055Y-86829945D01*
X197367268Y-86989830D01*
X197464766Y-87172235D01*
X197464767Y-87172238D01*
X197524807Y-87370164D01*
X197545080Y-87576000D01*
X197524807Y-87781836D01*
X197464767Y-87979762D01*
X197464766Y-87979765D01*
X197367268Y-88162170D01*
X197236055Y-88322055D01*
X197076170Y-88453268D01*
X196893765Y-88550766D01*
X196893762Y-88550767D01*
X196695836Y-88610807D01*
X196618707Y-88618404D01*
X196541580Y-88626000D01*
X196438420Y-88626000D01*
X196361293Y-88618403D01*
X196284164Y-88610807D01*
X196086238Y-88550767D01*
X196086235Y-88550766D01*
X195903830Y-88453268D01*
X195743945Y-88322055D01*
X195612732Y-88162170D01*
X195515234Y-87979765D01*
X195515233Y-87979762D01*
X195455193Y-87781836D01*
X195434920Y-87576000D01*
X195455193Y-87370164D01*
X195515233Y-87172238D01*
X195515234Y-87172235D01*
X195612732Y-86989830D01*
X195743945Y-86829945D01*
X195903830Y-86698732D01*
X196086235Y-86601234D01*
X196086238Y-86601233D01*
X196284164Y-86541193D01*
X196361293Y-86533596D01*
X196438420Y-86526000D01*
X196541580Y-86526000D01*
X196618707Y-86533596D01*
X196618707Y-86533596D01*
G37*
G36*
X158856983Y-75659760D02*
G01*
X159043999Y-75716490D01*
X159216344Y-75808611D01*
X159367412Y-75932588D01*
X159491389Y-76083656D01*
X159583510Y-76256001D01*
X159640240Y-76443017D01*
X159660000Y-76643640D01*
X159660000Y-82656360D01*
X159640240Y-82856983D01*
X159583510Y-83043999D01*
X159491389Y-83216344D01*
X159367412Y-83367412D01*
X159216344Y-83491389D01*
X159043999Y-83583510D01*
X158856983Y-83640240D01*
X158656360Y-83660000D01*
X156423640Y-83660000D01*
X156223017Y-83640240D01*
X156036001Y-83583510D01*
X155863656Y-83491389D01*
X155712588Y-83367412D01*
X155588611Y-83216344D01*
X155496490Y-83043999D01*
X155439760Y-82856983D01*
X155420000Y-82656360D01*
X155420000Y-76643640D01*
X155439760Y-76443017D01*
X155496490Y-76256001D01*
X155588611Y-76083656D01*
X155712588Y-75932588D01*
X155863656Y-75808611D01*
X156036001Y-75716490D01*
X156223017Y-75659760D01*
X156423640Y-75640000D01*
X158656360Y-75640000D01*
X158856983Y-75659760D01*
X158856983Y-75659760D01*
G37*
G36*
X189342983Y-75659760D02*
G01*
X189529999Y-75716490D01*
X189702344Y-75808611D01*
X189853412Y-75932588D01*
X189977389Y-76083656D01*
X190069510Y-76256001D01*
X190126240Y-76443017D01*
X190146000Y-76643640D01*
X190146000Y-82656360D01*
X190126240Y-82856983D01*
X190069510Y-83043999D01*
X189977389Y-83216344D01*
X189853412Y-83367412D01*
X189702344Y-83491389D01*
X189529999Y-83583510D01*
X189342983Y-83640240D01*
X189142360Y-83660000D01*
X186909640Y-83660000D01*
X186709017Y-83640240D01*
X186522001Y-83583510D01*
X186349656Y-83491389D01*
X186198588Y-83367412D01*
X186074611Y-83216344D01*
X185982490Y-83043999D01*
X185925760Y-82856983D01*
X185906000Y-82656360D01*
X185906000Y-76643640D01*
X185925760Y-76443017D01*
X185982490Y-76256001D01*
X186074611Y-76083656D01*
X186198588Y-75932588D01*
X186349656Y-75808611D01*
X186522001Y-75716490D01*
X186709017Y-75659760D01*
X186909640Y-75640000D01*
X189142360Y-75640000D01*
X189342983Y-75659760D01*
X189342983Y-75659760D01*
G37*
G36*
X184262983Y-75659760D02*
G01*
X184449999Y-75716490D01*
X184622344Y-75808611D01*
X184773412Y-75932588D01*
X184897389Y-76083656D01*
X184989510Y-76256001D01*
X185046240Y-76443017D01*
X185066000Y-76643640D01*
X185066000Y-82656360D01*
X185046240Y-82856983D01*
X184989510Y-83043999D01*
X184897389Y-83216344D01*
X184773412Y-83367412D01*
X184622344Y-83491389D01*
X184449999Y-83583510D01*
X184262983Y-83640240D01*
X184062360Y-83660000D01*
X181829640Y-83660000D01*
X181629017Y-83640240D01*
X181442001Y-83583510D01*
X181269656Y-83491389D01*
X181118588Y-83367412D01*
X180994611Y-83216344D01*
X180902490Y-83043999D01*
X180845760Y-82856983D01*
X180826000Y-82656360D01*
X180826000Y-76643640D01*
X180845760Y-76443017D01*
X180902490Y-76256001D01*
X180994611Y-76083656D01*
X181118588Y-75932588D01*
X181269656Y-75808611D01*
X181442001Y-75716490D01*
X181629017Y-75659760D01*
X181829640Y-75640000D01*
X184062360Y-75640000D01*
X184262983Y-75659760D01*
X184262983Y-75659760D01*
G37*
G36*
X163936983Y-75659760D02*
G01*
X164123999Y-75716490D01*
X164296344Y-75808611D01*
X164447412Y-75932588D01*
X164571389Y-76083656D01*
X164663510Y-76256001D01*
X164720240Y-76443017D01*
X164740000Y-76643640D01*
X164740000Y-82656360D01*
X164720240Y-82856983D01*
X164663510Y-83043999D01*
X164571389Y-83216344D01*
X164447412Y-83367412D01*
X164296344Y-83491389D01*
X164123999Y-83583510D01*
X163936983Y-83640240D01*
X163736360Y-83660000D01*
X161503640Y-83660000D01*
X161303017Y-83640240D01*
X161116001Y-83583510D01*
X160943656Y-83491389D01*
X160792588Y-83367412D01*
X160668611Y-83216344D01*
X160576490Y-83043999D01*
X160519760Y-82856983D01*
X160500000Y-82656360D01*
X160500000Y-76643640D01*
X160519760Y-76443017D01*
X160576490Y-76256001D01*
X160668611Y-76083656D01*
X160792588Y-75932588D01*
X160943656Y-75808611D01*
X161116001Y-75716490D01*
X161303017Y-75659760D01*
X161503640Y-75640000D01*
X163736360Y-75640000D01*
X163936983Y-75659760D01*
X163936983Y-75659760D01*
G37*
G36*
X171559983Y-75659760D02*
G01*
X171746999Y-75716490D01*
X171919344Y-75808611D01*
X172070412Y-75932588D01*
X172194389Y-76083656D01*
X172286510Y-76256001D01*
X172343240Y-76443017D01*
X172363000Y-76643640D01*
X172363000Y-82656360D01*
X172343240Y-82856983D01*
X172286510Y-83043999D01*
X172194389Y-83216344D01*
X172070412Y-83367412D01*
X171919344Y-83491389D01*
X171746999Y-83583510D01*
X171559983Y-83640240D01*
X171359360Y-83660000D01*
X169126640Y-83660000D01*
X168926017Y-83640240D01*
X168739001Y-83583510D01*
X168566656Y-83491389D01*
X168415588Y-83367412D01*
X168291611Y-83216344D01*
X168199490Y-83043999D01*
X168142760Y-82856983D01*
X168123000Y-82656360D01*
X168123000Y-76643640D01*
X168142760Y-76443017D01*
X168199490Y-76256001D01*
X168291611Y-76083656D01*
X168415588Y-75932588D01*
X168566656Y-75808611D01*
X168739001Y-75716490D01*
X168926017Y-75659760D01*
X169126640Y-75640000D01*
X171359360Y-75640000D01*
X171559983Y-75659760D01*
X171559983Y-75659760D01*
G37*
G36*
X176639983Y-75659760D02*
G01*
X176826999Y-75716490D01*
X176999344Y-75808611D01*
X177150412Y-75932588D01*
X177274389Y-76083656D01*
X177366510Y-76256001D01*
X177423240Y-76443017D01*
X177443000Y-76643640D01*
X177443000Y-82656360D01*
X177423240Y-82856983D01*
X177366510Y-83043999D01*
X177274389Y-83216344D01*
X177150412Y-83367412D01*
X176999344Y-83491389D01*
X176826999Y-83583510D01*
X176639983Y-83640240D01*
X176439360Y-83660000D01*
X174206640Y-83660000D01*
X174006017Y-83640240D01*
X173819001Y-83583510D01*
X173646656Y-83491389D01*
X173495588Y-83367412D01*
X173371611Y-83216344D01*
X173279490Y-83043999D01*
X173222760Y-82856983D01*
X173203000Y-82656360D01*
X173203000Y-76643640D01*
X173222760Y-76443017D01*
X173279490Y-76256001D01*
X173371611Y-76083656D01*
X173495588Y-75932588D01*
X173646656Y-75808611D01*
X173819001Y-75716490D01*
X174006017Y-75659760D01*
X174206640Y-75640000D01*
X176439360Y-75640000D01*
X176639983Y-75659760D01*
X176639983Y-75659760D01*
G37*
G36*
X148709722Y-78745656D02*
G01*
X148813566Y-78766312D01*
X148870866Y-78790047D01*
X149009203Y-78847347D01*
X149185272Y-78964993D01*
X149335007Y-79114728D01*
X149452653Y-79290797D01*
X149533688Y-79486435D01*
X149575000Y-79694121D01*
X149575000Y-79905879D01*
X149554344Y-80009722D01*
X149533688Y-80113566D01*
X149517108Y-80153593D01*
X149452653Y-80309203D01*
X149335007Y-80485272D01*
X149185272Y-80635007D01*
X149009203Y-80752653D01*
X148870866Y-80809953D01*
X148813566Y-80833688D01*
X148709722Y-80854344D01*
X148605879Y-80875000D01*
X148394121Y-80875000D01*
X148290278Y-80854344D01*
X148186434Y-80833688D01*
X148129134Y-80809953D01*
X147990797Y-80752653D01*
X147814728Y-80635007D01*
X147664993Y-80485272D01*
X147547347Y-80309203D01*
X147482892Y-80153593D01*
X147466312Y-80113566D01*
X147445656Y-80009722D01*
X147425000Y-79905879D01*
X147425000Y-79694121D01*
X147466312Y-79486435D01*
X147547347Y-79290797D01*
X147664993Y-79114728D01*
X147814728Y-78964993D01*
X147990797Y-78847347D01*
X148129134Y-78790047D01*
X148186434Y-78766312D01*
X148290278Y-78745656D01*
X148394121Y-78725000D01*
X148605879Y-78725000D01*
X148709722Y-78745656D01*
X148709722Y-78745656D01*
G37*
G36*
X146209722Y-78745656D02*
G01*
X146313566Y-78766312D01*
X146370866Y-78790047D01*
X146509203Y-78847347D01*
X146685272Y-78964993D01*
X146835007Y-79114728D01*
X146952653Y-79290797D01*
X147033688Y-79486435D01*
X147075000Y-79694121D01*
X147075000Y-79905879D01*
X147054344Y-80009722D01*
X147033688Y-80113566D01*
X147017108Y-80153593D01*
X146952653Y-80309203D01*
X146835007Y-80485272D01*
X146685272Y-80635007D01*
X146509203Y-80752653D01*
X146370866Y-80809953D01*
X146313566Y-80833688D01*
X146209722Y-80854344D01*
X146105879Y-80875000D01*
X145894121Y-80875000D01*
X145790278Y-80854344D01*
X145686434Y-80833688D01*
X145629134Y-80809953D01*
X145490797Y-80752653D01*
X145314728Y-80635007D01*
X145164993Y-80485272D01*
X145047347Y-80309203D01*
X144982892Y-80153593D01*
X144966312Y-80113566D01*
X144945656Y-80009722D01*
X144925000Y-79905879D01*
X144925000Y-79694121D01*
X144966312Y-79486435D01*
X145047347Y-79290797D01*
X145164993Y-79114728D01*
X145314728Y-78964993D01*
X145490797Y-78847347D01*
X145629134Y-78790047D01*
X145686434Y-78766312D01*
X145790278Y-78745656D01*
X145894121Y-78725000D01*
X146105879Y-78725000D01*
X146209722Y-78745656D01*
X146209722Y-78745656D01*
G37*
G36*
X144575000Y-80875000D02*
G01*
X142425000Y-80875000D01*
X142425000Y-78725000D01*
X144575000Y-78725000D01*
X144575000Y-80875000D01*
X144575000Y-80875000D01*
G37*
G36*
X137302390Y-77269782D02*
G01*
X137452118Y-77299565D01*
X137568960Y-77347963D01*
X137734199Y-77416407D01*
X137734200Y-77416408D01*
X137988068Y-77586036D01*
X138203964Y-77801932D01*
X138317306Y-77971561D01*
X138373593Y-78055801D01*
X138442037Y-78221040D01*
X138486293Y-78327882D01*
X138490435Y-78337883D01*
X138550000Y-78637337D01*
X138550000Y-78942663D01*
X138490435Y-79242117D01*
X138373593Y-79524199D01*
X138373592Y-79524200D01*
X138203964Y-79778068D01*
X137988068Y-79993964D01*
X137818439Y-80107306D01*
X137734199Y-80163593D01*
X137568960Y-80232037D01*
X137452118Y-80280435D01*
X137307490Y-80309203D01*
X137152663Y-80340000D01*
X136847337Y-80340000D01*
X136692510Y-80309203D01*
X136547882Y-80280435D01*
X136431040Y-80232037D01*
X136265801Y-80163593D01*
X136181561Y-80107306D01*
X136011932Y-79993964D01*
X135796036Y-79778068D01*
X135626408Y-79524200D01*
X135626407Y-79524199D01*
X135509565Y-79242117D01*
X135450000Y-78942663D01*
X135450000Y-78637337D01*
X135509565Y-78337883D01*
X135513708Y-78327882D01*
X135557963Y-78221040D01*
X135626407Y-78055801D01*
X135682694Y-77971561D01*
X135796036Y-77801932D01*
X136011932Y-77586036D01*
X136265800Y-77416408D01*
X136265801Y-77416407D01*
X136431040Y-77347963D01*
X136547882Y-77299565D01*
X136697610Y-77269782D01*
X136847337Y-77240000D01*
X137152663Y-77240000D01*
X137302390Y-77269782D01*
X137302390Y-77269782D01*
G37*
G36*
X195192936Y-77240000D02*
G01*
X195442118Y-77289565D01*
X195558960Y-77337963D01*
X195724199Y-77406407D01*
X195808439Y-77462694D01*
X195978068Y-77576036D01*
X196193964Y-77791932D01*
X196200646Y-77801933D01*
X196363593Y-78045801D01*
X196367735Y-78055801D01*
X196480435Y-78327882D01*
X196540000Y-78627338D01*
X196540000Y-78932662D01*
X196480435Y-79232118D01*
X196456129Y-79290797D01*
X196363593Y-79514199D01*
X196307306Y-79598439D01*
X196193964Y-79768068D01*
X195978068Y-79983964D01*
X195808439Y-80097306D01*
X195724199Y-80153593D01*
X195558960Y-80222037D01*
X195442118Y-80270435D01*
X195391844Y-80280435D01*
X195142663Y-80330000D01*
X194837337Y-80330000D01*
X194588156Y-80280435D01*
X194537882Y-80270435D01*
X194421040Y-80222037D01*
X194255801Y-80153593D01*
X194171561Y-80097306D01*
X194001932Y-79983964D01*
X193786036Y-79768068D01*
X193672694Y-79598439D01*
X193616407Y-79514199D01*
X193523871Y-79290797D01*
X193499565Y-79232118D01*
X193440000Y-78932662D01*
X193440000Y-78627338D01*
X193499565Y-78327882D01*
X193612265Y-78055801D01*
X193616407Y-78045801D01*
X193779354Y-77801933D01*
X193786036Y-77791932D01*
X194001932Y-77576036D01*
X194171561Y-77462694D01*
X194255801Y-77406407D01*
X194421040Y-77337963D01*
X194537882Y-77289565D01*
X194787064Y-77240000D01*
X194837337Y-77230000D01*
X195142663Y-77230000D01*
X195192936Y-77240000D01*
X195192936Y-77240000D01*
G37*
M02*
