G04 #@! TF.GenerationSoftware,KiCad,Pcbnew,(5.1.4)-1*
G04 #@! TF.CreationDate,2019-11-04T18:42:31+11:00*
G04 #@! TF.ProjectId,dingo-hat,64696e67-6f2d-4686-9174-2e6b69636164,rev?*
G04 #@! TF.SameCoordinates,Original*
G04 #@! TF.FileFunction,Legend,Top*
G04 #@! TF.FilePolarity,Positive*
%FSLAX46Y46*%
G04 Gerber Fmt 4.6, Leading zero omitted, Abs format (unit mm)*
G04 Created by KiCad (PCBNEW (5.1.4)-1) date 2019-11-04 18:42:31*
%MOMM*%
%LPD*%
G04 APERTURE LIST*
%ADD10C,0.175000*%
%ADD11C,0.150000*%
%ADD12C,0.525000*%
%ADD13C,0.200000*%
%ADD14C,0.120000*%
%ADD15C,0.152400*%
%ADD16C,0.000100*%
%ADD17C,0.127000*%
%ADD18C,0.400000*%
%ADD19C,0.100000*%
%ADD20C,0.125000*%
G04 APERTURE END LIST*
D10*
X129893333Y-111450666D02*
X130126666Y-112150666D01*
X130360000Y-111450666D01*
X130993333Y-112084000D02*
X130960000Y-112117333D01*
X130860000Y-112150666D01*
X130793333Y-112150666D01*
X130693333Y-112117333D01*
X130626666Y-112050666D01*
X130593333Y-111984000D01*
X130560000Y-111850666D01*
X130560000Y-111750666D01*
X130593333Y-111617333D01*
X130626666Y-111550666D01*
X130693333Y-111484000D01*
X130793333Y-111450666D01*
X130860000Y-111450666D01*
X130960000Y-111484000D01*
X130993333Y-111517333D01*
X131660000Y-112150666D02*
X131260000Y-112150666D01*
X131460000Y-112150666D02*
X131460000Y-111450666D01*
X131393333Y-111550666D01*
X131326666Y-111617333D01*
X131260000Y-111650666D01*
X132513333Y-111470666D02*
X132746666Y-112170666D01*
X132980000Y-111470666D01*
X133613333Y-112104000D02*
X133580000Y-112137333D01*
X133480000Y-112170666D01*
X133413333Y-112170666D01*
X133313333Y-112137333D01*
X133246666Y-112070666D01*
X133213333Y-112004000D01*
X133180000Y-111870666D01*
X133180000Y-111770666D01*
X133213333Y-111637333D01*
X133246666Y-111570666D01*
X133313333Y-111504000D01*
X133413333Y-111470666D01*
X133480000Y-111470666D01*
X133580000Y-111504000D01*
X133613333Y-111537333D01*
X134046666Y-111470666D02*
X134113333Y-111470666D01*
X134180000Y-111504000D01*
X134213333Y-111537333D01*
X134246666Y-111604000D01*
X134280000Y-111737333D01*
X134280000Y-111904000D01*
X134246666Y-112037333D01*
X134213333Y-112104000D01*
X134180000Y-112137333D01*
X134113333Y-112170666D01*
X134046666Y-112170666D01*
X133980000Y-112137333D01*
X133946666Y-112104000D01*
X133913333Y-112037333D01*
X133880000Y-111904000D01*
X133880000Y-111737333D01*
X133913333Y-111604000D01*
X133946666Y-111537333D01*
X133980000Y-111504000D01*
X134046666Y-111470666D01*
D11*
X90901428Y-104534000D02*
X90901428Y-105534000D01*
X90015714Y-105234000D02*
X90472857Y-105034000D01*
X90015714Y-104834000D01*
X116658571Y-107964000D02*
X116658571Y-106964000D01*
X117544285Y-107264000D02*
X117087142Y-107464000D01*
X117544285Y-107664000D01*
X142711428Y-94506857D02*
X143168571Y-94506857D01*
X142940000Y-94735428D02*
X142940000Y-94278285D01*
X130791428Y-96006857D02*
X131248571Y-96006857D01*
X131020000Y-96235428D02*
X131020000Y-95778285D01*
D10*
X120693333Y-108454000D02*
X121226666Y-108454000D01*
X119686666Y-104598166D02*
X119686666Y-103898166D01*
X119686666Y-104164833D02*
X119753333Y-104131500D01*
X119886666Y-104131500D01*
X119953333Y-104164833D01*
X119986666Y-104198166D01*
X120020000Y-104264833D01*
X120020000Y-104464833D01*
X119986666Y-104531500D01*
X119953333Y-104564833D01*
X119886666Y-104598166D01*
X119753333Y-104598166D01*
X119686666Y-104564833D01*
X120420000Y-104598166D02*
X120353333Y-104564833D01*
X120320000Y-104531500D01*
X120286666Y-104464833D01*
X120286666Y-104264833D01*
X120320000Y-104198166D01*
X120353333Y-104164833D01*
X120420000Y-104131500D01*
X120520000Y-104131500D01*
X120586666Y-104164833D01*
X120620000Y-104198166D01*
X120653333Y-104264833D01*
X120653333Y-104464833D01*
X120620000Y-104531500D01*
X120586666Y-104564833D01*
X120520000Y-104598166D01*
X120420000Y-104598166D01*
X121053333Y-104598166D02*
X120986666Y-104564833D01*
X120953333Y-104531500D01*
X120920000Y-104464833D01*
X120920000Y-104264833D01*
X120953333Y-104198166D01*
X120986666Y-104164833D01*
X121053333Y-104131500D01*
X121153333Y-104131500D01*
X121220000Y-104164833D01*
X121253333Y-104198166D01*
X121286666Y-104264833D01*
X121286666Y-104464833D01*
X121253333Y-104531500D01*
X121220000Y-104564833D01*
X121153333Y-104598166D01*
X121053333Y-104598166D01*
X121486666Y-104131500D02*
X121753333Y-104131500D01*
X121586666Y-103898166D02*
X121586666Y-104498166D01*
X121620000Y-104564833D01*
X121686666Y-104598166D01*
X121753333Y-104598166D01*
X119470000Y-105789833D02*
X119536666Y-105823166D01*
X119670000Y-105823166D01*
X119736666Y-105789833D01*
X119770000Y-105723166D01*
X119770000Y-105689833D01*
X119736666Y-105623166D01*
X119670000Y-105589833D01*
X119570000Y-105589833D01*
X119503333Y-105556500D01*
X119470000Y-105489833D01*
X119470000Y-105456500D01*
X119503333Y-105389833D01*
X119570000Y-105356500D01*
X119670000Y-105356500D01*
X119736666Y-105389833D01*
X119970000Y-105356500D02*
X120236666Y-105356500D01*
X120070000Y-105123166D02*
X120070000Y-105723166D01*
X120103333Y-105789833D01*
X120170000Y-105823166D01*
X120236666Y-105823166D01*
X120470000Y-105823166D02*
X120470000Y-105356500D01*
X120470000Y-105489833D02*
X120503333Y-105423166D01*
X120536666Y-105389833D01*
X120603333Y-105356500D01*
X120670000Y-105356500D01*
X121203333Y-105823166D02*
X121203333Y-105456500D01*
X121170000Y-105389833D01*
X121103333Y-105356500D01*
X120970000Y-105356500D01*
X120903333Y-105389833D01*
X121203333Y-105789833D02*
X121136666Y-105823166D01*
X120970000Y-105823166D01*
X120903333Y-105789833D01*
X120870000Y-105723166D01*
X120870000Y-105656500D01*
X120903333Y-105589833D01*
X120970000Y-105556500D01*
X121136666Y-105556500D01*
X121203333Y-105523166D01*
X121536666Y-105356500D02*
X121536666Y-106056500D01*
X121536666Y-105389833D02*
X121603333Y-105356500D01*
X121736666Y-105356500D01*
X121803333Y-105389833D01*
X121836666Y-105423166D01*
X121870000Y-105489833D01*
X121870000Y-105689833D01*
X121836666Y-105756500D01*
X121803333Y-105789833D01*
X121736666Y-105823166D01*
X121603333Y-105823166D01*
X121536666Y-105789833D01*
X96900000Y-111117333D02*
X96866666Y-111184000D01*
X96866666Y-111284000D01*
X96900000Y-111384000D01*
X96966666Y-111450666D01*
X97033333Y-111484000D01*
X97166666Y-111517333D01*
X97266666Y-111517333D01*
X97400000Y-111484000D01*
X97466666Y-111450666D01*
X97533333Y-111384000D01*
X97566666Y-111284000D01*
X97566666Y-111217333D01*
X97533333Y-111117333D01*
X97500000Y-111084000D01*
X97266666Y-111084000D01*
X97266666Y-111217333D01*
X97566666Y-110784000D02*
X96866666Y-110784000D01*
X97566666Y-110384000D01*
X96866666Y-110384000D01*
X97566666Y-110050666D02*
X96866666Y-110050666D01*
X96866666Y-109884000D01*
X96900000Y-109784000D01*
X96966666Y-109717333D01*
X97033333Y-109684000D01*
X97166666Y-109650666D01*
X97266666Y-109650666D01*
X97400000Y-109684000D01*
X97466666Y-109717333D01*
X97533333Y-109784000D01*
X97566666Y-109884000D01*
X97566666Y-110050666D01*
X106266666Y-107934000D02*
X106200000Y-107900666D01*
X106100000Y-107900666D01*
X106000000Y-107934000D01*
X105933333Y-108000666D01*
X105900000Y-108067333D01*
X105866666Y-108200666D01*
X105866666Y-108300666D01*
X105900000Y-108434000D01*
X105933333Y-108500666D01*
X106000000Y-108567333D01*
X106100000Y-108600666D01*
X106166666Y-108600666D01*
X106266666Y-108567333D01*
X106300000Y-108534000D01*
X106300000Y-108300666D01*
X106166666Y-108300666D01*
X106600000Y-108600666D02*
X106600000Y-107900666D01*
X107000000Y-108600666D01*
X107000000Y-107900666D01*
X107333333Y-108600666D02*
X107333333Y-107900666D01*
X107500000Y-107900666D01*
X107600000Y-107934000D01*
X107666666Y-108000666D01*
X107700000Y-108067333D01*
X107733333Y-108200666D01*
X107733333Y-108300666D01*
X107700000Y-108434000D01*
X107666666Y-108500666D01*
X107600000Y-108567333D01*
X107500000Y-108600666D01*
X107333333Y-108600666D01*
X108640000Y-91134000D02*
X109173333Y-91134000D01*
X108906666Y-91400666D02*
X108906666Y-90867333D01*
X109840000Y-90700666D02*
X109506666Y-90700666D01*
X109473333Y-91034000D01*
X109506666Y-91000666D01*
X109573333Y-90967333D01*
X109740000Y-90967333D01*
X109806666Y-91000666D01*
X109840000Y-91034000D01*
X109873333Y-91100666D01*
X109873333Y-91267333D01*
X109840000Y-91334000D01*
X109806666Y-91367333D01*
X109740000Y-91400666D01*
X109573333Y-91400666D01*
X109506666Y-91367333D01*
X109473333Y-91334000D01*
X110073333Y-90700666D02*
X110306666Y-91400666D01*
X110540000Y-90700666D01*
X127140000Y-74194000D02*
X127140000Y-73660666D01*
X127406666Y-73927333D02*
X126873333Y-73927333D01*
X126706666Y-72994000D02*
X126706666Y-73327333D01*
X127040000Y-73360666D01*
X127006666Y-73327333D01*
X126973333Y-73260666D01*
X126973333Y-73094000D01*
X127006666Y-73027333D01*
X127040000Y-72994000D01*
X127106666Y-72960666D01*
X127273333Y-72960666D01*
X127340000Y-72994000D01*
X127373333Y-73027333D01*
X127406666Y-73094000D01*
X127406666Y-73260666D01*
X127373333Y-73327333D01*
X127340000Y-73360666D01*
X126706666Y-72760666D02*
X127406666Y-72527333D01*
X126706666Y-72294000D01*
D11*
X136063333Y-85564000D02*
X135996666Y-85530666D01*
X135896666Y-85530666D01*
X135796666Y-85564000D01*
X135730000Y-85630666D01*
X135696666Y-85697333D01*
X135663333Y-85830666D01*
X135663333Y-85930666D01*
X135696666Y-86064000D01*
X135730000Y-86130666D01*
X135796666Y-86197333D01*
X135896666Y-86230666D01*
X135963333Y-86230666D01*
X136063333Y-86197333D01*
X136096666Y-86164000D01*
X136096666Y-85930666D01*
X135963333Y-85930666D01*
X136396666Y-86230666D02*
X136396666Y-85530666D01*
X136663333Y-85530666D01*
X136730000Y-85564000D01*
X136763333Y-85597333D01*
X136796666Y-85664000D01*
X136796666Y-85764000D01*
X136763333Y-85830666D01*
X136730000Y-85864000D01*
X136663333Y-85897333D01*
X136396666Y-85897333D01*
X137096666Y-86230666D02*
X137096666Y-85530666D01*
X137563333Y-85530666D02*
X137696666Y-85530666D01*
X137763333Y-85564000D01*
X137830000Y-85630666D01*
X137863333Y-85764000D01*
X137863333Y-85997333D01*
X137830000Y-86130666D01*
X137763333Y-86197333D01*
X137696666Y-86230666D01*
X137563333Y-86230666D01*
X137496666Y-86197333D01*
X137430000Y-86130666D01*
X137396666Y-85997333D01*
X137396666Y-85764000D01*
X137430000Y-85630666D01*
X137496666Y-85564000D01*
X137563333Y-85530666D01*
X138530000Y-86230666D02*
X138130000Y-86230666D01*
X138330000Y-86230666D02*
X138330000Y-85530666D01*
X138263333Y-85630666D01*
X138196666Y-85697333D01*
X138130000Y-85730666D01*
X138863333Y-86230666D02*
X138996666Y-86230666D01*
X139063333Y-86197333D01*
X139096666Y-86164000D01*
X139163333Y-86064000D01*
X139196666Y-85930666D01*
X139196666Y-85664000D01*
X139163333Y-85597333D01*
X139130000Y-85564000D01*
X139063333Y-85530666D01*
X138930000Y-85530666D01*
X138863333Y-85564000D01*
X138830000Y-85597333D01*
X138796666Y-85664000D01*
X138796666Y-85830666D01*
X138830000Y-85897333D01*
X138863333Y-85930666D01*
X138930000Y-85964000D01*
X139063333Y-85964000D01*
X139130000Y-85930666D01*
X139163333Y-85897333D01*
X139196666Y-85830666D01*
X136113333Y-75444000D02*
X136046666Y-75410666D01*
X135946666Y-75410666D01*
X135846666Y-75444000D01*
X135780000Y-75510666D01*
X135746666Y-75577333D01*
X135713333Y-75710666D01*
X135713333Y-75810666D01*
X135746666Y-75944000D01*
X135780000Y-76010666D01*
X135846666Y-76077333D01*
X135946666Y-76110666D01*
X136013333Y-76110666D01*
X136113333Y-76077333D01*
X136146666Y-76044000D01*
X136146666Y-75810666D01*
X136013333Y-75810666D01*
X136446666Y-76110666D02*
X136446666Y-75410666D01*
X136713333Y-75410666D01*
X136780000Y-75444000D01*
X136813333Y-75477333D01*
X136846666Y-75544000D01*
X136846666Y-75644000D01*
X136813333Y-75710666D01*
X136780000Y-75744000D01*
X136713333Y-75777333D01*
X136446666Y-75777333D01*
X137146666Y-76110666D02*
X137146666Y-75410666D01*
X137613333Y-75410666D02*
X137746666Y-75410666D01*
X137813333Y-75444000D01*
X137880000Y-75510666D01*
X137913333Y-75644000D01*
X137913333Y-75877333D01*
X137880000Y-76010666D01*
X137813333Y-76077333D01*
X137746666Y-76110666D01*
X137613333Y-76110666D01*
X137546666Y-76077333D01*
X137480000Y-76010666D01*
X137446666Y-75877333D01*
X137446666Y-75644000D01*
X137480000Y-75510666D01*
X137546666Y-75444000D01*
X137613333Y-75410666D01*
X138180000Y-75477333D02*
X138213333Y-75444000D01*
X138280000Y-75410666D01*
X138446666Y-75410666D01*
X138513333Y-75444000D01*
X138546666Y-75477333D01*
X138580000Y-75544000D01*
X138580000Y-75610666D01*
X138546666Y-75710666D01*
X138146666Y-76110666D01*
X138580000Y-76110666D01*
X139246666Y-76110666D02*
X138846666Y-76110666D01*
X139046666Y-76110666D02*
X139046666Y-75410666D01*
X138980000Y-75510666D01*
X138913333Y-75577333D01*
X138846666Y-75610666D01*
X136103333Y-88224000D02*
X136036666Y-88190666D01*
X135936666Y-88190666D01*
X135836666Y-88224000D01*
X135770000Y-88290666D01*
X135736666Y-88357333D01*
X135703333Y-88490666D01*
X135703333Y-88590666D01*
X135736666Y-88724000D01*
X135770000Y-88790666D01*
X135836666Y-88857333D01*
X135936666Y-88890666D01*
X136003333Y-88890666D01*
X136103333Y-88857333D01*
X136136666Y-88824000D01*
X136136666Y-88590666D01*
X136003333Y-88590666D01*
X136436666Y-88890666D02*
X136436666Y-88190666D01*
X136703333Y-88190666D01*
X136770000Y-88224000D01*
X136803333Y-88257333D01*
X136836666Y-88324000D01*
X136836666Y-88424000D01*
X136803333Y-88490666D01*
X136770000Y-88524000D01*
X136703333Y-88557333D01*
X136436666Y-88557333D01*
X137136666Y-88890666D02*
X137136666Y-88190666D01*
X137603333Y-88190666D02*
X137736666Y-88190666D01*
X137803333Y-88224000D01*
X137870000Y-88290666D01*
X137903333Y-88424000D01*
X137903333Y-88657333D01*
X137870000Y-88790666D01*
X137803333Y-88857333D01*
X137736666Y-88890666D01*
X137603333Y-88890666D01*
X137536666Y-88857333D01*
X137470000Y-88790666D01*
X137436666Y-88657333D01*
X137436666Y-88424000D01*
X137470000Y-88290666D01*
X137536666Y-88224000D01*
X137603333Y-88190666D01*
X138170000Y-88257333D02*
X138203333Y-88224000D01*
X138270000Y-88190666D01*
X138436666Y-88190666D01*
X138503333Y-88224000D01*
X138536666Y-88257333D01*
X138570000Y-88324000D01*
X138570000Y-88390666D01*
X138536666Y-88490666D01*
X138136666Y-88890666D01*
X138570000Y-88890666D01*
X139003333Y-88190666D02*
X139070000Y-88190666D01*
X139136666Y-88224000D01*
X139170000Y-88257333D01*
X139203333Y-88324000D01*
X139236666Y-88457333D01*
X139236666Y-88624000D01*
X139203333Y-88757333D01*
X139170000Y-88824000D01*
X139136666Y-88857333D01*
X139070000Y-88890666D01*
X139003333Y-88890666D01*
X138936666Y-88857333D01*
X138903333Y-88824000D01*
X138870000Y-88757333D01*
X138836666Y-88624000D01*
X138836666Y-88457333D01*
X138870000Y-88324000D01*
X138903333Y-88257333D01*
X138936666Y-88224000D01*
X139003333Y-88190666D01*
X136063333Y-72944000D02*
X135996666Y-72910666D01*
X135896666Y-72910666D01*
X135796666Y-72944000D01*
X135730000Y-73010666D01*
X135696666Y-73077333D01*
X135663333Y-73210666D01*
X135663333Y-73310666D01*
X135696666Y-73444000D01*
X135730000Y-73510666D01*
X135796666Y-73577333D01*
X135896666Y-73610666D01*
X135963333Y-73610666D01*
X136063333Y-73577333D01*
X136096666Y-73544000D01*
X136096666Y-73310666D01*
X135963333Y-73310666D01*
X136396666Y-73610666D02*
X136396666Y-72910666D01*
X136663333Y-72910666D01*
X136730000Y-72944000D01*
X136763333Y-72977333D01*
X136796666Y-73044000D01*
X136796666Y-73144000D01*
X136763333Y-73210666D01*
X136730000Y-73244000D01*
X136663333Y-73277333D01*
X136396666Y-73277333D01*
X137096666Y-73610666D02*
X137096666Y-72910666D01*
X137563333Y-72910666D02*
X137696666Y-72910666D01*
X137763333Y-72944000D01*
X137830000Y-73010666D01*
X137863333Y-73144000D01*
X137863333Y-73377333D01*
X137830000Y-73510666D01*
X137763333Y-73577333D01*
X137696666Y-73610666D01*
X137563333Y-73610666D01*
X137496666Y-73577333D01*
X137430000Y-73510666D01*
X137396666Y-73377333D01*
X137396666Y-73144000D01*
X137430000Y-73010666D01*
X137496666Y-72944000D01*
X137563333Y-72910666D01*
X138130000Y-72977333D02*
X138163333Y-72944000D01*
X138230000Y-72910666D01*
X138396666Y-72910666D01*
X138463333Y-72944000D01*
X138496666Y-72977333D01*
X138530000Y-73044000D01*
X138530000Y-73110666D01*
X138496666Y-73210666D01*
X138096666Y-73610666D01*
X138530000Y-73610666D01*
X139130000Y-72910666D02*
X138996666Y-72910666D01*
X138930000Y-72944000D01*
X138896666Y-72977333D01*
X138830000Y-73077333D01*
X138796666Y-73210666D01*
X138796666Y-73477333D01*
X138830000Y-73544000D01*
X138863333Y-73577333D01*
X138930000Y-73610666D01*
X139063333Y-73610666D01*
X139130000Y-73577333D01*
X139163333Y-73544000D01*
X139196666Y-73477333D01*
X139196666Y-73310666D01*
X139163333Y-73244000D01*
X139130000Y-73210666D01*
X139063333Y-73177333D01*
X138930000Y-73177333D01*
X138863333Y-73210666D01*
X138830000Y-73244000D01*
X138796666Y-73310666D01*
D10*
X138472000Y-91569333D02*
X138438666Y-91636000D01*
X138438666Y-91736000D01*
X138472000Y-91836000D01*
X138538666Y-91902666D01*
X138605333Y-91936000D01*
X138738666Y-91969333D01*
X138838666Y-91969333D01*
X138972000Y-91936000D01*
X139038666Y-91902666D01*
X139105333Y-91836000D01*
X139138666Y-91736000D01*
X139138666Y-91669333D01*
X139105333Y-91569333D01*
X139072000Y-91536000D01*
X138838666Y-91536000D01*
X138838666Y-91669333D01*
X139138666Y-91236000D02*
X138438666Y-91236000D01*
X139138666Y-90836000D01*
X138438666Y-90836000D01*
X139138666Y-90502666D02*
X138438666Y-90502666D01*
X138438666Y-90336000D01*
X138472000Y-90236000D01*
X138538666Y-90169333D01*
X138605333Y-90136000D01*
X138738666Y-90102666D01*
X138838666Y-90102666D01*
X138972000Y-90136000D01*
X139038666Y-90169333D01*
X139105333Y-90236000D01*
X139138666Y-90336000D01*
X139138666Y-90502666D01*
X138482000Y-78979333D02*
X138448666Y-79046000D01*
X138448666Y-79146000D01*
X138482000Y-79246000D01*
X138548666Y-79312666D01*
X138615333Y-79346000D01*
X138748666Y-79379333D01*
X138848666Y-79379333D01*
X138982000Y-79346000D01*
X139048666Y-79312666D01*
X139115333Y-79246000D01*
X139148666Y-79146000D01*
X139148666Y-79079333D01*
X139115333Y-78979333D01*
X139082000Y-78946000D01*
X138848666Y-78946000D01*
X138848666Y-79079333D01*
X139148666Y-78646000D02*
X138448666Y-78646000D01*
X139148666Y-78246000D01*
X138448666Y-78246000D01*
X139148666Y-77912666D02*
X138448666Y-77912666D01*
X138448666Y-77746000D01*
X138482000Y-77646000D01*
X138548666Y-77579333D01*
X138615333Y-77546000D01*
X138748666Y-77512666D01*
X138848666Y-77512666D01*
X138982000Y-77546000D01*
X139048666Y-77579333D01*
X139115333Y-77646000D01*
X139148666Y-77746000D01*
X139148666Y-77912666D01*
X138900000Y-71614000D02*
X138900000Y-71080666D01*
X139166666Y-71347333D02*
X138633333Y-71347333D01*
X138466666Y-70414000D02*
X138466666Y-70747333D01*
X138800000Y-70780666D01*
X138766666Y-70747333D01*
X138733333Y-70680666D01*
X138733333Y-70514000D01*
X138766666Y-70447333D01*
X138800000Y-70414000D01*
X138866666Y-70380666D01*
X139033333Y-70380666D01*
X139100000Y-70414000D01*
X139133333Y-70447333D01*
X139166666Y-70514000D01*
X139166666Y-70680666D01*
X139133333Y-70747333D01*
X139100000Y-70780666D01*
X138466666Y-70180666D02*
X139166666Y-69947333D01*
X138466666Y-69714000D01*
X138890000Y-84314000D02*
X138890000Y-83780666D01*
X139156666Y-84047333D02*
X138623333Y-84047333D01*
X138456666Y-83114000D02*
X138456666Y-83447333D01*
X138790000Y-83480666D01*
X138756666Y-83447333D01*
X138723333Y-83380666D01*
X138723333Y-83214000D01*
X138756666Y-83147333D01*
X138790000Y-83114000D01*
X138856666Y-83080666D01*
X139023333Y-83080666D01*
X139090000Y-83114000D01*
X139123333Y-83147333D01*
X139156666Y-83214000D01*
X139156666Y-83380666D01*
X139123333Y-83447333D01*
X139090000Y-83480666D01*
X138456666Y-82880666D02*
X139156666Y-82647333D01*
X138456666Y-82414000D01*
X81830000Y-109424000D02*
X82363333Y-109424000D01*
X82096666Y-109690666D02*
X82096666Y-109157333D01*
X83030000Y-108990666D02*
X82696666Y-108990666D01*
X82663333Y-109324000D01*
X82696666Y-109290666D01*
X82763333Y-109257333D01*
X82930000Y-109257333D01*
X82996666Y-109290666D01*
X83030000Y-109324000D01*
X83063333Y-109390666D01*
X83063333Y-109557333D01*
X83030000Y-109624000D01*
X82996666Y-109657333D01*
X82930000Y-109690666D01*
X82763333Y-109690666D01*
X82696666Y-109657333D01*
X82663333Y-109624000D01*
X83263333Y-108990666D02*
X83496666Y-109690666D01*
X83730000Y-108990666D01*
X128700000Y-80464000D02*
X129233333Y-80464000D01*
X128966666Y-80730666D02*
X128966666Y-80197333D01*
X129900000Y-80030666D02*
X129566666Y-80030666D01*
X129533333Y-80364000D01*
X129566666Y-80330666D01*
X129633333Y-80297333D01*
X129800000Y-80297333D01*
X129866666Y-80330666D01*
X129900000Y-80364000D01*
X129933333Y-80430666D01*
X129933333Y-80597333D01*
X129900000Y-80664000D01*
X129866666Y-80697333D01*
X129800000Y-80730666D01*
X129633333Y-80730666D01*
X129566666Y-80697333D01*
X129533333Y-80664000D01*
X130133333Y-80030666D02*
X130366666Y-80730666D01*
X130600000Y-80030666D01*
X126194666Y-80689333D02*
X126294666Y-80722666D01*
X126461333Y-80722666D01*
X126528000Y-80689333D01*
X126561333Y-80656000D01*
X126594666Y-80589333D01*
X126594666Y-80522666D01*
X126561333Y-80456000D01*
X126528000Y-80422666D01*
X126461333Y-80389333D01*
X126328000Y-80356000D01*
X126261333Y-80322666D01*
X126228000Y-80289333D01*
X126194666Y-80222666D01*
X126194666Y-80156000D01*
X126228000Y-80089333D01*
X126261333Y-80056000D01*
X126328000Y-80022666D01*
X126494666Y-80022666D01*
X126594666Y-80056000D01*
X127294666Y-80656000D02*
X127261333Y-80689333D01*
X127161333Y-80722666D01*
X127094666Y-80722666D01*
X126994666Y-80689333D01*
X126928000Y-80622666D01*
X126894666Y-80556000D01*
X126861333Y-80422666D01*
X126861333Y-80322666D01*
X126894666Y-80189333D01*
X126928000Y-80122666D01*
X126994666Y-80056000D01*
X127094666Y-80022666D01*
X127161333Y-80022666D01*
X127261333Y-80056000D01*
X127294666Y-80089333D01*
X127928000Y-80722666D02*
X127594666Y-80722666D01*
X127594666Y-80022666D01*
X123618000Y-80669333D02*
X123718000Y-80702666D01*
X123884666Y-80702666D01*
X123951333Y-80669333D01*
X123984666Y-80636000D01*
X124018000Y-80569333D01*
X124018000Y-80502666D01*
X123984666Y-80436000D01*
X123951333Y-80402666D01*
X123884666Y-80369333D01*
X123751333Y-80336000D01*
X123684666Y-80302666D01*
X123651333Y-80269333D01*
X123618000Y-80202666D01*
X123618000Y-80136000D01*
X123651333Y-80069333D01*
X123684666Y-80036000D01*
X123751333Y-80002666D01*
X123918000Y-80002666D01*
X124018000Y-80036000D01*
X124318000Y-80702666D02*
X124318000Y-80002666D01*
X124484666Y-80002666D01*
X124584666Y-80036000D01*
X124651333Y-80102666D01*
X124684666Y-80169333D01*
X124718000Y-80302666D01*
X124718000Y-80402666D01*
X124684666Y-80536000D01*
X124651333Y-80602666D01*
X124584666Y-80669333D01*
X124484666Y-80702666D01*
X124318000Y-80702666D01*
X124984666Y-80502666D02*
X125318000Y-80502666D01*
X124918000Y-80702666D02*
X125151333Y-80002666D01*
X125384666Y-80702666D01*
X79724666Y-109036000D02*
X79658000Y-109002666D01*
X79558000Y-109002666D01*
X79458000Y-109036000D01*
X79391333Y-109102666D01*
X79358000Y-109169333D01*
X79324666Y-109302666D01*
X79324666Y-109402666D01*
X79358000Y-109536000D01*
X79391333Y-109602666D01*
X79458000Y-109669333D01*
X79558000Y-109702666D01*
X79624666Y-109702666D01*
X79724666Y-109669333D01*
X79758000Y-109636000D01*
X79758000Y-109402666D01*
X79624666Y-109402666D01*
X80058000Y-109702666D02*
X80058000Y-109002666D01*
X80458000Y-109702666D01*
X80458000Y-109002666D01*
X80791333Y-109702666D02*
X80791333Y-109002666D01*
X80958000Y-109002666D01*
X81058000Y-109036000D01*
X81124666Y-109102666D01*
X81158000Y-109169333D01*
X81191333Y-109302666D01*
X81191333Y-109402666D01*
X81158000Y-109536000D01*
X81124666Y-109602666D01*
X81058000Y-109669333D01*
X80958000Y-109702666D01*
X80791333Y-109702666D01*
X139662000Y-101829333D02*
X139628666Y-101896000D01*
X139628666Y-101996000D01*
X139662000Y-102096000D01*
X139728666Y-102162666D01*
X139795333Y-102196000D01*
X139928666Y-102229333D01*
X140028666Y-102229333D01*
X140162000Y-102196000D01*
X140228666Y-102162666D01*
X140295333Y-102096000D01*
X140328666Y-101996000D01*
X140328666Y-101929333D01*
X140295333Y-101829333D01*
X140262000Y-101796000D01*
X140028666Y-101796000D01*
X140028666Y-101929333D01*
X140328666Y-101496000D02*
X139628666Y-101496000D01*
X140328666Y-101096000D01*
X139628666Y-101096000D01*
X140328666Y-100762666D02*
X139628666Y-100762666D01*
X139628666Y-100596000D01*
X139662000Y-100496000D01*
X139728666Y-100429333D01*
X139795333Y-100396000D01*
X139928666Y-100362666D01*
X140028666Y-100362666D01*
X140162000Y-100396000D01*
X140228666Y-100429333D01*
X140295333Y-100496000D01*
X140328666Y-100596000D01*
X140328666Y-100762666D01*
X131674666Y-80046000D02*
X131608000Y-80012666D01*
X131508000Y-80012666D01*
X131408000Y-80046000D01*
X131341333Y-80112666D01*
X131308000Y-80179333D01*
X131274666Y-80312666D01*
X131274666Y-80412666D01*
X131308000Y-80546000D01*
X131341333Y-80612666D01*
X131408000Y-80679333D01*
X131508000Y-80712666D01*
X131574666Y-80712666D01*
X131674666Y-80679333D01*
X131708000Y-80646000D01*
X131708000Y-80412666D01*
X131574666Y-80412666D01*
X132008000Y-80712666D02*
X132008000Y-80012666D01*
X132408000Y-80712666D01*
X132408000Y-80012666D01*
X132741333Y-80712666D02*
X132741333Y-80012666D01*
X132908000Y-80012666D01*
X133008000Y-80046000D01*
X133074666Y-80112666D01*
X133108000Y-80179333D01*
X133141333Y-80312666D01*
X133141333Y-80412666D01*
X133108000Y-80546000D01*
X133074666Y-80612666D01*
X133008000Y-80679333D01*
X132908000Y-80712666D01*
X132741333Y-80712666D01*
X131942000Y-73729333D02*
X131908666Y-73796000D01*
X131908666Y-73896000D01*
X131942000Y-73996000D01*
X132008666Y-74062666D01*
X132075333Y-74096000D01*
X132208666Y-74129333D01*
X132308666Y-74129333D01*
X132442000Y-74096000D01*
X132508666Y-74062666D01*
X132575333Y-73996000D01*
X132608666Y-73896000D01*
X132608666Y-73829333D01*
X132575333Y-73729333D01*
X132542000Y-73696000D01*
X132308666Y-73696000D01*
X132308666Y-73829333D01*
X132608666Y-73396000D02*
X131908666Y-73396000D01*
X132608666Y-72996000D01*
X131908666Y-72996000D01*
X132608666Y-72662666D02*
X131908666Y-72662666D01*
X131908666Y-72496000D01*
X131942000Y-72396000D01*
X132008666Y-72329333D01*
X132075333Y-72296000D01*
X132208666Y-72262666D01*
X132308666Y-72262666D01*
X132442000Y-72296000D01*
X132508666Y-72329333D01*
X132575333Y-72396000D01*
X132608666Y-72496000D01*
X132608666Y-72662666D01*
D11*
X128348571Y-72534000D02*
X128291428Y-72505428D01*
X128205714Y-72505428D01*
X128120000Y-72534000D01*
X128062857Y-72591142D01*
X128034285Y-72648285D01*
X128005714Y-72762571D01*
X128005714Y-72848285D01*
X128034285Y-72962571D01*
X128062857Y-73019714D01*
X128120000Y-73076857D01*
X128205714Y-73105428D01*
X128262857Y-73105428D01*
X128348571Y-73076857D01*
X128377142Y-73048285D01*
X128377142Y-72848285D01*
X128262857Y-72848285D01*
X128634285Y-73105428D02*
X128634285Y-72505428D01*
X128862857Y-72505428D01*
X128920000Y-72534000D01*
X128948571Y-72562571D01*
X128977142Y-72619714D01*
X128977142Y-72705428D01*
X128948571Y-72762571D01*
X128920000Y-72791142D01*
X128862857Y-72819714D01*
X128634285Y-72819714D01*
X129234285Y-73105428D02*
X129234285Y-72505428D01*
X129634285Y-72505428D02*
X129748571Y-72505428D01*
X129805714Y-72534000D01*
X129862857Y-72591142D01*
X129891428Y-72705428D01*
X129891428Y-72905428D01*
X129862857Y-73019714D01*
X129805714Y-73076857D01*
X129748571Y-73105428D01*
X129634285Y-73105428D01*
X129577142Y-73076857D01*
X129520000Y-73019714D01*
X129491428Y-72905428D01*
X129491428Y-72705428D01*
X129520000Y-72591142D01*
X129577142Y-72534000D01*
X129634285Y-72505428D01*
X130462857Y-73105428D02*
X130120000Y-73105428D01*
X130291428Y-73105428D02*
X130291428Y-72505428D01*
X130234285Y-72591142D01*
X130177142Y-72648285D01*
X130120000Y-72676857D01*
X130805714Y-72762571D02*
X130748571Y-72734000D01*
X130720000Y-72705428D01*
X130691428Y-72648285D01*
X130691428Y-72619714D01*
X130720000Y-72562571D01*
X130748571Y-72534000D01*
X130805714Y-72505428D01*
X130920000Y-72505428D01*
X130977142Y-72534000D01*
X131005714Y-72562571D01*
X131034285Y-72619714D01*
X131034285Y-72648285D01*
X131005714Y-72705428D01*
X130977142Y-72734000D01*
X130920000Y-72762571D01*
X130805714Y-72762571D01*
X130748571Y-72791142D01*
X130720000Y-72819714D01*
X130691428Y-72876857D01*
X130691428Y-72991142D01*
X130720000Y-73048285D01*
X130748571Y-73076857D01*
X130805714Y-73105428D01*
X130920000Y-73105428D01*
X130977142Y-73076857D01*
X131005714Y-73048285D01*
X131034285Y-72991142D01*
X131034285Y-72876857D01*
X131005714Y-72819714D01*
X130977142Y-72791142D01*
X130920000Y-72762571D01*
D10*
X104728000Y-71369333D02*
X104828000Y-71402666D01*
X104994666Y-71402666D01*
X105061333Y-71369333D01*
X105094666Y-71336000D01*
X105128000Y-71269333D01*
X105128000Y-71202666D01*
X105094666Y-71136000D01*
X105061333Y-71102666D01*
X104994666Y-71069333D01*
X104861333Y-71036000D01*
X104794666Y-71002666D01*
X104761333Y-70969333D01*
X104728000Y-70902666D01*
X104728000Y-70836000D01*
X104761333Y-70769333D01*
X104794666Y-70736000D01*
X104861333Y-70702666D01*
X105028000Y-70702666D01*
X105128000Y-70736000D01*
X105428000Y-71402666D02*
X105428000Y-70702666D01*
X105594666Y-70702666D01*
X105694666Y-70736000D01*
X105761333Y-70802666D01*
X105794666Y-70869333D01*
X105828000Y-71002666D01*
X105828000Y-71102666D01*
X105794666Y-71236000D01*
X105761333Y-71302666D01*
X105694666Y-71369333D01*
X105594666Y-71402666D01*
X105428000Y-71402666D01*
X106094666Y-71202666D02*
X106428000Y-71202666D01*
X106028000Y-71402666D02*
X106261333Y-70702666D01*
X106494666Y-71402666D01*
X107284666Y-71369333D02*
X107384666Y-71402666D01*
X107551333Y-71402666D01*
X107618000Y-71369333D01*
X107651333Y-71336000D01*
X107684666Y-71269333D01*
X107684666Y-71202666D01*
X107651333Y-71136000D01*
X107618000Y-71102666D01*
X107551333Y-71069333D01*
X107418000Y-71036000D01*
X107351333Y-71002666D01*
X107318000Y-70969333D01*
X107284666Y-70902666D01*
X107284666Y-70836000D01*
X107318000Y-70769333D01*
X107351333Y-70736000D01*
X107418000Y-70702666D01*
X107584666Y-70702666D01*
X107684666Y-70736000D01*
X108384666Y-71336000D02*
X108351333Y-71369333D01*
X108251333Y-71402666D01*
X108184666Y-71402666D01*
X108084666Y-71369333D01*
X108018000Y-71302666D01*
X107984666Y-71236000D01*
X107951333Y-71102666D01*
X107951333Y-71002666D01*
X107984666Y-70869333D01*
X108018000Y-70802666D01*
X108084666Y-70736000D01*
X108184666Y-70702666D01*
X108251333Y-70702666D01*
X108351333Y-70736000D01*
X108384666Y-70769333D01*
X109018000Y-71402666D02*
X108684666Y-71402666D01*
X108684666Y-70702666D01*
X112264666Y-71126000D02*
X112798000Y-71126000D01*
X112531333Y-71392666D02*
X112531333Y-70859333D01*
X113064666Y-70692666D02*
X113498000Y-70692666D01*
X113264666Y-70959333D01*
X113364666Y-70959333D01*
X113431333Y-70992666D01*
X113464666Y-71026000D01*
X113498000Y-71092666D01*
X113498000Y-71259333D01*
X113464666Y-71326000D01*
X113431333Y-71359333D01*
X113364666Y-71392666D01*
X113164666Y-71392666D01*
X113098000Y-71359333D01*
X113064666Y-71326000D01*
X113698000Y-70692666D02*
X113931333Y-71392666D01*
X114164666Y-70692666D01*
X114331333Y-70692666D02*
X114764666Y-70692666D01*
X114531333Y-70959333D01*
X114631333Y-70959333D01*
X114698000Y-70992666D01*
X114731333Y-71026000D01*
X114764666Y-71092666D01*
X114764666Y-71259333D01*
X114731333Y-71326000D01*
X114698000Y-71359333D01*
X114631333Y-71392666D01*
X114431333Y-71392666D01*
X114364666Y-71359333D01*
X114331333Y-71326000D01*
X110084666Y-70716000D02*
X110018000Y-70682666D01*
X109918000Y-70682666D01*
X109818000Y-70716000D01*
X109751333Y-70782666D01*
X109718000Y-70849333D01*
X109684666Y-70982666D01*
X109684666Y-71082666D01*
X109718000Y-71216000D01*
X109751333Y-71282666D01*
X109818000Y-71349333D01*
X109918000Y-71382666D01*
X109984666Y-71382666D01*
X110084666Y-71349333D01*
X110118000Y-71316000D01*
X110118000Y-71082666D01*
X109984666Y-71082666D01*
X110418000Y-71382666D02*
X110418000Y-70682666D01*
X110818000Y-71382666D01*
X110818000Y-70682666D01*
X111151333Y-71382666D02*
X111151333Y-70682666D01*
X111318000Y-70682666D01*
X111418000Y-70716000D01*
X111484666Y-70782666D01*
X111518000Y-70849333D01*
X111551333Y-70982666D01*
X111551333Y-71082666D01*
X111518000Y-71216000D01*
X111484666Y-71282666D01*
X111418000Y-71349333D01*
X111318000Y-71382666D01*
X111151333Y-71382666D01*
D12*
X105620000Y-84476500D02*
X105620000Y-82376500D01*
X106120000Y-82376500D01*
X106420000Y-82476500D01*
X106620000Y-82676500D01*
X106720000Y-82876500D01*
X106820000Y-83276500D01*
X106820000Y-83576500D01*
X106720000Y-83976500D01*
X106620000Y-84176500D01*
X106420000Y-84376500D01*
X106120000Y-84476500D01*
X105620000Y-84476500D01*
X107720000Y-84476500D02*
X107720000Y-83076500D01*
X107720000Y-82376500D02*
X107620000Y-82476500D01*
X107720000Y-82576500D01*
X107820000Y-82476500D01*
X107720000Y-82376500D01*
X107720000Y-82576500D01*
X108720000Y-83076500D02*
X108720000Y-84476500D01*
X108720000Y-83276500D02*
X108820000Y-83176500D01*
X109020000Y-83076500D01*
X109320000Y-83076500D01*
X109520000Y-83176500D01*
X109620000Y-83376500D01*
X109620000Y-84476500D01*
X111520000Y-83076500D02*
X111520000Y-84776500D01*
X111420000Y-84976500D01*
X111320000Y-85076500D01*
X111120000Y-85176500D01*
X110820000Y-85176500D01*
X110620000Y-85076500D01*
X111520000Y-84376500D02*
X111320000Y-84476500D01*
X110920000Y-84476500D01*
X110720000Y-84376500D01*
X110620000Y-84276500D01*
X110520000Y-84076500D01*
X110520000Y-83476500D01*
X110620000Y-83276500D01*
X110720000Y-83176500D01*
X110920000Y-83076500D01*
X111320000Y-83076500D01*
X111520000Y-83176500D01*
X112820000Y-84476500D02*
X112620000Y-84376500D01*
X112520000Y-84276500D01*
X112420000Y-84076500D01*
X112420000Y-83476500D01*
X112520000Y-83276500D01*
X112620000Y-83176500D01*
X112820000Y-83076500D01*
X113120000Y-83076500D01*
X113320000Y-83176500D01*
X113420000Y-83276500D01*
X113520000Y-83476500D01*
X113520000Y-84076500D01*
X113420000Y-84276500D01*
X113320000Y-84376500D01*
X113120000Y-84476500D01*
X112820000Y-84476500D01*
X114420000Y-83676500D02*
X116020000Y-83676500D01*
X117020000Y-84476500D02*
X117020000Y-82376500D01*
X117020000Y-83376500D02*
X118220000Y-83376500D01*
X118220000Y-84476500D02*
X118220000Y-82376500D01*
X120120000Y-84476500D02*
X120120000Y-83376500D01*
X120020000Y-83176500D01*
X119820000Y-83076500D01*
X119420000Y-83076500D01*
X119220000Y-83176500D01*
X120120000Y-84376500D02*
X119920000Y-84476500D01*
X119420000Y-84476500D01*
X119220000Y-84376500D01*
X119120000Y-84176500D01*
X119120000Y-83976500D01*
X119220000Y-83776500D01*
X119420000Y-83676500D01*
X119920000Y-83676500D01*
X120120000Y-83576500D01*
X120820000Y-83076500D02*
X121620000Y-83076500D01*
X121120000Y-82376500D02*
X121120000Y-84176500D01*
X121220000Y-84376500D01*
X121420000Y-84476500D01*
X121620000Y-84476500D01*
X110270000Y-86051500D02*
X110970000Y-88151500D01*
X111670000Y-86051500D01*
X113470000Y-88151500D02*
X112270000Y-88151500D01*
X112870000Y-88151500D02*
X112870000Y-86051500D01*
X112670000Y-86351500D01*
X112470000Y-86551500D01*
X112270000Y-86651500D01*
X114370000Y-87951500D02*
X114470000Y-88051500D01*
X114370000Y-88151500D01*
X114270000Y-88051500D01*
X114370000Y-87951500D01*
X114370000Y-88151500D01*
X115770000Y-86051500D02*
X115970000Y-86051500D01*
X116170000Y-86151500D01*
X116270000Y-86251500D01*
X116370000Y-86451500D01*
X116470000Y-86851500D01*
X116470000Y-87351500D01*
X116370000Y-87751500D01*
X116270000Y-87951500D01*
X116170000Y-88051500D01*
X115970000Y-88151500D01*
X115770000Y-88151500D01*
X115570000Y-88051500D01*
X115470000Y-87951500D01*
X115370000Y-87751500D01*
X115270000Y-87351500D01*
X115270000Y-86851500D01*
X115370000Y-86451500D01*
X115470000Y-86251500D01*
X115570000Y-86151500D01*
X115770000Y-86051500D01*
D13*
X124530000Y-113300000D02*
G75*
G02X122530000Y-113300000I-1000000J0D01*
G01*
X79530000Y-80800000D02*
G75*
G02X78530000Y-79800000I0J1000000D01*
G01*
X122530000Y-98300000D02*
X122530000Y-113300000D01*
X122530000Y-98300000D02*
G75*
G02X124530000Y-98300000I1000000J0D01*
G01*
X82530000Y-80800000D02*
G75*
G02X83530000Y-81800000I125000J-875000D01*
G01*
X124530000Y-98300000D02*
X124530000Y-113300000D01*
X83530000Y-96800000D02*
X83530000Y-81800000D01*
X79530000Y-80800000D02*
X82530000Y-80800000D01*
X79530000Y-97800000D02*
X82530000Y-97800000D01*
X78530000Y-63800000D02*
G75*
G02X81530000Y-60800000I3000000J0D01*
G01*
X140530000Y-60800000D02*
X81530000Y-60800000D01*
X78530000Y-98800000D02*
X78530000Y-114300000D01*
X78530000Y-98800000D02*
G75*
G02X79530000Y-97800000I1000000J0D01*
G01*
X140530000Y-60800000D02*
G75*
G02X143530000Y-63800000I0J-3000000D01*
G01*
X81530000Y-117300000D02*
X140530000Y-117300000D01*
X78530000Y-63800000D02*
X78530000Y-79800000D01*
X81530000Y-117300000D02*
G75*
G02X78530000Y-114300000I0J3000000D01*
G01*
X83530000Y-96800000D02*
G75*
G02X82530000Y-97800000I-875000J-125000D01*
G01*
X143530000Y-114300000D02*
X143530000Y-63800000D01*
X143530000Y-114300000D02*
G75*
G02X140530000Y-117300000I-3000000J0D01*
G01*
D11*
X86464000Y-108950000D02*
X86464000Y-116760000D01*
X96624000Y-108950000D02*
X86464000Y-108950000D01*
X96624000Y-116760000D02*
X96624000Y-108950000D01*
D14*
X95772000Y-70250000D02*
X95772000Y-71250000D01*
X94412000Y-71250000D02*
X94412000Y-70250000D01*
X94248000Y-70250000D02*
X94248000Y-71250000D01*
X92888000Y-71250000D02*
X92888000Y-70250000D01*
X120520000Y-70250000D02*
X120520000Y-71250000D01*
X119160000Y-71250000D02*
X119160000Y-70250000D01*
X122020000Y-70244000D02*
X122020000Y-71244000D01*
X120660000Y-71244000D02*
X120660000Y-70244000D01*
X125020000Y-70244000D02*
X125020000Y-71244000D01*
X123660000Y-71244000D02*
X123660000Y-70244000D01*
X123520000Y-70244000D02*
X123520000Y-71244000D01*
X122160000Y-71244000D02*
X122160000Y-70244000D01*
D11*
X81383000Y-76425000D02*
X81608000Y-76425000D01*
X81383000Y-71775000D02*
X81708000Y-71775000D01*
X91333000Y-71775000D02*
X91008000Y-71775000D01*
X91333000Y-76425000D02*
X91008000Y-76425000D01*
X81383000Y-76425000D02*
X81383000Y-71775000D01*
X91333000Y-76425000D02*
X91333000Y-71775000D01*
X81608000Y-76425000D02*
X81608000Y-77500000D01*
X111870000Y-108950000D02*
X111870000Y-116760000D01*
X122030000Y-108950000D02*
X111870000Y-108950000D01*
X122030000Y-116760000D02*
X122030000Y-108950000D01*
X99167000Y-108950000D02*
X99167000Y-116760000D01*
X109327000Y-108950000D02*
X99167000Y-108950000D01*
X109327000Y-116760000D02*
X109327000Y-108950000D01*
X119287421Y-103534000D02*
G75*
G03X119287421Y-103534000I-141421J0D01*
G01*
D14*
X119246000Y-101034000D02*
X119246000Y-103134000D01*
X115446000Y-101034000D02*
X119246000Y-101034000D01*
X115446000Y-103534000D02*
X115446000Y-101034000D01*
X118746000Y-103534000D02*
X115446000Y-103534000D01*
X118811000Y-106044000D02*
X118811000Y-105241530D01*
X118811000Y-104626470D02*
X118811000Y-103824000D01*
X117606000Y-106044000D02*
X118811000Y-106044000D01*
X117606000Y-103824000D02*
X118811000Y-103824000D01*
X117606000Y-106044000D02*
X117606000Y-105497471D01*
X117606000Y-104370529D02*
X117606000Y-103824000D01*
X116846000Y-106044000D02*
X116086000Y-106044000D01*
X116086000Y-106044000D02*
X116086000Y-104934000D01*
X84858000Y-80080000D02*
X83858000Y-80080000D01*
X83858000Y-78720000D02*
X84858000Y-78720000D01*
X95905000Y-98050000D02*
X95105000Y-97250000D01*
X95105000Y-97250000D02*
X95105000Y-89010000D01*
X95105000Y-89010000D02*
X100815000Y-89010000D01*
X100815000Y-89010000D02*
X100815000Y-98050000D01*
X100815000Y-98050000D02*
X95905000Y-98050000D01*
D15*
X127067261Y-101348001D02*
X126848001Y-101348001D01*
X130032739Y-104751999D02*
X130251999Y-104751999D01*
X126848001Y-104751999D02*
X127067261Y-104751999D01*
X126848001Y-101348001D02*
X126848001Y-104751999D01*
X130251999Y-101348001D02*
X130032739Y-101348001D01*
X130251999Y-104751999D02*
X130251999Y-101348001D01*
X125988100Y-93300000D02*
G75*
G03X125988100Y-93300000I-76200J0D01*
G01*
X129692500Y-92865659D02*
X129692500Y-92674400D01*
X126441300Y-95734341D02*
X126441300Y-95925600D01*
X126441300Y-92674400D02*
X126441300Y-92865659D01*
X129692500Y-92674400D02*
X126441300Y-92674400D01*
X129692500Y-95925600D02*
X129692500Y-95734341D01*
X126441300Y-95925600D02*
X129692500Y-95925600D01*
D14*
X127240000Y-87054000D02*
X129040000Y-87054000D01*
X129040000Y-83834000D02*
X126590000Y-83834000D01*
X92750000Y-88854000D02*
X91750000Y-88854000D01*
X91750000Y-87494000D02*
X92750000Y-87494000D01*
X91740000Y-89034000D02*
X92740000Y-89034000D01*
X92740000Y-90394000D02*
X91740000Y-90394000D01*
X95020000Y-84864000D02*
X96020000Y-84864000D01*
X96020000Y-86224000D02*
X95020000Y-86224000D01*
X102868000Y-86839000D02*
X102868000Y-87839000D01*
X101508000Y-87839000D02*
X101508000Y-86839000D01*
X126530000Y-107650000D02*
X126530000Y-108650000D01*
X125170000Y-108650000D02*
X125170000Y-107650000D01*
X127650000Y-108270000D02*
X128650000Y-108270000D01*
X128650000Y-109630000D02*
X127650000Y-109630000D01*
X131790000Y-107930000D02*
X130790000Y-107930000D01*
X130790000Y-106570000D02*
X131790000Y-106570000D01*
X131790000Y-109674000D02*
X130790000Y-109674000D01*
X130790000Y-108314000D02*
X131790000Y-108314000D01*
X132250000Y-90654000D02*
X133250000Y-90654000D01*
X133250000Y-92014000D02*
X132250000Y-92014000D01*
X113360000Y-102744000D02*
X113360000Y-101744000D01*
X114720000Y-101744000D02*
X114720000Y-102744000D01*
X132300000Y-93014000D02*
X133300000Y-93014000D01*
X133300000Y-94374000D02*
X132300000Y-94374000D01*
X118020000Y-98554000D02*
X117020000Y-98554000D01*
X117020000Y-97194000D02*
X118020000Y-97194000D01*
X127340000Y-87664000D02*
X128340000Y-87664000D01*
X128340000Y-89024000D02*
X127340000Y-89024000D01*
X125740000Y-89024000D02*
X124740000Y-89024000D01*
X124740000Y-87664000D02*
X125740000Y-87664000D01*
X89242000Y-69914000D02*
X88242000Y-69914000D01*
X88242000Y-68554000D02*
X89242000Y-68554000D01*
X137090000Y-83180000D02*
X136090000Y-83180000D01*
X136090000Y-81820000D02*
X137090000Y-81820000D01*
X136090000Y-78570000D02*
X137090000Y-78570000D01*
X137090000Y-79930000D02*
X136090000Y-79930000D01*
X136090000Y-68564000D02*
X137090000Y-68564000D01*
X137090000Y-69924000D02*
X136090000Y-69924000D01*
X137090000Y-72574000D02*
X136090000Y-72574000D01*
X136090000Y-71214000D02*
X137090000Y-71214000D01*
X117660000Y-71244000D02*
X117660000Y-70244000D01*
X119020000Y-70244000D02*
X119020000Y-71244000D01*
X136776000Y-93784000D02*
X137776000Y-93784000D01*
X137776000Y-95144000D02*
X136776000Y-95144000D01*
D11*
X102510000Y-89780000D02*
X102510000Y-97280000D01*
X102510000Y-97280000D02*
X111010000Y-97280000D01*
X111010000Y-97280000D02*
X111010000Y-89780000D01*
X111010000Y-89780000D02*
X102510000Y-89780000D01*
D14*
X123210000Y-77014000D02*
X123210000Y-79674000D01*
X130890000Y-77014000D02*
X123210000Y-77014000D01*
X130890000Y-79674000D02*
X123210000Y-79674000D01*
X130890000Y-77014000D02*
X130890000Y-79674000D01*
X132160000Y-77014000D02*
X133490000Y-77014000D01*
X133490000Y-77014000D02*
X133490000Y-78344000D01*
D16*
X136340000Y-102994000D02*
X135340000Y-102994000D01*
X135340000Y-102994000D02*
X135340000Y-99494000D01*
X135340000Y-99494000D02*
X136340000Y-99494000D01*
X136340000Y-99494000D02*
X136340000Y-102994000D01*
X142340000Y-102744000D02*
X141340000Y-102744000D01*
X141340000Y-102744000D02*
X141340000Y-99744000D01*
X141340000Y-99744000D02*
X142340000Y-99744000D01*
X142340000Y-99744000D02*
X142340000Y-102744000D01*
D17*
X149540000Y-96744000D02*
X149540000Y-105744000D01*
X149540000Y-105744000D02*
X135040000Y-105744000D01*
X135040000Y-105744000D02*
X135040000Y-103894000D01*
X135040000Y-96744000D02*
X149540000Y-96744000D01*
X135040000Y-98694000D02*
X135040000Y-96744000D01*
D18*
X134040000Y-101244000D02*
G75*
G03X134040000Y-101244000I-200000J0D01*
G01*
D14*
X130850000Y-123100000D02*
X125750000Y-123100000D01*
X125750000Y-123100000D02*
X125750000Y-111300000D01*
X125750000Y-111300000D02*
X126950000Y-111300000D01*
X126950000Y-111300000D02*
X126950000Y-115800000D01*
X126950000Y-115800000D02*
X130850000Y-115800000D01*
X130850000Y-123100000D02*
X135950000Y-123100000D01*
X135950000Y-123100000D02*
X135950000Y-111300000D01*
X135950000Y-111300000D02*
X134750000Y-111300000D01*
X134750000Y-111300000D02*
X134750000Y-115800000D01*
X134750000Y-115800000D02*
X130850000Y-115800000D01*
X128350000Y-112250000D02*
X128050000Y-111650000D01*
X128050000Y-111650000D02*
X128650000Y-111650000D01*
X128650000Y-111650000D02*
X128350000Y-112250000D01*
X95590000Y-106964000D02*
X96590000Y-106964000D01*
X96590000Y-108324000D02*
X95590000Y-108324000D01*
X111270000Y-108494000D02*
X111270000Y-109494000D01*
X109910000Y-109494000D02*
X109910000Y-108494000D01*
X132370000Y-99750000D02*
X132370000Y-98750000D01*
X133730000Y-98750000D02*
X133730000Y-99750000D01*
X89490000Y-106474000D02*
X91490000Y-106474000D01*
X91490000Y-108614000D02*
X89490000Y-108614000D01*
X109520000Y-113494000D02*
X109520000Y-111494000D01*
X111660000Y-111494000D02*
X111660000Y-113494000D01*
X134100000Y-96514000D02*
X134100000Y-95514000D01*
X134100000Y-95514000D02*
X132000000Y-95514000D01*
X134100000Y-96514000D02*
X132000000Y-96514000D01*
X92690000Y-106044000D02*
X92690000Y-104044000D01*
X92690000Y-104044000D02*
X88840000Y-104044000D01*
X92690000Y-106044000D02*
X88840000Y-106044000D01*
X114890000Y-106444000D02*
X114890000Y-108444000D01*
X114890000Y-108444000D02*
X118740000Y-108444000D01*
X114890000Y-106444000D02*
X118740000Y-106444000D01*
X104095000Y-97460000D02*
X104095000Y-99640000D01*
X104095000Y-104060000D02*
X104095000Y-101880000D01*
X110695000Y-98220000D02*
X110695000Y-99640000D01*
X110695000Y-103300000D02*
X110695000Y-101880000D01*
X104095000Y-97460000D02*
X109935000Y-97460000D01*
X109935000Y-97460000D02*
X110695000Y-98220000D01*
X110695000Y-103300000D02*
X109935000Y-104060000D01*
X109935000Y-104060000D02*
X104095000Y-104060000D01*
X112590000Y-91764000D02*
X114590000Y-91764000D01*
X114590000Y-89724000D02*
X112590000Y-89724000D01*
X92790000Y-86144000D02*
X92090000Y-86144000D01*
X92090000Y-84944000D02*
X92790000Y-84944000D01*
X112740000Y-95644000D02*
X113440000Y-95644000D01*
X113440000Y-96844000D02*
X112740000Y-96844000D01*
X97990000Y-87344000D02*
X97990000Y-86644000D01*
X99190000Y-86644000D02*
X99190000Y-87344000D01*
X104312000Y-86989000D02*
X104312000Y-87689000D01*
X103112000Y-87689000D02*
X103112000Y-86989000D01*
X99044000Y-99185000D02*
X99744000Y-99185000D01*
X99744000Y-100385000D02*
X99044000Y-100385000D01*
X96442000Y-100385000D02*
X95742000Y-100385000D01*
X95742000Y-99185000D02*
X96442000Y-99185000D01*
X96330000Y-101051000D02*
X94330000Y-101051000D01*
X94330000Y-103091000D02*
X96330000Y-103091000D01*
X99156000Y-103091000D02*
X101156000Y-103091000D01*
X101156000Y-101051000D02*
X99156000Y-101051000D01*
X93206000Y-95944000D02*
X93206000Y-95244000D01*
X94406000Y-95244000D02*
X94406000Y-95944000D01*
X129300000Y-100250000D02*
X128600000Y-100250000D01*
X128600000Y-99050000D02*
X129300000Y-99050000D01*
X134800000Y-107850000D02*
X134100000Y-107850000D01*
X134100000Y-106650000D02*
X134800000Y-106650000D01*
X134750000Y-109550000D02*
X134050000Y-109550000D01*
X134050000Y-108350000D02*
X134750000Y-108350000D01*
X128600000Y-107850000D02*
X127900000Y-107850000D01*
X127900000Y-106650000D02*
X128600000Y-106650000D01*
X123490000Y-95594000D02*
X123490000Y-94894000D01*
X124690000Y-94894000D02*
X124690000Y-95594000D01*
X124140000Y-116844000D02*
X123440000Y-116844000D01*
X123440000Y-115644000D02*
X124140000Y-115644000D01*
X128330000Y-91944000D02*
X127630000Y-91944000D01*
X127630000Y-90744000D02*
X128330000Y-90744000D01*
X120340000Y-102544000D02*
X120340000Y-101844000D01*
X121540000Y-101844000D02*
X121540000Y-102544000D01*
X125140000Y-85394000D02*
X125140000Y-86094000D01*
X123940000Y-86094000D02*
X123940000Y-85394000D01*
X80870000Y-73888733D02*
X80870000Y-74231267D01*
X79850000Y-73888733D02*
X79850000Y-74231267D01*
X81801267Y-68234000D02*
X81458733Y-68234000D01*
X81801267Y-69254000D02*
X81458733Y-69254000D01*
X141766000Y-93749000D02*
X139306000Y-93749000D01*
X139306000Y-93749000D02*
X139306000Y-95219000D01*
X139306000Y-95219000D02*
X141766000Y-95219000D01*
X86635000Y-101080000D02*
X86635000Y-98420000D01*
X81495000Y-101080000D02*
X86635000Y-101080000D01*
X81495000Y-98420000D02*
X86635000Y-98420000D01*
X81495000Y-101080000D02*
X81495000Y-98420000D01*
X80225000Y-101080000D02*
X78895000Y-101080000D01*
X78895000Y-101080000D02*
X78895000Y-99750000D01*
X86635000Y-103620000D02*
X86635000Y-100960000D01*
X81495000Y-103620000D02*
X86635000Y-103620000D01*
X81495000Y-100960000D02*
X86635000Y-100960000D01*
X81495000Y-103620000D02*
X81495000Y-100960000D01*
X80225000Y-103620000D02*
X78895000Y-103620000D01*
X78895000Y-103620000D02*
X78895000Y-102290000D01*
X78905000Y-106160000D02*
X78905000Y-104830000D01*
X80235000Y-106160000D02*
X78905000Y-106160000D01*
X81505000Y-106160000D02*
X81505000Y-103500000D01*
X81505000Y-103500000D02*
X86645000Y-103500000D01*
X81505000Y-106160000D02*
X86645000Y-106160000D01*
X86645000Y-106160000D02*
X86645000Y-103500000D01*
X78905000Y-108700000D02*
X78905000Y-107370000D01*
X80235000Y-108700000D02*
X78905000Y-108700000D01*
X81505000Y-108700000D02*
X81505000Y-106040000D01*
X81505000Y-106040000D02*
X86645000Y-106040000D01*
X81505000Y-108700000D02*
X86645000Y-108700000D01*
X86645000Y-108700000D02*
X86645000Y-106040000D01*
X133490000Y-72054000D02*
X133490000Y-69394000D01*
X128350000Y-72054000D02*
X133490000Y-72054000D01*
X128350000Y-69394000D02*
X133490000Y-69394000D01*
X128350000Y-72054000D02*
X128350000Y-69394000D01*
X127080000Y-72054000D02*
X125750000Y-72054000D01*
X125750000Y-72054000D02*
X125750000Y-70724000D01*
X80658000Y-78400000D02*
X82058000Y-78400000D01*
X82758000Y-79100000D02*
X82758000Y-79700000D01*
X82058000Y-80400000D02*
X80658000Y-80400000D01*
X79958000Y-79700000D02*
X79958000Y-79100000D01*
X79958000Y-79100000D02*
G75*
G02X80658000Y-78400000I700000J0D01*
G01*
X80658000Y-80400000D02*
G75*
G02X79958000Y-79700000I0J700000D01*
G01*
X82758000Y-79700000D02*
G75*
G02X82058000Y-80400000I-700000J0D01*
G01*
X82058000Y-78400000D02*
G75*
G02X82758000Y-79100000I0J-700000D01*
G01*
X89520000Y-81244000D02*
X89520000Y-80244000D01*
X86160000Y-81244000D02*
X86160000Y-80244000D01*
X96628000Y-67756000D02*
X96628000Y-70416000D01*
X114468000Y-67756000D02*
X96628000Y-67756000D01*
X114468000Y-70416000D02*
X96628000Y-70416000D01*
X114468000Y-67756000D02*
X114468000Y-70416000D01*
X115738000Y-67756000D02*
X117068000Y-67756000D01*
X117068000Y-67756000D02*
X117068000Y-69086000D01*
X139490000Y-71994000D02*
X142150000Y-71994000D01*
X139490000Y-71994000D02*
X139490000Y-79674000D01*
X139490000Y-79674000D02*
X142150000Y-79674000D01*
X142150000Y-71994000D02*
X142150000Y-79674000D01*
X142150000Y-69394000D02*
X142150000Y-70724000D01*
X140820000Y-69394000D02*
X142150000Y-69394000D01*
X140840000Y-82094000D02*
X142170000Y-82094000D01*
X142170000Y-82094000D02*
X142170000Y-83424000D01*
X142170000Y-84694000D02*
X142170000Y-92374000D01*
X139510000Y-92374000D02*
X142170000Y-92374000D01*
X139510000Y-84694000D02*
X139510000Y-92374000D01*
X139510000Y-84694000D02*
X142170000Y-84694000D01*
D19*
X127525000Y-112925000D02*
X127525000Y-114575000D01*
X129175000Y-114575000D01*
X129175000Y-112925000D01*
X127525000Y-112925000D01*
X131675000Y-113750000D02*
G75*
G03X131675000Y-113750000I-825000J0D01*
G01*
X134175000Y-113750000D02*
G75*
G03X134175000Y-113750000I-825000J0D01*
G01*
D11*
X85680000Y-116294000D02*
X85713333Y-116194000D01*
X85746666Y-116160666D01*
X85813333Y-116127333D01*
X85913333Y-116127333D01*
X85980000Y-116160666D01*
X86013333Y-116194000D01*
X86046666Y-116260666D01*
X86046666Y-116527333D01*
X85346666Y-116527333D01*
X85346666Y-116294000D01*
X85380000Y-116227333D01*
X85413333Y-116194000D01*
X85480000Y-116160666D01*
X85546666Y-116160666D01*
X85613333Y-116194000D01*
X85646666Y-116227333D01*
X85680000Y-116294000D01*
X85680000Y-116527333D01*
X85580000Y-115894000D02*
X86046666Y-115727333D01*
X85580000Y-115560666D02*
X86046666Y-115727333D01*
X86213333Y-115794000D01*
X86246666Y-115827333D01*
X86280000Y-115894000D01*
X85580000Y-115294000D02*
X86280000Y-115294000D01*
X85613333Y-115294000D02*
X85580000Y-115227333D01*
X85580000Y-115094000D01*
X85613333Y-115027333D01*
X85646666Y-114994000D01*
X85713333Y-114960666D01*
X85913333Y-114960666D01*
X85980000Y-114994000D01*
X86013333Y-115027333D01*
X86046666Y-115094000D01*
X86046666Y-115227333D01*
X86013333Y-115294000D01*
X86046666Y-114360666D02*
X85680000Y-114360666D01*
X85613333Y-114394000D01*
X85580000Y-114460666D01*
X85580000Y-114594000D01*
X85613333Y-114660666D01*
X86013333Y-114360666D02*
X86046666Y-114427333D01*
X86046666Y-114594000D01*
X86013333Y-114660666D01*
X85946666Y-114694000D01*
X85880000Y-114694000D01*
X85813333Y-114660666D01*
X85780000Y-114594000D01*
X85780000Y-114427333D01*
X85746666Y-114360666D01*
X86013333Y-114060666D02*
X86046666Y-113994000D01*
X86046666Y-113860666D01*
X86013333Y-113794000D01*
X85946666Y-113760666D01*
X85913333Y-113760666D01*
X85846666Y-113794000D01*
X85813333Y-113860666D01*
X85813333Y-113960666D01*
X85780000Y-114027333D01*
X85713333Y-114060666D01*
X85680000Y-114060666D01*
X85613333Y-114027333D01*
X85580000Y-113960666D01*
X85580000Y-113860666D01*
X85613333Y-113794000D01*
X86013333Y-113494000D02*
X86046666Y-113427333D01*
X86046666Y-113294000D01*
X86013333Y-113227333D01*
X85946666Y-113194000D01*
X85913333Y-113194000D01*
X85846666Y-113227333D01*
X85813333Y-113294000D01*
X85813333Y-113394000D01*
X85780000Y-113460666D01*
X85713333Y-113494000D01*
X85680000Y-113494000D01*
X85613333Y-113460666D01*
X85580000Y-113394000D01*
X85580000Y-113294000D01*
X85613333Y-113227333D01*
X85780000Y-112894000D02*
X85780000Y-112360666D01*
X86046666Y-112027333D02*
X85346666Y-112027333D01*
X85346666Y-111760666D01*
X85380000Y-111694000D01*
X85413333Y-111660666D01*
X85480000Y-111627333D01*
X85580000Y-111627333D01*
X85646666Y-111660666D01*
X85680000Y-111694000D01*
X85713333Y-111760666D01*
X85713333Y-112027333D01*
X86046666Y-111227333D02*
X86013333Y-111294000D01*
X85980000Y-111327333D01*
X85913333Y-111360666D01*
X85713333Y-111360666D01*
X85646666Y-111327333D01*
X85613333Y-111294000D01*
X85580000Y-111227333D01*
X85580000Y-111127333D01*
X85613333Y-111060666D01*
X85646666Y-111027333D01*
X85713333Y-110994000D01*
X85913333Y-110994000D01*
X85980000Y-111027333D01*
X86013333Y-111060666D01*
X86046666Y-111127333D01*
X86046666Y-111227333D01*
X85580000Y-110760666D02*
X86046666Y-110627333D01*
X85713333Y-110494000D01*
X86046666Y-110360666D01*
X85580000Y-110227333D01*
X86013333Y-109694000D02*
X86046666Y-109760666D01*
X86046666Y-109894000D01*
X86013333Y-109960666D01*
X85946666Y-109994000D01*
X85680000Y-109994000D01*
X85613333Y-109960666D01*
X85580000Y-109894000D01*
X85580000Y-109760666D01*
X85613333Y-109694000D01*
X85680000Y-109660666D01*
X85746666Y-109660666D01*
X85813333Y-109994000D01*
X86046666Y-109360666D02*
X85580000Y-109360666D01*
X85713333Y-109360666D02*
X85646666Y-109327333D01*
X85613333Y-109294000D01*
X85580000Y-109227333D01*
X85580000Y-109160666D01*
X95406666Y-68944000D02*
X95073333Y-69177333D01*
X95406666Y-69344000D02*
X94706666Y-69344000D01*
X94706666Y-69077333D01*
X94740000Y-69010666D01*
X94773333Y-68977333D01*
X94840000Y-68944000D01*
X94940000Y-68944000D01*
X95006666Y-68977333D01*
X95040000Y-69010666D01*
X95073333Y-69077333D01*
X95073333Y-69344000D01*
X95406666Y-68277333D02*
X95406666Y-68677333D01*
X95406666Y-68477333D02*
X94706666Y-68477333D01*
X94806666Y-68544000D01*
X94873333Y-68610666D01*
X94906666Y-68677333D01*
X95406666Y-67610666D02*
X95406666Y-68010666D01*
X95406666Y-67810666D02*
X94706666Y-67810666D01*
X94806666Y-67877333D01*
X94873333Y-67944000D01*
X94906666Y-68010666D01*
X93896666Y-68954000D02*
X93563333Y-69187333D01*
X93896666Y-69354000D02*
X93196666Y-69354000D01*
X93196666Y-69087333D01*
X93230000Y-69020666D01*
X93263333Y-68987333D01*
X93330000Y-68954000D01*
X93430000Y-68954000D01*
X93496666Y-68987333D01*
X93530000Y-69020666D01*
X93563333Y-69087333D01*
X93563333Y-69354000D01*
X93896666Y-68287333D02*
X93896666Y-68687333D01*
X93896666Y-68487333D02*
X93196666Y-68487333D01*
X93296666Y-68554000D01*
X93363333Y-68620666D01*
X93396666Y-68687333D01*
X93196666Y-67854000D02*
X93196666Y-67787333D01*
X93230000Y-67720666D01*
X93263333Y-67687333D01*
X93330000Y-67654000D01*
X93463333Y-67620666D01*
X93630000Y-67620666D01*
X93763333Y-67654000D01*
X93830000Y-67687333D01*
X93863333Y-67720666D01*
X93896666Y-67787333D01*
X93896666Y-67854000D01*
X93863333Y-67920666D01*
X93830000Y-67954000D01*
X93763333Y-67987333D01*
X93630000Y-68020666D01*
X93463333Y-68020666D01*
X93330000Y-67987333D01*
X93263333Y-67954000D01*
X93230000Y-67920666D01*
X93196666Y-67854000D01*
X120146666Y-68920666D02*
X119813333Y-69154000D01*
X120146666Y-69320666D02*
X119446666Y-69320666D01*
X119446666Y-69054000D01*
X119480000Y-68987333D01*
X119513333Y-68954000D01*
X119580000Y-68920666D01*
X119680000Y-68920666D01*
X119746666Y-68954000D01*
X119780000Y-68987333D01*
X119813333Y-69054000D01*
X119813333Y-69320666D01*
X120146666Y-68587333D02*
X120146666Y-68454000D01*
X120113333Y-68387333D01*
X120080000Y-68354000D01*
X119980000Y-68287333D01*
X119846666Y-68254000D01*
X119580000Y-68254000D01*
X119513333Y-68287333D01*
X119480000Y-68320666D01*
X119446666Y-68387333D01*
X119446666Y-68520666D01*
X119480000Y-68587333D01*
X119513333Y-68620666D01*
X119580000Y-68654000D01*
X119746666Y-68654000D01*
X119813333Y-68620666D01*
X119846666Y-68587333D01*
X119880000Y-68520666D01*
X119880000Y-68387333D01*
X119846666Y-68320666D01*
X119813333Y-68287333D01*
X119746666Y-68254000D01*
X121666666Y-68910666D02*
X121333333Y-69144000D01*
X121666666Y-69310666D02*
X120966666Y-69310666D01*
X120966666Y-69044000D01*
X121000000Y-68977333D01*
X121033333Y-68944000D01*
X121100000Y-68910666D01*
X121200000Y-68910666D01*
X121266666Y-68944000D01*
X121300000Y-68977333D01*
X121333333Y-69044000D01*
X121333333Y-69310666D01*
X121266666Y-68510666D02*
X121233333Y-68577333D01*
X121200000Y-68610666D01*
X121133333Y-68644000D01*
X121100000Y-68644000D01*
X121033333Y-68610666D01*
X121000000Y-68577333D01*
X120966666Y-68510666D01*
X120966666Y-68377333D01*
X121000000Y-68310666D01*
X121033333Y-68277333D01*
X121100000Y-68244000D01*
X121133333Y-68244000D01*
X121200000Y-68277333D01*
X121233333Y-68310666D01*
X121266666Y-68377333D01*
X121266666Y-68510666D01*
X121300000Y-68577333D01*
X121333333Y-68610666D01*
X121400000Y-68644000D01*
X121533333Y-68644000D01*
X121600000Y-68610666D01*
X121633333Y-68577333D01*
X121666666Y-68510666D01*
X121666666Y-68377333D01*
X121633333Y-68310666D01*
X121600000Y-68277333D01*
X121533333Y-68244000D01*
X121400000Y-68244000D01*
X121333333Y-68277333D01*
X121300000Y-68310666D01*
X121266666Y-68377333D01*
X124580000Y-68920666D02*
X124613333Y-68954000D01*
X124646666Y-69054000D01*
X124646666Y-69120666D01*
X124613333Y-69220666D01*
X124546666Y-69287333D01*
X124480000Y-69320666D01*
X124346666Y-69354000D01*
X124246666Y-69354000D01*
X124113333Y-69320666D01*
X124046666Y-69287333D01*
X123980000Y-69220666D01*
X123946666Y-69120666D01*
X123946666Y-69054000D01*
X123980000Y-68954000D01*
X124013333Y-68920666D01*
X123946666Y-68687333D02*
X123946666Y-68254000D01*
X124213333Y-68487333D01*
X124213333Y-68387333D01*
X124246666Y-68320666D01*
X124280000Y-68287333D01*
X124346666Y-68254000D01*
X124513333Y-68254000D01*
X124580000Y-68287333D01*
X124613333Y-68320666D01*
X124646666Y-68387333D01*
X124646666Y-68587333D01*
X124613333Y-68654000D01*
X124580000Y-68687333D01*
X123080000Y-68920666D02*
X123113333Y-68954000D01*
X123146666Y-69054000D01*
X123146666Y-69120666D01*
X123113333Y-69220666D01*
X123046666Y-69287333D01*
X122980000Y-69320666D01*
X122846666Y-69354000D01*
X122746666Y-69354000D01*
X122613333Y-69320666D01*
X122546666Y-69287333D01*
X122480000Y-69220666D01*
X122446666Y-69120666D01*
X122446666Y-69054000D01*
X122480000Y-68954000D01*
X122513333Y-68920666D01*
X123146666Y-68587333D02*
X123146666Y-68454000D01*
X123113333Y-68387333D01*
X123080000Y-68354000D01*
X122980000Y-68287333D01*
X122846666Y-68254000D01*
X122580000Y-68254000D01*
X122513333Y-68287333D01*
X122480000Y-68320666D01*
X122446666Y-68387333D01*
X122446666Y-68520666D01*
X122480000Y-68587333D01*
X122513333Y-68620666D01*
X122580000Y-68654000D01*
X122746666Y-68654000D01*
X122813333Y-68620666D01*
X122846666Y-68587333D01*
X122880000Y-68520666D01*
X122880000Y-68387333D01*
X122846666Y-68320666D01*
X122813333Y-68287333D01*
X122746666Y-68254000D01*
X82268476Y-72651904D02*
X82268476Y-73299523D01*
X82306571Y-73375714D01*
X82344666Y-73413809D01*
X82420857Y-73451904D01*
X82573238Y-73451904D01*
X82649428Y-73413809D01*
X82687523Y-73375714D01*
X82725619Y-73299523D01*
X82725619Y-72651904D01*
X83068476Y-72728095D02*
X83106571Y-72690000D01*
X83182761Y-72651904D01*
X83373238Y-72651904D01*
X83449428Y-72690000D01*
X83487523Y-72728095D01*
X83525619Y-72804285D01*
X83525619Y-72880476D01*
X83487523Y-72994761D01*
X83030380Y-73451904D01*
X83525619Y-73451904D01*
X84765000Y-74303285D02*
X84765000Y-73553285D01*
X85050714Y-73553285D01*
X85122142Y-73589000D01*
X85157857Y-73624714D01*
X85193571Y-73696142D01*
X85193571Y-73803285D01*
X85157857Y-73874714D01*
X85122142Y-73910428D01*
X85050714Y-73946142D01*
X84765000Y-73946142D01*
X85943571Y-74231857D02*
X85907857Y-74267571D01*
X85800714Y-74303285D01*
X85729285Y-74303285D01*
X85622142Y-74267571D01*
X85550714Y-74196142D01*
X85515000Y-74124714D01*
X85479285Y-73981857D01*
X85479285Y-73874714D01*
X85515000Y-73731857D01*
X85550714Y-73660428D01*
X85622142Y-73589000D01*
X85729285Y-73553285D01*
X85800714Y-73553285D01*
X85907857Y-73589000D01*
X85943571Y-73624714D01*
X86229285Y-74089000D02*
X86586428Y-74089000D01*
X86157857Y-74303285D02*
X86407857Y-73553285D01*
X86657857Y-74303285D01*
X86943571Y-74303285D02*
X87086428Y-74303285D01*
X87157857Y-74267571D01*
X87193571Y-74231857D01*
X87265000Y-74124714D01*
X87300714Y-73981857D01*
X87300714Y-73696142D01*
X87265000Y-73624714D01*
X87229285Y-73589000D01*
X87157857Y-73553285D01*
X87015000Y-73553285D01*
X86943571Y-73589000D01*
X86907857Y-73624714D01*
X86872142Y-73696142D01*
X86872142Y-73874714D01*
X86907857Y-73946142D01*
X86943571Y-73981857D01*
X87015000Y-74017571D01*
X87157857Y-74017571D01*
X87229285Y-73981857D01*
X87265000Y-73946142D01*
X87300714Y-73874714D01*
X87943571Y-73553285D02*
X87800714Y-73553285D01*
X87729285Y-73589000D01*
X87693571Y-73624714D01*
X87622142Y-73731857D01*
X87586428Y-73874714D01*
X87586428Y-74160428D01*
X87622142Y-74231857D01*
X87657857Y-74267571D01*
X87729285Y-74303285D01*
X87872142Y-74303285D01*
X87943571Y-74267571D01*
X87979285Y-74231857D01*
X88015000Y-74160428D01*
X88015000Y-73981857D01*
X87979285Y-73910428D01*
X87943571Y-73874714D01*
X87872142Y-73839000D01*
X87729285Y-73839000D01*
X87657857Y-73874714D01*
X87622142Y-73910428D01*
X87586428Y-73981857D01*
X88443571Y-73874714D02*
X88372142Y-73839000D01*
X88336428Y-73803285D01*
X88300714Y-73731857D01*
X88300714Y-73696142D01*
X88336428Y-73624714D01*
X88372142Y-73589000D01*
X88443571Y-73553285D01*
X88586428Y-73553285D01*
X88657857Y-73589000D01*
X88693571Y-73624714D01*
X88729285Y-73696142D01*
X88729285Y-73731857D01*
X88693571Y-73803285D01*
X88657857Y-73839000D01*
X88586428Y-73874714D01*
X88443571Y-73874714D01*
X88372142Y-73910428D01*
X88336428Y-73946142D01*
X88300714Y-74017571D01*
X88300714Y-74160428D01*
X88336428Y-74231857D01*
X88372142Y-74267571D01*
X88443571Y-74303285D01*
X88586428Y-74303285D01*
X88657857Y-74267571D01*
X88693571Y-74231857D01*
X88729285Y-74160428D01*
X88729285Y-74017571D01*
X88693571Y-73946142D01*
X88657857Y-73910428D01*
X88586428Y-73874714D01*
X89407857Y-73553285D02*
X89050714Y-73553285D01*
X89015000Y-73910428D01*
X89050714Y-73874714D01*
X89122142Y-73839000D01*
X89300714Y-73839000D01*
X89372142Y-73874714D01*
X89407857Y-73910428D01*
X89443571Y-73981857D01*
X89443571Y-74160428D01*
X89407857Y-74231857D01*
X89372142Y-74267571D01*
X89300714Y-74303285D01*
X89122142Y-74303285D01*
X89050714Y-74267571D01*
X89015000Y-74231857D01*
X89765000Y-74303285D02*
X89765000Y-73553285D01*
X90050714Y-73553285D01*
X90122142Y-73589000D01*
X90157857Y-73624714D01*
X90193571Y-73696142D01*
X90193571Y-73803285D01*
X90157857Y-73874714D01*
X90122142Y-73910428D01*
X90050714Y-73946142D01*
X89765000Y-73946142D01*
X90443571Y-73553285D02*
X90622142Y-74303285D01*
X90765000Y-73767571D01*
X90907857Y-74303285D01*
X91086428Y-73553285D01*
X98830000Y-115674000D02*
X98863333Y-115707333D01*
X98896666Y-115807333D01*
X98896666Y-115874000D01*
X98863333Y-115974000D01*
X98796666Y-116040666D01*
X98730000Y-116074000D01*
X98596666Y-116107333D01*
X98496666Y-116107333D01*
X98363333Y-116074000D01*
X98296666Y-116040666D01*
X98230000Y-115974000D01*
X98196666Y-115874000D01*
X98196666Y-115807333D01*
X98230000Y-115707333D01*
X98263333Y-115674000D01*
X98896666Y-115374000D02*
X98196666Y-115374000D01*
X98896666Y-115074000D02*
X98530000Y-115074000D01*
X98463333Y-115107333D01*
X98430000Y-115174000D01*
X98430000Y-115274000D01*
X98463333Y-115340666D01*
X98496666Y-115374000D01*
X98896666Y-114440666D02*
X98530000Y-114440666D01*
X98463333Y-114474000D01*
X98430000Y-114540666D01*
X98430000Y-114674000D01*
X98463333Y-114740666D01*
X98863333Y-114440666D02*
X98896666Y-114507333D01*
X98896666Y-114674000D01*
X98863333Y-114740666D01*
X98796666Y-114774000D01*
X98730000Y-114774000D01*
X98663333Y-114740666D01*
X98630000Y-114674000D01*
X98630000Y-114507333D01*
X98596666Y-114440666D01*
X98863333Y-114140666D02*
X98896666Y-114074000D01*
X98896666Y-113940666D01*
X98863333Y-113874000D01*
X98796666Y-113840666D01*
X98763333Y-113840666D01*
X98696666Y-113874000D01*
X98663333Y-113940666D01*
X98663333Y-114040666D01*
X98630000Y-114107333D01*
X98563333Y-114140666D01*
X98530000Y-114140666D01*
X98463333Y-114107333D01*
X98430000Y-114040666D01*
X98430000Y-113940666D01*
X98463333Y-113874000D01*
X98863333Y-113574000D02*
X98896666Y-113507333D01*
X98896666Y-113374000D01*
X98863333Y-113307333D01*
X98796666Y-113274000D01*
X98763333Y-113274000D01*
X98696666Y-113307333D01*
X98663333Y-113374000D01*
X98663333Y-113474000D01*
X98630000Y-113540666D01*
X98563333Y-113574000D01*
X98530000Y-113574000D01*
X98463333Y-113540666D01*
X98430000Y-113474000D01*
X98430000Y-113374000D01*
X98463333Y-113307333D01*
X98896666Y-112974000D02*
X98430000Y-112974000D01*
X98196666Y-112974000D02*
X98230000Y-113007333D01*
X98263333Y-112974000D01*
X98230000Y-112940666D01*
X98196666Y-112974000D01*
X98263333Y-112974000D01*
X98863333Y-112674000D02*
X98896666Y-112607333D01*
X98896666Y-112474000D01*
X98863333Y-112407333D01*
X98796666Y-112374000D01*
X98763333Y-112374000D01*
X98696666Y-112407333D01*
X98663333Y-112474000D01*
X98663333Y-112574000D01*
X98630000Y-112640666D01*
X98563333Y-112674000D01*
X98530000Y-112674000D01*
X98463333Y-112640666D01*
X98430000Y-112574000D01*
X98430000Y-112474000D01*
X98463333Y-112407333D01*
X98630000Y-112074000D02*
X98630000Y-111540666D01*
X98196666Y-111074000D02*
X98196666Y-110940666D01*
X98230000Y-110874000D01*
X98296666Y-110807333D01*
X98430000Y-110774000D01*
X98663333Y-110774000D01*
X98796666Y-110807333D01*
X98863333Y-110874000D01*
X98896666Y-110940666D01*
X98896666Y-111074000D01*
X98863333Y-111140666D01*
X98796666Y-111207333D01*
X98663333Y-111240666D01*
X98430000Y-111240666D01*
X98296666Y-111207333D01*
X98230000Y-111140666D01*
X98196666Y-111074000D01*
X98430000Y-110174000D02*
X98896666Y-110174000D01*
X98430000Y-110474000D02*
X98796666Y-110474000D01*
X98863333Y-110440666D01*
X98896666Y-110374000D01*
X98896666Y-110274000D01*
X98863333Y-110207333D01*
X98830000Y-110174000D01*
X98430000Y-109940666D02*
X98430000Y-109674000D01*
X98196666Y-109840666D02*
X98796666Y-109840666D01*
X98863333Y-109807333D01*
X98896666Y-109740666D01*
X98896666Y-109674000D01*
X116140000Y-99860666D02*
X116140000Y-100427333D01*
X116173333Y-100494000D01*
X116206666Y-100527333D01*
X116273333Y-100560666D01*
X116406666Y-100560666D01*
X116473333Y-100527333D01*
X116506666Y-100494000D01*
X116540000Y-100427333D01*
X116540000Y-99860666D01*
X116840000Y-99927333D02*
X116873333Y-99894000D01*
X116940000Y-99860666D01*
X117106666Y-99860666D01*
X117173333Y-99894000D01*
X117206666Y-99927333D01*
X117240000Y-99994000D01*
X117240000Y-100060666D01*
X117206666Y-100160666D01*
X116806666Y-100560666D01*
X117240000Y-100560666D01*
X117673333Y-99860666D02*
X117740000Y-99860666D01*
X117806666Y-99894000D01*
X117840000Y-99927333D01*
X117873333Y-99994000D01*
X117906666Y-100127333D01*
X117906666Y-100294000D01*
X117873333Y-100427333D01*
X117840000Y-100494000D01*
X117806666Y-100527333D01*
X117740000Y-100560666D01*
X117673333Y-100560666D01*
X117606666Y-100527333D01*
X117573333Y-100494000D01*
X117540000Y-100427333D01*
X117506666Y-100294000D01*
X117506666Y-100127333D01*
X117540000Y-99994000D01*
X117573333Y-99927333D01*
X117606666Y-99894000D01*
X117673333Y-99860666D01*
X118573333Y-100560666D02*
X118173333Y-100560666D01*
X118373333Y-100560666D02*
X118373333Y-99860666D01*
X118306666Y-99960666D01*
X118240000Y-100027333D01*
X118173333Y-100060666D01*
X83900000Y-78560666D02*
X83666666Y-78227333D01*
X83500000Y-78560666D02*
X83500000Y-77860666D01*
X83766666Y-77860666D01*
X83833333Y-77894000D01*
X83866666Y-77927333D01*
X83900000Y-77994000D01*
X83900000Y-78094000D01*
X83866666Y-78160666D01*
X83833333Y-78194000D01*
X83766666Y-78227333D01*
X83500000Y-78227333D01*
X84566666Y-78560666D02*
X84166666Y-78560666D01*
X84366666Y-78560666D02*
X84366666Y-77860666D01*
X84300000Y-77960666D01*
X84233333Y-78027333D01*
X84166666Y-78060666D01*
X85166666Y-78094000D02*
X85166666Y-78560666D01*
X85000000Y-77827333D02*
X84833333Y-78327333D01*
X85266666Y-78327333D01*
X94176666Y-93134000D02*
X94743333Y-93134000D01*
X94810000Y-93100666D01*
X94843333Y-93067333D01*
X94876666Y-93000666D01*
X94876666Y-92867333D01*
X94843333Y-92800666D01*
X94810000Y-92767333D01*
X94743333Y-92734000D01*
X94176666Y-92734000D01*
X94176666Y-92467333D02*
X94176666Y-92034000D01*
X94443333Y-92267333D01*
X94443333Y-92167333D01*
X94476666Y-92100666D01*
X94510000Y-92067333D01*
X94576666Y-92034000D01*
X94743333Y-92034000D01*
X94810000Y-92067333D01*
X94843333Y-92100666D01*
X94876666Y-92167333D01*
X94876666Y-92367333D01*
X94843333Y-92434000D01*
X94810000Y-92467333D01*
X94176666Y-91600666D02*
X94176666Y-91534000D01*
X94210000Y-91467333D01*
X94243333Y-91434000D01*
X94310000Y-91400666D01*
X94443333Y-91367333D01*
X94610000Y-91367333D01*
X94743333Y-91400666D01*
X94810000Y-91434000D01*
X94843333Y-91467333D01*
X94876666Y-91534000D01*
X94876666Y-91600666D01*
X94843333Y-91667333D01*
X94810000Y-91700666D01*
X94743333Y-91734000D01*
X94610000Y-91767333D01*
X94443333Y-91767333D01*
X94310000Y-91734000D01*
X94243333Y-91700666D01*
X94210000Y-91667333D01*
X94176666Y-91600666D01*
X94876666Y-90700666D02*
X94876666Y-91100666D01*
X94876666Y-90900666D02*
X94176666Y-90900666D01*
X94276666Y-90967333D01*
X94343333Y-91034000D01*
X94376666Y-91100666D01*
X125839285Y-104135714D02*
X126446428Y-104135714D01*
X126517857Y-104100000D01*
X126553571Y-104064285D01*
X126589285Y-103992857D01*
X126589285Y-103850000D01*
X126553571Y-103778571D01*
X126517857Y-103742857D01*
X126446428Y-103707142D01*
X125839285Y-103707142D01*
X125910714Y-103385714D02*
X125875000Y-103350000D01*
X125839285Y-103278571D01*
X125839285Y-103100000D01*
X125875000Y-103028571D01*
X125910714Y-102992857D01*
X125982142Y-102957142D01*
X126053571Y-102957142D01*
X126160714Y-102992857D01*
X126589285Y-103421428D01*
X126589285Y-102957142D01*
X125839285Y-102492857D02*
X125839285Y-102421428D01*
X125875000Y-102350000D01*
X125910714Y-102314285D01*
X125982142Y-102278571D01*
X126125000Y-102242857D01*
X126303571Y-102242857D01*
X126446428Y-102278571D01*
X126517857Y-102314285D01*
X126553571Y-102350000D01*
X126589285Y-102421428D01*
X126589285Y-102492857D01*
X126553571Y-102564285D01*
X126517857Y-102600000D01*
X126446428Y-102635714D01*
X126303571Y-102671428D01*
X126125000Y-102671428D01*
X125982142Y-102635714D01*
X125910714Y-102600000D01*
X125875000Y-102564285D01*
X125839285Y-102492857D01*
X125839285Y-101992857D02*
X125839285Y-101528571D01*
X126125000Y-101778571D01*
X126125000Y-101671428D01*
X126160714Y-101600000D01*
X126196428Y-101564285D01*
X126267857Y-101528571D01*
X126446428Y-101528571D01*
X126517857Y-101564285D01*
X126553571Y-101600000D01*
X126589285Y-101671428D01*
X126589285Y-101885714D01*
X126553571Y-101957142D01*
X126517857Y-101992857D01*
X126402380Y-105250000D02*
X126640476Y-105250000D01*
X126545238Y-105488095D02*
X126640476Y-105250000D01*
X126545238Y-105011904D01*
X126830952Y-105392857D02*
X126640476Y-105250000D01*
X126830952Y-105107142D01*
X127150000Y-96250666D02*
X127150000Y-96817333D01*
X127183333Y-96884000D01*
X127216666Y-96917333D01*
X127283333Y-96950666D01*
X127416666Y-96950666D01*
X127483333Y-96917333D01*
X127516666Y-96884000D01*
X127550000Y-96817333D01*
X127550000Y-96250666D01*
X127850000Y-96317333D02*
X127883333Y-96284000D01*
X127950000Y-96250666D01*
X128116666Y-96250666D01*
X128183333Y-96284000D01*
X128216666Y-96317333D01*
X128250000Y-96384000D01*
X128250000Y-96450666D01*
X128216666Y-96550666D01*
X127816666Y-96950666D01*
X128250000Y-96950666D01*
X128683333Y-96250666D02*
X128750000Y-96250666D01*
X128816666Y-96284000D01*
X128850000Y-96317333D01*
X128883333Y-96384000D01*
X128916666Y-96517333D01*
X128916666Y-96684000D01*
X128883333Y-96817333D01*
X128850000Y-96884000D01*
X128816666Y-96917333D01*
X128750000Y-96950666D01*
X128683333Y-96950666D01*
X128616666Y-96917333D01*
X128583333Y-96884000D01*
X128550000Y-96817333D01*
X128516666Y-96684000D01*
X128516666Y-96517333D01*
X128550000Y-96384000D01*
X128583333Y-96317333D01*
X128616666Y-96284000D01*
X128683333Y-96250666D01*
X129183333Y-96317333D02*
X129216666Y-96284000D01*
X129283333Y-96250666D01*
X129450000Y-96250666D01*
X129516666Y-96284000D01*
X129550000Y-96317333D01*
X129583333Y-96384000D01*
X129583333Y-96450666D01*
X129550000Y-96550666D01*
X129150000Y-96950666D01*
X129583333Y-96950666D01*
X126566900Y-96352380D02*
X126566900Y-96590476D01*
X126328804Y-96495238D02*
X126566900Y-96590476D01*
X126804995Y-96495238D01*
X126424042Y-96780952D02*
X126566900Y-96590476D01*
X126709757Y-96780952D01*
X127566666Y-82790666D02*
X127566666Y-83357333D01*
X127600000Y-83424000D01*
X127633333Y-83457333D01*
X127700000Y-83490666D01*
X127833333Y-83490666D01*
X127900000Y-83457333D01*
X127933333Y-83424000D01*
X127966666Y-83357333D01*
X127966666Y-82790666D01*
X128666666Y-83490666D02*
X128266666Y-83490666D01*
X128466666Y-83490666D02*
X128466666Y-82790666D01*
X128400000Y-82890666D01*
X128333333Y-82957333D01*
X128266666Y-82990666D01*
X88756666Y-88470666D02*
X88523333Y-88137333D01*
X88356666Y-88470666D02*
X88356666Y-87770666D01*
X88623333Y-87770666D01*
X88690000Y-87804000D01*
X88723333Y-87837333D01*
X88756666Y-87904000D01*
X88756666Y-88004000D01*
X88723333Y-88070666D01*
X88690000Y-88104000D01*
X88623333Y-88137333D01*
X88356666Y-88137333D01*
X88990000Y-87770666D02*
X89423333Y-87770666D01*
X89190000Y-88037333D01*
X89290000Y-88037333D01*
X89356666Y-88070666D01*
X89390000Y-88104000D01*
X89423333Y-88170666D01*
X89423333Y-88337333D01*
X89390000Y-88404000D01*
X89356666Y-88437333D01*
X89290000Y-88470666D01*
X89090000Y-88470666D01*
X89023333Y-88437333D01*
X88990000Y-88404000D01*
X89856666Y-87770666D02*
X89923333Y-87770666D01*
X89990000Y-87804000D01*
X90023333Y-87837333D01*
X90056666Y-87904000D01*
X90090000Y-88037333D01*
X90090000Y-88204000D01*
X90056666Y-88337333D01*
X90023333Y-88404000D01*
X89990000Y-88437333D01*
X89923333Y-88470666D01*
X89856666Y-88470666D01*
X89790000Y-88437333D01*
X89756666Y-88404000D01*
X89723333Y-88337333D01*
X89690000Y-88204000D01*
X89690000Y-88037333D01*
X89723333Y-87904000D01*
X89756666Y-87837333D01*
X89790000Y-87804000D01*
X89856666Y-87770666D01*
X90690000Y-88004000D02*
X90690000Y-88470666D01*
X90523333Y-87737333D02*
X90356666Y-88237333D01*
X90790000Y-88237333D01*
X88696666Y-90030666D02*
X88463333Y-89697333D01*
X88296666Y-90030666D02*
X88296666Y-89330666D01*
X88563333Y-89330666D01*
X88630000Y-89364000D01*
X88663333Y-89397333D01*
X88696666Y-89464000D01*
X88696666Y-89564000D01*
X88663333Y-89630666D01*
X88630000Y-89664000D01*
X88563333Y-89697333D01*
X88296666Y-89697333D01*
X88930000Y-89330666D02*
X89363333Y-89330666D01*
X89130000Y-89597333D01*
X89230000Y-89597333D01*
X89296666Y-89630666D01*
X89330000Y-89664000D01*
X89363333Y-89730666D01*
X89363333Y-89897333D01*
X89330000Y-89964000D01*
X89296666Y-89997333D01*
X89230000Y-90030666D01*
X89030000Y-90030666D01*
X88963333Y-89997333D01*
X88930000Y-89964000D01*
X89796666Y-89330666D02*
X89863333Y-89330666D01*
X89930000Y-89364000D01*
X89963333Y-89397333D01*
X89996666Y-89464000D01*
X90030000Y-89597333D01*
X90030000Y-89764000D01*
X89996666Y-89897333D01*
X89963333Y-89964000D01*
X89930000Y-89997333D01*
X89863333Y-90030666D01*
X89796666Y-90030666D01*
X89730000Y-89997333D01*
X89696666Y-89964000D01*
X89663333Y-89897333D01*
X89630000Y-89764000D01*
X89630000Y-89597333D01*
X89663333Y-89464000D01*
X89696666Y-89397333D01*
X89730000Y-89364000D01*
X89796666Y-89330666D01*
X90263333Y-89330666D02*
X90696666Y-89330666D01*
X90463333Y-89597333D01*
X90563333Y-89597333D01*
X90630000Y-89630666D01*
X90663333Y-89664000D01*
X90696666Y-89730666D01*
X90696666Y-89897333D01*
X90663333Y-89964000D01*
X90630000Y-89997333D01*
X90563333Y-90030666D01*
X90363333Y-90030666D01*
X90296666Y-89997333D01*
X90263333Y-89964000D01*
X94596666Y-84670666D02*
X94363333Y-84337333D01*
X94196666Y-84670666D02*
X94196666Y-83970666D01*
X94463333Y-83970666D01*
X94530000Y-84004000D01*
X94563333Y-84037333D01*
X94596666Y-84104000D01*
X94596666Y-84204000D01*
X94563333Y-84270666D01*
X94530000Y-84304000D01*
X94463333Y-84337333D01*
X94196666Y-84337333D01*
X94830000Y-83970666D02*
X95263333Y-83970666D01*
X95030000Y-84237333D01*
X95130000Y-84237333D01*
X95196666Y-84270666D01*
X95230000Y-84304000D01*
X95263333Y-84370666D01*
X95263333Y-84537333D01*
X95230000Y-84604000D01*
X95196666Y-84637333D01*
X95130000Y-84670666D01*
X94930000Y-84670666D01*
X94863333Y-84637333D01*
X94830000Y-84604000D01*
X95696666Y-83970666D02*
X95763333Y-83970666D01*
X95830000Y-84004000D01*
X95863333Y-84037333D01*
X95896666Y-84104000D01*
X95930000Y-84237333D01*
X95930000Y-84404000D01*
X95896666Y-84537333D01*
X95863333Y-84604000D01*
X95830000Y-84637333D01*
X95763333Y-84670666D01*
X95696666Y-84670666D01*
X95630000Y-84637333D01*
X95596666Y-84604000D01*
X95563333Y-84537333D01*
X95530000Y-84404000D01*
X95530000Y-84237333D01*
X95563333Y-84104000D01*
X95596666Y-84037333D01*
X95630000Y-84004000D01*
X95696666Y-83970666D01*
X96196666Y-84037333D02*
X96230000Y-84004000D01*
X96296666Y-83970666D01*
X96463333Y-83970666D01*
X96530000Y-84004000D01*
X96563333Y-84037333D01*
X96596666Y-84104000D01*
X96596666Y-84170666D01*
X96563333Y-84270666D01*
X96163333Y-84670666D01*
X96596666Y-84670666D01*
X102506666Y-85457333D02*
X102173333Y-85690666D01*
X102506666Y-85857333D02*
X101806666Y-85857333D01*
X101806666Y-85590666D01*
X101840000Y-85524000D01*
X101873333Y-85490666D01*
X101940000Y-85457333D01*
X102040000Y-85457333D01*
X102106666Y-85490666D01*
X102140000Y-85524000D01*
X102173333Y-85590666D01*
X102173333Y-85857333D01*
X101806666Y-85224000D02*
X101806666Y-84790666D01*
X102073333Y-85024000D01*
X102073333Y-84924000D01*
X102106666Y-84857333D01*
X102140000Y-84824000D01*
X102206666Y-84790666D01*
X102373333Y-84790666D01*
X102440000Y-84824000D01*
X102473333Y-84857333D01*
X102506666Y-84924000D01*
X102506666Y-85124000D01*
X102473333Y-85190666D01*
X102440000Y-85224000D01*
X101806666Y-84357333D02*
X101806666Y-84290666D01*
X101840000Y-84224000D01*
X101873333Y-84190666D01*
X101940000Y-84157333D01*
X102073333Y-84124000D01*
X102240000Y-84124000D01*
X102373333Y-84157333D01*
X102440000Y-84190666D01*
X102473333Y-84224000D01*
X102506666Y-84290666D01*
X102506666Y-84357333D01*
X102473333Y-84424000D01*
X102440000Y-84457333D01*
X102373333Y-84490666D01*
X102240000Y-84524000D01*
X102073333Y-84524000D01*
X101940000Y-84490666D01*
X101873333Y-84457333D01*
X101840000Y-84424000D01*
X101806666Y-84357333D01*
X102506666Y-83457333D02*
X102506666Y-83857333D01*
X102506666Y-83657333D02*
X101806666Y-83657333D01*
X101906666Y-83724000D01*
X101973333Y-83790666D01*
X102006666Y-83857333D01*
X125486666Y-111527333D02*
X125153333Y-111760666D01*
X125486666Y-111927333D02*
X124786666Y-111927333D01*
X124786666Y-111660666D01*
X124820000Y-111594000D01*
X124853333Y-111560666D01*
X124920000Y-111527333D01*
X125020000Y-111527333D01*
X125086666Y-111560666D01*
X125120000Y-111594000D01*
X125153333Y-111660666D01*
X125153333Y-111927333D01*
X124853333Y-111260666D02*
X124820000Y-111227333D01*
X124786666Y-111160666D01*
X124786666Y-110994000D01*
X124820000Y-110927333D01*
X124853333Y-110894000D01*
X124920000Y-110860666D01*
X124986666Y-110860666D01*
X125086666Y-110894000D01*
X125486666Y-111294000D01*
X125486666Y-110860666D01*
X124786666Y-110427333D02*
X124786666Y-110360666D01*
X124820000Y-110294000D01*
X124853333Y-110260666D01*
X124920000Y-110227333D01*
X125053333Y-110194000D01*
X125220000Y-110194000D01*
X125353333Y-110227333D01*
X125420000Y-110260666D01*
X125453333Y-110294000D01*
X125486666Y-110360666D01*
X125486666Y-110427333D01*
X125453333Y-110494000D01*
X125420000Y-110527333D01*
X125353333Y-110560666D01*
X125220000Y-110594000D01*
X125053333Y-110594000D01*
X124920000Y-110560666D01*
X124853333Y-110527333D01*
X124820000Y-110494000D01*
X124786666Y-110427333D01*
X125086666Y-109794000D02*
X125053333Y-109860666D01*
X125020000Y-109894000D01*
X124953333Y-109927333D01*
X124920000Y-109927333D01*
X124853333Y-109894000D01*
X124820000Y-109860666D01*
X124786666Y-109794000D01*
X124786666Y-109660666D01*
X124820000Y-109594000D01*
X124853333Y-109560666D01*
X124920000Y-109527333D01*
X124953333Y-109527333D01*
X125020000Y-109560666D01*
X125053333Y-109594000D01*
X125086666Y-109660666D01*
X125086666Y-109794000D01*
X125120000Y-109860666D01*
X125153333Y-109894000D01*
X125220000Y-109927333D01*
X125353333Y-109927333D01*
X125420000Y-109894000D01*
X125453333Y-109860666D01*
X125486666Y-109794000D01*
X125486666Y-109660666D01*
X125453333Y-109594000D01*
X125420000Y-109560666D01*
X125353333Y-109527333D01*
X125220000Y-109527333D01*
X125153333Y-109560666D01*
X125120000Y-109594000D01*
X125086666Y-109660666D01*
X127366666Y-110716666D02*
X127133333Y-110383333D01*
X126966666Y-110716666D02*
X126966666Y-110016666D01*
X127233333Y-110016666D01*
X127300000Y-110050000D01*
X127333333Y-110083333D01*
X127366666Y-110150000D01*
X127366666Y-110250000D01*
X127333333Y-110316666D01*
X127300000Y-110350000D01*
X127233333Y-110383333D01*
X126966666Y-110383333D01*
X127633333Y-110083333D02*
X127666666Y-110050000D01*
X127733333Y-110016666D01*
X127900000Y-110016666D01*
X127966666Y-110050000D01*
X128000000Y-110083333D01*
X128033333Y-110150000D01*
X128033333Y-110216666D01*
X128000000Y-110316666D01*
X127600000Y-110716666D01*
X128033333Y-110716666D01*
X128466666Y-110016666D02*
X128533333Y-110016666D01*
X128600000Y-110050000D01*
X128633333Y-110083333D01*
X128666666Y-110150000D01*
X128700000Y-110283333D01*
X128700000Y-110450000D01*
X128666666Y-110583333D01*
X128633333Y-110650000D01*
X128600000Y-110683333D01*
X128533333Y-110716666D01*
X128466666Y-110716666D01*
X128400000Y-110683333D01*
X128366666Y-110650000D01*
X128333333Y-110583333D01*
X128300000Y-110450000D01*
X128300000Y-110283333D01*
X128333333Y-110150000D01*
X128366666Y-110083333D01*
X128400000Y-110050000D01*
X128466666Y-110016666D01*
X128933333Y-110016666D02*
X129400000Y-110016666D01*
X129100000Y-110716666D01*
X130506666Y-106410666D02*
X130273333Y-106077333D01*
X130106666Y-106410666D02*
X130106666Y-105710666D01*
X130373333Y-105710666D01*
X130440000Y-105744000D01*
X130473333Y-105777333D01*
X130506666Y-105844000D01*
X130506666Y-105944000D01*
X130473333Y-106010666D01*
X130440000Y-106044000D01*
X130373333Y-106077333D01*
X130106666Y-106077333D01*
X130773333Y-105777333D02*
X130806666Y-105744000D01*
X130873333Y-105710666D01*
X131040000Y-105710666D01*
X131106666Y-105744000D01*
X131140000Y-105777333D01*
X131173333Y-105844000D01*
X131173333Y-105910666D01*
X131140000Y-106010666D01*
X130740000Y-106410666D01*
X131173333Y-106410666D01*
X131606666Y-105710666D02*
X131673333Y-105710666D01*
X131740000Y-105744000D01*
X131773333Y-105777333D01*
X131806666Y-105844000D01*
X131840000Y-105977333D01*
X131840000Y-106144000D01*
X131806666Y-106277333D01*
X131773333Y-106344000D01*
X131740000Y-106377333D01*
X131673333Y-106410666D01*
X131606666Y-106410666D01*
X131540000Y-106377333D01*
X131506666Y-106344000D01*
X131473333Y-106277333D01*
X131440000Y-106144000D01*
X131440000Y-105977333D01*
X131473333Y-105844000D01*
X131506666Y-105777333D01*
X131540000Y-105744000D01*
X131606666Y-105710666D01*
X132440000Y-105710666D02*
X132306666Y-105710666D01*
X132240000Y-105744000D01*
X132206666Y-105777333D01*
X132140000Y-105877333D01*
X132106666Y-106010666D01*
X132106666Y-106277333D01*
X132140000Y-106344000D01*
X132173333Y-106377333D01*
X132240000Y-106410666D01*
X132373333Y-106410666D01*
X132440000Y-106377333D01*
X132473333Y-106344000D01*
X132506666Y-106277333D01*
X132506666Y-106110666D01*
X132473333Y-106044000D01*
X132440000Y-106010666D01*
X132373333Y-105977333D01*
X132240000Y-105977333D01*
X132173333Y-106010666D01*
X132140000Y-106044000D01*
X132106666Y-106110666D01*
X130506666Y-110560666D02*
X130273333Y-110227333D01*
X130106666Y-110560666D02*
X130106666Y-109860666D01*
X130373333Y-109860666D01*
X130440000Y-109894000D01*
X130473333Y-109927333D01*
X130506666Y-109994000D01*
X130506666Y-110094000D01*
X130473333Y-110160666D01*
X130440000Y-110194000D01*
X130373333Y-110227333D01*
X130106666Y-110227333D01*
X130773333Y-109927333D02*
X130806666Y-109894000D01*
X130873333Y-109860666D01*
X131040000Y-109860666D01*
X131106666Y-109894000D01*
X131140000Y-109927333D01*
X131173333Y-109994000D01*
X131173333Y-110060666D01*
X131140000Y-110160666D01*
X130740000Y-110560666D01*
X131173333Y-110560666D01*
X131606666Y-109860666D02*
X131673333Y-109860666D01*
X131740000Y-109894000D01*
X131773333Y-109927333D01*
X131806666Y-109994000D01*
X131840000Y-110127333D01*
X131840000Y-110294000D01*
X131806666Y-110427333D01*
X131773333Y-110494000D01*
X131740000Y-110527333D01*
X131673333Y-110560666D01*
X131606666Y-110560666D01*
X131540000Y-110527333D01*
X131506666Y-110494000D01*
X131473333Y-110427333D01*
X131440000Y-110294000D01*
X131440000Y-110127333D01*
X131473333Y-109994000D01*
X131506666Y-109927333D01*
X131540000Y-109894000D01*
X131606666Y-109860666D01*
X132473333Y-109860666D02*
X132140000Y-109860666D01*
X132106666Y-110194000D01*
X132140000Y-110160666D01*
X132206666Y-110127333D01*
X132373333Y-110127333D01*
X132440000Y-110160666D01*
X132473333Y-110194000D01*
X132506666Y-110260666D01*
X132506666Y-110427333D01*
X132473333Y-110494000D01*
X132440000Y-110527333D01*
X132373333Y-110560666D01*
X132206666Y-110560666D01*
X132140000Y-110527333D01*
X132106666Y-110494000D01*
X131996666Y-90500666D02*
X131763333Y-90167333D01*
X131596666Y-90500666D02*
X131596666Y-89800666D01*
X131863333Y-89800666D01*
X131930000Y-89834000D01*
X131963333Y-89867333D01*
X131996666Y-89934000D01*
X131996666Y-90034000D01*
X131963333Y-90100666D01*
X131930000Y-90134000D01*
X131863333Y-90167333D01*
X131596666Y-90167333D01*
X132263333Y-89867333D02*
X132296666Y-89834000D01*
X132363333Y-89800666D01*
X132530000Y-89800666D01*
X132596666Y-89834000D01*
X132630000Y-89867333D01*
X132663333Y-89934000D01*
X132663333Y-90000666D01*
X132630000Y-90100666D01*
X132230000Y-90500666D01*
X132663333Y-90500666D01*
X133096666Y-89800666D02*
X133163333Y-89800666D01*
X133230000Y-89834000D01*
X133263333Y-89867333D01*
X133296666Y-89934000D01*
X133330000Y-90067333D01*
X133330000Y-90234000D01*
X133296666Y-90367333D01*
X133263333Y-90434000D01*
X133230000Y-90467333D01*
X133163333Y-90500666D01*
X133096666Y-90500666D01*
X133030000Y-90467333D01*
X132996666Y-90434000D01*
X132963333Y-90367333D01*
X132930000Y-90234000D01*
X132930000Y-90067333D01*
X132963333Y-89934000D01*
X132996666Y-89867333D01*
X133030000Y-89834000D01*
X133096666Y-89800666D01*
X133930000Y-90034000D02*
X133930000Y-90500666D01*
X133763333Y-89767333D02*
X133596666Y-90267333D01*
X134030000Y-90267333D01*
X113126666Y-103057333D02*
X112793333Y-103290666D01*
X113126666Y-103457333D02*
X112426666Y-103457333D01*
X112426666Y-103190666D01*
X112460000Y-103124000D01*
X112493333Y-103090666D01*
X112560000Y-103057333D01*
X112660000Y-103057333D01*
X112726666Y-103090666D01*
X112760000Y-103124000D01*
X112793333Y-103190666D01*
X112793333Y-103457333D01*
X112493333Y-102790666D02*
X112460000Y-102757333D01*
X112426666Y-102690666D01*
X112426666Y-102524000D01*
X112460000Y-102457333D01*
X112493333Y-102424000D01*
X112560000Y-102390666D01*
X112626666Y-102390666D01*
X112726666Y-102424000D01*
X113126666Y-102824000D01*
X113126666Y-102390666D01*
X112426666Y-101957333D02*
X112426666Y-101890666D01*
X112460000Y-101824000D01*
X112493333Y-101790666D01*
X112560000Y-101757333D01*
X112693333Y-101724000D01*
X112860000Y-101724000D01*
X112993333Y-101757333D01*
X113060000Y-101790666D01*
X113093333Y-101824000D01*
X113126666Y-101890666D01*
X113126666Y-101957333D01*
X113093333Y-102024000D01*
X113060000Y-102057333D01*
X112993333Y-102090666D01*
X112860000Y-102124000D01*
X112693333Y-102124000D01*
X112560000Y-102090666D01*
X112493333Y-102057333D01*
X112460000Y-102024000D01*
X112426666Y-101957333D01*
X112426666Y-101490666D02*
X112426666Y-101057333D01*
X112693333Y-101290666D01*
X112693333Y-101190666D01*
X112726666Y-101124000D01*
X112760000Y-101090666D01*
X112826666Y-101057333D01*
X112993333Y-101057333D01*
X113060000Y-101090666D01*
X113093333Y-101124000D01*
X113126666Y-101190666D01*
X113126666Y-101390666D01*
X113093333Y-101457333D01*
X113060000Y-101490666D01*
X132016666Y-92860666D02*
X131783333Y-92527333D01*
X131616666Y-92860666D02*
X131616666Y-92160666D01*
X131883333Y-92160666D01*
X131950000Y-92194000D01*
X131983333Y-92227333D01*
X132016666Y-92294000D01*
X132016666Y-92394000D01*
X131983333Y-92460666D01*
X131950000Y-92494000D01*
X131883333Y-92527333D01*
X131616666Y-92527333D01*
X132283333Y-92227333D02*
X132316666Y-92194000D01*
X132383333Y-92160666D01*
X132550000Y-92160666D01*
X132616666Y-92194000D01*
X132650000Y-92227333D01*
X132683333Y-92294000D01*
X132683333Y-92360666D01*
X132650000Y-92460666D01*
X132250000Y-92860666D01*
X132683333Y-92860666D01*
X133116666Y-92160666D02*
X133183333Y-92160666D01*
X133250000Y-92194000D01*
X133283333Y-92227333D01*
X133316666Y-92294000D01*
X133350000Y-92427333D01*
X133350000Y-92594000D01*
X133316666Y-92727333D01*
X133283333Y-92794000D01*
X133250000Y-92827333D01*
X133183333Y-92860666D01*
X133116666Y-92860666D01*
X133050000Y-92827333D01*
X133016666Y-92794000D01*
X132983333Y-92727333D01*
X132950000Y-92594000D01*
X132950000Y-92427333D01*
X132983333Y-92294000D01*
X133016666Y-92227333D01*
X133050000Y-92194000D01*
X133116666Y-92160666D01*
X133616666Y-92227333D02*
X133650000Y-92194000D01*
X133716666Y-92160666D01*
X133883333Y-92160666D01*
X133950000Y-92194000D01*
X133983333Y-92227333D01*
X134016666Y-92294000D01*
X134016666Y-92360666D01*
X133983333Y-92460666D01*
X133583333Y-92860666D01*
X134016666Y-92860666D01*
X116736666Y-96740666D02*
X116503333Y-96407333D01*
X116336666Y-96740666D02*
X116336666Y-96040666D01*
X116603333Y-96040666D01*
X116670000Y-96074000D01*
X116703333Y-96107333D01*
X116736666Y-96174000D01*
X116736666Y-96274000D01*
X116703333Y-96340666D01*
X116670000Y-96374000D01*
X116603333Y-96407333D01*
X116336666Y-96407333D01*
X117003333Y-96107333D02*
X117036666Y-96074000D01*
X117103333Y-96040666D01*
X117270000Y-96040666D01*
X117336666Y-96074000D01*
X117370000Y-96107333D01*
X117403333Y-96174000D01*
X117403333Y-96240666D01*
X117370000Y-96340666D01*
X116970000Y-96740666D01*
X117403333Y-96740666D01*
X117836666Y-96040666D02*
X117903333Y-96040666D01*
X117970000Y-96074000D01*
X118003333Y-96107333D01*
X118036666Y-96174000D01*
X118070000Y-96307333D01*
X118070000Y-96474000D01*
X118036666Y-96607333D01*
X118003333Y-96674000D01*
X117970000Y-96707333D01*
X117903333Y-96740666D01*
X117836666Y-96740666D01*
X117770000Y-96707333D01*
X117736666Y-96674000D01*
X117703333Y-96607333D01*
X117670000Y-96474000D01*
X117670000Y-96307333D01*
X117703333Y-96174000D01*
X117736666Y-96107333D01*
X117770000Y-96074000D01*
X117836666Y-96040666D01*
X118736666Y-96740666D02*
X118336666Y-96740666D01*
X118536666Y-96740666D02*
X118536666Y-96040666D01*
X118470000Y-96140666D01*
X118403333Y-96207333D01*
X118336666Y-96240666D01*
X129730000Y-88650666D02*
X129496666Y-88317333D01*
X129330000Y-88650666D02*
X129330000Y-87950666D01*
X129596666Y-87950666D01*
X129663333Y-87984000D01*
X129696666Y-88017333D01*
X129730000Y-88084000D01*
X129730000Y-88184000D01*
X129696666Y-88250666D01*
X129663333Y-88284000D01*
X129596666Y-88317333D01*
X129330000Y-88317333D01*
X130396666Y-88650666D02*
X129996666Y-88650666D01*
X130196666Y-88650666D02*
X130196666Y-87950666D01*
X130130000Y-88050666D01*
X130063333Y-88117333D01*
X129996666Y-88150666D01*
X130630000Y-87950666D02*
X131063333Y-87950666D01*
X130830000Y-88217333D01*
X130930000Y-88217333D01*
X130996666Y-88250666D01*
X131030000Y-88284000D01*
X131063333Y-88350666D01*
X131063333Y-88517333D01*
X131030000Y-88584000D01*
X130996666Y-88617333D01*
X130930000Y-88650666D01*
X130730000Y-88650666D01*
X130663333Y-88617333D01*
X130630000Y-88584000D01*
X122450000Y-88640666D02*
X122216666Y-88307333D01*
X122050000Y-88640666D02*
X122050000Y-87940666D01*
X122316666Y-87940666D01*
X122383333Y-87974000D01*
X122416666Y-88007333D01*
X122450000Y-88074000D01*
X122450000Y-88174000D01*
X122416666Y-88240666D01*
X122383333Y-88274000D01*
X122316666Y-88307333D01*
X122050000Y-88307333D01*
X123116666Y-88640666D02*
X122716666Y-88640666D01*
X122916666Y-88640666D02*
X122916666Y-87940666D01*
X122850000Y-88040666D01*
X122783333Y-88107333D01*
X122716666Y-88140666D01*
X123383333Y-88007333D02*
X123416666Y-87974000D01*
X123483333Y-87940666D01*
X123650000Y-87940666D01*
X123716666Y-87974000D01*
X123750000Y-88007333D01*
X123783333Y-88074000D01*
X123783333Y-88140666D01*
X123750000Y-88240666D01*
X123350000Y-88640666D01*
X123783333Y-88640666D01*
X88625333Y-68380666D02*
X88392000Y-68047333D01*
X88225333Y-68380666D02*
X88225333Y-67680666D01*
X88492000Y-67680666D01*
X88558666Y-67714000D01*
X88592000Y-67747333D01*
X88625333Y-67814000D01*
X88625333Y-67914000D01*
X88592000Y-67980666D01*
X88558666Y-68014000D01*
X88492000Y-68047333D01*
X88225333Y-68047333D01*
X88858666Y-67680666D02*
X89325333Y-67680666D01*
X89025333Y-68380666D01*
X136463333Y-81660666D02*
X136230000Y-81327333D01*
X136063333Y-81660666D02*
X136063333Y-80960666D01*
X136330000Y-80960666D01*
X136396666Y-80994000D01*
X136430000Y-81027333D01*
X136463333Y-81094000D01*
X136463333Y-81194000D01*
X136430000Y-81260666D01*
X136396666Y-81294000D01*
X136330000Y-81327333D01*
X136063333Y-81327333D01*
X137063333Y-80960666D02*
X136930000Y-80960666D01*
X136863333Y-80994000D01*
X136830000Y-81027333D01*
X136763333Y-81127333D01*
X136730000Y-81260666D01*
X136730000Y-81527333D01*
X136763333Y-81594000D01*
X136796666Y-81627333D01*
X136863333Y-81660666D01*
X136996666Y-81660666D01*
X137063333Y-81627333D01*
X137096666Y-81594000D01*
X137130000Y-81527333D01*
X137130000Y-81360666D01*
X137096666Y-81294000D01*
X137063333Y-81260666D01*
X136996666Y-81227333D01*
X136863333Y-81227333D01*
X136796666Y-81260666D01*
X136763333Y-81294000D01*
X136730000Y-81360666D01*
X136463333Y-78370666D02*
X136230000Y-78037333D01*
X136063333Y-78370666D02*
X136063333Y-77670666D01*
X136330000Y-77670666D01*
X136396666Y-77704000D01*
X136430000Y-77737333D01*
X136463333Y-77804000D01*
X136463333Y-77904000D01*
X136430000Y-77970666D01*
X136396666Y-78004000D01*
X136330000Y-78037333D01*
X136063333Y-78037333D01*
X137096666Y-77670666D02*
X136763333Y-77670666D01*
X136730000Y-78004000D01*
X136763333Y-77970666D01*
X136830000Y-77937333D01*
X136996666Y-77937333D01*
X137063333Y-77970666D01*
X137096666Y-78004000D01*
X137130000Y-78070666D01*
X137130000Y-78237333D01*
X137096666Y-78304000D01*
X137063333Y-78337333D01*
X136996666Y-78370666D01*
X136830000Y-78370666D01*
X136763333Y-78337333D01*
X136730000Y-78304000D01*
X136483333Y-68410666D02*
X136250000Y-68077333D01*
X136083333Y-68410666D02*
X136083333Y-67710666D01*
X136350000Y-67710666D01*
X136416666Y-67744000D01*
X136450000Y-67777333D01*
X136483333Y-67844000D01*
X136483333Y-67944000D01*
X136450000Y-68010666D01*
X136416666Y-68044000D01*
X136350000Y-68077333D01*
X136083333Y-68077333D01*
X137083333Y-67944000D02*
X137083333Y-68410666D01*
X136916666Y-67677333D02*
X136750000Y-68177333D01*
X137183333Y-68177333D01*
X136483333Y-70970666D02*
X136250000Y-70637333D01*
X136083333Y-70970666D02*
X136083333Y-70270666D01*
X136350000Y-70270666D01*
X136416666Y-70304000D01*
X136450000Y-70337333D01*
X136483333Y-70404000D01*
X136483333Y-70504000D01*
X136450000Y-70570666D01*
X136416666Y-70604000D01*
X136350000Y-70637333D01*
X136083333Y-70637333D01*
X136716666Y-70270666D02*
X137150000Y-70270666D01*
X136916666Y-70537333D01*
X137016666Y-70537333D01*
X137083333Y-70570666D01*
X137116666Y-70604000D01*
X137150000Y-70670666D01*
X137150000Y-70837333D01*
X137116666Y-70904000D01*
X137083333Y-70937333D01*
X137016666Y-70970666D01*
X136816666Y-70970666D01*
X136750000Y-70937333D01*
X136716666Y-70904000D01*
X118696666Y-68930666D02*
X118363333Y-69164000D01*
X118696666Y-69330666D02*
X117996666Y-69330666D01*
X117996666Y-69064000D01*
X118030000Y-68997333D01*
X118063333Y-68964000D01*
X118130000Y-68930666D01*
X118230000Y-68930666D01*
X118296666Y-68964000D01*
X118330000Y-68997333D01*
X118363333Y-69064000D01*
X118363333Y-69330666D01*
X118063333Y-68664000D02*
X118030000Y-68630666D01*
X117996666Y-68564000D01*
X117996666Y-68397333D01*
X118030000Y-68330666D01*
X118063333Y-68297333D01*
X118130000Y-68264000D01*
X118196666Y-68264000D01*
X118296666Y-68297333D01*
X118696666Y-68697333D01*
X118696666Y-68264000D01*
X137173333Y-93540666D02*
X136940000Y-93207333D01*
X136773333Y-93540666D02*
X136773333Y-92840666D01*
X137040000Y-92840666D01*
X137106666Y-92874000D01*
X137140000Y-92907333D01*
X137173333Y-92974000D01*
X137173333Y-93074000D01*
X137140000Y-93140666D01*
X137106666Y-93174000D01*
X137040000Y-93207333D01*
X136773333Y-93207333D01*
X137840000Y-93540666D02*
X137440000Y-93540666D01*
X137640000Y-93540666D02*
X137640000Y-92840666D01*
X137573333Y-92940666D01*
X137506666Y-93007333D01*
X137440000Y-93040666D01*
X103816666Y-91110666D02*
X103483333Y-91110666D01*
X103483333Y-90410666D01*
X103983333Y-90410666D02*
X104416666Y-90410666D01*
X104183333Y-90677333D01*
X104283333Y-90677333D01*
X104350000Y-90710666D01*
X104383333Y-90744000D01*
X104416666Y-90810666D01*
X104416666Y-90977333D01*
X104383333Y-91044000D01*
X104350000Y-91077333D01*
X104283333Y-91110666D01*
X104083333Y-91110666D01*
X104016666Y-91077333D01*
X103983333Y-91044000D01*
X104850000Y-90410666D02*
X104916666Y-90410666D01*
X104983333Y-90444000D01*
X105016666Y-90477333D01*
X105050000Y-90544000D01*
X105083333Y-90677333D01*
X105083333Y-90844000D01*
X105050000Y-90977333D01*
X105016666Y-91044000D01*
X104983333Y-91077333D01*
X104916666Y-91110666D01*
X104850000Y-91110666D01*
X104783333Y-91077333D01*
X104750000Y-91044000D01*
X104716666Y-90977333D01*
X104683333Y-90844000D01*
X104683333Y-90677333D01*
X104716666Y-90544000D01*
X104750000Y-90477333D01*
X104783333Y-90444000D01*
X104850000Y-90410666D01*
X105750000Y-91110666D02*
X105350000Y-91110666D01*
X105550000Y-91110666D02*
X105550000Y-90410666D01*
X105483333Y-90510666D01*
X105416666Y-90577333D01*
X105350000Y-90610666D01*
X105343333Y-94620666D02*
X105776666Y-94620666D01*
X105543333Y-94887333D01*
X105643333Y-94887333D01*
X105710000Y-94920666D01*
X105743333Y-94954000D01*
X105776666Y-95020666D01*
X105776666Y-95187333D01*
X105743333Y-95254000D01*
X105710000Y-95287333D01*
X105643333Y-95320666D01*
X105443333Y-95320666D01*
X105376666Y-95287333D01*
X105343333Y-95254000D01*
X106076666Y-95254000D02*
X106110000Y-95287333D01*
X106076666Y-95320666D01*
X106043333Y-95287333D01*
X106076666Y-95254000D01*
X106076666Y-95320666D01*
X106343333Y-94620666D02*
X106776666Y-94620666D01*
X106543333Y-94887333D01*
X106643333Y-94887333D01*
X106710000Y-94920666D01*
X106743333Y-94954000D01*
X106776666Y-95020666D01*
X106776666Y-95187333D01*
X106743333Y-95254000D01*
X106710000Y-95287333D01*
X106643333Y-95320666D01*
X106443333Y-95320666D01*
X106376666Y-95287333D01*
X106343333Y-95254000D01*
X107376666Y-94854000D02*
X107376666Y-95320666D01*
X107076666Y-94854000D02*
X107076666Y-95220666D01*
X107110000Y-95287333D01*
X107176666Y-95320666D01*
X107276666Y-95320666D01*
X107343333Y-95287333D01*
X107376666Y-95254000D01*
X107710000Y-95320666D02*
X107710000Y-94620666D01*
X107710000Y-94954000D02*
X108110000Y-94954000D01*
X108110000Y-95320666D02*
X108110000Y-94620666D01*
X125620000Y-76100666D02*
X125620000Y-75634000D01*
X125620000Y-75400666D02*
X125586666Y-75434000D01*
X125620000Y-75467333D01*
X125653333Y-75434000D01*
X125620000Y-75400666D01*
X125620000Y-75467333D01*
X125920000Y-75467333D02*
X125953333Y-75434000D01*
X126020000Y-75400666D01*
X126186666Y-75400666D01*
X126253333Y-75434000D01*
X126286666Y-75467333D01*
X126320000Y-75534000D01*
X126320000Y-75600666D01*
X126286666Y-75700666D01*
X125886666Y-76100666D01*
X126320000Y-76100666D01*
X126920000Y-76067333D02*
X126853333Y-76100666D01*
X126720000Y-76100666D01*
X126653333Y-76067333D01*
X126620000Y-76034000D01*
X126586666Y-75967333D01*
X126586666Y-75767333D01*
X126620000Y-75700666D01*
X126653333Y-75667333D01*
X126720000Y-75634000D01*
X126853333Y-75634000D01*
X126920000Y-75667333D01*
X127053333Y-76167333D02*
X127586666Y-76167333D01*
X128053333Y-76100666D02*
X128053333Y-75400666D01*
X128053333Y-76067333D02*
X127986666Y-76100666D01*
X127853333Y-76100666D01*
X127786666Y-76067333D01*
X127753333Y-76034000D01*
X127720000Y-75967333D01*
X127720000Y-75767333D01*
X127753333Y-75700666D01*
X127786666Y-75667333D01*
X127853333Y-75634000D01*
X127986666Y-75634000D01*
X128053333Y-75667333D01*
X128386666Y-76100666D02*
X128386666Y-75634000D01*
X128386666Y-75400666D02*
X128353333Y-75434000D01*
X128386666Y-75467333D01*
X128420000Y-75434000D01*
X128386666Y-75400666D01*
X128386666Y-75467333D01*
X128686666Y-76067333D02*
X128753333Y-76100666D01*
X128886666Y-76100666D01*
X128953333Y-76067333D01*
X128986666Y-76000666D01*
X128986666Y-75967333D01*
X128953333Y-75900666D01*
X128886666Y-75867333D01*
X128786666Y-75867333D01*
X128720000Y-75834000D01*
X128686666Y-75767333D01*
X128686666Y-75734000D01*
X128720000Y-75667333D01*
X128786666Y-75634000D01*
X128886666Y-75634000D01*
X128953333Y-75667333D01*
X129286666Y-75634000D02*
X129286666Y-76334000D01*
X129286666Y-75667333D02*
X129353333Y-75634000D01*
X129486666Y-75634000D01*
X129553333Y-75667333D01*
X129586666Y-75700666D01*
X129620000Y-75767333D01*
X129620000Y-75967333D01*
X129586666Y-76034000D01*
X129553333Y-76067333D01*
X129486666Y-76100666D01*
X129353333Y-76100666D01*
X129286666Y-76067333D01*
X130020000Y-76100666D02*
X129953333Y-76067333D01*
X129920000Y-76000666D01*
X129920000Y-75400666D01*
X130586666Y-76100666D02*
X130586666Y-75734000D01*
X130553333Y-75667333D01*
X130486666Y-75634000D01*
X130353333Y-75634000D01*
X130286666Y-75667333D01*
X130586666Y-76067333D02*
X130520000Y-76100666D01*
X130353333Y-76100666D01*
X130286666Y-76067333D01*
X130253333Y-76000666D01*
X130253333Y-75934000D01*
X130286666Y-75867333D01*
X130353333Y-75834000D01*
X130520000Y-75834000D01*
X130586666Y-75800666D01*
X130853333Y-75634000D02*
X131020000Y-76100666D01*
X131186666Y-75634000D02*
X131020000Y-76100666D01*
X130953333Y-76267333D01*
X130920000Y-76300666D01*
X130853333Y-76334000D01*
X135661428Y-97141142D02*
X135661428Y-97784000D01*
X135618571Y-97912571D01*
X135532857Y-97998285D01*
X135404285Y-98041142D01*
X135318571Y-98041142D01*
X136561428Y-98041142D02*
X136047142Y-98041142D01*
X136304285Y-98041142D02*
X136304285Y-97141142D01*
X136218571Y-97269714D01*
X136132857Y-97355428D01*
X136047142Y-97398285D01*
X137118571Y-97141142D02*
X137204285Y-97141142D01*
X137290000Y-97184000D01*
X137332857Y-97226857D01*
X137375714Y-97312571D01*
X137418571Y-97484000D01*
X137418571Y-97698285D01*
X137375714Y-97869714D01*
X137332857Y-97955428D01*
X137290000Y-97998285D01*
X137204285Y-98041142D01*
X137118571Y-98041142D01*
X137032857Y-97998285D01*
X136990000Y-97955428D01*
X136947142Y-97869714D01*
X136904285Y-97698285D01*
X136904285Y-97484000D01*
X136947142Y-97312571D01*
X136990000Y-97226857D01*
X137032857Y-97184000D01*
X137118571Y-97141142D01*
X136788571Y-105241142D02*
X136788571Y-104341142D01*
X137131428Y-104341142D01*
X137217142Y-104384000D01*
X137260000Y-104426857D01*
X137302857Y-104512571D01*
X137302857Y-104641142D01*
X137260000Y-104726857D01*
X137217142Y-104769714D01*
X137131428Y-104812571D01*
X136788571Y-104812571D01*
X137945714Y-104341142D02*
X137945714Y-104984000D01*
X137902857Y-105112571D01*
X137817142Y-105198285D01*
X137688571Y-105241142D01*
X137602857Y-105241142D01*
X138374285Y-104898285D02*
X139060000Y-104898285D01*
X139660000Y-104341142D02*
X139745714Y-104341142D01*
X139831428Y-104384000D01*
X139874285Y-104426857D01*
X139917142Y-104512571D01*
X139960000Y-104684000D01*
X139960000Y-104898285D01*
X139917142Y-105069714D01*
X139874285Y-105155428D01*
X139831428Y-105198285D01*
X139745714Y-105241142D01*
X139660000Y-105241142D01*
X139574285Y-105198285D01*
X139531428Y-105155428D01*
X139488571Y-105069714D01*
X139445714Y-104898285D01*
X139445714Y-104684000D01*
X139488571Y-104512571D01*
X139531428Y-104426857D01*
X139574285Y-104384000D01*
X139660000Y-104341142D01*
X140260000Y-104341142D02*
X140817142Y-104341142D01*
X140517142Y-104684000D01*
X140645714Y-104684000D01*
X140731428Y-104726857D01*
X140774285Y-104769714D01*
X140817142Y-104855428D01*
X140817142Y-105069714D01*
X140774285Y-105155428D01*
X140731428Y-105198285D01*
X140645714Y-105241142D01*
X140388571Y-105241142D01*
X140302857Y-105198285D01*
X140260000Y-105155428D01*
X141117142Y-104341142D02*
X141717142Y-104341142D01*
X141331428Y-105241142D01*
X142360000Y-104769714D02*
X142488571Y-104812571D01*
X142531428Y-104855428D01*
X142574285Y-104941142D01*
X142574285Y-105069714D01*
X142531428Y-105155428D01*
X142488571Y-105198285D01*
X142402857Y-105241142D01*
X142060000Y-105241142D01*
X142060000Y-104341142D01*
X142360000Y-104341142D01*
X142445714Y-104384000D01*
X142488571Y-104426857D01*
X142531428Y-104512571D01*
X142531428Y-104598285D01*
X142488571Y-104684000D01*
X142445714Y-104726857D01*
X142360000Y-104769714D01*
X142060000Y-104769714D01*
X130506666Y-115936380D02*
X130506666Y-116650666D01*
X130459047Y-116793523D01*
X130363809Y-116888761D01*
X130220952Y-116936380D01*
X130125714Y-116936380D01*
X131459047Y-115936380D02*
X130982857Y-115936380D01*
X130935238Y-116412571D01*
X130982857Y-116364952D01*
X131078095Y-116317333D01*
X131316190Y-116317333D01*
X131411428Y-116364952D01*
X131459047Y-116412571D01*
X131506666Y-116507809D01*
X131506666Y-116745904D01*
X131459047Y-116841142D01*
X131411428Y-116888761D01*
X131316190Y-116936380D01*
X131078095Y-116936380D01*
X130982857Y-116888761D01*
X130935238Y-116841142D01*
X95526666Y-106254000D02*
X95293333Y-106254000D01*
X95293333Y-106620666D02*
X95293333Y-105920666D01*
X95626666Y-105920666D01*
X96126666Y-106254000D02*
X96226666Y-106287333D01*
X96260000Y-106320666D01*
X96293333Y-106387333D01*
X96293333Y-106487333D01*
X96260000Y-106554000D01*
X96226666Y-106587333D01*
X96160000Y-106620666D01*
X95893333Y-106620666D01*
X95893333Y-105920666D01*
X96126666Y-105920666D01*
X96193333Y-105954000D01*
X96226666Y-105987333D01*
X96260000Y-106054000D01*
X96260000Y-106120666D01*
X96226666Y-106187333D01*
X96193333Y-106220666D01*
X96126666Y-106254000D01*
X95893333Y-106254000D01*
X96526666Y-105920666D02*
X96960000Y-105920666D01*
X96726666Y-106187333D01*
X96826666Y-106187333D01*
X96893333Y-106220666D01*
X96926666Y-106254000D01*
X96960000Y-106320666D01*
X96960000Y-106487333D01*
X96926666Y-106554000D01*
X96893333Y-106587333D01*
X96826666Y-106620666D01*
X96626666Y-106620666D01*
X96560000Y-106587333D01*
X96526666Y-106554000D01*
X110006666Y-107054000D02*
X109773333Y-107054000D01*
X109773333Y-107420666D02*
X109773333Y-106720666D01*
X110106666Y-106720666D01*
X110606666Y-107054000D02*
X110706666Y-107087333D01*
X110740000Y-107120666D01*
X110773333Y-107187333D01*
X110773333Y-107287333D01*
X110740000Y-107354000D01*
X110706666Y-107387333D01*
X110640000Y-107420666D01*
X110373333Y-107420666D01*
X110373333Y-106720666D01*
X110606666Y-106720666D01*
X110673333Y-106754000D01*
X110706666Y-106787333D01*
X110740000Y-106854000D01*
X110740000Y-106920666D01*
X110706666Y-106987333D01*
X110673333Y-107020666D01*
X110606666Y-107054000D01*
X110373333Y-107054000D01*
X111040000Y-106787333D02*
X111073333Y-106754000D01*
X111140000Y-106720666D01*
X111306666Y-106720666D01*
X111373333Y-106754000D01*
X111406666Y-106787333D01*
X111440000Y-106854000D01*
X111440000Y-106920666D01*
X111406666Y-107020666D01*
X111006666Y-107420666D01*
X111440000Y-107420666D01*
X131640000Y-99897333D02*
X131640000Y-100130666D01*
X132006666Y-100130666D02*
X131306666Y-100130666D01*
X131306666Y-99797333D01*
X131640000Y-99297333D02*
X131673333Y-99197333D01*
X131706666Y-99164000D01*
X131773333Y-99130666D01*
X131873333Y-99130666D01*
X131940000Y-99164000D01*
X131973333Y-99197333D01*
X132006666Y-99264000D01*
X132006666Y-99530666D01*
X131306666Y-99530666D01*
X131306666Y-99297333D01*
X131340000Y-99230666D01*
X131373333Y-99197333D01*
X131440000Y-99164000D01*
X131506666Y-99164000D01*
X131573333Y-99197333D01*
X131606666Y-99230666D01*
X131640000Y-99297333D01*
X131640000Y-99530666D01*
X132006666Y-98464000D02*
X132006666Y-98864000D01*
X132006666Y-98664000D02*
X131306666Y-98664000D01*
X131406666Y-98730666D01*
X131473333Y-98797333D01*
X131506666Y-98864000D01*
X93086666Y-107494000D02*
X92853333Y-107494000D01*
X92853333Y-107860666D02*
X92853333Y-107160666D01*
X93186666Y-107160666D01*
X93420000Y-107227333D02*
X93453333Y-107194000D01*
X93520000Y-107160666D01*
X93686666Y-107160666D01*
X93753333Y-107194000D01*
X93786666Y-107227333D01*
X93820000Y-107294000D01*
X93820000Y-107360666D01*
X93786666Y-107460666D01*
X93386666Y-107860666D01*
X93820000Y-107860666D01*
X110540000Y-115737333D02*
X110540000Y-115970666D01*
X110906666Y-115970666D02*
X110206666Y-115970666D01*
X110206666Y-115637333D01*
X110906666Y-115004000D02*
X110906666Y-115404000D01*
X110906666Y-115204000D02*
X110206666Y-115204000D01*
X110306666Y-115270666D01*
X110373333Y-115337333D01*
X110406666Y-115404000D01*
X131606666Y-95230666D02*
X131606666Y-94530666D01*
X131773333Y-94530666D01*
X131873333Y-94564000D01*
X131940000Y-94630666D01*
X131973333Y-94697333D01*
X132006666Y-94830666D01*
X132006666Y-94930666D01*
X131973333Y-95064000D01*
X131940000Y-95130666D01*
X131873333Y-95197333D01*
X131773333Y-95230666D01*
X131606666Y-95230666D01*
X132273333Y-94597333D02*
X132306666Y-94564000D01*
X132373333Y-94530666D01*
X132540000Y-94530666D01*
X132606666Y-94564000D01*
X132640000Y-94597333D01*
X132673333Y-94664000D01*
X132673333Y-94730666D01*
X132640000Y-94830666D01*
X132240000Y-95230666D01*
X132673333Y-95230666D01*
X133106666Y-94530666D02*
X133173333Y-94530666D01*
X133240000Y-94564000D01*
X133273333Y-94597333D01*
X133306666Y-94664000D01*
X133340000Y-94797333D01*
X133340000Y-94964000D01*
X133306666Y-95097333D01*
X133273333Y-95164000D01*
X133240000Y-95197333D01*
X133173333Y-95230666D01*
X133106666Y-95230666D01*
X133040000Y-95197333D01*
X133006666Y-95164000D01*
X132973333Y-95097333D01*
X132940000Y-94964000D01*
X132940000Y-94797333D01*
X132973333Y-94664000D01*
X133006666Y-94597333D01*
X133040000Y-94564000D01*
X133106666Y-94530666D01*
X134006666Y-95230666D02*
X133606666Y-95230666D01*
X133806666Y-95230666D02*
X133806666Y-94530666D01*
X133740000Y-94630666D01*
X133673333Y-94697333D01*
X133606666Y-94730666D01*
X131960000Y-97404000D02*
X131926666Y-97437333D01*
X131826666Y-97470666D01*
X131760000Y-97470666D01*
X131660000Y-97437333D01*
X131593333Y-97370666D01*
X131560000Y-97304000D01*
X131526666Y-97170666D01*
X131526666Y-97070666D01*
X131560000Y-96937333D01*
X131593333Y-96870666D01*
X131660000Y-96804000D01*
X131760000Y-96770666D01*
X131826666Y-96770666D01*
X131926666Y-96804000D01*
X131960000Y-96837333D01*
X132260000Y-97470666D02*
X132260000Y-96770666D01*
X132260000Y-97104000D02*
X132660000Y-97104000D01*
X132660000Y-97470666D02*
X132660000Y-96770666D01*
X133393333Y-97470666D02*
X133160000Y-97137333D01*
X132993333Y-97470666D02*
X132993333Y-96770666D01*
X133260000Y-96770666D01*
X133326666Y-96804000D01*
X133360000Y-96837333D01*
X133393333Y-96904000D01*
X133393333Y-97004000D01*
X133360000Y-97070666D01*
X133326666Y-97104000D01*
X133260000Y-97137333D01*
X132993333Y-97137333D01*
X134060000Y-96804000D02*
X133993333Y-96770666D01*
X133893333Y-96770666D01*
X133793333Y-96804000D01*
X133726666Y-96870666D01*
X133693333Y-96937333D01*
X133660000Y-97070666D01*
X133660000Y-97170666D01*
X133693333Y-97304000D01*
X133726666Y-97370666D01*
X133793333Y-97437333D01*
X133893333Y-97470666D01*
X133960000Y-97470666D01*
X134060000Y-97437333D01*
X134093333Y-97404000D01*
X134093333Y-97170666D01*
X133960000Y-97170666D01*
X92923333Y-105360666D02*
X92923333Y-104660666D01*
X93090000Y-104660666D01*
X93190000Y-104694000D01*
X93256666Y-104760666D01*
X93290000Y-104827333D01*
X93323333Y-104960666D01*
X93323333Y-105060666D01*
X93290000Y-105194000D01*
X93256666Y-105260666D01*
X93190000Y-105327333D01*
X93090000Y-105360666D01*
X92923333Y-105360666D01*
X93556666Y-104660666D02*
X93990000Y-104660666D01*
X93756666Y-104927333D01*
X93856666Y-104927333D01*
X93923333Y-104960666D01*
X93956666Y-104994000D01*
X93990000Y-105060666D01*
X93990000Y-105227333D01*
X93956666Y-105294000D01*
X93923333Y-105327333D01*
X93856666Y-105360666D01*
X93656666Y-105360666D01*
X93590000Y-105327333D01*
X93556666Y-105294000D01*
X113343333Y-107840666D02*
X113343333Y-107140666D01*
X113510000Y-107140666D01*
X113610000Y-107174000D01*
X113676666Y-107240666D01*
X113710000Y-107307333D01*
X113743333Y-107440666D01*
X113743333Y-107540666D01*
X113710000Y-107674000D01*
X113676666Y-107740666D01*
X113610000Y-107807333D01*
X113510000Y-107840666D01*
X113343333Y-107840666D01*
X114010000Y-107207333D02*
X114043333Y-107174000D01*
X114110000Y-107140666D01*
X114276666Y-107140666D01*
X114343333Y-107174000D01*
X114376666Y-107207333D01*
X114410000Y-107274000D01*
X114410000Y-107340666D01*
X114376666Y-107440666D01*
X113976666Y-107840666D01*
X114410000Y-107840666D01*
X107856666Y-98844000D02*
X107823333Y-98877333D01*
X107723333Y-98910666D01*
X107656666Y-98910666D01*
X107556666Y-98877333D01*
X107490000Y-98810666D01*
X107456666Y-98744000D01*
X107423333Y-98610666D01*
X107423333Y-98510666D01*
X107456666Y-98377333D01*
X107490000Y-98310666D01*
X107556666Y-98244000D01*
X107656666Y-98210666D01*
X107723333Y-98210666D01*
X107823333Y-98244000D01*
X107856666Y-98277333D01*
X108090000Y-98210666D02*
X108523333Y-98210666D01*
X108290000Y-98477333D01*
X108390000Y-98477333D01*
X108456666Y-98510666D01*
X108490000Y-98544000D01*
X108523333Y-98610666D01*
X108523333Y-98777333D01*
X108490000Y-98844000D01*
X108456666Y-98877333D01*
X108390000Y-98910666D01*
X108190000Y-98910666D01*
X108123333Y-98877333D01*
X108090000Y-98844000D01*
X109190000Y-98910666D02*
X108790000Y-98910666D01*
X108990000Y-98910666D02*
X108990000Y-98210666D01*
X108923333Y-98310666D01*
X108856666Y-98377333D01*
X108790000Y-98410666D01*
X109456666Y-98277333D02*
X109490000Y-98244000D01*
X109556666Y-98210666D01*
X109723333Y-98210666D01*
X109790000Y-98244000D01*
X109823333Y-98277333D01*
X109856666Y-98344000D01*
X109856666Y-98410666D01*
X109823333Y-98510666D01*
X109423333Y-98910666D01*
X109856666Y-98910666D01*
X106593333Y-103214000D02*
X106593333Y-103680666D01*
X106426666Y-102947333D02*
X106260000Y-103447333D01*
X106693333Y-103447333D01*
X106893333Y-102980666D02*
X107360000Y-102980666D01*
X107060000Y-103680666D01*
X107926666Y-103214000D02*
X107926666Y-103680666D01*
X107626666Y-103214000D02*
X107626666Y-103580666D01*
X107660000Y-103647333D01*
X107726666Y-103680666D01*
X107826666Y-103680666D01*
X107893333Y-103647333D01*
X107926666Y-103614000D01*
X108493333Y-103314000D02*
X108260000Y-103314000D01*
X108260000Y-103680666D02*
X108260000Y-102980666D01*
X108593333Y-102980666D01*
X111294047Y-97821428D02*
X112055952Y-97821428D01*
X111675000Y-98202380D02*
X111675000Y-97440476D01*
X112796666Y-89374000D02*
X112763333Y-89407333D01*
X112663333Y-89440666D01*
X112596666Y-89440666D01*
X112496666Y-89407333D01*
X112430000Y-89340666D01*
X112396666Y-89274000D01*
X112363333Y-89140666D01*
X112363333Y-89040666D01*
X112396666Y-88907333D01*
X112430000Y-88840666D01*
X112496666Y-88774000D01*
X112596666Y-88740666D01*
X112663333Y-88740666D01*
X112763333Y-88774000D01*
X112796666Y-88807333D01*
X113030000Y-88740666D02*
X113463333Y-88740666D01*
X113230000Y-89007333D01*
X113330000Y-89007333D01*
X113396666Y-89040666D01*
X113430000Y-89074000D01*
X113463333Y-89140666D01*
X113463333Y-89307333D01*
X113430000Y-89374000D01*
X113396666Y-89407333D01*
X113330000Y-89440666D01*
X113130000Y-89440666D01*
X113063333Y-89407333D01*
X113030000Y-89374000D01*
X114130000Y-89440666D02*
X113730000Y-89440666D01*
X113930000Y-89440666D02*
X113930000Y-88740666D01*
X113863333Y-88840666D01*
X113796666Y-88907333D01*
X113730000Y-88940666D01*
X114796666Y-89440666D02*
X114396666Y-89440666D01*
X114596666Y-89440666D02*
X114596666Y-88740666D01*
X114530000Y-88840666D01*
X114463333Y-88907333D01*
X114396666Y-88940666D01*
X91656666Y-84654000D02*
X91623333Y-84687333D01*
X91523333Y-84720666D01*
X91456666Y-84720666D01*
X91356666Y-84687333D01*
X91290000Y-84620666D01*
X91256666Y-84554000D01*
X91223333Y-84420666D01*
X91223333Y-84320666D01*
X91256666Y-84187333D01*
X91290000Y-84120666D01*
X91356666Y-84054000D01*
X91456666Y-84020666D01*
X91523333Y-84020666D01*
X91623333Y-84054000D01*
X91656666Y-84087333D01*
X91890000Y-84020666D02*
X92323333Y-84020666D01*
X92090000Y-84287333D01*
X92190000Y-84287333D01*
X92256666Y-84320666D01*
X92290000Y-84354000D01*
X92323333Y-84420666D01*
X92323333Y-84587333D01*
X92290000Y-84654000D01*
X92256666Y-84687333D01*
X92190000Y-84720666D01*
X91990000Y-84720666D01*
X91923333Y-84687333D01*
X91890000Y-84654000D01*
X92990000Y-84720666D02*
X92590000Y-84720666D01*
X92790000Y-84720666D02*
X92790000Y-84020666D01*
X92723333Y-84120666D01*
X92656666Y-84187333D01*
X92590000Y-84220666D01*
X93423333Y-84020666D02*
X93490000Y-84020666D01*
X93556666Y-84054000D01*
X93590000Y-84087333D01*
X93623333Y-84154000D01*
X93656666Y-84287333D01*
X93656666Y-84454000D01*
X93623333Y-84587333D01*
X93590000Y-84654000D01*
X93556666Y-84687333D01*
X93490000Y-84720666D01*
X93423333Y-84720666D01*
X93356666Y-84687333D01*
X93323333Y-84654000D01*
X93290000Y-84587333D01*
X93256666Y-84454000D01*
X93256666Y-84287333D01*
X93290000Y-84154000D01*
X93323333Y-84087333D01*
X93356666Y-84054000D01*
X93423333Y-84020666D01*
X112306666Y-95324000D02*
X112273333Y-95357333D01*
X112173333Y-95390666D01*
X112106666Y-95390666D01*
X112006666Y-95357333D01*
X111940000Y-95290666D01*
X111906666Y-95224000D01*
X111873333Y-95090666D01*
X111873333Y-94990666D01*
X111906666Y-94857333D01*
X111940000Y-94790666D01*
X112006666Y-94724000D01*
X112106666Y-94690666D01*
X112173333Y-94690666D01*
X112273333Y-94724000D01*
X112306666Y-94757333D01*
X112540000Y-94690666D02*
X112973333Y-94690666D01*
X112740000Y-94957333D01*
X112840000Y-94957333D01*
X112906666Y-94990666D01*
X112940000Y-95024000D01*
X112973333Y-95090666D01*
X112973333Y-95257333D01*
X112940000Y-95324000D01*
X112906666Y-95357333D01*
X112840000Y-95390666D01*
X112640000Y-95390666D01*
X112573333Y-95357333D01*
X112540000Y-95324000D01*
X113406666Y-94690666D02*
X113473333Y-94690666D01*
X113540000Y-94724000D01*
X113573333Y-94757333D01*
X113606666Y-94824000D01*
X113640000Y-94957333D01*
X113640000Y-95124000D01*
X113606666Y-95257333D01*
X113573333Y-95324000D01*
X113540000Y-95357333D01*
X113473333Y-95390666D01*
X113406666Y-95390666D01*
X113340000Y-95357333D01*
X113306666Y-95324000D01*
X113273333Y-95257333D01*
X113240000Y-95124000D01*
X113240000Y-94957333D01*
X113273333Y-94824000D01*
X113306666Y-94757333D01*
X113340000Y-94724000D01*
X113406666Y-94690666D01*
X113973333Y-95390666D02*
X114106666Y-95390666D01*
X114173333Y-95357333D01*
X114206666Y-95324000D01*
X114273333Y-95224000D01*
X114306666Y-95090666D01*
X114306666Y-94824000D01*
X114273333Y-94757333D01*
X114240000Y-94724000D01*
X114173333Y-94690666D01*
X114040000Y-94690666D01*
X113973333Y-94724000D01*
X113940000Y-94757333D01*
X113906666Y-94824000D01*
X113906666Y-94990666D01*
X113940000Y-95057333D01*
X113973333Y-95090666D01*
X114040000Y-95124000D01*
X114173333Y-95124000D01*
X114240000Y-95090666D01*
X114273333Y-95057333D01*
X114306666Y-94990666D01*
X97690000Y-87777333D02*
X97723333Y-87810666D01*
X97756666Y-87910666D01*
X97756666Y-87977333D01*
X97723333Y-88077333D01*
X97656666Y-88144000D01*
X97590000Y-88177333D01*
X97456666Y-88210666D01*
X97356666Y-88210666D01*
X97223333Y-88177333D01*
X97156666Y-88144000D01*
X97090000Y-88077333D01*
X97056666Y-87977333D01*
X97056666Y-87910666D01*
X97090000Y-87810666D01*
X97123333Y-87777333D01*
X97056666Y-87544000D02*
X97056666Y-87110666D01*
X97323333Y-87344000D01*
X97323333Y-87244000D01*
X97356666Y-87177333D01*
X97390000Y-87144000D01*
X97456666Y-87110666D01*
X97623333Y-87110666D01*
X97690000Y-87144000D01*
X97723333Y-87177333D01*
X97756666Y-87244000D01*
X97756666Y-87444000D01*
X97723333Y-87510666D01*
X97690000Y-87544000D01*
X97056666Y-86677333D02*
X97056666Y-86610666D01*
X97090000Y-86544000D01*
X97123333Y-86510666D01*
X97190000Y-86477333D01*
X97323333Y-86444000D01*
X97490000Y-86444000D01*
X97623333Y-86477333D01*
X97690000Y-86510666D01*
X97723333Y-86544000D01*
X97756666Y-86610666D01*
X97756666Y-86677333D01*
X97723333Y-86744000D01*
X97690000Y-86777333D01*
X97623333Y-86810666D01*
X97490000Y-86844000D01*
X97323333Y-86844000D01*
X97190000Y-86810666D01*
X97123333Y-86777333D01*
X97090000Y-86744000D01*
X97056666Y-86677333D01*
X97356666Y-86044000D02*
X97323333Y-86110666D01*
X97290000Y-86144000D01*
X97223333Y-86177333D01*
X97190000Y-86177333D01*
X97123333Y-86144000D01*
X97090000Y-86110666D01*
X97056666Y-86044000D01*
X97056666Y-85910666D01*
X97090000Y-85844000D01*
X97123333Y-85810666D01*
X97190000Y-85777333D01*
X97223333Y-85777333D01*
X97290000Y-85810666D01*
X97323333Y-85844000D01*
X97356666Y-85910666D01*
X97356666Y-86044000D01*
X97390000Y-86110666D01*
X97423333Y-86144000D01*
X97490000Y-86177333D01*
X97623333Y-86177333D01*
X97690000Y-86144000D01*
X97723333Y-86110666D01*
X97756666Y-86044000D01*
X97756666Y-85910666D01*
X97723333Y-85844000D01*
X97690000Y-85810666D01*
X97623333Y-85777333D01*
X97490000Y-85777333D01*
X97423333Y-85810666D01*
X97390000Y-85844000D01*
X97356666Y-85910666D01*
X103960000Y-85277333D02*
X103993333Y-85310666D01*
X104026666Y-85410666D01*
X104026666Y-85477333D01*
X103993333Y-85577333D01*
X103926666Y-85644000D01*
X103860000Y-85677333D01*
X103726666Y-85710666D01*
X103626666Y-85710666D01*
X103493333Y-85677333D01*
X103426666Y-85644000D01*
X103360000Y-85577333D01*
X103326666Y-85477333D01*
X103326666Y-85410666D01*
X103360000Y-85310666D01*
X103393333Y-85277333D01*
X103326666Y-85044000D02*
X103326666Y-84610666D01*
X103593333Y-84844000D01*
X103593333Y-84744000D01*
X103626666Y-84677333D01*
X103660000Y-84644000D01*
X103726666Y-84610666D01*
X103893333Y-84610666D01*
X103960000Y-84644000D01*
X103993333Y-84677333D01*
X104026666Y-84744000D01*
X104026666Y-84944000D01*
X103993333Y-85010666D01*
X103960000Y-85044000D01*
X103326666Y-84177333D02*
X103326666Y-84110666D01*
X103360000Y-84044000D01*
X103393333Y-84010666D01*
X103460000Y-83977333D01*
X103593333Y-83944000D01*
X103760000Y-83944000D01*
X103893333Y-83977333D01*
X103960000Y-84010666D01*
X103993333Y-84044000D01*
X104026666Y-84110666D01*
X104026666Y-84177333D01*
X103993333Y-84244000D01*
X103960000Y-84277333D01*
X103893333Y-84310666D01*
X103760000Y-84344000D01*
X103593333Y-84344000D01*
X103460000Y-84310666D01*
X103393333Y-84277333D01*
X103360000Y-84244000D01*
X103326666Y-84177333D01*
X103326666Y-83710666D02*
X103326666Y-83244000D01*
X104026666Y-83544000D01*
X98596666Y-98934000D02*
X98563333Y-98967333D01*
X98463333Y-99000666D01*
X98396666Y-99000666D01*
X98296666Y-98967333D01*
X98230000Y-98900666D01*
X98196666Y-98834000D01*
X98163333Y-98700666D01*
X98163333Y-98600666D01*
X98196666Y-98467333D01*
X98230000Y-98400666D01*
X98296666Y-98334000D01*
X98396666Y-98300666D01*
X98463333Y-98300666D01*
X98563333Y-98334000D01*
X98596666Y-98367333D01*
X98830000Y-98300666D02*
X99263333Y-98300666D01*
X99030000Y-98567333D01*
X99130000Y-98567333D01*
X99196666Y-98600666D01*
X99230000Y-98634000D01*
X99263333Y-98700666D01*
X99263333Y-98867333D01*
X99230000Y-98934000D01*
X99196666Y-98967333D01*
X99130000Y-99000666D01*
X98930000Y-99000666D01*
X98863333Y-98967333D01*
X98830000Y-98934000D01*
X99696666Y-98300666D02*
X99763333Y-98300666D01*
X99830000Y-98334000D01*
X99863333Y-98367333D01*
X99896666Y-98434000D01*
X99930000Y-98567333D01*
X99930000Y-98734000D01*
X99896666Y-98867333D01*
X99863333Y-98934000D01*
X99830000Y-98967333D01*
X99763333Y-99000666D01*
X99696666Y-99000666D01*
X99630000Y-98967333D01*
X99596666Y-98934000D01*
X99563333Y-98867333D01*
X99530000Y-98734000D01*
X99530000Y-98567333D01*
X99563333Y-98434000D01*
X99596666Y-98367333D01*
X99630000Y-98334000D01*
X99696666Y-98300666D01*
X100530000Y-98300666D02*
X100396666Y-98300666D01*
X100330000Y-98334000D01*
X100296666Y-98367333D01*
X100230000Y-98467333D01*
X100196666Y-98600666D01*
X100196666Y-98867333D01*
X100230000Y-98934000D01*
X100263333Y-98967333D01*
X100330000Y-99000666D01*
X100463333Y-99000666D01*
X100530000Y-98967333D01*
X100563333Y-98934000D01*
X100596666Y-98867333D01*
X100596666Y-98700666D01*
X100563333Y-98634000D01*
X100530000Y-98600666D01*
X100463333Y-98567333D01*
X100330000Y-98567333D01*
X100263333Y-98600666D01*
X100230000Y-98634000D01*
X100196666Y-98700666D01*
X95336666Y-98914000D02*
X95303333Y-98947333D01*
X95203333Y-98980666D01*
X95136666Y-98980666D01*
X95036666Y-98947333D01*
X94970000Y-98880666D01*
X94936666Y-98814000D01*
X94903333Y-98680666D01*
X94903333Y-98580666D01*
X94936666Y-98447333D01*
X94970000Y-98380666D01*
X95036666Y-98314000D01*
X95136666Y-98280666D01*
X95203333Y-98280666D01*
X95303333Y-98314000D01*
X95336666Y-98347333D01*
X95570000Y-98280666D02*
X96003333Y-98280666D01*
X95770000Y-98547333D01*
X95870000Y-98547333D01*
X95936666Y-98580666D01*
X95970000Y-98614000D01*
X96003333Y-98680666D01*
X96003333Y-98847333D01*
X95970000Y-98914000D01*
X95936666Y-98947333D01*
X95870000Y-98980666D01*
X95670000Y-98980666D01*
X95603333Y-98947333D01*
X95570000Y-98914000D01*
X96436666Y-98280666D02*
X96503333Y-98280666D01*
X96570000Y-98314000D01*
X96603333Y-98347333D01*
X96636666Y-98414000D01*
X96670000Y-98547333D01*
X96670000Y-98714000D01*
X96636666Y-98847333D01*
X96603333Y-98914000D01*
X96570000Y-98947333D01*
X96503333Y-98980666D01*
X96436666Y-98980666D01*
X96370000Y-98947333D01*
X96336666Y-98914000D01*
X96303333Y-98847333D01*
X96270000Y-98714000D01*
X96270000Y-98547333D01*
X96303333Y-98414000D01*
X96336666Y-98347333D01*
X96370000Y-98314000D01*
X96436666Y-98280666D01*
X97303333Y-98280666D02*
X96970000Y-98280666D01*
X96936666Y-98614000D01*
X96970000Y-98580666D01*
X97036666Y-98547333D01*
X97203333Y-98547333D01*
X97270000Y-98580666D01*
X97303333Y-98614000D01*
X97336666Y-98680666D01*
X97336666Y-98847333D01*
X97303333Y-98914000D01*
X97270000Y-98947333D01*
X97203333Y-98980666D01*
X97036666Y-98980666D01*
X96970000Y-98947333D01*
X96936666Y-98914000D01*
X94546666Y-104071000D02*
X94513333Y-104104333D01*
X94413333Y-104137666D01*
X94346666Y-104137666D01*
X94246666Y-104104333D01*
X94180000Y-104037666D01*
X94146666Y-103971000D01*
X94113333Y-103837666D01*
X94113333Y-103737666D01*
X94146666Y-103604333D01*
X94180000Y-103537666D01*
X94246666Y-103471000D01*
X94346666Y-103437666D01*
X94413333Y-103437666D01*
X94513333Y-103471000D01*
X94546666Y-103504333D01*
X94780000Y-103437666D02*
X95213333Y-103437666D01*
X94980000Y-103704333D01*
X95080000Y-103704333D01*
X95146666Y-103737666D01*
X95180000Y-103771000D01*
X95213333Y-103837666D01*
X95213333Y-104004333D01*
X95180000Y-104071000D01*
X95146666Y-104104333D01*
X95080000Y-104137666D01*
X94880000Y-104137666D01*
X94813333Y-104104333D01*
X94780000Y-104071000D01*
X95646666Y-103437666D02*
X95713333Y-103437666D01*
X95780000Y-103471000D01*
X95813333Y-103504333D01*
X95846666Y-103571000D01*
X95880000Y-103704333D01*
X95880000Y-103871000D01*
X95846666Y-104004333D01*
X95813333Y-104071000D01*
X95780000Y-104104333D01*
X95713333Y-104137666D01*
X95646666Y-104137666D01*
X95580000Y-104104333D01*
X95546666Y-104071000D01*
X95513333Y-104004333D01*
X95480000Y-103871000D01*
X95480000Y-103704333D01*
X95513333Y-103571000D01*
X95546666Y-103504333D01*
X95580000Y-103471000D01*
X95646666Y-103437666D01*
X96113333Y-103437666D02*
X96546666Y-103437666D01*
X96313333Y-103704333D01*
X96413333Y-103704333D01*
X96480000Y-103737666D01*
X96513333Y-103771000D01*
X96546666Y-103837666D01*
X96546666Y-104004333D01*
X96513333Y-104071000D01*
X96480000Y-104104333D01*
X96413333Y-104137666D01*
X96213333Y-104137666D01*
X96146666Y-104104333D01*
X96113333Y-104071000D01*
X99366666Y-103934000D02*
X99333333Y-103967333D01*
X99233333Y-104000666D01*
X99166666Y-104000666D01*
X99066666Y-103967333D01*
X99000000Y-103900666D01*
X98966666Y-103834000D01*
X98933333Y-103700666D01*
X98933333Y-103600666D01*
X98966666Y-103467333D01*
X99000000Y-103400666D01*
X99066666Y-103334000D01*
X99166666Y-103300666D01*
X99233333Y-103300666D01*
X99333333Y-103334000D01*
X99366666Y-103367333D01*
X99600000Y-103300666D02*
X100033333Y-103300666D01*
X99800000Y-103567333D01*
X99900000Y-103567333D01*
X99966666Y-103600666D01*
X100000000Y-103634000D01*
X100033333Y-103700666D01*
X100033333Y-103867333D01*
X100000000Y-103934000D01*
X99966666Y-103967333D01*
X99900000Y-104000666D01*
X99700000Y-104000666D01*
X99633333Y-103967333D01*
X99600000Y-103934000D01*
X100466666Y-103300666D02*
X100533333Y-103300666D01*
X100600000Y-103334000D01*
X100633333Y-103367333D01*
X100666666Y-103434000D01*
X100700000Y-103567333D01*
X100700000Y-103734000D01*
X100666666Y-103867333D01*
X100633333Y-103934000D01*
X100600000Y-103967333D01*
X100533333Y-104000666D01*
X100466666Y-104000666D01*
X100400000Y-103967333D01*
X100366666Y-103934000D01*
X100333333Y-103867333D01*
X100300000Y-103734000D01*
X100300000Y-103567333D01*
X100333333Y-103434000D01*
X100366666Y-103367333D01*
X100400000Y-103334000D01*
X100466666Y-103300666D01*
X100966666Y-103367333D02*
X101000000Y-103334000D01*
X101066666Y-103300666D01*
X101233333Y-103300666D01*
X101300000Y-103334000D01*
X101333333Y-103367333D01*
X101366666Y-103434000D01*
X101366666Y-103500666D01*
X101333333Y-103600666D01*
X100933333Y-104000666D01*
X101366666Y-104000666D01*
X92920000Y-96397333D02*
X92953333Y-96430666D01*
X92986666Y-96530666D01*
X92986666Y-96597333D01*
X92953333Y-96697333D01*
X92886666Y-96764000D01*
X92820000Y-96797333D01*
X92686666Y-96830666D01*
X92586666Y-96830666D01*
X92453333Y-96797333D01*
X92386666Y-96764000D01*
X92320000Y-96697333D01*
X92286666Y-96597333D01*
X92286666Y-96530666D01*
X92320000Y-96430666D01*
X92353333Y-96397333D01*
X92286666Y-96164000D02*
X92286666Y-95730666D01*
X92553333Y-95964000D01*
X92553333Y-95864000D01*
X92586666Y-95797333D01*
X92620000Y-95764000D01*
X92686666Y-95730666D01*
X92853333Y-95730666D01*
X92920000Y-95764000D01*
X92953333Y-95797333D01*
X92986666Y-95864000D01*
X92986666Y-96064000D01*
X92953333Y-96130666D01*
X92920000Y-96164000D01*
X92286666Y-95297333D02*
X92286666Y-95230666D01*
X92320000Y-95164000D01*
X92353333Y-95130666D01*
X92420000Y-95097333D01*
X92553333Y-95064000D01*
X92720000Y-95064000D01*
X92853333Y-95097333D01*
X92920000Y-95130666D01*
X92953333Y-95164000D01*
X92986666Y-95230666D01*
X92986666Y-95297333D01*
X92953333Y-95364000D01*
X92920000Y-95397333D01*
X92853333Y-95430666D01*
X92720000Y-95464000D01*
X92553333Y-95464000D01*
X92420000Y-95430666D01*
X92353333Y-95397333D01*
X92320000Y-95364000D01*
X92286666Y-95297333D01*
X92986666Y-94397333D02*
X92986666Y-94797333D01*
X92986666Y-94597333D02*
X92286666Y-94597333D01*
X92386666Y-94664000D01*
X92453333Y-94730666D01*
X92486666Y-94797333D01*
X128166666Y-98724000D02*
X128133333Y-98757333D01*
X128033333Y-98790666D01*
X127966666Y-98790666D01*
X127866666Y-98757333D01*
X127800000Y-98690666D01*
X127766666Y-98624000D01*
X127733333Y-98490666D01*
X127733333Y-98390666D01*
X127766666Y-98257333D01*
X127800000Y-98190666D01*
X127866666Y-98124000D01*
X127966666Y-98090666D01*
X128033333Y-98090666D01*
X128133333Y-98124000D01*
X128166666Y-98157333D01*
X128433333Y-98157333D02*
X128466666Y-98124000D01*
X128533333Y-98090666D01*
X128700000Y-98090666D01*
X128766666Y-98124000D01*
X128800000Y-98157333D01*
X128833333Y-98224000D01*
X128833333Y-98290666D01*
X128800000Y-98390666D01*
X128400000Y-98790666D01*
X128833333Y-98790666D01*
X129266666Y-98090666D02*
X129333333Y-98090666D01*
X129400000Y-98124000D01*
X129433333Y-98157333D01*
X129466666Y-98224000D01*
X129500000Y-98357333D01*
X129500000Y-98524000D01*
X129466666Y-98657333D01*
X129433333Y-98724000D01*
X129400000Y-98757333D01*
X129333333Y-98790666D01*
X129266666Y-98790666D01*
X129200000Y-98757333D01*
X129166666Y-98724000D01*
X129133333Y-98657333D01*
X129100000Y-98524000D01*
X129100000Y-98357333D01*
X129133333Y-98224000D01*
X129166666Y-98157333D01*
X129200000Y-98124000D01*
X129266666Y-98090666D01*
X129900000Y-98390666D02*
X129833333Y-98357333D01*
X129800000Y-98324000D01*
X129766666Y-98257333D01*
X129766666Y-98224000D01*
X129800000Y-98157333D01*
X129833333Y-98124000D01*
X129900000Y-98090666D01*
X130033333Y-98090666D01*
X130100000Y-98124000D01*
X130133333Y-98157333D01*
X130166666Y-98224000D01*
X130166666Y-98257333D01*
X130133333Y-98324000D01*
X130100000Y-98357333D01*
X130033333Y-98390666D01*
X129900000Y-98390666D01*
X129833333Y-98424000D01*
X129800000Y-98457333D01*
X129766666Y-98524000D01*
X129766666Y-98657333D01*
X129800000Y-98724000D01*
X129833333Y-98757333D01*
X129900000Y-98790666D01*
X130033333Y-98790666D01*
X130100000Y-98757333D01*
X130133333Y-98724000D01*
X130166666Y-98657333D01*
X130166666Y-98524000D01*
X130133333Y-98457333D01*
X130100000Y-98424000D01*
X130033333Y-98390666D01*
X133666666Y-106414000D02*
X133633333Y-106447333D01*
X133533333Y-106480666D01*
X133466666Y-106480666D01*
X133366666Y-106447333D01*
X133300000Y-106380666D01*
X133266666Y-106314000D01*
X133233333Y-106180666D01*
X133233333Y-106080666D01*
X133266666Y-105947333D01*
X133300000Y-105880666D01*
X133366666Y-105814000D01*
X133466666Y-105780666D01*
X133533333Y-105780666D01*
X133633333Y-105814000D01*
X133666666Y-105847333D01*
X133933333Y-105847333D02*
X133966666Y-105814000D01*
X134033333Y-105780666D01*
X134200000Y-105780666D01*
X134266666Y-105814000D01*
X134300000Y-105847333D01*
X134333333Y-105914000D01*
X134333333Y-105980666D01*
X134300000Y-106080666D01*
X133900000Y-106480666D01*
X134333333Y-106480666D01*
X134766666Y-105780666D02*
X134833333Y-105780666D01*
X134900000Y-105814000D01*
X134933333Y-105847333D01*
X134966666Y-105914000D01*
X135000000Y-106047333D01*
X135000000Y-106214000D01*
X134966666Y-106347333D01*
X134933333Y-106414000D01*
X134900000Y-106447333D01*
X134833333Y-106480666D01*
X134766666Y-106480666D01*
X134700000Y-106447333D01*
X134666666Y-106414000D01*
X134633333Y-106347333D01*
X134600000Y-106214000D01*
X134600000Y-106047333D01*
X134633333Y-105914000D01*
X134666666Y-105847333D01*
X134700000Y-105814000D01*
X134766666Y-105780666D01*
X135233333Y-105780666D02*
X135700000Y-105780666D01*
X135400000Y-106480666D01*
X133586666Y-110394000D02*
X133553333Y-110427333D01*
X133453333Y-110460666D01*
X133386666Y-110460666D01*
X133286666Y-110427333D01*
X133220000Y-110360666D01*
X133186666Y-110294000D01*
X133153333Y-110160666D01*
X133153333Y-110060666D01*
X133186666Y-109927333D01*
X133220000Y-109860666D01*
X133286666Y-109794000D01*
X133386666Y-109760666D01*
X133453333Y-109760666D01*
X133553333Y-109794000D01*
X133586666Y-109827333D01*
X133853333Y-109827333D02*
X133886666Y-109794000D01*
X133953333Y-109760666D01*
X134120000Y-109760666D01*
X134186666Y-109794000D01*
X134220000Y-109827333D01*
X134253333Y-109894000D01*
X134253333Y-109960666D01*
X134220000Y-110060666D01*
X133820000Y-110460666D01*
X134253333Y-110460666D01*
X134686666Y-109760666D02*
X134753333Y-109760666D01*
X134820000Y-109794000D01*
X134853333Y-109827333D01*
X134886666Y-109894000D01*
X134920000Y-110027333D01*
X134920000Y-110194000D01*
X134886666Y-110327333D01*
X134853333Y-110394000D01*
X134820000Y-110427333D01*
X134753333Y-110460666D01*
X134686666Y-110460666D01*
X134620000Y-110427333D01*
X134586666Y-110394000D01*
X134553333Y-110327333D01*
X134520000Y-110194000D01*
X134520000Y-110027333D01*
X134553333Y-109894000D01*
X134586666Y-109827333D01*
X134620000Y-109794000D01*
X134686666Y-109760666D01*
X135520000Y-109760666D02*
X135386666Y-109760666D01*
X135320000Y-109794000D01*
X135286666Y-109827333D01*
X135220000Y-109927333D01*
X135186666Y-110060666D01*
X135186666Y-110327333D01*
X135220000Y-110394000D01*
X135253333Y-110427333D01*
X135320000Y-110460666D01*
X135453333Y-110460666D01*
X135520000Y-110427333D01*
X135553333Y-110394000D01*
X135586666Y-110327333D01*
X135586666Y-110160666D01*
X135553333Y-110094000D01*
X135520000Y-110060666D01*
X135453333Y-110027333D01*
X135320000Y-110027333D01*
X135253333Y-110060666D01*
X135220000Y-110094000D01*
X135186666Y-110160666D01*
X127406666Y-106414000D02*
X127373333Y-106447333D01*
X127273333Y-106480666D01*
X127206666Y-106480666D01*
X127106666Y-106447333D01*
X127040000Y-106380666D01*
X127006666Y-106314000D01*
X126973333Y-106180666D01*
X126973333Y-106080666D01*
X127006666Y-105947333D01*
X127040000Y-105880666D01*
X127106666Y-105814000D01*
X127206666Y-105780666D01*
X127273333Y-105780666D01*
X127373333Y-105814000D01*
X127406666Y-105847333D01*
X127673333Y-105847333D02*
X127706666Y-105814000D01*
X127773333Y-105780666D01*
X127940000Y-105780666D01*
X128006666Y-105814000D01*
X128040000Y-105847333D01*
X128073333Y-105914000D01*
X128073333Y-105980666D01*
X128040000Y-106080666D01*
X127640000Y-106480666D01*
X128073333Y-106480666D01*
X128506666Y-105780666D02*
X128573333Y-105780666D01*
X128640000Y-105814000D01*
X128673333Y-105847333D01*
X128706666Y-105914000D01*
X128740000Y-106047333D01*
X128740000Y-106214000D01*
X128706666Y-106347333D01*
X128673333Y-106414000D01*
X128640000Y-106447333D01*
X128573333Y-106480666D01*
X128506666Y-106480666D01*
X128440000Y-106447333D01*
X128406666Y-106414000D01*
X128373333Y-106347333D01*
X128340000Y-106214000D01*
X128340000Y-106047333D01*
X128373333Y-105914000D01*
X128406666Y-105847333D01*
X128440000Y-105814000D01*
X128506666Y-105780666D01*
X129373333Y-105780666D02*
X129040000Y-105780666D01*
X129006666Y-106114000D01*
X129040000Y-106080666D01*
X129106666Y-106047333D01*
X129273333Y-106047333D01*
X129340000Y-106080666D01*
X129373333Y-106114000D01*
X129406666Y-106180666D01*
X129406666Y-106347333D01*
X129373333Y-106414000D01*
X129340000Y-106447333D01*
X129273333Y-106480666D01*
X129106666Y-106480666D01*
X129040000Y-106447333D01*
X129006666Y-106414000D01*
X123296666Y-93624000D02*
X123263333Y-93657333D01*
X123163333Y-93690666D01*
X123096666Y-93690666D01*
X122996666Y-93657333D01*
X122930000Y-93590666D01*
X122896666Y-93524000D01*
X122863333Y-93390666D01*
X122863333Y-93290666D01*
X122896666Y-93157333D01*
X122930000Y-93090666D01*
X122996666Y-93024000D01*
X123096666Y-92990666D01*
X123163333Y-92990666D01*
X123263333Y-93024000D01*
X123296666Y-93057333D01*
X123563333Y-93057333D02*
X123596666Y-93024000D01*
X123663333Y-92990666D01*
X123830000Y-92990666D01*
X123896666Y-93024000D01*
X123930000Y-93057333D01*
X123963333Y-93124000D01*
X123963333Y-93190666D01*
X123930000Y-93290666D01*
X123530000Y-93690666D01*
X123963333Y-93690666D01*
X124396666Y-92990666D02*
X124463333Y-92990666D01*
X124530000Y-93024000D01*
X124563333Y-93057333D01*
X124596666Y-93124000D01*
X124630000Y-93257333D01*
X124630000Y-93424000D01*
X124596666Y-93557333D01*
X124563333Y-93624000D01*
X124530000Y-93657333D01*
X124463333Y-93690666D01*
X124396666Y-93690666D01*
X124330000Y-93657333D01*
X124296666Y-93624000D01*
X124263333Y-93557333D01*
X124230000Y-93424000D01*
X124230000Y-93257333D01*
X124263333Y-93124000D01*
X124296666Y-93057333D01*
X124330000Y-93024000D01*
X124396666Y-92990666D01*
X125230000Y-93224000D02*
X125230000Y-93690666D01*
X125063333Y-92957333D02*
X124896666Y-93457333D01*
X125330000Y-93457333D01*
X122996666Y-115254000D02*
X122963333Y-115287333D01*
X122863333Y-115320666D01*
X122796666Y-115320666D01*
X122696666Y-115287333D01*
X122630000Y-115220666D01*
X122596666Y-115154000D01*
X122563333Y-115020666D01*
X122563333Y-114920666D01*
X122596666Y-114787333D01*
X122630000Y-114720666D01*
X122696666Y-114654000D01*
X122796666Y-114620666D01*
X122863333Y-114620666D01*
X122963333Y-114654000D01*
X122996666Y-114687333D01*
X123263333Y-114687333D02*
X123296666Y-114654000D01*
X123363333Y-114620666D01*
X123530000Y-114620666D01*
X123596666Y-114654000D01*
X123630000Y-114687333D01*
X123663333Y-114754000D01*
X123663333Y-114820666D01*
X123630000Y-114920666D01*
X123230000Y-115320666D01*
X123663333Y-115320666D01*
X124096666Y-114620666D02*
X124163333Y-114620666D01*
X124230000Y-114654000D01*
X124263333Y-114687333D01*
X124296666Y-114754000D01*
X124330000Y-114887333D01*
X124330000Y-115054000D01*
X124296666Y-115187333D01*
X124263333Y-115254000D01*
X124230000Y-115287333D01*
X124163333Y-115320666D01*
X124096666Y-115320666D01*
X124030000Y-115287333D01*
X123996666Y-115254000D01*
X123963333Y-115187333D01*
X123930000Y-115054000D01*
X123930000Y-114887333D01*
X123963333Y-114754000D01*
X123996666Y-114687333D01*
X124030000Y-114654000D01*
X124096666Y-114620666D01*
X124563333Y-114620666D02*
X124996666Y-114620666D01*
X124763333Y-114887333D01*
X124863333Y-114887333D01*
X124930000Y-114920666D01*
X124963333Y-114954000D01*
X124996666Y-115020666D01*
X124996666Y-115187333D01*
X124963333Y-115254000D01*
X124930000Y-115287333D01*
X124863333Y-115320666D01*
X124663333Y-115320666D01*
X124596666Y-115287333D01*
X124563333Y-115254000D01*
X127196666Y-90494000D02*
X127163333Y-90527333D01*
X127063333Y-90560666D01*
X126996666Y-90560666D01*
X126896666Y-90527333D01*
X126830000Y-90460666D01*
X126796666Y-90394000D01*
X126763333Y-90260666D01*
X126763333Y-90160666D01*
X126796666Y-90027333D01*
X126830000Y-89960666D01*
X126896666Y-89894000D01*
X126996666Y-89860666D01*
X127063333Y-89860666D01*
X127163333Y-89894000D01*
X127196666Y-89927333D01*
X127463333Y-89927333D02*
X127496666Y-89894000D01*
X127563333Y-89860666D01*
X127730000Y-89860666D01*
X127796666Y-89894000D01*
X127830000Y-89927333D01*
X127863333Y-89994000D01*
X127863333Y-90060666D01*
X127830000Y-90160666D01*
X127430000Y-90560666D01*
X127863333Y-90560666D01*
X128296666Y-89860666D02*
X128363333Y-89860666D01*
X128430000Y-89894000D01*
X128463333Y-89927333D01*
X128496666Y-89994000D01*
X128530000Y-90127333D01*
X128530000Y-90294000D01*
X128496666Y-90427333D01*
X128463333Y-90494000D01*
X128430000Y-90527333D01*
X128363333Y-90560666D01*
X128296666Y-90560666D01*
X128230000Y-90527333D01*
X128196666Y-90494000D01*
X128163333Y-90427333D01*
X128130000Y-90294000D01*
X128130000Y-90127333D01*
X128163333Y-89994000D01*
X128196666Y-89927333D01*
X128230000Y-89894000D01*
X128296666Y-89860666D01*
X128796666Y-89927333D02*
X128830000Y-89894000D01*
X128896666Y-89860666D01*
X129063333Y-89860666D01*
X129130000Y-89894000D01*
X129163333Y-89927333D01*
X129196666Y-89994000D01*
X129196666Y-90060666D01*
X129163333Y-90160666D01*
X128763333Y-90560666D01*
X129196666Y-90560666D01*
X121140000Y-100147333D02*
X121173333Y-100180666D01*
X121206666Y-100280666D01*
X121206666Y-100347333D01*
X121173333Y-100447333D01*
X121106666Y-100514000D01*
X121040000Y-100547333D01*
X120906666Y-100580666D01*
X120806666Y-100580666D01*
X120673333Y-100547333D01*
X120606666Y-100514000D01*
X120540000Y-100447333D01*
X120506666Y-100347333D01*
X120506666Y-100280666D01*
X120540000Y-100180666D01*
X120573333Y-100147333D01*
X120573333Y-99880666D02*
X120540000Y-99847333D01*
X120506666Y-99780666D01*
X120506666Y-99614000D01*
X120540000Y-99547333D01*
X120573333Y-99514000D01*
X120640000Y-99480666D01*
X120706666Y-99480666D01*
X120806666Y-99514000D01*
X121206666Y-99914000D01*
X121206666Y-99480666D01*
X120506666Y-99047333D02*
X120506666Y-98980666D01*
X120540000Y-98914000D01*
X120573333Y-98880666D01*
X120640000Y-98847333D01*
X120773333Y-98814000D01*
X120940000Y-98814000D01*
X121073333Y-98847333D01*
X121140000Y-98880666D01*
X121173333Y-98914000D01*
X121206666Y-98980666D01*
X121206666Y-99047333D01*
X121173333Y-99114000D01*
X121140000Y-99147333D01*
X121073333Y-99180666D01*
X120940000Y-99214000D01*
X120773333Y-99214000D01*
X120640000Y-99180666D01*
X120573333Y-99147333D01*
X120540000Y-99114000D01*
X120506666Y-99047333D01*
X121206666Y-98147333D02*
X121206666Y-98547333D01*
X121206666Y-98347333D02*
X120506666Y-98347333D01*
X120606666Y-98414000D01*
X120673333Y-98480666D01*
X120706666Y-98547333D01*
X124433333Y-84104000D02*
X124400000Y-84137333D01*
X124300000Y-84170666D01*
X124233333Y-84170666D01*
X124133333Y-84137333D01*
X124066666Y-84070666D01*
X124033333Y-84004000D01*
X124000000Y-83870666D01*
X124000000Y-83770666D01*
X124033333Y-83637333D01*
X124066666Y-83570666D01*
X124133333Y-83504000D01*
X124233333Y-83470666D01*
X124300000Y-83470666D01*
X124400000Y-83504000D01*
X124433333Y-83537333D01*
X125100000Y-84170666D02*
X124700000Y-84170666D01*
X124900000Y-84170666D02*
X124900000Y-83470666D01*
X124833333Y-83570666D01*
X124766666Y-83637333D01*
X124700000Y-83670666D01*
X123726666Y-87154000D02*
X123026666Y-87154000D01*
X123026666Y-86987333D01*
X123060000Y-86887333D01*
X123126666Y-86820666D01*
X123193333Y-86787333D01*
X123326666Y-86754000D01*
X123426666Y-86754000D01*
X123560000Y-86787333D01*
X123626666Y-86820666D01*
X123693333Y-86887333D01*
X123726666Y-86987333D01*
X123726666Y-87154000D01*
X123726666Y-86454000D02*
X123026666Y-86454000D01*
X123726666Y-86054000D01*
X123026666Y-86054000D01*
X123360000Y-85487333D02*
X123360000Y-85720666D01*
X123726666Y-85720666D02*
X123026666Y-85720666D01*
X123026666Y-85387333D01*
X80236666Y-72105714D02*
X80198571Y-72143809D01*
X80084285Y-72181904D01*
X80008095Y-72181904D01*
X79893809Y-72143809D01*
X79817619Y-72067619D01*
X79779523Y-71991428D01*
X79741428Y-71839047D01*
X79741428Y-71724761D01*
X79779523Y-71572380D01*
X79817619Y-71496190D01*
X79893809Y-71420000D01*
X80008095Y-71381904D01*
X80084285Y-71381904D01*
X80198571Y-71420000D01*
X80236666Y-71458095D01*
X80503333Y-71381904D02*
X81036666Y-71381904D01*
X80693809Y-72181904D01*
X84026666Y-69039714D02*
X83988571Y-69077809D01*
X83874285Y-69115904D01*
X83798095Y-69115904D01*
X83683809Y-69077809D01*
X83607619Y-69001619D01*
X83569523Y-68925428D01*
X83531428Y-68773047D01*
X83531428Y-68658761D01*
X83569523Y-68506380D01*
X83607619Y-68430190D01*
X83683809Y-68354000D01*
X83798095Y-68315904D01*
X83874285Y-68315904D01*
X83988571Y-68354000D01*
X84026666Y-68392095D01*
X84483809Y-68658761D02*
X84407619Y-68620666D01*
X84369523Y-68582571D01*
X84331428Y-68506380D01*
X84331428Y-68468285D01*
X84369523Y-68392095D01*
X84407619Y-68354000D01*
X84483809Y-68315904D01*
X84636190Y-68315904D01*
X84712380Y-68354000D01*
X84750476Y-68392095D01*
X84788571Y-68468285D01*
X84788571Y-68506380D01*
X84750476Y-68582571D01*
X84712380Y-68620666D01*
X84636190Y-68658761D01*
X84483809Y-68658761D01*
X84407619Y-68696857D01*
X84369523Y-68734952D01*
X84331428Y-68811142D01*
X84331428Y-68963523D01*
X84369523Y-69039714D01*
X84407619Y-69077809D01*
X84483809Y-69115904D01*
X84636190Y-69115904D01*
X84712380Y-69077809D01*
X84750476Y-69039714D01*
X84788571Y-68963523D01*
X84788571Y-68811142D01*
X84750476Y-68734952D01*
X84712380Y-68696857D01*
X84636190Y-68658761D01*
X139976666Y-93610666D02*
X139976666Y-92910666D01*
X140243333Y-92910666D01*
X140310000Y-92944000D01*
X140343333Y-92977333D01*
X140376666Y-93044000D01*
X140376666Y-93144000D01*
X140343333Y-93210666D01*
X140310000Y-93244000D01*
X140243333Y-93277333D01*
X139976666Y-93277333D01*
X140610000Y-92910666D02*
X140776666Y-93610666D01*
X140910000Y-93110666D01*
X141043333Y-93610666D01*
X141210000Y-92910666D01*
X141876666Y-93610666D02*
X141643333Y-93277333D01*
X141476666Y-93610666D02*
X141476666Y-92910666D01*
X141743333Y-92910666D01*
X141810000Y-92944000D01*
X141843333Y-92977333D01*
X141876666Y-93044000D01*
X141876666Y-93144000D01*
X141843333Y-93210666D01*
X141810000Y-93244000D01*
X141743333Y-93277333D01*
X141476666Y-93277333D01*
X87087380Y-99797619D02*
X87087380Y-99702380D01*
X87135000Y-99607142D01*
X87182619Y-99559523D01*
X87277857Y-99511904D01*
X87468333Y-99464285D01*
X87706428Y-99464285D01*
X87896904Y-99511904D01*
X87992142Y-99559523D01*
X88039761Y-99607142D01*
X88087380Y-99702380D01*
X88087380Y-99797619D01*
X88039761Y-99892857D01*
X87992142Y-99940476D01*
X87896904Y-99988095D01*
X87706428Y-100035714D01*
X87468333Y-100035714D01*
X87277857Y-99988095D01*
X87182619Y-99940476D01*
X87135000Y-99892857D01*
X87087380Y-99797619D01*
X88087380Y-102004285D02*
X88087380Y-102575714D01*
X88087380Y-102290000D02*
X87087380Y-102290000D01*
X87230238Y-102385238D01*
X87325476Y-102480476D01*
X87373095Y-102575714D01*
X87192619Y-105115714D02*
X87145000Y-105068095D01*
X87097380Y-104972857D01*
X87097380Y-104734761D01*
X87145000Y-104639523D01*
X87192619Y-104591904D01*
X87287857Y-104544285D01*
X87383095Y-104544285D01*
X87525952Y-104591904D01*
X88097380Y-105163333D01*
X88097380Y-104544285D01*
X87097380Y-107703333D02*
X87097380Y-107084285D01*
X87478333Y-107417619D01*
X87478333Y-107274761D01*
X87525952Y-107179523D01*
X87573571Y-107131904D01*
X87668809Y-107084285D01*
X87906904Y-107084285D01*
X88002142Y-107131904D01*
X88049761Y-107179523D01*
X88097380Y-107274761D01*
X88097380Y-107560476D01*
X88049761Y-107655714D01*
X88002142Y-107703333D01*
X127663333Y-68260666D02*
X127830000Y-68960666D01*
X127963333Y-68460666D01*
X128096666Y-68960666D01*
X128263333Y-68260666D01*
X128496666Y-68927333D02*
X128596666Y-68960666D01*
X128763333Y-68960666D01*
X128830000Y-68927333D01*
X128863333Y-68894000D01*
X128896666Y-68827333D01*
X128896666Y-68760666D01*
X128863333Y-68694000D01*
X128830000Y-68660666D01*
X128763333Y-68627333D01*
X128630000Y-68594000D01*
X128563333Y-68560666D01*
X128530000Y-68527333D01*
X128496666Y-68460666D01*
X128496666Y-68394000D01*
X128530000Y-68327333D01*
X128563333Y-68294000D01*
X128630000Y-68260666D01*
X128796666Y-68260666D01*
X128896666Y-68294000D01*
X129163333Y-68327333D02*
X129196666Y-68294000D01*
X129263333Y-68260666D01*
X129430000Y-68260666D01*
X129496666Y-68294000D01*
X129530000Y-68327333D01*
X129563333Y-68394000D01*
X129563333Y-68460666D01*
X129530000Y-68560666D01*
X129130000Y-68960666D01*
X129563333Y-68960666D01*
X129963333Y-68560666D02*
X129896666Y-68527333D01*
X129863333Y-68494000D01*
X129830000Y-68427333D01*
X129830000Y-68394000D01*
X129863333Y-68327333D01*
X129896666Y-68294000D01*
X129963333Y-68260666D01*
X130096666Y-68260666D01*
X130163333Y-68294000D01*
X130196666Y-68327333D01*
X130230000Y-68394000D01*
X130230000Y-68427333D01*
X130196666Y-68494000D01*
X130163333Y-68527333D01*
X130096666Y-68560666D01*
X129963333Y-68560666D01*
X129896666Y-68594000D01*
X129863333Y-68627333D01*
X129830000Y-68694000D01*
X129830000Y-68827333D01*
X129863333Y-68894000D01*
X129896666Y-68927333D01*
X129963333Y-68960666D01*
X130096666Y-68960666D01*
X130163333Y-68927333D01*
X130196666Y-68894000D01*
X130230000Y-68827333D01*
X130230000Y-68694000D01*
X130196666Y-68627333D01*
X130163333Y-68594000D01*
X130096666Y-68560666D01*
X130896666Y-68960666D02*
X130496666Y-68960666D01*
X130696666Y-68960666D02*
X130696666Y-68260666D01*
X130630000Y-68360666D01*
X130563333Y-68427333D01*
X130496666Y-68460666D01*
X131163333Y-68327333D02*
X131196666Y-68294000D01*
X131263333Y-68260666D01*
X131430000Y-68260666D01*
X131496666Y-68294000D01*
X131530000Y-68327333D01*
X131563333Y-68394000D01*
X131563333Y-68460666D01*
X131530000Y-68560666D01*
X131130000Y-68960666D01*
X131563333Y-68960666D01*
X79390000Y-77830666D02*
X79723333Y-77830666D01*
X79323333Y-78030666D02*
X79556666Y-77330666D01*
X79790000Y-78030666D01*
X80156666Y-77330666D02*
X80223333Y-77330666D01*
X80290000Y-77364000D01*
X80323333Y-77397333D01*
X80356666Y-77464000D01*
X80390000Y-77597333D01*
X80390000Y-77764000D01*
X80356666Y-77897333D01*
X80323333Y-77964000D01*
X80290000Y-77997333D01*
X80223333Y-78030666D01*
X80156666Y-78030666D01*
X80090000Y-77997333D01*
X80056666Y-77964000D01*
X80023333Y-77897333D01*
X79990000Y-77764000D01*
X79990000Y-77597333D01*
X80023333Y-77464000D01*
X80056666Y-77397333D01*
X80090000Y-77364000D01*
X80156666Y-77330666D01*
X87366666Y-78940666D02*
X87133333Y-78607333D01*
X86966666Y-78940666D02*
X86966666Y-78240666D01*
X87233333Y-78240666D01*
X87300000Y-78274000D01*
X87333333Y-78307333D01*
X87366666Y-78374000D01*
X87366666Y-78474000D01*
X87333333Y-78540666D01*
X87300000Y-78574000D01*
X87233333Y-78607333D01*
X86966666Y-78607333D01*
X87666666Y-78940666D02*
X87666666Y-78240666D01*
X88066666Y-78940666D01*
X88066666Y-78240666D01*
X88766666Y-78940666D02*
X88366666Y-78940666D01*
X88566666Y-78940666D02*
X88566666Y-78240666D01*
X88500000Y-78340666D01*
X88433333Y-78407333D01*
X88366666Y-78440666D01*
D13*
X101086571Y-74624571D02*
X101086571Y-73124571D01*
X101586571Y-74196000D01*
X102086571Y-73124571D01*
X102086571Y-74624571D01*
X102800857Y-74624571D02*
X102800857Y-73124571D01*
X103372285Y-73124571D01*
X103515142Y-73196000D01*
X103586571Y-73267428D01*
X103658000Y-73410285D01*
X103658000Y-73624571D01*
X103586571Y-73767428D01*
X103515142Y-73838857D01*
X103372285Y-73910285D01*
X102800857Y-73910285D01*
X104300857Y-73124571D02*
X104300857Y-74338857D01*
X104372285Y-74481714D01*
X104443714Y-74553142D01*
X104586571Y-74624571D01*
X104872285Y-74624571D01*
X105015142Y-74553142D01*
X105086571Y-74481714D01*
X105158000Y-74338857D01*
X105158000Y-73124571D01*
X105872285Y-74053142D02*
X107015142Y-74053142D01*
X107800857Y-74624571D02*
X108086571Y-74624571D01*
X108229428Y-74553142D01*
X108300857Y-74481714D01*
X108443714Y-74267428D01*
X108515142Y-73981714D01*
X108515142Y-73410285D01*
X108443714Y-73267428D01*
X108372285Y-73196000D01*
X108229428Y-73124571D01*
X107943714Y-73124571D01*
X107800857Y-73196000D01*
X107729428Y-73267428D01*
X107658000Y-73410285D01*
X107658000Y-73767428D01*
X107729428Y-73910285D01*
X107800857Y-73981714D01*
X107943714Y-74053142D01*
X108229428Y-74053142D01*
X108372285Y-73981714D01*
X108443714Y-73910285D01*
X108515142Y-73767428D01*
X109086571Y-73267428D02*
X109158000Y-73196000D01*
X109300857Y-73124571D01*
X109658000Y-73124571D01*
X109800857Y-73196000D01*
X109872285Y-73267428D01*
X109943714Y-73410285D01*
X109943714Y-73553142D01*
X109872285Y-73767428D01*
X109015142Y-74624571D01*
X109943714Y-74624571D01*
X111300857Y-73124571D02*
X110586571Y-73124571D01*
X110515142Y-73838857D01*
X110586571Y-73767428D01*
X110729428Y-73696000D01*
X111086571Y-73696000D01*
X111229428Y-73767428D01*
X111300857Y-73838857D01*
X111372285Y-73981714D01*
X111372285Y-74338857D01*
X111300857Y-74481714D01*
X111229428Y-74553142D01*
X111086571Y-74624571D01*
X110729428Y-74624571D01*
X110586571Y-74553142D01*
X110515142Y-74481714D01*
X112300857Y-73124571D02*
X112443714Y-73124571D01*
X112586571Y-73196000D01*
X112658000Y-73267428D01*
X112729428Y-73410285D01*
X112800857Y-73696000D01*
X112800857Y-74053142D01*
X112729428Y-74338857D01*
X112658000Y-74481714D01*
X112586571Y-74553142D01*
X112443714Y-74624571D01*
X112300857Y-74624571D01*
X112158000Y-74553142D01*
X112086571Y-74481714D01*
X112015142Y-74338857D01*
X111943714Y-74053142D01*
X111943714Y-73696000D01*
X112015142Y-73410285D01*
X112086571Y-73267428D01*
X112158000Y-73196000D01*
X112300857Y-73124571D01*
D20*
X139441428Y-68240190D02*
X139441428Y-68644952D01*
X139465238Y-68692571D01*
X139489047Y-68716380D01*
X139536666Y-68740190D01*
X139631904Y-68740190D01*
X139679523Y-68716380D01*
X139703333Y-68692571D01*
X139727142Y-68644952D01*
X139727142Y-68240190D01*
X140203333Y-68740190D02*
X139965238Y-68740190D01*
X139965238Y-68240190D01*
X140298571Y-68240190D02*
X140584285Y-68240190D01*
X140441428Y-68740190D02*
X140441428Y-68240190D01*
X141036666Y-68740190D02*
X140870000Y-68502095D01*
X140750952Y-68740190D02*
X140750952Y-68240190D01*
X140941428Y-68240190D01*
X140989047Y-68264000D01*
X141012857Y-68287809D01*
X141036666Y-68335428D01*
X141036666Y-68406857D01*
X141012857Y-68454476D01*
X140989047Y-68478285D01*
X140941428Y-68502095D01*
X140750952Y-68502095D01*
X141227142Y-68597333D02*
X141465238Y-68597333D01*
X141179523Y-68740190D02*
X141346190Y-68240190D01*
X141512857Y-68740190D01*
X141560476Y-68787809D02*
X141941428Y-68787809D01*
X142155714Y-68240190D02*
X142203333Y-68240190D01*
X142250952Y-68264000D01*
X142274761Y-68287809D01*
X142298571Y-68335428D01*
X142322380Y-68430666D01*
X142322380Y-68549714D01*
X142298571Y-68644952D01*
X142274761Y-68692571D01*
X142250952Y-68716380D01*
X142203333Y-68740190D01*
X142155714Y-68740190D01*
X142108095Y-68716380D01*
X142084285Y-68692571D01*
X142060476Y-68644952D01*
X142036666Y-68549714D01*
X142036666Y-68430666D01*
X142060476Y-68335428D01*
X142084285Y-68287809D01*
X142108095Y-68264000D01*
X142155714Y-68240190D01*
X139521428Y-81160190D02*
X139521428Y-81564952D01*
X139545238Y-81612571D01*
X139569047Y-81636380D01*
X139616666Y-81660190D01*
X139711904Y-81660190D01*
X139759523Y-81636380D01*
X139783333Y-81612571D01*
X139807142Y-81564952D01*
X139807142Y-81160190D01*
X140283333Y-81660190D02*
X140045238Y-81660190D01*
X140045238Y-81160190D01*
X140378571Y-81160190D02*
X140664285Y-81160190D01*
X140521428Y-81660190D02*
X140521428Y-81160190D01*
X141116666Y-81660190D02*
X140950000Y-81422095D01*
X140830952Y-81660190D02*
X140830952Y-81160190D01*
X141021428Y-81160190D01*
X141069047Y-81184000D01*
X141092857Y-81207809D01*
X141116666Y-81255428D01*
X141116666Y-81326857D01*
X141092857Y-81374476D01*
X141069047Y-81398285D01*
X141021428Y-81422095D01*
X140830952Y-81422095D01*
X141307142Y-81517333D02*
X141545238Y-81517333D01*
X141259523Y-81660190D02*
X141426190Y-81160190D01*
X141592857Y-81660190D01*
X141640476Y-81707809D02*
X142021428Y-81707809D01*
X142402380Y-81660190D02*
X142116666Y-81660190D01*
X142259523Y-81660190D02*
X142259523Y-81160190D01*
X142211904Y-81231619D01*
X142164285Y-81279238D01*
X142116666Y-81303047D01*
M02*
