G04 #@! TF.GenerationSoftware,KiCad,Pcbnew,(5.1.4)-1*
G04 #@! TF.CreationDate,2019-11-06T21:38:22+11:00*
G04 #@! TF.ProjectId,dingo-hat,64696e67-6f2d-4686-9174-2e6b69636164,rev?*
G04 #@! TF.SameCoordinates,PX5f37000PY5f5c990*
G04 #@! TF.FileFunction,Paste,Top*
G04 #@! TF.FilePolarity,Positive*
%FSLAX46Y46*%
G04 Gerber Fmt 4.6, Leading zero omitted, Abs format (unit mm)*
G04 Created by KiCad (PCBNEW (5.1.4)-1) date 2019-11-06 21:38:22*
%MOMM*%
%LPD*%
G04 APERTURE LIST*
%ADD10R,0.900000X0.500000*%
%ADD11R,1.752600X2.489200*%
%ADD12R,0.812800X0.203200*%
%ADD13R,0.400000X1.100000*%
%ADD14R,1.800000X1.800000*%
%ADD15R,0.500000X0.400000*%
%ADD16R,0.500000X0.750000*%
%ADD17R,0.500000X0.900000*%
%ADD18R,0.800000X2.200000*%
%ADD19R,3.700000X2.710000*%
%ADD20R,2.400000X1.650000*%
%ADD21R,0.300000X0.800000*%
%ADD22R,1.060000X0.650000*%
%ADD23R,2.000000X3.500000*%
%ADD24R,0.900000X1.700000*%
%ADD25R,1.700000X0.900000*%
%ADD26R,0.800000X0.800000*%
%ADD27R,1.100000X1.100000*%
%ADD28R,3.200000X1.600000*%
%ADD29R,1.000000X1.600000*%
%ADD30R,0.800000X0.750000*%
%ADD31R,0.750000X0.800000*%
%ADD32C,0.100000*%
%ADD33C,0.950000*%
%ADD34R,0.500000X0.800000*%
%ADD35R,0.400000X0.800000*%
G04 APERTURE END LIST*
D10*
X45970000Y45800000D03*
X45970000Y47300000D03*
D11*
X49696900Y22994000D03*
D12*
X51093900Y23994001D03*
X51093900Y23493999D03*
X51093900Y22994000D03*
X51093900Y22494001D03*
X51093900Y21993999D03*
X48299900Y21993999D03*
X48299900Y22494001D03*
X48299900Y22994000D03*
X48299900Y23493999D03*
X48299900Y23994001D03*
D10*
X16722000Y45794000D03*
X16722000Y47294000D03*
X15198000Y45794000D03*
X15198000Y47294000D03*
X41470000Y45794000D03*
X41470000Y47294000D03*
X42970000Y45800000D03*
X42970000Y47300000D03*
X44470000Y45800000D03*
X44470000Y47300000D03*
D13*
X3763000Y40344000D03*
X4413000Y40344000D03*
X5063000Y40344000D03*
X5713000Y40344000D03*
X6363000Y40344000D03*
X7013000Y40344000D03*
X7663000Y40344000D03*
X8313000Y40344000D03*
X8963000Y40344000D03*
X9613000Y40344000D03*
X10263000Y40344000D03*
X10913000Y40344000D03*
X11563000Y40344000D03*
X12213000Y40344000D03*
X12213000Y46044000D03*
X11563000Y46044000D03*
X10913000Y46044000D03*
X10263000Y46044000D03*
X9613000Y46044000D03*
X8963000Y46044000D03*
X8313000Y46044000D03*
X7663000Y46044000D03*
X7013000Y46044000D03*
X6363000Y46044000D03*
X5713000Y46044000D03*
X5063000Y46044000D03*
X4413000Y46044000D03*
X3763000Y46044000D03*
D14*
X38976000Y15060000D03*
D15*
X37626000Y15860000D03*
X40326000Y15860000D03*
X37626000Y15260000D03*
X40326000Y15260000D03*
D16*
X37626000Y14485000D03*
X40326000Y14485000D03*
D17*
X5238000Y37894000D03*
X6738000Y37894000D03*
D18*
X17685000Y26634000D03*
X17685000Y20894000D03*
X18955000Y26634000D03*
X18955000Y20894000D03*
X20225000Y26634000D03*
X20225000Y20894000D03*
X21495000Y26634000D03*
X21495000Y20894000D03*
D19*
X19590000Y23764000D03*
D20*
X50180000Y14244000D03*
D21*
X49230000Y15744000D03*
X49880000Y15744000D03*
X50480000Y15744000D03*
X51130000Y15744000D03*
X51130000Y12744000D03*
X50480000Y12744000D03*
X49880000Y12744000D03*
X49230000Y12744000D03*
D22*
X48670000Y32800000D03*
X48670000Y31850000D03*
X48670000Y30900000D03*
X50870000Y30900000D03*
X50870000Y32800000D03*
D17*
X13130000Y29120000D03*
X14630000Y29120000D03*
X14620000Y27580000D03*
X13120000Y27580000D03*
X17900000Y31750000D03*
X16400000Y31750000D03*
D10*
X23818000Y29205000D03*
X23818000Y30705000D03*
X47480000Y8394000D03*
X47480000Y9894000D03*
D17*
X50530000Y8344000D03*
X49030000Y8344000D03*
X52170000Y10044000D03*
X53670000Y10044000D03*
X52170000Y8300000D03*
X53670000Y8300000D03*
X55130000Y25960000D03*
X53630000Y25960000D03*
D10*
X35670000Y15800000D03*
X35670000Y14300000D03*
D17*
X55180000Y23600000D03*
X53680000Y23600000D03*
X38400000Y19420000D03*
X39900000Y19420000D03*
X50220000Y28950000D03*
X48720000Y28950000D03*
X46120000Y28950000D03*
X47620000Y28950000D03*
X9622000Y48060000D03*
X11122000Y48060000D03*
X57470000Y34794000D03*
X58970000Y34794000D03*
X58970000Y38044000D03*
X57470000Y38044000D03*
X58970000Y48050000D03*
X57470000Y48050000D03*
X57470000Y45400000D03*
X58970000Y45400000D03*
D10*
X39970000Y47300000D03*
X39970000Y45800000D03*
D17*
X59656000Y22830000D03*
X58156000Y22830000D03*
D23*
X25440000Y23764000D03*
X31340000Y23764000D03*
D17*
X18470000Y9650000D03*
X16970000Y9650000D03*
D10*
X32220000Y7550000D03*
X32220000Y9050000D03*
X54680000Y18794000D03*
X54680000Y17294000D03*
D24*
X13570000Y9750000D03*
X10670000Y9750000D03*
D25*
X32220000Y6250000D03*
X32220000Y3350000D03*
D26*
X53630000Y21280000D03*
X55230000Y21280000D03*
D27*
X13520000Y12250000D03*
X10720000Y12250000D03*
X37320000Y9850000D03*
X40120000Y9850000D03*
D28*
X31525000Y16534000D03*
X26525000Y16534000D03*
D29*
X36720000Y26550000D03*
X33720000Y26550000D03*
D30*
X14820000Y31750000D03*
X13320000Y31750000D03*
X33970000Y21050000D03*
X35470000Y21050000D03*
D31*
X20220000Y29550000D03*
X20220000Y31050000D03*
X25342000Y30705000D03*
X25342000Y29205000D03*
D30*
X20274000Y17509000D03*
X21774000Y17509000D03*
X18472000Y17509000D03*
X16972000Y17509000D03*
D29*
X15460000Y15223000D03*
X18460000Y15223000D03*
X23286000Y15223000D03*
X20286000Y15223000D03*
D31*
X15436000Y20950000D03*
X15436000Y22450000D03*
D30*
X51330000Y17644000D03*
X49830000Y17644000D03*
X56830000Y10044000D03*
X55330000Y10044000D03*
X56780000Y8344000D03*
X55280000Y8344000D03*
X50630000Y10044000D03*
X49130000Y10044000D03*
D31*
X45720000Y21300000D03*
X45720000Y22800000D03*
D30*
X46170000Y1050000D03*
X44670000Y1050000D03*
X50360000Y25950000D03*
X48860000Y25950000D03*
D31*
X42570000Y14350000D03*
X42570000Y15850000D03*
X46170000Y32300000D03*
X46170000Y30800000D03*
D32*
G36*
X2250779Y44632856D02*
G01*
X2273834Y44629437D01*
X2296443Y44623773D01*
X2318387Y44615921D01*
X2339457Y44605956D01*
X2359448Y44593974D01*
X2378168Y44580090D01*
X2395438Y44564438D01*
X2411090Y44547168D01*
X2424974Y44528448D01*
X2436956Y44508457D01*
X2446921Y44487387D01*
X2454773Y44465443D01*
X2460437Y44442834D01*
X2463856Y44419779D01*
X2465000Y44396500D01*
X2465000Y43821500D01*
X2463856Y43798221D01*
X2460437Y43775166D01*
X2454773Y43752557D01*
X2446921Y43730613D01*
X2436956Y43709543D01*
X2424974Y43689552D01*
X2411090Y43670832D01*
X2395438Y43653562D01*
X2378168Y43637910D01*
X2359448Y43624026D01*
X2339457Y43612044D01*
X2318387Y43602079D01*
X2296443Y43594227D01*
X2273834Y43588563D01*
X2250779Y43585144D01*
X2227500Y43584000D01*
X1752500Y43584000D01*
X1729221Y43585144D01*
X1706166Y43588563D01*
X1683557Y43594227D01*
X1661613Y43602079D01*
X1640543Y43612044D01*
X1620552Y43624026D01*
X1601832Y43637910D01*
X1584562Y43653562D01*
X1568910Y43670832D01*
X1555026Y43689552D01*
X1543044Y43709543D01*
X1533079Y43730613D01*
X1525227Y43752557D01*
X1519563Y43775166D01*
X1516144Y43798221D01*
X1515000Y43821500D01*
X1515000Y44396500D01*
X1516144Y44419779D01*
X1519563Y44442834D01*
X1525227Y44465443D01*
X1533079Y44487387D01*
X1543044Y44508457D01*
X1555026Y44528448D01*
X1568910Y44547168D01*
X1584562Y44564438D01*
X1601832Y44580090D01*
X1620552Y44593974D01*
X1640543Y44605956D01*
X1661613Y44615921D01*
X1683557Y44623773D01*
X1706166Y44629437D01*
X1729221Y44632856D01*
X1752500Y44634000D01*
X2227500Y44634000D01*
X2250779Y44632856D01*
X2250779Y44632856D01*
G37*
D33*
X1990000Y44109000D03*
D32*
G36*
X2250779Y42882856D02*
G01*
X2273834Y42879437D01*
X2296443Y42873773D01*
X2318387Y42865921D01*
X2339457Y42855956D01*
X2359448Y42843974D01*
X2378168Y42830090D01*
X2395438Y42814438D01*
X2411090Y42797168D01*
X2424974Y42778448D01*
X2436956Y42758457D01*
X2446921Y42737387D01*
X2454773Y42715443D01*
X2460437Y42692834D01*
X2463856Y42669779D01*
X2465000Y42646500D01*
X2465000Y42071500D01*
X2463856Y42048221D01*
X2460437Y42025166D01*
X2454773Y42002557D01*
X2446921Y41980613D01*
X2436956Y41959543D01*
X2424974Y41939552D01*
X2411090Y41920832D01*
X2395438Y41903562D01*
X2378168Y41887910D01*
X2359448Y41874026D01*
X2339457Y41862044D01*
X2318387Y41852079D01*
X2296443Y41844227D01*
X2273834Y41838563D01*
X2250779Y41835144D01*
X2227500Y41834000D01*
X1752500Y41834000D01*
X1729221Y41835144D01*
X1706166Y41838563D01*
X1683557Y41844227D01*
X1661613Y41852079D01*
X1640543Y41862044D01*
X1620552Y41874026D01*
X1601832Y41887910D01*
X1584562Y41903562D01*
X1568910Y41920832D01*
X1555026Y41939552D01*
X1543044Y41959543D01*
X1533079Y41980613D01*
X1525227Y42002557D01*
X1519563Y42025166D01*
X1516144Y42048221D01*
X1515000Y42071500D01*
X1515000Y42646500D01*
X1516144Y42669779D01*
X1519563Y42692834D01*
X1525227Y42715443D01*
X1533079Y42737387D01*
X1543044Y42758457D01*
X1555026Y42778448D01*
X1568910Y42797168D01*
X1584562Y42814438D01*
X1601832Y42830090D01*
X1620552Y42843974D01*
X1640543Y42855956D01*
X1661613Y42865921D01*
X1683557Y42873773D01*
X1706166Y42879437D01*
X1729221Y42882856D01*
X1752500Y42884000D01*
X2227500Y42884000D01*
X2250779Y42882856D01*
X2250779Y42882856D01*
G37*
D33*
X1990000Y42359000D03*
D32*
G36*
X2695779Y49023856D02*
G01*
X2718834Y49020437D01*
X2741443Y49014773D01*
X2763387Y49006921D01*
X2784457Y48996956D01*
X2804448Y48984974D01*
X2823168Y48971090D01*
X2840438Y48955438D01*
X2856090Y48938168D01*
X2869974Y48919448D01*
X2881956Y48899457D01*
X2891921Y48878387D01*
X2899773Y48856443D01*
X2905437Y48833834D01*
X2908856Y48810779D01*
X2910000Y48787500D01*
X2910000Y48312500D01*
X2908856Y48289221D01*
X2905437Y48266166D01*
X2899773Y48243557D01*
X2891921Y48221613D01*
X2881956Y48200543D01*
X2869974Y48180552D01*
X2856090Y48161832D01*
X2840438Y48144562D01*
X2823168Y48128910D01*
X2804448Y48115026D01*
X2784457Y48103044D01*
X2763387Y48093079D01*
X2741443Y48085227D01*
X2718834Y48079563D01*
X2695779Y48076144D01*
X2672500Y48075000D01*
X2097500Y48075000D01*
X2074221Y48076144D01*
X2051166Y48079563D01*
X2028557Y48085227D01*
X2006613Y48093079D01*
X1985543Y48103044D01*
X1965552Y48115026D01*
X1946832Y48128910D01*
X1929562Y48144562D01*
X1913910Y48161832D01*
X1900026Y48180552D01*
X1888044Y48200543D01*
X1878079Y48221613D01*
X1870227Y48243557D01*
X1864563Y48266166D01*
X1861144Y48289221D01*
X1860000Y48312500D01*
X1860000Y48787500D01*
X1861144Y48810779D01*
X1864563Y48833834D01*
X1870227Y48856443D01*
X1878079Y48878387D01*
X1888044Y48899457D01*
X1900026Y48919448D01*
X1913910Y48938168D01*
X1929562Y48955438D01*
X1946832Y48971090D01*
X1965552Y48984974D01*
X1985543Y48996956D01*
X2006613Y49006921D01*
X2028557Y49014773D01*
X2051166Y49020437D01*
X2074221Y49023856D01*
X2097500Y49025000D01*
X2672500Y49025000D01*
X2695779Y49023856D01*
X2695779Y49023856D01*
G37*
D33*
X2385000Y48550000D03*
D32*
G36*
X4445779Y49023856D02*
G01*
X4468834Y49020437D01*
X4491443Y49014773D01*
X4513387Y49006921D01*
X4534457Y48996956D01*
X4554448Y48984974D01*
X4573168Y48971090D01*
X4590438Y48955438D01*
X4606090Y48938168D01*
X4619974Y48919448D01*
X4631956Y48899457D01*
X4641921Y48878387D01*
X4649773Y48856443D01*
X4655437Y48833834D01*
X4658856Y48810779D01*
X4660000Y48787500D01*
X4660000Y48312500D01*
X4658856Y48289221D01*
X4655437Y48266166D01*
X4649773Y48243557D01*
X4641921Y48221613D01*
X4631956Y48200543D01*
X4619974Y48180552D01*
X4606090Y48161832D01*
X4590438Y48144562D01*
X4573168Y48128910D01*
X4554448Y48115026D01*
X4534457Y48103044D01*
X4513387Y48093079D01*
X4491443Y48085227D01*
X4468834Y48079563D01*
X4445779Y48076144D01*
X4422500Y48075000D01*
X3847500Y48075000D01*
X3824221Y48076144D01*
X3801166Y48079563D01*
X3778557Y48085227D01*
X3756613Y48093079D01*
X3735543Y48103044D01*
X3715552Y48115026D01*
X3696832Y48128910D01*
X3679562Y48144562D01*
X3663910Y48161832D01*
X3650026Y48180552D01*
X3638044Y48200543D01*
X3628079Y48221613D01*
X3620227Y48243557D01*
X3614563Y48266166D01*
X3611144Y48289221D01*
X3610000Y48312500D01*
X3610000Y48787500D01*
X3611144Y48810779D01*
X3614563Y48833834D01*
X3620227Y48856443D01*
X3628079Y48878387D01*
X3638044Y48899457D01*
X3650026Y48919448D01*
X3663910Y48938168D01*
X3679562Y48955438D01*
X3696832Y48971090D01*
X3715552Y48984974D01*
X3735543Y48996956D01*
X3756613Y49006921D01*
X3778557Y49014773D01*
X3801166Y49020437D01*
X3824221Y49023856D01*
X3847500Y49025000D01*
X4422500Y49025000D01*
X4445779Y49023856D01*
X4445779Y49023856D01*
G37*
D33*
X4135000Y48550000D03*
D32*
G36*
X62031779Y23283856D02*
G01*
X62054834Y23280437D01*
X62077443Y23274773D01*
X62099387Y23266921D01*
X62120457Y23256956D01*
X62140448Y23244974D01*
X62159168Y23231090D01*
X62176438Y23215438D01*
X62192090Y23198168D01*
X62205974Y23179448D01*
X62217956Y23159457D01*
X62227921Y23138387D01*
X62235773Y23116443D01*
X62241437Y23093834D01*
X62244856Y23070779D01*
X62246000Y23047500D01*
X62246000Y22572500D01*
X62244856Y22549221D01*
X62241437Y22526166D01*
X62235773Y22503557D01*
X62227921Y22481613D01*
X62217956Y22460543D01*
X62205974Y22440552D01*
X62192090Y22421832D01*
X62176438Y22404562D01*
X62159168Y22388910D01*
X62140448Y22375026D01*
X62120457Y22363044D01*
X62099387Y22353079D01*
X62077443Y22345227D01*
X62054834Y22339563D01*
X62031779Y22336144D01*
X62008500Y22335000D01*
X61433500Y22335000D01*
X61410221Y22336144D01*
X61387166Y22339563D01*
X61364557Y22345227D01*
X61342613Y22353079D01*
X61321543Y22363044D01*
X61301552Y22375026D01*
X61282832Y22388910D01*
X61265562Y22404562D01*
X61249910Y22421832D01*
X61236026Y22440552D01*
X61224044Y22460543D01*
X61214079Y22481613D01*
X61206227Y22503557D01*
X61200563Y22526166D01*
X61197144Y22549221D01*
X61196000Y22572500D01*
X61196000Y23047500D01*
X61197144Y23070779D01*
X61200563Y23093834D01*
X61206227Y23116443D01*
X61214079Y23138387D01*
X61224044Y23159457D01*
X61236026Y23179448D01*
X61249910Y23198168D01*
X61265562Y23215438D01*
X61282832Y23231090D01*
X61301552Y23244974D01*
X61321543Y23256956D01*
X61342613Y23266921D01*
X61364557Y23274773D01*
X61387166Y23280437D01*
X61410221Y23283856D01*
X61433500Y23285000D01*
X62008500Y23285000D01*
X62031779Y23283856D01*
X62031779Y23283856D01*
G37*
D33*
X61721000Y22810000D03*
D32*
G36*
X63781779Y23283856D02*
G01*
X63804834Y23280437D01*
X63827443Y23274773D01*
X63849387Y23266921D01*
X63870457Y23256956D01*
X63890448Y23244974D01*
X63909168Y23231090D01*
X63926438Y23215438D01*
X63942090Y23198168D01*
X63955974Y23179448D01*
X63967956Y23159457D01*
X63977921Y23138387D01*
X63985773Y23116443D01*
X63991437Y23093834D01*
X63994856Y23070779D01*
X63996000Y23047500D01*
X63996000Y22572500D01*
X63994856Y22549221D01*
X63991437Y22526166D01*
X63985773Y22503557D01*
X63977921Y22481613D01*
X63967956Y22460543D01*
X63955974Y22440552D01*
X63942090Y22421832D01*
X63926438Y22404562D01*
X63909168Y22388910D01*
X63890448Y22375026D01*
X63870457Y22363044D01*
X63849387Y22353079D01*
X63827443Y22345227D01*
X63804834Y22339563D01*
X63781779Y22336144D01*
X63758500Y22335000D01*
X63183500Y22335000D01*
X63160221Y22336144D01*
X63137166Y22339563D01*
X63114557Y22345227D01*
X63092613Y22353079D01*
X63071543Y22363044D01*
X63051552Y22375026D01*
X63032832Y22388910D01*
X63015562Y22404562D01*
X62999910Y22421832D01*
X62986026Y22440552D01*
X62974044Y22460543D01*
X62964079Y22481613D01*
X62956227Y22503557D01*
X62950563Y22526166D01*
X62947144Y22549221D01*
X62946000Y22572500D01*
X62946000Y23047500D01*
X62947144Y23070779D01*
X62950563Y23093834D01*
X62956227Y23116443D01*
X62964079Y23138387D01*
X62974044Y23159457D01*
X62986026Y23179448D01*
X62999910Y23198168D01*
X63015562Y23215438D01*
X63032832Y23231090D01*
X63051552Y23244974D01*
X63071543Y23256956D01*
X63092613Y23266921D01*
X63114557Y23274773D01*
X63137166Y23280437D01*
X63160221Y23283856D01*
X63183500Y23285000D01*
X63758500Y23285000D01*
X63781779Y23283856D01*
X63781779Y23283856D01*
G37*
D33*
X63471000Y22810000D03*
D34*
X8270000Y35650000D03*
D35*
X9070000Y35650000D03*
D34*
X10670000Y35650000D03*
D35*
X9870000Y35650000D03*
D34*
X8270000Y37450000D03*
D35*
X9870000Y37450000D03*
X9070000Y37450000D03*
D34*
X10670000Y37450000D03*
M02*
