M48
; DRILL file {KiCad (5.1.4)-1} date 05-Nov-19 8:08:34 PM
; FORMAT={2:4/ absolute / inch / suppress trailing zeros}
; #@! TF.CreationDate,2019-11-05T20:08:34+11:00
; #@! TF.GenerationSoftware,Kicad,Pcbnew,(5.1.4)-1
; #@! TF.FileFunction,Plated,1,4,PTH
FMAT,2
INCH,LZ
T1C0.0118
T2C0.0256
T3C0.0394
T4C0.0787
%
G90
G05
T1
X000394Y019094
X000689Y016142
X001651Y016513
X00189Y016831
X002264Y017323
X002264Y016831
X002419Y016513
X004646Y01248
X004722Y015259
X004724Y018898
X00502Y006496
X00502Y005709
X005083Y010323
X005087Y01189
X005217Y00689
X005217Y006102
X005413Y006496
X005413Y005709
X00561Y00689
X005807Y006496
X005846Y019173
X005925Y01752
X006004Y00935
X006004Y00689
X007874Y012598
X009055Y008268
X009055Y00748
X009252Y007874
X009252Y007087
X009449Y008268
X009449Y00748
X009646Y007874
X009646Y007087
X009646Y005906
X009843Y008268
X009843Y00748
X010039Y007874
X010039Y007087
X010039Y005906
X010236Y008268
X010236Y00748
X010433Y007874
X010433Y007087
X010433Y005906
X01063Y008268
X01063Y00748
X010827Y007874
X010827Y007087
X010827Y005906
X012598Y004626
X012992Y009843
X012992Y009449
X012992Y009055
X012992Y008661
X013386Y009646
X013386Y009252
X013386Y008858
X013386Y007874
X013386Y00748
X013386Y007087
X013386Y006693
X013386Y006299
X013386Y004921
X013583Y005315
X013583Y004528
X01378Y004921
X013957Y006713
X013976Y005315
X013976Y004528
X014173Y004921
X014272Y008268
X01437Y005315
X01437Y004528
X014567Y006791
X014567Y004921
X014764Y010433
X01565Y017559
X017421Y019094
X017421Y017539
X017421Y008346
X017606Y012693
X018012Y019075
X018012Y017539
X018083Y010197
X018465Y007474
X01939Y009252
X01939Y008858
X019587Y009055
X019587Y008661
X020453Y010197
X020453Y002579
X020549Y00923
X02065Y011378
X020728Y012165
X021047Y007717
X021693Y002579
X022146Y018898
X022421Y008976
X023602Y013701
X024902Y008437
T2
X015061Y004846
X015561Y004846
T3
X0245Y018315
X0245Y017315
X0245Y016315
X0245Y015315
X018091Y015315
X019091Y015315
X020091Y015315
X021091Y015315
X022539Y006299
X024902Y006299
X019591Y001376
X020575Y001376
X021559Y001376
X007625Y01896
X008625Y01896
X009625Y01896
X010625Y01896
X011625Y01896
X012625Y01896
X013625Y01896
X014625Y01896
X00328Y021336
X00328Y020336
X00428Y021336
X00428Y020336
X00528Y021336
X00528Y020336
X00628Y021336
X00628Y020336
X00728Y021336
X00728Y020336
X00828Y021336
X00828Y020336
X00928Y021336
X00928Y020336
X01028Y021336
X01028Y020336
X01128Y021336
X01128Y020336
X01228Y021336
X01228Y020336
X01328Y021336
X01328Y020336
X01428Y021336
X01428Y020336
X01528Y021336
X01528Y020336
X01628Y021336
X01628Y020336
X01728Y021336
X01728Y020336
X01828Y021336
X01828Y020336
X01928Y021336
X01928Y020336
X02028Y021336
X02028Y020336
X02128Y021336
X02128Y020336
X02228Y021336
X02228Y020336
X000644Y006887
X001644Y006887
X002644Y006887
X024508Y013315
X024508Y012315
X024508Y011315
X024508Y010315
X000644Y005887
X001644Y005887
X002644Y005887
X019091Y018315
X020091Y018315
X021091Y018315
X000648Y004887
X001648Y004887
X002648Y004887
X000648Y003887
X001648Y003887
X002648Y003887
T4
X014102Y001691
X016102Y001691
X0041Y001691
X0061Y001691
X009101Y001691
X011101Y001691
T0
M30
