G04 #@! TF.GenerationSoftware,KiCad,Pcbnew,(5.1.4)-1*
G04 #@! TF.CreationDate,2019-11-04T18:42:31+11:00*
G04 #@! TF.ProjectId,dingo-hat,64696e67-6f2d-4686-9174-2e6b69636164,rev?*
G04 #@! TF.SameCoordinates,Original*
G04 #@! TF.FileFunction,Paste,Bot*
G04 #@! TF.FilePolarity,Positive*
%FSLAX46Y46*%
G04 Gerber Fmt 4.6, Leading zero omitted, Abs format (unit mm)*
G04 Created by KiCad (PCBNEW (5.1.4)-1) date 2019-11-04 18:42:31*
%MOMM*%
%LPD*%
G04 APERTURE LIST*
%ADD10C,0.200000*%
%ADD11C,0.000100*%
G04 APERTURE END LIST*
D10*
X124530000Y-113300000D02*
G75*
G02X122530000Y-113300000I-1000000J0D01*
G01*
X79530000Y-80800000D02*
G75*
G02X78530000Y-79800000I0J1000000D01*
G01*
X122530000Y-98300000D02*
X122530000Y-113300000D01*
X122530000Y-98300000D02*
G75*
G02X124530000Y-98300000I1000000J0D01*
G01*
X82530000Y-80800000D02*
G75*
G02X83530000Y-81800000I125000J-875000D01*
G01*
X124530000Y-98300000D02*
X124530000Y-113300000D01*
X83530000Y-96800000D02*
X83530000Y-81800000D01*
X79530000Y-80800000D02*
X82530000Y-80800000D01*
X79530000Y-97800000D02*
X82530000Y-97800000D01*
X78530000Y-63800000D02*
G75*
G02X81530000Y-60800000I3000000J0D01*
G01*
X140530000Y-60800000D02*
X81530000Y-60800000D01*
X78530000Y-98800000D02*
X78530000Y-114300000D01*
X78530000Y-98800000D02*
G75*
G02X79530000Y-97800000I1000000J0D01*
G01*
X140530000Y-60800000D02*
G75*
G02X143530000Y-63800000I0J-3000000D01*
G01*
X81530000Y-117300000D02*
X140530000Y-117300000D01*
X78530000Y-63800000D02*
X78530000Y-79800000D01*
X81530000Y-117300000D02*
G75*
G02X78530000Y-114300000I0J3000000D01*
G01*
X83530000Y-96800000D02*
G75*
G02X82530000Y-97800000I-875000J-125000D01*
G01*
X143530000Y-114300000D02*
X143530000Y-63800000D01*
X143530000Y-114300000D02*
G75*
G02X140530000Y-117300000I-3000000J0D01*
G01*
D11*
X136340000Y-102994000D02*
X135340000Y-102994000D01*
X135340000Y-102994000D02*
X135340000Y-99494000D01*
X135340000Y-99494000D02*
X136340000Y-99494000D01*
X136340000Y-99494000D02*
X136340000Y-102994000D01*
X142340000Y-102744000D02*
X141340000Y-102744000D01*
X141340000Y-102744000D02*
X141340000Y-99744000D01*
X141340000Y-99744000D02*
X142340000Y-99744000D01*
X142340000Y-99744000D02*
X142340000Y-102744000D01*
M02*
