G04 #@! TF.GenerationSoftware,KiCad,Pcbnew,(5.1.4)-1*
G04 #@! TF.CreationDate,2019-11-27T00:46:47+11:00*
G04 #@! TF.ProjectId,dingo-hat,64696e67-6f2d-4686-9174-2e6b69636164,rev?*
G04 #@! TF.SameCoordinates,Original*
G04 #@! TF.FileFunction,Paste,Top*
G04 #@! TF.FilePolarity,Positive*
%FSLAX46Y46*%
G04 Gerber Fmt 4.6, Leading zero omitted, Abs format (unit mm)*
G04 Created by KiCad (PCBNEW (5.1.4)-1) date 2019-11-27 00:46:47*
%MOMM*%
%LPD*%
G04 APERTURE LIST*
%ADD10R,1.800000X1.800000*%
%ADD11R,0.500000X0.400000*%
%ADD12R,0.500000X0.350000*%
%ADD13R,0.500000X0.750000*%
%ADD14R,0.650000X0.300000*%
%ADD15R,1.550000X2.480000*%
%ADD16R,1.100000X1.100000*%
%ADD17C,0.100000*%
%ADD18C,0.950000*%
%ADD19C,1.425000*%
%ADD20R,0.400000X1.100000*%
%ADD21R,0.800000X2.200000*%
%ADD22R,3.700000X2.710000*%
%ADD23R,2.400000X1.650000*%
%ADD24R,0.300000X0.800000*%
%ADD25R,1.060000X0.650000*%
%ADD26R,2.000000X3.500000*%
%ADD27R,3.200000X1.600000*%
%ADD28R,0.500000X0.800000*%
%ADD29R,0.400000X0.800000*%
G04 APERTURE END LIST*
D10*
X138816000Y-84934000D03*
D11*
X137466000Y-84134000D03*
X140166000Y-84134000D03*
X137466000Y-84734000D03*
X140166000Y-84734000D03*
D12*
X137466000Y-85334000D03*
X140166000Y-85334000D03*
X137466000Y-85734000D03*
X140166000Y-85734000D03*
D13*
X137466000Y-85534000D03*
X140166000Y-85534000D03*
D14*
X145986900Y-72670000D03*
X145986900Y-73170000D03*
X145986900Y-74170000D03*
X145986900Y-74670000D03*
X142886900Y-74670000D03*
X142886900Y-74170000D03*
X142886900Y-73670000D03*
X142886900Y-73170000D03*
D15*
X144436900Y-73670000D03*
D14*
X145986900Y-73670000D03*
X142886900Y-72670000D03*
D16*
X113450000Y-87064000D03*
X110650000Y-87064000D03*
D17*
G36*
X124980779Y-52735144D02*
G01*
X125003834Y-52738563D01*
X125026443Y-52744227D01*
X125048387Y-52752079D01*
X125069457Y-52762044D01*
X125089448Y-52774026D01*
X125108168Y-52787910D01*
X125125438Y-52803562D01*
X125141090Y-52820832D01*
X125154974Y-52839552D01*
X125166956Y-52859543D01*
X125176921Y-52880613D01*
X125184773Y-52902557D01*
X125190437Y-52925166D01*
X125193856Y-52948221D01*
X125195000Y-52971500D01*
X125195000Y-53546500D01*
X125193856Y-53569779D01*
X125190437Y-53592834D01*
X125184773Y-53615443D01*
X125176921Y-53637387D01*
X125166956Y-53658457D01*
X125154974Y-53678448D01*
X125141090Y-53697168D01*
X125125438Y-53714438D01*
X125108168Y-53730090D01*
X125089448Y-53743974D01*
X125069457Y-53755956D01*
X125048387Y-53765921D01*
X125026443Y-53773773D01*
X125003834Y-53779437D01*
X124980779Y-53782856D01*
X124957500Y-53784000D01*
X124482500Y-53784000D01*
X124459221Y-53782856D01*
X124436166Y-53779437D01*
X124413557Y-53773773D01*
X124391613Y-53765921D01*
X124370543Y-53755956D01*
X124350552Y-53743974D01*
X124331832Y-53730090D01*
X124314562Y-53714438D01*
X124298910Y-53697168D01*
X124285026Y-53678448D01*
X124273044Y-53658457D01*
X124263079Y-53637387D01*
X124255227Y-53615443D01*
X124249563Y-53592834D01*
X124246144Y-53569779D01*
X124245000Y-53546500D01*
X124245000Y-52971500D01*
X124246144Y-52948221D01*
X124249563Y-52925166D01*
X124255227Y-52902557D01*
X124263079Y-52880613D01*
X124273044Y-52859543D01*
X124285026Y-52839552D01*
X124298910Y-52820832D01*
X124314562Y-52803562D01*
X124331832Y-52787910D01*
X124350552Y-52774026D01*
X124370543Y-52762044D01*
X124391613Y-52752079D01*
X124413557Y-52744227D01*
X124436166Y-52738563D01*
X124459221Y-52735144D01*
X124482500Y-52734000D01*
X124957500Y-52734000D01*
X124980779Y-52735144D01*
X124980779Y-52735144D01*
G37*
D18*
X124720000Y-53259000D03*
D17*
G36*
X124980779Y-54485144D02*
G01*
X125003834Y-54488563D01*
X125026443Y-54494227D01*
X125048387Y-54502079D01*
X125069457Y-54512044D01*
X125089448Y-54524026D01*
X125108168Y-54537910D01*
X125125438Y-54553562D01*
X125141090Y-54570832D01*
X125154974Y-54589552D01*
X125166956Y-54609543D01*
X125176921Y-54630613D01*
X125184773Y-54652557D01*
X125190437Y-54675166D01*
X125193856Y-54698221D01*
X125195000Y-54721500D01*
X125195000Y-55296500D01*
X125193856Y-55319779D01*
X125190437Y-55342834D01*
X125184773Y-55365443D01*
X125176921Y-55387387D01*
X125166956Y-55408457D01*
X125154974Y-55428448D01*
X125141090Y-55447168D01*
X125125438Y-55464438D01*
X125108168Y-55480090D01*
X125089448Y-55493974D01*
X125069457Y-55505956D01*
X125048387Y-55515921D01*
X125026443Y-55523773D01*
X125003834Y-55529437D01*
X124980779Y-55532856D01*
X124957500Y-55534000D01*
X124482500Y-55534000D01*
X124459221Y-55532856D01*
X124436166Y-55529437D01*
X124413557Y-55523773D01*
X124391613Y-55515921D01*
X124370543Y-55505956D01*
X124350552Y-55493974D01*
X124331832Y-55480090D01*
X124314562Y-55464438D01*
X124298910Y-55447168D01*
X124285026Y-55428448D01*
X124273044Y-55408457D01*
X124263079Y-55387387D01*
X124255227Y-55365443D01*
X124249563Y-55342834D01*
X124246144Y-55319779D01*
X124245000Y-55296500D01*
X124245000Y-54721500D01*
X124246144Y-54698221D01*
X124249563Y-54675166D01*
X124255227Y-54652557D01*
X124263079Y-54630613D01*
X124273044Y-54609543D01*
X124285026Y-54589552D01*
X124298910Y-54570832D01*
X124314562Y-54553562D01*
X124331832Y-54537910D01*
X124350552Y-54524026D01*
X124370543Y-54512044D01*
X124391613Y-54502079D01*
X124413557Y-54494227D01*
X124436166Y-54488563D01*
X124459221Y-54485144D01*
X124482500Y-54484000D01*
X124957500Y-54484000D01*
X124980779Y-54485144D01*
X124980779Y-54485144D01*
G37*
D18*
X124720000Y-55009000D03*
D17*
G36*
X150355779Y-77760144D02*
G01*
X150378834Y-77763563D01*
X150401443Y-77769227D01*
X150423387Y-77777079D01*
X150444457Y-77787044D01*
X150464448Y-77799026D01*
X150483168Y-77812910D01*
X150500438Y-77828562D01*
X150516090Y-77845832D01*
X150529974Y-77864552D01*
X150541956Y-77884543D01*
X150551921Y-77905613D01*
X150559773Y-77927557D01*
X150565437Y-77950166D01*
X150568856Y-77973221D01*
X150570000Y-77996500D01*
X150570000Y-78471500D01*
X150568856Y-78494779D01*
X150565437Y-78517834D01*
X150559773Y-78540443D01*
X150551921Y-78562387D01*
X150541956Y-78583457D01*
X150529974Y-78603448D01*
X150516090Y-78622168D01*
X150500438Y-78639438D01*
X150483168Y-78655090D01*
X150464448Y-78668974D01*
X150444457Y-78680956D01*
X150423387Y-78690921D01*
X150401443Y-78698773D01*
X150378834Y-78704437D01*
X150355779Y-78707856D01*
X150332500Y-78709000D01*
X149757500Y-78709000D01*
X149734221Y-78707856D01*
X149711166Y-78704437D01*
X149688557Y-78698773D01*
X149666613Y-78690921D01*
X149645543Y-78680956D01*
X149625552Y-78668974D01*
X149606832Y-78655090D01*
X149589562Y-78639438D01*
X149573910Y-78622168D01*
X149560026Y-78603448D01*
X149548044Y-78583457D01*
X149538079Y-78562387D01*
X149530227Y-78540443D01*
X149524563Y-78517834D01*
X149521144Y-78494779D01*
X149520000Y-78471500D01*
X149520000Y-77996500D01*
X149521144Y-77973221D01*
X149524563Y-77950166D01*
X149530227Y-77927557D01*
X149538079Y-77905613D01*
X149548044Y-77884543D01*
X149560026Y-77864552D01*
X149573910Y-77845832D01*
X149589562Y-77828562D01*
X149606832Y-77812910D01*
X149625552Y-77799026D01*
X149645543Y-77787044D01*
X149666613Y-77777079D01*
X149688557Y-77769227D01*
X149711166Y-77763563D01*
X149734221Y-77760144D01*
X149757500Y-77759000D01*
X150332500Y-77759000D01*
X150355779Y-77760144D01*
X150355779Y-77760144D01*
G37*
D18*
X150045000Y-78234000D03*
D17*
G36*
X148605779Y-77760144D02*
G01*
X148628834Y-77763563D01*
X148651443Y-77769227D01*
X148673387Y-77777079D01*
X148694457Y-77787044D01*
X148714448Y-77799026D01*
X148733168Y-77812910D01*
X148750438Y-77828562D01*
X148766090Y-77845832D01*
X148779974Y-77864552D01*
X148791956Y-77884543D01*
X148801921Y-77905613D01*
X148809773Y-77927557D01*
X148815437Y-77950166D01*
X148818856Y-77973221D01*
X148820000Y-77996500D01*
X148820000Y-78471500D01*
X148818856Y-78494779D01*
X148815437Y-78517834D01*
X148809773Y-78540443D01*
X148801921Y-78562387D01*
X148791956Y-78583457D01*
X148779974Y-78603448D01*
X148766090Y-78622168D01*
X148750438Y-78639438D01*
X148733168Y-78655090D01*
X148714448Y-78668974D01*
X148694457Y-78680956D01*
X148673387Y-78690921D01*
X148651443Y-78698773D01*
X148628834Y-78704437D01*
X148605779Y-78707856D01*
X148582500Y-78709000D01*
X148007500Y-78709000D01*
X147984221Y-78707856D01*
X147961166Y-78704437D01*
X147938557Y-78698773D01*
X147916613Y-78690921D01*
X147895543Y-78680956D01*
X147875552Y-78668974D01*
X147856832Y-78655090D01*
X147839562Y-78639438D01*
X147823910Y-78622168D01*
X147810026Y-78603448D01*
X147798044Y-78583457D01*
X147788079Y-78562387D01*
X147780227Y-78540443D01*
X147774563Y-78517834D01*
X147771144Y-78494779D01*
X147770000Y-78471500D01*
X147770000Y-77996500D01*
X147771144Y-77973221D01*
X147774563Y-77950166D01*
X147780227Y-77927557D01*
X147788079Y-77905613D01*
X147798044Y-77884543D01*
X147810026Y-77864552D01*
X147823910Y-77845832D01*
X147839562Y-77828562D01*
X147856832Y-77812910D01*
X147875552Y-77799026D01*
X147895543Y-77787044D01*
X147916613Y-77777079D01*
X147938557Y-77769227D01*
X147961166Y-77763563D01*
X147984221Y-77760144D01*
X148007500Y-77759000D01*
X148582500Y-77759000D01*
X148605779Y-77760144D01*
X148605779Y-77760144D01*
G37*
D18*
X148295000Y-78234000D03*
D17*
G36*
X113155779Y-70400144D02*
G01*
X113178834Y-70403563D01*
X113201443Y-70409227D01*
X113223387Y-70417079D01*
X113244457Y-70427044D01*
X113264448Y-70439026D01*
X113283168Y-70452910D01*
X113300438Y-70468562D01*
X113316090Y-70485832D01*
X113329974Y-70504552D01*
X113341956Y-70524543D01*
X113351921Y-70545613D01*
X113359773Y-70567557D01*
X113365437Y-70590166D01*
X113368856Y-70613221D01*
X113370000Y-70636500D01*
X113370000Y-71111500D01*
X113368856Y-71134779D01*
X113365437Y-71157834D01*
X113359773Y-71180443D01*
X113351921Y-71202387D01*
X113341956Y-71223457D01*
X113329974Y-71243448D01*
X113316090Y-71262168D01*
X113300438Y-71279438D01*
X113283168Y-71295090D01*
X113264448Y-71308974D01*
X113244457Y-71320956D01*
X113223387Y-71330921D01*
X113201443Y-71338773D01*
X113178834Y-71344437D01*
X113155779Y-71347856D01*
X113132500Y-71349000D01*
X112557500Y-71349000D01*
X112534221Y-71347856D01*
X112511166Y-71344437D01*
X112488557Y-71338773D01*
X112466613Y-71330921D01*
X112445543Y-71320956D01*
X112425552Y-71308974D01*
X112406832Y-71295090D01*
X112389562Y-71279438D01*
X112373910Y-71262168D01*
X112360026Y-71243448D01*
X112348044Y-71223457D01*
X112338079Y-71202387D01*
X112330227Y-71180443D01*
X112324563Y-71157834D01*
X112321144Y-71134779D01*
X112320000Y-71111500D01*
X112320000Y-70636500D01*
X112321144Y-70613221D01*
X112324563Y-70590166D01*
X112330227Y-70567557D01*
X112338079Y-70545613D01*
X112348044Y-70524543D01*
X112360026Y-70504552D01*
X112373910Y-70485832D01*
X112389562Y-70468562D01*
X112406832Y-70452910D01*
X112425552Y-70439026D01*
X112445543Y-70427044D01*
X112466613Y-70417079D01*
X112488557Y-70409227D01*
X112511166Y-70403563D01*
X112534221Y-70400144D01*
X112557500Y-70399000D01*
X113132500Y-70399000D01*
X113155779Y-70400144D01*
X113155779Y-70400144D01*
G37*
D18*
X112845000Y-70874000D03*
D17*
G36*
X114905779Y-70400144D02*
G01*
X114928834Y-70403563D01*
X114951443Y-70409227D01*
X114973387Y-70417079D01*
X114994457Y-70427044D01*
X115014448Y-70439026D01*
X115033168Y-70452910D01*
X115050438Y-70468562D01*
X115066090Y-70485832D01*
X115079974Y-70504552D01*
X115091956Y-70524543D01*
X115101921Y-70545613D01*
X115109773Y-70567557D01*
X115115437Y-70590166D01*
X115118856Y-70613221D01*
X115120000Y-70636500D01*
X115120000Y-71111500D01*
X115118856Y-71134779D01*
X115115437Y-71157834D01*
X115109773Y-71180443D01*
X115101921Y-71202387D01*
X115091956Y-71223457D01*
X115079974Y-71243448D01*
X115066090Y-71262168D01*
X115050438Y-71279438D01*
X115033168Y-71295090D01*
X115014448Y-71308974D01*
X114994457Y-71320956D01*
X114973387Y-71330921D01*
X114951443Y-71338773D01*
X114928834Y-71344437D01*
X114905779Y-71347856D01*
X114882500Y-71349000D01*
X114307500Y-71349000D01*
X114284221Y-71347856D01*
X114261166Y-71344437D01*
X114238557Y-71338773D01*
X114216613Y-71330921D01*
X114195543Y-71320956D01*
X114175552Y-71308974D01*
X114156832Y-71295090D01*
X114139562Y-71279438D01*
X114123910Y-71262168D01*
X114110026Y-71243448D01*
X114098044Y-71223457D01*
X114088079Y-71202387D01*
X114080227Y-71180443D01*
X114074563Y-71157834D01*
X114071144Y-71134779D01*
X114070000Y-71111500D01*
X114070000Y-70636500D01*
X114071144Y-70613221D01*
X114074563Y-70590166D01*
X114080227Y-70567557D01*
X114088079Y-70545613D01*
X114098044Y-70524543D01*
X114110026Y-70504552D01*
X114123910Y-70485832D01*
X114139562Y-70468562D01*
X114156832Y-70452910D01*
X114175552Y-70439026D01*
X114195543Y-70427044D01*
X114216613Y-70417079D01*
X114238557Y-70409227D01*
X114261166Y-70403563D01*
X114284221Y-70400144D01*
X114307500Y-70399000D01*
X114882500Y-70399000D01*
X114905779Y-70400144D01*
X114905779Y-70400144D01*
G37*
D18*
X114595000Y-70874000D03*
D17*
G36*
X114895779Y-71940144D02*
G01*
X114918834Y-71943563D01*
X114941443Y-71949227D01*
X114963387Y-71957079D01*
X114984457Y-71967044D01*
X115004448Y-71979026D01*
X115023168Y-71992910D01*
X115040438Y-72008562D01*
X115056090Y-72025832D01*
X115069974Y-72044552D01*
X115081956Y-72064543D01*
X115091921Y-72085613D01*
X115099773Y-72107557D01*
X115105437Y-72130166D01*
X115108856Y-72153221D01*
X115110000Y-72176500D01*
X115110000Y-72651500D01*
X115108856Y-72674779D01*
X115105437Y-72697834D01*
X115099773Y-72720443D01*
X115091921Y-72742387D01*
X115081956Y-72763457D01*
X115069974Y-72783448D01*
X115056090Y-72802168D01*
X115040438Y-72819438D01*
X115023168Y-72835090D01*
X115004448Y-72848974D01*
X114984457Y-72860956D01*
X114963387Y-72870921D01*
X114941443Y-72878773D01*
X114918834Y-72884437D01*
X114895779Y-72887856D01*
X114872500Y-72889000D01*
X114297500Y-72889000D01*
X114274221Y-72887856D01*
X114251166Y-72884437D01*
X114228557Y-72878773D01*
X114206613Y-72870921D01*
X114185543Y-72860956D01*
X114165552Y-72848974D01*
X114146832Y-72835090D01*
X114129562Y-72819438D01*
X114113910Y-72802168D01*
X114100026Y-72783448D01*
X114088044Y-72763457D01*
X114078079Y-72742387D01*
X114070227Y-72720443D01*
X114064563Y-72697834D01*
X114061144Y-72674779D01*
X114060000Y-72651500D01*
X114060000Y-72176500D01*
X114061144Y-72153221D01*
X114064563Y-72130166D01*
X114070227Y-72107557D01*
X114078079Y-72085613D01*
X114088044Y-72064543D01*
X114100026Y-72044552D01*
X114113910Y-72025832D01*
X114129562Y-72008562D01*
X114146832Y-71992910D01*
X114165552Y-71979026D01*
X114185543Y-71967044D01*
X114206613Y-71957079D01*
X114228557Y-71949227D01*
X114251166Y-71943563D01*
X114274221Y-71940144D01*
X114297500Y-71939000D01*
X114872500Y-71939000D01*
X114895779Y-71940144D01*
X114895779Y-71940144D01*
G37*
D18*
X114585000Y-72414000D03*
D17*
G36*
X113145779Y-71940144D02*
G01*
X113168834Y-71943563D01*
X113191443Y-71949227D01*
X113213387Y-71957079D01*
X113234457Y-71967044D01*
X113254448Y-71979026D01*
X113273168Y-71992910D01*
X113290438Y-72008562D01*
X113306090Y-72025832D01*
X113319974Y-72044552D01*
X113331956Y-72064543D01*
X113341921Y-72085613D01*
X113349773Y-72107557D01*
X113355437Y-72130166D01*
X113358856Y-72153221D01*
X113360000Y-72176500D01*
X113360000Y-72651500D01*
X113358856Y-72674779D01*
X113355437Y-72697834D01*
X113349773Y-72720443D01*
X113341921Y-72742387D01*
X113331956Y-72763457D01*
X113319974Y-72783448D01*
X113306090Y-72802168D01*
X113290438Y-72819438D01*
X113273168Y-72835090D01*
X113254448Y-72848974D01*
X113234457Y-72860956D01*
X113213387Y-72870921D01*
X113191443Y-72878773D01*
X113168834Y-72884437D01*
X113145779Y-72887856D01*
X113122500Y-72889000D01*
X112547500Y-72889000D01*
X112524221Y-72887856D01*
X112501166Y-72884437D01*
X112478557Y-72878773D01*
X112456613Y-72870921D01*
X112435543Y-72860956D01*
X112415552Y-72848974D01*
X112396832Y-72835090D01*
X112379562Y-72819438D01*
X112363910Y-72802168D01*
X112350026Y-72783448D01*
X112338044Y-72763457D01*
X112328079Y-72742387D01*
X112320227Y-72720443D01*
X112314563Y-72697834D01*
X112311144Y-72674779D01*
X112310000Y-72651500D01*
X112310000Y-72176500D01*
X112311144Y-72153221D01*
X112314563Y-72130166D01*
X112320227Y-72107557D01*
X112328079Y-72085613D01*
X112338044Y-72064543D01*
X112350026Y-72044552D01*
X112363910Y-72025832D01*
X112379562Y-72008562D01*
X112396832Y-71992910D01*
X112415552Y-71979026D01*
X112435543Y-71967044D01*
X112456613Y-71957079D01*
X112478557Y-71949227D01*
X112501166Y-71943563D01*
X112524221Y-71940144D01*
X112547500Y-71939000D01*
X113122500Y-71939000D01*
X113145779Y-71940144D01*
X113145779Y-71940144D01*
G37*
D18*
X112835000Y-72414000D03*
D17*
G36*
X118495779Y-67770144D02*
G01*
X118518834Y-67773563D01*
X118541443Y-67779227D01*
X118563387Y-67787079D01*
X118584457Y-67797044D01*
X118604448Y-67809026D01*
X118623168Y-67822910D01*
X118640438Y-67838562D01*
X118656090Y-67855832D01*
X118669974Y-67874552D01*
X118681956Y-67894543D01*
X118691921Y-67915613D01*
X118699773Y-67937557D01*
X118705437Y-67960166D01*
X118708856Y-67983221D01*
X118710000Y-68006500D01*
X118710000Y-68481500D01*
X118708856Y-68504779D01*
X118705437Y-68527834D01*
X118699773Y-68550443D01*
X118691921Y-68572387D01*
X118681956Y-68593457D01*
X118669974Y-68613448D01*
X118656090Y-68632168D01*
X118640438Y-68649438D01*
X118623168Y-68665090D01*
X118604448Y-68678974D01*
X118584457Y-68690956D01*
X118563387Y-68700921D01*
X118541443Y-68708773D01*
X118518834Y-68714437D01*
X118495779Y-68717856D01*
X118472500Y-68719000D01*
X117897500Y-68719000D01*
X117874221Y-68717856D01*
X117851166Y-68714437D01*
X117828557Y-68708773D01*
X117806613Y-68700921D01*
X117785543Y-68690956D01*
X117765552Y-68678974D01*
X117746832Y-68665090D01*
X117729562Y-68649438D01*
X117713910Y-68632168D01*
X117700026Y-68613448D01*
X117688044Y-68593457D01*
X117678079Y-68572387D01*
X117670227Y-68550443D01*
X117664563Y-68527834D01*
X117661144Y-68504779D01*
X117660000Y-68481500D01*
X117660000Y-68006500D01*
X117661144Y-67983221D01*
X117664563Y-67960166D01*
X117670227Y-67937557D01*
X117678079Y-67915613D01*
X117688044Y-67894543D01*
X117700026Y-67874552D01*
X117713910Y-67855832D01*
X117729562Y-67838562D01*
X117746832Y-67822910D01*
X117765552Y-67809026D01*
X117785543Y-67797044D01*
X117806613Y-67787079D01*
X117828557Y-67779227D01*
X117851166Y-67773563D01*
X117874221Y-67770144D01*
X117897500Y-67769000D01*
X118472500Y-67769000D01*
X118495779Y-67770144D01*
X118495779Y-67770144D01*
G37*
D18*
X118185000Y-68244000D03*
D17*
G36*
X116745779Y-67770144D02*
G01*
X116768834Y-67773563D01*
X116791443Y-67779227D01*
X116813387Y-67787079D01*
X116834457Y-67797044D01*
X116854448Y-67809026D01*
X116873168Y-67822910D01*
X116890438Y-67838562D01*
X116906090Y-67855832D01*
X116919974Y-67874552D01*
X116931956Y-67894543D01*
X116941921Y-67915613D01*
X116949773Y-67937557D01*
X116955437Y-67960166D01*
X116958856Y-67983221D01*
X116960000Y-68006500D01*
X116960000Y-68481500D01*
X116958856Y-68504779D01*
X116955437Y-68527834D01*
X116949773Y-68550443D01*
X116941921Y-68572387D01*
X116931956Y-68593457D01*
X116919974Y-68613448D01*
X116906090Y-68632168D01*
X116890438Y-68649438D01*
X116873168Y-68665090D01*
X116854448Y-68678974D01*
X116834457Y-68690956D01*
X116813387Y-68700921D01*
X116791443Y-68708773D01*
X116768834Y-68714437D01*
X116745779Y-68717856D01*
X116722500Y-68719000D01*
X116147500Y-68719000D01*
X116124221Y-68717856D01*
X116101166Y-68714437D01*
X116078557Y-68708773D01*
X116056613Y-68700921D01*
X116035543Y-68690956D01*
X116015552Y-68678974D01*
X115996832Y-68665090D01*
X115979562Y-68649438D01*
X115963910Y-68632168D01*
X115950026Y-68613448D01*
X115938044Y-68593457D01*
X115928079Y-68572387D01*
X115920227Y-68550443D01*
X115914563Y-68527834D01*
X115911144Y-68504779D01*
X115910000Y-68481500D01*
X115910000Y-68006500D01*
X115911144Y-67983221D01*
X115914563Y-67960166D01*
X115920227Y-67937557D01*
X115928079Y-67915613D01*
X115938044Y-67894543D01*
X115950026Y-67874552D01*
X115963910Y-67855832D01*
X115979562Y-67838562D01*
X115996832Y-67822910D01*
X116015552Y-67809026D01*
X116035543Y-67797044D01*
X116056613Y-67787079D01*
X116078557Y-67779227D01*
X116101166Y-67773563D01*
X116124221Y-67770144D01*
X116147500Y-67769000D01*
X116722500Y-67769000D01*
X116745779Y-67770144D01*
X116745779Y-67770144D01*
G37*
D18*
X116435000Y-68244000D03*
D17*
G36*
X123918779Y-70390144D02*
G01*
X123941834Y-70393563D01*
X123964443Y-70399227D01*
X123986387Y-70407079D01*
X124007457Y-70417044D01*
X124027448Y-70429026D01*
X124046168Y-70442910D01*
X124063438Y-70458562D01*
X124079090Y-70475832D01*
X124092974Y-70494552D01*
X124104956Y-70514543D01*
X124114921Y-70535613D01*
X124122773Y-70557557D01*
X124128437Y-70580166D01*
X124131856Y-70603221D01*
X124133000Y-70626500D01*
X124133000Y-71201500D01*
X124131856Y-71224779D01*
X124128437Y-71247834D01*
X124122773Y-71270443D01*
X124114921Y-71292387D01*
X124104956Y-71313457D01*
X124092974Y-71333448D01*
X124079090Y-71352168D01*
X124063438Y-71369438D01*
X124046168Y-71385090D01*
X124027448Y-71398974D01*
X124007457Y-71410956D01*
X123986387Y-71420921D01*
X123964443Y-71428773D01*
X123941834Y-71434437D01*
X123918779Y-71437856D01*
X123895500Y-71439000D01*
X123420500Y-71439000D01*
X123397221Y-71437856D01*
X123374166Y-71434437D01*
X123351557Y-71428773D01*
X123329613Y-71420921D01*
X123308543Y-71410956D01*
X123288552Y-71398974D01*
X123269832Y-71385090D01*
X123252562Y-71369438D01*
X123236910Y-71352168D01*
X123223026Y-71333448D01*
X123211044Y-71313457D01*
X123201079Y-71292387D01*
X123193227Y-71270443D01*
X123187563Y-71247834D01*
X123184144Y-71224779D01*
X123183000Y-71201500D01*
X123183000Y-70626500D01*
X123184144Y-70603221D01*
X123187563Y-70580166D01*
X123193227Y-70557557D01*
X123201079Y-70535613D01*
X123211044Y-70514543D01*
X123223026Y-70494552D01*
X123236910Y-70475832D01*
X123252562Y-70458562D01*
X123269832Y-70442910D01*
X123288552Y-70429026D01*
X123308543Y-70417044D01*
X123329613Y-70407079D01*
X123351557Y-70399227D01*
X123374166Y-70393563D01*
X123397221Y-70390144D01*
X123420500Y-70389000D01*
X123895500Y-70389000D01*
X123918779Y-70390144D01*
X123918779Y-70390144D01*
G37*
D18*
X123658000Y-70914000D03*
D17*
G36*
X123918779Y-68640144D02*
G01*
X123941834Y-68643563D01*
X123964443Y-68649227D01*
X123986387Y-68657079D01*
X124007457Y-68667044D01*
X124027448Y-68679026D01*
X124046168Y-68692910D01*
X124063438Y-68708562D01*
X124079090Y-68725832D01*
X124092974Y-68744552D01*
X124104956Y-68764543D01*
X124114921Y-68785613D01*
X124122773Y-68807557D01*
X124128437Y-68830166D01*
X124131856Y-68853221D01*
X124133000Y-68876500D01*
X124133000Y-69451500D01*
X124131856Y-69474779D01*
X124128437Y-69497834D01*
X124122773Y-69520443D01*
X124114921Y-69542387D01*
X124104956Y-69563457D01*
X124092974Y-69583448D01*
X124079090Y-69602168D01*
X124063438Y-69619438D01*
X124046168Y-69635090D01*
X124027448Y-69648974D01*
X124007457Y-69660956D01*
X123986387Y-69670921D01*
X123964443Y-69678773D01*
X123941834Y-69684437D01*
X123918779Y-69687856D01*
X123895500Y-69689000D01*
X123420500Y-69689000D01*
X123397221Y-69687856D01*
X123374166Y-69684437D01*
X123351557Y-69678773D01*
X123329613Y-69670921D01*
X123308543Y-69660956D01*
X123288552Y-69648974D01*
X123269832Y-69635090D01*
X123252562Y-69619438D01*
X123236910Y-69602168D01*
X123223026Y-69583448D01*
X123211044Y-69563457D01*
X123201079Y-69542387D01*
X123193227Y-69520443D01*
X123187563Y-69497834D01*
X123184144Y-69474779D01*
X123183000Y-69451500D01*
X123183000Y-68876500D01*
X123184144Y-68853221D01*
X123187563Y-68830166D01*
X123193227Y-68807557D01*
X123201079Y-68785613D01*
X123211044Y-68764543D01*
X123223026Y-68744552D01*
X123236910Y-68725832D01*
X123252562Y-68708562D01*
X123269832Y-68692910D01*
X123288552Y-68679026D01*
X123308543Y-68667044D01*
X123329613Y-68657079D01*
X123351557Y-68649227D01*
X123374166Y-68643563D01*
X123397221Y-68640144D01*
X123420500Y-68639000D01*
X123895500Y-68639000D01*
X123918779Y-68640144D01*
X123918779Y-68640144D01*
G37*
D18*
X123658000Y-69164000D03*
D17*
G36*
X148340779Y-89415144D02*
G01*
X148363834Y-89418563D01*
X148386443Y-89424227D01*
X148408387Y-89432079D01*
X148429457Y-89442044D01*
X148449448Y-89454026D01*
X148468168Y-89467910D01*
X148485438Y-89483562D01*
X148501090Y-89500832D01*
X148514974Y-89519552D01*
X148526956Y-89539543D01*
X148536921Y-89560613D01*
X148544773Y-89582557D01*
X148550437Y-89605166D01*
X148553856Y-89628221D01*
X148555000Y-89651500D01*
X148555000Y-90226500D01*
X148553856Y-90249779D01*
X148550437Y-90272834D01*
X148544773Y-90295443D01*
X148536921Y-90317387D01*
X148526956Y-90338457D01*
X148514974Y-90358448D01*
X148501090Y-90377168D01*
X148485438Y-90394438D01*
X148468168Y-90410090D01*
X148449448Y-90423974D01*
X148429457Y-90435956D01*
X148408387Y-90445921D01*
X148386443Y-90453773D01*
X148363834Y-90459437D01*
X148340779Y-90462856D01*
X148317500Y-90464000D01*
X147842500Y-90464000D01*
X147819221Y-90462856D01*
X147796166Y-90459437D01*
X147773557Y-90453773D01*
X147751613Y-90445921D01*
X147730543Y-90435956D01*
X147710552Y-90423974D01*
X147691832Y-90410090D01*
X147674562Y-90394438D01*
X147658910Y-90377168D01*
X147645026Y-90358448D01*
X147633044Y-90338457D01*
X147623079Y-90317387D01*
X147615227Y-90295443D01*
X147609563Y-90272834D01*
X147606144Y-90249779D01*
X147605000Y-90226500D01*
X147605000Y-89651500D01*
X147606144Y-89628221D01*
X147609563Y-89605166D01*
X147615227Y-89582557D01*
X147623079Y-89560613D01*
X147633044Y-89539543D01*
X147645026Y-89519552D01*
X147658910Y-89500832D01*
X147674562Y-89483562D01*
X147691832Y-89467910D01*
X147710552Y-89454026D01*
X147730543Y-89442044D01*
X147751613Y-89432079D01*
X147773557Y-89424227D01*
X147796166Y-89418563D01*
X147819221Y-89415144D01*
X147842500Y-89414000D01*
X148317500Y-89414000D01*
X148340779Y-89415144D01*
X148340779Y-89415144D01*
G37*
D18*
X148080000Y-89939000D03*
D17*
G36*
X148340779Y-91165144D02*
G01*
X148363834Y-91168563D01*
X148386443Y-91174227D01*
X148408387Y-91182079D01*
X148429457Y-91192044D01*
X148449448Y-91204026D01*
X148468168Y-91217910D01*
X148485438Y-91233562D01*
X148501090Y-91250832D01*
X148514974Y-91269552D01*
X148526956Y-91289543D01*
X148536921Y-91310613D01*
X148544773Y-91332557D01*
X148550437Y-91355166D01*
X148553856Y-91378221D01*
X148555000Y-91401500D01*
X148555000Y-91976500D01*
X148553856Y-91999779D01*
X148550437Y-92022834D01*
X148544773Y-92045443D01*
X148536921Y-92067387D01*
X148526956Y-92088457D01*
X148514974Y-92108448D01*
X148501090Y-92127168D01*
X148485438Y-92144438D01*
X148468168Y-92160090D01*
X148449448Y-92173974D01*
X148429457Y-92185956D01*
X148408387Y-92195921D01*
X148386443Y-92203773D01*
X148363834Y-92209437D01*
X148340779Y-92212856D01*
X148317500Y-92214000D01*
X147842500Y-92214000D01*
X147819221Y-92212856D01*
X147796166Y-92209437D01*
X147773557Y-92203773D01*
X147751613Y-92195921D01*
X147730543Y-92185956D01*
X147710552Y-92173974D01*
X147691832Y-92160090D01*
X147674562Y-92144438D01*
X147658910Y-92127168D01*
X147645026Y-92108448D01*
X147633044Y-92088457D01*
X147623079Y-92067387D01*
X147615227Y-92045443D01*
X147609563Y-92022834D01*
X147606144Y-91999779D01*
X147605000Y-91976500D01*
X147605000Y-91401500D01*
X147606144Y-91378221D01*
X147609563Y-91355166D01*
X147615227Y-91332557D01*
X147623079Y-91310613D01*
X147633044Y-91289543D01*
X147645026Y-91269552D01*
X147658910Y-91250832D01*
X147674562Y-91233562D01*
X147691832Y-91217910D01*
X147710552Y-91204026D01*
X147730543Y-91192044D01*
X147751613Y-91182079D01*
X147773557Y-91174227D01*
X147796166Y-91168563D01*
X147819221Y-91165144D01*
X147842500Y-91164000D01*
X148317500Y-91164000D01*
X148340779Y-91165144D01*
X148340779Y-91165144D01*
G37*
D18*
X148080000Y-91689000D03*
D17*
G36*
X150735779Y-91006144D02*
G01*
X150758834Y-91009563D01*
X150781443Y-91015227D01*
X150803387Y-91023079D01*
X150824457Y-91033044D01*
X150844448Y-91045026D01*
X150863168Y-91058910D01*
X150880438Y-91074562D01*
X150896090Y-91091832D01*
X150909974Y-91110552D01*
X150921956Y-91130543D01*
X150931921Y-91151613D01*
X150939773Y-91173557D01*
X150945437Y-91196166D01*
X150948856Y-91219221D01*
X150950000Y-91242500D01*
X150950000Y-91717500D01*
X150948856Y-91740779D01*
X150945437Y-91763834D01*
X150939773Y-91786443D01*
X150931921Y-91808387D01*
X150921956Y-91829457D01*
X150909974Y-91849448D01*
X150896090Y-91868168D01*
X150880438Y-91885438D01*
X150863168Y-91901090D01*
X150844448Y-91914974D01*
X150824457Y-91926956D01*
X150803387Y-91936921D01*
X150781443Y-91944773D01*
X150758834Y-91950437D01*
X150735779Y-91953856D01*
X150712500Y-91955000D01*
X150137500Y-91955000D01*
X150114221Y-91953856D01*
X150091166Y-91950437D01*
X150068557Y-91944773D01*
X150046613Y-91936921D01*
X150025543Y-91926956D01*
X150005552Y-91914974D01*
X149986832Y-91901090D01*
X149969562Y-91885438D01*
X149953910Y-91868168D01*
X149940026Y-91849448D01*
X149928044Y-91829457D01*
X149918079Y-91808387D01*
X149910227Y-91786443D01*
X149904563Y-91763834D01*
X149901144Y-91740779D01*
X149900000Y-91717500D01*
X149900000Y-91242500D01*
X149901144Y-91219221D01*
X149904563Y-91196166D01*
X149910227Y-91173557D01*
X149918079Y-91151613D01*
X149928044Y-91130543D01*
X149940026Y-91110552D01*
X149953910Y-91091832D01*
X149969562Y-91074562D01*
X149986832Y-91058910D01*
X150005552Y-91045026D01*
X150025543Y-91033044D01*
X150046613Y-91023079D01*
X150068557Y-91015227D01*
X150091166Y-91009563D01*
X150114221Y-91006144D01*
X150137500Y-91005000D01*
X150712500Y-91005000D01*
X150735779Y-91006144D01*
X150735779Y-91006144D01*
G37*
D18*
X150425000Y-91480000D03*
D17*
G36*
X152485779Y-91006144D02*
G01*
X152508834Y-91009563D01*
X152531443Y-91015227D01*
X152553387Y-91023079D01*
X152574457Y-91033044D01*
X152594448Y-91045026D01*
X152613168Y-91058910D01*
X152630438Y-91074562D01*
X152646090Y-91091832D01*
X152659974Y-91110552D01*
X152671956Y-91130543D01*
X152681921Y-91151613D01*
X152689773Y-91173557D01*
X152695437Y-91196166D01*
X152698856Y-91219221D01*
X152700000Y-91242500D01*
X152700000Y-91717500D01*
X152698856Y-91740779D01*
X152695437Y-91763834D01*
X152689773Y-91786443D01*
X152681921Y-91808387D01*
X152671956Y-91829457D01*
X152659974Y-91849448D01*
X152646090Y-91868168D01*
X152630438Y-91885438D01*
X152613168Y-91901090D01*
X152594448Y-91914974D01*
X152574457Y-91926956D01*
X152553387Y-91936921D01*
X152531443Y-91944773D01*
X152508834Y-91950437D01*
X152485779Y-91953856D01*
X152462500Y-91955000D01*
X151887500Y-91955000D01*
X151864221Y-91953856D01*
X151841166Y-91950437D01*
X151818557Y-91944773D01*
X151796613Y-91936921D01*
X151775543Y-91926956D01*
X151755552Y-91914974D01*
X151736832Y-91901090D01*
X151719562Y-91885438D01*
X151703910Y-91868168D01*
X151690026Y-91849448D01*
X151678044Y-91829457D01*
X151668079Y-91808387D01*
X151660227Y-91786443D01*
X151654563Y-91763834D01*
X151651144Y-91740779D01*
X151650000Y-91717500D01*
X151650000Y-91242500D01*
X151651144Y-91219221D01*
X151654563Y-91196166D01*
X151660227Y-91173557D01*
X151668079Y-91151613D01*
X151678044Y-91130543D01*
X151690026Y-91110552D01*
X151703910Y-91091832D01*
X151719562Y-91074562D01*
X151736832Y-91058910D01*
X151755552Y-91045026D01*
X151775543Y-91033044D01*
X151796613Y-91023079D01*
X151818557Y-91015227D01*
X151841166Y-91009563D01*
X151864221Y-91006144D01*
X151887500Y-91005000D01*
X152462500Y-91005000D01*
X152485779Y-91006144D01*
X152485779Y-91006144D01*
G37*
D18*
X152175000Y-91480000D03*
D17*
G36*
X156375779Y-88926144D02*
G01*
X156398834Y-88929563D01*
X156421443Y-88935227D01*
X156443387Y-88943079D01*
X156464457Y-88953044D01*
X156484448Y-88965026D01*
X156503168Y-88978910D01*
X156520438Y-88994562D01*
X156536090Y-89011832D01*
X156549974Y-89030552D01*
X156561956Y-89050543D01*
X156571921Y-89071613D01*
X156579773Y-89093557D01*
X156585437Y-89116166D01*
X156588856Y-89139221D01*
X156590000Y-89162500D01*
X156590000Y-89637500D01*
X156588856Y-89660779D01*
X156585437Y-89683834D01*
X156579773Y-89706443D01*
X156571921Y-89728387D01*
X156561956Y-89749457D01*
X156549974Y-89769448D01*
X156536090Y-89788168D01*
X156520438Y-89805438D01*
X156503168Y-89821090D01*
X156484448Y-89834974D01*
X156464457Y-89846956D01*
X156443387Y-89856921D01*
X156421443Y-89864773D01*
X156398834Y-89870437D01*
X156375779Y-89873856D01*
X156352500Y-89875000D01*
X155777500Y-89875000D01*
X155754221Y-89873856D01*
X155731166Y-89870437D01*
X155708557Y-89864773D01*
X155686613Y-89856921D01*
X155665543Y-89846956D01*
X155645552Y-89834974D01*
X155626832Y-89821090D01*
X155609562Y-89805438D01*
X155593910Y-89788168D01*
X155580026Y-89769448D01*
X155568044Y-89749457D01*
X155558079Y-89728387D01*
X155550227Y-89706443D01*
X155544563Y-89683834D01*
X155541144Y-89660779D01*
X155540000Y-89637500D01*
X155540000Y-89162500D01*
X155541144Y-89139221D01*
X155544563Y-89116166D01*
X155550227Y-89093557D01*
X155558079Y-89071613D01*
X155568044Y-89050543D01*
X155580026Y-89030552D01*
X155593910Y-89011832D01*
X155609562Y-88994562D01*
X155626832Y-88978910D01*
X155645552Y-88965026D01*
X155665543Y-88953044D01*
X155686613Y-88943079D01*
X155708557Y-88935227D01*
X155731166Y-88929563D01*
X155754221Y-88926144D01*
X155777500Y-88925000D01*
X156352500Y-88925000D01*
X156375779Y-88926144D01*
X156375779Y-88926144D01*
G37*
D18*
X156065000Y-89400000D03*
D17*
G36*
X154625779Y-88926144D02*
G01*
X154648834Y-88929563D01*
X154671443Y-88935227D01*
X154693387Y-88943079D01*
X154714457Y-88953044D01*
X154734448Y-88965026D01*
X154753168Y-88978910D01*
X154770438Y-88994562D01*
X154786090Y-89011832D01*
X154799974Y-89030552D01*
X154811956Y-89050543D01*
X154821921Y-89071613D01*
X154829773Y-89093557D01*
X154835437Y-89116166D01*
X154838856Y-89139221D01*
X154840000Y-89162500D01*
X154840000Y-89637500D01*
X154838856Y-89660779D01*
X154835437Y-89683834D01*
X154829773Y-89706443D01*
X154821921Y-89728387D01*
X154811956Y-89749457D01*
X154799974Y-89769448D01*
X154786090Y-89788168D01*
X154770438Y-89805438D01*
X154753168Y-89821090D01*
X154734448Y-89834974D01*
X154714457Y-89846956D01*
X154693387Y-89856921D01*
X154671443Y-89864773D01*
X154648834Y-89870437D01*
X154625779Y-89873856D01*
X154602500Y-89875000D01*
X154027500Y-89875000D01*
X154004221Y-89873856D01*
X153981166Y-89870437D01*
X153958557Y-89864773D01*
X153936613Y-89856921D01*
X153915543Y-89846956D01*
X153895552Y-89834974D01*
X153876832Y-89821090D01*
X153859562Y-89805438D01*
X153843910Y-89788168D01*
X153830026Y-89769448D01*
X153818044Y-89749457D01*
X153808079Y-89728387D01*
X153800227Y-89706443D01*
X153794563Y-89683834D01*
X153791144Y-89660779D01*
X153790000Y-89637500D01*
X153790000Y-89162500D01*
X153791144Y-89139221D01*
X153794563Y-89116166D01*
X153800227Y-89093557D01*
X153808079Y-89071613D01*
X153818044Y-89050543D01*
X153830026Y-89030552D01*
X153843910Y-89011832D01*
X153859562Y-88994562D01*
X153876832Y-88978910D01*
X153895552Y-88965026D01*
X153915543Y-88953044D01*
X153936613Y-88943079D01*
X153958557Y-88935227D01*
X153981166Y-88929563D01*
X154004221Y-88926144D01*
X154027500Y-88925000D01*
X154602500Y-88925000D01*
X154625779Y-88926144D01*
X154625779Y-88926144D01*
G37*
D18*
X154315000Y-89400000D03*
D17*
G36*
X156375779Y-90670144D02*
G01*
X156398834Y-90673563D01*
X156421443Y-90679227D01*
X156443387Y-90687079D01*
X156464457Y-90697044D01*
X156484448Y-90709026D01*
X156503168Y-90722910D01*
X156520438Y-90738562D01*
X156536090Y-90755832D01*
X156549974Y-90774552D01*
X156561956Y-90794543D01*
X156571921Y-90815613D01*
X156579773Y-90837557D01*
X156585437Y-90860166D01*
X156588856Y-90883221D01*
X156590000Y-90906500D01*
X156590000Y-91381500D01*
X156588856Y-91404779D01*
X156585437Y-91427834D01*
X156579773Y-91450443D01*
X156571921Y-91472387D01*
X156561956Y-91493457D01*
X156549974Y-91513448D01*
X156536090Y-91532168D01*
X156520438Y-91549438D01*
X156503168Y-91565090D01*
X156484448Y-91578974D01*
X156464457Y-91590956D01*
X156443387Y-91600921D01*
X156421443Y-91608773D01*
X156398834Y-91614437D01*
X156375779Y-91617856D01*
X156352500Y-91619000D01*
X155777500Y-91619000D01*
X155754221Y-91617856D01*
X155731166Y-91614437D01*
X155708557Y-91608773D01*
X155686613Y-91600921D01*
X155665543Y-91590956D01*
X155645552Y-91578974D01*
X155626832Y-91565090D01*
X155609562Y-91549438D01*
X155593910Y-91532168D01*
X155580026Y-91513448D01*
X155568044Y-91493457D01*
X155558079Y-91472387D01*
X155550227Y-91450443D01*
X155544563Y-91427834D01*
X155541144Y-91404779D01*
X155540000Y-91381500D01*
X155540000Y-90906500D01*
X155541144Y-90883221D01*
X155544563Y-90860166D01*
X155550227Y-90837557D01*
X155558079Y-90815613D01*
X155568044Y-90794543D01*
X155580026Y-90774552D01*
X155593910Y-90755832D01*
X155609562Y-90738562D01*
X155626832Y-90722910D01*
X155645552Y-90709026D01*
X155665543Y-90697044D01*
X155686613Y-90687079D01*
X155708557Y-90679227D01*
X155731166Y-90673563D01*
X155754221Y-90670144D01*
X155777500Y-90669000D01*
X156352500Y-90669000D01*
X156375779Y-90670144D01*
X156375779Y-90670144D01*
G37*
D18*
X156065000Y-91144000D03*
D17*
G36*
X154625779Y-90670144D02*
G01*
X154648834Y-90673563D01*
X154671443Y-90679227D01*
X154693387Y-90687079D01*
X154714457Y-90697044D01*
X154734448Y-90709026D01*
X154753168Y-90722910D01*
X154770438Y-90738562D01*
X154786090Y-90755832D01*
X154799974Y-90774552D01*
X154811956Y-90794543D01*
X154821921Y-90815613D01*
X154829773Y-90837557D01*
X154835437Y-90860166D01*
X154838856Y-90883221D01*
X154840000Y-90906500D01*
X154840000Y-91381500D01*
X154838856Y-91404779D01*
X154835437Y-91427834D01*
X154829773Y-91450443D01*
X154821921Y-91472387D01*
X154811956Y-91493457D01*
X154799974Y-91513448D01*
X154786090Y-91532168D01*
X154770438Y-91549438D01*
X154753168Y-91565090D01*
X154734448Y-91578974D01*
X154714457Y-91590956D01*
X154693387Y-91600921D01*
X154671443Y-91608773D01*
X154648834Y-91614437D01*
X154625779Y-91617856D01*
X154602500Y-91619000D01*
X154027500Y-91619000D01*
X154004221Y-91617856D01*
X153981166Y-91614437D01*
X153958557Y-91608773D01*
X153936613Y-91600921D01*
X153915543Y-91590956D01*
X153895552Y-91578974D01*
X153876832Y-91565090D01*
X153859562Y-91549438D01*
X153843910Y-91532168D01*
X153830026Y-91513448D01*
X153818044Y-91493457D01*
X153808079Y-91472387D01*
X153800227Y-91450443D01*
X153794563Y-91427834D01*
X153791144Y-91404779D01*
X153790000Y-91381500D01*
X153790000Y-90906500D01*
X153791144Y-90883221D01*
X153794563Y-90860166D01*
X153800227Y-90837557D01*
X153808079Y-90815613D01*
X153818044Y-90794543D01*
X153830026Y-90774552D01*
X153843910Y-90755832D01*
X153859562Y-90738562D01*
X153876832Y-90722910D01*
X153895552Y-90709026D01*
X153915543Y-90697044D01*
X153936613Y-90687079D01*
X153958557Y-90679227D01*
X153981166Y-90673563D01*
X154004221Y-90670144D01*
X154027500Y-90669000D01*
X154602500Y-90669000D01*
X154625779Y-90670144D01*
X154625779Y-90670144D01*
G37*
D18*
X154315000Y-91144000D03*
D17*
G36*
X148555779Y-70230144D02*
G01*
X148578834Y-70233563D01*
X148601443Y-70239227D01*
X148623387Y-70247079D01*
X148644457Y-70257044D01*
X148664448Y-70269026D01*
X148683168Y-70282910D01*
X148700438Y-70298562D01*
X148716090Y-70315832D01*
X148729974Y-70334552D01*
X148741956Y-70354543D01*
X148751921Y-70375613D01*
X148759773Y-70397557D01*
X148765437Y-70420166D01*
X148768856Y-70443221D01*
X148770000Y-70466500D01*
X148770000Y-70941500D01*
X148768856Y-70964779D01*
X148765437Y-70987834D01*
X148759773Y-71010443D01*
X148751921Y-71032387D01*
X148741956Y-71053457D01*
X148729974Y-71073448D01*
X148716090Y-71092168D01*
X148700438Y-71109438D01*
X148683168Y-71125090D01*
X148664448Y-71138974D01*
X148644457Y-71150956D01*
X148623387Y-71160921D01*
X148601443Y-71168773D01*
X148578834Y-71174437D01*
X148555779Y-71177856D01*
X148532500Y-71179000D01*
X147957500Y-71179000D01*
X147934221Y-71177856D01*
X147911166Y-71174437D01*
X147888557Y-71168773D01*
X147866613Y-71160921D01*
X147845543Y-71150956D01*
X147825552Y-71138974D01*
X147806832Y-71125090D01*
X147789562Y-71109438D01*
X147773910Y-71092168D01*
X147760026Y-71073448D01*
X147748044Y-71053457D01*
X147738079Y-71032387D01*
X147730227Y-71010443D01*
X147724563Y-70987834D01*
X147721144Y-70964779D01*
X147720000Y-70941500D01*
X147720000Y-70466500D01*
X147721144Y-70443221D01*
X147724563Y-70420166D01*
X147730227Y-70397557D01*
X147738079Y-70375613D01*
X147748044Y-70354543D01*
X147760026Y-70334552D01*
X147773910Y-70315832D01*
X147789562Y-70298562D01*
X147806832Y-70282910D01*
X147825552Y-70269026D01*
X147845543Y-70257044D01*
X147866613Y-70247079D01*
X147888557Y-70239227D01*
X147911166Y-70233563D01*
X147934221Y-70230144D01*
X147957500Y-70229000D01*
X148532500Y-70229000D01*
X148555779Y-70230144D01*
X148555779Y-70230144D01*
G37*
D18*
X148245000Y-70704000D03*
D17*
G36*
X150305779Y-70230144D02*
G01*
X150328834Y-70233563D01*
X150351443Y-70239227D01*
X150373387Y-70247079D01*
X150394457Y-70257044D01*
X150414448Y-70269026D01*
X150433168Y-70282910D01*
X150450438Y-70298562D01*
X150466090Y-70315832D01*
X150479974Y-70334552D01*
X150491956Y-70354543D01*
X150501921Y-70375613D01*
X150509773Y-70397557D01*
X150515437Y-70420166D01*
X150518856Y-70443221D01*
X150520000Y-70466500D01*
X150520000Y-70941500D01*
X150518856Y-70964779D01*
X150515437Y-70987834D01*
X150509773Y-71010443D01*
X150501921Y-71032387D01*
X150491956Y-71053457D01*
X150479974Y-71073448D01*
X150466090Y-71092168D01*
X150450438Y-71109438D01*
X150433168Y-71125090D01*
X150414448Y-71138974D01*
X150394457Y-71150956D01*
X150373387Y-71160921D01*
X150351443Y-71168773D01*
X150328834Y-71174437D01*
X150305779Y-71177856D01*
X150282500Y-71179000D01*
X149707500Y-71179000D01*
X149684221Y-71177856D01*
X149661166Y-71174437D01*
X149638557Y-71168773D01*
X149616613Y-71160921D01*
X149595543Y-71150956D01*
X149575552Y-71138974D01*
X149556832Y-71125090D01*
X149539562Y-71109438D01*
X149523910Y-71092168D01*
X149510026Y-71073448D01*
X149498044Y-71053457D01*
X149488079Y-71032387D01*
X149480227Y-71010443D01*
X149474563Y-70987834D01*
X149471144Y-70964779D01*
X149470000Y-70941500D01*
X149470000Y-70466500D01*
X149471144Y-70443221D01*
X149474563Y-70420166D01*
X149480227Y-70397557D01*
X149488079Y-70375613D01*
X149498044Y-70354543D01*
X149510026Y-70334552D01*
X149523910Y-70315832D01*
X149539562Y-70298562D01*
X149556832Y-70282910D01*
X149575552Y-70269026D01*
X149595543Y-70257044D01*
X149616613Y-70247079D01*
X149638557Y-70239227D01*
X149661166Y-70233563D01*
X149684221Y-70230144D01*
X149707500Y-70229000D01*
X150282500Y-70229000D01*
X150305779Y-70230144D01*
X150305779Y-70230144D01*
G37*
D18*
X149995000Y-70704000D03*
D17*
G36*
X135770779Y-85295144D02*
G01*
X135793834Y-85298563D01*
X135816443Y-85304227D01*
X135838387Y-85312079D01*
X135859457Y-85322044D01*
X135879448Y-85334026D01*
X135898168Y-85347910D01*
X135915438Y-85363562D01*
X135931090Y-85380832D01*
X135944974Y-85399552D01*
X135956956Y-85419543D01*
X135966921Y-85440613D01*
X135974773Y-85462557D01*
X135980437Y-85485166D01*
X135983856Y-85508221D01*
X135985000Y-85531500D01*
X135985000Y-86106500D01*
X135983856Y-86129779D01*
X135980437Y-86152834D01*
X135974773Y-86175443D01*
X135966921Y-86197387D01*
X135956956Y-86218457D01*
X135944974Y-86238448D01*
X135931090Y-86257168D01*
X135915438Y-86274438D01*
X135898168Y-86290090D01*
X135879448Y-86303974D01*
X135859457Y-86315956D01*
X135838387Y-86325921D01*
X135816443Y-86333773D01*
X135793834Y-86339437D01*
X135770779Y-86342856D01*
X135747500Y-86344000D01*
X135272500Y-86344000D01*
X135249221Y-86342856D01*
X135226166Y-86339437D01*
X135203557Y-86333773D01*
X135181613Y-86325921D01*
X135160543Y-86315956D01*
X135140552Y-86303974D01*
X135121832Y-86290090D01*
X135104562Y-86274438D01*
X135088910Y-86257168D01*
X135075026Y-86238448D01*
X135063044Y-86218457D01*
X135053079Y-86197387D01*
X135045227Y-86175443D01*
X135039563Y-86152834D01*
X135036144Y-86129779D01*
X135035000Y-86106500D01*
X135035000Y-85531500D01*
X135036144Y-85508221D01*
X135039563Y-85485166D01*
X135045227Y-85462557D01*
X135053079Y-85440613D01*
X135063044Y-85419543D01*
X135075026Y-85399552D01*
X135088910Y-85380832D01*
X135104562Y-85363562D01*
X135121832Y-85347910D01*
X135140552Y-85334026D01*
X135160543Y-85322044D01*
X135181613Y-85312079D01*
X135203557Y-85304227D01*
X135226166Y-85298563D01*
X135249221Y-85295144D01*
X135272500Y-85294000D01*
X135747500Y-85294000D01*
X135770779Y-85295144D01*
X135770779Y-85295144D01*
G37*
D18*
X135510000Y-85819000D03*
D17*
G36*
X135770779Y-83545144D02*
G01*
X135793834Y-83548563D01*
X135816443Y-83554227D01*
X135838387Y-83562079D01*
X135859457Y-83572044D01*
X135879448Y-83584026D01*
X135898168Y-83597910D01*
X135915438Y-83613562D01*
X135931090Y-83630832D01*
X135944974Y-83649552D01*
X135956956Y-83669543D01*
X135966921Y-83690613D01*
X135974773Y-83712557D01*
X135980437Y-83735166D01*
X135983856Y-83758221D01*
X135985000Y-83781500D01*
X135985000Y-84356500D01*
X135983856Y-84379779D01*
X135980437Y-84402834D01*
X135974773Y-84425443D01*
X135966921Y-84447387D01*
X135956956Y-84468457D01*
X135944974Y-84488448D01*
X135931090Y-84507168D01*
X135915438Y-84524438D01*
X135898168Y-84540090D01*
X135879448Y-84553974D01*
X135859457Y-84565956D01*
X135838387Y-84575921D01*
X135816443Y-84583773D01*
X135793834Y-84589437D01*
X135770779Y-84592856D01*
X135747500Y-84594000D01*
X135272500Y-84594000D01*
X135249221Y-84592856D01*
X135226166Y-84589437D01*
X135203557Y-84583773D01*
X135181613Y-84575921D01*
X135160543Y-84565956D01*
X135140552Y-84553974D01*
X135121832Y-84540090D01*
X135104562Y-84524438D01*
X135088910Y-84507168D01*
X135075026Y-84488448D01*
X135063044Y-84468457D01*
X135053079Y-84447387D01*
X135045227Y-84425443D01*
X135039563Y-84402834D01*
X135036144Y-84379779D01*
X135035000Y-84356500D01*
X135035000Y-83781500D01*
X135036144Y-83758221D01*
X135039563Y-83735166D01*
X135045227Y-83712557D01*
X135053079Y-83690613D01*
X135063044Y-83669543D01*
X135075026Y-83649552D01*
X135088910Y-83630832D01*
X135104562Y-83613562D01*
X135121832Y-83597910D01*
X135140552Y-83584026D01*
X135160543Y-83572044D01*
X135181613Y-83562079D01*
X135203557Y-83554227D01*
X135226166Y-83548563D01*
X135249221Y-83545144D01*
X135272500Y-83544000D01*
X135747500Y-83544000D01*
X135770779Y-83545144D01*
X135770779Y-83545144D01*
G37*
D18*
X135510000Y-84069000D03*
D17*
G36*
X148605779Y-72590144D02*
G01*
X148628834Y-72593563D01*
X148651443Y-72599227D01*
X148673387Y-72607079D01*
X148694457Y-72617044D01*
X148714448Y-72629026D01*
X148733168Y-72642910D01*
X148750438Y-72658562D01*
X148766090Y-72675832D01*
X148779974Y-72694552D01*
X148791956Y-72714543D01*
X148801921Y-72735613D01*
X148809773Y-72757557D01*
X148815437Y-72780166D01*
X148818856Y-72803221D01*
X148820000Y-72826500D01*
X148820000Y-73301500D01*
X148818856Y-73324779D01*
X148815437Y-73347834D01*
X148809773Y-73370443D01*
X148801921Y-73392387D01*
X148791956Y-73413457D01*
X148779974Y-73433448D01*
X148766090Y-73452168D01*
X148750438Y-73469438D01*
X148733168Y-73485090D01*
X148714448Y-73498974D01*
X148694457Y-73510956D01*
X148673387Y-73520921D01*
X148651443Y-73528773D01*
X148628834Y-73534437D01*
X148605779Y-73537856D01*
X148582500Y-73539000D01*
X148007500Y-73539000D01*
X147984221Y-73537856D01*
X147961166Y-73534437D01*
X147938557Y-73528773D01*
X147916613Y-73520921D01*
X147895543Y-73510956D01*
X147875552Y-73498974D01*
X147856832Y-73485090D01*
X147839562Y-73469438D01*
X147823910Y-73452168D01*
X147810026Y-73433448D01*
X147798044Y-73413457D01*
X147788079Y-73392387D01*
X147780227Y-73370443D01*
X147774563Y-73347834D01*
X147771144Y-73324779D01*
X147770000Y-73301500D01*
X147770000Y-72826500D01*
X147771144Y-72803221D01*
X147774563Y-72780166D01*
X147780227Y-72757557D01*
X147788079Y-72735613D01*
X147798044Y-72714543D01*
X147810026Y-72694552D01*
X147823910Y-72675832D01*
X147839562Y-72658562D01*
X147856832Y-72642910D01*
X147875552Y-72629026D01*
X147895543Y-72617044D01*
X147916613Y-72607079D01*
X147938557Y-72599227D01*
X147961166Y-72593563D01*
X147984221Y-72590144D01*
X148007500Y-72589000D01*
X148582500Y-72589000D01*
X148605779Y-72590144D01*
X148605779Y-72590144D01*
G37*
D18*
X148295000Y-73064000D03*
D17*
G36*
X150355779Y-72590144D02*
G01*
X150378834Y-72593563D01*
X150401443Y-72599227D01*
X150423387Y-72607079D01*
X150444457Y-72617044D01*
X150464448Y-72629026D01*
X150483168Y-72642910D01*
X150500438Y-72658562D01*
X150516090Y-72675832D01*
X150529974Y-72694552D01*
X150541956Y-72714543D01*
X150551921Y-72735613D01*
X150559773Y-72757557D01*
X150565437Y-72780166D01*
X150568856Y-72803221D01*
X150570000Y-72826500D01*
X150570000Y-73301500D01*
X150568856Y-73324779D01*
X150565437Y-73347834D01*
X150559773Y-73370443D01*
X150551921Y-73392387D01*
X150541956Y-73413457D01*
X150529974Y-73433448D01*
X150516090Y-73452168D01*
X150500438Y-73469438D01*
X150483168Y-73485090D01*
X150464448Y-73498974D01*
X150444457Y-73510956D01*
X150423387Y-73520921D01*
X150401443Y-73528773D01*
X150378834Y-73534437D01*
X150355779Y-73537856D01*
X150332500Y-73539000D01*
X149757500Y-73539000D01*
X149734221Y-73537856D01*
X149711166Y-73534437D01*
X149688557Y-73528773D01*
X149666613Y-73520921D01*
X149645543Y-73510956D01*
X149625552Y-73498974D01*
X149606832Y-73485090D01*
X149589562Y-73469438D01*
X149573910Y-73452168D01*
X149560026Y-73433448D01*
X149548044Y-73413457D01*
X149538079Y-73392387D01*
X149530227Y-73370443D01*
X149524563Y-73347834D01*
X149521144Y-73324779D01*
X149520000Y-73301500D01*
X149520000Y-72826500D01*
X149521144Y-72803221D01*
X149524563Y-72780166D01*
X149530227Y-72757557D01*
X149538079Y-72735613D01*
X149548044Y-72714543D01*
X149560026Y-72694552D01*
X149573910Y-72675832D01*
X149589562Y-72658562D01*
X149606832Y-72642910D01*
X149625552Y-72629026D01*
X149645543Y-72617044D01*
X149666613Y-72607079D01*
X149688557Y-72599227D01*
X149711166Y-72593563D01*
X149734221Y-72590144D01*
X149757500Y-72589000D01*
X150332500Y-72589000D01*
X150355779Y-72590144D01*
X150355779Y-72590144D01*
G37*
D18*
X150045000Y-73064000D03*
D17*
G36*
X140175779Y-80100144D02*
G01*
X140198834Y-80103563D01*
X140221443Y-80109227D01*
X140243387Y-80117079D01*
X140264457Y-80127044D01*
X140284448Y-80139026D01*
X140303168Y-80152910D01*
X140320438Y-80168562D01*
X140336090Y-80185832D01*
X140349974Y-80204552D01*
X140361956Y-80224543D01*
X140371921Y-80245613D01*
X140379773Y-80267557D01*
X140385437Y-80290166D01*
X140388856Y-80313221D01*
X140390000Y-80336500D01*
X140390000Y-80811500D01*
X140388856Y-80834779D01*
X140385437Y-80857834D01*
X140379773Y-80880443D01*
X140371921Y-80902387D01*
X140361956Y-80923457D01*
X140349974Y-80943448D01*
X140336090Y-80962168D01*
X140320438Y-80979438D01*
X140303168Y-80995090D01*
X140284448Y-81008974D01*
X140264457Y-81020956D01*
X140243387Y-81030921D01*
X140221443Y-81038773D01*
X140198834Y-81044437D01*
X140175779Y-81047856D01*
X140152500Y-81049000D01*
X139577500Y-81049000D01*
X139554221Y-81047856D01*
X139531166Y-81044437D01*
X139508557Y-81038773D01*
X139486613Y-81030921D01*
X139465543Y-81020956D01*
X139445552Y-81008974D01*
X139426832Y-80995090D01*
X139409562Y-80979438D01*
X139393910Y-80962168D01*
X139380026Y-80943448D01*
X139368044Y-80923457D01*
X139358079Y-80902387D01*
X139350227Y-80880443D01*
X139344563Y-80857834D01*
X139341144Y-80834779D01*
X139340000Y-80811500D01*
X139340000Y-80336500D01*
X139341144Y-80313221D01*
X139344563Y-80290166D01*
X139350227Y-80267557D01*
X139358079Y-80245613D01*
X139368044Y-80224543D01*
X139380026Y-80204552D01*
X139393910Y-80185832D01*
X139409562Y-80168562D01*
X139426832Y-80152910D01*
X139445552Y-80139026D01*
X139465543Y-80127044D01*
X139486613Y-80117079D01*
X139508557Y-80109227D01*
X139531166Y-80103563D01*
X139554221Y-80100144D01*
X139577500Y-80099000D01*
X140152500Y-80099000D01*
X140175779Y-80100144D01*
X140175779Y-80100144D01*
G37*
D18*
X139865000Y-80574000D03*
D17*
G36*
X138425779Y-80100144D02*
G01*
X138448834Y-80103563D01*
X138471443Y-80109227D01*
X138493387Y-80117079D01*
X138514457Y-80127044D01*
X138534448Y-80139026D01*
X138553168Y-80152910D01*
X138570438Y-80168562D01*
X138586090Y-80185832D01*
X138599974Y-80204552D01*
X138611956Y-80224543D01*
X138621921Y-80245613D01*
X138629773Y-80267557D01*
X138635437Y-80290166D01*
X138638856Y-80313221D01*
X138640000Y-80336500D01*
X138640000Y-80811500D01*
X138638856Y-80834779D01*
X138635437Y-80857834D01*
X138629773Y-80880443D01*
X138621921Y-80902387D01*
X138611956Y-80923457D01*
X138599974Y-80943448D01*
X138586090Y-80962168D01*
X138570438Y-80979438D01*
X138553168Y-80995090D01*
X138534448Y-81008974D01*
X138514457Y-81020956D01*
X138493387Y-81030921D01*
X138471443Y-81038773D01*
X138448834Y-81044437D01*
X138425779Y-81047856D01*
X138402500Y-81049000D01*
X137827500Y-81049000D01*
X137804221Y-81047856D01*
X137781166Y-81044437D01*
X137758557Y-81038773D01*
X137736613Y-81030921D01*
X137715543Y-81020956D01*
X137695552Y-81008974D01*
X137676832Y-80995090D01*
X137659562Y-80979438D01*
X137643910Y-80962168D01*
X137630026Y-80943448D01*
X137618044Y-80923457D01*
X137608079Y-80902387D01*
X137600227Y-80880443D01*
X137594563Y-80857834D01*
X137591144Y-80834779D01*
X137590000Y-80811500D01*
X137590000Y-80336500D01*
X137591144Y-80313221D01*
X137594563Y-80290166D01*
X137600227Y-80267557D01*
X137608079Y-80245613D01*
X137618044Y-80224543D01*
X137630026Y-80204552D01*
X137643910Y-80185832D01*
X137659562Y-80168562D01*
X137676832Y-80152910D01*
X137695552Y-80139026D01*
X137715543Y-80127044D01*
X137736613Y-80117079D01*
X137758557Y-80109227D01*
X137781166Y-80103563D01*
X137804221Y-80100144D01*
X137827500Y-80099000D01*
X138402500Y-80099000D01*
X138425779Y-80100144D01*
X138425779Y-80100144D01*
G37*
D18*
X138115000Y-80574000D03*
D17*
G36*
X109310779Y-61865144D02*
G01*
X109333834Y-61868563D01*
X109356443Y-61874227D01*
X109378387Y-61882079D01*
X109399457Y-61892044D01*
X109419448Y-61904026D01*
X109438168Y-61917910D01*
X109455438Y-61933562D01*
X109471090Y-61950832D01*
X109484974Y-61969552D01*
X109496956Y-61989543D01*
X109506921Y-62010613D01*
X109514773Y-62032557D01*
X109520437Y-62055166D01*
X109523856Y-62078221D01*
X109525000Y-62101500D01*
X109525000Y-62676500D01*
X109523856Y-62699779D01*
X109520437Y-62722834D01*
X109514773Y-62745443D01*
X109506921Y-62767387D01*
X109496956Y-62788457D01*
X109484974Y-62808448D01*
X109471090Y-62827168D01*
X109455438Y-62844438D01*
X109438168Y-62860090D01*
X109419448Y-62873974D01*
X109399457Y-62885956D01*
X109378387Y-62895921D01*
X109356443Y-62903773D01*
X109333834Y-62909437D01*
X109310779Y-62912856D01*
X109287500Y-62914000D01*
X108812500Y-62914000D01*
X108789221Y-62912856D01*
X108766166Y-62909437D01*
X108743557Y-62903773D01*
X108721613Y-62895921D01*
X108700543Y-62885956D01*
X108680552Y-62873974D01*
X108661832Y-62860090D01*
X108644562Y-62844438D01*
X108628910Y-62827168D01*
X108615026Y-62808448D01*
X108603044Y-62788457D01*
X108593079Y-62767387D01*
X108585227Y-62745443D01*
X108579563Y-62722834D01*
X108576144Y-62699779D01*
X108575000Y-62676500D01*
X108575000Y-62101500D01*
X108576144Y-62078221D01*
X108579563Y-62055166D01*
X108585227Y-62032557D01*
X108593079Y-62010613D01*
X108603044Y-61989543D01*
X108615026Y-61969552D01*
X108628910Y-61950832D01*
X108644562Y-61933562D01*
X108661832Y-61917910D01*
X108680552Y-61904026D01*
X108700543Y-61892044D01*
X108721613Y-61882079D01*
X108743557Y-61874227D01*
X108766166Y-61868563D01*
X108789221Y-61865144D01*
X108812500Y-61864000D01*
X109287500Y-61864000D01*
X109310779Y-61865144D01*
X109310779Y-61865144D01*
G37*
D18*
X109050000Y-62389000D03*
D17*
G36*
X109310779Y-60115144D02*
G01*
X109333834Y-60118563D01*
X109356443Y-60124227D01*
X109378387Y-60132079D01*
X109399457Y-60142044D01*
X109419448Y-60154026D01*
X109438168Y-60167910D01*
X109455438Y-60183562D01*
X109471090Y-60200832D01*
X109484974Y-60219552D01*
X109496956Y-60239543D01*
X109506921Y-60260613D01*
X109514773Y-60282557D01*
X109520437Y-60305166D01*
X109523856Y-60328221D01*
X109525000Y-60351500D01*
X109525000Y-60926500D01*
X109523856Y-60949779D01*
X109520437Y-60972834D01*
X109514773Y-60995443D01*
X109506921Y-61017387D01*
X109496956Y-61038457D01*
X109484974Y-61058448D01*
X109471090Y-61077168D01*
X109455438Y-61094438D01*
X109438168Y-61110090D01*
X109419448Y-61123974D01*
X109399457Y-61135956D01*
X109378387Y-61145921D01*
X109356443Y-61153773D01*
X109333834Y-61159437D01*
X109310779Y-61162856D01*
X109287500Y-61164000D01*
X108812500Y-61164000D01*
X108789221Y-61162856D01*
X108766166Y-61159437D01*
X108743557Y-61153773D01*
X108721613Y-61145921D01*
X108700543Y-61135956D01*
X108680552Y-61123974D01*
X108661832Y-61110090D01*
X108644562Y-61094438D01*
X108628910Y-61077168D01*
X108615026Y-61058448D01*
X108603044Y-61038457D01*
X108593079Y-61017387D01*
X108585227Y-60995443D01*
X108579563Y-60972834D01*
X108576144Y-60949779D01*
X108575000Y-60926500D01*
X108575000Y-60351500D01*
X108576144Y-60328221D01*
X108579563Y-60305166D01*
X108585227Y-60282557D01*
X108593079Y-60260613D01*
X108603044Y-60239543D01*
X108615026Y-60219552D01*
X108628910Y-60200832D01*
X108644562Y-60183562D01*
X108661832Y-60167910D01*
X108680552Y-60154026D01*
X108700543Y-60142044D01*
X108721613Y-60132079D01*
X108743557Y-60124227D01*
X108766166Y-60118563D01*
X108789221Y-60115144D01*
X108812500Y-60114000D01*
X109287500Y-60114000D01*
X109310779Y-60115144D01*
X109310779Y-60115144D01*
G37*
D18*
X109050000Y-60639000D03*
D17*
G36*
X150415779Y-67500144D02*
G01*
X150438834Y-67503563D01*
X150461443Y-67509227D01*
X150483387Y-67517079D01*
X150504457Y-67527044D01*
X150524448Y-67539026D01*
X150543168Y-67552910D01*
X150560438Y-67568562D01*
X150576090Y-67585832D01*
X150589974Y-67604552D01*
X150601956Y-67624543D01*
X150611921Y-67645613D01*
X150619773Y-67667557D01*
X150625437Y-67690166D01*
X150628856Y-67713221D01*
X150630000Y-67736500D01*
X150630000Y-68211500D01*
X150628856Y-68234779D01*
X150625437Y-68257834D01*
X150619773Y-68280443D01*
X150611921Y-68302387D01*
X150601956Y-68323457D01*
X150589974Y-68343448D01*
X150576090Y-68362168D01*
X150560438Y-68379438D01*
X150543168Y-68395090D01*
X150524448Y-68408974D01*
X150504457Y-68420956D01*
X150483387Y-68430921D01*
X150461443Y-68438773D01*
X150438834Y-68444437D01*
X150415779Y-68447856D01*
X150392500Y-68449000D01*
X149817500Y-68449000D01*
X149794221Y-68447856D01*
X149771166Y-68444437D01*
X149748557Y-68438773D01*
X149726613Y-68430921D01*
X149705543Y-68420956D01*
X149685552Y-68408974D01*
X149666832Y-68395090D01*
X149649562Y-68379438D01*
X149633910Y-68362168D01*
X149620026Y-68343448D01*
X149608044Y-68323457D01*
X149598079Y-68302387D01*
X149590227Y-68280443D01*
X149584563Y-68257834D01*
X149581144Y-68234779D01*
X149580000Y-68211500D01*
X149580000Y-67736500D01*
X149581144Y-67713221D01*
X149584563Y-67690166D01*
X149590227Y-67667557D01*
X149598079Y-67645613D01*
X149608044Y-67624543D01*
X149620026Y-67604552D01*
X149633910Y-67585832D01*
X149649562Y-67568562D01*
X149666832Y-67552910D01*
X149685552Y-67539026D01*
X149705543Y-67527044D01*
X149726613Y-67517079D01*
X149748557Y-67509227D01*
X149771166Y-67503563D01*
X149794221Y-67500144D01*
X149817500Y-67499000D01*
X150392500Y-67499000D01*
X150415779Y-67500144D01*
X150415779Y-67500144D01*
G37*
D18*
X150105000Y-67974000D03*
D17*
G36*
X152165779Y-67500144D02*
G01*
X152188834Y-67503563D01*
X152211443Y-67509227D01*
X152233387Y-67517079D01*
X152254457Y-67527044D01*
X152274448Y-67539026D01*
X152293168Y-67552910D01*
X152310438Y-67568562D01*
X152326090Y-67585832D01*
X152339974Y-67604552D01*
X152351956Y-67624543D01*
X152361921Y-67645613D01*
X152369773Y-67667557D01*
X152375437Y-67690166D01*
X152378856Y-67713221D01*
X152380000Y-67736500D01*
X152380000Y-68211500D01*
X152378856Y-68234779D01*
X152375437Y-68257834D01*
X152369773Y-68280443D01*
X152361921Y-68302387D01*
X152351956Y-68323457D01*
X152339974Y-68343448D01*
X152326090Y-68362168D01*
X152310438Y-68379438D01*
X152293168Y-68395090D01*
X152274448Y-68408974D01*
X152254457Y-68420956D01*
X152233387Y-68430921D01*
X152211443Y-68438773D01*
X152188834Y-68444437D01*
X152165779Y-68447856D01*
X152142500Y-68449000D01*
X151567500Y-68449000D01*
X151544221Y-68447856D01*
X151521166Y-68444437D01*
X151498557Y-68438773D01*
X151476613Y-68430921D01*
X151455543Y-68420956D01*
X151435552Y-68408974D01*
X151416832Y-68395090D01*
X151399562Y-68379438D01*
X151383910Y-68362168D01*
X151370026Y-68343448D01*
X151358044Y-68323457D01*
X151348079Y-68302387D01*
X151340227Y-68280443D01*
X151334563Y-68257834D01*
X151331144Y-68234779D01*
X151330000Y-68211500D01*
X151330000Y-67736500D01*
X151331144Y-67713221D01*
X151334563Y-67690166D01*
X151340227Y-67667557D01*
X151348079Y-67645613D01*
X151358044Y-67624543D01*
X151370026Y-67604552D01*
X151383910Y-67585832D01*
X151399562Y-67568562D01*
X151416832Y-67552910D01*
X151435552Y-67539026D01*
X151455543Y-67527044D01*
X151476613Y-67517079D01*
X151498557Y-67509227D01*
X151521166Y-67503563D01*
X151544221Y-67500144D01*
X151567500Y-67499000D01*
X152142500Y-67499000D01*
X152165779Y-67500144D01*
X152165779Y-67500144D01*
G37*
D18*
X151855000Y-67974000D03*
D17*
G36*
X148785779Y-67490144D02*
G01*
X148808834Y-67493563D01*
X148831443Y-67499227D01*
X148853387Y-67507079D01*
X148874457Y-67517044D01*
X148894448Y-67529026D01*
X148913168Y-67542910D01*
X148930438Y-67558562D01*
X148946090Y-67575832D01*
X148959974Y-67594552D01*
X148971956Y-67614543D01*
X148981921Y-67635613D01*
X148989773Y-67657557D01*
X148995437Y-67680166D01*
X148998856Y-67703221D01*
X149000000Y-67726500D01*
X149000000Y-68201500D01*
X148998856Y-68224779D01*
X148995437Y-68247834D01*
X148989773Y-68270443D01*
X148981921Y-68292387D01*
X148971956Y-68313457D01*
X148959974Y-68333448D01*
X148946090Y-68352168D01*
X148930438Y-68369438D01*
X148913168Y-68385090D01*
X148894448Y-68398974D01*
X148874457Y-68410956D01*
X148853387Y-68420921D01*
X148831443Y-68428773D01*
X148808834Y-68434437D01*
X148785779Y-68437856D01*
X148762500Y-68439000D01*
X148187500Y-68439000D01*
X148164221Y-68437856D01*
X148141166Y-68434437D01*
X148118557Y-68428773D01*
X148096613Y-68420921D01*
X148075543Y-68410956D01*
X148055552Y-68398974D01*
X148036832Y-68385090D01*
X148019562Y-68369438D01*
X148003910Y-68352168D01*
X147990026Y-68333448D01*
X147978044Y-68313457D01*
X147968079Y-68292387D01*
X147960227Y-68270443D01*
X147954563Y-68247834D01*
X147951144Y-68224779D01*
X147950000Y-68201500D01*
X147950000Y-67726500D01*
X147951144Y-67703221D01*
X147954563Y-67680166D01*
X147960227Y-67657557D01*
X147968079Y-67635613D01*
X147978044Y-67614543D01*
X147990026Y-67594552D01*
X148003910Y-67575832D01*
X148019562Y-67558562D01*
X148036832Y-67542910D01*
X148055552Y-67529026D01*
X148075543Y-67517044D01*
X148096613Y-67507079D01*
X148118557Y-67499227D01*
X148141166Y-67493563D01*
X148164221Y-67490144D01*
X148187500Y-67489000D01*
X148762500Y-67489000D01*
X148785779Y-67490144D01*
X148785779Y-67490144D01*
G37*
D18*
X148475000Y-67964000D03*
D17*
G36*
X147035779Y-67490144D02*
G01*
X147058834Y-67493563D01*
X147081443Y-67499227D01*
X147103387Y-67507079D01*
X147124457Y-67517044D01*
X147144448Y-67529026D01*
X147163168Y-67542910D01*
X147180438Y-67558562D01*
X147196090Y-67575832D01*
X147209974Y-67594552D01*
X147221956Y-67614543D01*
X147231921Y-67635613D01*
X147239773Y-67657557D01*
X147245437Y-67680166D01*
X147248856Y-67703221D01*
X147250000Y-67726500D01*
X147250000Y-68201500D01*
X147248856Y-68224779D01*
X147245437Y-68247834D01*
X147239773Y-68270443D01*
X147231921Y-68292387D01*
X147221956Y-68313457D01*
X147209974Y-68333448D01*
X147196090Y-68352168D01*
X147180438Y-68369438D01*
X147163168Y-68385090D01*
X147144448Y-68398974D01*
X147124457Y-68410956D01*
X147103387Y-68420921D01*
X147081443Y-68428773D01*
X147058834Y-68434437D01*
X147035779Y-68437856D01*
X147012500Y-68439000D01*
X146437500Y-68439000D01*
X146414221Y-68437856D01*
X146391166Y-68434437D01*
X146368557Y-68428773D01*
X146346613Y-68420921D01*
X146325543Y-68410956D01*
X146305552Y-68398974D01*
X146286832Y-68385090D01*
X146269562Y-68369438D01*
X146253910Y-68352168D01*
X146240026Y-68333448D01*
X146228044Y-68313457D01*
X146218079Y-68292387D01*
X146210227Y-68270443D01*
X146204563Y-68247834D01*
X146201144Y-68224779D01*
X146200000Y-68201500D01*
X146200000Y-67726500D01*
X146201144Y-67703221D01*
X146204563Y-67680166D01*
X146210227Y-67657557D01*
X146218079Y-67635613D01*
X146228044Y-67614543D01*
X146240026Y-67594552D01*
X146253910Y-67575832D01*
X146269562Y-67558562D01*
X146286832Y-67542910D01*
X146305552Y-67529026D01*
X146325543Y-67517044D01*
X146346613Y-67507079D01*
X146368557Y-67499227D01*
X146391166Y-67493563D01*
X146414221Y-67490144D01*
X146437500Y-67489000D01*
X147012500Y-67489000D01*
X147035779Y-67490144D01*
X147035779Y-67490144D01*
G37*
D18*
X146725000Y-67964000D03*
D17*
G36*
X134610779Y-53105144D02*
G01*
X134633834Y-53108563D01*
X134656443Y-53114227D01*
X134678387Y-53122079D01*
X134699457Y-53132044D01*
X134719448Y-53144026D01*
X134738168Y-53157910D01*
X134755438Y-53173562D01*
X134771090Y-53190832D01*
X134784974Y-53209552D01*
X134796956Y-53229543D01*
X134806921Y-53250613D01*
X134814773Y-53272557D01*
X134820437Y-53295166D01*
X134823856Y-53318221D01*
X134825000Y-53341500D01*
X134825000Y-53916500D01*
X134823856Y-53939779D01*
X134820437Y-53962834D01*
X134814773Y-53985443D01*
X134806921Y-54007387D01*
X134796956Y-54028457D01*
X134784974Y-54048448D01*
X134771090Y-54067168D01*
X134755438Y-54084438D01*
X134738168Y-54100090D01*
X134719448Y-54113974D01*
X134699457Y-54125956D01*
X134678387Y-54135921D01*
X134656443Y-54143773D01*
X134633834Y-54149437D01*
X134610779Y-54152856D01*
X134587500Y-54154000D01*
X134112500Y-54154000D01*
X134089221Y-54152856D01*
X134066166Y-54149437D01*
X134043557Y-54143773D01*
X134021613Y-54135921D01*
X134000543Y-54125956D01*
X133980552Y-54113974D01*
X133961832Y-54100090D01*
X133944562Y-54084438D01*
X133928910Y-54067168D01*
X133915026Y-54048448D01*
X133903044Y-54028457D01*
X133893079Y-54007387D01*
X133885227Y-53985443D01*
X133879563Y-53962834D01*
X133876144Y-53939779D01*
X133875000Y-53916500D01*
X133875000Y-53341500D01*
X133876144Y-53318221D01*
X133879563Y-53295166D01*
X133885227Y-53272557D01*
X133893079Y-53250613D01*
X133903044Y-53229543D01*
X133915026Y-53209552D01*
X133928910Y-53190832D01*
X133944562Y-53173562D01*
X133961832Y-53157910D01*
X133980552Y-53144026D01*
X134000543Y-53132044D01*
X134021613Y-53122079D01*
X134043557Y-53114227D01*
X134066166Y-53108563D01*
X134089221Y-53105144D01*
X134112500Y-53104000D01*
X134587500Y-53104000D01*
X134610779Y-53105144D01*
X134610779Y-53105144D01*
G37*
D18*
X134350000Y-53629000D03*
D17*
G36*
X134610779Y-51355144D02*
G01*
X134633834Y-51358563D01*
X134656443Y-51364227D01*
X134678387Y-51372079D01*
X134699457Y-51382044D01*
X134719448Y-51394026D01*
X134738168Y-51407910D01*
X134755438Y-51423562D01*
X134771090Y-51440832D01*
X134784974Y-51459552D01*
X134796956Y-51479543D01*
X134806921Y-51500613D01*
X134814773Y-51522557D01*
X134820437Y-51545166D01*
X134823856Y-51568221D01*
X134825000Y-51591500D01*
X134825000Y-52166500D01*
X134823856Y-52189779D01*
X134820437Y-52212834D01*
X134814773Y-52235443D01*
X134806921Y-52257387D01*
X134796956Y-52278457D01*
X134784974Y-52298448D01*
X134771090Y-52317168D01*
X134755438Y-52334438D01*
X134738168Y-52350090D01*
X134719448Y-52363974D01*
X134699457Y-52375956D01*
X134678387Y-52385921D01*
X134656443Y-52393773D01*
X134633834Y-52399437D01*
X134610779Y-52402856D01*
X134587500Y-52404000D01*
X134112500Y-52404000D01*
X134089221Y-52402856D01*
X134066166Y-52399437D01*
X134043557Y-52393773D01*
X134021613Y-52385921D01*
X134000543Y-52375956D01*
X133980552Y-52363974D01*
X133961832Y-52350090D01*
X133944562Y-52334438D01*
X133928910Y-52317168D01*
X133915026Y-52298448D01*
X133903044Y-52278457D01*
X133893079Y-52257387D01*
X133885227Y-52235443D01*
X133879563Y-52212834D01*
X133876144Y-52189779D01*
X133875000Y-52166500D01*
X133875000Y-51591500D01*
X133876144Y-51568221D01*
X133879563Y-51545166D01*
X133885227Y-51522557D01*
X133893079Y-51500613D01*
X133903044Y-51479543D01*
X133915026Y-51459552D01*
X133928910Y-51440832D01*
X133944562Y-51423562D01*
X133961832Y-51407910D01*
X133980552Y-51394026D01*
X134000543Y-51382044D01*
X134021613Y-51372079D01*
X134043557Y-51364227D01*
X134066166Y-51358563D01*
X134089221Y-51355144D01*
X134112500Y-51354000D01*
X134587500Y-51354000D01*
X134610779Y-51355144D01*
X134610779Y-51355144D01*
G37*
D18*
X134350000Y-51879000D03*
D17*
G36*
X130440779Y-53125144D02*
G01*
X130463834Y-53128563D01*
X130486443Y-53134227D01*
X130508387Y-53142079D01*
X130529457Y-53152044D01*
X130549448Y-53164026D01*
X130568168Y-53177910D01*
X130585438Y-53193562D01*
X130601090Y-53210832D01*
X130614974Y-53229552D01*
X130626956Y-53249543D01*
X130636921Y-53270613D01*
X130644773Y-53292557D01*
X130650437Y-53315166D01*
X130653856Y-53338221D01*
X130655000Y-53361500D01*
X130655000Y-53936500D01*
X130653856Y-53959779D01*
X130650437Y-53982834D01*
X130644773Y-54005443D01*
X130636921Y-54027387D01*
X130626956Y-54048457D01*
X130614974Y-54068448D01*
X130601090Y-54087168D01*
X130585438Y-54104438D01*
X130568168Y-54120090D01*
X130549448Y-54133974D01*
X130529457Y-54145956D01*
X130508387Y-54155921D01*
X130486443Y-54163773D01*
X130463834Y-54169437D01*
X130440779Y-54172856D01*
X130417500Y-54174000D01*
X129942500Y-54174000D01*
X129919221Y-54172856D01*
X129896166Y-54169437D01*
X129873557Y-54163773D01*
X129851613Y-54155921D01*
X129830543Y-54145956D01*
X129810552Y-54133974D01*
X129791832Y-54120090D01*
X129774562Y-54104438D01*
X129758910Y-54087168D01*
X129745026Y-54068448D01*
X129733044Y-54048457D01*
X129723079Y-54027387D01*
X129715227Y-54005443D01*
X129709563Y-53982834D01*
X129706144Y-53959779D01*
X129705000Y-53936500D01*
X129705000Y-53361500D01*
X129706144Y-53338221D01*
X129709563Y-53315166D01*
X129715227Y-53292557D01*
X129723079Y-53270613D01*
X129733044Y-53249543D01*
X129745026Y-53229552D01*
X129758910Y-53210832D01*
X129774562Y-53193562D01*
X129791832Y-53177910D01*
X129810552Y-53164026D01*
X129830543Y-53152044D01*
X129851613Y-53142079D01*
X129873557Y-53134227D01*
X129896166Y-53128563D01*
X129919221Y-53125144D01*
X129942500Y-53124000D01*
X130417500Y-53124000D01*
X130440779Y-53125144D01*
X130440779Y-53125144D01*
G37*
D18*
X130180000Y-53649000D03*
D17*
G36*
X130440779Y-51375144D02*
G01*
X130463834Y-51378563D01*
X130486443Y-51384227D01*
X130508387Y-51392079D01*
X130529457Y-51402044D01*
X130549448Y-51414026D01*
X130568168Y-51427910D01*
X130585438Y-51443562D01*
X130601090Y-51460832D01*
X130614974Y-51479552D01*
X130626956Y-51499543D01*
X130636921Y-51520613D01*
X130644773Y-51542557D01*
X130650437Y-51565166D01*
X130653856Y-51588221D01*
X130655000Y-51611500D01*
X130655000Y-52186500D01*
X130653856Y-52209779D01*
X130650437Y-52232834D01*
X130644773Y-52255443D01*
X130636921Y-52277387D01*
X130626956Y-52298457D01*
X130614974Y-52318448D01*
X130601090Y-52337168D01*
X130585438Y-52354438D01*
X130568168Y-52370090D01*
X130549448Y-52383974D01*
X130529457Y-52395956D01*
X130508387Y-52405921D01*
X130486443Y-52413773D01*
X130463834Y-52419437D01*
X130440779Y-52422856D01*
X130417500Y-52424000D01*
X129942500Y-52424000D01*
X129919221Y-52422856D01*
X129896166Y-52419437D01*
X129873557Y-52413773D01*
X129851613Y-52405921D01*
X129830543Y-52395956D01*
X129810552Y-52383974D01*
X129791832Y-52370090D01*
X129774562Y-52354438D01*
X129758910Y-52337168D01*
X129745026Y-52318448D01*
X129733044Y-52298457D01*
X129723079Y-52277387D01*
X129715227Y-52255443D01*
X129709563Y-52232834D01*
X129706144Y-52209779D01*
X129705000Y-52186500D01*
X129705000Y-51611500D01*
X129706144Y-51588221D01*
X129709563Y-51565166D01*
X129715227Y-51542557D01*
X129723079Y-51520613D01*
X129733044Y-51499543D01*
X129745026Y-51479552D01*
X129758910Y-51460832D01*
X129774562Y-51443562D01*
X129791832Y-51427910D01*
X129810552Y-51414026D01*
X129830543Y-51402044D01*
X129851613Y-51392079D01*
X129873557Y-51384227D01*
X129896166Y-51378563D01*
X129919221Y-51375144D01*
X129942500Y-51374000D01*
X130417500Y-51374000D01*
X130440779Y-51375144D01*
X130440779Y-51375144D01*
G37*
D18*
X130180000Y-51899000D03*
D17*
G36*
X141570779Y-52051144D02*
G01*
X141593834Y-52054563D01*
X141616443Y-52060227D01*
X141638387Y-52068079D01*
X141659457Y-52078044D01*
X141679448Y-52090026D01*
X141698168Y-52103910D01*
X141715438Y-52119562D01*
X141731090Y-52136832D01*
X141744974Y-52155552D01*
X141756956Y-52175543D01*
X141766921Y-52196613D01*
X141774773Y-52218557D01*
X141780437Y-52241166D01*
X141783856Y-52264221D01*
X141785000Y-52287500D01*
X141785000Y-52862500D01*
X141783856Y-52885779D01*
X141780437Y-52908834D01*
X141774773Y-52931443D01*
X141766921Y-52953387D01*
X141756956Y-52974457D01*
X141744974Y-52994448D01*
X141731090Y-53013168D01*
X141715438Y-53030438D01*
X141698168Y-53046090D01*
X141679448Y-53059974D01*
X141659457Y-53071956D01*
X141638387Y-53081921D01*
X141616443Y-53089773D01*
X141593834Y-53095437D01*
X141570779Y-53098856D01*
X141547500Y-53100000D01*
X141072500Y-53100000D01*
X141049221Y-53098856D01*
X141026166Y-53095437D01*
X141003557Y-53089773D01*
X140981613Y-53081921D01*
X140960543Y-53071956D01*
X140940552Y-53059974D01*
X140921832Y-53046090D01*
X140904562Y-53030438D01*
X140888910Y-53013168D01*
X140875026Y-52994448D01*
X140863044Y-52974457D01*
X140853079Y-52953387D01*
X140845227Y-52931443D01*
X140839563Y-52908834D01*
X140836144Y-52885779D01*
X140835000Y-52862500D01*
X140835000Y-52287500D01*
X140836144Y-52264221D01*
X140839563Y-52241166D01*
X140845227Y-52218557D01*
X140853079Y-52196613D01*
X140863044Y-52175543D01*
X140875026Y-52155552D01*
X140888910Y-52136832D01*
X140904562Y-52119562D01*
X140921832Y-52103910D01*
X140940552Y-52090026D01*
X140960543Y-52078044D01*
X140981613Y-52068079D01*
X141003557Y-52060227D01*
X141026166Y-52054563D01*
X141049221Y-52051144D01*
X141072500Y-52050000D01*
X141547500Y-52050000D01*
X141570779Y-52051144D01*
X141570779Y-52051144D01*
G37*
D18*
X141310000Y-52575000D03*
D17*
G36*
X141570779Y-53801144D02*
G01*
X141593834Y-53804563D01*
X141616443Y-53810227D01*
X141638387Y-53818079D01*
X141659457Y-53828044D01*
X141679448Y-53840026D01*
X141698168Y-53853910D01*
X141715438Y-53869562D01*
X141731090Y-53886832D01*
X141744974Y-53905552D01*
X141756956Y-53925543D01*
X141766921Y-53946613D01*
X141774773Y-53968557D01*
X141780437Y-53991166D01*
X141783856Y-54014221D01*
X141785000Y-54037500D01*
X141785000Y-54612500D01*
X141783856Y-54635779D01*
X141780437Y-54658834D01*
X141774773Y-54681443D01*
X141766921Y-54703387D01*
X141756956Y-54724457D01*
X141744974Y-54744448D01*
X141731090Y-54763168D01*
X141715438Y-54780438D01*
X141698168Y-54796090D01*
X141679448Y-54809974D01*
X141659457Y-54821956D01*
X141638387Y-54831921D01*
X141616443Y-54839773D01*
X141593834Y-54845437D01*
X141570779Y-54848856D01*
X141547500Y-54850000D01*
X141072500Y-54850000D01*
X141049221Y-54848856D01*
X141026166Y-54845437D01*
X141003557Y-54839773D01*
X140981613Y-54831921D01*
X140960543Y-54821956D01*
X140940552Y-54809974D01*
X140921832Y-54796090D01*
X140904562Y-54780438D01*
X140888910Y-54763168D01*
X140875026Y-54744448D01*
X140863044Y-54724457D01*
X140853079Y-54703387D01*
X140845227Y-54681443D01*
X140839563Y-54658834D01*
X140836144Y-54635779D01*
X140835000Y-54612500D01*
X140835000Y-54037500D01*
X140836144Y-54014221D01*
X140839563Y-53991166D01*
X140845227Y-53968557D01*
X140853079Y-53946613D01*
X140863044Y-53925543D01*
X140875026Y-53905552D01*
X140888910Y-53886832D01*
X140904562Y-53869562D01*
X140921832Y-53853910D01*
X140940552Y-53840026D01*
X140960543Y-53828044D01*
X140981613Y-53818079D01*
X141003557Y-53810227D01*
X141026166Y-53804563D01*
X141049221Y-53801144D01*
X141072500Y-53800000D01*
X141547500Y-53800000D01*
X141570779Y-53801144D01*
X141570779Y-53801144D01*
G37*
D18*
X141310000Y-54325000D03*
D17*
G36*
X143070779Y-52045144D02*
G01*
X143093834Y-52048563D01*
X143116443Y-52054227D01*
X143138387Y-52062079D01*
X143159457Y-52072044D01*
X143179448Y-52084026D01*
X143198168Y-52097910D01*
X143215438Y-52113562D01*
X143231090Y-52130832D01*
X143244974Y-52149552D01*
X143256956Y-52169543D01*
X143266921Y-52190613D01*
X143274773Y-52212557D01*
X143280437Y-52235166D01*
X143283856Y-52258221D01*
X143285000Y-52281500D01*
X143285000Y-52856500D01*
X143283856Y-52879779D01*
X143280437Y-52902834D01*
X143274773Y-52925443D01*
X143266921Y-52947387D01*
X143256956Y-52968457D01*
X143244974Y-52988448D01*
X143231090Y-53007168D01*
X143215438Y-53024438D01*
X143198168Y-53040090D01*
X143179448Y-53053974D01*
X143159457Y-53065956D01*
X143138387Y-53075921D01*
X143116443Y-53083773D01*
X143093834Y-53089437D01*
X143070779Y-53092856D01*
X143047500Y-53094000D01*
X142572500Y-53094000D01*
X142549221Y-53092856D01*
X142526166Y-53089437D01*
X142503557Y-53083773D01*
X142481613Y-53075921D01*
X142460543Y-53065956D01*
X142440552Y-53053974D01*
X142421832Y-53040090D01*
X142404562Y-53024438D01*
X142388910Y-53007168D01*
X142375026Y-52988448D01*
X142363044Y-52968457D01*
X142353079Y-52947387D01*
X142345227Y-52925443D01*
X142339563Y-52902834D01*
X142336144Y-52879779D01*
X142335000Y-52856500D01*
X142335000Y-52281500D01*
X142336144Y-52258221D01*
X142339563Y-52235166D01*
X142345227Y-52212557D01*
X142353079Y-52190613D01*
X142363044Y-52169543D01*
X142375026Y-52149552D01*
X142388910Y-52130832D01*
X142404562Y-52113562D01*
X142421832Y-52097910D01*
X142440552Y-52084026D01*
X142460543Y-52072044D01*
X142481613Y-52062079D01*
X142503557Y-52054227D01*
X142526166Y-52048563D01*
X142549221Y-52045144D01*
X142572500Y-52044000D01*
X143047500Y-52044000D01*
X143070779Y-52045144D01*
X143070779Y-52045144D01*
G37*
D18*
X142810000Y-52569000D03*
D17*
G36*
X143070779Y-53795144D02*
G01*
X143093834Y-53798563D01*
X143116443Y-53804227D01*
X143138387Y-53812079D01*
X143159457Y-53822044D01*
X143179448Y-53834026D01*
X143198168Y-53847910D01*
X143215438Y-53863562D01*
X143231090Y-53880832D01*
X143244974Y-53899552D01*
X143256956Y-53919543D01*
X143266921Y-53940613D01*
X143274773Y-53962557D01*
X143280437Y-53985166D01*
X143283856Y-54008221D01*
X143285000Y-54031500D01*
X143285000Y-54606500D01*
X143283856Y-54629779D01*
X143280437Y-54652834D01*
X143274773Y-54675443D01*
X143266921Y-54697387D01*
X143256956Y-54718457D01*
X143244974Y-54738448D01*
X143231090Y-54757168D01*
X143215438Y-54774438D01*
X143198168Y-54790090D01*
X143179448Y-54803974D01*
X143159457Y-54815956D01*
X143138387Y-54825921D01*
X143116443Y-54833773D01*
X143093834Y-54839437D01*
X143070779Y-54842856D01*
X143047500Y-54844000D01*
X142572500Y-54844000D01*
X142549221Y-54842856D01*
X142526166Y-54839437D01*
X142503557Y-54833773D01*
X142481613Y-54825921D01*
X142460543Y-54815956D01*
X142440552Y-54803974D01*
X142421832Y-54790090D01*
X142404562Y-54774438D01*
X142388910Y-54757168D01*
X142375026Y-54738448D01*
X142363044Y-54718457D01*
X142353079Y-54697387D01*
X142345227Y-54675443D01*
X142339563Y-54652834D01*
X142336144Y-54629779D01*
X142335000Y-54606500D01*
X142335000Y-54031500D01*
X142336144Y-54008221D01*
X142339563Y-53985166D01*
X142345227Y-53962557D01*
X142353079Y-53940613D01*
X142363044Y-53919543D01*
X142375026Y-53899552D01*
X142388910Y-53880832D01*
X142404562Y-53863562D01*
X142421832Y-53847910D01*
X142440552Y-53834026D01*
X142460543Y-53822044D01*
X142481613Y-53812079D01*
X142503557Y-53804227D01*
X142526166Y-53798563D01*
X142549221Y-53795144D01*
X142572500Y-53794000D01*
X143047500Y-53794000D01*
X143070779Y-53795144D01*
X143070779Y-53795144D01*
G37*
D18*
X142810000Y-54319000D03*
D17*
G36*
X116515779Y-51860144D02*
G01*
X116538834Y-51863563D01*
X116561443Y-51869227D01*
X116583387Y-51877079D01*
X116604457Y-51887044D01*
X116624448Y-51899026D01*
X116643168Y-51912910D01*
X116660438Y-51928562D01*
X116676090Y-51945832D01*
X116689974Y-51964552D01*
X116701956Y-51984543D01*
X116711921Y-52005613D01*
X116719773Y-52027557D01*
X116725437Y-52050166D01*
X116728856Y-52073221D01*
X116730000Y-52096500D01*
X116730000Y-52571500D01*
X116728856Y-52594779D01*
X116725437Y-52617834D01*
X116719773Y-52640443D01*
X116711921Y-52662387D01*
X116701956Y-52683457D01*
X116689974Y-52703448D01*
X116676090Y-52722168D01*
X116660438Y-52739438D01*
X116643168Y-52755090D01*
X116624448Y-52768974D01*
X116604457Y-52780956D01*
X116583387Y-52790921D01*
X116561443Y-52798773D01*
X116538834Y-52804437D01*
X116515779Y-52807856D01*
X116492500Y-52809000D01*
X115917500Y-52809000D01*
X115894221Y-52807856D01*
X115871166Y-52804437D01*
X115848557Y-52798773D01*
X115826613Y-52790921D01*
X115805543Y-52780956D01*
X115785552Y-52768974D01*
X115766832Y-52755090D01*
X115749562Y-52739438D01*
X115733910Y-52722168D01*
X115720026Y-52703448D01*
X115708044Y-52683457D01*
X115698079Y-52662387D01*
X115690227Y-52640443D01*
X115684563Y-52617834D01*
X115681144Y-52594779D01*
X115680000Y-52571500D01*
X115680000Y-52096500D01*
X115681144Y-52073221D01*
X115684563Y-52050166D01*
X115690227Y-52027557D01*
X115698079Y-52005613D01*
X115708044Y-51984543D01*
X115720026Y-51964552D01*
X115733910Y-51945832D01*
X115749562Y-51928562D01*
X115766832Y-51912910D01*
X115785552Y-51899026D01*
X115805543Y-51887044D01*
X115826613Y-51877079D01*
X115848557Y-51869227D01*
X115871166Y-51863563D01*
X115894221Y-51860144D01*
X115917500Y-51859000D01*
X116492500Y-51859000D01*
X116515779Y-51860144D01*
X116515779Y-51860144D01*
G37*
D18*
X116205000Y-52334000D03*
D17*
G36*
X118265779Y-51860144D02*
G01*
X118288834Y-51863563D01*
X118311443Y-51869227D01*
X118333387Y-51877079D01*
X118354457Y-51887044D01*
X118374448Y-51899026D01*
X118393168Y-51912910D01*
X118410438Y-51928562D01*
X118426090Y-51945832D01*
X118439974Y-51964552D01*
X118451956Y-51984543D01*
X118461921Y-52005613D01*
X118469773Y-52027557D01*
X118475437Y-52050166D01*
X118478856Y-52073221D01*
X118480000Y-52096500D01*
X118480000Y-52571500D01*
X118478856Y-52594779D01*
X118475437Y-52617834D01*
X118469773Y-52640443D01*
X118461921Y-52662387D01*
X118451956Y-52683457D01*
X118439974Y-52703448D01*
X118426090Y-52722168D01*
X118410438Y-52739438D01*
X118393168Y-52755090D01*
X118374448Y-52768974D01*
X118354457Y-52780956D01*
X118333387Y-52790921D01*
X118311443Y-52798773D01*
X118288834Y-52804437D01*
X118265779Y-52807856D01*
X118242500Y-52809000D01*
X117667500Y-52809000D01*
X117644221Y-52807856D01*
X117621166Y-52804437D01*
X117598557Y-52798773D01*
X117576613Y-52790921D01*
X117555543Y-52780956D01*
X117535552Y-52768974D01*
X117516832Y-52755090D01*
X117499562Y-52739438D01*
X117483910Y-52722168D01*
X117470026Y-52703448D01*
X117458044Y-52683457D01*
X117448079Y-52662387D01*
X117440227Y-52640443D01*
X117434563Y-52617834D01*
X117431144Y-52594779D01*
X117430000Y-52571500D01*
X117430000Y-52096500D01*
X117431144Y-52073221D01*
X117434563Y-52050166D01*
X117440227Y-52027557D01*
X117448079Y-52005613D01*
X117458044Y-51984543D01*
X117470026Y-51964552D01*
X117483910Y-51945832D01*
X117499562Y-51928562D01*
X117516832Y-51912910D01*
X117535552Y-51899026D01*
X117555543Y-51887044D01*
X117576613Y-51877079D01*
X117598557Y-51869227D01*
X117621166Y-51863563D01*
X117644221Y-51860144D01*
X117667500Y-51859000D01*
X118242500Y-51859000D01*
X118265779Y-51860144D01*
X118265779Y-51860144D01*
G37*
D18*
X117955000Y-52334000D03*
D17*
G36*
X157321779Y-64570144D02*
G01*
X157344834Y-64573563D01*
X157367443Y-64579227D01*
X157389387Y-64587079D01*
X157410457Y-64597044D01*
X157430448Y-64609026D01*
X157449168Y-64622910D01*
X157466438Y-64638562D01*
X157482090Y-64655832D01*
X157495974Y-64674552D01*
X157507956Y-64694543D01*
X157517921Y-64715613D01*
X157525773Y-64737557D01*
X157531437Y-64760166D01*
X157534856Y-64783221D01*
X157536000Y-64806500D01*
X157536000Y-65281500D01*
X157534856Y-65304779D01*
X157531437Y-65327834D01*
X157525773Y-65350443D01*
X157517921Y-65372387D01*
X157507956Y-65393457D01*
X157495974Y-65413448D01*
X157482090Y-65432168D01*
X157466438Y-65449438D01*
X157449168Y-65465090D01*
X157430448Y-65478974D01*
X157410457Y-65490956D01*
X157389387Y-65500921D01*
X157367443Y-65508773D01*
X157344834Y-65514437D01*
X157321779Y-65517856D01*
X157298500Y-65519000D01*
X156723500Y-65519000D01*
X156700221Y-65517856D01*
X156677166Y-65514437D01*
X156654557Y-65508773D01*
X156632613Y-65500921D01*
X156611543Y-65490956D01*
X156591552Y-65478974D01*
X156572832Y-65465090D01*
X156555562Y-65449438D01*
X156539910Y-65432168D01*
X156526026Y-65413448D01*
X156514044Y-65393457D01*
X156504079Y-65372387D01*
X156496227Y-65350443D01*
X156490563Y-65327834D01*
X156487144Y-65304779D01*
X156486000Y-65281500D01*
X156486000Y-64806500D01*
X156487144Y-64783221D01*
X156490563Y-64760166D01*
X156496227Y-64737557D01*
X156504079Y-64715613D01*
X156514044Y-64694543D01*
X156526026Y-64674552D01*
X156539910Y-64655832D01*
X156555562Y-64638562D01*
X156572832Y-64622910D01*
X156591552Y-64609026D01*
X156611543Y-64597044D01*
X156632613Y-64587079D01*
X156654557Y-64579227D01*
X156677166Y-64573563D01*
X156700221Y-64570144D01*
X156723500Y-64569000D01*
X157298500Y-64569000D01*
X157321779Y-64570144D01*
X157321779Y-64570144D01*
G37*
D18*
X157011000Y-65044000D03*
D17*
G36*
X159071779Y-64570144D02*
G01*
X159094834Y-64573563D01*
X159117443Y-64579227D01*
X159139387Y-64587079D01*
X159160457Y-64597044D01*
X159180448Y-64609026D01*
X159199168Y-64622910D01*
X159216438Y-64638562D01*
X159232090Y-64655832D01*
X159245974Y-64674552D01*
X159257956Y-64694543D01*
X159267921Y-64715613D01*
X159275773Y-64737557D01*
X159281437Y-64760166D01*
X159284856Y-64783221D01*
X159286000Y-64806500D01*
X159286000Y-65281500D01*
X159284856Y-65304779D01*
X159281437Y-65327834D01*
X159275773Y-65350443D01*
X159267921Y-65372387D01*
X159257956Y-65393457D01*
X159245974Y-65413448D01*
X159232090Y-65432168D01*
X159216438Y-65449438D01*
X159199168Y-65465090D01*
X159180448Y-65478974D01*
X159160457Y-65490956D01*
X159139387Y-65500921D01*
X159117443Y-65508773D01*
X159094834Y-65514437D01*
X159071779Y-65517856D01*
X159048500Y-65519000D01*
X158473500Y-65519000D01*
X158450221Y-65517856D01*
X158427166Y-65514437D01*
X158404557Y-65508773D01*
X158382613Y-65500921D01*
X158361543Y-65490956D01*
X158341552Y-65478974D01*
X158322832Y-65465090D01*
X158305562Y-65449438D01*
X158289910Y-65432168D01*
X158276026Y-65413448D01*
X158264044Y-65393457D01*
X158254079Y-65372387D01*
X158246227Y-65350443D01*
X158240563Y-65327834D01*
X158237144Y-65304779D01*
X158236000Y-65281500D01*
X158236000Y-64806500D01*
X158237144Y-64783221D01*
X158240563Y-64760166D01*
X158246227Y-64737557D01*
X158254079Y-64715613D01*
X158264044Y-64694543D01*
X158276026Y-64674552D01*
X158289910Y-64655832D01*
X158305562Y-64638562D01*
X158322832Y-64622910D01*
X158341552Y-64609026D01*
X158361543Y-64597044D01*
X158382613Y-64587079D01*
X158404557Y-64579227D01*
X158427166Y-64573563D01*
X158450221Y-64570144D01*
X158473500Y-64569000D01*
X159048500Y-64569000D01*
X159071779Y-64570144D01*
X159071779Y-64570144D01*
G37*
D18*
X158761000Y-65044000D03*
D17*
G36*
X116885779Y-88990144D02*
G01*
X116908834Y-88993563D01*
X116931443Y-88999227D01*
X116953387Y-89007079D01*
X116974457Y-89017044D01*
X116994448Y-89029026D01*
X117013168Y-89042910D01*
X117030438Y-89058562D01*
X117046090Y-89075832D01*
X117059974Y-89094552D01*
X117071956Y-89114543D01*
X117081921Y-89135613D01*
X117089773Y-89157557D01*
X117095437Y-89180166D01*
X117098856Y-89203221D01*
X117100000Y-89226500D01*
X117100000Y-89701500D01*
X117098856Y-89724779D01*
X117095437Y-89747834D01*
X117089773Y-89770443D01*
X117081921Y-89792387D01*
X117071956Y-89813457D01*
X117059974Y-89833448D01*
X117046090Y-89852168D01*
X117030438Y-89869438D01*
X117013168Y-89885090D01*
X116994448Y-89898974D01*
X116974457Y-89910956D01*
X116953387Y-89920921D01*
X116931443Y-89928773D01*
X116908834Y-89934437D01*
X116885779Y-89937856D01*
X116862500Y-89939000D01*
X116287500Y-89939000D01*
X116264221Y-89937856D01*
X116241166Y-89934437D01*
X116218557Y-89928773D01*
X116196613Y-89920921D01*
X116175543Y-89910956D01*
X116155552Y-89898974D01*
X116136832Y-89885090D01*
X116119562Y-89869438D01*
X116103910Y-89852168D01*
X116090026Y-89833448D01*
X116078044Y-89813457D01*
X116068079Y-89792387D01*
X116060227Y-89770443D01*
X116054563Y-89747834D01*
X116051144Y-89724779D01*
X116050000Y-89701500D01*
X116050000Y-89226500D01*
X116051144Y-89203221D01*
X116054563Y-89180166D01*
X116060227Y-89157557D01*
X116068079Y-89135613D01*
X116078044Y-89114543D01*
X116090026Y-89094552D01*
X116103910Y-89075832D01*
X116119562Y-89058562D01*
X116136832Y-89042910D01*
X116155552Y-89029026D01*
X116175543Y-89017044D01*
X116196613Y-89007079D01*
X116218557Y-88999227D01*
X116241166Y-88993563D01*
X116264221Y-88990144D01*
X116287500Y-88989000D01*
X116862500Y-88989000D01*
X116885779Y-88990144D01*
X116885779Y-88990144D01*
G37*
D18*
X116575000Y-89464000D03*
D17*
G36*
X118635779Y-88990144D02*
G01*
X118658834Y-88993563D01*
X118681443Y-88999227D01*
X118703387Y-89007079D01*
X118724457Y-89017044D01*
X118744448Y-89029026D01*
X118763168Y-89042910D01*
X118780438Y-89058562D01*
X118796090Y-89075832D01*
X118809974Y-89094552D01*
X118821956Y-89114543D01*
X118831921Y-89135613D01*
X118839773Y-89157557D01*
X118845437Y-89180166D01*
X118848856Y-89203221D01*
X118850000Y-89226500D01*
X118850000Y-89701500D01*
X118848856Y-89724779D01*
X118845437Y-89747834D01*
X118839773Y-89770443D01*
X118831921Y-89792387D01*
X118821956Y-89813457D01*
X118809974Y-89833448D01*
X118796090Y-89852168D01*
X118780438Y-89869438D01*
X118763168Y-89885090D01*
X118744448Y-89898974D01*
X118724457Y-89910956D01*
X118703387Y-89920921D01*
X118681443Y-89928773D01*
X118658834Y-89934437D01*
X118635779Y-89937856D01*
X118612500Y-89939000D01*
X118037500Y-89939000D01*
X118014221Y-89937856D01*
X117991166Y-89934437D01*
X117968557Y-89928773D01*
X117946613Y-89920921D01*
X117925543Y-89910956D01*
X117905552Y-89898974D01*
X117886832Y-89885090D01*
X117869562Y-89869438D01*
X117853910Y-89852168D01*
X117840026Y-89833448D01*
X117828044Y-89813457D01*
X117818079Y-89792387D01*
X117810227Y-89770443D01*
X117804563Y-89747834D01*
X117801144Y-89724779D01*
X117800000Y-89701500D01*
X117800000Y-89226500D01*
X117801144Y-89203221D01*
X117804563Y-89180166D01*
X117810227Y-89157557D01*
X117818079Y-89135613D01*
X117828044Y-89114543D01*
X117840026Y-89094552D01*
X117853910Y-89075832D01*
X117869562Y-89058562D01*
X117886832Y-89042910D01*
X117905552Y-89029026D01*
X117925543Y-89017044D01*
X117946613Y-89007079D01*
X117968557Y-88999227D01*
X117991166Y-88993563D01*
X118014221Y-88990144D01*
X118037500Y-88989000D01*
X118612500Y-88989000D01*
X118635779Y-88990144D01*
X118635779Y-88990144D01*
G37*
D18*
X118325000Y-89464000D03*
D17*
G36*
X132330779Y-90985144D02*
G01*
X132353834Y-90988563D01*
X132376443Y-90994227D01*
X132398387Y-91002079D01*
X132419457Y-91012044D01*
X132439448Y-91024026D01*
X132458168Y-91037910D01*
X132475438Y-91053562D01*
X132491090Y-91070832D01*
X132504974Y-91089552D01*
X132516956Y-91109543D01*
X132526921Y-91130613D01*
X132534773Y-91152557D01*
X132540437Y-91175166D01*
X132543856Y-91198221D01*
X132545000Y-91221500D01*
X132545000Y-91796500D01*
X132543856Y-91819779D01*
X132540437Y-91842834D01*
X132534773Y-91865443D01*
X132526921Y-91887387D01*
X132516956Y-91908457D01*
X132504974Y-91928448D01*
X132491090Y-91947168D01*
X132475438Y-91964438D01*
X132458168Y-91980090D01*
X132439448Y-91993974D01*
X132419457Y-92005956D01*
X132398387Y-92015921D01*
X132376443Y-92023773D01*
X132353834Y-92029437D01*
X132330779Y-92032856D01*
X132307500Y-92034000D01*
X131832500Y-92034000D01*
X131809221Y-92032856D01*
X131786166Y-92029437D01*
X131763557Y-92023773D01*
X131741613Y-92015921D01*
X131720543Y-92005956D01*
X131700552Y-91993974D01*
X131681832Y-91980090D01*
X131664562Y-91964438D01*
X131648910Y-91947168D01*
X131635026Y-91928448D01*
X131623044Y-91908457D01*
X131613079Y-91887387D01*
X131605227Y-91865443D01*
X131599563Y-91842834D01*
X131596144Y-91819779D01*
X131595000Y-91796500D01*
X131595000Y-91221500D01*
X131596144Y-91198221D01*
X131599563Y-91175166D01*
X131605227Y-91152557D01*
X131613079Y-91130613D01*
X131623044Y-91109543D01*
X131635026Y-91089552D01*
X131648910Y-91070832D01*
X131664562Y-91053562D01*
X131681832Y-91037910D01*
X131700552Y-91024026D01*
X131720543Y-91012044D01*
X131741613Y-91002079D01*
X131763557Y-90994227D01*
X131786166Y-90988563D01*
X131809221Y-90985144D01*
X131832500Y-90984000D01*
X132307500Y-90984000D01*
X132330779Y-90985144D01*
X132330779Y-90985144D01*
G37*
D18*
X132070000Y-91509000D03*
D17*
G36*
X132330779Y-89235144D02*
G01*
X132353834Y-89238563D01*
X132376443Y-89244227D01*
X132398387Y-89252079D01*
X132419457Y-89262044D01*
X132439448Y-89274026D01*
X132458168Y-89287910D01*
X132475438Y-89303562D01*
X132491090Y-89320832D01*
X132504974Y-89339552D01*
X132516956Y-89359543D01*
X132526921Y-89380613D01*
X132534773Y-89402557D01*
X132540437Y-89425166D01*
X132543856Y-89448221D01*
X132545000Y-89471500D01*
X132545000Y-90046500D01*
X132543856Y-90069779D01*
X132540437Y-90092834D01*
X132534773Y-90115443D01*
X132526921Y-90137387D01*
X132516956Y-90158457D01*
X132504974Y-90178448D01*
X132491090Y-90197168D01*
X132475438Y-90214438D01*
X132458168Y-90230090D01*
X132439448Y-90243974D01*
X132419457Y-90255956D01*
X132398387Y-90265921D01*
X132376443Y-90273773D01*
X132353834Y-90279437D01*
X132330779Y-90282856D01*
X132307500Y-90284000D01*
X131832500Y-90284000D01*
X131809221Y-90282856D01*
X131786166Y-90279437D01*
X131763557Y-90273773D01*
X131741613Y-90265921D01*
X131720543Y-90255956D01*
X131700552Y-90243974D01*
X131681832Y-90230090D01*
X131664562Y-90214438D01*
X131648910Y-90197168D01*
X131635026Y-90178448D01*
X131623044Y-90158457D01*
X131613079Y-90137387D01*
X131605227Y-90115443D01*
X131599563Y-90092834D01*
X131596144Y-90069779D01*
X131595000Y-90046500D01*
X131595000Y-89471500D01*
X131596144Y-89448221D01*
X131599563Y-89425166D01*
X131605227Y-89402557D01*
X131613079Y-89380613D01*
X131623044Y-89359543D01*
X131635026Y-89339552D01*
X131648910Y-89320832D01*
X131664562Y-89303562D01*
X131681832Y-89287910D01*
X131700552Y-89274026D01*
X131720543Y-89262044D01*
X131741613Y-89252079D01*
X131763557Y-89244227D01*
X131786166Y-89238563D01*
X131809221Y-89235144D01*
X131832500Y-89234000D01*
X132307500Y-89234000D01*
X132330779Y-89235144D01*
X132330779Y-89235144D01*
G37*
D18*
X132070000Y-89759000D03*
D17*
G36*
X111369504Y-88850204D02*
G01*
X111393773Y-88853804D01*
X111417571Y-88859765D01*
X111440671Y-88868030D01*
X111462849Y-88878520D01*
X111483893Y-88891133D01*
X111503598Y-88905747D01*
X111521777Y-88922223D01*
X111538253Y-88940402D01*
X111552867Y-88960107D01*
X111565480Y-88981151D01*
X111575970Y-89003329D01*
X111584235Y-89026429D01*
X111590196Y-89050227D01*
X111593796Y-89074496D01*
X111595000Y-89099000D01*
X111595000Y-90349000D01*
X111593796Y-90373504D01*
X111590196Y-90397773D01*
X111584235Y-90421571D01*
X111575970Y-90444671D01*
X111565480Y-90466849D01*
X111552867Y-90487893D01*
X111538253Y-90507598D01*
X111521777Y-90525777D01*
X111503598Y-90542253D01*
X111483893Y-90556867D01*
X111462849Y-90569480D01*
X111440671Y-90579970D01*
X111417571Y-90588235D01*
X111393773Y-90594196D01*
X111369504Y-90597796D01*
X111345000Y-90599000D01*
X110420000Y-90599000D01*
X110395496Y-90597796D01*
X110371227Y-90594196D01*
X110347429Y-90588235D01*
X110324329Y-90579970D01*
X110302151Y-90569480D01*
X110281107Y-90556867D01*
X110261402Y-90542253D01*
X110243223Y-90525777D01*
X110226747Y-90507598D01*
X110212133Y-90487893D01*
X110199520Y-90466849D01*
X110189030Y-90444671D01*
X110180765Y-90421571D01*
X110174804Y-90397773D01*
X110171204Y-90373504D01*
X110170000Y-90349000D01*
X110170000Y-89099000D01*
X110171204Y-89074496D01*
X110174804Y-89050227D01*
X110180765Y-89026429D01*
X110189030Y-89003329D01*
X110199520Y-88981151D01*
X110212133Y-88960107D01*
X110226747Y-88940402D01*
X110243223Y-88922223D01*
X110261402Y-88905747D01*
X110281107Y-88891133D01*
X110302151Y-88878520D01*
X110324329Y-88868030D01*
X110347429Y-88859765D01*
X110371227Y-88853804D01*
X110395496Y-88850204D01*
X110420000Y-88849000D01*
X111345000Y-88849000D01*
X111369504Y-88850204D01*
X111369504Y-88850204D01*
G37*
D19*
X110882500Y-89724000D03*
D17*
G36*
X114344504Y-88850204D02*
G01*
X114368773Y-88853804D01*
X114392571Y-88859765D01*
X114415671Y-88868030D01*
X114437849Y-88878520D01*
X114458893Y-88891133D01*
X114478598Y-88905747D01*
X114496777Y-88922223D01*
X114513253Y-88940402D01*
X114527867Y-88960107D01*
X114540480Y-88981151D01*
X114550970Y-89003329D01*
X114559235Y-89026429D01*
X114565196Y-89050227D01*
X114568796Y-89074496D01*
X114570000Y-89099000D01*
X114570000Y-90349000D01*
X114568796Y-90373504D01*
X114565196Y-90397773D01*
X114559235Y-90421571D01*
X114550970Y-90444671D01*
X114540480Y-90466849D01*
X114527867Y-90487893D01*
X114513253Y-90507598D01*
X114496777Y-90525777D01*
X114478598Y-90542253D01*
X114458893Y-90556867D01*
X114437849Y-90569480D01*
X114415671Y-90579970D01*
X114392571Y-90588235D01*
X114368773Y-90594196D01*
X114344504Y-90597796D01*
X114320000Y-90599000D01*
X113395000Y-90599000D01*
X113370496Y-90597796D01*
X113346227Y-90594196D01*
X113322429Y-90588235D01*
X113299329Y-90579970D01*
X113277151Y-90569480D01*
X113256107Y-90556867D01*
X113236402Y-90542253D01*
X113218223Y-90525777D01*
X113201747Y-90507598D01*
X113187133Y-90487893D01*
X113174520Y-90466849D01*
X113164030Y-90444671D01*
X113155765Y-90421571D01*
X113149804Y-90397773D01*
X113146204Y-90373504D01*
X113145000Y-90349000D01*
X113145000Y-89099000D01*
X113146204Y-89074496D01*
X113149804Y-89050227D01*
X113155765Y-89026429D01*
X113164030Y-89003329D01*
X113174520Y-88981151D01*
X113187133Y-88960107D01*
X113201747Y-88940402D01*
X113218223Y-88922223D01*
X113236402Y-88905747D01*
X113256107Y-88891133D01*
X113277151Y-88878520D01*
X113299329Y-88868030D01*
X113322429Y-88859765D01*
X113346227Y-88853804D01*
X113370496Y-88850204D01*
X113395000Y-88849000D01*
X114320000Y-88849000D01*
X114344504Y-88850204D01*
X114344504Y-88850204D01*
G37*
D19*
X113857500Y-89724000D03*
D17*
G36*
X132699504Y-96260204D02*
G01*
X132723773Y-96263804D01*
X132747571Y-96269765D01*
X132770671Y-96278030D01*
X132792849Y-96288520D01*
X132813893Y-96301133D01*
X132833598Y-96315747D01*
X132851777Y-96332223D01*
X132868253Y-96350402D01*
X132882867Y-96370107D01*
X132895480Y-96391151D01*
X132905970Y-96413329D01*
X132914235Y-96436429D01*
X132920196Y-96460227D01*
X132923796Y-96484496D01*
X132925000Y-96509000D01*
X132925000Y-97434000D01*
X132923796Y-97458504D01*
X132920196Y-97482773D01*
X132914235Y-97506571D01*
X132905970Y-97529671D01*
X132895480Y-97551849D01*
X132882867Y-97572893D01*
X132868253Y-97592598D01*
X132851777Y-97610777D01*
X132833598Y-97627253D01*
X132813893Y-97641867D01*
X132792849Y-97654480D01*
X132770671Y-97664970D01*
X132747571Y-97673235D01*
X132723773Y-97679196D01*
X132699504Y-97682796D01*
X132675000Y-97684000D01*
X131425000Y-97684000D01*
X131400496Y-97682796D01*
X131376227Y-97679196D01*
X131352429Y-97673235D01*
X131329329Y-97664970D01*
X131307151Y-97654480D01*
X131286107Y-97641867D01*
X131266402Y-97627253D01*
X131248223Y-97610777D01*
X131231747Y-97592598D01*
X131217133Y-97572893D01*
X131204520Y-97551849D01*
X131194030Y-97529671D01*
X131185765Y-97506571D01*
X131179804Y-97482773D01*
X131176204Y-97458504D01*
X131175000Y-97434000D01*
X131175000Y-96509000D01*
X131176204Y-96484496D01*
X131179804Y-96460227D01*
X131185765Y-96436429D01*
X131194030Y-96413329D01*
X131204520Y-96391151D01*
X131217133Y-96370107D01*
X131231747Y-96350402D01*
X131248223Y-96332223D01*
X131266402Y-96315747D01*
X131286107Y-96301133D01*
X131307151Y-96288520D01*
X131329329Y-96278030D01*
X131352429Y-96269765D01*
X131376227Y-96263804D01*
X131400496Y-96260204D01*
X131425000Y-96259000D01*
X132675000Y-96259000D01*
X132699504Y-96260204D01*
X132699504Y-96260204D01*
G37*
D19*
X132050000Y-96971500D03*
D17*
G36*
X132699504Y-93285204D02*
G01*
X132723773Y-93288804D01*
X132747571Y-93294765D01*
X132770671Y-93303030D01*
X132792849Y-93313520D01*
X132813893Y-93326133D01*
X132833598Y-93340747D01*
X132851777Y-93357223D01*
X132868253Y-93375402D01*
X132882867Y-93395107D01*
X132895480Y-93416151D01*
X132905970Y-93438329D01*
X132914235Y-93461429D01*
X132920196Y-93485227D01*
X132923796Y-93509496D01*
X132925000Y-93534000D01*
X132925000Y-94459000D01*
X132923796Y-94483504D01*
X132920196Y-94507773D01*
X132914235Y-94531571D01*
X132905970Y-94554671D01*
X132895480Y-94576849D01*
X132882867Y-94597893D01*
X132868253Y-94617598D01*
X132851777Y-94635777D01*
X132833598Y-94652253D01*
X132813893Y-94666867D01*
X132792849Y-94679480D01*
X132770671Y-94689970D01*
X132747571Y-94698235D01*
X132723773Y-94704196D01*
X132699504Y-94707796D01*
X132675000Y-94709000D01*
X131425000Y-94709000D01*
X131400496Y-94707796D01*
X131376227Y-94704196D01*
X131352429Y-94698235D01*
X131329329Y-94689970D01*
X131307151Y-94679480D01*
X131286107Y-94666867D01*
X131266402Y-94652253D01*
X131248223Y-94635777D01*
X131231747Y-94617598D01*
X131217133Y-94597893D01*
X131204520Y-94576849D01*
X131194030Y-94554671D01*
X131185765Y-94531571D01*
X131179804Y-94507773D01*
X131176204Y-94483504D01*
X131175000Y-94459000D01*
X131175000Y-93534000D01*
X131176204Y-93509496D01*
X131179804Y-93485227D01*
X131185765Y-93461429D01*
X131194030Y-93438329D01*
X131204520Y-93416151D01*
X131217133Y-93395107D01*
X131231747Y-93375402D01*
X131248223Y-93357223D01*
X131266402Y-93340747D01*
X131286107Y-93326133D01*
X131307151Y-93313520D01*
X131329329Y-93303030D01*
X131352429Y-93294765D01*
X131376227Y-93288804D01*
X131400496Y-93285204D01*
X131425000Y-93284000D01*
X132675000Y-93284000D01*
X132699504Y-93285204D01*
X132699504Y-93285204D01*
G37*
D19*
X132050000Y-93996500D03*
D17*
G36*
X148605779Y-74910144D02*
G01*
X148628834Y-74913563D01*
X148651443Y-74919227D01*
X148673387Y-74927079D01*
X148694457Y-74937044D01*
X148714448Y-74949026D01*
X148733168Y-74962910D01*
X148750438Y-74978562D01*
X148766090Y-74995832D01*
X148779974Y-75014552D01*
X148791956Y-75034543D01*
X148801921Y-75055613D01*
X148809773Y-75077557D01*
X148815437Y-75100166D01*
X148818856Y-75123221D01*
X148820000Y-75146500D01*
X148820000Y-75621500D01*
X148818856Y-75644779D01*
X148815437Y-75667834D01*
X148809773Y-75690443D01*
X148801921Y-75712387D01*
X148791956Y-75733457D01*
X148779974Y-75753448D01*
X148766090Y-75772168D01*
X148750438Y-75789438D01*
X148733168Y-75805090D01*
X148714448Y-75818974D01*
X148694457Y-75830956D01*
X148673387Y-75840921D01*
X148651443Y-75848773D01*
X148628834Y-75854437D01*
X148605779Y-75857856D01*
X148582500Y-75859000D01*
X148007500Y-75859000D01*
X147984221Y-75857856D01*
X147961166Y-75854437D01*
X147938557Y-75848773D01*
X147916613Y-75840921D01*
X147895543Y-75830956D01*
X147875552Y-75818974D01*
X147856832Y-75805090D01*
X147839562Y-75789438D01*
X147823910Y-75772168D01*
X147810026Y-75753448D01*
X147798044Y-75733457D01*
X147788079Y-75712387D01*
X147780227Y-75690443D01*
X147774563Y-75667834D01*
X147771144Y-75644779D01*
X147770000Y-75621500D01*
X147770000Y-75146500D01*
X147771144Y-75123221D01*
X147774563Y-75100166D01*
X147780227Y-75077557D01*
X147788079Y-75055613D01*
X147798044Y-75034543D01*
X147810026Y-75014552D01*
X147823910Y-74995832D01*
X147839562Y-74978562D01*
X147856832Y-74962910D01*
X147875552Y-74949026D01*
X147895543Y-74937044D01*
X147916613Y-74927079D01*
X147938557Y-74919227D01*
X147961166Y-74913563D01*
X147984221Y-74910144D01*
X148007500Y-74909000D01*
X148582500Y-74909000D01*
X148605779Y-74910144D01*
X148605779Y-74910144D01*
G37*
D18*
X148295000Y-75384000D03*
D17*
G36*
X150355779Y-74910144D02*
G01*
X150378834Y-74913563D01*
X150401443Y-74919227D01*
X150423387Y-74927079D01*
X150444457Y-74937044D01*
X150464448Y-74949026D01*
X150483168Y-74962910D01*
X150500438Y-74978562D01*
X150516090Y-74995832D01*
X150529974Y-75014552D01*
X150541956Y-75034543D01*
X150551921Y-75055613D01*
X150559773Y-75077557D01*
X150565437Y-75100166D01*
X150568856Y-75123221D01*
X150570000Y-75146500D01*
X150570000Y-75621500D01*
X150568856Y-75644779D01*
X150565437Y-75667834D01*
X150559773Y-75690443D01*
X150551921Y-75712387D01*
X150541956Y-75733457D01*
X150529974Y-75753448D01*
X150516090Y-75772168D01*
X150500438Y-75789438D01*
X150483168Y-75805090D01*
X150464448Y-75818974D01*
X150444457Y-75830956D01*
X150423387Y-75840921D01*
X150401443Y-75848773D01*
X150378834Y-75854437D01*
X150355779Y-75857856D01*
X150332500Y-75859000D01*
X149757500Y-75859000D01*
X149734221Y-75857856D01*
X149711166Y-75854437D01*
X149688557Y-75848773D01*
X149666613Y-75840921D01*
X149645543Y-75830956D01*
X149625552Y-75818974D01*
X149606832Y-75805090D01*
X149589562Y-75789438D01*
X149573910Y-75772168D01*
X149560026Y-75753448D01*
X149548044Y-75733457D01*
X149538079Y-75712387D01*
X149530227Y-75690443D01*
X149524563Y-75667834D01*
X149521144Y-75644779D01*
X149520000Y-75621500D01*
X149520000Y-75146500D01*
X149521144Y-75123221D01*
X149524563Y-75100166D01*
X149530227Y-75077557D01*
X149538079Y-75055613D01*
X149548044Y-75034543D01*
X149560026Y-75014552D01*
X149573910Y-74995832D01*
X149589562Y-74978562D01*
X149606832Y-74962910D01*
X149625552Y-74949026D01*
X149645543Y-74937044D01*
X149666613Y-74927079D01*
X149688557Y-74919227D01*
X149711166Y-74913563D01*
X149734221Y-74910144D01*
X149757500Y-74909000D01*
X150332500Y-74909000D01*
X150355779Y-74910144D01*
X150355779Y-74910144D01*
G37*
D18*
X150045000Y-75384000D03*
D17*
G36*
X137034504Y-72570204D02*
G01*
X137058773Y-72573804D01*
X137082571Y-72579765D01*
X137105671Y-72588030D01*
X137127849Y-72598520D01*
X137148893Y-72611133D01*
X137168598Y-72625747D01*
X137186777Y-72642223D01*
X137203253Y-72660402D01*
X137217867Y-72680107D01*
X137230480Y-72701151D01*
X137240970Y-72723329D01*
X137249235Y-72746429D01*
X137255196Y-72770227D01*
X137258796Y-72794496D01*
X137260000Y-72819000D01*
X137260000Y-74069000D01*
X137258796Y-74093504D01*
X137255196Y-74117773D01*
X137249235Y-74141571D01*
X137240970Y-74164671D01*
X137230480Y-74186849D01*
X137217867Y-74207893D01*
X137203253Y-74227598D01*
X137186777Y-74245777D01*
X137168598Y-74262253D01*
X137148893Y-74276867D01*
X137127849Y-74289480D01*
X137105671Y-74299970D01*
X137082571Y-74308235D01*
X137058773Y-74314196D01*
X137034504Y-74317796D01*
X137010000Y-74319000D01*
X136085000Y-74319000D01*
X136060496Y-74317796D01*
X136036227Y-74314196D01*
X136012429Y-74308235D01*
X135989329Y-74299970D01*
X135967151Y-74289480D01*
X135946107Y-74276867D01*
X135926402Y-74262253D01*
X135908223Y-74245777D01*
X135891747Y-74227598D01*
X135877133Y-74207893D01*
X135864520Y-74186849D01*
X135854030Y-74164671D01*
X135845765Y-74141571D01*
X135839804Y-74117773D01*
X135836204Y-74093504D01*
X135835000Y-74069000D01*
X135835000Y-72819000D01*
X135836204Y-72794496D01*
X135839804Y-72770227D01*
X135845765Y-72746429D01*
X135854030Y-72723329D01*
X135864520Y-72701151D01*
X135877133Y-72680107D01*
X135891747Y-72660402D01*
X135908223Y-72642223D01*
X135926402Y-72625747D01*
X135946107Y-72611133D01*
X135967151Y-72598520D01*
X135989329Y-72588030D01*
X136012429Y-72579765D01*
X136036227Y-72573804D01*
X136060496Y-72570204D01*
X136085000Y-72569000D01*
X137010000Y-72569000D01*
X137034504Y-72570204D01*
X137034504Y-72570204D01*
G37*
D19*
X136547500Y-73444000D03*
D17*
G36*
X134059504Y-72570204D02*
G01*
X134083773Y-72573804D01*
X134107571Y-72579765D01*
X134130671Y-72588030D01*
X134152849Y-72598520D01*
X134173893Y-72611133D01*
X134193598Y-72625747D01*
X134211777Y-72642223D01*
X134228253Y-72660402D01*
X134242867Y-72680107D01*
X134255480Y-72701151D01*
X134265970Y-72723329D01*
X134274235Y-72746429D01*
X134280196Y-72770227D01*
X134283796Y-72794496D01*
X134285000Y-72819000D01*
X134285000Y-74069000D01*
X134283796Y-74093504D01*
X134280196Y-74117773D01*
X134274235Y-74141571D01*
X134265970Y-74164671D01*
X134255480Y-74186849D01*
X134242867Y-74207893D01*
X134228253Y-74227598D01*
X134211777Y-74245777D01*
X134193598Y-74262253D01*
X134173893Y-74276867D01*
X134152849Y-74289480D01*
X134130671Y-74299970D01*
X134107571Y-74308235D01*
X134083773Y-74314196D01*
X134059504Y-74317796D01*
X134035000Y-74319000D01*
X133110000Y-74319000D01*
X133085496Y-74317796D01*
X133061227Y-74314196D01*
X133037429Y-74308235D01*
X133014329Y-74299970D01*
X132992151Y-74289480D01*
X132971107Y-74276867D01*
X132951402Y-74262253D01*
X132933223Y-74245777D01*
X132916747Y-74227598D01*
X132902133Y-74207893D01*
X132889520Y-74186849D01*
X132879030Y-74164671D01*
X132870765Y-74141571D01*
X132864804Y-74117773D01*
X132861204Y-74093504D01*
X132860000Y-74069000D01*
X132860000Y-72819000D01*
X132861204Y-72794496D01*
X132864804Y-72770227D01*
X132870765Y-72746429D01*
X132879030Y-72723329D01*
X132889520Y-72701151D01*
X132902133Y-72680107D01*
X132916747Y-72660402D01*
X132933223Y-72642223D01*
X132951402Y-72625747D01*
X132971107Y-72611133D01*
X132992151Y-72598520D01*
X133014329Y-72588030D01*
X133037429Y-72579765D01*
X133061227Y-72573804D01*
X133085496Y-72570204D01*
X133110000Y-72569000D01*
X134035000Y-72569000D01*
X134059504Y-72570204D01*
X134059504Y-72570204D01*
G37*
D19*
X133572500Y-73444000D03*
D17*
G36*
X113345779Y-67770144D02*
G01*
X113368834Y-67773563D01*
X113391443Y-67779227D01*
X113413387Y-67787079D01*
X113434457Y-67797044D01*
X113454448Y-67809026D01*
X113473168Y-67822910D01*
X113490438Y-67838562D01*
X113506090Y-67855832D01*
X113519974Y-67874552D01*
X113531956Y-67894543D01*
X113541921Y-67915613D01*
X113549773Y-67937557D01*
X113555437Y-67960166D01*
X113558856Y-67983221D01*
X113560000Y-68006500D01*
X113560000Y-68481500D01*
X113558856Y-68504779D01*
X113555437Y-68527834D01*
X113549773Y-68550443D01*
X113541921Y-68572387D01*
X113531956Y-68593457D01*
X113519974Y-68613448D01*
X113506090Y-68632168D01*
X113490438Y-68649438D01*
X113473168Y-68665090D01*
X113454448Y-68678974D01*
X113434457Y-68690956D01*
X113413387Y-68700921D01*
X113391443Y-68708773D01*
X113368834Y-68714437D01*
X113345779Y-68717856D01*
X113322500Y-68719000D01*
X112747500Y-68719000D01*
X112724221Y-68717856D01*
X112701166Y-68714437D01*
X112678557Y-68708773D01*
X112656613Y-68700921D01*
X112635543Y-68690956D01*
X112615552Y-68678974D01*
X112596832Y-68665090D01*
X112579562Y-68649438D01*
X112563910Y-68632168D01*
X112550026Y-68613448D01*
X112538044Y-68593457D01*
X112528079Y-68572387D01*
X112520227Y-68550443D01*
X112514563Y-68527834D01*
X112511144Y-68504779D01*
X112510000Y-68481500D01*
X112510000Y-68006500D01*
X112511144Y-67983221D01*
X112514563Y-67960166D01*
X112520227Y-67937557D01*
X112528079Y-67915613D01*
X112538044Y-67894543D01*
X112550026Y-67874552D01*
X112563910Y-67855832D01*
X112579562Y-67838562D01*
X112596832Y-67822910D01*
X112615552Y-67809026D01*
X112635543Y-67797044D01*
X112656613Y-67787079D01*
X112678557Y-67779227D01*
X112701166Y-67773563D01*
X112724221Y-67770144D01*
X112747500Y-67769000D01*
X113322500Y-67769000D01*
X113345779Y-67770144D01*
X113345779Y-67770144D01*
G37*
D18*
X113035000Y-68244000D03*
D17*
G36*
X115095779Y-67770144D02*
G01*
X115118834Y-67773563D01*
X115141443Y-67779227D01*
X115163387Y-67787079D01*
X115184457Y-67797044D01*
X115204448Y-67809026D01*
X115223168Y-67822910D01*
X115240438Y-67838562D01*
X115256090Y-67855832D01*
X115269974Y-67874552D01*
X115281956Y-67894543D01*
X115291921Y-67915613D01*
X115299773Y-67937557D01*
X115305437Y-67960166D01*
X115308856Y-67983221D01*
X115310000Y-68006500D01*
X115310000Y-68481500D01*
X115308856Y-68504779D01*
X115305437Y-68527834D01*
X115299773Y-68550443D01*
X115291921Y-68572387D01*
X115281956Y-68593457D01*
X115269974Y-68613448D01*
X115256090Y-68632168D01*
X115240438Y-68649438D01*
X115223168Y-68665090D01*
X115204448Y-68678974D01*
X115184457Y-68690956D01*
X115163387Y-68700921D01*
X115141443Y-68708773D01*
X115118834Y-68714437D01*
X115095779Y-68717856D01*
X115072500Y-68719000D01*
X114497500Y-68719000D01*
X114474221Y-68717856D01*
X114451166Y-68714437D01*
X114428557Y-68708773D01*
X114406613Y-68700921D01*
X114385543Y-68690956D01*
X114365552Y-68678974D01*
X114346832Y-68665090D01*
X114329562Y-68649438D01*
X114313910Y-68632168D01*
X114300026Y-68613448D01*
X114288044Y-68593457D01*
X114278079Y-68572387D01*
X114270227Y-68550443D01*
X114264563Y-68527834D01*
X114261144Y-68504779D01*
X114260000Y-68481500D01*
X114260000Y-68006500D01*
X114261144Y-67983221D01*
X114264563Y-67960166D01*
X114270227Y-67937557D01*
X114278079Y-67915613D01*
X114288044Y-67894543D01*
X114300026Y-67874552D01*
X114313910Y-67855832D01*
X114329562Y-67838562D01*
X114346832Y-67822910D01*
X114365552Y-67809026D01*
X114385543Y-67797044D01*
X114406613Y-67787079D01*
X114428557Y-67779227D01*
X114451166Y-67773563D01*
X114474221Y-67770144D01*
X114497500Y-67769000D01*
X115072500Y-67769000D01*
X115095779Y-67770144D01*
X115095779Y-67770144D01*
G37*
D18*
X114785000Y-68244000D03*
D17*
G36*
X135745779Y-78470144D02*
G01*
X135768834Y-78473563D01*
X135791443Y-78479227D01*
X135813387Y-78487079D01*
X135834457Y-78497044D01*
X135854448Y-78509026D01*
X135873168Y-78522910D01*
X135890438Y-78538562D01*
X135906090Y-78555832D01*
X135919974Y-78574552D01*
X135931956Y-78594543D01*
X135941921Y-78615613D01*
X135949773Y-78637557D01*
X135955437Y-78660166D01*
X135958856Y-78683221D01*
X135960000Y-78706500D01*
X135960000Y-79181500D01*
X135958856Y-79204779D01*
X135955437Y-79227834D01*
X135949773Y-79250443D01*
X135941921Y-79272387D01*
X135931956Y-79293457D01*
X135919974Y-79313448D01*
X135906090Y-79332168D01*
X135890438Y-79349438D01*
X135873168Y-79365090D01*
X135854448Y-79378974D01*
X135834457Y-79390956D01*
X135813387Y-79400921D01*
X135791443Y-79408773D01*
X135768834Y-79414437D01*
X135745779Y-79417856D01*
X135722500Y-79419000D01*
X135147500Y-79419000D01*
X135124221Y-79417856D01*
X135101166Y-79414437D01*
X135078557Y-79408773D01*
X135056613Y-79400921D01*
X135035543Y-79390956D01*
X135015552Y-79378974D01*
X134996832Y-79365090D01*
X134979562Y-79349438D01*
X134963910Y-79332168D01*
X134950026Y-79313448D01*
X134938044Y-79293457D01*
X134928079Y-79272387D01*
X134920227Y-79250443D01*
X134914563Y-79227834D01*
X134911144Y-79204779D01*
X134910000Y-79181500D01*
X134910000Y-78706500D01*
X134911144Y-78683221D01*
X134914563Y-78660166D01*
X134920227Y-78637557D01*
X134928079Y-78615613D01*
X134938044Y-78594543D01*
X134950026Y-78574552D01*
X134963910Y-78555832D01*
X134979562Y-78538562D01*
X134996832Y-78522910D01*
X135015552Y-78509026D01*
X135035543Y-78497044D01*
X135056613Y-78487079D01*
X135078557Y-78479227D01*
X135101166Y-78473563D01*
X135124221Y-78470144D01*
X135147500Y-78469000D01*
X135722500Y-78469000D01*
X135745779Y-78470144D01*
X135745779Y-78470144D01*
G37*
D18*
X135435000Y-78944000D03*
D17*
G36*
X133995779Y-78470144D02*
G01*
X134018834Y-78473563D01*
X134041443Y-78479227D01*
X134063387Y-78487079D01*
X134084457Y-78497044D01*
X134104448Y-78509026D01*
X134123168Y-78522910D01*
X134140438Y-78538562D01*
X134156090Y-78555832D01*
X134169974Y-78574552D01*
X134181956Y-78594543D01*
X134191921Y-78615613D01*
X134199773Y-78637557D01*
X134205437Y-78660166D01*
X134208856Y-78683221D01*
X134210000Y-78706500D01*
X134210000Y-79181500D01*
X134208856Y-79204779D01*
X134205437Y-79227834D01*
X134199773Y-79250443D01*
X134191921Y-79272387D01*
X134181956Y-79293457D01*
X134169974Y-79313448D01*
X134156090Y-79332168D01*
X134140438Y-79349438D01*
X134123168Y-79365090D01*
X134104448Y-79378974D01*
X134084457Y-79390956D01*
X134063387Y-79400921D01*
X134041443Y-79408773D01*
X134018834Y-79414437D01*
X133995779Y-79417856D01*
X133972500Y-79419000D01*
X133397500Y-79419000D01*
X133374221Y-79417856D01*
X133351166Y-79414437D01*
X133328557Y-79408773D01*
X133306613Y-79400921D01*
X133285543Y-79390956D01*
X133265552Y-79378974D01*
X133246832Y-79365090D01*
X133229562Y-79349438D01*
X133213910Y-79332168D01*
X133200026Y-79313448D01*
X133188044Y-79293457D01*
X133178079Y-79272387D01*
X133170227Y-79250443D01*
X133164563Y-79227834D01*
X133161144Y-79204779D01*
X133160000Y-79181500D01*
X133160000Y-78706500D01*
X133161144Y-78683221D01*
X133164563Y-78660166D01*
X133170227Y-78637557D01*
X133178079Y-78615613D01*
X133188044Y-78594543D01*
X133200026Y-78574552D01*
X133213910Y-78555832D01*
X133229562Y-78538562D01*
X133246832Y-78522910D01*
X133265552Y-78509026D01*
X133285543Y-78497044D01*
X133306613Y-78487079D01*
X133328557Y-78479227D01*
X133351166Y-78473563D01*
X133374221Y-78470144D01*
X133397500Y-78469000D01*
X133972500Y-78469000D01*
X133995779Y-78470144D01*
X133995779Y-78470144D01*
G37*
D18*
X133685000Y-78944000D03*
D17*
G36*
X120320779Y-68295144D02*
G01*
X120343834Y-68298563D01*
X120366443Y-68304227D01*
X120388387Y-68312079D01*
X120409457Y-68322044D01*
X120429448Y-68334026D01*
X120448168Y-68347910D01*
X120465438Y-68363562D01*
X120481090Y-68380832D01*
X120494974Y-68399552D01*
X120506956Y-68419543D01*
X120516921Y-68440613D01*
X120524773Y-68462557D01*
X120530437Y-68485166D01*
X120533856Y-68508221D01*
X120535000Y-68531500D01*
X120535000Y-69106500D01*
X120533856Y-69129779D01*
X120530437Y-69152834D01*
X120524773Y-69175443D01*
X120516921Y-69197387D01*
X120506956Y-69218457D01*
X120494974Y-69238448D01*
X120481090Y-69257168D01*
X120465438Y-69274438D01*
X120448168Y-69290090D01*
X120429448Y-69303974D01*
X120409457Y-69315956D01*
X120388387Y-69325921D01*
X120366443Y-69333773D01*
X120343834Y-69339437D01*
X120320779Y-69342856D01*
X120297500Y-69344000D01*
X119822500Y-69344000D01*
X119799221Y-69342856D01*
X119776166Y-69339437D01*
X119753557Y-69333773D01*
X119731613Y-69325921D01*
X119710543Y-69315956D01*
X119690552Y-69303974D01*
X119671832Y-69290090D01*
X119654562Y-69274438D01*
X119638910Y-69257168D01*
X119625026Y-69238448D01*
X119613044Y-69218457D01*
X119603079Y-69197387D01*
X119595227Y-69175443D01*
X119589563Y-69152834D01*
X119586144Y-69129779D01*
X119585000Y-69106500D01*
X119585000Y-68531500D01*
X119586144Y-68508221D01*
X119589563Y-68485166D01*
X119595227Y-68462557D01*
X119603079Y-68440613D01*
X119613044Y-68419543D01*
X119625026Y-68399552D01*
X119638910Y-68380832D01*
X119654562Y-68363562D01*
X119671832Y-68347910D01*
X119690552Y-68334026D01*
X119710543Y-68322044D01*
X119731613Y-68312079D01*
X119753557Y-68304227D01*
X119776166Y-68298563D01*
X119799221Y-68295144D01*
X119822500Y-68294000D01*
X120297500Y-68294000D01*
X120320779Y-68295144D01*
X120320779Y-68295144D01*
G37*
D18*
X120060000Y-68819000D03*
D17*
G36*
X120320779Y-70045144D02*
G01*
X120343834Y-70048563D01*
X120366443Y-70054227D01*
X120388387Y-70062079D01*
X120409457Y-70072044D01*
X120429448Y-70084026D01*
X120448168Y-70097910D01*
X120465438Y-70113562D01*
X120481090Y-70130832D01*
X120494974Y-70149552D01*
X120506956Y-70169543D01*
X120516921Y-70190613D01*
X120524773Y-70212557D01*
X120530437Y-70235166D01*
X120533856Y-70258221D01*
X120535000Y-70281500D01*
X120535000Y-70856500D01*
X120533856Y-70879779D01*
X120530437Y-70902834D01*
X120524773Y-70925443D01*
X120516921Y-70947387D01*
X120506956Y-70968457D01*
X120494974Y-70988448D01*
X120481090Y-71007168D01*
X120465438Y-71024438D01*
X120448168Y-71040090D01*
X120429448Y-71053974D01*
X120409457Y-71065956D01*
X120388387Y-71075921D01*
X120366443Y-71083773D01*
X120343834Y-71089437D01*
X120320779Y-71092856D01*
X120297500Y-71094000D01*
X119822500Y-71094000D01*
X119799221Y-71092856D01*
X119776166Y-71089437D01*
X119753557Y-71083773D01*
X119731613Y-71075921D01*
X119710543Y-71065956D01*
X119690552Y-71053974D01*
X119671832Y-71040090D01*
X119654562Y-71024438D01*
X119638910Y-71007168D01*
X119625026Y-70988448D01*
X119613044Y-70968457D01*
X119603079Y-70947387D01*
X119595227Y-70925443D01*
X119589563Y-70902834D01*
X119586144Y-70879779D01*
X119585000Y-70856500D01*
X119585000Y-70281500D01*
X119586144Y-70258221D01*
X119589563Y-70235166D01*
X119595227Y-70212557D01*
X119603079Y-70190613D01*
X119613044Y-70169543D01*
X119625026Y-70149552D01*
X119638910Y-70130832D01*
X119654562Y-70113562D01*
X119671832Y-70097910D01*
X119690552Y-70084026D01*
X119710543Y-70072044D01*
X119731613Y-70062079D01*
X119753557Y-70054227D01*
X119776166Y-70048563D01*
X119799221Y-70045144D01*
X119822500Y-70044000D01*
X120297500Y-70044000D01*
X120320779Y-70045144D01*
X120320779Y-70045144D01*
G37*
D18*
X120060000Y-70569000D03*
D17*
G36*
X125442779Y-70390144D02*
G01*
X125465834Y-70393563D01*
X125488443Y-70399227D01*
X125510387Y-70407079D01*
X125531457Y-70417044D01*
X125551448Y-70429026D01*
X125570168Y-70442910D01*
X125587438Y-70458562D01*
X125603090Y-70475832D01*
X125616974Y-70494552D01*
X125628956Y-70514543D01*
X125638921Y-70535613D01*
X125646773Y-70557557D01*
X125652437Y-70580166D01*
X125655856Y-70603221D01*
X125657000Y-70626500D01*
X125657000Y-71201500D01*
X125655856Y-71224779D01*
X125652437Y-71247834D01*
X125646773Y-71270443D01*
X125638921Y-71292387D01*
X125628956Y-71313457D01*
X125616974Y-71333448D01*
X125603090Y-71352168D01*
X125587438Y-71369438D01*
X125570168Y-71385090D01*
X125551448Y-71398974D01*
X125531457Y-71410956D01*
X125510387Y-71420921D01*
X125488443Y-71428773D01*
X125465834Y-71434437D01*
X125442779Y-71437856D01*
X125419500Y-71439000D01*
X124944500Y-71439000D01*
X124921221Y-71437856D01*
X124898166Y-71434437D01*
X124875557Y-71428773D01*
X124853613Y-71420921D01*
X124832543Y-71410956D01*
X124812552Y-71398974D01*
X124793832Y-71385090D01*
X124776562Y-71369438D01*
X124760910Y-71352168D01*
X124747026Y-71333448D01*
X124735044Y-71313457D01*
X124725079Y-71292387D01*
X124717227Y-71270443D01*
X124711563Y-71247834D01*
X124708144Y-71224779D01*
X124707000Y-71201500D01*
X124707000Y-70626500D01*
X124708144Y-70603221D01*
X124711563Y-70580166D01*
X124717227Y-70557557D01*
X124725079Y-70535613D01*
X124735044Y-70514543D01*
X124747026Y-70494552D01*
X124760910Y-70475832D01*
X124776562Y-70458562D01*
X124793832Y-70442910D01*
X124812552Y-70429026D01*
X124832543Y-70417044D01*
X124853613Y-70407079D01*
X124875557Y-70399227D01*
X124898166Y-70393563D01*
X124921221Y-70390144D01*
X124944500Y-70389000D01*
X125419500Y-70389000D01*
X125442779Y-70390144D01*
X125442779Y-70390144D01*
G37*
D18*
X125182000Y-70914000D03*
D17*
G36*
X125442779Y-68640144D02*
G01*
X125465834Y-68643563D01*
X125488443Y-68649227D01*
X125510387Y-68657079D01*
X125531457Y-68667044D01*
X125551448Y-68679026D01*
X125570168Y-68692910D01*
X125587438Y-68708562D01*
X125603090Y-68725832D01*
X125616974Y-68744552D01*
X125628956Y-68764543D01*
X125638921Y-68785613D01*
X125646773Y-68807557D01*
X125652437Y-68830166D01*
X125655856Y-68853221D01*
X125657000Y-68876500D01*
X125657000Y-69451500D01*
X125655856Y-69474779D01*
X125652437Y-69497834D01*
X125646773Y-69520443D01*
X125638921Y-69542387D01*
X125628956Y-69563457D01*
X125616974Y-69583448D01*
X125603090Y-69602168D01*
X125587438Y-69619438D01*
X125570168Y-69635090D01*
X125551448Y-69648974D01*
X125531457Y-69660956D01*
X125510387Y-69670921D01*
X125488443Y-69678773D01*
X125465834Y-69684437D01*
X125442779Y-69687856D01*
X125419500Y-69689000D01*
X124944500Y-69689000D01*
X124921221Y-69687856D01*
X124898166Y-69684437D01*
X124875557Y-69678773D01*
X124853613Y-69670921D01*
X124832543Y-69660956D01*
X124812552Y-69648974D01*
X124793832Y-69635090D01*
X124776562Y-69619438D01*
X124760910Y-69602168D01*
X124747026Y-69583448D01*
X124735044Y-69563457D01*
X124725079Y-69542387D01*
X124717227Y-69520443D01*
X124711563Y-69497834D01*
X124708144Y-69474779D01*
X124707000Y-69451500D01*
X124707000Y-68876500D01*
X124708144Y-68853221D01*
X124711563Y-68830166D01*
X124717227Y-68807557D01*
X124725079Y-68785613D01*
X124735044Y-68764543D01*
X124747026Y-68744552D01*
X124760910Y-68725832D01*
X124776562Y-68708562D01*
X124793832Y-68692910D01*
X124812552Y-68679026D01*
X124832543Y-68667044D01*
X124853613Y-68657079D01*
X124875557Y-68649227D01*
X124898166Y-68643563D01*
X124921221Y-68640144D01*
X124944500Y-68639000D01*
X125419500Y-68639000D01*
X125442779Y-68640144D01*
X125442779Y-68640144D01*
G37*
D18*
X125182000Y-69164000D03*
D17*
G36*
X122049779Y-82011144D02*
G01*
X122072834Y-82014563D01*
X122095443Y-82020227D01*
X122117387Y-82028079D01*
X122138457Y-82038044D01*
X122158448Y-82050026D01*
X122177168Y-82063910D01*
X122194438Y-82079562D01*
X122210090Y-82096832D01*
X122223974Y-82115552D01*
X122235956Y-82135543D01*
X122245921Y-82156613D01*
X122253773Y-82178557D01*
X122259437Y-82201166D01*
X122262856Y-82224221D01*
X122264000Y-82247500D01*
X122264000Y-82722500D01*
X122262856Y-82745779D01*
X122259437Y-82768834D01*
X122253773Y-82791443D01*
X122245921Y-82813387D01*
X122235956Y-82834457D01*
X122223974Y-82854448D01*
X122210090Y-82873168D01*
X122194438Y-82890438D01*
X122177168Y-82906090D01*
X122158448Y-82919974D01*
X122138457Y-82931956D01*
X122117387Y-82941921D01*
X122095443Y-82949773D01*
X122072834Y-82955437D01*
X122049779Y-82958856D01*
X122026500Y-82960000D01*
X121451500Y-82960000D01*
X121428221Y-82958856D01*
X121405166Y-82955437D01*
X121382557Y-82949773D01*
X121360613Y-82941921D01*
X121339543Y-82931956D01*
X121319552Y-82919974D01*
X121300832Y-82906090D01*
X121283562Y-82890438D01*
X121267910Y-82873168D01*
X121254026Y-82854448D01*
X121242044Y-82834457D01*
X121232079Y-82813387D01*
X121224227Y-82791443D01*
X121218563Y-82768834D01*
X121215144Y-82745779D01*
X121214000Y-82722500D01*
X121214000Y-82247500D01*
X121215144Y-82224221D01*
X121218563Y-82201166D01*
X121224227Y-82178557D01*
X121232079Y-82156613D01*
X121242044Y-82135543D01*
X121254026Y-82115552D01*
X121267910Y-82096832D01*
X121283562Y-82079562D01*
X121300832Y-82063910D01*
X121319552Y-82050026D01*
X121339543Y-82038044D01*
X121360613Y-82028079D01*
X121382557Y-82020227D01*
X121405166Y-82014563D01*
X121428221Y-82011144D01*
X121451500Y-82010000D01*
X122026500Y-82010000D01*
X122049779Y-82011144D01*
X122049779Y-82011144D01*
G37*
D18*
X121739000Y-82485000D03*
D17*
G36*
X120299779Y-82011144D02*
G01*
X120322834Y-82014563D01*
X120345443Y-82020227D01*
X120367387Y-82028079D01*
X120388457Y-82038044D01*
X120408448Y-82050026D01*
X120427168Y-82063910D01*
X120444438Y-82079562D01*
X120460090Y-82096832D01*
X120473974Y-82115552D01*
X120485956Y-82135543D01*
X120495921Y-82156613D01*
X120503773Y-82178557D01*
X120509437Y-82201166D01*
X120512856Y-82224221D01*
X120514000Y-82247500D01*
X120514000Y-82722500D01*
X120512856Y-82745779D01*
X120509437Y-82768834D01*
X120503773Y-82791443D01*
X120495921Y-82813387D01*
X120485956Y-82834457D01*
X120473974Y-82854448D01*
X120460090Y-82873168D01*
X120444438Y-82890438D01*
X120427168Y-82906090D01*
X120408448Y-82919974D01*
X120388457Y-82931956D01*
X120367387Y-82941921D01*
X120345443Y-82949773D01*
X120322834Y-82955437D01*
X120299779Y-82958856D01*
X120276500Y-82960000D01*
X119701500Y-82960000D01*
X119678221Y-82958856D01*
X119655166Y-82955437D01*
X119632557Y-82949773D01*
X119610613Y-82941921D01*
X119589543Y-82931956D01*
X119569552Y-82919974D01*
X119550832Y-82906090D01*
X119533562Y-82890438D01*
X119517910Y-82873168D01*
X119504026Y-82854448D01*
X119492044Y-82834457D01*
X119482079Y-82813387D01*
X119474227Y-82791443D01*
X119468563Y-82768834D01*
X119465144Y-82745779D01*
X119464000Y-82722500D01*
X119464000Y-82247500D01*
X119465144Y-82224221D01*
X119468563Y-82201166D01*
X119474227Y-82178557D01*
X119482079Y-82156613D01*
X119492044Y-82135543D01*
X119504026Y-82115552D01*
X119517910Y-82096832D01*
X119533562Y-82079562D01*
X119550832Y-82063910D01*
X119569552Y-82050026D01*
X119589543Y-82038044D01*
X119610613Y-82028079D01*
X119632557Y-82020227D01*
X119655166Y-82014563D01*
X119678221Y-82011144D01*
X119701500Y-82010000D01*
X120276500Y-82010000D01*
X120299779Y-82011144D01*
X120299779Y-82011144D01*
G37*
D18*
X119989000Y-82485000D03*
D17*
G36*
X116997779Y-82011144D02*
G01*
X117020834Y-82014563D01*
X117043443Y-82020227D01*
X117065387Y-82028079D01*
X117086457Y-82038044D01*
X117106448Y-82050026D01*
X117125168Y-82063910D01*
X117142438Y-82079562D01*
X117158090Y-82096832D01*
X117171974Y-82115552D01*
X117183956Y-82135543D01*
X117193921Y-82156613D01*
X117201773Y-82178557D01*
X117207437Y-82201166D01*
X117210856Y-82224221D01*
X117212000Y-82247500D01*
X117212000Y-82722500D01*
X117210856Y-82745779D01*
X117207437Y-82768834D01*
X117201773Y-82791443D01*
X117193921Y-82813387D01*
X117183956Y-82834457D01*
X117171974Y-82854448D01*
X117158090Y-82873168D01*
X117142438Y-82890438D01*
X117125168Y-82906090D01*
X117106448Y-82919974D01*
X117086457Y-82931956D01*
X117065387Y-82941921D01*
X117043443Y-82949773D01*
X117020834Y-82955437D01*
X116997779Y-82958856D01*
X116974500Y-82960000D01*
X116399500Y-82960000D01*
X116376221Y-82958856D01*
X116353166Y-82955437D01*
X116330557Y-82949773D01*
X116308613Y-82941921D01*
X116287543Y-82931956D01*
X116267552Y-82919974D01*
X116248832Y-82906090D01*
X116231562Y-82890438D01*
X116215910Y-82873168D01*
X116202026Y-82854448D01*
X116190044Y-82834457D01*
X116180079Y-82813387D01*
X116172227Y-82791443D01*
X116166563Y-82768834D01*
X116163144Y-82745779D01*
X116162000Y-82722500D01*
X116162000Y-82247500D01*
X116163144Y-82224221D01*
X116166563Y-82201166D01*
X116172227Y-82178557D01*
X116180079Y-82156613D01*
X116190044Y-82135543D01*
X116202026Y-82115552D01*
X116215910Y-82096832D01*
X116231562Y-82079562D01*
X116248832Y-82063910D01*
X116267552Y-82050026D01*
X116287543Y-82038044D01*
X116308613Y-82028079D01*
X116330557Y-82020227D01*
X116353166Y-82014563D01*
X116376221Y-82011144D01*
X116399500Y-82010000D01*
X116974500Y-82010000D01*
X116997779Y-82011144D01*
X116997779Y-82011144D01*
G37*
D18*
X116687000Y-82485000D03*
D17*
G36*
X118747779Y-82011144D02*
G01*
X118770834Y-82014563D01*
X118793443Y-82020227D01*
X118815387Y-82028079D01*
X118836457Y-82038044D01*
X118856448Y-82050026D01*
X118875168Y-82063910D01*
X118892438Y-82079562D01*
X118908090Y-82096832D01*
X118921974Y-82115552D01*
X118933956Y-82135543D01*
X118943921Y-82156613D01*
X118951773Y-82178557D01*
X118957437Y-82201166D01*
X118960856Y-82224221D01*
X118962000Y-82247500D01*
X118962000Y-82722500D01*
X118960856Y-82745779D01*
X118957437Y-82768834D01*
X118951773Y-82791443D01*
X118943921Y-82813387D01*
X118933956Y-82834457D01*
X118921974Y-82854448D01*
X118908090Y-82873168D01*
X118892438Y-82890438D01*
X118875168Y-82906090D01*
X118856448Y-82919974D01*
X118836457Y-82931956D01*
X118815387Y-82941921D01*
X118793443Y-82949773D01*
X118770834Y-82955437D01*
X118747779Y-82958856D01*
X118724500Y-82960000D01*
X118149500Y-82960000D01*
X118126221Y-82958856D01*
X118103166Y-82955437D01*
X118080557Y-82949773D01*
X118058613Y-82941921D01*
X118037543Y-82931956D01*
X118017552Y-82919974D01*
X117998832Y-82906090D01*
X117981562Y-82890438D01*
X117965910Y-82873168D01*
X117952026Y-82854448D01*
X117940044Y-82834457D01*
X117930079Y-82813387D01*
X117922227Y-82791443D01*
X117916563Y-82768834D01*
X117913144Y-82745779D01*
X117912000Y-82722500D01*
X117912000Y-82247500D01*
X117913144Y-82224221D01*
X117916563Y-82201166D01*
X117922227Y-82178557D01*
X117930079Y-82156613D01*
X117940044Y-82135543D01*
X117952026Y-82115552D01*
X117965910Y-82096832D01*
X117981562Y-82079562D01*
X117998832Y-82063910D01*
X118017552Y-82050026D01*
X118037543Y-82038044D01*
X118058613Y-82028079D01*
X118080557Y-82020227D01*
X118103166Y-82014563D01*
X118126221Y-82011144D01*
X118149500Y-82010000D01*
X118724500Y-82010000D01*
X118747779Y-82011144D01*
X118747779Y-82011144D01*
G37*
D18*
X118437000Y-82485000D03*
D17*
G36*
X115799504Y-83897204D02*
G01*
X115823773Y-83900804D01*
X115847571Y-83906765D01*
X115870671Y-83915030D01*
X115892849Y-83925520D01*
X115913893Y-83938133D01*
X115933598Y-83952747D01*
X115951777Y-83969223D01*
X115968253Y-83987402D01*
X115982867Y-84007107D01*
X115995480Y-84028151D01*
X116005970Y-84050329D01*
X116014235Y-84073429D01*
X116020196Y-84097227D01*
X116023796Y-84121496D01*
X116025000Y-84146000D01*
X116025000Y-85396000D01*
X116023796Y-85420504D01*
X116020196Y-85444773D01*
X116014235Y-85468571D01*
X116005970Y-85491671D01*
X115995480Y-85513849D01*
X115982867Y-85534893D01*
X115968253Y-85554598D01*
X115951777Y-85572777D01*
X115933598Y-85589253D01*
X115913893Y-85603867D01*
X115892849Y-85616480D01*
X115870671Y-85626970D01*
X115847571Y-85635235D01*
X115823773Y-85641196D01*
X115799504Y-85644796D01*
X115775000Y-85646000D01*
X114850000Y-85646000D01*
X114825496Y-85644796D01*
X114801227Y-85641196D01*
X114777429Y-85635235D01*
X114754329Y-85626970D01*
X114732151Y-85616480D01*
X114711107Y-85603867D01*
X114691402Y-85589253D01*
X114673223Y-85572777D01*
X114656747Y-85554598D01*
X114642133Y-85534893D01*
X114629520Y-85513849D01*
X114619030Y-85491671D01*
X114610765Y-85468571D01*
X114604804Y-85444773D01*
X114601204Y-85420504D01*
X114600000Y-85396000D01*
X114600000Y-84146000D01*
X114601204Y-84121496D01*
X114604804Y-84097227D01*
X114610765Y-84073429D01*
X114619030Y-84050329D01*
X114629520Y-84028151D01*
X114642133Y-84007107D01*
X114656747Y-83987402D01*
X114673223Y-83969223D01*
X114691402Y-83952747D01*
X114711107Y-83938133D01*
X114732151Y-83925520D01*
X114754329Y-83915030D01*
X114777429Y-83906765D01*
X114801227Y-83900804D01*
X114825496Y-83897204D01*
X114850000Y-83896000D01*
X115775000Y-83896000D01*
X115799504Y-83897204D01*
X115799504Y-83897204D01*
G37*
D19*
X115312500Y-84771000D03*
D17*
G36*
X118774504Y-83897204D02*
G01*
X118798773Y-83900804D01*
X118822571Y-83906765D01*
X118845671Y-83915030D01*
X118867849Y-83925520D01*
X118888893Y-83938133D01*
X118908598Y-83952747D01*
X118926777Y-83969223D01*
X118943253Y-83987402D01*
X118957867Y-84007107D01*
X118970480Y-84028151D01*
X118980970Y-84050329D01*
X118989235Y-84073429D01*
X118995196Y-84097227D01*
X118998796Y-84121496D01*
X119000000Y-84146000D01*
X119000000Y-85396000D01*
X118998796Y-85420504D01*
X118995196Y-85444773D01*
X118989235Y-85468571D01*
X118980970Y-85491671D01*
X118970480Y-85513849D01*
X118957867Y-85534893D01*
X118943253Y-85554598D01*
X118926777Y-85572777D01*
X118908598Y-85589253D01*
X118888893Y-85603867D01*
X118867849Y-85616480D01*
X118845671Y-85626970D01*
X118822571Y-85635235D01*
X118798773Y-85641196D01*
X118774504Y-85644796D01*
X118750000Y-85646000D01*
X117825000Y-85646000D01*
X117800496Y-85644796D01*
X117776227Y-85641196D01*
X117752429Y-85635235D01*
X117729329Y-85626970D01*
X117707151Y-85616480D01*
X117686107Y-85603867D01*
X117666402Y-85589253D01*
X117648223Y-85572777D01*
X117631747Y-85554598D01*
X117617133Y-85534893D01*
X117604520Y-85513849D01*
X117594030Y-85491671D01*
X117585765Y-85468571D01*
X117579804Y-85444773D01*
X117576204Y-85420504D01*
X117575000Y-85396000D01*
X117575000Y-84146000D01*
X117576204Y-84121496D01*
X117579804Y-84097227D01*
X117585765Y-84073429D01*
X117594030Y-84050329D01*
X117604520Y-84028151D01*
X117617133Y-84007107D01*
X117631747Y-83987402D01*
X117648223Y-83969223D01*
X117666402Y-83952747D01*
X117686107Y-83938133D01*
X117707151Y-83925520D01*
X117729329Y-83915030D01*
X117752429Y-83906765D01*
X117776227Y-83900804D01*
X117800496Y-83897204D01*
X117825000Y-83896000D01*
X118750000Y-83896000D01*
X118774504Y-83897204D01*
X118774504Y-83897204D01*
G37*
D19*
X118287500Y-84771000D03*
D17*
G36*
X123600504Y-83897204D02*
G01*
X123624773Y-83900804D01*
X123648571Y-83906765D01*
X123671671Y-83915030D01*
X123693849Y-83925520D01*
X123714893Y-83938133D01*
X123734598Y-83952747D01*
X123752777Y-83969223D01*
X123769253Y-83987402D01*
X123783867Y-84007107D01*
X123796480Y-84028151D01*
X123806970Y-84050329D01*
X123815235Y-84073429D01*
X123821196Y-84097227D01*
X123824796Y-84121496D01*
X123826000Y-84146000D01*
X123826000Y-85396000D01*
X123824796Y-85420504D01*
X123821196Y-85444773D01*
X123815235Y-85468571D01*
X123806970Y-85491671D01*
X123796480Y-85513849D01*
X123783867Y-85534893D01*
X123769253Y-85554598D01*
X123752777Y-85572777D01*
X123734598Y-85589253D01*
X123714893Y-85603867D01*
X123693849Y-85616480D01*
X123671671Y-85626970D01*
X123648571Y-85635235D01*
X123624773Y-85641196D01*
X123600504Y-85644796D01*
X123576000Y-85646000D01*
X122651000Y-85646000D01*
X122626496Y-85644796D01*
X122602227Y-85641196D01*
X122578429Y-85635235D01*
X122555329Y-85626970D01*
X122533151Y-85616480D01*
X122512107Y-85603867D01*
X122492402Y-85589253D01*
X122474223Y-85572777D01*
X122457747Y-85554598D01*
X122443133Y-85534893D01*
X122430520Y-85513849D01*
X122420030Y-85491671D01*
X122411765Y-85468571D01*
X122405804Y-85444773D01*
X122402204Y-85420504D01*
X122401000Y-85396000D01*
X122401000Y-84146000D01*
X122402204Y-84121496D01*
X122405804Y-84097227D01*
X122411765Y-84073429D01*
X122420030Y-84050329D01*
X122430520Y-84028151D01*
X122443133Y-84007107D01*
X122457747Y-83987402D01*
X122474223Y-83969223D01*
X122492402Y-83952747D01*
X122512107Y-83938133D01*
X122533151Y-83925520D01*
X122555329Y-83915030D01*
X122578429Y-83906765D01*
X122602227Y-83900804D01*
X122626496Y-83897204D01*
X122651000Y-83896000D01*
X123576000Y-83896000D01*
X123600504Y-83897204D01*
X123600504Y-83897204D01*
G37*
D19*
X123113500Y-84771000D03*
D17*
G36*
X120625504Y-83897204D02*
G01*
X120649773Y-83900804D01*
X120673571Y-83906765D01*
X120696671Y-83915030D01*
X120718849Y-83925520D01*
X120739893Y-83938133D01*
X120759598Y-83952747D01*
X120777777Y-83969223D01*
X120794253Y-83987402D01*
X120808867Y-84007107D01*
X120821480Y-84028151D01*
X120831970Y-84050329D01*
X120840235Y-84073429D01*
X120846196Y-84097227D01*
X120849796Y-84121496D01*
X120851000Y-84146000D01*
X120851000Y-85396000D01*
X120849796Y-85420504D01*
X120846196Y-85444773D01*
X120840235Y-85468571D01*
X120831970Y-85491671D01*
X120821480Y-85513849D01*
X120808867Y-85534893D01*
X120794253Y-85554598D01*
X120777777Y-85572777D01*
X120759598Y-85589253D01*
X120739893Y-85603867D01*
X120718849Y-85616480D01*
X120696671Y-85626970D01*
X120673571Y-85635235D01*
X120649773Y-85641196D01*
X120625504Y-85644796D01*
X120601000Y-85646000D01*
X119676000Y-85646000D01*
X119651496Y-85644796D01*
X119627227Y-85641196D01*
X119603429Y-85635235D01*
X119580329Y-85626970D01*
X119558151Y-85616480D01*
X119537107Y-85603867D01*
X119517402Y-85589253D01*
X119499223Y-85572777D01*
X119482747Y-85554598D01*
X119468133Y-85534893D01*
X119455520Y-85513849D01*
X119445030Y-85491671D01*
X119436765Y-85468571D01*
X119430804Y-85444773D01*
X119427204Y-85420504D01*
X119426000Y-85396000D01*
X119426000Y-84146000D01*
X119427204Y-84121496D01*
X119430804Y-84097227D01*
X119436765Y-84073429D01*
X119445030Y-84050329D01*
X119455520Y-84028151D01*
X119468133Y-84007107D01*
X119482747Y-83987402D01*
X119499223Y-83969223D01*
X119517402Y-83952747D01*
X119537107Y-83938133D01*
X119558151Y-83925520D01*
X119580329Y-83915030D01*
X119603429Y-83906765D01*
X119627227Y-83900804D01*
X119651496Y-83897204D01*
X119676000Y-83896000D01*
X120601000Y-83896000D01*
X120625504Y-83897204D01*
X120625504Y-83897204D01*
G37*
D19*
X120138500Y-84771000D03*
D17*
G36*
X115536779Y-76895144D02*
G01*
X115559834Y-76898563D01*
X115582443Y-76904227D01*
X115604387Y-76912079D01*
X115625457Y-76922044D01*
X115645448Y-76934026D01*
X115664168Y-76947910D01*
X115681438Y-76963562D01*
X115697090Y-76980832D01*
X115710974Y-76999552D01*
X115722956Y-77019543D01*
X115732921Y-77040613D01*
X115740773Y-77062557D01*
X115746437Y-77085166D01*
X115749856Y-77108221D01*
X115751000Y-77131500D01*
X115751000Y-77706500D01*
X115749856Y-77729779D01*
X115746437Y-77752834D01*
X115740773Y-77775443D01*
X115732921Y-77797387D01*
X115722956Y-77818457D01*
X115710974Y-77838448D01*
X115697090Y-77857168D01*
X115681438Y-77874438D01*
X115664168Y-77890090D01*
X115645448Y-77903974D01*
X115625457Y-77915956D01*
X115604387Y-77925921D01*
X115582443Y-77933773D01*
X115559834Y-77939437D01*
X115536779Y-77942856D01*
X115513500Y-77944000D01*
X115038500Y-77944000D01*
X115015221Y-77942856D01*
X114992166Y-77939437D01*
X114969557Y-77933773D01*
X114947613Y-77925921D01*
X114926543Y-77915956D01*
X114906552Y-77903974D01*
X114887832Y-77890090D01*
X114870562Y-77874438D01*
X114854910Y-77857168D01*
X114841026Y-77838448D01*
X114829044Y-77818457D01*
X114819079Y-77797387D01*
X114811227Y-77775443D01*
X114805563Y-77752834D01*
X114802144Y-77729779D01*
X114801000Y-77706500D01*
X114801000Y-77131500D01*
X114802144Y-77108221D01*
X114805563Y-77085166D01*
X114811227Y-77062557D01*
X114819079Y-77040613D01*
X114829044Y-77019543D01*
X114841026Y-76999552D01*
X114854910Y-76980832D01*
X114870562Y-76963562D01*
X114887832Y-76947910D01*
X114906552Y-76934026D01*
X114926543Y-76922044D01*
X114947613Y-76912079D01*
X114969557Y-76904227D01*
X114992166Y-76898563D01*
X115015221Y-76895144D01*
X115038500Y-76894000D01*
X115513500Y-76894000D01*
X115536779Y-76895144D01*
X115536779Y-76895144D01*
G37*
D18*
X115276000Y-77419000D03*
D17*
G36*
X115536779Y-78645144D02*
G01*
X115559834Y-78648563D01*
X115582443Y-78654227D01*
X115604387Y-78662079D01*
X115625457Y-78672044D01*
X115645448Y-78684026D01*
X115664168Y-78697910D01*
X115681438Y-78713562D01*
X115697090Y-78730832D01*
X115710974Y-78749552D01*
X115722956Y-78769543D01*
X115732921Y-78790613D01*
X115740773Y-78812557D01*
X115746437Y-78835166D01*
X115749856Y-78858221D01*
X115751000Y-78881500D01*
X115751000Y-79456500D01*
X115749856Y-79479779D01*
X115746437Y-79502834D01*
X115740773Y-79525443D01*
X115732921Y-79547387D01*
X115722956Y-79568457D01*
X115710974Y-79588448D01*
X115697090Y-79607168D01*
X115681438Y-79624438D01*
X115664168Y-79640090D01*
X115645448Y-79653974D01*
X115625457Y-79665956D01*
X115604387Y-79675921D01*
X115582443Y-79683773D01*
X115559834Y-79689437D01*
X115536779Y-79692856D01*
X115513500Y-79694000D01*
X115038500Y-79694000D01*
X115015221Y-79692856D01*
X114992166Y-79689437D01*
X114969557Y-79683773D01*
X114947613Y-79675921D01*
X114926543Y-79665956D01*
X114906552Y-79653974D01*
X114887832Y-79640090D01*
X114870562Y-79624438D01*
X114854910Y-79607168D01*
X114841026Y-79588448D01*
X114829044Y-79568457D01*
X114819079Y-79547387D01*
X114811227Y-79525443D01*
X114805563Y-79502834D01*
X114802144Y-79479779D01*
X114801000Y-79456500D01*
X114801000Y-78881500D01*
X114802144Y-78858221D01*
X114805563Y-78835166D01*
X114811227Y-78812557D01*
X114819079Y-78790613D01*
X114829044Y-78769543D01*
X114841026Y-78749552D01*
X114854910Y-78730832D01*
X114870562Y-78713562D01*
X114887832Y-78697910D01*
X114906552Y-78684026D01*
X114926543Y-78672044D01*
X114947613Y-78662079D01*
X114969557Y-78654227D01*
X114992166Y-78648563D01*
X115015221Y-78645144D01*
X115038500Y-78644000D01*
X115513500Y-78644000D01*
X115536779Y-78645144D01*
X115536779Y-78645144D01*
G37*
D18*
X115276000Y-79169000D03*
D17*
G36*
X151605779Y-81876144D02*
G01*
X151628834Y-81879563D01*
X151651443Y-81885227D01*
X151673387Y-81893079D01*
X151694457Y-81903044D01*
X151714448Y-81915026D01*
X151733168Y-81928910D01*
X151750438Y-81944562D01*
X151766090Y-81961832D01*
X151779974Y-81980552D01*
X151791956Y-82000543D01*
X151801921Y-82021613D01*
X151809773Y-82043557D01*
X151815437Y-82066166D01*
X151818856Y-82089221D01*
X151820000Y-82112500D01*
X151820000Y-82587500D01*
X151818856Y-82610779D01*
X151815437Y-82633834D01*
X151809773Y-82656443D01*
X151801921Y-82678387D01*
X151791956Y-82699457D01*
X151779974Y-82719448D01*
X151766090Y-82738168D01*
X151750438Y-82755438D01*
X151733168Y-82771090D01*
X151714448Y-82784974D01*
X151694457Y-82796956D01*
X151673387Y-82806921D01*
X151651443Y-82814773D01*
X151628834Y-82820437D01*
X151605779Y-82823856D01*
X151582500Y-82825000D01*
X151007500Y-82825000D01*
X150984221Y-82823856D01*
X150961166Y-82820437D01*
X150938557Y-82814773D01*
X150916613Y-82806921D01*
X150895543Y-82796956D01*
X150875552Y-82784974D01*
X150856832Y-82771090D01*
X150839562Y-82755438D01*
X150823910Y-82738168D01*
X150810026Y-82719448D01*
X150798044Y-82699457D01*
X150788079Y-82678387D01*
X150780227Y-82656443D01*
X150774563Y-82633834D01*
X150771144Y-82610779D01*
X150770000Y-82587500D01*
X150770000Y-82112500D01*
X150771144Y-82089221D01*
X150774563Y-82066166D01*
X150780227Y-82043557D01*
X150788079Y-82021613D01*
X150798044Y-82000543D01*
X150810026Y-81980552D01*
X150823910Y-81961832D01*
X150839562Y-81944562D01*
X150856832Y-81928910D01*
X150875552Y-81915026D01*
X150895543Y-81903044D01*
X150916613Y-81893079D01*
X150938557Y-81885227D01*
X150961166Y-81879563D01*
X150984221Y-81876144D01*
X151007500Y-81875000D01*
X151582500Y-81875000D01*
X151605779Y-81876144D01*
X151605779Y-81876144D01*
G37*
D18*
X151295000Y-82350000D03*
D17*
G36*
X149855779Y-81876144D02*
G01*
X149878834Y-81879563D01*
X149901443Y-81885227D01*
X149923387Y-81893079D01*
X149944457Y-81903044D01*
X149964448Y-81915026D01*
X149983168Y-81928910D01*
X150000438Y-81944562D01*
X150016090Y-81961832D01*
X150029974Y-81980552D01*
X150041956Y-82000543D01*
X150051921Y-82021613D01*
X150059773Y-82043557D01*
X150065437Y-82066166D01*
X150068856Y-82089221D01*
X150070000Y-82112500D01*
X150070000Y-82587500D01*
X150068856Y-82610779D01*
X150065437Y-82633834D01*
X150059773Y-82656443D01*
X150051921Y-82678387D01*
X150041956Y-82699457D01*
X150029974Y-82719448D01*
X150016090Y-82738168D01*
X150000438Y-82755438D01*
X149983168Y-82771090D01*
X149964448Y-82784974D01*
X149944457Y-82796956D01*
X149923387Y-82806921D01*
X149901443Y-82814773D01*
X149878834Y-82820437D01*
X149855779Y-82823856D01*
X149832500Y-82825000D01*
X149257500Y-82825000D01*
X149234221Y-82823856D01*
X149211166Y-82820437D01*
X149188557Y-82814773D01*
X149166613Y-82806921D01*
X149145543Y-82796956D01*
X149125552Y-82784974D01*
X149106832Y-82771090D01*
X149089562Y-82755438D01*
X149073910Y-82738168D01*
X149060026Y-82719448D01*
X149048044Y-82699457D01*
X149038079Y-82678387D01*
X149030227Y-82656443D01*
X149024563Y-82633834D01*
X149021144Y-82610779D01*
X149020000Y-82587500D01*
X149020000Y-82112500D01*
X149021144Y-82089221D01*
X149024563Y-82066166D01*
X149030227Y-82043557D01*
X149038079Y-82021613D01*
X149048044Y-82000543D01*
X149060026Y-81980552D01*
X149073910Y-81961832D01*
X149089562Y-81944562D01*
X149106832Y-81928910D01*
X149125552Y-81915026D01*
X149145543Y-81903044D01*
X149166613Y-81893079D01*
X149188557Y-81885227D01*
X149211166Y-81879563D01*
X149234221Y-81876144D01*
X149257500Y-81875000D01*
X149832500Y-81875000D01*
X149855779Y-81876144D01*
X149855779Y-81876144D01*
G37*
D18*
X149545000Y-82350000D03*
D17*
G36*
X160235779Y-88976144D02*
G01*
X160258834Y-88979563D01*
X160281443Y-88985227D01*
X160303387Y-88993079D01*
X160324457Y-89003044D01*
X160344448Y-89015026D01*
X160363168Y-89028910D01*
X160380438Y-89044562D01*
X160396090Y-89061832D01*
X160409974Y-89080552D01*
X160421956Y-89100543D01*
X160431921Y-89121613D01*
X160439773Y-89143557D01*
X160445437Y-89166166D01*
X160448856Y-89189221D01*
X160450000Y-89212500D01*
X160450000Y-89687500D01*
X160448856Y-89710779D01*
X160445437Y-89733834D01*
X160439773Y-89756443D01*
X160431921Y-89778387D01*
X160421956Y-89799457D01*
X160409974Y-89819448D01*
X160396090Y-89838168D01*
X160380438Y-89855438D01*
X160363168Y-89871090D01*
X160344448Y-89884974D01*
X160324457Y-89896956D01*
X160303387Y-89906921D01*
X160281443Y-89914773D01*
X160258834Y-89920437D01*
X160235779Y-89923856D01*
X160212500Y-89925000D01*
X159637500Y-89925000D01*
X159614221Y-89923856D01*
X159591166Y-89920437D01*
X159568557Y-89914773D01*
X159546613Y-89906921D01*
X159525543Y-89896956D01*
X159505552Y-89884974D01*
X159486832Y-89871090D01*
X159469562Y-89855438D01*
X159453910Y-89838168D01*
X159440026Y-89819448D01*
X159428044Y-89799457D01*
X159418079Y-89778387D01*
X159410227Y-89756443D01*
X159404563Y-89733834D01*
X159401144Y-89710779D01*
X159400000Y-89687500D01*
X159400000Y-89212500D01*
X159401144Y-89189221D01*
X159404563Y-89166166D01*
X159410227Y-89143557D01*
X159418079Y-89121613D01*
X159428044Y-89100543D01*
X159440026Y-89080552D01*
X159453910Y-89061832D01*
X159469562Y-89044562D01*
X159486832Y-89028910D01*
X159505552Y-89015026D01*
X159525543Y-89003044D01*
X159546613Y-88993079D01*
X159568557Y-88985227D01*
X159591166Y-88979563D01*
X159614221Y-88976144D01*
X159637500Y-88975000D01*
X160212500Y-88975000D01*
X160235779Y-88976144D01*
X160235779Y-88976144D01*
G37*
D18*
X159925000Y-89450000D03*
D17*
G36*
X158485779Y-88976144D02*
G01*
X158508834Y-88979563D01*
X158531443Y-88985227D01*
X158553387Y-88993079D01*
X158574457Y-89003044D01*
X158594448Y-89015026D01*
X158613168Y-89028910D01*
X158630438Y-89044562D01*
X158646090Y-89061832D01*
X158659974Y-89080552D01*
X158671956Y-89100543D01*
X158681921Y-89121613D01*
X158689773Y-89143557D01*
X158695437Y-89166166D01*
X158698856Y-89189221D01*
X158700000Y-89212500D01*
X158700000Y-89687500D01*
X158698856Y-89710779D01*
X158695437Y-89733834D01*
X158689773Y-89756443D01*
X158681921Y-89778387D01*
X158671956Y-89799457D01*
X158659974Y-89819448D01*
X158646090Y-89838168D01*
X158630438Y-89855438D01*
X158613168Y-89871090D01*
X158594448Y-89884974D01*
X158574457Y-89896956D01*
X158553387Y-89906921D01*
X158531443Y-89914773D01*
X158508834Y-89920437D01*
X158485779Y-89923856D01*
X158462500Y-89925000D01*
X157887500Y-89925000D01*
X157864221Y-89923856D01*
X157841166Y-89920437D01*
X157818557Y-89914773D01*
X157796613Y-89906921D01*
X157775543Y-89896956D01*
X157755552Y-89884974D01*
X157736832Y-89871090D01*
X157719562Y-89855438D01*
X157703910Y-89838168D01*
X157690026Y-89819448D01*
X157678044Y-89799457D01*
X157668079Y-89778387D01*
X157660227Y-89756443D01*
X157654563Y-89733834D01*
X157651144Y-89710779D01*
X157650000Y-89687500D01*
X157650000Y-89212500D01*
X157651144Y-89189221D01*
X157654563Y-89166166D01*
X157660227Y-89143557D01*
X157668079Y-89121613D01*
X157678044Y-89100543D01*
X157690026Y-89080552D01*
X157703910Y-89061832D01*
X157719562Y-89044562D01*
X157736832Y-89028910D01*
X157755552Y-89015026D01*
X157775543Y-89003044D01*
X157796613Y-88993079D01*
X157818557Y-88985227D01*
X157841166Y-88979563D01*
X157864221Y-88976144D01*
X157887500Y-88975000D01*
X158462500Y-88975000D01*
X158485779Y-88976144D01*
X158485779Y-88976144D01*
G37*
D18*
X158175000Y-89450000D03*
D17*
G36*
X160185779Y-90676144D02*
G01*
X160208834Y-90679563D01*
X160231443Y-90685227D01*
X160253387Y-90693079D01*
X160274457Y-90703044D01*
X160294448Y-90715026D01*
X160313168Y-90728910D01*
X160330438Y-90744562D01*
X160346090Y-90761832D01*
X160359974Y-90780552D01*
X160371956Y-90800543D01*
X160381921Y-90821613D01*
X160389773Y-90843557D01*
X160395437Y-90866166D01*
X160398856Y-90889221D01*
X160400000Y-90912500D01*
X160400000Y-91387500D01*
X160398856Y-91410779D01*
X160395437Y-91433834D01*
X160389773Y-91456443D01*
X160381921Y-91478387D01*
X160371956Y-91499457D01*
X160359974Y-91519448D01*
X160346090Y-91538168D01*
X160330438Y-91555438D01*
X160313168Y-91571090D01*
X160294448Y-91584974D01*
X160274457Y-91596956D01*
X160253387Y-91606921D01*
X160231443Y-91614773D01*
X160208834Y-91620437D01*
X160185779Y-91623856D01*
X160162500Y-91625000D01*
X159587500Y-91625000D01*
X159564221Y-91623856D01*
X159541166Y-91620437D01*
X159518557Y-91614773D01*
X159496613Y-91606921D01*
X159475543Y-91596956D01*
X159455552Y-91584974D01*
X159436832Y-91571090D01*
X159419562Y-91555438D01*
X159403910Y-91538168D01*
X159390026Y-91519448D01*
X159378044Y-91499457D01*
X159368079Y-91478387D01*
X159360227Y-91456443D01*
X159354563Y-91433834D01*
X159351144Y-91410779D01*
X159350000Y-91387500D01*
X159350000Y-90912500D01*
X159351144Y-90889221D01*
X159354563Y-90866166D01*
X159360227Y-90843557D01*
X159368079Y-90821613D01*
X159378044Y-90800543D01*
X159390026Y-90780552D01*
X159403910Y-90761832D01*
X159419562Y-90744562D01*
X159436832Y-90728910D01*
X159455552Y-90715026D01*
X159475543Y-90703044D01*
X159496613Y-90693079D01*
X159518557Y-90685227D01*
X159541166Y-90679563D01*
X159564221Y-90676144D01*
X159587500Y-90675000D01*
X160162500Y-90675000D01*
X160185779Y-90676144D01*
X160185779Y-90676144D01*
G37*
D18*
X159875000Y-91150000D03*
D17*
G36*
X158435779Y-90676144D02*
G01*
X158458834Y-90679563D01*
X158481443Y-90685227D01*
X158503387Y-90693079D01*
X158524457Y-90703044D01*
X158544448Y-90715026D01*
X158563168Y-90728910D01*
X158580438Y-90744562D01*
X158596090Y-90761832D01*
X158609974Y-90780552D01*
X158621956Y-90800543D01*
X158631921Y-90821613D01*
X158639773Y-90843557D01*
X158645437Y-90866166D01*
X158648856Y-90889221D01*
X158650000Y-90912500D01*
X158650000Y-91387500D01*
X158648856Y-91410779D01*
X158645437Y-91433834D01*
X158639773Y-91456443D01*
X158631921Y-91478387D01*
X158621956Y-91499457D01*
X158609974Y-91519448D01*
X158596090Y-91538168D01*
X158580438Y-91555438D01*
X158563168Y-91571090D01*
X158544448Y-91584974D01*
X158524457Y-91596956D01*
X158503387Y-91606921D01*
X158481443Y-91614773D01*
X158458834Y-91620437D01*
X158435779Y-91623856D01*
X158412500Y-91625000D01*
X157837500Y-91625000D01*
X157814221Y-91623856D01*
X157791166Y-91620437D01*
X157768557Y-91614773D01*
X157746613Y-91606921D01*
X157725543Y-91596956D01*
X157705552Y-91584974D01*
X157686832Y-91571090D01*
X157669562Y-91555438D01*
X157653910Y-91538168D01*
X157640026Y-91519448D01*
X157628044Y-91499457D01*
X157618079Y-91478387D01*
X157610227Y-91456443D01*
X157604563Y-91433834D01*
X157601144Y-91410779D01*
X157600000Y-91387500D01*
X157600000Y-90912500D01*
X157601144Y-90889221D01*
X157604563Y-90866166D01*
X157610227Y-90843557D01*
X157618079Y-90821613D01*
X157628044Y-90800543D01*
X157640026Y-90780552D01*
X157653910Y-90761832D01*
X157669562Y-90744562D01*
X157686832Y-90728910D01*
X157705552Y-90715026D01*
X157725543Y-90703044D01*
X157746613Y-90693079D01*
X157768557Y-90685227D01*
X157791166Y-90679563D01*
X157814221Y-90676144D01*
X157837500Y-90675000D01*
X158412500Y-90675000D01*
X158435779Y-90676144D01*
X158435779Y-90676144D01*
G37*
D18*
X158125000Y-91150000D03*
D17*
G36*
X152585779Y-89306144D02*
G01*
X152608834Y-89309563D01*
X152631443Y-89315227D01*
X152653387Y-89323079D01*
X152674457Y-89333044D01*
X152694448Y-89345026D01*
X152713168Y-89358910D01*
X152730438Y-89374562D01*
X152746090Y-89391832D01*
X152759974Y-89410552D01*
X152771956Y-89430543D01*
X152781921Y-89451613D01*
X152789773Y-89473557D01*
X152795437Y-89496166D01*
X152798856Y-89519221D01*
X152800000Y-89542500D01*
X152800000Y-90017500D01*
X152798856Y-90040779D01*
X152795437Y-90063834D01*
X152789773Y-90086443D01*
X152781921Y-90108387D01*
X152771956Y-90129457D01*
X152759974Y-90149448D01*
X152746090Y-90168168D01*
X152730438Y-90185438D01*
X152713168Y-90201090D01*
X152694448Y-90214974D01*
X152674457Y-90226956D01*
X152653387Y-90236921D01*
X152631443Y-90244773D01*
X152608834Y-90250437D01*
X152585779Y-90253856D01*
X152562500Y-90255000D01*
X151987500Y-90255000D01*
X151964221Y-90253856D01*
X151941166Y-90250437D01*
X151918557Y-90244773D01*
X151896613Y-90236921D01*
X151875543Y-90226956D01*
X151855552Y-90214974D01*
X151836832Y-90201090D01*
X151819562Y-90185438D01*
X151803910Y-90168168D01*
X151790026Y-90149448D01*
X151778044Y-90129457D01*
X151768079Y-90108387D01*
X151760227Y-90086443D01*
X151754563Y-90063834D01*
X151751144Y-90040779D01*
X151750000Y-90017500D01*
X151750000Y-89542500D01*
X151751144Y-89519221D01*
X151754563Y-89496166D01*
X151760227Y-89473557D01*
X151768079Y-89451613D01*
X151778044Y-89430543D01*
X151790026Y-89410552D01*
X151803910Y-89391832D01*
X151819562Y-89374562D01*
X151836832Y-89358910D01*
X151855552Y-89345026D01*
X151875543Y-89333044D01*
X151896613Y-89323079D01*
X151918557Y-89315227D01*
X151941166Y-89309563D01*
X151964221Y-89306144D01*
X151987500Y-89305000D01*
X152562500Y-89305000D01*
X152585779Y-89306144D01*
X152585779Y-89306144D01*
G37*
D18*
X152275000Y-89780000D03*
D17*
G36*
X150835779Y-89306144D02*
G01*
X150858834Y-89309563D01*
X150881443Y-89315227D01*
X150903387Y-89323079D01*
X150924457Y-89333044D01*
X150944448Y-89345026D01*
X150963168Y-89358910D01*
X150980438Y-89374562D01*
X150996090Y-89391832D01*
X151009974Y-89410552D01*
X151021956Y-89430543D01*
X151031921Y-89451613D01*
X151039773Y-89473557D01*
X151045437Y-89496166D01*
X151048856Y-89519221D01*
X151050000Y-89542500D01*
X151050000Y-90017500D01*
X151048856Y-90040779D01*
X151045437Y-90063834D01*
X151039773Y-90086443D01*
X151031921Y-90108387D01*
X151021956Y-90129457D01*
X151009974Y-90149448D01*
X150996090Y-90168168D01*
X150980438Y-90185438D01*
X150963168Y-90201090D01*
X150944448Y-90214974D01*
X150924457Y-90226956D01*
X150903387Y-90236921D01*
X150881443Y-90244773D01*
X150858834Y-90250437D01*
X150835779Y-90253856D01*
X150812500Y-90255000D01*
X150237500Y-90255000D01*
X150214221Y-90253856D01*
X150191166Y-90250437D01*
X150168557Y-90244773D01*
X150146613Y-90236921D01*
X150125543Y-90226956D01*
X150105552Y-90214974D01*
X150086832Y-90201090D01*
X150069562Y-90185438D01*
X150053910Y-90168168D01*
X150040026Y-90149448D01*
X150028044Y-90129457D01*
X150018079Y-90108387D01*
X150010227Y-90086443D01*
X150004563Y-90063834D01*
X150001144Y-90040779D01*
X150000000Y-90017500D01*
X150000000Y-89542500D01*
X150001144Y-89519221D01*
X150004563Y-89496166D01*
X150010227Y-89473557D01*
X150018079Y-89451613D01*
X150028044Y-89430543D01*
X150040026Y-89410552D01*
X150053910Y-89391832D01*
X150069562Y-89374562D01*
X150086832Y-89358910D01*
X150105552Y-89345026D01*
X150125543Y-89333044D01*
X150146613Y-89323079D01*
X150168557Y-89315227D01*
X150191166Y-89309563D01*
X150214221Y-89306144D01*
X150237500Y-89305000D01*
X150812500Y-89305000D01*
X150835779Y-89306144D01*
X150835779Y-89306144D01*
G37*
D18*
X150525000Y-89780000D03*
D17*
G36*
X140720779Y-74965144D02*
G01*
X140743834Y-74968563D01*
X140766443Y-74974227D01*
X140788387Y-74982079D01*
X140809457Y-74992044D01*
X140829448Y-75004026D01*
X140848168Y-75017910D01*
X140865438Y-75033562D01*
X140881090Y-75050832D01*
X140894974Y-75069552D01*
X140906956Y-75089543D01*
X140916921Y-75110613D01*
X140924773Y-75132557D01*
X140930437Y-75155166D01*
X140933856Y-75178221D01*
X140935000Y-75201500D01*
X140935000Y-75776500D01*
X140933856Y-75799779D01*
X140930437Y-75822834D01*
X140924773Y-75845443D01*
X140916921Y-75867387D01*
X140906956Y-75888457D01*
X140894974Y-75908448D01*
X140881090Y-75927168D01*
X140865438Y-75944438D01*
X140848168Y-75960090D01*
X140829448Y-75973974D01*
X140809457Y-75985956D01*
X140788387Y-75995921D01*
X140766443Y-76003773D01*
X140743834Y-76009437D01*
X140720779Y-76012856D01*
X140697500Y-76014000D01*
X140222500Y-76014000D01*
X140199221Y-76012856D01*
X140176166Y-76009437D01*
X140153557Y-76003773D01*
X140131613Y-75995921D01*
X140110543Y-75985956D01*
X140090552Y-75973974D01*
X140071832Y-75960090D01*
X140054562Y-75944438D01*
X140038910Y-75927168D01*
X140025026Y-75908448D01*
X140013044Y-75888457D01*
X140003079Y-75867387D01*
X139995227Y-75845443D01*
X139989563Y-75822834D01*
X139986144Y-75799779D01*
X139985000Y-75776500D01*
X139985000Y-75201500D01*
X139986144Y-75178221D01*
X139989563Y-75155166D01*
X139995227Y-75132557D01*
X140003079Y-75110613D01*
X140013044Y-75089543D01*
X140025026Y-75069552D01*
X140038910Y-75050832D01*
X140054562Y-75033562D01*
X140071832Y-75017910D01*
X140090552Y-75004026D01*
X140110543Y-74992044D01*
X140131613Y-74982079D01*
X140153557Y-74974227D01*
X140176166Y-74968563D01*
X140199221Y-74965144D01*
X140222500Y-74964000D01*
X140697500Y-74964000D01*
X140720779Y-74965144D01*
X140720779Y-74965144D01*
G37*
D18*
X140460000Y-75489000D03*
D17*
G36*
X140720779Y-73215144D02*
G01*
X140743834Y-73218563D01*
X140766443Y-73224227D01*
X140788387Y-73232079D01*
X140809457Y-73242044D01*
X140829448Y-73254026D01*
X140848168Y-73267910D01*
X140865438Y-73283562D01*
X140881090Y-73300832D01*
X140894974Y-73319552D01*
X140906956Y-73339543D01*
X140916921Y-73360613D01*
X140924773Y-73382557D01*
X140930437Y-73405166D01*
X140933856Y-73428221D01*
X140935000Y-73451500D01*
X140935000Y-74026500D01*
X140933856Y-74049779D01*
X140930437Y-74072834D01*
X140924773Y-74095443D01*
X140916921Y-74117387D01*
X140906956Y-74138457D01*
X140894974Y-74158448D01*
X140881090Y-74177168D01*
X140865438Y-74194438D01*
X140848168Y-74210090D01*
X140829448Y-74223974D01*
X140809457Y-74235956D01*
X140788387Y-74245921D01*
X140766443Y-74253773D01*
X140743834Y-74259437D01*
X140720779Y-74262856D01*
X140697500Y-74264000D01*
X140222500Y-74264000D01*
X140199221Y-74262856D01*
X140176166Y-74259437D01*
X140153557Y-74253773D01*
X140131613Y-74245921D01*
X140110543Y-74235956D01*
X140090552Y-74223974D01*
X140071832Y-74210090D01*
X140054562Y-74194438D01*
X140038910Y-74177168D01*
X140025026Y-74158448D01*
X140013044Y-74138457D01*
X140003079Y-74117387D01*
X139995227Y-74095443D01*
X139989563Y-74072834D01*
X139986144Y-74049779D01*
X139985000Y-74026500D01*
X139985000Y-73451500D01*
X139986144Y-73428221D01*
X139989563Y-73405166D01*
X139995227Y-73382557D01*
X140003079Y-73360613D01*
X140013044Y-73339543D01*
X140025026Y-73319552D01*
X140038910Y-73300832D01*
X140054562Y-73283562D01*
X140071832Y-73267910D01*
X140090552Y-73254026D01*
X140110543Y-73242044D01*
X140131613Y-73232079D01*
X140153557Y-73224227D01*
X140176166Y-73218563D01*
X140199221Y-73215144D01*
X140222500Y-73214000D01*
X140697500Y-73214000D01*
X140720779Y-73215144D01*
X140720779Y-73215144D01*
G37*
D18*
X140460000Y-73739000D03*
D17*
G36*
X146345779Y-97420144D02*
G01*
X146368834Y-97423563D01*
X146391443Y-97429227D01*
X146413387Y-97437079D01*
X146434457Y-97447044D01*
X146454448Y-97459026D01*
X146473168Y-97472910D01*
X146490438Y-97488562D01*
X146506090Y-97505832D01*
X146519974Y-97524552D01*
X146531956Y-97544543D01*
X146541921Y-97565613D01*
X146549773Y-97587557D01*
X146555437Y-97610166D01*
X146558856Y-97633221D01*
X146560000Y-97656500D01*
X146560000Y-98131500D01*
X146558856Y-98154779D01*
X146555437Y-98177834D01*
X146549773Y-98200443D01*
X146541921Y-98222387D01*
X146531956Y-98243457D01*
X146519974Y-98263448D01*
X146506090Y-98282168D01*
X146490438Y-98299438D01*
X146473168Y-98315090D01*
X146454448Y-98328974D01*
X146434457Y-98340956D01*
X146413387Y-98350921D01*
X146391443Y-98358773D01*
X146368834Y-98364437D01*
X146345779Y-98367856D01*
X146322500Y-98369000D01*
X145747500Y-98369000D01*
X145724221Y-98367856D01*
X145701166Y-98364437D01*
X145678557Y-98358773D01*
X145656613Y-98350921D01*
X145635543Y-98340956D01*
X145615552Y-98328974D01*
X145596832Y-98315090D01*
X145579562Y-98299438D01*
X145563910Y-98282168D01*
X145550026Y-98263448D01*
X145538044Y-98243457D01*
X145528079Y-98222387D01*
X145520227Y-98200443D01*
X145514563Y-98177834D01*
X145511144Y-98154779D01*
X145510000Y-98131500D01*
X145510000Y-97656500D01*
X145511144Y-97633221D01*
X145514563Y-97610166D01*
X145520227Y-97587557D01*
X145528079Y-97565613D01*
X145538044Y-97544543D01*
X145550026Y-97524552D01*
X145563910Y-97505832D01*
X145579562Y-97488562D01*
X145596832Y-97472910D01*
X145615552Y-97459026D01*
X145635543Y-97447044D01*
X145656613Y-97437079D01*
X145678557Y-97429227D01*
X145701166Y-97423563D01*
X145724221Y-97420144D01*
X145747500Y-97419000D01*
X146322500Y-97419000D01*
X146345779Y-97420144D01*
X146345779Y-97420144D01*
G37*
D18*
X146035000Y-97894000D03*
D17*
G36*
X144595779Y-97420144D02*
G01*
X144618834Y-97423563D01*
X144641443Y-97429227D01*
X144663387Y-97437079D01*
X144684457Y-97447044D01*
X144704448Y-97459026D01*
X144723168Y-97472910D01*
X144740438Y-97488562D01*
X144756090Y-97505832D01*
X144769974Y-97524552D01*
X144781956Y-97544543D01*
X144791921Y-97565613D01*
X144799773Y-97587557D01*
X144805437Y-97610166D01*
X144808856Y-97633221D01*
X144810000Y-97656500D01*
X144810000Y-98131500D01*
X144808856Y-98154779D01*
X144805437Y-98177834D01*
X144799773Y-98200443D01*
X144791921Y-98222387D01*
X144781956Y-98243457D01*
X144769974Y-98263448D01*
X144756090Y-98282168D01*
X144740438Y-98299438D01*
X144723168Y-98315090D01*
X144704448Y-98328974D01*
X144684457Y-98340956D01*
X144663387Y-98350921D01*
X144641443Y-98358773D01*
X144618834Y-98364437D01*
X144595779Y-98367856D01*
X144572500Y-98369000D01*
X143997500Y-98369000D01*
X143974221Y-98367856D01*
X143951166Y-98364437D01*
X143928557Y-98358773D01*
X143906613Y-98350921D01*
X143885543Y-98340956D01*
X143865552Y-98328974D01*
X143846832Y-98315090D01*
X143829562Y-98299438D01*
X143813910Y-98282168D01*
X143800026Y-98263448D01*
X143788044Y-98243457D01*
X143778079Y-98222387D01*
X143770227Y-98200443D01*
X143764563Y-98177834D01*
X143761144Y-98154779D01*
X143760000Y-98131500D01*
X143760000Y-97656500D01*
X143761144Y-97633221D01*
X143764563Y-97610166D01*
X143770227Y-97587557D01*
X143778079Y-97565613D01*
X143788044Y-97544543D01*
X143800026Y-97524552D01*
X143813910Y-97505832D01*
X143829562Y-97488562D01*
X143846832Y-97472910D01*
X143865552Y-97459026D01*
X143885543Y-97447044D01*
X143906613Y-97437079D01*
X143928557Y-97429227D01*
X143951166Y-97423563D01*
X143974221Y-97420144D01*
X143997500Y-97419000D01*
X144572500Y-97419000D01*
X144595779Y-97420144D01*
X144595779Y-97420144D01*
G37*
D18*
X144285000Y-97894000D03*
D17*
G36*
X145535779Y-70240144D02*
G01*
X145558834Y-70243563D01*
X145581443Y-70249227D01*
X145603387Y-70257079D01*
X145624457Y-70267044D01*
X145644448Y-70279026D01*
X145663168Y-70292910D01*
X145680438Y-70308562D01*
X145696090Y-70325832D01*
X145709974Y-70344552D01*
X145721956Y-70364543D01*
X145731921Y-70385613D01*
X145739773Y-70407557D01*
X145745437Y-70430166D01*
X145748856Y-70453221D01*
X145750000Y-70476500D01*
X145750000Y-70951500D01*
X145748856Y-70974779D01*
X145745437Y-70997834D01*
X145739773Y-71020443D01*
X145731921Y-71042387D01*
X145721956Y-71063457D01*
X145709974Y-71083448D01*
X145696090Y-71102168D01*
X145680438Y-71119438D01*
X145663168Y-71135090D01*
X145644448Y-71148974D01*
X145624457Y-71160956D01*
X145603387Y-71170921D01*
X145581443Y-71178773D01*
X145558834Y-71184437D01*
X145535779Y-71187856D01*
X145512500Y-71189000D01*
X144937500Y-71189000D01*
X144914221Y-71187856D01*
X144891166Y-71184437D01*
X144868557Y-71178773D01*
X144846613Y-71170921D01*
X144825543Y-71160956D01*
X144805552Y-71148974D01*
X144786832Y-71135090D01*
X144769562Y-71119438D01*
X144753910Y-71102168D01*
X144740026Y-71083448D01*
X144728044Y-71063457D01*
X144718079Y-71042387D01*
X144710227Y-71020443D01*
X144704563Y-70997834D01*
X144701144Y-70974779D01*
X144700000Y-70951500D01*
X144700000Y-70476500D01*
X144701144Y-70453221D01*
X144704563Y-70430166D01*
X144710227Y-70407557D01*
X144718079Y-70385613D01*
X144728044Y-70364543D01*
X144740026Y-70344552D01*
X144753910Y-70325832D01*
X144769562Y-70308562D01*
X144786832Y-70292910D01*
X144805552Y-70279026D01*
X144825543Y-70267044D01*
X144846613Y-70257079D01*
X144868557Y-70249227D01*
X144891166Y-70243563D01*
X144914221Y-70240144D01*
X144937500Y-70239000D01*
X145512500Y-70239000D01*
X145535779Y-70240144D01*
X145535779Y-70240144D01*
G37*
D18*
X145225000Y-70714000D03*
D17*
G36*
X143785779Y-70240144D02*
G01*
X143808834Y-70243563D01*
X143831443Y-70249227D01*
X143853387Y-70257079D01*
X143874457Y-70267044D01*
X143894448Y-70279026D01*
X143913168Y-70292910D01*
X143930438Y-70308562D01*
X143946090Y-70325832D01*
X143959974Y-70344552D01*
X143971956Y-70364543D01*
X143981921Y-70385613D01*
X143989773Y-70407557D01*
X143995437Y-70430166D01*
X143998856Y-70453221D01*
X144000000Y-70476500D01*
X144000000Y-70951500D01*
X143998856Y-70974779D01*
X143995437Y-70997834D01*
X143989773Y-71020443D01*
X143981921Y-71042387D01*
X143971956Y-71063457D01*
X143959974Y-71083448D01*
X143946090Y-71102168D01*
X143930438Y-71119438D01*
X143913168Y-71135090D01*
X143894448Y-71148974D01*
X143874457Y-71160956D01*
X143853387Y-71170921D01*
X143831443Y-71178773D01*
X143808834Y-71184437D01*
X143785779Y-71187856D01*
X143762500Y-71189000D01*
X143187500Y-71189000D01*
X143164221Y-71187856D01*
X143141166Y-71184437D01*
X143118557Y-71178773D01*
X143096613Y-71170921D01*
X143075543Y-71160956D01*
X143055552Y-71148974D01*
X143036832Y-71135090D01*
X143019562Y-71119438D01*
X143003910Y-71102168D01*
X142990026Y-71083448D01*
X142978044Y-71063457D01*
X142968079Y-71042387D01*
X142960227Y-71020443D01*
X142954563Y-70997834D01*
X142951144Y-70974779D01*
X142950000Y-70951500D01*
X142950000Y-70476500D01*
X142951144Y-70453221D01*
X142954563Y-70430166D01*
X142960227Y-70407557D01*
X142968079Y-70385613D01*
X142978044Y-70364543D01*
X142990026Y-70344552D01*
X143003910Y-70325832D01*
X143019562Y-70308562D01*
X143036832Y-70292910D01*
X143055552Y-70279026D01*
X143075543Y-70267044D01*
X143096613Y-70257079D01*
X143118557Y-70249227D01*
X143141166Y-70243563D01*
X143164221Y-70240144D01*
X143187500Y-70239000D01*
X143762500Y-70239000D01*
X143785779Y-70240144D01*
X143785779Y-70240144D01*
G37*
D18*
X143475000Y-70714000D03*
D17*
G36*
X142670779Y-85245144D02*
G01*
X142693834Y-85248563D01*
X142716443Y-85254227D01*
X142738387Y-85262079D01*
X142759457Y-85272044D01*
X142779448Y-85284026D01*
X142798168Y-85297910D01*
X142815438Y-85313562D01*
X142831090Y-85330832D01*
X142844974Y-85349552D01*
X142856956Y-85369543D01*
X142866921Y-85390613D01*
X142874773Y-85412557D01*
X142880437Y-85435166D01*
X142883856Y-85458221D01*
X142885000Y-85481500D01*
X142885000Y-86056500D01*
X142883856Y-86079779D01*
X142880437Y-86102834D01*
X142874773Y-86125443D01*
X142866921Y-86147387D01*
X142856956Y-86168457D01*
X142844974Y-86188448D01*
X142831090Y-86207168D01*
X142815438Y-86224438D01*
X142798168Y-86240090D01*
X142779448Y-86253974D01*
X142759457Y-86265956D01*
X142738387Y-86275921D01*
X142716443Y-86283773D01*
X142693834Y-86289437D01*
X142670779Y-86292856D01*
X142647500Y-86294000D01*
X142172500Y-86294000D01*
X142149221Y-86292856D01*
X142126166Y-86289437D01*
X142103557Y-86283773D01*
X142081613Y-86275921D01*
X142060543Y-86265956D01*
X142040552Y-86253974D01*
X142021832Y-86240090D01*
X142004562Y-86224438D01*
X141988910Y-86207168D01*
X141975026Y-86188448D01*
X141963044Y-86168457D01*
X141953079Y-86147387D01*
X141945227Y-86125443D01*
X141939563Y-86102834D01*
X141936144Y-86079779D01*
X141935000Y-86056500D01*
X141935000Y-85481500D01*
X141936144Y-85458221D01*
X141939563Y-85435166D01*
X141945227Y-85412557D01*
X141953079Y-85390613D01*
X141963044Y-85369543D01*
X141975026Y-85349552D01*
X141988910Y-85330832D01*
X142004562Y-85313562D01*
X142021832Y-85297910D01*
X142040552Y-85284026D01*
X142060543Y-85272044D01*
X142081613Y-85262079D01*
X142103557Y-85254227D01*
X142126166Y-85248563D01*
X142149221Y-85245144D01*
X142172500Y-85244000D01*
X142647500Y-85244000D01*
X142670779Y-85245144D01*
X142670779Y-85245144D01*
G37*
D18*
X142410000Y-85769000D03*
D17*
G36*
X142670779Y-83495144D02*
G01*
X142693834Y-83498563D01*
X142716443Y-83504227D01*
X142738387Y-83512079D01*
X142759457Y-83522044D01*
X142779448Y-83534026D01*
X142798168Y-83547910D01*
X142815438Y-83563562D01*
X142831090Y-83580832D01*
X142844974Y-83599552D01*
X142856956Y-83619543D01*
X142866921Y-83640613D01*
X142874773Y-83662557D01*
X142880437Y-83685166D01*
X142883856Y-83708221D01*
X142885000Y-83731500D01*
X142885000Y-84306500D01*
X142883856Y-84329779D01*
X142880437Y-84352834D01*
X142874773Y-84375443D01*
X142866921Y-84397387D01*
X142856956Y-84418457D01*
X142844974Y-84438448D01*
X142831090Y-84457168D01*
X142815438Y-84474438D01*
X142798168Y-84490090D01*
X142779448Y-84503974D01*
X142759457Y-84515956D01*
X142738387Y-84525921D01*
X142716443Y-84533773D01*
X142693834Y-84539437D01*
X142670779Y-84542856D01*
X142647500Y-84544000D01*
X142172500Y-84544000D01*
X142149221Y-84542856D01*
X142126166Y-84539437D01*
X142103557Y-84533773D01*
X142081613Y-84525921D01*
X142060543Y-84515956D01*
X142040552Y-84503974D01*
X142021832Y-84490090D01*
X142004562Y-84474438D01*
X141988910Y-84457168D01*
X141975026Y-84438448D01*
X141963044Y-84418457D01*
X141953079Y-84397387D01*
X141945227Y-84375443D01*
X141939563Y-84352834D01*
X141936144Y-84329779D01*
X141935000Y-84306500D01*
X141935000Y-83731500D01*
X141936144Y-83708221D01*
X141939563Y-83685166D01*
X141945227Y-83662557D01*
X141953079Y-83640613D01*
X141963044Y-83619543D01*
X141975026Y-83599552D01*
X141988910Y-83580832D01*
X142004562Y-83563562D01*
X142021832Y-83547910D01*
X142040552Y-83534026D01*
X142060543Y-83522044D01*
X142081613Y-83512079D01*
X142103557Y-83504227D01*
X142126166Y-83498563D01*
X142149221Y-83495144D01*
X142172500Y-83494000D01*
X142647500Y-83494000D01*
X142670779Y-83495144D01*
X142670779Y-83495144D01*
G37*
D18*
X142410000Y-84019000D03*
D17*
G36*
X144570779Y-52045144D02*
G01*
X144593834Y-52048563D01*
X144616443Y-52054227D01*
X144638387Y-52062079D01*
X144659457Y-52072044D01*
X144679448Y-52084026D01*
X144698168Y-52097910D01*
X144715438Y-52113562D01*
X144731090Y-52130832D01*
X144744974Y-52149552D01*
X144756956Y-52169543D01*
X144766921Y-52190613D01*
X144774773Y-52212557D01*
X144780437Y-52235166D01*
X144783856Y-52258221D01*
X144785000Y-52281500D01*
X144785000Y-52856500D01*
X144783856Y-52879779D01*
X144780437Y-52902834D01*
X144774773Y-52925443D01*
X144766921Y-52947387D01*
X144756956Y-52968457D01*
X144744974Y-52988448D01*
X144731090Y-53007168D01*
X144715438Y-53024438D01*
X144698168Y-53040090D01*
X144679448Y-53053974D01*
X144659457Y-53065956D01*
X144638387Y-53075921D01*
X144616443Y-53083773D01*
X144593834Y-53089437D01*
X144570779Y-53092856D01*
X144547500Y-53094000D01*
X144072500Y-53094000D01*
X144049221Y-53092856D01*
X144026166Y-53089437D01*
X144003557Y-53083773D01*
X143981613Y-53075921D01*
X143960543Y-53065956D01*
X143940552Y-53053974D01*
X143921832Y-53040090D01*
X143904562Y-53024438D01*
X143888910Y-53007168D01*
X143875026Y-52988448D01*
X143863044Y-52968457D01*
X143853079Y-52947387D01*
X143845227Y-52925443D01*
X143839563Y-52902834D01*
X143836144Y-52879779D01*
X143835000Y-52856500D01*
X143835000Y-52281500D01*
X143836144Y-52258221D01*
X143839563Y-52235166D01*
X143845227Y-52212557D01*
X143853079Y-52190613D01*
X143863044Y-52169543D01*
X143875026Y-52149552D01*
X143888910Y-52130832D01*
X143904562Y-52113562D01*
X143921832Y-52097910D01*
X143940552Y-52084026D01*
X143960543Y-52072044D01*
X143981613Y-52062079D01*
X144003557Y-52054227D01*
X144026166Y-52048563D01*
X144049221Y-52045144D01*
X144072500Y-52044000D01*
X144547500Y-52044000D01*
X144570779Y-52045144D01*
X144570779Y-52045144D01*
G37*
D18*
X144310000Y-52569000D03*
D17*
G36*
X144570779Y-53795144D02*
G01*
X144593834Y-53798563D01*
X144616443Y-53804227D01*
X144638387Y-53812079D01*
X144659457Y-53822044D01*
X144679448Y-53834026D01*
X144698168Y-53847910D01*
X144715438Y-53863562D01*
X144731090Y-53880832D01*
X144744974Y-53899552D01*
X144756956Y-53919543D01*
X144766921Y-53940613D01*
X144774773Y-53962557D01*
X144780437Y-53985166D01*
X144783856Y-54008221D01*
X144785000Y-54031500D01*
X144785000Y-54606500D01*
X144783856Y-54629779D01*
X144780437Y-54652834D01*
X144774773Y-54675443D01*
X144766921Y-54697387D01*
X144756956Y-54718457D01*
X144744974Y-54738448D01*
X144731090Y-54757168D01*
X144715438Y-54774438D01*
X144698168Y-54790090D01*
X144679448Y-54803974D01*
X144659457Y-54815956D01*
X144638387Y-54825921D01*
X144616443Y-54833773D01*
X144593834Y-54839437D01*
X144570779Y-54842856D01*
X144547500Y-54844000D01*
X144072500Y-54844000D01*
X144049221Y-54842856D01*
X144026166Y-54839437D01*
X144003557Y-54833773D01*
X143981613Y-54825921D01*
X143960543Y-54815956D01*
X143940552Y-54803974D01*
X143921832Y-54790090D01*
X143904562Y-54774438D01*
X143888910Y-54757168D01*
X143875026Y-54738448D01*
X143863044Y-54718457D01*
X143853079Y-54697387D01*
X143845227Y-54675443D01*
X143839563Y-54652834D01*
X143836144Y-54629779D01*
X143835000Y-54606500D01*
X143835000Y-54031500D01*
X143836144Y-54008221D01*
X143839563Y-53985166D01*
X143845227Y-53962557D01*
X143853079Y-53940613D01*
X143863044Y-53919543D01*
X143875026Y-53899552D01*
X143888910Y-53880832D01*
X143904562Y-53863562D01*
X143921832Y-53847910D01*
X143940552Y-53834026D01*
X143960543Y-53822044D01*
X143981613Y-53812079D01*
X144003557Y-53804227D01*
X144026166Y-53798563D01*
X144049221Y-53795144D01*
X144072500Y-53794000D01*
X144547500Y-53794000D01*
X144570779Y-53795144D01*
X144570779Y-53795144D01*
G37*
D18*
X144310000Y-54319000D03*
D17*
G36*
X146070779Y-52045144D02*
G01*
X146093834Y-52048563D01*
X146116443Y-52054227D01*
X146138387Y-52062079D01*
X146159457Y-52072044D01*
X146179448Y-52084026D01*
X146198168Y-52097910D01*
X146215438Y-52113562D01*
X146231090Y-52130832D01*
X146244974Y-52149552D01*
X146256956Y-52169543D01*
X146266921Y-52190613D01*
X146274773Y-52212557D01*
X146280437Y-52235166D01*
X146283856Y-52258221D01*
X146285000Y-52281500D01*
X146285000Y-52856500D01*
X146283856Y-52879779D01*
X146280437Y-52902834D01*
X146274773Y-52925443D01*
X146266921Y-52947387D01*
X146256956Y-52968457D01*
X146244974Y-52988448D01*
X146231090Y-53007168D01*
X146215438Y-53024438D01*
X146198168Y-53040090D01*
X146179448Y-53053974D01*
X146159457Y-53065956D01*
X146138387Y-53075921D01*
X146116443Y-53083773D01*
X146093834Y-53089437D01*
X146070779Y-53092856D01*
X146047500Y-53094000D01*
X145572500Y-53094000D01*
X145549221Y-53092856D01*
X145526166Y-53089437D01*
X145503557Y-53083773D01*
X145481613Y-53075921D01*
X145460543Y-53065956D01*
X145440552Y-53053974D01*
X145421832Y-53040090D01*
X145404562Y-53024438D01*
X145388910Y-53007168D01*
X145375026Y-52988448D01*
X145363044Y-52968457D01*
X145353079Y-52947387D01*
X145345227Y-52925443D01*
X145339563Y-52902834D01*
X145336144Y-52879779D01*
X145335000Y-52856500D01*
X145335000Y-52281500D01*
X145336144Y-52258221D01*
X145339563Y-52235166D01*
X145345227Y-52212557D01*
X145353079Y-52190613D01*
X145363044Y-52169543D01*
X145375026Y-52149552D01*
X145388910Y-52130832D01*
X145404562Y-52113562D01*
X145421832Y-52097910D01*
X145440552Y-52084026D01*
X145460543Y-52072044D01*
X145481613Y-52062079D01*
X145503557Y-52054227D01*
X145526166Y-52048563D01*
X145549221Y-52045144D01*
X145572500Y-52044000D01*
X146047500Y-52044000D01*
X146070779Y-52045144D01*
X146070779Y-52045144D01*
G37*
D18*
X145810000Y-52569000D03*
D17*
G36*
X146070779Y-53795144D02*
G01*
X146093834Y-53798563D01*
X146116443Y-53804227D01*
X146138387Y-53812079D01*
X146159457Y-53822044D01*
X146179448Y-53834026D01*
X146198168Y-53847910D01*
X146215438Y-53863562D01*
X146231090Y-53880832D01*
X146244974Y-53899552D01*
X146256956Y-53919543D01*
X146266921Y-53940613D01*
X146274773Y-53962557D01*
X146280437Y-53985166D01*
X146283856Y-54008221D01*
X146285000Y-54031500D01*
X146285000Y-54606500D01*
X146283856Y-54629779D01*
X146280437Y-54652834D01*
X146274773Y-54675443D01*
X146266921Y-54697387D01*
X146256956Y-54718457D01*
X146244974Y-54738448D01*
X146231090Y-54757168D01*
X146215438Y-54774438D01*
X146198168Y-54790090D01*
X146179448Y-54803974D01*
X146159457Y-54815956D01*
X146138387Y-54825921D01*
X146116443Y-54833773D01*
X146093834Y-54839437D01*
X146070779Y-54842856D01*
X146047500Y-54844000D01*
X145572500Y-54844000D01*
X145549221Y-54842856D01*
X145526166Y-54839437D01*
X145503557Y-54833773D01*
X145481613Y-54825921D01*
X145460543Y-54815956D01*
X145440552Y-54803974D01*
X145421832Y-54790090D01*
X145404562Y-54774438D01*
X145388910Y-54757168D01*
X145375026Y-54738448D01*
X145363044Y-54718457D01*
X145353079Y-54697387D01*
X145345227Y-54675443D01*
X145339563Y-54652834D01*
X145336144Y-54629779D01*
X145335000Y-54606500D01*
X145335000Y-54031500D01*
X145336144Y-54008221D01*
X145339563Y-53985166D01*
X145345227Y-53962557D01*
X145353079Y-53940613D01*
X145363044Y-53919543D01*
X145375026Y-53899552D01*
X145388910Y-53880832D01*
X145404562Y-53863562D01*
X145421832Y-53847910D01*
X145440552Y-53834026D01*
X145460543Y-53822044D01*
X145481613Y-53812079D01*
X145503557Y-53804227D01*
X145526166Y-53798563D01*
X145549221Y-53795144D01*
X145572500Y-53794000D01*
X146047500Y-53794000D01*
X146070779Y-53795144D01*
X146070779Y-53795144D01*
G37*
D18*
X145810000Y-54319000D03*
D17*
G36*
X147730779Y-63965144D02*
G01*
X147753834Y-63968563D01*
X147776443Y-63974227D01*
X147798387Y-63982079D01*
X147819457Y-63992044D01*
X147839448Y-64004026D01*
X147858168Y-64017910D01*
X147875438Y-64033562D01*
X147891090Y-64050832D01*
X147904974Y-64069552D01*
X147916956Y-64089543D01*
X147926921Y-64110613D01*
X147934773Y-64132557D01*
X147940437Y-64155166D01*
X147943856Y-64178221D01*
X147945000Y-64201500D01*
X147945000Y-64776500D01*
X147943856Y-64799779D01*
X147940437Y-64822834D01*
X147934773Y-64845443D01*
X147926921Y-64867387D01*
X147916956Y-64888457D01*
X147904974Y-64908448D01*
X147891090Y-64927168D01*
X147875438Y-64944438D01*
X147858168Y-64960090D01*
X147839448Y-64973974D01*
X147819457Y-64985956D01*
X147798387Y-64995921D01*
X147776443Y-65003773D01*
X147753834Y-65009437D01*
X147730779Y-65012856D01*
X147707500Y-65014000D01*
X147232500Y-65014000D01*
X147209221Y-65012856D01*
X147186166Y-65009437D01*
X147163557Y-65003773D01*
X147141613Y-64995921D01*
X147120543Y-64985956D01*
X147100552Y-64973974D01*
X147081832Y-64960090D01*
X147064562Y-64944438D01*
X147048910Y-64927168D01*
X147035026Y-64908448D01*
X147023044Y-64888457D01*
X147013079Y-64867387D01*
X147005227Y-64845443D01*
X146999563Y-64822834D01*
X146996144Y-64799779D01*
X146995000Y-64776500D01*
X146995000Y-64201500D01*
X146996144Y-64178221D01*
X146999563Y-64155166D01*
X147005227Y-64132557D01*
X147013079Y-64110613D01*
X147023044Y-64089543D01*
X147035026Y-64069552D01*
X147048910Y-64050832D01*
X147064562Y-64033562D01*
X147081832Y-64017910D01*
X147100552Y-64004026D01*
X147120543Y-63992044D01*
X147141613Y-63982079D01*
X147163557Y-63974227D01*
X147186166Y-63968563D01*
X147209221Y-63965144D01*
X147232500Y-63964000D01*
X147707500Y-63964000D01*
X147730779Y-63965144D01*
X147730779Y-63965144D01*
G37*
D18*
X147470000Y-64489000D03*
D17*
G36*
X147730779Y-65715144D02*
G01*
X147753834Y-65718563D01*
X147776443Y-65724227D01*
X147798387Y-65732079D01*
X147819457Y-65742044D01*
X147839448Y-65754026D01*
X147858168Y-65767910D01*
X147875438Y-65783562D01*
X147891090Y-65800832D01*
X147904974Y-65819552D01*
X147916956Y-65839543D01*
X147926921Y-65860613D01*
X147934773Y-65882557D01*
X147940437Y-65905166D01*
X147943856Y-65928221D01*
X147945000Y-65951500D01*
X147945000Y-66526500D01*
X147943856Y-66549779D01*
X147940437Y-66572834D01*
X147934773Y-66595443D01*
X147926921Y-66617387D01*
X147916956Y-66638457D01*
X147904974Y-66658448D01*
X147891090Y-66677168D01*
X147875438Y-66694438D01*
X147858168Y-66710090D01*
X147839448Y-66723974D01*
X147819457Y-66735956D01*
X147798387Y-66745921D01*
X147776443Y-66753773D01*
X147753834Y-66759437D01*
X147730779Y-66762856D01*
X147707500Y-66764000D01*
X147232500Y-66764000D01*
X147209221Y-66762856D01*
X147186166Y-66759437D01*
X147163557Y-66753773D01*
X147141613Y-66745921D01*
X147120543Y-66735956D01*
X147100552Y-66723974D01*
X147081832Y-66710090D01*
X147064562Y-66694438D01*
X147048910Y-66677168D01*
X147035026Y-66658448D01*
X147023044Y-66638457D01*
X147013079Y-66617387D01*
X147005227Y-66595443D01*
X146999563Y-66572834D01*
X146996144Y-66549779D01*
X146995000Y-66526500D01*
X146995000Y-65951500D01*
X146996144Y-65928221D01*
X146999563Y-65905166D01*
X147005227Y-65882557D01*
X147013079Y-65860613D01*
X147023044Y-65839543D01*
X147035026Y-65819552D01*
X147048910Y-65800832D01*
X147064562Y-65783562D01*
X147081832Y-65767910D01*
X147100552Y-65754026D01*
X147120543Y-65742044D01*
X147141613Y-65732079D01*
X147163557Y-65724227D01*
X147186166Y-65718563D01*
X147209221Y-65715144D01*
X147232500Y-65714000D01*
X147707500Y-65714000D01*
X147730779Y-65715144D01*
X147730779Y-65715144D01*
G37*
D18*
X147470000Y-66239000D03*
D20*
X112903000Y-60120000D03*
X113553000Y-60120000D03*
X114203000Y-60120000D03*
X114853000Y-60120000D03*
X115503000Y-60120000D03*
X116153000Y-60120000D03*
X116803000Y-60120000D03*
X117453000Y-60120000D03*
X118103000Y-60120000D03*
X118753000Y-60120000D03*
X119403000Y-60120000D03*
X120053000Y-60120000D03*
X120703000Y-60120000D03*
X121353000Y-60120000D03*
X121353000Y-54420000D03*
X120703000Y-54420000D03*
X120053000Y-54420000D03*
X119403000Y-54420000D03*
X118753000Y-54420000D03*
X118103000Y-54420000D03*
X117453000Y-54420000D03*
X116803000Y-54420000D03*
X116153000Y-54420000D03*
X115503000Y-54420000D03*
X114853000Y-54420000D03*
X114203000Y-54420000D03*
X113553000Y-54420000D03*
X112903000Y-54420000D03*
D21*
X117525000Y-73360000D03*
X117525000Y-79100000D03*
X118795000Y-73360000D03*
X118795000Y-79100000D03*
X120065000Y-73360000D03*
X120065000Y-79100000D03*
X121335000Y-73360000D03*
X121335000Y-79100000D03*
D22*
X119430000Y-76230000D03*
D23*
X150020000Y-85750000D03*
D24*
X149070000Y-84250000D03*
X149720000Y-84250000D03*
X150320000Y-84250000D03*
X150970000Y-84250000D03*
X150970000Y-87250000D03*
X150320000Y-87250000D03*
X149720000Y-87250000D03*
X149070000Y-87250000D03*
D25*
X149970000Y-64114000D03*
X149970000Y-65064000D03*
X149970000Y-66014000D03*
X152170000Y-66014000D03*
X152170000Y-64114000D03*
D26*
X125280000Y-76230000D03*
X131180000Y-76230000D03*
D16*
X137160000Y-90144000D03*
X139960000Y-90144000D03*
D27*
X131365000Y-83460000D03*
X126365000Y-83460000D03*
D17*
G36*
X111390779Y-55831144D02*
G01*
X111413834Y-55834563D01*
X111436443Y-55840227D01*
X111458387Y-55848079D01*
X111479457Y-55858044D01*
X111499448Y-55870026D01*
X111518168Y-55883910D01*
X111535438Y-55899562D01*
X111551090Y-55916832D01*
X111564974Y-55935552D01*
X111576956Y-55955543D01*
X111586921Y-55976613D01*
X111594773Y-55998557D01*
X111600437Y-56021166D01*
X111603856Y-56044221D01*
X111605000Y-56067500D01*
X111605000Y-56642500D01*
X111603856Y-56665779D01*
X111600437Y-56688834D01*
X111594773Y-56711443D01*
X111586921Y-56733387D01*
X111576956Y-56754457D01*
X111564974Y-56774448D01*
X111551090Y-56793168D01*
X111535438Y-56810438D01*
X111518168Y-56826090D01*
X111499448Y-56839974D01*
X111479457Y-56851956D01*
X111458387Y-56861921D01*
X111436443Y-56869773D01*
X111413834Y-56875437D01*
X111390779Y-56878856D01*
X111367500Y-56880000D01*
X110892500Y-56880000D01*
X110869221Y-56878856D01*
X110846166Y-56875437D01*
X110823557Y-56869773D01*
X110801613Y-56861921D01*
X110780543Y-56851956D01*
X110760552Y-56839974D01*
X110741832Y-56826090D01*
X110724562Y-56810438D01*
X110708910Y-56793168D01*
X110695026Y-56774448D01*
X110683044Y-56754457D01*
X110673079Y-56733387D01*
X110665227Y-56711443D01*
X110659563Y-56688834D01*
X110656144Y-56665779D01*
X110655000Y-56642500D01*
X110655000Y-56067500D01*
X110656144Y-56044221D01*
X110659563Y-56021166D01*
X110665227Y-55998557D01*
X110673079Y-55976613D01*
X110683044Y-55955543D01*
X110695026Y-55935552D01*
X110708910Y-55916832D01*
X110724562Y-55899562D01*
X110741832Y-55883910D01*
X110760552Y-55870026D01*
X110780543Y-55858044D01*
X110801613Y-55848079D01*
X110823557Y-55840227D01*
X110846166Y-55834563D01*
X110869221Y-55831144D01*
X110892500Y-55830000D01*
X111367500Y-55830000D01*
X111390779Y-55831144D01*
X111390779Y-55831144D01*
G37*
D18*
X111130000Y-56355000D03*
D17*
G36*
X111390779Y-57581144D02*
G01*
X111413834Y-57584563D01*
X111436443Y-57590227D01*
X111458387Y-57598079D01*
X111479457Y-57608044D01*
X111499448Y-57620026D01*
X111518168Y-57633910D01*
X111535438Y-57649562D01*
X111551090Y-57666832D01*
X111564974Y-57685552D01*
X111576956Y-57705543D01*
X111586921Y-57726613D01*
X111594773Y-57748557D01*
X111600437Y-57771166D01*
X111603856Y-57794221D01*
X111605000Y-57817500D01*
X111605000Y-58392500D01*
X111603856Y-58415779D01*
X111600437Y-58438834D01*
X111594773Y-58461443D01*
X111586921Y-58483387D01*
X111576956Y-58504457D01*
X111564974Y-58524448D01*
X111551090Y-58543168D01*
X111535438Y-58560438D01*
X111518168Y-58576090D01*
X111499448Y-58589974D01*
X111479457Y-58601956D01*
X111458387Y-58611921D01*
X111436443Y-58619773D01*
X111413834Y-58625437D01*
X111390779Y-58628856D01*
X111367500Y-58630000D01*
X110892500Y-58630000D01*
X110869221Y-58628856D01*
X110846166Y-58625437D01*
X110823557Y-58619773D01*
X110801613Y-58611921D01*
X110780543Y-58601956D01*
X110760552Y-58589974D01*
X110741832Y-58576090D01*
X110724562Y-58560438D01*
X110708910Y-58543168D01*
X110695026Y-58524448D01*
X110683044Y-58504457D01*
X110673079Y-58483387D01*
X110665227Y-58461443D01*
X110659563Y-58438834D01*
X110656144Y-58415779D01*
X110655000Y-58392500D01*
X110655000Y-57817500D01*
X110656144Y-57794221D01*
X110659563Y-57771166D01*
X110665227Y-57748557D01*
X110673079Y-57726613D01*
X110683044Y-57705543D01*
X110695026Y-57685552D01*
X110708910Y-57666832D01*
X110724562Y-57649562D01*
X110741832Y-57633910D01*
X110760552Y-57620026D01*
X110780543Y-57608044D01*
X110801613Y-57598079D01*
X110823557Y-57590227D01*
X110846166Y-57584563D01*
X110869221Y-57581144D01*
X110892500Y-57580000D01*
X111367500Y-57580000D01*
X111390779Y-57581144D01*
X111390779Y-57581144D01*
G37*
D18*
X111130000Y-58105000D03*
D17*
G36*
X108835779Y-51480144D02*
G01*
X108858834Y-51483563D01*
X108881443Y-51489227D01*
X108903387Y-51497079D01*
X108924457Y-51507044D01*
X108944448Y-51519026D01*
X108963168Y-51532910D01*
X108980438Y-51548562D01*
X108996090Y-51565832D01*
X109009974Y-51584552D01*
X109021956Y-51604543D01*
X109031921Y-51625613D01*
X109039773Y-51647557D01*
X109045437Y-51670166D01*
X109048856Y-51693221D01*
X109050000Y-51716500D01*
X109050000Y-52191500D01*
X109048856Y-52214779D01*
X109045437Y-52237834D01*
X109039773Y-52260443D01*
X109031921Y-52282387D01*
X109021956Y-52303457D01*
X109009974Y-52323448D01*
X108996090Y-52342168D01*
X108980438Y-52359438D01*
X108963168Y-52375090D01*
X108944448Y-52388974D01*
X108924457Y-52400956D01*
X108903387Y-52410921D01*
X108881443Y-52418773D01*
X108858834Y-52424437D01*
X108835779Y-52427856D01*
X108812500Y-52429000D01*
X108237500Y-52429000D01*
X108214221Y-52427856D01*
X108191166Y-52424437D01*
X108168557Y-52418773D01*
X108146613Y-52410921D01*
X108125543Y-52400956D01*
X108105552Y-52388974D01*
X108086832Y-52375090D01*
X108069562Y-52359438D01*
X108053910Y-52342168D01*
X108040026Y-52323448D01*
X108028044Y-52303457D01*
X108018079Y-52282387D01*
X108010227Y-52260443D01*
X108004563Y-52237834D01*
X108001144Y-52214779D01*
X108000000Y-52191500D01*
X108000000Y-51716500D01*
X108001144Y-51693221D01*
X108004563Y-51670166D01*
X108010227Y-51647557D01*
X108018079Y-51625613D01*
X108028044Y-51604543D01*
X108040026Y-51584552D01*
X108053910Y-51565832D01*
X108069562Y-51548562D01*
X108086832Y-51532910D01*
X108105552Y-51519026D01*
X108125543Y-51507044D01*
X108146613Y-51497079D01*
X108168557Y-51489227D01*
X108191166Y-51483563D01*
X108214221Y-51480144D01*
X108237500Y-51479000D01*
X108812500Y-51479000D01*
X108835779Y-51480144D01*
X108835779Y-51480144D01*
G37*
D18*
X108525000Y-51954000D03*
D17*
G36*
X110585779Y-51480144D02*
G01*
X110608834Y-51483563D01*
X110631443Y-51489227D01*
X110653387Y-51497079D01*
X110674457Y-51507044D01*
X110694448Y-51519026D01*
X110713168Y-51532910D01*
X110730438Y-51548562D01*
X110746090Y-51565832D01*
X110759974Y-51584552D01*
X110771956Y-51604543D01*
X110781921Y-51625613D01*
X110789773Y-51647557D01*
X110795437Y-51670166D01*
X110798856Y-51693221D01*
X110800000Y-51716500D01*
X110800000Y-52191500D01*
X110798856Y-52214779D01*
X110795437Y-52237834D01*
X110789773Y-52260443D01*
X110781921Y-52282387D01*
X110771956Y-52303457D01*
X110759974Y-52323448D01*
X110746090Y-52342168D01*
X110730438Y-52359438D01*
X110713168Y-52375090D01*
X110694448Y-52388974D01*
X110674457Y-52400956D01*
X110653387Y-52410921D01*
X110631443Y-52418773D01*
X110608834Y-52424437D01*
X110585779Y-52427856D01*
X110562500Y-52429000D01*
X109987500Y-52429000D01*
X109964221Y-52427856D01*
X109941166Y-52424437D01*
X109918557Y-52418773D01*
X109896613Y-52410921D01*
X109875543Y-52400956D01*
X109855552Y-52388974D01*
X109836832Y-52375090D01*
X109819562Y-52359438D01*
X109803910Y-52342168D01*
X109790026Y-52323448D01*
X109778044Y-52303457D01*
X109768079Y-52282387D01*
X109760227Y-52260443D01*
X109754563Y-52237834D01*
X109751144Y-52214779D01*
X109750000Y-52191500D01*
X109750000Y-51716500D01*
X109751144Y-51693221D01*
X109754563Y-51670166D01*
X109760227Y-51647557D01*
X109768079Y-51625613D01*
X109778044Y-51604543D01*
X109790026Y-51584552D01*
X109803910Y-51565832D01*
X109819562Y-51548562D01*
X109836832Y-51532910D01*
X109855552Y-51519026D01*
X109875543Y-51507044D01*
X109896613Y-51497079D01*
X109918557Y-51489227D01*
X109941166Y-51483563D01*
X109964221Y-51480144D01*
X109987500Y-51479000D01*
X110562500Y-51479000D01*
X110585779Y-51480144D01*
X110585779Y-51480144D01*
G37*
D18*
X110275000Y-51954000D03*
D17*
G36*
X161011779Y-64590144D02*
G01*
X161034834Y-64593563D01*
X161057443Y-64599227D01*
X161079387Y-64607079D01*
X161100457Y-64617044D01*
X161120448Y-64629026D01*
X161139168Y-64642910D01*
X161156438Y-64658562D01*
X161172090Y-64675832D01*
X161185974Y-64694552D01*
X161197956Y-64714543D01*
X161207921Y-64735613D01*
X161215773Y-64757557D01*
X161221437Y-64780166D01*
X161224856Y-64803221D01*
X161226000Y-64826500D01*
X161226000Y-65301500D01*
X161224856Y-65324779D01*
X161221437Y-65347834D01*
X161215773Y-65370443D01*
X161207921Y-65392387D01*
X161197956Y-65413457D01*
X161185974Y-65433448D01*
X161172090Y-65452168D01*
X161156438Y-65469438D01*
X161139168Y-65485090D01*
X161120448Y-65498974D01*
X161100457Y-65510956D01*
X161079387Y-65520921D01*
X161057443Y-65528773D01*
X161034834Y-65534437D01*
X161011779Y-65537856D01*
X160988500Y-65539000D01*
X160413500Y-65539000D01*
X160390221Y-65537856D01*
X160367166Y-65534437D01*
X160344557Y-65528773D01*
X160322613Y-65520921D01*
X160301543Y-65510956D01*
X160281552Y-65498974D01*
X160262832Y-65485090D01*
X160245562Y-65469438D01*
X160229910Y-65452168D01*
X160216026Y-65433448D01*
X160204044Y-65413457D01*
X160194079Y-65392387D01*
X160186227Y-65370443D01*
X160180563Y-65347834D01*
X160177144Y-65324779D01*
X160176000Y-65301500D01*
X160176000Y-64826500D01*
X160177144Y-64803221D01*
X160180563Y-64780166D01*
X160186227Y-64757557D01*
X160194079Y-64735613D01*
X160204044Y-64714543D01*
X160216026Y-64694552D01*
X160229910Y-64675832D01*
X160245562Y-64658562D01*
X160262832Y-64642910D01*
X160281552Y-64629026D01*
X160301543Y-64617044D01*
X160322613Y-64607079D01*
X160344557Y-64599227D01*
X160367166Y-64593563D01*
X160390221Y-64590144D01*
X160413500Y-64589000D01*
X160988500Y-64589000D01*
X161011779Y-64590144D01*
X161011779Y-64590144D01*
G37*
D18*
X160701000Y-65064000D03*
D17*
G36*
X162761779Y-64590144D02*
G01*
X162784834Y-64593563D01*
X162807443Y-64599227D01*
X162829387Y-64607079D01*
X162850457Y-64617044D01*
X162870448Y-64629026D01*
X162889168Y-64642910D01*
X162906438Y-64658562D01*
X162922090Y-64675832D01*
X162935974Y-64694552D01*
X162947956Y-64714543D01*
X162957921Y-64735613D01*
X162965773Y-64757557D01*
X162971437Y-64780166D01*
X162974856Y-64803221D01*
X162976000Y-64826500D01*
X162976000Y-65301500D01*
X162974856Y-65324779D01*
X162971437Y-65347834D01*
X162965773Y-65370443D01*
X162957921Y-65392387D01*
X162947956Y-65413457D01*
X162935974Y-65433448D01*
X162922090Y-65452168D01*
X162906438Y-65469438D01*
X162889168Y-65485090D01*
X162870448Y-65498974D01*
X162850457Y-65510956D01*
X162829387Y-65520921D01*
X162807443Y-65528773D01*
X162784834Y-65534437D01*
X162761779Y-65537856D01*
X162738500Y-65539000D01*
X162163500Y-65539000D01*
X162140221Y-65537856D01*
X162117166Y-65534437D01*
X162094557Y-65528773D01*
X162072613Y-65520921D01*
X162051543Y-65510956D01*
X162031552Y-65498974D01*
X162012832Y-65485090D01*
X161995562Y-65469438D01*
X161979910Y-65452168D01*
X161966026Y-65433448D01*
X161954044Y-65413457D01*
X161944079Y-65392387D01*
X161936227Y-65370443D01*
X161930563Y-65347834D01*
X161927144Y-65324779D01*
X161926000Y-65301500D01*
X161926000Y-64826500D01*
X161927144Y-64803221D01*
X161930563Y-64780166D01*
X161936227Y-64757557D01*
X161944079Y-64735613D01*
X161954044Y-64714543D01*
X161966026Y-64694552D01*
X161979910Y-64675832D01*
X161995562Y-64658562D01*
X162012832Y-64642910D01*
X162031552Y-64629026D01*
X162051543Y-64617044D01*
X162072613Y-64607079D01*
X162094557Y-64599227D01*
X162117166Y-64593563D01*
X162140221Y-64590144D01*
X162163500Y-64589000D01*
X162738500Y-64589000D01*
X162761779Y-64590144D01*
X162761779Y-64590144D01*
G37*
D18*
X162451000Y-65064000D03*
D28*
X111370000Y-64694000D03*
D29*
X112170000Y-64694000D03*
D28*
X113770000Y-64694000D03*
D29*
X112970000Y-64694000D03*
D28*
X111370000Y-62894000D03*
D29*
X112970000Y-62894000D03*
X112170000Y-62894000D03*
D28*
X113770000Y-62894000D03*
M02*
