G04 #@! TF.GenerationSoftware,KiCad,Pcbnew,(5.1.4)-1*
G04 #@! TF.CreationDate,2019-11-27T00:46:48+11:00*
G04 #@! TF.ProjectId,dingo-hat,64696e67-6f2d-4686-9174-2e6b69636164,rev?*
G04 #@! TF.SameCoordinates,Original*
G04 #@! TF.FileFunction,Profile,NP*
%FSLAX46Y46*%
G04 Gerber Fmt 4.6, Leading zero omitted, Abs format (unit mm)*
G04 Created by KiCad (PCBNEW (5.1.4)-1) date 2019-11-27 00:46:48*
%MOMM*%
%LPD*%
G04 APERTURE LIST*
%ADD10C,0.200000*%
%ADD11C,0.100000*%
G04 APERTURE END LIST*
D10*
X146000000Y-96000000D02*
G75*
G02X144000000Y-96000000I-1000000J0D01*
G01*
X101000000Y-63500000D02*
G75*
G02X100000000Y-62500000I0J1000000D01*
G01*
X144000000Y-81000000D02*
X144000000Y-96000000D01*
X144000000Y-81000000D02*
G75*
G02X146000000Y-81000000I1000000J0D01*
G01*
X104000000Y-63500000D02*
G75*
G02X105000000Y-64500000I125000J-875000D01*
G01*
X146000000Y-81000000D02*
X146000000Y-96000000D01*
X105000000Y-79500000D02*
X105000000Y-64500000D01*
X101000000Y-63500000D02*
X104000000Y-63500000D01*
X101000000Y-80500000D02*
X104000000Y-80500000D01*
X100000000Y-46500000D02*
G75*
G02X103000000Y-43500000I3000000J0D01*
G01*
X162000000Y-43500000D02*
X103000000Y-43500000D01*
X100000000Y-81500000D02*
X100000000Y-96500000D01*
X100000000Y-81500000D02*
G75*
G02X101000000Y-80500000I1000000J0D01*
G01*
X162000000Y-43500000D02*
G75*
G02X165000000Y-46500000I0J-3000000D01*
G01*
X103000000Y-99500000D02*
X162000000Y-99500000D01*
X100000000Y-46500000D02*
X100000000Y-62500000D01*
X103000000Y-99500000D02*
G75*
G02X100000000Y-96500000I0J3000000D01*
G01*
X105000000Y-79500000D02*
G75*
G02X104000000Y-80500000I-875000J-125000D01*
G01*
X165000000Y-96500000D02*
X165000000Y-46500000D01*
X165000000Y-96500000D02*
G75*
G02X162000000Y-99500000I-3000000J0D01*
G01*
D11*
X158760000Y-82154000D02*
X155260000Y-82154000D01*
X158760000Y-81154000D02*
X158760000Y-82154000D01*
X155260000Y-81154000D02*
X158760000Y-81154000D01*
X155260000Y-82154000D02*
X155260000Y-81154000D01*
X153110000Y-77604000D02*
X153110000Y-74104000D01*
X154110000Y-77604000D02*
X153110000Y-77604000D01*
X154110000Y-74104000D02*
X154110000Y-77604000D01*
X153110000Y-74104000D02*
X154110000Y-74104000D01*
X161660000Y-79354000D02*
X158160000Y-79354000D01*
X161660000Y-78354000D02*
X161660000Y-79354000D01*
X158160000Y-78354000D02*
X161660000Y-78354000D01*
X158160000Y-79354000D02*
X158160000Y-78354000D01*
M02*
