M48
; DRILL file {KiCad (5.1.4)-1} date 8/12/2019 2:24:50 AM
; FORMAT={-:-/ absolute / metric / decimal}
; #@! TF.CreationDate,2019-12-08T02:24:50+11:00
; #@! TF.GenerationSoftware,Kicad,Pcbnew,(5.1.4)-1
; #@! TF.FileFunction,Plated,1,2,PTH
FMAT,2
METRIC
T1C0.300
T2C0.400
T3C0.762
T4C1.000
T5C1.100
T6C2.000
%
G90
G05
T1
X106.19Y-97.854
X108.39Y-58.64
X110.3Y-55.79
X110.388Y-51.868
X110.818Y-72.162
X112.31Y-51.82
X116.04Y-58.81
X117.052Y-83.071
X117.552Y-77.071
X117.552Y-79.071
X118.052Y-78.071
X118.052Y-80.071
X118.052Y-83.071
X118.552Y-77.071
X118.552Y-79.071
X119.052Y-78.071
X119.052Y-80.071
X119.052Y-83.071
X119.552Y-77.071
X119.552Y-79.071
X119.93Y-52.74
X120.052Y-78.071
X120.052Y-80.071
X120.052Y-83.071
X127.46Y-55.53
X131.91Y-59.57
X132.77Y-55.124
X133.75Y-59.57
X136.36Y-61.47
X138.803Y-69.073
X139.619Y-82.823
X139.943Y-75.263
X141.053Y-72.833
X141.063Y-71.203
X141.063Y-72.043
X141.973Y-72.833
X141.993Y-71.193
X141.993Y-72.063
X144.247Y-71.519
X144.31Y-51.444
X145.81Y-51.494
X146.97Y-78.14
X147.304Y-52.364
X147.828Y-93.726
X148.26Y-83.3
X151.384Y-93.472
X157.988Y-92.456
T2
X101.4Y-49.22
X105.76Y-53.85
X108.536Y-70.754
X109.31Y-79.81
X110.69Y-85.13
X121.85Y-60.74
X122.91Y-73.56
X124.09Y-52.5
X125.32Y-67.97
X126.086Y-71.054
X130.19Y-55.82
X130.85Y-74.47
X131.08Y-79.34
X134.0Y-57.67
X137.03Y-67.65
X137.54Y-60.0
X137.63Y-75.31
X137.64Y-56.67
X141.56Y-86.07
X142.49Y-80.01
X144.85Y-60.0
X145.47Y-64.96
X147.72Y-97.76
X152.42Y-73.02
X158.31Y-97.94
X163.1Y-73.92
T3
X151.82Y-56.394
X151.82Y-58.934
X151.82Y-61.464
X151.82Y-64.004
X130.01Y-51.61
X132.57Y-51.61
X135.09Y-51.61
X137.61Y-51.61
T4
X101.6Y-87.884
X104.14Y-87.884
X106.68Y-87.884
X108.39Y-45.75
X108.39Y-48.29
X110.93Y-45.75
X110.93Y-48.29
X113.47Y-45.75
X113.47Y-48.29
X116.01Y-45.75
X116.01Y-48.29
X118.55Y-45.75
X118.55Y-48.29
X121.09Y-45.75
X121.09Y-48.29
X123.63Y-45.75
X123.63Y-48.29
X126.17Y-45.75
X126.17Y-48.29
X128.71Y-45.75
X128.71Y-48.29
X131.25Y-45.75
X131.25Y-48.29
X133.79Y-45.75
X133.79Y-48.29
X136.33Y-45.75
X136.33Y-48.29
X138.87Y-45.75
X138.87Y-48.29
X141.41Y-45.75
X141.41Y-48.29
X143.95Y-45.75
X143.95Y-48.29
X146.49Y-45.75
X146.49Y-48.29
X149.03Y-45.75
X149.03Y-48.29
X151.57Y-45.75
X151.57Y-48.29
X154.11Y-45.75
X154.11Y-48.29
X156.65Y-45.75
X156.65Y-48.29
X125.158Y-65.016
X127.698Y-65.016
X130.238Y-65.016
X132.778Y-65.016
X135.318Y-65.016
X137.858Y-65.016
X140.398Y-65.016
X142.938Y-65.016
X101.6Y-82.804
X104.14Y-82.804
X106.68Y-82.804
X150.0Y-95.0
X152.5Y-95.0
X155.0Y-95.0
X101.6Y-90.424
X104.14Y-90.424
X106.68Y-90.424
X154.07Y-67.54
X156.61Y-67.54
X159.15Y-67.54
X161.69Y-67.54
X103.6Y-53.574
X103.6Y-56.114
X103.6Y-58.654
X101.6Y-85.344
X104.14Y-85.344
X106.68Y-85.344
T5
X157.09Y-51.68
X157.09Y-54.68
X162.09Y-51.68
X162.09Y-54.68
X157.09Y-57.88
X157.09Y-60.88
X162.09Y-57.88
X162.09Y-60.88
T6
X135.88Y-95.15
X140.96Y-95.15
X123.177Y-95.15
X128.257Y-95.15
X110.474Y-95.15
X115.554Y-95.15
T5
G00X155.35Y-80.65
M15
G01X155.35Y-77.85
M16
G05
G00X160.15Y-85.05
M15
G01X157.35Y-85.05
M16
G05
G00X163.05Y-82.25
M15
G01X160.25Y-82.25
M16
G05
T0
M30
