G04 #@! TF.GenerationSoftware,KiCad,Pcbnew,(5.1.4)-1*
G04 #@! TF.CreationDate,2019-11-04T18:42:31+11:00*
G04 #@! TF.ProjectId,dingo-hat,64696e67-6f2d-4686-9174-2e6b69636164,rev?*
G04 #@! TF.SameCoordinates,Original*
G04 #@! TF.FileFunction,Soldermask,Top*
G04 #@! TF.FilePolarity,Negative*
%FSLAX46Y46*%
G04 Gerber Fmt 4.6, Leading zero omitted, Abs format (unit mm)*
G04 Created by KiCad (PCBNEW (5.1.4)-1) date 2019-11-04 18:42:31*
%MOMM*%
%LPD*%
G04 APERTURE LIST*
%ADD10C,0.200000*%
%ADD11C,0.100000*%
G04 APERTURE END LIST*
D10*
X124530000Y-113300000D02*
G75*
G02X122530000Y-113300000I-1000000J0D01*
G01*
X79530000Y-80800000D02*
G75*
G02X78530000Y-79800000I0J1000000D01*
G01*
X122530000Y-98300000D02*
X122530000Y-113300000D01*
X122530000Y-98300000D02*
G75*
G02X124530000Y-98300000I1000000J0D01*
G01*
X82530000Y-80800000D02*
G75*
G02X83530000Y-81800000I125000J-875000D01*
G01*
X124530000Y-98300000D02*
X124530000Y-113300000D01*
X83530000Y-96800000D02*
X83530000Y-81800000D01*
X79530000Y-80800000D02*
X82530000Y-80800000D01*
X79530000Y-97800000D02*
X82530000Y-97800000D01*
X78530000Y-63800000D02*
G75*
G02X81530000Y-60800000I3000000J0D01*
G01*
X140530000Y-60800000D02*
X81530000Y-60800000D01*
X78530000Y-98800000D02*
X78530000Y-114300000D01*
X78530000Y-98800000D02*
G75*
G02X79530000Y-97800000I1000000J0D01*
G01*
X140530000Y-60800000D02*
G75*
G02X143530000Y-63800000I0J-3000000D01*
G01*
X81530000Y-117300000D02*
X140530000Y-117300000D01*
X78530000Y-63800000D02*
X78530000Y-79800000D01*
X81530000Y-117300000D02*
G75*
G02X78530000Y-114300000I0J3000000D01*
G01*
X83530000Y-96800000D02*
G75*
G02X82530000Y-97800000I-875000J-125000D01*
G01*
X143530000Y-114300000D02*
X143530000Y-63800000D01*
X143530000Y-114300000D02*
G75*
G02X140530000Y-117300000I-3000000J0D01*
G01*
D11*
G36*
X95400983Y-108959760D02*
G01*
X95587999Y-109016490D01*
X95760344Y-109108611D01*
X95911412Y-109232588D01*
X96035389Y-109383656D01*
X96127510Y-109556001D01*
X96184240Y-109743017D01*
X96204000Y-109943640D01*
X96204000Y-115956360D01*
X96184240Y-116156983D01*
X96127510Y-116343999D01*
X96035389Y-116516344D01*
X95911412Y-116667412D01*
X95760344Y-116791389D01*
X95587999Y-116883510D01*
X95400983Y-116940240D01*
X95200360Y-116960000D01*
X92967640Y-116960000D01*
X92767017Y-116940240D01*
X92580001Y-116883510D01*
X92407656Y-116791389D01*
X92256588Y-116667412D01*
X92132611Y-116516344D01*
X92040490Y-116343999D01*
X91983760Y-116156983D01*
X91964000Y-115956360D01*
X91964000Y-109943640D01*
X91983760Y-109743017D01*
X92040490Y-109556001D01*
X92132611Y-109383656D01*
X92256588Y-109232588D01*
X92407656Y-109108611D01*
X92580001Y-109016490D01*
X92767017Y-108959760D01*
X92967640Y-108940000D01*
X95200360Y-108940000D01*
X95400983Y-108959760D01*
X95400983Y-108959760D01*
G37*
G36*
X120806983Y-108959760D02*
G01*
X120993999Y-109016490D01*
X121166344Y-109108611D01*
X121317412Y-109232588D01*
X121441389Y-109383656D01*
X121533510Y-109556001D01*
X121590240Y-109743017D01*
X121610000Y-109943640D01*
X121610000Y-115956360D01*
X121590240Y-116156983D01*
X121533510Y-116343999D01*
X121441389Y-116516344D01*
X121317412Y-116667412D01*
X121166344Y-116791389D01*
X120993999Y-116883510D01*
X120806983Y-116940240D01*
X120606360Y-116960000D01*
X118373640Y-116960000D01*
X118173017Y-116940240D01*
X117986001Y-116883510D01*
X117813656Y-116791389D01*
X117662588Y-116667412D01*
X117538611Y-116516344D01*
X117446490Y-116343999D01*
X117389760Y-116156983D01*
X117370000Y-115956360D01*
X117370000Y-109943640D01*
X117389760Y-109743017D01*
X117446490Y-109556001D01*
X117538611Y-109383656D01*
X117662588Y-109232588D01*
X117813656Y-109108611D01*
X117986001Y-109016490D01*
X118173017Y-108959760D01*
X118373640Y-108940000D01*
X120606360Y-108940000D01*
X120806983Y-108959760D01*
X120806983Y-108959760D01*
G37*
G36*
X103023983Y-108959760D02*
G01*
X103210999Y-109016490D01*
X103383344Y-109108611D01*
X103534412Y-109232588D01*
X103658389Y-109383656D01*
X103750510Y-109556001D01*
X103807240Y-109743017D01*
X103827000Y-109943640D01*
X103827000Y-115956360D01*
X103807240Y-116156983D01*
X103750510Y-116343999D01*
X103658389Y-116516344D01*
X103534412Y-116667412D01*
X103383344Y-116791389D01*
X103210999Y-116883510D01*
X103023983Y-116940240D01*
X102823360Y-116960000D01*
X100590640Y-116960000D01*
X100390017Y-116940240D01*
X100203001Y-116883510D01*
X100030656Y-116791389D01*
X99879588Y-116667412D01*
X99755611Y-116516344D01*
X99663490Y-116343999D01*
X99606760Y-116156983D01*
X99587000Y-115956360D01*
X99587000Y-109943640D01*
X99606760Y-109743017D01*
X99663490Y-109556001D01*
X99755611Y-109383656D01*
X99879588Y-109232588D01*
X100030656Y-109108611D01*
X100203001Y-109016490D01*
X100390017Y-108959760D01*
X100590640Y-108940000D01*
X102823360Y-108940000D01*
X103023983Y-108959760D01*
X103023983Y-108959760D01*
G37*
G36*
X108103983Y-108959760D02*
G01*
X108290999Y-109016490D01*
X108463344Y-109108611D01*
X108614412Y-109232588D01*
X108738389Y-109383656D01*
X108830510Y-109556001D01*
X108887240Y-109743017D01*
X108907000Y-109943640D01*
X108907000Y-115956360D01*
X108887240Y-116156983D01*
X108830510Y-116343999D01*
X108738389Y-116516344D01*
X108614412Y-116667412D01*
X108463344Y-116791389D01*
X108290999Y-116883510D01*
X108103983Y-116940240D01*
X107903360Y-116960000D01*
X105670640Y-116960000D01*
X105470017Y-116940240D01*
X105283001Y-116883510D01*
X105110656Y-116791389D01*
X104959588Y-116667412D01*
X104835611Y-116516344D01*
X104743490Y-116343999D01*
X104686760Y-116156983D01*
X104667000Y-115956360D01*
X104667000Y-109943640D01*
X104686760Y-109743017D01*
X104743490Y-109556001D01*
X104835611Y-109383656D01*
X104959588Y-109232588D01*
X105110656Y-109108611D01*
X105283001Y-109016490D01*
X105470017Y-108959760D01*
X105670640Y-108940000D01*
X107903360Y-108940000D01*
X108103983Y-108959760D01*
X108103983Y-108959760D01*
G37*
G36*
X90320983Y-108959760D02*
G01*
X90507999Y-109016490D01*
X90680344Y-109108611D01*
X90831412Y-109232588D01*
X90955389Y-109383656D01*
X91047510Y-109556001D01*
X91104240Y-109743017D01*
X91124000Y-109943640D01*
X91124000Y-115956360D01*
X91104240Y-116156983D01*
X91047510Y-116343999D01*
X90955389Y-116516344D01*
X90831412Y-116667412D01*
X90680344Y-116791389D01*
X90507999Y-116883510D01*
X90320983Y-116940240D01*
X90120360Y-116960000D01*
X87887640Y-116960000D01*
X87687017Y-116940240D01*
X87500001Y-116883510D01*
X87327656Y-116791389D01*
X87176588Y-116667412D01*
X87052611Y-116516344D01*
X86960490Y-116343999D01*
X86903760Y-116156983D01*
X86884000Y-115956360D01*
X86884000Y-109943640D01*
X86903760Y-109743017D01*
X86960490Y-109556001D01*
X87052611Y-109383656D01*
X87176588Y-109232588D01*
X87327656Y-109108611D01*
X87500001Y-109016490D01*
X87687017Y-108959760D01*
X87887640Y-108940000D01*
X90120360Y-108940000D01*
X90320983Y-108959760D01*
X90320983Y-108959760D01*
G37*
G36*
X115726983Y-108959760D02*
G01*
X115913999Y-109016490D01*
X116086344Y-109108611D01*
X116237412Y-109232588D01*
X116361389Y-109383656D01*
X116453510Y-109556001D01*
X116510240Y-109743017D01*
X116530000Y-109943640D01*
X116530000Y-115956360D01*
X116510240Y-116156983D01*
X116453510Y-116343999D01*
X116361389Y-116516344D01*
X116237412Y-116667412D01*
X116086344Y-116791389D01*
X115913999Y-116883510D01*
X115726983Y-116940240D01*
X115526360Y-116960000D01*
X113293640Y-116960000D01*
X113093017Y-116940240D01*
X112906001Y-116883510D01*
X112733656Y-116791389D01*
X112582588Y-116667412D01*
X112458611Y-116516344D01*
X112366490Y-116343999D01*
X112309760Y-116156983D01*
X112290000Y-115956360D01*
X112290000Y-109943640D01*
X112309760Y-109743017D01*
X112366490Y-109556001D01*
X112458611Y-109383656D01*
X112582588Y-109232588D01*
X112733656Y-109108611D01*
X112906001Y-109016490D01*
X113093017Y-108959760D01*
X113293640Y-108940000D01*
X115526360Y-108940000D01*
X115726983Y-108959760D01*
X115726983Y-108959760D01*
G37*
G36*
X125140000Y-116819000D02*
G01*
X123940000Y-116819000D01*
X123940000Y-115669000D01*
X125140000Y-115669000D01*
X125140000Y-116819000D01*
X125140000Y-116819000D01*
G37*
G36*
X123640000Y-116819000D02*
G01*
X122440000Y-116819000D01*
X122440000Y-115669000D01*
X123640000Y-115669000D01*
X123640000Y-116819000D01*
X123640000Y-116819000D01*
G37*
G36*
X82391162Y-111554586D02*
G01*
X82565041Y-111589173D01*
X82892620Y-111724861D01*
X83187433Y-111921849D01*
X83438151Y-112172567D01*
X83635139Y-112467380D01*
X83770827Y-112794959D01*
X83770827Y-112794961D01*
X83838011Y-113132714D01*
X83840000Y-113142716D01*
X83840000Y-113497284D01*
X83770827Y-113845041D01*
X83635139Y-114172620D01*
X83438151Y-114467433D01*
X83187433Y-114718151D01*
X82892620Y-114915139D01*
X82565041Y-115050827D01*
X82391163Y-115085413D01*
X82217286Y-115120000D01*
X81862714Y-115120000D01*
X81688837Y-115085413D01*
X81514959Y-115050827D01*
X81187380Y-114915139D01*
X80892567Y-114718151D01*
X80641849Y-114467433D01*
X80444861Y-114172620D01*
X80309173Y-113845041D01*
X80240000Y-113497284D01*
X80240000Y-113142716D01*
X80241990Y-113132714D01*
X80309173Y-112794961D01*
X80309173Y-112794959D01*
X80444861Y-112467380D01*
X80641849Y-112172567D01*
X80892567Y-111921849D01*
X81187380Y-111724861D01*
X81514959Y-111589173D01*
X81688838Y-111554586D01*
X81862714Y-111520000D01*
X82217286Y-111520000D01*
X82391162Y-111554586D01*
X82391162Y-111554586D01*
G37*
G36*
X140381162Y-111544586D02*
G01*
X140555041Y-111579173D01*
X140882620Y-111714861D01*
X141177433Y-111911849D01*
X141428151Y-112162567D01*
X141625139Y-112457380D01*
X141760827Y-112784959D01*
X141763291Y-112797347D01*
X141830000Y-113132714D01*
X141830000Y-113487286D01*
X141813869Y-113568381D01*
X141760827Y-113835041D01*
X141625139Y-114162620D01*
X141428151Y-114457433D01*
X141177433Y-114708151D01*
X140882620Y-114905139D01*
X140555041Y-115040827D01*
X140408378Y-115070000D01*
X140207286Y-115110000D01*
X139852714Y-115110000D01*
X139651622Y-115070000D01*
X139504959Y-115040827D01*
X139177380Y-114905139D01*
X138882567Y-114708151D01*
X138631849Y-114457433D01*
X138434861Y-114162620D01*
X138299173Y-113835041D01*
X138246131Y-113568381D01*
X138230000Y-113487286D01*
X138230000Y-113132714D01*
X138296709Y-112797347D01*
X138299173Y-112784959D01*
X138434861Y-112457380D01*
X138631849Y-112162567D01*
X138882567Y-111911849D01*
X139177380Y-111714861D01*
X139504959Y-111579173D01*
X139678838Y-111544586D01*
X139852714Y-111510000D01*
X140207286Y-111510000D01*
X140381162Y-111544586D01*
X140381162Y-111544586D01*
G37*
G36*
X133559722Y-112695656D02*
G01*
X133663566Y-112716312D01*
X133720866Y-112740047D01*
X133859203Y-112797347D01*
X134035272Y-112914993D01*
X134185007Y-113064728D01*
X134302653Y-113240797D01*
X134383688Y-113436435D01*
X134425000Y-113644121D01*
X134425000Y-113855879D01*
X134383688Y-114063565D01*
X134302653Y-114259203D01*
X134185007Y-114435272D01*
X134035272Y-114585007D01*
X133859203Y-114702653D01*
X133720866Y-114759953D01*
X133663566Y-114783688D01*
X133559722Y-114804344D01*
X133455879Y-114825000D01*
X133244121Y-114825000D01*
X133140278Y-114804344D01*
X133036434Y-114783688D01*
X132979134Y-114759953D01*
X132840797Y-114702653D01*
X132664728Y-114585007D01*
X132514993Y-114435272D01*
X132397347Y-114259203D01*
X132316312Y-114063565D01*
X132275000Y-113855879D01*
X132275000Y-113644121D01*
X132316312Y-113436435D01*
X132397347Y-113240797D01*
X132514993Y-113064728D01*
X132664728Y-112914993D01*
X132840797Y-112797347D01*
X132979134Y-112740047D01*
X133036434Y-112716312D01*
X133140278Y-112695656D01*
X133244121Y-112675000D01*
X133455879Y-112675000D01*
X133559722Y-112695656D01*
X133559722Y-112695656D01*
G37*
G36*
X129425000Y-114825000D02*
G01*
X127275000Y-114825000D01*
X127275000Y-112675000D01*
X129425000Y-112675000D01*
X129425000Y-114825000D01*
X129425000Y-114825000D01*
G37*
G36*
X131059722Y-112695656D02*
G01*
X131163566Y-112716312D01*
X131220866Y-112740047D01*
X131359203Y-112797347D01*
X131535272Y-112914993D01*
X131685007Y-113064728D01*
X131802653Y-113240797D01*
X131883688Y-113436435D01*
X131925000Y-113644121D01*
X131925000Y-113855879D01*
X131883688Y-114063565D01*
X131802653Y-114259203D01*
X131685007Y-114435272D01*
X131535272Y-114585007D01*
X131359203Y-114702653D01*
X131220866Y-114759953D01*
X131163566Y-114783688D01*
X131059722Y-114804344D01*
X130955879Y-114825000D01*
X130744121Y-114825000D01*
X130640278Y-114804344D01*
X130536434Y-114783688D01*
X130479134Y-114759953D01*
X130340797Y-114702653D01*
X130164728Y-114585007D01*
X130014993Y-114435272D01*
X129897347Y-114259203D01*
X129816312Y-114063565D01*
X129775000Y-113855879D01*
X129775000Y-113644121D01*
X129816312Y-113436435D01*
X129897347Y-113240797D01*
X130014993Y-113064728D01*
X130164728Y-112914993D01*
X130340797Y-112797347D01*
X130479134Y-112740047D01*
X130536434Y-112716312D01*
X130640278Y-112695656D01*
X130744121Y-112675000D01*
X130955879Y-112675000D01*
X131059722Y-112695656D01*
X131059722Y-112695656D01*
G37*
G36*
X111640000Y-114594000D02*
G01*
X109540000Y-114594000D01*
X109540000Y-113294000D01*
X111640000Y-113294000D01*
X111640000Y-114594000D01*
X111640000Y-114594000D01*
G37*
G36*
X111240000Y-110269001D02*
G01*
X111242402Y-110293387D01*
X111249515Y-110316836D01*
X111261066Y-110338447D01*
X111276611Y-110357389D01*
X111295553Y-110372934D01*
X111317164Y-110384485D01*
X111340613Y-110391598D01*
X111364999Y-110394000D01*
X111640000Y-110394000D01*
X111640000Y-111694000D01*
X109540000Y-111694000D01*
X109540000Y-110394000D01*
X109815001Y-110394000D01*
X109839387Y-110391598D01*
X109862836Y-110384485D01*
X109884447Y-110372934D01*
X109903389Y-110357389D01*
X109918934Y-110338447D01*
X109930485Y-110316836D01*
X109937598Y-110293387D01*
X109940000Y-110269001D01*
X109940000Y-109294000D01*
X111240000Y-109294000D01*
X111240000Y-110269001D01*
X111240000Y-110269001D01*
G37*
G36*
X130990000Y-109644000D02*
G01*
X130090000Y-109644000D01*
X130090000Y-108344000D01*
X130990000Y-108344000D01*
X130990000Y-109644000D01*
X130990000Y-109644000D01*
G37*
G36*
X132490000Y-109644000D02*
G01*
X131590000Y-109644000D01*
X131590000Y-108344000D01*
X132490000Y-108344000D01*
X132490000Y-109644000D01*
X132490000Y-109644000D01*
G37*
G36*
X127850000Y-109600000D02*
G01*
X126950000Y-109600000D01*
X126950000Y-108300000D01*
X127850000Y-108300000D01*
X127850000Y-109600000D01*
X127850000Y-109600000D01*
G37*
G36*
X129350000Y-109600000D02*
G01*
X128450000Y-109600000D01*
X128450000Y-108300000D01*
X129350000Y-108300000D01*
X129350000Y-109600000D01*
X129350000Y-109600000D01*
G37*
G36*
X135750000Y-109525000D02*
G01*
X134550000Y-109525000D01*
X134550000Y-108375000D01*
X135750000Y-108375000D01*
X135750000Y-109525000D01*
X135750000Y-109525000D01*
G37*
G36*
X134250000Y-109525000D02*
G01*
X133050000Y-109525000D01*
X133050000Y-108375000D01*
X134250000Y-108375000D01*
X134250000Y-109525000D01*
X134250000Y-109525000D01*
G37*
G36*
X126500000Y-109350000D02*
G01*
X125200000Y-109350000D01*
X125200000Y-108450000D01*
X126500000Y-108450000D01*
X126500000Y-109350000D01*
X126500000Y-109350000D01*
G37*
G36*
X111240000Y-108694000D02*
G01*
X109940000Y-108694000D01*
X109940000Y-107794000D01*
X111240000Y-107794000D01*
X111240000Y-108694000D01*
X111240000Y-108694000D01*
G37*
G36*
X92590000Y-108594000D02*
G01*
X91290000Y-108594000D01*
X91290000Y-106494000D01*
X92590000Y-106494000D01*
X92590000Y-108594000D01*
X92590000Y-108594000D01*
G37*
G36*
X89690000Y-108594000D02*
G01*
X88390000Y-108594000D01*
X88390000Y-106494000D01*
X89690000Y-106494000D01*
X89690000Y-108594000D01*
X89690000Y-108594000D01*
G37*
G36*
X81285000Y-108420000D02*
G01*
X79185000Y-108420000D01*
X79185000Y-106320000D01*
X81285000Y-106320000D01*
X81285000Y-108420000D01*
X81285000Y-108420000D01*
G37*
G36*
X82903707Y-106327597D02*
G01*
X82980836Y-106335193D01*
X83178762Y-106395233D01*
X83178765Y-106395234D01*
X83361170Y-106492732D01*
X83521055Y-106623945D01*
X83652268Y-106783830D01*
X83749766Y-106966235D01*
X83749767Y-106966238D01*
X83809807Y-107164164D01*
X83830080Y-107370000D01*
X83809807Y-107575836D01*
X83749767Y-107773762D01*
X83749766Y-107773765D01*
X83652268Y-107956170D01*
X83521055Y-108116055D01*
X83361170Y-108247268D01*
X83178765Y-108344766D01*
X83178762Y-108344767D01*
X82980836Y-108404807D01*
X82903707Y-108412404D01*
X82826580Y-108420000D01*
X82723420Y-108420000D01*
X82646293Y-108412404D01*
X82569164Y-108404807D01*
X82371238Y-108344767D01*
X82371235Y-108344766D01*
X82188830Y-108247268D01*
X82028945Y-108116055D01*
X81897732Y-107956170D01*
X81800234Y-107773765D01*
X81800233Y-107773762D01*
X81740193Y-107575836D01*
X81719920Y-107370000D01*
X81740193Y-107164164D01*
X81800233Y-106966238D01*
X81800234Y-106966235D01*
X81897732Y-106783830D01*
X82028945Y-106623945D01*
X82188830Y-106492732D01*
X82371235Y-106395234D01*
X82371238Y-106395233D01*
X82569164Y-106335193D01*
X82646293Y-106327597D01*
X82723420Y-106320000D01*
X82826580Y-106320000D01*
X82903707Y-106327597D01*
X82903707Y-106327597D01*
G37*
G36*
X85443707Y-106327597D02*
G01*
X85520836Y-106335193D01*
X85718762Y-106395233D01*
X85718765Y-106395234D01*
X85901170Y-106492732D01*
X86061055Y-106623945D01*
X86192268Y-106783830D01*
X86289766Y-106966235D01*
X86289767Y-106966238D01*
X86349807Y-107164164D01*
X86370080Y-107370000D01*
X86349807Y-107575836D01*
X86289767Y-107773762D01*
X86289766Y-107773765D01*
X86192268Y-107956170D01*
X86061055Y-108116055D01*
X85901170Y-108247268D01*
X85718765Y-108344766D01*
X85718762Y-108344767D01*
X85520836Y-108404807D01*
X85443707Y-108412404D01*
X85366580Y-108420000D01*
X85263420Y-108420000D01*
X85186293Y-108412404D01*
X85109164Y-108404807D01*
X84911238Y-108344767D01*
X84911235Y-108344766D01*
X84728830Y-108247268D01*
X84568945Y-108116055D01*
X84437732Y-107956170D01*
X84340234Y-107773765D01*
X84340233Y-107773762D01*
X84280193Y-107575836D01*
X84259920Y-107370000D01*
X84280193Y-107164164D01*
X84340233Y-106966238D01*
X84340234Y-106966235D01*
X84437732Y-106783830D01*
X84568945Y-106623945D01*
X84728830Y-106492732D01*
X84911235Y-106395234D01*
X84911238Y-106395233D01*
X85109164Y-106335193D01*
X85186293Y-106327597D01*
X85263420Y-106320000D01*
X85366580Y-106320000D01*
X85443707Y-106327597D01*
X85443707Y-106327597D01*
G37*
G36*
X97290000Y-108294000D02*
G01*
X96390000Y-108294000D01*
X96390000Y-106994000D01*
X97290000Y-106994000D01*
X97290000Y-108294000D01*
X97290000Y-108294000D01*
G37*
G36*
X95790000Y-108294000D02*
G01*
X94890000Y-108294000D01*
X94890000Y-106994000D01*
X95790000Y-106994000D01*
X95790000Y-108294000D01*
X95790000Y-108294000D01*
G37*
G36*
X119240000Y-108194000D02*
G01*
X117740000Y-108194000D01*
X117740000Y-106694000D01*
X119240000Y-106694000D01*
X119240000Y-108194000D01*
X119240000Y-108194000D01*
G37*
G36*
X116440000Y-108194000D02*
G01*
X114940000Y-108194000D01*
X114940000Y-106694000D01*
X116440000Y-106694000D01*
X116440000Y-108194000D01*
X116440000Y-108194000D01*
G37*
G36*
X132490000Y-107900000D02*
G01*
X131590000Y-107900000D01*
X131590000Y-106600000D01*
X132490000Y-106600000D01*
X132490000Y-107900000D01*
X132490000Y-107900000D01*
G37*
G36*
X130990000Y-107900000D02*
G01*
X130090000Y-107900000D01*
X130090000Y-106600000D01*
X130990000Y-106600000D01*
X130990000Y-107900000D01*
X130990000Y-107900000D01*
G37*
G36*
X126500000Y-107850000D02*
G01*
X125200000Y-107850000D01*
X125200000Y-106950000D01*
X126500000Y-106950000D01*
X126500000Y-107850000D01*
X126500000Y-107850000D01*
G37*
G36*
X135800000Y-107825000D02*
G01*
X134600000Y-107825000D01*
X134600000Y-106675000D01*
X135800000Y-106675000D01*
X135800000Y-107825000D01*
X135800000Y-107825000D01*
G37*
G36*
X134300000Y-107825000D02*
G01*
X133100000Y-107825000D01*
X133100000Y-106675000D01*
X134300000Y-106675000D01*
X134300000Y-107825000D01*
X134300000Y-107825000D01*
G37*
G36*
X129600000Y-107825000D02*
G01*
X128400000Y-107825000D01*
X128400000Y-106675000D01*
X129600000Y-106675000D01*
X129600000Y-107825000D01*
X129600000Y-107825000D01*
G37*
G36*
X128100000Y-107825000D02*
G01*
X126900000Y-107825000D01*
X126900000Y-106675000D01*
X128100000Y-106675000D01*
X128100000Y-107825000D01*
X128100000Y-107825000D01*
G37*
G36*
X81285000Y-105880000D02*
G01*
X79185000Y-105880000D01*
X79185000Y-103780000D01*
X81285000Y-103780000D01*
X81285000Y-105880000D01*
X81285000Y-105880000D01*
G37*
G36*
X85443707Y-103787597D02*
G01*
X85520836Y-103795193D01*
X85718762Y-103855233D01*
X85718765Y-103855234D01*
X85901170Y-103952732D01*
X86061055Y-104083945D01*
X86192268Y-104243830D01*
X86289766Y-104426235D01*
X86289767Y-104426238D01*
X86349807Y-104624164D01*
X86370080Y-104830000D01*
X86349807Y-105035836D01*
X86339072Y-105071224D01*
X86289766Y-105233765D01*
X86192268Y-105416170D01*
X86061055Y-105576055D01*
X85901170Y-105707268D01*
X85718765Y-105804766D01*
X85718762Y-105804767D01*
X85520836Y-105864807D01*
X85443707Y-105872403D01*
X85366580Y-105880000D01*
X85263420Y-105880000D01*
X85186293Y-105872403D01*
X85109164Y-105864807D01*
X84911238Y-105804767D01*
X84911235Y-105804766D01*
X84728830Y-105707268D01*
X84568945Y-105576055D01*
X84437732Y-105416170D01*
X84340234Y-105233765D01*
X84290928Y-105071224D01*
X84280193Y-105035836D01*
X84259920Y-104830000D01*
X84280193Y-104624164D01*
X84340233Y-104426238D01*
X84340234Y-104426235D01*
X84437732Y-104243830D01*
X84568945Y-104083945D01*
X84728830Y-103952732D01*
X84911235Y-103855234D01*
X84911238Y-103855233D01*
X85109164Y-103795193D01*
X85186293Y-103787597D01*
X85263420Y-103780000D01*
X85366580Y-103780000D01*
X85443707Y-103787597D01*
X85443707Y-103787597D01*
G37*
G36*
X82903707Y-103787597D02*
G01*
X82980836Y-103795193D01*
X83178762Y-103855233D01*
X83178765Y-103855234D01*
X83361170Y-103952732D01*
X83521055Y-104083945D01*
X83652268Y-104243830D01*
X83749766Y-104426235D01*
X83749767Y-104426238D01*
X83809807Y-104624164D01*
X83830080Y-104830000D01*
X83809807Y-105035836D01*
X83799072Y-105071224D01*
X83749766Y-105233765D01*
X83652268Y-105416170D01*
X83521055Y-105576055D01*
X83361170Y-105707268D01*
X83178765Y-105804766D01*
X83178762Y-105804767D01*
X82980836Y-105864807D01*
X82903707Y-105872403D01*
X82826580Y-105880000D01*
X82723420Y-105880000D01*
X82646293Y-105872403D01*
X82569164Y-105864807D01*
X82371238Y-105804767D01*
X82371235Y-105804766D01*
X82188830Y-105707268D01*
X82028945Y-105576055D01*
X81897732Y-105416170D01*
X81800234Y-105233765D01*
X81750928Y-105071224D01*
X81740193Y-105035836D01*
X81719920Y-104830000D01*
X81740193Y-104624164D01*
X81800233Y-104426238D01*
X81800234Y-104426235D01*
X81897732Y-104243830D01*
X82028945Y-104083945D01*
X82188830Y-103952732D01*
X82371235Y-103855234D01*
X82371238Y-103855233D01*
X82569164Y-103795193D01*
X82646293Y-103787597D01*
X82723420Y-103780000D01*
X82826580Y-103780000D01*
X82903707Y-103787597D01*
X82903707Y-103787597D01*
G37*
G36*
X92640000Y-105794000D02*
G01*
X91140000Y-105794000D01*
X91140000Y-104294000D01*
X92640000Y-104294000D01*
X92640000Y-105794000D01*
X92640000Y-105794000D01*
G37*
G36*
X89840000Y-105794000D02*
G01*
X88340000Y-105794000D01*
X88340000Y-104294000D01*
X89840000Y-104294000D01*
X89840000Y-105794000D01*
X89840000Y-105794000D01*
G37*
G36*
X117546000Y-104236402D02*
G01*
X117548402Y-104260788D01*
X117555515Y-104284237D01*
X117567066Y-104305848D01*
X117582611Y-104324790D01*
X117601553Y-104340335D01*
X117623164Y-104351886D01*
X117646613Y-104358999D01*
X117670999Y-104361401D01*
X117695385Y-104358999D01*
X117729921Y-104346642D01*
X117846825Y-104284155D01*
X117978776Y-104244128D01*
X118081610Y-104234000D01*
X118150390Y-104234000D01*
X118253224Y-104244128D01*
X118385175Y-104284155D01*
X118506781Y-104349155D01*
X118613370Y-104436630D01*
X118700845Y-104543219D01*
X118765845Y-104664825D01*
X118805872Y-104796776D01*
X118819387Y-104934000D01*
X118805872Y-105071224D01*
X118765845Y-105203175D01*
X118700845Y-105324781D01*
X118613370Y-105431370D01*
X118506781Y-105518845D01*
X118385175Y-105583845D01*
X118253224Y-105623872D01*
X118150390Y-105634000D01*
X118081610Y-105634000D01*
X117978776Y-105623872D01*
X117846825Y-105583845D01*
X117729920Y-105521358D01*
X117707284Y-105511981D01*
X117683251Y-105507201D01*
X117658747Y-105507201D01*
X117634714Y-105511981D01*
X117612075Y-105521359D01*
X117591700Y-105534973D01*
X117574373Y-105552300D01*
X117560760Y-105572674D01*
X117551382Y-105595313D01*
X117546000Y-105631598D01*
X117546000Y-105634000D01*
X116146000Y-105634000D01*
X116146000Y-104234000D01*
X117546000Y-104234000D01*
X117546000Y-104236402D01*
X117546000Y-104236402D01*
G37*
G36*
X129850000Y-101900001D02*
G01*
X129852402Y-101924387D01*
X129859515Y-101947836D01*
X129871066Y-101969447D01*
X129886611Y-101988389D01*
X129905553Y-102003934D01*
X129927164Y-102015485D01*
X129950000Y-102022412D01*
X129950000Y-104077588D01*
X129927164Y-104084515D01*
X129905553Y-104096066D01*
X129886611Y-104111611D01*
X129871066Y-104130553D01*
X129859515Y-104152164D01*
X129852402Y-104175613D01*
X129850000Y-104199999D01*
X129850000Y-105150000D01*
X127250000Y-105150000D01*
X127250000Y-104199999D01*
X127247598Y-104175613D01*
X127240485Y-104152164D01*
X127228934Y-104130553D01*
X127213389Y-104111611D01*
X127194447Y-104096066D01*
X127172836Y-104084515D01*
X127150000Y-104077588D01*
X127150000Y-102022412D01*
X127172836Y-102015485D01*
X127194447Y-102003934D01*
X127213389Y-101988389D01*
X127228934Y-101969447D01*
X127240485Y-101947836D01*
X127247598Y-101924387D01*
X127250000Y-101900001D01*
X127250000Y-100950000D01*
X129850000Y-100950000D01*
X129850000Y-101900001D01*
X129850000Y-101900001D01*
G37*
G36*
X136124249Y-98564981D02*
G01*
X136397575Y-98647894D01*
X136397578Y-98647895D01*
X136649472Y-98782535D01*
X136870266Y-98963734D01*
X137051465Y-99184527D01*
X137186105Y-99436421D01*
X137186105Y-99436422D01*
X137186106Y-99436424D01*
X137269019Y-99709750D01*
X137290000Y-99922775D01*
X137290000Y-102565225D01*
X137269019Y-102778250D01*
X137190814Y-103036055D01*
X137186105Y-103051579D01*
X137051465Y-103303473D01*
X136870266Y-103524266D01*
X136649473Y-103705465D01*
X136397579Y-103840105D01*
X136397576Y-103840106D01*
X136124250Y-103923019D01*
X135840000Y-103951015D01*
X135555751Y-103923019D01*
X135282425Y-103840106D01*
X135282422Y-103840105D01*
X135030528Y-103705465D01*
X134809735Y-103524266D01*
X134628536Y-103303473D01*
X134493896Y-103051579D01*
X134489187Y-103036055D01*
X134410982Y-102778250D01*
X134390001Y-102565225D01*
X134390000Y-99922776D01*
X134410981Y-99709751D01*
X134493894Y-99436425D01*
X134493895Y-99436422D01*
X134628535Y-99184528D01*
X134809734Y-98963734D01*
X135030527Y-98782535D01*
X135282421Y-98647895D01*
X135282424Y-98647894D01*
X135555750Y-98564981D01*
X135840000Y-98536985D01*
X136124249Y-98564981D01*
X136124249Y-98564981D01*
G37*
G36*
X142099744Y-98813172D02*
G01*
X142349508Y-98888937D01*
X142579691Y-99011972D01*
X142781450Y-99177550D01*
X142947028Y-99379308D01*
X143070063Y-99609491D01*
X143145828Y-99859255D01*
X143165000Y-100053909D01*
X143165000Y-102434091D01*
X143145828Y-102628745D01*
X143070063Y-102878509D01*
X142947028Y-103108692D01*
X142781450Y-103310450D01*
X142579692Y-103476028D01*
X142349509Y-103599063D01*
X142099745Y-103674828D01*
X141840000Y-103700411D01*
X141580256Y-103674828D01*
X141330492Y-103599063D01*
X141100309Y-103476028D01*
X140898551Y-103310450D01*
X140732973Y-103108692D01*
X140609938Y-102878509D01*
X140534173Y-102628745D01*
X140515001Y-102434091D01*
X140515000Y-100053910D01*
X140534172Y-99859256D01*
X140609937Y-99609492D01*
X140732972Y-99379309D01*
X140898550Y-99177550D01*
X141100308Y-99011972D01*
X141330491Y-98888937D01*
X141580255Y-98813172D01*
X141840000Y-98787589D01*
X142099744Y-98813172D01*
X142099744Y-98813172D01*
G37*
G36*
X121515000Y-103544000D02*
G01*
X120365000Y-103544000D01*
X120365000Y-102344000D01*
X121515000Y-102344000D01*
X121515000Y-103544000D01*
X121515000Y-103544000D01*
G37*
G36*
X114690000Y-103444000D02*
G01*
X113390000Y-103444000D01*
X113390000Y-102544000D01*
X114690000Y-102544000D01*
X114690000Y-103444000D01*
X114690000Y-103444000D01*
G37*
G36*
X116455515Y-101056836D02*
G01*
X116467066Y-101078447D01*
X116482611Y-101097389D01*
X116501553Y-101112934D01*
X116523164Y-101124485D01*
X116546613Y-101131598D01*
X116570999Y-101134000D01*
X118121001Y-101134000D01*
X118145387Y-101131598D01*
X118168836Y-101124485D01*
X118190447Y-101112934D01*
X118209389Y-101097389D01*
X118224934Y-101078447D01*
X118236485Y-101056836D01*
X118243412Y-101034000D01*
X119146000Y-101034000D01*
X119146000Y-103384000D01*
X118220377Y-103384000D01*
X118209389Y-103370611D01*
X118190447Y-103355066D01*
X118168836Y-103343515D01*
X118145387Y-103336402D01*
X118121001Y-103334000D01*
X116570999Y-103334000D01*
X116546613Y-103336402D01*
X116523164Y-103343515D01*
X116501553Y-103355066D01*
X116482611Y-103370611D01*
X116471623Y-103384000D01*
X115546000Y-103384000D01*
X115546000Y-101034000D01*
X116448588Y-101034000D01*
X116455515Y-101056836D01*
X116455515Y-101056836D01*
G37*
G36*
X81275000Y-103340000D02*
G01*
X79175000Y-103340000D01*
X79175000Y-101240000D01*
X81275000Y-101240000D01*
X81275000Y-103340000D01*
X81275000Y-103340000D01*
G37*
G36*
X82893707Y-101247597D02*
G01*
X82970836Y-101255193D01*
X83168762Y-101315233D01*
X83168765Y-101315234D01*
X83351170Y-101412732D01*
X83511055Y-101543945D01*
X83642268Y-101703830D01*
X83739766Y-101886235D01*
X83739767Y-101886238D01*
X83799807Y-102084164D01*
X83820080Y-102290000D01*
X83799807Y-102495836D01*
X83739767Y-102693762D01*
X83739766Y-102693765D01*
X83642268Y-102876170D01*
X83511055Y-103036055D01*
X83351170Y-103167268D01*
X83168765Y-103264766D01*
X83168762Y-103264767D01*
X82970836Y-103324807D01*
X82893707Y-103332404D01*
X82816580Y-103340000D01*
X82713420Y-103340000D01*
X82636293Y-103332403D01*
X82559164Y-103324807D01*
X82361238Y-103264767D01*
X82361235Y-103264766D01*
X82178830Y-103167268D01*
X82018945Y-103036055D01*
X81887732Y-102876170D01*
X81790234Y-102693765D01*
X81790233Y-102693762D01*
X81730193Y-102495836D01*
X81709920Y-102290000D01*
X81730193Y-102084164D01*
X81790233Y-101886238D01*
X81790234Y-101886235D01*
X81887732Y-101703830D01*
X82018945Y-101543945D01*
X82178830Y-101412732D01*
X82361235Y-101315234D01*
X82361238Y-101315233D01*
X82559164Y-101255193D01*
X82636293Y-101247597D01*
X82713420Y-101240000D01*
X82816580Y-101240000D01*
X82893707Y-101247597D01*
X82893707Y-101247597D01*
G37*
G36*
X85433707Y-101247597D02*
G01*
X85510836Y-101255193D01*
X85708762Y-101315233D01*
X85708765Y-101315234D01*
X85891170Y-101412732D01*
X86051055Y-101543945D01*
X86182268Y-101703830D01*
X86279766Y-101886235D01*
X86279767Y-101886238D01*
X86339807Y-102084164D01*
X86360080Y-102290000D01*
X86339807Y-102495836D01*
X86279767Y-102693762D01*
X86279766Y-102693765D01*
X86182268Y-102876170D01*
X86051055Y-103036055D01*
X85891170Y-103167268D01*
X85708765Y-103264766D01*
X85708762Y-103264767D01*
X85510836Y-103324807D01*
X85433707Y-103332404D01*
X85356580Y-103340000D01*
X85253420Y-103340000D01*
X85176293Y-103332403D01*
X85099164Y-103324807D01*
X84901238Y-103264767D01*
X84901235Y-103264766D01*
X84718830Y-103167268D01*
X84558945Y-103036055D01*
X84427732Y-102876170D01*
X84330234Y-102693765D01*
X84330233Y-102693762D01*
X84270193Y-102495836D01*
X84249920Y-102290000D01*
X84270193Y-102084164D01*
X84330233Y-101886238D01*
X84330234Y-101886235D01*
X84427732Y-101703830D01*
X84558945Y-101543945D01*
X84718830Y-101412732D01*
X84901235Y-101315234D01*
X84901238Y-101315233D01*
X85099164Y-101255193D01*
X85176293Y-101247597D01*
X85253420Y-101240000D01*
X85356580Y-101240000D01*
X85433707Y-101247597D01*
X85433707Y-101247597D01*
G37*
G36*
X97530000Y-103071000D02*
G01*
X96130000Y-103071000D01*
X96130000Y-101071000D01*
X97530000Y-101071000D01*
X97530000Y-103071000D01*
X97530000Y-103071000D01*
G37*
G36*
X102356000Y-103071000D02*
G01*
X100956000Y-103071000D01*
X100956000Y-101071000D01*
X102356000Y-101071000D01*
X102356000Y-103071000D01*
X102356000Y-103071000D01*
G37*
G36*
X99356000Y-103071000D02*
G01*
X97956000Y-103071000D01*
X97956000Y-101071000D01*
X99356000Y-101071000D01*
X99356000Y-103071000D01*
X99356000Y-103071000D01*
G37*
G36*
X94530000Y-103071000D02*
G01*
X93130000Y-103071000D01*
X93130000Y-101071000D01*
X94530000Y-101071000D01*
X94530000Y-103071000D01*
X94530000Y-103071000D01*
G37*
G36*
X121515000Y-102044000D02*
G01*
X120365000Y-102044000D01*
X120365000Y-100844000D01*
X121515000Y-100844000D01*
X121515000Y-102044000D01*
X121515000Y-102044000D01*
G37*
G36*
X114690000Y-101944000D02*
G01*
X113390000Y-101944000D01*
X113390000Y-101044000D01*
X114690000Y-101044000D01*
X114690000Y-101944000D01*
X114690000Y-101944000D01*
G37*
G36*
X106695000Y-101760000D02*
G01*
X103095000Y-101760000D01*
X103095000Y-99760000D01*
X106695000Y-99760000D01*
X106695000Y-101760000D01*
X106695000Y-101760000D01*
G37*
G36*
X111695000Y-101760000D02*
G01*
X108095000Y-101760000D01*
X108095000Y-99760000D01*
X111695000Y-99760000D01*
X111695000Y-101760000D01*
X111695000Y-101760000D01*
G37*
G36*
X82893707Y-98707597D02*
G01*
X82970836Y-98715193D01*
X83168762Y-98775233D01*
X83168765Y-98775234D01*
X83351170Y-98872732D01*
X83511055Y-99003945D01*
X83642268Y-99163830D01*
X83739766Y-99346235D01*
X83739767Y-99346238D01*
X83799807Y-99544164D01*
X83820080Y-99750000D01*
X83799807Y-99955836D01*
X83770055Y-100053915D01*
X83739766Y-100153765D01*
X83642268Y-100336170D01*
X83511055Y-100496055D01*
X83351170Y-100627268D01*
X83168765Y-100724766D01*
X83168762Y-100724767D01*
X82970836Y-100784807D01*
X82893707Y-100792404D01*
X82816580Y-100800000D01*
X82713420Y-100800000D01*
X82636293Y-100792404D01*
X82559164Y-100784807D01*
X82361238Y-100724767D01*
X82361235Y-100724766D01*
X82178830Y-100627268D01*
X82018945Y-100496055D01*
X81887732Y-100336170D01*
X81790234Y-100153765D01*
X81759945Y-100053915D01*
X81730193Y-99955836D01*
X81709920Y-99750000D01*
X81730193Y-99544164D01*
X81790233Y-99346238D01*
X81790234Y-99346235D01*
X81887732Y-99163830D01*
X82018945Y-99003945D01*
X82178830Y-98872732D01*
X82361235Y-98775234D01*
X82361238Y-98775233D01*
X82559164Y-98715193D01*
X82636293Y-98707596D01*
X82713420Y-98700000D01*
X82816580Y-98700000D01*
X82893707Y-98707597D01*
X82893707Y-98707597D01*
G37*
G36*
X85433707Y-98707597D02*
G01*
X85510836Y-98715193D01*
X85708762Y-98775233D01*
X85708765Y-98775234D01*
X85891170Y-98872732D01*
X86051055Y-99003945D01*
X86182268Y-99163830D01*
X86279766Y-99346235D01*
X86279767Y-99346238D01*
X86339807Y-99544164D01*
X86360080Y-99750000D01*
X86339807Y-99955836D01*
X86310055Y-100053915D01*
X86279766Y-100153765D01*
X86182268Y-100336170D01*
X86051055Y-100496055D01*
X85891170Y-100627268D01*
X85708765Y-100724766D01*
X85708762Y-100724767D01*
X85510836Y-100784807D01*
X85433707Y-100792404D01*
X85356580Y-100800000D01*
X85253420Y-100800000D01*
X85176293Y-100792404D01*
X85099164Y-100784807D01*
X84901238Y-100724767D01*
X84901235Y-100724766D01*
X84718830Y-100627268D01*
X84558945Y-100496055D01*
X84427732Y-100336170D01*
X84330234Y-100153765D01*
X84299945Y-100053915D01*
X84270193Y-99955836D01*
X84249920Y-99750000D01*
X84270193Y-99544164D01*
X84330233Y-99346238D01*
X84330234Y-99346235D01*
X84427732Y-99163830D01*
X84558945Y-99003945D01*
X84718830Y-98872732D01*
X84901235Y-98775234D01*
X84901238Y-98775233D01*
X85099164Y-98715193D01*
X85176293Y-98707596D01*
X85253420Y-98700000D01*
X85356580Y-98700000D01*
X85433707Y-98707597D01*
X85433707Y-98707597D01*
G37*
G36*
X81275000Y-100800000D02*
G01*
X79175000Y-100800000D01*
X79175000Y-98700000D01*
X81275000Y-98700000D01*
X81275000Y-100800000D01*
X81275000Y-100800000D01*
G37*
G36*
X133700000Y-100450000D02*
G01*
X132400000Y-100450000D01*
X132400000Y-99550000D01*
X133700000Y-99550000D01*
X133700000Y-100450000D01*
X133700000Y-100450000D01*
G37*
G36*
X99244000Y-100360000D02*
G01*
X98044000Y-100360000D01*
X98044000Y-99210000D01*
X99244000Y-99210000D01*
X99244000Y-100360000D01*
X99244000Y-100360000D01*
G37*
G36*
X95942000Y-100360000D02*
G01*
X94742000Y-100360000D01*
X94742000Y-99210000D01*
X95942000Y-99210000D01*
X95942000Y-100360000D01*
X95942000Y-100360000D01*
G37*
G36*
X100744000Y-100360000D02*
G01*
X99544000Y-100360000D01*
X99544000Y-99210000D01*
X100744000Y-99210000D01*
X100744000Y-100360000D01*
X100744000Y-100360000D01*
G37*
G36*
X97442000Y-100360000D02*
G01*
X96242000Y-100360000D01*
X96242000Y-99210000D01*
X97442000Y-99210000D01*
X97442000Y-100360000D01*
X97442000Y-100360000D01*
G37*
G36*
X130300000Y-100225000D02*
G01*
X129100000Y-100225000D01*
X129100000Y-99075000D01*
X130300000Y-99075000D01*
X130300000Y-100225000D01*
X130300000Y-100225000D01*
G37*
G36*
X128800000Y-100225000D02*
G01*
X127600000Y-100225000D01*
X127600000Y-99075000D01*
X128800000Y-99075000D01*
X128800000Y-100225000D01*
X128800000Y-100225000D01*
G37*
G36*
X133700000Y-98950000D02*
G01*
X132400000Y-98950000D01*
X132400000Y-98050000D01*
X133700000Y-98050000D01*
X133700000Y-98950000D01*
X133700000Y-98950000D01*
G37*
G36*
X117220000Y-98524000D02*
G01*
X116320000Y-98524000D01*
X116320000Y-97224000D01*
X117220000Y-97224000D01*
X117220000Y-98524000D01*
X117220000Y-98524000D01*
G37*
G36*
X118720000Y-98524000D02*
G01*
X117820000Y-98524000D01*
X117820000Y-97224000D01*
X118720000Y-97224000D01*
X118720000Y-98524000D01*
X118720000Y-98524000D01*
G37*
G36*
X100465000Y-91960000D02*
G01*
X100134999Y-91960000D01*
X100110613Y-91962402D01*
X100087164Y-91969515D01*
X100065553Y-91981066D01*
X100046611Y-91996611D01*
X100031066Y-92015553D01*
X100019515Y-92037164D01*
X100012402Y-92060613D01*
X100010000Y-92084999D01*
X100010000Y-94975001D01*
X100012402Y-94999387D01*
X100019515Y-95022836D01*
X100031066Y-95044447D01*
X100046611Y-95063389D01*
X100065553Y-95078934D01*
X100087164Y-95090485D01*
X100110613Y-95097598D01*
X100134999Y-95100000D01*
X100465000Y-95100000D01*
X100465000Y-97700000D01*
X95455000Y-97700000D01*
X95455000Y-95100000D01*
X95785001Y-95100000D01*
X95809387Y-95097598D01*
X95832836Y-95090485D01*
X95854447Y-95078934D01*
X95873389Y-95063389D01*
X95888934Y-95044447D01*
X95900485Y-95022836D01*
X95907598Y-94999387D01*
X95910000Y-94975001D01*
X95910000Y-92084999D01*
X95907598Y-92060613D01*
X95900485Y-92037164D01*
X95888934Y-92015553D01*
X95873389Y-91996611D01*
X95854447Y-91981066D01*
X95832836Y-91969515D01*
X95809387Y-91962402D01*
X95785001Y-91960000D01*
X95455000Y-91960000D01*
X95455000Y-89360000D01*
X100465000Y-89360000D01*
X100465000Y-91960000D01*
X100465000Y-91960000D01*
G37*
G36*
X94381000Y-96944000D02*
G01*
X93231000Y-96944000D01*
X93231000Y-95744000D01*
X94381000Y-95744000D01*
X94381000Y-96944000D01*
X94381000Y-96944000D01*
G37*
G36*
X112940000Y-96819000D02*
G01*
X111740000Y-96819000D01*
X111740000Y-95669000D01*
X112940000Y-95669000D01*
X112940000Y-96819000D01*
X112940000Y-96819000D01*
G37*
G36*
X114440000Y-96819000D02*
G01*
X113240000Y-96819000D01*
X113240000Y-95669000D01*
X114440000Y-95669000D01*
X114440000Y-96819000D01*
X114440000Y-96819000D01*
G37*
G36*
X134200000Y-96614000D02*
G01*
X133000000Y-96614000D01*
X133000000Y-95414000D01*
X134200000Y-95414000D01*
X134200000Y-96614000D01*
X134200000Y-96614000D01*
G37*
G36*
X132600000Y-96614000D02*
G01*
X131400000Y-96614000D01*
X131400000Y-95414000D01*
X132600000Y-95414000D01*
X132600000Y-96614000D01*
X132600000Y-96614000D01*
G37*
G36*
X124665000Y-96594000D02*
G01*
X123515000Y-96594000D01*
X123515000Y-95394000D01*
X124665000Y-95394000D01*
X124665000Y-96594000D01*
X124665000Y-96594000D01*
G37*
G36*
X129143200Y-92873400D02*
G01*
X129145602Y-92897786D01*
X129152715Y-92921235D01*
X129164266Y-92942846D01*
X129179811Y-92961788D01*
X129198753Y-92977333D01*
X129220364Y-92988884D01*
X129243813Y-92995997D01*
X129268199Y-92998399D01*
X130070300Y-92998399D01*
X130070300Y-95601601D01*
X129268199Y-95601601D01*
X129243813Y-95604003D01*
X129220364Y-95611116D01*
X129198753Y-95622667D01*
X129179811Y-95638212D01*
X129164266Y-95657154D01*
X129152715Y-95678765D01*
X129145602Y-95702214D01*
X129143200Y-95726600D01*
X129143200Y-95744600D01*
X126990600Y-95744600D01*
X126990600Y-95726600D01*
X126988198Y-95702214D01*
X126981085Y-95678765D01*
X126969534Y-95657154D01*
X126953989Y-95638212D01*
X126935047Y-95622667D01*
X126913436Y-95611116D01*
X126889987Y-95604003D01*
X126865601Y-95601601D01*
X126063500Y-95601601D01*
X126063500Y-92998399D01*
X126865601Y-92998399D01*
X126889987Y-92995997D01*
X126913436Y-92988884D01*
X126935047Y-92977333D01*
X126953989Y-92961788D01*
X126969534Y-92942846D01*
X126981085Y-92921235D01*
X126988198Y-92897786D01*
X126990600Y-92873400D01*
X126990600Y-92855400D01*
X129143200Y-92855400D01*
X129143200Y-92873400D01*
X129143200Y-92873400D01*
G37*
G36*
X105010000Y-95480000D02*
G01*
X102610000Y-95480000D01*
X102610000Y-91580000D01*
X105010000Y-91580000D01*
X105010000Y-95480000D01*
X105010000Y-95480000D01*
G37*
G36*
X110910000Y-95480000D02*
G01*
X108510000Y-95480000D01*
X108510000Y-91580000D01*
X110910000Y-91580000D01*
X110910000Y-95480000D01*
X110910000Y-95480000D01*
G37*
G36*
X94381000Y-95444000D02*
G01*
X93231000Y-95444000D01*
X93231000Y-94244000D01*
X94381000Y-94244000D01*
X94381000Y-95444000D01*
X94381000Y-95444000D01*
G37*
G36*
X142344530Y-93814877D02*
G01*
X142396010Y-93830493D01*
X142443445Y-93855848D01*
X142485027Y-93889973D01*
X142519152Y-93931555D01*
X142544507Y-93978990D01*
X142560123Y-94030470D01*
X142566000Y-94090140D01*
X142566000Y-94877860D01*
X142560123Y-94937530D01*
X142544507Y-94989010D01*
X142519152Y-95036445D01*
X142485027Y-95078027D01*
X142443445Y-95112152D01*
X142396010Y-95137507D01*
X142344530Y-95153123D01*
X142284860Y-95159000D01*
X141397140Y-95159000D01*
X141337470Y-95153123D01*
X141285990Y-95137507D01*
X141238555Y-95112152D01*
X141196973Y-95078027D01*
X141162848Y-95036445D01*
X141137493Y-94989010D01*
X141121877Y-94937530D01*
X141116000Y-94877860D01*
X141116000Y-94090140D01*
X141121877Y-94030470D01*
X141137493Y-93978990D01*
X141162848Y-93931555D01*
X141196973Y-93889973D01*
X141238555Y-93855848D01*
X141285990Y-93830493D01*
X141337470Y-93814877D01*
X141397140Y-93809000D01*
X142284860Y-93809000D01*
X142344530Y-93814877D01*
X142344530Y-93814877D01*
G37*
G36*
X140594530Y-93814877D02*
G01*
X140646010Y-93830493D01*
X140693445Y-93855848D01*
X140735027Y-93889973D01*
X140769152Y-93931555D01*
X140794507Y-93978990D01*
X140810123Y-94030470D01*
X140816000Y-94090140D01*
X140816000Y-94877860D01*
X140810123Y-94937530D01*
X140794507Y-94989010D01*
X140769152Y-95036445D01*
X140735027Y-95078027D01*
X140693445Y-95112152D01*
X140646010Y-95137507D01*
X140594530Y-95153123D01*
X140534860Y-95159000D01*
X139647140Y-95159000D01*
X139587470Y-95153123D01*
X139535990Y-95137507D01*
X139488555Y-95112152D01*
X139446973Y-95078027D01*
X139412848Y-95036445D01*
X139387493Y-94989010D01*
X139371877Y-94937530D01*
X139366000Y-94877860D01*
X139366000Y-94090140D01*
X139371877Y-94030470D01*
X139387493Y-93978990D01*
X139412848Y-93931555D01*
X139446973Y-93889973D01*
X139488555Y-93855848D01*
X139535990Y-93830493D01*
X139587470Y-93814877D01*
X139647140Y-93809000D01*
X140534860Y-93809000D01*
X140594530Y-93814877D01*
X140594530Y-93814877D01*
G37*
G36*
X138476000Y-95114000D02*
G01*
X137576000Y-95114000D01*
X137576000Y-93814000D01*
X138476000Y-93814000D01*
X138476000Y-95114000D01*
X138476000Y-95114000D01*
G37*
G36*
X136976000Y-95114000D02*
G01*
X136076000Y-95114000D01*
X136076000Y-93814000D01*
X136976000Y-93814000D01*
X136976000Y-95114000D01*
X136976000Y-95114000D01*
G37*
G36*
X124665000Y-95094000D02*
G01*
X123515000Y-95094000D01*
X123515000Y-93894000D01*
X124665000Y-93894000D01*
X124665000Y-95094000D01*
X124665000Y-95094000D01*
G37*
G36*
X132500000Y-94344000D02*
G01*
X131600000Y-94344000D01*
X131600000Y-93044000D01*
X132500000Y-93044000D01*
X132500000Y-94344000D01*
X132500000Y-94344000D01*
G37*
G36*
X134000000Y-94344000D02*
G01*
X133100000Y-94344000D01*
X133100000Y-93044000D01*
X134000000Y-93044000D01*
X134000000Y-94344000D01*
X134000000Y-94344000D01*
G37*
G36*
X140968707Y-90001596D02*
G01*
X141045836Y-90009193D01*
X141243762Y-90069233D01*
X141243765Y-90069234D01*
X141426170Y-90166732D01*
X141586055Y-90297945D01*
X141717268Y-90457830D01*
X141814766Y-90640235D01*
X141814767Y-90640238D01*
X141874807Y-90838164D01*
X141895080Y-91044000D01*
X141874807Y-91249836D01*
X141814767Y-91447762D01*
X141814766Y-91447765D01*
X141717268Y-91630170D01*
X141586055Y-91790055D01*
X141426170Y-91921268D01*
X141243765Y-92018766D01*
X141243762Y-92018767D01*
X141045836Y-92078807D01*
X140982967Y-92084999D01*
X140891580Y-92094000D01*
X140788420Y-92094000D01*
X140697033Y-92084999D01*
X140634164Y-92078807D01*
X140436238Y-92018767D01*
X140436235Y-92018766D01*
X140253830Y-91921268D01*
X140093945Y-91790055D01*
X139962732Y-91630170D01*
X139865234Y-91447765D01*
X139865233Y-91447762D01*
X139805193Y-91249836D01*
X139784920Y-91044000D01*
X139805193Y-90838164D01*
X139865233Y-90640238D01*
X139865234Y-90640235D01*
X139962732Y-90457830D01*
X140093945Y-90297945D01*
X140253830Y-90166732D01*
X140436235Y-90069234D01*
X140436238Y-90069233D01*
X140634164Y-90009193D01*
X140711293Y-90001596D01*
X140788420Y-89994000D01*
X140891580Y-89994000D01*
X140968707Y-90001596D01*
X140968707Y-90001596D01*
G37*
G36*
X132450000Y-91984000D02*
G01*
X131550000Y-91984000D01*
X131550000Y-90684000D01*
X132450000Y-90684000D01*
X132450000Y-91984000D01*
X132450000Y-91984000D01*
G37*
G36*
X133950000Y-91984000D02*
G01*
X133050000Y-91984000D01*
X133050000Y-90684000D01*
X133950000Y-90684000D01*
X133950000Y-91984000D01*
X133950000Y-91984000D01*
G37*
G36*
X129330000Y-91919000D02*
G01*
X128130000Y-91919000D01*
X128130000Y-90769000D01*
X129330000Y-90769000D01*
X129330000Y-91919000D01*
X129330000Y-91919000D01*
G37*
G36*
X127830000Y-91919000D02*
G01*
X126630000Y-91919000D01*
X126630000Y-90769000D01*
X127830000Y-90769000D01*
X127830000Y-91919000D01*
X127830000Y-91919000D01*
G37*
G36*
X115790000Y-91744000D02*
G01*
X114390000Y-91744000D01*
X114390000Y-89744000D01*
X115790000Y-89744000D01*
X115790000Y-91744000D01*
X115790000Y-91744000D01*
G37*
G36*
X112790000Y-91744000D02*
G01*
X111390000Y-91744000D01*
X111390000Y-89744000D01*
X112790000Y-89744000D01*
X112790000Y-91744000D01*
X112790000Y-91744000D01*
G37*
G36*
X93450000Y-88900257D02*
G01*
X93449515Y-88901164D01*
X93442402Y-88924613D01*
X93440000Y-88948999D01*
X93440000Y-90364000D01*
X92540000Y-90364000D01*
X92540000Y-88987743D01*
X92540485Y-88986836D01*
X92547598Y-88963387D01*
X92550000Y-88939001D01*
X92550000Y-87524000D01*
X93450000Y-87524000D01*
X93450000Y-88900257D01*
X93450000Y-88900257D01*
G37*
G36*
X91950000Y-88900257D02*
G01*
X91949515Y-88901164D01*
X91942402Y-88924613D01*
X91940000Y-88948999D01*
X91940000Y-90364000D01*
X91040000Y-90364000D01*
X91040000Y-88987743D01*
X91040485Y-88986836D01*
X91047598Y-88963387D01*
X91050000Y-88939001D01*
X91050000Y-87524000D01*
X91950000Y-87524000D01*
X91950000Y-88900257D01*
X91950000Y-88900257D01*
G37*
G36*
X140968707Y-87461596D02*
G01*
X141045836Y-87469193D01*
X141226511Y-87524000D01*
X141243765Y-87529234D01*
X141426170Y-87626732D01*
X141586055Y-87757945D01*
X141717268Y-87917830D01*
X141814766Y-88100235D01*
X141814767Y-88100238D01*
X141874807Y-88298164D01*
X141895080Y-88504000D01*
X141874807Y-88709836D01*
X141816768Y-88901164D01*
X141814766Y-88907765D01*
X141717268Y-89090170D01*
X141586055Y-89250055D01*
X141426170Y-89381268D01*
X141243765Y-89478766D01*
X141243762Y-89478767D01*
X141045836Y-89538807D01*
X140968707Y-89546404D01*
X140891580Y-89554000D01*
X140788420Y-89554000D01*
X140711293Y-89546404D01*
X140634164Y-89538807D01*
X140436238Y-89478767D01*
X140436235Y-89478766D01*
X140253830Y-89381268D01*
X140093945Y-89250055D01*
X139962732Y-89090170D01*
X139865234Y-88907765D01*
X139863232Y-88901164D01*
X139805193Y-88709836D01*
X139784920Y-88504000D01*
X139805193Y-88298164D01*
X139865233Y-88100238D01*
X139865234Y-88100235D01*
X139962732Y-87917830D01*
X140093945Y-87757945D01*
X140253830Y-87626732D01*
X140436235Y-87529234D01*
X140453489Y-87524000D01*
X140634164Y-87469193D01*
X140711293Y-87461596D01*
X140788420Y-87454000D01*
X140891580Y-87454000D01*
X140968707Y-87461596D01*
X140968707Y-87461596D01*
G37*
G36*
X129040000Y-88994000D02*
G01*
X128140000Y-88994000D01*
X128140000Y-87694000D01*
X129040000Y-87694000D01*
X129040000Y-88994000D01*
X129040000Y-88994000D01*
G37*
G36*
X127540000Y-88994000D02*
G01*
X125540000Y-88994000D01*
X125540000Y-87694000D01*
X127540000Y-87694000D01*
X127540000Y-88994000D01*
X127540000Y-88994000D01*
G37*
G36*
X124940000Y-88994000D02*
G01*
X124040000Y-88994000D01*
X124040000Y-87694000D01*
X124940000Y-87694000D01*
X124940000Y-88994000D01*
X124940000Y-88994000D01*
G37*
G36*
X104287000Y-88689000D02*
G01*
X103137000Y-88689000D01*
X103137000Y-87489000D01*
X104287000Y-87489000D01*
X104287000Y-88689000D01*
X104287000Y-88689000D01*
G37*
G36*
X102838000Y-88539000D02*
G01*
X101538000Y-88539000D01*
X101538000Y-87639000D01*
X102838000Y-87639000D01*
X102838000Y-88539000D01*
X102838000Y-88539000D01*
G37*
G36*
X99165000Y-88344000D02*
G01*
X98015000Y-88344000D01*
X98015000Y-87144000D01*
X99165000Y-87144000D01*
X99165000Y-88344000D01*
X99165000Y-88344000D01*
G37*
G36*
X104287000Y-87189000D02*
G01*
X103137000Y-87189000D01*
X103137000Y-85989000D01*
X104287000Y-85989000D01*
X104287000Y-87189000D01*
X104287000Y-87189000D01*
G37*
G36*
X125115000Y-87094000D02*
G01*
X123965000Y-87094000D01*
X123965000Y-85894000D01*
X125115000Y-85894000D01*
X125115000Y-87094000D01*
X125115000Y-87094000D01*
G37*
G36*
X102838000Y-87039000D02*
G01*
X101538000Y-87039000D01*
X101538000Y-86139000D01*
X102838000Y-86139000D01*
X102838000Y-87039000D01*
X102838000Y-87039000D01*
G37*
G36*
X140968707Y-84921597D02*
G01*
X141045836Y-84929193D01*
X141243762Y-84989233D01*
X141243765Y-84989234D01*
X141426170Y-85086732D01*
X141586055Y-85217945D01*
X141717268Y-85377830D01*
X141814766Y-85560235D01*
X141814767Y-85560238D01*
X141874807Y-85758164D01*
X141895080Y-85964000D01*
X141874807Y-86169836D01*
X141814767Y-86367762D01*
X141814766Y-86367765D01*
X141717268Y-86550170D01*
X141586055Y-86710055D01*
X141426170Y-86841268D01*
X141243765Y-86938766D01*
X141243762Y-86938767D01*
X141045836Y-86998807D01*
X140968707Y-87006404D01*
X140891580Y-87014000D01*
X140788420Y-87014000D01*
X140711293Y-87006404D01*
X140634164Y-86998807D01*
X140436238Y-86938767D01*
X140436235Y-86938766D01*
X140253830Y-86841268D01*
X140093945Y-86710055D01*
X139962732Y-86550170D01*
X139865234Y-86367765D01*
X139865233Y-86367762D01*
X139805193Y-86169836D01*
X139784920Y-85964000D01*
X139805193Y-85758164D01*
X139865233Y-85560238D01*
X139865234Y-85560235D01*
X139962732Y-85377830D01*
X140093945Y-85217945D01*
X140253830Y-85086732D01*
X140436235Y-84989234D01*
X140436238Y-84989233D01*
X140634164Y-84929193D01*
X140711293Y-84921597D01*
X140788420Y-84914000D01*
X140891580Y-84914000D01*
X140968707Y-84921597D01*
X140968707Y-84921597D01*
G37*
G36*
X129970000Y-86919000D02*
G01*
X128510000Y-86919000D01*
X128510000Y-85869000D01*
X129970000Y-85869000D01*
X129970000Y-86919000D01*
X129970000Y-86919000D01*
G37*
G36*
X127770000Y-86919000D02*
G01*
X126310000Y-86919000D01*
X126310000Y-83969000D01*
X127770000Y-83969000D01*
X127770000Y-86919000D01*
X127770000Y-86919000D01*
G37*
G36*
X99165000Y-86844000D02*
G01*
X98015000Y-86844000D01*
X98015000Y-85644000D01*
X99165000Y-85644000D01*
X99165000Y-86844000D01*
X99165000Y-86844000D01*
G37*
G36*
X95220000Y-86194000D02*
G01*
X94320000Y-86194000D01*
X94320000Y-84894000D01*
X95220000Y-84894000D01*
X95220000Y-86194000D01*
X95220000Y-86194000D01*
G37*
G36*
X96720000Y-86194000D02*
G01*
X95820000Y-86194000D01*
X95820000Y-84894000D01*
X96720000Y-84894000D01*
X96720000Y-86194000D01*
X96720000Y-86194000D01*
G37*
G36*
X92290000Y-86119000D02*
G01*
X91090000Y-86119000D01*
X91090000Y-84969000D01*
X92290000Y-84969000D01*
X92290000Y-86119000D01*
X92290000Y-86119000D01*
G37*
G36*
X93790000Y-86119000D02*
G01*
X92590000Y-86119000D01*
X92590000Y-84969000D01*
X93790000Y-84969000D01*
X93790000Y-86119000D01*
X93790000Y-86119000D01*
G37*
G36*
X125115000Y-85594000D02*
G01*
X123965000Y-85594000D01*
X123965000Y-84394000D01*
X125115000Y-84394000D01*
X125115000Y-85594000D01*
X125115000Y-85594000D01*
G37*
G36*
X129970000Y-85019000D02*
G01*
X128510000Y-85019000D01*
X128510000Y-83969000D01*
X129970000Y-83969000D01*
X129970000Y-85019000D01*
X129970000Y-85019000D01*
G37*
G36*
X141890000Y-84474000D02*
G01*
X139790000Y-84474000D01*
X139790000Y-82374000D01*
X141890000Y-82374000D01*
X141890000Y-84474000D01*
X141890000Y-84474000D01*
G37*
G36*
X136290000Y-83150000D02*
G01*
X135390000Y-83150000D01*
X135390000Y-81850000D01*
X136290000Y-81850000D01*
X136290000Y-83150000D01*
X136290000Y-83150000D01*
G37*
G36*
X137790000Y-83150000D02*
G01*
X136890000Y-83150000D01*
X136890000Y-81850000D01*
X137790000Y-81850000D01*
X137790000Y-83150000D01*
X137790000Y-83150000D01*
G37*
G36*
X89490000Y-82244000D02*
G01*
X86190000Y-82244000D01*
X86190000Y-81044000D01*
X89490000Y-81044000D01*
X89490000Y-82244000D01*
X89490000Y-82244000D01*
G37*
G36*
X89490000Y-80444000D02*
G01*
X86190000Y-80444000D01*
X86190000Y-79244000D01*
X89490000Y-79244000D01*
X89490000Y-80444000D01*
X89490000Y-80444000D01*
G37*
G36*
X81247205Y-78452893D02*
G01*
X81284908Y-78464330D01*
X81299078Y-78471904D01*
X81321717Y-78481280D01*
X81345751Y-78486060D01*
X81370255Y-78486060D01*
X81394288Y-78481279D01*
X81416922Y-78471904D01*
X81431092Y-78464330D01*
X81468795Y-78452893D01*
X81514140Y-78448427D01*
X82001860Y-78448427D01*
X82020197Y-78450233D01*
X82032449Y-78450835D01*
X82050869Y-78450835D01*
X82102358Y-78455906D01*
X82186439Y-78472631D01*
X82202403Y-78477474D01*
X82230048Y-78485859D01*
X82230054Y-78485861D01*
X82235960Y-78487653D01*
X82315158Y-78520457D01*
X82360791Y-78544848D01*
X82432076Y-78592479D01*
X82436847Y-78596395D01*
X82436849Y-78596396D01*
X82467303Y-78621389D01*
X82467309Y-78621395D01*
X82472072Y-78625304D01*
X82532696Y-78685928D01*
X82536605Y-78690691D01*
X82536611Y-78690697D01*
X82561604Y-78721151D01*
X82565521Y-78725924D01*
X82613152Y-78797209D01*
X82637543Y-78842842D01*
X82670347Y-78922040D01*
X82672139Y-78927946D01*
X82672141Y-78927952D01*
X82672814Y-78930171D01*
X82685369Y-78971561D01*
X82702094Y-79055642D01*
X82707165Y-79107131D01*
X82707165Y-79125551D01*
X82707767Y-79137803D01*
X82709573Y-79156140D01*
X82709573Y-79643860D01*
X82707767Y-79662197D01*
X82707165Y-79674449D01*
X82707165Y-79692869D01*
X82702094Y-79744358D01*
X82685369Y-79828439D01*
X82683576Y-79834349D01*
X82672141Y-79872048D01*
X82672139Y-79872054D01*
X82670347Y-79877960D01*
X82637543Y-79957158D01*
X82613152Y-80002791D01*
X82565521Y-80074076D01*
X82561605Y-80078847D01*
X82561604Y-80078849D01*
X82536611Y-80109303D01*
X82536605Y-80109309D01*
X82532696Y-80114072D01*
X82472072Y-80174696D01*
X82467309Y-80178605D01*
X82467303Y-80178611D01*
X82436849Y-80203604D01*
X82432076Y-80207521D01*
X82360791Y-80255152D01*
X82315158Y-80279543D01*
X82235960Y-80312347D01*
X82230054Y-80314139D01*
X82230048Y-80314141D01*
X82202403Y-80322526D01*
X82186439Y-80327369D01*
X82102358Y-80344094D01*
X82050869Y-80349165D01*
X82032449Y-80349165D01*
X82020197Y-80349767D01*
X82001860Y-80351573D01*
X81514140Y-80351573D01*
X81468795Y-80347107D01*
X81431092Y-80335670D01*
X81416922Y-80328096D01*
X81394283Y-80318720D01*
X81370249Y-80313940D01*
X81345745Y-80313940D01*
X81321712Y-80318721D01*
X81299078Y-80328096D01*
X81284908Y-80335670D01*
X81247205Y-80347107D01*
X81201860Y-80351573D01*
X80714140Y-80351573D01*
X80695803Y-80349767D01*
X80683551Y-80349165D01*
X80665131Y-80349165D01*
X80613642Y-80344094D01*
X80529561Y-80327369D01*
X80513597Y-80322526D01*
X80485952Y-80314141D01*
X80485946Y-80314139D01*
X80480040Y-80312347D01*
X80400842Y-80279543D01*
X80355209Y-80255152D01*
X80283924Y-80207521D01*
X80279151Y-80203604D01*
X80248697Y-80178611D01*
X80248691Y-80178605D01*
X80243928Y-80174696D01*
X80183304Y-80114072D01*
X80179395Y-80109309D01*
X80179389Y-80109303D01*
X80154396Y-80078849D01*
X80154395Y-80078847D01*
X80150479Y-80074076D01*
X80102848Y-80002791D01*
X80078457Y-79957158D01*
X80045653Y-79877960D01*
X80043861Y-79872054D01*
X80043859Y-79872048D01*
X80032424Y-79834349D01*
X80030631Y-79828439D01*
X80013906Y-79744358D01*
X80008835Y-79692869D01*
X80008835Y-79674449D01*
X80008233Y-79662197D01*
X80006427Y-79643860D01*
X80006427Y-79156140D01*
X80008233Y-79137803D01*
X80008835Y-79125551D01*
X80008835Y-79107131D01*
X80013906Y-79055642D01*
X80030631Y-78971561D01*
X80043186Y-78930171D01*
X80043859Y-78927952D01*
X80043861Y-78927946D01*
X80045653Y-78922040D01*
X80078457Y-78842842D01*
X80102848Y-78797209D01*
X80150479Y-78725924D01*
X80154396Y-78721151D01*
X80179389Y-78690697D01*
X80179395Y-78690691D01*
X80183304Y-78685928D01*
X80243928Y-78625304D01*
X80248691Y-78621395D01*
X80248697Y-78621389D01*
X80279151Y-78596396D01*
X80279153Y-78596395D01*
X80283924Y-78592479D01*
X80355209Y-78544848D01*
X80400842Y-78520457D01*
X80480040Y-78487653D01*
X80485946Y-78485861D01*
X80485952Y-78485859D01*
X80513597Y-78477474D01*
X80529561Y-78472631D01*
X80613642Y-78455906D01*
X80665131Y-78450835D01*
X80683551Y-78450835D01*
X80695803Y-78450233D01*
X80714140Y-78448427D01*
X81201860Y-78448427D01*
X81247205Y-78452893D01*
X81247205Y-78452893D01*
G37*
G36*
X85558000Y-80050000D02*
G01*
X84658000Y-80050000D01*
X84658000Y-78750000D01*
X85558000Y-78750000D01*
X85558000Y-80050000D01*
X85558000Y-80050000D01*
G37*
G36*
X84058000Y-80050000D02*
G01*
X83158000Y-80050000D01*
X83158000Y-78750000D01*
X84058000Y-78750000D01*
X84058000Y-80050000D01*
X84058000Y-80050000D01*
G37*
G36*
X136290000Y-79900000D02*
G01*
X135390000Y-79900000D01*
X135390000Y-78600000D01*
X136290000Y-78600000D01*
X136290000Y-79900000D01*
X136290000Y-79900000D01*
G37*
G36*
X137790000Y-79900000D02*
G01*
X136890000Y-79900000D01*
X136890000Y-78600000D01*
X137790000Y-78600000D01*
X137790000Y-79900000D01*
X137790000Y-79900000D01*
G37*
G36*
X129748707Y-77301596D02*
G01*
X129825836Y-77309193D01*
X130023762Y-77369233D01*
X130023765Y-77369234D01*
X130206170Y-77466732D01*
X130366055Y-77597945D01*
X130497268Y-77757830D01*
X130594766Y-77940235D01*
X130594767Y-77940238D01*
X130654807Y-78138164D01*
X130675080Y-78344000D01*
X130654807Y-78549836D01*
X130613524Y-78685928D01*
X130594766Y-78747765D01*
X130497268Y-78930170D01*
X130366055Y-79090055D01*
X130206170Y-79221268D01*
X130023765Y-79318766D01*
X130023762Y-79318767D01*
X129825836Y-79378807D01*
X129748707Y-79386403D01*
X129671580Y-79394000D01*
X129568420Y-79394000D01*
X129491293Y-79386403D01*
X129414164Y-79378807D01*
X129216238Y-79318767D01*
X129216235Y-79318766D01*
X129033830Y-79221268D01*
X128873945Y-79090055D01*
X128742732Y-78930170D01*
X128645234Y-78747765D01*
X128626476Y-78685928D01*
X128585193Y-78549836D01*
X128564920Y-78344000D01*
X128585193Y-78138164D01*
X128645233Y-77940238D01*
X128645234Y-77940235D01*
X128742732Y-77757830D01*
X128873945Y-77597945D01*
X129033830Y-77466732D01*
X129216235Y-77369234D01*
X129216238Y-77369233D01*
X129414164Y-77309193D01*
X129491293Y-77301596D01*
X129568420Y-77294000D01*
X129671580Y-77294000D01*
X129748707Y-77301596D01*
X129748707Y-77301596D01*
G37*
G36*
X133210000Y-79394000D02*
G01*
X131110000Y-79394000D01*
X131110000Y-77294000D01*
X133210000Y-77294000D01*
X133210000Y-79394000D01*
X133210000Y-79394000D01*
G37*
G36*
X127208707Y-77301596D02*
G01*
X127285836Y-77309193D01*
X127483762Y-77369233D01*
X127483765Y-77369234D01*
X127666170Y-77466732D01*
X127826055Y-77597945D01*
X127957268Y-77757830D01*
X128054766Y-77940235D01*
X128054767Y-77940238D01*
X128114807Y-78138164D01*
X128135080Y-78344000D01*
X128114807Y-78549836D01*
X128073524Y-78685928D01*
X128054766Y-78747765D01*
X127957268Y-78930170D01*
X127826055Y-79090055D01*
X127666170Y-79221268D01*
X127483765Y-79318766D01*
X127483762Y-79318767D01*
X127285836Y-79378807D01*
X127208707Y-79386403D01*
X127131580Y-79394000D01*
X127028420Y-79394000D01*
X126951293Y-79386403D01*
X126874164Y-79378807D01*
X126676238Y-79318767D01*
X126676235Y-79318766D01*
X126493830Y-79221268D01*
X126333945Y-79090055D01*
X126202732Y-78930170D01*
X126105234Y-78747765D01*
X126086476Y-78685928D01*
X126045193Y-78549836D01*
X126024920Y-78344000D01*
X126045193Y-78138164D01*
X126105233Y-77940238D01*
X126105234Y-77940235D01*
X126202732Y-77757830D01*
X126333945Y-77597945D01*
X126493830Y-77466732D01*
X126676235Y-77369234D01*
X126676238Y-77369233D01*
X126874164Y-77309193D01*
X126951293Y-77301596D01*
X127028420Y-77294000D01*
X127131580Y-77294000D01*
X127208707Y-77301596D01*
X127208707Y-77301596D01*
G37*
G36*
X124668707Y-77301596D02*
G01*
X124745836Y-77309193D01*
X124943762Y-77369233D01*
X124943765Y-77369234D01*
X125126170Y-77466732D01*
X125286055Y-77597945D01*
X125417268Y-77757830D01*
X125514766Y-77940235D01*
X125514767Y-77940238D01*
X125574807Y-78138164D01*
X125595080Y-78344000D01*
X125574807Y-78549836D01*
X125533524Y-78685928D01*
X125514766Y-78747765D01*
X125417268Y-78930170D01*
X125286055Y-79090055D01*
X125126170Y-79221268D01*
X124943765Y-79318766D01*
X124943762Y-79318767D01*
X124745836Y-79378807D01*
X124668707Y-79386403D01*
X124591580Y-79394000D01*
X124488420Y-79394000D01*
X124411293Y-79386403D01*
X124334164Y-79378807D01*
X124136238Y-79318767D01*
X124136235Y-79318766D01*
X123953830Y-79221268D01*
X123793945Y-79090055D01*
X123662732Y-78930170D01*
X123565234Y-78747765D01*
X123546476Y-78685928D01*
X123505193Y-78549836D01*
X123484920Y-78344000D01*
X123505193Y-78138164D01*
X123565233Y-77940238D01*
X123565234Y-77940235D01*
X123662732Y-77757830D01*
X123793945Y-77597945D01*
X123953830Y-77466732D01*
X124136235Y-77369234D01*
X124136238Y-77369233D01*
X124334164Y-77309193D01*
X124411293Y-77301596D01*
X124488420Y-77294000D01*
X124591580Y-77294000D01*
X124668707Y-77301596D01*
X124668707Y-77301596D01*
G37*
G36*
X140948707Y-77301596D02*
G01*
X141025836Y-77309193D01*
X141223762Y-77369233D01*
X141223765Y-77369234D01*
X141406170Y-77466732D01*
X141566055Y-77597945D01*
X141697268Y-77757830D01*
X141794766Y-77940235D01*
X141794767Y-77940238D01*
X141854807Y-78138164D01*
X141875080Y-78344000D01*
X141854807Y-78549836D01*
X141813524Y-78685928D01*
X141794766Y-78747765D01*
X141697268Y-78930170D01*
X141566055Y-79090055D01*
X141406170Y-79221268D01*
X141223765Y-79318766D01*
X141223762Y-79318767D01*
X141025836Y-79378807D01*
X140948707Y-79386403D01*
X140871580Y-79394000D01*
X140768420Y-79394000D01*
X140691293Y-79386403D01*
X140614164Y-79378807D01*
X140416238Y-79318767D01*
X140416235Y-79318766D01*
X140233830Y-79221268D01*
X140073945Y-79090055D01*
X139942732Y-78930170D01*
X139845234Y-78747765D01*
X139826476Y-78685928D01*
X139785193Y-78549836D01*
X139764920Y-78344000D01*
X139785193Y-78138164D01*
X139845233Y-77940238D01*
X139845234Y-77940235D01*
X139942732Y-77757830D01*
X140073945Y-77597945D01*
X140233830Y-77466732D01*
X140416235Y-77369234D01*
X140416238Y-77369233D01*
X140614164Y-77309193D01*
X140691293Y-77301596D01*
X140768420Y-77294000D01*
X140871580Y-77294000D01*
X140948707Y-77301596D01*
X140948707Y-77301596D01*
G37*
G36*
X90983000Y-77700000D02*
G01*
X81733000Y-77700000D01*
X81733000Y-76200000D01*
X90983000Y-76200000D01*
X90983000Y-77700000D01*
X90983000Y-77700000D01*
G37*
G36*
X140948707Y-74761597D02*
G01*
X141025836Y-74769193D01*
X141223762Y-74829233D01*
X141223765Y-74829234D01*
X141406170Y-74926732D01*
X141566055Y-75057945D01*
X141697268Y-75217830D01*
X141794766Y-75400235D01*
X141794767Y-75400238D01*
X141854807Y-75598164D01*
X141875080Y-75804000D01*
X141854807Y-76009836D01*
X141794767Y-76207762D01*
X141794766Y-76207765D01*
X141697268Y-76390170D01*
X141566055Y-76550055D01*
X141406170Y-76681268D01*
X141223765Y-76778766D01*
X141223762Y-76778767D01*
X141025836Y-76838807D01*
X140948707Y-76846404D01*
X140871580Y-76854000D01*
X140768420Y-76854000D01*
X140691293Y-76846404D01*
X140614164Y-76838807D01*
X140416238Y-76778767D01*
X140416235Y-76778766D01*
X140233830Y-76681268D01*
X140073945Y-76550055D01*
X139942732Y-76390170D01*
X139845234Y-76207765D01*
X139845233Y-76207762D01*
X139785193Y-76009836D01*
X139764920Y-75804000D01*
X139785193Y-75598164D01*
X139845233Y-75400238D01*
X139845234Y-75400235D01*
X139942732Y-75217830D01*
X140073945Y-75057945D01*
X140233830Y-74926732D01*
X140416235Y-74829234D01*
X140416238Y-74829233D01*
X140614164Y-74769193D01*
X140691293Y-74761597D01*
X140768420Y-74754000D01*
X140871580Y-74754000D01*
X140948707Y-74761597D01*
X140948707Y-74761597D01*
G37*
G36*
X80813530Y-74215877D02*
G01*
X80865010Y-74231493D01*
X80912445Y-74256848D01*
X80954027Y-74290973D01*
X80988152Y-74332555D01*
X81013507Y-74379990D01*
X81029123Y-74431470D01*
X81035000Y-74491140D01*
X81035000Y-75378860D01*
X81029123Y-75438530D01*
X81013507Y-75490010D01*
X80988152Y-75537445D01*
X80954027Y-75579027D01*
X80912445Y-75613152D01*
X80865010Y-75638507D01*
X80813530Y-75654123D01*
X80753860Y-75660000D01*
X79966140Y-75660000D01*
X79906470Y-75654123D01*
X79854990Y-75638507D01*
X79807555Y-75613152D01*
X79765973Y-75579027D01*
X79731848Y-75537445D01*
X79706493Y-75490010D01*
X79690877Y-75438530D01*
X79685000Y-75378860D01*
X79685000Y-74491140D01*
X79690877Y-74431470D01*
X79706493Y-74379990D01*
X79731848Y-74332555D01*
X79765973Y-74290973D01*
X79807555Y-74256848D01*
X79854990Y-74231493D01*
X79906470Y-74215877D01*
X79966140Y-74210000D01*
X80753860Y-74210000D01*
X80813530Y-74215877D01*
X80813530Y-74215877D01*
G37*
G36*
X140948707Y-72221596D02*
G01*
X141025836Y-72229193D01*
X141223762Y-72289233D01*
X141223765Y-72289234D01*
X141406170Y-72386732D01*
X141566055Y-72517945D01*
X141697268Y-72677830D01*
X141794766Y-72860235D01*
X141794767Y-72860238D01*
X141854807Y-73058164D01*
X141875080Y-73264000D01*
X141854807Y-73469836D01*
X141823664Y-73572500D01*
X141794766Y-73667765D01*
X141697268Y-73850170D01*
X141566055Y-74010055D01*
X141406170Y-74141268D01*
X141223765Y-74238766D01*
X141223762Y-74238767D01*
X141025836Y-74298807D01*
X140948707Y-74306403D01*
X140871580Y-74314000D01*
X140768420Y-74314000D01*
X140691293Y-74306403D01*
X140614164Y-74298807D01*
X140416238Y-74238767D01*
X140416235Y-74238766D01*
X140233830Y-74141268D01*
X140073945Y-74010055D01*
X139942732Y-73850170D01*
X139845234Y-73667765D01*
X139816336Y-73572500D01*
X139785193Y-73469836D01*
X139764920Y-73264000D01*
X139785193Y-73058164D01*
X139845233Y-72860238D01*
X139845234Y-72860235D01*
X139942732Y-72677830D01*
X140073945Y-72517945D01*
X140233830Y-72386732D01*
X140416235Y-72289234D01*
X140416238Y-72289233D01*
X140614164Y-72229193D01*
X140691293Y-72221596D01*
X140768420Y-72214000D01*
X140871580Y-72214000D01*
X140948707Y-72221596D01*
X140948707Y-72221596D01*
G37*
G36*
X80813530Y-72465877D02*
G01*
X80865010Y-72481493D01*
X80912445Y-72506848D01*
X80954027Y-72540973D01*
X80988152Y-72582555D01*
X81013507Y-72629990D01*
X81029123Y-72681470D01*
X81035000Y-72741140D01*
X81035000Y-73628860D01*
X81029123Y-73688530D01*
X81013507Y-73740010D01*
X80988152Y-73787445D01*
X80954027Y-73829027D01*
X80912445Y-73863152D01*
X80865010Y-73888507D01*
X80813530Y-73904123D01*
X80753860Y-73910000D01*
X79966140Y-73910000D01*
X79906470Y-73904123D01*
X79854990Y-73888507D01*
X79807555Y-73863152D01*
X79765973Y-73829027D01*
X79731848Y-73787445D01*
X79706493Y-73740010D01*
X79690877Y-73688530D01*
X79685000Y-73628860D01*
X79685000Y-72741140D01*
X79690877Y-72681470D01*
X79706493Y-72629990D01*
X79731848Y-72582555D01*
X79765973Y-72540973D01*
X79807555Y-72506848D01*
X79854990Y-72481493D01*
X79906470Y-72465877D01*
X79966140Y-72460000D01*
X80753860Y-72460000D01*
X80813530Y-72465877D01*
X80813530Y-72465877D01*
G37*
G36*
X137790000Y-72544000D02*
G01*
X136890000Y-72544000D01*
X136890000Y-71244000D01*
X137790000Y-71244000D01*
X137790000Y-72544000D01*
X137790000Y-72544000D01*
G37*
G36*
X136290000Y-72544000D02*
G01*
X135390000Y-72544000D01*
X135390000Y-71244000D01*
X136290000Y-71244000D01*
X136290000Y-72544000D01*
X136290000Y-72544000D01*
G37*
G36*
X90983000Y-72000000D02*
G01*
X81733000Y-72000000D01*
X81733000Y-70500000D01*
X90983000Y-70500000D01*
X90983000Y-72000000D01*
X90983000Y-72000000D01*
G37*
G36*
X119090613Y-71047598D02*
G01*
X119114999Y-71050000D01*
X120565001Y-71050000D01*
X120589387Y-71047598D01*
X120601248Y-71044000D01*
X124990000Y-71044000D01*
X124990000Y-71944000D01*
X120614999Y-71944000D01*
X120590613Y-71946402D01*
X120578752Y-71950000D01*
X119101248Y-71950000D01*
X119089387Y-71946402D01*
X119065001Y-71944000D01*
X117690000Y-71944000D01*
X117690000Y-71044000D01*
X119078752Y-71044000D01*
X119090613Y-71047598D01*
X119090613Y-71047598D01*
G37*
G36*
X95742000Y-71950000D02*
G01*
X92918000Y-71950000D01*
X92918000Y-71050000D01*
X95742000Y-71050000D01*
X95742000Y-71950000D01*
X95742000Y-71950000D01*
G37*
G36*
X141870000Y-71774000D02*
G01*
X139770000Y-71774000D01*
X139770000Y-69674000D01*
X141870000Y-69674000D01*
X141870000Y-71774000D01*
X141870000Y-71774000D01*
G37*
G36*
X132288707Y-69681597D02*
G01*
X132365836Y-69689193D01*
X132563762Y-69749233D01*
X132563765Y-69749234D01*
X132746170Y-69846732D01*
X132906055Y-69977945D01*
X133037268Y-70137830D01*
X133134766Y-70320235D01*
X133134767Y-70320238D01*
X133194807Y-70518164D01*
X133215080Y-70724000D01*
X133194807Y-70929836D01*
X133134767Y-71127762D01*
X133134766Y-71127765D01*
X133037268Y-71310170D01*
X132906055Y-71470055D01*
X132746170Y-71601268D01*
X132563765Y-71698766D01*
X132563762Y-71698767D01*
X132365836Y-71758807D01*
X132288707Y-71766404D01*
X132211580Y-71774000D01*
X132108420Y-71774000D01*
X132031293Y-71766404D01*
X131954164Y-71758807D01*
X131756238Y-71698767D01*
X131756235Y-71698766D01*
X131573830Y-71601268D01*
X131413945Y-71470055D01*
X131282732Y-71310170D01*
X131185234Y-71127765D01*
X131185233Y-71127762D01*
X131125193Y-70929836D01*
X131104920Y-70724000D01*
X131125193Y-70518164D01*
X131185233Y-70320238D01*
X131185234Y-70320235D01*
X131282732Y-70137830D01*
X131413945Y-69977945D01*
X131573830Y-69846732D01*
X131756235Y-69749234D01*
X131756238Y-69749233D01*
X131954164Y-69689193D01*
X132031293Y-69681597D01*
X132108420Y-69674000D01*
X132211580Y-69674000D01*
X132288707Y-69681597D01*
X132288707Y-69681597D01*
G37*
G36*
X129748707Y-69681597D02*
G01*
X129825836Y-69689193D01*
X130023762Y-69749233D01*
X130023765Y-69749234D01*
X130206170Y-69846732D01*
X130366055Y-69977945D01*
X130497268Y-70137830D01*
X130594766Y-70320235D01*
X130594767Y-70320238D01*
X130654807Y-70518164D01*
X130675080Y-70724000D01*
X130654807Y-70929836D01*
X130594767Y-71127762D01*
X130594766Y-71127765D01*
X130497268Y-71310170D01*
X130366055Y-71470055D01*
X130206170Y-71601268D01*
X130023765Y-71698766D01*
X130023762Y-71698767D01*
X129825836Y-71758807D01*
X129748707Y-71766404D01*
X129671580Y-71774000D01*
X129568420Y-71774000D01*
X129491293Y-71766404D01*
X129414164Y-71758807D01*
X129216238Y-71698767D01*
X129216235Y-71698766D01*
X129033830Y-71601268D01*
X128873945Y-71470055D01*
X128742732Y-71310170D01*
X128645234Y-71127765D01*
X128645233Y-71127762D01*
X128585193Y-70929836D01*
X128564920Y-70724000D01*
X128585193Y-70518164D01*
X128645233Y-70320238D01*
X128645234Y-70320235D01*
X128742732Y-70137830D01*
X128873945Y-69977945D01*
X129033830Y-69846732D01*
X129216235Y-69749234D01*
X129216238Y-69749233D01*
X129414164Y-69689193D01*
X129491293Y-69681597D01*
X129568420Y-69674000D01*
X129671580Y-69674000D01*
X129748707Y-69681597D01*
X129748707Y-69681597D01*
G37*
G36*
X128130000Y-71774000D02*
G01*
X126030000Y-71774000D01*
X126030000Y-69674000D01*
X128130000Y-69674000D01*
X128130000Y-71774000D01*
X128130000Y-71774000D01*
G37*
G36*
X119090613Y-69547598D02*
G01*
X119114999Y-69550000D01*
X120565001Y-69550000D01*
X120589387Y-69547598D01*
X120601248Y-69544000D01*
X124990000Y-69544000D01*
X124990000Y-70444000D01*
X120614999Y-70444000D01*
X120590613Y-70446402D01*
X120578752Y-70450000D01*
X119101248Y-70450000D01*
X119089387Y-70446402D01*
X119065001Y-70444000D01*
X117690000Y-70444000D01*
X117690000Y-69544000D01*
X119078752Y-69544000D01*
X119090613Y-69547598D01*
X119090613Y-69547598D01*
G37*
G36*
X95742000Y-70450000D02*
G01*
X92918000Y-70450000D01*
X92918000Y-69550000D01*
X95742000Y-69550000D01*
X95742000Y-70450000D01*
X95742000Y-70450000D01*
G37*
G36*
X105706707Y-68043596D02*
G01*
X105783836Y-68051193D01*
X105981762Y-68111233D01*
X105981765Y-68111234D01*
X106164170Y-68208732D01*
X106324055Y-68339945D01*
X106455268Y-68499830D01*
X106552766Y-68682235D01*
X106552767Y-68682238D01*
X106612807Y-68880164D01*
X106633080Y-69086000D01*
X106612807Y-69291836D01*
X106576015Y-69413123D01*
X106552766Y-69489765D01*
X106455268Y-69672170D01*
X106324055Y-69832055D01*
X106164170Y-69963268D01*
X105981765Y-70060766D01*
X105981762Y-70060767D01*
X105783836Y-70120807D01*
X105706707Y-70128403D01*
X105629580Y-70136000D01*
X105526420Y-70136000D01*
X105449293Y-70128403D01*
X105372164Y-70120807D01*
X105174238Y-70060767D01*
X105174235Y-70060766D01*
X104991830Y-69963268D01*
X104831945Y-69832055D01*
X104700732Y-69672170D01*
X104603234Y-69489765D01*
X104579985Y-69413123D01*
X104543193Y-69291836D01*
X104522920Y-69086000D01*
X104543193Y-68880164D01*
X104603233Y-68682238D01*
X104603234Y-68682235D01*
X104700732Y-68499830D01*
X104831945Y-68339945D01*
X104991830Y-68208732D01*
X105174235Y-68111234D01*
X105174238Y-68111233D01*
X105372164Y-68051193D01*
X105449293Y-68043596D01*
X105526420Y-68036000D01*
X105629580Y-68036000D01*
X105706707Y-68043596D01*
X105706707Y-68043596D01*
G37*
G36*
X103166707Y-68043596D02*
G01*
X103243836Y-68051193D01*
X103441762Y-68111233D01*
X103441765Y-68111234D01*
X103624170Y-68208732D01*
X103784055Y-68339945D01*
X103915268Y-68499830D01*
X104012766Y-68682235D01*
X104012767Y-68682238D01*
X104072807Y-68880164D01*
X104093080Y-69086000D01*
X104072807Y-69291836D01*
X104036015Y-69413123D01*
X104012766Y-69489765D01*
X103915268Y-69672170D01*
X103784055Y-69832055D01*
X103624170Y-69963268D01*
X103441765Y-70060766D01*
X103441762Y-70060767D01*
X103243836Y-70120807D01*
X103166707Y-70128403D01*
X103089580Y-70136000D01*
X102986420Y-70136000D01*
X102909293Y-70128403D01*
X102832164Y-70120807D01*
X102634238Y-70060767D01*
X102634235Y-70060766D01*
X102451830Y-69963268D01*
X102291945Y-69832055D01*
X102160732Y-69672170D01*
X102063234Y-69489765D01*
X102039985Y-69413123D01*
X102003193Y-69291836D01*
X101982920Y-69086000D01*
X102003193Y-68880164D01*
X102063233Y-68682238D01*
X102063234Y-68682235D01*
X102160732Y-68499830D01*
X102291945Y-68339945D01*
X102451830Y-68208732D01*
X102634235Y-68111234D01*
X102634238Y-68111233D01*
X102832164Y-68051193D01*
X102909293Y-68043596D01*
X102986420Y-68036000D01*
X103089580Y-68036000D01*
X103166707Y-68043596D01*
X103166707Y-68043596D01*
G37*
G36*
X100626707Y-68043596D02*
G01*
X100703836Y-68051193D01*
X100901762Y-68111233D01*
X100901765Y-68111234D01*
X101084170Y-68208732D01*
X101244055Y-68339945D01*
X101375268Y-68499830D01*
X101472766Y-68682235D01*
X101472767Y-68682238D01*
X101532807Y-68880164D01*
X101553080Y-69086000D01*
X101532807Y-69291836D01*
X101496015Y-69413123D01*
X101472766Y-69489765D01*
X101375268Y-69672170D01*
X101244055Y-69832055D01*
X101084170Y-69963268D01*
X100901765Y-70060766D01*
X100901762Y-70060767D01*
X100703836Y-70120807D01*
X100626707Y-70128403D01*
X100549580Y-70136000D01*
X100446420Y-70136000D01*
X100369293Y-70128403D01*
X100292164Y-70120807D01*
X100094238Y-70060767D01*
X100094235Y-70060766D01*
X99911830Y-69963268D01*
X99751945Y-69832055D01*
X99620732Y-69672170D01*
X99523234Y-69489765D01*
X99499985Y-69413123D01*
X99463193Y-69291836D01*
X99442920Y-69086000D01*
X99463193Y-68880164D01*
X99523233Y-68682238D01*
X99523234Y-68682235D01*
X99620732Y-68499830D01*
X99751945Y-68339945D01*
X99911830Y-68208732D01*
X100094235Y-68111234D01*
X100094238Y-68111233D01*
X100292164Y-68051193D01*
X100369293Y-68043596D01*
X100446420Y-68036000D01*
X100549580Y-68036000D01*
X100626707Y-68043596D01*
X100626707Y-68043596D01*
G37*
G36*
X98086707Y-68043596D02*
G01*
X98163836Y-68051193D01*
X98361762Y-68111233D01*
X98361765Y-68111234D01*
X98544170Y-68208732D01*
X98704055Y-68339945D01*
X98835268Y-68499830D01*
X98932766Y-68682235D01*
X98932767Y-68682238D01*
X98992807Y-68880164D01*
X99013080Y-69086000D01*
X98992807Y-69291836D01*
X98956015Y-69413123D01*
X98932766Y-69489765D01*
X98835268Y-69672170D01*
X98704055Y-69832055D01*
X98544170Y-69963268D01*
X98361765Y-70060766D01*
X98361762Y-70060767D01*
X98163836Y-70120807D01*
X98086707Y-70128403D01*
X98009580Y-70136000D01*
X97906420Y-70136000D01*
X97829293Y-70128403D01*
X97752164Y-70120807D01*
X97554238Y-70060767D01*
X97554235Y-70060766D01*
X97371830Y-69963268D01*
X97211945Y-69832055D01*
X97080732Y-69672170D01*
X96983234Y-69489765D01*
X96959985Y-69413123D01*
X96923193Y-69291836D01*
X96902920Y-69086000D01*
X96923193Y-68880164D01*
X96983233Y-68682238D01*
X96983234Y-68682235D01*
X97080732Y-68499830D01*
X97211945Y-68339945D01*
X97371830Y-68208732D01*
X97554235Y-68111234D01*
X97554238Y-68111233D01*
X97752164Y-68051193D01*
X97829293Y-68043596D01*
X97906420Y-68036000D01*
X98009580Y-68036000D01*
X98086707Y-68043596D01*
X98086707Y-68043596D01*
G37*
G36*
X113326707Y-68043596D02*
G01*
X113403836Y-68051193D01*
X113601762Y-68111233D01*
X113601765Y-68111234D01*
X113784170Y-68208732D01*
X113944055Y-68339945D01*
X114075268Y-68499830D01*
X114172766Y-68682235D01*
X114172767Y-68682238D01*
X114232807Y-68880164D01*
X114253080Y-69086000D01*
X114232807Y-69291836D01*
X114196015Y-69413123D01*
X114172766Y-69489765D01*
X114075268Y-69672170D01*
X113944055Y-69832055D01*
X113784170Y-69963268D01*
X113601765Y-70060766D01*
X113601762Y-70060767D01*
X113403836Y-70120807D01*
X113326707Y-70128403D01*
X113249580Y-70136000D01*
X113146420Y-70136000D01*
X113069293Y-70128403D01*
X112992164Y-70120807D01*
X112794238Y-70060767D01*
X112794235Y-70060766D01*
X112611830Y-69963268D01*
X112451945Y-69832055D01*
X112320732Y-69672170D01*
X112223234Y-69489765D01*
X112199985Y-69413123D01*
X112163193Y-69291836D01*
X112142920Y-69086000D01*
X112163193Y-68880164D01*
X112223233Y-68682238D01*
X112223234Y-68682235D01*
X112320732Y-68499830D01*
X112451945Y-68339945D01*
X112611830Y-68208732D01*
X112794235Y-68111234D01*
X112794238Y-68111233D01*
X112992164Y-68051193D01*
X113069293Y-68043596D01*
X113146420Y-68036000D01*
X113249580Y-68036000D01*
X113326707Y-68043596D01*
X113326707Y-68043596D01*
G37*
G36*
X110786707Y-68043596D02*
G01*
X110863836Y-68051193D01*
X111061762Y-68111233D01*
X111061765Y-68111234D01*
X111244170Y-68208732D01*
X111404055Y-68339945D01*
X111535268Y-68499830D01*
X111632766Y-68682235D01*
X111632767Y-68682238D01*
X111692807Y-68880164D01*
X111713080Y-69086000D01*
X111692807Y-69291836D01*
X111656015Y-69413123D01*
X111632766Y-69489765D01*
X111535268Y-69672170D01*
X111404055Y-69832055D01*
X111244170Y-69963268D01*
X111061765Y-70060766D01*
X111061762Y-70060767D01*
X110863836Y-70120807D01*
X110786707Y-70128403D01*
X110709580Y-70136000D01*
X110606420Y-70136000D01*
X110529293Y-70128403D01*
X110452164Y-70120807D01*
X110254238Y-70060767D01*
X110254235Y-70060766D01*
X110071830Y-69963268D01*
X109911945Y-69832055D01*
X109780732Y-69672170D01*
X109683234Y-69489765D01*
X109659985Y-69413123D01*
X109623193Y-69291836D01*
X109602920Y-69086000D01*
X109623193Y-68880164D01*
X109683233Y-68682238D01*
X109683234Y-68682235D01*
X109780732Y-68499830D01*
X109911945Y-68339945D01*
X110071830Y-68208732D01*
X110254235Y-68111234D01*
X110254238Y-68111233D01*
X110452164Y-68051193D01*
X110529293Y-68043596D01*
X110606420Y-68036000D01*
X110709580Y-68036000D01*
X110786707Y-68043596D01*
X110786707Y-68043596D01*
G37*
G36*
X108246707Y-68043596D02*
G01*
X108323836Y-68051193D01*
X108521762Y-68111233D01*
X108521765Y-68111234D01*
X108704170Y-68208732D01*
X108864055Y-68339945D01*
X108995268Y-68499830D01*
X109092766Y-68682235D01*
X109092767Y-68682238D01*
X109152807Y-68880164D01*
X109173080Y-69086000D01*
X109152807Y-69291836D01*
X109116015Y-69413123D01*
X109092766Y-69489765D01*
X108995268Y-69672170D01*
X108864055Y-69832055D01*
X108704170Y-69963268D01*
X108521765Y-70060766D01*
X108521762Y-70060767D01*
X108323836Y-70120807D01*
X108246707Y-70128403D01*
X108169580Y-70136000D01*
X108066420Y-70136000D01*
X107989293Y-70128403D01*
X107912164Y-70120807D01*
X107714238Y-70060767D01*
X107714235Y-70060766D01*
X107531830Y-69963268D01*
X107371945Y-69832055D01*
X107240732Y-69672170D01*
X107143234Y-69489765D01*
X107119985Y-69413123D01*
X107083193Y-69291836D01*
X107062920Y-69086000D01*
X107083193Y-68880164D01*
X107143233Y-68682238D01*
X107143234Y-68682235D01*
X107240732Y-68499830D01*
X107371945Y-68339945D01*
X107531830Y-68208732D01*
X107714235Y-68111234D01*
X107714238Y-68111233D01*
X107912164Y-68051193D01*
X107989293Y-68043596D01*
X108066420Y-68036000D01*
X108169580Y-68036000D01*
X108246707Y-68043596D01*
X108246707Y-68043596D01*
G37*
G36*
X116788000Y-70136000D02*
G01*
X114688000Y-70136000D01*
X114688000Y-68036000D01*
X116788000Y-68036000D01*
X116788000Y-70136000D01*
X116788000Y-70136000D01*
G37*
G36*
X136290000Y-69894000D02*
G01*
X135390000Y-69894000D01*
X135390000Y-68594000D01*
X136290000Y-68594000D01*
X136290000Y-69894000D01*
X136290000Y-69894000D01*
G37*
G36*
X137790000Y-69894000D02*
G01*
X136890000Y-69894000D01*
X136890000Y-68594000D01*
X137790000Y-68594000D01*
X137790000Y-69894000D01*
X137790000Y-69894000D01*
G37*
G36*
X88442000Y-69884000D02*
G01*
X87542000Y-69884000D01*
X87542000Y-68584000D01*
X88442000Y-68584000D01*
X88442000Y-69884000D01*
X88442000Y-69884000D01*
G37*
G36*
X89942000Y-69884000D02*
G01*
X89042000Y-69884000D01*
X89042000Y-68584000D01*
X89942000Y-68584000D01*
X89942000Y-69884000D01*
X89942000Y-69884000D01*
G37*
G36*
X81258530Y-68074877D02*
G01*
X81310010Y-68090493D01*
X81357445Y-68115848D01*
X81399027Y-68149973D01*
X81433152Y-68191555D01*
X81458507Y-68238990D01*
X81474123Y-68290470D01*
X81480000Y-68350140D01*
X81480000Y-69137860D01*
X81474123Y-69197530D01*
X81458507Y-69249010D01*
X81433152Y-69296445D01*
X81399027Y-69338027D01*
X81357445Y-69372152D01*
X81310010Y-69397507D01*
X81258530Y-69413123D01*
X81198860Y-69419000D01*
X80311140Y-69419000D01*
X80251470Y-69413123D01*
X80199990Y-69397507D01*
X80152555Y-69372152D01*
X80110973Y-69338027D01*
X80076848Y-69296445D01*
X80051493Y-69249010D01*
X80035877Y-69197530D01*
X80030000Y-69137860D01*
X80030000Y-68350140D01*
X80035877Y-68290470D01*
X80051493Y-68238990D01*
X80076848Y-68191555D01*
X80110973Y-68149973D01*
X80152555Y-68115848D01*
X80199990Y-68090493D01*
X80251470Y-68074877D01*
X80311140Y-68069000D01*
X81198860Y-68069000D01*
X81258530Y-68074877D01*
X81258530Y-68074877D01*
G37*
G36*
X83008530Y-68074877D02*
G01*
X83060010Y-68090493D01*
X83107445Y-68115848D01*
X83149027Y-68149973D01*
X83183152Y-68191555D01*
X83208507Y-68238990D01*
X83224123Y-68290470D01*
X83230000Y-68350140D01*
X83230000Y-69137860D01*
X83224123Y-69197530D01*
X83208507Y-69249010D01*
X83183152Y-69296445D01*
X83149027Y-69338027D01*
X83107445Y-69372152D01*
X83060010Y-69397507D01*
X83008530Y-69413123D01*
X82948860Y-69419000D01*
X82061140Y-69419000D01*
X82001470Y-69413123D01*
X81949990Y-69397507D01*
X81902555Y-69372152D01*
X81860973Y-69338027D01*
X81826848Y-69296445D01*
X81801493Y-69249010D01*
X81785877Y-69197530D01*
X81780000Y-69137860D01*
X81780000Y-68350140D01*
X81785877Y-68290470D01*
X81801493Y-68238990D01*
X81826848Y-68191555D01*
X81860973Y-68149973D01*
X81902555Y-68115848D01*
X81949990Y-68090493D01*
X82001470Y-68074877D01*
X82061140Y-68069000D01*
X82948860Y-68069000D01*
X83008530Y-68074877D01*
X83008530Y-68074877D01*
G37*
G36*
X112448707Y-64547597D02*
G01*
X112525836Y-64555193D01*
X112723762Y-64615233D01*
X112723765Y-64615234D01*
X112906170Y-64712732D01*
X113066055Y-64843945D01*
X113197268Y-65003830D01*
X113294766Y-65186235D01*
X113294767Y-65186238D01*
X113354807Y-65384164D01*
X113375080Y-65590000D01*
X113354807Y-65795836D01*
X113321650Y-65905139D01*
X113294766Y-65993765D01*
X113197268Y-66176170D01*
X113066055Y-66336055D01*
X112906170Y-66467268D01*
X112723765Y-66564766D01*
X112723762Y-66564767D01*
X112525836Y-66624807D01*
X112448707Y-66632404D01*
X112371580Y-66640000D01*
X112268420Y-66640000D01*
X112191293Y-66632404D01*
X112114164Y-66624807D01*
X111916238Y-66564767D01*
X111916235Y-66564766D01*
X111733830Y-66467268D01*
X111573945Y-66336055D01*
X111442732Y-66176170D01*
X111345234Y-65993765D01*
X111318350Y-65905139D01*
X111285193Y-65795836D01*
X111264920Y-65590000D01*
X111285193Y-65384164D01*
X111345233Y-65186238D01*
X111345234Y-65186235D01*
X111442732Y-65003830D01*
X111573945Y-64843945D01*
X111733830Y-64712732D01*
X111916235Y-64615234D01*
X111916238Y-64615233D01*
X112114164Y-64555193D01*
X112191293Y-64547597D01*
X112268420Y-64540000D01*
X112371580Y-64540000D01*
X112448707Y-64547597D01*
X112448707Y-64547597D01*
G37*
G36*
X104828707Y-64547597D02*
G01*
X104905836Y-64555193D01*
X105103762Y-64615233D01*
X105103765Y-64615234D01*
X105286170Y-64712732D01*
X105446055Y-64843945D01*
X105577268Y-65003830D01*
X105674766Y-65186235D01*
X105674767Y-65186238D01*
X105734807Y-65384164D01*
X105755080Y-65590000D01*
X105734807Y-65795836D01*
X105701650Y-65905139D01*
X105674766Y-65993765D01*
X105577268Y-66176170D01*
X105446055Y-66336055D01*
X105286170Y-66467268D01*
X105103765Y-66564766D01*
X105103762Y-66564767D01*
X104905836Y-66624807D01*
X104828707Y-66632404D01*
X104751580Y-66640000D01*
X104648420Y-66640000D01*
X104571293Y-66632404D01*
X104494164Y-66624807D01*
X104296238Y-66564767D01*
X104296235Y-66564766D01*
X104113830Y-66467268D01*
X103953945Y-66336055D01*
X103822732Y-66176170D01*
X103725234Y-65993765D01*
X103698350Y-65905139D01*
X103665193Y-65795836D01*
X103644920Y-65590000D01*
X103665193Y-65384164D01*
X103725233Y-65186238D01*
X103725234Y-65186235D01*
X103822732Y-65003830D01*
X103953945Y-64843945D01*
X104113830Y-64712732D01*
X104296235Y-64615234D01*
X104296238Y-64615233D01*
X104494164Y-64555193D01*
X104571293Y-64547597D01*
X104648420Y-64540000D01*
X104751580Y-64540000D01*
X104828707Y-64547597D01*
X104828707Y-64547597D01*
G37*
G36*
X99748707Y-64547597D02*
G01*
X99825836Y-64555193D01*
X100023762Y-64615233D01*
X100023765Y-64615234D01*
X100206170Y-64712732D01*
X100366055Y-64843945D01*
X100497268Y-65003830D01*
X100594766Y-65186235D01*
X100594767Y-65186238D01*
X100654807Y-65384164D01*
X100675080Y-65590000D01*
X100654807Y-65795836D01*
X100621650Y-65905139D01*
X100594766Y-65993765D01*
X100497268Y-66176170D01*
X100366055Y-66336055D01*
X100206170Y-66467268D01*
X100023765Y-66564766D01*
X100023762Y-66564767D01*
X99825836Y-66624807D01*
X99748707Y-66632404D01*
X99671580Y-66640000D01*
X99568420Y-66640000D01*
X99491293Y-66632404D01*
X99414164Y-66624807D01*
X99216238Y-66564767D01*
X99216235Y-66564766D01*
X99033830Y-66467268D01*
X98873945Y-66336055D01*
X98742732Y-66176170D01*
X98645234Y-65993765D01*
X98618350Y-65905139D01*
X98585193Y-65795836D01*
X98564920Y-65590000D01*
X98585193Y-65384164D01*
X98645233Y-65186238D01*
X98645234Y-65186235D01*
X98742732Y-65003830D01*
X98873945Y-64843945D01*
X99033830Y-64712732D01*
X99216235Y-64615234D01*
X99216238Y-64615233D01*
X99414164Y-64555193D01*
X99491293Y-64547597D01*
X99568420Y-64540000D01*
X99671580Y-64540000D01*
X99748707Y-64547597D01*
X99748707Y-64547597D01*
G37*
G36*
X87970000Y-66640000D02*
G01*
X85870000Y-66640000D01*
X85870000Y-64540000D01*
X87970000Y-64540000D01*
X87970000Y-66640000D01*
X87970000Y-66640000D01*
G37*
G36*
X89588707Y-64547597D02*
G01*
X89665836Y-64555193D01*
X89863762Y-64615233D01*
X89863765Y-64615234D01*
X90046170Y-64712732D01*
X90206055Y-64843945D01*
X90337268Y-65003830D01*
X90434766Y-65186235D01*
X90434767Y-65186238D01*
X90494807Y-65384164D01*
X90515080Y-65590000D01*
X90494807Y-65795836D01*
X90461650Y-65905139D01*
X90434766Y-65993765D01*
X90337268Y-66176170D01*
X90206055Y-66336055D01*
X90046170Y-66467268D01*
X89863765Y-66564766D01*
X89863762Y-66564767D01*
X89665836Y-66624807D01*
X89588707Y-66632404D01*
X89511580Y-66640000D01*
X89408420Y-66640000D01*
X89331293Y-66632404D01*
X89254164Y-66624807D01*
X89056238Y-66564767D01*
X89056235Y-66564766D01*
X88873830Y-66467268D01*
X88713945Y-66336055D01*
X88582732Y-66176170D01*
X88485234Y-65993765D01*
X88458350Y-65905139D01*
X88425193Y-65795836D01*
X88404920Y-65590000D01*
X88425193Y-65384164D01*
X88485233Y-65186238D01*
X88485234Y-65186235D01*
X88582732Y-65003830D01*
X88713945Y-64843945D01*
X88873830Y-64712732D01*
X89056235Y-64615234D01*
X89056238Y-64615233D01*
X89254164Y-64555193D01*
X89331293Y-64547597D01*
X89408420Y-64540000D01*
X89511580Y-64540000D01*
X89588707Y-64547597D01*
X89588707Y-64547597D01*
G37*
G36*
X94668707Y-64547597D02*
G01*
X94745836Y-64555193D01*
X94943762Y-64615233D01*
X94943765Y-64615234D01*
X95126170Y-64712732D01*
X95286055Y-64843945D01*
X95417268Y-65003830D01*
X95514766Y-65186235D01*
X95514767Y-65186238D01*
X95574807Y-65384164D01*
X95595080Y-65590000D01*
X95574807Y-65795836D01*
X95541650Y-65905139D01*
X95514766Y-65993765D01*
X95417268Y-66176170D01*
X95286055Y-66336055D01*
X95126170Y-66467268D01*
X94943765Y-66564766D01*
X94943762Y-66564767D01*
X94745836Y-66624807D01*
X94668707Y-66632404D01*
X94591580Y-66640000D01*
X94488420Y-66640000D01*
X94411293Y-66632404D01*
X94334164Y-66624807D01*
X94136238Y-66564767D01*
X94136235Y-66564766D01*
X93953830Y-66467268D01*
X93793945Y-66336055D01*
X93662732Y-66176170D01*
X93565234Y-65993765D01*
X93538350Y-65905139D01*
X93505193Y-65795836D01*
X93484920Y-65590000D01*
X93505193Y-65384164D01*
X93565233Y-65186238D01*
X93565234Y-65186235D01*
X93662732Y-65003830D01*
X93793945Y-64843945D01*
X93953830Y-64712732D01*
X94136235Y-64615234D01*
X94136238Y-64615233D01*
X94334164Y-64555193D01*
X94411293Y-64547597D01*
X94488420Y-64540000D01*
X94591580Y-64540000D01*
X94668707Y-64547597D01*
X94668707Y-64547597D01*
G37*
G36*
X97208707Y-64547597D02*
G01*
X97285836Y-64555193D01*
X97483762Y-64615233D01*
X97483765Y-64615234D01*
X97666170Y-64712732D01*
X97826055Y-64843945D01*
X97957268Y-65003830D01*
X98054766Y-65186235D01*
X98054767Y-65186238D01*
X98114807Y-65384164D01*
X98135080Y-65590000D01*
X98114807Y-65795836D01*
X98081650Y-65905139D01*
X98054766Y-65993765D01*
X97957268Y-66176170D01*
X97826055Y-66336055D01*
X97666170Y-66467268D01*
X97483765Y-66564766D01*
X97483762Y-66564767D01*
X97285836Y-66624807D01*
X97208707Y-66632404D01*
X97131580Y-66640000D01*
X97028420Y-66640000D01*
X96951293Y-66632404D01*
X96874164Y-66624807D01*
X96676238Y-66564767D01*
X96676235Y-66564766D01*
X96493830Y-66467268D01*
X96333945Y-66336055D01*
X96202732Y-66176170D01*
X96105234Y-65993765D01*
X96078350Y-65905139D01*
X96045193Y-65795836D01*
X96024920Y-65590000D01*
X96045193Y-65384164D01*
X96105233Y-65186238D01*
X96105234Y-65186235D01*
X96202732Y-65003830D01*
X96333945Y-64843945D01*
X96493830Y-64712732D01*
X96676235Y-64615234D01*
X96676238Y-64615233D01*
X96874164Y-64555193D01*
X96951293Y-64547597D01*
X97028420Y-64540000D01*
X97131580Y-64540000D01*
X97208707Y-64547597D01*
X97208707Y-64547597D01*
G37*
G36*
X109908707Y-64547597D02*
G01*
X109985836Y-64555193D01*
X110183762Y-64615233D01*
X110183765Y-64615234D01*
X110366170Y-64712732D01*
X110526055Y-64843945D01*
X110657268Y-65003830D01*
X110754766Y-65186235D01*
X110754767Y-65186238D01*
X110814807Y-65384164D01*
X110835080Y-65590000D01*
X110814807Y-65795836D01*
X110781650Y-65905139D01*
X110754766Y-65993765D01*
X110657268Y-66176170D01*
X110526055Y-66336055D01*
X110366170Y-66467268D01*
X110183765Y-66564766D01*
X110183762Y-66564767D01*
X109985836Y-66624807D01*
X109908707Y-66632404D01*
X109831580Y-66640000D01*
X109728420Y-66640000D01*
X109651293Y-66632404D01*
X109574164Y-66624807D01*
X109376238Y-66564767D01*
X109376235Y-66564766D01*
X109193830Y-66467268D01*
X109033945Y-66336055D01*
X108902732Y-66176170D01*
X108805234Y-65993765D01*
X108778350Y-65905139D01*
X108745193Y-65795836D01*
X108724920Y-65590000D01*
X108745193Y-65384164D01*
X108805233Y-65186238D01*
X108805234Y-65186235D01*
X108902732Y-65003830D01*
X109033945Y-64843945D01*
X109193830Y-64712732D01*
X109376235Y-64615234D01*
X109376238Y-64615233D01*
X109574164Y-64555193D01*
X109651293Y-64547597D01*
X109728420Y-64540000D01*
X109831580Y-64540000D01*
X109908707Y-64547597D01*
X109908707Y-64547597D01*
G37*
G36*
X107368707Y-64547597D02*
G01*
X107445836Y-64555193D01*
X107643762Y-64615233D01*
X107643765Y-64615234D01*
X107826170Y-64712732D01*
X107986055Y-64843945D01*
X108117268Y-65003830D01*
X108214766Y-65186235D01*
X108214767Y-65186238D01*
X108274807Y-65384164D01*
X108295080Y-65590000D01*
X108274807Y-65795836D01*
X108241650Y-65905139D01*
X108214766Y-65993765D01*
X108117268Y-66176170D01*
X107986055Y-66336055D01*
X107826170Y-66467268D01*
X107643765Y-66564766D01*
X107643762Y-66564767D01*
X107445836Y-66624807D01*
X107368707Y-66632404D01*
X107291580Y-66640000D01*
X107188420Y-66640000D01*
X107111293Y-66632404D01*
X107034164Y-66624807D01*
X106836238Y-66564767D01*
X106836235Y-66564766D01*
X106653830Y-66467268D01*
X106493945Y-66336055D01*
X106362732Y-66176170D01*
X106265234Y-65993765D01*
X106238350Y-65905139D01*
X106205193Y-65795836D01*
X106184920Y-65590000D01*
X106205193Y-65384164D01*
X106265233Y-65186238D01*
X106265234Y-65186235D01*
X106362732Y-65003830D01*
X106493945Y-64843945D01*
X106653830Y-64712732D01*
X106836235Y-64615234D01*
X106836238Y-64615233D01*
X107034164Y-64555193D01*
X107111293Y-64547597D01*
X107188420Y-64540000D01*
X107291580Y-64540000D01*
X107368707Y-64547597D01*
X107368707Y-64547597D01*
G37*
G36*
X102288707Y-64547597D02*
G01*
X102365836Y-64555193D01*
X102563762Y-64615233D01*
X102563765Y-64615234D01*
X102746170Y-64712732D01*
X102906055Y-64843945D01*
X103037268Y-65003830D01*
X103134766Y-65186235D01*
X103134767Y-65186238D01*
X103194807Y-65384164D01*
X103215080Y-65590000D01*
X103194807Y-65795836D01*
X103161650Y-65905139D01*
X103134766Y-65993765D01*
X103037268Y-66176170D01*
X102906055Y-66336055D01*
X102746170Y-66467268D01*
X102563765Y-66564766D01*
X102563762Y-66564767D01*
X102365836Y-66624807D01*
X102288707Y-66632404D01*
X102211580Y-66640000D01*
X102108420Y-66640000D01*
X102031293Y-66632404D01*
X101954164Y-66624807D01*
X101756238Y-66564767D01*
X101756235Y-66564766D01*
X101573830Y-66467268D01*
X101413945Y-66336055D01*
X101282732Y-66176170D01*
X101185234Y-65993765D01*
X101158350Y-65905139D01*
X101125193Y-65795836D01*
X101104920Y-65590000D01*
X101125193Y-65384164D01*
X101185233Y-65186238D01*
X101185234Y-65186235D01*
X101282732Y-65003830D01*
X101413945Y-64843945D01*
X101573830Y-64712732D01*
X101756235Y-64615234D01*
X101756238Y-64615233D01*
X101954164Y-64555193D01*
X102031293Y-64547597D01*
X102108420Y-64540000D01*
X102211580Y-64540000D01*
X102288707Y-64547597D01*
X102288707Y-64547597D01*
G37*
G36*
X117528707Y-64547597D02*
G01*
X117605836Y-64555193D01*
X117803762Y-64615233D01*
X117803765Y-64615234D01*
X117986170Y-64712732D01*
X118146055Y-64843945D01*
X118277268Y-65003830D01*
X118374766Y-65186235D01*
X118374767Y-65186238D01*
X118434807Y-65384164D01*
X118455080Y-65590000D01*
X118434807Y-65795836D01*
X118401650Y-65905139D01*
X118374766Y-65993765D01*
X118277268Y-66176170D01*
X118146055Y-66336055D01*
X117986170Y-66467268D01*
X117803765Y-66564766D01*
X117803762Y-66564767D01*
X117605836Y-66624807D01*
X117528707Y-66632404D01*
X117451580Y-66640000D01*
X117348420Y-66640000D01*
X117271293Y-66632404D01*
X117194164Y-66624807D01*
X116996238Y-66564767D01*
X116996235Y-66564766D01*
X116813830Y-66467268D01*
X116653945Y-66336055D01*
X116522732Y-66176170D01*
X116425234Y-65993765D01*
X116398350Y-65905139D01*
X116365193Y-65795836D01*
X116344920Y-65590000D01*
X116365193Y-65384164D01*
X116425233Y-65186238D01*
X116425234Y-65186235D01*
X116522732Y-65003830D01*
X116653945Y-64843945D01*
X116813830Y-64712732D01*
X116996235Y-64615234D01*
X116996238Y-64615233D01*
X117194164Y-64555193D01*
X117271293Y-64547597D01*
X117348420Y-64540000D01*
X117451580Y-64540000D01*
X117528707Y-64547597D01*
X117528707Y-64547597D01*
G37*
G36*
X120068707Y-64547597D02*
G01*
X120145836Y-64555193D01*
X120343762Y-64615233D01*
X120343765Y-64615234D01*
X120526170Y-64712732D01*
X120686055Y-64843945D01*
X120817268Y-65003830D01*
X120914766Y-65186235D01*
X120914767Y-65186238D01*
X120974807Y-65384164D01*
X120995080Y-65590000D01*
X120974807Y-65795836D01*
X120941650Y-65905139D01*
X120914766Y-65993765D01*
X120817268Y-66176170D01*
X120686055Y-66336055D01*
X120526170Y-66467268D01*
X120343765Y-66564766D01*
X120343762Y-66564767D01*
X120145836Y-66624807D01*
X120068707Y-66632404D01*
X119991580Y-66640000D01*
X119888420Y-66640000D01*
X119811293Y-66632404D01*
X119734164Y-66624807D01*
X119536238Y-66564767D01*
X119536235Y-66564766D01*
X119353830Y-66467268D01*
X119193945Y-66336055D01*
X119062732Y-66176170D01*
X118965234Y-65993765D01*
X118938350Y-65905139D01*
X118905193Y-65795836D01*
X118884920Y-65590000D01*
X118905193Y-65384164D01*
X118965233Y-65186238D01*
X118965234Y-65186235D01*
X119062732Y-65003830D01*
X119193945Y-64843945D01*
X119353830Y-64712732D01*
X119536235Y-64615234D01*
X119536238Y-64615233D01*
X119734164Y-64555193D01*
X119811293Y-64547597D01*
X119888420Y-64540000D01*
X119991580Y-64540000D01*
X120068707Y-64547597D01*
X120068707Y-64547597D01*
G37*
G36*
X122608707Y-64547597D02*
G01*
X122685836Y-64555193D01*
X122883762Y-64615233D01*
X122883765Y-64615234D01*
X123066170Y-64712732D01*
X123226055Y-64843945D01*
X123357268Y-65003830D01*
X123454766Y-65186235D01*
X123454767Y-65186238D01*
X123514807Y-65384164D01*
X123535080Y-65590000D01*
X123514807Y-65795836D01*
X123481650Y-65905139D01*
X123454766Y-65993765D01*
X123357268Y-66176170D01*
X123226055Y-66336055D01*
X123066170Y-66467268D01*
X122883765Y-66564766D01*
X122883762Y-66564767D01*
X122685836Y-66624807D01*
X122608707Y-66632404D01*
X122531580Y-66640000D01*
X122428420Y-66640000D01*
X122351293Y-66632404D01*
X122274164Y-66624807D01*
X122076238Y-66564767D01*
X122076235Y-66564766D01*
X121893830Y-66467268D01*
X121733945Y-66336055D01*
X121602732Y-66176170D01*
X121505234Y-65993765D01*
X121478350Y-65905139D01*
X121445193Y-65795836D01*
X121424920Y-65590000D01*
X121445193Y-65384164D01*
X121505233Y-65186238D01*
X121505234Y-65186235D01*
X121602732Y-65003830D01*
X121733945Y-64843945D01*
X121893830Y-64712732D01*
X122076235Y-64615234D01*
X122076238Y-64615233D01*
X122274164Y-64555193D01*
X122351293Y-64547597D01*
X122428420Y-64540000D01*
X122531580Y-64540000D01*
X122608707Y-64547597D01*
X122608707Y-64547597D01*
G37*
G36*
X125148707Y-64547597D02*
G01*
X125225836Y-64555193D01*
X125423762Y-64615233D01*
X125423765Y-64615234D01*
X125606170Y-64712732D01*
X125766055Y-64843945D01*
X125897268Y-65003830D01*
X125994766Y-65186235D01*
X125994767Y-65186238D01*
X126054807Y-65384164D01*
X126075080Y-65590000D01*
X126054807Y-65795836D01*
X126021650Y-65905139D01*
X125994766Y-65993765D01*
X125897268Y-66176170D01*
X125766055Y-66336055D01*
X125606170Y-66467268D01*
X125423765Y-66564766D01*
X125423762Y-66564767D01*
X125225836Y-66624807D01*
X125148707Y-66632404D01*
X125071580Y-66640000D01*
X124968420Y-66640000D01*
X124891293Y-66632404D01*
X124814164Y-66624807D01*
X124616238Y-66564767D01*
X124616235Y-66564766D01*
X124433830Y-66467268D01*
X124273945Y-66336055D01*
X124142732Y-66176170D01*
X124045234Y-65993765D01*
X124018350Y-65905139D01*
X123985193Y-65795836D01*
X123964920Y-65590000D01*
X123985193Y-65384164D01*
X124045233Y-65186238D01*
X124045234Y-65186235D01*
X124142732Y-65003830D01*
X124273945Y-64843945D01*
X124433830Y-64712732D01*
X124616235Y-64615234D01*
X124616238Y-64615233D01*
X124814164Y-64555193D01*
X124891293Y-64547597D01*
X124968420Y-64540000D01*
X125071580Y-64540000D01*
X125148707Y-64547597D01*
X125148707Y-64547597D01*
G37*
G36*
X127688707Y-64547597D02*
G01*
X127765836Y-64555193D01*
X127963762Y-64615233D01*
X127963765Y-64615234D01*
X128146170Y-64712732D01*
X128306055Y-64843945D01*
X128437268Y-65003830D01*
X128534766Y-65186235D01*
X128534767Y-65186238D01*
X128594807Y-65384164D01*
X128615080Y-65590000D01*
X128594807Y-65795836D01*
X128561650Y-65905139D01*
X128534766Y-65993765D01*
X128437268Y-66176170D01*
X128306055Y-66336055D01*
X128146170Y-66467268D01*
X127963765Y-66564766D01*
X127963762Y-66564767D01*
X127765836Y-66624807D01*
X127688707Y-66632404D01*
X127611580Y-66640000D01*
X127508420Y-66640000D01*
X127431293Y-66632404D01*
X127354164Y-66624807D01*
X127156238Y-66564767D01*
X127156235Y-66564766D01*
X126973830Y-66467268D01*
X126813945Y-66336055D01*
X126682732Y-66176170D01*
X126585234Y-65993765D01*
X126558350Y-65905139D01*
X126525193Y-65795836D01*
X126504920Y-65590000D01*
X126525193Y-65384164D01*
X126585233Y-65186238D01*
X126585234Y-65186235D01*
X126682732Y-65003830D01*
X126813945Y-64843945D01*
X126973830Y-64712732D01*
X127156235Y-64615234D01*
X127156238Y-64615233D01*
X127354164Y-64555193D01*
X127431293Y-64547597D01*
X127508420Y-64540000D01*
X127611580Y-64540000D01*
X127688707Y-64547597D01*
X127688707Y-64547597D01*
G37*
G36*
X130228707Y-64547597D02*
G01*
X130305836Y-64555193D01*
X130503762Y-64615233D01*
X130503765Y-64615234D01*
X130686170Y-64712732D01*
X130846055Y-64843945D01*
X130977268Y-65003830D01*
X131074766Y-65186235D01*
X131074767Y-65186238D01*
X131134807Y-65384164D01*
X131155080Y-65590000D01*
X131134807Y-65795836D01*
X131101650Y-65905139D01*
X131074766Y-65993765D01*
X130977268Y-66176170D01*
X130846055Y-66336055D01*
X130686170Y-66467268D01*
X130503765Y-66564766D01*
X130503762Y-66564767D01*
X130305836Y-66624807D01*
X130228707Y-66632404D01*
X130151580Y-66640000D01*
X130048420Y-66640000D01*
X129971293Y-66632404D01*
X129894164Y-66624807D01*
X129696238Y-66564767D01*
X129696235Y-66564766D01*
X129513830Y-66467268D01*
X129353945Y-66336055D01*
X129222732Y-66176170D01*
X129125234Y-65993765D01*
X129098350Y-65905139D01*
X129065193Y-65795836D01*
X129044920Y-65590000D01*
X129065193Y-65384164D01*
X129125233Y-65186238D01*
X129125234Y-65186235D01*
X129222732Y-65003830D01*
X129353945Y-64843945D01*
X129513830Y-64712732D01*
X129696235Y-64615234D01*
X129696238Y-64615233D01*
X129894164Y-64555193D01*
X129971293Y-64547597D01*
X130048420Y-64540000D01*
X130151580Y-64540000D01*
X130228707Y-64547597D01*
X130228707Y-64547597D01*
G37*
G36*
X132768707Y-64547597D02*
G01*
X132845836Y-64555193D01*
X133043762Y-64615233D01*
X133043765Y-64615234D01*
X133226170Y-64712732D01*
X133386055Y-64843945D01*
X133517268Y-65003830D01*
X133614766Y-65186235D01*
X133614767Y-65186238D01*
X133674807Y-65384164D01*
X133695080Y-65590000D01*
X133674807Y-65795836D01*
X133641650Y-65905139D01*
X133614766Y-65993765D01*
X133517268Y-66176170D01*
X133386055Y-66336055D01*
X133226170Y-66467268D01*
X133043765Y-66564766D01*
X133043762Y-66564767D01*
X132845836Y-66624807D01*
X132768707Y-66632404D01*
X132691580Y-66640000D01*
X132588420Y-66640000D01*
X132511293Y-66632404D01*
X132434164Y-66624807D01*
X132236238Y-66564767D01*
X132236235Y-66564766D01*
X132053830Y-66467268D01*
X131893945Y-66336055D01*
X131762732Y-66176170D01*
X131665234Y-65993765D01*
X131638350Y-65905139D01*
X131605193Y-65795836D01*
X131584920Y-65590000D01*
X131605193Y-65384164D01*
X131665233Y-65186238D01*
X131665234Y-65186235D01*
X131762732Y-65003830D01*
X131893945Y-64843945D01*
X132053830Y-64712732D01*
X132236235Y-64615234D01*
X132236238Y-64615233D01*
X132434164Y-64555193D01*
X132511293Y-64547597D01*
X132588420Y-64540000D01*
X132691580Y-64540000D01*
X132768707Y-64547597D01*
X132768707Y-64547597D01*
G37*
G36*
X135308707Y-64547597D02*
G01*
X135385836Y-64555193D01*
X135583762Y-64615233D01*
X135583765Y-64615234D01*
X135766170Y-64712732D01*
X135926055Y-64843945D01*
X136057268Y-65003830D01*
X136154766Y-65186235D01*
X136154767Y-65186238D01*
X136214807Y-65384164D01*
X136235080Y-65590000D01*
X136214807Y-65795836D01*
X136181650Y-65905139D01*
X136154766Y-65993765D01*
X136057268Y-66176170D01*
X135926055Y-66336055D01*
X135766170Y-66467268D01*
X135583765Y-66564766D01*
X135583762Y-66564767D01*
X135385836Y-66624807D01*
X135308707Y-66632404D01*
X135231580Y-66640000D01*
X135128420Y-66640000D01*
X135051293Y-66632404D01*
X134974164Y-66624807D01*
X134776238Y-66564767D01*
X134776235Y-66564766D01*
X134593830Y-66467268D01*
X134433945Y-66336055D01*
X134302732Y-66176170D01*
X134205234Y-65993765D01*
X134178350Y-65905139D01*
X134145193Y-65795836D01*
X134124920Y-65590000D01*
X134145193Y-65384164D01*
X134205233Y-65186238D01*
X134205234Y-65186235D01*
X134302732Y-65003830D01*
X134433945Y-64843945D01*
X134593830Y-64712732D01*
X134776235Y-64615234D01*
X134776238Y-64615233D01*
X134974164Y-64555193D01*
X135051293Y-64547597D01*
X135128420Y-64540000D01*
X135231580Y-64540000D01*
X135308707Y-64547597D01*
X135308707Y-64547597D01*
G37*
G36*
X92128707Y-64547597D02*
G01*
X92205836Y-64555193D01*
X92403762Y-64615233D01*
X92403765Y-64615234D01*
X92586170Y-64712732D01*
X92746055Y-64843945D01*
X92877268Y-65003830D01*
X92974766Y-65186235D01*
X92974767Y-65186238D01*
X93034807Y-65384164D01*
X93055080Y-65590000D01*
X93034807Y-65795836D01*
X93001650Y-65905139D01*
X92974766Y-65993765D01*
X92877268Y-66176170D01*
X92746055Y-66336055D01*
X92586170Y-66467268D01*
X92403765Y-66564766D01*
X92403762Y-66564767D01*
X92205836Y-66624807D01*
X92128707Y-66632404D01*
X92051580Y-66640000D01*
X91948420Y-66640000D01*
X91871293Y-66632404D01*
X91794164Y-66624807D01*
X91596238Y-66564767D01*
X91596235Y-66564766D01*
X91413830Y-66467268D01*
X91253945Y-66336055D01*
X91122732Y-66176170D01*
X91025234Y-65993765D01*
X90998350Y-65905139D01*
X90965193Y-65795836D01*
X90944920Y-65590000D01*
X90965193Y-65384164D01*
X91025233Y-65186238D01*
X91025234Y-65186235D01*
X91122732Y-65003830D01*
X91253945Y-64843945D01*
X91413830Y-64712732D01*
X91596235Y-64615234D01*
X91596238Y-64615233D01*
X91794164Y-64555193D01*
X91871293Y-64547597D01*
X91948420Y-64540000D01*
X92051580Y-64540000D01*
X92128707Y-64547597D01*
X92128707Y-64547597D01*
G37*
G36*
X114988707Y-64547597D02*
G01*
X115065836Y-64555193D01*
X115263762Y-64615233D01*
X115263765Y-64615234D01*
X115446170Y-64712732D01*
X115606055Y-64843945D01*
X115737268Y-65003830D01*
X115834766Y-65186235D01*
X115834767Y-65186238D01*
X115894807Y-65384164D01*
X115915080Y-65590000D01*
X115894807Y-65795836D01*
X115861650Y-65905139D01*
X115834766Y-65993765D01*
X115737268Y-66176170D01*
X115606055Y-66336055D01*
X115446170Y-66467268D01*
X115263765Y-66564766D01*
X115263762Y-66564767D01*
X115065836Y-66624807D01*
X114988707Y-66632404D01*
X114911580Y-66640000D01*
X114808420Y-66640000D01*
X114731293Y-66632404D01*
X114654164Y-66624807D01*
X114456238Y-66564767D01*
X114456235Y-66564766D01*
X114273830Y-66467268D01*
X114113945Y-66336055D01*
X113982732Y-66176170D01*
X113885234Y-65993765D01*
X113858350Y-65905139D01*
X113825193Y-65795836D01*
X113804920Y-65590000D01*
X113825193Y-65384164D01*
X113885233Y-65186238D01*
X113885234Y-65186235D01*
X113982732Y-65003830D01*
X114113945Y-64843945D01*
X114273830Y-64712732D01*
X114456235Y-64615234D01*
X114456238Y-64615233D01*
X114654164Y-64555193D01*
X114731293Y-64547597D01*
X114808420Y-64540000D01*
X114911580Y-64540000D01*
X114988707Y-64547597D01*
X114988707Y-64547597D01*
G37*
G36*
X140391162Y-62564586D02*
G01*
X140565041Y-62599173D01*
X140892620Y-62734861D01*
X141187433Y-62931849D01*
X141438151Y-63182567D01*
X141635139Y-63477380D01*
X141770827Y-63804959D01*
X141795156Y-63927268D01*
X141840000Y-64152714D01*
X141840000Y-64507286D01*
X141805413Y-64681163D01*
X141770827Y-64855041D01*
X141635139Y-65182620D01*
X141438151Y-65477433D01*
X141187433Y-65728151D01*
X140892620Y-65925139D01*
X140565041Y-66060827D01*
X140391163Y-66095413D01*
X140217286Y-66130000D01*
X139862714Y-66130000D01*
X139688837Y-66095413D01*
X139514959Y-66060827D01*
X139187380Y-65925139D01*
X138892567Y-65728151D01*
X138641849Y-65477433D01*
X138444861Y-65182620D01*
X138309173Y-64855041D01*
X138274586Y-64681162D01*
X138240000Y-64507286D01*
X138240000Y-64152714D01*
X138284844Y-63927268D01*
X138309173Y-63804959D01*
X138444861Y-63477380D01*
X138641849Y-63182567D01*
X138892567Y-62931849D01*
X139187380Y-62734861D01*
X139514959Y-62599173D01*
X139688838Y-62564586D01*
X139862714Y-62530000D01*
X140217286Y-62530000D01*
X140391162Y-62564586D01*
X140391162Y-62564586D01*
G37*
G36*
X82391162Y-62544586D02*
G01*
X82565041Y-62579173D01*
X82892620Y-62714861D01*
X83187433Y-62911849D01*
X83438151Y-63162567D01*
X83635139Y-63457380D01*
X83770827Y-63784959D01*
X83799134Y-63927267D01*
X83840000Y-64132714D01*
X83840000Y-64487286D01*
X83814549Y-64615234D01*
X83770827Y-64835041D01*
X83635139Y-65162620D01*
X83438151Y-65457433D01*
X83187433Y-65708151D01*
X82892620Y-65905139D01*
X82565041Y-66040827D01*
X82391163Y-66075413D01*
X82217286Y-66110000D01*
X81862714Y-66110000D01*
X81688837Y-66075413D01*
X81514959Y-66040827D01*
X81187380Y-65905139D01*
X80892567Y-65708151D01*
X80641849Y-65457433D01*
X80444861Y-65162620D01*
X80309173Y-64835041D01*
X80265451Y-64615234D01*
X80240000Y-64487286D01*
X80240000Y-64132714D01*
X80280866Y-63927267D01*
X80309173Y-63784959D01*
X80444861Y-63457380D01*
X80641849Y-63162567D01*
X80892567Y-62911849D01*
X81187380Y-62714861D01*
X81514959Y-62579173D01*
X81688838Y-62544586D01*
X81862714Y-62510000D01*
X82217286Y-62510000D01*
X82391162Y-62544586D01*
X82391162Y-62544586D01*
G37*
G36*
X97208707Y-62007596D02*
G01*
X97285836Y-62015193D01*
X97483762Y-62075233D01*
X97483765Y-62075234D01*
X97666170Y-62172732D01*
X97826055Y-62303945D01*
X97957268Y-62463830D01*
X98054766Y-62646235D01*
X98054767Y-62646238D01*
X98114807Y-62844164D01*
X98135080Y-63050000D01*
X98114807Y-63255836D01*
X98054767Y-63453762D01*
X98054766Y-63453765D01*
X97957268Y-63636170D01*
X97826055Y-63796055D01*
X97666170Y-63927268D01*
X97483765Y-64024766D01*
X97483762Y-64024767D01*
X97285836Y-64084807D01*
X97208707Y-64092403D01*
X97131580Y-64100000D01*
X97028420Y-64100000D01*
X96951293Y-64092403D01*
X96874164Y-64084807D01*
X96676238Y-64024767D01*
X96676235Y-64024766D01*
X96493830Y-63927268D01*
X96333945Y-63796055D01*
X96202732Y-63636170D01*
X96105234Y-63453765D01*
X96105233Y-63453762D01*
X96045193Y-63255836D01*
X96024920Y-63050000D01*
X96045193Y-62844164D01*
X96105233Y-62646238D01*
X96105234Y-62646235D01*
X96202732Y-62463830D01*
X96333945Y-62303945D01*
X96493830Y-62172732D01*
X96676235Y-62075234D01*
X96676238Y-62075233D01*
X96874164Y-62015193D01*
X96951293Y-62007596D01*
X97028420Y-62000000D01*
X97131580Y-62000000D01*
X97208707Y-62007596D01*
X97208707Y-62007596D01*
G37*
G36*
X132768707Y-62007596D02*
G01*
X132845836Y-62015193D01*
X133043762Y-62075233D01*
X133043765Y-62075234D01*
X133226170Y-62172732D01*
X133386055Y-62303945D01*
X133517268Y-62463830D01*
X133614766Y-62646235D01*
X133614767Y-62646238D01*
X133674807Y-62844164D01*
X133695080Y-63050000D01*
X133674807Y-63255836D01*
X133614767Y-63453762D01*
X133614766Y-63453765D01*
X133517268Y-63636170D01*
X133386055Y-63796055D01*
X133226170Y-63927268D01*
X133043765Y-64024766D01*
X133043762Y-64024767D01*
X132845836Y-64084807D01*
X132768707Y-64092403D01*
X132691580Y-64100000D01*
X132588420Y-64100000D01*
X132511293Y-64092403D01*
X132434164Y-64084807D01*
X132236238Y-64024767D01*
X132236235Y-64024766D01*
X132053830Y-63927268D01*
X131893945Y-63796055D01*
X131762732Y-63636170D01*
X131665234Y-63453765D01*
X131665233Y-63453762D01*
X131605193Y-63255836D01*
X131584920Y-63050000D01*
X131605193Y-62844164D01*
X131665233Y-62646238D01*
X131665234Y-62646235D01*
X131762732Y-62463830D01*
X131893945Y-62303945D01*
X132053830Y-62172732D01*
X132236235Y-62075234D01*
X132236238Y-62075233D01*
X132434164Y-62015193D01*
X132511293Y-62007596D01*
X132588420Y-62000000D01*
X132691580Y-62000000D01*
X132768707Y-62007596D01*
X132768707Y-62007596D01*
G37*
G36*
X130228707Y-62007596D02*
G01*
X130305836Y-62015193D01*
X130503762Y-62075233D01*
X130503765Y-62075234D01*
X130686170Y-62172732D01*
X130846055Y-62303945D01*
X130977268Y-62463830D01*
X131074766Y-62646235D01*
X131074767Y-62646238D01*
X131134807Y-62844164D01*
X131155080Y-63050000D01*
X131134807Y-63255836D01*
X131074767Y-63453762D01*
X131074766Y-63453765D01*
X130977268Y-63636170D01*
X130846055Y-63796055D01*
X130686170Y-63927268D01*
X130503765Y-64024766D01*
X130503762Y-64024767D01*
X130305836Y-64084807D01*
X130228707Y-64092403D01*
X130151580Y-64100000D01*
X130048420Y-64100000D01*
X129971293Y-64092403D01*
X129894164Y-64084807D01*
X129696238Y-64024767D01*
X129696235Y-64024766D01*
X129513830Y-63927268D01*
X129353945Y-63796055D01*
X129222732Y-63636170D01*
X129125234Y-63453765D01*
X129125233Y-63453762D01*
X129065193Y-63255836D01*
X129044920Y-63050000D01*
X129065193Y-62844164D01*
X129125233Y-62646238D01*
X129125234Y-62646235D01*
X129222732Y-62463830D01*
X129353945Y-62303945D01*
X129513830Y-62172732D01*
X129696235Y-62075234D01*
X129696238Y-62075233D01*
X129894164Y-62015193D01*
X129971293Y-62007596D01*
X130048420Y-62000000D01*
X130151580Y-62000000D01*
X130228707Y-62007596D01*
X130228707Y-62007596D01*
G37*
G36*
X127688707Y-62007596D02*
G01*
X127765836Y-62015193D01*
X127963762Y-62075233D01*
X127963765Y-62075234D01*
X128146170Y-62172732D01*
X128306055Y-62303945D01*
X128437268Y-62463830D01*
X128534766Y-62646235D01*
X128534767Y-62646238D01*
X128594807Y-62844164D01*
X128615080Y-63050000D01*
X128594807Y-63255836D01*
X128534767Y-63453762D01*
X128534766Y-63453765D01*
X128437268Y-63636170D01*
X128306055Y-63796055D01*
X128146170Y-63927268D01*
X127963765Y-64024766D01*
X127963762Y-64024767D01*
X127765836Y-64084807D01*
X127688707Y-64092403D01*
X127611580Y-64100000D01*
X127508420Y-64100000D01*
X127431293Y-64092403D01*
X127354164Y-64084807D01*
X127156238Y-64024767D01*
X127156235Y-64024766D01*
X126973830Y-63927268D01*
X126813945Y-63796055D01*
X126682732Y-63636170D01*
X126585234Y-63453765D01*
X126585233Y-63453762D01*
X126525193Y-63255836D01*
X126504920Y-63050000D01*
X126525193Y-62844164D01*
X126585233Y-62646238D01*
X126585234Y-62646235D01*
X126682732Y-62463830D01*
X126813945Y-62303945D01*
X126973830Y-62172732D01*
X127156235Y-62075234D01*
X127156238Y-62075233D01*
X127354164Y-62015193D01*
X127431293Y-62007596D01*
X127508420Y-62000000D01*
X127611580Y-62000000D01*
X127688707Y-62007596D01*
X127688707Y-62007596D01*
G37*
G36*
X125148707Y-62007596D02*
G01*
X125225836Y-62015193D01*
X125423762Y-62075233D01*
X125423765Y-62075234D01*
X125606170Y-62172732D01*
X125766055Y-62303945D01*
X125897268Y-62463830D01*
X125994766Y-62646235D01*
X125994767Y-62646238D01*
X126054807Y-62844164D01*
X126075080Y-63050000D01*
X126054807Y-63255836D01*
X125994767Y-63453762D01*
X125994766Y-63453765D01*
X125897268Y-63636170D01*
X125766055Y-63796055D01*
X125606170Y-63927268D01*
X125423765Y-64024766D01*
X125423762Y-64024767D01*
X125225836Y-64084807D01*
X125148707Y-64092403D01*
X125071580Y-64100000D01*
X124968420Y-64100000D01*
X124891293Y-64092403D01*
X124814164Y-64084807D01*
X124616238Y-64024767D01*
X124616235Y-64024766D01*
X124433830Y-63927268D01*
X124273945Y-63796055D01*
X124142732Y-63636170D01*
X124045234Y-63453765D01*
X124045233Y-63453762D01*
X123985193Y-63255836D01*
X123964920Y-63050000D01*
X123985193Y-62844164D01*
X124045233Y-62646238D01*
X124045234Y-62646235D01*
X124142732Y-62463830D01*
X124273945Y-62303945D01*
X124433830Y-62172732D01*
X124616235Y-62075234D01*
X124616238Y-62075233D01*
X124814164Y-62015193D01*
X124891293Y-62007596D01*
X124968420Y-62000000D01*
X125071580Y-62000000D01*
X125148707Y-62007596D01*
X125148707Y-62007596D01*
G37*
G36*
X122608707Y-62007596D02*
G01*
X122685836Y-62015193D01*
X122883762Y-62075233D01*
X122883765Y-62075234D01*
X123066170Y-62172732D01*
X123226055Y-62303945D01*
X123357268Y-62463830D01*
X123454766Y-62646235D01*
X123454767Y-62646238D01*
X123514807Y-62844164D01*
X123535080Y-63050000D01*
X123514807Y-63255836D01*
X123454767Y-63453762D01*
X123454766Y-63453765D01*
X123357268Y-63636170D01*
X123226055Y-63796055D01*
X123066170Y-63927268D01*
X122883765Y-64024766D01*
X122883762Y-64024767D01*
X122685836Y-64084807D01*
X122608707Y-64092403D01*
X122531580Y-64100000D01*
X122428420Y-64100000D01*
X122351293Y-64092403D01*
X122274164Y-64084807D01*
X122076238Y-64024767D01*
X122076235Y-64024766D01*
X121893830Y-63927268D01*
X121733945Y-63796055D01*
X121602732Y-63636170D01*
X121505234Y-63453765D01*
X121505233Y-63453762D01*
X121445193Y-63255836D01*
X121424920Y-63050000D01*
X121445193Y-62844164D01*
X121505233Y-62646238D01*
X121505234Y-62646235D01*
X121602732Y-62463830D01*
X121733945Y-62303945D01*
X121893830Y-62172732D01*
X122076235Y-62075234D01*
X122076238Y-62075233D01*
X122274164Y-62015193D01*
X122351293Y-62007596D01*
X122428420Y-62000000D01*
X122531580Y-62000000D01*
X122608707Y-62007596D01*
X122608707Y-62007596D01*
G37*
G36*
X120068707Y-62007596D02*
G01*
X120145836Y-62015193D01*
X120343762Y-62075233D01*
X120343765Y-62075234D01*
X120526170Y-62172732D01*
X120686055Y-62303945D01*
X120817268Y-62463830D01*
X120914766Y-62646235D01*
X120914767Y-62646238D01*
X120974807Y-62844164D01*
X120995080Y-63050000D01*
X120974807Y-63255836D01*
X120914767Y-63453762D01*
X120914766Y-63453765D01*
X120817268Y-63636170D01*
X120686055Y-63796055D01*
X120526170Y-63927268D01*
X120343765Y-64024766D01*
X120343762Y-64024767D01*
X120145836Y-64084807D01*
X120068707Y-64092403D01*
X119991580Y-64100000D01*
X119888420Y-64100000D01*
X119811293Y-64092403D01*
X119734164Y-64084807D01*
X119536238Y-64024767D01*
X119536235Y-64024766D01*
X119353830Y-63927268D01*
X119193945Y-63796055D01*
X119062732Y-63636170D01*
X118965234Y-63453765D01*
X118965233Y-63453762D01*
X118905193Y-63255836D01*
X118884920Y-63050000D01*
X118905193Y-62844164D01*
X118965233Y-62646238D01*
X118965234Y-62646235D01*
X119062732Y-62463830D01*
X119193945Y-62303945D01*
X119353830Y-62172732D01*
X119536235Y-62075234D01*
X119536238Y-62075233D01*
X119734164Y-62015193D01*
X119811293Y-62007596D01*
X119888420Y-62000000D01*
X119991580Y-62000000D01*
X120068707Y-62007596D01*
X120068707Y-62007596D01*
G37*
G36*
X117528707Y-62007596D02*
G01*
X117605836Y-62015193D01*
X117803762Y-62075233D01*
X117803765Y-62075234D01*
X117986170Y-62172732D01*
X118146055Y-62303945D01*
X118277268Y-62463830D01*
X118374766Y-62646235D01*
X118374767Y-62646238D01*
X118434807Y-62844164D01*
X118455080Y-63050000D01*
X118434807Y-63255836D01*
X118374767Y-63453762D01*
X118374766Y-63453765D01*
X118277268Y-63636170D01*
X118146055Y-63796055D01*
X117986170Y-63927268D01*
X117803765Y-64024766D01*
X117803762Y-64024767D01*
X117605836Y-64084807D01*
X117528707Y-64092403D01*
X117451580Y-64100000D01*
X117348420Y-64100000D01*
X117271293Y-64092403D01*
X117194164Y-64084807D01*
X116996238Y-64024767D01*
X116996235Y-64024766D01*
X116813830Y-63927268D01*
X116653945Y-63796055D01*
X116522732Y-63636170D01*
X116425234Y-63453765D01*
X116425233Y-63453762D01*
X116365193Y-63255836D01*
X116344920Y-63050000D01*
X116365193Y-62844164D01*
X116425233Y-62646238D01*
X116425234Y-62646235D01*
X116522732Y-62463830D01*
X116653945Y-62303945D01*
X116813830Y-62172732D01*
X116996235Y-62075234D01*
X116996238Y-62075233D01*
X117194164Y-62015193D01*
X117271293Y-62007596D01*
X117348420Y-62000000D01*
X117451580Y-62000000D01*
X117528707Y-62007596D01*
X117528707Y-62007596D01*
G37*
G36*
X114988707Y-62007596D02*
G01*
X115065836Y-62015193D01*
X115263762Y-62075233D01*
X115263765Y-62075234D01*
X115446170Y-62172732D01*
X115606055Y-62303945D01*
X115737268Y-62463830D01*
X115834766Y-62646235D01*
X115834767Y-62646238D01*
X115894807Y-62844164D01*
X115915080Y-63050000D01*
X115894807Y-63255836D01*
X115834767Y-63453762D01*
X115834766Y-63453765D01*
X115737268Y-63636170D01*
X115606055Y-63796055D01*
X115446170Y-63927268D01*
X115263765Y-64024766D01*
X115263762Y-64024767D01*
X115065836Y-64084807D01*
X114988707Y-64092403D01*
X114911580Y-64100000D01*
X114808420Y-64100000D01*
X114731293Y-64092403D01*
X114654164Y-64084807D01*
X114456238Y-64024767D01*
X114456235Y-64024766D01*
X114273830Y-63927268D01*
X114113945Y-63796055D01*
X113982732Y-63636170D01*
X113885234Y-63453765D01*
X113885233Y-63453762D01*
X113825193Y-63255836D01*
X113804920Y-63050000D01*
X113825193Y-62844164D01*
X113885233Y-62646238D01*
X113885234Y-62646235D01*
X113982732Y-62463830D01*
X114113945Y-62303945D01*
X114273830Y-62172732D01*
X114456235Y-62075234D01*
X114456238Y-62075233D01*
X114654164Y-62015193D01*
X114731293Y-62007596D01*
X114808420Y-62000000D01*
X114911580Y-62000000D01*
X114988707Y-62007596D01*
X114988707Y-62007596D01*
G37*
G36*
X112448707Y-62007596D02*
G01*
X112525836Y-62015193D01*
X112723762Y-62075233D01*
X112723765Y-62075234D01*
X112906170Y-62172732D01*
X113066055Y-62303945D01*
X113197268Y-62463830D01*
X113294766Y-62646235D01*
X113294767Y-62646238D01*
X113354807Y-62844164D01*
X113375080Y-63050000D01*
X113354807Y-63255836D01*
X113294767Y-63453762D01*
X113294766Y-63453765D01*
X113197268Y-63636170D01*
X113066055Y-63796055D01*
X112906170Y-63927268D01*
X112723765Y-64024766D01*
X112723762Y-64024767D01*
X112525836Y-64084807D01*
X112448707Y-64092403D01*
X112371580Y-64100000D01*
X112268420Y-64100000D01*
X112191293Y-64092403D01*
X112114164Y-64084807D01*
X111916238Y-64024767D01*
X111916235Y-64024766D01*
X111733830Y-63927268D01*
X111573945Y-63796055D01*
X111442732Y-63636170D01*
X111345234Y-63453765D01*
X111345233Y-63453762D01*
X111285193Y-63255836D01*
X111264920Y-63050000D01*
X111285193Y-62844164D01*
X111345233Y-62646238D01*
X111345234Y-62646235D01*
X111442732Y-62463830D01*
X111573945Y-62303945D01*
X111733830Y-62172732D01*
X111916235Y-62075234D01*
X111916238Y-62075233D01*
X112114164Y-62015193D01*
X112191293Y-62007596D01*
X112268420Y-62000000D01*
X112371580Y-62000000D01*
X112448707Y-62007596D01*
X112448707Y-62007596D01*
G37*
G36*
X109908707Y-62007596D02*
G01*
X109985836Y-62015193D01*
X110183762Y-62075233D01*
X110183765Y-62075234D01*
X110366170Y-62172732D01*
X110526055Y-62303945D01*
X110657268Y-62463830D01*
X110754766Y-62646235D01*
X110754767Y-62646238D01*
X110814807Y-62844164D01*
X110835080Y-63050000D01*
X110814807Y-63255836D01*
X110754767Y-63453762D01*
X110754766Y-63453765D01*
X110657268Y-63636170D01*
X110526055Y-63796055D01*
X110366170Y-63927268D01*
X110183765Y-64024766D01*
X110183762Y-64024767D01*
X109985836Y-64084807D01*
X109908707Y-64092403D01*
X109831580Y-64100000D01*
X109728420Y-64100000D01*
X109651293Y-64092403D01*
X109574164Y-64084807D01*
X109376238Y-64024767D01*
X109376235Y-64024766D01*
X109193830Y-63927268D01*
X109033945Y-63796055D01*
X108902732Y-63636170D01*
X108805234Y-63453765D01*
X108805233Y-63453762D01*
X108745193Y-63255836D01*
X108724920Y-63050000D01*
X108745193Y-62844164D01*
X108805233Y-62646238D01*
X108805234Y-62646235D01*
X108902732Y-62463830D01*
X109033945Y-62303945D01*
X109193830Y-62172732D01*
X109376235Y-62075234D01*
X109376238Y-62075233D01*
X109574164Y-62015193D01*
X109651293Y-62007596D01*
X109728420Y-62000000D01*
X109831580Y-62000000D01*
X109908707Y-62007596D01*
X109908707Y-62007596D01*
G37*
G36*
X107368707Y-62007596D02*
G01*
X107445836Y-62015193D01*
X107643762Y-62075233D01*
X107643765Y-62075234D01*
X107826170Y-62172732D01*
X107986055Y-62303945D01*
X108117268Y-62463830D01*
X108214766Y-62646235D01*
X108214767Y-62646238D01*
X108274807Y-62844164D01*
X108295080Y-63050000D01*
X108274807Y-63255836D01*
X108214767Y-63453762D01*
X108214766Y-63453765D01*
X108117268Y-63636170D01*
X107986055Y-63796055D01*
X107826170Y-63927268D01*
X107643765Y-64024766D01*
X107643762Y-64024767D01*
X107445836Y-64084807D01*
X107368707Y-64092403D01*
X107291580Y-64100000D01*
X107188420Y-64100000D01*
X107111293Y-64092403D01*
X107034164Y-64084807D01*
X106836238Y-64024767D01*
X106836235Y-64024766D01*
X106653830Y-63927268D01*
X106493945Y-63796055D01*
X106362732Y-63636170D01*
X106265234Y-63453765D01*
X106265233Y-63453762D01*
X106205193Y-63255836D01*
X106184920Y-63050000D01*
X106205193Y-62844164D01*
X106265233Y-62646238D01*
X106265234Y-62646235D01*
X106362732Y-62463830D01*
X106493945Y-62303945D01*
X106653830Y-62172732D01*
X106836235Y-62075234D01*
X106836238Y-62075233D01*
X107034164Y-62015193D01*
X107111293Y-62007596D01*
X107188420Y-62000000D01*
X107291580Y-62000000D01*
X107368707Y-62007596D01*
X107368707Y-62007596D01*
G37*
G36*
X104828707Y-62007596D02*
G01*
X104905836Y-62015193D01*
X105103762Y-62075233D01*
X105103765Y-62075234D01*
X105286170Y-62172732D01*
X105446055Y-62303945D01*
X105577268Y-62463830D01*
X105674766Y-62646235D01*
X105674767Y-62646238D01*
X105734807Y-62844164D01*
X105755080Y-63050000D01*
X105734807Y-63255836D01*
X105674767Y-63453762D01*
X105674766Y-63453765D01*
X105577268Y-63636170D01*
X105446055Y-63796055D01*
X105286170Y-63927268D01*
X105103765Y-64024766D01*
X105103762Y-64024767D01*
X104905836Y-64084807D01*
X104828707Y-64092403D01*
X104751580Y-64100000D01*
X104648420Y-64100000D01*
X104571293Y-64092403D01*
X104494164Y-64084807D01*
X104296238Y-64024767D01*
X104296235Y-64024766D01*
X104113830Y-63927268D01*
X103953945Y-63796055D01*
X103822732Y-63636170D01*
X103725234Y-63453765D01*
X103725233Y-63453762D01*
X103665193Y-63255836D01*
X103644920Y-63050000D01*
X103665193Y-62844164D01*
X103725233Y-62646238D01*
X103725234Y-62646235D01*
X103822732Y-62463830D01*
X103953945Y-62303945D01*
X104113830Y-62172732D01*
X104296235Y-62075234D01*
X104296238Y-62075233D01*
X104494164Y-62015193D01*
X104571293Y-62007596D01*
X104648420Y-62000000D01*
X104751580Y-62000000D01*
X104828707Y-62007596D01*
X104828707Y-62007596D01*
G37*
G36*
X102288707Y-62007596D02*
G01*
X102365836Y-62015193D01*
X102563762Y-62075233D01*
X102563765Y-62075234D01*
X102746170Y-62172732D01*
X102906055Y-62303945D01*
X103037268Y-62463830D01*
X103134766Y-62646235D01*
X103134767Y-62646238D01*
X103194807Y-62844164D01*
X103215080Y-63050000D01*
X103194807Y-63255836D01*
X103134767Y-63453762D01*
X103134766Y-63453765D01*
X103037268Y-63636170D01*
X102906055Y-63796055D01*
X102746170Y-63927268D01*
X102563765Y-64024766D01*
X102563762Y-64024767D01*
X102365836Y-64084807D01*
X102288707Y-64092403D01*
X102211580Y-64100000D01*
X102108420Y-64100000D01*
X102031293Y-64092403D01*
X101954164Y-64084807D01*
X101756238Y-64024767D01*
X101756235Y-64024766D01*
X101573830Y-63927268D01*
X101413945Y-63796055D01*
X101282732Y-63636170D01*
X101185234Y-63453765D01*
X101185233Y-63453762D01*
X101125193Y-63255836D01*
X101104920Y-63050000D01*
X101125193Y-62844164D01*
X101185233Y-62646238D01*
X101185234Y-62646235D01*
X101282732Y-62463830D01*
X101413945Y-62303945D01*
X101573830Y-62172732D01*
X101756235Y-62075234D01*
X101756238Y-62075233D01*
X101954164Y-62015193D01*
X102031293Y-62007596D01*
X102108420Y-62000000D01*
X102211580Y-62000000D01*
X102288707Y-62007596D01*
X102288707Y-62007596D01*
G37*
G36*
X87048707Y-62007596D02*
G01*
X87125836Y-62015193D01*
X87323762Y-62075233D01*
X87323765Y-62075234D01*
X87506170Y-62172732D01*
X87666055Y-62303945D01*
X87797268Y-62463830D01*
X87894766Y-62646235D01*
X87894767Y-62646238D01*
X87954807Y-62844164D01*
X87975080Y-63050000D01*
X87954807Y-63255836D01*
X87894767Y-63453762D01*
X87894766Y-63453765D01*
X87797268Y-63636170D01*
X87666055Y-63796055D01*
X87506170Y-63927268D01*
X87323765Y-64024766D01*
X87323762Y-64024767D01*
X87125836Y-64084807D01*
X87048707Y-64092403D01*
X86971580Y-64100000D01*
X86868420Y-64100000D01*
X86791293Y-64092403D01*
X86714164Y-64084807D01*
X86516238Y-64024767D01*
X86516235Y-64024766D01*
X86333830Y-63927268D01*
X86173945Y-63796055D01*
X86042732Y-63636170D01*
X85945234Y-63453765D01*
X85945233Y-63453762D01*
X85885193Y-63255836D01*
X85864920Y-63050000D01*
X85885193Y-62844164D01*
X85945233Y-62646238D01*
X85945234Y-62646235D01*
X86042732Y-62463830D01*
X86173945Y-62303945D01*
X86333830Y-62172732D01*
X86516235Y-62075234D01*
X86516238Y-62075233D01*
X86714164Y-62015193D01*
X86791293Y-62007596D01*
X86868420Y-62000000D01*
X86971580Y-62000000D01*
X87048707Y-62007596D01*
X87048707Y-62007596D01*
G37*
G36*
X89588707Y-62007596D02*
G01*
X89665836Y-62015193D01*
X89863762Y-62075233D01*
X89863765Y-62075234D01*
X90046170Y-62172732D01*
X90206055Y-62303945D01*
X90337268Y-62463830D01*
X90434766Y-62646235D01*
X90434767Y-62646238D01*
X90494807Y-62844164D01*
X90515080Y-63050000D01*
X90494807Y-63255836D01*
X90434767Y-63453762D01*
X90434766Y-63453765D01*
X90337268Y-63636170D01*
X90206055Y-63796055D01*
X90046170Y-63927268D01*
X89863765Y-64024766D01*
X89863762Y-64024767D01*
X89665836Y-64084807D01*
X89588707Y-64092403D01*
X89511580Y-64100000D01*
X89408420Y-64100000D01*
X89331293Y-64092403D01*
X89254164Y-64084807D01*
X89056238Y-64024767D01*
X89056235Y-64024766D01*
X88873830Y-63927268D01*
X88713945Y-63796055D01*
X88582732Y-63636170D01*
X88485234Y-63453765D01*
X88485233Y-63453762D01*
X88425193Y-63255836D01*
X88404920Y-63050000D01*
X88425193Y-62844164D01*
X88485233Y-62646238D01*
X88485234Y-62646235D01*
X88582732Y-62463830D01*
X88713945Y-62303945D01*
X88873830Y-62172732D01*
X89056235Y-62075234D01*
X89056238Y-62075233D01*
X89254164Y-62015193D01*
X89331293Y-62007596D01*
X89408420Y-62000000D01*
X89511580Y-62000000D01*
X89588707Y-62007596D01*
X89588707Y-62007596D01*
G37*
G36*
X92128707Y-62007596D02*
G01*
X92205836Y-62015193D01*
X92403762Y-62075233D01*
X92403765Y-62075234D01*
X92586170Y-62172732D01*
X92746055Y-62303945D01*
X92877268Y-62463830D01*
X92974766Y-62646235D01*
X92974767Y-62646238D01*
X93034807Y-62844164D01*
X93055080Y-63050000D01*
X93034807Y-63255836D01*
X92974767Y-63453762D01*
X92974766Y-63453765D01*
X92877268Y-63636170D01*
X92746055Y-63796055D01*
X92586170Y-63927268D01*
X92403765Y-64024766D01*
X92403762Y-64024767D01*
X92205836Y-64084807D01*
X92128707Y-64092403D01*
X92051580Y-64100000D01*
X91948420Y-64100000D01*
X91871293Y-64092403D01*
X91794164Y-64084807D01*
X91596238Y-64024767D01*
X91596235Y-64024766D01*
X91413830Y-63927268D01*
X91253945Y-63796055D01*
X91122732Y-63636170D01*
X91025234Y-63453765D01*
X91025233Y-63453762D01*
X90965193Y-63255836D01*
X90944920Y-63050000D01*
X90965193Y-62844164D01*
X91025233Y-62646238D01*
X91025234Y-62646235D01*
X91122732Y-62463830D01*
X91253945Y-62303945D01*
X91413830Y-62172732D01*
X91596235Y-62075234D01*
X91596238Y-62075233D01*
X91794164Y-62015193D01*
X91871293Y-62007596D01*
X91948420Y-62000000D01*
X92051580Y-62000000D01*
X92128707Y-62007596D01*
X92128707Y-62007596D01*
G37*
G36*
X94668707Y-62007596D02*
G01*
X94745836Y-62015193D01*
X94943762Y-62075233D01*
X94943765Y-62075234D01*
X95126170Y-62172732D01*
X95286055Y-62303945D01*
X95417268Y-62463830D01*
X95514766Y-62646235D01*
X95514767Y-62646238D01*
X95574807Y-62844164D01*
X95595080Y-63050000D01*
X95574807Y-63255836D01*
X95514767Y-63453762D01*
X95514766Y-63453765D01*
X95417268Y-63636170D01*
X95286055Y-63796055D01*
X95126170Y-63927268D01*
X94943765Y-64024766D01*
X94943762Y-64024767D01*
X94745836Y-64084807D01*
X94668707Y-64092403D01*
X94591580Y-64100000D01*
X94488420Y-64100000D01*
X94411293Y-64092403D01*
X94334164Y-64084807D01*
X94136238Y-64024767D01*
X94136235Y-64024766D01*
X93953830Y-63927268D01*
X93793945Y-63796055D01*
X93662732Y-63636170D01*
X93565234Y-63453765D01*
X93565233Y-63453762D01*
X93505193Y-63255836D01*
X93484920Y-63050000D01*
X93505193Y-62844164D01*
X93565233Y-62646238D01*
X93565234Y-62646235D01*
X93662732Y-62463830D01*
X93793945Y-62303945D01*
X93953830Y-62172732D01*
X94136235Y-62075234D01*
X94136238Y-62075233D01*
X94334164Y-62015193D01*
X94411293Y-62007596D01*
X94488420Y-62000000D01*
X94591580Y-62000000D01*
X94668707Y-62007596D01*
X94668707Y-62007596D01*
G37*
G36*
X135308707Y-62007596D02*
G01*
X135385836Y-62015193D01*
X135583762Y-62075233D01*
X135583765Y-62075234D01*
X135766170Y-62172732D01*
X135926055Y-62303945D01*
X136057268Y-62463830D01*
X136154766Y-62646235D01*
X136154767Y-62646238D01*
X136214807Y-62844164D01*
X136235080Y-63050000D01*
X136214807Y-63255836D01*
X136154767Y-63453762D01*
X136154766Y-63453765D01*
X136057268Y-63636170D01*
X135926055Y-63796055D01*
X135766170Y-63927268D01*
X135583765Y-64024766D01*
X135583762Y-64024767D01*
X135385836Y-64084807D01*
X135308707Y-64092403D01*
X135231580Y-64100000D01*
X135128420Y-64100000D01*
X135051293Y-64092403D01*
X134974164Y-64084807D01*
X134776238Y-64024767D01*
X134776235Y-64024766D01*
X134593830Y-63927268D01*
X134433945Y-63796055D01*
X134302732Y-63636170D01*
X134205234Y-63453765D01*
X134205233Y-63453762D01*
X134145193Y-63255836D01*
X134124920Y-63050000D01*
X134145193Y-62844164D01*
X134205233Y-62646238D01*
X134205234Y-62646235D01*
X134302732Y-62463830D01*
X134433945Y-62303945D01*
X134593830Y-62172732D01*
X134776235Y-62075234D01*
X134776238Y-62075233D01*
X134974164Y-62015193D01*
X135051293Y-62007596D01*
X135128420Y-62000000D01*
X135231580Y-62000000D01*
X135308707Y-62007596D01*
X135308707Y-62007596D01*
G37*
G36*
X99748707Y-62007596D02*
G01*
X99825836Y-62015193D01*
X100023762Y-62075233D01*
X100023765Y-62075234D01*
X100206170Y-62172732D01*
X100366055Y-62303945D01*
X100497268Y-62463830D01*
X100594766Y-62646235D01*
X100594767Y-62646238D01*
X100654807Y-62844164D01*
X100675080Y-63050000D01*
X100654807Y-63255836D01*
X100594767Y-63453762D01*
X100594766Y-63453765D01*
X100497268Y-63636170D01*
X100366055Y-63796055D01*
X100206170Y-63927268D01*
X100023765Y-64024766D01*
X100023762Y-64024767D01*
X99825836Y-64084807D01*
X99748707Y-64092403D01*
X99671580Y-64100000D01*
X99568420Y-64100000D01*
X99491293Y-64092403D01*
X99414164Y-64084807D01*
X99216238Y-64024767D01*
X99216235Y-64024766D01*
X99033830Y-63927268D01*
X98873945Y-63796055D01*
X98742732Y-63636170D01*
X98645234Y-63453765D01*
X98645233Y-63453762D01*
X98585193Y-63255836D01*
X98564920Y-63050000D01*
X98585193Y-62844164D01*
X98645233Y-62646238D01*
X98645234Y-62646235D01*
X98742732Y-62463830D01*
X98873945Y-62303945D01*
X99033830Y-62172732D01*
X99216235Y-62075234D01*
X99216238Y-62075233D01*
X99414164Y-62015193D01*
X99491293Y-62007596D01*
X99568420Y-62000000D01*
X99671580Y-62000000D01*
X99748707Y-62007596D01*
X99748707Y-62007596D01*
G37*
M02*
