<?xml version="1.0" encoding="utf-8"?>
<!-- Generator: Adobe Illustrator 13.0.0, SVG Export Plug-In . SVG Version: 6.00 Build 14948)  -->
<!DOCTYPE svg PUBLIC "-//W3C//DTD SVG 1.1//EN" "http://www.w3.org/Graphics/SVG/1.1/DTD/svg11.dtd">
<svg version="1.1" id="Layer_1" xmlns="http://www.w3.org/2000/svg" xmlns:xlink="http://www.w3.org/1999/xlink" x="0px" y="0px"
	 width="482px" height="178px" viewBox="0 0 482 178" enable-background="new 0 0 482 178" xml:space="preserve">
<path d="M396.8,24c0,0.1,0.1,0.3,0.1,0.4c0.1,0.1,0.2,0.1,0.4,0.1h3.6c0.3,0,0.5-0.2,0.5-0.5s-0.2-0.5-0.5-0.5v0h-3.1v-2.1h2
	c0.3,0,0.5-0.2,0.5-0.5c0-0.3-0.2-0.5-0.5-0.5h-2v-1.5h3.1c0.3,0,0.5-0.2,0.5-0.5c0-0.3-0.2-0.5-0.5-0.5h-3.6
	c-0.1,0-0.3,0.1-0.4,0.1c-0.1,0.1-0.1,0.2-0.1,0.4v2.5c0,0,0,0,0,0s0,0,0,0V24z M442.9,24.5c0.3,0,0.5-0.2,0.5-0.5v-4l3,4.3
	c0.1,0.2,0.4,0.3,0.6,0.2c0.2-0.1,0.4-0.3,0.4-0.5v-5.6c0-0.3-0.2-0.5-0.5-0.5s-0.5,0.2-0.5,0.5l0,4l-3-4.3
	c-0.1-0.2-0.4-0.3-0.6-0.2c-0.2,0.1-0.4,0.3-0.4,0.5V24C442.4,24.3,442.6,24.5,442.9,24.5z M389.7,23.5c0.2-0.2,0.1-0.5-0.1-0.7
	c-0.2-0.2-0.5-0.1-0.7,0.1c-0.3,0.4-0.7,0.6-1.2,0.6c-0.5,0-0.9-0.2-1.2-0.6c-0.4-0.5-0.6-1.1-0.6-1.7c0-0.6,0.2-1.2,0.6-1.7
	c0.3-0.4,0.7-0.6,1.2-0.6c0.5,0,0.9,0.2,1.2,0.6c0.2,0.2,0.5,0.3,0.7,0.1s0.3-0.5,0.1-0.7c-0.5-0.6-1.2-1-2-1c-0.8,0-1.5,0.4-2,1
	c-0.5,0.7-0.8,1.5-0.8,2.3s0.3,1.6,0.8,2.3c0.5,0.6,1.2,1,2,1C388.5,24.5,389.2,24.1,389.7,23.5z M419.5,24.5c0.8,0,1.6-0.4,2-1.1
	c0.5-0.7,0.7-1.4,0.7-2.3c0-0.8-0.2-1.6-0.7-2.3c-0.5-0.7-1.2-1-2-1c-0.8,0-1.6,0.4-2,1c-0.5,0.7-0.7,1.4-0.7,2.3
	c0,0.8,0.2,1.6,0.7,2.3C418,24.1,418.7,24.5,419.5,24.5z M418.3,19.5c0.3-0.4,0.7-0.6,1.2-0.6c0.5,0,0.9,0.2,1.2,0.6
	c0.3,0.5,0.5,1.1,0.5,1.7c0,0.6-0.2,1.2-0.5,1.7c-0.3,0.4-0.7,0.6-1.2,0.6c-0.5,0-0.9-0.2-1.2-0.6c-0.3-0.5-0.5-1.1-0.5-1.7
	C417.8,20.6,418,20,418.3,19.5z M374,24.5c0.3,0,0.5-0.2,0.5-0.5h0v-4l3,4.3c0.1,0.2,0.4,0.3,0.6,0.2c0.2-0.1,0.4-0.3,0.4-0.5v-5.6
	c0-0.3-0.2-0.5-0.5-0.5s-0.5,0.2-0.5,0.5l0,4l-3-4.3c-0.1-0.2-0.4-0.3-0.6-0.2c-0.2,0.1-0.4,0.3-0.4,0.5V24
	C373.5,24.3,373.8,24.5,374,24.5z M363.7,24.5c0.8,0,1.6-0.4,2-1.1c0.5-0.7,0.7-1.4,0.7-2.3c0-0.8-0.2-1.6-0.7-2.3
	c-0.5-0.7-1.2-1-2-1c-0.8,0-1.6,0.4-2,1c-0.5,0.7-0.7,1.4-0.7,2.3c0,0.8,0.3,1.6,0.7,2.3C362.2,24.1,362.9,24.5,363.7,24.5z
	 M362.6,19.5c0.3-0.4,0.7-0.6,1.2-0.6c0.5,0,0.9,0.2,1.2,0.6c0.3,0.5,0.5,1.1,0.5,1.7c0,0.6-0.2,1.2-0.5,1.7
	c-0.3,0.4-0.7,0.6-1.2,0.6c-0.5,0-0.9-0.2-1.2-0.6c-0.3-0.5-0.5-1.1-0.5-1.7C362,20.6,362.2,20,362.6,19.5z M367.9,24.5
	c0.3,0,0.5-0.2,0.5-0.5v-4l3,4.3c0.1,0.2,0.4,0.3,0.6,0.2c0.2-0.1,0.4-0.3,0.4-0.5v-5.6c0-0.3-0.2-0.5-0.5-0.5
	c-0.3,0-0.5,0.2-0.5,0.5v4l-3-4.3c-0.1-0.2-0.4-0.3-0.6-0.2c-0.2,0.1-0.4,0.3-0.4,0.5V24C367.3,24.3,367.6,24.5,367.9,24.5z
	 M358.1,24.5c0.8,0,1.5-0.4,2-1c0.2-0.2,0.1-0.5-0.1-0.7s-0.5-0.1-0.7,0.1c-0.3,0.4-0.7,0.6-1.2,0.6c-0.5,0-0.9-0.2-1.2-0.6
	c-0.4-0.5-0.6-1.1-0.6-1.7c0-0.6,0.2-1.2,0.6-1.7c0.3-0.4,0.7-0.6,1.2-0.6c0.5,0,0.9,0.2,1.2,0.6c0.2,0.2,0.5,0.3,0.7,0.1
	c0.2-0.2,0.3-0.5,0.1-0.7h0c-0.5-0.6-1.2-1-2-1s-1.5,0.4-2,1c-0.5,0.7-0.8,1.5-0.8,2.3c0,0.8,0.3,1.6,0.8,2.3
	C356.5,24.1,357.3,24.5,358.1,24.5z M383.8,18.9c0.3,0,0.5-0.2,0.5-0.5c0-0.3-0.2-0.5-0.5-0.5h-3.6c-0.1,0-0.3,0.1-0.4,0.1
	c-0.1,0.1-0.1,0.2-0.1,0.4V24c0,0.1,0.1,0.3,0.1,0.4c0.1,0.1,0.2,0.1,0.4,0.1h3.6c0.3,0,0.5-0.2,0.5-0.5s-0.2-0.5-0.5-0.5v0h-3.1
	v-2.1h2c0.3,0,0.5-0.2,0.5-0.5c0-0.3-0.2-0.5-0.5-0.5h-2v-1.5H383.8z M415.7,22.8c-0.2-0.2-0.5-0.1-0.7,0.1
	c-0.3,0.4-0.7,0.6-1.2,0.6c-0.5,0-0.9-0.2-1.2-0.6c-0.4-0.5-0.6-1.1-0.6-1.7c0-0.6,0.2-1.2,0.6-1.7c0.3-0.4,0.7-0.6,1.2-0.6
	c0.5,0,0.9,0.2,1.2,0.6c0.2,0.2,0.5,0.3,0.7,0.1c0.2-0.2,0.3-0.5,0.1-0.7l0,0c-0.5-0.6-1.2-1-2-1c-0.8,0-1.5,0.4-2,1
	c-0.5,0.7-0.8,1.5-0.8,2.3s0.3,1.6,0.8,2.3c0.5,0.6,1.2,1,2,1c0.8,0,1.5-0.4,2-1C416,23.3,416,22.9,415.7,22.8z M438.9,24.5
	c1.3,0,2.4-1.1,2.4-2.4v-3.7c0-0.3-0.2-0.5-0.5-0.5c-0.3,0-0.5,0.2-0.5,0.5v3.7c0,0.8-0.6,1.4-1.4,1.4c-0.8,0-1.4-0.6-1.4-1.4v-3.7
	c0-0.3-0.2-0.5-0.5-0.5c-0.3,0-0.5,0.2-0.5,0.5v3.7C436.4,23.4,437.5,24.5,438.9,24.5z M430.4,24.5c0.3,0,0.5-0.2,0.5-0.5v-3.7
	l1.3,2.2c0.1,0.2,0.3,0.3,0.4,0.3c0.2,0,0.3-0.1,0.4-0.3l1.3-2.2l0,3.7c0,0.3,0.2,0.5,0.5,0.5c0.3,0,0.5-0.2,0.5-0.5v-5.6
	c0-0.2-0.2-0.4-0.4-0.5c-0.2-0.1-0.5,0-0.6,0.2l-1.8,3l-1.8-3c-0.1-0.2-0.3-0.3-0.6-0.2c-0.2,0.1-0.4,0.3-0.4,0.5V24
	C429.9,24.3,430.1,24.5,430.4,24.5z M427.6,20.2V24c0,0.3,0.2,0.5,0.5,0.5c0.3,0,0.5-0.2,0.5-0.5l0-5.6c0-0.2-0.2-0.4-0.4-0.5
	c-0.2-0.1-0.5,0-0.6,0.2l-1.8,3l-1.8-3c-0.1-0.2-0.4-0.3-0.6-0.2c-0.2,0.1-0.4,0.3-0.4,0.5V24c0,0.3,0.2,0.5,0.5,0.5
	c0.3,0,0.5-0.2,0.5-0.5h0v-3.8l1.3,2.2c0.1,0.2,0.3,0.3,0.4,0.3s0.3-0.1,0.4-0.3L427.6,20.2z M459,21.6V24c0,0.3,0.2,0.5,0.5,0.5
	s0.5-0.2,0.5-0.5v-2.4l2.1-2.9c0.2-0.2,0.1-0.5-0.1-0.7c-0.2-0.2-0.5-0.1-0.7,0.1l-1.8,2.5l-1.8-2.5c-0.2-0.2-0.5-0.3-0.7-0.1
	c-0.2,0.2-0.3,0.5-0.1,0.7L459,21.6z M456,18.4c0-0.3-0.2-0.5-0.5-0.5h-4.5c-0.3,0-0.5,0.2-0.5,0.5s0.2,0.5,0.5,0.5h1.7V24
	c0,0.3,0.2,0.5,0.5,0.5s0.5-0.2,0.5-0.5v-5.1h1.7C455.8,18.9,456,18.7,456,18.4z M395.3,17.9h-4.5c-0.3,0-0.5,0.2-0.5,0.5
	s0.2,0.5,0.5,0.5h1.7V24c0,0.3,0.2,0.5,0.5,0.5c0.3,0,0.5-0.2,0.5-0.5v-5.1h1.7c0.3,0,0.5-0.2,0.5-0.5S395.5,17.9,395.3,17.9z
	 M406.7,23.4c0.4-0.7,0.7-1.4,0.7-2.2c0-0.8-0.2-1.6-0.7-2.2c-0.4-0.7-1.2-1.1-2-1.1H403c-0.1,0-0.3,0.1-0.4,0.1
	c-0.1,0.1-0.2,0.2-0.2,0.4V24c0,0.1,0.1,0.3,0.2,0.4c0.1,0.1,0.2,0.1,0.4,0.1h1.7C405.5,24.5,406.3,24.1,406.7,23.4z M404.7,23.5
	h-1.2v-4.6h1.2c0.5,0,0.9,0.2,1.2,0.6c0.3,0.5,0.5,1.1,0.5,1.7c0,0.6-0.2,1.2-0.5,1.7C405.6,23.2,405.1,23.5,404.7,23.5z
	 M449.1,24.5c0.3,0,0.5-0.2,0.5-0.5v-5.6c0-0.3-0.2-0.5-0.5-0.5c-0.3,0-0.5,0.2-0.5,0.5V24C448.6,24.3,448.8,24.5,449.1,24.5z
	 M449.2,29.5c0.8,0,1.6,0.4,2,1c0.3,0.4,1,0.5,1.4,0.2c0.4-0.3,0.5-1,0.2-1.4l0,0c-0.9-1.1-2.2-1.8-3.6-1.8c-1.4,0-2.8,0.7-3.6,1.8
	c-0.9,1.2-1.4,2.6-1.4,4.1c0,1.5,0.5,2.9,1.4,4.1c0.9,1.1,2.2,1.8,3.6,1.8h0c1.4,0,2.8-0.7,3.6-1.8c0.3-0.4,0.2-1.1-0.2-1.4
	c-0.4-0.3-1.1-0.2-1.4,0.2c-0.5,0.6-1.2,1-2,1c-0.8,0-1.6-0.4-2-1c-0.6-0.8-1-1.8-1-2.9c0-1,0.3-2.1,1-2.9
	C447.7,29.9,448.4,29.5,449.2,29.5z M423.8,33.1c-0.7-0.5-1.5-0.9-2.4-1l-1.6-0.3c-0.4-0.1-0.9-0.3-1.2-0.5c0,0,0,0,0,0
	c-0.2-0.1-0.3-0.4-0.3-0.6c0-0.2,0.1-0.5,0.3-0.6c0,0,0,0,0,0c0.5-0.4,1.1-0.6,1.8-0.6s1.2,0.2,1.8,0.6c0.1,0.1,0.2,0.2,0.2,0.3
	c0.2,0.5,0.8,0.7,1.3,0.4c0.5-0.2,0.7-0.8,0.4-1.3c-0.2-0.4-0.5-0.7-0.9-1c-0.8-0.6-1.9-0.9-2.9-0.9c-1,0-2,0.3-2.9,0.9
	c0,0,0,0-0.1,0c-0.7,0.5-1.1,1.3-1.1,2.2c0,0.9,0.4,1.7,1.1,2.2c0,0,0,0,0,0c0.6,0.4,1.3,0.7,2,0.8l1.6,0.3c0.6,0.1,1.1,0.3,1.6,0.7
	c0.3,0.2,0.5,0.6,0.5,0.9c0,0.4-0.2,0.7-0.5,0.9c-0.7,0.5-1.5,0.7-2.3,0.7c-0.8,0-1.6-0.3-2.3-0.7c-0.1-0.1-0.3-0.2-0.4-0.4
	c-0.3-0.5-0.9-0.7-1.4-0.4s-0.7,0.9-0.4,1.4c0.2,0.4,0.5,0.8,1,1.1c1,0.7,2.2,1.1,3.4,1.1h0c1.2,0,2.4-0.4,3.4-1.1
	c0.8-0.6,1.3-1.5,1.3-2.5C425.1,34.6,424.6,33.7,423.8,33.1z M364.1,28.5c0-0.6-0.4-1-1-1c-0.6,0-1,0.4-1,1v3.3h-4.7v-3.3
	c0-0.6-0.4-1-1-1s-1,0.4-1,1v9.8c0,0.6,0.4,1,1,1s1-0.4,1-1v-4.5h4.7v4.5c0,0.6,0.4,1,1,1c0.6,0,1-0.4,1-1v-5.4c0,0,0,0,0,0s0,0,0,0
	V28.5z M412.6,34.1c1.2-0.5,2-1.7,2-3.1c0-1.9-1.5-3.5-3.5-3.5h-4c-0.3,0-0.5,0.1-0.7,0.3c-0.2,0.2-0.3,0.4-0.3,0.7v9.8
	c0,0.6,0.4,1,1,1s1-0.4,1-1h0v-3.9l2.4,0l2.2,4.3c0.2,0.3,0.5,0.5,0.9,0.5c0.2,0,0.3,0,0.5-0.1c0.5-0.3,0.7-0.9,0.4-1.3L412.6,34.1z
	 M411.1,32.4h-3v-2.9h3c0.8,0,1.5,0.7,1.5,1.5C412.6,31.8,411.9,32.4,411.1,32.4z M440,28.1c-0.2-0.4-0.5-0.6-0.9-0.6
	c-0.4,0-0.8,0.3-0.9,0.6l-3.9,9.8c-0.2,0.5,0,1.1,0.6,1.3c0.1,0,0.2,0.1,0.4,0.1c0.4,0,0.8-0.2,0.9-0.6l0,0l0.9-2.2h4.2l0.9,2.2
	c0.2,0.5,0.8,0.8,1.3,0.6s0.8-0.8,0.6-1.3L440,28.1z M437.8,34.5l1.3-3.3l1.3,3.3H437.8z M461.8,37.3L461.8,37.3l-5.3,0v-3.4h3.4
	c0.6,0,1-0.4,1-1c0-0.6-0.4-1-1-1h-3.4v-2.4h5.3c0.6,0,1-0.4,1-1c0-0.6-0.4-1-1-1h-6.3c-0.3,0-0.5,0.1-0.7,0.3s-0.3,0.4-0.3,0.7v9.8
	c0,0.3,0.1,0.5,0.3,0.7s0.4,0.3,0.7,0.3h6.3c0.6,0,1-0.5,1-1C462.8,37.8,462.4,37.3,461.8,37.3z M431.3,27.5h-4
	c-0.3,0-0.5,0.1-0.7,0.3c-0.2,0.2-0.3,0.4-0.3,0.7v9.8c0,0.6,0.4,1,1,1s1-0.4,1-1h0v-3.9l3,0c1.9,0,3.5-1.5,3.5-3.4
	C434.8,29.1,433.2,27.5,431.3,27.5z M431.3,32.4h-3v-2.9h3c0.8,0,1.4,0.7,1.5,1.5C432.8,31.8,432.1,32.4,431.3,32.4z M380.4,29.5
	c0.8,0,1.5,0.4,2,1c0.3,0.4,1,0.5,1.4,0.2c0.4-0.3,0.5-1,0.2-1.4v0c-0.9-1.1-2.2-1.8-3.6-1.8c-1.4,0-2.8,0.7-3.6,1.8
	c-0.9,1.2-1.4,2.6-1.4,4.1c0,1.5,0.5,2.9,1.4,4.1c0.9,1.1,2.2,1.8,3.6,1.8h0c1.4,0,2.8-0.7,3.6-1.8c0.3-0.4,0.2-1.1-0.2-1.4
	c-0.4-0.3-1.1-0.2-1.4,0.2c-0.5,0.6-1.2,1-2,1c-0.8,0-1.6-0.4-2-1c-0.6-0.8-1-1.8-1-2.9c0-1,0.3-2.1,1-2.9
	C378.8,29.9,379.6,29.5,380.4,29.5z M371.2,28.1c-0.2-0.4-0.5-0.6-0.9-0.6c-0.4,0-0.8,0.3-0.9,0.6l-3.9,9.8c-0.2,0.5,0,1.1,0.6,1.3
	c0.1,0,0.2,0.1,0.4,0.1c0.4,0,0.8-0.2,0.9-0.6l0,0l0.9-2.2h4.2l0.9,2.2c0.2,0.5,0.8,0.8,1.3,0.6c0.5-0.2,0.8-0.8,0.6-1.3L371.2,28.1
	z M368.9,34.5l1.3-3.3l1.3,3.3H368.9z M403.5,29.5c0.6,0,1-0.4,1-1c0-0.6-0.4-1-1-1h-6.3c-0.3,0-0.5,0.1-0.7,0.3
	c-0.2,0.2-0.3,0.4-0.3,0.7v9.8c0,0.3,0.1,0.5,0.3,0.7c0.2,0.2,0.4,0.3,0.7,0.3h6.3c0.6,0,1-0.5,1-1c0-0.6-0.4-1-1-1v0h-5.3v-3.4h3.4
	c0.6,0,1-0.4,1-1c0-0.6-0.4-1-1-1h-3.4v-2.4H403.5z M390.1,33l4-3.8c0.4-0.4,0.4-1,0.1-1.4c-0.4-0.4-1-0.4-1.4-0.1l-4.7,4.3v-3.6
	c0-0.6-0.5-1-1-1c-0.6,0-1,0.4-1,1v9.8c0,0.6,0.4,1,1,1c0.6,0,1-0.4,1-1v-3.4l0.5-0.5l4.2,4.6c0.2,0.2,0.5,0.3,0.7,0.3
	c0.2,0,0.5-0.1,0.7-0.3c0.4-0.4,0.4-1,0.1-1.4L390.1,33z"/>
<path d="M434.6,150.2h-3.7c0.1-0.5,0.4-0.9,0.8-1.1c0.2-0.2,0.4-0.3,0.7-0.4l1.3-0.6c0.2-0.1,0.4-0.2,0.6-0.3
	c0.4-0.3,0.6-0.8,0.6-1.3c0-0.5-0.2-1-0.6-1.3c-0.5-0.4-1.1-0.6-1.8-0.6c-0.6,0-1.3,0.2-1.8,0.6c-0.4,0.3-0.6,0.8-0.6,1.3
	c0,0.3,0.2,0.5,0.5,0.5c0.3,0,0.5-0.2,0.5-0.5c0-0.2,0.1-0.4,0.3-0.5c0.3-0.3,0.7-0.4,1.2-0.4c0.4,0,0.8,0.1,1.2,0.4
	c0.2,0.1,0.3,0.3,0.3,0.5c0,0.2-0.1,0.4-0.3,0.5c-0.1,0.1-0.2,0.2-0.4,0.2l-1.3,0.6c-0.3,0.1-0.6,0.3-0.9,0.5
	c-0.8,0.6-1.2,1.5-1.2,2.4c0,0.1,0.1,0.3,0.1,0.4c0.1,0.1,0.2,0.1,0.4,0.1h4.2c0.3,0,0.5-0.2,0.5-0.5
	C435.1,150.4,434.8,150.2,434.6,150.2z M439.8,145.8l0.4-0.3c-0.5-0.7-1.2-1.1-2.1-1.1c-0.8,0-1.6,0.4-2.1,1.1
	c-0.4,0.7-0.7,1.5-0.7,2.3c0,0.8,0.2,1.6,0.7,2.3c0.5,0.7,1.2,1.1,2.1,1.1h0c0.8,0,1.6-0.4,2.1-1.1c0.4-0.7,0.7-1.5,0.7-2.3
	c0-0.8-0.2-1.6-0.7-2.3L439.8,145.8z M439.4,149.5c-0.3,0.4-0.7,0.7-1.2,0.7s-1-0.2-1.2-0.7c-0.3-0.5-0.5-1.1-0.5-1.7
	c0-0.6,0.2-1.2,0.5-1.7c0.3-0.4,0.7-0.7,1.2-0.7c0.5,0,1,0.2,1.2,0.7c0.3,0.5,0.5,1.1,0.5,1.7C439.9,148.4,439.7,149,439.4,149.5z
	 M446.4,145.5c-0.5-0.7-1.2-1.1-2.1-1.1c-0.8,0-1.6,0.4-2.1,1.1c-0.4,0.7-0.7,1.5-0.7,2.3c0,0.8,0.2,1.6,0.7,2.3
	c0.5,0.7,1.2,1.1,2.1,1.1h0c0.8,0,1.6-0.4,2.1-1.1c0.4-0.7,0.7-1.5,0.7-2.3C447.1,147,446.8,146.2,446.4,145.5L446.4,145.5z
	 M445.6,149.5c-0.3,0.4-0.7,0.7-1.2,0.7c-0.5,0-1-0.2-1.2-0.7c-0.3-0.5-0.5-1.1-0.5-1.7c0-0.6,0.2-1.2,0.5-1.7
	c0.3-0.4,0.7-0.7,1.2-0.7c0.5,0,1,0.2,1.2,0.7c0.3,0.5,0.5,1.1,0.5,1.7C446.1,148.4,445.9,149,445.6,149.5z M452.2,145.5
	c-0.2-0.3-0.4-0.5-0.7-0.7c0,0-0.1,0-0.1-0.1c-0.1-0.1-0.2-0.1-0.3-0.1c-0.1,0-0.2-0.1-0.3-0.1c-0.1,0-0.1,0-0.2-0.1
	c-0.2,0-0.4-0.1-0.6-0.1c-1.3,0-2.4,1.1-2.4,2.4c0,1.3,1.1,2.4,2.4,2.4c0.6,0,1.2-0.3,1.6-0.7c-0.1,0.3-0.2,0.7-0.4,1
	c-0.3,0.4-0.7,0.7-1.2,0.7s-1-0.2-1.2-0.7c-0.2-0.2-0.5-0.3-0.7-0.1c-0.2,0.2-0.3,0.5-0.1,0.7l0,0c0.5,0.7,1.2,1.1,2.1,1.1h0
	c0.8,0,1.6-0.4,2.1-1.1c0.4-0.7,0.7-1.5,0.7-2.3C452.9,147,452.6,146.2,452.2,145.5z M450.1,148.2c-0.8,0-1.4-0.6-1.4-1.4
	c0-0.8,0.6-1.4,1.4-1.4c0,0,0,0,0,0c0.1,0,0.2,0,0.3,0c0.1,0,0.1,0,0.1,0c0,0,0.1,0,0.1,0c0.5,0.2,0.8,0.7,0.8,1.3
	C451.5,147.6,450.9,148.2,450.1,148.2z"/>
<path d="M417.3,82.2c-0.2-0.1-0.3-0.3-0.3-0.4c0-0.3,0.2-0.5,0.5-0.5c0.1,0,0.2,0,0.2,0.1l0,0c1,0.6,2,0.8,3.1,0.8
	c1.1,0,2.2-0.3,3.1-0.8l0,0c0.1,0,0.2-0.1,0.2-0.1c0.3,0,0.5,0.2,0.5,0.5c0,0.2-0.1,0.3-0.3,0.4l0,0c-1.1,0.6-2.4,1-3.6,1
	C419.7,83.2,418.4,82.8,417.3,82.2L417.3,82.2z"/>
<polygon points="403.4,120.8 408,111.1 403.4,111.1 407.3,101.6 413.5,101.6 409.6,108.6 413.9,108.6 "/>
<path d="M456.8,55c-2.9,0-5.6,1.3-7.4,3.5c-12.7-5.8-26.6-8.8-40.6-8.8c-14,0-27.9,3-40.6,8.8c-1.8-2.2-4.5-3.5-7.4-3.5
	c-5.3,0-9.5,4.3-9.5,9.5c0,4.7,3.4,8.6,8,9.4c0.9,9.1,3.1,18.1,6.4,26.7c-1.9,4.3-2.9,8.9-2.9,13.5c0,2.5,0.3,5,0.8,7.5
	c0.2,0.7,0.6,1.2,1.3,1.4c3.7,1.3,7.5,2,11.4,2c1.1,0,2.2-0.1,3.2-0.2c5.8,7.4,12.6,13.9,20.3,19.4c-0.4,1.1-0.6,2.2-0.6,3.4
	c0,5.3,4.3,9.5,9.5,9.5c5.3,0,9.5-4.3,9.5-9.5c0-1.2-0.2-2.3-0.6-3.4c7.6-5.5,14.5-12,20.3-19.4c1.1,0.1,2.2,0.2,3.2,0.2
	c3.9,0,7.7-0.7,11.4-2c0.6-0.2,1.1-0.8,1.3-1.4c0.6-2.5,0.8-5,0.8-7.5c0-4.7-1-9.3-2.9-13.5c3.4-8.5,5.6-17.5,6.4-26.7
	c4.6-0.8,8-4.7,8-9.4C466.3,59.2,462,55,456.8,55z M355.3,64.5c0-3.1,2.5-5.5,5.5-5.5s5.5,2.5,5.5,5.5c0,3.1-2.5,5.5-5.5,5.5
	S355.3,67.5,355.3,64.5z M376.4,123c-3.7,0-7.3-0.6-10.7-1.9c-0.5-2.3-0.8-4.7-0.8-7c0-5.5,1.4-10.8,4.1-15.6c2,1.9,4.6,3,7.4,3
	s5.4-1.1,7.4-3c2.7,4.7,4.1,10.1,4.1,15.6c0,2.4-0.3,4.7-0.8,7C383.7,122.3,380.1,123,376.4,123z M381.9,76.5
	c-2.3-1.2-3.8-3.5-3.8-6.1c0-3.8,3.1-6.8,6.8-6.8c3,0,5.7,2,6.6,4.9c-1.1,0.6-2.1,1.4-2.9,2.4c-0.8-1-2-1.5-3.3-1.5
	c-2.4,0-4.4,2-4.4,4.4C380.9,74.7,381.3,75.7,381.9,76.5z M396.7,68.1c3.5,0,6.7,1.9,8.3,4.9c-1.7,1.3-3.7,2.1-5.9,2.1
	c-1.7,0-3.4-0.5-4.9-1.4c-0.2-0.1-0.3-0.1-0.5-0.1c-0.5,0-0.9,0.4-1,0.9c-0.2,2.6-2.4,4.6-5,4.6c-0.2,0-0.3,0-0.5,0
	c-0.1-0.5-0.1-0.9-0.1-1.4C387.1,72.3,391.4,68.1,396.7,68.1z M387.7,80c3.1,0,5.7-2.4,6-5.5c1.6,1,3.5,1.5,5.4,1.5
	c2.3,0,4.5-0.8,6.3-2.1c0.5,1.2,0.7,2.4,0.7,3.7c0,5.3-4.3,9.5-9.5,9.5c-4.4,0-8.2-2.9-9.2-7.2C387.5,80,387.6,80,387.7,80z
	 M387.5,94.1c0.7-0.9,1.1-2,1.1-3.2c0-1-0.3-2-0.9-2.8c0.4-1,0.9-2,1.5-2.9c2,1.9,4.6,3,7.4,3c2.8,0,5.4-1.1,7.4-3
	c1.7,3,2.9,6.3,3.6,9.7h-9.2c-3.3,0-6.1,2.7-6.1,6.1v8.4c-1-0.1-1.9-0.3-2.9-0.5c-0.6-3.8-1.9-7.5-3.8-10.9h0
	C386.5,96.7,387.2,95.4,387.5,94.1z M423.8,84.9c-0.9-0.3-1.9-0.5-2.8-0.5c-1,0-1.9,0.2-2.8,0.5c-0.6,0.2-1.1,0.7-1.2,1.3
	c-3.3-1.6-5.5-4.9-5.5-8.6c0-5.3,4.3-9.5,9.5-9.5c5.3,0,9.5,4.3,9.5,9.5c0,3.7-2.1,7.1-5.5,8.6C424.9,85.6,424.4,85.1,423.8,84.9z
	 M424.1,86.7c0,0.1,0,0.1,0,0.2c-0.3,1.3-0.9,2.6-1.7,3.6c-0.3,0.4-0.8,0.6-1.4,0.6s-1-0.2-1.4-0.6c-0.9-1-1.5-2.3-1.7-3.6
	c0-0.1,0-0.1,0-0.2c0-0.4,0.2-0.7,0.6-0.8c0.8-0.3,1.7-0.4,2.5-0.4s1.7,0.1,2.5,0.4C423.8,86,424.1,86.3,424.1,86.7z M416.9,87.3
	c0.3,1.4,1,2.7,1.9,3.8c0.5,0.6,1.3,1,2.1,1s1.6-0.3,2.1-1c0.9-1.1,1.6-2.4,1.9-3.8c1.3-0.5,2.4-1.3,3.4-2.2
	c0.6,1.1,1.1,2.2,1.6,3.3c-0.2,0.9-0.3,1.7-0.3,2.6c0,2.4,0.8,4.8,2.2,6.8c-1.9,3.4-3.2,7.1-3.8,10.9c-0.9,0.2-1.9,0.4-2.9,0.5v-8.4
	c0-3.3-2.7-6.1-6.1-6.1l-9.2,0c0.6-3.4,1.8-6.7,3.6-9.7C414.5,86.1,415.7,86.8,416.9,87.3z M442.6,86.3c-0.3,0-0.7,0.1-1,0.2
	c-1.2,0.6-2.6,0.9-3.9,0.9c-1.6,0-3.2-0.5-4.6-1.3c1.7-2.9,4.8-4.7,8.2-4.7c3.8,0,7.2,2.2,8.7,5.7c0.8,1.8,1.2,3.7,1.2,5.7
	c0,5.9-3.7,11.2-9.3,13.3c1.9-3.2,2.9-6.8,2.9-10.5v-7.1C444.8,87.3,443.8,86.3,442.6,86.3z M437.6,88.5c1.5,0,3-0.4,4.4-1
	c0.2-0.1,0.4-0.1,0.6-0.1c0.7,0,1.2,0.5,1.2,1.2h0v7.1c0,1.6-0.2,3.2-0.6,4.7c-0.6,0.1-1.3,0.2-2,0.2c-5.3,0-9.5-4.3-9.5-9.5
	c0-1.4,0.3-2.7,0.9-4C434.1,88,435.8,88.5,437.6,88.5z M419.2,98.8c1.1,0,2.1,0.9,2.1,2.1v20.8c0,1.1-0.9,2.1-2.1,2.1h-20.8
	c-1.1,0-2.1-0.9-2.1-2.1v-20.8c0-1.1,0.9-2.1,2.1-2.1H419.2z M383.6,93.9c-1.7,0-3-1.4-3-3s1.4-3,3-3c1.7,0,3,1.4,3,3
	S385.3,93.9,383.6,93.9z M383.6,86.8c-1.5,0-2.9,0.8-3.6,2.2c-0.7-1.3-2.1-2.2-3.7-2.2c-1.6,0-3.1,1-3.8,2.4l-5.1-1.6
	c1.4-3.7,5-6.1,8.9-6.1c3.8,0,7.2,2.2,8.7,5.6C384.6,86.9,384.1,86.8,383.6,86.8z M379.6,91c0,1.8-1.4,3.2-3.2,3.2
	c-1.8,0-3.2-1.4-3.2-3.2c0-1.8,1.4-3.2,3.2-3.2C378.2,87.8,379.6,89.3,379.6,91z M372.3,90.2c-0.1,0.3-0.1,0.5-0.1,0.8
	c0,2.3,1.9,4.2,4.2,4.2c1.6,0,3-0.9,3.8-2.3c0.7,1.2,2.1,2,3.5,2c0.6,0,1.1-0.1,1.6-0.3v0h0c0,0,0,0,0,0c-1.4,3.6-5,6-8.9,6
	c-5.3,0-9.5-4.3-9.5-9.5c0-0.8,0.1-1.6,0.3-2.4L372.3,90.2z M408.8,153.1c-3.1,0-5.5-2.5-5.5-5.5c0-3.1,2.5-5.5,5.5-5.5
	s5.5,2.5,5.5,5.5C414.4,150.6,411.9,153.1,408.8,153.1z M415.6,140.8c-1.8-1.8-4.2-2.8-6.8-2.8c-2.5,0-5,1-6.8,2.8
	c-6.7-4.8-12.7-10.4-17.9-16.8c1.2-0.3,2.4-0.6,3.6-1.1c0.6-0.2,1.1-0.8,1.3-1.4c0.6-2.5,0.8-5,0.8-7.5c0-1.1-0.1-2.2-0.2-3.2
	c0.9,0.2,1.7,0.3,2.6,0.4v10.4c0,3.3,2.7,6.1,6.1,6.1h20.8c3.3,0,6.1-2.7,6.1-6.1v-10.4c0.9-0.1,1.7-0.3,2.6-0.4
	c-0.1,1.1-0.2,2.2-0.2,3.2c0,2.5,0.3,5,0.8,7.5c0.2,0.7,0.6,1.2,1.3,1.4c1.2,0.4,2.4,0.8,3.6,1.1C428.3,130.4,422.2,136,415.6,140.8
	z M452.7,114.1c0,2.4-0.3,4.7-0.8,7c-3.4,1.2-7.1,1.9-10.7,1.9c-3.7,0-7.3-0.6-10.7-1.9c-0.5-2.3-0.8-4.7-0.8-7
	c0-5.5,1.4-10.8,4.1-15.6c2,1.9,4.6,3,7.4,3c0.6,0,1.1,0,1.7-0.1c-0.5,1.5-1.1,2.9-1.9,4.2c-0.1,0.2-0.1,0.3-0.1,0.5
	c0,0.6,0.4,1,1,1c0.1,0,0.2,0,0.3-0.1c3.2-1.1,5.9-3.3,7.6-6.2C451.8,105,452.7,109.5,452.7,114.1z M452,87
	c-0.1-0.2-0.2-0.4-0.3-0.7c-1.8-4.2-6-6.9-10.5-6.9c-4.3,0-8.3,2.4-10.3,6.3c-0.2-0.5-0.5-0.9-0.7-1.3c1.4-2,2.2-4.4,2.2-6.8
	c0-6.4-5.2-11.5-11.5-11.5c-6.4,0-11.5,5.2-11.5,11.5c0,2.4,0.8,4.8,2.2,6.8c-1.2,2.2-2.2,4.4-2.8,6.8c-0.7-2.4-1.7-4.6-2.8-6.8
	c1.4-2,2.2-4.4,2.2-6.8c0-6.4-5.2-11.5-11.5-11.5c-1.2,0-2.5,0.2-3.7,0.6c-1.4-3.1-4.6-5.1-8-5.1c-4.9,0-8.8,4-8.8,8.8
	c0,3.3,1.9,6.4,4.9,7.9c0.3,0.1,0.6,0.2,0.9,0.2c1.1,0,2-0.9,2-2c0-0.5-0.2-0.9-0.5-1.3c-0.3-0.4-0.5-1-0.5-1.5
	c0-1.3,1.1-2.4,2.4-2.4c0.5,0,1,0.2,1.4,0.5c-1,1.8-1.6,3.8-1.6,5.8c0,2.4,0.8,4.8,2.2,6.8c-0.2,0.4-0.5,0.9-0.7,1.3
	c-2-3.8-5.9-6.3-10.3-6.3c-4.8,0-9.1,3-10.8,7.5c-1.1-4.4-1.9-8.8-2.3-13.3c4.2-1.1,7.1-4.9,7.1-9.2c0-0.8-0.1-1.7-0.3-2.5
	c12.2-5.5,25.4-8.4,38.8-8.4c13.4,0,26.6,2.9,38.8,8.4c-0.2,0.8-0.3,1.6-0.3,2.5c0,4.3,2.9,8.1,7.1,9.2
	C453.9,78.2,453.1,82.6,452,87z M456.8,70c-3.1,0-5.5-2.5-5.5-5.5c0-3.1,2.5-5.5,5.5-5.5c3.1,0,5.5,2.5,5.5,5.5
	C462.3,67.5,459.8,70,456.8,70z"/>
<path d="M372.6,144.8c0.3,0,0.5-0.2,0.5-0.5c0-0.3-0.2-0.5-0.5-0.5l-4.1,0c-0.1,0-0.3,0.1-0.4,0.1s-0.1,0.2-0.1,0.4v2.9c0,0,0,0,0,0
	s0,0,0,0v3.5c0,0.1,0.1,0.3,0.1,0.4c0.1,0.1,0.2,0.1,0.4,0.1h4.1c0.3,0,0.5-0.2,0.5-0.5c0-0.3-0.2-0.5-0.5-0.5H369v-2.5h2.4
	c0.3,0,0.5-0.2,0.5-0.5c0-0.3-0.2-0.5-0.5-0.5H369v-1.9H372.6z M385.6,144.3c0-0.3-0.2-0.5-0.5-0.5H380c-0.3,0-0.5,0.2-0.5,0.5
	c0,0.3,0.2,0.5,0.5,0.5h2v5.9c0,0.3,0.2,0.5,0.5,0.5c0.3,0,0.5-0.2,0.5-0.5v-5.9h2C385.3,144.8,385.6,144.6,385.6,144.3z
	 M378.5,147.4c-0.4-0.3-0.9-0.5-1.5-0.6l-1-0.2c-0.3-0.1-0.6-0.2-0.8-0.4c-0.2-0.1-0.3-0.3-0.3-0.5c0-0.2,0.1-0.4,0.3-0.5l0,0
	c0.4-0.3,0.8-0.4,1.2-0.4c0.4,0,0.9,0.1,1.2,0.4c0.1,0.1,0.1,0.1,0.2,0.2c0.1,0.2,0.4,0.3,0.7,0.2c0.2-0.1,0.3-0.4,0.2-0.7h0
	c-0.1-0.2-0.3-0.4-0.5-0.6c-0.5-0.4-1.2-0.6-1.8-0.6s-1.3,0.2-1.8,0.6l0,0c-0.4,0.3-0.7,0.8-0.7,1.3c0,0.5,0.3,1,0.7,1.3l0,0
	c0.4,0.3,0.8,0.4,1.2,0.5l1,0.2c0.4,0.1,0.8,0.2,1.1,0.5c0.2,0.2,0.4,0.4,0.4,0.7c0,0.3-0.1,0.6-0.4,0.7c-0.5,0.3-1,0.5-1.6,0.5
	s-1.1-0.2-1.6-0.5c-0.1-0.1-0.2-0.2-0.3-0.3c-0.1-0.2-0.4-0.3-0.7-0.2c-0.2,0.1-0.3,0.4-0.2,0.7c0.1,0.3,0.3,0.5,0.6,0.7
	c0.6,0.4,1.4,0.7,2.1,0.7s1.5-0.2,2.1-0.7c0.5-0.4,0.8-0.9,0.8-1.5C379.3,148.3,379,147.8,378.5,147.4z M385.5,150
	c-0.3,0-0.5,0.2-0.5,0.5v0.2c0,0.3,0.2,0.5,0.5,0.5s0.5-0.2,0.5-0.5v-0.2C386,150.2,385.7,150,385.5,150z"/>
<path d="M307.8,135.7c-2.5,0-4.9,1.1-6.5,2.9H300v12h3.2v-9c1-1.6,2.7-2.7,4.7-2.7c1.5,0,2.9,0.6,4,1.7l2.3-2.2v0
	C312.5,136.7,310.2,135.7,307.8,135.7z M290.6,135.7c-4.5,0-8.2,3.7-8.2,8.2c0,4.5,3.7,8.2,8.2,8.2c1.7,0,3.3-0.6,4.7-1.5h2.9v-12
	h-1.3C295.3,136.8,293,135.7,290.6,135.7z M294.9,146.2c-0.9,1.6-2.5,2.6-4.4,2.6c-2.7,0-5-2.2-5-5c0-2.7,2.2-5,5-5
	c1.8,0,3.5,1,4.4,2.6V146.2z M275.3,135.8c-4.5,0-8.2,3.7-8.2,8.2c0,4.5,3.7,8.2,8.2,8.2c2.4,0,4.8-1.1,6.3-3l-2.5-2
	c-0.9,1.1-2.4,1.8-3.8,1.8c-2.7,0-5-2.2-5-5c0-2.7,2.2-5,5-5c1.5,0,2.9,0.7,3.8,1.8l2.5-2v0C280.1,136.9,277.7,135.8,275.3,135.8z
	 M205.5,137.1c-1.3-0.8-2.8-1.3-4.4-1.3c-4.5,0-8.2,3.7-8.2,8.2c0,4.5,3.7,8.2,8.2,8.2c2.3,0,4.4-0.9,5.9-2.5h1.7v-20.9h-3.2V137.1z
	 M205.5,146.4c-0.9,1.6-2.5,2.6-4.4,2.6c-2.7,0-5-2.2-5-5c0-2.7,2.2-5,5-5c1.8,0,3.5,1,4.4,2.6V146.4z M257.7,135.8
	c-4.5,0-8.2,3.7-8.2,8.2c0,4.5,3.7,8.2,8.2,8.2c4.5,0,8.2-3.7,8.2-8.2C265.9,139.5,262.2,135.8,257.7,135.8z M257.7,149
	c-2.7,0-5-2.2-5-5c0-2.7,2.2-5,5-5c2.7,0,5,2.2,5,5C262.7,146.7,260.5,149,257.7,149z M210.5,150.6h3.2v-12h-3.2V150.6z
	 M223.1,135.7c-2.5,0-4.7,1.1-6.3,2.9h-1.3v12h3.2v-9.1c0.9-1.6,2.5-2.6,4.4-2.6c2.7,0,5,2.2,5,5v6.6h3.2v-6.6
	C231.3,139.3,227.6,135.7,223.1,135.7z M232.6,157.2L232.6,157.2C232.6,157.2,232.6,157.2,232.6,157.2L232.6,157.2z M240.7,135.7
	c-4.5,0-8.2,3.7-8.2,8.2c0,4.5,3.7,8.2,8.2,8.2c1.6,0,3.1-0.5,4.4-1.3l0,2.9c0,2.7-2.2,5-5,5c-1.9,0-3.7-1.1-4.5-2.9l-2.9,1.4
	c1.3,2.9,4.2,4.7,7.4,4.7c4.5,0,8.2-3.7,8.2-8.2v-15.4h-1.5C245.2,136.7,243,135.7,240.7,135.7z M245,146.2
	c-0.9,1.6-2.5,2.6-4.4,2.6c-2.7,0-5-2.2-5-5c0-2.7,2.2-5,5-5c1.8,0,3.5,1,4.4,2.6L245,146.2z M210.5,136h3.2v-2.7h-3.2V136z"/>
<g>
	<path d="M281.1,97.9c-5.8-4.9-9.7-11.7-11-19.1v0c-1.5-7.8-8.3-13.5-16.3-13.5c-8,0-14.8,5.7-16.3,13.5v0
		c-1.4,7.5-5.3,14.2-11,19.1l0,0c-3.7,3.1-5.8,7.7-5.8,12.6c0,9.1,7.4,16.6,16.6,16.6c1.9,0,3.8-0.3,5.5-0.9l0,0
		c3.5-1.3,7.3-1.9,11-1.9c3.8,0,7.5,0.6,11.1,1.9l0,0c1.8,0.6,3.6,0.9,5.5,0.9c9.1,0,16.6-7.4,16.6-16.6
		C286.9,105.7,284.8,101.1,281.1,97.9L281.1,97.9z"/>
	<path d="M214.9,55.4c-8.8,5.1-14.2,14.5-14.2,24.6l0,0c0,7.8,6.4,14.2,14.2,14.2c7.8,0,14.2-6.4,14.2-14.2l0,0
		C229.1,69.9,223.7,60.5,214.9,55.4L214.9,55.4z"/>
	<path d="M236.8,24.7c-8.8,5.1-14.2,14.5-14.2,24.6l0,0c0,7.8,6.4,14.2,14.2,14.2c7.8,0,14.2-6.4,14.2-14.2l0,0
		C251,39.1,245.6,29.7,236.8,24.7L236.8,24.7z"/>
	<path d="M292.6,55.4c8.8,5.1,14.2,14.5,14.2,24.6l0,0c0,7.8-6.4,14.2-14.2,14.2c-7.8,0-14.2-6.4-14.2-14.2l0,0
		C278.4,69.9,283.8,60.5,292.6,55.4L292.6,55.4z"/>
	<path d="M270.7,24.7c8.8,5.1,14.2,14.5,14.2,24.6l0,0c0,7.8-6.4,14.2-14.2,14.2s-14.2-6.4-14.2-14.2l0,0
		C256.5,39.1,261.9,29.7,270.7,24.7L270.7,24.7z"/>
</g>
<g>
	<path d="M123.8,116.4c-7.6-6.5-12.7-15.4-14.6-25.2v0c-1.9-10.3-11-17.9-21.5-17.9c-10.5,0-19.6,7.5-21.5,17.9v0
		c-1.8,9.8-7,18.7-14.6,25.2l0,0c-4.9,4.2-7.7,10.2-7.7,16.6c0,12.1,9.8,21.9,21.9,21.9c2.5,0,4.9-0.4,7.3-1.3l0,0
		c4.7-1.7,9.6-2.5,14.6-2.5c5,0,9.9,0.8,14.6,2.5l0,0c2.3,0.8,4.8,1.3,7.3,1.3c12.1,0,21.9-9.8,21.9-21.9
		C131.5,126.7,128.7,120.6,123.8,116.4L123.8,116.4z"/>
	<path d="M36.6,60.3C24.9,67,17.8,79.4,17.8,92.8l0,0c0,10.3,8.4,18.7,18.8,18.7c10.3,0,18.7-8.4,18.7-18.7l0,0
		C55.3,79.4,48.2,67,36.6,60.3L36.6,60.3z"/>
	<path d="M65.4,19.8c-11.6,6.7-18.7,19.1-18.7,32.5l0,0C46.6,62.6,55,71,65.4,71c10.4,0,18.8-8.4,18.8-18.7l0,0
		C84.1,38.8,77,26.5,65.4,19.8L65.4,19.8z"/>
	<path d="M139,60.3c11.6,6.7,18.7,19.1,18.7,32.5l0,0c0,10.3-8.4,18.7-18.7,18.7c-10.4,0-18.8-8.4-18.8-18.7l0,0
		C120.2,79.4,127.4,67,139,60.3L139,60.3z"/>
	<path d="M110.2,19.8c11.6,6.7,18.7,19.1,18.7,32.5l0,0c0,10.4-8.4,18.7-18.7,18.7s-18.7-8.4-18.7-18.7l0,0
		C91.4,38.8,98.6,26.5,110.2,19.8L110.2,19.8z"/>
</g>
</svg>
